%TF.GenerationSoftware,KiCad,Pcbnew,10.0.5*%
%TF.CreationDate,2026-09-21T10:22:02-04:00*%
%TF.ProjectId,Symm60HE-Daughterboard,53796d6d-3630-4484-952d-446175676874,rev?*%
%TF.SameCoordinates,Original*%
%TF.FileFunction,Legend,Bot*%
%TF.FilePolarity,Positive*%
%FSLAX46Y46*%
G04 Gerber Fmt 4.6, Leading zero omitted, Abs format (unit mm)*
G04 Created by KiCad (PCBNEW 10.0.5) date 2026-09-21 10:22:02*
%MOMM*%
%LPD*%
G01*
G04 APERTURE LIST*
G04 Aperture macros list*
%AMRoundRect*
0 Rectangle with rounded corners*
0 $1 Rounding radius*
0 $2 $3 $4 $5 $6 $7 $8 $9 X,Y pos of 4 corners*
0 Add a 4 corners polygon primitive as box body*
4,1,4,$2,$3,$4,$5,$6,$7,$8,$9,$2,$3,0*
0 Add four circle primitives for the rounded corners*
1,1,$1+$1,$2,$3*
1,1,$1+$1,$4,$5*
1,1,$1+$1,$6,$7*
1,1,$1+$1,$8,$9*
0 Add four rect primitives between the rounded corners*
20,1,$1+$1,$2,$3,$4,$5,0*
20,1,$1+$1,$4,$5,$6,$7,0*
20,1,$1+$1,$6,$7,$8,$9,0*
20,1,$1+$1,$8,$9,$2,$3,0*%
G04 Aperture macros list end*
%ADD10C,0.650000*%
%ADD11O,1.000000X2.100000*%
%ADD12O,1.000000X1.600000*%
%ADD13C,2.200000*%
%ADD14RoundRect,0.140000X-0.140000X-0.170000X0.140000X-0.170000X0.140000X0.170000X-0.140000X0.170000X0*%
%ADD15RoundRect,0.135000X-0.135000X-0.185000X0.135000X-0.185000X0.135000X0.185000X-0.135000X0.185000X0*%
%ADD16RoundRect,0.150000X-0.512500X-0.150000X0.512500X-0.150000X0.512500X0.150000X-0.512500X0.150000X0*%
%ADD17RoundRect,0.225000X-0.225000X-0.250000X0.225000X-0.250000X0.225000X0.250000X-0.225000X0.250000X0*%
%ADD18RoundRect,0.135000X0.185000X-0.135000X0.185000X0.135000X-0.185000X0.135000X-0.185000X-0.135000X0*%
G04 APERTURE END LIST*
%LPC*%
D10*
%TO.C,J1*%
X190099000Y513300D03*
X184319000Y513300D03*
D11*
X191529000Y-16700D03*
D12*
X191529000Y4163300D03*
D11*
X182889000Y-16700D03*
D12*
X182889000Y4163300D03*
%TD*%
D13*
%TO.C,MHD4*%
X165209000Y-20973400D03*
%TD*%
%TO.C,MHD1*%
X165209000Y3500000D03*
%TD*%
%TO.C,MHD3*%
X209209000Y3500000D03*
%TD*%
%TO.C,MHD2*%
X209209000Y-20973400D03*
%TD*%
D14*
%TO.C,C7*%
X185329000Y-2136700D03*
X186289000Y-2136700D03*
%TD*%
D15*
%TO.C,R5*%
X175490000Y0D03*
X176510000Y0D03*
%TD*%
D14*
%TO.C,C11*%
X190920000Y-18536700D03*
X191880000Y-18536700D03*
%TD*%
D16*
%TO.C,U6*%
X198862500Y-950000D03*
X198862500Y0D03*
X198862500Y950000D03*
X201137500Y950000D03*
X201137500Y-950000D03*
%TD*%
D17*
%TO.C,C14*%
X182234000Y-17536700D03*
X183784000Y-17536700D03*
%TD*%
%TO.C,C8*%
X197734000Y-8536700D03*
X199284000Y-8536700D03*
%TD*%
D14*
%TO.C,C17*%
X205020000Y4500000D03*
X205980000Y4500000D03*
%TD*%
%TO.C,C3*%
X186320000Y-18536700D03*
X187280000Y-18536700D03*
%TD*%
%TO.C,C5*%
X185529000Y-4136700D03*
X186489000Y-4136700D03*
%TD*%
D17*
%TO.C,C10*%
X195225000Y-18536700D03*
X196775000Y-18536700D03*
%TD*%
D14*
%TO.C,C16*%
X170019000Y303300D03*
X170979000Y303300D03*
%TD*%
%TO.C,C4*%
X188620000Y-18536700D03*
X189580000Y-18536700D03*
%TD*%
%TO.C,C6*%
X197329000Y-11036700D03*
X198289000Y-11036700D03*
%TD*%
D15*
%TO.C,R6*%
X203490000Y1000000D03*
X204510000Y1000000D03*
%TD*%
D18*
%TO.C,R4*%
X195000000Y-10000D03*
X195000000Y1010000D03*
%TD*%
D17*
%TO.C,C12*%
X202225000Y0D03*
X203775000Y0D03*
%TD*%
%TO.C,C13*%
X209134000Y-236700D03*
X210684000Y-236700D03*
%TD*%
%TO.C,C15*%
X202234000Y-18536700D03*
X203784000Y-18536700D03*
%TD*%
D14*
%TO.C,C9*%
X193220000Y-18536700D03*
X194180000Y-18536700D03*
%TD*%
D16*
%TO.C,U5*%
X169361500Y1553300D03*
X169361500Y2503300D03*
X169361500Y3453300D03*
X171636500Y3453300D03*
X171636500Y1553300D03*
%TD*%
%LPD*%
M02*
