%TF.GenerationSoftware,KiCad,Pcbnew,10.0.5*%
%TF.CreationDate,2026-10-05T15:10:35-04:00*%
%TF.ProjectId,Symm60HE-Daughterboard,53796d6d-3630-4484-952d-446175676874,rev?*%
%TF.SameCoordinates,Original*%
%TF.FileFunction,Copper,L1,Top*%
%TF.FilePolarity,Positive*%
%FSLAX46Y46*%
G04 Gerber Fmt 4.6, Leading zero omitted, Abs format (unit mm)*
G04 Created by KiCad (PCBNEW 10.0.5) date 2026-10-05 15:10:35*
%MOMM*%
%LPD*%
G01*
G04 APERTURE LIST*
G04 Aperture macros list*
%AMRoundRect*
0 Rectangle with rounded corners*
0 $1 Rounding radius*
0 $2 $3 $4 $5 $6 $7 $8 $9 X,Y pos of 4 corners*
0 Add a 4 corners polygon primitive as box body*
4,1,4,$2,$3,$4,$5,$6,$7,$8,$9,$2,$3,0*
0 Add four circle primitives for the rounded corners*
1,1,$1+$1,$2,$3*
1,1,$1+$1,$4,$5*
1,1,$1+$1,$6,$7*
1,1,$1+$1,$8,$9*
0 Add four rect primitives between the rounded corners*
20,1,$1+$1,$2,$3,$4,$5,0*
20,1,$1+$1,$4,$5,$6,$7,0*
20,1,$1+$1,$6,$7,$8,$9,0*
20,1,$1+$1,$8,$9,$2,$3,0*%
G04 Aperture macros list end*
%TA.AperFunction,SMDPad,CuDef*%
%ADD10RoundRect,0.150000X0.950000X-0.150000X0.950000X0.150000X-0.950000X0.150000X-0.950000X-0.150000X0*%
%TD*%
%TA.AperFunction,SMDPad,CuDef*%
%ADD11RoundRect,0.360000X0.940000X-0.540000X0.940000X0.540000X-0.940000X0.540000X-0.940000X-0.540000X0*%
%TD*%
%TA.AperFunction,SMDPad,CuDef*%
%ADD12RoundRect,0.075000X-0.700000X-0.075000X0.700000X-0.075000X0.700000X0.075000X-0.700000X0.075000X0*%
%TD*%
%TA.AperFunction,SMDPad,CuDef*%
%ADD13RoundRect,0.075000X-0.075000X-0.700000X0.075000X-0.700000X0.075000X0.700000X-0.075000X0.700000X0*%
%TD*%
%TA.AperFunction,SMDPad,CuDef*%
%ADD14RoundRect,0.225000X-0.225000X-0.250000X0.225000X-0.250000X0.225000X0.250000X-0.225000X0.250000X0*%
%TD*%
%TA.AperFunction,SMDPad,CuDef*%
%ADD15RoundRect,0.150000X0.150000X0.575000X-0.150000X0.575000X-0.150000X-0.575000X0.150000X-0.575000X0*%
%TD*%
%TA.AperFunction,SMDPad,CuDef*%
%ADD16RoundRect,0.075000X0.075000X0.650000X-0.075000X0.650000X-0.075000X-0.650000X0.075000X-0.650000X0*%
%TD*%
%TA.AperFunction,ComponentPad*%
%ADD17O,1.000000X2.100000*%
%TD*%
%TA.AperFunction,ComponentPad*%
%ADD18O,1.000000X1.600000*%
%TD*%
%TA.AperFunction,SMDPad,CuDef*%
%ADD19RoundRect,0.243750X-0.243750X-0.456250X0.243750X-0.456250X0.243750X0.456250X-0.243750X0.456250X0*%
%TD*%
%TA.AperFunction,SMDPad,CuDef*%
%ADD20RoundRect,0.150000X-0.512500X-0.150000X0.512500X-0.150000X0.512500X0.150000X-0.512500X0.150000X0*%
%TD*%
%TA.AperFunction,SMDPad,CuDef*%
%ADD21RoundRect,0.135000X-0.135000X-0.185000X0.135000X-0.185000X0.135000X0.185000X-0.135000X0.185000X0*%
%TD*%
%TA.AperFunction,SMDPad,CuDef*%
%ADD22R,0.750000X1.000000*%
%TD*%
%TA.AperFunction,SMDPad,CuDef*%
%ADD23RoundRect,0.250000X-0.450000X-0.350000X0.450000X-0.350000X0.450000X0.350000X-0.450000X0.350000X0*%
%TD*%
%TA.AperFunction,SMDPad,CuDef*%
%ADD24RoundRect,0.150000X-0.950000X0.150000X-0.950000X-0.150000X0.950000X-0.150000X0.950000X0.150000X0*%
%TD*%
%TA.AperFunction,SMDPad,CuDef*%
%ADD25RoundRect,0.360000X-0.940000X0.540000X-0.940000X-0.540000X0.940000X-0.540000X0.940000X0.540000X0*%
%TD*%
%TA.AperFunction,SMDPad,CuDef*%
%ADD26R,1.000000X0.750000*%
%TD*%
%TA.AperFunction,ViaPad*%
%ADD27C,0.600000*%
%TD*%
%TA.AperFunction,Conductor*%
%ADD28C,0.300000*%
%TD*%
%TA.AperFunction,Conductor*%
%ADD29C,0.250000*%
%TD*%
%TA.AperFunction,Conductor*%
%ADD30C,0.400000*%
%TD*%
%TA.AperFunction,Conductor*%
%ADD31C,0.200000*%
%TD*%
G04 APERTURE END LIST*
D10*
%TO.P,J2,1*%
%TO.N,+3V3A*%
X163809000Y-14236700D03*
%TO.P,J2,2*%
%TO.N,ADC_L5*%
X163809000Y-13236700D03*
%TO.P,J2,3*%
%TO.N,MUX_A0*%
X163809000Y-12236700D03*
%TO.P,J2,4*%
%TO.N,MUX_A1*%
X163809000Y-11236700D03*
%TO.P,J2,5*%
%TO.N,MUX_A2*%
X163809000Y-10236700D03*
%TO.P,J2,6*%
%TO.N,VBUS*%
X163809000Y-9236700D03*
%TO.P,J2,7*%
%TO.N,ADC_L1*%
X163809000Y-8236700D03*
%TO.P,J2,8*%
%TO.N,GND*%
X163809000Y-7236700D03*
%TO.P,J2,9*%
%TO.N,ADC_L2*%
X163809000Y-6236700D03*
%TO.P,J2,10*%
%TO.N,RGB_L*%
X163809000Y-5236700D03*
%TO.P,J2,11*%
%TO.N,ADC_L3*%
X163809000Y-4236700D03*
%TO.P,J2,12*%
%TO.N,ADC_L4*%
X163809000Y-3236700D03*
D11*
%TO.P,J2,MP*%
%TO.N,N/C*%
X166009000Y-16536700D03*
X166009000Y-936700D03*
%TD*%
D12*
%TO.P,U1,1*%
%TO.N,+3V3D*%
X185034000Y-4986700D03*
%TO.P,U1,2*%
%TO.N,N/C*%
X185034000Y-5486700D03*
%TO.P,U1,3*%
X185034000Y-5986700D03*
%TO.P,U1,4*%
X185034000Y-6486700D03*
%TO.P,U1,5*%
%TO.N,XTAL_IN*%
X185034000Y-6986700D03*
%TO.P,U1,6*%
%TO.N,XTAL_OUT*%
X185034000Y-7486700D03*
%TO.P,U1,7*%
%TO.N,NRST*%
X185034000Y-7986700D03*
%TO.P,U1,8*%
%TO.N,RGB_L_MCU*%
X185034000Y-8486700D03*
%TO.P,U1,9*%
%TO.N,MUX_A0*%
X185034000Y-8986700D03*
%TO.P,U1,10*%
%TO.N,MUX_A1*%
X185034000Y-9486700D03*
%TO.P,U1,11*%
%TO.N,MUX_A2*%
X185034000Y-9986700D03*
%TO.P,U1,12*%
%TO.N,GND*%
X185034000Y-10486700D03*
%TO.P,U1,13*%
%TO.N,+3V3A*%
X185034000Y-10986700D03*
%TO.P,U1,14*%
%TO.N,N/C*%
X185034000Y-11486700D03*
%TO.P,U1,15*%
%TO.N,ADC_R5*%
X185034000Y-11986700D03*
%TO.P,U1,16*%
%TO.N,ADC_L5*%
X185034000Y-12486700D03*
D13*
%TO.P,U1,17*%
%TO.N,ADC_L1*%
X186959000Y-14411700D03*
%TO.P,U1,18*%
%TO.N,N/C*%
X187459000Y-14411700D03*
%TO.P,U1,19*%
X187959000Y-14411700D03*
%TO.P,U1,20*%
%TO.N,ADC_L2*%
X188459000Y-14411700D03*
%TO.P,U1,21*%
%TO.N,ADC_L3*%
X188959000Y-14411700D03*
%TO.P,U1,22*%
%TO.N,ADC_L4*%
X189459000Y-14411700D03*
%TO.P,U1,23*%
%TO.N,ADC_R1*%
X189959000Y-14411700D03*
%TO.P,U1,24*%
%TO.N,ADC_R2*%
X190459000Y-14411700D03*
%TO.P,U1,25*%
%TO.N,ADC_R3*%
X190959000Y-14411700D03*
%TO.P,U1,26*%
%TO.N,ADC_R4*%
X191459000Y-14411700D03*
%TO.P,U1,27*%
%TO.N,N/C*%
X191959000Y-14411700D03*
%TO.P,U1,28*%
X192459000Y-14411700D03*
%TO.P,U1,29*%
X192959000Y-14411700D03*
%TO.P,U1,30*%
X193459000Y-14411700D03*
%TO.P,U1,31*%
%TO.N,GND*%
X193959000Y-14411700D03*
%TO.P,U1,32*%
%TO.N,N/C*%
X194459000Y-14411700D03*
D12*
%TO.P,U1,33*%
%TO.N,USB_R*%
X196384000Y-12486700D03*
%TO.P,U1,34*%
%TO.N,USB_DM*%
X196384000Y-11986700D03*
%TO.P,U1,35*%
%TO.N,USB_DP*%
X196384000Y-11486700D03*
%TO.P,U1,36*%
%TO.N,+3V3D*%
X196384000Y-10986700D03*
%TO.P,U1,37*%
%TO.N,N/C*%
X196384000Y-10486700D03*
%TO.P,U1,38*%
X196384000Y-9986700D03*
%TO.P,U1,39*%
X196384000Y-9486700D03*
%TO.P,U1,40*%
X196384000Y-8986700D03*
%TO.P,U1,41*%
%TO.N,RGB_R_MCU*%
X196384000Y-8486700D03*
%TO.P,U1,42*%
%TO.N,N/C*%
X196384000Y-7986700D03*
%TO.P,U1,43*%
X196384000Y-7486700D03*
%TO.P,U1,44*%
X196384000Y-6986700D03*
%TO.P,U1,45*%
X196384000Y-6486700D03*
%TO.P,U1,46*%
%TO.N,SWDIO*%
X196384000Y-5986700D03*
%TO.P,U1,47*%
%TO.N,N/C*%
X196384000Y-5486700D03*
%TO.P,U1,48*%
X196384000Y-4986700D03*
D13*
%TO.P,U1,49*%
%TO.N,SWCLK*%
X194459000Y-3061700D03*
%TO.P,U1,50*%
%TO.N,N/C*%
X193959000Y-3061700D03*
%TO.P,U1,51*%
X193459000Y-3061700D03*
%TO.P,U1,52*%
X192959000Y-3061700D03*
%TO.P,U1,53*%
X192459000Y-3061700D03*
%TO.P,U1,54*%
X191959000Y-3061700D03*
%TO.P,U1,55*%
%TO.N,SWO*%
X191459000Y-3061700D03*
%TO.P,U1,56*%
%TO.N,N/C*%
X190959000Y-3061700D03*
%TO.P,U1,57*%
X190459000Y-3061700D03*
%TO.P,U1,58*%
X189959000Y-3061700D03*
%TO.P,U1,59*%
X189459000Y-3061700D03*
%TO.P,U1,60*%
%TO.N,BOOT0*%
X188959000Y-3061700D03*
%TO.P,U1,61*%
%TO.N,N/C*%
X188459000Y-3061700D03*
%TO.P,U1,62*%
X187959000Y-3061700D03*
%TO.P,U1,63*%
%TO.N,GND*%
X187459000Y-3061700D03*
%TO.P,U1,64*%
%TO.N,+3V3D*%
X186959000Y-3061700D03*
%TD*%
D14*
%TO.P,C2,1*%
%TO.N,+3V3D*%
X204725000Y-13500000D03*
%TO.P,C2,2*%
%TO.N,GND*%
X206275000Y-13500000D03*
%TD*%
D15*
%TO.P,J1,A1*%
%TO.N,GND*%
X190459000Y-931700D03*
%TO.P,J1,A4*%
%TO.N,VBUS_IN*%
X189659000Y-931700D03*
D16*
%TO.P,J1,A5*%
%TO.N,CC1*%
X188459000Y-931700D03*
%TO.P,J1,A6*%
%TO.N,USB_DP*%
X187459000Y-931700D03*
%TO.P,J1,A7*%
%TO.N,USB_DM*%
X186959000Y-931700D03*
%TO.P,J1,A8*%
%TO.N,N/C*%
X185959000Y-931700D03*
D15*
%TO.P,J1,A9*%
%TO.N,VBUS_IN*%
X184759000Y-931700D03*
%TO.P,J1,A12*%
%TO.N,GND*%
X183959000Y-931700D03*
%TO.P,J1,B1*%
X183959000Y-931700D03*
%TO.P,J1,B4*%
%TO.N,VBUS_IN*%
X184759000Y-931700D03*
D16*
%TO.P,J1,B5*%
%TO.N,CC2*%
X185459000Y-931700D03*
%TO.P,J1,B6*%
%TO.N,USB_DP*%
X186459000Y-931700D03*
%TO.P,J1,B7*%
%TO.N,USB_DM*%
X187959000Y-931700D03*
%TO.P,J1,B8*%
%TO.N,N/C*%
X188959000Y-931700D03*
D15*
%TO.P,J1,B9*%
%TO.N,VBUS_IN*%
X189659000Y-931700D03*
%TO.P,J1,B12*%
%TO.N,GND*%
X190459000Y-931700D03*
D17*
%TO.P,J1,SH*%
X191529000Y-16700D03*
D18*
X191529000Y4163300D03*
D17*
X182889000Y-16700D03*
D18*
X182889000Y4163300D03*
%TD*%
D19*
%TO.P,F1,1*%
%TO.N,VBUS_IN*%
X203862500Y1600000D03*
%TO.P,F1,2*%
%TO.N,VBUS*%
X205737500Y1600000D03*
%TD*%
D14*
%TO.P,C1,1*%
%TO.N,VBUS*%
X203725000Y-1000000D03*
%TO.P,C1,2*%
%TO.N,GND*%
X205275000Y-1000000D03*
%TD*%
D20*
%TO.P,U2,1*%
%TO.N,USB_DP*%
X200571500Y-2286700D03*
%TO.P,U2,2*%
%TO.N,GND*%
X200571500Y-3236700D03*
%TO.P,U2,3*%
%TO.N,USB_DM*%
X200571500Y-4186700D03*
%TO.P,U2,4*%
X202846500Y-4186700D03*
%TO.P,U2,5*%
%TO.N,VBUS*%
X202846500Y-3236700D03*
%TO.P,U2,6*%
%TO.N,USB_DP*%
X202846500Y-2286700D03*
%TD*%
D21*
%TO.P,R2,1*%
%TO.N,CC1*%
X195699000Y-2736700D03*
%TO.P,R2,2*%
%TO.N,GND*%
X196719000Y-2736700D03*
%TD*%
%TO.P,R3,1*%
%TO.N,CC2*%
X202699000Y-14736700D03*
%TO.P,R3,2*%
%TO.N,GND*%
X203719000Y-14736700D03*
%TD*%
D22*
%TO.P,SW2,1*%
%TO.N,NRST*%
X179625000Y-19200000D03*
X179625000Y-13200000D03*
%TO.P,SW2,2*%
%TO.N,GND*%
X183375000Y-19200000D03*
X183375000Y-13200000D03*
%TD*%
D21*
%TO.P,R1,1*%
%TO.N,USB_R*%
X199699000Y-6736700D03*
%TO.P,R1,2*%
%TO.N,GND*%
X200719000Y-6736700D03*
%TD*%
D20*
%TO.P,U4,1*%
%TO.N,GND*%
X178862500Y-10050000D03*
%TO.P,U4,2*%
%TO.N,+3V3A*%
X178862500Y-11950000D03*
%TO.P,U4,3*%
%TO.N,+3V3D*%
X181137500Y-11000000D03*
%TD*%
D23*
%TO.P,Y1,1*%
%TO.N,XTAL_IN*%
X178609000Y-8586700D03*
%TO.P,Y1,2*%
%TO.N,GND*%
X180809000Y-8586700D03*
%TO.P,Y1,3*%
%TO.N,XTAL_OUT*%
X180809000Y-6886700D03*
%TO.P,Y1,4*%
%TO.N,GND*%
X178609000Y-6886700D03*
%TD*%
D24*
%TO.P,J3,1*%
%TO.N,+3V3A*%
X210609000Y-3236700D03*
%TO.P,J3,2*%
%TO.N,ADC_R5*%
X210609000Y-4236700D03*
%TO.P,J3,3*%
%TO.N,MUX_A0*%
X210609000Y-5236700D03*
%TO.P,J3,4*%
%TO.N,MUX_A1*%
X210609000Y-6236700D03*
%TO.P,J3,5*%
%TO.N,MUX_A2*%
X210609000Y-7236700D03*
%TO.P,J3,6*%
%TO.N,VBUS*%
X210609000Y-8236700D03*
%TO.P,J3,7*%
%TO.N,ADC_R1*%
X210609000Y-9236700D03*
%TO.P,J3,8*%
%TO.N,GND*%
X210609000Y-10236700D03*
%TO.P,J3,9*%
%TO.N,ADC_R2*%
X210609000Y-11236700D03*
%TO.P,J3,10*%
%TO.N,RGB_R*%
X210609000Y-12236700D03*
%TO.P,J3,11*%
%TO.N,ADC_R3*%
X210609000Y-13236700D03*
%TO.P,J3,12*%
%TO.N,ADC_R4*%
X210609000Y-14236700D03*
D25*
%TO.P,J3,MP*%
%TO.N,N/C*%
X208409000Y-936700D03*
X208409000Y-16536700D03*
%TD*%
D20*
%TO.P,U3,1*%
%TO.N,VBUS*%
X203162500Y-7050000D03*
%TO.P,U3,2*%
%TO.N,GND*%
X203162500Y-8000000D03*
%TO.P,U3,3*%
%TO.N,N/C*%
X203162500Y-8950000D03*
%TO.P,U3,4*%
X205437500Y-8950000D03*
%TO.P,U3,5*%
%TO.N,+3V3D*%
X205437500Y-7050000D03*
%TD*%
D26*
%TO.P,SW1,1*%
%TO.N,BOOT0*%
X172000000Y-1625000D03*
X178000000Y-1625000D03*
%TO.P,SW1,2*%
%TO.N,GND*%
X172000000Y-5375000D03*
X178000000Y-5375000D03*
%TD*%
D27*
%TO.N,+3V3A*%
X180294500Y-14141100D03*
X211341500Y-2430800D03*
X180294500Y-16667400D03*
X168000000Y-13837500D03*
X193115100Y-19352100D03*
%TO.N,ADC_L5*%
X168679900Y-12837500D03*
X183745500Y-12132500D03*
%TO.N,MUX_A0*%
X208073700Y-5572600D03*
X182993400Y-9876800D03*
X178454400Y-11000000D03*
%TO.N,MUX_A1*%
X186802600Y-9462700D03*
X177342500Y-6466200D03*
%TO.N,MUX_A2*%
X165417900Y-9952000D03*
X186525200Y-10284400D03*
%TO.N,VBUS*%
X207669300Y-7892900D03*
X204484700Y-3238300D03*
X205642300Y29700D03*
X172922600Y-9950100D03*
%TO.N,ADC_L1*%
X175251800Y-8096700D03*
X186307000Y-14411700D03*
%TO.N,GND*%
X199163800Y-3194000D03*
X186504400Y-17700100D03*
X173284300Y-5376700D03*
X205519700Y-10635900D03*
X181417800Y-13452900D03*
%TO.N,ADC_L2*%
X188195100Y-13116200D03*
X165425400Y-6635900D03*
%TO.N,RGB_L*%
X172504100Y-4005900D03*
%TO.N,ADC_L3*%
X165418100Y-4236700D03*
X185717200Y-15057700D03*
%TO.N,ADC_L4*%
X189040500Y-13119400D03*
X166689300Y-3633100D03*
%TO.N,+3V3D*%
X186501900Y-4986700D03*
X204631000Y-6243500D03*
X183989800Y-14347100D03*
X179965200Y-11000000D03*
X199426300Y-10834000D03*
X181982900Y-14347100D03*
%TO.N,XTAL_IN*%
X180133000Y-9702500D03*
%TO.N,XTAL_OUT*%
X181827000Y-9447400D03*
%TO.N,NRST*%
X188290200Y-8318600D03*
X189136700Y-16061400D03*
X189859500Y-12385500D03*
%TO.N,RGB_L_MCU*%
X187549000Y-7925800D03*
%TO.N,ADC_R5*%
X208475400Y-4764200D03*
X184291900Y-13341500D03*
%TO.N,ADC_R1*%
X206612800Y-9346600D03*
X190757200Y-15960600D03*
%TO.N,ADC_R2*%
X207111800Y-11221600D03*
X193447500Y-9988200D03*
X205897400Y-11589100D03*
X191067600Y-13070100D03*
X197832100Y-6836700D03*
X191166500Y-9988200D03*
%TO.N,ADC_R4*%
X206266600Y-18860100D03*
X205905000Y-15542300D03*
%TO.N,USB_DM*%
X204179400Y-4186700D03*
X187193300Y713800D03*
X200066900Y-11570700D03*
X194652800Y-10316500D03*
X181971300Y-3299000D03*
%TO.N,USB_DP*%
X186460600Y295600D03*
X195096600Y-11151200D03*
X197717000Y-2286700D03*
%TO.N,RGB_R_MCU*%
X198319200Y-7591300D03*
%TO.N,BOOT0*%
X187340500Y-6702300D03*
X190049900Y-4358400D03*
X178524300Y-2523600D03*
%TO.N,CC1*%
X194734900Y-1772600D03*
X188459000Y298900D03*
%TO.N,CC2*%
X195112400Y-13561800D03*
X184605100Y-2674900D03*
%TO.N,RGB_R*%
X209003900Y-11823400D03*
%TD*%
%TO.N,+3V3A*%
D28*
X190430400Y-16667400D02*
X180294500Y-16667400D01*
X168534700Y-13837500D02*
X164208200Y-13837500D01*
X170422200Y-11950000D02*
X178862500Y-11950000D01*
X180384100Y-11950000D02*
X182167300Y-11950000D01*
X182167300Y-11950000D02*
X183081100Y-11036200D01*
X164208200Y-13837500D02*
X163809000Y-14236700D01*
X183081100Y-11036200D02*
X184984500Y-11036200D01*
X193115100Y-19352100D02*
X190430400Y-16667400D01*
X180384100Y-11950000D02*
X180384100Y-14051500D01*
X184984500Y-11036200D02*
X185034000Y-10986700D01*
X180384100Y-14051500D02*
X180294500Y-14141100D01*
X210609000Y-3236700D02*
X211341500Y-2504200D01*
X168534700Y-13837500D02*
X170422200Y-11950000D01*
X178862500Y-11950000D02*
X180384100Y-11950000D01*
X211341500Y-2504200D02*
X211341500Y-2430800D01*
%TO.N,ADC_L5*%
D29*
X163809000Y-13236700D02*
X164208200Y-12837500D01*
X184984500Y-12437200D02*
X185034000Y-12486700D01*
X184050200Y-12437200D02*
X183745500Y-12132500D01*
X184050200Y-12437200D02*
X184984500Y-12437200D01*
X164208200Y-12837500D02*
X168679900Y-12837500D01*
%TO.N,MUX_A0*%
X185034000Y-8986700D02*
X183883500Y-8986700D01*
X178454400Y-11000000D02*
X168859800Y-11000000D01*
X210609000Y-5236700D02*
X210273100Y-5572600D01*
X167623100Y-12236700D02*
X163809000Y-12236700D01*
X210273100Y-5572600D02*
X208073700Y-5572600D01*
X183883500Y-8986700D02*
X182993400Y-9876800D01*
X168859800Y-11000000D02*
X167623100Y-12236700D01*
%TO.N,MUX_A1*%
X207593000Y-6236700D02*
X206431900Y-5075600D01*
X186778600Y-9486700D02*
X186802600Y-9462700D01*
X166107100Y-10553800D02*
X173655700Y-10553800D01*
X210609000Y-6236700D02*
X207593000Y-6236700D01*
X195130900Y-3697900D02*
X189366100Y-9462700D01*
X206431900Y-5075600D02*
X199787400Y-5075600D01*
X163809000Y-11236700D02*
X165424200Y-11236700D01*
X177342500Y-6867000D02*
X177342500Y-6466200D01*
X199787400Y-5075600D02*
X198409700Y-3697900D01*
X165424200Y-11236700D02*
X166107100Y-10553800D01*
X198409700Y-3697900D02*
X195130900Y-3697900D01*
X189366100Y-9462700D02*
X186802600Y-9462700D01*
X173655700Y-10553800D02*
X177342500Y-6867000D01*
X185034000Y-9486700D02*
X186778600Y-9486700D01*
%TO.N,MUX_A2*%
X189360400Y-10090200D02*
X195351000Y-4099600D01*
X186571900Y-10090200D02*
X189360400Y-10090200D01*
X186571900Y-10090200D02*
X186571900Y-10237700D01*
X199529300Y-5477300D02*
X206183000Y-5477300D01*
X186571900Y-10237700D02*
X186525200Y-10284400D01*
X185034000Y-9986700D02*
X186468400Y-9986700D01*
X198151600Y-4099600D02*
X199529300Y-5477300D01*
X207942400Y-7236700D02*
X210609000Y-7236700D01*
X163809000Y-10236700D02*
X164093700Y-9952000D01*
X186468400Y-9986700D02*
X186571900Y-10090200D01*
X164093700Y-9952000D02*
X165417900Y-9952000D01*
X195351000Y-4099600D02*
X198151600Y-4099600D01*
X206183000Y-5477300D02*
X207942400Y-7236700D01*
%TO.N,VBUS*%
D30*
X203622360Y-2887500D02*
X203852100Y-2657760D01*
X203725000Y-1000000D02*
X203852100Y-1127100D01*
X202846500Y-3236700D02*
X204483100Y-3236700D01*
D31*
X203195700Y-2887500D02*
X202846500Y-3236700D01*
D30*
X207669300Y-7892900D02*
X210265200Y-7892900D01*
X204032000Y-7399200D02*
X204525700Y-7892900D01*
X163809000Y-9236700D02*
X172209200Y-9236700D01*
D31*
X203511700Y-7399200D02*
X203162500Y-7050000D01*
X203622360Y-2887500D02*
X203195700Y-2887500D01*
D30*
X205737500Y124900D02*
X205737500Y1600000D01*
X204483100Y-3236700D02*
X204484700Y-3238300D01*
X205642300Y29700D02*
X205737500Y124900D01*
X204754700Y29700D02*
X203725000Y-1000000D01*
X172209200Y-9236700D02*
X172922600Y-9950100D01*
X204525700Y-7892900D02*
X207669300Y-7892900D01*
X210265200Y-7892900D02*
X210609000Y-8236700D01*
D31*
X204032000Y-7399200D02*
X203511700Y-7399200D01*
X203852100Y-1127100D02*
X203852100Y-2657760D01*
D30*
X205642300Y29700D02*
X204754700Y29700D01*
%TO.N,ADC_L1*%
D29*
X186959000Y-14411700D02*
X186307000Y-14411700D01*
X163809000Y-8236700D02*
X163949000Y-8096700D01*
X163949000Y-8096700D02*
X175251800Y-8096700D01*
%TO.N,ADC_L2*%
X164208200Y-6635900D02*
X165425400Y-6635900D01*
X188459000Y-14411700D02*
X188459000Y-13380100D01*
X188459000Y-13380100D02*
X188195100Y-13116200D01*
X163809000Y-6236700D02*
X164208200Y-6635900D01*
%TO.N,RGB_L*%
D31*
X167188600Y-4005900D02*
X172504100Y-4005900D01*
X165957800Y-5236700D02*
X167188600Y-4005900D01*
X163809000Y-5236700D02*
X165957800Y-5236700D01*
%TO.N,ADC_L3*%
D29*
X188713700Y-15527400D02*
X186186900Y-15527400D01*
X186186900Y-15527400D02*
X185717200Y-15057700D01*
X188959000Y-15282100D02*
X188713700Y-15527400D01*
X188959000Y-14411700D02*
X188959000Y-15282100D01*
X163809000Y-4236700D02*
X165418100Y-4236700D01*
%TO.N,ADC_L4*%
X163809000Y-3236700D02*
X164205400Y-3633100D01*
X164205400Y-3633100D02*
X166689300Y-3633100D01*
X189459000Y-14411700D02*
X189459000Y-13537900D01*
X189459000Y-13537900D02*
X189040500Y-13119400D01*
%TO.N,+3V3D*%
D28*
X196433500Y-10937200D02*
X196384000Y-10986700D01*
X185034000Y-4986700D02*
X186501900Y-4986700D01*
X202162200Y-10937200D02*
X204725000Y-13500000D01*
X205437500Y-7050000D02*
X204631000Y-6243500D01*
X199426300Y-10937200D02*
X202162200Y-10937200D01*
X181982900Y-14347100D02*
X183989800Y-14347100D01*
X198190100Y-10937200D02*
X199426300Y-10937200D01*
X199426300Y-10937200D02*
X199426300Y-10834000D01*
X181137500Y-11000000D02*
X179965200Y-11000000D01*
X185034000Y-4986700D02*
X186959000Y-3061700D01*
X198190100Y-10937200D02*
X196433500Y-10937200D01*
%TO.N,XTAL_IN*%
D31*
X180093000Y-5949800D02*
X179712200Y-6330600D01*
X178813100Y-8382600D02*
X180133000Y-9702500D01*
X178609000Y-8586700D02*
X178813100Y-8382600D01*
X185034000Y-6986700D02*
X183390900Y-6986700D01*
X179712200Y-6330600D02*
X179712200Y-7483500D01*
X182354000Y-5949800D02*
X180093000Y-5949800D01*
X179712200Y-7483500D02*
X178813100Y-8382600D01*
X183390900Y-6986700D02*
X182354000Y-5949800D01*
%TO.N,XTAL_OUT*%
X180809000Y-6886700D02*
X181359500Y-7437200D01*
X184984500Y-7437200D02*
X185034000Y-7486700D01*
X181359500Y-7437200D02*
X181827000Y-7437200D01*
X181827000Y-7437200D02*
X184084900Y-7437200D01*
X184084900Y-7437200D02*
X184984500Y-7437200D01*
X181827000Y-7437200D02*
X181827000Y-9447400D01*
%TO.N,NRST*%
D29*
X187798200Y-7324100D02*
X186641400Y-7324100D01*
X185067100Y-14789300D02*
X187470900Y-12385500D01*
X186641400Y-7324100D02*
X185978800Y-7986700D01*
X188290200Y-7816100D02*
X187798200Y-7324100D01*
X179625000Y-16061400D02*
X179625000Y-19200000D01*
X179625000Y-13200000D02*
X179625000Y-16061400D01*
X185978800Y-7986700D02*
X185034000Y-7986700D01*
X187470900Y-12385500D02*
X189859500Y-12385500D01*
X185067100Y-16061400D02*
X185067100Y-14789300D01*
X185067100Y-16061400D02*
X189136700Y-16061400D01*
X188290200Y-8318600D02*
X188290200Y-7816100D01*
X179625000Y-16061400D02*
X185067100Y-16061400D01*
%TO.N,RGB_L_MCU*%
D31*
X185034000Y-8486700D02*
X186327500Y-8486700D01*
X186988100Y-8486700D02*
X187549000Y-7925800D01*
X186327500Y-8486700D02*
X186988100Y-8486700D01*
%TO.N,ADC_R5*%
D29*
X210609000Y-4236700D02*
X209002900Y-4236700D01*
X185892800Y-11986700D02*
X186139000Y-12232900D01*
X185034000Y-11986700D02*
X185892800Y-11986700D01*
X185509800Y-13341500D02*
X184291900Y-13341500D01*
X209002900Y-4236700D02*
X208475400Y-4764200D01*
X186139000Y-12232900D02*
X186139000Y-12712300D01*
X186139000Y-12712300D02*
X185509800Y-13341500D01*
%TO.N,ADC_R1*%
X206722700Y-9236700D02*
X206612800Y-9346600D01*
X210609000Y-9236700D02*
X206722700Y-9236700D01*
X189959000Y-15286200D02*
X190633400Y-15960600D01*
X189959000Y-14411700D02*
X189959000Y-15286200D01*
X190633400Y-15960600D02*
X190757200Y-15960600D01*
%TO.N,ADC_R2*%
X191067600Y-13070100D02*
X190938800Y-13070100D01*
X210593900Y-11221600D02*
X207111800Y-11221600D01*
X190938800Y-13070100D02*
X190459000Y-13549900D01*
X203516200Y-11589100D02*
X198763800Y-6836700D01*
X210609000Y-11236700D02*
X210593900Y-11221600D01*
X205897400Y-11589100D02*
X203516200Y-11589100D01*
X198763800Y-6836700D02*
X197832100Y-6836700D01*
X190459000Y-13549900D02*
X190459000Y-14411700D01*
X191166500Y-9988200D02*
X193447500Y-9988200D01*
%TO.N,ADC_R3*%
X203401200Y-18897000D02*
X209061500Y-13236700D01*
X190959000Y-15302500D02*
X194553500Y-18897000D01*
X190959000Y-14411700D02*
X190959000Y-15302500D01*
X209061500Y-13236700D02*
X210609000Y-13236700D01*
X194553500Y-18897000D02*
X203401200Y-18897000D01*
%TO.N,ADC_R4*%
X210609000Y-16766800D02*
X208515700Y-18860100D01*
X208515700Y-18860100D02*
X206266600Y-18860100D01*
X191775300Y-15542300D02*
X191459000Y-15226000D01*
X191459000Y-15226000D02*
X191459000Y-14411700D01*
X205905000Y-15542300D02*
X191775300Y-15542300D01*
X210609000Y-14236700D02*
X210609000Y-16766800D01*
%TO.N,USB_R*%
D31*
X194049300Y-11632700D02*
X194903300Y-12486700D01*
X194049300Y-6013300D02*
X194049300Y-11632700D01*
X197463600Y-4501300D02*
X195561300Y-4501300D01*
X199699000Y-6736700D02*
X197463600Y-4501300D01*
X195561300Y-4501300D02*
X194049300Y-6013300D01*
X194903300Y-12486700D02*
X196384000Y-12486700D01*
%TO.N,USB_DM*%
X194451000Y-10518300D02*
X194652800Y-10316500D01*
X181971300Y-3299000D02*
X185381800Y-3299000D01*
X194451000Y-11387800D02*
X194451000Y-10518300D01*
X199650900Y-11986700D02*
X196384000Y-11986700D01*
X202846500Y-4186700D02*
X204179400Y-4186700D01*
X187959000Y-51900D02*
X187959000Y-931700D01*
X195049900Y-11986700D02*
X194451000Y-11387800D01*
X200066900Y-11570700D02*
X199650900Y-11986700D01*
X187193300Y713800D02*
X187959000Y-51900D01*
X202846500Y-4186700D02*
X200571500Y-4186700D01*
X196384000Y-11986700D02*
X195049900Y-11986700D01*
X185381800Y-3299000D02*
X186959000Y-1721800D01*
X186959000Y-1721800D02*
X186959000Y-931700D01*
%TO.N,USB_DP*%
X186460600Y102300D02*
X186460600Y295600D01*
X187183100Y102300D02*
X187459000Y-173600D01*
X186459000Y100700D02*
X186460600Y102300D01*
X195432100Y-11486700D02*
X195096600Y-11151200D01*
X186459000Y-931700D02*
X186459000Y100700D01*
X186460600Y102300D02*
X187183100Y102300D01*
X200571500Y-2286700D02*
X197717000Y-2286700D01*
X202846500Y-2286700D02*
X200571500Y-2286700D01*
X187459000Y-173600D02*
X187459000Y-931700D01*
X196384000Y-11486700D02*
X195432100Y-11486700D01*
%TO.N,RGB_R_MCU*%
X198319200Y-7591300D02*
X197473300Y-8437200D01*
X197473300Y-8437200D02*
X196433500Y-8437200D01*
X196433500Y-8437200D02*
X196384000Y-8486700D01*
%TO.N,BOOT0*%
D29*
X190048700Y-4359600D02*
X190049900Y-4358400D01*
X188959000Y-3061700D02*
X188959000Y-4203700D01*
X178000000Y-1625000D02*
X178524300Y-2149300D01*
X188959000Y-4203700D02*
X189114900Y-4359600D01*
X189114900Y-4359600D02*
X187340500Y-6134000D01*
X187340500Y-6134000D02*
X187340500Y-6702300D01*
X178524300Y-2149300D02*
X178524300Y-2523600D01*
X178000000Y-1625000D02*
X172000000Y-1625000D01*
X189114900Y-4359600D02*
X190048700Y-4359600D01*
%TO.N,VBUS_IN*%
D31*
X186478600Y1389500D02*
X184759000Y-330100D01*
D30*
X189206400Y1389500D02*
X186478600Y1389500D01*
X184759000Y-330100D02*
X184759000Y-931700D01*
D31*
X189659000Y-931700D02*
X189659000Y-330000D01*
D30*
X189206400Y122600D02*
X189206400Y1389500D01*
X203862500Y1600000D02*
X189416900Y1600000D01*
X189416900Y1600000D02*
X189206400Y1389500D01*
D31*
X189659000Y-330000D02*
X189206400Y122600D01*
%TO.N,CC1*%
X188459000Y-931700D02*
X188459000Y298900D01*
X195699000Y-2736700D02*
X194734900Y-1772600D01*
%TO.N,CC2*%
X195112400Y-13561800D02*
X196287300Y-14736700D01*
X185459000Y-931700D02*
X185459000Y-1821000D01*
X185459000Y-1821000D02*
X184605100Y-2674900D01*
X196287300Y-14736700D02*
X202699000Y-14736700D01*
%TO.N,RGB_R*%
X210609000Y-12236700D02*
X210195700Y-11853400D01*
X210195700Y-11853400D02*
X209003900Y-11823400D01*
%TD*%
%TA.AperFunction,Conductor*%
%TO.N,GND*%
G36*
X178072003Y-12319407D02*
G01*
X178083809Y-12329490D01*
X178143517Y-12389198D01*
X178166636Y-12400500D01*
X178248604Y-12440572D01*
X178248605Y-12440572D01*
X178248607Y-12440573D01*
X178316740Y-12450500D01*
X178316743Y-12450500D01*
X178990356Y-12450500D01*
X179048547Y-12469407D01*
X179084511Y-12518907D01*
X179084511Y-12580093D01*
X179072673Y-12604497D01*
X179061133Y-12621769D01*
X179061132Y-12621772D01*
X179049501Y-12680241D01*
X179049500Y-12680253D01*
X179049500Y-13719746D01*
X179049501Y-13719758D01*
X179061132Y-13778227D01*
X179061134Y-13778233D01*
X179105445Y-13844548D01*
X179105448Y-13844552D01*
X179171769Y-13888867D01*
X179219816Y-13898424D01*
X179273198Y-13928320D01*
X179298814Y-13983885D01*
X179299500Y-13995521D01*
X179299500Y-18404478D01*
X179280593Y-18462669D01*
X179231093Y-18498633D01*
X179219816Y-18501575D01*
X179171772Y-18511132D01*
X179171766Y-18511134D01*
X179105451Y-18555445D01*
X179105445Y-18555451D01*
X179061134Y-18621766D01*
X179061132Y-18621772D01*
X179049501Y-18680241D01*
X179049500Y-18680253D01*
X179049500Y-19719746D01*
X179049501Y-19719758D01*
X179061132Y-19778227D01*
X179061134Y-19778233D01*
X179088035Y-19818492D01*
X179105448Y-19844552D01*
X179171769Y-19888867D01*
X179216231Y-19897711D01*
X179230241Y-19900498D01*
X179230246Y-19900498D01*
X179230252Y-19900500D01*
X179230253Y-19900500D01*
X180019747Y-19900500D01*
X180019748Y-19900500D01*
X180078231Y-19888867D01*
X180144552Y-19844552D01*
X180188867Y-19778231D01*
X180200500Y-19719748D01*
X180200500Y-18680252D01*
X180188867Y-18621769D01*
X180144552Y-18555448D01*
X180144548Y-18555445D01*
X180078233Y-18511134D01*
X180078231Y-18511133D01*
X180078228Y-18511132D01*
X180078227Y-18511132D01*
X180030184Y-18501575D01*
X179976801Y-18471678D01*
X179951186Y-18416112D01*
X179950500Y-18404478D01*
X179950500Y-17218192D01*
X179969407Y-17160001D01*
X180018907Y-17124037D01*
X180080093Y-17124037D01*
X180099006Y-17132459D01*
X180101314Y-17133792D01*
X180228608Y-17167900D01*
X180228610Y-17167900D01*
X180360390Y-17167900D01*
X180360392Y-17167900D01*
X180487686Y-17133792D01*
X180487688Y-17133790D01*
X180487690Y-17133790D01*
X180601809Y-17067903D01*
X180601809Y-17067902D01*
X180601814Y-17067900D01*
X180622819Y-17046894D01*
X180677334Y-17019119D01*
X180692821Y-17017900D01*
X190244210Y-17017900D01*
X190302401Y-17036807D01*
X190314214Y-17046896D01*
X192585604Y-19318286D01*
X192613381Y-19372803D01*
X192614600Y-19388290D01*
X192614600Y-19417992D01*
X192644679Y-19530251D01*
X192648709Y-19545290D01*
X192714596Y-19659409D01*
X192714598Y-19659411D01*
X192714600Y-19659414D01*
X192807786Y-19752600D01*
X192807788Y-19752601D01*
X192807790Y-19752603D01*
X192921910Y-19818490D01*
X192921908Y-19818490D01*
X192921912Y-19818491D01*
X192921914Y-19818492D01*
X193049208Y-19852600D01*
X193049210Y-19852600D01*
X193180990Y-19852600D01*
X193180992Y-19852600D01*
X193308286Y-19818492D01*
X193308288Y-19818490D01*
X193308290Y-19818490D01*
X193422409Y-19752603D01*
X193422409Y-19752602D01*
X193422414Y-19752600D01*
X193515600Y-19659414D01*
X193581492Y-19545286D01*
X193615600Y-19417992D01*
X193615600Y-19286208D01*
X193581492Y-19158914D01*
X193581490Y-19158911D01*
X193581490Y-19158909D01*
X193515603Y-19044790D01*
X193515601Y-19044788D01*
X193515600Y-19044786D01*
X193422414Y-18951600D01*
X193422411Y-18951598D01*
X193422409Y-18951596D01*
X193308289Y-18885709D01*
X193308291Y-18885709D01*
X193258899Y-18872475D01*
X193180992Y-18851600D01*
X193180990Y-18851600D01*
X193151290Y-18851600D01*
X193093099Y-18832693D01*
X193081286Y-18822604D01*
X190862863Y-16604181D01*
X190835086Y-16549664D01*
X190844657Y-16489232D01*
X190887922Y-16445967D01*
X190907235Y-16438554D01*
X190950386Y-16426992D01*
X191064514Y-16361100D01*
X191157700Y-16267914D01*
X191205337Y-16185404D01*
X191250803Y-16144466D01*
X191311653Y-16138069D01*
X191361075Y-16164902D01*
X192833372Y-17637198D01*
X194293033Y-19096859D01*
X194293035Y-19096862D01*
X194353638Y-19157465D01*
X194402370Y-19185600D01*
X194427859Y-19200316D01*
X194427864Y-19200319D01*
X194481146Y-19214596D01*
X194510644Y-19222500D01*
X194510646Y-19222501D01*
X194510647Y-19222501D01*
X194602416Y-19222501D01*
X194602432Y-19222500D01*
X203444051Y-19222500D01*
X203444053Y-19222500D01*
X203526839Y-19200318D01*
X203526841Y-19200316D01*
X203526843Y-19200316D01*
X203601057Y-19157468D01*
X203601057Y-19157467D01*
X203601062Y-19157465D01*
X206739498Y-16019027D01*
X206794013Y-15991252D01*
X206854445Y-16000823D01*
X206897710Y-16044088D01*
X206908500Y-16089033D01*
X206908500Y-17113437D01*
X206908501Y-17113443D01*
X206911180Y-17133790D01*
X206922926Y-17223020D01*
X206979404Y-17359369D01*
X207069246Y-17476454D01*
X207186331Y-17566296D01*
X207322680Y-17622774D01*
X207432259Y-17637200D01*
X209039265Y-17637199D01*
X209097456Y-17656106D01*
X209133420Y-17705606D01*
X209133420Y-17766792D01*
X209109269Y-17806203D01*
X208409869Y-18505604D01*
X208355352Y-18533381D01*
X208339865Y-18534600D01*
X206689922Y-18534600D01*
X206631731Y-18515693D01*
X206619919Y-18505604D01*
X206573915Y-18459600D01*
X206573909Y-18459596D01*
X206459789Y-18393709D01*
X206459791Y-18393709D01*
X206410399Y-18380475D01*
X206332492Y-18359600D01*
X206200708Y-18359600D01*
X206122800Y-18380475D01*
X206073409Y-18393709D01*
X205959290Y-18459596D01*
X205866096Y-18552790D01*
X205800209Y-18666909D01*
X205800208Y-18666914D01*
X205766100Y-18794208D01*
X205766100Y-18925992D01*
X205772961Y-18951596D01*
X205800209Y-19053290D01*
X205866096Y-19167409D01*
X205866098Y-19167411D01*
X205866100Y-19167414D01*
X205959286Y-19260600D01*
X205959288Y-19260601D01*
X205959290Y-19260603D01*
X206073410Y-19326490D01*
X206073408Y-19326490D01*
X206073412Y-19326491D01*
X206073414Y-19326492D01*
X206200708Y-19360600D01*
X206200710Y-19360600D01*
X206332490Y-19360600D01*
X206332492Y-19360600D01*
X206459786Y-19326492D01*
X206459788Y-19326490D01*
X206459790Y-19326490D01*
X206573909Y-19260603D01*
X206573910Y-19260602D01*
X206573914Y-19260600D01*
X206573915Y-19260599D01*
X206619919Y-19214596D01*
X206674436Y-19186819D01*
X206689922Y-19185600D01*
X208558551Y-19185600D01*
X208558553Y-19185600D01*
X208641339Y-19163418D01*
X208641341Y-19163416D01*
X208641343Y-19163416D01*
X208715557Y-19120568D01*
X208715557Y-19120567D01*
X208715562Y-19120565D01*
X210869465Y-16966662D01*
X210912318Y-16892439D01*
X210934500Y-16809653D01*
X210934500Y-16723947D01*
X210934500Y-14836200D01*
X210953407Y-14778009D01*
X211002907Y-14742045D01*
X211033500Y-14737200D01*
X211592256Y-14737200D01*
X211592260Y-14737200D01*
X211645228Y-14729482D01*
X211705535Y-14739802D01*
X211748260Y-14783599D01*
X211758500Y-14827448D01*
X211758500Y-21929350D01*
X211758192Y-21930622D01*
X211758380Y-21934214D01*
X211757054Y-21961168D01*
X211756102Y-21970832D01*
X211753216Y-21990286D01*
X211751321Y-21999813D01*
X211746552Y-22018852D01*
X211743734Y-22028144D01*
X211740103Y-22038291D01*
X211737117Y-22046638D01*
X211733399Y-22055616D01*
X211724999Y-22073375D01*
X211720419Y-22081941D01*
X211710309Y-22098808D01*
X211709334Y-22099720D01*
X211704920Y-22106875D01*
X211693245Y-22122621D01*
X211687058Y-22130160D01*
X211673855Y-22144720D01*
X211667019Y-22151555D01*
X211652461Y-22164756D01*
X211644923Y-22170943D01*
X211629178Y-22182617D01*
X211621114Y-22188005D01*
X211604235Y-22198123D01*
X211595664Y-22202704D01*
X211577919Y-22211097D01*
X211568938Y-22214817D01*
X211550445Y-22221433D01*
X211541152Y-22224252D01*
X211522113Y-22229021D01*
X211512586Y-22230916D01*
X211493132Y-22233802D01*
X211483469Y-22234754D01*
X211467105Y-22235559D01*
X211456513Y-22236080D01*
X211451651Y-22236200D01*
X209988138Y-22236200D01*
X209929947Y-22217293D01*
X209893983Y-22167793D01*
X209893983Y-22106607D01*
X209929947Y-22057107D01*
X209929948Y-22057107D01*
X210021923Y-21990283D01*
X210056219Y-21965366D01*
X210200966Y-21820619D01*
X210321287Y-21655010D01*
X210414220Y-21472619D01*
X210477477Y-21277934D01*
X210509500Y-21075752D01*
X210509500Y-20871048D01*
X210509500Y-20871044D01*
X210477478Y-20668870D01*
X210477477Y-20668866D01*
X210414220Y-20474181D01*
X210321287Y-20291790D01*
X210321285Y-20291786D01*
X210200970Y-20126186D01*
X210200968Y-20126184D01*
X210200966Y-20126181D01*
X210056219Y-19981434D01*
X210056215Y-19981431D01*
X210056213Y-19981429D01*
X209890613Y-19861114D01*
X209890609Y-19861112D01*
X209708219Y-19768180D01*
X209513529Y-19704921D01*
X209311355Y-19672900D01*
X209311352Y-19672900D01*
X209106648Y-19672900D01*
X209106645Y-19672900D01*
X208904470Y-19704921D01*
X208709780Y-19768180D01*
X208527390Y-19861112D01*
X208527386Y-19861114D01*
X208361786Y-19981429D01*
X208217029Y-20126186D01*
X208096714Y-20291786D01*
X208096712Y-20291790D01*
X208003780Y-20474180D01*
X207940521Y-20668870D01*
X207908500Y-20871044D01*
X207908500Y-21075755D01*
X207940521Y-21277929D01*
X208003780Y-21472619D01*
X208096712Y-21655009D01*
X208096714Y-21655013D01*
X208217029Y-21820613D01*
X208217031Y-21820615D01*
X208217034Y-21820619D01*
X208361781Y-21965366D01*
X208361784Y-21965368D01*
X208361786Y-21965370D01*
X208488052Y-22057107D01*
X208524016Y-22106607D01*
X208524017Y-22167792D01*
X208488053Y-22217292D01*
X208429862Y-22236200D01*
X165988138Y-22236200D01*
X165929947Y-22217293D01*
X165893983Y-22167793D01*
X165893983Y-22106607D01*
X165929947Y-22057107D01*
X165929948Y-22057107D01*
X166021923Y-21990283D01*
X166056219Y-21965366D01*
X166200966Y-21820619D01*
X166321287Y-21655010D01*
X166414220Y-21472619D01*
X166477477Y-21277934D01*
X166509500Y-21075752D01*
X166509500Y-20871048D01*
X166509500Y-20871044D01*
X166477478Y-20668870D01*
X166477477Y-20668866D01*
X166414220Y-20474181D01*
X166321287Y-20291790D01*
X166321285Y-20291786D01*
X166200970Y-20126186D01*
X166200968Y-20126184D01*
X166200966Y-20126181D01*
X166056219Y-19981434D01*
X166056215Y-19981431D01*
X166056213Y-19981429D01*
X165890613Y-19861114D01*
X165890609Y-19861112D01*
X165708219Y-19768180D01*
X165513529Y-19704921D01*
X165311355Y-19672900D01*
X165311352Y-19672900D01*
X165106648Y-19672900D01*
X165106645Y-19672900D01*
X164904470Y-19704921D01*
X164709780Y-19768180D01*
X164527390Y-19861112D01*
X164527386Y-19861114D01*
X164361786Y-19981429D01*
X164217029Y-20126186D01*
X164096714Y-20291786D01*
X164096712Y-20291790D01*
X164003780Y-20474180D01*
X163940521Y-20668870D01*
X163908500Y-20871044D01*
X163908500Y-21075755D01*
X163940521Y-21277929D01*
X164003780Y-21472619D01*
X164096712Y-21655009D01*
X164096714Y-21655013D01*
X164217029Y-21820613D01*
X164217031Y-21820615D01*
X164217034Y-21820619D01*
X164361781Y-21965366D01*
X164361784Y-21965368D01*
X164361786Y-21965370D01*
X164488052Y-22057107D01*
X164524016Y-22106607D01*
X164524017Y-22167792D01*
X164488053Y-22217292D01*
X164429862Y-22236200D01*
X162966349Y-22236200D01*
X162965076Y-22235892D01*
X162961485Y-22236080D01*
X162934530Y-22234754D01*
X162924866Y-22233802D01*
X162905412Y-22230916D01*
X162895885Y-22229021D01*
X162876846Y-22224252D01*
X162867554Y-22221434D01*
X162865247Y-22220608D01*
X162849052Y-22214814D01*
X162840082Y-22211099D01*
X162822323Y-22202699D01*
X162813757Y-22198119D01*
X162796890Y-22188009D01*
X162795978Y-22187035D01*
X162788823Y-22182620D01*
X162773077Y-22170945D01*
X162765547Y-22164765D01*
X162750975Y-22151552D01*
X162744143Y-22144719D01*
X162730942Y-22130161D01*
X162724755Y-22122623D01*
X162713081Y-22106878D01*
X162707693Y-22098814D01*
X162697575Y-22081935D01*
X162692994Y-22073364D01*
X162685305Y-22057107D01*
X162684597Y-22055610D01*
X162680885Y-22046648D01*
X162674265Y-22028144D01*
X162671446Y-22018852D01*
X162666675Y-21999803D01*
X162664781Y-21990283D01*
X162661897Y-21970839D01*
X162660945Y-21961174D01*
X162659619Y-21934194D01*
X162659500Y-21929334D01*
X162659500Y-15959957D01*
X164508500Y-15959957D01*
X164508500Y-17113437D01*
X164508501Y-17113443D01*
X164511180Y-17133790D01*
X164522926Y-17223020D01*
X164579404Y-17359369D01*
X164669246Y-17476454D01*
X164786331Y-17566296D01*
X164922680Y-17622774D01*
X165032259Y-17637200D01*
X166985740Y-17637199D01*
X167095320Y-17622774D01*
X167231669Y-17566296D01*
X167348754Y-17476454D01*
X167438596Y-17359369D01*
X167495074Y-17223020D01*
X167509500Y-17113441D01*
X167509499Y-15959960D01*
X167495074Y-15850380D01*
X167438596Y-15714031D01*
X167348754Y-15596946D01*
X167348749Y-15596942D01*
X167348748Y-15596941D01*
X167253808Y-15524092D01*
X167231669Y-15507104D01*
X167095320Y-15450626D01*
X167095318Y-15450625D01*
X167095317Y-15450625D01*
X166985741Y-15436200D01*
X165032262Y-15436200D01*
X165032256Y-15436201D01*
X164922680Y-15450626D01*
X164786332Y-15507103D01*
X164669251Y-15596941D01*
X164669241Y-15596951D01*
X164579403Y-15714032D01*
X164522927Y-15850378D01*
X164522925Y-15850382D01*
X164508500Y-15959957D01*
X162659500Y-15959957D01*
X162659500Y-14827448D01*
X162678407Y-14769257D01*
X162727907Y-14733293D01*
X162772770Y-14729482D01*
X162825740Y-14737200D01*
X162825744Y-14737200D01*
X164792257Y-14737200D01*
X164792260Y-14737200D01*
X164860393Y-14727273D01*
X164965483Y-14675898D01*
X165048198Y-14593183D01*
X165099573Y-14488093D01*
X165109500Y-14419960D01*
X165109500Y-14287000D01*
X165128407Y-14228809D01*
X165177907Y-14192845D01*
X165208500Y-14188000D01*
X167601679Y-14188000D01*
X167659870Y-14206907D01*
X167671676Y-14216990D01*
X167692686Y-14238000D01*
X167692688Y-14238001D01*
X167692690Y-14238003D01*
X167806810Y-14303890D01*
X167806808Y-14303890D01*
X167806812Y-14303891D01*
X167806814Y-14303892D01*
X167934108Y-14338000D01*
X167934110Y-14338000D01*
X168065890Y-14338000D01*
X168065892Y-14338000D01*
X168193186Y-14303892D01*
X168193188Y-14303890D01*
X168193190Y-14303890D01*
X168307309Y-14238003D01*
X168307309Y-14238002D01*
X168307314Y-14238000D01*
X168328319Y-14216994D01*
X168382834Y-14189219D01*
X168398321Y-14188000D01*
X168580842Y-14188000D01*
X168580844Y-14188000D01*
X168669988Y-14164114D01*
X168692295Y-14151235D01*
X168749912Y-14117970D01*
X170538386Y-12329496D01*
X170592903Y-12301719D01*
X170608390Y-12300500D01*
X178013812Y-12300500D01*
X178072003Y-12319407D01*
G37*
%TD.AperFunction*%
%TA.AperFunction,Conductor*%
G36*
X184017691Y-11405607D02*
G01*
X184053655Y-11455107D01*
X184058500Y-11485700D01*
X184058500Y-11569193D01*
X184039593Y-11627384D01*
X183990093Y-11663348D01*
X183933878Y-11664819D01*
X183811392Y-11632000D01*
X183679608Y-11632000D01*
X183629632Y-11645391D01*
X183552309Y-11666109D01*
X183438190Y-11731996D01*
X183344996Y-11825190D01*
X183279109Y-11939309D01*
X183265634Y-11989599D01*
X183245000Y-12066608D01*
X183245000Y-12198392D01*
X183272686Y-12301719D01*
X183279109Y-12325690D01*
X183344996Y-12439809D01*
X183344998Y-12439811D01*
X183345000Y-12439814D01*
X183438186Y-12533000D01*
X183438188Y-12533001D01*
X183438190Y-12533003D01*
X183552310Y-12598890D01*
X183552308Y-12598890D01*
X183552312Y-12598891D01*
X183552314Y-12598892D01*
X183679608Y-12633000D01*
X183744665Y-12633000D01*
X183802856Y-12651907D01*
X183814668Y-12661996D01*
X183850336Y-12697663D01*
X183850342Y-12697668D01*
X183924557Y-12740516D01*
X183924558Y-12740516D01*
X183924561Y-12740518D01*
X183971867Y-12753193D01*
X184023182Y-12786517D01*
X184045109Y-12843638D01*
X184029274Y-12902739D01*
X183995747Y-12934555D01*
X183984590Y-12940996D01*
X183891396Y-13034190D01*
X183825509Y-13148309D01*
X183810638Y-13203809D01*
X183791400Y-13275608D01*
X183791400Y-13407392D01*
X183821479Y-13519651D01*
X183825509Y-13534690D01*
X183891396Y-13648809D01*
X183891398Y-13648811D01*
X183891400Y-13648814D01*
X183933010Y-13690424D01*
X183960786Y-13744939D01*
X183951215Y-13805371D01*
X183907950Y-13848636D01*
X183888628Y-13856053D01*
X183796609Y-13880709D01*
X183682490Y-13946596D01*
X183682489Y-13946597D01*
X183682486Y-13946599D01*
X183682486Y-13946600D01*
X183661480Y-13967605D01*
X183606966Y-13995381D01*
X183591479Y-13996600D01*
X182381221Y-13996600D01*
X182323030Y-13977693D01*
X182311223Y-13967609D01*
X182290214Y-13946600D01*
X182290211Y-13946598D01*
X182290209Y-13946596D01*
X182176089Y-13880709D01*
X182176091Y-13880709D01*
X182126699Y-13867475D01*
X182048792Y-13846600D01*
X181917008Y-13846600D01*
X181839100Y-13867475D01*
X181789709Y-13880709D01*
X181675590Y-13946596D01*
X181582396Y-14039790D01*
X181516509Y-14153909D01*
X181502309Y-14206907D01*
X181482400Y-14281208D01*
X181482400Y-14412992D01*
X181495940Y-14463524D01*
X181516509Y-14540290D01*
X181582396Y-14654409D01*
X181582398Y-14654411D01*
X181582400Y-14654414D01*
X181675586Y-14747600D01*
X181675588Y-14747601D01*
X181675590Y-14747603D01*
X181789710Y-14813490D01*
X181789708Y-14813490D01*
X181789712Y-14813491D01*
X181789714Y-14813492D01*
X181917008Y-14847600D01*
X181917010Y-14847600D01*
X182048790Y-14847600D01*
X182048792Y-14847600D01*
X182176086Y-14813492D01*
X182176088Y-14813490D01*
X182176090Y-14813490D01*
X182290209Y-14747603D01*
X182290209Y-14747602D01*
X182290214Y-14747600D01*
X182311219Y-14726594D01*
X182365734Y-14698819D01*
X182381221Y-14697600D01*
X183591479Y-14697600D01*
X183649670Y-14716507D01*
X183661476Y-14726590D01*
X183682486Y-14747600D01*
X183682488Y-14747601D01*
X183682490Y-14747603D01*
X183796610Y-14813490D01*
X183796608Y-14813490D01*
X183796612Y-14813491D01*
X183796614Y-14813492D01*
X183923908Y-14847600D01*
X183923910Y-14847600D01*
X184055690Y-14847600D01*
X184055692Y-14847600D01*
X184182986Y-14813492D01*
X184182988Y-14813490D01*
X184182990Y-14813490D01*
X184297109Y-14747603D01*
X184297109Y-14747602D01*
X184297114Y-14747600D01*
X184390300Y-14654414D01*
X184402259Y-14633701D01*
X184456190Y-14540290D01*
X184456190Y-14540288D01*
X184456192Y-14540286D01*
X184490300Y-14412992D01*
X184490300Y-14281208D01*
X184456192Y-14153914D01*
X184456190Y-14153911D01*
X184456190Y-14153909D01*
X184390303Y-14039790D01*
X184390301Y-14039788D01*
X184390300Y-14039786D01*
X184348688Y-13998174D01*
X184320913Y-13943660D01*
X184330484Y-13883228D01*
X184373749Y-13839963D01*
X184393064Y-13832548D01*
X184485086Y-13807892D01*
X184599214Y-13742000D01*
X184621468Y-13719746D01*
X184645219Y-13695996D01*
X184699736Y-13668219D01*
X184715222Y-13667000D01*
X185490066Y-13667000D01*
X185548257Y-13685907D01*
X185584221Y-13735407D01*
X185584221Y-13796593D01*
X185560071Y-13836001D01*
X185179873Y-14216200D01*
X184806632Y-14589441D01*
X184806631Y-14589442D01*
X184763783Y-14663657D01*
X184763781Y-14663661D01*
X184754811Y-14697136D01*
X184754812Y-14697137D01*
X184741600Y-14746447D01*
X184741600Y-15636900D01*
X184722693Y-15695091D01*
X184673193Y-15731055D01*
X184642600Y-15735900D01*
X180049500Y-15735900D01*
X179991309Y-15716993D01*
X179955345Y-15667493D01*
X179950500Y-15636900D01*
X179950500Y-14691892D01*
X179969407Y-14633701D01*
X180018907Y-14597737D01*
X180080093Y-14597737D01*
X180099006Y-14606159D01*
X180101314Y-14607492D01*
X180228608Y-14641600D01*
X180228610Y-14641600D01*
X180360390Y-14641600D01*
X180360392Y-14641600D01*
X180487686Y-14607492D01*
X180487688Y-14607490D01*
X180487690Y-14607490D01*
X180601809Y-14541603D01*
X180601809Y-14541602D01*
X180601814Y-14541600D01*
X180695000Y-14448414D01*
X180735053Y-14379040D01*
X180760890Y-14334290D01*
X180760890Y-14334288D01*
X180760892Y-14334286D01*
X180795000Y-14206992D01*
X180795000Y-14075208D01*
X180760892Y-13947914D01*
X180747863Y-13925348D01*
X180734600Y-13875848D01*
X180734600Y-12399500D01*
X180753507Y-12341309D01*
X180803007Y-12305345D01*
X180833600Y-12300500D01*
X182213442Y-12300500D01*
X182213444Y-12300500D01*
X182302588Y-12276614D01*
X182331605Y-12259861D01*
X182382512Y-12230470D01*
X183197285Y-11415695D01*
X183251802Y-11387919D01*
X183267289Y-11386700D01*
X183959500Y-11386700D01*
X184017691Y-11405607D01*
G37*
%TD.AperFunction*%
%TA.AperFunction,Conductor*%
G36*
X211456513Y6562680D02*
G01*
X211467105Y6562159D01*
X211483469Y6561354D01*
X211493132Y6560402D01*
X211512586Y6557516D01*
X211522113Y6555621D01*
X211541152Y6550852D01*
X211550445Y6548033D01*
X211568938Y6541417D01*
X211577919Y6537697D01*
X211595664Y6529304D01*
X211604235Y6524723D01*
X211621114Y6514605D01*
X211622027Y6513629D01*
X211629178Y6509217D01*
X211644923Y6497543D01*
X211652461Y6491356D01*
X211667019Y6478155D01*
X211673855Y6471320D01*
X211687058Y6456760D01*
X211693245Y6449221D01*
X211704920Y6433475D01*
X211706398Y6429071D01*
X211710309Y6425408D01*
X211720419Y6408541D01*
X211724999Y6399975D01*
X211733399Y6382216D01*
X211737117Y6373238D01*
X211737120Y6373232D01*
X211743734Y6354744D01*
X211746552Y6345452D01*
X211751321Y6326413D01*
X211753216Y6316886D01*
X211756102Y6297432D01*
X211757054Y6287768D01*
X211758380Y6260814D01*
X211758500Y6255950D01*
X211758500Y-1922153D01*
X211739593Y-1980344D01*
X211690093Y-2016308D01*
X211628907Y-2016308D01*
X211610001Y-2007890D01*
X211534689Y-1964409D01*
X211534686Y-1964408D01*
X211407392Y-1930300D01*
X211275608Y-1930300D01*
X211200220Y-1950500D01*
X211148309Y-1964409D01*
X211034190Y-2030296D01*
X210940996Y-2123490D01*
X210875109Y-2237609D01*
X210841000Y-2364909D01*
X210841000Y-2468010D01*
X210822093Y-2526201D01*
X210812004Y-2538013D01*
X210642815Y-2707203D01*
X210588298Y-2734981D01*
X210572811Y-2736200D01*
X209625740Y-2736200D01*
X209594237Y-2740790D01*
X209557604Y-2746127D01*
X209452518Y-2797501D01*
X209369801Y-2880218D01*
X209318427Y-2985304D01*
X209314847Y-3009875D01*
X209308500Y-3053440D01*
X209308500Y-3419960D01*
X209315118Y-3465382D01*
X209318427Y-3488095D01*
X209357104Y-3567209D01*
X209369802Y-3593183D01*
X209443317Y-3666698D01*
X209471093Y-3721213D01*
X209461522Y-3781645D01*
X209443318Y-3806700D01*
X209369802Y-3880217D01*
X209369801Y-3880218D01*
X209367816Y-3882204D01*
X209313299Y-3909981D01*
X209297812Y-3911200D01*
X209051832Y-3911200D01*
X209051816Y-3911199D01*
X209045753Y-3911199D01*
X208960047Y-3911199D01*
X208949547Y-3914012D01*
X208892177Y-3929384D01*
X208892178Y-3929385D01*
X208877263Y-3933381D01*
X208839979Y-3954907D01*
X208803257Y-3976109D01*
X208803035Y-3976237D01*
X208742437Y-4036834D01*
X208742433Y-4036840D01*
X208635163Y-4144111D01*
X208544571Y-4234703D01*
X208490054Y-4262481D01*
X208474567Y-4263700D01*
X208409508Y-4263700D01*
X208331600Y-4284575D01*
X208282209Y-4297809D01*
X208168090Y-4363696D01*
X208074896Y-4456890D01*
X208009009Y-4571009D01*
X207994779Y-4624118D01*
X207974900Y-4698308D01*
X207974900Y-4830092D01*
X208009008Y-4957386D01*
X208009008Y-4957387D01*
X208010688Y-4963654D01*
X208009091Y-4964081D01*
X208013253Y-5017068D01*
X207981275Y-5069232D01*
X207942616Y-5089567D01*
X207880514Y-5106207D01*
X207880510Y-5106209D01*
X207766390Y-5172096D01*
X207673196Y-5265290D01*
X207607309Y-5379409D01*
X207573200Y-5506709D01*
X207573200Y-5517565D01*
X207554293Y-5575756D01*
X207504793Y-5611720D01*
X207443607Y-5611720D01*
X207404196Y-5587569D01*
X207022836Y-5206209D01*
X206631762Y-4815135D01*
X206631759Y-4815133D01*
X206631758Y-4815132D01*
X206631757Y-4815131D01*
X206557542Y-4772283D01*
X206557544Y-4772283D01*
X206525421Y-4763676D01*
X206474753Y-4750100D01*
X206474751Y-4750100D01*
X204562821Y-4750100D01*
X204504630Y-4731193D01*
X204468666Y-4681693D01*
X204468666Y-4620507D01*
X204492815Y-4581098D01*
X204579900Y-4494014D01*
X204583834Y-4487200D01*
X204645790Y-4379890D01*
X204645790Y-4379888D01*
X204645792Y-4379886D01*
X204679900Y-4252592D01*
X204679900Y-4120808D01*
X204645792Y-3993514D01*
X204645790Y-3993511D01*
X204645790Y-3993509D01*
X204579903Y-3879390D01*
X204575951Y-3874240D01*
X204578378Y-3872377D01*
X204556302Y-3829049D01*
X204565873Y-3768617D01*
X204609138Y-3725352D01*
X204628455Y-3717936D01*
X204677886Y-3704692D01*
X204677888Y-3704690D01*
X204677890Y-3704690D01*
X204792009Y-3638803D01*
X204792009Y-3638802D01*
X204792014Y-3638800D01*
X204885200Y-3545614D01*
X204908418Y-3505400D01*
X204951090Y-3431490D01*
X204951090Y-3431488D01*
X204951092Y-3431486D01*
X204985200Y-3304192D01*
X204985200Y-3172408D01*
X204951092Y-3045114D01*
X204951090Y-3045111D01*
X204951090Y-3045109D01*
X204885203Y-2930990D01*
X204885201Y-2930988D01*
X204885200Y-2930986D01*
X204792014Y-2837800D01*
X204792011Y-2837798D01*
X204792009Y-2837796D01*
X204677889Y-2771909D01*
X204677891Y-2771909D01*
X204607663Y-2753092D01*
X204550592Y-2737800D01*
X204418808Y-2737800D01*
X204377221Y-2748942D01*
X204316121Y-2745740D01*
X204268571Y-2707235D01*
X204252600Y-2653316D01*
X204252600Y-2605032D01*
X204252599Y-2605030D01*
X204250915Y-2598747D01*
X204234642Y-2538013D01*
X204225307Y-2503176D01*
X204225307Y-2503175D01*
X204221564Y-2496692D01*
X204172580Y-2411848D01*
X204172577Y-2411845D01*
X204169335Y-2406229D01*
X204170588Y-2405505D01*
X204152634Y-2354782D01*
X204152600Y-2352203D01*
X204152600Y-1684987D01*
X204171507Y-1626796D01*
X204197806Y-1604338D01*
X204196914Y-1603110D01*
X204203215Y-1598531D01*
X204203215Y-1598530D01*
X204203220Y-1598528D01*
X204298528Y-1503220D01*
X204359719Y-1383126D01*
X204375500Y-1283488D01*
X204375500Y-956900D01*
X204394407Y-898709D01*
X204404496Y-886896D01*
X204891596Y-399796D01*
X204946113Y-372019D01*
X204961600Y-370800D01*
X205308460Y-370800D01*
X205357958Y-384063D01*
X205449114Y-436692D01*
X205576408Y-470800D01*
X205576410Y-470800D01*
X205708190Y-470800D01*
X205708192Y-470800D01*
X205835486Y-436692D01*
X205835488Y-436690D01*
X205835490Y-436690D01*
X205949609Y-370803D01*
X205949609Y-370802D01*
X205949614Y-370800D01*
X205960457Y-359957D01*
X206908500Y-359957D01*
X206908500Y-1513437D01*
X206908501Y-1513443D01*
X206911992Y-1539960D01*
X206922926Y-1623020D01*
X206944664Y-1675500D01*
X206978507Y-1757205D01*
X206979404Y-1759369D01*
X207016045Y-1807121D01*
X207068979Y-1876107D01*
X207069246Y-1876454D01*
X207186331Y-1966296D01*
X207322680Y-2022774D01*
X207432259Y-2037200D01*
X209385740Y-2037199D01*
X209495320Y-2022774D01*
X209631669Y-1966296D01*
X209748754Y-1876454D01*
X209838596Y-1759369D01*
X209895074Y-1623020D01*
X209909500Y-1513441D01*
X209909499Y-359960D01*
X209895074Y-250380D01*
X209838596Y-114031D01*
X209748754Y3054D01*
X209631669Y92896D01*
X209495320Y149374D01*
X209385741Y163800D01*
X207432260Y163799D01*
X207322680Y149374D01*
X207186331Y92896D01*
X207069246Y3054D01*
X207069242Y3049D01*
X207069241Y3048D01*
X206979403Y-114032D01*
X206922927Y-250378D01*
X206922925Y-250382D01*
X206908500Y-359957D01*
X205960457Y-359957D01*
X206042800Y-277614D01*
X206055681Y-255304D01*
X206108690Y-163490D01*
X206108690Y-163488D01*
X206108692Y-163486D01*
X206142800Y-36192D01*
X206142800Y95592D01*
X206141372Y100919D01*
X206138000Y126539D01*
X206138000Y658785D01*
X206156907Y716976D01*
X206185488Y741762D01*
X206185210Y742140D01*
X206190008Y745681D01*
X206190731Y746308D01*
X206191176Y746543D01*
X206191179Y746545D01*
X206298930Y826070D01*
X206378455Y933821D01*
X206422686Y1060226D01*
X206425499Y1090226D01*
X206425500Y1090230D01*
X206425500Y2109770D01*
X206425499Y2109773D01*
X206422686Y2139774D01*
X206378455Y2266179D01*
X206298930Y2373930D01*
X206191179Y2453455D01*
X206064774Y2497686D01*
X206034772Y2500499D01*
X206034770Y2500500D01*
X206034764Y2500500D01*
X205440236Y2500500D01*
X205440230Y2500500D01*
X205440226Y2500499D01*
X205410226Y2497686D01*
X205283821Y2453455D01*
X205176070Y2373930D01*
X205096545Y2266179D01*
X205096544Y2266176D01*
X205096543Y2266175D01*
X205052315Y2139777D01*
X205052313Y2139768D01*
X205049500Y2109773D01*
X205049500Y1090226D01*
X205052313Y1060231D01*
X205052315Y1060222D01*
X205096543Y933824D01*
X205096544Y933821D01*
X205096545Y933821D01*
X205132311Y885359D01*
X205176069Y826071D01*
X205176071Y826069D01*
X205283823Y746543D01*
X205284269Y746308D01*
X205284587Y745979D01*
X205289790Y742140D01*
X205289152Y741275D01*
X205326877Y702396D01*
X205337000Y658785D01*
X205337000Y529200D01*
X205318093Y471009D01*
X205268593Y435045D01*
X205238000Y430200D01*
X204813506Y430200D01*
X204813490Y430201D01*
X204807427Y430201D01*
X204701973Y430201D01*
X204613470Y406486D01*
X204613468Y406486D01*
X204606791Y404696D01*
X204600113Y402907D01*
X204600110Y402905D01*
X204600109Y402905D01*
X204546087Y371715D01*
X204508787Y350180D01*
X204434220Y275613D01*
X204434218Y275610D01*
X203863103Y-295504D01*
X203808586Y-323281D01*
X203793099Y-324500D01*
X203466510Y-324500D01*
X203366874Y-340281D01*
X203366867Y-340283D01*
X203246782Y-401470D01*
X203151470Y-496782D01*
X203090283Y-616867D01*
X203090281Y-616874D01*
X203074500Y-716510D01*
X203074500Y-1283489D01*
X203090281Y-1383125D01*
X203090283Y-1383132D01*
X203151470Y-1503217D01*
X203151472Y-1503220D01*
X203246780Y-1598528D01*
X203247691Y-1598992D01*
X203248412Y-1599713D01*
X203253082Y-1603106D01*
X203252544Y-1603845D01*
X203290954Y-1642257D01*
X203300524Y-1702689D01*
X203272745Y-1757205D01*
X203218228Y-1784981D01*
X203202743Y-1786200D01*
X202300740Y-1786200D01*
X202266673Y-1791163D01*
X202232604Y-1796127D01*
X202127518Y-1847501D01*
X202044801Y-1930218D01*
X202044577Y-1930678D01*
X202044180Y-1931087D01*
X202040035Y-1936894D01*
X202039164Y-1936272D01*
X202002035Y-1974653D01*
X201955635Y-1986200D01*
X201462365Y-1986200D01*
X201404174Y-1967293D01*
X201378389Y-1936591D01*
X201377965Y-1936894D01*
X201374115Y-1931502D01*
X201373423Y-1930678D01*
X201373198Y-1930217D01*
X201290483Y-1847502D01*
X201276600Y-1840715D01*
X201185395Y-1796127D01*
X201158139Y-1792156D01*
X201117260Y-1786200D01*
X200025740Y-1786200D01*
X199991673Y-1791163D01*
X199957604Y-1796127D01*
X199852518Y-1847501D01*
X199769801Y-1930218D01*
X199769577Y-1930678D01*
X199769180Y-1931087D01*
X199765035Y-1936894D01*
X199764164Y-1936272D01*
X199727035Y-1974653D01*
X199680635Y-1986200D01*
X198165321Y-1986200D01*
X198107130Y-1967293D01*
X198095323Y-1957209D01*
X198024314Y-1886200D01*
X198024311Y-1886198D01*
X198024309Y-1886196D01*
X197910189Y-1820309D01*
X197910191Y-1820309D01*
X197838929Y-1801215D01*
X197782892Y-1786200D01*
X197651108Y-1786200D01*
X197595071Y-1801215D01*
X197523809Y-1820309D01*
X197409690Y-1886196D01*
X197316496Y-1979390D01*
X197250609Y-2093509D01*
X197236932Y-2144554D01*
X197216500Y-2220808D01*
X197216500Y-2352592D01*
X197244666Y-2457709D01*
X197250609Y-2479890D01*
X197316496Y-2594009D01*
X197316498Y-2594011D01*
X197316500Y-2594014D01*
X197409686Y-2687200D01*
X197409688Y-2687201D01*
X197409690Y-2687203D01*
X197523810Y-2753090D01*
X197523808Y-2753090D01*
X197523812Y-2753091D01*
X197523814Y-2753092D01*
X197651108Y-2787200D01*
X197651110Y-2787200D01*
X197782890Y-2787200D01*
X197782892Y-2787200D01*
X197910186Y-2753092D01*
X197910188Y-2753090D01*
X197910190Y-2753090D01*
X198024309Y-2687203D01*
X198024309Y-2687202D01*
X198024314Y-2687200D01*
X198095319Y-2616194D01*
X198149834Y-2588419D01*
X198165321Y-2587200D01*
X199680635Y-2587200D01*
X199738826Y-2606107D01*
X199764610Y-2636808D01*
X199765035Y-2636506D01*
X199768884Y-2641897D01*
X199769576Y-2642720D01*
X199769802Y-2643183D01*
X199852517Y-2725898D01*
X199899657Y-2748943D01*
X199957604Y-2777272D01*
X199957605Y-2777272D01*
X199957607Y-2777273D01*
X200025740Y-2787200D01*
X200025743Y-2787200D01*
X201117257Y-2787200D01*
X201117260Y-2787200D01*
X201185393Y-2777273D01*
X201290483Y-2725898D01*
X201373198Y-2643183D01*
X201373423Y-2642721D01*
X201373819Y-2642312D01*
X201377965Y-2636506D01*
X201378835Y-2637127D01*
X201415965Y-2598747D01*
X201462365Y-2587200D01*
X201955635Y-2587200D01*
X202013826Y-2606107D01*
X202039610Y-2636808D01*
X202040035Y-2636506D01*
X202043884Y-2641897D01*
X202044576Y-2642720D01*
X202044802Y-2643183D01*
X202093317Y-2691698D01*
X202121093Y-2746213D01*
X202111522Y-2806645D01*
X202093318Y-2831700D01*
X202056933Y-2868086D01*
X202044801Y-2880218D01*
X201993427Y-2985304D01*
X201989847Y-3009875D01*
X201983500Y-3053440D01*
X201983500Y-3419960D01*
X201990118Y-3465382D01*
X201993427Y-3488095D01*
X202032104Y-3567209D01*
X202044802Y-3593183D01*
X202093317Y-3641698D01*
X202121093Y-3696213D01*
X202111522Y-3756645D01*
X202093318Y-3781700D01*
X202068315Y-3806704D01*
X202044801Y-3830218D01*
X202044577Y-3830678D01*
X202044180Y-3831087D01*
X202040035Y-3836894D01*
X202039164Y-3836272D01*
X202002035Y-3874653D01*
X201955635Y-3886200D01*
X201462365Y-3886200D01*
X201404174Y-3867293D01*
X201378389Y-3836591D01*
X201377965Y-3836894D01*
X201374115Y-3831502D01*
X201373423Y-3830678D01*
X201373198Y-3830218D01*
X201373198Y-3830217D01*
X201290483Y-3747502D01*
X201268387Y-3736700D01*
X201185395Y-3696127D01*
X201158139Y-3692156D01*
X201117260Y-3686200D01*
X200025740Y-3686200D01*
X199991673Y-3691163D01*
X199957604Y-3696127D01*
X199852518Y-3747501D01*
X199769801Y-3830218D01*
X199718427Y-3935304D01*
X199714782Y-3960324D01*
X199709548Y-3996251D01*
X199708500Y-4003443D01*
X199708500Y-4297365D01*
X199689593Y-4355556D01*
X199640093Y-4391520D01*
X199578907Y-4391520D01*
X199539496Y-4367369D01*
X199082108Y-3909981D01*
X198609562Y-3437435D01*
X198609559Y-3437433D01*
X198609558Y-3437432D01*
X198609557Y-3437431D01*
X198535342Y-3394583D01*
X198535344Y-3394583D01*
X198503221Y-3385976D01*
X198452553Y-3372400D01*
X196096776Y-3372400D01*
X196038585Y-3353493D01*
X196002621Y-3303993D01*
X196002621Y-3242807D01*
X196026772Y-3203396D01*
X196029402Y-3200765D01*
X196029404Y-3200765D01*
X196113065Y-3117104D01*
X196163068Y-3009873D01*
X196169500Y-2961016D01*
X196169500Y-2512384D01*
X196163068Y-2463527D01*
X196136349Y-2406229D01*
X196113066Y-2356298D01*
X196113065Y-2356297D01*
X196113065Y-2356296D01*
X196029404Y-2272635D01*
X196029402Y-2272634D01*
X196029401Y-2272633D01*
X195922175Y-2222632D01*
X195889601Y-2218344D01*
X195873316Y-2216200D01*
X195873315Y-2216200D01*
X195644479Y-2216200D01*
X195586288Y-2197293D01*
X195574475Y-2187204D01*
X195264396Y-1877125D01*
X195236619Y-1822608D01*
X195235400Y-1807121D01*
X195235400Y-1706709D01*
X195222809Y-1659719D01*
X195201292Y-1579414D01*
X195201290Y-1579411D01*
X195201290Y-1579409D01*
X195135403Y-1465290D01*
X195135401Y-1465288D01*
X195135400Y-1465286D01*
X195042214Y-1372100D01*
X195042211Y-1372098D01*
X195042209Y-1372096D01*
X194928089Y-1306209D01*
X194928091Y-1306209D01*
X194878699Y-1292975D01*
X194800792Y-1272100D01*
X194669008Y-1272100D01*
X194591100Y-1292975D01*
X194541709Y-1306209D01*
X194427590Y-1372096D01*
X194334396Y-1465290D01*
X194268509Y-1579409D01*
X194255812Y-1626796D01*
X194234400Y-1706708D01*
X194234400Y-1838492D01*
X194244479Y-1876107D01*
X194268509Y-1965791D01*
X194270992Y-1971784D01*
X194268489Y-1972820D01*
X194278828Y-2021491D01*
X194253935Y-2077384D01*
X194200943Y-2107970D01*
X194151195Y-2103396D01*
X194151058Y-2104087D01*
X194144486Y-2102779D01*
X194142487Y-2102596D01*
X194141493Y-2102184D01*
X194061134Y-2086200D01*
X193856870Y-2086200D01*
X193856862Y-2086201D01*
X193776505Y-2102184D01*
X193776501Y-2102186D01*
X193763999Y-2110540D01*
X193705111Y-2127147D01*
X193654001Y-2110540D01*
X193641496Y-2102185D01*
X193641495Y-2102184D01*
X193561134Y-2086200D01*
X193356870Y-2086200D01*
X193356862Y-2086201D01*
X193276505Y-2102184D01*
X193276501Y-2102186D01*
X193263999Y-2110540D01*
X193205111Y-2127147D01*
X193154001Y-2110540D01*
X193141496Y-2102185D01*
X193141495Y-2102184D01*
X193061134Y-2086200D01*
X192856870Y-2086200D01*
X192856862Y-2086201D01*
X192776505Y-2102184D01*
X192776501Y-2102186D01*
X192763999Y-2110540D01*
X192705111Y-2127147D01*
X192654001Y-2110540D01*
X192641496Y-2102185D01*
X192641495Y-2102184D01*
X192561134Y-2086200D01*
X192356870Y-2086200D01*
X192356862Y-2086201D01*
X192276505Y-2102184D01*
X192276501Y-2102186D01*
X192263999Y-2110540D01*
X192205111Y-2127147D01*
X192154001Y-2110540D01*
X192141496Y-2102185D01*
X192141495Y-2102184D01*
X192061134Y-2086200D01*
X191856870Y-2086200D01*
X191856862Y-2086201D01*
X191776505Y-2102184D01*
X191776501Y-2102186D01*
X191763999Y-2110540D01*
X191705111Y-2127147D01*
X191654001Y-2110540D01*
X191641496Y-2102185D01*
X191641495Y-2102184D01*
X191561134Y-2086200D01*
X191356870Y-2086200D01*
X191356862Y-2086201D01*
X191276505Y-2102184D01*
X191276501Y-2102186D01*
X191263999Y-2110540D01*
X191205111Y-2127147D01*
X191154001Y-2110540D01*
X191141496Y-2102185D01*
X191141495Y-2102184D01*
X191061134Y-2086200D01*
X190856870Y-2086200D01*
X190856862Y-2086201D01*
X190776505Y-2102184D01*
X190776501Y-2102186D01*
X190763999Y-2110540D01*
X190705111Y-2127147D01*
X190654001Y-2110540D01*
X190641496Y-2102185D01*
X190641495Y-2102184D01*
X190561134Y-2086200D01*
X190356870Y-2086200D01*
X190356862Y-2086201D01*
X190276505Y-2102184D01*
X190276501Y-2102186D01*
X190263999Y-2110540D01*
X190205111Y-2127147D01*
X190154001Y-2110540D01*
X190141496Y-2102185D01*
X190141495Y-2102184D01*
X190061134Y-2086200D01*
X189856870Y-2086200D01*
X189856862Y-2086201D01*
X189776505Y-2102184D01*
X189776501Y-2102186D01*
X189763999Y-2110540D01*
X189705111Y-2127147D01*
X189654001Y-2110540D01*
X189641496Y-2102185D01*
X189641495Y-2102184D01*
X189561134Y-2086200D01*
X189356870Y-2086200D01*
X189356862Y-2086201D01*
X189276505Y-2102184D01*
X189276501Y-2102186D01*
X189263999Y-2110540D01*
X189236229Y-2118371D01*
X189208786Y-2127223D01*
X189206889Y-2126645D01*
X189205111Y-2127147D01*
X189188922Y-2121174D01*
X189154001Y-2110540D01*
X189141496Y-2102185D01*
X189141495Y-2102184D01*
X189061134Y-2086200D01*
X188856870Y-2086200D01*
X188856862Y-2086201D01*
X188776505Y-2102184D01*
X188776501Y-2102186D01*
X188763999Y-2110540D01*
X188750740Y-2114279D01*
X188739593Y-2122378D01*
X188722022Y-2122378D01*
X188705111Y-2127147D01*
X188692185Y-2122378D01*
X188678407Y-2122378D01*
X188654001Y-2110540D01*
X188641496Y-2102185D01*
X188641495Y-2102184D01*
X188561134Y-2086200D01*
X188356870Y-2086200D01*
X188356862Y-2086201D01*
X188276505Y-2102184D01*
X188276501Y-2102186D01*
X188263999Y-2110540D01*
X188250740Y-2114279D01*
X188239593Y-2122378D01*
X188222022Y-2122378D01*
X188205111Y-2127147D01*
X188192185Y-2122378D01*
X188178407Y-2122378D01*
X188154001Y-2110540D01*
X188141496Y-2102185D01*
X188141495Y-2102184D01*
X188061134Y-2086200D01*
X187856870Y-2086200D01*
X187856862Y-2086201D01*
X187776505Y-2102184D01*
X187776503Y-2102185D01*
X187685379Y-2163073D01*
X187685373Y-2163079D01*
X187624486Y-2254201D01*
X187624486Y-2254203D01*
X187624485Y-2254205D01*
X187620819Y-2272635D01*
X187608500Y-2334566D01*
X187608500Y-3788829D01*
X187608501Y-3788836D01*
X187624484Y-3869194D01*
X187624485Y-3869196D01*
X187681756Y-3954907D01*
X187685376Y-3960324D01*
X187776505Y-4021215D01*
X187856867Y-4037200D01*
X188061132Y-4037199D01*
X188141495Y-4021215D01*
X188153996Y-4012861D01*
X188212883Y-3996251D01*
X188264000Y-4012859D01*
X188276505Y-4021215D01*
X188356867Y-4037200D01*
X188534499Y-4037199D01*
X188592690Y-4056106D01*
X188628654Y-4105606D01*
X188633500Y-4136199D01*
X188633500Y-4160847D01*
X188633500Y-4246553D01*
X188642932Y-4281756D01*
X188647049Y-4297120D01*
X188643846Y-4358221D01*
X188621426Y-4392746D01*
X187080032Y-5934141D01*
X187080031Y-5934142D01*
X187037182Y-6008360D01*
X187037181Y-6008360D01*
X187037182Y-6008361D01*
X187015000Y-6091147D01*
X187015000Y-6278978D01*
X186996093Y-6337169D01*
X186986004Y-6348981D01*
X186940000Y-6394984D01*
X186939996Y-6394990D01*
X186874109Y-6509109D01*
X186860627Y-6559427D01*
X186840000Y-6636408D01*
X186840000Y-6768192D01*
X186868345Y-6873977D01*
X186865142Y-6935079D01*
X186826637Y-6982629D01*
X186772718Y-6998600D01*
X186684253Y-6998600D01*
X186598547Y-6998600D01*
X186547878Y-7012176D01*
X186515756Y-7020783D01*
X186441542Y-7063631D01*
X186441537Y-7063635D01*
X186158900Y-7346271D01*
X186104384Y-7374048D01*
X186043952Y-7364476D01*
X186000687Y-7321212D01*
X185997831Y-7312970D01*
X185997246Y-7313213D01*
X185993515Y-7304206D01*
X185993515Y-7304205D01*
X185985159Y-7291699D01*
X185968551Y-7232814D01*
X185985159Y-7181699D01*
X185993515Y-7169195D01*
X186009500Y-7088833D01*
X186009499Y-6884568D01*
X186007392Y-6873977D01*
X185998910Y-6831329D01*
X185993515Y-6804205D01*
X185985159Y-6791699D01*
X185968551Y-6732814D01*
X185985159Y-6681699D01*
X185993515Y-6669195D01*
X186009500Y-6588833D01*
X186009499Y-6384568D01*
X186003854Y-6356189D01*
X185993515Y-6304206D01*
X185993515Y-6304205D01*
X185985159Y-6291699D01*
X185968551Y-6232814D01*
X185985159Y-6181699D01*
X185993515Y-6169195D01*
X186009500Y-6088833D01*
X186009499Y-5884568D01*
X185993515Y-5804205D01*
X185985159Y-5791699D01*
X185968551Y-5732814D01*
X185985159Y-5681699D01*
X185993515Y-5669195D01*
X186009500Y-5588833D01*
X186009499Y-5441120D01*
X186028406Y-5382930D01*
X186077906Y-5346966D01*
X186139091Y-5346965D01*
X186178500Y-5371114D01*
X186194586Y-5387200D01*
X186194588Y-5387201D01*
X186194590Y-5387203D01*
X186308710Y-5453090D01*
X186308708Y-5453090D01*
X186308712Y-5453091D01*
X186308714Y-5453092D01*
X186436008Y-5487200D01*
X186436010Y-5487200D01*
X186567790Y-5487200D01*
X186567792Y-5487200D01*
X186695086Y-5453092D01*
X186695088Y-5453090D01*
X186695090Y-5453090D01*
X186809209Y-5387203D01*
X186809209Y-5387202D01*
X186809214Y-5387200D01*
X186902400Y-5294014D01*
X186918986Y-5265286D01*
X186968290Y-5179890D01*
X186968290Y-5179888D01*
X186968292Y-5179886D01*
X187002400Y-5052592D01*
X187002400Y-4920808D01*
X186968292Y-4793514D01*
X186968290Y-4793511D01*
X186968290Y-4793509D01*
X186902403Y-4679390D01*
X186902401Y-4679388D01*
X186902400Y-4679386D01*
X186809214Y-4586200D01*
X186809211Y-4586198D01*
X186809209Y-4586196D01*
X186695089Y-4520309D01*
X186695091Y-4520309D01*
X186614618Y-4498747D01*
X186567792Y-4486200D01*
X186436008Y-4486200D01*
X186323748Y-4516279D01*
X186308710Y-4520309D01*
X186220233Y-4571391D01*
X186160385Y-4584112D01*
X186104489Y-4559225D01*
X186073897Y-4506236D01*
X186080293Y-4445386D01*
X186100729Y-4415652D01*
X186318290Y-4198091D01*
X186550714Y-3965668D01*
X186605230Y-3937891D01*
X186665662Y-3947462D01*
X186676824Y-3955571D01*
X186677269Y-3954907D01*
X186685375Y-3960323D01*
X186685376Y-3960324D01*
X186776505Y-4021215D01*
X186856867Y-4037200D01*
X187061132Y-4037199D01*
X187141495Y-4021215D01*
X187232624Y-3960324D01*
X187293515Y-3869195D01*
X187309500Y-3788833D01*
X187309499Y-2334568D01*
X187293515Y-2254205D01*
X187293512Y-2254201D01*
X187232626Y-2163079D01*
X187232624Y-2163076D01*
X187159125Y-2113965D01*
X187121246Y-2065915D01*
X187118844Y-2004777D01*
X187144123Y-1961647D01*
X187199460Y-1906311D01*
X187205635Y-1895614D01*
X187251103Y-1854672D01*
X187310686Y-1848014D01*
X187356867Y-1857200D01*
X187561132Y-1857199D01*
X187641495Y-1841215D01*
X187653996Y-1832861D01*
X187712883Y-1816251D01*
X187764000Y-1832859D01*
X187776505Y-1841215D01*
X187856867Y-1857200D01*
X188061132Y-1857199D01*
X188141495Y-1841215D01*
X188153996Y-1832861D01*
X188167256Y-1829121D01*
X188178407Y-1821020D01*
X188195976Y-1821020D01*
X188212883Y-1816251D01*
X188227561Y-1821020D01*
X188239593Y-1821020D01*
X188249326Y-1828091D01*
X188264000Y-1832859D01*
X188276505Y-1841215D01*
X188356867Y-1857200D01*
X188561132Y-1857199D01*
X188641495Y-1841215D01*
X188653996Y-1832861D01*
X188667256Y-1829121D01*
X188678407Y-1821020D01*
X188695976Y-1821020D01*
X188712883Y-1816251D01*
X188727561Y-1821020D01*
X188739593Y-1821020D01*
X188749326Y-1828091D01*
X188764000Y-1832859D01*
X188776505Y-1841215D01*
X188856867Y-1857200D01*
X189061132Y-1857199D01*
X189141495Y-1841215D01*
X189201359Y-1801214D01*
X189229128Y-1793382D01*
X189256574Y-1784530D01*
X189258397Y-1785126D01*
X189260245Y-1784606D01*
X189299841Y-1794589D01*
X189302515Y-1795896D01*
X189302517Y-1795898D01*
X189407607Y-1847273D01*
X189475740Y-1857200D01*
X189475743Y-1857200D01*
X189842257Y-1857200D01*
X189842260Y-1857200D01*
X189910393Y-1847273D01*
X190015483Y-1795898D01*
X190098198Y-1713183D01*
X190149573Y-1608093D01*
X190159500Y-1539960D01*
X190159500Y-323440D01*
X190149573Y-255307D01*
X190147165Y-250382D01*
X190099441Y-152759D01*
X190090870Y-92177D01*
X190119546Y-38127D01*
X190162760Y-13652D01*
X190168179Y-12200D01*
X190168183Y-12200D01*
X190260028Y12409D01*
X190301834Y23611D01*
X190335602Y43107D01*
X190421665Y92795D01*
X190519505Y190635D01*
X190588688Y310464D01*
X190624500Y444117D01*
X190624500Y582483D01*
X190588688Y716136D01*
X190519505Y835965D01*
X190421665Y933805D01*
X190301836Y1002988D01*
X190294797Y1004873D01*
X190243485Y1038197D01*
X190221558Y1095318D01*
X190237393Y1154419D01*
X190284943Y1192924D01*
X190320422Y1199500D01*
X203075500Y1199500D01*
X203133691Y1180593D01*
X203169655Y1131093D01*
X203174500Y1100500D01*
X203174500Y1090226D01*
X203177313Y1060231D01*
X203177315Y1060222D01*
X203221543Y933824D01*
X203221544Y933821D01*
X203221545Y933821D01*
X203301070Y826070D01*
X203387891Y761992D01*
X203408824Y746543D01*
X203535222Y702315D01*
X203535225Y702314D01*
X203535226Y702314D01*
X203535226Y702313D01*
X203535231Y702313D01*
X203565226Y699500D01*
X203565236Y699500D01*
X204159773Y699500D01*
X204189768Y702313D01*
X204189771Y702313D01*
X204189774Y702314D01*
X204203549Y707134D01*
X204316175Y746543D01*
X204316176Y746544D01*
X204316179Y746545D01*
X204423930Y826070D01*
X204503455Y933821D01*
X204547686Y1060226D01*
X204550499Y1090226D01*
X204550500Y1090230D01*
X204550500Y2109770D01*
X204550499Y2109773D01*
X204547686Y2139774D01*
X204503455Y2266179D01*
X204423930Y2373930D01*
X204316179Y2453455D01*
X204189774Y2497686D01*
X204159772Y2500499D01*
X204159770Y2500500D01*
X204159764Y2500500D01*
X203565236Y2500500D01*
X203565230Y2500500D01*
X203565226Y2500499D01*
X203535226Y2497686D01*
X203408821Y2453455D01*
X203301070Y2373930D01*
X203221545Y2266179D01*
X203221544Y2266176D01*
X203221543Y2266175D01*
X203177315Y2139777D01*
X203177313Y2139768D01*
X203174500Y2109773D01*
X203174500Y2099500D01*
X203155593Y2041309D01*
X203106093Y2005345D01*
X203075500Y2000500D01*
X189469627Y2000500D01*
X189364173Y2000500D01*
X189262312Y1973207D01*
X189262309Y1973205D01*
X189262307Y1973205D01*
X189170991Y1920483D01*
X189170986Y1920479D01*
X189069502Y1818996D01*
X189014986Y1791219D01*
X188999499Y1790000D01*
X186425873Y1790000D01*
X186324013Y1762707D01*
X186324010Y1762705D01*
X186324009Y1762705D01*
X186263129Y1727555D01*
X186232687Y1709980D01*
X186158120Y1635413D01*
X186158118Y1635410D01*
X186105394Y1544090D01*
X186105394Y1544089D01*
X186076421Y1435959D01*
X186075022Y1436333D01*
X186051854Y1387773D01*
X186050053Y1385924D01*
X185009219Y345090D01*
X184954702Y317313D01*
X184894270Y326884D01*
X184851005Y370149D01*
X184841434Y430581D01*
X184843584Y440702D01*
X184844500Y444117D01*
X184844500Y582483D01*
X184808688Y716136D01*
X184739505Y835965D01*
X184641665Y933805D01*
X184521836Y1002988D01*
X184388183Y1038800D01*
X184249817Y1038800D01*
X184116164Y1002988D01*
X183996335Y933805D01*
X183898495Y835965D01*
X183829312Y716136D01*
X183793500Y582483D01*
X183793500Y444117D01*
X183829312Y310464D01*
X183898495Y190635D01*
X183996335Y92795D01*
X184116164Y23612D01*
X184249817Y-12200D01*
X184249821Y-12200D01*
X184255240Y-13652D01*
X184306554Y-46976D01*
X184328481Y-104097D01*
X184318558Y-152759D01*
X184268427Y-255304D01*
X184265177Y-277610D01*
X184258500Y-323440D01*
X184258500Y-1539960D01*
X184265118Y-1585382D01*
X184268427Y-1608095D01*
X184293665Y-1659719D01*
X184319802Y-1713183D01*
X184402517Y-1795898D01*
X184444150Y-1816251D01*
X184507604Y-1847272D01*
X184507605Y-1847272D01*
X184507607Y-1847273D01*
X184575740Y-1857200D01*
X184575743Y-1857200D01*
X184758820Y-1857200D01*
X184817011Y-1876107D01*
X184852975Y-1925607D01*
X184852975Y-1986793D01*
X184828824Y-2026204D01*
X184709624Y-2145404D01*
X184655107Y-2173181D01*
X184639620Y-2174400D01*
X184539208Y-2174400D01*
X184461300Y-2195275D01*
X184411909Y-2208509D01*
X184297790Y-2274396D01*
X184204596Y-2367590D01*
X184138709Y-2481709D01*
X184132957Y-2503176D01*
X184104600Y-2609008D01*
X184104600Y-2740792D01*
X184123071Y-2809727D01*
X184140260Y-2873877D01*
X184137057Y-2934979D01*
X184098552Y-2982529D01*
X184044633Y-2998500D01*
X182419621Y-2998500D01*
X182361430Y-2979593D01*
X182349623Y-2969509D01*
X182278614Y-2898500D01*
X182278611Y-2898498D01*
X182278609Y-2898496D01*
X182164489Y-2832609D01*
X182164491Y-2832609D01*
X182115099Y-2819375D01*
X182037192Y-2798500D01*
X181905408Y-2798500D01*
X181827500Y-2819375D01*
X181778109Y-2832609D01*
X181663990Y-2898496D01*
X181570796Y-2991690D01*
X181504909Y-3105809D01*
X181501883Y-3117104D01*
X181470800Y-3233108D01*
X181470800Y-3364892D01*
X181490237Y-3437431D01*
X181504909Y-3492190D01*
X181570796Y-3606309D01*
X181570798Y-3606311D01*
X181570800Y-3606314D01*
X181663986Y-3699500D01*
X181663988Y-3699501D01*
X181663990Y-3699503D01*
X181778110Y-3765390D01*
X181778108Y-3765390D01*
X181778112Y-3765391D01*
X181778114Y-3765392D01*
X181905408Y-3799500D01*
X181905410Y-3799500D01*
X182037190Y-3799500D01*
X182037192Y-3799500D01*
X182164486Y-3765392D01*
X182164488Y-3765390D01*
X182164490Y-3765390D01*
X182278609Y-3699503D01*
X182278609Y-3699502D01*
X182278614Y-3699500D01*
X182349619Y-3628494D01*
X182404134Y-3600719D01*
X182419621Y-3599500D01*
X185421363Y-3599500D01*
X185421363Y-3599499D01*
X185497789Y-3579021D01*
X185566311Y-3539460D01*
X185622260Y-3483511D01*
X186439496Y-2666273D01*
X186494013Y-2638497D01*
X186554445Y-2648068D01*
X186597710Y-2691333D01*
X186608500Y-2736278D01*
X186608500Y-2875509D01*
X186589593Y-2933700D01*
X186579504Y-2945513D01*
X184917812Y-4607204D01*
X184863295Y-4634981D01*
X184847808Y-4636200D01*
X184306870Y-4636200D01*
X184306863Y-4636201D01*
X184226505Y-4652184D01*
X184226503Y-4652185D01*
X184135379Y-4713073D01*
X184135373Y-4713079D01*
X184074486Y-4804201D01*
X184074486Y-4804203D01*
X184074485Y-4804205D01*
X184059365Y-4880217D01*
X184058500Y-4884567D01*
X184058500Y-5088829D01*
X184058501Y-5088837D01*
X184074484Y-5169194D01*
X184074486Y-5169198D01*
X184082840Y-5181701D01*
X184099447Y-5240589D01*
X184082840Y-5291699D01*
X184074485Y-5304203D01*
X184074484Y-5304204D01*
X184058500Y-5384564D01*
X184058500Y-5588829D01*
X184058501Y-5588837D01*
X184074484Y-5669194D01*
X184074486Y-5669198D01*
X184082840Y-5681701D01*
X184099447Y-5740589D01*
X184082840Y-5791699D01*
X184074485Y-5804203D01*
X184074484Y-5804204D01*
X184058500Y-5884564D01*
X184058500Y-6088829D01*
X184058501Y-6088837D01*
X184074484Y-6169194D01*
X184074486Y-6169198D01*
X184082840Y-6181701D01*
X184099447Y-6240589D01*
X184082840Y-6291699D01*
X184074485Y-6304203D01*
X184074484Y-6304204D01*
X184058500Y-6384564D01*
X184058500Y-6384567D01*
X184058501Y-6587200D01*
X184039594Y-6645390D01*
X183990094Y-6681354D01*
X183959501Y-6686200D01*
X183556379Y-6686200D01*
X183498188Y-6667293D01*
X183486375Y-6657204D01*
X183016375Y-6187204D01*
X182538511Y-5709340D01*
X182538508Y-5709338D01*
X182538507Y-5709337D01*
X182519285Y-5698240D01*
X182519285Y-5698239D01*
X182519281Y-5698238D01*
X182486499Y-5679311D01*
X182469988Y-5669778D01*
X182393564Y-5649300D01*
X182393562Y-5649300D01*
X180132562Y-5649300D01*
X180053438Y-5649300D01*
X180006661Y-5661833D01*
X179977007Y-5669779D01*
X179908493Y-5709336D01*
X179908488Y-5709340D01*
X179471739Y-6146089D01*
X179432180Y-6214607D01*
X179432178Y-6214611D01*
X179411700Y-6291035D01*
X179411700Y-7318021D01*
X179392793Y-7376212D01*
X179382704Y-7388025D01*
X179013525Y-7757204D01*
X178959008Y-7784981D01*
X178943521Y-7786200D01*
X178104725Y-7786200D01*
X178074305Y-7789053D01*
X178074296Y-7789055D01*
X177946116Y-7833907D01*
X177836855Y-7914545D01*
X177836845Y-7914555D01*
X177756207Y-8023816D01*
X177711355Y-8151996D01*
X177711353Y-8152005D01*
X177708500Y-8182425D01*
X177708500Y-8990974D01*
X177711353Y-9021394D01*
X177711355Y-9021403D01*
X177756207Y-9149583D01*
X177836845Y-9258844D01*
X177836847Y-9258846D01*
X177836850Y-9258850D01*
X177836853Y-9258852D01*
X177836855Y-9258854D01*
X177946116Y-9339492D01*
X177946117Y-9339492D01*
X177946118Y-9339493D01*
X178074301Y-9384346D01*
X178104725Y-9387199D01*
X178104727Y-9387200D01*
X178104734Y-9387200D01*
X179113273Y-9387200D01*
X179113273Y-9387199D01*
X179143699Y-9384346D01*
X179267349Y-9341078D01*
X179328515Y-9339705D01*
X179370048Y-9364519D01*
X179603504Y-9597975D01*
X179631281Y-9652492D01*
X179632500Y-9667979D01*
X179632500Y-9768392D01*
X179652474Y-9842937D01*
X179666609Y-9895690D01*
X179732496Y-10009809D01*
X179732498Y-10009811D01*
X179732500Y-10009814D01*
X179825686Y-10103000D01*
X179825688Y-10103001D01*
X179825690Y-10103003D01*
X179939810Y-10168890D01*
X179939808Y-10168890D01*
X179939812Y-10168891D01*
X179939814Y-10168892D01*
X180067108Y-10203000D01*
X180067110Y-10203000D01*
X180198890Y-10203000D01*
X180198892Y-10203000D01*
X180326186Y-10168892D01*
X180326188Y-10168890D01*
X180326190Y-10168890D01*
X180440309Y-10103003D01*
X180440309Y-10103002D01*
X180440314Y-10103000D01*
X180533500Y-10009814D01*
X180587666Y-9915996D01*
X180599390Y-9895690D01*
X180599390Y-9895688D01*
X180599392Y-9895686D01*
X180633500Y-9768392D01*
X180633500Y-9636608D01*
X180599392Y-9509314D01*
X180599390Y-9509311D01*
X180599390Y-9509309D01*
X180533503Y-9395190D01*
X180533501Y-9395188D01*
X180533500Y-9395186D01*
X180440314Y-9302000D01*
X180440311Y-9301998D01*
X180440309Y-9301996D01*
X180326189Y-9236109D01*
X180326191Y-9236109D01*
X180276799Y-9222875D01*
X180198892Y-9202000D01*
X180098479Y-9202000D01*
X180040288Y-9183093D01*
X180028475Y-9173004D01*
X179538496Y-8683025D01*
X179510719Y-8628508D01*
X179509500Y-8613021D01*
X179509500Y-8182427D01*
X179509499Y-8182425D01*
X179507736Y-8163619D01*
X179521126Y-8103917D01*
X179536300Y-8084370D01*
X179722061Y-7898609D01*
X179952660Y-7668011D01*
X179961797Y-7652185D01*
X179966614Y-7643842D01*
X180012080Y-7602897D01*
X180072930Y-7596497D01*
X180111142Y-7613680D01*
X180146116Y-7639492D01*
X180146117Y-7639492D01*
X180146118Y-7639493D01*
X180274301Y-7684346D01*
X180304725Y-7687199D01*
X180304727Y-7687200D01*
X180304734Y-7687200D01*
X181164986Y-7687200D01*
X181214486Y-7700463D01*
X181243512Y-7717222D01*
X181319938Y-7737700D01*
X181427500Y-7737700D01*
X181485691Y-7756607D01*
X181521655Y-7806107D01*
X181526500Y-7836700D01*
X181526500Y-8999079D01*
X181507593Y-9057270D01*
X181497509Y-9069076D01*
X181458382Y-9108204D01*
X181426497Y-9140089D01*
X181426496Y-9140090D01*
X181360609Y-9254209D01*
X181350564Y-9291699D01*
X181326500Y-9381508D01*
X181326500Y-9513292D01*
X181346740Y-9588828D01*
X181360609Y-9640590D01*
X181426496Y-9754709D01*
X181426498Y-9754711D01*
X181426500Y-9754714D01*
X181519686Y-9847900D01*
X181519688Y-9847901D01*
X181519690Y-9847903D01*
X181633810Y-9913790D01*
X181633808Y-9913790D01*
X181633812Y-9913791D01*
X181633814Y-9913792D01*
X181761108Y-9947900D01*
X181761110Y-9947900D01*
X181892890Y-9947900D01*
X181892892Y-9947900D01*
X182020186Y-9913792D01*
X182020188Y-9913790D01*
X182020190Y-9913790D01*
X182134309Y-9847903D01*
X182134309Y-9847902D01*
X182134314Y-9847900D01*
X182227500Y-9754714D01*
X182227503Y-9754709D01*
X182293390Y-9640590D01*
X182293390Y-9640588D01*
X182293392Y-9640586D01*
X182327500Y-9513292D01*
X182327500Y-9381508D01*
X182293392Y-9254214D01*
X182293390Y-9254211D01*
X182293390Y-9254209D01*
X182227503Y-9140090D01*
X182227501Y-9140088D01*
X182227500Y-9140086D01*
X182156494Y-9069080D01*
X182128719Y-9014566D01*
X182127500Y-8999079D01*
X182127500Y-7836700D01*
X182146407Y-7778509D01*
X182195907Y-7742545D01*
X182226500Y-7737700D01*
X183967082Y-7737700D01*
X184025273Y-7756607D01*
X184061237Y-7806107D01*
X184064179Y-7856016D01*
X184058500Y-7884559D01*
X184058500Y-8088829D01*
X184058501Y-8088837D01*
X184074484Y-8169194D01*
X184074486Y-8169198D01*
X184082840Y-8181701D01*
X184099447Y-8240589D01*
X184082840Y-8291699D01*
X184074485Y-8304203D01*
X184074484Y-8304204D01*
X184058500Y-8384564D01*
X184058500Y-8384567D01*
X184058500Y-8482286D01*
X184058501Y-8562199D01*
X184039594Y-8620390D01*
X183990094Y-8656354D01*
X183959501Y-8661200D01*
X183840647Y-8661200D01*
X183810798Y-8669198D01*
X183757860Y-8683382D01*
X183724423Y-8702686D01*
X183724424Y-8702687D01*
X183683639Y-8726234D01*
X183062569Y-9347304D01*
X183008052Y-9375081D01*
X182992565Y-9376300D01*
X182927508Y-9376300D01*
X182879372Y-9389198D01*
X182800209Y-9410409D01*
X182686090Y-9476296D01*
X182592896Y-9569490D01*
X182527009Y-9683609D01*
X182527008Y-9683614D01*
X182492900Y-9810908D01*
X182492900Y-9942692D01*
X182512541Y-10015993D01*
X182527009Y-10069990D01*
X182592896Y-10184109D01*
X182592898Y-10184111D01*
X182592900Y-10184114D01*
X182686086Y-10277300D01*
X182686088Y-10277301D01*
X182686090Y-10277303D01*
X182800210Y-10343190D01*
X182800208Y-10343190D01*
X182800212Y-10343191D01*
X182800214Y-10343192D01*
X182927508Y-10377300D01*
X182927510Y-10377300D01*
X183059290Y-10377300D01*
X183059292Y-10377300D01*
X183186586Y-10343192D01*
X183186588Y-10343190D01*
X183186590Y-10343190D01*
X183300709Y-10277303D01*
X183300709Y-10277302D01*
X183300714Y-10277300D01*
X183393900Y-10184114D01*
X183402514Y-10169194D01*
X183459790Y-10069990D01*
X183459790Y-10069988D01*
X183459792Y-10069986D01*
X183493900Y-9942692D01*
X183493900Y-9877635D01*
X183512807Y-9819444D01*
X183522896Y-9807632D01*
X183889496Y-9441031D01*
X183944013Y-9413253D01*
X184004445Y-9422824D01*
X184047710Y-9466089D01*
X184058500Y-9511033D01*
X184058500Y-9588828D01*
X184058501Y-9588837D01*
X184074484Y-9669194D01*
X184074486Y-9669198D01*
X184082840Y-9681701D01*
X184099447Y-9740589D01*
X184082840Y-9791699D01*
X184074485Y-9804203D01*
X184074484Y-9804204D01*
X184058500Y-9884564D01*
X184058500Y-10088829D01*
X184058501Y-10088837D01*
X184074484Y-10169194D01*
X184074485Y-10169196D01*
X184134701Y-10259314D01*
X184135376Y-10260324D01*
X184226505Y-10321215D01*
X184306867Y-10337200D01*
X185761132Y-10337199D01*
X185841495Y-10321215D01*
X185841496Y-10321213D01*
X185845068Y-10319735D01*
X185882952Y-10312200D01*
X185938528Y-10312200D01*
X185996719Y-10331107D01*
X186032683Y-10380607D01*
X186034149Y-10385559D01*
X186051790Y-10451394D01*
X186058809Y-10477590D01*
X186124696Y-10591709D01*
X186124698Y-10591711D01*
X186124700Y-10591714D01*
X186217886Y-10684900D01*
X186217888Y-10684901D01*
X186217890Y-10684903D01*
X186332010Y-10750790D01*
X186332008Y-10750790D01*
X186332012Y-10750791D01*
X186332014Y-10750792D01*
X186459308Y-10784900D01*
X186459310Y-10784900D01*
X186591090Y-10784900D01*
X186591092Y-10784900D01*
X186718386Y-10750792D01*
X186718388Y-10750790D01*
X186718390Y-10750790D01*
X186832509Y-10684903D01*
X186832509Y-10684902D01*
X186832514Y-10684900D01*
X186925700Y-10591714D01*
X186934825Y-10575910D01*
X186947104Y-10554642D01*
X186991592Y-10477586D01*
X186991593Y-10477580D01*
X186991912Y-10476814D01*
X186992302Y-10476356D01*
X186994837Y-10471967D01*
X186995650Y-10472436D01*
X187031649Y-10430289D01*
X187083376Y-10415700D01*
X189403251Y-10415700D01*
X189403253Y-10415700D01*
X189486039Y-10393518D01*
X189486041Y-10393516D01*
X189486043Y-10393516D01*
X189560257Y-10350668D01*
X189560257Y-10350667D01*
X189560262Y-10350665D01*
X193579796Y-6331129D01*
X193634313Y-6303353D01*
X193694745Y-6312924D01*
X193738010Y-6356189D01*
X193748800Y-6401134D01*
X193748800Y-9421757D01*
X193729893Y-9479948D01*
X193680393Y-9515912D01*
X193624178Y-9517384D01*
X193542935Y-9495616D01*
X193513392Y-9487700D01*
X193381608Y-9487700D01*
X193303700Y-9508575D01*
X193254309Y-9521809D01*
X193140190Y-9587696D01*
X193140184Y-9587700D01*
X193094181Y-9633704D01*
X193039664Y-9661481D01*
X193024178Y-9662700D01*
X191589822Y-9662700D01*
X191531631Y-9643793D01*
X191519819Y-9633704D01*
X191473815Y-9587700D01*
X191473809Y-9587696D01*
X191359689Y-9521809D01*
X191359691Y-9521809D01*
X191310299Y-9508575D01*
X191232392Y-9487700D01*
X191100608Y-9487700D01*
X191022700Y-9508575D01*
X190973309Y-9521809D01*
X190859190Y-9587696D01*
X190765996Y-9680890D01*
X190700109Y-9795009D01*
X190685346Y-9850108D01*
X190666000Y-9922308D01*
X190666000Y-10054092D01*
X190689899Y-10143286D01*
X190700109Y-10181390D01*
X190765996Y-10295509D01*
X190765998Y-10295511D01*
X190766000Y-10295514D01*
X190859186Y-10388700D01*
X190859188Y-10388701D01*
X190859190Y-10388703D01*
X190973310Y-10454590D01*
X190973308Y-10454590D01*
X190973312Y-10454591D01*
X190973314Y-10454592D01*
X191100608Y-10488700D01*
X191100610Y-10488700D01*
X191232390Y-10488700D01*
X191232392Y-10488700D01*
X191359686Y-10454592D01*
X191359688Y-10454590D01*
X191359690Y-10454590D01*
X191473809Y-10388703D01*
X191473810Y-10388702D01*
X191473814Y-10388700D01*
X191494906Y-10367608D01*
X191519819Y-10342696D01*
X191574336Y-10314919D01*
X191589822Y-10313700D01*
X193024178Y-10313700D01*
X193082369Y-10332607D01*
X193094181Y-10342696D01*
X193140184Y-10388699D01*
X193140190Y-10388703D01*
X193254310Y-10454590D01*
X193254308Y-10454590D01*
X193254312Y-10454591D01*
X193254314Y-10454592D01*
X193381608Y-10488700D01*
X193381610Y-10488700D01*
X193513390Y-10488700D01*
X193513392Y-10488700D01*
X193624178Y-10459015D01*
X193685279Y-10462218D01*
X193732828Y-10500723D01*
X193748800Y-10554642D01*
X193748800Y-11672264D01*
X193769278Y-11748688D01*
X193779701Y-11766740D01*
X193808840Y-11817211D01*
X194662840Y-12671211D01*
X194662839Y-12671211D01*
X194718789Y-12727160D01*
X194787307Y-12766719D01*
X194787311Y-12766721D01*
X194863735Y-12787199D01*
X194863737Y-12787200D01*
X194863738Y-12787200D01*
X195495567Y-12787200D01*
X195550568Y-12803884D01*
X195576505Y-12821215D01*
X195656867Y-12837200D01*
X197111132Y-12837199D01*
X197191495Y-12821215D01*
X197282624Y-12760324D01*
X197343515Y-12669195D01*
X197359500Y-12588833D01*
X197359499Y-12386199D01*
X197378406Y-12328010D01*
X197427906Y-12292046D01*
X197458499Y-12287200D01*
X199690463Y-12287200D01*
X199690463Y-12287199D01*
X199766889Y-12266721D01*
X199835411Y-12227160D01*
X199891360Y-12171211D01*
X199962373Y-12100196D01*
X200016889Y-12072419D01*
X200032377Y-12071200D01*
X200132790Y-12071200D01*
X200132792Y-12071200D01*
X200260086Y-12037092D01*
X200260088Y-12037090D01*
X200260090Y-12037090D01*
X200374209Y-11971203D01*
X200374209Y-11971202D01*
X200374214Y-11971200D01*
X200467400Y-11878014D01*
X200497898Y-11825190D01*
X200533290Y-11763890D01*
X200533290Y-11763888D01*
X200533292Y-11763886D01*
X200567400Y-11636592D01*
X200567400Y-11504808D01*
X200542618Y-11412320D01*
X200545820Y-11351222D01*
X200584326Y-11303672D01*
X200638245Y-11287700D01*
X201976010Y-11287700D01*
X202034201Y-11306607D01*
X202046014Y-11316696D01*
X204045504Y-13316186D01*
X204073281Y-13370703D01*
X204074500Y-13386190D01*
X204074500Y-13783489D01*
X204077966Y-13805371D01*
X204089820Y-13880218D01*
X204090281Y-13883125D01*
X204090283Y-13883132D01*
X204148902Y-13998177D01*
X204151472Y-14003220D01*
X204246780Y-14098528D01*
X204246782Y-14098529D01*
X204366867Y-14159716D01*
X204366869Y-14159716D01*
X204366874Y-14159719D01*
X204442541Y-14171703D01*
X204466510Y-14175500D01*
X204466512Y-14175500D01*
X204983490Y-14175500D01*
X205004885Y-14172111D01*
X205083126Y-14159719D01*
X205203220Y-14098528D01*
X205298528Y-14003220D01*
X205359719Y-13883126D01*
X205375500Y-13783488D01*
X205375500Y-13216512D01*
X205359719Y-13116874D01*
X205359716Y-13116869D01*
X205359716Y-13116867D01*
X205298529Y-12996782D01*
X205298528Y-12996780D01*
X205203220Y-12901472D01*
X205203217Y-12901470D01*
X205083132Y-12840283D01*
X205083127Y-12840281D01*
X205083126Y-12840281D01*
X205049913Y-12835020D01*
X204983490Y-12824500D01*
X204983488Y-12824500D01*
X204586190Y-12824500D01*
X204527999Y-12805593D01*
X204516186Y-12795504D01*
X203804286Y-12083604D01*
X203776509Y-12029087D01*
X203786080Y-11968655D01*
X203829345Y-11925390D01*
X203874290Y-11914600D01*
X205474078Y-11914600D01*
X205532269Y-11933507D01*
X205544081Y-11943596D01*
X205590084Y-11989599D01*
X205590090Y-11989603D01*
X205704210Y-12055490D01*
X205704208Y-12055490D01*
X205704212Y-12055491D01*
X205704214Y-12055492D01*
X205831508Y-12089600D01*
X205831510Y-12089600D01*
X205963290Y-12089600D01*
X205963292Y-12089600D01*
X206090586Y-12055492D01*
X206090588Y-12055490D01*
X206090590Y-12055490D01*
X206204709Y-11989603D01*
X206204709Y-11989602D01*
X206204714Y-11989600D01*
X206297900Y-11896414D01*
X206306104Y-11882204D01*
X206363790Y-11782290D01*
X206363790Y-11782288D01*
X206363792Y-11782286D01*
X206397900Y-11654992D01*
X206397900Y-11523208D01*
X206363792Y-11395914D01*
X206363790Y-11395911D01*
X206363790Y-11395909D01*
X206297903Y-11281790D01*
X206297901Y-11281788D01*
X206297900Y-11281786D01*
X206204714Y-11188600D01*
X206204711Y-11188598D01*
X206204709Y-11188596D01*
X206090589Y-11122709D01*
X206090591Y-11122709D01*
X206041199Y-11109475D01*
X205963292Y-11088600D01*
X205831508Y-11088600D01*
X205753600Y-11109475D01*
X205704209Y-11122709D01*
X205590090Y-11188596D01*
X205590084Y-11188600D01*
X205544081Y-11234604D01*
X205489564Y-11262381D01*
X205474078Y-11263600D01*
X203692034Y-11263600D01*
X203633843Y-11244693D01*
X203622030Y-11234604D01*
X201220589Y-8833162D01*
X201154167Y-8766740D01*
X202299500Y-8766740D01*
X202299500Y-9133260D01*
X202302724Y-9155386D01*
X202309427Y-9201395D01*
X202353576Y-9291702D01*
X202360802Y-9306483D01*
X202443517Y-9389198D01*
X202486903Y-9410408D01*
X202548604Y-9440572D01*
X202548605Y-9440572D01*
X202548607Y-9440573D01*
X202616740Y-9450500D01*
X202616743Y-9450500D01*
X203708257Y-9450500D01*
X203708260Y-9450500D01*
X203776393Y-9440573D01*
X203881483Y-9389198D01*
X203964198Y-9306483D01*
X204015573Y-9201393D01*
X204025500Y-9133260D01*
X204025500Y-8766740D01*
X204015573Y-8698607D01*
X204007955Y-8683025D01*
X203964198Y-8593518D01*
X203964198Y-8593517D01*
X203881483Y-8510802D01*
X203881481Y-8510801D01*
X203776395Y-8459427D01*
X203748047Y-8455297D01*
X203708260Y-8449500D01*
X202616740Y-8449500D01*
X202582673Y-8454463D01*
X202548604Y-8459427D01*
X202443518Y-8510801D01*
X202360801Y-8593518D01*
X202309427Y-8698604D01*
X202308832Y-8702688D01*
X202299500Y-8766740D01*
X201154167Y-8766740D01*
X199813185Y-7425758D01*
X199785408Y-7371241D01*
X199794979Y-7310809D01*
X199838244Y-7267544D01*
X199870267Y-7257601D01*
X199873313Y-7257200D01*
X199873316Y-7257200D01*
X199922173Y-7250768D01*
X200029404Y-7200765D01*
X200113065Y-7117104D01*
X200163068Y-7009873D01*
X200169500Y-6961016D01*
X200169500Y-6512384D01*
X200163068Y-6463527D01*
X200162500Y-6462310D01*
X200113066Y-6356298D01*
X200113065Y-6356297D01*
X200113065Y-6356296D01*
X200029404Y-6272635D01*
X200029402Y-6272634D01*
X200029401Y-6272633D01*
X199922175Y-6222632D01*
X199889601Y-6218344D01*
X199873316Y-6216200D01*
X199873315Y-6216200D01*
X199644479Y-6216200D01*
X199586288Y-6197293D01*
X199574475Y-6187204D01*
X199342847Y-5955576D01*
X199315070Y-5901059D01*
X199324641Y-5840627D01*
X199367906Y-5797362D01*
X199428338Y-5787791D01*
X199438457Y-5789941D01*
X199486447Y-5802800D01*
X199572153Y-5802800D01*
X204136037Y-5802800D01*
X204194228Y-5821707D01*
X204230192Y-5871207D01*
X204230192Y-5932393D01*
X204221773Y-5951300D01*
X204164609Y-6050309D01*
X204160486Y-6065696D01*
X204130500Y-6177608D01*
X204130500Y-6309392D01*
X204145242Y-6364410D01*
X204164609Y-6436690D01*
X204230496Y-6550809D01*
X204230498Y-6550811D01*
X204230500Y-6550814D01*
X204323686Y-6644000D01*
X204323688Y-6644001D01*
X204323690Y-6644003D01*
X204437810Y-6709890D01*
X204437808Y-6709890D01*
X204437812Y-6709891D01*
X204437814Y-6709892D01*
X204506324Y-6728249D01*
X204557637Y-6761572D01*
X204579564Y-6818693D01*
X204578666Y-6838146D01*
X204577696Y-6844808D01*
X204574500Y-6866742D01*
X204574500Y-7136299D01*
X204555593Y-7194490D01*
X204506093Y-7230454D01*
X204444907Y-7230454D01*
X204405497Y-7206303D01*
X204277913Y-7078720D01*
X204277908Y-7078716D01*
X204186591Y-7025994D01*
X204186592Y-7025994D01*
X204098877Y-7002491D01*
X204047562Y-6969166D01*
X204025636Y-6912045D01*
X204025500Y-6906864D01*
X204025500Y-6866743D01*
X204022844Y-6848513D01*
X204015573Y-6798607D01*
X204012197Y-6791702D01*
X203980700Y-6727273D01*
X203964198Y-6693517D01*
X203881483Y-6610802D01*
X203881481Y-6610801D01*
X203776395Y-6559427D01*
X203749139Y-6555456D01*
X203708260Y-6549500D01*
X202616740Y-6549500D01*
X202582673Y-6554463D01*
X202548604Y-6559427D01*
X202443518Y-6610801D01*
X202360801Y-6693518D01*
X202309427Y-6798604D01*
X202305225Y-6827448D01*
X202299500Y-6866740D01*
X202299500Y-7233260D01*
X202304037Y-7264401D01*
X202309427Y-7301395D01*
X202350088Y-7384567D01*
X202360802Y-7406483D01*
X202443517Y-7489198D01*
X202497285Y-7515483D01*
X202548604Y-7540572D01*
X202548605Y-7540572D01*
X202548607Y-7540573D01*
X202616740Y-7550500D01*
X203197021Y-7550500D01*
X203255212Y-7569407D01*
X203267025Y-7579496D01*
X203271240Y-7583711D01*
X203271239Y-7583711D01*
X203327189Y-7639660D01*
X203395707Y-7679219D01*
X203395711Y-7679221D01*
X203472135Y-7699699D01*
X203472137Y-7699700D01*
X203472138Y-7699700D01*
X203725099Y-7699700D01*
X203783290Y-7718607D01*
X203795102Y-7728696D01*
X204279786Y-8213379D01*
X204279791Y-8213383D01*
X204371108Y-8266105D01*
X204371106Y-8266105D01*
X204371110Y-8266106D01*
X204371112Y-8266107D01*
X204472973Y-8293400D01*
X204735300Y-8293400D01*
X204793491Y-8312307D01*
X204829455Y-8361807D01*
X204829455Y-8422993D01*
X204793491Y-8472493D01*
X204778781Y-8481341D01*
X204718517Y-8510802D01*
X204635801Y-8593518D01*
X204584427Y-8698604D01*
X204583832Y-8702688D01*
X204574500Y-8766740D01*
X204574500Y-9133260D01*
X204577724Y-9155386D01*
X204584427Y-9201395D01*
X204628576Y-9291702D01*
X204635802Y-9306483D01*
X204718517Y-9389198D01*
X204761903Y-9410408D01*
X204823604Y-9440572D01*
X204823605Y-9440572D01*
X204823607Y-9440573D01*
X204891740Y-9450500D01*
X204891743Y-9450500D01*
X205983259Y-9450500D01*
X205983260Y-9450500D01*
X206030136Y-9443670D01*
X206090445Y-9453989D01*
X206133171Y-9497786D01*
X206140037Y-9516011D01*
X206146407Y-9539785D01*
X206146409Y-9539789D01*
X206212296Y-9653909D01*
X206212298Y-9653911D01*
X206212300Y-9653914D01*
X206305486Y-9747100D01*
X206305488Y-9747101D01*
X206305490Y-9747103D01*
X206419610Y-9812990D01*
X206419608Y-9812990D01*
X206419612Y-9812991D01*
X206419614Y-9812992D01*
X206546908Y-9847100D01*
X206546910Y-9847100D01*
X206678690Y-9847100D01*
X206678692Y-9847100D01*
X206805986Y-9812992D01*
X206805988Y-9812990D01*
X206805990Y-9812990D01*
X206920109Y-9747103D01*
X206920109Y-9747102D01*
X206920114Y-9747100D01*
X207013300Y-9653914D01*
X207037673Y-9611699D01*
X207083143Y-9570759D01*
X207123409Y-9562200D01*
X209297812Y-9562200D01*
X209356003Y-9581107D01*
X209367816Y-9591196D01*
X209369801Y-9593181D01*
X209369802Y-9593183D01*
X209452517Y-9675898D01*
X209503294Y-9700721D01*
X209557604Y-9727272D01*
X209557605Y-9727272D01*
X209557607Y-9727273D01*
X209625740Y-9737200D01*
X209625743Y-9737200D01*
X211592256Y-9737200D01*
X211592260Y-9737200D01*
X211645228Y-9729482D01*
X211705535Y-9739802D01*
X211748260Y-9783599D01*
X211758500Y-9827448D01*
X211758500Y-10645951D01*
X211739593Y-10704142D01*
X211690093Y-10740106D01*
X211645228Y-10743917D01*
X211605114Y-10738072D01*
X211592260Y-10736200D01*
X209625740Y-10736200D01*
X209598932Y-10740106D01*
X209557604Y-10746127D01*
X209452518Y-10797501D01*
X209452517Y-10797501D01*
X209452517Y-10797502D01*
X209382913Y-10867105D01*
X209328399Y-10894881D01*
X209312912Y-10896100D01*
X207535122Y-10896100D01*
X207476931Y-10877193D01*
X207465119Y-10867104D01*
X207419115Y-10821100D01*
X207419109Y-10821096D01*
X207304989Y-10755209D01*
X207304991Y-10755209D01*
X207248624Y-10740106D01*
X207177692Y-10721100D01*
X207045908Y-10721100D01*
X206974976Y-10740106D01*
X206918609Y-10755209D01*
X206804490Y-10821096D01*
X206711296Y-10914290D01*
X206645409Y-11028409D01*
X206635366Y-11065890D01*
X206611300Y-11155708D01*
X206611300Y-11287492D01*
X206638209Y-11387919D01*
X206645409Y-11414790D01*
X206711296Y-11528909D01*
X206711298Y-11528911D01*
X206711300Y-11528914D01*
X206804486Y-11622100D01*
X206804488Y-11622101D01*
X206804490Y-11622103D01*
X206918610Y-11687990D01*
X206918608Y-11687990D01*
X206918612Y-11687991D01*
X206918614Y-11687992D01*
X207045908Y-11722100D01*
X207045910Y-11722100D01*
X207177690Y-11722100D01*
X207177692Y-11722100D01*
X207304986Y-11687992D01*
X207304988Y-11687990D01*
X207304990Y-11687990D01*
X207419109Y-11622103D01*
X207419110Y-11622102D01*
X207419114Y-11622100D01*
X207441785Y-11599429D01*
X207465119Y-11576096D01*
X207519636Y-11548319D01*
X207535122Y-11547100D01*
X208430759Y-11547100D01*
X208488950Y-11566007D01*
X208524914Y-11615507D01*
X208526385Y-11671722D01*
X208503400Y-11757508D01*
X208503400Y-11889292D01*
X208517951Y-11943596D01*
X208537509Y-12016590D01*
X208603396Y-12130709D01*
X208603398Y-12130711D01*
X208603400Y-12130714D01*
X208696586Y-12223900D01*
X208696588Y-12223901D01*
X208696590Y-12223903D01*
X208810710Y-12289790D01*
X208810708Y-12289790D01*
X208810712Y-12289791D01*
X208810714Y-12289792D01*
X208938008Y-12323900D01*
X208938010Y-12323900D01*
X209069790Y-12323900D01*
X209069792Y-12323900D01*
X209183881Y-12293330D01*
X209244978Y-12296532D01*
X209292528Y-12335037D01*
X209308500Y-12388957D01*
X209308500Y-12419960D01*
X209313080Y-12451392D01*
X209318427Y-12488095D01*
X209358273Y-12569600D01*
X209369802Y-12593183D01*
X209443317Y-12666698D01*
X209471093Y-12721213D01*
X209461522Y-12781645D01*
X209443318Y-12806700D01*
X209369802Y-12880217D01*
X209369801Y-12880218D01*
X209367816Y-12882204D01*
X209313299Y-12909981D01*
X209297812Y-12911200D01*
X209104353Y-12911200D01*
X209018647Y-12911200D01*
X208974556Y-12923014D01*
X208935856Y-12933383D01*
X208861642Y-12976231D01*
X208861641Y-12976232D01*
X206505581Y-15332290D01*
X206451064Y-15360067D01*
X206390632Y-15350496D01*
X206349841Y-15311787D01*
X206305500Y-15234986D01*
X206212314Y-15141800D01*
X206212311Y-15141798D01*
X206212309Y-15141796D01*
X206098189Y-15075909D01*
X206098191Y-15075909D01*
X206022010Y-15055497D01*
X205970892Y-15041800D01*
X205839108Y-15041800D01*
X205787990Y-15055497D01*
X205711809Y-15075909D01*
X205597690Y-15141796D01*
X205597684Y-15141800D01*
X205551681Y-15187804D01*
X205497164Y-15215581D01*
X205481678Y-15216800D01*
X203221975Y-15216800D01*
X203163784Y-15197893D01*
X203127820Y-15148393D01*
X203127820Y-15087207D01*
X203132250Y-15075961D01*
X203163068Y-15009873D01*
X203169500Y-14961016D01*
X203169500Y-14512384D01*
X203163068Y-14463527D01*
X203156018Y-14448409D01*
X203113066Y-14356298D01*
X203113065Y-14356297D01*
X203113065Y-14356296D01*
X203029404Y-14272635D01*
X203029402Y-14272634D01*
X203029401Y-14272633D01*
X202922175Y-14222632D01*
X202879362Y-14216996D01*
X202873316Y-14216200D01*
X202524684Y-14216200D01*
X202518638Y-14216996D01*
X202475825Y-14222632D01*
X202475824Y-14222632D01*
X202368598Y-14272633D01*
X202284933Y-14356298D01*
X202274329Y-14379040D01*
X202232601Y-14423788D01*
X202184605Y-14436200D01*
X196452779Y-14436200D01*
X196394588Y-14417293D01*
X196382775Y-14407204D01*
X195641896Y-13666325D01*
X195614119Y-13611808D01*
X195612900Y-13596321D01*
X195612900Y-13495909D01*
X195610513Y-13487000D01*
X195578792Y-13368614D01*
X195578790Y-13368610D01*
X195578790Y-13368609D01*
X195512903Y-13254490D01*
X195512901Y-13254488D01*
X195512900Y-13254486D01*
X195419714Y-13161300D01*
X195419711Y-13161298D01*
X195419709Y-13161296D01*
X195305589Y-13095409D01*
X195305591Y-13095409D01*
X195256199Y-13082175D01*
X195178292Y-13061300D01*
X195046508Y-13061300D01*
X194968600Y-13082175D01*
X194919209Y-13095409D01*
X194805090Y-13161296D01*
X194711896Y-13254490D01*
X194646009Y-13368610D01*
X194643526Y-13374606D01*
X194640680Y-13373427D01*
X194614207Y-13414160D01*
X194557078Y-13436066D01*
X194551933Y-13436200D01*
X194356870Y-13436200D01*
X194356862Y-13436201D01*
X194276505Y-13452184D01*
X194276503Y-13452185D01*
X194185379Y-13513073D01*
X194185373Y-13513079D01*
X194124486Y-13604201D01*
X194124486Y-13604203D01*
X194124485Y-13604205D01*
X194108500Y-13684567D01*
X194108500Y-14407204D01*
X194108501Y-15117800D01*
X194089594Y-15175991D01*
X194040094Y-15211955D01*
X194009501Y-15216800D01*
X193908500Y-15216800D01*
X193850309Y-15197893D01*
X193814345Y-15148393D01*
X193809500Y-15117800D01*
X193809499Y-13684570D01*
X193809498Y-13684566D01*
X193793515Y-13604205D01*
X193793512Y-13604201D01*
X193732626Y-13513079D01*
X193732624Y-13513076D01*
X193665303Y-13468093D01*
X193641497Y-13452186D01*
X193641496Y-13452185D01*
X193641495Y-13452185D01*
X193561133Y-13436200D01*
X193561132Y-13436200D01*
X193356870Y-13436200D01*
X193356862Y-13436201D01*
X193276505Y-13452184D01*
X193276501Y-13452186D01*
X193263999Y-13460540D01*
X193205111Y-13477147D01*
X193154001Y-13460540D01*
X193141496Y-13452185D01*
X193141495Y-13452184D01*
X193061134Y-13436200D01*
X192856870Y-13436200D01*
X192856862Y-13436201D01*
X192776505Y-13452184D01*
X192776501Y-13452186D01*
X192763999Y-13460540D01*
X192705111Y-13477147D01*
X192654001Y-13460540D01*
X192641496Y-13452185D01*
X192641495Y-13452184D01*
X192561134Y-13436200D01*
X192356870Y-13436200D01*
X192356862Y-13436201D01*
X192276505Y-13452184D01*
X192276501Y-13452186D01*
X192263999Y-13460540D01*
X192205111Y-13477147D01*
X192154001Y-13460540D01*
X192141496Y-13452185D01*
X192141495Y-13452184D01*
X192061134Y-13436200D01*
X191856870Y-13436200D01*
X191856862Y-13436201D01*
X191776505Y-13452184D01*
X191776501Y-13452186D01*
X191763999Y-13460540D01*
X191705111Y-13477147D01*
X191654001Y-13460540D01*
X191641496Y-13452185D01*
X191582738Y-13440497D01*
X191529355Y-13410600D01*
X191503739Y-13355035D01*
X191515676Y-13295025D01*
X191516235Y-13294041D01*
X191533992Y-13263286D01*
X191568100Y-13135992D01*
X191568100Y-13004208D01*
X191533992Y-12876914D01*
X191533990Y-12876910D01*
X191533990Y-12876909D01*
X191468103Y-12762790D01*
X191468101Y-12762788D01*
X191468100Y-12762786D01*
X191374914Y-12669600D01*
X191374911Y-12669598D01*
X191374909Y-12669596D01*
X191260789Y-12603709D01*
X191260791Y-12603709D01*
X191205267Y-12588832D01*
X191133492Y-12569600D01*
X191001708Y-12569600D01*
X190929933Y-12588832D01*
X190874409Y-12603709D01*
X190760290Y-12669596D01*
X190667096Y-12762790D01*
X190601209Y-12876910D01*
X190601207Y-12876914D01*
X190582286Y-12947528D01*
X190556664Y-12991907D01*
X190198535Y-13350037D01*
X190198533Y-13350039D01*
X190175230Y-13390402D01*
X190129760Y-13431342D01*
X190070183Y-13437999D01*
X190061142Y-13436201D01*
X190061134Y-13436200D01*
X190061133Y-13436200D01*
X190061132Y-13436200D01*
X189856870Y-13436200D01*
X189856863Y-13436201D01*
X189854025Y-13436766D01*
X189852711Y-13436610D01*
X189852026Y-13436678D01*
X189852011Y-13436527D01*
X189793264Y-13429568D01*
X189748984Y-13389166D01*
X189719465Y-13338038D01*
X189658862Y-13277434D01*
X189658862Y-13277435D01*
X189569996Y-13188569D01*
X189542219Y-13134052D01*
X189541000Y-13118565D01*
X189541000Y-13053509D01*
X189540143Y-13050309D01*
X189516015Y-12960262D01*
X189519217Y-12899165D01*
X189557722Y-12851615D01*
X189616823Y-12835779D01*
X189661141Y-12848906D01*
X189666310Y-12851890D01*
X189666311Y-12851890D01*
X189666314Y-12851892D01*
X189793608Y-12886000D01*
X189793610Y-12886000D01*
X189925390Y-12886000D01*
X189925392Y-12886000D01*
X190052686Y-12851892D01*
X190052688Y-12851890D01*
X190052690Y-12851890D01*
X190166809Y-12786003D01*
X190166809Y-12786002D01*
X190166814Y-12786000D01*
X190260000Y-12692814D01*
X190267796Y-12679311D01*
X190325890Y-12578690D01*
X190325890Y-12578688D01*
X190325892Y-12578686D01*
X190360000Y-12451392D01*
X190360000Y-12319608D01*
X190325892Y-12192314D01*
X190325890Y-12192311D01*
X190325890Y-12192309D01*
X190260003Y-12078190D01*
X190260001Y-12078188D01*
X190260000Y-12078186D01*
X190166814Y-11985000D01*
X190166811Y-11984998D01*
X190166809Y-11984996D01*
X190052689Y-11919109D01*
X190052691Y-11919109D01*
X190003299Y-11905875D01*
X189925392Y-11885000D01*
X189793608Y-11885000D01*
X189715700Y-11905875D01*
X189666309Y-11919109D01*
X189552190Y-11984996D01*
X189552184Y-11985000D01*
X189506181Y-12031004D01*
X189451664Y-12058781D01*
X189436178Y-12060000D01*
X187519832Y-12060000D01*
X187519816Y-12059999D01*
X187513753Y-12059999D01*
X187428048Y-12059999D01*
X187417548Y-12062812D01*
X187360177Y-12078184D01*
X187360178Y-12078185D01*
X187345263Y-12082181D01*
X187271035Y-12125037D01*
X187210434Y-12185637D01*
X187210435Y-12185638D01*
X186633504Y-12762569D01*
X186578987Y-12790346D01*
X186518555Y-12780775D01*
X186475290Y-12737510D01*
X186464500Y-12692565D01*
X186464500Y-12190048D01*
X186463319Y-12185640D01*
X186442318Y-12107262D01*
X186399465Y-12033038D01*
X186383013Y-12016586D01*
X186338863Y-11972435D01*
X186092662Y-11726235D01*
X186092659Y-11726233D01*
X186054988Y-11704483D01*
X186014047Y-11659013D01*
X186007392Y-11599429D01*
X186009500Y-11588833D01*
X186009499Y-11384568D01*
X186009358Y-11383861D01*
X185997993Y-11326719D01*
X185993515Y-11304205D01*
X185985159Y-11291700D01*
X185968551Y-11232814D01*
X185985159Y-11181699D01*
X185993515Y-11169195D01*
X186009500Y-11088833D01*
X186009499Y-10884568D01*
X186006025Y-10867104D01*
X185993515Y-10804205D01*
X185993514Y-10804203D01*
X185932626Y-10713079D01*
X185932624Y-10713076D01*
X185927401Y-10709586D01*
X185841497Y-10652186D01*
X185841496Y-10652185D01*
X185841495Y-10652185D01*
X185761133Y-10636200D01*
X185080145Y-10636200D01*
X185080144Y-10636200D01*
X184987857Y-10636200D01*
X184987855Y-10636200D01*
X184306870Y-10636200D01*
X184306863Y-10636201D01*
X184226505Y-10652184D01*
X184226503Y-10652185D01*
X184201317Y-10669015D01*
X184146315Y-10685700D01*
X183034956Y-10685700D01*
X182958337Y-10706230D01*
X182958336Y-10706229D01*
X182945811Y-10709585D01*
X182865889Y-10755729D01*
X182865887Y-10755731D01*
X182051113Y-11570504D01*
X181996597Y-11598281D01*
X181981110Y-11599500D01*
X181935188Y-11599500D01*
X181876997Y-11580593D01*
X181841033Y-11531093D01*
X181841033Y-11469907D01*
X181865182Y-11430498D01*
X181939198Y-11356483D01*
X181990573Y-11251393D01*
X182000500Y-11183260D01*
X182000500Y-10816740D01*
X181990573Y-10748607D01*
X181988280Y-10743917D01*
X181955028Y-10675898D01*
X181939198Y-10643517D01*
X181856483Y-10560802D01*
X181856481Y-10560801D01*
X181751395Y-10509427D01*
X181724139Y-10505456D01*
X181683260Y-10499500D01*
X180591740Y-10499500D01*
X180557673Y-10504463D01*
X180523604Y-10509427D01*
X180418518Y-10560801D01*
X180418515Y-10560803D01*
X180394256Y-10585062D01*
X180339739Y-10612838D01*
X180279307Y-10603266D01*
X180274754Y-10600793D01*
X180158389Y-10533609D01*
X180158391Y-10533609D01*
X180091492Y-10515684D01*
X180031092Y-10499500D01*
X179899308Y-10499500D01*
X179838908Y-10515684D01*
X179772009Y-10533609D01*
X179657890Y-10599496D01*
X179564696Y-10692690D01*
X179498809Y-10806809D01*
X179494981Y-10821096D01*
X179464700Y-10934108D01*
X179464700Y-11065892D01*
X179470785Y-11088600D01*
X179498809Y-11193190D01*
X179566554Y-11310526D01*
X179579276Y-11370374D01*
X179554390Y-11426270D01*
X179501402Y-11456863D01*
X179466545Y-11457992D01*
X179446743Y-11455107D01*
X179408260Y-11449500D01*
X179408258Y-11449500D01*
X178944282Y-11449500D01*
X178886091Y-11430593D01*
X178850127Y-11381093D01*
X178850127Y-11319907D01*
X178858546Y-11301000D01*
X178920790Y-11193190D01*
X178920790Y-11193188D01*
X178920792Y-11193186D01*
X178954900Y-11065892D01*
X178954900Y-10934108D01*
X178920792Y-10806814D01*
X178920790Y-10806811D01*
X178920790Y-10806809D01*
X178854903Y-10692690D01*
X178854901Y-10692688D01*
X178854900Y-10692686D01*
X178761714Y-10599500D01*
X178761711Y-10599498D01*
X178761709Y-10599496D01*
X178647589Y-10533609D01*
X178647591Y-10533609D01*
X178580692Y-10515684D01*
X178520292Y-10499500D01*
X178388508Y-10499500D01*
X178328108Y-10515684D01*
X178261209Y-10533609D01*
X178147090Y-10599496D01*
X178147084Y-10599500D01*
X178101081Y-10645504D01*
X178046564Y-10673281D01*
X178031078Y-10674500D01*
X174234335Y-10674500D01*
X174176144Y-10655593D01*
X174140180Y-10606093D01*
X174140180Y-10544907D01*
X174164331Y-10505496D01*
X174721927Y-9947900D01*
X177542359Y-7127466D01*
X177542362Y-7127465D01*
X177602965Y-7066862D01*
X177645818Y-6992638D01*
X177668001Y-6909852D01*
X177668001Y-6889520D01*
X177686908Y-6831329D01*
X177696991Y-6819522D01*
X177743000Y-6773514D01*
X177768663Y-6729065D01*
X177808890Y-6659390D01*
X177808890Y-6659388D01*
X177808892Y-6659386D01*
X177843000Y-6532092D01*
X177843000Y-6400308D01*
X177808892Y-6273014D01*
X177808890Y-6273011D01*
X177808890Y-6273009D01*
X177743003Y-6158890D01*
X177743001Y-6158888D01*
X177743000Y-6158886D01*
X177649814Y-6065700D01*
X177649811Y-6065698D01*
X177649809Y-6065696D01*
X177535689Y-5999809D01*
X177535691Y-5999809D01*
X177481556Y-5985304D01*
X177408392Y-5965700D01*
X177276608Y-5965700D01*
X177203444Y-5985304D01*
X177149309Y-5999809D01*
X177035190Y-6065696D01*
X176941996Y-6158890D01*
X176876109Y-6273009D01*
X176858918Y-6337169D01*
X176842000Y-6400308D01*
X176842000Y-6532092D01*
X176876108Y-6659386D01*
X176876109Y-6659389D01*
X176916336Y-6729065D01*
X176929057Y-6788913D01*
X176904170Y-6844808D01*
X176900603Y-6848568D01*
X175856078Y-7893093D01*
X175801561Y-7920870D01*
X175741129Y-7911299D01*
X175700337Y-7872589D01*
X175652300Y-7789386D01*
X175559114Y-7696200D01*
X175559111Y-7696198D01*
X175559109Y-7696196D01*
X175444989Y-7630309D01*
X175444991Y-7630309D01*
X175392490Y-7616242D01*
X175317692Y-7596200D01*
X175185908Y-7596200D01*
X175111110Y-7616242D01*
X175058609Y-7630309D01*
X174944490Y-7696196D01*
X174944484Y-7696200D01*
X174898481Y-7742204D01*
X174843964Y-7769981D01*
X174828478Y-7771200D01*
X164934585Y-7771200D01*
X164891105Y-7761141D01*
X164877059Y-7754274D01*
X164860394Y-7746127D01*
X164835808Y-7742545D01*
X164792260Y-7736200D01*
X162825740Y-7736200D01*
X162772772Y-7743917D01*
X162712464Y-7733596D01*
X162669739Y-7689798D01*
X162659500Y-7645951D01*
X162659500Y-6827448D01*
X162678407Y-6769257D01*
X162727907Y-6733293D01*
X162772770Y-6729482D01*
X162825740Y-6737200D01*
X163808165Y-6737200D01*
X163866356Y-6756107D01*
X163878168Y-6766196D01*
X164008337Y-6896364D01*
X164008342Y-6896368D01*
X164082557Y-6939216D01*
X164082555Y-6939216D01*
X164082559Y-6939217D01*
X164082561Y-6939218D01*
X164165347Y-6961400D01*
X164251053Y-6961400D01*
X165002078Y-6961400D01*
X165060269Y-6980307D01*
X165072081Y-6990396D01*
X165118084Y-7036399D01*
X165118090Y-7036403D01*
X165232210Y-7102290D01*
X165232208Y-7102290D01*
X165232212Y-7102291D01*
X165232214Y-7102292D01*
X165359508Y-7136400D01*
X165359510Y-7136400D01*
X165491290Y-7136400D01*
X165491292Y-7136400D01*
X165618586Y-7102292D01*
X165618588Y-7102290D01*
X165618590Y-7102290D01*
X165732709Y-7036403D01*
X165732709Y-7036402D01*
X165732714Y-7036400D01*
X165825900Y-6943214D01*
X165840268Y-6918328D01*
X165891790Y-6829090D01*
X165891790Y-6829088D01*
X165891792Y-6829086D01*
X165925900Y-6701792D01*
X165925900Y-6570008D01*
X165891792Y-6442714D01*
X165891790Y-6442711D01*
X165891790Y-6442709D01*
X165825903Y-6328590D01*
X165825901Y-6328588D01*
X165825900Y-6328586D01*
X165732714Y-6235400D01*
X165732711Y-6235398D01*
X165732709Y-6235396D01*
X165618589Y-6169509D01*
X165618591Y-6169509D01*
X165569199Y-6156275D01*
X165491292Y-6135400D01*
X165359508Y-6135400D01*
X165326755Y-6144175D01*
X165234122Y-6168996D01*
X165173021Y-6165793D01*
X165125471Y-6127287D01*
X165109500Y-6073369D01*
X165109500Y-6053443D01*
X165109500Y-6053440D01*
X165099573Y-5985307D01*
X165048198Y-5880217D01*
X164974682Y-5806701D01*
X164946907Y-5752187D01*
X164956478Y-5691755D01*
X164974681Y-5666699D01*
X165048198Y-5593183D01*
X165048423Y-5592721D01*
X165048819Y-5592312D01*
X165052965Y-5586506D01*
X165053835Y-5587127D01*
X165090965Y-5548747D01*
X165137365Y-5537200D01*
X165997363Y-5537200D01*
X165997363Y-5537199D01*
X166073789Y-5516721D01*
X166142311Y-5477160D01*
X166198260Y-5421211D01*
X167284075Y-4335396D01*
X167338592Y-4307619D01*
X167354079Y-4306400D01*
X172055779Y-4306400D01*
X172113970Y-4325307D01*
X172125776Y-4335390D01*
X172196786Y-4406400D01*
X172196788Y-4406401D01*
X172196790Y-4406403D01*
X172310910Y-4472290D01*
X172310908Y-4472290D01*
X172310912Y-4472291D01*
X172310914Y-4472292D01*
X172438208Y-4506400D01*
X172438210Y-4506400D01*
X172569990Y-4506400D01*
X172569992Y-4506400D01*
X172697286Y-4472292D01*
X172697288Y-4472290D01*
X172697290Y-4472290D01*
X172811409Y-4406403D01*
X172811409Y-4406402D01*
X172811414Y-4406400D01*
X172904600Y-4313214D01*
X172913495Y-4297808D01*
X172970490Y-4199090D01*
X172970490Y-4199088D01*
X172970492Y-4199086D01*
X173004600Y-4071792D01*
X173004600Y-3940008D01*
X172970492Y-3812714D01*
X172970490Y-3812711D01*
X172970490Y-3812709D01*
X172904603Y-3698590D01*
X172904601Y-3698588D01*
X172904600Y-3698586D01*
X172811414Y-3605400D01*
X172811411Y-3605398D01*
X172811409Y-3605396D01*
X172697289Y-3539509D01*
X172697291Y-3539509D01*
X172647899Y-3526275D01*
X172569992Y-3505400D01*
X172438208Y-3505400D01*
X172360300Y-3526275D01*
X172310909Y-3539509D01*
X172196790Y-3605396D01*
X172196789Y-3605397D01*
X172196786Y-3605399D01*
X172196786Y-3605400D01*
X172125780Y-3676405D01*
X172071266Y-3704181D01*
X172055779Y-3705400D01*
X167288800Y-3705400D01*
X167230609Y-3686493D01*
X167194645Y-3636993D01*
X167189800Y-3606400D01*
X167189800Y-3567209D01*
X167184014Y-3545614D01*
X167155692Y-3439914D01*
X167155690Y-3439911D01*
X167155690Y-3439909D01*
X167089803Y-3325790D01*
X167089801Y-3325788D01*
X167089800Y-3325786D01*
X166996614Y-3232600D01*
X166996611Y-3232598D01*
X166996609Y-3232596D01*
X166882489Y-3166709D01*
X166882491Y-3166709D01*
X166833099Y-3153475D01*
X166755192Y-3132600D01*
X166623408Y-3132600D01*
X166545500Y-3153475D01*
X166496109Y-3166709D01*
X166381990Y-3232596D01*
X166381984Y-3232600D01*
X166335981Y-3278604D01*
X166281464Y-3306381D01*
X166265978Y-3307600D01*
X165208500Y-3307600D01*
X165150309Y-3288693D01*
X165114345Y-3239193D01*
X165109500Y-3208600D01*
X165109500Y-3053443D01*
X165109500Y-3053440D01*
X165099573Y-2985307D01*
X165091847Y-2969504D01*
X165048198Y-2880218D01*
X165048198Y-2880217D01*
X164965483Y-2797502D01*
X164924102Y-2777272D01*
X164860395Y-2746127D01*
X164833139Y-2742156D01*
X164792260Y-2736200D01*
X162825740Y-2736200D01*
X162772772Y-2743917D01*
X162712464Y-2733596D01*
X162669739Y-2689798D01*
X162659500Y-2645951D01*
X162659500Y-359957D01*
X164508500Y-359957D01*
X164508500Y-1513437D01*
X164508501Y-1513443D01*
X164511992Y-1539960D01*
X164522926Y-1623020D01*
X164544664Y-1675500D01*
X164578507Y-1757205D01*
X164579404Y-1759369D01*
X164616045Y-1807121D01*
X164668979Y-1876107D01*
X164669246Y-1876454D01*
X164786331Y-1966296D01*
X164922680Y-2022774D01*
X165032259Y-2037200D01*
X166985740Y-2037199D01*
X167095320Y-2022774D01*
X167231669Y-1966296D01*
X167348754Y-1876454D01*
X167438596Y-1759369D01*
X167495074Y-1623020D01*
X167509500Y-1513441D01*
X167509500Y-1230253D01*
X171299500Y-1230253D01*
X171299500Y-2019746D01*
X171299501Y-2019758D01*
X171311132Y-2078227D01*
X171311134Y-2078233D01*
X171355445Y-2144548D01*
X171355448Y-2144552D01*
X171421769Y-2188867D01*
X171464129Y-2197293D01*
X171480241Y-2200498D01*
X171480246Y-2200498D01*
X171480252Y-2200500D01*
X171480253Y-2200500D01*
X172519747Y-2200500D01*
X172519748Y-2200500D01*
X172578231Y-2188867D01*
X172644552Y-2144552D01*
X172688867Y-2078231D01*
X172693485Y-2055011D01*
X172698425Y-2030184D01*
X172728322Y-1976801D01*
X172783888Y-1951186D01*
X172795522Y-1950500D01*
X177204478Y-1950500D01*
X177262669Y-1969407D01*
X177298633Y-2018907D01*
X177301575Y-2030184D01*
X177311132Y-2078227D01*
X177311134Y-2078233D01*
X177355445Y-2144548D01*
X177355448Y-2144552D01*
X177421769Y-2188867D01*
X177464129Y-2197293D01*
X177480241Y-2200498D01*
X177480246Y-2200498D01*
X177480252Y-2200500D01*
X177963699Y-2200500D01*
X178021890Y-2219407D01*
X178057854Y-2268907D01*
X178059326Y-2325123D01*
X178057908Y-2330413D01*
X178057908Y-2330414D01*
X178023800Y-2457708D01*
X178023800Y-2589492D01*
X178049981Y-2687200D01*
X178057909Y-2716790D01*
X178123796Y-2830909D01*
X178123798Y-2830911D01*
X178123800Y-2830914D01*
X178216986Y-2924100D01*
X178216988Y-2924101D01*
X178216990Y-2924103D01*
X178331110Y-2989990D01*
X178331108Y-2989990D01*
X178331112Y-2989991D01*
X178331114Y-2989992D01*
X178458408Y-3024100D01*
X178458410Y-3024100D01*
X178590190Y-3024100D01*
X178590192Y-3024100D01*
X178717486Y-2989992D01*
X178717488Y-2989990D01*
X178717490Y-2989990D01*
X178831609Y-2924103D01*
X178831609Y-2924102D01*
X178831614Y-2924100D01*
X178924800Y-2830914D01*
X178924803Y-2830909D01*
X178990690Y-2716790D01*
X178990690Y-2716788D01*
X178990692Y-2716786D01*
X179024800Y-2589492D01*
X179024800Y-2457708D01*
X178990692Y-2330414D01*
X178990690Y-2330411D01*
X178990690Y-2330409D01*
X178924803Y-2216290D01*
X178924799Y-2216284D01*
X178878796Y-2170281D01*
X178851019Y-2115764D01*
X178850790Y-2112862D01*
X178850647Y-2112881D01*
X178849800Y-2106454D01*
X178849800Y-2106447D01*
X178833668Y-2046240D01*
X178833668Y-2046239D01*
X178833668Y-2046238D01*
X178827617Y-2023659D01*
X178827616Y-2023657D01*
X178784768Y-1949442D01*
X178784764Y-1949437D01*
X178729496Y-1894168D01*
X178701719Y-1839651D01*
X178700500Y-1824165D01*
X178700500Y-1230253D01*
X178700498Y-1230241D01*
X178697711Y-1216231D01*
X178688867Y-1171769D01*
X178644552Y-1105448D01*
X178644548Y-1105445D01*
X178578233Y-1061134D01*
X178578231Y-1061133D01*
X178578228Y-1061132D01*
X178578227Y-1061132D01*
X178519758Y-1049501D01*
X178519748Y-1049500D01*
X177480252Y-1049500D01*
X177480251Y-1049500D01*
X177480241Y-1049501D01*
X177421772Y-1061132D01*
X177421766Y-1061134D01*
X177355451Y-1105445D01*
X177355445Y-1105451D01*
X177311134Y-1171766D01*
X177311132Y-1171772D01*
X177301575Y-1219816D01*
X177271678Y-1273199D01*
X177216112Y-1298814D01*
X177204478Y-1299500D01*
X172795522Y-1299500D01*
X172737331Y-1280593D01*
X172701367Y-1231093D01*
X172698425Y-1219816D01*
X172692806Y-1191576D01*
X172688867Y-1171769D01*
X172644552Y-1105448D01*
X172644548Y-1105445D01*
X172578233Y-1061134D01*
X172578231Y-1061133D01*
X172578228Y-1061132D01*
X172578227Y-1061132D01*
X172519758Y-1049501D01*
X172519748Y-1049500D01*
X171480252Y-1049500D01*
X171480251Y-1049500D01*
X171480241Y-1049501D01*
X171421772Y-1061132D01*
X171421766Y-1061134D01*
X171355451Y-1105445D01*
X171355445Y-1105451D01*
X171311134Y-1171766D01*
X171311132Y-1171772D01*
X171299501Y-1230241D01*
X171299500Y-1230253D01*
X167509500Y-1230253D01*
X167509499Y-915892D01*
X167509499Y-359962D01*
X167509499Y-359959D01*
X167495074Y-250380D01*
X167438596Y-114031D01*
X167348754Y3054D01*
X167231669Y92896D01*
X167095320Y149374D01*
X166985741Y163800D01*
X165032260Y163799D01*
X164922680Y149374D01*
X164786331Y92896D01*
X164669246Y3054D01*
X164669242Y3049D01*
X164669241Y3048D01*
X164579403Y-114032D01*
X164522927Y-250378D01*
X164522925Y-250382D01*
X164508500Y-359957D01*
X162659500Y-359957D01*
X162659500Y3602355D01*
X163908500Y3602355D01*
X163908500Y3397644D01*
X163940521Y3195470D01*
X164003780Y3000780D01*
X164096712Y2818390D01*
X164096714Y2818386D01*
X164217029Y2652786D01*
X164361786Y2508029D01*
X164527386Y2387714D01*
X164527390Y2387712D01*
X164709780Y2294780D01*
X164904470Y2231521D01*
X165106645Y2199500D01*
X165106648Y2199500D01*
X165311355Y2199500D01*
X165513529Y2231521D01*
X165708219Y2294780D01*
X165890609Y2387712D01*
X165890613Y2387714D01*
X166056213Y2508029D01*
X166056215Y2508031D01*
X166056219Y2508034D01*
X166200966Y2652781D01*
X166200970Y2652786D01*
X166321285Y2818386D01*
X166321287Y2818390D01*
X166414219Y3000780D01*
X166414220Y3000781D01*
X166477477Y3195466D01*
X166477478Y3195470D01*
X166509500Y3397644D01*
X166509500Y3602355D01*
X207908500Y3602355D01*
X207908500Y3397644D01*
X207940521Y3195470D01*
X208003780Y3000780D01*
X208096712Y2818390D01*
X208096714Y2818386D01*
X208217029Y2652786D01*
X208361786Y2508029D01*
X208527386Y2387714D01*
X208527390Y2387712D01*
X208709780Y2294780D01*
X208904470Y2231521D01*
X209106645Y2199500D01*
X209106648Y2199500D01*
X209311355Y2199500D01*
X209513529Y2231521D01*
X209708219Y2294780D01*
X209890609Y2387712D01*
X209890613Y2387714D01*
X210056213Y2508029D01*
X210056215Y2508031D01*
X210056219Y2508034D01*
X210200966Y2652781D01*
X210200970Y2652786D01*
X210321285Y2818386D01*
X210321287Y2818390D01*
X210414219Y3000780D01*
X210414220Y3000781D01*
X210477477Y3195466D01*
X210477478Y3195470D01*
X210509500Y3397644D01*
X210509500Y3602355D01*
X210477478Y3804529D01*
X210477477Y3804530D01*
X210477477Y3804534D01*
X210414220Y3999219D01*
X210321287Y4181610D01*
X210200966Y4347219D01*
X210056219Y4491966D01*
X209890610Y4612287D01*
X209708219Y4705220D01*
X209513534Y4768477D01*
X209513530Y4768477D01*
X209513529Y4768478D01*
X209311355Y4800500D01*
X209311352Y4800500D01*
X209106648Y4800500D01*
X209106645Y4800500D01*
X208904470Y4768478D01*
X208904467Y4768477D01*
X208904466Y4768477D01*
X208709781Y4705220D01*
X208527390Y4612287D01*
X208527386Y4612285D01*
X208361786Y4491970D01*
X208361784Y4491968D01*
X208361781Y4491966D01*
X208217034Y4347219D01*
X208217031Y4347215D01*
X208217029Y4347213D01*
X208096714Y4181613D01*
X208096712Y4181609D01*
X208003780Y3999219D01*
X207940521Y3804529D01*
X207908500Y3602355D01*
X166509500Y3602355D01*
X166477478Y3804529D01*
X166477477Y3804530D01*
X166477477Y3804534D01*
X166414220Y3999219D01*
X166321287Y4181610D01*
X166200966Y4347219D01*
X166056219Y4491966D01*
X165890610Y4612287D01*
X165708219Y4705220D01*
X165513534Y4768477D01*
X165513530Y4768477D01*
X165513529Y4768478D01*
X165311355Y4800500D01*
X165311352Y4800500D01*
X165106648Y4800500D01*
X165106645Y4800500D01*
X164904470Y4768478D01*
X164904467Y4768477D01*
X164904466Y4768477D01*
X164709781Y4705220D01*
X164527390Y4612287D01*
X164527386Y4612285D01*
X164361786Y4491970D01*
X164361784Y4491968D01*
X164361781Y4491966D01*
X164217034Y4347219D01*
X164217031Y4347215D01*
X164217029Y4347213D01*
X164096714Y4181613D01*
X164096712Y4181609D01*
X164003780Y3999219D01*
X163940521Y3804529D01*
X163908500Y3602355D01*
X162659500Y3602355D01*
X162659500Y6255934D01*
X162659806Y6257202D01*
X162659619Y6260794D01*
X162660945Y6287774D01*
X162661897Y6297439D01*
X162664781Y6316883D01*
X162666677Y6326413D01*
X162668075Y6331992D01*
X162671447Y6345456D01*
X162674265Y6354745D01*
X162680879Y6373232D01*
X162680885Y6373248D01*
X162684600Y6382216D01*
X162692994Y6399965D01*
X162697575Y6408535D01*
X162707693Y6425414D01*
X162713081Y6433478D01*
X162724755Y6449223D01*
X162730942Y6456761D01*
X162744143Y6471319D01*
X162750978Y6478155D01*
X162765547Y6491365D01*
X162773077Y6497545D01*
X162788823Y6509220D01*
X162796890Y6514609D01*
X162813757Y6524719D01*
X162822323Y6529299D01*
X162840082Y6537699D01*
X162849052Y6541414D01*
X162867554Y6548034D01*
X162876846Y6550852D01*
X162895885Y6555621D01*
X162905412Y6557516D01*
X162924866Y6560402D01*
X162934530Y6561354D01*
X162961485Y6562680D01*
X162966349Y6562800D01*
X211451651Y6562800D01*
X211456513Y6562680D01*
G37*
%TD.AperFunction*%
%TD*%
M02*
