M48
; DRILL file KiCad 10.0.5 date 2026-09-21T10:22:03
; FORMAT={-:-/ absolute / metric / decimal}
; #@! TF.CreationDate,2026-09-21T10:22:03-04:00
; #@! TF.GenerationSoftware,Kicad,Pcbnew,10.0.5
; #@! TF.FileFunction,Plated,1,2,PTH
FMAT,2
METRIC
; #@! TA.AperFunction,Plated,PTH,ViaDrill
T1C0.300
; #@! TA.AperFunction,Plated,PTH,ComponentDrill
T2C0.600
%
G90
G05
T1
X165.418Y-9.952
X165.418Y-4.237
X165.425Y-6.636
X166.689Y-3.633
X168.0Y-13.837
X168.68Y-12.837
X172.504Y-4.006
X172.923Y-9.95
X173.284Y-5.377
X175.252Y-8.097
X177.343Y-6.466
X178.454Y-11.0
X178.524Y-2.524
X179.965Y-11.0
X180.133Y-9.702
X180.294Y-14.141
X180.294Y-16.667
X181.418Y-13.453
X181.827Y-9.447
X181.971Y-3.299
X181.983Y-14.347
X182.993Y-9.877
X183.745Y-12.133
X183.99Y-14.347
X184.292Y-13.341
X184.605Y-2.675
X185.717Y-15.058
X186.307Y-14.412
X186.461Y0.296
X186.502Y-4.987
X186.504Y-17.7
X186.525Y-10.284
X186.803Y-9.463
X187.193Y0.714
X187.34Y-6.702
X187.549Y-7.926
X188.195Y-13.116
X188.29Y-8.319
X188.459Y0.299
X189.04Y-13.119
X189.137Y-16.061
X189.859Y-12.385
X190.05Y-4.358
X190.757Y-15.961
X191.068Y-13.07
X191.166Y-9.988
X193.115Y-19.352
X193.447Y-9.988
X194.653Y-10.316
X194.735Y-1.773
X195.097Y-11.151
X195.112Y-13.562
X197.717Y-2.287
X197.832Y-6.837
X198.319Y-7.591
X199.164Y-3.194
X199.426Y-10.834
X200.067Y-11.571
X204.179Y-4.187
X204.485Y-3.238
X204.631Y-6.244
X205.52Y-10.636
X205.642Y0.03
X205.897Y-11.589
X205.905Y-15.542
X206.267Y-18.86
X206.525Y-0.72
X206.613Y-9.347
X207.112Y-11.222
X207.669Y-7.893
X208.074Y-5.573
X208.475Y-4.764
X209.004Y-11.823
X211.341Y-2.431
T2
X182.889Y3.863G85X182.889Y4.463
G05
X182.889Y-0.567G85X182.889Y0.533
G05
X191.529Y3.863G85X191.529Y4.463
G05
X191.529Y-0.567G85X191.529Y0.533
G05
M30
