ISO-10303-21;
HEADER;
FILE_DESCRIPTION(('FreeCAD Model'),'2;1');
FILE_NAME('Open CASCADE Shape Model','2026-09-12T18:50:53',('Author'),(
    ''),'Open CASCADE STEP processor 7.8','FreeCAD','Unknown');
FILE_SCHEMA(('AUTOMOTIVE_DESIGN { 1 0 10303 214 1 1 1 1 }'));
ENDSEC;
DATA;
#1 = APPLICATION_PROTOCOL_DEFINITION('international standard',
  'automotive_design',2000,#2);
#2 = APPLICATION_CONTEXT(
  'core data for automotive mechanical design processes');
#3 = SHAPE_DEFINITION_REPRESENTATION(#4,#10);
#4 = PRODUCT_DEFINITION_SHAPE('','',#5);
#5 = PRODUCT_DEFINITION('design','',#6,#9);
#6 = PRODUCT_DEFINITION_FORMATION('','',#7);
#7 = PRODUCT('Left Mill-Max spring connector',
  'Left Mill-Max spring connector','',(#8));
#8 = PRODUCT_CONTEXT('',#2,'mechanical');
#9 = PRODUCT_DEFINITION_CONTEXT('part definition',#2,'design');
#10 = SHAPE_REPRESENTATION('',(#11,#15,#165,#218,#271,#309,#362,#415,
    #453,#506,#559,#597,#650,#703,#741,#794,#847,#885,#938,#991,#1029,
    #1082,#1135,#1173,#1226,#1279,#1317,#1370,#1423,#1461,#1514,#1567,
    #1605,#1658,#1711,#1749,#1802,#1855),#1893);
#11 = AXIS2_PLACEMENT_3D('',#12,#13,#14);
#12 = CARTESIAN_POINT('',(0.,0.,0.));
#13 = DIRECTION('',(0.,0.,1.));
#14 = DIRECTION('',(1.,0.,-0.));
#15 = MANIFOLD_SOLID_BREP('',#16);
#16 = CLOSED_SHELL('',(#17,#57,#97,#119,#141,#153));
#17 = ADVANCED_FACE('',(#18),#52,.F.);
#18 = FACE_BOUND('',#19,.F.);
#19 = EDGE_LOOP('',(#20,#30,#38,#46));
#20 = ORIENTED_EDGE('',*,*,#21,.F.);
#21 = EDGE_CURVE('',#22,#24,#26,.T.);
#22 = VERTEX_POINT('',#23);
#23 = CARTESIAN_POINT('',(-47.30124039809,-2.95,2.220926304319));
#24 = VERTEX_POINT('',#25);
#25 = CARTESIAN_POINT('',(-47.35880994996,-2.95,3.319418792549));
#26 = LINE('',#27,#28);
#27 = CARTESIAN_POINT('',(-47.30124039809,-2.95,2.220926304319));
#28 = VECTOR('',#29,1.);
#29 = DIRECTION('',(-5.233595624294E-02,0.,0.998629534755));
#30 = ORIENTED_EDGE('',*,*,#31,.T.);
#31 = EDGE_CURVE('',#22,#32,#34,.T.);
#32 = VERTEX_POINT('',#33);
#33 = CARTESIAN_POINT('',(-47.30124039809,-1.05,2.220926304319));
#34 = LINE('',#35,#36);
#35 = CARTESIAN_POINT('',(-47.30124039809,-2.95,2.220926304319));
#36 = VECTOR('',#37,1.);
#37 = DIRECTION('',(0.,1.,0.));
#38 = ORIENTED_EDGE('',*,*,#39,.T.);
#39 = EDGE_CURVE('',#32,#40,#42,.T.);
#40 = VERTEX_POINT('',#41);
#41 = CARTESIAN_POINT('',(-47.35880994996,-1.05,3.319418792549));
#42 = LINE('',#43,#44);
#43 = CARTESIAN_POINT('',(-47.30124039809,-1.05,2.220926304319));
#44 = VECTOR('',#45,1.);
#45 = DIRECTION('',(-5.233595624294E-02,0.,0.998629534755));
#46 = ORIENTED_EDGE('',*,*,#47,.F.);
#47 = EDGE_CURVE('',#24,#40,#48,.T.);
#48 = LINE('',#49,#50);
#49 = CARTESIAN_POINT('',(-47.35880994996,-2.95,3.319418792549));
#50 = VECTOR('',#51,1.);
#51 = DIRECTION('',(0.,1.,0.));
#52 = PLANE('',#53);
#53 = AXIS2_PLACEMENT_3D('',#54,#55,#56);
#54 = CARTESIAN_POINT('',(-47.30124039809,-2.95,2.220926304319));
#55 = DIRECTION('',(0.998629534755,0.,5.233595624294E-02));
#56 = DIRECTION('',(-5.233595624294E-02,0.,0.998629534755));
#57 = ADVANCED_FACE('',(#58),#92,.T.);
#58 = FACE_BOUND('',#59,.T.);
#59 = EDGE_LOOP('',(#60,#70,#78,#86));
#60 = ORIENTED_EDGE('',*,*,#61,.F.);
#61 = EDGE_CURVE('',#62,#64,#66,.T.);
#62 = VERTEX_POINT('',#63);
#63 = CARTESIAN_POINT('',(-32.97090657436,-2.95,2.971947276405));
#64 = VERTEX_POINT('',#65);
#65 = CARTESIAN_POINT('',(-33.02847612623,-2.95,4.070439764635));
#66 = LINE('',#67,#68);
#67 = CARTESIAN_POINT('',(-32.97090657436,-2.95,2.971947276405));
#68 = VECTOR('',#69,1.);
#69 = DIRECTION('',(-5.233595624294E-02,0.,0.998629534755));
#70 = ORIENTED_EDGE('',*,*,#71,.T.);
#71 = EDGE_CURVE('',#62,#72,#74,.T.);
#72 = VERTEX_POINT('',#73);
#73 = CARTESIAN_POINT('',(-32.97090657436,-1.05,2.971947276405));
#74 = LINE('',#75,#76);
#75 = CARTESIAN_POINT('',(-32.97090657436,-2.95,2.971947276405));
#76 = VECTOR('',#77,1.);
#77 = DIRECTION('',(0.,1.,0.));
#78 = ORIENTED_EDGE('',*,*,#79,.T.);
#79 = EDGE_CURVE('',#72,#80,#82,.T.);
#80 = VERTEX_POINT('',#81);
#81 = CARTESIAN_POINT('',(-33.02847612623,-1.05,4.070439764635));
#82 = LINE('',#83,#84);
#83 = CARTESIAN_POINT('',(-32.97090657436,-1.05,2.971947276405));
#84 = VECTOR('',#85,1.);
#85 = DIRECTION('',(-5.233595624294E-02,0.,0.998629534755));
#86 = ORIENTED_EDGE('',*,*,#87,.F.);
#87 = EDGE_CURVE('',#64,#80,#88,.T.);
#88 = LINE('',#89,#90);
#89 = CARTESIAN_POINT('',(-33.02847612623,-2.95,4.070439764635));
#90 = VECTOR('',#91,1.);
#91 = DIRECTION('',(0.,1.,0.));
#92 = PLANE('',#93);
#93 = AXIS2_PLACEMENT_3D('',#94,#95,#96);
#94 = CARTESIAN_POINT('',(-32.97090657436,-2.95,2.971947276405));
#95 = DIRECTION('',(0.998629534755,0.,5.233595624294E-02));
#96 = DIRECTION('',(-5.233595624294E-02,0.,0.998629534755));
#97 = ADVANCED_FACE('',(#98),#114,.F.);
#98 = FACE_BOUND('',#99,.F.);
#99 = EDGE_LOOP('',(#100,#106,#107,#113));
#100 = ORIENTED_EDGE('',*,*,#101,.F.);
#101 = EDGE_CURVE('',#22,#62,#102,.T.);
#102 = LINE('',#103,#104);
#103 = CARTESIAN_POINT('',(-47.30124039809,-2.95,2.220926304319));
#104 = VECTOR('',#105,1.);
#105 = DIRECTION('',(0.998629534755,0.,5.233595624294E-02));
#106 = ORIENTED_EDGE('',*,*,#21,.T.);
#107 = ORIENTED_EDGE('',*,*,#108,.T.);
#108 = EDGE_CURVE('',#24,#64,#109,.T.);
#109 = LINE('',#110,#111);
#110 = CARTESIAN_POINT('',(-47.35880994996,-2.95,3.319418792549));
#111 = VECTOR('',#112,1.);
#112 = DIRECTION('',(0.998629534755,0.,5.233595624294E-02));
#113 = ORIENTED_EDGE('',*,*,#61,.F.);
#114 = PLANE('',#115);
#115 = AXIS2_PLACEMENT_3D('',#116,#117,#118);
#116 = CARTESIAN_POINT('',(-47.30124039809,-2.95,2.220926304319));
#117 = DIRECTION('',(0.,1.,0.));
#118 = DIRECTION('',(-5.233595624294E-02,0.,0.998629534755));
#119 = ADVANCED_FACE('',(#120),#136,.T.);
#120 = FACE_BOUND('',#121,.T.);
#121 = EDGE_LOOP('',(#122,#128,#129,#135));
#122 = ORIENTED_EDGE('',*,*,#123,.F.);
#123 = EDGE_CURVE('',#32,#72,#124,.T.);
#124 = LINE('',#125,#126);
#125 = CARTESIAN_POINT('',(-47.30124039809,-1.05,2.220926304319));
#126 = VECTOR('',#127,1.);
#127 = DIRECTION('',(0.998629534755,0.,5.233595624294E-02));
#128 = ORIENTED_EDGE('',*,*,#39,.T.);
#129 = ORIENTED_EDGE('',*,*,#130,.T.);
#130 = EDGE_CURVE('',#40,#80,#131,.T.);
#131 = LINE('',#132,#133);
#132 = CARTESIAN_POINT('',(-47.35880994996,-1.05,3.319418792549));
#133 = VECTOR('',#134,1.);
#134 = DIRECTION('',(0.998629534755,0.,5.233595624294E-02));
#135 = ORIENTED_EDGE('',*,*,#79,.F.);
#136 = PLANE('',#137);
#137 = AXIS2_PLACEMENT_3D('',#138,#139,#140);
#138 = CARTESIAN_POINT('',(-47.30124039809,-1.05,2.220926304319));
#139 = DIRECTION('',(0.,1.,0.));
#140 = DIRECTION('',(-5.233595624294E-02,0.,0.998629534755));
#141 = ADVANCED_FACE('',(#142),#148,.F.);
#142 = FACE_BOUND('',#143,.F.);
#143 = EDGE_LOOP('',(#144,#145,#146,#147));
#144 = ORIENTED_EDGE('',*,*,#31,.F.);
#145 = ORIENTED_EDGE('',*,*,#101,.T.);
#146 = ORIENTED_EDGE('',*,*,#71,.T.);
#147 = ORIENTED_EDGE('',*,*,#123,.F.);
#148 = PLANE('',#149);
#149 = AXIS2_PLACEMENT_3D('',#150,#151,#152);
#150 = CARTESIAN_POINT('',(-47.30124039809,-2.95,2.220926304319));
#151 = DIRECTION('',(-5.233595624294E-02,0.,0.998629534755));
#152 = DIRECTION('',(0.998629534755,0.,5.233595624294E-02));
#153 = ADVANCED_FACE('',(#154),#160,.T.);
#154 = FACE_BOUND('',#155,.T.);
#155 = EDGE_LOOP('',(#156,#157,#158,#159));
#156 = ORIENTED_EDGE('',*,*,#47,.F.);
#157 = ORIENTED_EDGE('',*,*,#108,.T.);
#158 = ORIENTED_EDGE('',*,*,#87,.T.);
#159 = ORIENTED_EDGE('',*,*,#130,.F.);
#160 = PLANE('',#161);
#161 = AXIS2_PLACEMENT_3D('',#162,#163,#164);
#162 = CARTESIAN_POINT('',(-47.35880994996,-2.95,3.319418792549));
#163 = DIRECTION('',(-5.233595624294E-02,0.,0.998629534755));
#164 = DIRECTION('',(0.998629534755,0.,5.233595624294E-02));
#165 = MANIFOLD_SOLID_BREP('',#166);
#166 = CLOSED_SHELL('',(#167,#200,#209));
#167 = ADVANCED_FACE('',(#168),#195,.T.);
#168 = FACE_BOUND('',#169,.T.);
#169 = EDGE_LOOP('',(#170,#179,#187,#194));
#170 = ORIENTED_EDGE('',*,*,#171,.F.);
#171 = EDGE_CURVE('',#172,#172,#174,.T.);
#172 = VERTEX_POINT('',#173);
#173 = CARTESIAN_POINT('',(-46.82953629654,-2.,3.347156849358));
#174 = CIRCLE('',#175,0.34);
#175 = AXIS2_PLACEMENT_3D('',#176,#177,#178);
#176 = CARTESIAN_POINT('',(-47.16907033836,-2.,3.329362624235));
#177 = DIRECTION('',(-5.233595624294E-02,0.,0.998629534755));
#178 = DIRECTION('',(0.998629534755,0.,5.233595624294E-02));
#179 = ORIENTED_EDGE('',*,*,#180,.F.);
#180 = EDGE_CURVE('',#181,#172,#183,.T.);
#181 = VERTEX_POINT('',#182);
#182 = CARTESIAN_POINT('',(-46.77196674467,-2.,2.248664361128));
#183 = LINE('',#184,#185);
#184 = CARTESIAN_POINT('',(-46.77196674467,-2.,2.248664361128));
#185 = VECTOR('',#186,1.);
#186 = DIRECTION('',(-5.233595624294E-02,0.,0.998629534755));
#187 = ORIENTED_EDGE('',*,*,#188,.T.);
#188 = EDGE_CURVE('',#181,#181,#189,.T.);
#189 = CIRCLE('',#190,0.34);
#190 = AXIS2_PLACEMENT_3D('',#191,#192,#193);
#191 = CARTESIAN_POINT('',(-47.11150078649,-2.,2.230870136005));
#192 = DIRECTION('',(-5.233595624294E-02,0.,0.998629534755));
#193 = DIRECTION('',(0.998629534755,0.,5.233595624294E-02));
#194 = ORIENTED_EDGE('',*,*,#180,.T.);
#195 = CYLINDRICAL_SURFACE('',#196,0.34);
#196 = AXIS2_PLACEMENT_3D('',#197,#198,#199);
#197 = CARTESIAN_POINT('',(-47.11150078649,-2.,2.230870136005));
#198 = DIRECTION('',(-5.233595624294E-02,0.,0.998629534755));
#199 = DIRECTION('',(0.998629534755,0.,5.233595624294E-02));
#200 = ADVANCED_FACE('',(#201),#204,.T.);
#201 = FACE_BOUND('',#202,.T.);
#202 = EDGE_LOOP('',(#203));
#203 = ORIENTED_EDGE('',*,*,#171,.T.);
#204 = PLANE('',#205);
#205 = AXIS2_PLACEMENT_3D('',#206,#207,#208);
#206 = CARTESIAN_POINT('',(-47.16907033836,-2.,3.329362624235));
#207 = DIRECTION('',(-5.233595624294E-02,0.,0.998629534755));
#208 = DIRECTION('',(0.998629534755,0.,5.233595624294E-02));
#209 = ADVANCED_FACE('',(#210),#213,.F.);
#210 = FACE_BOUND('',#211,.T.);
#211 = EDGE_LOOP('',(#212));
#212 = ORIENTED_EDGE('',*,*,#188,.F.);
#213 = PLANE('',#214);
#214 = AXIS2_PLACEMENT_3D('',#215,#216,#217);
#215 = CARTESIAN_POINT('',(-47.11150078649,-2.,2.230870136005));
#216 = DIRECTION('',(-5.233595624294E-02,0.,0.998629534755));
#217 = DIRECTION('',(0.998629534755,0.,5.233595624294E-02));
#218 = MANIFOLD_SOLID_BREP('',#219);
#219 = CLOSED_SHELL('',(#220,#253,#262));
#220 = ADVANCED_FACE('',(#221),#248,.T.);
#221 = FACE_BOUND('',#222,.T.);
#222 = EDGE_LOOP('',(#223,#232,#240,#247));
#223 = ORIENTED_EDGE('',*,*,#224,.F.);
#224 = EDGE_CURVE('',#225,#225,#227,.T.);
#225 = VERTEX_POINT('',#226);
#226 = CARTESIAN_POINT('',(-47.07018297231,-2.,6.028236702223));
#227 = CIRCLE('',#228,0.24);
#228 = AXIS2_PLACEMENT_3D('',#229,#230,#231);
#229 = CARTESIAN_POINT('',(-47.30985406065,-2.,6.015676072725));
#230 = DIRECTION('',(-5.233595624294E-02,0.,0.998629534755));
#231 = DIRECTION('',(0.998629534755,0.,5.233595624294E-02));
#232 = ORIENTED_EDGE('',*,*,#233,.F.);
#233 = EDGE_CURVE('',#234,#225,#236,.T.);
#234 = VERTEX_POINT('',#235);
#235 = CARTESIAN_POINT('',(-46.90061447408,-2.,2.792677009618));
#236 = LINE('',#237,#238);
#237 = CARTESIAN_POINT('',(-46.90061447408,-2.,2.792677009618));
#238 = VECTOR('',#239,1.);
#239 = DIRECTION('',(-5.233595624294E-02,0.,0.998629534755));
#240 = ORIENTED_EDGE('',*,*,#241,.T.);
#241 = EDGE_CURVE('',#234,#234,#242,.T.);
#242 = CIRCLE('',#243,0.24);
#243 = AXIS2_PLACEMENT_3D('',#244,#245,#246);
#244 = CARTESIAN_POINT('',(-47.14028556242,-2.,2.78011638012));
#245 = DIRECTION('',(-5.233595624294E-02,0.,0.998629534755));
#246 = DIRECTION('',(0.998629534755,0.,5.233595624294E-02));
#247 = ORIENTED_EDGE('',*,*,#233,.T.);
#248 = CYLINDRICAL_SURFACE('',#249,0.24);
#249 = AXIS2_PLACEMENT_3D('',#250,#251,#252);
#250 = CARTESIAN_POINT('',(-47.14028556242,-2.,2.78011638012));
#251 = DIRECTION('',(-5.233595624294E-02,0.,0.998629534755));
#252 = DIRECTION('',(0.998629534755,0.,5.233595624294E-02));
#253 = ADVANCED_FACE('',(#254),#257,.T.);
#254 = FACE_BOUND('',#255,.T.);
#255 = EDGE_LOOP('',(#256));
#256 = ORIENTED_EDGE('',*,*,#224,.T.);
#257 = PLANE('',#258);
#258 = AXIS2_PLACEMENT_3D('',#259,#260,#261);
#259 = CARTESIAN_POINT('',(-47.30985406065,-2.,6.015676072725));
#260 = DIRECTION('',(-5.233595624294E-02,0.,0.998629534755));
#261 = DIRECTION('',(0.998629534755,0.,5.233595624294E-02));
#262 = ADVANCED_FACE('',(#263),#266,.F.);
#263 = FACE_BOUND('',#264,.T.);
#264 = EDGE_LOOP('',(#265));
#265 = ORIENTED_EDGE('',*,*,#241,.F.);
#266 = PLANE('',#267);
#267 = AXIS2_PLACEMENT_3D('',#268,#269,#270);
#268 = CARTESIAN_POINT('',(-47.14028556242,-2.,2.78011638012));
#269 = DIRECTION('',(-5.233595624294E-02,0.,0.998629534755));
#270 = DIRECTION('',(0.998629534755,0.,5.233595624294E-02));
#271 = MANIFOLD_SOLID_BREP('',#272);
#272 = CLOSED_SHELL('',(#273,#300));
#273 = ADVANCED_FACE('',(#274),#295,.T.);
#274 = FACE_BOUND('',#275,.T.);
#275 = EDGE_LOOP('',(#276,#287,#294));
#276 = ORIENTED_EDGE('',*,*,#277,.F.);
#277 = EDGE_CURVE('',#278,#280,#282,.T.);
#278 = VERTEX_POINT('',#279);
#279 = CARTESIAN_POINT('',(-47.05762234281,-2.,5.788565613882));
#280 = VERTEX_POINT('',#281);
#281 = CARTESIAN_POINT('',(-47.30985406065,-2.,6.015676072725));
#282 = CIRCLE('',#283,0.24);
#283 = AXIS2_PLACEMENT_3D('',#284,#285,#286);
#284 = CARTESIAN_POINT('',(-47.29729343115,-2.,5.776004984384));
#285 = DIRECTION('',(-2.445936926542E-16,-1.,-1.281861225865E-17));
#286 = DIRECTION('',(0.998629534755,-2.449293598295E-16,
    5.233595624294E-02));
#287 = ORIENTED_EDGE('',*,*,#288,.T.);
#288 = EDGE_CURVE('',#278,#278,#289,.T.);
#289 = CIRCLE('',#290,0.24);
#290 = AXIS2_PLACEMENT_3D('',#291,#292,#293);
#291 = CARTESIAN_POINT('',(-47.29729343115,-2.,5.776004984384));
#292 = DIRECTION('',(-5.233595624294E-02,0.,0.998629534755));
#293 = DIRECTION('',(0.998629534755,0.,5.233595624294E-02));
#294 = ORIENTED_EDGE('',*,*,#277,.T.);
#295 = SPHERICAL_SURFACE('',#296,0.24);
#296 = AXIS2_PLACEMENT_3D('',#297,#298,#299);
#297 = CARTESIAN_POINT('',(-47.29729343115,-2.,5.776004984384));
#298 = DIRECTION('',(-5.233595624294E-02,0.,0.998629534755));
#299 = DIRECTION('',(0.998629534755,0.,5.233595624294E-02));
#300 = ADVANCED_FACE('',(#301),#304,.F.);
#301 = FACE_BOUND('',#302,.T.);
#302 = EDGE_LOOP('',(#303));
#303 = ORIENTED_EDGE('',*,*,#288,.F.);
#304 = PLANE('',#305);
#305 = AXIS2_PLACEMENT_3D('',#306,#307,#308);
#306 = CARTESIAN_POINT('',(-47.29729343115,-2.,5.776004984384));
#307 = DIRECTION('',(-5.233595624294E-02,0.,0.998629534755));
#308 = DIRECTION('',(0.998629534755,0.,5.233595624294E-02));
#309 = MANIFOLD_SOLID_BREP('',#310);
#310 = CLOSED_SHELL('',(#311,#344,#353));
#311 = ADVANCED_FACE('',(#312),#339,.T.);
#312 = FACE_BOUND('',#313,.T.);
#313 = EDGE_LOOP('',(#314,#323,#331,#338));
#314 = ORIENTED_EDGE('',*,*,#315,.F.);
#315 = EDGE_CURVE('',#316,#316,#318,.T.);
#316 = VERTEX_POINT('',#317);
#317 = CARTESIAN_POINT('',(-45.5612767874,-2.,3.413623513786));
#318 = CIRCLE('',#319,0.34);
#319 = AXIS2_PLACEMENT_3D('',#320,#321,#322);
#320 = CARTESIAN_POINT('',(-45.90081082922,-2.,3.395829288663));
#321 = DIRECTION('',(-5.233595624294E-02,0.,0.998629534755));
#322 = DIRECTION('',(0.998629534755,0.,5.233595624294E-02));
#323 = ORIENTED_EDGE('',*,*,#324,.F.);
#324 = EDGE_CURVE('',#325,#316,#327,.T.);
#325 = VERTEX_POINT('',#326);
#326 = CARTESIAN_POINT('',(-45.50370723553,-2.,2.315131025556));
#327 = LINE('',#328,#329);
#328 = CARTESIAN_POINT('',(-45.50370723553,-2.,2.315131025556));
#329 = VECTOR('',#330,1.);
#330 = DIRECTION('',(-5.233595624294E-02,0.,0.998629534755));
#331 = ORIENTED_EDGE('',*,*,#332,.T.);
#332 = EDGE_CURVE('',#325,#325,#333,.T.);
#333 = CIRCLE('',#334,0.34);
#334 = AXIS2_PLACEMENT_3D('',#335,#336,#337);
#335 = CARTESIAN_POINT('',(-45.84324127735,-2.,2.297336800433));
#336 = DIRECTION('',(-5.233595624294E-02,0.,0.998629534755));
#337 = DIRECTION('',(0.998629534755,0.,5.233595624294E-02));
#338 = ORIENTED_EDGE('',*,*,#324,.T.);
#339 = CYLINDRICAL_SURFACE('',#340,0.34);
#340 = AXIS2_PLACEMENT_3D('',#341,#342,#343);
#341 = CARTESIAN_POINT('',(-45.84324127735,-2.,2.297336800433));
#342 = DIRECTION('',(-5.233595624294E-02,0.,0.998629534755));
#343 = DIRECTION('',(0.998629534755,0.,5.233595624294E-02));
#344 = ADVANCED_FACE('',(#345),#348,.T.);
#345 = FACE_BOUND('',#346,.T.);
#346 = EDGE_LOOP('',(#347));
#347 = ORIENTED_EDGE('',*,*,#315,.T.);
#348 = PLANE('',#349);
#349 = AXIS2_PLACEMENT_3D('',#350,#351,#352);
#350 = CARTESIAN_POINT('',(-45.90081082922,-2.,3.395829288663));
#351 = DIRECTION('',(-5.233595624294E-02,0.,0.998629534755));
#352 = DIRECTION('',(0.998629534755,0.,5.233595624294E-02));
#353 = ADVANCED_FACE('',(#354),#357,.F.);
#354 = FACE_BOUND('',#355,.T.);
#355 = EDGE_LOOP('',(#356));
#356 = ORIENTED_EDGE('',*,*,#332,.F.);
#357 = PLANE('',#358);
#358 = AXIS2_PLACEMENT_3D('',#359,#360,#361);
#359 = CARTESIAN_POINT('',(-45.84324127735,-2.,2.297336800433));
#360 = DIRECTION('',(-5.233595624294E-02,0.,0.998629534755));
#361 = DIRECTION('',(0.998629534755,0.,5.233595624294E-02));
#362 = MANIFOLD_SOLID_BREP('',#363);
#363 = CLOSED_SHELL('',(#364,#397,#406));
#364 = ADVANCED_FACE('',(#365),#392,.T.);
#365 = FACE_BOUND('',#366,.T.);
#366 = EDGE_LOOP('',(#367,#376,#384,#391));
#367 = ORIENTED_EDGE('',*,*,#368,.F.);
#368 = EDGE_CURVE('',#369,#369,#371,.T.);
#369 = VERTEX_POINT('',#370);
#370 = CARTESIAN_POINT('',(-45.80192346317,-2.,6.094703366652));
#371 = CIRCLE('',#372,0.24);
#372 = AXIS2_PLACEMENT_3D('',#373,#374,#375);
#373 = CARTESIAN_POINT('',(-46.04159455151,-2.,6.082142737153));
#374 = DIRECTION('',(-5.233595624294E-02,0.,0.998629534755));
#375 = DIRECTION('',(0.998629534755,0.,5.233595624294E-02));
#376 = ORIENTED_EDGE('',*,*,#377,.F.);
#377 = EDGE_CURVE('',#378,#369,#380,.T.);
#378 = VERTEX_POINT('',#379);
#379 = CARTESIAN_POINT('',(-45.63235496494,-2.,2.859143674047));
#380 = LINE('',#381,#382);
#381 = CARTESIAN_POINT('',(-45.63235496494,-2.,2.859143674047));
#382 = VECTOR('',#383,1.);
#383 = DIRECTION('',(-5.233595624294E-02,0.,0.998629534755));
#384 = ORIENTED_EDGE('',*,*,#385,.T.);
#385 = EDGE_CURVE('',#378,#378,#386,.T.);
#386 = CIRCLE('',#387,0.24);
#387 = AXIS2_PLACEMENT_3D('',#388,#389,#390);
#388 = CARTESIAN_POINT('',(-45.87202605328,-2.,2.846583044548));
#389 = DIRECTION('',(-5.233595624294E-02,0.,0.998629534755));
#390 = DIRECTION('',(0.998629534755,0.,5.233595624294E-02));
#391 = ORIENTED_EDGE('',*,*,#377,.T.);
#392 = CYLINDRICAL_SURFACE('',#393,0.24);
#393 = AXIS2_PLACEMENT_3D('',#394,#395,#396);
#394 = CARTESIAN_POINT('',(-45.87202605328,-2.,2.846583044548));
#395 = DIRECTION('',(-5.233595624294E-02,0.,0.998629534755));
#396 = DIRECTION('',(0.998629534755,0.,5.233595624294E-02));
#397 = ADVANCED_FACE('',(#398),#401,.T.);
#398 = FACE_BOUND('',#399,.T.);
#399 = EDGE_LOOP('',(#400));
#400 = ORIENTED_EDGE('',*,*,#368,.T.);
#401 = PLANE('',#402);
#402 = AXIS2_PLACEMENT_3D('',#403,#404,#405);
#403 = CARTESIAN_POINT('',(-46.04159455151,-2.,6.082142737153));
#404 = DIRECTION('',(-5.233595624294E-02,0.,0.998629534755));
#405 = DIRECTION('',(0.998629534755,0.,5.233595624294E-02));
#406 = ADVANCED_FACE('',(#407),#410,.F.);
#407 = FACE_BOUND('',#408,.T.);
#408 = EDGE_LOOP('',(#409));
#409 = ORIENTED_EDGE('',*,*,#385,.F.);
#410 = PLANE('',#411);
#411 = AXIS2_PLACEMENT_3D('',#412,#413,#414);
#412 = CARTESIAN_POINT('',(-45.87202605328,-2.,2.846583044548));
#413 = DIRECTION('',(-5.233595624294E-02,0.,0.998629534755));
#414 = DIRECTION('',(0.998629534755,0.,5.233595624294E-02));
#415 = MANIFOLD_SOLID_BREP('',#416);
#416 = CLOSED_SHELL('',(#417,#444));
#417 = ADVANCED_FACE('',(#418),#439,.T.);
#418 = FACE_BOUND('',#419,.T.);
#419 = EDGE_LOOP('',(#420,#431,#438));
#420 = ORIENTED_EDGE('',*,*,#421,.F.);
#421 = EDGE_CURVE('',#422,#424,#426,.T.);
#422 = VERTEX_POINT('',#423);
#423 = CARTESIAN_POINT('',(-45.78936283367,-2.,5.855032278311));
#424 = VERTEX_POINT('',#425);
#425 = CARTESIAN_POINT('',(-46.04159455151,-2.,6.082142737153));
#426 = CIRCLE('',#427,0.24);
#427 = AXIS2_PLACEMENT_3D('',#428,#429,#430);
#428 = CARTESIAN_POINT('',(-46.02903392201,-2.,5.842471648812));
#429 = DIRECTION('',(-2.445936926542E-16,-1.,-1.281861225865E-17));
#430 = DIRECTION('',(0.998629534755,-2.449293598295E-16,
    5.233595624294E-02));
#431 = ORIENTED_EDGE('',*,*,#432,.T.);
#432 = EDGE_CURVE('',#422,#422,#433,.T.);
#433 = CIRCLE('',#434,0.24);
#434 = AXIS2_PLACEMENT_3D('',#435,#436,#437);
#435 = CARTESIAN_POINT('',(-46.02903392201,-2.,5.842471648812));
#436 = DIRECTION('',(-5.233595624294E-02,0.,0.998629534755));
#437 = DIRECTION('',(0.998629534755,0.,5.233595624294E-02));
#438 = ORIENTED_EDGE('',*,*,#421,.T.);
#439 = SPHERICAL_SURFACE('',#440,0.24);
#440 = AXIS2_PLACEMENT_3D('',#441,#442,#443);
#441 = CARTESIAN_POINT('',(-46.02903392201,-2.,5.842471648812));
#442 = DIRECTION('',(-5.233595624294E-02,0.,0.998629534755));
#443 = DIRECTION('',(0.998629534755,0.,5.233595624294E-02));
#444 = ADVANCED_FACE('',(#445),#448,.F.);
#445 = FACE_BOUND('',#446,.T.);
#446 = EDGE_LOOP('',(#447));
#447 = ORIENTED_EDGE('',*,*,#432,.F.);
#448 = PLANE('',#449);
#449 = AXIS2_PLACEMENT_3D('',#450,#451,#452);
#450 = CARTESIAN_POINT('',(-46.02903392201,-2.,5.842471648812));
#451 = DIRECTION('',(-5.233595624294E-02,0.,0.998629534755));
#452 = DIRECTION('',(0.998629534755,0.,5.233595624294E-02));
#453 = MANIFOLD_SOLID_BREP('',#454);
#454 = CLOSED_SHELL('',(#455,#488,#497));
#455 = ADVANCED_FACE('',(#456),#483,.T.);
#456 = FACE_BOUND('',#457,.T.);
#457 = EDGE_LOOP('',(#458,#467,#475,#482));
#458 = ORIENTED_EDGE('',*,*,#459,.F.);
#459 = EDGE_CURVE('',#460,#460,#462,.T.);
#460 = VERTEX_POINT('',#461);
#461 = CARTESIAN_POINT('',(-44.29301727826,-2.,3.480090178215));
#462 = CIRCLE('',#463,0.34);
#463 = AXIS2_PLACEMENT_3D('',#464,#465,#466);
#464 = CARTESIAN_POINT('',(-44.63255132008,-2.,3.462295953092));
#465 = DIRECTION('',(-5.233595624294E-02,0.,0.998629534755));
#466 = DIRECTION('',(0.998629534755,0.,5.233595624294E-02));
#467 = ORIENTED_EDGE('',*,*,#468,.F.);
#468 = EDGE_CURVE('',#469,#460,#471,.T.);
#469 = VERTEX_POINT('',#470);
#470 = CARTESIAN_POINT('',(-44.23544772639,-2.,2.381597689985));
#471 = LINE('',#472,#473);
#472 = CARTESIAN_POINT('',(-44.23544772639,-2.,2.381597689985));
#473 = VECTOR('',#474,1.);
#474 = DIRECTION('',(-5.233595624294E-02,0.,0.998629534755));
#475 = ORIENTED_EDGE('',*,*,#476,.T.);
#476 = EDGE_CURVE('',#469,#469,#477,.T.);
#477 = CIRCLE('',#478,0.34);
#478 = AXIS2_PLACEMENT_3D('',#479,#480,#481);
#479 = CARTESIAN_POINT('',(-44.57498176821,-2.,2.363803464862));
#480 = DIRECTION('',(-5.233595624294E-02,0.,0.998629534755));
#481 = DIRECTION('',(0.998629534755,0.,5.233595624294E-02));
#482 = ORIENTED_EDGE('',*,*,#468,.T.);
#483 = CYLINDRICAL_SURFACE('',#484,0.34);
#484 = AXIS2_PLACEMENT_3D('',#485,#486,#487);
#485 = CARTESIAN_POINT('',(-44.57498176821,-2.,2.363803464862));
#486 = DIRECTION('',(-5.233595624294E-02,0.,0.998629534755));
#487 = DIRECTION('',(0.998629534755,0.,5.233595624294E-02));
#488 = ADVANCED_FACE('',(#489),#492,.T.);
#489 = FACE_BOUND('',#490,.T.);
#490 = EDGE_LOOP('',(#491));
#491 = ORIENTED_EDGE('',*,*,#459,.T.);
#492 = PLANE('',#493);
#493 = AXIS2_PLACEMENT_3D('',#494,#495,#496);
#494 = CARTESIAN_POINT('',(-44.63255132008,-2.,3.462295953092));
#495 = DIRECTION('',(-5.233595624294E-02,0.,0.998629534755));
#496 = DIRECTION('',(0.998629534755,0.,5.233595624294E-02));
#497 = ADVANCED_FACE('',(#498),#501,.F.);
#498 = FACE_BOUND('',#499,.T.);
#499 = EDGE_LOOP('',(#500));
#500 = ORIENTED_EDGE('',*,*,#476,.F.);
#501 = PLANE('',#502);
#502 = AXIS2_PLACEMENT_3D('',#503,#504,#505);
#503 = CARTESIAN_POINT('',(-44.57498176821,-2.,2.363803464862));
#504 = DIRECTION('',(-5.233595624294E-02,0.,0.998629534755));
#505 = DIRECTION('',(0.998629534755,0.,5.233595624294E-02));
#506 = MANIFOLD_SOLID_BREP('',#507);
#507 = CLOSED_SHELL('',(#508,#541,#550));
#508 = ADVANCED_FACE('',(#509),#536,.T.);
#509 = FACE_BOUND('',#510,.T.);
#510 = EDGE_LOOP('',(#511,#520,#528,#535));
#511 = ORIENTED_EDGE('',*,*,#512,.F.);
#512 = EDGE_CURVE('',#513,#513,#515,.T.);
#513 = VERTEX_POINT('',#514);
#514 = CARTESIAN_POINT('',(-44.53366395403,-2.,6.16117003108));
#515 = CIRCLE('',#516,0.24);
#516 = AXIS2_PLACEMENT_3D('',#517,#518,#519);
#517 = CARTESIAN_POINT('',(-44.77333504237,-2.,6.148609401582));
#518 = DIRECTION('',(-5.233595624294E-02,0.,0.998629534755));
#519 = DIRECTION('',(0.998629534755,0.,5.233595624294E-02));
#520 = ORIENTED_EDGE('',*,*,#521,.F.);
#521 = EDGE_CURVE('',#522,#513,#524,.T.);
#522 = VERTEX_POINT('',#523);
#523 = CARTESIAN_POINT('',(-44.3640954558,-2.,2.925610338475));
#524 = LINE('',#525,#526);
#525 = CARTESIAN_POINT('',(-44.3640954558,-2.,2.925610338475));
#526 = VECTOR('',#527,1.);
#527 = DIRECTION('',(-5.233595624294E-02,0.,0.998629534755));
#528 = ORIENTED_EDGE('',*,*,#529,.T.);
#529 = EDGE_CURVE('',#522,#522,#530,.T.);
#530 = CIRCLE('',#531,0.24);
#531 = AXIS2_PLACEMENT_3D('',#532,#533,#534);
#532 = CARTESIAN_POINT('',(-44.60376654414,-2.,2.913049708977));
#533 = DIRECTION('',(-5.233595624294E-02,0.,0.998629534755));
#534 = DIRECTION('',(0.998629534755,0.,5.233595624294E-02));
#535 = ORIENTED_EDGE('',*,*,#521,.T.);
#536 = CYLINDRICAL_SURFACE('',#537,0.24);
#537 = AXIS2_PLACEMENT_3D('',#538,#539,#540);
#538 = CARTESIAN_POINT('',(-44.60376654414,-2.,2.913049708977));
#539 = DIRECTION('',(-5.233595624294E-02,0.,0.998629534755));
#540 = DIRECTION('',(0.998629534755,0.,5.233595624294E-02));
#541 = ADVANCED_FACE('',(#542),#545,.T.);
#542 = FACE_BOUND('',#543,.T.);
#543 = EDGE_LOOP('',(#544));
#544 = ORIENTED_EDGE('',*,*,#512,.T.);
#545 = PLANE('',#546);
#546 = AXIS2_PLACEMENT_3D('',#547,#548,#549);
#547 = CARTESIAN_POINT('',(-44.77333504237,-2.,6.148609401582));
#548 = DIRECTION('',(-5.233595624294E-02,0.,0.998629534755));
#549 = DIRECTION('',(0.998629534755,0.,5.233595624294E-02));
#550 = ADVANCED_FACE('',(#551),#554,.F.);
#551 = FACE_BOUND('',#552,.T.);
#552 = EDGE_LOOP('',(#553));
#553 = ORIENTED_EDGE('',*,*,#529,.F.);
#554 = PLANE('',#555);
#555 = AXIS2_PLACEMENT_3D('',#556,#557,#558);
#556 = CARTESIAN_POINT('',(-44.60376654414,-2.,2.913049708977));
#557 = DIRECTION('',(-5.233595624294E-02,0.,0.998629534755));
#558 = DIRECTION('',(0.998629534755,0.,5.233595624294E-02));
#559 = MANIFOLD_SOLID_BREP('',#560);
#560 = CLOSED_SHELL('',(#561,#588));
#561 = ADVANCED_FACE('',(#562),#583,.T.);
#562 = FACE_BOUND('',#563,.T.);
#563 = EDGE_LOOP('',(#564,#575,#582));
#564 = ORIENTED_EDGE('',*,*,#565,.F.);
#565 = EDGE_CURVE('',#566,#568,#570,.T.);
#566 = VERTEX_POINT('',#567);
#567 = CARTESIAN_POINT('',(-44.52110332453,-2.,5.921498942739));
#568 = VERTEX_POINT('',#569);
#569 = CARTESIAN_POINT('',(-44.77333504237,-2.,6.148609401582));
#570 = CIRCLE('',#571,0.24);
#571 = AXIS2_PLACEMENT_3D('',#572,#573,#574);
#572 = CARTESIAN_POINT('',(-44.76077441287,-2.,5.908938313241));
#573 = DIRECTION('',(-2.445936926542E-16,-1.,-1.281861225865E-17));
#574 = DIRECTION('',(0.998629534755,-2.449293598295E-16,
    5.233595624294E-02));
#575 = ORIENTED_EDGE('',*,*,#576,.T.);
#576 = EDGE_CURVE('',#566,#566,#577,.T.);
#577 = CIRCLE('',#578,0.24);
#578 = AXIS2_PLACEMENT_3D('',#579,#580,#581);
#579 = CARTESIAN_POINT('',(-44.76077441287,-2.,5.908938313241));
#580 = DIRECTION('',(-5.233595624294E-02,0.,0.998629534755));
#581 = DIRECTION('',(0.998629534755,0.,5.233595624294E-02));
#582 = ORIENTED_EDGE('',*,*,#565,.T.);
#583 = SPHERICAL_SURFACE('',#584,0.24);
#584 = AXIS2_PLACEMENT_3D('',#585,#586,#587);
#585 = CARTESIAN_POINT('',(-44.76077441287,-2.,5.908938313241));
#586 = DIRECTION('',(-5.233595624294E-02,0.,0.998629534755));
#587 = DIRECTION('',(0.998629534755,0.,5.233595624294E-02));
#588 = ADVANCED_FACE('',(#589),#592,.F.);
#589 = FACE_BOUND('',#590,.T.);
#590 = EDGE_LOOP('',(#591));
#591 = ORIENTED_EDGE('',*,*,#576,.F.);
#592 = PLANE('',#593);
#593 = AXIS2_PLACEMENT_3D('',#594,#595,#596);
#594 = CARTESIAN_POINT('',(-44.76077441287,-2.,5.908938313241));
#595 = DIRECTION('',(-5.233595624294E-02,0.,0.998629534755));
#596 = DIRECTION('',(0.998629534755,0.,5.233595624294E-02));
#597 = MANIFOLD_SOLID_BREP('',#598);
#598 = CLOSED_SHELL('',(#599,#632,#641));
#599 = ADVANCED_FACE('',(#600),#627,.T.);
#600 = FACE_BOUND('',#601,.T.);
#601 = EDGE_LOOP('',(#602,#611,#619,#626));
#602 = ORIENTED_EDGE('',*,*,#603,.F.);
#603 = EDGE_CURVE('',#604,#604,#606,.T.);
#604 = VERTEX_POINT('',#605);
#605 = CARTESIAN_POINT('',(-43.02475776912,-2.,3.546556842643));
#606 = CIRCLE('',#607,0.34);
#607 = AXIS2_PLACEMENT_3D('',#608,#609,#610);
#608 = CARTESIAN_POINT('',(-43.36429181094,-2.,3.528762617521));
#609 = DIRECTION('',(-5.233595624294E-02,0.,0.998629534755));
#610 = DIRECTION('',(0.998629534755,0.,5.233595624294E-02));
#611 = ORIENTED_EDGE('',*,*,#612,.F.);
#612 = EDGE_CURVE('',#613,#604,#615,.T.);
#613 = VERTEX_POINT('',#614);
#614 = CARTESIAN_POINT('',(-42.96718821726,-2.,2.448064354413));
#615 = LINE('',#616,#617);
#616 = CARTESIAN_POINT('',(-42.96718821726,-2.,2.448064354413));
#617 = VECTOR('',#618,1.);
#618 = DIRECTION('',(-5.233595624294E-02,0.,0.998629534755));
#619 = ORIENTED_EDGE('',*,*,#620,.T.);
#620 = EDGE_CURVE('',#613,#613,#621,.T.);
#621 = CIRCLE('',#622,0.34);
#622 = AXIS2_PLACEMENT_3D('',#623,#624,#625);
#623 = CARTESIAN_POINT('',(-43.30672225907,-2.,2.430270129291));
#624 = DIRECTION('',(-5.233595624294E-02,0.,0.998629534755));
#625 = DIRECTION('',(0.998629534755,0.,5.233595624294E-02));
#626 = ORIENTED_EDGE('',*,*,#612,.T.);
#627 = CYLINDRICAL_SURFACE('',#628,0.34);
#628 = AXIS2_PLACEMENT_3D('',#629,#630,#631);
#629 = CARTESIAN_POINT('',(-43.30672225907,-2.,2.430270129291));
#630 = DIRECTION('',(-5.233595624294E-02,0.,0.998629534755));
#631 = DIRECTION('',(0.998629534755,0.,5.233595624294E-02));
#632 = ADVANCED_FACE('',(#633),#636,.T.);
#633 = FACE_BOUND('',#634,.T.);
#634 = EDGE_LOOP('',(#635));
#635 = ORIENTED_EDGE('',*,*,#603,.T.);
#636 = PLANE('',#637);
#637 = AXIS2_PLACEMENT_3D('',#638,#639,#640);
#638 = CARTESIAN_POINT('',(-43.36429181094,-2.,3.528762617521));
#639 = DIRECTION('',(-5.233595624294E-02,0.,0.998629534755));
#640 = DIRECTION('',(0.998629534755,0.,5.233595624294E-02));
#641 = ADVANCED_FACE('',(#642),#645,.F.);
#642 = FACE_BOUND('',#643,.T.);
#643 = EDGE_LOOP('',(#644));
#644 = ORIENTED_EDGE('',*,*,#620,.F.);
#645 = PLANE('',#646);
#646 = AXIS2_PLACEMENT_3D('',#647,#648,#649);
#647 = CARTESIAN_POINT('',(-43.30672225907,-2.,2.430270129291));
#648 = DIRECTION('',(-5.233595624294E-02,0.,0.998629534755));
#649 = DIRECTION('',(0.998629534755,0.,5.233595624294E-02));
#650 = MANIFOLD_SOLID_BREP('',#651);
#651 = CLOSED_SHELL('',(#652,#685,#694));
#652 = ADVANCED_FACE('',(#653),#680,.T.);
#653 = FACE_BOUND('',#654,.T.);
#654 = EDGE_LOOP('',(#655,#664,#672,#679));
#655 = ORIENTED_EDGE('',*,*,#656,.F.);
#656 = EDGE_CURVE('',#657,#657,#659,.T.);
#657 = VERTEX_POINT('',#658);
#658 = CARTESIAN_POINT('',(-43.26540444489,-2.,6.227636695509));
#659 = CIRCLE('',#660,0.24);
#660 = AXIS2_PLACEMENT_3D('',#661,#662,#663);
#661 = CARTESIAN_POINT('',(-43.50507553323,-2.,6.21507606601));
#662 = DIRECTION('',(-5.233595624294E-02,0.,0.998629534755));
#663 = DIRECTION('',(0.998629534755,0.,5.233595624294E-02));
#664 = ORIENTED_EDGE('',*,*,#665,.F.);
#665 = EDGE_CURVE('',#666,#657,#668,.T.);
#666 = VERTEX_POINT('',#667);
#667 = CARTESIAN_POINT('',(-43.09583594667,-2.,2.992077002904));
#668 = LINE('',#669,#670);
#669 = CARTESIAN_POINT('',(-43.09583594667,-2.,2.992077002904));
#670 = VECTOR('',#671,1.);
#671 = DIRECTION('',(-5.233595624294E-02,0.,0.998629534755));
#672 = ORIENTED_EDGE('',*,*,#673,.T.);
#673 = EDGE_CURVE('',#666,#666,#674,.T.);
#674 = CIRCLE('',#675,0.24);
#675 = AXIS2_PLACEMENT_3D('',#676,#677,#678);
#676 = CARTESIAN_POINT('',(-43.33550703501,-2.,2.979516373406));
#677 = DIRECTION('',(-5.233595624294E-02,0.,0.998629534755));
#678 = DIRECTION('',(0.998629534755,0.,5.233595624294E-02));
#679 = ORIENTED_EDGE('',*,*,#665,.T.);
#680 = CYLINDRICAL_SURFACE('',#681,0.24);
#681 = AXIS2_PLACEMENT_3D('',#682,#683,#684);
#682 = CARTESIAN_POINT('',(-43.33550703501,-2.,2.979516373406));
#683 = DIRECTION('',(-5.233595624294E-02,0.,0.998629534755));
#684 = DIRECTION('',(0.998629534755,0.,5.233595624294E-02));
#685 = ADVANCED_FACE('',(#686),#689,.T.);
#686 = FACE_BOUND('',#687,.T.);
#687 = EDGE_LOOP('',(#688));
#688 = ORIENTED_EDGE('',*,*,#656,.T.);
#689 = PLANE('',#690);
#690 = AXIS2_PLACEMENT_3D('',#691,#692,#693);
#691 = CARTESIAN_POINT('',(-43.50507553323,-2.,6.21507606601));
#692 = DIRECTION('',(-5.233595624294E-02,0.,0.998629534755));
#693 = DIRECTION('',(0.998629534755,0.,5.233595624294E-02));
#694 = ADVANCED_FACE('',(#695),#698,.F.);
#695 = FACE_BOUND('',#696,.T.);
#696 = EDGE_LOOP('',(#697));
#697 = ORIENTED_EDGE('',*,*,#673,.F.);
#698 = PLANE('',#699);
#699 = AXIS2_PLACEMENT_3D('',#700,#701,#702);
#700 = CARTESIAN_POINT('',(-43.33550703501,-2.,2.979516373406));
#701 = DIRECTION('',(-5.233595624294E-02,0.,0.998629534755));
#702 = DIRECTION('',(0.998629534755,0.,5.233595624294E-02));
#703 = MANIFOLD_SOLID_BREP('',#704);
#704 = CLOSED_SHELL('',(#705,#732));
#705 = ADVANCED_FACE('',(#706),#727,.T.);
#706 = FACE_BOUND('',#707,.T.);
#707 = EDGE_LOOP('',(#708,#719,#726));
#708 = ORIENTED_EDGE('',*,*,#709,.F.);
#709 = EDGE_CURVE('',#710,#712,#714,.T.);
#710 = VERTEX_POINT('',#711);
#711 = CARTESIAN_POINT('',(-43.25284381539,-2.,5.987965607168));
#712 = VERTEX_POINT('',#713);
#713 = CARTESIAN_POINT('',(-43.50507553323,-2.,6.21507606601));
#714 = CIRCLE('',#715,0.24);
#715 = AXIS2_PLACEMENT_3D('',#716,#717,#718);
#716 = CARTESIAN_POINT('',(-43.49251490374,-2.,5.975404977669));
#717 = DIRECTION('',(-2.445936926542E-16,-1.,-1.281861225865E-17));
#718 = DIRECTION('',(0.998629534755,-2.449293598295E-16,
    5.233595624294E-02));
#719 = ORIENTED_EDGE('',*,*,#720,.T.);
#720 = EDGE_CURVE('',#710,#710,#721,.T.);
#721 = CIRCLE('',#722,0.24);
#722 = AXIS2_PLACEMENT_3D('',#723,#724,#725);
#723 = CARTESIAN_POINT('',(-43.49251490374,-2.,5.975404977669));
#724 = DIRECTION('',(-5.233595624294E-02,0.,0.998629534755));
#725 = DIRECTION('',(0.998629534755,0.,5.233595624294E-02));
#726 = ORIENTED_EDGE('',*,*,#709,.T.);
#727 = SPHERICAL_SURFACE('',#728,0.24);
#728 = AXIS2_PLACEMENT_3D('',#729,#730,#731);
#729 = CARTESIAN_POINT('',(-43.49251490374,-2.,5.975404977669));
#730 = DIRECTION('',(-5.233595624294E-02,0.,0.998629534755));
#731 = DIRECTION('',(0.998629534755,0.,5.233595624294E-02));
#732 = ADVANCED_FACE('',(#733),#736,.F.);
#733 = FACE_BOUND('',#734,.T.);
#734 = EDGE_LOOP('',(#735));
#735 = ORIENTED_EDGE('',*,*,#720,.F.);
#736 = PLANE('',#737);
#737 = AXIS2_PLACEMENT_3D('',#738,#739,#740);
#738 = CARTESIAN_POINT('',(-43.49251490374,-2.,5.975404977669));
#739 = DIRECTION('',(-5.233595624294E-02,0.,0.998629534755));
#740 = DIRECTION('',(0.998629534755,0.,5.233595624294E-02));
#741 = MANIFOLD_SOLID_BREP('',#742);
#742 = CLOSED_SHELL('',(#743,#776,#785));
#743 = ADVANCED_FACE('',(#744),#771,.T.);
#744 = FACE_BOUND('',#745,.T.);
#745 = EDGE_LOOP('',(#746,#755,#763,#770));
#746 = ORIENTED_EDGE('',*,*,#747,.F.);
#747 = EDGE_CURVE('',#748,#748,#750,.T.);
#748 = VERTEX_POINT('',#749);
#749 = CARTESIAN_POINT('',(-41.75649825999,-2.,3.613023507072));
#750 = CIRCLE('',#751,0.34);
#751 = AXIS2_PLACEMENT_3D('',#752,#753,#754);
#752 = CARTESIAN_POINT('',(-42.0960323018,-2.,3.595229281949));
#753 = DIRECTION('',(-5.233595624294E-02,0.,0.998629534755));
#754 = DIRECTION('',(0.998629534755,0.,5.233595624294E-02));
#755 = ORIENTED_EDGE('',*,*,#756,.F.);
#756 = EDGE_CURVE('',#757,#748,#759,.T.);
#757 = VERTEX_POINT('',#758);
#758 = CARTESIAN_POINT('',(-41.69892870812,-2.,2.514531018842));
#759 = LINE('',#760,#761);
#760 = CARTESIAN_POINT('',(-41.69892870812,-2.,2.514531018842));
#761 = VECTOR('',#762,1.);
#762 = DIRECTION('',(-5.233595624294E-02,0.,0.998629534755));
#763 = ORIENTED_EDGE('',*,*,#764,.T.);
#764 = EDGE_CURVE('',#757,#757,#765,.T.);
#765 = CIRCLE('',#766,0.34);
#766 = AXIS2_PLACEMENT_3D('',#767,#768,#769);
#767 = CARTESIAN_POINT('',(-42.03846274993,-2.,2.496736793719));
#768 = DIRECTION('',(-5.233595624294E-02,0.,0.998629534755));
#769 = DIRECTION('',(0.998629534755,0.,5.233595624294E-02));
#770 = ORIENTED_EDGE('',*,*,#756,.T.);
#771 = CYLINDRICAL_SURFACE('',#772,0.34);
#772 = AXIS2_PLACEMENT_3D('',#773,#774,#775);
#773 = CARTESIAN_POINT('',(-42.03846274993,-2.,2.496736793719));
#774 = DIRECTION('',(-5.233595624294E-02,0.,0.998629534755));
#775 = DIRECTION('',(0.998629534755,0.,5.233595624294E-02));
#776 = ADVANCED_FACE('',(#777),#780,.T.);
#777 = FACE_BOUND('',#778,.T.);
#778 = EDGE_LOOP('',(#779));
#779 = ORIENTED_EDGE('',*,*,#747,.T.);
#780 = PLANE('',#781);
#781 = AXIS2_PLACEMENT_3D('',#782,#783,#784);
#782 = CARTESIAN_POINT('',(-42.0960323018,-2.,3.595229281949));
#783 = DIRECTION('',(-5.233595624294E-02,0.,0.998629534755));
#784 = DIRECTION('',(0.998629534755,0.,5.233595624294E-02));
#785 = ADVANCED_FACE('',(#786),#789,.F.);
#786 = FACE_BOUND('',#787,.T.);
#787 = EDGE_LOOP('',(#788));
#788 = ORIENTED_EDGE('',*,*,#764,.F.);
#789 = PLANE('',#790);
#790 = AXIS2_PLACEMENT_3D('',#791,#792,#793);
#791 = CARTESIAN_POINT('',(-42.03846274993,-2.,2.496736793719));
#792 = DIRECTION('',(-5.233595624294E-02,0.,0.998629534755));
#793 = DIRECTION('',(0.998629534755,0.,5.233595624294E-02));
#794 = MANIFOLD_SOLID_BREP('',#795);
#795 = CLOSED_SHELL('',(#796,#829,#838));
#796 = ADVANCED_FACE('',(#797),#824,.T.);
#797 = FACE_BOUND('',#798,.T.);
#798 = EDGE_LOOP('',(#799,#808,#816,#823));
#799 = ORIENTED_EDGE('',*,*,#800,.F.);
#800 = EDGE_CURVE('',#801,#801,#803,.T.);
#801 = VERTEX_POINT('',#802);
#802 = CARTESIAN_POINT('',(-41.99714493575,-2.,6.294103359937));
#803 = CIRCLE('',#804,0.24);
#804 = AXIS2_PLACEMENT_3D('',#805,#806,#807);
#805 = CARTESIAN_POINT('',(-42.2368160241,-2.,6.281542730439));
#806 = DIRECTION('',(-5.233595624294E-02,0.,0.998629534755));
#807 = DIRECTION('',(0.998629534755,0.,5.233595624294E-02));
#808 = ORIENTED_EDGE('',*,*,#809,.F.);
#809 = EDGE_CURVE('',#810,#801,#812,.T.);
#810 = VERTEX_POINT('',#811);
#811 = CARTESIAN_POINT('',(-41.82757643753,-2.,3.058543667332));
#812 = LINE('',#813,#814);
#813 = CARTESIAN_POINT('',(-41.82757643753,-2.,3.058543667332));
#814 = VECTOR('',#815,1.);
#815 = DIRECTION('',(-5.233595624294E-02,0.,0.998629534755));
#816 = ORIENTED_EDGE('',*,*,#817,.T.);
#817 = EDGE_CURVE('',#810,#810,#818,.T.);
#818 = CIRCLE('',#819,0.24);
#819 = AXIS2_PLACEMENT_3D('',#820,#821,#822);
#820 = CARTESIAN_POINT('',(-42.06724752587,-2.,3.045983037834));
#821 = DIRECTION('',(-5.233595624294E-02,0.,0.998629534755));
#822 = DIRECTION('',(0.998629534755,0.,5.233595624294E-02));
#823 = ORIENTED_EDGE('',*,*,#809,.T.);
#824 = CYLINDRICAL_SURFACE('',#825,0.24);
#825 = AXIS2_PLACEMENT_3D('',#826,#827,#828);
#826 = CARTESIAN_POINT('',(-42.06724752587,-2.,3.045983037834));
#827 = DIRECTION('',(-5.233595624294E-02,0.,0.998629534755));
#828 = DIRECTION('',(0.998629534755,0.,5.233595624294E-02));
#829 = ADVANCED_FACE('',(#830),#833,.T.);
#830 = FACE_BOUND('',#831,.T.);
#831 = EDGE_LOOP('',(#832));
#832 = ORIENTED_EDGE('',*,*,#800,.T.);
#833 = PLANE('',#834);
#834 = AXIS2_PLACEMENT_3D('',#835,#836,#837);
#835 = CARTESIAN_POINT('',(-42.2368160241,-2.,6.281542730439));
#836 = DIRECTION('',(-5.233595624294E-02,0.,0.998629534755));
#837 = DIRECTION('',(0.998629534755,0.,5.233595624294E-02));
#838 = ADVANCED_FACE('',(#839),#842,.F.);
#839 = FACE_BOUND('',#840,.T.);
#840 = EDGE_LOOP('',(#841));
#841 = ORIENTED_EDGE('',*,*,#817,.F.);
#842 = PLANE('',#843);
#843 = AXIS2_PLACEMENT_3D('',#844,#845,#846);
#844 = CARTESIAN_POINT('',(-42.06724752587,-2.,3.045983037834));
#845 = DIRECTION('',(-5.233595624294E-02,0.,0.998629534755));
#846 = DIRECTION('',(0.998629534755,0.,5.233595624294E-02));
#847 = MANIFOLD_SOLID_BREP('',#848);
#848 = CLOSED_SHELL('',(#849,#876));
#849 = ADVANCED_FACE('',(#850),#871,.T.);
#850 = FACE_BOUND('',#851,.T.);
#851 = EDGE_LOOP('',(#852,#863,#870));
#852 = ORIENTED_EDGE('',*,*,#853,.F.);
#853 = EDGE_CURVE('',#854,#856,#858,.T.);
#854 = VERTEX_POINT('',#855);
#855 = CARTESIAN_POINT('',(-41.98458430626,-2.,6.054432271596));
#856 = VERTEX_POINT('',#857);
#857 = CARTESIAN_POINT('',(-42.2368160241,-2.,6.281542730439));
#858 = CIRCLE('',#859,0.24);
#859 = AXIS2_PLACEMENT_3D('',#860,#861,#862);
#860 = CARTESIAN_POINT('',(-42.2242553946,-2.,6.041871642098));
#861 = DIRECTION('',(-2.445936926542E-16,-1.,-1.281861225865E-17));
#862 = DIRECTION('',(0.998629534755,-2.449293598295E-16,
    5.233595624294E-02));
#863 = ORIENTED_EDGE('',*,*,#864,.T.);
#864 = EDGE_CURVE('',#854,#854,#865,.T.);
#865 = CIRCLE('',#866,0.24);
#866 = AXIS2_PLACEMENT_3D('',#867,#868,#869);
#867 = CARTESIAN_POINT('',(-42.2242553946,-2.,6.041871642098));
#868 = DIRECTION('',(-5.233595624294E-02,0.,0.998629534755));
#869 = DIRECTION('',(0.998629534755,0.,5.233595624294E-02));
#870 = ORIENTED_EDGE('',*,*,#853,.T.);
#871 = SPHERICAL_SURFACE('',#872,0.24);
#872 = AXIS2_PLACEMENT_3D('',#873,#874,#875);
#873 = CARTESIAN_POINT('',(-42.2242553946,-2.,6.041871642098));
#874 = DIRECTION('',(-5.233595624294E-02,0.,0.998629534755));
#875 = DIRECTION('',(0.998629534755,0.,5.233595624294E-02));
#876 = ADVANCED_FACE('',(#877),#880,.F.);
#877 = FACE_BOUND('',#878,.T.);
#878 = EDGE_LOOP('',(#879));
#879 = ORIENTED_EDGE('',*,*,#864,.F.);
#880 = PLANE('',#881);
#881 = AXIS2_PLACEMENT_3D('',#882,#883,#884);
#882 = CARTESIAN_POINT('',(-42.2242553946,-2.,6.041871642098));
#883 = DIRECTION('',(-5.233595624294E-02,0.,0.998629534755));
#884 = DIRECTION('',(0.998629534755,0.,5.233595624294E-02));
#885 = MANIFOLD_SOLID_BREP('',#886);
#886 = CLOSED_SHELL('',(#887,#920,#929));
#887 = ADVANCED_FACE('',(#888),#915,.T.);
#888 = FACE_BOUND('',#889,.T.);
#889 = EDGE_LOOP('',(#890,#899,#907,#914));
#890 = ORIENTED_EDGE('',*,*,#891,.F.);
#891 = EDGE_CURVE('',#892,#892,#894,.T.);
#892 = VERTEX_POINT('',#893);
#893 = CARTESIAN_POINT('',(-40.48823875085,-2.,3.6794901715));
#894 = CIRCLE('',#895,0.34);
#895 = AXIS2_PLACEMENT_3D('',#896,#897,#898);
#896 = CARTESIAN_POINT('',(-40.82777279266,-2.,3.661695946378));
#897 = DIRECTION('',(-5.233595624294E-02,0.,0.998629534755));
#898 = DIRECTION('',(0.998629534755,0.,5.233595624294E-02));
#899 = ORIENTED_EDGE('',*,*,#900,.F.);
#900 = EDGE_CURVE('',#901,#892,#903,.T.);
#901 = VERTEX_POINT('',#902);
#902 = CARTESIAN_POINT('',(-40.43066919898,-2.,2.58099768327));
#903 = LINE('',#904,#905);
#904 = CARTESIAN_POINT('',(-40.43066919898,-2.,2.58099768327));
#905 = VECTOR('',#906,1.);
#906 = DIRECTION('',(-5.233595624294E-02,0.,0.998629534755));
#907 = ORIENTED_EDGE('',*,*,#908,.T.);
#908 = EDGE_CURVE('',#901,#901,#909,.T.);
#909 = CIRCLE('',#910,0.34);
#910 = AXIS2_PLACEMENT_3D('',#911,#912,#913);
#911 = CARTESIAN_POINT('',(-40.7702032408,-2.,2.563203458148));
#912 = DIRECTION('',(-5.233595624294E-02,0.,0.998629534755));
#913 = DIRECTION('',(0.998629534755,0.,5.233595624294E-02));
#914 = ORIENTED_EDGE('',*,*,#900,.T.);
#915 = CYLINDRICAL_SURFACE('',#916,0.34);
#916 = AXIS2_PLACEMENT_3D('',#917,#918,#919);
#917 = CARTESIAN_POINT('',(-40.7702032408,-2.,2.563203458148));
#918 = DIRECTION('',(-5.233595624294E-02,0.,0.998629534755));
#919 = DIRECTION('',(0.998629534755,0.,5.233595624294E-02));
#920 = ADVANCED_FACE('',(#921),#924,.T.);
#921 = FACE_BOUND('',#922,.T.);
#922 = EDGE_LOOP('',(#923));
#923 = ORIENTED_EDGE('',*,*,#891,.T.);
#924 = PLANE('',#925);
#925 = AXIS2_PLACEMENT_3D('',#926,#927,#928);
#926 = CARTESIAN_POINT('',(-40.82777279266,-2.,3.661695946378));
#927 = DIRECTION('',(-5.233595624294E-02,0.,0.998629534755));
#928 = DIRECTION('',(0.998629534755,0.,5.233595624294E-02));
#929 = ADVANCED_FACE('',(#930),#933,.F.);
#930 = FACE_BOUND('',#931,.T.);
#931 = EDGE_LOOP('',(#932));
#932 = ORIENTED_EDGE('',*,*,#908,.F.);
#933 = PLANE('',#934);
#934 = AXIS2_PLACEMENT_3D('',#935,#936,#937);
#935 = CARTESIAN_POINT('',(-40.7702032408,-2.,2.563203458148));
#936 = DIRECTION('',(-5.233595624294E-02,0.,0.998629534755));
#937 = DIRECTION('',(0.998629534755,0.,5.233595624294E-02));
#938 = MANIFOLD_SOLID_BREP('',#939);
#939 = CLOSED_SHELL('',(#940,#973,#982));
#940 = ADVANCED_FACE('',(#941),#968,.T.);
#941 = FACE_BOUND('',#942,.T.);
#942 = EDGE_LOOP('',(#943,#952,#960,#967));
#943 = ORIENTED_EDGE('',*,*,#944,.F.);
#944 = EDGE_CURVE('',#945,#945,#947,.T.);
#945 = VERTEX_POINT('',#946);
#946 = CARTESIAN_POINT('',(-40.72888542662,-2.,6.360570024366));
#947 = CIRCLE('',#948,0.24);
#948 = AXIS2_PLACEMENT_3D('',#949,#950,#951);
#949 = CARTESIAN_POINT('',(-40.96855651496,-2.,6.348009394867));
#950 = DIRECTION('',(-5.233595624294E-02,0.,0.998629534755));
#951 = DIRECTION('',(0.998629534755,0.,5.233595624294E-02));
#952 = ORIENTED_EDGE('',*,*,#953,.F.);
#953 = EDGE_CURVE('',#954,#945,#956,.T.);
#954 = VERTEX_POINT('',#955);
#955 = CARTESIAN_POINT('',(-40.55931692839,-2.,3.125010331761));
#956 = LINE('',#957,#958);
#957 = CARTESIAN_POINT('',(-40.55931692839,-2.,3.125010331761));
#958 = VECTOR('',#959,1.);
#959 = DIRECTION('',(-5.233595624294E-02,0.,0.998629534755));
#960 = ORIENTED_EDGE('',*,*,#961,.T.);
#961 = EDGE_CURVE('',#954,#954,#962,.T.);
#962 = CIRCLE('',#963,0.24);
#963 = AXIS2_PLACEMENT_3D('',#964,#965,#966);
#964 = CARTESIAN_POINT('',(-40.79898801673,-2.,3.112449702263));
#965 = DIRECTION('',(-5.233595624294E-02,0.,0.998629534755));
#966 = DIRECTION('',(0.998629534755,0.,5.233595624294E-02));
#967 = ORIENTED_EDGE('',*,*,#953,.T.);
#968 = CYLINDRICAL_SURFACE('',#969,0.24);
#969 = AXIS2_PLACEMENT_3D('',#970,#971,#972);
#970 = CARTESIAN_POINT('',(-40.79898801673,-2.,3.112449702263));
#971 = DIRECTION('',(-5.233595624294E-02,0.,0.998629534755));
#972 = DIRECTION('',(0.998629534755,0.,5.233595624294E-02));
#973 = ADVANCED_FACE('',(#974),#977,.T.);
#974 = FACE_BOUND('',#975,.T.);
#975 = EDGE_LOOP('',(#976));
#976 = ORIENTED_EDGE('',*,*,#944,.T.);
#977 = PLANE('',#978);
#978 = AXIS2_PLACEMENT_3D('',#979,#980,#981);
#979 = CARTESIAN_POINT('',(-40.96855651496,-2.,6.348009394867));
#980 = DIRECTION('',(-5.233595624294E-02,0.,0.998629534755));
#981 = DIRECTION('',(0.998629534755,0.,5.233595624294E-02));
#982 = ADVANCED_FACE('',(#983),#986,.F.);
#983 = FACE_BOUND('',#984,.T.);
#984 = EDGE_LOOP('',(#985));
#985 = ORIENTED_EDGE('',*,*,#961,.F.);
#986 = PLANE('',#987);
#987 = AXIS2_PLACEMENT_3D('',#988,#989,#990);
#988 = CARTESIAN_POINT('',(-40.79898801673,-2.,3.112449702263));
#989 = DIRECTION('',(-5.233595624294E-02,0.,0.998629534755));
#990 = DIRECTION('',(0.998629534755,0.,5.233595624294E-02));
#991 = MANIFOLD_SOLID_BREP('',#992);
#992 = CLOSED_SHELL('',(#993,#1020));
#993 = ADVANCED_FACE('',(#994),#1015,.T.);
#994 = FACE_BOUND('',#995,.T.);
#995 = EDGE_LOOP('',(#996,#1007,#1014));
#996 = ORIENTED_EDGE('',*,*,#997,.F.);
#997 = EDGE_CURVE('',#998,#1000,#1002,.T.);
#998 = VERTEX_POINT('',#999);
#999 = CARTESIAN_POINT('',(-40.71632479712,-2.,6.120898936025));
#1000 = VERTEX_POINT('',#1001);
#1001 = CARTESIAN_POINT('',(-40.96855651496,-2.,6.348009394867));
#1002 = CIRCLE('',#1003,0.24);
#1003 = AXIS2_PLACEMENT_3D('',#1004,#1005,#1006);
#1004 = CARTESIAN_POINT('',(-40.95599588546,-2.,6.108338306526));
#1005 = DIRECTION('',(-2.445936926542E-16,-1.,-1.281861225865E-17));
#1006 = DIRECTION('',(0.998629534755,-2.449293598295E-16,
    5.233595624294E-02));
#1007 = ORIENTED_EDGE('',*,*,#1008,.T.);
#1008 = EDGE_CURVE('',#998,#998,#1009,.T.);
#1009 = CIRCLE('',#1010,0.24);
#1010 = AXIS2_PLACEMENT_3D('',#1011,#1012,#1013);
#1011 = CARTESIAN_POINT('',(-40.95599588546,-2.,6.108338306526));
#1012 = DIRECTION('',(-5.233595624294E-02,0.,0.998629534755));
#1013 = DIRECTION('',(0.998629534755,0.,5.233595624294E-02));
#1014 = ORIENTED_EDGE('',*,*,#997,.T.);
#1015 = SPHERICAL_SURFACE('',#1016,0.24);
#1016 = AXIS2_PLACEMENT_3D('',#1017,#1018,#1019);
#1017 = CARTESIAN_POINT('',(-40.95599588546,-2.,6.108338306526));
#1018 = DIRECTION('',(-5.233595624294E-02,0.,0.998629534755));
#1019 = DIRECTION('',(0.998629534755,0.,5.233595624294E-02));
#1020 = ADVANCED_FACE('',(#1021),#1024,.F.);
#1021 = FACE_BOUND('',#1022,.T.);
#1022 = EDGE_LOOP('',(#1023));
#1023 = ORIENTED_EDGE('',*,*,#1008,.F.);
#1024 = PLANE('',#1025);
#1025 = AXIS2_PLACEMENT_3D('',#1026,#1027,#1028);
#1026 = CARTESIAN_POINT('',(-40.95599588546,-2.,6.108338306526));
#1027 = DIRECTION('',(-5.233595624294E-02,0.,0.998629534755));
#1028 = DIRECTION('',(0.998629534755,0.,5.233595624294E-02));
#1029 = MANIFOLD_SOLID_BREP('',#1030);
#1030 = CLOSED_SHELL('',(#1031,#1064,#1073));
#1031 = ADVANCED_FACE('',(#1032),#1059,.T.);
#1032 = FACE_BOUND('',#1033,.T.);
#1033 = EDGE_LOOP('',(#1034,#1043,#1051,#1058));
#1034 = ORIENTED_EDGE('',*,*,#1035,.F.);
#1035 = EDGE_CURVE('',#1036,#1036,#1038,.T.);
#1036 = VERTEX_POINT('',#1037);
#1037 = CARTESIAN_POINT('',(-39.21997924171,-2.,3.745956835929));
#1038 = CIRCLE('',#1039,0.34);
#1039 = AXIS2_PLACEMENT_3D('',#1040,#1041,#1042);
#1040 = CARTESIAN_POINT('',(-39.55951328353,-2.,3.728162610806));
#1041 = DIRECTION('',(-5.233595624294E-02,0.,0.998629534755));
#1042 = DIRECTION('',(0.998629534755,0.,5.233595624294E-02));
#1043 = ORIENTED_EDGE('',*,*,#1044,.F.);
#1044 = EDGE_CURVE('',#1045,#1036,#1047,.T.);
#1045 = VERTEX_POINT('',#1046);
#1046 = CARTESIAN_POINT('',(-39.16240968984,-2.,2.647464347699));
#1047 = LINE('',#1048,#1049);
#1048 = CARTESIAN_POINT('',(-39.16240968984,-2.,2.647464347699));
#1049 = VECTOR('',#1050,1.);
#1050 = DIRECTION('',(-5.233595624294E-02,0.,0.998629534755));
#1051 = ORIENTED_EDGE('',*,*,#1052,.T.);
#1052 = EDGE_CURVE('',#1045,#1045,#1053,.T.);
#1053 = CIRCLE('',#1054,0.34);
#1054 = AXIS2_PLACEMENT_3D('',#1055,#1056,#1057);
#1055 = CARTESIAN_POINT('',(-39.50194373166,-2.,2.629670122576));
#1056 = DIRECTION('',(-5.233595624294E-02,0.,0.998629534755));
#1057 = DIRECTION('',(0.998629534755,0.,5.233595624294E-02));
#1058 = ORIENTED_EDGE('',*,*,#1044,.T.);
#1059 = CYLINDRICAL_SURFACE('',#1060,0.34);
#1060 = AXIS2_PLACEMENT_3D('',#1061,#1062,#1063);
#1061 = CARTESIAN_POINT('',(-39.50194373166,-2.,2.629670122576));
#1062 = DIRECTION('',(-5.233595624294E-02,0.,0.998629534755));
#1063 = DIRECTION('',(0.998629534755,0.,5.233595624294E-02));
#1064 = ADVANCED_FACE('',(#1065),#1068,.T.);
#1065 = FACE_BOUND('',#1066,.T.);
#1066 = EDGE_LOOP('',(#1067));
#1067 = ORIENTED_EDGE('',*,*,#1035,.T.);
#1068 = PLANE('',#1069);
#1069 = AXIS2_PLACEMENT_3D('',#1070,#1071,#1072);
#1070 = CARTESIAN_POINT('',(-39.55951328353,-2.,3.728162610806));
#1071 = DIRECTION('',(-5.233595624294E-02,0.,0.998629534755));
#1072 = DIRECTION('',(0.998629534755,0.,5.233595624294E-02));
#1073 = ADVANCED_FACE('',(#1074),#1077,.F.);
#1074 = FACE_BOUND('',#1075,.T.);
#1075 = EDGE_LOOP('',(#1076));
#1076 = ORIENTED_EDGE('',*,*,#1052,.F.);
#1077 = PLANE('',#1078);
#1078 = AXIS2_PLACEMENT_3D('',#1079,#1080,#1081);
#1079 = CARTESIAN_POINT('',(-39.50194373166,-2.,2.629670122576));
#1080 = DIRECTION('',(-5.233595624294E-02,0.,0.998629534755));
#1081 = DIRECTION('',(0.998629534755,0.,5.233595624294E-02));
#1082 = MANIFOLD_SOLID_BREP('',#1083);
#1083 = CLOSED_SHELL('',(#1084,#1117,#1126));
#1084 = ADVANCED_FACE('',(#1085),#1112,.T.);
#1085 = FACE_BOUND('',#1086,.T.);
#1086 = EDGE_LOOP('',(#1087,#1096,#1104,#1111));
#1087 = ORIENTED_EDGE('',*,*,#1088,.F.);
#1088 = EDGE_CURVE('',#1089,#1089,#1091,.T.);
#1089 = VERTEX_POINT('',#1090);
#1090 = CARTESIAN_POINT('',(-39.46062591748,-2.,6.427036688794));
#1091 = CIRCLE('',#1092,0.24);
#1092 = AXIS2_PLACEMENT_3D('',#1093,#1094,#1095);
#1093 = CARTESIAN_POINT('',(-39.70029700582,-2.,6.414476059296));
#1094 = DIRECTION('',(-5.233595624294E-02,0.,0.998629534755));
#1095 = DIRECTION('',(0.998629534755,0.,5.233595624294E-02));
#1096 = ORIENTED_EDGE('',*,*,#1097,.F.);
#1097 = EDGE_CURVE('',#1098,#1089,#1100,.T.);
#1098 = VERTEX_POINT('',#1099);
#1099 = CARTESIAN_POINT('',(-39.29105741925,-2.,3.191476996189));
#1100 = LINE('',#1101,#1102);
#1101 = CARTESIAN_POINT('',(-39.29105741925,-2.,3.191476996189));
#1102 = VECTOR('',#1103,1.);
#1103 = DIRECTION('',(-5.233595624294E-02,0.,0.998629534755));
#1104 = ORIENTED_EDGE('',*,*,#1105,.T.);
#1105 = EDGE_CURVE('',#1098,#1098,#1106,.T.);
#1106 = CIRCLE('',#1107,0.24);
#1107 = AXIS2_PLACEMENT_3D('',#1108,#1109,#1110);
#1108 = CARTESIAN_POINT('',(-39.53072850759,-2.,3.178916366691));
#1109 = DIRECTION('',(-5.233595624294E-02,0.,0.998629534755));
#1110 = DIRECTION('',(0.998629534755,0.,5.233595624294E-02));
#1111 = ORIENTED_EDGE('',*,*,#1097,.T.);
#1112 = CYLINDRICAL_SURFACE('',#1113,0.24);
#1113 = AXIS2_PLACEMENT_3D('',#1114,#1115,#1116);
#1114 = CARTESIAN_POINT('',(-39.53072850759,-2.,3.178916366691));
#1115 = DIRECTION('',(-5.233595624294E-02,0.,0.998629534755));
#1116 = DIRECTION('',(0.998629534755,0.,5.233595624294E-02));
#1117 = ADVANCED_FACE('',(#1118),#1121,.T.);
#1118 = FACE_BOUND('',#1119,.T.);
#1119 = EDGE_LOOP('',(#1120));
#1120 = ORIENTED_EDGE('',*,*,#1088,.T.);
#1121 = PLANE('',#1122);
#1122 = AXIS2_PLACEMENT_3D('',#1123,#1124,#1125);
#1123 = CARTESIAN_POINT('',(-39.70029700582,-2.,6.414476059296));
#1124 = DIRECTION('',(-5.233595624294E-02,0.,0.998629534755));
#1125 = DIRECTION('',(0.998629534755,0.,5.233595624294E-02));
#1126 = ADVANCED_FACE('',(#1127),#1130,.F.);
#1127 = FACE_BOUND('',#1128,.T.);
#1128 = EDGE_LOOP('',(#1129));
#1129 = ORIENTED_EDGE('',*,*,#1105,.F.);
#1130 = PLANE('',#1131);
#1131 = AXIS2_PLACEMENT_3D('',#1132,#1133,#1134);
#1132 = CARTESIAN_POINT('',(-39.53072850759,-2.,3.178916366691));
#1133 = DIRECTION('',(-5.233595624294E-02,0.,0.998629534755));
#1134 = DIRECTION('',(0.998629534755,0.,5.233595624294E-02));
#1135 = MANIFOLD_SOLID_BREP('',#1136);
#1136 = CLOSED_SHELL('',(#1137,#1164));
#1137 = ADVANCED_FACE('',(#1138),#1159,.T.);
#1138 = FACE_BOUND('',#1139,.T.);
#1139 = EDGE_LOOP('',(#1140,#1151,#1158));
#1140 = ORIENTED_EDGE('',*,*,#1141,.F.);
#1141 = EDGE_CURVE('',#1142,#1144,#1146,.T.);
#1142 = VERTEX_POINT('',#1143);
#1143 = CARTESIAN_POINT('',(-39.44806528798,-2.,6.187365600453));
#1144 = VERTEX_POINT('',#1145);
#1145 = CARTESIAN_POINT('',(-39.70029700582,-2.,6.414476059296));
#1146 = CIRCLE('',#1147,0.24);
#1147 = AXIS2_PLACEMENT_3D('',#1148,#1149,#1150);
#1148 = CARTESIAN_POINT('',(-39.68773637632,-2.,6.174804970955));
#1149 = DIRECTION('',(-2.445936926542E-16,-1.,-1.281861225865E-17));
#1150 = DIRECTION('',(0.998629534755,-2.449293598295E-16,
    5.233595624294E-02));
#1151 = ORIENTED_EDGE('',*,*,#1152,.T.);
#1152 = EDGE_CURVE('',#1142,#1142,#1153,.T.);
#1153 = CIRCLE('',#1154,0.24);
#1154 = AXIS2_PLACEMENT_3D('',#1155,#1156,#1157);
#1155 = CARTESIAN_POINT('',(-39.68773637632,-2.,6.174804970955));
#1156 = DIRECTION('',(-5.233595624294E-02,0.,0.998629534755));
#1157 = DIRECTION('',(0.998629534755,0.,5.233595624294E-02));
#1158 = ORIENTED_EDGE('',*,*,#1141,.T.);
#1159 = SPHERICAL_SURFACE('',#1160,0.24);
#1160 = AXIS2_PLACEMENT_3D('',#1161,#1162,#1163);
#1161 = CARTESIAN_POINT('',(-39.68773637632,-2.,6.174804970955));
#1162 = DIRECTION('',(-5.233595624294E-02,0.,0.998629534755));
#1163 = DIRECTION('',(0.998629534755,0.,5.233595624294E-02));
#1164 = ADVANCED_FACE('',(#1165),#1168,.F.);
#1165 = FACE_BOUND('',#1166,.T.);
#1166 = EDGE_LOOP('',(#1167));
#1167 = ORIENTED_EDGE('',*,*,#1152,.F.);
#1168 = PLANE('',#1169);
#1169 = AXIS2_PLACEMENT_3D('',#1170,#1171,#1172);
#1170 = CARTESIAN_POINT('',(-39.68773637632,-2.,6.174804970955));
#1171 = DIRECTION('',(-5.233595624294E-02,0.,0.998629534755));
#1172 = DIRECTION('',(0.998629534755,0.,5.233595624294E-02));
#1173 = MANIFOLD_SOLID_BREP('',#1174);
#1174 = CLOSED_SHELL('',(#1175,#1208,#1217));
#1175 = ADVANCED_FACE('',(#1176),#1203,.T.);
#1176 = FACE_BOUND('',#1177,.T.);
#1177 = EDGE_LOOP('',(#1178,#1187,#1195,#1202));
#1178 = ORIENTED_EDGE('',*,*,#1179,.F.);
#1179 = EDGE_CURVE('',#1180,#1180,#1182,.T.);
#1180 = VERTEX_POINT('',#1181);
#1181 = CARTESIAN_POINT('',(-37.95171973257,-2.,3.812423500357));
#1182 = CIRCLE('',#1183,0.34);
#1183 = AXIS2_PLACEMENT_3D('',#1184,#1185,#1186);
#1184 = CARTESIAN_POINT('',(-38.29125377439,-2.,3.794629275235));
#1185 = DIRECTION('',(-5.233595624294E-02,0.,0.998629534755));
#1186 = DIRECTION('',(0.998629534755,0.,5.233595624294E-02));
#1187 = ORIENTED_EDGE('',*,*,#1188,.F.);
#1188 = EDGE_CURVE('',#1189,#1180,#1191,.T.);
#1189 = VERTEX_POINT('',#1190);
#1190 = CARTESIAN_POINT('',(-37.8941501807,-2.,2.713931012127));
#1191 = LINE('',#1192,#1193);
#1192 = CARTESIAN_POINT('',(-37.8941501807,-2.,2.713931012127));
#1193 = VECTOR('',#1194,1.);
#1194 = DIRECTION('',(-5.233595624294E-02,0.,0.998629534755));
#1195 = ORIENTED_EDGE('',*,*,#1196,.T.);
#1196 = EDGE_CURVE('',#1189,#1189,#1197,.T.);
#1197 = CIRCLE('',#1198,0.34);
#1198 = AXIS2_PLACEMENT_3D('',#1199,#1200,#1201);
#1199 = CARTESIAN_POINT('',(-38.23368422252,-2.,2.696136787005));
#1200 = DIRECTION('',(-5.233595624294E-02,0.,0.998629534755));
#1201 = DIRECTION('',(0.998629534755,0.,5.233595624294E-02));
#1202 = ORIENTED_EDGE('',*,*,#1188,.T.);
#1203 = CYLINDRICAL_SURFACE('',#1204,0.34);
#1204 = AXIS2_PLACEMENT_3D('',#1205,#1206,#1207);
#1205 = CARTESIAN_POINT('',(-38.23368422252,-2.,2.696136787005));
#1206 = DIRECTION('',(-5.233595624294E-02,0.,0.998629534755));
#1207 = DIRECTION('',(0.998629534755,0.,5.233595624294E-02));
#1208 = ADVANCED_FACE('',(#1209),#1212,.T.);
#1209 = FACE_BOUND('',#1210,.T.);
#1210 = EDGE_LOOP('',(#1211));
#1211 = ORIENTED_EDGE('',*,*,#1179,.T.);
#1212 = PLANE('',#1213);
#1213 = AXIS2_PLACEMENT_3D('',#1214,#1215,#1216);
#1214 = CARTESIAN_POINT('',(-38.29125377439,-2.,3.794629275235));
#1215 = DIRECTION('',(-5.233595624294E-02,0.,0.998629534755));
#1216 = DIRECTION('',(0.998629534755,0.,5.233595624294E-02));
#1217 = ADVANCED_FACE('',(#1218),#1221,.F.);
#1218 = FACE_BOUND('',#1219,.T.);
#1219 = EDGE_LOOP('',(#1220));
#1220 = ORIENTED_EDGE('',*,*,#1196,.F.);
#1221 = PLANE('',#1222);
#1222 = AXIS2_PLACEMENT_3D('',#1223,#1224,#1225);
#1223 = CARTESIAN_POINT('',(-38.23368422252,-2.,2.696136787005));
#1224 = DIRECTION('',(-5.233595624294E-02,0.,0.998629534755));
#1225 = DIRECTION('',(0.998629534755,0.,5.233595624294E-02));
#1226 = MANIFOLD_SOLID_BREP('',#1227);
#1227 = CLOSED_SHELL('',(#1228,#1261,#1270));
#1228 = ADVANCED_FACE('',(#1229),#1256,.T.);
#1229 = FACE_BOUND('',#1230,.T.);
#1230 = EDGE_LOOP('',(#1231,#1240,#1248,#1255));
#1231 = ORIENTED_EDGE('',*,*,#1232,.F.);
#1232 = EDGE_CURVE('',#1233,#1233,#1235,.T.);
#1233 = VERTEX_POINT('',#1234);
#1234 = CARTESIAN_POINT('',(-38.19236640834,-2.,6.493503353223));
#1235 = CIRCLE('',#1236,0.24);
#1236 = AXIS2_PLACEMENT_3D('',#1237,#1238,#1239);
#1237 = CARTESIAN_POINT('',(-38.43203749668,-2.,6.480942723725));
#1238 = DIRECTION('',(-5.233595624294E-02,0.,0.998629534755));
#1239 = DIRECTION('',(0.998629534755,0.,5.233595624294E-02));
#1240 = ORIENTED_EDGE('',*,*,#1241,.F.);
#1241 = EDGE_CURVE('',#1242,#1233,#1244,.T.);
#1242 = VERTEX_POINT('',#1243);
#1243 = CARTESIAN_POINT('',(-38.02279791011,-2.,3.257943660618));
#1244 = LINE('',#1245,#1246);
#1245 = CARTESIAN_POINT('',(-38.02279791011,-2.,3.257943660618));
#1246 = VECTOR('',#1247,1.);
#1247 = DIRECTION('',(-5.233595624294E-02,0.,0.998629534755));
#1248 = ORIENTED_EDGE('',*,*,#1249,.T.);
#1249 = EDGE_CURVE('',#1242,#1242,#1250,.T.);
#1250 = CIRCLE('',#1251,0.24);
#1251 = AXIS2_PLACEMENT_3D('',#1252,#1253,#1254);
#1252 = CARTESIAN_POINT('',(-38.26246899845,-2.,3.24538303112));
#1253 = DIRECTION('',(-5.233595624294E-02,0.,0.998629534755));
#1254 = DIRECTION('',(0.998629534755,0.,5.233595624294E-02));
#1255 = ORIENTED_EDGE('',*,*,#1241,.T.);
#1256 = CYLINDRICAL_SURFACE('',#1257,0.24);
#1257 = AXIS2_PLACEMENT_3D('',#1258,#1259,#1260);
#1258 = CARTESIAN_POINT('',(-38.26246899845,-2.,3.24538303112));
#1259 = DIRECTION('',(-5.233595624294E-02,0.,0.998629534755));
#1260 = DIRECTION('',(0.998629534755,0.,5.233595624294E-02));
#1261 = ADVANCED_FACE('',(#1262),#1265,.T.);
#1262 = FACE_BOUND('',#1263,.T.);
#1263 = EDGE_LOOP('',(#1264));
#1264 = ORIENTED_EDGE('',*,*,#1232,.T.);
#1265 = PLANE('',#1266);
#1266 = AXIS2_PLACEMENT_3D('',#1267,#1268,#1269);
#1267 = CARTESIAN_POINT('',(-38.43203749668,-2.,6.480942723725));
#1268 = DIRECTION('',(-5.233595624294E-02,0.,0.998629534755));
#1269 = DIRECTION('',(0.998629534755,0.,5.233595624294E-02));
#1270 = ADVANCED_FACE('',(#1271),#1274,.F.);
#1271 = FACE_BOUND('',#1272,.T.);
#1272 = EDGE_LOOP('',(#1273));
#1273 = ORIENTED_EDGE('',*,*,#1249,.F.);
#1274 = PLANE('',#1275);
#1275 = AXIS2_PLACEMENT_3D('',#1276,#1277,#1278);
#1276 = CARTESIAN_POINT('',(-38.26246899845,-2.,3.24538303112));
#1277 = DIRECTION('',(-5.233595624294E-02,0.,0.998629534755));
#1278 = DIRECTION('',(0.998629534755,0.,5.233595624294E-02));
#1279 = MANIFOLD_SOLID_BREP('',#1280);
#1280 = CLOSED_SHELL('',(#1281,#1308));
#1281 = ADVANCED_FACE('',(#1282),#1303,.T.);
#1282 = FACE_BOUND('',#1283,.T.);
#1283 = EDGE_LOOP('',(#1284,#1295,#1302));
#1284 = ORIENTED_EDGE('',*,*,#1285,.F.);
#1285 = EDGE_CURVE('',#1286,#1288,#1290,.T.);
#1286 = VERTEX_POINT('',#1287);
#1287 = CARTESIAN_POINT('',(-38.17980577884,-2.,6.253832264882));
#1288 = VERTEX_POINT('',#1289);
#1289 = CARTESIAN_POINT('',(-38.43203749668,-2.,6.480942723725));
#1290 = CIRCLE('',#1291,0.24);
#1291 = AXIS2_PLACEMENT_3D('',#1292,#1293,#1294);
#1292 = CARTESIAN_POINT('',(-38.41947686718,-2.,6.241271635383));
#1293 = DIRECTION('',(-2.445936926542E-16,-1.,-1.281861225865E-17));
#1294 = DIRECTION('',(0.998629534755,-2.449293598295E-16,
    5.233595624294E-02));
#1295 = ORIENTED_EDGE('',*,*,#1296,.T.);
#1296 = EDGE_CURVE('',#1286,#1286,#1297,.T.);
#1297 = CIRCLE('',#1298,0.24);
#1298 = AXIS2_PLACEMENT_3D('',#1299,#1300,#1301);
#1299 = CARTESIAN_POINT('',(-38.41947686718,-2.,6.241271635383));
#1300 = DIRECTION('',(-5.233595624294E-02,0.,0.998629534755));
#1301 = DIRECTION('',(0.998629534755,0.,5.233595624294E-02));
#1302 = ORIENTED_EDGE('',*,*,#1285,.T.);
#1303 = SPHERICAL_SURFACE('',#1304,0.24);
#1304 = AXIS2_PLACEMENT_3D('',#1305,#1306,#1307);
#1305 = CARTESIAN_POINT('',(-38.41947686718,-2.,6.241271635383));
#1306 = DIRECTION('',(-5.233595624294E-02,0.,0.998629534755));
#1307 = DIRECTION('',(0.998629534755,0.,5.233595624294E-02));
#1308 = ADVANCED_FACE('',(#1309),#1312,.F.);
#1309 = FACE_BOUND('',#1310,.T.);
#1310 = EDGE_LOOP('',(#1311));
#1311 = ORIENTED_EDGE('',*,*,#1296,.F.);
#1312 = PLANE('',#1313);
#1313 = AXIS2_PLACEMENT_3D('',#1314,#1315,#1316);
#1314 = CARTESIAN_POINT('',(-38.41947686718,-2.,6.241271635383));
#1315 = DIRECTION('',(-5.233595624294E-02,0.,0.998629534755));
#1316 = DIRECTION('',(0.998629534755,0.,5.233595624294E-02));
#1317 = MANIFOLD_SOLID_BREP('',#1318);
#1318 = CLOSED_SHELL('',(#1319,#1352,#1361));
#1319 = ADVANCED_FACE('',(#1320),#1347,.T.);
#1320 = FACE_BOUND('',#1321,.T.);
#1321 = EDGE_LOOP('',(#1322,#1331,#1339,#1346));
#1322 = ORIENTED_EDGE('',*,*,#1323,.F.);
#1323 = EDGE_CURVE('',#1324,#1324,#1326,.T.);
#1324 = VERTEX_POINT('',#1325);
#1325 = CARTESIAN_POINT('',(-36.68346022343,-2.,3.878890164786));
#1326 = CIRCLE('',#1327,0.34);
#1327 = AXIS2_PLACEMENT_3D('',#1328,#1329,#1330);
#1328 = CARTESIAN_POINT('',(-37.02299426525,-2.,3.861095939663));
#1329 = DIRECTION('',(-5.233595624294E-02,0.,0.998629534755));
#1330 = DIRECTION('',(0.998629534755,0.,5.233595624294E-02));
#1331 = ORIENTED_EDGE('',*,*,#1332,.F.);
#1332 = EDGE_CURVE('',#1333,#1324,#1335,.T.);
#1333 = VERTEX_POINT('',#1334);
#1334 = CARTESIAN_POINT('',(-36.62589067156,-2.,2.780397676556));
#1335 = LINE('',#1336,#1337);
#1336 = CARTESIAN_POINT('',(-36.62589067156,-2.,2.780397676556));
#1337 = VECTOR('',#1338,1.);
#1338 = DIRECTION('',(-5.233595624294E-02,0.,0.998629534755));
#1339 = ORIENTED_EDGE('',*,*,#1340,.T.);
#1340 = EDGE_CURVE('',#1333,#1333,#1341,.T.);
#1341 = CIRCLE('',#1342,0.34);
#1342 = AXIS2_PLACEMENT_3D('',#1343,#1344,#1345);
#1343 = CARTESIAN_POINT('',(-36.96542471338,-2.,2.762603451433));
#1344 = DIRECTION('',(-5.233595624294E-02,0.,0.998629534755));
#1345 = DIRECTION('',(0.998629534755,0.,5.233595624294E-02));
#1346 = ORIENTED_EDGE('',*,*,#1332,.T.);
#1347 = CYLINDRICAL_SURFACE('',#1348,0.34);
#1348 = AXIS2_PLACEMENT_3D('',#1349,#1350,#1351);
#1349 = CARTESIAN_POINT('',(-36.96542471338,-2.,2.762603451433));
#1350 = DIRECTION('',(-5.233595624294E-02,0.,0.998629534755));
#1351 = DIRECTION('',(0.998629534755,0.,5.233595624294E-02));
#1352 = ADVANCED_FACE('',(#1353),#1356,.T.);
#1353 = FACE_BOUND('',#1354,.T.);
#1354 = EDGE_LOOP('',(#1355));
#1355 = ORIENTED_EDGE('',*,*,#1323,.T.);
#1356 = PLANE('',#1357);
#1357 = AXIS2_PLACEMENT_3D('',#1358,#1359,#1360);
#1358 = CARTESIAN_POINT('',(-37.02299426525,-2.,3.861095939663));
#1359 = DIRECTION('',(-5.233595624294E-02,0.,0.998629534755));
#1360 = DIRECTION('',(0.998629534755,0.,5.233595624294E-02));
#1361 = ADVANCED_FACE('',(#1362),#1365,.F.);
#1362 = FACE_BOUND('',#1363,.T.);
#1363 = EDGE_LOOP('',(#1364));
#1364 = ORIENTED_EDGE('',*,*,#1340,.F.);
#1365 = PLANE('',#1366);
#1366 = AXIS2_PLACEMENT_3D('',#1367,#1368,#1369);
#1367 = CARTESIAN_POINT('',(-36.96542471338,-2.,2.762603451433));
#1368 = DIRECTION('',(-5.233595624294E-02,0.,0.998629534755));
#1369 = DIRECTION('',(0.998629534755,0.,5.233595624294E-02));
#1370 = MANIFOLD_SOLID_BREP('',#1371);
#1371 = CLOSED_SHELL('',(#1372,#1405,#1414));
#1372 = ADVANCED_FACE('',(#1373),#1400,.T.);
#1373 = FACE_BOUND('',#1374,.T.);
#1374 = EDGE_LOOP('',(#1375,#1384,#1392,#1399));
#1375 = ORIENTED_EDGE('',*,*,#1376,.F.);
#1376 = EDGE_CURVE('',#1377,#1377,#1379,.T.);
#1377 = VERTEX_POINT('',#1378);
#1378 = CARTESIAN_POINT('',(-36.9241068992,-2.,6.559970017651));
#1379 = CIRCLE('',#1380,0.24);
#1380 = AXIS2_PLACEMENT_3D('',#1381,#1382,#1383);
#1381 = CARTESIAN_POINT('',(-37.16377798754,-2.,6.547409388153));
#1382 = DIRECTION('',(-5.233595624294E-02,0.,0.998629534755));
#1383 = DIRECTION('',(0.998629534755,0.,5.233595624294E-02));
#1384 = ORIENTED_EDGE('',*,*,#1385,.F.);
#1385 = EDGE_CURVE('',#1386,#1377,#1388,.T.);
#1386 = VERTEX_POINT('',#1387);
#1387 = CARTESIAN_POINT('',(-36.75453840097,-2.,3.324410325047));
#1388 = LINE('',#1389,#1390);
#1389 = CARTESIAN_POINT('',(-36.75453840097,-2.,3.324410325047));
#1390 = VECTOR('',#1391,1.);
#1391 = DIRECTION('',(-5.233595624294E-02,0.,0.998629534755));
#1392 = ORIENTED_EDGE('',*,*,#1393,.T.);
#1393 = EDGE_CURVE('',#1386,#1386,#1394,.T.);
#1394 = CIRCLE('',#1395,0.24);
#1395 = AXIS2_PLACEMENT_3D('',#1396,#1397,#1398);
#1396 = CARTESIAN_POINT('',(-36.99420948932,-2.,3.311849695548));
#1397 = DIRECTION('',(-5.233595624294E-02,0.,0.998629534755));
#1398 = DIRECTION('',(0.998629534755,0.,5.233595624294E-02));
#1399 = ORIENTED_EDGE('',*,*,#1385,.T.);
#1400 = CYLINDRICAL_SURFACE('',#1401,0.24);
#1401 = AXIS2_PLACEMENT_3D('',#1402,#1403,#1404);
#1402 = CARTESIAN_POINT('',(-36.99420948932,-2.,3.311849695548));
#1403 = DIRECTION('',(-5.233595624294E-02,0.,0.998629534755));
#1404 = DIRECTION('',(0.998629534755,0.,5.233595624294E-02));
#1405 = ADVANCED_FACE('',(#1406),#1409,.T.);
#1406 = FACE_BOUND('',#1407,.T.);
#1407 = EDGE_LOOP('',(#1408));
#1408 = ORIENTED_EDGE('',*,*,#1376,.T.);
#1409 = PLANE('',#1410);
#1410 = AXIS2_PLACEMENT_3D('',#1411,#1412,#1413);
#1411 = CARTESIAN_POINT('',(-37.16377798754,-2.,6.547409388153));
#1412 = DIRECTION('',(-5.233595624294E-02,0.,0.998629534755));
#1413 = DIRECTION('',(0.998629534755,0.,5.233595624294E-02));
#1414 = ADVANCED_FACE('',(#1415),#1418,.F.);
#1415 = FACE_BOUND('',#1416,.T.);
#1416 = EDGE_LOOP('',(#1417));
#1417 = ORIENTED_EDGE('',*,*,#1393,.F.);
#1418 = PLANE('',#1419);
#1419 = AXIS2_PLACEMENT_3D('',#1420,#1421,#1422);
#1420 = CARTESIAN_POINT('',(-36.99420948932,-2.,3.311849695548));
#1421 = DIRECTION('',(-5.233595624294E-02,0.,0.998629534755));
#1422 = DIRECTION('',(0.998629534755,0.,5.233595624294E-02));
#1423 = MANIFOLD_SOLID_BREP('',#1424);
#1424 = CLOSED_SHELL('',(#1425,#1452));
#1425 = ADVANCED_FACE('',(#1426),#1447,.T.);
#1426 = FACE_BOUND('',#1427,.T.);
#1427 = EDGE_LOOP('',(#1428,#1439,#1446));
#1428 = ORIENTED_EDGE('',*,*,#1429,.F.);
#1429 = EDGE_CURVE('',#1430,#1432,#1434,.T.);
#1430 = VERTEX_POINT('',#1431);
#1431 = CARTESIAN_POINT('',(-36.9115462697,-2.,6.32029892931));
#1432 = VERTEX_POINT('',#1433);
#1433 = CARTESIAN_POINT('',(-37.16377798754,-2.,6.547409388153));
#1434 = CIRCLE('',#1435,0.24);
#1435 = AXIS2_PLACEMENT_3D('',#1436,#1437,#1438);
#1436 = CARTESIAN_POINT('',(-37.15121735804,-2.,6.307738299812));
#1437 = DIRECTION('',(-2.445936926542E-16,-1.,-1.281861225865E-17));
#1438 = DIRECTION('',(0.998629534755,-2.449293598295E-16,
    5.233595624294E-02));
#1439 = ORIENTED_EDGE('',*,*,#1440,.T.);
#1440 = EDGE_CURVE('',#1430,#1430,#1441,.T.);
#1441 = CIRCLE('',#1442,0.24);
#1442 = AXIS2_PLACEMENT_3D('',#1443,#1444,#1445);
#1443 = CARTESIAN_POINT('',(-37.15121735804,-2.,6.307738299812));
#1444 = DIRECTION('',(-5.233595624294E-02,0.,0.998629534755));
#1445 = DIRECTION('',(0.998629534755,0.,5.233595624294E-02));
#1446 = ORIENTED_EDGE('',*,*,#1429,.T.);
#1447 = SPHERICAL_SURFACE('',#1448,0.24);
#1448 = AXIS2_PLACEMENT_3D('',#1449,#1450,#1451);
#1449 = CARTESIAN_POINT('',(-37.15121735804,-2.,6.307738299812));
#1450 = DIRECTION('',(-5.233595624294E-02,0.,0.998629534755));
#1451 = DIRECTION('',(0.998629534755,0.,5.233595624294E-02));
#1452 = ADVANCED_FACE('',(#1453),#1456,.F.);
#1453 = FACE_BOUND('',#1454,.T.);
#1454 = EDGE_LOOP('',(#1455));
#1455 = ORIENTED_EDGE('',*,*,#1440,.F.);
#1456 = PLANE('',#1457);
#1457 = AXIS2_PLACEMENT_3D('',#1458,#1459,#1460);
#1458 = CARTESIAN_POINT('',(-37.15121735804,-2.,6.307738299812));
#1459 = DIRECTION('',(-5.233595624294E-02,0.,0.998629534755));
#1460 = DIRECTION('',(0.998629534755,0.,5.233595624294E-02));
#1461 = MANIFOLD_SOLID_BREP('',#1462);
#1462 = CLOSED_SHELL('',(#1463,#1496,#1505));
#1463 = ADVANCED_FACE('',(#1464),#1491,.T.);
#1464 = FACE_BOUND('',#1465,.T.);
#1465 = EDGE_LOOP('',(#1466,#1475,#1483,#1490));
#1466 = ORIENTED_EDGE('',*,*,#1467,.F.);
#1467 = EDGE_CURVE('',#1468,#1468,#1470,.T.);
#1468 = VERTEX_POINT('',#1469);
#1469 = CARTESIAN_POINT('',(-35.41520071429,-2.,3.945356829214));
#1470 = CIRCLE('',#1471,0.34);
#1471 = AXIS2_PLACEMENT_3D('',#1472,#1473,#1474);
#1472 = CARTESIAN_POINT('',(-35.75473475611,-2.,3.927562604092));
#1473 = DIRECTION('',(-5.233595624294E-02,0.,0.998629534755));
#1474 = DIRECTION('',(0.998629534755,0.,5.233595624294E-02));
#1475 = ORIENTED_EDGE('',*,*,#1476,.F.);
#1476 = EDGE_CURVE('',#1477,#1468,#1479,.T.);
#1477 = VERTEX_POINT('',#1478);
#1478 = CARTESIAN_POINT('',(-35.35763116243,-2.,2.846864340984));
#1479 = LINE('',#1480,#1481);
#1480 = CARTESIAN_POINT('',(-35.35763116243,-2.,2.846864340984));
#1481 = VECTOR('',#1482,1.);
#1482 = DIRECTION('',(-5.233595624294E-02,0.,0.998629534755));
#1483 = ORIENTED_EDGE('',*,*,#1484,.T.);
#1484 = EDGE_CURVE('',#1477,#1477,#1485,.T.);
#1485 = CIRCLE('',#1486,0.34);
#1486 = AXIS2_PLACEMENT_3D('',#1487,#1488,#1489);
#1487 = CARTESIAN_POINT('',(-35.69716520424,-2.,2.829070115862));
#1488 = DIRECTION('',(-5.233595624294E-02,0.,0.998629534755));
#1489 = DIRECTION('',(0.998629534755,0.,5.233595624294E-02));
#1490 = ORIENTED_EDGE('',*,*,#1476,.T.);
#1491 = CYLINDRICAL_SURFACE('',#1492,0.34);
#1492 = AXIS2_PLACEMENT_3D('',#1493,#1494,#1495);
#1493 = CARTESIAN_POINT('',(-35.69716520424,-2.,2.829070115862));
#1494 = DIRECTION('',(-5.233595624294E-02,0.,0.998629534755));
#1495 = DIRECTION('',(0.998629534755,0.,5.233595624294E-02));
#1496 = ADVANCED_FACE('',(#1497),#1500,.T.);
#1497 = FACE_BOUND('',#1498,.T.);
#1498 = EDGE_LOOP('',(#1499));
#1499 = ORIENTED_EDGE('',*,*,#1467,.T.);
#1500 = PLANE('',#1501);
#1501 = AXIS2_PLACEMENT_3D('',#1502,#1503,#1504);
#1502 = CARTESIAN_POINT('',(-35.75473475611,-2.,3.927562604092));
#1503 = DIRECTION('',(-5.233595624294E-02,0.,0.998629534755));
#1504 = DIRECTION('',(0.998629534755,0.,5.233595624294E-02));
#1505 = ADVANCED_FACE('',(#1506),#1509,.F.);
#1506 = FACE_BOUND('',#1507,.T.);
#1507 = EDGE_LOOP('',(#1508));
#1508 = ORIENTED_EDGE('',*,*,#1484,.F.);
#1509 = PLANE('',#1510);
#1510 = AXIS2_PLACEMENT_3D('',#1511,#1512,#1513);
#1511 = CARTESIAN_POINT('',(-35.69716520424,-2.,2.829070115862));
#1512 = DIRECTION('',(-5.233595624294E-02,0.,0.998629534755));
#1513 = DIRECTION('',(0.998629534755,0.,5.233595624294E-02));
#1514 = MANIFOLD_SOLID_BREP('',#1515);
#1515 = CLOSED_SHELL('',(#1516,#1549,#1558));
#1516 = ADVANCED_FACE('',(#1517),#1544,.T.);
#1517 = FACE_BOUND('',#1518,.T.);
#1518 = EDGE_LOOP('',(#1519,#1528,#1536,#1543));
#1519 = ORIENTED_EDGE('',*,*,#1520,.F.);
#1520 = EDGE_CURVE('',#1521,#1521,#1523,.T.);
#1521 = VERTEX_POINT('',#1522);
#1522 = CARTESIAN_POINT('',(-35.65584739006,-2.,6.62643668208));
#1523 = CIRCLE('',#1524,0.24);
#1524 = AXIS2_PLACEMENT_3D('',#1525,#1526,#1527);
#1525 = CARTESIAN_POINT('',(-35.8955184784,-2.,6.613876052582));
#1526 = DIRECTION('',(-5.233595624294E-02,0.,0.998629534755));
#1527 = DIRECTION('',(0.998629534755,0.,5.233595624294E-02));
#1528 = ORIENTED_EDGE('',*,*,#1529,.F.);
#1529 = EDGE_CURVE('',#1530,#1521,#1532,.T.);
#1530 = VERTEX_POINT('',#1531);
#1531 = CARTESIAN_POINT('',(-35.48627889184,-2.,3.390876989475));
#1532 = LINE('',#1533,#1534);
#1533 = CARTESIAN_POINT('',(-35.48627889184,-2.,3.390876989475));
#1534 = VECTOR('',#1535,1.);
#1535 = DIRECTION('',(-5.233595624294E-02,0.,0.998629534755));
#1536 = ORIENTED_EDGE('',*,*,#1537,.T.);
#1537 = EDGE_CURVE('',#1530,#1530,#1538,.T.);
#1538 = CIRCLE('',#1539,0.24);
#1539 = AXIS2_PLACEMENT_3D('',#1540,#1541,#1542);
#1540 = CARTESIAN_POINT('',(-35.72594998018,-2.,3.378316359977));
#1541 = DIRECTION('',(-5.233595624294E-02,0.,0.998629534755));
#1542 = DIRECTION('',(0.998629534755,0.,5.233595624294E-02));
#1543 = ORIENTED_EDGE('',*,*,#1529,.T.);
#1544 = CYLINDRICAL_SURFACE('',#1545,0.24);
#1545 = AXIS2_PLACEMENT_3D('',#1546,#1547,#1548);
#1546 = CARTESIAN_POINT('',(-35.72594998018,-2.,3.378316359977));
#1547 = DIRECTION('',(-5.233595624294E-02,0.,0.998629534755));
#1548 = DIRECTION('',(0.998629534755,0.,5.233595624294E-02));
#1549 = ADVANCED_FACE('',(#1550),#1553,.T.);
#1550 = FACE_BOUND('',#1551,.T.);
#1551 = EDGE_LOOP('',(#1552));
#1552 = ORIENTED_EDGE('',*,*,#1520,.T.);
#1553 = PLANE('',#1554);
#1554 = AXIS2_PLACEMENT_3D('',#1555,#1556,#1557);
#1555 = CARTESIAN_POINT('',(-35.8955184784,-2.,6.613876052582));
#1556 = DIRECTION('',(-5.233595624294E-02,0.,0.998629534755));
#1557 = DIRECTION('',(0.998629534755,0.,5.233595624294E-02));
#1558 = ADVANCED_FACE('',(#1559),#1562,.F.);
#1559 = FACE_BOUND('',#1560,.T.);
#1560 = EDGE_LOOP('',(#1561));
#1561 = ORIENTED_EDGE('',*,*,#1537,.F.);
#1562 = PLANE('',#1563);
#1563 = AXIS2_PLACEMENT_3D('',#1564,#1565,#1566);
#1564 = CARTESIAN_POINT('',(-35.72594998018,-2.,3.378316359977));
#1565 = DIRECTION('',(-5.233595624294E-02,0.,0.998629534755));
#1566 = DIRECTION('',(0.998629534755,0.,5.233595624294E-02));
#1567 = MANIFOLD_SOLID_BREP('',#1568);
#1568 = CLOSED_SHELL('',(#1569,#1596));
#1569 = ADVANCED_FACE('',(#1570),#1591,.T.);
#1570 = FACE_BOUND('',#1571,.T.);
#1571 = EDGE_LOOP('',(#1572,#1583,#1590));
#1572 = ORIENTED_EDGE('',*,*,#1573,.F.);
#1573 = EDGE_CURVE('',#1574,#1576,#1578,.T.);
#1574 = VERTEX_POINT('',#1575);
#1575 = CARTESIAN_POINT('',(-35.64328676056,-2.,6.386765593739));
#1576 = VERTEX_POINT('',#1577);
#1577 = CARTESIAN_POINT('',(-35.8955184784,-2.,6.613876052582));
#1578 = CIRCLE('',#1579,0.24);
#1579 = AXIS2_PLACEMENT_3D('',#1580,#1581,#1582);
#1580 = CARTESIAN_POINT('',(-35.88295784891,-2.,6.374204964241));
#1581 = DIRECTION('',(-2.445936926542E-16,-1.,-1.281861225865E-17));
#1582 = DIRECTION('',(0.998629534755,-2.449293598295E-16,
    5.233595624294E-02));
#1583 = ORIENTED_EDGE('',*,*,#1584,.T.);
#1584 = EDGE_CURVE('',#1574,#1574,#1585,.T.);
#1585 = CIRCLE('',#1586,0.24);
#1586 = AXIS2_PLACEMENT_3D('',#1587,#1588,#1589);
#1587 = CARTESIAN_POINT('',(-35.88295784891,-2.,6.374204964241));
#1588 = DIRECTION('',(-5.233595624294E-02,0.,0.998629534755));
#1589 = DIRECTION('',(0.998629534755,0.,5.233595624294E-02));
#1590 = ORIENTED_EDGE('',*,*,#1573,.T.);
#1591 = SPHERICAL_SURFACE('',#1592,0.24);
#1592 = AXIS2_PLACEMENT_3D('',#1593,#1594,#1595);
#1593 = CARTESIAN_POINT('',(-35.88295784891,-2.,6.374204964241));
#1594 = DIRECTION('',(-5.233595624294E-02,0.,0.998629534755));
#1595 = DIRECTION('',(0.998629534755,0.,5.233595624294E-02));
#1596 = ADVANCED_FACE('',(#1597),#1600,.F.);
#1597 = FACE_BOUND('',#1598,.T.);
#1598 = EDGE_LOOP('',(#1599));
#1599 = ORIENTED_EDGE('',*,*,#1584,.F.);
#1600 = PLANE('',#1601);
#1601 = AXIS2_PLACEMENT_3D('',#1602,#1603,#1604);
#1602 = CARTESIAN_POINT('',(-35.88295784891,-2.,6.374204964241));
#1603 = DIRECTION('',(-5.233595624294E-02,0.,0.998629534755));
#1604 = DIRECTION('',(0.998629534755,0.,5.233595624294E-02));
#1605 = MANIFOLD_SOLID_BREP('',#1606);
#1606 = CLOSED_SHELL('',(#1607,#1640,#1649));
#1607 = ADVANCED_FACE('',(#1608),#1635,.T.);
#1608 = FACE_BOUND('',#1609,.T.);
#1609 = EDGE_LOOP('',(#1610,#1619,#1627,#1634));
#1610 = ORIENTED_EDGE('',*,*,#1611,.F.);
#1611 = EDGE_CURVE('',#1612,#1612,#1614,.T.);
#1612 = VERTEX_POINT('',#1613);
#1613 = CARTESIAN_POINT('',(-34.14694120516,-2.,4.011823493643));
#1614 = CIRCLE('',#1615,0.34);
#1615 = AXIS2_PLACEMENT_3D('',#1616,#1617,#1618);
#1616 = CARTESIAN_POINT('',(-34.48647524697,-2.,3.99402926852));
#1617 = DIRECTION('',(-5.233595624294E-02,0.,0.998629534755));
#1618 = DIRECTION('',(0.998629534755,0.,5.233595624294E-02));
#1619 = ORIENTED_EDGE('',*,*,#1620,.F.);
#1620 = EDGE_CURVE('',#1621,#1612,#1623,.T.);
#1621 = VERTEX_POINT('',#1622);
#1622 = CARTESIAN_POINT('',(-34.08937165329,-2.,2.913331005413));
#1623 = LINE('',#1624,#1625);
#1624 = CARTESIAN_POINT('',(-34.08937165329,-2.,2.913331005413));
#1625 = VECTOR('',#1626,1.);
#1626 = DIRECTION('',(-5.233595624294E-02,0.,0.998629534755));
#1627 = ORIENTED_EDGE('',*,*,#1628,.T.);
#1628 = EDGE_CURVE('',#1621,#1621,#1629,.T.);
#1629 = CIRCLE('',#1630,0.34);
#1630 = AXIS2_PLACEMENT_3D('',#1631,#1632,#1633);
#1631 = CARTESIAN_POINT('',(-34.4289056951,-2.,2.89553678029));
#1632 = DIRECTION('',(-5.233595624294E-02,0.,0.998629534755));
#1633 = DIRECTION('',(0.998629534755,0.,5.233595624294E-02));
#1634 = ORIENTED_EDGE('',*,*,#1620,.T.);
#1635 = CYLINDRICAL_SURFACE('',#1636,0.34);
#1636 = AXIS2_PLACEMENT_3D('',#1637,#1638,#1639);
#1637 = CARTESIAN_POINT('',(-34.4289056951,-2.,2.89553678029));
#1638 = DIRECTION('',(-5.233595624294E-02,0.,0.998629534755));
#1639 = DIRECTION('',(0.998629534755,0.,5.233595624294E-02));
#1640 = ADVANCED_FACE('',(#1641),#1644,.T.);
#1641 = FACE_BOUND('',#1642,.T.);
#1642 = EDGE_LOOP('',(#1643));
#1643 = ORIENTED_EDGE('',*,*,#1611,.T.);
#1644 = PLANE('',#1645);
#1645 = AXIS2_PLACEMENT_3D('',#1646,#1647,#1648);
#1646 = CARTESIAN_POINT('',(-34.48647524697,-2.,3.99402926852));
#1647 = DIRECTION('',(-5.233595624294E-02,0.,0.998629534755));
#1648 = DIRECTION('',(0.998629534755,0.,5.233595624294E-02));
#1649 = ADVANCED_FACE('',(#1650),#1653,.F.);
#1650 = FACE_BOUND('',#1651,.T.);
#1651 = EDGE_LOOP('',(#1652));
#1652 = ORIENTED_EDGE('',*,*,#1628,.F.);
#1653 = PLANE('',#1654);
#1654 = AXIS2_PLACEMENT_3D('',#1655,#1656,#1657);
#1655 = CARTESIAN_POINT('',(-34.4289056951,-2.,2.89553678029));
#1656 = DIRECTION('',(-5.233595624294E-02,0.,0.998629534755));
#1657 = DIRECTION('',(0.998629534755,0.,5.233595624294E-02));
#1658 = MANIFOLD_SOLID_BREP('',#1659);
#1659 = CLOSED_SHELL('',(#1660,#1693,#1702));
#1660 = ADVANCED_FACE('',(#1661),#1688,.T.);
#1661 = FACE_BOUND('',#1662,.T.);
#1662 = EDGE_LOOP('',(#1663,#1672,#1680,#1687));
#1663 = ORIENTED_EDGE('',*,*,#1664,.F.);
#1664 = EDGE_CURVE('',#1665,#1665,#1667,.T.);
#1665 = VERTEX_POINT('',#1666);
#1666 = CARTESIAN_POINT('',(-34.38758788092,-2.,6.692903346508));
#1667 = CIRCLE('',#1668,0.24);
#1668 = AXIS2_PLACEMENT_3D('',#1669,#1670,#1671);
#1669 = CARTESIAN_POINT('',(-34.62725896927,-2.,6.68034271701));
#1670 = DIRECTION('',(-5.233595624294E-02,0.,0.998629534755));
#1671 = DIRECTION('',(0.998629534755,0.,5.233595624294E-02));
#1672 = ORIENTED_EDGE('',*,*,#1673,.F.);
#1673 = EDGE_CURVE('',#1674,#1665,#1676,.T.);
#1674 = VERTEX_POINT('',#1675);
#1675 = CARTESIAN_POINT('',(-34.2180193827,-2.,3.457343653904));
#1676 = LINE('',#1677,#1678);
#1677 = CARTESIAN_POINT('',(-34.2180193827,-2.,3.457343653904));
#1678 = VECTOR('',#1679,1.);
#1679 = DIRECTION('',(-5.233595624294E-02,0.,0.998629534755));
#1680 = ORIENTED_EDGE('',*,*,#1681,.T.);
#1681 = EDGE_CURVE('',#1674,#1674,#1682,.T.);
#1682 = CIRCLE('',#1683,0.24);
#1683 = AXIS2_PLACEMENT_3D('',#1684,#1685,#1686);
#1684 = CARTESIAN_POINT('',(-34.45769047104,-2.,3.444783024405));
#1685 = DIRECTION('',(-5.233595624294E-02,0.,0.998629534755));
#1686 = DIRECTION('',(0.998629534755,0.,5.233595624294E-02));
#1687 = ORIENTED_EDGE('',*,*,#1673,.T.);
#1688 = CYLINDRICAL_SURFACE('',#1689,0.24);
#1689 = AXIS2_PLACEMENT_3D('',#1690,#1691,#1692);
#1690 = CARTESIAN_POINT('',(-34.45769047104,-2.,3.444783024405));
#1691 = DIRECTION('',(-5.233595624294E-02,0.,0.998629534755));
#1692 = DIRECTION('',(0.998629534755,0.,5.233595624294E-02));
#1693 = ADVANCED_FACE('',(#1694),#1697,.T.);
#1694 = FACE_BOUND('',#1695,.T.);
#1695 = EDGE_LOOP('',(#1696));
#1696 = ORIENTED_EDGE('',*,*,#1664,.T.);
#1697 = PLANE('',#1698);
#1698 = AXIS2_PLACEMENT_3D('',#1699,#1700,#1701);
#1699 = CARTESIAN_POINT('',(-34.62725896927,-2.,6.68034271701));
#1700 = DIRECTION('',(-5.233595624294E-02,0.,0.998629534755));
#1701 = DIRECTION('',(0.998629534755,0.,5.233595624294E-02));
#1702 = ADVANCED_FACE('',(#1703),#1706,.F.);
#1703 = FACE_BOUND('',#1704,.T.);
#1704 = EDGE_LOOP('',(#1705));
#1705 = ORIENTED_EDGE('',*,*,#1681,.F.);
#1706 = PLANE('',#1707);
#1707 = AXIS2_PLACEMENT_3D('',#1708,#1709,#1710);
#1708 = CARTESIAN_POINT('',(-34.45769047104,-2.,3.444783024405));
#1709 = DIRECTION('',(-5.233595624294E-02,0.,0.998629534755));
#1710 = DIRECTION('',(0.998629534755,0.,5.233595624294E-02));
#1711 = MANIFOLD_SOLID_BREP('',#1712);
#1712 = CLOSED_SHELL('',(#1713,#1740));
#1713 = ADVANCED_FACE('',(#1714),#1735,.T.);
#1714 = FACE_BOUND('',#1715,.T.);
#1715 = EDGE_LOOP('',(#1716,#1727,#1734));
#1716 = ORIENTED_EDGE('',*,*,#1717,.F.);
#1717 = EDGE_CURVE('',#1718,#1720,#1722,.T.);
#1718 = VERTEX_POINT('',#1719);
#1719 = CARTESIAN_POINT('',(-34.37502725143,-2.,6.453232258167));
#1720 = VERTEX_POINT('',#1721);
#1721 = CARTESIAN_POINT('',(-34.62725896927,-2.,6.68034271701));
#1722 = CIRCLE('',#1723,0.24);
#1723 = AXIS2_PLACEMENT_3D('',#1724,#1725,#1726);
#1724 = CARTESIAN_POINT('',(-34.61469833977,-2.,6.440671628669));
#1725 = DIRECTION('',(-2.445936926542E-16,-1.,-1.281861225865E-17));
#1726 = DIRECTION('',(0.998629534755,-2.449293598295E-16,
    5.233595624294E-02));
#1727 = ORIENTED_EDGE('',*,*,#1728,.T.);
#1728 = EDGE_CURVE('',#1718,#1718,#1729,.T.);
#1729 = CIRCLE('',#1730,0.24);
#1730 = AXIS2_PLACEMENT_3D('',#1731,#1732,#1733);
#1731 = CARTESIAN_POINT('',(-34.61469833977,-2.,6.440671628669));
#1732 = DIRECTION('',(-5.233595624294E-02,0.,0.998629534755));
#1733 = DIRECTION('',(0.998629534755,0.,5.233595624294E-02));
#1734 = ORIENTED_EDGE('',*,*,#1717,.T.);
#1735 = SPHERICAL_SURFACE('',#1736,0.24);
#1736 = AXIS2_PLACEMENT_3D('',#1737,#1738,#1739);
#1737 = CARTESIAN_POINT('',(-34.61469833977,-2.,6.440671628669));
#1738 = DIRECTION('',(-5.233595624294E-02,0.,0.998629534755));
#1739 = DIRECTION('',(0.998629534755,0.,5.233595624294E-02));
#1740 = ADVANCED_FACE('',(#1741),#1744,.F.);
#1741 = FACE_BOUND('',#1742,.T.);
#1742 = EDGE_LOOP('',(#1743));
#1743 = ORIENTED_EDGE('',*,*,#1728,.F.);
#1744 = PLANE('',#1745);
#1745 = AXIS2_PLACEMENT_3D('',#1746,#1747,#1748);
#1746 = CARTESIAN_POINT('',(-34.61469833977,-2.,6.440671628669));
#1747 = DIRECTION('',(-5.233595624294E-02,0.,0.998629534755));
#1748 = DIRECTION('',(0.998629534755,0.,5.233595624294E-02));
#1749 = MANIFOLD_SOLID_BREP('',#1750);
#1750 = CLOSED_SHELL('',(#1751,#1784,#1793));
#1751 = ADVANCED_FACE('',(#1752),#1779,.T.);
#1752 = FACE_BOUND('',#1753,.T.);
#1753 = EDGE_LOOP('',(#1754,#1763,#1771,#1778));
#1754 = ORIENTED_EDGE('',*,*,#1755,.F.);
#1755 = EDGE_CURVE('',#1756,#1756,#1758,.T.);
#1756 = VERTEX_POINT('',#1757);
#1757 = CARTESIAN_POINT('',(-32.87868169602,-2.,4.078290158071));
#1758 = CIRCLE('',#1759,0.34);
#1759 = AXIS2_PLACEMENT_3D('',#1760,#1761,#1762);
#1760 = CARTESIAN_POINT('',(-33.21821573783,-2.,4.060495932949));
#1761 = DIRECTION('',(-5.233595624294E-02,0.,0.998629534755));
#1762 = DIRECTION('',(0.998629534755,0.,5.233595624294E-02));
#1763 = ORIENTED_EDGE('',*,*,#1764,.F.);
#1764 = EDGE_CURVE('',#1765,#1756,#1767,.T.);
#1765 = VERTEX_POINT('',#1766);
#1766 = CARTESIAN_POINT('',(-32.82111214415,-2.,2.979797669841));
#1767 = LINE('',#1768,#1769);
#1768 = CARTESIAN_POINT('',(-32.82111214415,-2.,2.979797669841));
#1769 = VECTOR('',#1770,1.);
#1770 = DIRECTION('',(-5.233595624294E-02,0.,0.998629534755));
#1771 = ORIENTED_EDGE('',*,*,#1772,.T.);
#1772 = EDGE_CURVE('',#1765,#1765,#1773,.T.);
#1773 = CIRCLE('',#1774,0.34);
#1774 = AXIS2_PLACEMENT_3D('',#1775,#1776,#1777);
#1775 = CARTESIAN_POINT('',(-33.16064618597,-2.,2.962003444719));
#1776 = DIRECTION('',(-5.233595624294E-02,0.,0.998629534755));
#1777 = DIRECTION('',(0.998629534755,0.,5.233595624294E-02));
#1778 = ORIENTED_EDGE('',*,*,#1764,.T.);
#1779 = CYLINDRICAL_SURFACE('',#1780,0.34);
#1780 = AXIS2_PLACEMENT_3D('',#1781,#1782,#1783);
#1781 = CARTESIAN_POINT('',(-33.16064618597,-2.,2.962003444719));
#1782 = DIRECTION('',(-5.233595624294E-02,0.,0.998629534755));
#1783 = DIRECTION('',(0.998629534755,0.,5.233595624294E-02));
#1784 = ADVANCED_FACE('',(#1785),#1788,.T.);
#1785 = FACE_BOUND('',#1786,.T.);
#1786 = EDGE_LOOP('',(#1787));
#1787 = ORIENTED_EDGE('',*,*,#1755,.T.);
#1788 = PLANE('',#1789);
#1789 = AXIS2_PLACEMENT_3D('',#1790,#1791,#1792);
#1790 = CARTESIAN_POINT('',(-33.21821573783,-2.,4.060495932949));
#1791 = DIRECTION('',(-5.233595624294E-02,0.,0.998629534755));
#1792 = DIRECTION('',(0.998629534755,0.,5.233595624294E-02));
#1793 = ADVANCED_FACE('',(#1794),#1797,.F.);
#1794 = FACE_BOUND('',#1795,.T.);
#1795 = EDGE_LOOP('',(#1796));
#1796 = ORIENTED_EDGE('',*,*,#1772,.F.);
#1797 = PLANE('',#1798);
#1798 = AXIS2_PLACEMENT_3D('',#1799,#1800,#1801);
#1799 = CARTESIAN_POINT('',(-33.16064618597,-2.,2.962003444719));
#1800 = DIRECTION('',(-5.233595624294E-02,0.,0.998629534755));
#1801 = DIRECTION('',(0.998629534755,0.,5.233595624294E-02));
#1802 = MANIFOLD_SOLID_BREP('',#1803);
#1803 = CLOSED_SHELL('',(#1804,#1837,#1846));
#1804 = ADVANCED_FACE('',(#1805),#1832,.T.);
#1805 = FACE_BOUND('',#1806,.T.);
#1806 = EDGE_LOOP('',(#1807,#1816,#1824,#1831));
#1807 = ORIENTED_EDGE('',*,*,#1808,.F.);
#1808 = EDGE_CURVE('',#1809,#1809,#1811,.T.);
#1809 = VERTEX_POINT('',#1810);
#1810 = CARTESIAN_POINT('',(-33.11932837179,-2.,6.759370010937));
#1811 = CIRCLE('',#1812,0.24);
#1812 = AXIS2_PLACEMENT_3D('',#1813,#1814,#1815);
#1813 = CARTESIAN_POINT('',(-33.35899946013,-2.,6.746809381439));
#1814 = DIRECTION('',(-5.233595624294E-02,0.,0.998629534755));
#1815 = DIRECTION('',(0.998629534755,0.,5.233595624294E-02));
#1816 = ORIENTED_EDGE('',*,*,#1817,.F.);
#1817 = EDGE_CURVE('',#1818,#1809,#1820,.T.);
#1818 = VERTEX_POINT('',#1819);
#1819 = CARTESIAN_POINT('',(-32.94975987356,-2.,3.523810318332));
#1820 = LINE('',#1821,#1822);
#1821 = CARTESIAN_POINT('',(-32.94975987356,-2.,3.523810318332));
#1822 = VECTOR('',#1823,1.);
#1823 = DIRECTION('',(-5.233595624294E-02,0.,0.998629534755));
#1824 = ORIENTED_EDGE('',*,*,#1825,.T.);
#1825 = EDGE_CURVE('',#1818,#1818,#1826,.T.);
#1826 = CIRCLE('',#1827,0.24);
#1827 = AXIS2_PLACEMENT_3D('',#1828,#1829,#1830);
#1828 = CARTESIAN_POINT('',(-33.1894309619,-2.,3.511249688834));
#1829 = DIRECTION('',(-5.233595624294E-02,0.,0.998629534755));
#1830 = DIRECTION('',(0.998629534755,0.,5.233595624294E-02));
#1831 = ORIENTED_EDGE('',*,*,#1817,.T.);
#1832 = CYLINDRICAL_SURFACE('',#1833,0.24);
#1833 = AXIS2_PLACEMENT_3D('',#1834,#1835,#1836);
#1834 = CARTESIAN_POINT('',(-33.1894309619,-2.,3.511249688834));
#1835 = DIRECTION('',(-5.233595624294E-02,0.,0.998629534755));
#1836 = DIRECTION('',(0.998629534755,0.,5.233595624294E-02));
#1837 = ADVANCED_FACE('',(#1838),#1841,.T.);
#1838 = FACE_BOUND('',#1839,.T.);
#1839 = EDGE_LOOP('',(#1840));
#1840 = ORIENTED_EDGE('',*,*,#1808,.T.);
#1841 = PLANE('',#1842);
#1842 = AXIS2_PLACEMENT_3D('',#1843,#1844,#1845);
#1843 = CARTESIAN_POINT('',(-33.35899946013,-2.,6.746809381439));
#1844 = DIRECTION('',(-5.233595624294E-02,0.,0.998629534755));
#1845 = DIRECTION('',(0.998629534755,0.,5.233595624294E-02));
#1846 = ADVANCED_FACE('',(#1847),#1850,.F.);
#1847 = FACE_BOUND('',#1848,.T.);
#1848 = EDGE_LOOP('',(#1849));
#1849 = ORIENTED_EDGE('',*,*,#1825,.F.);
#1850 = PLANE('',#1851);
#1851 = AXIS2_PLACEMENT_3D('',#1852,#1853,#1854);
#1852 = CARTESIAN_POINT('',(-33.1894309619,-2.,3.511249688834));
#1853 = DIRECTION('',(-5.233595624294E-02,0.,0.998629534755));
#1854 = DIRECTION('',(0.998629534755,0.,5.233595624294E-02));
#1855 = MANIFOLD_SOLID_BREP('',#1856);
#1856 = CLOSED_SHELL('',(#1857,#1884));
#1857 = ADVANCED_FACE('',(#1858),#1879,.T.);
#1858 = FACE_BOUND('',#1859,.T.);
#1859 = EDGE_LOOP('',(#1860,#1871,#1878));
#1860 = ORIENTED_EDGE('',*,*,#1861,.F.);
#1861 = EDGE_CURVE('',#1862,#1864,#1866,.T.);
#1862 = VERTEX_POINT('',#1863);
#1863 = CARTESIAN_POINT('',(-33.10676774229,-2.,6.519698922596));
#1864 = VERTEX_POINT('',#1865);
#1865 = CARTESIAN_POINT('',(-33.35899946013,-2.,6.746809381439));
#1866 = CIRCLE('',#1867,0.24);
#1867 = AXIS2_PLACEMENT_3D('',#1868,#1869,#1870);
#1868 = CARTESIAN_POINT('',(-33.34643883063,-2.,6.507138293098));
#1869 = DIRECTION('',(-2.445936926542E-16,-1.,-1.281861225865E-17));
#1870 = DIRECTION('',(0.998629534755,-2.449293598295E-16,
    5.233595624294E-02));
#1871 = ORIENTED_EDGE('',*,*,#1872,.T.);
#1872 = EDGE_CURVE('',#1862,#1862,#1873,.T.);
#1873 = CIRCLE('',#1874,0.24);
#1874 = AXIS2_PLACEMENT_3D('',#1875,#1876,#1877);
#1875 = CARTESIAN_POINT('',(-33.34643883063,-2.,6.507138293098));
#1876 = DIRECTION('',(-5.233595624294E-02,0.,0.998629534755));
#1877 = DIRECTION('',(0.998629534755,0.,5.233595624294E-02));
#1878 = ORIENTED_EDGE('',*,*,#1861,.T.);
#1879 = SPHERICAL_SURFACE('',#1880,0.24);
#1880 = AXIS2_PLACEMENT_3D('',#1881,#1882,#1883);
#1881 = CARTESIAN_POINT('',(-33.34643883063,-2.,6.507138293098));
#1882 = DIRECTION('',(-5.233595624294E-02,0.,0.998629534755));
#1883 = DIRECTION('',(0.998629534755,0.,5.233595624294E-02));
#1884 = ADVANCED_FACE('',(#1885),#1888,.F.);
#1885 = FACE_BOUND('',#1886,.T.);
#1886 = EDGE_LOOP('',(#1887));
#1887 = ORIENTED_EDGE('',*,*,#1872,.F.);
#1888 = PLANE('',#1889);
#1889 = AXIS2_PLACEMENT_3D('',#1890,#1891,#1892);
#1890 = CARTESIAN_POINT('',(-33.34643883063,-2.,6.507138293098));
#1891 = DIRECTION('',(-5.233595624294E-02,0.,0.998629534755));
#1892 = DIRECTION('',(0.998629534755,0.,5.233595624294E-02));
#1893 = ( GEOMETRIC_REPRESENTATION_CONTEXT(3) 
GLOBAL_UNCERTAINTY_ASSIGNED_CONTEXT((#1897)) 
GLOBAL_UNIT_ASSIGNED_CONTEXT((#1894,#1895,#1896)) REPRESENTATION_CONTEXT
('Context #1','3D Context with UNIT and UNCERTAINTY') );
#1894 = ( LENGTH_UNIT() NAMED_UNIT(*) SI_UNIT(.MILLI.,.METRE.) );
#1895 = ( NAMED_UNIT(*) PLANE_ANGLE_UNIT() SI_UNIT($,.RADIAN.) );
#1896 = ( NAMED_UNIT(*) SI_UNIT($,.STERADIAN.) SOLID_ANGLE_UNIT() );
#1897 = UNCERTAINTY_MEASURE_WITH_UNIT(LENGTH_MEASURE(1.E-07),#1894,
  'distance_accuracy_value','confusion accuracy');
#1898 = PRODUCT_RELATED_PRODUCT_CATEGORY('part',$,(#7));
ENDSEC;
END-ISO-10303-21;
