ISO-10303-21;
HEADER;
FILE_DESCRIPTION(('FreeCAD Model'),'2;1');
FILE_NAME('Open CASCADE Shape Model','2026-09-12T18:50:53',('Author'),(
    ''),'Open CASCADE STEP processor 7.8','FreeCAD','Unknown');
FILE_SCHEMA(('AUTOMOTIVE_DESIGN { 1 0 10303 214 1 1 1 1 }'));
ENDSEC;
DATA;
#1 = APPLICATION_PROTOCOL_DEFINITION('international standard',
  'automotive_design',2000,#2);
#2 = APPLICATION_CONTEXT(
  'core data for automotive mechanical design processes');
#3 = SHAPE_DEFINITION_REPRESENTATION(#4,#10);
#4 = PRODUCT_DEFINITION_SHAPE('','',#5);
#5 = PRODUCT_DEFINITION('design','',#6,#9);
#6 = PRODUCT_DEFINITION_FORMATION('','',#7);
#7 = PRODUCT('Left floating-head carrier','Left floating-head carrier',
  '',(#8));
#8 = PRODUCT_CONTEXT('',#2,'mechanical');
#9 = PRODUCT_DEFINITION_CONTEXT('part definition',#2,'design');
#10 = ADVANCED_BREP_SHAPE_REPRESENTATION('',(#11,#15),#495);
#11 = AXIS2_PLACEMENT_3D('',#12,#13,#14);
#12 = CARTESIAN_POINT('',(0.,0.,0.));
#13 = DIRECTION('',(0.,0.,1.));
#14 = DIRECTION('',(1.,0.,-0.));
#15 = MANIFOLD_SOLID_BREP('',#16);
#16 = CLOSED_SHELL('',(#17,#57,#88,#176,#200,#217,#252,#292,#316,#340,
    #364,#388,#412,#445,#462,#483));
#17 = ADVANCED_FACE('',(#18),#52,.F.);
#18 = FACE_BOUND('',#19,.F.);
#19 = EDGE_LOOP('',(#20,#30,#38,#46));
#20 = ORIENTED_EDGE('',*,*,#21,.F.);
#21 = EDGE_CURVE('',#22,#24,#26,.T.);
#22 = VERTEX_POINT('',#23);
#23 = CARTESIAN_POINT('',(-51.98355441705,-12.,-0.628031474915));
#24 = VERTEX_POINT('',#25);
#25 = CARTESIAN_POINT('',(-52.16149666828,-12.,2.76730894325));
#26 = LINE('',#27,#28);
#27 = CARTESIAN_POINT('',(-51.98355441705,-12.,-0.628031474915));
#28 = VECTOR('',#29,1.);
#29 = DIRECTION('',(-5.233595624294E-02,0.,0.998629534755));
#30 = ORIENTED_EDGE('',*,*,#31,.T.);
#31 = EDGE_CURVE('',#22,#32,#34,.T.);
#32 = VERTEX_POINT('',#33);
#33 = CARTESIAN_POINT('',(-51.98355441705,12.,-0.628031474915));
#34 = LINE('',#35,#36);
#35 = CARTESIAN_POINT('',(-51.98355441705,-12.,-0.628031474915));
#36 = VECTOR('',#37,1.);
#37 = DIRECTION('',(0.,1.,0.));
#38 = ORIENTED_EDGE('',*,*,#39,.T.);
#39 = EDGE_CURVE('',#32,#40,#42,.T.);
#40 = VERTEX_POINT('',#41);
#41 = CARTESIAN_POINT('',(-52.16149666828,12.,2.76730894325));
#42 = LINE('',#43,#44);
#43 = CARTESIAN_POINT('',(-51.98355441705,12.,-0.628031474915));
#44 = VECTOR('',#45,1.);
#45 = DIRECTION('',(-5.233595624294E-02,0.,0.998629534755));
#46 = ORIENTED_EDGE('',*,*,#47,.F.);
#47 = EDGE_CURVE('',#24,#40,#48,.T.);
#48 = LINE('',#49,#50);
#49 = CARTESIAN_POINT('',(-52.16149666828,-12.,2.76730894325));
#50 = VECTOR('',#51,1.);
#51 = DIRECTION('',(0.,1.,0.));
#52 = PLANE('',#53);
#53 = AXIS2_PLACEMENT_3D('',#54,#55,#56);
#54 = CARTESIAN_POINT('',(-51.98355441705,-12.,-0.628031474915));
#55 = DIRECTION('',(0.998629534755,0.,5.233595624294E-02));
#56 = DIRECTION('',(-5.233595624294E-02,0.,0.998629534755));
#57 = ADVANCED_FACE('',(#58),#83,.F.);
#58 = FACE_BOUND('',#59,.F.);
#59 = EDGE_LOOP('',(#60,#68,#69,#77));
#60 = ORIENTED_EDGE('',*,*,#61,.F.);
#61 = EDGE_CURVE('',#22,#62,#64,.T.);
#62 = VERTEX_POINT('',#63);
#63 = CARTESIAN_POINT('',(-28.01644558294,-12.,0.628031474915));
#64 = LINE('',#65,#66);
#65 = CARTESIAN_POINT('',(-51.98355441705,-12.,-0.628031474915));
#66 = VECTOR('',#67,1.);
#67 = DIRECTION('',(0.998629534755,0.,5.233595624294E-02));
#68 = ORIENTED_EDGE('',*,*,#21,.T.);
#69 = ORIENTED_EDGE('',*,*,#70,.T.);
#70 = EDGE_CURVE('',#24,#71,#73,.T.);
#71 = VERTEX_POINT('',#72);
#72 = CARTESIAN_POINT('',(-28.19438783417,-12.,4.023371893081));
#73 = LINE('',#74,#75);
#74 = CARTESIAN_POINT('',(-52.16149666828,-12.,2.76730894325));
#75 = VECTOR('',#76,1.);
#76 = DIRECTION('',(0.998629534755,0.,5.233595624294E-02));
#77 = ORIENTED_EDGE('',*,*,#78,.F.);
#78 = EDGE_CURVE('',#62,#71,#79,.T.);
#79 = LINE('',#80,#81);
#80 = CARTESIAN_POINT('',(-28.01644558294,-12.,0.628031474915));
#81 = VECTOR('',#82,1.);
#82 = DIRECTION('',(-5.233595624294E-02,0.,0.998629534755));
#83 = PLANE('',#84);
#84 = AXIS2_PLACEMENT_3D('',#85,#86,#87);
#85 = CARTESIAN_POINT('',(-51.98355441705,-12.,-0.628031474915));
#86 = DIRECTION('',(0.,1.,0.));
#87 = DIRECTION('',(-5.233595624294E-02,0.,0.998629534755));
#88 = ADVANCED_FACE('',(#89),#171,.T.);
#89 = FACE_BOUND('',#90,.T.);
#90 = EDGE_LOOP('',(#91,#99,#100,#101,#109,#117,#125,#133,#141,#149,#157
    ,#165));
#91 = ORIENTED_EDGE('',*,*,#92,.F.);
#92 = EDGE_CURVE('',#40,#93,#95,.T.);
#93 = VERTEX_POINT('',#94);
#94 = CARTESIAN_POINT('',(-28.19438783417,12.,4.023371893081));
#95 = LINE('',#96,#97);
#96 = CARTESIAN_POINT('',(-52.16149666828,12.,2.76730894325));
#97 = VECTOR('',#98,1.);
#98 = DIRECTION('',(0.998629534755,0.,5.233595624294E-02));
#99 = ORIENTED_EDGE('',*,*,#47,.F.);
#100 = ORIENTED_EDGE('',*,*,#70,.T.);
#101 = ORIENTED_EDGE('',*,*,#102,.T.);
#102 = EDGE_CURVE('',#71,#103,#105,.T.);
#103 = VERTEX_POINT('',#104);
#104 = CARTESIAN_POINT('',(-28.19438783417,-6.,4.023371893081));
#105 = LINE('',#106,#107);
#106 = CARTESIAN_POINT('',(-28.19438783417,-12.,4.023371893081));
#107 = VECTOR('',#108,1.);
#108 = DIRECTION('',(0.,1.,0.));
#109 = ORIENTED_EDGE('',*,*,#110,.T.);
#110 = EDGE_CURVE('',#103,#111,#113,.T.);
#111 = VERTEX_POINT('',#112);
#112 = CARTESIAN_POINT('',(-29.79219508977,-6.,3.939634363092));
#113 = LINE('',#114,#115);
#114 = CARTESIAN_POINT('',(-41.77574950683,-6.,3.311602888177));
#115 = VECTOR('',#116,1.);
#116 = DIRECTION('',(-0.998629534755,0.,-5.233595624294E-02));
#117 = ORIENTED_EDGE('',*,*,#118,.F.);
#118 = EDGE_CURVE('',#119,#111,#121,.T.);
#119 = VERTEX_POINT('',#120);
#120 = CARTESIAN_POINT('',(-29.79219508977,-10.4,3.939634363092));
#121 = LINE('',#122,#123);
#122 = CARTESIAN_POINT('',(-29.79219508977,-11.2,3.939634363092));
#123 = VECTOR('',#124,1.);
#124 = DIRECTION('',(0.,1.,0.));
#125 = ORIENTED_EDGE('',*,*,#126,.T.);
#126 = EDGE_CURVE('',#119,#127,#129,.T.);
#127 = VERTEX_POINT('',#128);
#128 = CARTESIAN_POINT('',(-50.56368941267,-10.4,2.851046473239));
#129 = LINE('',#130,#131);
#130 = CARTESIAN_POINT('',(-51.36259304047,-10.4,2.809177708245));
#131 = VECTOR('',#132,1.);
#132 = DIRECTION('',(-0.998629534755,0.,-5.233595624294E-02));
#133 = ORIENTED_EDGE('',*,*,#134,.T.);
#134 = EDGE_CURVE('',#127,#135,#137,.T.);
#135 = VERTEX_POINT('',#136);
#136 = CARTESIAN_POINT('',(-50.56368941267,10.4,2.851046473239));
#137 = LINE('',#138,#139);
#138 = CARTESIAN_POINT('',(-50.56368941267,-11.2,2.851046473239));
#139 = VECTOR('',#140,1.);
#140 = DIRECTION('',(0.,1.,0.));
#141 = ORIENTED_EDGE('',*,*,#142,.F.);
#142 = EDGE_CURVE('',#143,#135,#145,.T.);
#143 = VERTEX_POINT('',#144);
#144 = CARTESIAN_POINT('',(-29.79219508977,10.4,3.939634363092));
#145 = LINE('',#146,#147);
#146 = CARTESIAN_POINT('',(-51.36259304047,10.4,2.809177708245));
#147 = VECTOR('',#148,1.);
#148 = DIRECTION('',(-0.998629534755,0.,-5.233595624294E-02));
#149 = ORIENTED_EDGE('',*,*,#150,.F.);
#150 = EDGE_CURVE('',#151,#143,#153,.T.);
#151 = VERTEX_POINT('',#152);
#152 = CARTESIAN_POINT('',(-29.79219508977,6.,3.939634363092));
#153 = LINE('',#154,#155);
#154 = CARTESIAN_POINT('',(-29.79219508977,-11.2,3.939634363092));
#155 = VECTOR('',#156,1.);
#156 = DIRECTION('',(0.,1.,0.));
#157 = ORIENTED_EDGE('',*,*,#158,.F.);
#158 = EDGE_CURVE('',#159,#151,#161,.T.);
#159 = VERTEX_POINT('',#160);
#160 = CARTESIAN_POINT('',(-28.19438783417,6.,4.023371893081));
#161 = LINE('',#162,#163);
#162 = CARTESIAN_POINT('',(-41.77574950683,6.,3.311602888177));
#163 = VECTOR('',#164,1.);
#164 = DIRECTION('',(-0.998629534755,0.,-5.233595624294E-02));
#165 = ORIENTED_EDGE('',*,*,#166,.T.);
#166 = EDGE_CURVE('',#159,#93,#167,.T.);
#167 = LINE('',#168,#169);
#168 = CARTESIAN_POINT('',(-28.19438783417,-12.,4.023371893081));
#169 = VECTOR('',#170,1.);
#170 = DIRECTION('',(0.,1.,0.));
#171 = PLANE('',#172);
#172 = AXIS2_PLACEMENT_3D('',#173,#174,#175);
#173 = CARTESIAN_POINT('',(-52.16149666828,-12.,2.76730894325));
#174 = DIRECTION('',(-5.233595624294E-02,0.,0.998629534755));
#175 = DIRECTION('',(0.998629534755,0.,5.233595624294E-02));
#176 = ADVANCED_FACE('',(#177),#195,.T.);
#177 = FACE_BOUND('',#178,.T.);
#178 = EDGE_LOOP('',(#179,#187,#188,#189));
#179 = ORIENTED_EDGE('',*,*,#180,.F.);
#180 = EDGE_CURVE('',#32,#181,#183,.T.);
#181 = VERTEX_POINT('',#182);
#182 = CARTESIAN_POINT('',(-28.01644558294,12.,0.628031474915));
#183 = LINE('',#184,#185);
#184 = CARTESIAN_POINT('',(-51.98355441705,12.,-0.628031474915));
#185 = VECTOR('',#186,1.);
#186 = DIRECTION('',(0.998629534755,0.,5.233595624294E-02));
#187 = ORIENTED_EDGE('',*,*,#39,.T.);
#188 = ORIENTED_EDGE('',*,*,#92,.T.);
#189 = ORIENTED_EDGE('',*,*,#190,.F.);
#190 = EDGE_CURVE('',#181,#93,#191,.T.);
#191 = LINE('',#192,#193);
#192 = CARTESIAN_POINT('',(-28.01644558294,12.,0.628031474915));
#193 = VECTOR('',#194,1.);
#194 = DIRECTION('',(-5.233595624294E-02,0.,0.998629534755));
#195 = PLANE('',#196);
#196 = AXIS2_PLACEMENT_3D('',#197,#198,#199);
#197 = CARTESIAN_POINT('',(-51.98355441705,12.,-0.628031474915));
#198 = DIRECTION('',(0.,1.,0.));
#199 = DIRECTION('',(-5.233595624294E-02,0.,0.998629534755));
#200 = ADVANCED_FACE('',(#201),#212,.F.);
#201 = FACE_BOUND('',#202,.F.);
#202 = EDGE_LOOP('',(#203,#204,#205,#211));
#203 = ORIENTED_EDGE('',*,*,#31,.F.);
#204 = ORIENTED_EDGE('',*,*,#61,.T.);
#205 = ORIENTED_EDGE('',*,*,#206,.T.);
#206 = EDGE_CURVE('',#62,#181,#207,.T.);
#207 = LINE('',#208,#209);
#208 = CARTESIAN_POINT('',(-28.01644558294,-12.,0.628031474915));
#209 = VECTOR('',#210,1.);
#210 = DIRECTION('',(0.,1.,0.));
#211 = ORIENTED_EDGE('',*,*,#180,.F.);
#212 = PLANE('',#213);
#213 = AXIS2_PLACEMENT_3D('',#214,#215,#216);
#214 = CARTESIAN_POINT('',(-51.98355441705,-12.,-0.628031474915));
#215 = DIRECTION('',(-5.233595624294E-02,0.,0.998629534755));
#216 = DIRECTION('',(0.998629534755,0.,5.233595624294E-02));
#217 = ADVANCED_FACE('',(#218),#247,.T.);
#218 = FACE_BOUND('',#219,.T.);
#219 = EDGE_LOOP('',(#220,#221,#222,#223,#224,#225,#233,#241));
#220 = ORIENTED_EDGE('',*,*,#102,.F.);
#221 = ORIENTED_EDGE('',*,*,#78,.F.);
#222 = ORIENTED_EDGE('',*,*,#206,.T.);
#223 = ORIENTED_EDGE('',*,*,#190,.T.);
#224 = ORIENTED_EDGE('',*,*,#166,.F.);
#225 = ORIENTED_EDGE('',*,*,#226,.F.);
#226 = EDGE_CURVE('',#227,#159,#229,.T.);
#227 = VERTEX_POINT('',#228);
#228 = CARTESIAN_POINT('',(-28.06354794356,6.,1.526798056194));
#229 = LINE('',#230,#231);
#230 = CARTESIAN_POINT('',(-28.03999676325,6.,1.077414765555));
#231 = VECTOR('',#232,1.);
#232 = DIRECTION('',(-5.233595624294E-02,0.,0.998629534755));
#233 = ORIENTED_EDGE('',*,*,#234,.T.);
#234 = EDGE_CURVE('',#227,#235,#237,.T.);
#235 = VERTEX_POINT('',#236);
#236 = CARTESIAN_POINT('',(-28.06354794356,-6.,1.526798056194));
#237 = LINE('',#238,#239);
#238 = CARTESIAN_POINT('',(-28.06354794356,-9.,1.526798056194));
#239 = VECTOR('',#240,1.);
#240 = DIRECTION('',(0.,-1.,0.));
#241 = ORIENTED_EDGE('',*,*,#242,.T.);
#242 = EDGE_CURVE('',#235,#103,#243,.T.);
#243 = LINE('',#244,#245);
#244 = CARTESIAN_POINT('',(-28.03999676325,-6.,1.077414765555));
#245 = VECTOR('',#246,1.);
#246 = DIRECTION('',(-5.233595624294E-02,0.,0.998629534755));
#247 = PLANE('',#248);
#248 = AXIS2_PLACEMENT_3D('',#249,#250,#251);
#249 = CARTESIAN_POINT('',(-28.01644558294,-12.,0.628031474915));
#250 = DIRECTION('',(0.998629534755,0.,5.233595624294E-02));
#251 = DIRECTION('',(-5.233595624294E-02,0.,0.998629534755));
#252 = ADVANCED_FACE('',(#253),#287,.F.);
#253 = FACE_BOUND('',#254,.F.);
#254 = EDGE_LOOP('',(#255,#263,#271,#279,#285,#286));
#255 = ORIENTED_EDGE('',*,*,#256,.F.);
#256 = EDGE_CURVE('',#257,#227,#259,.T.);
#257 = VERTEX_POINT('',#258);
#258 = CARTESIAN_POINT('',(-31.25916245477,6.,1.359322996217));
#259 = LINE('',#260,#261);
#260 = CARTESIAN_POINT('',(-31.25916245477,6.,1.359322996217));
#261 = VECTOR('',#262,1.);
#262 = DIRECTION('',(0.998629534755,0.,5.233595624294E-02));
#263 = ORIENTED_EDGE('',*,*,#264,.T.);
#264 = EDGE_CURVE('',#257,#265,#267,.T.);
#265 = VERTEX_POINT('',#266);
#266 = CARTESIAN_POINT('',(-31.27486324165,6.,1.658911856643));
#267 = LINE('',#268,#269);
#268 = CARTESIAN_POINT('',(-31.25916245477,6.,1.359322996217));
#269 = VECTOR('',#270,1.);
#270 = DIRECTION('',(-5.233595624294E-02,0.,0.998629534755));
#271 = ORIENTED_EDGE('',*,*,#272,.F.);
#272 = EDGE_CURVE('',#273,#265,#275,.T.);
#273 = VERTEX_POINT('',#274);
#274 = CARTESIAN_POINT('',(-29.67705598604,6.,1.742649386632));
#275 = LINE('',#276,#277);
#276 = CARTESIAN_POINT('',(-40.86170677529,6.,1.156486676711));
#277 = VECTOR('',#278,1.);
#278 = DIRECTION('',(-0.998629534755,0.,-5.233595624294E-02));
#279 = ORIENTED_EDGE('',*,*,#280,.T.);
#280 = EDGE_CURVE('',#273,#151,#281,.T.);
#281 = LINE('',#282,#283);
#282 = CARTESIAN_POINT('',(-29.6692055926,6.,1.592854956419));
#283 = VECTOR('',#284,1.);
#284 = DIRECTION('',(-5.233595624294E-02,0.,0.998629534755));
#285 = ORIENTED_EDGE('',*,*,#158,.F.);
#286 = ORIENTED_EDGE('',*,*,#226,.F.);
#287 = PLANE('',#288);
#288 = AXIS2_PLACEMENT_3D('',#289,#290,#291);
#289 = CARTESIAN_POINT('',(-31.25916245477,6.,1.359322996217));
#290 = DIRECTION('',(0.,1.,0.));
#291 = DIRECTION('',(-5.233595624294E-02,0.,0.998629534755));
#292 = ADVANCED_FACE('',(#293),#311,.F.);
#293 = FACE_BOUND('',#294,.F.);
#294 = EDGE_LOOP('',(#295,#296,#304,#310));
#295 = ORIENTED_EDGE('',*,*,#280,.F.);
#296 = ORIENTED_EDGE('',*,*,#297,.T.);
#297 = EDGE_CURVE('',#273,#298,#300,.T.);
#298 = VERTEX_POINT('',#299);
#299 = CARTESIAN_POINT('',(-29.67705598604,10.4,1.742649386632));
#300 = LINE('',#301,#302);
#301 = CARTESIAN_POINT('',(-29.67705598604,-10.4,1.742649386632));
#302 = VECTOR('',#303,1.);
#303 = DIRECTION('',(0.,1.,0.));
#304 = ORIENTED_EDGE('',*,*,#305,.T.);
#305 = EDGE_CURVE('',#298,#143,#306,.T.);
#306 = LINE('',#307,#308);
#307 = CARTESIAN_POINT('',(-29.67705598604,10.4,1.742649386632));
#308 = VECTOR('',#309,1.);
#309 = DIRECTION('',(-5.233595624294E-02,0.,0.998629534755));
#310 = ORIENTED_EDGE('',*,*,#150,.F.);
#311 = PLANE('',#312);
#312 = AXIS2_PLACEMENT_3D('',#313,#314,#315);
#313 = CARTESIAN_POINT('',(-29.67705598604,-10.4,1.742649386632));
#314 = DIRECTION('',(0.998629534755,0.,5.233595624294E-02));
#315 = DIRECTION('',(-5.233595624294E-02,0.,0.998629534755));
#316 = ADVANCED_FACE('',(#317),#335,.F.);
#317 = FACE_BOUND('',#318,.F.);
#318 = EDGE_LOOP('',(#319,#320,#328,#334));
#319 = ORIENTED_EDGE('',*,*,#305,.F.);
#320 = ORIENTED_EDGE('',*,*,#321,.F.);
#321 = EDGE_CURVE('',#322,#298,#324,.T.);
#322 = VERTEX_POINT('',#323);
#323 = CARTESIAN_POINT('',(-50.44855030893,10.4,0.654061496779));
#324 = LINE('',#325,#326);
#325 = CARTESIAN_POINT('',(-50.44855030893,10.4,0.654061496779));
#326 = VECTOR('',#327,1.);
#327 = DIRECTION('',(0.998629534755,0.,5.233595624294E-02));
#328 = ORIENTED_EDGE('',*,*,#329,.T.);
#329 = EDGE_CURVE('',#322,#135,#330,.T.);
#330 = LINE('',#331,#332);
#331 = CARTESIAN_POINT('',(-50.44855030893,10.4,0.654061496779));
#332 = VECTOR('',#333,1.);
#333 = DIRECTION('',(-5.233595624294E-02,0.,0.998629534755));
#334 = ORIENTED_EDGE('',*,*,#142,.F.);
#335 = PLANE('',#336);
#336 = AXIS2_PLACEMENT_3D('',#337,#338,#339);
#337 = CARTESIAN_POINT('',(-50.44855030893,10.4,0.654061496779));
#338 = DIRECTION('',(0.,1.,0.));
#339 = DIRECTION('',(-5.233595624294E-02,0.,0.998629534755));
#340 = ADVANCED_FACE('',(#341),#359,.T.);
#341 = FACE_BOUND('',#342,.T.);
#342 = EDGE_LOOP('',(#343,#351,#357,#358));
#343 = ORIENTED_EDGE('',*,*,#344,.F.);
#344 = EDGE_CURVE('',#345,#127,#347,.T.);
#345 = VERTEX_POINT('',#346);
#346 = CARTESIAN_POINT('',(-50.44855030893,-10.4,0.654061496779));
#347 = LINE('',#348,#349);
#348 = CARTESIAN_POINT('',(-50.44855030893,-10.4,0.654061496779));
#349 = VECTOR('',#350,1.);
#350 = DIRECTION('',(-5.233595624294E-02,0.,0.998629534755));
#351 = ORIENTED_EDGE('',*,*,#352,.T.);
#352 = EDGE_CURVE('',#345,#322,#353,.T.);
#353 = LINE('',#354,#355);
#354 = CARTESIAN_POINT('',(-50.44855030893,-10.4,0.654061496779));
#355 = VECTOR('',#356,1.);
#356 = DIRECTION('',(0.,1.,0.));
#357 = ORIENTED_EDGE('',*,*,#329,.T.);
#358 = ORIENTED_EDGE('',*,*,#134,.F.);
#359 = PLANE('',#360);
#360 = AXIS2_PLACEMENT_3D('',#361,#362,#363);
#361 = CARTESIAN_POINT('',(-50.44855030893,-10.4,0.654061496779));
#362 = DIRECTION('',(0.998629534755,0.,5.233595624294E-02));
#363 = DIRECTION('',(-5.233595624294E-02,0.,0.998629534755));
#364 = ADVANCED_FACE('',(#365),#383,.T.);
#365 = FACE_BOUND('',#366,.T.);
#366 = EDGE_LOOP('',(#367,#375,#381,#382));
#367 = ORIENTED_EDGE('',*,*,#368,.F.);
#368 = EDGE_CURVE('',#369,#119,#371,.T.);
#369 = VERTEX_POINT('',#370);
#370 = CARTESIAN_POINT('',(-29.67705598604,-10.4,1.742649386632));
#371 = LINE('',#372,#373);
#372 = CARTESIAN_POINT('',(-29.67705598604,-10.4,1.742649386632));
#373 = VECTOR('',#374,1.);
#374 = DIRECTION('',(-5.233595624294E-02,0.,0.998629534755));
#375 = ORIENTED_EDGE('',*,*,#376,.F.);
#376 = EDGE_CURVE('',#345,#369,#377,.T.);
#377 = LINE('',#378,#379);
#378 = CARTESIAN_POINT('',(-50.44855030893,-10.4,0.654061496779));
#379 = VECTOR('',#380,1.);
#380 = DIRECTION('',(0.998629534755,0.,5.233595624294E-02));
#381 = ORIENTED_EDGE('',*,*,#344,.T.);
#382 = ORIENTED_EDGE('',*,*,#126,.F.);
#383 = PLANE('',#384);
#384 = AXIS2_PLACEMENT_3D('',#385,#386,#387);
#385 = CARTESIAN_POINT('',(-50.44855030893,-10.4,0.654061496779));
#386 = DIRECTION('',(0.,1.,0.));
#387 = DIRECTION('',(-5.233595624294E-02,0.,0.998629534755));
#388 = ADVANCED_FACE('',(#389),#407,.F.);
#389 = FACE_BOUND('',#390,.F.);
#390 = EDGE_LOOP('',(#391,#392,#400,#406));
#391 = ORIENTED_EDGE('',*,*,#368,.F.);
#392 = ORIENTED_EDGE('',*,*,#393,.T.);
#393 = EDGE_CURVE('',#369,#394,#396,.T.);
#394 = VERTEX_POINT('',#395);
#395 = CARTESIAN_POINT('',(-29.67705598604,-6.,1.742649386632));
#396 = LINE('',#397,#398);
#397 = CARTESIAN_POINT('',(-29.67705598604,-10.4,1.742649386632));
#398 = VECTOR('',#399,1.);
#399 = DIRECTION('',(0.,1.,0.));
#400 = ORIENTED_EDGE('',*,*,#401,.T.);
#401 = EDGE_CURVE('',#394,#111,#402,.T.);
#402 = LINE('',#403,#404);
#403 = CARTESIAN_POINT('',(-29.6692055926,-6.,1.592854956419));
#404 = VECTOR('',#405,1.);
#405 = DIRECTION('',(-5.233595624294E-02,0.,0.998629534755));
#406 = ORIENTED_EDGE('',*,*,#118,.F.);
#407 = PLANE('',#408);
#408 = AXIS2_PLACEMENT_3D('',#409,#410,#411);
#409 = CARTESIAN_POINT('',(-29.67705598604,-10.4,1.742649386632));
#410 = DIRECTION('',(0.998629534755,0.,5.233595624294E-02));
#411 = DIRECTION('',(-5.233595624294E-02,0.,0.998629534755));
#412 = ADVANCED_FACE('',(#413),#440,.T.);
#413 = FACE_BOUND('',#414,.T.);
#414 = EDGE_LOOP('',(#415,#423,#431,#437,#438,#439));
#415 = ORIENTED_EDGE('',*,*,#416,.F.);
#416 = EDGE_CURVE('',#417,#235,#419,.T.);
#417 = VERTEX_POINT('',#418);
#418 = CARTESIAN_POINT('',(-31.25916245477,-6.,1.359322996217));
#419 = LINE('',#420,#421);
#420 = CARTESIAN_POINT('',(-31.25916245477,-6.,1.359322996217));
#421 = VECTOR('',#422,1.);
#422 = DIRECTION('',(0.998629534755,0.,5.233595624294E-02));
#423 = ORIENTED_EDGE('',*,*,#424,.T.);
#424 = EDGE_CURVE('',#417,#425,#427,.T.);
#425 = VERTEX_POINT('',#426);
#426 = CARTESIAN_POINT('',(-31.27486324165,-6.,1.658911856643));
#427 = LINE('',#428,#429);
#428 = CARTESIAN_POINT('',(-31.25916245477,-6.,1.359322996217));
#429 = VECTOR('',#430,1.);
#430 = DIRECTION('',(-5.233595624294E-02,0.,0.998629534755));
#431 = ORIENTED_EDGE('',*,*,#432,.F.);
#432 = EDGE_CURVE('',#394,#425,#433,.T.);
#433 = LINE('',#434,#435);
#434 = CARTESIAN_POINT('',(-40.86170677529,-6.,1.156486676711));
#435 = VECTOR('',#436,1.);
#436 = DIRECTION('',(-0.998629534755,0.,-5.233595624294E-02));
#437 = ORIENTED_EDGE('',*,*,#401,.T.);
#438 = ORIENTED_EDGE('',*,*,#110,.F.);
#439 = ORIENTED_EDGE('',*,*,#242,.F.);
#440 = PLANE('',#441);
#441 = AXIS2_PLACEMENT_3D('',#442,#443,#444);
#442 = CARTESIAN_POINT('',(-31.25916245477,-6.,1.359322996217));
#443 = DIRECTION('',(0.,1.,0.));
#444 = DIRECTION('',(-5.233595624294E-02,0.,0.998629534755));
#445 = ADVANCED_FACE('',(#446),#457,.T.);
#446 = FACE_BOUND('',#447,.T.);
#447 = EDGE_LOOP('',(#448,#449,#455,#456));
#448 = ORIENTED_EDGE('',*,*,#256,.F.);
#449 = ORIENTED_EDGE('',*,*,#450,.F.);
#450 = EDGE_CURVE('',#417,#257,#451,.T.);
#451 = LINE('',#452,#453);
#452 = CARTESIAN_POINT('',(-31.25916245477,-6.,1.359322996217));
#453 = VECTOR('',#454,1.);
#454 = DIRECTION('',(0.,1.,0.));
#455 = ORIENTED_EDGE('',*,*,#416,.T.);
#456 = ORIENTED_EDGE('',*,*,#234,.F.);
#457 = PLANE('',#458);
#458 = AXIS2_PLACEMENT_3D('',#459,#460,#461);
#459 = CARTESIAN_POINT('',(-31.25916245477,-6.,1.359322996217));
#460 = DIRECTION('',(-5.233595624294E-02,0.,0.998629534755));
#461 = DIRECTION('',(0.998629534755,0.,5.233595624294E-02));
#462 = ADVANCED_FACE('',(#463),#478,.T.);
#463 = FACE_BOUND('',#464,.T.);
#464 = EDGE_LOOP('',(#465,#466,#467,#468,#469,#470,#476,#477));
#465 = ORIENTED_EDGE('',*,*,#321,.F.);
#466 = ORIENTED_EDGE('',*,*,#352,.F.);
#467 = ORIENTED_EDGE('',*,*,#376,.T.);
#468 = ORIENTED_EDGE('',*,*,#393,.T.);
#469 = ORIENTED_EDGE('',*,*,#432,.T.);
#470 = ORIENTED_EDGE('',*,*,#471,.T.);
#471 = EDGE_CURVE('',#425,#265,#472,.T.);
#472 = LINE('',#473,#474);
#473 = CARTESIAN_POINT('',(-31.27486324165,-8.2,1.658911856643));
#474 = VECTOR('',#475,1.);
#475 = DIRECTION('',(0.,1.,0.));
#476 = ORIENTED_EDGE('',*,*,#272,.F.);
#477 = ORIENTED_EDGE('',*,*,#297,.T.);
#478 = PLANE('',#479);
#479 = AXIS2_PLACEMENT_3D('',#480,#481,#482);
#480 = CARTESIAN_POINT('',(-50.44855030893,-10.4,0.654061496779));
#481 = DIRECTION('',(-5.233595624294E-02,0.,0.998629534755));
#482 = DIRECTION('',(0.998629534755,0.,5.233595624294E-02));
#483 = ADVANCED_FACE('',(#484),#490,.T.);
#484 = FACE_BOUND('',#485,.T.);
#485 = EDGE_LOOP('',(#486,#487,#488,#489));
#486 = ORIENTED_EDGE('',*,*,#424,.F.);
#487 = ORIENTED_EDGE('',*,*,#450,.T.);
#488 = ORIENTED_EDGE('',*,*,#264,.T.);
#489 = ORIENTED_EDGE('',*,*,#471,.F.);
#490 = PLANE('',#491);
#491 = AXIS2_PLACEMENT_3D('',#492,#493,#494);
#492 = CARTESIAN_POINT('',(-31.25916245477,-6.,1.359322996217));
#493 = DIRECTION('',(0.998629534755,0.,5.233595624294E-02));
#494 = DIRECTION('',(-5.233595624294E-02,0.,0.998629534755));
#495 = ( GEOMETRIC_REPRESENTATION_CONTEXT(3) 
GLOBAL_UNCERTAINTY_ASSIGNED_CONTEXT((#499)) GLOBAL_UNIT_ASSIGNED_CONTEXT
((#496,#497,#498)) REPRESENTATION_CONTEXT('Context #1',
  '3D Context with UNIT and UNCERTAINTY') );
#496 = ( LENGTH_UNIT() NAMED_UNIT(*) SI_UNIT(.MILLI.,.METRE.) );
#497 = ( NAMED_UNIT(*) PLANE_ANGLE_UNIT() SI_UNIT($,.RADIAN.) );
#498 = ( NAMED_UNIT(*) SI_UNIT($,.STERADIAN.) SOLID_ANGLE_UNIT() );
#499 = UNCERTAINTY_MEASURE_WITH_UNIT(LENGTH_MEASURE(1.E-07),#496,
  'distance_accuracy_value','confusion accuracy');
#500 = PRODUCT_RELATED_PRODUCT_CATEGORY('part',$,(#7));
ENDSEC;
END-ISO-10303-21;
