ISO-10303-21;
HEADER;
FILE_DESCRIPTION(('FreeCAD Model'),'2;1');
FILE_NAME('Open CASCADE Shape Model','2026-09-12T13:40:34',('Author'),(
    ''),'Open CASCADE STEP processor 7.8','FreeCAD','Unknown');
FILE_SCHEMA(('AUTOMOTIVE_DESIGN { 1 0 10303 214 1 1 1 1 }'));
ENDSEC;
DATA;
#1 = APPLICATION_PROTOCOL_DEFINITION('international standard',
  'automotive_design',2000,#2);
#2 = APPLICATION_CONTEXT(
  'core data for automotive mechanical design processes');
#3 = SHAPE_DEFINITION_REPRESENTATION(#4,#10);
#4 = PRODUCT_DEFINITION_SHAPE('','',#5);
#5 = PRODUCT_DEFINITION('design','',#6,#9);
#6 = PRODUCT_DEFINITION_FORMATION('','',#7);
#7 = PRODUCT('Right direct Hall-PCB target',
  'Right direct Hall-PCB target','',(#8));
#8 = PRODUCT_CONTEXT('',#2,'mechanical');
#9 = PRODUCT_DEFINITION_CONTEXT('part definition',#2,'design');
#10 = SHAPE_REPRESENTATION('',(#11,#15,#165,#218,#271,#324,#377,#430,
    #483,#536,#589,#642,#695,#748,#801,#854,#907,#960,#1013,#1066,#1119,
    #1172,#1225,#1278,#1331,#1384),#1437);
#11 = AXIS2_PLACEMENT_3D('',#12,#13,#14);
#12 = CARTESIAN_POINT('',(0.,0.,0.));
#13 = DIRECTION('',(0.,0.,1.));
#14 = DIRECTION('',(1.,0.,-0.));
#15 = MANIFOLD_SOLID_BREP('',#16);
#16 = CLOSED_SHELL('',(#17,#57,#97,#119,#141,#153));
#17 = ADVANCED_FACE('',(#18),#52,.F.);
#18 = FACE_BOUND('',#19,.F.);
#19 = EDGE_LOOP('',(#20,#30,#38,#46));
#20 = ORIENTED_EDGE('',*,*,#21,.F.);
#21 = EDGE_CURVE('',#22,#24,#26,.T.);
#22 = VERTEX_POINT('',#23);
#23 = CARTESIAN_POINT('',(33.64826887524,-2.95,8.208905939207));
#24 = VERTEX_POINT('',#25);
#25 = CARTESIAN_POINT('',(33.763250184834,-2.95,9.302880024113));
#26 = LINE('',#27,#28);
#27 = CARTESIAN_POINT('',(33.64826887524,-2.95,8.208905939207));
#28 = VECTOR('',#29,1.);
#29 = DIRECTION('',(0.104528463268,0.,0.994521895368));
#30 = ORIENTED_EDGE('',*,*,#31,.T.);
#31 = EDGE_CURVE('',#22,#32,#34,.T.);
#32 = VERTEX_POINT('',#33);
#33 = CARTESIAN_POINT('',(33.64826887524,-1.05,8.208905939207));
#34 = LINE('',#35,#36);
#35 = CARTESIAN_POINT('',(33.64826887524,-2.95,8.208905939207));
#36 = VECTOR('',#37,1.);
#37 = DIRECTION('',(0.,1.,0.));
#38 = ORIENTED_EDGE('',*,*,#39,.T.);
#39 = EDGE_CURVE('',#32,#40,#42,.T.);
#40 = VERTEX_POINT('',#41);
#41 = CARTESIAN_POINT('',(33.763250184834,-1.05,9.302880024113));
#42 = LINE('',#43,#44);
#43 = CARTESIAN_POINT('',(33.64826887524,-1.05,8.208905939207));
#44 = VECTOR('',#45,1.);
#45 = DIRECTION('',(0.104528463268,0.,0.994521895368));
#46 = ORIENTED_EDGE('',*,*,#47,.F.);
#47 = EDGE_CURVE('',#24,#40,#48,.T.);
#48 = LINE('',#49,#50);
#49 = CARTESIAN_POINT('',(33.763250184834,-2.95,9.302880024113));
#50 = VECTOR('',#51,1.);
#51 = DIRECTION('',(0.,1.,0.));
#52 = PLANE('',#53);
#53 = AXIS2_PLACEMENT_3D('',#54,#55,#56);
#54 = CARTESIAN_POINT('',(33.64826887524,-2.95,8.208905939207));
#55 = DIRECTION('',(0.994521895368,0.,-0.104528463268));
#56 = DIRECTION('',(0.104528463268,0.,0.994521895368));
#57 = ADVANCED_FACE('',(#58),#92,.T.);
#58 = FACE_BOUND('',#59,.T.);
#59 = EDGE_LOOP('',(#60,#70,#78,#86));
#60 = ORIENTED_EDGE('',*,*,#61,.F.);
#61 = EDGE_CURVE('',#62,#64,#66,.T.);
#62 = VERTEX_POINT('',#63);
#63 = CARTESIAN_POINT('',(47.919658073775,-2.95,6.708922491317));
#64 = VERTEX_POINT('',#65);
#65 = CARTESIAN_POINT('',(48.034639383369,-2.95,7.802896576222));
#66 = LINE('',#67,#68);
#67 = CARTESIAN_POINT('',(47.919658073775,-2.95,6.708922491317));
#68 = VECTOR('',#69,1.);
#69 = DIRECTION('',(0.104528463268,0.,0.994521895368));
#70 = ORIENTED_EDGE('',*,*,#71,.T.);
#71 = EDGE_CURVE('',#62,#72,#74,.T.);
#72 = VERTEX_POINT('',#73);
#73 = CARTESIAN_POINT('',(47.919658073775,-1.05,6.708922491317));
#74 = LINE('',#75,#76);
#75 = CARTESIAN_POINT('',(47.919658073775,-2.95,6.708922491317));
#76 = VECTOR('',#77,1.);
#77 = DIRECTION('',(0.,1.,0.));
#78 = ORIENTED_EDGE('',*,*,#79,.T.);
#79 = EDGE_CURVE('',#72,#80,#82,.T.);
#80 = VERTEX_POINT('',#81);
#81 = CARTESIAN_POINT('',(48.034639383369,-1.05,7.802896576222));
#82 = LINE('',#83,#84);
#83 = CARTESIAN_POINT('',(47.919658073775,-1.05,6.708922491317));
#84 = VECTOR('',#85,1.);
#85 = DIRECTION('',(0.104528463268,0.,0.994521895368));
#86 = ORIENTED_EDGE('',*,*,#87,.F.);
#87 = EDGE_CURVE('',#64,#80,#88,.T.);
#88 = LINE('',#89,#90);
#89 = CARTESIAN_POINT('',(48.034639383369,-2.95,7.802896576222));
#90 = VECTOR('',#91,1.);
#91 = DIRECTION('',(0.,1.,0.));
#92 = PLANE('',#93);
#93 = AXIS2_PLACEMENT_3D('',#94,#95,#96);
#94 = CARTESIAN_POINT('',(47.919658073775,-2.95,6.708922491317));
#95 = DIRECTION('',(0.994521895368,0.,-0.104528463268));
#96 = DIRECTION('',(0.104528463268,0.,0.994521895368));
#97 = ADVANCED_FACE('',(#98),#114,.F.);
#98 = FACE_BOUND('',#99,.F.);
#99 = EDGE_LOOP('',(#100,#106,#107,#113));
#100 = ORIENTED_EDGE('',*,*,#101,.F.);
#101 = EDGE_CURVE('',#22,#62,#102,.T.);
#102 = LINE('',#103,#104);
#103 = CARTESIAN_POINT('',(33.64826887524,-2.95,8.208905939207));
#104 = VECTOR('',#105,1.);
#105 = DIRECTION('',(0.994521895368,0.,-0.104528463268));
#106 = ORIENTED_EDGE('',*,*,#21,.T.);
#107 = ORIENTED_EDGE('',*,*,#108,.T.);
#108 = EDGE_CURVE('',#24,#64,#109,.T.);
#109 = LINE('',#110,#111);
#110 = CARTESIAN_POINT('',(33.763250184834,-2.95,9.302880024113));
#111 = VECTOR('',#112,1.);
#112 = DIRECTION('',(0.994521895368,0.,-0.104528463268));
#113 = ORIENTED_EDGE('',*,*,#61,.F.);
#114 = PLANE('',#115);
#115 = AXIS2_PLACEMENT_3D('',#116,#117,#118);
#116 = CARTESIAN_POINT('',(33.64826887524,-2.95,8.208905939207));
#117 = DIRECTION('',(0.,1.,0.));
#118 = DIRECTION('',(0.104528463268,0.,0.994521895368));
#119 = ADVANCED_FACE('',(#120),#136,.T.);
#120 = FACE_BOUND('',#121,.T.);
#121 = EDGE_LOOP('',(#122,#128,#129,#135));
#122 = ORIENTED_EDGE('',*,*,#123,.F.);
#123 = EDGE_CURVE('',#32,#72,#124,.T.);
#124 = LINE('',#125,#126);
#125 = CARTESIAN_POINT('',(33.64826887524,-1.05,8.208905939207));
#126 = VECTOR('',#127,1.);
#127 = DIRECTION('',(0.994521895368,0.,-0.104528463268));
#128 = ORIENTED_EDGE('',*,*,#39,.T.);
#129 = ORIENTED_EDGE('',*,*,#130,.T.);
#130 = EDGE_CURVE('',#40,#80,#131,.T.);
#131 = LINE('',#132,#133);
#132 = CARTESIAN_POINT('',(33.763250184834,-1.05,9.302880024113));
#133 = VECTOR('',#134,1.);
#134 = DIRECTION('',(0.994521895368,0.,-0.104528463268));
#135 = ORIENTED_EDGE('',*,*,#79,.F.);
#136 = PLANE('',#137);
#137 = AXIS2_PLACEMENT_3D('',#138,#139,#140);
#138 = CARTESIAN_POINT('',(33.64826887524,-1.05,8.208905939207));
#139 = DIRECTION('',(0.,1.,0.));
#140 = DIRECTION('',(0.104528463268,0.,0.994521895368));
#141 = ADVANCED_FACE('',(#142),#148,.F.);
#142 = FACE_BOUND('',#143,.F.);
#143 = EDGE_LOOP('',(#144,#145,#146,#147));
#144 = ORIENTED_EDGE('',*,*,#31,.F.);
#145 = ORIENTED_EDGE('',*,*,#101,.T.);
#146 = ORIENTED_EDGE('',*,*,#71,.T.);
#147 = ORIENTED_EDGE('',*,*,#123,.F.);
#148 = PLANE('',#149);
#149 = AXIS2_PLACEMENT_3D('',#150,#151,#152);
#150 = CARTESIAN_POINT('',(33.64826887524,-2.95,8.208905939207));
#151 = DIRECTION('',(0.104528463268,0.,0.994521895368));
#152 = DIRECTION('',(0.994521895368,0.,-0.104528463268));
#153 = ADVANCED_FACE('',(#154),#160,.T.);
#154 = FACE_BOUND('',#155,.T.);
#155 = EDGE_LOOP('',(#156,#157,#158,#159));
#156 = ORIENTED_EDGE('',*,*,#47,.F.);
#157 = ORIENTED_EDGE('',*,*,#108,.T.);
#158 = ORIENTED_EDGE('',*,*,#87,.T.);
#159 = ORIENTED_EDGE('',*,*,#130,.F.);
#160 = PLANE('',#161);
#161 = AXIS2_PLACEMENT_3D('',#162,#163,#164);
#162 = CARTESIAN_POINT('',(33.763250184834,-2.95,9.302880024113));
#163 = DIRECTION('',(0.104528463268,0.,0.994521895368));
#164 = DIRECTION('',(0.994521895368,0.,-0.104528463268));
#165 = MANIFOLD_SOLID_BREP('',#166);
#166 = CLOSED_SHELL('',(#167,#200,#209));
#167 = ADVANCED_FACE('',(#168),#195,.T.);
#168 = FACE_BOUND('',#169,.T.);
#169 = EDGE_LOOP('',(#170,#179,#187,#194));
#170 = ORIENTED_EDGE('',*,*,#171,.F.);
#171 = EDGE_CURVE('',#172,#172,#174,.T.);
#172 = VERTEX_POINT('',#173);
#173 = CARTESIAN_POINT('',(34.279402770972,-2.,7.277833973322));
#174 = CIRCLE('',#175,0.535);
#175 = AXIS2_PLACEMENT_3D('',#176,#177,#178);
#176 = CARTESIAN_POINT('',(33.74733355695,-2.,7.33375670117));
#177 = DIRECTION('',(0.104528463268,-0.,0.994521895368));
#178 = DIRECTION('',(0.994521895368,0.,-0.104528463268));
#179 = ORIENTED_EDGE('',*,*,#180,.F.);
#180 = EDGE_CURVE('',#181,#172,#183,.T.);
#181 = VERTEX_POINT('',#182);
#182 = CARTESIAN_POINT('',(34.253270655155,-2.,7.02920349948));
#183 = LINE('',#184,#185);
#184 = CARTESIAN_POINT('',(34.253270655155,-2.,7.02920349948));
#185 = VECTOR('',#186,1.);
#186 = DIRECTION('',(0.104528463268,0.,0.994521895368));
#187 = ORIENTED_EDGE('',*,*,#188,.T.);
#188 = EDGE_CURVE('',#181,#181,#189,.T.);
#189 = CIRCLE('',#190,0.535);
#190 = AXIS2_PLACEMENT_3D('',#191,#192,#193);
#191 = CARTESIAN_POINT('',(33.721201441133,-2.,7.085126227328));
#192 = DIRECTION('',(0.104528463268,-0.,0.994521895368));
#193 = DIRECTION('',(0.994521895368,0.,-0.104528463268));
#194 = ORIENTED_EDGE('',*,*,#180,.T.);
#195 = CYLINDRICAL_SURFACE('',#196,0.535);
#196 = AXIS2_PLACEMENT_3D('',#197,#198,#199);
#197 = CARTESIAN_POINT('',(33.721201441133,-2.,7.085126227328));
#198 = DIRECTION('',(0.104528463268,0.,0.994521895368));
#199 = DIRECTION('',(0.994521895368,0.,-0.104528463268));
#200 = ADVANCED_FACE('',(#201),#204,.T.);
#201 = FACE_BOUND('',#202,.T.);
#202 = EDGE_LOOP('',(#203));
#203 = ORIENTED_EDGE('',*,*,#171,.T.);
#204 = PLANE('',#205);
#205 = AXIS2_PLACEMENT_3D('',#206,#207,#208);
#206 = CARTESIAN_POINT('',(33.74733355695,-2.,7.33375670117));
#207 = DIRECTION('',(0.104528463268,0.,0.994521895368));
#208 = DIRECTION('',(0.994521895368,0.,-0.104528463268));
#209 = ADVANCED_FACE('',(#210),#213,.F.);
#210 = FACE_BOUND('',#211,.T.);
#211 = EDGE_LOOP('',(#212));
#212 = ORIENTED_EDGE('',*,*,#188,.F.);
#213 = PLANE('',#214);
#214 = AXIS2_PLACEMENT_3D('',#215,#216,#217);
#215 = CARTESIAN_POINT('',(33.721201441133,-2.,7.085126227328));
#216 = DIRECTION('',(0.104528463268,0.,0.994521895368));
#217 = DIRECTION('',(0.994521895368,0.,-0.104528463268));
#218 = MANIFOLD_SOLID_BREP('',#219);
#219 = CLOSED_SHELL('',(#220,#253,#262));
#220 = ADVANCED_FACE('',(#221),#248,.T.);
#221 = FACE_BOUND('',#222,.T.);
#222 = EDGE_LOOP('',(#223,#232,#240,#247));
#223 = ORIENTED_EDGE('',*,*,#224,.F.);
#224 = EDGE_CURVE('',#225,#225,#227,.T.);
#225 = VERTEX_POINT('',#226);
#226 = CARTESIAN_POINT('',(34.280401570426,-2.,9.248525223213));
#227 = CIRCLE('',#228,0.33);
#228 = AXIS2_PLACEMENT_3D('',#229,#230,#231);
#229 = CARTESIAN_POINT('',(33.952209344954,-2.,9.283019616092));
#230 = DIRECTION('',(0.104528463268,-0.,0.994521895368));
#231 = DIRECTION('',(0.994521895368,0.,-0.104528463268));
#232 = ORIENTED_EDGE('',*,*,#233,.F.);
#233 = EDGE_CURVE('',#234,#225,#236,.T.);
#234 = VERTEX_POINT('',#235);
#235 = CARTESIAN_POINT('',(34.049393666604,-2.,7.050631834449));
#236 = LINE('',#237,#238);
#237 = CARTESIAN_POINT('',(34.049393666604,-2.,7.050631834449));
#238 = VECTOR('',#239,1.);
#239 = DIRECTION('',(0.104528463268,0.,0.994521895368));
#240 = ORIENTED_EDGE('',*,*,#241,.T.);
#241 = EDGE_CURVE('',#234,#234,#242,.T.);
#242 = CIRCLE('',#243,0.33);
#243 = AXIS2_PLACEMENT_3D('',#244,#245,#246);
#244 = CARTESIAN_POINT('',(33.721201441133,-2.,7.085126227328));
#245 = DIRECTION('',(0.104528463268,-0.,0.994521895368));
#246 = DIRECTION('',(0.994521895368,0.,-0.104528463268));
#247 = ORIENTED_EDGE('',*,*,#233,.T.);
#248 = CYLINDRICAL_SURFACE('',#249,0.33);
#249 = AXIS2_PLACEMENT_3D('',#250,#251,#252);
#250 = CARTESIAN_POINT('',(33.721201441133,-2.,7.085126227328));
#251 = DIRECTION('',(0.104528463268,0.,0.994521895368));
#252 = DIRECTION('',(0.994521895368,0.,-0.104528463268));
#253 = ADVANCED_FACE('',(#254),#257,.T.);
#254 = FACE_BOUND('',#255,.T.);
#255 = EDGE_LOOP('',(#256));
#256 = ORIENTED_EDGE('',*,*,#224,.T.);
#257 = PLANE('',#258);
#258 = AXIS2_PLACEMENT_3D('',#259,#260,#261);
#259 = CARTESIAN_POINT('',(33.952209344954,-2.,9.283019616092));
#260 = DIRECTION('',(0.104528463268,0.,0.994521895368));
#261 = DIRECTION('',(0.994521895368,0.,-0.104528463268));
#262 = ADVANCED_FACE('',(#263),#266,.F.);
#263 = FACE_BOUND('',#264,.T.);
#264 = EDGE_LOOP('',(#265));
#265 = ORIENTED_EDGE('',*,*,#241,.F.);
#266 = PLANE('',#267);
#267 = AXIS2_PLACEMENT_3D('',#268,#269,#270);
#268 = CARTESIAN_POINT('',(33.721201441133,-2.,7.085126227328));
#269 = DIRECTION('',(0.104528463268,0.,0.994521895368));
#270 = DIRECTION('',(0.994521895368,0.,-0.104528463268));
#271 = MANIFOLD_SOLID_BREP('',#272);
#272 = CLOSED_SHELL('',(#273,#306,#315));
#273 = ADVANCED_FACE('',(#274),#301,.T.);
#274 = FACE_BOUND('',#275,.T.);
#275 = EDGE_LOOP('',(#276,#285,#293,#300));
#276 = ORIENTED_EDGE('',*,*,#277,.F.);
#277 = EDGE_CURVE('',#278,#278,#280,.T.);
#278 = VERTEX_POINT('',#279);
#279 = CARTESIAN_POINT('',(35.54244557809,-2.,7.145082824972));
#280 = CIRCLE('',#281,0.535);
#281 = AXIS2_PLACEMENT_3D('',#282,#283,#284);
#282 = CARTESIAN_POINT('',(35.010376364068,-2.,7.20100555282));
#283 = DIRECTION('',(0.104528463268,-0.,0.994521895368));
#284 = DIRECTION('',(0.994521895368,0.,-0.104528463268));
#285 = ORIENTED_EDGE('',*,*,#286,.F.);
#286 = EDGE_CURVE('',#287,#278,#289,.T.);
#287 = VERTEX_POINT('',#288);
#288 = CARTESIAN_POINT('',(35.516313462273,-2.,6.89645235113));
#289 = LINE('',#290,#291);
#290 = CARTESIAN_POINT('',(35.516313462273,-2.,6.89645235113));
#291 = VECTOR('',#292,1.);
#292 = DIRECTION('',(0.104528463268,0.,0.994521895368));
#293 = ORIENTED_EDGE('',*,*,#294,.T.);
#294 = EDGE_CURVE('',#287,#287,#295,.T.);
#295 = CIRCLE('',#296,0.535);
#296 = AXIS2_PLACEMENT_3D('',#297,#298,#299);
#297 = CARTESIAN_POINT('',(34.984244248251,-2.,6.952375078978));
#298 = DIRECTION('',(0.104528463268,-0.,0.994521895368));
#299 = DIRECTION('',(0.994521895368,0.,-0.104528463268));
#300 = ORIENTED_EDGE('',*,*,#286,.T.);
#301 = CYLINDRICAL_SURFACE('',#302,0.535);
#302 = AXIS2_PLACEMENT_3D('',#303,#304,#305);
#303 = CARTESIAN_POINT('',(34.984244248251,-2.,6.952375078978));
#304 = DIRECTION('',(0.104528463268,0.,0.994521895368));
#305 = DIRECTION('',(0.994521895368,0.,-0.104528463268));
#306 = ADVANCED_FACE('',(#307),#310,.T.);
#307 = FACE_BOUND('',#308,.T.);
#308 = EDGE_LOOP('',(#309));
#309 = ORIENTED_EDGE('',*,*,#277,.T.);
#310 = PLANE('',#311);
#311 = AXIS2_PLACEMENT_3D('',#312,#313,#314);
#312 = CARTESIAN_POINT('',(35.010376364068,-2.,7.20100555282));
#313 = DIRECTION('',(0.104528463268,0.,0.994521895368));
#314 = DIRECTION('',(0.994521895368,0.,-0.104528463268));
#315 = ADVANCED_FACE('',(#316),#319,.F.);
#316 = FACE_BOUND('',#317,.T.);
#317 = EDGE_LOOP('',(#318));
#318 = ORIENTED_EDGE('',*,*,#294,.F.);
#319 = PLANE('',#320);
#320 = AXIS2_PLACEMENT_3D('',#321,#322,#323);
#321 = CARTESIAN_POINT('',(34.984244248251,-2.,6.952375078978));
#322 = DIRECTION('',(0.104528463268,0.,0.994521895368));
#323 = DIRECTION('',(0.994521895368,0.,-0.104528463268));
#324 = MANIFOLD_SOLID_BREP('',#325);
#325 = CLOSED_SHELL('',(#326,#359,#368));
#326 = ADVANCED_FACE('',(#327),#354,.T.);
#327 = FACE_BOUND('',#328,.T.);
#328 = EDGE_LOOP('',(#329,#338,#346,#353));
#329 = ORIENTED_EDGE('',*,*,#330,.F.);
#330 = EDGE_CURVE('',#331,#331,#333,.T.);
#331 = VERTEX_POINT('',#332);
#332 = CARTESIAN_POINT('',(35.543444377544,-2.,9.115774074863));
#333 = CIRCLE('',#334,0.33);
#334 = AXIS2_PLACEMENT_3D('',#335,#336,#337);
#335 = CARTESIAN_POINT('',(35.215252152072,-2.,9.150268467742));
#336 = DIRECTION('',(0.104528463268,-0.,0.994521895368));
#337 = DIRECTION('',(0.994521895368,0.,-0.104528463268));
#338 = ORIENTED_EDGE('',*,*,#339,.F.);
#339 = EDGE_CURVE('',#340,#331,#342,.T.);
#340 = VERTEX_POINT('',#341);
#341 = CARTESIAN_POINT('',(35.312436473722,-2.,6.9178806861));
#342 = LINE('',#343,#344);
#343 = CARTESIAN_POINT('',(35.312436473722,-2.,6.9178806861));
#344 = VECTOR('',#345,1.);
#345 = DIRECTION('',(0.104528463268,0.,0.994521895368));
#346 = ORIENTED_EDGE('',*,*,#347,.T.);
#347 = EDGE_CURVE('',#340,#340,#348,.T.);
#348 = CIRCLE('',#349,0.33);
#349 = AXIS2_PLACEMENT_3D('',#350,#351,#352);
#350 = CARTESIAN_POINT('',(34.984244248251,-2.,6.952375078978));
#351 = DIRECTION('',(0.104528463268,-0.,0.994521895368));
#352 = DIRECTION('',(0.994521895368,0.,-0.104528463268));
#353 = ORIENTED_EDGE('',*,*,#339,.T.);
#354 = CYLINDRICAL_SURFACE('',#355,0.33);
#355 = AXIS2_PLACEMENT_3D('',#356,#357,#358);
#356 = CARTESIAN_POINT('',(34.984244248251,-2.,6.952375078978));
#357 = DIRECTION('',(0.104528463268,0.,0.994521895368));
#358 = DIRECTION('',(0.994521895368,0.,-0.104528463268));
#359 = ADVANCED_FACE('',(#360),#363,.T.);
#360 = FACE_BOUND('',#361,.T.);
#361 = EDGE_LOOP('',(#362));
#362 = ORIENTED_EDGE('',*,*,#330,.T.);
#363 = PLANE('',#364);
#364 = AXIS2_PLACEMENT_3D('',#365,#366,#367);
#365 = CARTESIAN_POINT('',(35.215252152072,-2.,9.150268467742));
#366 = DIRECTION('',(0.104528463268,0.,0.994521895368));
#367 = DIRECTION('',(0.994521895368,0.,-0.104528463268));
#368 = ADVANCED_FACE('',(#369),#372,.F.);
#369 = FACE_BOUND('',#370,.T.);
#370 = EDGE_LOOP('',(#371));
#371 = ORIENTED_EDGE('',*,*,#347,.F.);
#372 = PLANE('',#373);
#373 = AXIS2_PLACEMENT_3D('',#374,#375,#376);
#374 = CARTESIAN_POINT('',(34.984244248251,-2.,6.952375078978));
#375 = DIRECTION('',(0.104528463268,0.,0.994521895368));
#376 = DIRECTION('',(0.994521895368,0.,-0.104528463268));
#377 = MANIFOLD_SOLID_BREP('',#378);
#378 = CLOSED_SHELL('',(#379,#412,#421));
#379 = ADVANCED_FACE('',(#380),#407,.T.);
#380 = FACE_BOUND('',#381,.T.);
#381 = EDGE_LOOP('',(#382,#391,#399,#406));
#382 = ORIENTED_EDGE('',*,*,#383,.F.);
#383 = EDGE_CURVE('',#384,#384,#386,.T.);
#384 = VERTEX_POINT('',#385);
#385 = CARTESIAN_POINT('',(36.805488385207,-2.,7.012331676622));
#386 = CIRCLE('',#387,0.535);
#387 = AXIS2_PLACEMENT_3D('',#388,#389,#390);
#388 = CARTESIAN_POINT('',(36.273419171185,-2.,7.06825440447));
#389 = DIRECTION('',(0.104528463268,-0.,0.994521895368));
#390 = DIRECTION('',(0.994521895368,0.,-0.104528463268));
#391 = ORIENTED_EDGE('',*,*,#392,.F.);
#392 = EDGE_CURVE('',#393,#384,#395,.T.);
#393 = VERTEX_POINT('',#394);
#394 = CARTESIAN_POINT('',(36.77935626939,-2.,6.76370120278));
#395 = LINE('',#396,#397);
#396 = CARTESIAN_POINT('',(36.77935626939,-2.,6.76370120278));
#397 = VECTOR('',#398,1.);
#398 = DIRECTION('',(0.104528463268,0.,0.994521895368));
#399 = ORIENTED_EDGE('',*,*,#400,.T.);
#400 = EDGE_CURVE('',#393,#393,#401,.T.);
#401 = CIRCLE('',#402,0.535);
#402 = AXIS2_PLACEMENT_3D('',#403,#404,#405);
#403 = CARTESIAN_POINT('',(36.247287055368,-2.,6.819623930628));
#404 = DIRECTION('',(0.104528463268,-0.,0.994521895368));
#405 = DIRECTION('',(0.994521895368,0.,-0.104528463268));
#406 = ORIENTED_EDGE('',*,*,#392,.T.);
#407 = CYLINDRICAL_SURFACE('',#408,0.535);
#408 = AXIS2_PLACEMENT_3D('',#409,#410,#411);
#409 = CARTESIAN_POINT('',(36.247287055368,-2.,6.819623930628));
#410 = DIRECTION('',(0.104528463268,0.,0.994521895368));
#411 = DIRECTION('',(0.994521895368,0.,-0.104528463268));
#412 = ADVANCED_FACE('',(#413),#416,.T.);
#413 = FACE_BOUND('',#414,.T.);
#414 = EDGE_LOOP('',(#415));
#415 = ORIENTED_EDGE('',*,*,#383,.T.);
#416 = PLANE('',#417);
#417 = AXIS2_PLACEMENT_3D('',#418,#419,#420);
#418 = CARTESIAN_POINT('',(36.273419171185,-2.,7.06825440447));
#419 = DIRECTION('',(0.104528463268,0.,0.994521895368));
#420 = DIRECTION('',(0.994521895368,0.,-0.104528463268));
#421 = ADVANCED_FACE('',(#422),#425,.F.);
#422 = FACE_BOUND('',#423,.T.);
#423 = EDGE_LOOP('',(#424));
#424 = ORIENTED_EDGE('',*,*,#400,.F.);
#425 = PLANE('',#426);
#426 = AXIS2_PLACEMENT_3D('',#427,#428,#429);
#427 = CARTESIAN_POINT('',(36.247287055368,-2.,6.819623930628));
#428 = DIRECTION('',(0.104528463268,0.,0.994521895368));
#429 = DIRECTION('',(0.994521895368,0.,-0.104528463268));
#430 = MANIFOLD_SOLID_BREP('',#431);
#431 = CLOSED_SHELL('',(#432,#465,#474));
#432 = ADVANCED_FACE('',(#433),#460,.T.);
#433 = FACE_BOUND('',#434,.T.);
#434 = EDGE_LOOP('',(#435,#444,#452,#459));
#435 = ORIENTED_EDGE('',*,*,#436,.F.);
#436 = EDGE_CURVE('',#437,#437,#439,.T.);
#437 = VERTEX_POINT('',#438);
#438 = CARTESIAN_POINT('',(36.806487184661,-2.,8.983022926514));
#439 = CIRCLE('',#440,0.33);
#440 = AXIS2_PLACEMENT_3D('',#441,#442,#443);
#441 = CARTESIAN_POINT('',(36.47829495919,-2.,9.017517319392));
#442 = DIRECTION('',(0.104528463268,-0.,0.994521895368));
#443 = DIRECTION('',(0.994521895368,0.,-0.104528463268));
#444 = ORIENTED_EDGE('',*,*,#445,.F.);
#445 = EDGE_CURVE('',#446,#437,#448,.T.);
#446 = VERTEX_POINT('',#447);
#447 = CARTESIAN_POINT('',(36.57547928084,-2.,6.78512953775));
#448 = LINE('',#449,#450);
#449 = CARTESIAN_POINT('',(36.57547928084,-2.,6.78512953775));
#450 = VECTOR('',#451,1.);
#451 = DIRECTION('',(0.104528463268,0.,0.994521895368));
#452 = ORIENTED_EDGE('',*,*,#453,.T.);
#453 = EDGE_CURVE('',#446,#446,#454,.T.);
#454 = CIRCLE('',#455,0.33);
#455 = AXIS2_PLACEMENT_3D('',#456,#457,#458);
#456 = CARTESIAN_POINT('',(36.247287055368,-2.,6.819623930628));
#457 = DIRECTION('',(0.104528463268,-0.,0.994521895368));
#458 = DIRECTION('',(0.994521895368,0.,-0.104528463268));
#459 = ORIENTED_EDGE('',*,*,#445,.T.);
#460 = CYLINDRICAL_SURFACE('',#461,0.33);
#461 = AXIS2_PLACEMENT_3D('',#462,#463,#464);
#462 = CARTESIAN_POINT('',(36.247287055368,-2.,6.819623930628));
#463 = DIRECTION('',(0.104528463268,0.,0.994521895368));
#464 = DIRECTION('',(0.994521895368,0.,-0.104528463268));
#465 = ADVANCED_FACE('',(#466),#469,.T.);
#466 = FACE_BOUND('',#467,.T.);
#467 = EDGE_LOOP('',(#468));
#468 = ORIENTED_EDGE('',*,*,#436,.T.);
#469 = PLANE('',#470);
#470 = AXIS2_PLACEMENT_3D('',#471,#472,#473);
#471 = CARTESIAN_POINT('',(36.47829495919,-2.,9.017517319392));
#472 = DIRECTION('',(0.104528463268,0.,0.994521895368));
#473 = DIRECTION('',(0.994521895368,0.,-0.104528463268));
#474 = ADVANCED_FACE('',(#475),#478,.F.);
#475 = FACE_BOUND('',#476,.T.);
#476 = EDGE_LOOP('',(#477));
#477 = ORIENTED_EDGE('',*,*,#453,.F.);
#478 = PLANE('',#479);
#479 = AXIS2_PLACEMENT_3D('',#480,#481,#482);
#480 = CARTESIAN_POINT('',(36.247287055368,-2.,6.819623930628));
#481 = DIRECTION('',(0.104528463268,0.,0.994521895368));
#482 = DIRECTION('',(0.994521895368,0.,-0.104528463268));
#483 = MANIFOLD_SOLID_BREP('',#484);
#484 = CLOSED_SHELL('',(#485,#518,#527));
#485 = ADVANCED_FACE('',(#486),#513,.T.);
#486 = FACE_BOUND('',#487,.T.);
#487 = EDGE_LOOP('',(#488,#497,#505,#512));
#488 = ORIENTED_EDGE('',*,*,#489,.F.);
#489 = EDGE_CURVE('',#490,#490,#492,.T.);
#490 = VERTEX_POINT('',#491);
#491 = CARTESIAN_POINT('',(38.068531192325,-2.,6.879580528272));
#492 = CIRCLE('',#493,0.535);
#493 = AXIS2_PLACEMENT_3D('',#494,#495,#496);
#494 = CARTESIAN_POINT('',(37.536461978303,-2.,6.93550325612));
#495 = DIRECTION('',(0.104528463268,-0.,0.994521895368));
#496 = DIRECTION('',(0.994521895368,0.,-0.104528463268));
#497 = ORIENTED_EDGE('',*,*,#498,.F.);
#498 = EDGE_CURVE('',#499,#490,#501,.T.);
#499 = VERTEX_POINT('',#500);
#500 = CARTESIAN_POINT('',(38.042399076508,-2.,6.63095005443));
#501 = LINE('',#502,#503);
#502 = CARTESIAN_POINT('',(38.042399076508,-2.,6.63095005443));
#503 = VECTOR('',#504,1.);
#504 = DIRECTION('',(0.104528463268,0.,0.994521895368));
#505 = ORIENTED_EDGE('',*,*,#506,.T.);
#506 = EDGE_CURVE('',#499,#499,#507,.T.);
#507 = CIRCLE('',#508,0.535);
#508 = AXIS2_PLACEMENT_3D('',#509,#510,#511);
#509 = CARTESIAN_POINT('',(37.510329862486,-2.,6.686872782278));
#510 = DIRECTION('',(0.104528463268,-0.,0.994521895368));
#511 = DIRECTION('',(0.994521895368,0.,-0.104528463268));
#512 = ORIENTED_EDGE('',*,*,#498,.T.);
#513 = CYLINDRICAL_SURFACE('',#514,0.535);
#514 = AXIS2_PLACEMENT_3D('',#515,#516,#517);
#515 = CARTESIAN_POINT('',(37.510329862486,-2.,6.686872782278));
#516 = DIRECTION('',(0.104528463268,0.,0.994521895368));
#517 = DIRECTION('',(0.994521895368,0.,-0.104528463268));
#518 = ADVANCED_FACE('',(#519),#522,.T.);
#519 = FACE_BOUND('',#520,.T.);
#520 = EDGE_LOOP('',(#521));
#521 = ORIENTED_EDGE('',*,*,#489,.T.);
#522 = PLANE('',#523);
#523 = AXIS2_PLACEMENT_3D('',#524,#525,#526);
#524 = CARTESIAN_POINT('',(37.536461978303,-2.,6.93550325612));
#525 = DIRECTION('',(0.104528463268,0.,0.994521895368));
#526 = DIRECTION('',(0.994521895368,0.,-0.104528463268));
#527 = ADVANCED_FACE('',(#528),#531,.F.);
#528 = FACE_BOUND('',#529,.T.);
#529 = EDGE_LOOP('',(#530));
#530 = ORIENTED_EDGE('',*,*,#506,.F.);
#531 = PLANE('',#532);
#532 = AXIS2_PLACEMENT_3D('',#533,#534,#535);
#533 = CARTESIAN_POINT('',(37.510329862486,-2.,6.686872782278));
#534 = DIRECTION('',(0.104528463268,0.,0.994521895368));
#535 = DIRECTION('',(0.994521895368,0.,-0.104528463268));
#536 = MANIFOLD_SOLID_BREP('',#537);
#537 = CLOSED_SHELL('',(#538,#571,#580));
#538 = ADVANCED_FACE('',(#539),#566,.T.);
#539 = FACE_BOUND('',#540,.T.);
#540 = EDGE_LOOP('',(#541,#550,#558,#565));
#541 = ORIENTED_EDGE('',*,*,#542,.F.);
#542 = EDGE_CURVE('',#543,#543,#545,.T.);
#543 = VERTEX_POINT('',#544);
#544 = CARTESIAN_POINT('',(38.069529991779,-2.,8.850271778164));
#545 = CIRCLE('',#546,0.33);
#546 = AXIS2_PLACEMENT_3D('',#547,#548,#549);
#547 = CARTESIAN_POINT('',(37.741337766308,-2.,8.884766171042));
#548 = DIRECTION('',(0.104528463268,-0.,0.994521895368));
#549 = DIRECTION('',(0.994521895368,0.,-0.104528463268));
#550 = ORIENTED_EDGE('',*,*,#551,.F.);
#551 = EDGE_CURVE('',#552,#543,#554,.T.);
#552 = VERTEX_POINT('',#553);
#553 = CARTESIAN_POINT('',(37.838522087958,-2.,6.6523783894));
#554 = LINE('',#555,#556);
#555 = CARTESIAN_POINT('',(37.838522087958,-2.,6.6523783894));
#556 = VECTOR('',#557,1.);
#557 = DIRECTION('',(0.104528463268,0.,0.994521895368));
#558 = ORIENTED_EDGE('',*,*,#559,.T.);
#559 = EDGE_CURVE('',#552,#552,#560,.T.);
#560 = CIRCLE('',#561,0.33);
#561 = AXIS2_PLACEMENT_3D('',#562,#563,#564);
#562 = CARTESIAN_POINT('',(37.510329862486,-2.,6.686872782278));
#563 = DIRECTION('',(0.104528463268,-0.,0.994521895368));
#564 = DIRECTION('',(0.994521895368,0.,-0.104528463268));
#565 = ORIENTED_EDGE('',*,*,#551,.T.);
#566 = CYLINDRICAL_SURFACE('',#567,0.33);
#567 = AXIS2_PLACEMENT_3D('',#568,#569,#570);
#568 = CARTESIAN_POINT('',(37.510329862486,-2.,6.686872782278));
#569 = DIRECTION('',(0.104528463268,0.,0.994521895368));
#570 = DIRECTION('',(0.994521895368,0.,-0.104528463268));
#571 = ADVANCED_FACE('',(#572),#575,.T.);
#572 = FACE_BOUND('',#573,.T.);
#573 = EDGE_LOOP('',(#574));
#574 = ORIENTED_EDGE('',*,*,#542,.T.);
#575 = PLANE('',#576);
#576 = AXIS2_PLACEMENT_3D('',#577,#578,#579);
#577 = CARTESIAN_POINT('',(37.741337766308,-2.,8.884766171042));
#578 = DIRECTION('',(0.104528463268,0.,0.994521895368));
#579 = DIRECTION('',(0.994521895368,0.,-0.104528463268));
#580 = ADVANCED_FACE('',(#581),#584,.F.);
#581 = FACE_BOUND('',#582,.T.);
#582 = EDGE_LOOP('',(#583));
#583 = ORIENTED_EDGE('',*,*,#559,.F.);
#584 = PLANE('',#585);
#585 = AXIS2_PLACEMENT_3D('',#586,#587,#588);
#586 = CARTESIAN_POINT('',(37.510329862486,-2.,6.686872782278));
#587 = DIRECTION('',(0.104528463268,0.,0.994521895368));
#588 = DIRECTION('',(0.994521895368,0.,-0.104528463268));
#589 = MANIFOLD_SOLID_BREP('',#590);
#590 = CLOSED_SHELL('',(#591,#624,#633));
#591 = ADVANCED_FACE('',(#592),#619,.T.);
#592 = FACE_BOUND('',#593,.T.);
#593 = EDGE_LOOP('',(#594,#603,#611,#618));
#594 = ORIENTED_EDGE('',*,*,#595,.F.);
#595 = EDGE_CURVE('',#596,#596,#598,.T.);
#596 = VERTEX_POINT('',#597);
#597 = CARTESIAN_POINT('',(39.331573999443,-2.,6.746829379922));
#598 = CIRCLE('',#599,0.535);
#599 = AXIS2_PLACEMENT_3D('',#600,#601,#602);
#600 = CARTESIAN_POINT('',(38.799504785421,-2.,6.80275210777));
#601 = DIRECTION('',(0.104528463268,-0.,0.994521895368));
#602 = DIRECTION('',(0.994521895368,0.,-0.104528463268));
#603 = ORIENTED_EDGE('',*,*,#604,.F.);
#604 = EDGE_CURVE('',#605,#596,#607,.T.);
#605 = VERTEX_POINT('',#606);
#606 = CARTESIAN_POINT('',(39.305441883626,-2.,6.49819890608));
#607 = LINE('',#608,#609);
#608 = CARTESIAN_POINT('',(39.305441883626,-2.,6.49819890608));
#609 = VECTOR('',#610,1.);
#610 = DIRECTION('',(0.104528463268,0.,0.994521895368));
#611 = ORIENTED_EDGE('',*,*,#612,.T.);
#612 = EDGE_CURVE('',#605,#605,#613,.T.);
#613 = CIRCLE('',#614,0.535);
#614 = AXIS2_PLACEMENT_3D('',#615,#616,#617);
#615 = CARTESIAN_POINT('',(38.773372669604,-2.,6.554121633928));
#616 = DIRECTION('',(0.104528463268,-0.,0.994521895368));
#617 = DIRECTION('',(0.994521895368,0.,-0.104528463268));
#618 = ORIENTED_EDGE('',*,*,#604,.T.);
#619 = CYLINDRICAL_SURFACE('',#620,0.535);
#620 = AXIS2_PLACEMENT_3D('',#621,#622,#623);
#621 = CARTESIAN_POINT('',(38.773372669604,-2.,6.554121633928));
#622 = DIRECTION('',(0.104528463268,0.,0.994521895368));
#623 = DIRECTION('',(0.994521895368,0.,-0.104528463268));
#624 = ADVANCED_FACE('',(#625),#628,.T.);
#625 = FACE_BOUND('',#626,.T.);
#626 = EDGE_LOOP('',(#627));
#627 = ORIENTED_EDGE('',*,*,#595,.T.);
#628 = PLANE('',#629);
#629 = AXIS2_PLACEMENT_3D('',#630,#631,#632);
#630 = CARTESIAN_POINT('',(38.799504785421,-2.,6.80275210777));
#631 = DIRECTION('',(0.104528463268,0.,0.994521895368));
#632 = DIRECTION('',(0.994521895368,0.,-0.104528463268));
#633 = ADVANCED_FACE('',(#634),#637,.F.);
#634 = FACE_BOUND('',#635,.T.);
#635 = EDGE_LOOP('',(#636));
#636 = ORIENTED_EDGE('',*,*,#612,.F.);
#637 = PLANE('',#638);
#638 = AXIS2_PLACEMENT_3D('',#639,#640,#641);
#639 = CARTESIAN_POINT('',(38.773372669604,-2.,6.554121633928));
#640 = DIRECTION('',(0.104528463268,0.,0.994521895368));
#641 = DIRECTION('',(0.994521895368,0.,-0.104528463268));
#642 = MANIFOLD_SOLID_BREP('',#643);
#643 = CLOSED_SHELL('',(#644,#677,#686));
#644 = ADVANCED_FACE('',(#645),#672,.T.);
#645 = FACE_BOUND('',#646,.T.);
#646 = EDGE_LOOP('',(#647,#656,#664,#671));
#647 = ORIENTED_EDGE('',*,*,#648,.F.);
#648 = EDGE_CURVE('',#649,#649,#651,.T.);
#649 = VERTEX_POINT('',#650);
#650 = CARTESIAN_POINT('',(39.332572798897,-2.,8.717520629814));
#651 = CIRCLE('',#652,0.33);
#652 = AXIS2_PLACEMENT_3D('',#653,#654,#655);
#653 = CARTESIAN_POINT('',(39.004380573425,-2.,8.752015022692));
#654 = DIRECTION('',(0.104528463268,-0.,0.994521895368));
#655 = DIRECTION('',(0.994521895368,0.,-0.104528463268));
#656 = ORIENTED_EDGE('',*,*,#657,.F.);
#657 = EDGE_CURVE('',#658,#649,#660,.T.);
#658 = VERTEX_POINT('',#659);
#659 = CARTESIAN_POINT('',(39.101564895075,-2.,6.51962724105));
#660 = LINE('',#661,#662);
#661 = CARTESIAN_POINT('',(39.101564895075,-2.,6.51962724105));
#662 = VECTOR('',#663,1.);
#663 = DIRECTION('',(0.104528463268,0.,0.994521895368));
#664 = ORIENTED_EDGE('',*,*,#665,.T.);
#665 = EDGE_CURVE('',#658,#658,#666,.T.);
#666 = CIRCLE('',#667,0.33);
#667 = AXIS2_PLACEMENT_3D('',#668,#669,#670);
#668 = CARTESIAN_POINT('',(38.773372669604,-2.,6.554121633928));
#669 = DIRECTION('',(0.104528463268,-0.,0.994521895368));
#670 = DIRECTION('',(0.994521895368,0.,-0.104528463268));
#671 = ORIENTED_EDGE('',*,*,#657,.T.);
#672 = CYLINDRICAL_SURFACE('',#673,0.33);
#673 = AXIS2_PLACEMENT_3D('',#674,#675,#676);
#674 = CARTESIAN_POINT('',(38.773372669604,-2.,6.554121633928));
#675 = DIRECTION('',(0.104528463268,0.,0.994521895368));
#676 = DIRECTION('',(0.994521895368,0.,-0.104528463268));
#677 = ADVANCED_FACE('',(#678),#681,.T.);
#678 = FACE_BOUND('',#679,.T.);
#679 = EDGE_LOOP('',(#680));
#680 = ORIENTED_EDGE('',*,*,#648,.T.);
#681 = PLANE('',#682);
#682 = AXIS2_PLACEMENT_3D('',#683,#684,#685);
#683 = CARTESIAN_POINT('',(39.004380573425,-2.,8.752015022692));
#684 = DIRECTION('',(0.104528463268,0.,0.994521895368));
#685 = DIRECTION('',(0.994521895368,0.,-0.104528463268));
#686 = ADVANCED_FACE('',(#687),#690,.F.);
#687 = FACE_BOUND('',#688,.T.);
#688 = EDGE_LOOP('',(#689));
#689 = ORIENTED_EDGE('',*,*,#665,.F.);
#690 = PLANE('',#691);
#691 = AXIS2_PLACEMENT_3D('',#692,#693,#694);
#692 = CARTESIAN_POINT('',(38.773372669604,-2.,6.554121633928));
#693 = DIRECTION('',(0.104528463268,0.,0.994521895368));
#694 = DIRECTION('',(0.994521895368,0.,-0.104528463268));
#695 = MANIFOLD_SOLID_BREP('',#696);
#696 = CLOSED_SHELL('',(#697,#730,#739));
#697 = ADVANCED_FACE('',(#698),#725,.T.);
#698 = FACE_BOUND('',#699,.T.);
#699 = EDGE_LOOP('',(#700,#709,#717,#724));
#700 = ORIENTED_EDGE('',*,*,#701,.F.);
#701 = EDGE_CURVE('',#702,#702,#704,.T.);
#702 = VERTEX_POINT('',#703);
#703 = CARTESIAN_POINT('',(40.59461680656,-2.,6.614078231572));
#704 = CIRCLE('',#705,0.535);
#705 = AXIS2_PLACEMENT_3D('',#706,#707,#708);
#706 = CARTESIAN_POINT('',(40.062547592538,-2.,6.67000095942));
#707 = DIRECTION('',(0.104528463268,-0.,0.994521895368));
#708 = DIRECTION('',(0.994521895368,0.,-0.104528463268));
#709 = ORIENTED_EDGE('',*,*,#710,.F.);
#710 = EDGE_CURVE('',#711,#702,#713,.T.);
#711 = VERTEX_POINT('',#712);
#712 = CARTESIAN_POINT('',(40.568484690743,-2.,6.36544775773));
#713 = LINE('',#714,#715);
#714 = CARTESIAN_POINT('',(40.568484690743,-2.,6.36544775773));
#715 = VECTOR('',#716,1.);
#716 = DIRECTION('',(0.104528463268,0.,0.994521895368));
#717 = ORIENTED_EDGE('',*,*,#718,.T.);
#718 = EDGE_CURVE('',#711,#711,#719,.T.);
#719 = CIRCLE('',#720,0.535);
#720 = AXIS2_PLACEMENT_3D('',#721,#722,#723);
#721 = CARTESIAN_POINT('',(40.036415476721,-2.,6.421370485578));
#722 = DIRECTION('',(0.104528463268,-0.,0.994521895368));
#723 = DIRECTION('',(0.994521895368,0.,-0.104528463268));
#724 = ORIENTED_EDGE('',*,*,#710,.T.);
#725 = CYLINDRICAL_SURFACE('',#726,0.535);
#726 = AXIS2_PLACEMENT_3D('',#727,#728,#729);
#727 = CARTESIAN_POINT('',(40.036415476721,-2.,6.421370485578));
#728 = DIRECTION('',(0.104528463268,0.,0.994521895368));
#729 = DIRECTION('',(0.994521895368,0.,-0.104528463268));
#730 = ADVANCED_FACE('',(#731),#734,.T.);
#731 = FACE_BOUND('',#732,.T.);
#732 = EDGE_LOOP('',(#733));
#733 = ORIENTED_EDGE('',*,*,#701,.T.);
#734 = PLANE('',#735);
#735 = AXIS2_PLACEMENT_3D('',#736,#737,#738);
#736 = CARTESIAN_POINT('',(40.062547592538,-2.,6.67000095942));
#737 = DIRECTION('',(0.104528463268,0.,0.994521895368));
#738 = DIRECTION('',(0.994521895368,0.,-0.104528463268));
#739 = ADVANCED_FACE('',(#740),#743,.F.);
#740 = FACE_BOUND('',#741,.T.);
#741 = EDGE_LOOP('',(#742));
#742 = ORIENTED_EDGE('',*,*,#718,.F.);
#743 = PLANE('',#744);
#744 = AXIS2_PLACEMENT_3D('',#745,#746,#747);
#745 = CARTESIAN_POINT('',(40.036415476721,-2.,6.421370485578));
#746 = DIRECTION('',(0.104528463268,0.,0.994521895368));
#747 = DIRECTION('',(0.994521895368,0.,-0.104528463268));
#748 = MANIFOLD_SOLID_BREP('',#749);
#749 = CLOSED_SHELL('',(#750,#783,#792));
#750 = ADVANCED_FACE('',(#751),#778,.T.);
#751 = FACE_BOUND('',#752,.T.);
#752 = EDGE_LOOP('',(#753,#762,#770,#777));
#753 = ORIENTED_EDGE('',*,*,#754,.F.);
#754 = EDGE_CURVE('',#755,#755,#757,.T.);
#755 = VERTEX_POINT('',#756);
#756 = CARTESIAN_POINT('',(40.595615606014,-2.,8.584769481464));
#757 = CIRCLE('',#758,0.33);
#758 = AXIS2_PLACEMENT_3D('',#759,#760,#761);
#759 = CARTESIAN_POINT('',(40.267423380543,-2.,8.619263874342));
#760 = DIRECTION('',(0.104528463268,-0.,0.994521895368));
#761 = DIRECTION('',(0.994521895368,0.,-0.104528463268));
#762 = ORIENTED_EDGE('',*,*,#763,.F.);
#763 = EDGE_CURVE('',#764,#755,#766,.T.);
#764 = VERTEX_POINT('',#765);
#765 = CARTESIAN_POINT('',(40.364607702193,-2.,6.3868760927));
#766 = LINE('',#767,#768);
#767 = CARTESIAN_POINT('',(40.364607702193,-2.,6.3868760927));
#768 = VECTOR('',#769,1.);
#769 = DIRECTION('',(0.104528463268,0.,0.994521895368));
#770 = ORIENTED_EDGE('',*,*,#771,.T.);
#771 = EDGE_CURVE('',#764,#764,#772,.T.);
#772 = CIRCLE('',#773,0.33);
#773 = AXIS2_PLACEMENT_3D('',#774,#775,#776);
#774 = CARTESIAN_POINT('',(40.036415476721,-2.,6.421370485578));
#775 = DIRECTION('',(0.104528463268,-0.,0.994521895368));
#776 = DIRECTION('',(0.994521895368,0.,-0.104528463268));
#777 = ORIENTED_EDGE('',*,*,#763,.T.);
#778 = CYLINDRICAL_SURFACE('',#779,0.33);
#779 = AXIS2_PLACEMENT_3D('',#780,#781,#782);
#780 = CARTESIAN_POINT('',(40.036415476721,-2.,6.421370485578));
#781 = DIRECTION('',(0.104528463268,0.,0.994521895368));
#782 = DIRECTION('',(0.994521895368,0.,-0.104528463268));
#783 = ADVANCED_FACE('',(#784),#787,.T.);
#784 = FACE_BOUND('',#785,.T.);
#785 = EDGE_LOOP('',(#786));
#786 = ORIENTED_EDGE('',*,*,#754,.T.);
#787 = PLANE('',#788);
#788 = AXIS2_PLACEMENT_3D('',#789,#790,#791);
#789 = CARTESIAN_POINT('',(40.267423380543,-2.,8.619263874342));
#790 = DIRECTION('',(0.104528463268,0.,0.994521895368));
#791 = DIRECTION('',(0.994521895368,0.,-0.104528463268));
#792 = ADVANCED_FACE('',(#793),#796,.F.);
#793 = FACE_BOUND('',#794,.T.);
#794 = EDGE_LOOP('',(#795));
#795 = ORIENTED_EDGE('',*,*,#771,.F.);
#796 = PLANE('',#797);
#797 = AXIS2_PLACEMENT_3D('',#798,#799,#800);
#798 = CARTESIAN_POINT('',(40.036415476721,-2.,6.421370485578));
#799 = DIRECTION('',(0.104528463268,0.,0.994521895368));
#800 = DIRECTION('',(0.994521895368,0.,-0.104528463268));
#801 = MANIFOLD_SOLID_BREP('',#802);
#802 = CLOSED_SHELL('',(#803,#836,#845));
#803 = ADVANCED_FACE('',(#804),#831,.T.);
#804 = FACE_BOUND('',#805,.T.);
#805 = EDGE_LOOP('',(#806,#815,#823,#830));
#806 = ORIENTED_EDGE('',*,*,#807,.F.);
#807 = EDGE_CURVE('',#808,#808,#810,.T.);
#808 = VERTEX_POINT('',#809);
#809 = CARTESIAN_POINT('',(41.857659613678,-2.,6.481327083222));
#810 = CIRCLE('',#811,0.535);
#811 = AXIS2_PLACEMENT_3D('',#812,#813,#814);
#812 = CARTESIAN_POINT('',(41.325590399656,-2.,6.53724981107));
#813 = DIRECTION('',(0.104528463268,-0.,0.994521895368));
#814 = DIRECTION('',(0.994521895368,0.,-0.104528463268));
#815 = ORIENTED_EDGE('',*,*,#816,.F.);
#816 = EDGE_CURVE('',#817,#808,#819,.T.);
#817 = VERTEX_POINT('',#818);
#818 = CARTESIAN_POINT('',(41.831527497861,-2.,6.23269660938));
#819 = LINE('',#820,#821);
#820 = CARTESIAN_POINT('',(41.831527497861,-2.,6.23269660938));
#821 = VECTOR('',#822,1.);
#822 = DIRECTION('',(0.104528463268,0.,0.994521895368));
#823 = ORIENTED_EDGE('',*,*,#824,.T.);
#824 = EDGE_CURVE('',#817,#817,#825,.T.);
#825 = CIRCLE('',#826,0.535);
#826 = AXIS2_PLACEMENT_3D('',#827,#828,#829);
#827 = CARTESIAN_POINT('',(41.299458283839,-2.,6.288619337228));
#828 = DIRECTION('',(0.104528463268,-0.,0.994521895368));
#829 = DIRECTION('',(0.994521895368,0.,-0.104528463268));
#830 = ORIENTED_EDGE('',*,*,#816,.T.);
#831 = CYLINDRICAL_SURFACE('',#832,0.535);
#832 = AXIS2_PLACEMENT_3D('',#833,#834,#835);
#833 = CARTESIAN_POINT('',(41.299458283839,-2.,6.288619337228));
#834 = DIRECTION('',(0.104528463268,0.,0.994521895368));
#835 = DIRECTION('',(0.994521895368,0.,-0.104528463268));
#836 = ADVANCED_FACE('',(#837),#840,.T.);
#837 = FACE_BOUND('',#838,.T.);
#838 = EDGE_LOOP('',(#839));
#839 = ORIENTED_EDGE('',*,*,#807,.T.);
#840 = PLANE('',#841);
#841 = AXIS2_PLACEMENT_3D('',#842,#843,#844);
#842 = CARTESIAN_POINT('',(41.325590399656,-2.,6.53724981107));
#843 = DIRECTION('',(0.104528463268,0.,0.994521895368));
#844 = DIRECTION('',(0.994521895368,0.,-0.104528463268));
#845 = ADVANCED_FACE('',(#846),#849,.F.);
#846 = FACE_BOUND('',#847,.T.);
#847 = EDGE_LOOP('',(#848));
#848 = ORIENTED_EDGE('',*,*,#824,.F.);
#849 = PLANE('',#850);
#850 = AXIS2_PLACEMENT_3D('',#851,#852,#853);
#851 = CARTESIAN_POINT('',(41.299458283839,-2.,6.288619337228));
#852 = DIRECTION('',(0.104528463268,0.,0.994521895368));
#853 = DIRECTION('',(0.994521895368,0.,-0.104528463268));
#854 = MANIFOLD_SOLID_BREP('',#855);
#855 = CLOSED_SHELL('',(#856,#889,#898));
#856 = ADVANCED_FACE('',(#857),#884,.T.);
#857 = FACE_BOUND('',#858,.T.);
#858 = EDGE_LOOP('',(#859,#868,#876,#883));
#859 = ORIENTED_EDGE('',*,*,#860,.F.);
#860 = EDGE_CURVE('',#861,#861,#863,.T.);
#861 = VERTEX_POINT('',#862);
#862 = CARTESIAN_POINT('',(41.858658413132,-2.,8.452018333114));
#863 = CIRCLE('',#864,0.33);
#864 = AXIS2_PLACEMENT_3D('',#865,#866,#867);
#865 = CARTESIAN_POINT('',(41.530466187661,-2.,8.486512725992));
#866 = DIRECTION('',(0.104528463268,-0.,0.994521895368));
#867 = DIRECTION('',(0.994521895368,0.,-0.104528463268));
#868 = ORIENTED_EDGE('',*,*,#869,.F.);
#869 = EDGE_CURVE('',#870,#861,#872,.T.);
#870 = VERTEX_POINT('',#871);
#871 = CARTESIAN_POINT('',(41.627650509311,-2.,6.25412494435));
#872 = LINE('',#873,#874);
#873 = CARTESIAN_POINT('',(41.627650509311,-2.,6.25412494435));
#874 = VECTOR('',#875,1.);
#875 = DIRECTION('',(0.104528463268,0.,0.994521895368));
#876 = ORIENTED_EDGE('',*,*,#877,.T.);
#877 = EDGE_CURVE('',#870,#870,#878,.T.);
#878 = CIRCLE('',#879,0.33);
#879 = AXIS2_PLACEMENT_3D('',#880,#881,#882);
#880 = CARTESIAN_POINT('',(41.299458283839,-2.,6.288619337228));
#881 = DIRECTION('',(0.104528463268,-0.,0.994521895368));
#882 = DIRECTION('',(0.994521895368,0.,-0.104528463268));
#883 = ORIENTED_EDGE('',*,*,#869,.T.);
#884 = CYLINDRICAL_SURFACE('',#885,0.33);
#885 = AXIS2_PLACEMENT_3D('',#886,#887,#888);
#886 = CARTESIAN_POINT('',(41.299458283839,-2.,6.288619337228));
#887 = DIRECTION('',(0.104528463268,0.,0.994521895368));
#888 = DIRECTION('',(0.994521895368,0.,-0.104528463268));
#889 = ADVANCED_FACE('',(#890),#893,.T.);
#890 = FACE_BOUND('',#891,.T.);
#891 = EDGE_LOOP('',(#892));
#892 = ORIENTED_EDGE('',*,*,#860,.T.);
#893 = PLANE('',#894);
#894 = AXIS2_PLACEMENT_3D('',#895,#896,#897);
#895 = CARTESIAN_POINT('',(41.530466187661,-2.,8.486512725992));
#896 = DIRECTION('',(0.104528463268,0.,0.994521895368));
#897 = DIRECTION('',(0.994521895368,0.,-0.104528463268));
#898 = ADVANCED_FACE('',(#899),#902,.F.);
#899 = FACE_BOUND('',#900,.T.);
#900 = EDGE_LOOP('',(#901));
#901 = ORIENTED_EDGE('',*,*,#877,.F.);
#902 = PLANE('',#903);
#903 = AXIS2_PLACEMENT_3D('',#904,#905,#906);
#904 = CARTESIAN_POINT('',(41.299458283839,-2.,6.288619337228));
#905 = DIRECTION('',(0.104528463268,0.,0.994521895368));
#906 = DIRECTION('',(0.994521895368,0.,-0.104528463268));
#907 = MANIFOLD_SOLID_BREP('',#908);
#908 = CLOSED_SHELL('',(#909,#942,#951));
#909 = ADVANCED_FACE('',(#910),#937,.T.);
#910 = FACE_BOUND('',#911,.T.);
#911 = EDGE_LOOP('',(#912,#921,#929,#936));
#912 = ORIENTED_EDGE('',*,*,#913,.F.);
#913 = EDGE_CURVE('',#914,#914,#916,.T.);
#914 = VERTEX_POINT('',#915);
#915 = CARTESIAN_POINT('',(43.120702420796,-2.,6.348575934872));
#916 = CIRCLE('',#917,0.535);
#917 = AXIS2_PLACEMENT_3D('',#918,#919,#920);
#918 = CARTESIAN_POINT('',(42.588633206774,-2.,6.40449866272));
#919 = DIRECTION('',(0.104528463268,-0.,0.994521895368));
#920 = DIRECTION('',(0.994521895368,0.,-0.104528463268));
#921 = ORIENTED_EDGE('',*,*,#922,.F.);
#922 = EDGE_CURVE('',#923,#914,#925,.T.);
#923 = VERTEX_POINT('',#924);
#924 = CARTESIAN_POINT('',(43.094570304979,-2.,6.09994546103));
#925 = LINE('',#926,#927);
#926 = CARTESIAN_POINT('',(43.094570304979,-2.,6.09994546103));
#927 = VECTOR('',#928,1.);
#928 = DIRECTION('',(0.104528463268,0.,0.994521895368));
#929 = ORIENTED_EDGE('',*,*,#930,.T.);
#930 = EDGE_CURVE('',#923,#923,#931,.T.);
#931 = CIRCLE('',#932,0.535);
#932 = AXIS2_PLACEMENT_3D('',#933,#934,#935);
#933 = CARTESIAN_POINT('',(42.562501090957,-2.,6.155868188878));
#934 = DIRECTION('',(0.104528463268,-0.,0.994521895368));
#935 = DIRECTION('',(0.994521895368,0.,-0.104528463268));
#936 = ORIENTED_EDGE('',*,*,#922,.T.);
#937 = CYLINDRICAL_SURFACE('',#938,0.535);
#938 = AXIS2_PLACEMENT_3D('',#939,#940,#941);
#939 = CARTESIAN_POINT('',(42.562501090957,-2.,6.155868188878));
#940 = DIRECTION('',(0.104528463268,0.,0.994521895368));
#941 = DIRECTION('',(0.994521895368,0.,-0.104528463268));
#942 = ADVANCED_FACE('',(#943),#946,.T.);
#943 = FACE_BOUND('',#944,.T.);
#944 = EDGE_LOOP('',(#945));
#945 = ORIENTED_EDGE('',*,*,#913,.T.);
#946 = PLANE('',#947);
#947 = AXIS2_PLACEMENT_3D('',#948,#949,#950);
#948 = CARTESIAN_POINT('',(42.588633206774,-2.,6.40449866272));
#949 = DIRECTION('',(0.104528463268,0.,0.994521895368));
#950 = DIRECTION('',(0.994521895368,0.,-0.104528463268));
#951 = ADVANCED_FACE('',(#952),#955,.F.);
#952 = FACE_BOUND('',#953,.T.);
#953 = EDGE_LOOP('',(#954));
#954 = ORIENTED_EDGE('',*,*,#930,.F.);
#955 = PLANE('',#956);
#956 = AXIS2_PLACEMENT_3D('',#957,#958,#959);
#957 = CARTESIAN_POINT('',(42.562501090957,-2.,6.155868188878));
#958 = DIRECTION('',(0.104528463268,0.,0.994521895368));
#959 = DIRECTION('',(0.994521895368,0.,-0.104528463268));
#960 = MANIFOLD_SOLID_BREP('',#961);
#961 = CLOSED_SHELL('',(#962,#995,#1004));
#962 = ADVANCED_FACE('',(#963),#990,.T.);
#963 = FACE_BOUND('',#964,.T.);
#964 = EDGE_LOOP('',(#965,#974,#982,#989));
#965 = ORIENTED_EDGE('',*,*,#966,.F.);
#966 = EDGE_CURVE('',#967,#967,#969,.T.);
#967 = VERTEX_POINT('',#968);
#968 = CARTESIAN_POINT('',(43.12170122025,-2.,8.319267184764));
#969 = CIRCLE('',#970,0.33);
#970 = AXIS2_PLACEMENT_3D('',#971,#972,#973);
#971 = CARTESIAN_POINT('',(42.793508994778,-2.,8.353761577642));
#972 = DIRECTION('',(0.104528463268,-0.,0.994521895368));
#973 = DIRECTION('',(0.994521895368,0.,-0.104528463268));
#974 = ORIENTED_EDGE('',*,*,#975,.F.);
#975 = EDGE_CURVE('',#976,#967,#978,.T.);
#976 = VERTEX_POINT('',#977);
#977 = CARTESIAN_POINT('',(42.890693316428,-2.,6.121373796));
#978 = LINE('',#979,#980);
#979 = CARTESIAN_POINT('',(42.890693316428,-2.,6.121373796));
#980 = VECTOR('',#981,1.);
#981 = DIRECTION('',(0.104528463268,0.,0.994521895368));
#982 = ORIENTED_EDGE('',*,*,#983,.T.);
#983 = EDGE_CURVE('',#976,#976,#984,.T.);
#984 = CIRCLE('',#985,0.33);
#985 = AXIS2_PLACEMENT_3D('',#986,#987,#988);
#986 = CARTESIAN_POINT('',(42.562501090957,-2.,6.155868188878));
#987 = DIRECTION('',(0.104528463268,-0.,0.994521895368));
#988 = DIRECTION('',(0.994521895368,0.,-0.104528463268));
#989 = ORIENTED_EDGE('',*,*,#975,.T.);
#990 = CYLINDRICAL_SURFACE('',#991,0.33);
#991 = AXIS2_PLACEMENT_3D('',#992,#993,#994);
#992 = CARTESIAN_POINT('',(42.562501090957,-2.,6.155868188878));
#993 = DIRECTION('',(0.104528463268,0.,0.994521895368));
#994 = DIRECTION('',(0.994521895368,0.,-0.104528463268));
#995 = ADVANCED_FACE('',(#996),#999,.T.);
#996 = FACE_BOUND('',#997,.T.);
#997 = EDGE_LOOP('',(#998));
#998 = ORIENTED_EDGE('',*,*,#966,.T.);
#999 = PLANE('',#1000);
#1000 = AXIS2_PLACEMENT_3D('',#1001,#1002,#1003);
#1001 = CARTESIAN_POINT('',(42.793508994778,-2.,8.353761577642));
#1002 = DIRECTION('',(0.104528463268,0.,0.994521895368));
#1003 = DIRECTION('',(0.994521895368,0.,-0.104528463268));
#1004 = ADVANCED_FACE('',(#1005),#1008,.F.);
#1005 = FACE_BOUND('',#1006,.T.);
#1006 = EDGE_LOOP('',(#1007));
#1007 = ORIENTED_EDGE('',*,*,#983,.F.);
#1008 = PLANE('',#1009);
#1009 = AXIS2_PLACEMENT_3D('',#1010,#1011,#1012);
#1010 = CARTESIAN_POINT('',(42.562501090957,-2.,6.155868188878));
#1011 = DIRECTION('',(0.104528463268,0.,0.994521895368));
#1012 = DIRECTION('',(0.994521895368,0.,-0.104528463268));
#1013 = MANIFOLD_SOLID_BREP('',#1014);
#1014 = CLOSED_SHELL('',(#1015,#1048,#1057));
#1015 = ADVANCED_FACE('',(#1016),#1043,.T.);
#1016 = FACE_BOUND('',#1017,.T.);
#1017 = EDGE_LOOP('',(#1018,#1027,#1035,#1042));
#1018 = ORIENTED_EDGE('',*,*,#1019,.F.);
#1019 = EDGE_CURVE('',#1020,#1020,#1022,.T.);
#1020 = VERTEX_POINT('',#1021);
#1021 = CARTESIAN_POINT('',(44.383745227914,-2.,6.215824786522));
#1022 = CIRCLE('',#1023,0.535);
#1023 = AXIS2_PLACEMENT_3D('',#1024,#1025,#1026);
#1024 = CARTESIAN_POINT('',(43.851676013891,-2.,6.271747514371));
#1025 = DIRECTION('',(0.104528463268,-0.,0.994521895368));
#1026 = DIRECTION('',(0.994521895368,0.,-0.104528463268));
#1027 = ORIENTED_EDGE('',*,*,#1028,.F.);
#1028 = EDGE_CURVE('',#1029,#1020,#1031,.T.);
#1029 = VERTEX_POINT('',#1030);
#1030 = CARTESIAN_POINT('',(44.357613112097,-2.,5.96719431268));
#1031 = LINE('',#1032,#1033);
#1032 = CARTESIAN_POINT('',(44.357613112097,-2.,5.96719431268));
#1033 = VECTOR('',#1034,1.);
#1034 = DIRECTION('',(0.104528463268,0.,0.994521895368));
#1035 = ORIENTED_EDGE('',*,*,#1036,.T.);
#1036 = EDGE_CURVE('',#1029,#1029,#1037,.T.);
#1037 = CIRCLE('',#1038,0.535);
#1038 = AXIS2_PLACEMENT_3D('',#1039,#1040,#1041);
#1039 = CARTESIAN_POINT('',(43.825543898075,-2.,6.023117040528));
#1040 = DIRECTION('',(0.104528463268,-0.,0.994521895368));
#1041 = DIRECTION('',(0.994521895368,0.,-0.104528463268));
#1042 = ORIENTED_EDGE('',*,*,#1028,.T.);
#1043 = CYLINDRICAL_SURFACE('',#1044,0.535);
#1044 = AXIS2_PLACEMENT_3D('',#1045,#1046,#1047);
#1045 = CARTESIAN_POINT('',(43.825543898075,-2.,6.023117040528));
#1046 = DIRECTION('',(0.104528463268,0.,0.994521895368));
#1047 = DIRECTION('',(0.994521895368,0.,-0.104528463268));
#1048 = ADVANCED_FACE('',(#1049),#1052,.T.);
#1049 = FACE_BOUND('',#1050,.T.);
#1050 = EDGE_LOOP('',(#1051));
#1051 = ORIENTED_EDGE('',*,*,#1019,.T.);
#1052 = PLANE('',#1053);
#1053 = AXIS2_PLACEMENT_3D('',#1054,#1055,#1056);
#1054 = CARTESIAN_POINT('',(43.851676013891,-2.,6.271747514371));
#1055 = DIRECTION('',(0.104528463268,0.,0.994521895368));
#1056 = DIRECTION('',(0.994521895368,0.,-0.104528463268));
#1057 = ADVANCED_FACE('',(#1058),#1061,.F.);
#1058 = FACE_BOUND('',#1059,.T.);
#1059 = EDGE_LOOP('',(#1060));
#1060 = ORIENTED_EDGE('',*,*,#1036,.F.);
#1061 = PLANE('',#1062);
#1062 = AXIS2_PLACEMENT_3D('',#1063,#1064,#1065);
#1063 = CARTESIAN_POINT('',(43.825543898075,-2.,6.023117040528));
#1064 = DIRECTION('',(0.104528463268,0.,0.994521895368));
#1065 = DIRECTION('',(0.994521895368,0.,-0.104528463268));
#1066 = MANIFOLD_SOLID_BREP('',#1067);
#1067 = CLOSED_SHELL('',(#1068,#1101,#1110));
#1068 = ADVANCED_FACE('',(#1069),#1096,.T.);
#1069 = FACE_BOUND('',#1070,.T.);
#1070 = EDGE_LOOP('',(#1071,#1080,#1088,#1095));
#1071 = ORIENTED_EDGE('',*,*,#1072,.F.);
#1072 = EDGE_CURVE('',#1073,#1073,#1075,.T.);
#1073 = VERTEX_POINT('',#1074);
#1074 = CARTESIAN_POINT('',(44.384744027368,-2.,8.186516036414));
#1075 = CIRCLE('',#1076,0.33);
#1076 = AXIS2_PLACEMENT_3D('',#1077,#1078,#1079);
#1077 = CARTESIAN_POINT('',(44.056551801896,-2.,8.221010429292));
#1078 = DIRECTION('',(0.104528463268,-0.,0.994521895368));
#1079 = DIRECTION('',(0.994521895368,0.,-0.104528463268));
#1080 = ORIENTED_EDGE('',*,*,#1081,.F.);
#1081 = EDGE_CURVE('',#1082,#1073,#1084,.T.);
#1082 = VERTEX_POINT('',#1083);
#1083 = CARTESIAN_POINT('',(44.153736123546,-2.,5.98862264765));
#1084 = LINE('',#1085,#1086);
#1085 = CARTESIAN_POINT('',(44.153736123546,-2.,5.98862264765));
#1086 = VECTOR('',#1087,1.);
#1087 = DIRECTION('',(0.104528463268,0.,0.994521895368));
#1088 = ORIENTED_EDGE('',*,*,#1089,.T.);
#1089 = EDGE_CURVE('',#1082,#1082,#1090,.T.);
#1090 = CIRCLE('',#1091,0.33);
#1091 = AXIS2_PLACEMENT_3D('',#1092,#1093,#1094);
#1092 = CARTESIAN_POINT('',(43.825543898075,-2.,6.023117040528));
#1093 = DIRECTION('',(0.104528463268,-0.,0.994521895368));
#1094 = DIRECTION('',(0.994521895368,0.,-0.104528463268));
#1095 = ORIENTED_EDGE('',*,*,#1081,.T.);
#1096 = CYLINDRICAL_SURFACE('',#1097,0.33);
#1097 = AXIS2_PLACEMENT_3D('',#1098,#1099,#1100);
#1098 = CARTESIAN_POINT('',(43.825543898075,-2.,6.023117040528));
#1099 = DIRECTION('',(0.104528463268,0.,0.994521895368));
#1100 = DIRECTION('',(0.994521895368,0.,-0.104528463268));
#1101 = ADVANCED_FACE('',(#1102),#1105,.T.);
#1102 = FACE_BOUND('',#1103,.T.);
#1103 = EDGE_LOOP('',(#1104));
#1104 = ORIENTED_EDGE('',*,*,#1072,.T.);
#1105 = PLANE('',#1106);
#1106 = AXIS2_PLACEMENT_3D('',#1107,#1108,#1109);
#1107 = CARTESIAN_POINT('',(44.056551801896,-2.,8.221010429292));
#1108 = DIRECTION('',(0.104528463268,0.,0.994521895368));
#1109 = DIRECTION('',(0.994521895368,0.,-0.104528463268));
#1110 = ADVANCED_FACE('',(#1111),#1114,.F.);
#1111 = FACE_BOUND('',#1112,.T.);
#1112 = EDGE_LOOP('',(#1113));
#1113 = ORIENTED_EDGE('',*,*,#1089,.F.);
#1114 = PLANE('',#1115);
#1115 = AXIS2_PLACEMENT_3D('',#1116,#1117,#1118);
#1116 = CARTESIAN_POINT('',(43.825543898075,-2.,6.023117040528));
#1117 = DIRECTION('',(0.104528463268,0.,0.994521895368));
#1118 = DIRECTION('',(0.994521895368,0.,-0.104528463268));
#1119 = MANIFOLD_SOLID_BREP('',#1120);
#1120 = CLOSED_SHELL('',(#1121,#1154,#1163));
#1121 = ADVANCED_FACE('',(#1122),#1149,.T.);
#1122 = FACE_BOUND('',#1123,.T.);
#1123 = EDGE_LOOP('',(#1124,#1133,#1141,#1148));
#1124 = ORIENTED_EDGE('',*,*,#1125,.F.);
#1125 = EDGE_CURVE('',#1126,#1126,#1128,.T.);
#1126 = VERTEX_POINT('',#1127);
#1127 = CARTESIAN_POINT('',(45.646788035031,-2.,6.083073638172));
#1128 = CIRCLE('',#1129,0.535);
#1129 = AXIS2_PLACEMENT_3D('',#1130,#1131,#1132);
#1130 = CARTESIAN_POINT('',(45.114718821009,-2.,6.138996366021));
#1131 = DIRECTION('',(0.104528463268,-0.,0.994521895368));
#1132 = DIRECTION('',(0.994521895368,0.,-0.104528463268));
#1133 = ORIENTED_EDGE('',*,*,#1134,.F.);
#1134 = EDGE_CURVE('',#1135,#1126,#1137,.T.);
#1135 = VERTEX_POINT('',#1136);
#1136 = CARTESIAN_POINT('',(45.620655919214,-2.,5.83444316433));
#1137 = LINE('',#1138,#1139);
#1138 = CARTESIAN_POINT('',(45.620655919214,-2.,5.83444316433));
#1139 = VECTOR('',#1140,1.);
#1140 = DIRECTION('',(0.104528463268,0.,0.994521895368));
#1141 = ORIENTED_EDGE('',*,*,#1142,.T.);
#1142 = EDGE_CURVE('',#1135,#1135,#1143,.T.);
#1143 = CIRCLE('',#1144,0.535);
#1144 = AXIS2_PLACEMENT_3D('',#1145,#1146,#1147);
#1145 = CARTESIAN_POINT('',(45.088586705192,-2.,5.890365892179));
#1146 = DIRECTION('',(0.104528463268,-0.,0.994521895368));
#1147 = DIRECTION('',(0.994521895368,0.,-0.104528463268));
#1148 = ORIENTED_EDGE('',*,*,#1134,.T.);
#1149 = CYLINDRICAL_SURFACE('',#1150,0.535);
#1150 = AXIS2_PLACEMENT_3D('',#1151,#1152,#1153);
#1151 = CARTESIAN_POINT('',(45.088586705192,-2.,5.890365892179));
#1152 = DIRECTION('',(0.104528463268,0.,0.994521895368));
#1153 = DIRECTION('',(0.994521895368,0.,-0.104528463268));
#1154 = ADVANCED_FACE('',(#1155),#1158,.T.);
#1155 = FACE_BOUND('',#1156,.T.);
#1156 = EDGE_LOOP('',(#1157));
#1157 = ORIENTED_EDGE('',*,*,#1125,.T.);
#1158 = PLANE('',#1159);
#1159 = AXIS2_PLACEMENT_3D('',#1160,#1161,#1162);
#1160 = CARTESIAN_POINT('',(45.114718821009,-2.,6.138996366021));
#1161 = DIRECTION('',(0.104528463268,0.,0.994521895368));
#1162 = DIRECTION('',(0.994521895368,0.,-0.104528463268));
#1163 = ADVANCED_FACE('',(#1164),#1167,.F.);
#1164 = FACE_BOUND('',#1165,.T.);
#1165 = EDGE_LOOP('',(#1166));
#1166 = ORIENTED_EDGE('',*,*,#1142,.F.);
#1167 = PLANE('',#1168);
#1168 = AXIS2_PLACEMENT_3D('',#1169,#1170,#1171);
#1169 = CARTESIAN_POINT('',(45.088586705192,-2.,5.890365892179));
#1170 = DIRECTION('',(0.104528463268,0.,0.994521895368));
#1171 = DIRECTION('',(0.994521895368,0.,-0.104528463268));
#1172 = MANIFOLD_SOLID_BREP('',#1173);
#1173 = CLOSED_SHELL('',(#1174,#1207,#1216));
#1174 = ADVANCED_FACE('',(#1175),#1202,.T.);
#1175 = FACE_BOUND('',#1176,.T.);
#1176 = EDGE_LOOP('',(#1177,#1186,#1194,#1201));
#1177 = ORIENTED_EDGE('',*,*,#1178,.F.);
#1178 = EDGE_CURVE('',#1179,#1179,#1181,.T.);
#1179 = VERTEX_POINT('',#1180);
#1180 = CARTESIAN_POINT('',(45.647786834485,-2.,8.053764888064));
#1181 = CIRCLE('',#1182,0.33);
#1182 = AXIS2_PLACEMENT_3D('',#1183,#1184,#1185);
#1183 = CARTESIAN_POINT('',(45.319594609014,-2.,8.088259280942));
#1184 = DIRECTION('',(0.104528463268,-0.,0.994521895368));
#1185 = DIRECTION('',(0.994521895368,0.,-0.104528463268));
#1186 = ORIENTED_EDGE('',*,*,#1187,.F.);
#1187 = EDGE_CURVE('',#1188,#1179,#1190,.T.);
#1188 = VERTEX_POINT('',#1189);
#1189 = CARTESIAN_POINT('',(45.416778930664,-2.,5.8558714993));
#1190 = LINE('',#1191,#1192);
#1191 = CARTESIAN_POINT('',(45.416778930664,-2.,5.8558714993));
#1192 = VECTOR('',#1193,1.);
#1193 = DIRECTION('',(0.104528463268,0.,0.994521895368));
#1194 = ORIENTED_EDGE('',*,*,#1195,.T.);
#1195 = EDGE_CURVE('',#1188,#1188,#1196,.T.);
#1196 = CIRCLE('',#1197,0.33);
#1197 = AXIS2_PLACEMENT_3D('',#1198,#1199,#1200);
#1198 = CARTESIAN_POINT('',(45.088586705192,-2.,5.890365892179));
#1199 = DIRECTION('',(0.104528463268,-0.,0.994521895368));
#1200 = DIRECTION('',(0.994521895368,0.,-0.104528463268));
#1201 = ORIENTED_EDGE('',*,*,#1187,.T.);
#1202 = CYLINDRICAL_SURFACE('',#1203,0.33);
#1203 = AXIS2_PLACEMENT_3D('',#1204,#1205,#1206);
#1204 = CARTESIAN_POINT('',(45.088586705192,-2.,5.890365892179));
#1205 = DIRECTION('',(0.104528463268,0.,0.994521895368));
#1206 = DIRECTION('',(0.994521895368,0.,-0.104528463268));
#1207 = ADVANCED_FACE('',(#1208),#1211,.T.);
#1208 = FACE_BOUND('',#1209,.T.);
#1209 = EDGE_LOOP('',(#1210));
#1210 = ORIENTED_EDGE('',*,*,#1178,.T.);
#1211 = PLANE('',#1212);
#1212 = AXIS2_PLACEMENT_3D('',#1213,#1214,#1215);
#1213 = CARTESIAN_POINT('',(45.319594609014,-2.,8.088259280942));
#1214 = DIRECTION('',(0.104528463268,0.,0.994521895368));
#1215 = DIRECTION('',(0.994521895368,0.,-0.104528463268));
#1216 = ADVANCED_FACE('',(#1217),#1220,.F.);
#1217 = FACE_BOUND('',#1218,.T.);
#1218 = EDGE_LOOP('',(#1219));
#1219 = ORIENTED_EDGE('',*,*,#1195,.F.);
#1220 = PLANE('',#1221);
#1221 = AXIS2_PLACEMENT_3D('',#1222,#1223,#1224);
#1222 = CARTESIAN_POINT('',(45.088586705192,-2.,5.890365892179));
#1223 = DIRECTION('',(0.104528463268,0.,0.994521895368));
#1224 = DIRECTION('',(0.994521895368,0.,-0.104528463268));
#1225 = MANIFOLD_SOLID_BREP('',#1226);
#1226 = CLOSED_SHELL('',(#1227,#1260,#1269));
#1227 = ADVANCED_FACE('',(#1228),#1255,.T.);
#1228 = FACE_BOUND('',#1229,.T.);
#1229 = EDGE_LOOP('',(#1230,#1239,#1247,#1254));
#1230 = ORIENTED_EDGE('',*,*,#1231,.F.);
#1231 = EDGE_CURVE('',#1232,#1232,#1234,.T.);
#1232 = VERTEX_POINT('',#1233);
#1233 = CARTESIAN_POINT('',(46.909830842149,-2.,5.950322489822));
#1234 = CIRCLE('',#1235,0.535);
#1235 = AXIS2_PLACEMENT_3D('',#1236,#1237,#1238);
#1236 = CARTESIAN_POINT('',(46.377761628127,-2.,6.006245217671));
#1237 = DIRECTION('',(0.104528463268,-0.,0.994521895368));
#1238 = DIRECTION('',(0.994521895368,0.,-0.104528463268));
#1239 = ORIENTED_EDGE('',*,*,#1240,.F.);
#1240 = EDGE_CURVE('',#1241,#1232,#1243,.T.);
#1241 = VERTEX_POINT('',#1242);
#1242 = CARTESIAN_POINT('',(46.883698726332,-2.,5.70169201598));
#1243 = LINE('',#1244,#1245);
#1244 = CARTESIAN_POINT('',(46.883698726332,-2.,5.70169201598));
#1245 = VECTOR('',#1246,1.);
#1246 = DIRECTION('',(0.104528463268,0.,0.994521895368));
#1247 = ORIENTED_EDGE('',*,*,#1248,.T.);
#1248 = EDGE_CURVE('',#1241,#1241,#1249,.T.);
#1249 = CIRCLE('',#1250,0.535);
#1250 = AXIS2_PLACEMENT_3D('',#1251,#1252,#1253);
#1251 = CARTESIAN_POINT('',(46.35162951231,-2.,5.757614743829));
#1252 = DIRECTION('',(0.104528463268,-0.,0.994521895368));
#1253 = DIRECTION('',(0.994521895368,0.,-0.104528463268));
#1254 = ORIENTED_EDGE('',*,*,#1240,.T.);
#1255 = CYLINDRICAL_SURFACE('',#1256,0.535);
#1256 = AXIS2_PLACEMENT_3D('',#1257,#1258,#1259);
#1257 = CARTESIAN_POINT('',(46.35162951231,-2.,5.757614743829));
#1258 = DIRECTION('',(0.104528463268,0.,0.994521895368));
#1259 = DIRECTION('',(0.994521895368,0.,-0.104528463268));
#1260 = ADVANCED_FACE('',(#1261),#1264,.T.);
#1261 = FACE_BOUND('',#1262,.T.);
#1262 = EDGE_LOOP('',(#1263));
#1263 = ORIENTED_EDGE('',*,*,#1231,.T.);
#1264 = PLANE('',#1265);
#1265 = AXIS2_PLACEMENT_3D('',#1266,#1267,#1268);
#1266 = CARTESIAN_POINT('',(46.377761628127,-2.,6.006245217671));
#1267 = DIRECTION('',(0.104528463268,0.,0.994521895368));
#1268 = DIRECTION('',(0.994521895368,0.,-0.104528463268));
#1269 = ADVANCED_FACE('',(#1270),#1273,.F.);
#1270 = FACE_BOUND('',#1271,.T.);
#1271 = EDGE_LOOP('',(#1272));
#1272 = ORIENTED_EDGE('',*,*,#1248,.F.);
#1273 = PLANE('',#1274);
#1274 = AXIS2_PLACEMENT_3D('',#1275,#1276,#1277);
#1275 = CARTESIAN_POINT('',(46.35162951231,-2.,5.757614743829));
#1276 = DIRECTION('',(0.104528463268,0.,0.994521895368));
#1277 = DIRECTION('',(0.994521895368,0.,-0.104528463268));
#1278 = MANIFOLD_SOLID_BREP('',#1279);
#1279 = CLOSED_SHELL('',(#1280,#1313,#1322));
#1280 = ADVANCED_FACE('',(#1281),#1308,.T.);
#1281 = FACE_BOUND('',#1282,.T.);
#1282 = EDGE_LOOP('',(#1283,#1292,#1300,#1307));
#1283 = ORIENTED_EDGE('',*,*,#1284,.F.);
#1284 = EDGE_CURVE('',#1285,#1285,#1287,.T.);
#1285 = VERTEX_POINT('',#1286);
#1286 = CARTESIAN_POINT('',(46.910829641603,-2.,7.921013739714));
#1287 = CIRCLE('',#1288,0.33);
#1288 = AXIS2_PLACEMENT_3D('',#1289,#1290,#1291);
#1289 = CARTESIAN_POINT('',(46.582637416132,-2.,7.955508132593));
#1290 = DIRECTION('',(0.104528463268,-0.,0.994521895368));
#1291 = DIRECTION('',(0.994521895368,0.,-0.104528463268));
#1292 = ORIENTED_EDGE('',*,*,#1293,.F.);
#1293 = EDGE_CURVE('',#1294,#1285,#1296,.T.);
#1294 = VERTEX_POINT('',#1295);
#1295 = CARTESIAN_POINT('',(46.679821737782,-2.,5.72312035095));
#1296 = LINE('',#1297,#1298);
#1297 = CARTESIAN_POINT('',(46.679821737782,-2.,5.72312035095));
#1298 = VECTOR('',#1299,1.);
#1299 = DIRECTION('',(0.104528463268,0.,0.994521895368));
#1300 = ORIENTED_EDGE('',*,*,#1301,.T.);
#1301 = EDGE_CURVE('',#1294,#1294,#1302,.T.);
#1302 = CIRCLE('',#1303,0.33);
#1303 = AXIS2_PLACEMENT_3D('',#1304,#1305,#1306);
#1304 = CARTESIAN_POINT('',(46.35162951231,-2.,5.757614743829));
#1305 = DIRECTION('',(0.104528463268,-0.,0.994521895368));
#1306 = DIRECTION('',(0.994521895368,0.,-0.104528463268));
#1307 = ORIENTED_EDGE('',*,*,#1293,.T.);
#1308 = CYLINDRICAL_SURFACE('',#1309,0.33);
#1309 = AXIS2_PLACEMENT_3D('',#1310,#1311,#1312);
#1310 = CARTESIAN_POINT('',(46.35162951231,-2.,5.757614743829));
#1311 = DIRECTION('',(0.104528463268,0.,0.994521895368));
#1312 = DIRECTION('',(0.994521895368,0.,-0.104528463268));
#1313 = ADVANCED_FACE('',(#1314),#1317,.T.);
#1314 = FACE_BOUND('',#1315,.T.);
#1315 = EDGE_LOOP('',(#1316));
#1316 = ORIENTED_EDGE('',*,*,#1284,.T.);
#1317 = PLANE('',#1318);
#1318 = AXIS2_PLACEMENT_3D('',#1319,#1320,#1321);
#1319 = CARTESIAN_POINT('',(46.582637416132,-2.,7.955508132593));
#1320 = DIRECTION('',(0.104528463268,0.,0.994521895368));
#1321 = DIRECTION('',(0.994521895368,0.,-0.104528463268));
#1322 = ADVANCED_FACE('',(#1323),#1326,.F.);
#1323 = FACE_BOUND('',#1324,.T.);
#1324 = EDGE_LOOP('',(#1325));
#1325 = ORIENTED_EDGE('',*,*,#1301,.F.);
#1326 = PLANE('',#1327);
#1327 = AXIS2_PLACEMENT_3D('',#1328,#1329,#1330);
#1328 = CARTESIAN_POINT('',(46.35162951231,-2.,5.757614743829));
#1329 = DIRECTION('',(0.104528463268,0.,0.994521895368));
#1330 = DIRECTION('',(0.994521895368,0.,-0.104528463268));
#1331 = MANIFOLD_SOLID_BREP('',#1332);
#1332 = CLOSED_SHELL('',(#1333,#1366,#1375));
#1333 = ADVANCED_FACE('',(#1334),#1361,.T.);
#1334 = FACE_BOUND('',#1335,.T.);
#1335 = EDGE_LOOP('',(#1336,#1345,#1353,#1360));
#1336 = ORIENTED_EDGE('',*,*,#1337,.F.);
#1337 = EDGE_CURVE('',#1338,#1338,#1340,.T.);
#1338 = VERTEX_POINT('',#1339);
#1339 = CARTESIAN_POINT('',(48.172873649267,-2.,5.817571341473));
#1340 = CIRCLE('',#1341,0.535);
#1341 = AXIS2_PLACEMENT_3D('',#1342,#1343,#1344);
#1342 = CARTESIAN_POINT('',(47.640804435245,-2.,5.873494069321));
#1343 = DIRECTION('',(0.104528463268,-0.,0.994521895368));
#1344 = DIRECTION('',(0.994521895368,0.,-0.104528463268));
#1345 = ORIENTED_EDGE('',*,*,#1346,.F.);
#1346 = EDGE_CURVE('',#1347,#1338,#1349,.T.);
#1347 = VERTEX_POINT('',#1348);
#1348 = CARTESIAN_POINT('',(48.14674153345,-2.,5.568940867631));
#1349 = LINE('',#1350,#1351);
#1350 = CARTESIAN_POINT('',(48.14674153345,-2.,5.568940867631));
#1351 = VECTOR('',#1352,1.);
#1352 = DIRECTION('',(0.104528463268,0.,0.994521895368));
#1353 = ORIENTED_EDGE('',*,*,#1354,.T.);
#1354 = EDGE_CURVE('',#1347,#1347,#1355,.T.);
#1355 = CIRCLE('',#1356,0.535);
#1356 = AXIS2_PLACEMENT_3D('',#1357,#1358,#1359);
#1357 = CARTESIAN_POINT('',(47.614672319428,-2.,5.624863595479));
#1358 = DIRECTION('',(0.104528463268,-0.,0.994521895368));
#1359 = DIRECTION('',(0.994521895368,0.,-0.104528463268));
#1360 = ORIENTED_EDGE('',*,*,#1346,.T.);
#1361 = CYLINDRICAL_SURFACE('',#1362,0.535);
#1362 = AXIS2_PLACEMENT_3D('',#1363,#1364,#1365);
#1363 = CARTESIAN_POINT('',(47.614672319428,-2.,5.624863595479));
#1364 = DIRECTION('',(0.104528463268,0.,0.994521895368));
#1365 = DIRECTION('',(0.994521895368,0.,-0.104528463268));
#1366 = ADVANCED_FACE('',(#1367),#1370,.T.);
#1367 = FACE_BOUND('',#1368,.T.);
#1368 = EDGE_LOOP('',(#1369));
#1369 = ORIENTED_EDGE('',*,*,#1337,.T.);
#1370 = PLANE('',#1371);
#1371 = AXIS2_PLACEMENT_3D('',#1372,#1373,#1374);
#1372 = CARTESIAN_POINT('',(47.640804435245,-2.,5.873494069321));
#1373 = DIRECTION('',(0.104528463268,0.,0.994521895368));
#1374 = DIRECTION('',(0.994521895368,0.,-0.104528463268));
#1375 = ADVANCED_FACE('',(#1376),#1379,.F.);
#1376 = FACE_BOUND('',#1377,.T.);
#1377 = EDGE_LOOP('',(#1378));
#1378 = ORIENTED_EDGE('',*,*,#1354,.F.);
#1379 = PLANE('',#1380);
#1380 = AXIS2_PLACEMENT_3D('',#1381,#1382,#1383);
#1381 = CARTESIAN_POINT('',(47.614672319428,-2.,5.624863595479));
#1382 = DIRECTION('',(0.104528463268,0.,0.994521895368));
#1383 = DIRECTION('',(0.994521895368,0.,-0.104528463268));
#1384 = MANIFOLD_SOLID_BREP('',#1385);
#1385 = CLOSED_SHELL('',(#1386,#1419,#1428));
#1386 = ADVANCED_FACE('',(#1387),#1414,.T.);
#1387 = FACE_BOUND('',#1388,.T.);
#1388 = EDGE_LOOP('',(#1389,#1398,#1406,#1413));
#1389 = ORIENTED_EDGE('',*,*,#1390,.F.);
#1390 = EDGE_CURVE('',#1391,#1391,#1393,.T.);
#1391 = VERTEX_POINT('',#1392);
#1392 = CARTESIAN_POINT('',(48.173872448721,-2.,7.788262591364));
#1393 = CIRCLE('',#1394,0.33);
#1394 = AXIS2_PLACEMENT_3D('',#1395,#1396,#1397);
#1395 = CARTESIAN_POINT('',(47.845680223249,-2.,7.822756984243));
#1396 = DIRECTION('',(0.104528463268,-0.,0.994521895368));
#1397 = DIRECTION('',(0.994521895368,0.,-0.104528463268));
#1398 = ORIENTED_EDGE('',*,*,#1399,.F.);
#1399 = EDGE_CURVE('',#1400,#1391,#1402,.T.);
#1400 = VERTEX_POINT('',#1401);
#1401 = CARTESIAN_POINT('',(47.942864544899,-2.,5.5903692026));
#1402 = LINE('',#1403,#1404);
#1403 = CARTESIAN_POINT('',(47.942864544899,-2.,5.5903692026));
#1404 = VECTOR('',#1405,1.);
#1405 = DIRECTION('',(0.104528463268,0.,0.994521895368));
#1406 = ORIENTED_EDGE('',*,*,#1407,.T.);
#1407 = EDGE_CURVE('',#1400,#1400,#1408,.T.);
#1408 = CIRCLE('',#1409,0.33);
#1409 = AXIS2_PLACEMENT_3D('',#1410,#1411,#1412);
#1410 = CARTESIAN_POINT('',(47.614672319428,-2.,5.624863595479));
#1411 = DIRECTION('',(0.104528463268,-0.,0.994521895368));
#1412 = DIRECTION('',(0.994521895368,0.,-0.104528463268));
#1413 = ORIENTED_EDGE('',*,*,#1399,.T.);
#1414 = CYLINDRICAL_SURFACE('',#1415,0.33);
#1415 = AXIS2_PLACEMENT_3D('',#1416,#1417,#1418);
#1416 = CARTESIAN_POINT('',(47.614672319428,-2.,5.624863595479));
#1417 = DIRECTION('',(0.104528463268,0.,0.994521895368));
#1418 = DIRECTION('',(0.994521895368,0.,-0.104528463268));
#1419 = ADVANCED_FACE('',(#1420),#1423,.T.);
#1420 = FACE_BOUND('',#1421,.T.);
#1421 = EDGE_LOOP('',(#1422));
#1422 = ORIENTED_EDGE('',*,*,#1390,.T.);
#1423 = PLANE('',#1424);
#1424 = AXIS2_PLACEMENT_3D('',#1425,#1426,#1427);
#1425 = CARTESIAN_POINT('',(47.845680223249,-2.,7.822756984243));
#1426 = DIRECTION('',(0.104528463268,0.,0.994521895368));
#1427 = DIRECTION('',(0.994521895368,0.,-0.104528463268));
#1428 = ADVANCED_FACE('',(#1429),#1432,.F.);
#1429 = FACE_BOUND('',#1430,.T.);
#1430 = EDGE_LOOP('',(#1431));
#1431 = ORIENTED_EDGE('',*,*,#1407,.F.);
#1432 = PLANE('',#1433);
#1433 = AXIS2_PLACEMENT_3D('',#1434,#1435,#1436);
#1434 = CARTESIAN_POINT('',(47.614672319428,-2.,5.624863595479));
#1435 = DIRECTION('',(0.104528463268,0.,0.994521895368));
#1436 = DIRECTION('',(0.994521895368,0.,-0.104528463268));
#1437 = ( GEOMETRIC_REPRESENTATION_CONTEXT(3) 
GLOBAL_UNCERTAINTY_ASSIGNED_CONTEXT((#1441)) 
GLOBAL_UNIT_ASSIGNED_CONTEXT((#1438,#1439,#1440)) REPRESENTATION_CONTEXT
('Context #1','3D Context with UNIT and UNCERTAINTY') );
#1438 = ( LENGTH_UNIT() NAMED_UNIT(*) SI_UNIT(.MILLI.,.METRE.) );
#1439 = ( NAMED_UNIT(*) PLANE_ANGLE_UNIT() SI_UNIT($,.RADIAN.) );
#1440 = ( NAMED_UNIT(*) SI_UNIT($,.STERADIAN.) SOLID_ANGLE_UNIT() );
#1441 = UNCERTAINTY_MEASURE_WITH_UNIT(LENGTH_MEASURE(1.E-07),#1438,
  'distance_accuracy_value','confusion accuracy');
#1442 = PRODUCT_RELATED_PRODUCT_CATEGORY('part',$,(#7));
ENDSEC;
END-ISO-10303-21;
