ISO-10303-21;
HEADER;
FILE_DESCRIPTION(('FreeCAD Model'),'2;1');
FILE_NAME('Open CASCADE Shape Model','2026-09-12T13:40:33',('Author'),(
    ''),'Open CASCADE STEP processor 7.8','FreeCAD','Unknown');
FILE_SCHEMA(('AUTOMOTIVE_DESIGN { 1 0 10303 214 1 1 1 1 }'));
ENDSEC;
DATA;
#1 = APPLICATION_PROTOCOL_DEFINITION('international standard',
  'automotive_design',2000,#2);
#2 = APPLICATION_CONTEXT(
  'core data for automotive mechanical design processes');
#3 = SHAPE_DEFINITION_REPRESENTATION(#4,#10);
#4 = PRODUCT_DEFINITION_SHAPE('','',#5);
#5 = PRODUCT_DEFINITION('design','',#6,#9);
#6 = PRODUCT_DEFINITION_FORMATION('','',#7);
#7 = PRODUCT('Right floating-head carrier','Right floating-head carrier'
  ,'',(#8));
#8 = PRODUCT_CONTEXT('',#2,'mechanical');
#9 = PRODUCT_DEFINITION_CONTEXT('part definition',#2,'design');
#10 = ADVANCED_BREP_SHAPE_REPRESENTATION('',(#11,#15),#495);
#11 = AXIS2_PLACEMENT_3D('',#12,#13,#14);
#12 = CARTESIAN_POINT('',(0.,0.,0.));
#13 = DIRECTION('',(0.,0.,1.));
#14 = DIRECTION('',(1.,0.,-0.));
#15 = MANIFOLD_SOLID_BREP('',#16);
#16 = CLOSED_SHELL('',(#17,#89,#175,#215,#239,#272,#296,#320,#337,#361,
    #385,#409,#433,#450,#462,#479));
#17 = ADVANCED_FACE('',(#18),#84,.F.);
#18 = FACE_BOUND('',#19,.F.);
#19 = EDGE_LOOP('',(#20,#30,#38,#46,#54,#62,#70,#78));
#20 = ORIENTED_EDGE('',*,*,#21,.F.);
#21 = EDGE_CURVE('',#22,#24,#26,.T.);
#22 = VERTEX_POINT('',#23);
#23 = CARTESIAN_POINT('',(28.421134030691,-12.,4.635716003464));
#24 = VERTEX_POINT('',#25);
#25 = CARTESIAN_POINT('',(28.421134030691,-6.,4.635716003464));
#26 = LINE('',#27,#28);
#27 = CARTESIAN_POINT('',(28.421134030691,-12.,4.635716003464));
#28 = VECTOR('',#29,1.);
#29 = DIRECTION('',(0.,1.,0.));
#30 = ORIENTED_EDGE('',*,*,#31,.F.);
#31 = EDGE_CURVE('',#32,#22,#34,.T.);
#32 = VERTEX_POINT('',#33);
#33 = CARTESIAN_POINT('',(28.065737255581,-12.,1.254341559212));
#34 = LINE('',#35,#36);
#35 = CARTESIAN_POINT('',(28.065737255581,-12.,1.254341559212));
#36 = VECTOR('',#37,1.);
#37 = DIRECTION('',(0.104528463268,0.,0.994521895368));
#38 = ORIENTED_EDGE('',*,*,#39,.T.);
#39 = EDGE_CURVE('',#32,#40,#42,.T.);
#40 = VERTEX_POINT('',#41);
#41 = CARTESIAN_POINT('',(28.065737255581,12.,1.254341559212));
#42 = LINE('',#43,#44);
#43 = CARTESIAN_POINT('',(28.065737255581,-12.,1.254341559212));
#44 = VECTOR('',#45,1.);
#45 = DIRECTION('',(0.,1.,0.));
#46 = ORIENTED_EDGE('',*,*,#47,.T.);
#47 = EDGE_CURVE('',#40,#48,#50,.T.);
#48 = VERTEX_POINT('',#49);
#49 = CARTESIAN_POINT('',(28.421134030691,12.,4.635716003464));
#50 = LINE('',#51,#52);
#51 = CARTESIAN_POINT('',(28.065737255581,12.,1.254341559212));
#52 = VECTOR('',#53,1.);
#53 = DIRECTION('',(0.104528463268,0.,0.994521895368));
#54 = ORIENTED_EDGE('',*,*,#55,.F.);
#55 = EDGE_CURVE('',#56,#48,#58,.T.);
#56 = VERTEX_POINT('',#57);
#57 = CARTESIAN_POINT('',(28.421134030691,6.,4.635716003464));
#58 = LINE('',#59,#60);
#59 = CARTESIAN_POINT('',(28.421134030691,-12.,4.635716003464));
#60 = VECTOR('',#61,1.);
#61 = DIRECTION('',(0.,1.,0.));
#62 = ORIENTED_EDGE('',*,*,#63,.F.);
#63 = EDGE_CURVE('',#64,#56,#66,.T.);
#64 = VERTEX_POINT('',#65);
#65 = CARTESIAN_POINT('',(28.159812872522,6.,2.149411265043));
#66 = LINE('',#67,#68);
#67 = CARTESIAN_POINT('',(28.112775064051,6.,1.701876412128));
#68 = VECTOR('',#69,1.);
#69 = DIRECTION('',(0.104528463268,0.,0.994521895368));
#70 = ORIENTED_EDGE('',*,*,#71,.T.);
#71 = EDGE_CURVE('',#64,#72,#74,.T.);
#72 = VERTEX_POINT('',#73);
#73 = CARTESIAN_POINT('',(28.159812872522,-6.,2.149411265043));
#74 = LINE('',#75,#76);
#75 = CARTESIAN_POINT('',(28.159812872522,-9.,2.149411265043));
#76 = VECTOR('',#77,1.);
#77 = DIRECTION('',(0.,-1.,0.));
#78 = ORIENTED_EDGE('',*,*,#79,.T.);
#79 = EDGE_CURVE('',#72,#24,#80,.T.);
#80 = LINE('',#81,#82);
#81 = CARTESIAN_POINT('',(28.112775064051,-6.,1.701876412128));
#82 = VECTOR('',#83,1.);
#83 = DIRECTION('',(0.104528463268,0.,0.994521895368));
#84 = PLANE('',#85);
#85 = AXIS2_PLACEMENT_3D('',#86,#87,#88);
#86 = CARTESIAN_POINT('',(28.065737255581,-12.,1.254341559212));
#87 = DIRECTION('',(0.994521895368,0.,-0.104528463268));
#88 = DIRECTION('',(0.104528463268,0.,0.994521895368));
#89 = ADVANCED_FACE('',(#90),#170,.T.);
#90 = FACE_BOUND('',#91,.T.);
#91 = EDGE_LOOP('',(#92,#93,#101,#109,#115,#116,#124,#132,#140,#148,#156
    ,#164));
#92 = ORIENTED_EDGE('',*,*,#21,.F.);
#93 = ORIENTED_EDGE('',*,*,#94,.T.);
#94 = EDGE_CURVE('',#22,#95,#97,.T.);
#95 = VERTEX_POINT('',#96);
#96 = CARTESIAN_POINT('',(52.289659519529,-12.,2.12703288504));
#97 = LINE('',#98,#99);
#98 = CARTESIAN_POINT('',(28.421134030691,-12.,4.635716003464));
#99 = VECTOR('',#100,1.);
#100 = DIRECTION('',(0.994521895368,0.,-0.104528463268));
#101 = ORIENTED_EDGE('',*,*,#102,.T.);
#102 = EDGE_CURVE('',#95,#103,#105,.T.);
#103 = VERTEX_POINT('',#104);
#104 = CARTESIAN_POINT('',(52.289659519529,12.,2.12703288504));
#105 = LINE('',#106,#107);
#106 = CARTESIAN_POINT('',(52.289659519529,-12.,2.12703288504));
#107 = VECTOR('',#108,1.);
#108 = DIRECTION('',(0.,1.,0.));
#109 = ORIENTED_EDGE('',*,*,#110,.F.);
#110 = EDGE_CURVE('',#48,#103,#111,.T.);
#111 = LINE('',#112,#113);
#112 = CARTESIAN_POINT('',(28.421134030691,12.,4.635716003464));
#113 = VECTOR('',#114,1.);
#114 = DIRECTION('',(0.994521895368,0.,-0.104528463268));
#115 = ORIENTED_EDGE('',*,*,#55,.F.);
#116 = ORIENTED_EDGE('',*,*,#117,.F.);
#117 = EDGE_CURVE('',#118,#56,#120,.T.);
#118 = VERTEX_POINT('',#119);
#119 = CARTESIAN_POINT('',(30.01236906328,6.,4.468470462236));
#120 = LINE('',#121,#122);
#121 = CARTESIAN_POINT('',(28.023325272543,6.,4.677527388771));
#122 = VECTOR('',#123,1.);
#123 = DIRECTION('',(-0.994521895368,0.,0.104528463268));
#124 = ORIENTED_EDGE('',*,*,#125,.T.);
#125 = EDGE_CURVE('',#118,#126,#128,.T.);
#126 = VERTEX_POINT('',#127);
#127 = CARTESIAN_POINT('',(30.01236906328,10.4,4.468470462236));
#128 = LINE('',#129,#130);
#129 = CARTESIAN_POINT('',(30.01236906328,-11.2,4.468470462236));
#130 = VECTOR('',#131,1.);
#131 = DIRECTION('',(0.,1.,0.));
#132 = ORIENTED_EDGE('',*,*,#133,.F.);
#133 = EDGE_CURVE('',#134,#126,#136,.T.);
#134 = VERTEX_POINT('',#135);
#135 = CARTESIAN_POINT('',(50.69842448694,10.4,2.294278426269));
#136 = LINE('',#137,#138);
#137 = CARTESIAN_POINT('',(29.216751546985,10.4,4.55209323285));
#138 = VECTOR('',#139,1.);
#139 = DIRECTION('',(-0.994521895368,0.,0.104528463268));
#140 = ORIENTED_EDGE('',*,*,#141,.F.);
#141 = EDGE_CURVE('',#142,#134,#144,.T.);
#142 = VERTEX_POINT('',#143);
#143 = CARTESIAN_POINT('',(50.69842448694,-10.4,2.294278426269));
#144 = LINE('',#145,#146);
#145 = CARTESIAN_POINT('',(50.69842448694,-11.2,2.294278426269));
#146 = VECTOR('',#147,1.);
#147 = DIRECTION('',(0.,1.,0.));
#148 = ORIENTED_EDGE('',*,*,#149,.T.);
#149 = EDGE_CURVE('',#142,#150,#152,.T.);
#150 = VERTEX_POINT('',#151);
#151 = CARTESIAN_POINT('',(30.01236906328,-10.4,4.468470462236));
#152 = LINE('',#153,#154);
#153 = CARTESIAN_POINT('',(29.216751546985,-10.4,4.55209323285));
#154 = VECTOR('',#155,1.);
#155 = DIRECTION('',(-0.994521895368,0.,0.104528463268));
#156 = ORIENTED_EDGE('',*,*,#157,.T.);
#157 = EDGE_CURVE('',#150,#158,#160,.T.);
#158 = VERTEX_POINT('',#159);
#159 = CARTESIAN_POINT('',(30.01236906328,-6.,4.468470462236));
#160 = LINE('',#161,#162);
#161 = CARTESIAN_POINT('',(30.01236906328,-11.2,4.468470462236));
#162 = VECTOR('',#163,1.);
#163 = DIRECTION('',(0.,1.,0.));
#164 = ORIENTED_EDGE('',*,*,#165,.T.);
#165 = EDGE_CURVE('',#158,#24,#166,.T.);
#166 = LINE('',#167,#168);
#167 = CARTESIAN_POINT('',(28.023325272543,-6.,4.677527388771));
#168 = VECTOR('',#169,1.);
#169 = DIRECTION('',(-0.994521895368,0.,0.104528463268));
#170 = PLANE('',#171);
#171 = AXIS2_PLACEMENT_3D('',#172,#173,#174);
#172 = CARTESIAN_POINT('',(28.421134030691,-12.,4.635716003464));
#173 = DIRECTION('',(0.104528463268,0.,0.994521895368));
#174 = DIRECTION('',(0.994521895368,0.,-0.104528463268));
#175 = ADVANCED_FACE('',(#176),#210,.T.);
#176 = FACE_BOUND('',#177,.T.);
#177 = EDGE_LOOP('',(#178,#186,#187,#188,#196,#204));
#178 = ORIENTED_EDGE('',*,*,#179,.F.);
#179 = EDGE_CURVE('',#72,#180,#182,.T.);
#180 = VERTEX_POINT('',#181);
#181 = CARTESIAN_POINT('',(31.3422829377,-6.,1.814920182587));
#182 = LINE('',#183,#184);
#183 = CARTESIAN_POINT('',(27.364195356227,-6.,2.233034035657));
#184 = VECTOR('',#185,1.);
#185 = DIRECTION('',(0.994521895368,0.,-0.104528463268));
#186 = ORIENTED_EDGE('',*,*,#79,.T.);
#187 = ORIENTED_EDGE('',*,*,#165,.F.);
#188 = ORIENTED_EDGE('',*,*,#189,.F.);
#189 = EDGE_CURVE('',#190,#158,#192,.T.);
#190 = VERTEX_POINT('',#191);
#191 = CARTESIAN_POINT('',(29.782406444091,-6.,2.280522292426));
#192 = LINE('',#193,#194);
#193 = CARTESIAN_POINT('',(29.766727174601,-6.,2.13134400812));
#194 = VECTOR('',#195,1.);
#195 = DIRECTION('',(0.104528463268,0.,0.994521895368));
#196 = ORIENTED_EDGE('',*,*,#197,.F.);
#197 = EDGE_CURVE('',#198,#190,#200,.T.);
#198 = VERTEX_POINT('',#199);
#199 = CARTESIAN_POINT('',(31.37364147668,-6.,2.113276751197));
#200 = LINE('',#201,#202);
#201 = CARTESIAN_POINT('',(28.588980169649,-6.,2.405956448347));
#202 = VECTOR('',#203,1.);
#203 = DIRECTION('',(-0.994521895368,0.,0.104528463268));
#204 = ORIENTED_EDGE('',*,*,#205,.F.);
#205 = EDGE_CURVE('',#180,#198,#206,.T.);
#206 = LINE('',#207,#208);
#207 = CARTESIAN_POINT('',(31.3422829377,-6.,1.814920182587));
#208 = VECTOR('',#209,1.);
#209 = DIRECTION('',(0.104528463268,0.,0.994521895368));
#210 = PLANE('',#211);
#211 = AXIS2_PLACEMENT_3D('',#212,#213,#214);
#212 = CARTESIAN_POINT('',(27.364195356227,-6.,2.233034035657));
#213 = DIRECTION('',(0.,1.,0.));
#214 = DIRECTION('',(0.104528463268,0.,0.994521895368));
#215 = ADVANCED_FACE('',(#216),#234,.T.);
#216 = FACE_BOUND('',#217,.T.);
#217 = EDGE_LOOP('',(#218,#226,#227,#228));
#218 = ORIENTED_EDGE('',*,*,#219,.F.);
#219 = EDGE_CURVE('',#64,#220,#222,.T.);
#220 = VERTEX_POINT('',#221);
#221 = CARTESIAN_POINT('',(31.3422829377,6.,1.814920182587));
#222 = LINE('',#223,#224);
#223 = CARTESIAN_POINT('',(27.364195356227,6.,2.233034035657));
#224 = VECTOR('',#225,1.);
#225 = DIRECTION('',(0.994521895368,0.,-0.104528463268));
#226 = ORIENTED_EDGE('',*,*,#71,.T.);
#227 = ORIENTED_EDGE('',*,*,#179,.T.);
#228 = ORIENTED_EDGE('',*,*,#229,.T.);
#229 = EDGE_CURVE('',#180,#220,#230,.T.);
#230 = LINE('',#231,#232);
#231 = CARTESIAN_POINT('',(31.3422829377,-6.,1.814920182587));
#232 = VECTOR('',#233,1.);
#233 = DIRECTION('',(0.,1.,0.));
#234 = PLANE('',#235);
#235 = AXIS2_PLACEMENT_3D('',#236,#237,#238);
#236 = CARTESIAN_POINT('',(27.364195356227,-6.,2.233034035657));
#237 = DIRECTION('',(0.104528463268,0.,0.994521895368));
#238 = DIRECTION('',(0.994521895368,0.,-0.104528463268));
#239 = ADVANCED_FACE('',(#240),#267,.F.);
#240 = FACE_BOUND('',#241,.F.);
#241 = EDGE_LOOP('',(#242,#243,#244,#245,#253,#261));
#242 = ORIENTED_EDGE('',*,*,#219,.F.);
#243 = ORIENTED_EDGE('',*,*,#63,.T.);
#244 = ORIENTED_EDGE('',*,*,#117,.F.);
#245 = ORIENTED_EDGE('',*,*,#246,.F.);
#246 = EDGE_CURVE('',#247,#118,#249,.T.);
#247 = VERTEX_POINT('',#248);
#248 = CARTESIAN_POINT('',(29.782406444091,6.,2.280522292426));
#249 = LINE('',#250,#251);
#250 = CARTESIAN_POINT('',(29.766727174601,6.,2.13134400812));
#251 = VECTOR('',#252,1.);
#252 = DIRECTION('',(0.104528463268,0.,0.994521895368));
#253 = ORIENTED_EDGE('',*,*,#254,.F.);
#254 = EDGE_CURVE('',#255,#247,#257,.T.);
#255 = VERTEX_POINT('',#256);
#256 = CARTESIAN_POINT('',(31.37364147668,6.,2.113276751197));
#257 = LINE('',#258,#259);
#258 = CARTESIAN_POINT('',(28.588980169649,6.,2.405956448347));
#259 = VECTOR('',#260,1.);
#260 = DIRECTION('',(-0.994521895368,0.,0.104528463268));
#261 = ORIENTED_EDGE('',*,*,#262,.F.);
#262 = EDGE_CURVE('',#220,#255,#263,.T.);
#263 = LINE('',#264,#265);
#264 = CARTESIAN_POINT('',(31.3422829377,6.,1.814920182587));
#265 = VECTOR('',#266,1.);
#266 = DIRECTION('',(0.104528463268,0.,0.994521895368));
#267 = PLANE('',#268);
#268 = AXIS2_PLACEMENT_3D('',#269,#270,#271);
#269 = CARTESIAN_POINT('',(27.364195356227,6.,2.233034035657));
#270 = DIRECTION('',(0.,1.,0.));
#271 = DIRECTION('',(0.104528463268,0.,0.994521895368));
#272 = ADVANCED_FACE('',(#273),#291,.T.);
#273 = FACE_BOUND('',#274,.T.);
#274 = EDGE_LOOP('',(#275,#283,#284,#285));
#275 = ORIENTED_EDGE('',*,*,#276,.F.);
#276 = EDGE_CURVE('',#40,#277,#279,.T.);
#277 = VERTEX_POINT('',#278);
#278 = CARTESIAN_POINT('',(51.934262744419,12.,-1.254341559212));
#279 = LINE('',#280,#281);
#280 = CARTESIAN_POINT('',(28.065737255581,12.,1.254341559212));
#281 = VECTOR('',#282,1.);
#282 = DIRECTION('',(0.994521895368,0.,-0.104528463268));
#283 = ORIENTED_EDGE('',*,*,#47,.T.);
#284 = ORIENTED_EDGE('',*,*,#110,.T.);
#285 = ORIENTED_EDGE('',*,*,#286,.F.);
#286 = EDGE_CURVE('',#277,#103,#287,.T.);
#287 = LINE('',#288,#289);
#288 = CARTESIAN_POINT('',(51.934262744419,12.,-1.254341559212));
#289 = VECTOR('',#290,1.);
#290 = DIRECTION('',(0.104528463268,0.,0.994521895368));
#291 = PLANE('',#292);
#292 = AXIS2_PLACEMENT_3D('',#293,#294,#295);
#293 = CARTESIAN_POINT('',(28.065737255581,12.,1.254341559212));
#294 = DIRECTION('',(0.,1.,0.));
#295 = DIRECTION('',(0.104528463268,0.,0.994521895368));
#296 = ADVANCED_FACE('',(#297),#315,.F.);
#297 = FACE_BOUND('',#298,.F.);
#298 = EDGE_LOOP('',(#299,#300,#308,#314));
#299 = ORIENTED_EDGE('',*,*,#39,.F.);
#300 = ORIENTED_EDGE('',*,*,#301,.T.);
#301 = EDGE_CURVE('',#32,#302,#304,.T.);
#302 = VERTEX_POINT('',#303);
#303 = CARTESIAN_POINT('',(51.934262744419,-12.,-1.254341559212));
#304 = LINE('',#305,#306);
#305 = CARTESIAN_POINT('',(28.065737255581,-12.,1.254341559212));
#306 = VECTOR('',#307,1.);
#307 = DIRECTION('',(0.994521895368,0.,-0.104528463268));
#308 = ORIENTED_EDGE('',*,*,#309,.T.);
#309 = EDGE_CURVE('',#302,#277,#310,.T.);
#310 = LINE('',#311,#312);
#311 = CARTESIAN_POINT('',(51.934262744419,-12.,-1.254341559212));
#312 = VECTOR('',#313,1.);
#313 = DIRECTION('',(0.,1.,0.));
#314 = ORIENTED_EDGE('',*,*,#276,.F.);
#315 = PLANE('',#316);
#316 = AXIS2_PLACEMENT_3D('',#317,#318,#319);
#317 = CARTESIAN_POINT('',(28.065737255581,-12.,1.254341559212));
#318 = DIRECTION('',(0.104528463268,0.,0.994521895368));
#319 = DIRECTION('',(0.994521895368,0.,-0.104528463268));
#320 = ADVANCED_FACE('',(#321),#332,.F.);
#321 = FACE_BOUND('',#322,.F.);
#322 = EDGE_LOOP('',(#323,#324,#325,#326));
#323 = ORIENTED_EDGE('',*,*,#301,.F.);
#324 = ORIENTED_EDGE('',*,*,#31,.T.);
#325 = ORIENTED_EDGE('',*,*,#94,.T.);
#326 = ORIENTED_EDGE('',*,*,#327,.F.);
#327 = EDGE_CURVE('',#302,#95,#328,.T.);
#328 = LINE('',#329,#330);
#329 = CARTESIAN_POINT('',(51.934262744419,-12.,-1.254341559212));
#330 = VECTOR('',#331,1.);
#331 = DIRECTION('',(0.104528463268,0.,0.994521895368));
#332 = PLANE('',#333);
#333 = AXIS2_PLACEMENT_3D('',#334,#335,#336);
#334 = CARTESIAN_POINT('',(28.065737255581,-12.,1.254341559212));
#335 = DIRECTION('',(0.,1.,0.));
#336 = DIRECTION('',(0.104528463268,0.,0.994521895368));
#337 = ADVANCED_FACE('',(#338),#356,.T.);
#338 = FACE_BOUND('',#339,.T.);
#339 = EDGE_LOOP('',(#340,#348,#354,#355));
#340 = ORIENTED_EDGE('',*,*,#341,.F.);
#341 = EDGE_CURVE('',#342,#150,#344,.T.);
#342 = VERTEX_POINT('',#343);
#343 = CARTESIAN_POINT('',(29.782406444091,-10.4,2.280522292426));
#344 = LINE('',#345,#346);
#345 = CARTESIAN_POINT('',(29.782406444091,-10.4,2.280522292426));
#346 = VECTOR('',#347,1.);
#347 = DIRECTION('',(0.104528463268,0.,0.994521895368));
#348 = ORIENTED_EDGE('',*,*,#349,.T.);
#349 = EDGE_CURVE('',#342,#190,#350,.T.);
#350 = LINE('',#351,#352);
#351 = CARTESIAN_POINT('',(29.782406444091,-10.4,2.280522292426));
#352 = VECTOR('',#353,1.);
#353 = DIRECTION('',(0.,1.,0.));
#354 = ORIENTED_EDGE('',*,*,#189,.T.);
#355 = ORIENTED_EDGE('',*,*,#157,.F.);
#356 = PLANE('',#357);
#357 = AXIS2_PLACEMENT_3D('',#358,#359,#360);
#358 = CARTESIAN_POINT('',(29.782406444091,-10.4,2.280522292426));
#359 = DIRECTION('',(0.994521895368,0.,-0.104528463268));
#360 = DIRECTION('',(0.104528463268,0.,0.994521895368));
#361 = ADVANCED_FACE('',(#362),#380,.T.);
#362 = FACE_BOUND('',#363,.T.);
#363 = EDGE_LOOP('',(#364,#372,#378,#379));
#364 = ORIENTED_EDGE('',*,*,#365,.F.);
#365 = EDGE_CURVE('',#366,#142,#368,.T.);
#366 = VERTEX_POINT('',#367);
#367 = CARTESIAN_POINT('',(50.468461867751,-10.4,0.106330256458));
#368 = LINE('',#369,#370);
#369 = CARTESIAN_POINT('',(50.468461867751,-10.4,0.106330256458));
#370 = VECTOR('',#371,1.);
#371 = DIRECTION('',(0.104528463268,0.,0.994521895368));
#372 = ORIENTED_EDGE('',*,*,#373,.F.);
#373 = EDGE_CURVE('',#342,#366,#374,.T.);
#374 = LINE('',#375,#376);
#375 = CARTESIAN_POINT('',(29.782406444091,-10.4,2.280522292426));
#376 = VECTOR('',#377,1.);
#377 = DIRECTION('',(0.994521895368,0.,-0.104528463268));
#378 = ORIENTED_EDGE('',*,*,#341,.T.);
#379 = ORIENTED_EDGE('',*,*,#149,.F.);
#380 = PLANE('',#381);
#381 = AXIS2_PLACEMENT_3D('',#382,#383,#384);
#382 = CARTESIAN_POINT('',(29.782406444091,-10.4,2.280522292426));
#383 = DIRECTION('',(0.,1.,0.));
#384 = DIRECTION('',(0.104528463268,0.,0.994521895368));
#385 = ADVANCED_FACE('',(#386),#404,.F.);
#386 = FACE_BOUND('',#387,.F.);
#387 = EDGE_LOOP('',(#388,#389,#397,#403));
#388 = ORIENTED_EDGE('',*,*,#365,.F.);
#389 = ORIENTED_EDGE('',*,*,#390,.T.);
#390 = EDGE_CURVE('',#366,#391,#393,.T.);
#391 = VERTEX_POINT('',#392);
#392 = CARTESIAN_POINT('',(50.468461867751,10.4,0.106330256458));
#393 = LINE('',#394,#395);
#394 = CARTESIAN_POINT('',(50.468461867751,-10.4,0.106330256458));
#395 = VECTOR('',#396,1.);
#396 = DIRECTION('',(0.,1.,0.));
#397 = ORIENTED_EDGE('',*,*,#398,.T.);
#398 = EDGE_CURVE('',#391,#134,#399,.T.);
#399 = LINE('',#400,#401);
#400 = CARTESIAN_POINT('',(50.468461867751,10.4,0.106330256458));
#401 = VECTOR('',#402,1.);
#402 = DIRECTION('',(0.104528463268,0.,0.994521895368));
#403 = ORIENTED_EDGE('',*,*,#141,.F.);
#404 = PLANE('',#405);
#405 = AXIS2_PLACEMENT_3D('',#406,#407,#408);
#406 = CARTESIAN_POINT('',(50.468461867751,-10.4,0.106330256458));
#407 = DIRECTION('',(0.994521895368,0.,-0.104528463268));
#408 = DIRECTION('',(0.104528463268,0.,0.994521895368));
#409 = ADVANCED_FACE('',(#410),#428,.F.);
#410 = FACE_BOUND('',#411,.F.);
#411 = EDGE_LOOP('',(#412,#413,#421,#427));
#412 = ORIENTED_EDGE('',*,*,#398,.F.);
#413 = ORIENTED_EDGE('',*,*,#414,.F.);
#414 = EDGE_CURVE('',#415,#391,#417,.T.);
#415 = VERTEX_POINT('',#416);
#416 = CARTESIAN_POINT('',(29.782406444091,10.4,2.280522292426));
#417 = LINE('',#418,#419);
#418 = CARTESIAN_POINT('',(29.782406444091,10.4,2.280522292426));
#419 = VECTOR('',#420,1.);
#420 = DIRECTION('',(0.994521895368,0.,-0.104528463268));
#421 = ORIENTED_EDGE('',*,*,#422,.T.);
#422 = EDGE_CURVE('',#415,#126,#423,.T.);
#423 = LINE('',#424,#425);
#424 = CARTESIAN_POINT('',(29.782406444091,10.4,2.280522292426));
#425 = VECTOR('',#426,1.);
#426 = DIRECTION('',(0.104528463268,0.,0.994521895368));
#427 = ORIENTED_EDGE('',*,*,#133,.F.);
#428 = PLANE('',#429);
#429 = AXIS2_PLACEMENT_3D('',#430,#431,#432);
#430 = CARTESIAN_POINT('',(29.782406444091,10.4,2.280522292426));
#431 = DIRECTION('',(0.,1.,0.));
#432 = DIRECTION('',(0.104528463268,0.,0.994521895368));
#433 = ADVANCED_FACE('',(#434),#445,.T.);
#434 = FACE_BOUND('',#435,.T.);
#435 = EDGE_LOOP('',(#436,#437,#443,#444));
#436 = ORIENTED_EDGE('',*,*,#246,.F.);
#437 = ORIENTED_EDGE('',*,*,#438,.T.);
#438 = EDGE_CURVE('',#247,#415,#439,.T.);
#439 = LINE('',#440,#441);
#440 = CARTESIAN_POINT('',(29.782406444091,-10.4,2.280522292426));
#441 = VECTOR('',#442,1.);
#442 = DIRECTION('',(0.,1.,0.));
#443 = ORIENTED_EDGE('',*,*,#422,.T.);
#444 = ORIENTED_EDGE('',*,*,#125,.F.);
#445 = PLANE('',#446);
#446 = AXIS2_PLACEMENT_3D('',#447,#448,#449);
#447 = CARTESIAN_POINT('',(29.782406444091,-10.4,2.280522292426));
#448 = DIRECTION('',(0.994521895368,0.,-0.104528463268));
#449 = DIRECTION('',(0.104528463268,0.,0.994521895368));
#450 = ADVANCED_FACE('',(#451),#457,.T.);
#451 = FACE_BOUND('',#452,.T.);
#452 = EDGE_LOOP('',(#453,#454,#455,#456));
#453 = ORIENTED_EDGE('',*,*,#327,.F.);
#454 = ORIENTED_EDGE('',*,*,#309,.T.);
#455 = ORIENTED_EDGE('',*,*,#286,.T.);
#456 = ORIENTED_EDGE('',*,*,#102,.F.);
#457 = PLANE('',#458);
#458 = AXIS2_PLACEMENT_3D('',#459,#460,#461);
#459 = CARTESIAN_POINT('',(51.934262744419,-12.,-1.254341559212));
#460 = DIRECTION('',(0.994521895368,0.,-0.104528463268));
#461 = DIRECTION('',(0.104528463268,0.,0.994521895368));
#462 = ADVANCED_FACE('',(#463),#474,.F.);
#463 = FACE_BOUND('',#464,.F.);
#464 = EDGE_LOOP('',(#465,#466,#467,#468));
#465 = ORIENTED_EDGE('',*,*,#205,.F.);
#466 = ORIENTED_EDGE('',*,*,#229,.T.);
#467 = ORIENTED_EDGE('',*,*,#262,.T.);
#468 = ORIENTED_EDGE('',*,*,#469,.F.);
#469 = EDGE_CURVE('',#198,#255,#470,.T.);
#470 = LINE('',#471,#472);
#471 = CARTESIAN_POINT('',(31.37364147668,-8.2,2.113276751197));
#472 = VECTOR('',#473,1.);
#473 = DIRECTION('',(0.,1.,0.));
#474 = PLANE('',#475);
#475 = AXIS2_PLACEMENT_3D('',#476,#477,#478);
#476 = CARTESIAN_POINT('',(31.3422829377,-6.,1.814920182587));
#477 = DIRECTION('',(0.994521895368,0.,-0.104528463268));
#478 = DIRECTION('',(0.104528463268,0.,0.994521895368));
#479 = ADVANCED_FACE('',(#480),#490,.T.);
#480 = FACE_BOUND('',#481,.T.);
#481 = EDGE_LOOP('',(#482,#483,#484,#485,#486,#487,#488,#489));
#482 = ORIENTED_EDGE('',*,*,#349,.F.);
#483 = ORIENTED_EDGE('',*,*,#373,.T.);
#484 = ORIENTED_EDGE('',*,*,#390,.T.);
#485 = ORIENTED_EDGE('',*,*,#414,.F.);
#486 = ORIENTED_EDGE('',*,*,#438,.F.);
#487 = ORIENTED_EDGE('',*,*,#254,.F.);
#488 = ORIENTED_EDGE('',*,*,#469,.F.);
#489 = ORIENTED_EDGE('',*,*,#197,.T.);
#490 = PLANE('',#491);
#491 = AXIS2_PLACEMENT_3D('',#492,#493,#494);
#492 = CARTESIAN_POINT('',(29.782406444091,-10.4,2.280522292426));
#493 = DIRECTION('',(0.104528463268,0.,0.994521895368));
#494 = DIRECTION('',(0.994521895368,0.,-0.104528463268));
#495 = ( GEOMETRIC_REPRESENTATION_CONTEXT(3) 
GLOBAL_UNCERTAINTY_ASSIGNED_CONTEXT((#499)) GLOBAL_UNIT_ASSIGNED_CONTEXT
((#496,#497,#498)) REPRESENTATION_CONTEXT('Context #1',
  '3D Context with UNIT and UNCERTAINTY') );
#496 = ( LENGTH_UNIT() NAMED_UNIT(*) SI_UNIT(.MILLI.,.METRE.) );
#497 = ( NAMED_UNIT(*) PLANE_ANGLE_UNIT() SI_UNIT($,.RADIAN.) );
#498 = ( NAMED_UNIT(*) SI_UNIT($,.STERADIAN.) SOLID_ANGLE_UNIT() );
#499 = UNCERTAINTY_MEASURE_WITH_UNIT(LENGTH_MEASURE(1.E-07),#496,
  'distance_accuracy_value','confusion accuracy');
#500 = PRODUCT_RELATED_PRODUCT_CATEGORY('part',$,(#7));
ENDSEC;
END-ISO-10303-21;
