ISO-10303-21;
HEADER;
FILE_DESCRIPTION(('FreeCAD Model'),'2;1');
FILE_NAME('Open CASCADE Shape Model','2026-09-12T13:40:34',('Author'),(
    ''),'Open CASCADE STEP processor 7.8','FreeCAD','Unknown');
FILE_SCHEMA(('AUTOMOTIVE_DESIGN { 1 0 10303 214 1 1 1 1 }'));
ENDSEC;
DATA;
#1 = APPLICATION_PROTOCOL_DEFINITION('international standard',
  'automotive_design',2000,#2);
#2 = APPLICATION_CONTEXT(
  'core data for automotive mechanical design processes');
#3 = SHAPE_DEFINITION_REPRESENTATION(#4,#10);
#4 = PRODUCT_DEFINITION_SHAPE('','',#5);
#5 = PRODUCT_DEFINITION('design','',#6,#9);
#6 = PRODUCT_DEFINITION_FORMATION('','',#7);
#7 = PRODUCT('Right flexible FFC route envelope',
  'Right flexible FFC route envelope','',(#8));
#8 = PRODUCT_CONTEXT('',#2,'mechanical');
#9 = PRODUCT_DEFINITION_CONTEXT('part definition',#2,'design');
#10 = SHAPE_REPRESENTATION('',(#11,#15,#165),#315);
#11 = AXIS2_PLACEMENT_3D('',#12,#13,#14);
#12 = CARTESIAN_POINT('',(0.,0.,0.));
#13 = DIRECTION('',(0.,0.,1.));
#14 = DIRECTION('',(1.,0.,-0.));
#15 = MANIFOLD_SOLID_BREP('',#16);
#16 = CLOSED_SHELL('',(#17,#57,#97,#119,#141,#153));
#17 = ADVANCED_FACE('',(#18),#52,.F.);
#18 = FACE_BOUND('',#19,.F.);
#19 = EDGE_LOOP('',(#20,#30,#38,#46));
#20 = ORIENTED_EDGE('',*,*,#21,.F.);
#21 = EDGE_CURVE('',#22,#24,#26,.T.);
#22 = VERTEX_POINT('',#23);
#23 = CARTESIAN_POINT('',(-4.721468080954,19.801077772615,4.337649014464
    ));
#24 = VERTEX_POINT('',#25);
#25 = CARTESIAN_POINT('',(-4.745047587793,19.806285666674,4.636675576323
    ));
#26 = LINE('',#27,#28);
#27 = CARTESIAN_POINT('',(-4.721468080954,19.801077772615,4.337649014464
    ));
#28 = VECTOR('',#29,1.);
#29 = DIRECTION('',(-7.859835612864E-02,1.735964686253E-02,
    0.996755206194));
#30 = ORIENTED_EDGE('',*,*,#31,.T.);
#31 = EDGE_CURVE('',#22,#32,#34,.T.);
#32 = VERTEX_POINT('',#33);
#33 = CARTESIAN_POINT('',(0.745047587793,31.593714333326,4.563324423677)
  );
#34 = LINE('',#35,#36);
#35 = CARTESIAN_POINT('',(-4.721468080954,19.801077772615,4.337649014464
    ));
#36 = VECTOR('',#37,1.);
#37 = DIRECTION('',(0.420501205288,0.907125889285,1.735964686253E-02));
#38 = ORIENTED_EDGE('',*,*,#39,.T.);
#39 = EDGE_CURVE('',#32,#40,#42,.T.);
#40 = VERTEX_POINT('',#41);
#41 = CARTESIAN_POINT('',(0.721468080954,31.598922227385,4.862350985536)
  );
#42 = LINE('',#43,#44);
#43 = CARTESIAN_POINT('',(0.745047587793,31.593714333326,4.563324423677)
  );
#44 = VECTOR('',#45,1.);
#45 = DIRECTION('',(-7.859835612864E-02,1.735964686253E-02,
    0.996755206194));
#46 = ORIENTED_EDGE('',*,*,#47,.F.);
#47 = EDGE_CURVE('',#24,#40,#48,.T.);
#48 = LINE('',#49,#50);
#49 = CARTESIAN_POINT('',(-4.745047587793,19.806285666674,4.636675576323
    ));
#50 = VECTOR('',#51,1.);
#51 = DIRECTION('',(0.420501205288,0.907125889285,1.735964686253E-02));
#52 = PLANE('',#53);
#53 = AXIS2_PLACEMENT_3D('',#54,#55,#56);
#54 = CARTESIAN_POINT('',(-4.721468080954,19.801077772615,4.337649014464
    ));
#55 = DIRECTION('',(0.903881095479,-0.420501205288,7.859835612864E-02));
#56 = DIRECTION('',(-7.859835612864E-02,1.735964686253E-02,
    0.996755206194));
#57 = ADVANCED_FACE('',(#58),#92,.T.);
#58 = FACE_BOUND('',#59,.T.);
#59 = EDGE_LOOP('',(#60,#70,#78,#86));
#60 = ORIENTED_EDGE('',*,*,#61,.F.);
#61 = EDGE_CURVE('',#62,#64,#66,.T.);
#62 = VERTEX_POINT('',#63);
#63 = CARTESIAN_POINT('',(18.278531919046,9.101077772615,6.337649014464)
  );
#64 = VERTEX_POINT('',#65);
#65 = CARTESIAN_POINT('',(18.254952412207,9.106285666674,6.636675576323)
  );
#66 = LINE('',#67,#68);
#67 = CARTESIAN_POINT('',(18.278531919046,9.101077772615,6.337649014464)
  );
#68 = VECTOR('',#69,1.);
#69 = DIRECTION('',(-7.859835612864E-02,1.735964686253E-02,
    0.996755206194));
#70 = ORIENTED_EDGE('',*,*,#71,.T.);
#71 = EDGE_CURVE('',#62,#72,#74,.T.);
#72 = VERTEX_POINT('',#73);
#73 = CARTESIAN_POINT('',(23.745047587793,20.893714333326,6.563324423677
    ));
#74 = LINE('',#75,#76);
#75 = CARTESIAN_POINT('',(18.278531919046,9.101077772615,6.337649014464)
  );
#76 = VECTOR('',#77,1.);
#77 = DIRECTION('',(0.420501205288,0.907125889285,1.735964686253E-02));
#78 = ORIENTED_EDGE('',*,*,#79,.T.);
#79 = EDGE_CURVE('',#72,#80,#82,.T.);
#80 = VERTEX_POINT('',#81);
#81 = CARTESIAN_POINT('',(23.721468080954,20.898922227385,6.862350985536
    ));
#82 = LINE('',#83,#84);
#83 = CARTESIAN_POINT('',(23.745047587793,20.893714333326,6.563324423677
    ));
#84 = VECTOR('',#85,1.);
#85 = DIRECTION('',(-7.859835612864E-02,1.735964686253E-02,
    0.996755206194));
#86 = ORIENTED_EDGE('',*,*,#87,.F.);
#87 = EDGE_CURVE('',#64,#80,#88,.T.);
#88 = LINE('',#89,#90);
#89 = CARTESIAN_POINT('',(18.254952412207,9.106285666674,6.636675576323)
  );
#90 = VECTOR('',#91,1.);
#91 = DIRECTION('',(0.420501205288,0.907125889285,1.735964686253E-02));
#92 = PLANE('',#93);
#93 = AXIS2_PLACEMENT_3D('',#94,#95,#96);
#94 = CARTESIAN_POINT('',(18.278531919046,9.101077772615,6.337649014464)
  );
#95 = DIRECTION('',(0.903881095479,-0.420501205288,7.859835612864E-02));
#96 = DIRECTION('',(-7.859835612864E-02,1.735964686253E-02,
    0.996755206194));
#97 = ADVANCED_FACE('',(#98),#114,.F.);
#98 = FACE_BOUND('',#99,.F.);
#99 = EDGE_LOOP('',(#100,#106,#107,#113));
#100 = ORIENTED_EDGE('',*,*,#101,.F.);
#101 = EDGE_CURVE('',#22,#62,#102,.T.);
#102 = LINE('',#103,#104);
#103 = CARTESIAN_POINT('',(-4.721468080954,19.801077772615,
    4.337649014464));
#104 = VECTOR('',#105,1.);
#105 = DIRECTION('',(0.903881095479,-0.420501205288,7.859835612864E-02)
  );
#106 = ORIENTED_EDGE('',*,*,#21,.T.);
#107 = ORIENTED_EDGE('',*,*,#108,.T.);
#108 = EDGE_CURVE('',#24,#64,#109,.T.);
#109 = LINE('',#110,#111);
#110 = CARTESIAN_POINT('',(-4.745047587793,19.806285666674,
    4.636675576323));
#111 = VECTOR('',#112,1.);
#112 = DIRECTION('',(0.903881095479,-0.420501205288,7.859835612864E-02)
  );
#113 = ORIENTED_EDGE('',*,*,#61,.F.);
#114 = PLANE('',#115);
#115 = AXIS2_PLACEMENT_3D('',#116,#117,#118);
#116 = CARTESIAN_POINT('',(-4.721468080954,19.801077772615,
    4.337649014464));
#117 = DIRECTION('',(0.420501205288,0.907125889285,1.735964686253E-02));
#118 = DIRECTION('',(-7.859835612864E-02,1.735964686253E-02,
    0.996755206194));
#119 = ADVANCED_FACE('',(#120),#136,.T.);
#120 = FACE_BOUND('',#121,.T.);
#121 = EDGE_LOOP('',(#122,#128,#129,#135));
#122 = ORIENTED_EDGE('',*,*,#123,.F.);
#123 = EDGE_CURVE('',#32,#72,#124,.T.);
#124 = LINE('',#125,#126);
#125 = CARTESIAN_POINT('',(0.745047587793,31.593714333326,4.563324423677
    ));
#126 = VECTOR('',#127,1.);
#127 = DIRECTION('',(0.903881095479,-0.420501205288,7.859835612864E-02)
  );
#128 = ORIENTED_EDGE('',*,*,#39,.T.);
#129 = ORIENTED_EDGE('',*,*,#130,.T.);
#130 = EDGE_CURVE('',#40,#80,#131,.T.);
#131 = LINE('',#132,#133);
#132 = CARTESIAN_POINT('',(0.721468080954,31.598922227385,4.862350985536
    ));
#133 = VECTOR('',#134,1.);
#134 = DIRECTION('',(0.903881095479,-0.420501205288,7.859835612864E-02)
  );
#135 = ORIENTED_EDGE('',*,*,#79,.F.);
#136 = PLANE('',#137);
#137 = AXIS2_PLACEMENT_3D('',#138,#139,#140);
#138 = CARTESIAN_POINT('',(0.745047587793,31.593714333326,4.563324423677
    ));
#139 = DIRECTION('',(0.420501205288,0.907125889285,1.735964686253E-02));
#140 = DIRECTION('',(-7.859835612864E-02,1.735964686253E-02,
    0.996755206194));
#141 = ADVANCED_FACE('',(#142),#148,.F.);
#142 = FACE_BOUND('',#143,.F.);
#143 = EDGE_LOOP('',(#144,#145,#146,#147));
#144 = ORIENTED_EDGE('',*,*,#31,.F.);
#145 = ORIENTED_EDGE('',*,*,#101,.T.);
#146 = ORIENTED_EDGE('',*,*,#71,.T.);
#147 = ORIENTED_EDGE('',*,*,#123,.F.);
#148 = PLANE('',#149);
#149 = AXIS2_PLACEMENT_3D('',#150,#151,#152);
#150 = CARTESIAN_POINT('',(-4.721468080954,19.801077772615,
    4.337649014464));
#151 = DIRECTION('',(-7.859835612864E-02,1.735964686253E-02,
    0.996755206194));
#152 = DIRECTION('',(0.903881095479,-0.420501205288,7.859835612864E-02)
  );
#153 = ADVANCED_FACE('',(#154),#160,.T.);
#154 = FACE_BOUND('',#155,.T.);
#155 = EDGE_LOOP('',(#156,#157,#158,#159));
#156 = ORIENTED_EDGE('',*,*,#47,.F.);
#157 = ORIENTED_EDGE('',*,*,#108,.T.);
#158 = ORIENTED_EDGE('',*,*,#87,.T.);
#159 = ORIENTED_EDGE('',*,*,#130,.F.);
#160 = PLANE('',#161);
#161 = AXIS2_PLACEMENT_3D('',#162,#163,#164);
#162 = CARTESIAN_POINT('',(-4.745047587793,19.806285666674,
    4.636675576323));
#163 = DIRECTION('',(-7.859835612864E-02,1.735964686253E-02,
    0.996755206194));
#164 = DIRECTION('',(0.903881095479,-0.420501205288,7.859835612864E-02)
  );
#165 = MANIFOLD_SOLID_BREP('',#166);
#166 = CLOSED_SHELL('',(#167,#207,#247,#269,#291,#303));
#167 = ADVANCED_FACE('',(#168),#202,.F.);
#168 = FACE_BOUND('',#169,.F.);
#169 = EDGE_LOOP('',(#170,#180,#188,#196));
#170 = ORIENTED_EDGE('',*,*,#171,.F.);
#171 = EDGE_CURVE('',#172,#174,#176,.T.);
#172 = VERTEX_POINT('',#173);
#173 = CARTESIAN_POINT('',(18.797804097191,8.882705626065,6.560722165551
    ));
#174 = VERTEX_POINT('',#175);
#175 = CARTESIAN_POINT('',(18.827014910601,8.877629264503,6.859253502153
    ));
#176 = LINE('',#177,#178);
#177 = CARTESIAN_POINT('',(18.797804097191,8.882705626065,6.560722165551
    ));
#178 = VECTOR('',#179,1.);
#179 = DIRECTION('',(9.736937803302E-02,-1.692120520804E-02,
    0.995104455339));
#180 = ORIENTED_EDGE('',*,*,#181,.T.);
#181 = EDGE_CURVE('',#172,#182,#184,.T.);
#182 = VERTEX_POINT('',#183);
#183 = CARTESIAN_POINT('',(23.172985089399,21.122370735497,
    6.340746497847));
#184 = LINE('',#185,#186);
#185 = CARTESIAN_POINT('',(18.797804097191,8.882705626065,6.560722165551
    ));
#186 = VECTOR('',#187,1.);
#187 = DIRECTION('',(0.336552384016,0.941512700725,-1.692120520804E-02)
  );
#188 = ORIENTED_EDGE('',*,*,#189,.T.);
#189 = EDGE_CURVE('',#182,#190,#192,.T.);
#190 = VERTEX_POINT('',#191);
#191 = CARTESIAN_POINT('',(23.202195902809,21.117294373935,
    6.639277834449));
#192 = LINE('',#193,#194);
#193 = CARTESIAN_POINT('',(23.172985089399,21.122370735497,
    6.340746497847));
#194 = VECTOR('',#195,1.);
#195 = DIRECTION('',(9.736937803302E-02,-1.692120520804E-02,
    0.995104455339));
#196 = ORIENTED_EDGE('',*,*,#197,.F.);
#197 = EDGE_CURVE('',#174,#190,#198,.T.);
#198 = LINE('',#199,#200);
#199 = CARTESIAN_POINT('',(18.827014910601,8.877629264503,6.859253502153
    ));
#200 = VECTOR('',#201,1.);
#201 = DIRECTION('',(0.336552384016,0.941512700725,-1.692120520804E-02)
  );
#202 = PLANE('',#203);
#203 = AXIS2_PLACEMENT_3D('',#204,#205,#206);
#204 = CARTESIAN_POINT('',(18.797804097191,8.882705626065,6.560722165551
    ));
#205 = DIRECTION('',(0.936617156065,-0.336552384016,-9.736937803302E-02)
  );
#206 = DIRECTION('',(9.736937803302E-02,-1.692120520804E-02,
    0.995104455339));
#207 = ADVANCED_FACE('',(#208),#242,.T.);
#208 = FACE_BOUND('',#209,.T.);
#209 = EDGE_LOOP('',(#210,#220,#228,#236));
#210 = ORIENTED_EDGE('',*,*,#211,.F.);
#211 = EDGE_CURVE('',#212,#214,#216,.T.);
#212 = VERTEX_POINT('',#213);
#213 = CARTESIAN_POINT('',(38.278635028222,1.882705626065,4.535522884245
    ));
#214 = VERTEX_POINT('',#215);
#215 = CARTESIAN_POINT('',(38.307845841632,1.877629264503,4.834054220847
    ));
#216 = LINE('',#217,#218);
#217 = CARTESIAN_POINT('',(38.278635028222,1.882705626065,4.535522884245
    ));
#218 = VECTOR('',#219,1.);
#219 = DIRECTION('',(9.736937803302E-02,-1.692120520804E-02,
    0.995104455339));
#220 = ORIENTED_EDGE('',*,*,#221,.T.);
#221 = EDGE_CURVE('',#212,#222,#224,.T.);
#222 = VERTEX_POINT('',#223);
#223 = CARTESIAN_POINT('',(42.653816020431,14.122370735497,
    4.315547216541));
#224 = LINE('',#225,#226);
#225 = CARTESIAN_POINT('',(38.278635028222,1.882705626065,4.535522884245
    ));
#226 = VECTOR('',#227,1.);
#227 = DIRECTION('',(0.336552384016,0.941512700725,-1.692120520804E-02)
  );
#228 = ORIENTED_EDGE('',*,*,#229,.T.);
#229 = EDGE_CURVE('',#222,#230,#232,.T.);
#230 = VERTEX_POINT('',#231);
#231 = CARTESIAN_POINT('',(42.683026833841,14.117294373935,
    4.614078553143));
#232 = LINE('',#233,#234);
#233 = CARTESIAN_POINT('',(42.653816020431,14.122370735497,
    4.315547216541));
#234 = VECTOR('',#235,1.);
#235 = DIRECTION('',(9.736937803302E-02,-1.692120520804E-02,
    0.995104455339));
#236 = ORIENTED_EDGE('',*,*,#237,.F.);
#237 = EDGE_CURVE('',#214,#230,#238,.T.);
#238 = LINE('',#239,#240);
#239 = CARTESIAN_POINT('',(38.307845841632,1.877629264503,4.834054220847
    ));
#240 = VECTOR('',#241,1.);
#241 = DIRECTION('',(0.336552384016,0.941512700725,-1.692120520804E-02)
  );
#242 = PLANE('',#243);
#243 = AXIS2_PLACEMENT_3D('',#244,#245,#246);
#244 = CARTESIAN_POINT('',(38.278635028222,1.882705626065,4.535522884245
    ));
#245 = DIRECTION('',(0.936617156065,-0.336552384016,-9.736937803302E-02)
  );
#246 = DIRECTION('',(9.736937803302E-02,-1.692120520804E-02,
    0.995104455339));
#247 = ADVANCED_FACE('',(#248),#264,.F.);
#248 = FACE_BOUND('',#249,.F.);
#249 = EDGE_LOOP('',(#250,#256,#257,#263));
#250 = ORIENTED_EDGE('',*,*,#251,.F.);
#251 = EDGE_CURVE('',#172,#212,#252,.T.);
#252 = LINE('',#253,#254);
#253 = CARTESIAN_POINT('',(18.797804097191,8.882705626065,6.560722165551
    ));
#254 = VECTOR('',#255,1.);
#255 = DIRECTION('',(0.936617156065,-0.336552384016,-9.736937803302E-02)
  );
#256 = ORIENTED_EDGE('',*,*,#171,.T.);
#257 = ORIENTED_EDGE('',*,*,#258,.T.);
#258 = EDGE_CURVE('',#174,#214,#259,.T.);
#259 = LINE('',#260,#261);
#260 = CARTESIAN_POINT('',(18.827014910601,8.877629264503,6.859253502153
    ));
#261 = VECTOR('',#262,1.);
#262 = DIRECTION('',(0.936617156065,-0.336552384016,-9.736937803302E-02)
  );
#263 = ORIENTED_EDGE('',*,*,#211,.F.);
#264 = PLANE('',#265);
#265 = AXIS2_PLACEMENT_3D('',#266,#267,#268);
#266 = CARTESIAN_POINT('',(18.797804097191,8.882705626065,6.560722165551
    ));
#267 = DIRECTION('',(0.336552384016,0.941512700725,-1.692120520804E-02)
  );
#268 = DIRECTION('',(9.736937803302E-02,-1.692120520804E-02,
    0.995104455339));
#269 = ADVANCED_FACE('',(#270),#286,.T.);
#270 = FACE_BOUND('',#271,.T.);
#271 = EDGE_LOOP('',(#272,#278,#279,#285));
#272 = ORIENTED_EDGE('',*,*,#273,.F.);
#273 = EDGE_CURVE('',#182,#222,#274,.T.);
#274 = LINE('',#275,#276);
#275 = CARTESIAN_POINT('',(23.172985089399,21.122370735497,
    6.340746497847));
#276 = VECTOR('',#277,1.);
#277 = DIRECTION('',(0.936617156065,-0.336552384016,-9.736937803302E-02)
  );
#278 = ORIENTED_EDGE('',*,*,#189,.T.);
#279 = ORIENTED_EDGE('',*,*,#280,.T.);
#280 = EDGE_CURVE('',#190,#230,#281,.T.);
#281 = LINE('',#282,#283);
#282 = CARTESIAN_POINT('',(23.202195902809,21.117294373935,
    6.639277834449));
#283 = VECTOR('',#284,1.);
#284 = DIRECTION('',(0.936617156065,-0.336552384016,-9.736937803302E-02)
  );
#285 = ORIENTED_EDGE('',*,*,#229,.F.);
#286 = PLANE('',#287);
#287 = AXIS2_PLACEMENT_3D('',#288,#289,#290);
#288 = CARTESIAN_POINT('',(23.172985089399,21.122370735497,
    6.340746497847));
#289 = DIRECTION('',(0.336552384016,0.941512700725,-1.692120520804E-02)
  );
#290 = DIRECTION('',(9.736937803302E-02,-1.692120520804E-02,
    0.995104455339));
#291 = ADVANCED_FACE('',(#292),#298,.F.);
#292 = FACE_BOUND('',#293,.F.);
#293 = EDGE_LOOP('',(#294,#295,#296,#297));
#294 = ORIENTED_EDGE('',*,*,#181,.F.);
#295 = ORIENTED_EDGE('',*,*,#251,.T.);
#296 = ORIENTED_EDGE('',*,*,#221,.T.);
#297 = ORIENTED_EDGE('',*,*,#273,.F.);
#298 = PLANE('',#299);
#299 = AXIS2_PLACEMENT_3D('',#300,#301,#302);
#300 = CARTESIAN_POINT('',(18.797804097191,8.882705626065,6.560722165551
    ));
#301 = DIRECTION('',(9.736937803302E-02,-1.692120520804E-02,
    0.995104455339));
#302 = DIRECTION('',(0.936617156065,-0.336552384016,-9.736937803302E-02)
  );
#303 = ADVANCED_FACE('',(#304),#310,.T.);
#304 = FACE_BOUND('',#305,.T.);
#305 = EDGE_LOOP('',(#306,#307,#308,#309));
#306 = ORIENTED_EDGE('',*,*,#197,.F.);
#307 = ORIENTED_EDGE('',*,*,#258,.T.);
#308 = ORIENTED_EDGE('',*,*,#237,.T.);
#309 = ORIENTED_EDGE('',*,*,#280,.F.);
#310 = PLANE('',#311);
#311 = AXIS2_PLACEMENT_3D('',#312,#313,#314);
#312 = CARTESIAN_POINT('',(18.827014910601,8.877629264503,6.859253502153
    ));
#313 = DIRECTION('',(9.736937803302E-02,-1.692120520804E-02,
    0.995104455339));
#314 = DIRECTION('',(0.936617156065,-0.336552384016,-9.736937803302E-02)
  );
#315 = ( GEOMETRIC_REPRESENTATION_CONTEXT(3) 
GLOBAL_UNCERTAINTY_ASSIGNED_CONTEXT((#319)) GLOBAL_UNIT_ASSIGNED_CONTEXT
((#316,#317,#318)) REPRESENTATION_CONTEXT('Context #1',
  '3D Context with UNIT and UNCERTAINTY') );
#316 = ( LENGTH_UNIT() NAMED_UNIT(*) SI_UNIT(.MILLI.,.METRE.) );
#317 = ( NAMED_UNIT(*) PLANE_ANGLE_UNIT() SI_UNIT($,.RADIAN.) );
#318 = ( NAMED_UNIT(*) SI_UNIT($,.STERADIAN.) SOLID_ANGLE_UNIT() );
#319 = UNCERTAINTY_MEASURE_WITH_UNIT(LENGTH_MEASURE(1.E-07),#316,
  'distance_accuracy_value','confusion accuracy');
#320 = PRODUCT_RELATED_PRODUCT_CATEGORY('part',$,(#7));
ENDSEC;
END-ISO-10303-21;
