M48
; DRILL file KiCad 10.0.5 date 2026-09-22T21:49:45
; FORMAT={-:-/ absolute / metric / decimal}
; #@! TF.CreationDate,2026-09-22T21:49:45-04:00
; #@! TF.GenerationSoftware,Kicad,Pcbnew,10.0.5
; #@! TF.FileFunction,NonPlated,1,2,NPTH
FMAT,2
METRIC
; #@! TA.AperFunction,NonPlated,NPTH,ComponentDrill
T1C1.750
; #@! TA.AperFunction,NonPlated,NPTH,ComponentDrill
T2C2.200
; #@! TA.AperFunction,NonPlated,NPTH,ComponentDrill
T3C3.048
; #@! TA.AperFunction,NonPlated,NPTH,ComponentDrill
T4C3.988
%
G90
G05
T1
X8.73Y-9.525
X10.635Y-85.725
X11.588Y-28.575
X13.017Y-47.625
X13.017Y-66.675
X18.89Y-9.525
X20.795Y-85.725
X21.748Y-28.575
X23.177Y-47.625
X23.177Y-66.675
X27.78Y-9.525
X35.4Y-28.575
X37.94Y-9.525
X39.211Y-47.625
X39.211Y-85.725
X43.973Y-66.675
X45.56Y-28.575
X46.83Y-9.525
X49.371Y-47.625
X49.371Y-85.725
X54.133Y-66.675
X54.451Y-28.576
X56.99Y-9.525
X59.481Y-47.57
X62.876Y-66.883
X64.611Y-28.576
X65.922Y-9.502
X69.627Y-48.102
X73.022Y-67.414
X73.746Y-28.801
X76.068Y-10.034
X78.707Y-48.364
X80.155Y-86.952
X82.146Y-68.006
X83.85Y-29.863
X85.337Y-10.947
X88.811Y-49.426
X90.259Y-88.014
X92.251Y-69.068
X92.688Y-30.784
X95.442Y-12.009
X97.249Y-50.302
X100.687Y-70.333
X102.792Y-31.846
X104.091Y-13.114
X107.284Y-51.891
X110.722Y-71.922
X111.44Y-33.417
X114.126Y-14.703
X116.053Y-53.281
X116.545Y-92.13
X119.527Y-73.316
X121.474Y-35.007
X122.894Y-16.107
X126.088Y-54.87
X126.579Y-93.72
X129.561Y-74.906
X130.252Y-36.407
X132.929Y-17.696
X140.287Y-37.996
T2
X28.0Y-22.0
X38.0Y-66.0
X100.0Y-92.0
X137.0Y-50.0
T3
X6.191Y-59.69
X30.003Y-59.69
X108.71Y-97.961
X132.229Y-101.687
T4
X6.191Y-74.93
X30.003Y-74.93
X111.094Y-82.909
X134.613Y-86.634
M30
