M48
; DRILL file KiCad 10.0.5 date 2026-09-22T21:49:45
; FORMAT={-:-/ absolute / metric / decimal}
; #@! TF.CreationDate,2026-09-22T21:49:45-04:00
; #@! TF.GenerationSoftware,Kicad,Pcbnew,10.0.5
; #@! TF.FileFunction,Plated,1,2,PTH
FMAT,2
METRIC
; #@! TA.AperFunction,Plated,PTH,ViaDrill
T1C0.300
%
G90
G05
T1
X3.429Y-75.814
X3.797Y-1.75
X4.893Y-48.227
X4.998Y-1.255
X5.297Y-53.304
X6.547Y-54.054
X6.73Y-3.45
X7.797Y-1.804
X7.823Y-53.467
X8.239Y-54.461
X8.873Y-46.727
X9.104Y-58.749
X9.147Y-41.404
X9.297Y-80.304
X9.747Y-43.204
X10.297Y-53.304
X10.547Y-23.054
X10.797Y-14.054
X11.224Y-46.413
X12.047Y-42.054
X12.047Y-61.054
X12.047Y-90.304
X12.244Y-31.144
X12.797Y-88.554
X14.297Y-52.054
X14.547Y-84.804
X15.047Y-71.304
X15.067Y-47.725
X15.376Y-55.996
X15.397Y-23.482
X15.547Y-25.804
X16.297Y-87.804
X16.503Y-19.08
X16.577Y-12.433
X16.767Y-74.521
X17.047Y-46.804
X17.047Y-88.554
X17.5Y-45.003
X17.647Y-30.086
X17.912Y-83.647
X18.547Y-57.804
X18.659Y-31.477
X18.848Y-75.624
X18.99Y-14.875
X19.297Y-89.554
X19.443Y-19.198
X19.547Y-87.054
X19.547Y-92.304
X19.797Y-91.554
X20.062Y-81.566
X20.255Y-88.675
X20.459Y-19.732
X20.662Y-36.79
X20.719Y-22.775
X20.797Y-18.054
X20.797Y-90.554
X21.797Y-35.304
X22.187Y-57.235
X22.439Y-55.515
X22.788Y-38.674
X22.797Y-94.054
X23.472Y-82.269
X23.797Y-36.804
X24.177Y-50.64
X24.217Y-71.22
X24.797Y-86.554
X25.297Y-55.804
X25.297Y-72.804
X26.259Y-3.375
X26.5Y-45.75
X26.797Y-1.804
X28.485Y-41.575
X28.876Y-47.835
X29.471Y-83.72
X29.743Y-41.569
X29.75Y-42.5
X29.92Y-86.836
X30.047Y-14.054
X31.0Y-41.75
X31.025Y-46.95
X31.529Y-52.054
X31.634Y-48.432
X32.297Y-32.804
X32.343Y-79.374
X32.479Y-30.783
X32.888Y-40.362
X32.96Y-48.004
X33.397Y-19.732
X33.52Y-92.723
X33.553Y-40.998
X34.086Y-47.015
X34.297Y-23.054
X34.336Y-48.985
X34.763Y-12.528
X34.823Y-40.984
X34.845Y-31.78
X34.901Y-32.682
X36.093Y-44.115
X36.142Y-35.938
X36.244Y-39.692
X36.716Y-52.757
X36.965Y-6.026
X37.547Y-90.804
X37.714Y-35.603
X37.797Y-33.054
X37.889Y-19.732
X38.047Y-80.304
X38.047Y-89.554
X38.047Y-93.304
X38.755Y-79.55
X38.758Y-38.717
X39.297Y-27.554
X39.547Y-53.054
X40.047Y-18.054
X40.587Y-46.008
X41.191Y-83.7
X41.334Y-52.19
X41.492Y-90.051
X41.547Y-87.304
X41.797Y-87.804
X42.237Y-56.147
X42.389Y-3.041
X42.905Y-31.78
X43.047Y-45.054
X43.047Y-58.804
X43.33Y-19.732
X43.38Y-60.933
X45.297Y-71.304
X45.547Y-86.554
X45.797Y-4.054
X45.88Y-3.041
X46.101Y-48.592
X46.126Y-23.873
X46.515Y-34.205
X47.547Y-34.804
X47.797Y-65.804
X47.923Y-14.605
X48.047Y-89.304
X48.047Y-90.554
X48.615Y-51.929
X48.797Y-90.304
X49.185Y-14.125
X49.234Y-35.041
X50.797Y-6.804
X51.274Y-92.56
X51.297Y-53.804
X51.297Y-94.054
X51.873Y-77.096
X52.597Y-37.1
X52.689Y-38.732
X52.864Y-74.035
X52.915Y-80.066
X53.131Y-10.783
X53.297Y-23.054
X53.665Y-89.816
X54.003Y-74.022
X54.195Y-4.428
X55.018Y-6.845
X55.416Y-67.698
X55.797Y-33.304
X55.896Y-58.701
X56.047Y-75.054
X56.78Y-32.706
X57.09Y-14.875
X57.856Y-36.752
X58.373Y-72.325
X58.547Y-27.554
X58.797Y-15.554
X58.797Y-42.054
X59.722Y-28.68
X60.047Y-36.804
X61.034Y-65.829
X61.592Y-52.287
X61.811Y-31.483
X62.546Y-49.548
X63.623Y-73.825
X64.061Y-64.8
X64.285Y-3.331
X64.797Y-58.554
X65.047Y-71.804
X65.259Y-69.088
X65.297Y-4.054
X65.468Y-50.909
X66.547Y-34.804
X66.797Y-66.304
X67.273Y-10.742
X67.606Y-62.777
X68.047Y-14.304
X68.047Y-77.554
X68.227Y-64.236
X69.023Y-55.411
X69.091Y-61.085
X69.297Y-56.804
X69.297Y-80.304
X69.352Y-63.664
X69.578Y-70.26
X69.797Y-7.054
X70.0Y-79.5
X70.114Y-75.535
X70.297Y-53.554
X70.935Y-26.357
X71.047Y-20.304
X71.273Y-37.086
X71.297Y-55.304
X71.507Y-66.889
X72.297Y-63.304
X72.435Y-72.528
X72.679Y-83.488
X73.297Y-21.054
X73.447Y-87.154
X73.5Y-78.0
X73.513Y-83.488
X73.997Y-84.054
X74.125Y-4.752
X74.245Y-82.613
X74.273Y-25.489
X74.5Y-80.0
X74.547Y-74.304
X74.64Y-70.337
X75.044Y-83.173
X75.547Y-33.554
X75.625Y-20.482
X76.053Y-81.546
X76.646Y-22.969
X77.297Y-78.554
X77.297Y-90.054
X77.323Y-83.488
X77.797Y-18.304
X77.797Y-28.304
X78.297Y-42.804
X78.297Y-92.804
X78.457Y-83.276
X78.492Y-37.22
X78.797Y-78.304
X79.252Y-57.583
X80.146Y-26.03
X80.547Y-53.304
X80.742Y-81.774
X80.797Y-91.804
X81.797Y-60.304
X82.336Y-73.499
X82.797Y-72.804
X83.977Y-22.201
X84.297Y-86.304
X84.547Y-5.804
X85.047Y-38.304
X85.047Y-88.504
X85.547Y-58.054
X86.227Y-52.253
X86.297Y-65.804
X86.797Y-78.804
X87.297Y-15.804
X87.396Y-41.481
X88.896Y-23.481
X89.159Y-13.494
X89.547Y-8.804
X89.547Y-58.054
X89.547Y-92.554
X90.047Y-11.304
X90.047Y-20.304
X90.047Y-57.804
X90.165Y-67.965
X90.434Y-59.879
X90.547Y-94.804
X90.626Y-72.232
X91.64Y-20.831
X91.641Y-12.746
X92.547Y-25.054
X92.681Y-24.451
X93.047Y-82.804
X93.547Y-77.554
X93.626Y-69.982
X93.826Y-6.957
X94.419Y-32.486
X94.674Y-66.397
X94.797Y-36.554
X95.458Y-20.482
X96.797Y-20.304
X96.797Y-28.554
X97.576Y-41.509
X97.797Y-55.304
X98.047Y-30.304
X98.562Y-57.595
X99.174Y-71.006
X99.327Y-39.926
X99.41Y-90.511
X100.797Y-63.304
X100.982Y-66.218
X101.297Y-48.554
X101.297Y-60.054
X101.297Y-75.054
X102.482Y-68.756
X103.291Y-62.415
X104.047Y-38.054
X104.297Y-7.304
X104.547Y-81.304
X104.797Y-17.804
X104.797Y-69.804
X105.797Y-18.554
X106.297Y-73.054
X106.745Y-47.308
X107.797Y-26.304
X108.047Y-21.804
X108.285Y-27.176
X108.297Y-60.304
X108.999Y-80.868
X109.067Y-14.631
X109.938Y-27.015
X111.251Y-35.337
X111.547Y-27.804
X111.797Y-22.304
X115.047Y-21.054
X115.547Y-31.054
X115.547Y-43.054
X115.797Y-99.554
X116.047Y-45.554
X116.047Y-97.304
X116.16Y-57.592
X116.259Y-59.693
X117.047Y-96.804
X117.184Y-61.205
X117.697Y-79.389
X119.529Y-38.2
X120.047Y-63.054
X120.047Y-78.054
X120.297Y-51.304
X120.797Y-90.054
X122.058Y-92.85
X122.428Y-74.194
X122.547Y-43.304
X122.607Y-55.968
X122.919Y-38.247
X123.047Y-84.804
X123.047Y-94.804
X123.074Y-67.65
X123.297Y-20.804
X123.547Y-71.304
X123.547Y-83.054
X124.797Y-20.054
X125.967Y-63.859
X126.547Y-100.554
X126.797Y-27.054
X126.811Y-74.194
X127.047Y-14.054
X127.047Y-63.304
X128.047Y-87.054
X128.163Y-17.398
X128.297Y-19.054
X128.313Y-79.597
X129.285Y-39.176
X129.351Y-25.682
X130.247Y-65.1
X130.297Y-81.054
X130.547Y-30.554
X130.797Y-41.054
X131.519Y-67.182
X131.669Y-58.046
X134.047Y-26.054
X134.297Y-47.804
X134.515Y-62.414
X135.293Y-54.772
X135.316Y-40.134
X135.344Y-36.366
X136.629Y-46.165
X137.486Y-61.024
X137.491Y-54.068
X137.547Y-56.554
X138.547Y-49.304
X140.047Y-62.304
M30
