%TF.GenerationSoftware,KiCad,Pcbnew,10.0.5*%
%TF.CreationDate,2026-09-21T10:22:34-04:00*%
%TF.ProjectId,Symm60HE-wklbs2arrows-Right,53796d6d-3630-4484-952d-776b6c627332,rev?*%
%TF.SameCoordinates,Original*%
%TF.FileFunction,Soldermask,Bot*%
%TF.FilePolarity,Negative*%
%FSLAX46Y46*%
G04 Gerber Fmt 4.6, Leading zero omitted, Abs format (unit mm)*
G04 Created by KiCad (PCBNEW 10.0.5) date 2026-09-21 10:22:34*
%MOMM*%
%LPD*%
G01*
G04 APERTURE LIST*
G04 Aperture macros list*
%AMRoundRect*
0 Rectangle with rounded corners*
0 $1 Rounding radius*
0 $2 $3 $4 $5 $6 $7 $8 $9 X,Y pos of 4 corners*
0 Add a 4 corners polygon primitive as box body*
4,1,4,$2,$3,$4,$5,$6,$7,$8,$9,$2,$3,0*
0 Add four circle primitives for the rounded corners*
1,1,$1+$1,$2,$3*
1,1,$1+$1,$4,$5*
1,1,$1+$1,$6,$7*
1,1,$1+$1,$8,$9*
0 Add four rect primitives between the rounded corners*
20,1,$1+$1,$2,$3,$4,$5,0*
20,1,$1+$1,$4,$5,$6,$7,0*
20,1,$1+$1,$6,$7,$8,$9,0*
20,1,$1+$1,$8,$9,$2,$3,0*%
G04 Aperture macros list end*
%ADD10C,2.200000*%
%ADD11C,3.048000*%
%ADD12C,3.987800*%
%ADD13RoundRect,0.140000X-0.140000X-0.170000X0.140000X-0.170000X0.140000X0.170000X-0.140000X0.170000X0*%
%ADD14RoundRect,0.140000X-0.158345X-0.153059X0.119856X-0.184756X0.158345X0.153059X-0.119856X0.184756X0*%
%ADD15RoundRect,0.150000X-0.150000X0.512500X-0.150000X-0.512500X0.150000X-0.512500X0.150000X0.512500X0*%
%ADD16RoundRect,0.150000X-0.207052X0.492225X-0.091019X-0.526186X0.207052X-0.492225X0.091019X0.526186X0*%
%ADD17RoundRect,0.140000X-0.141964X-0.168364X0.138018X-0.171613X0.141964X0.168364X-0.138018X0.171613X0*%
%ADD18RoundRect,0.140000X-0.145207X-0.165574X0.134658X-0.174262X0.145207X0.165574X-0.134658X0.174262X0*%
%ADD19RoundRect,0.140000X-0.134658X-0.174262X0.145207X-0.165574X0.134658X0.174262X-0.145207X0.165574X0*%
%ADD20RoundRect,0.205000X-0.446196X-0.252655X0.488732X-0.155133X0.446196X0.252655X-0.488732X0.155133X0*%
%ADD21RoundRect,0.205000X-0.470000X-0.205000X0.470000X-0.205000X0.470000X0.205000X-0.470000X0.205000X0*%
%ADD22RoundRect,0.140000X-0.158262X-0.153144X0.119955X-0.184691X0.158262X0.153144X-0.119955X0.184691X0*%
%ADD23RoundRect,0.140000X-0.146380X-0.164539X0.133417X-0.175214X0.146380X0.164539X-0.133417X0.175214X0*%
%ADD24RoundRect,0.140000X-0.119856X-0.184756X0.158345X-0.153059X0.119856X0.184756X-0.158345X0.153059X0*%
%ADD25RoundRect,0.140000X-0.124613X-0.181581X0.154317X-0.157119X0.124613X0.181581X-0.154317X0.157119X0*%
%ADD26RoundRect,0.205000X-0.465970X-0.214001X0.473856X-0.195923X0.465970X0.214001X-0.473856X0.195923X0*%
%ADD27RoundRect,0.140000X-0.157724X-0.153699X0.120603X-0.184269X0.157724X0.153699X-0.120603X0.184269X0*%
%ADD28RoundRect,0.140000X-0.156925X-0.154514X0.121556X-0.183641X0.156925X0.154514X-0.121556X0.183641X0*%
%ADD29RoundRect,0.140000X-0.121607X-0.183607X0.156882X-0.154558X0.121607X0.183607X-0.156882X0.154558X0*%
%ADD30RoundRect,0.150000X0.950000X-0.150000X0.950000X0.150000X-0.950000X0.150000X-0.950000X-0.150000X0*%
%ADD31RoundRect,0.360000X0.940000X-0.540000X0.940000X0.540000X-0.940000X0.540000X-0.940000X-0.540000X0*%
%ADD32RoundRect,0.150000X0.150000X-0.825000X0.150000X0.825000X-0.150000X0.825000X-0.150000X-0.825000X0*%
%ADD33RoundRect,0.150000X-0.150268X0.512421X-0.149732X-0.512578X0.150268X-0.512421X0.149732X0.512578X0*%
%ADD34RoundRect,0.150000X-0.179270X0.503009X-0.120232X-0.520289X0.179270X-0.503009X0.120232X0.520289X0*%
%ADD35RoundRect,0.150000X-0.169431X0.506408X-0.130351X-0.517846X0.169431X-0.506408X0.130351X0.517846X0*%
%ADD36RoundRect,0.150000X-0.190471X0.498876X-0.108570X-0.522847X0.190471X-0.498876X0.108570X0.522847X0*%
%ADD37RoundRect,0.150000X-0.202361X0.494172X-0.096020X-0.525296X0.202361X-0.494172X0.096020X0.525296X0*%
%ADD38RoundRect,0.140000X-0.136705X-0.172661X0.143244X-0.167276X0.136705X0.172661X-0.143244X0.167276X0*%
%ADD39RoundRect,0.140000X-0.133417X-0.175214X0.146380X-0.164539X0.133417X0.175214X-0.146380X0.164539X0*%
%ADD40RoundRect,0.205000X-0.452117X-0.241899X0.484877X-0.166790X0.452117X0.241899X-0.484877X0.166790X0*%
%ADD41RoundRect,0.140000X-0.145190X-0.165590X0.134676X-0.174248X0.145190X0.165590X-0.134676X0.174248X0*%
%ADD42RoundRect,0.205000X-0.444809X-0.255089X0.489572X-0.152460X0.444809X0.255089X-0.489572X0.152460X0*%
%ADD43RoundRect,0.140000X-0.138018X-0.171613X0.141964X-0.168364X0.138018X0.171613X-0.141964X0.168364X0*%
%ADD44RoundRect,0.140000X-0.121556X-0.183641X0.156925X-0.154514X0.121556X0.183641X-0.156925X0.154514X0*%
%ADD45RoundRect,0.135000X-0.135000X-0.185000X0.135000X-0.185000X0.135000X0.185000X-0.135000X0.185000X0*%
%ADD46RoundRect,0.140000X-0.149559X-0.161654X0.129976X-0.177782X0.149559X0.161654X-0.129976X0.177782X0*%
%ADD47RoundRect,0.150000X-0.165829X0.507599X-0.134026X-0.516907X0.165829X-0.507599X0.134026X0.516907X0*%
%ADD48RoundRect,0.205000X-0.469893X-0.205246X0.470107X-0.204754X0.469893X0.205246X-0.470107X0.204754X0*%
%ADD49RoundRect,0.140000X-0.140089X-0.169927X0.139911X-0.170073X0.140089X0.169927X-0.139911X0.170073X0*%
%ADD50RoundRect,0.150000X-0.205058X0.493059X-0.093149X-0.525813X0.205058X-0.493059X0.093149X0.525813X0*%
%ADD51RoundRect,0.150000X-0.151091X0.512179X-0.148908X-0.512818X0.151091X-0.512179X0.148908X0.512818X0*%
%ADD52RoundRect,0.140000X-0.143244X-0.167276X0.136705X-0.172661X0.143244X0.167276X-0.136705X0.172661X0*%
%ADD53RoundRect,0.140000X-0.153136X-0.158270X0.125969X-0.180643X0.153136X0.158270X-0.125969X0.180643X0*%
%ADD54RoundRect,0.205000X-0.455096X-0.236246X0.482761X-0.172819X0.455096X0.236246X-0.482761X0.172819X0*%
%ADD55RoundRect,0.205000X-0.463436X-0.219435X0.476114X-0.190368X0.463436X0.219435X-0.476114X0.190368X0*%
%ADD56RoundRect,0.140000X0.170000X-0.140000X0.170000X0.140000X-0.170000X0.140000X-0.170000X-0.140000X0*%
%ADD57RoundRect,0.205000X-0.463413X-0.219484X0.476134X-0.190319X0.463413X0.219484X-0.476134X0.190319X0*%
%ADD58RoundRect,0.150000X-0.184239X0.501211X-0.115077X-0.521453X0.184239X-0.501211X0.115077X0.521453X0*%
%ADD59RoundRect,0.205000X-0.450293X-0.245277X0.486113X-0.163155X0.450293X0.245277X-0.486113X0.163155X0*%
%ADD60RoundRect,0.140000X-0.129976X-0.177782X0.149559X-0.161654X0.129976X0.177782X-0.149559X0.161654X0*%
%ADD61RoundRect,0.140000X-0.140362X-0.169702X0.139638X-0.170298X0.140362X0.169702X-0.139638X0.170298X0*%
%ADD62RoundRect,0.205000X-0.469562X-0.206000X0.470435X-0.203999X0.469562X0.206000X-0.470435X0.203999X0*%
%ADD63RoundRect,0.140000X-0.125969X-0.180643X0.153136X-0.158270X0.125969X0.180643X-0.153136X0.158270X0*%
%ADD64RoundRect,0.140000X-0.154317X-0.157119X0.124613X-0.181581X0.154317X0.157119X-0.124613X0.181581X0*%
%ADD65RoundRect,0.150000X-0.159829X0.509520X-0.140116X-0.515290X0.159829X-0.509520X0.140116X0.515290X0*%
%ADD66RoundRect,0.140000X-0.139638X-0.170298X0.140362X-0.169702X0.139638X0.170298X-0.140362X0.169702X0*%
%ADD67RoundRect,0.140000X-0.128210X-0.179059X0.151152X-0.160166X0.128210X0.179059X-0.151152X0.160166X0*%
%ADD68RoundRect,0.205000X-0.467589X-0.210441X0.472348X-0.199531X0.467589X0.210441X-0.472348X0.199531X0*%
%ADD69RoundRect,0.150000X-0.165776X0.507617X-0.134081X-0.516893X0.165776X-0.507617X0.134081X0.516893X0*%
%ADD70RoundRect,0.205000X-0.443911X-0.256648X0.490104X-0.150742X0.443911X0.256648X-0.490104X0.150742X0*%
%ADD71RoundRect,0.150000X-0.206786X0.492337X-0.091304X-0.526137X0.206786X-0.492337X0.091304X0.526137X0*%
%ADD72RoundRect,0.205000X-0.461842X-0.222770X0.477474X-0.186932X0.461842X0.222770X-0.477474X0.186932X0*%
%ADD73RoundRect,0.150000X-0.194201X0.497436X-0.104652X-0.523645X0.194201X-0.497436X0.104652X0.523645X0*%
%ADD74RoundRect,0.150000X-0.202499X0.494116X-0.095873X-0.525323X0.202499X-0.494116X0.095873X0.525323X0*%
%ADD75RoundRect,0.140000X-0.119955X-0.184691X0.158262X-0.153144X0.119955X0.184691X-0.158262X0.153144X0*%
%ADD76RoundRect,0.205000X-0.443772X-0.256888X0.490185X-0.150477X0.443772X0.256888X-0.490185X0.150477X0*%
%ADD77RoundRect,0.205000X-0.457412X-0.231731X0.481027X-0.177588X0.457412X0.231731X-0.481027X0.177588X0*%
%ADD78RoundRect,0.140000X-0.134676X-0.174248X0.145190X-0.165590X0.134676X0.174248X-0.145190X0.165590X0*%
%ADD79RoundRect,0.150000X-0.155938X0.510725X-0.144042X-0.514206X0.155938X-0.510725X0.144042X0.514206X0*%
%ADD80RoundRect,0.140000X-0.120603X-0.184269X0.157724X-0.153699X0.120603X0.184269X-0.157724X0.153699X0*%
%ADD81RoundRect,0.205000X0.205000X-0.470000X0.205000X0.470000X-0.205000X0.470000X-0.205000X-0.470000X0*%
%ADD82RoundRect,0.140000X-0.139911X-0.170073X0.140089X-0.169927X0.139911X0.170073X-0.140089X0.169927X0*%
%ADD83RoundRect,0.140000X-0.151152X-0.160166X0.128210X-0.179059X0.151152X0.160166X-0.128210X0.179059X0*%
%ADD84RoundRect,0.205000X-0.446125X-0.252780X0.488775X-0.154996X0.446125X0.252780X-0.488775X0.154996X0*%
G04 APERTURE END LIST*
D10*
%TO.C,MHR3*%
X273000000Y-21000000D03*
%TD*%
D11*
%TO.C,SR3*%
X193708236Y-97961518D03*
D12*
X191324175Y-82909148D03*
D11*
X170188907Y-101686614D03*
D12*
X167804846Y-86634244D03*
%TD*%
D10*
%TO.C,MHR4*%
X299000000Y-44000000D03*
%TD*%
%TO.C,MHR2*%
X204000000Y-92000000D03*
%TD*%
%TO.C,MHR1*%
X167000000Y-49000000D03*
%TD*%
D11*
%TO.C,SR1*%
X267176750Y-2540000D03*
D12*
X267176750Y-17780000D03*
D11*
X290989250Y-2540000D03*
D12*
X290989250Y-17780000D03*
%TD*%
D13*
%TO.C,CRGBR8*%
X289970000Y-23975000D03*
X290930000Y-23975000D03*
%TD*%
D14*
%TO.C,CR15B*%
X174269169Y-42949617D03*
X175226831Y-43016583D03*
%TD*%
D15*
%TO.C,HER10*%
X260800500Y-29525000D03*
X260800500Y-27625000D03*
X263075500Y-28575000D03*
%TD*%
D13*
%TO.C,CR11B*%
X291870000Y-35475000D03*
X292830000Y-35475000D03*
%TD*%
D16*
%TO.C,HER8*%
X173531317Y-18017448D03*
X173234092Y-16140840D03*
X175629694Y-16723256D03*
%TD*%
D17*
%TO.C,CR12A*%
X215857194Y-23198580D03*
X216814006Y-23120420D03*
%TD*%
D18*
%TO.C,CR35A*%
X209446573Y-81330814D03*
X210405699Y-81289876D03*
%TD*%
D13*
%TO.C,CRGBR9*%
X266158000Y-23975000D03*
X267118000Y-23975000D03*
%TD*%
D19*
%TO.C,CRGBR28*%
X220613701Y-79483178D03*
X221568445Y-79382830D03*
%TD*%
D20*
%TO.C,DR32*%
X177645600Y-85062281D03*
X177880252Y-86543813D03*
X183263154Y-85691245D03*
X183028502Y-84209713D03*
%TD*%
D21*
%TO.C,DR29*%
X250640000Y-77375000D03*
X250640000Y-78875000D03*
X256090000Y-78875000D03*
X256090000Y-77375000D03*
%TD*%
D22*
%TO.C,CR29A*%
X169798233Y-68295435D03*
X170755967Y-68361365D03*
%TD*%
D13*
%TO.C,CR16A*%
X230431058Y-41317721D03*
X231389742Y-41267479D03*
%TD*%
D15*
%TO.C,HER17*%
X256989500Y-48575000D03*
X256989500Y-46675000D03*
X259264500Y-47625000D03*
%TD*%
D21*
%TO.C,DR16*%
X234704183Y-39641843D03*
X234782683Y-41139788D03*
X240225217Y-40854557D03*
X240146717Y-39356612D03*
%TD*%
D13*
%TO.C,CR26A*%
X288320000Y-71500000D03*
X289280000Y-71500000D03*
%TD*%
D23*
%TO.C,CR6B*%
X218833894Y-17663554D03*
X219793506Y-17636246D03*
%TD*%
D24*
%TO.C,CRGBR7*%
X177610410Y-9524791D03*
X178558590Y-9374609D03*
%TD*%
D25*
%TO.C,CRGBR6*%
X196414310Y-6533191D03*
X197362490Y-6383009D03*
%TD*%
D26*
%TO.C,DR15*%
X215075929Y-40875149D03*
X215232724Y-42366930D03*
X220652871Y-41797251D03*
X220496076Y-40305470D03*
%TD*%
D27*
%TO.C,CR21A*%
X173271614Y-48262796D03*
X174229786Y-48322004D03*
%TD*%
D13*
%TO.C,CR34A*%
X284385000Y-77000000D03*
X285345000Y-77000000D03*
%TD*%
%TO.C,CR23A*%
X246285000Y-59775000D03*
X247245000Y-59775000D03*
%TD*%
D28*
%TO.C,CR14A*%
X177881533Y-28405564D03*
X178840267Y-28454836D03*
%TD*%
D15*
%TO.C,HER30*%
X254502500Y-84775000D03*
X254502500Y-86675000D03*
X252227500Y-85725000D03*
%TD*%
D13*
%TO.C,CR16B*%
X244335158Y-54408021D03*
X245293842Y-54357779D03*
%TD*%
D29*
%TO.C,CRGBR32*%
X184674187Y-85690454D03*
X185622367Y-85540272D03*
%TD*%
D13*
%TO.C,CR11A*%
X278670000Y-21675000D03*
X279630000Y-21675000D03*
%TD*%
D30*
%TO.C,JR1*%
X165309000Y-63500000D03*
X165309000Y-62500000D03*
X165309000Y-61500000D03*
X165309000Y-60500000D03*
X165309000Y-59500000D03*
X165309000Y-58500000D03*
X165309000Y-57500000D03*
X165309000Y-56500000D03*
X165309000Y-55500000D03*
X165309000Y-54500000D03*
X165309000Y-53500000D03*
X165309000Y-52500000D03*
D31*
X163109000Y-65800000D03*
X163109000Y-50200000D03*
%TD*%
D13*
%TO.C,CR34B*%
X297585000Y-92625000D03*
X298545000Y-92625000D03*
%TD*%
D32*
%TO.C,AMR4*%
X231445000Y-84900000D03*
X230175000Y-84900000D03*
X228905000Y-84900000D03*
X227635000Y-84900000D03*
X226365000Y-84900000D03*
X225095000Y-84900000D03*
X223825000Y-84900000D03*
X222555000Y-84900000D03*
X222555000Y-79950000D03*
X223825000Y-79950000D03*
X225095000Y-79950000D03*
X226365000Y-79950000D03*
X227635000Y-79950000D03*
X228905000Y-79950000D03*
X230175000Y-79950000D03*
X231445000Y-79950000D03*
%TD*%
D13*
%TO.C,CR10A*%
X254858000Y-21675000D03*
X255818000Y-21675000D03*
%TD*%
D32*
%TO.C,AMR2*%
X265055000Y-37525000D03*
X266325000Y-37525000D03*
X267595000Y-37525000D03*
X268865000Y-37525000D03*
X270135000Y-37525000D03*
X271405000Y-37525000D03*
X272675000Y-37525000D03*
X273945000Y-37525000D03*
X273945000Y-42475000D03*
X272675000Y-42475000D03*
X271405000Y-42475000D03*
X270135000Y-42475000D03*
X268865000Y-42475000D03*
X267595000Y-42475000D03*
X266325000Y-42475000D03*
X265055000Y-42475000D03*
%TD*%
D33*
%TO.C,HER22*%
X233383578Y-68158230D03*
X233284140Y-66260834D03*
X235605741Y-67090468D03*
%TD*%
D29*
%TO.C,CR36B*%
X186622987Y-100226354D03*
X187571167Y-100076172D03*
%TD*%
D34*
%TO.C,HER13*%
X203645433Y-32379897D03*
X203446829Y-30490305D03*
X205808669Y-31197299D03*
%TD*%
D35*
%TO.C,HER6*%
X210996633Y-12541297D03*
X210798029Y-10651705D03*
X213159869Y-11358699D03*
%TD*%
D13*
%TO.C,CR17A*%
X251047000Y-40725000D03*
X252007000Y-40725000D03*
%TD*%
%TO.C,CRGBR16*%
X241678858Y-40027321D03*
X242637542Y-39977079D03*
%TD*%
D21*
%TO.C,DR31*%
X288740000Y-77375000D03*
X288740000Y-78875000D03*
X294190000Y-78875000D03*
X294190000Y-77375000D03*
%TD*%
D36*
%TO.C,HER28*%
X195738717Y-72242648D03*
X195441492Y-70366040D03*
X197837094Y-70948456D03*
%TD*%
D22*
%TO.C,CR29B*%
X184994533Y-79860635D03*
X185952267Y-79926565D03*
%TD*%
D37*
%TO.C,HER36*%
X179880994Y-94041311D03*
X179583769Y-92164703D03*
X181979371Y-92747119D03*
%TD*%
D13*
%TO.C,CR32A*%
X265335000Y-78825000D03*
X266295000Y-78825000D03*
%TD*%
D38*
%TO.C,CRGBR15*%
X222061328Y-40895074D03*
X223016072Y-40794726D03*
%TD*%
D39*
%TO.C,CRGBR1*%
X215514628Y-4273674D03*
X216469372Y-4173326D03*
%TD*%
D40*
%TO.C,DR26*%
X192715923Y-63305518D03*
X192950575Y-64787050D03*
X198333477Y-63934482D03*
X198098825Y-62452950D03*
%TD*%
D41*
%TO.C,CR27A*%
X207455041Y-62385869D03*
X208414159Y-62344731D03*
%TD*%
D21*
%TO.C,DR22*%
X269690000Y-58325000D03*
X269690000Y-59825000D03*
X275140000Y-59825000D03*
X275140000Y-58325000D03*
%TD*%
%TO.C,DR23*%
X250640000Y-58325000D03*
X250640000Y-59825000D03*
X256090000Y-59825000D03*
X256090000Y-58325000D03*
%TD*%
D42*
%TO.C,DR20*%
X177351123Y-46254118D03*
X177585775Y-47735650D03*
X182968677Y-46883082D03*
X182734025Y-45401550D03*
%TD*%
D43*
%TO.C,CRGBR11*%
X227023128Y-21332274D03*
X227977872Y-21231926D03*
%TD*%
D13*
%TO.C,CMR2*%
X262467300Y-43648600D03*
X263427300Y-43648600D03*
%TD*%
D15*
%TO.C,HER26*%
X292708500Y-67625000D03*
X292708500Y-65725000D03*
X294983500Y-66675000D03*
%TD*%
D13*
%TO.C,CRGBR17*%
X262347000Y-40025000D03*
X263307000Y-40025000D03*
%TD*%
%TO.C,CRGBR3*%
X254728000Y-2725000D03*
X255688000Y-2725000D03*
%TD*%
D44*
%TO.C,CRGBR13*%
X188938210Y-26046191D03*
X189886390Y-25896009D03*
%TD*%
D32*
%TO.C,AMR1*%
X265555000Y-45525000D03*
X266825000Y-45525000D03*
X268095000Y-45525000D03*
X269365000Y-45525000D03*
X270635000Y-45525000D03*
X271905000Y-45525000D03*
X273175000Y-45525000D03*
X274445000Y-45525000D03*
X274445000Y-50475000D03*
X273175000Y-50475000D03*
X271905000Y-50475000D03*
X270635000Y-50475000D03*
X269365000Y-50475000D03*
X268095000Y-50475000D03*
X266825000Y-50475000D03*
X265555000Y-50475000D03*
%TD*%
D13*
%TO.C,CR17B*%
X264247000Y-54525000D03*
X265207000Y-54525000D03*
%TD*%
%TO.C,CRGBR29*%
X263647000Y-81125000D03*
X264607000Y-81125000D03*
%TD*%
D21*
%TO.C,DR34*%
X291121000Y-58325000D03*
X291121000Y-59825000D03*
X296571000Y-59825000D03*
X296571000Y-58325000D03*
%TD*%
D45*
%TO.C,RBPR31*%
X271990000Y-81500000D03*
X273010000Y-81500000D03*
%TD*%
D21*
%TO.C,DR17*%
X255402000Y-39275000D03*
X255402000Y-40775000D03*
X260852000Y-40775000D03*
X260852000Y-39275000D03*
%TD*%
D46*
%TO.C,CR13A*%
X196912327Y-25138840D03*
X197872273Y-25148960D03*
%TD*%
D15*
%TO.C,HER34*%
X290327500Y-86675000D03*
X290327500Y-84775000D03*
X292602500Y-85725000D03*
%TD*%
D13*
%TO.C,CR9B*%
X249008000Y-35475000D03*
X249968000Y-35475000D03*
%TD*%
D47*
%TO.C,HER35*%
X216179296Y-88546339D03*
X215980696Y-86656747D03*
X218342536Y-87363741D03*
%TD*%
D48*
%TO.C,DR24*%
X231311483Y-58954043D03*
X231389983Y-60451988D03*
X236832517Y-60166757D03*
X236754017Y-58668812D03*
%TD*%
D16*
%TO.C,HER15*%
X166174917Y-38316848D03*
X165877692Y-36440240D03*
X168273294Y-37022656D03*
%TD*%
D21*
%TO.C,DR8*%
X283025000Y-23225000D03*
X283025000Y-24725000D03*
X288475000Y-24725000D03*
X288475000Y-23225000D03*
%TD*%
D49*
%TO.C,CR22A*%
X227038332Y-60629519D03*
X227997068Y-60580281D03*
%TD*%
D13*
%TO.C,CMR1*%
X262967300Y-51648600D03*
X263927300Y-51648600D03*
%TD*%
%TO.C,CR30B*%
X259485000Y-92625000D03*
X260445000Y-92625000D03*
%TD*%
D50*
%TO.C,HER21*%
X180373917Y-55191248D03*
X180076692Y-53314640D03*
X182472294Y-53897056D03*
%TD*%
D21*
%TO.C,DR3*%
X247783000Y-1975000D03*
X247783000Y-3475000D03*
X253233000Y-3475000D03*
X253233000Y-1975000D03*
%TD*%
D51*
%TO.C,HER1*%
X230337978Y-10776430D03*
X230238540Y-8879034D03*
X232560141Y-9708668D03*
%TD*%
D52*
%TO.C,CR19A*%
X210894753Y-42754078D03*
X211852647Y-42690522D03*
%TD*%
D13*
%TO.C,CMR3*%
X240572700Y-69851400D03*
X241532700Y-69851400D03*
%TD*%
D15*
%TO.C,HER4*%
X277945500Y-10475000D03*
X277945500Y-8575000D03*
X280220500Y-9525000D03*
%TD*%
D53*
%TO.C,CR28B*%
X203831702Y-76907609D03*
X204791698Y-76910391D03*
%TD*%
D15*
%TO.C,HER32*%
X271277500Y-86675000D03*
X271277500Y-84775000D03*
X273552500Y-85725000D03*
%TD*%
D54*
%TO.C,DR19*%
X196154323Y-43276818D03*
X196388975Y-44758350D03*
X201771877Y-43905782D03*
X201537225Y-42424250D03*
%TD*%
D32*
%TO.C,AMR5*%
X292055000Y-47025000D03*
X293325000Y-47025000D03*
X294595000Y-47025000D03*
X295865000Y-47025000D03*
X297135000Y-47025000D03*
X298405000Y-47025000D03*
X299675000Y-47025000D03*
X300945000Y-47025000D03*
X300945000Y-51975000D03*
X299675000Y-51975000D03*
X298405000Y-51975000D03*
X297135000Y-51975000D03*
X295865000Y-51975000D03*
X294595000Y-51975000D03*
X293325000Y-51975000D03*
X292055000Y-51975000D03*
%TD*%
D55*
%TO.C,DR25*%
X211636729Y-60518149D03*
X211793524Y-62009930D03*
X217213671Y-61440251D03*
X217056876Y-59948470D03*
%TD*%
D56*
%TO.C,CRGBR33*%
X272083000Y-16655000D03*
X272083000Y-15695000D03*
%TD*%
D13*
%TO.C,CMR4*%
X233072700Y-78851400D03*
X234032700Y-78851400D03*
%TD*%
%TO.C,CR2B*%
X256628000Y-16425000D03*
X257588000Y-16425000D03*
%TD*%
%TO.C,CR10B*%
X268058000Y-35475000D03*
X269018000Y-35475000D03*
%TD*%
%TO.C,CRGBR36*%
X276635000Y-81125000D03*
X277595000Y-81125000D03*
%TD*%
D57*
%TO.C,DR28*%
X213628365Y-79463305D03*
X213785160Y-80955086D03*
X219205307Y-80385407D03*
X219048512Y-78893626D03*
%TD*%
D58*
%TO.C,HER20*%
X199177117Y-52214048D03*
X198879892Y-50337440D03*
X201275494Y-50919856D03*
%TD*%
D13*
%TO.C,CRGBR18*%
X288541000Y-40025000D03*
X289501000Y-40025000D03*
%TD*%
%TO.C,CRGBR10*%
X247108000Y-20975000D03*
X248068000Y-20975000D03*
%TD*%
D21*
%TO.C,DR18*%
X281596000Y-39275000D03*
X281596000Y-40775000D03*
X287046000Y-40775000D03*
X287046000Y-39275000D03*
%TD*%
D13*
%TO.C,CR32B*%
X278535000Y-92625000D03*
X279495000Y-92625000D03*
%TD*%
D59*
%TO.C,DR6*%
X189437423Y-6878918D03*
X189672075Y-8360450D03*
X195054977Y-7507882D03*
X194820325Y-6026350D03*
%TD*%
D53*
%TO.C,CR28A*%
X188635502Y-65342409D03*
X189595498Y-65345191D03*
%TD*%
D41*
%TO.C,CR27B*%
X222025141Y-74730469D03*
X222984259Y-74689331D03*
%TD*%
D60*
%TO.C,CRGBR12*%
X208079828Y-23316674D03*
X209034572Y-23216326D03*
%TD*%
D61*
%TO.C,CR1B*%
X237896855Y-16336380D03*
X238855745Y-16290220D03*
%TD*%
D62*
%TO.C,DR2*%
X228307883Y-2371143D03*
X228386383Y-3869088D03*
X233828917Y-3583857D03*
X233750417Y-2085912D03*
%TD*%
D13*
%TO.C,CR18B*%
X290441000Y-54525000D03*
X291401000Y-54525000D03*
%TD*%
%TO.C,CRGBR22*%
X266735000Y-62675000D03*
X267695000Y-62675000D03*
%TD*%
D28*
%TO.C,CR14B*%
X193077833Y-39970764D03*
X194036567Y-40020036D03*
%TD*%
D63*
%TO.C,CRGBR26*%
X199692810Y-62959891D03*
X200640990Y-62809709D03*
%TD*%
D13*
%TO.C,CR23B*%
X259485000Y-73575000D03*
X260445000Y-73575000D03*
%TD*%
D64*
%TO.C,CR7B*%
X200428277Y-19683622D03*
X201388123Y-19700778D03*
%TD*%
D13*
%TO.C,CR9A*%
X235808000Y-21675000D03*
X236768000Y-21675000D03*
%TD*%
%TO.C,CR24A*%
X267020000Y-71500000D03*
X267980000Y-71500000D03*
%TD*%
%TO.C,CMR5*%
X289467300Y-53148600D03*
X290427300Y-53148600D03*
%TD*%
D27*
%TO.C,CR21B*%
X188467914Y-59828096D03*
X189426086Y-59887304D03*
%TD*%
D65*
%TO.C,HER19*%
X217626833Y-49958297D03*
X217428229Y-48068705D03*
X219790069Y-48775699D03*
%TD*%
D66*
%TO.C,CRGBR2*%
X235282558Y-2756621D03*
X236241242Y-2706379D03*
%TD*%
D14*
%TO.C,CR8A*%
X166429169Y-11085117D03*
X167386831Y-11152083D03*
%TD*%
D13*
%TO.C,CR4A*%
X278603000Y-14000000D03*
X279563000Y-14000000D03*
%TD*%
%TO.C,CR26B*%
X299966000Y-73575000D03*
X300926000Y-73575000D03*
%TD*%
D24*
%TO.C,CRGBR14*%
X170191510Y-29429091D03*
X171139690Y-29278909D03*
%TD*%
D67*
%TO.C,CRGBR19*%
X203131210Y-42931191D03*
X204079390Y-42781009D03*
%TD*%
D21*
%TO.C,DR9*%
X259213000Y-23225000D03*
X259213000Y-24725000D03*
X264663000Y-24725000D03*
X264663000Y-23225000D03*
%TD*%
D15*
%TO.C,HER16*%
X236776178Y-48846030D03*
X236676740Y-46948634D03*
X238998341Y-47778268D03*
%TD*%
D13*
%TO.C,CR18A*%
X277241000Y-40725000D03*
X278201000Y-40725000D03*
%TD*%
D68*
%TO.C,DR11*%
X220037729Y-21312349D03*
X220194524Y-22804130D03*
X225614671Y-22234451D03*
X225457876Y-20742670D03*
%TD*%
D46*
%TO.C,CR13B*%
X211482527Y-37483440D03*
X212442473Y-37493560D03*
%TD*%
D69*
%TO.C,HER27*%
X214187633Y-69601297D03*
X213989029Y-67711705D03*
X216350869Y-68418699D03*
%TD*%
D15*
%TO.C,HER2*%
X249370500Y-10475000D03*
X249370500Y-8575000D03*
X251645500Y-9525000D03*
%TD*%
D13*
%TO.C,CR30A*%
X246285000Y-78825000D03*
X247245000Y-78825000D03*
%TD*%
D52*
%TO.C,CR19B*%
X225464953Y-55098678D03*
X226422847Y-55035122D03*
%TD*%
D70*
%TO.C,DR27*%
X173877523Y-66290118D03*
X174112175Y-67771650D03*
X179495077Y-66919082D03*
X179260425Y-65437550D03*
%TD*%
D15*
%TO.C,HER24*%
X271277500Y-67625000D03*
X271277500Y-65725000D03*
X273552500Y-66675000D03*
%TD*%
D49*
%TO.C,CR22B*%
X240942432Y-73719719D03*
X241901168Y-73670481D03*
%TD*%
D71*
%TO.C,HER29*%
X176900317Y-75227248D03*
X176603092Y-73350640D03*
X178998694Y-73933056D03*
%TD*%
D72*
%TO.C,DR1*%
X208529229Y-4253749D03*
X208686024Y-5745530D03*
X214106171Y-5175851D03*
X213949376Y-3684070D03*
%TD*%
D23*
%TO.C,CR6A*%
X204263594Y-5318854D03*
X205223206Y-5291546D03*
%TD*%
D73*
%TO.C,HER7*%
X192335117Y-15025848D03*
X192037892Y-13149240D03*
X194433494Y-13731656D03*
%TD*%
D13*
%TO.C,CR4B*%
X285203000Y-16425000D03*
X286163000Y-16425000D03*
%TD*%
D74*
%TO.C,HER14*%
X184984117Y-35329048D03*
X184686892Y-33452440D03*
X187082494Y-34034856D03*
%TD*%
D75*
%TO.C,CRGBR27*%
X180854410Y-65944491D03*
X181802590Y-65794309D03*
%TD*%
D14*
%TO.C,CR8B*%
X181625569Y-22650317D03*
X182583231Y-22717283D03*
%TD*%
D15*
%TO.C,HER23*%
X252227500Y-67625000D03*
X252227500Y-65725000D03*
X254502500Y-66675000D03*
%TD*%
D14*
%TO.C,CR15A*%
X159072869Y-31384517D03*
X160030531Y-31451483D03*
%TD*%
D13*
%TO.C,CRGBR31*%
X296985000Y-81125000D03*
X297945000Y-81125000D03*
%TD*%
D15*
%TO.C,HER11*%
X284612500Y-29525000D03*
X284612500Y-27625000D03*
X286887500Y-28575000D03*
%TD*%
D76*
%TO.C,DR14*%
X163214823Y-29774818D03*
X163449475Y-31256350D03*
X168832377Y-30403782D03*
X168597725Y-28922250D03*
%TD*%
D29*
%TO.C,CR36A*%
X174140687Y-85773954D03*
X175088867Y-85623772D03*
%TD*%
D77*
%TO.C,DR12*%
X201094529Y-23296749D03*
X201251324Y-24788530D03*
X206671471Y-24218851D03*
X206514676Y-22727070D03*
%TD*%
D78*
%TO.C,CRGBR25*%
X218622028Y-60538174D03*
X219576772Y-60437826D03*
%TD*%
D79*
%TO.C,HER12*%
X222588633Y-30395497D03*
X222390029Y-28505905D03*
X224751869Y-29212899D03*
%TD*%
D17*
%TO.C,CR12B*%
X230427294Y-35543080D03*
X231384106Y-35464920D03*
%TD*%
D80*
%TO.C,CRGBR20*%
X184327910Y-45908491D03*
X185276090Y-45758309D03*
%TD*%
D45*
%TO.C,RBPR24*%
X233490000Y-62500000D03*
X234510000Y-62500000D03*
%TD*%
D64*
%TO.C,CR7A*%
X185231977Y-8118522D03*
X186191823Y-8135678D03*
%TD*%
D81*
%TO.C,DR33*%
X276358000Y-1907000D03*
X276358000Y-3407000D03*
X281808000Y-3407000D03*
X281808000Y-1907000D03*
%TD*%
D13*
%TO.C,CR2A*%
X243428000Y-2625000D03*
X244388000Y-2625000D03*
%TD*%
D82*
%TO.C,CRGBR24*%
X238286258Y-59339521D03*
X239244942Y-59289279D03*
%TD*%
D15*
%TO.C,HER9*%
X241750500Y-29525000D03*
X241750500Y-27625000D03*
X244025500Y-28575000D03*
%TD*%
D21*
%TO.C,DR36*%
X269690000Y-77375000D03*
X269690000Y-78875000D03*
X275140000Y-78875000D03*
X275140000Y-77375000D03*
%TD*%
D13*
%TO.C,CR24B*%
X278535000Y-73575000D03*
X279495000Y-73575000D03*
%TD*%
D15*
%TO.C,HER18*%
X283183500Y-48575000D03*
X283183500Y-46675000D03*
X285458500Y-47625000D03*
%TD*%
D83*
%TO.C,CR20B*%
X207270216Y-56890872D03*
X208229984Y-56869728D03*
%TD*%
D76*
%TO.C,DR7*%
X170633723Y-9870518D03*
X170868375Y-11352050D03*
X176251277Y-10499482D03*
X176016625Y-9017950D03*
%TD*%
D84*
%TO.C,DR13*%
X181961323Y-26391818D03*
X182195975Y-27873350D03*
X187578877Y-27020782D03*
X187344225Y-25539250D03*
%TD*%
D32*
%TO.C,AMR3*%
X238945000Y-75975000D03*
X237675000Y-75975000D03*
X236405000Y-75975000D03*
X235135000Y-75975000D03*
X233865000Y-75975000D03*
X232595000Y-75975000D03*
X231325000Y-75975000D03*
X230055000Y-75975000D03*
X230055000Y-71025000D03*
X231325000Y-71025000D03*
X232595000Y-71025000D03*
X233865000Y-71025000D03*
X235135000Y-71025000D03*
X236405000Y-71025000D03*
X237675000Y-71025000D03*
X238945000Y-71025000D03*
%TD*%
D13*
%TO.C,CRGBR34*%
X290466000Y-62675000D03*
X291426000Y-62675000D03*
%TD*%
D83*
%TO.C,CR20A*%
X192074016Y-45325772D03*
X193033784Y-45304628D03*
%TD*%
D45*
%TO.C,RBPR5*%
X274990000Y-5500000D03*
X276010000Y-5500000D03*
%TD*%
D61*
%TO.C,CR1A*%
X223992655Y-3246180D03*
X224951545Y-3200020D03*
%TD*%
D21*
%TO.C,DR10*%
X240163000Y-20225000D03*
X240163000Y-21725000D03*
X245613000Y-21725000D03*
X245613000Y-20225000D03*
%TD*%
D18*
%TO.C,CR35B*%
X224016835Y-93675408D03*
X224975961Y-93634470D03*
%TD*%
D13*
%TO.C,CRGBR23*%
X257585000Y-59075000D03*
X258545000Y-59075000D03*
%TD*%
M02*
