%TF.GenerationSoftware,KiCad,Pcbnew,10.0.5*%
%TF.CreationDate,2026-09-22T21:49:25-04:00*%
%TF.ProjectId,Symm60HE-wklbs2arrows-Right,53796d6d-3630-4484-952d-776b6c627332,rev?*%
%TF.SameCoordinates,Original*%
%TF.FileFunction,Profile,NP*%
%FSLAX46Y46*%
G04 Gerber Fmt 4.6, Leading zero omitted, Abs format (unit mm)*
G04 Created by KiCad (PCBNEW 10.0.5) date 2026-09-22 21:49:25*
%MOMM*%
%LPD*%
G01*
G04 APERTURE LIST*
%TA.AperFunction,Profile*%
%ADD10C,0.100000*%
%TD*%
%TA.AperFunction,Profile*%
%ADD11C,0.120000*%
%TD*%
G04 APERTURE END LIST*
D10*
X156979600Y-31167300D02*
X157015400Y-30816500D01*
X157015400Y-30816500D02*
X157059600Y-30645600D01*
X157059600Y-30645600D02*
X157120900Y-30480000D01*
X157120900Y-30480000D02*
X157291600Y-30171500D01*
X157291600Y-30171500D02*
X157399400Y-30031700D01*
X157399400Y-30031700D02*
X157654300Y-29788100D01*
X157654300Y-29788100D02*
X157953000Y-29600600D01*
X157953000Y-29600600D02*
X158114900Y-29530300D01*
X158114900Y-29530300D02*
X158455800Y-29440400D01*
X158407900Y-45565700D02*
X156979600Y-31167300D01*
X158409000Y-68750000D02*
X158407900Y-45565700D01*
X158417400Y-68921500D02*
X158409000Y-68750000D01*
X158455800Y-29440400D02*
X165387900Y-28342400D01*
X158484400Y-69258000D02*
X158417400Y-68921500D01*
X158615600Y-69574900D02*
X158484400Y-69258000D01*
X158703900Y-69722200D02*
X158615600Y-69574900D01*
X158921600Y-69987400D02*
X158703900Y-69722200D01*
X159048800Y-70102800D02*
X158921600Y-69987400D01*
X159186800Y-70205100D02*
X159048800Y-70102800D01*
X159489300Y-70366800D02*
X159186800Y-70205100D01*
X159817600Y-70466400D02*
X159489300Y-70366800D01*
X159987500Y-70500000D02*
X159817600Y-70466400D01*
X160810500Y-84939400D02*
X160831900Y-84774300D01*
X160815100Y-85271900D02*
X160810500Y-84939400D01*
X160831900Y-84774300D02*
X160921100Y-84453900D01*
X160921100Y-84453900D02*
X160988200Y-84301500D01*
X160988200Y-84301500D02*
X161069400Y-84156100D01*
X161069400Y-84156100D02*
X161271300Y-83891800D01*
X161271300Y-83891800D02*
X161390200Y-83775300D01*
X161390200Y-83775300D02*
X161658300Y-83578500D01*
X161658300Y-83578500D02*
X161958900Y-83436100D01*
X161958900Y-83436100D02*
X162281000Y-83353100D01*
X162281000Y-83353100D02*
X169374500Y-82229600D01*
X162805500Y-103456400D02*
X160815100Y-85271900D01*
X162879200Y-103802200D02*
X162805500Y-103456400D01*
X163021000Y-104126000D02*
X162879200Y-103802200D01*
X163115700Y-104275600D02*
X163021000Y-104126000D01*
X163347700Y-104542300D02*
X163115700Y-104275600D01*
X163628600Y-104756900D02*
X163347700Y-104542300D01*
X163947000Y-104910600D02*
X163628600Y-104756900D01*
X164116100Y-104962600D02*
X163947000Y-104910600D01*
X164436400Y-10957000D02*
X164449900Y-10614300D01*
X164449900Y-10614300D02*
X164529900Y-10280800D01*
X164454900Y-11127700D02*
X164436400Y-10957000D01*
X164465900Y-105014200D02*
X164116100Y-104962600D01*
X164529900Y-10280800D02*
X164673500Y-9969300D01*
X164673500Y-9969300D02*
X164875000Y-9691800D01*
X164679000Y-105020700D02*
X164465900Y-105014200D01*
X164875000Y-9691800D02*
X165126800Y-9458900D01*
X165126800Y-9458900D02*
X165419200Y-9279600D01*
X165387900Y-28342400D02*
X165618200Y-28291000D01*
X165419200Y-9279600D02*
X165577100Y-9212300D01*
X165577100Y-9212300D02*
X165909000Y-9125600D01*
X165618200Y-28291000D02*
X165936800Y-28164600D01*
X165909000Y-9125600D02*
X200810500Y-3583600D01*
X165936800Y-28164600D02*
X166085200Y-28078500D01*
X166085200Y-28078500D02*
X166290300Y-27923300D01*
X166290300Y-27923300D02*
X166413400Y-27803700D01*
X166413400Y-27803700D02*
X166574700Y-27603300D01*
X166574700Y-27603300D02*
X166665000Y-27457400D01*
X166665000Y-27457400D02*
X166772700Y-27223800D01*
X166772700Y-27223800D02*
X166825000Y-27060400D01*
X166825000Y-27060400D02*
X166872700Y-26807600D01*
X166860500Y-26315600D02*
X164454900Y-11127700D01*
X166872700Y-26807600D02*
X166882800Y-26550500D01*
X166882800Y-26550500D02*
X166860500Y-26315600D01*
X169052500Y-70500000D02*
X159987500Y-70500000D01*
X169288000Y-70514700D02*
X169052500Y-70500000D01*
X169374500Y-82229600D02*
X169729400Y-82126200D01*
X169457000Y-70544100D02*
X169288000Y-70514700D01*
X169703200Y-70618700D02*
X169457000Y-70544100D01*
X169729400Y-82126200D02*
X169966500Y-82008700D01*
X169935800Y-70728700D02*
X169703200Y-70618700D01*
X169966500Y-82008700D02*
X170249900Y-81799100D01*
X170149600Y-70871600D02*
X169935800Y-70728700D01*
X170249900Y-81799100D02*
X170431600Y-81606900D01*
X170397900Y-71108000D02*
X170149600Y-70871600D01*
X170431600Y-81606900D02*
X170625000Y-81312200D01*
X170551100Y-71314600D02*
X170397900Y-71108000D01*
X170625000Y-81312200D02*
X170729000Y-81068900D01*
X170672400Y-71541500D02*
X170551100Y-71314600D01*
X170729000Y-81068900D02*
X170795100Y-80812700D01*
X170779900Y-71866900D02*
X170672400Y-71541500D01*
X170795100Y-80812700D02*
X170822800Y-80527400D01*
X170817600Y-72121400D02*
X170779900Y-71866900D01*
X170822800Y-80527400D02*
X170817600Y-72121400D01*
X200810500Y-3583600D02*
X221990300Y-1225000D01*
X221990300Y-1225000D02*
X239558100Y-304300D01*
X229466300Y-94759400D02*
X164679000Y-105020700D01*
X239558100Y-304300D02*
X239901600Y-320200D01*
X239901600Y-320200D02*
X240507300Y-473000D01*
X240507300Y-473000D02*
X240825600Y-500000D01*
X240825600Y-500000D02*
X298263000Y-500000D01*
X298263000Y-500000D02*
X298434500Y-508400D01*
X298434500Y-508400D02*
X298771000Y-575400D01*
X298771000Y-575400D02*
X298932700Y-633200D01*
X298932700Y-633200D02*
X299235200Y-794900D01*
X299235200Y-794900D02*
X299500400Y-1012600D01*
X299500400Y-1012600D02*
X299615800Y-1139800D01*
X299615800Y-1139800D02*
X299806400Y-1425100D01*
X299806400Y-1425100D02*
X299937600Y-1742000D01*
X299937600Y-1742000D02*
X299979400Y-1908600D01*
X299979400Y-1908600D02*
X300013000Y-2250000D01*
X300013000Y-2250000D02*
X300019300Y-17928600D01*
X300019300Y-17928600D02*
X300040300Y-18098900D01*
X300040300Y-18098900D02*
X300102800Y-18348400D01*
X300102800Y-18348400D02*
X300201300Y-18586100D01*
X300201300Y-18586100D02*
X300333500Y-18806800D01*
X300333500Y-18806800D02*
X300439100Y-18942000D01*
X300439100Y-18942000D02*
X300621000Y-19123900D01*
X300621000Y-19123900D02*
X300827600Y-19277200D01*
X300827600Y-19277200D02*
X301139700Y-19458300D01*
X301121000Y-94750000D02*
X229466300Y-94759400D01*
X301139700Y-19458300D02*
X301277700Y-19560600D01*
X301277700Y-19560600D02*
X301520300Y-19803200D01*
X301462400Y-94716400D02*
X301121000Y-94750000D01*
X301520300Y-19803200D02*
X301710900Y-20088500D01*
X301710900Y-20088500D02*
X301784300Y-20243700D01*
X301784300Y-20243700D02*
X301842100Y-20405400D01*
X301790700Y-94616800D02*
X301462400Y-94716400D01*
X301842100Y-20405400D02*
X301909100Y-20741900D01*
X301909100Y-20741900D02*
X301923300Y-37166600D01*
X301923300Y-37166600D02*
X301977200Y-37490700D01*
X301977200Y-37490700D02*
X302090700Y-37799000D01*
X302090700Y-37799000D02*
X302259900Y-38080600D01*
X302093200Y-94455100D02*
X301790700Y-94616800D01*
X302259900Y-38080600D02*
X302504800Y-38370300D01*
X302358400Y-94237400D02*
X302093200Y-94455100D01*
X302504800Y-38370300D02*
X302599200Y-38505100D01*
X302576100Y-93972200D02*
X302358400Y-94237400D01*
X302599200Y-38505100D02*
X302748300Y-38798200D01*
X302737800Y-93669700D02*
X302576100Y-93972200D01*
X302748300Y-38798200D02*
X302839900Y-39114000D01*
X302837400Y-93341400D02*
X302737800Y-93669700D01*
X302839900Y-39114000D02*
X302870800Y-39441300D01*
X302870800Y-39441300D02*
X302871000Y-93000000D01*
X302871000Y-93000000D02*
X302837400Y-93341400D01*
%TO.C,DR32*%
D11*
X180013730Y-98475139D02*
X179904170Y-97783408D01*
X180013730Y-98475139D02*
X180123289Y-99166869D01*
X181458148Y-96727667D02*
X180568880Y-96868514D01*
X181458148Y-96727667D02*
X182347416Y-96586821D01*
X181927452Y-99690733D02*
X181038184Y-99831579D01*
X181927452Y-99690733D02*
X182816720Y-99549886D01*
X183371870Y-97943261D02*
X183262311Y-97251531D01*
X183371870Y-97943261D02*
X183481430Y-98634992D01*
X179836326Y-97635903D02*
G75*
G02*
X179904170Y-97783408I-228477J-194442D01*
G01*
X179836326Y-97635903D02*
G75*
G02*
X180407630Y-96849572I380769J324059D01*
G01*
X180123289Y-99166869D02*
G75*
G02*
X180104347Y-99328120I-296298J-46932D01*
G01*
X180568880Y-96868514D02*
G75*
G02*
X180407630Y-96849572I-46932J296298D01*
G01*
X180890679Y-99899423D02*
G75*
G02*
X180104347Y-99328120I-324059J380769D01*
G01*
X180890679Y-99899423D02*
G75*
G02*
X181038184Y-99831579I194444J-228484D01*
G01*
X182494921Y-96518977D02*
G75*
G02*
X182347416Y-96586819I-194426J228453D01*
G01*
X182494921Y-96518977D02*
G75*
G02*
X183281253Y-97090280I324060J-380768D01*
G01*
X182816720Y-99549886D02*
G75*
G02*
X182977970Y-99568827I46930J-296327D01*
G01*
X183262311Y-97251531D02*
G75*
G02*
X183281253Y-97090280I295987J46968D01*
G01*
X183549274Y-98782497D02*
G75*
G02*
X182977970Y-99568829I-380768J-324060D01*
G01*
X183549274Y-98782497D02*
G75*
G02*
X183481454Y-98634988I228469J194389D01*
G01*
%TO.C,DR29*%
X251665000Y-91075000D02*
X251665000Y-90374647D01*
X251665000Y-91075000D02*
X251665000Y-91775353D01*
X253365000Y-89575000D02*
X252464647Y-89575000D01*
X253365000Y-89575000D02*
X254265353Y-89575000D01*
X253365000Y-92575000D02*
X252464647Y-92575000D01*
X253365000Y-92575000D02*
X254265353Y-92575000D01*
X255065000Y-91075000D02*
X255065000Y-90374647D01*
X255065000Y-91075000D02*
X255065000Y-91775353D01*
X251621066Y-90218345D02*
G75*
G02*
X251665000Y-90374647I-256058J-156299D01*
G01*
X251621066Y-90218345D02*
G75*
G02*
X252308345Y-89531066I426776J260503D01*
G01*
X251665000Y-91775353D02*
G75*
G02*
X251621066Y-91931655I-299992J-3D01*
G01*
X252308345Y-92618934D02*
G75*
G02*
X251621066Y-91931655I-260503J426776D01*
G01*
X252308345Y-92618934D02*
G75*
G02*
X252464647Y-92575000I156299J-256058D01*
G01*
X252464647Y-89575000D02*
G75*
G02*
X252308345Y-89531066I-3J299992D01*
G01*
X254265353Y-92575000D02*
G75*
G02*
X254421656Y-92618933I-3J-300020D01*
G01*
X254421655Y-89531066D02*
G75*
G02*
X254265353Y-89574976I-156255J256066D01*
G01*
X254421655Y-89531066D02*
G75*
G02*
X255108934Y-90218345I260505J-426774D01*
G01*
X255065000Y-90374647D02*
G75*
G02*
X255108935Y-90218346I299680J87D01*
G01*
X255108934Y-91931655D02*
G75*
G02*
X254421655Y-92618934I-426774J-260505D01*
G01*
X255108934Y-91931655D02*
G75*
G02*
X255065024Y-91775353I256066J156255D01*
G01*
%TO.C,DR16*%
X236444730Y-53269471D02*
X236408076Y-52570078D01*
X236444730Y-53269471D02*
X236481383Y-53968864D01*
X238063896Y-51682556D02*
X237164777Y-51729677D01*
X238063896Y-51682556D02*
X238963015Y-51635435D01*
X238220904Y-54678444D02*
X237321785Y-54725565D01*
X238220904Y-54678444D02*
X239120023Y-54631323D01*
X239840070Y-53091529D02*
X239803417Y-52392136D01*
X239840070Y-53091529D02*
X239876724Y-53790922D01*
X236356022Y-52416289D02*
G75*
G02*
X236408076Y-52570078I-247527J-169486D01*
G01*
X236356022Y-52416289D02*
G75*
G02*
X237006390Y-51693983I412558J282481D01*
G01*
X236481383Y-53968864D02*
G75*
G02*
X236445690Y-54127251I-299587J-15702D01*
G01*
X237164777Y-51729677D02*
G75*
G02*
X237006390Y-51693984I-15726J299480D01*
G01*
X237167996Y-54777619D02*
G75*
G02*
X236445691Y-54127252I-282480J412558D01*
G01*
X237167996Y-54777619D02*
G75*
G02*
X237321785Y-54725565I169486J-247527D01*
G01*
X239116804Y-51583381D02*
G75*
G02*
X238963014Y-51635411I-169443J247537D01*
G01*
X239116804Y-51583381D02*
G75*
G02*
X239839109Y-52233749I282483J-412555D01*
G01*
X239120023Y-54631323D02*
G75*
G02*
X239278409Y-54667018I15698J-299589D01*
G01*
X239803417Y-52392136D02*
G75*
G02*
X239839110Y-52233749I299274J15772D01*
G01*
X239928778Y-53944711D02*
G75*
G02*
X239278410Y-54667016I-412555J-282483D01*
G01*
X239928778Y-53944711D02*
G75*
G02*
X239876748Y-53790921I247537J169443D01*
G01*
%TO.C,DR15*%
X217527313Y-54392998D02*
X217454106Y-53696482D01*
X217527313Y-54392998D02*
X217600520Y-55089515D01*
X219061207Y-52723517D02*
X218165787Y-52817630D01*
X219061207Y-52723517D02*
X219956628Y-52629405D01*
X219374793Y-55707083D02*
X218479372Y-55801195D01*
X219374793Y-55707083D02*
X220270213Y-55612970D01*
X220908687Y-54037602D02*
X220835480Y-53341085D01*
X220908687Y-54037602D02*
X220981894Y-54734118D01*
X217394075Y-53545629D02*
G75*
G02*
X217454106Y-53696482I-238341J-182217D01*
G01*
X217394075Y-53545629D02*
G75*
G02*
X218005748Y-52790274I397207J303687D01*
G01*
X217600520Y-55089515D02*
G75*
G02*
X217573165Y-55249553I-298349J-31360D01*
G01*
X218165787Y-52817630D02*
G75*
G02*
X218005748Y-52790274I-31355J298380D01*
G01*
X218328519Y-55861227D02*
G75*
G02*
X217573163Y-55249553I-303688J397207D01*
G01*
X218328519Y-55861227D02*
G75*
G02*
X218479372Y-55801196I182208J-238317D01*
G01*
X220107481Y-52569373D02*
G75*
G02*
X219956628Y-52629402I-182203J238316D01*
G01*
X220107481Y-52569373D02*
G75*
G02*
X220862835Y-53181047I303688J-397206D01*
G01*
X220270213Y-55612970D02*
G75*
G02*
X220430253Y-55640325I31358J-298377D01*
G01*
X220835480Y-53341085D02*
G75*
G02*
X220862835Y-53181047I298009J31419D01*
G01*
X221041925Y-54884971D02*
G75*
G02*
X220430252Y-55640326I-397206J-303688D01*
G01*
X221041925Y-54884971D02*
G75*
G02*
X220981918Y-54734115I238331J182165D01*
G01*
%TO.C,DR31*%
X289765000Y-91075000D02*
X289765000Y-90374647D01*
X289765000Y-91075000D02*
X289765000Y-91775353D01*
X291465000Y-89575000D02*
X290564647Y-89575000D01*
X291465000Y-89575000D02*
X292365353Y-89575000D01*
X291465000Y-92575000D02*
X290564647Y-92575000D01*
X291465000Y-92575000D02*
X292365353Y-92575000D01*
X293165000Y-91075000D02*
X293165000Y-90374647D01*
X293165000Y-91075000D02*
X293165000Y-91775353D01*
X289721066Y-90218345D02*
G75*
G02*
X289765000Y-90374647I-256058J-156299D01*
G01*
X289721066Y-90218345D02*
G75*
G02*
X290408345Y-89531066I426776J260503D01*
G01*
X289765000Y-91775353D02*
G75*
G02*
X289721066Y-91931655I-299992J-3D01*
G01*
X290408345Y-92618934D02*
G75*
G02*
X289721066Y-91931655I-260503J426776D01*
G01*
X290408345Y-92618934D02*
G75*
G02*
X290564647Y-92575000I156299J-256058D01*
G01*
X290564647Y-89575000D02*
G75*
G02*
X290408345Y-89531066I-3J299992D01*
G01*
X292365353Y-92575000D02*
G75*
G02*
X292521656Y-92618933I-3J-300020D01*
G01*
X292521655Y-89531066D02*
G75*
G02*
X292365353Y-89574976I-156255J256066D01*
G01*
X292521655Y-89531066D02*
G75*
G02*
X293208934Y-90218345I260505J-426774D01*
G01*
X293165000Y-90374647D02*
G75*
G02*
X293208935Y-90218346I299680J87D01*
G01*
X293208934Y-91931655D02*
G75*
G02*
X292521655Y-92618934I-426774J-260505D01*
G01*
X293208934Y-91931655D02*
G75*
G02*
X293165024Y-91775353I256066J156255D01*
G01*
%TO.C,DR26*%
X195871430Y-76676439D02*
X195761870Y-75984708D01*
X195871430Y-76676439D02*
X195980989Y-77368169D01*
X197315848Y-74928967D02*
X196426580Y-75069814D01*
X197315848Y-74928967D02*
X198205116Y-74788121D01*
X197785152Y-77892033D02*
X196895884Y-78032879D01*
X197785152Y-77892033D02*
X198674420Y-77751186D01*
X199229570Y-76144561D02*
X199120011Y-75452831D01*
X199229570Y-76144561D02*
X199339130Y-76836292D01*
X195694026Y-75837203D02*
G75*
G02*
X195761870Y-75984708I-228477J-194442D01*
G01*
X195694026Y-75837203D02*
G75*
G02*
X196265330Y-75050872I380769J324059D01*
G01*
X195980989Y-77368169D02*
G75*
G02*
X195962047Y-77529420I-296298J-46932D01*
G01*
X196426580Y-75069814D02*
G75*
G02*
X196265330Y-75050872I-46932J296298D01*
G01*
X196748379Y-78100723D02*
G75*
G02*
X195962047Y-77529420I-324059J380769D01*
G01*
X196748379Y-78100723D02*
G75*
G02*
X196895884Y-78032879I194444J-228484D01*
G01*
X198352621Y-74720277D02*
G75*
G02*
X198205116Y-74788119I-194426J228453D01*
G01*
X198352621Y-74720277D02*
G75*
G02*
X199138953Y-75291580I324060J-380768D01*
G01*
X198674420Y-77751186D02*
G75*
G02*
X198835670Y-77770127I46930J-296327D01*
G01*
X199120011Y-75452831D02*
G75*
G02*
X199138953Y-75291580I295987J46968D01*
G01*
X199406974Y-76983797D02*
G75*
G02*
X198835670Y-77770129I-380768J-324060D01*
G01*
X199406974Y-76983797D02*
G75*
G02*
X199339154Y-76836288I228469J194389D01*
G01*
%TO.C,DR22*%
X270715000Y-71075000D02*
X270715000Y-70374647D01*
X270715000Y-71075000D02*
X270715000Y-71775353D01*
X272415000Y-69575000D02*
X271514647Y-69575000D01*
X272415000Y-69575000D02*
X273315353Y-69575000D01*
X272415000Y-72575000D02*
X271514647Y-72575000D01*
X272415000Y-72575000D02*
X273315353Y-72575000D01*
X274115000Y-71075000D02*
X274115000Y-70374647D01*
X274115000Y-71075000D02*
X274115000Y-71775353D01*
X270671066Y-70218345D02*
G75*
G02*
X270715000Y-70374647I-256058J-156299D01*
G01*
X270671066Y-70218345D02*
G75*
G02*
X271358345Y-69531066I426776J260503D01*
G01*
X270715000Y-71775353D02*
G75*
G02*
X270671066Y-71931655I-299992J-3D01*
G01*
X271358345Y-72618934D02*
G75*
G02*
X270671066Y-71931655I-260503J426776D01*
G01*
X271358345Y-72618934D02*
G75*
G02*
X271514647Y-72575000I156299J-256058D01*
G01*
X271514647Y-69575000D02*
G75*
G02*
X271358345Y-69531066I-3J299992D01*
G01*
X273315353Y-72575000D02*
G75*
G02*
X273471656Y-72618933I-3J-300020D01*
G01*
X273471655Y-69531066D02*
G75*
G02*
X273315353Y-69574976I-156255J256066D01*
G01*
X273471655Y-69531066D02*
G75*
G02*
X274158934Y-70218345I260505J-426774D01*
G01*
X274115000Y-70374647D02*
G75*
G02*
X274158935Y-70218346I299680J87D01*
G01*
X274158934Y-71931655D02*
G75*
G02*
X273471655Y-72618934I-426774J-260505D01*
G01*
X274158934Y-71931655D02*
G75*
G02*
X274115024Y-71775353I256066J156255D01*
G01*
%TO.C,DR23*%
X251665000Y-72025000D02*
X251665000Y-71324647D01*
X251665000Y-72025000D02*
X251665000Y-72725353D01*
X253365000Y-70525000D02*
X252464647Y-70525000D01*
X253365000Y-70525000D02*
X254265353Y-70525000D01*
X253365000Y-73525000D02*
X252464647Y-73525000D01*
X253365000Y-73525000D02*
X254265353Y-73525000D01*
X255065000Y-72025000D02*
X255065000Y-71324647D01*
X255065000Y-72025000D02*
X255065000Y-72725353D01*
X251621066Y-71168345D02*
G75*
G02*
X251665000Y-71324647I-256058J-156299D01*
G01*
X251621066Y-71168345D02*
G75*
G02*
X252308345Y-70481066I426776J260503D01*
G01*
X251665000Y-72725353D02*
G75*
G02*
X251621066Y-72881655I-299992J-3D01*
G01*
X252308345Y-73568934D02*
G75*
G02*
X251621066Y-72881655I-260503J426776D01*
G01*
X252308345Y-73568934D02*
G75*
G02*
X252464647Y-73525000I156299J-256058D01*
G01*
X252464647Y-70525000D02*
G75*
G02*
X252308345Y-70481066I-3J299992D01*
G01*
X254265353Y-73525000D02*
G75*
G02*
X254421656Y-73568933I-3J-300020D01*
G01*
X254421655Y-70481066D02*
G75*
G02*
X254265353Y-70524976I-156255J256066D01*
G01*
X254421655Y-70481066D02*
G75*
G02*
X255108934Y-71168345I260505J-426774D01*
G01*
X255065000Y-71324647D02*
G75*
G02*
X255108935Y-71168346I299680J87D01*
G01*
X255108934Y-72881655D02*
G75*
G02*
X254421655Y-73568934I-426774J-260505D01*
G01*
X255108934Y-72881655D02*
G75*
G02*
X255065024Y-72725353I256066J156255D01*
G01*
%TO.C,DR20*%
X180506630Y-59625039D02*
X180397070Y-58933308D01*
X180506630Y-59625039D02*
X180616189Y-60316769D01*
X181951048Y-57877567D02*
X181061780Y-58018414D01*
X181951048Y-57877567D02*
X182840316Y-57736721D01*
X182420352Y-60840633D02*
X181531084Y-60981479D01*
X182420352Y-60840633D02*
X183309620Y-60699786D01*
X183864770Y-59093161D02*
X183755211Y-58401431D01*
X183864770Y-59093161D02*
X183974330Y-59784892D01*
X180329226Y-58785803D02*
G75*
G02*
X180397070Y-58933308I-228477J-194442D01*
G01*
X180329226Y-58785803D02*
G75*
G02*
X180900530Y-57999472I380769J324059D01*
G01*
X180616189Y-60316769D02*
G75*
G02*
X180597247Y-60478020I-296298J-46932D01*
G01*
X181061780Y-58018414D02*
G75*
G02*
X180900530Y-57999472I-46932J296298D01*
G01*
X181383579Y-61049323D02*
G75*
G02*
X180597247Y-60478020I-324059J380769D01*
G01*
X181383579Y-61049323D02*
G75*
G02*
X181531084Y-60981479I194444J-228484D01*
G01*
X182987821Y-57668877D02*
G75*
G02*
X182840316Y-57736719I-194426J228453D01*
G01*
X182987821Y-57668877D02*
G75*
G02*
X183774153Y-58240180I324060J-380768D01*
G01*
X183309620Y-60699786D02*
G75*
G02*
X183470870Y-60718727I46930J-296327D01*
G01*
X183755211Y-58401431D02*
G75*
G02*
X183774153Y-58240180I295987J46968D01*
G01*
X184042174Y-59932397D02*
G75*
G02*
X183470870Y-60718729I-380768J-324060D01*
G01*
X184042174Y-59932397D02*
G75*
G02*
X183974354Y-59784888I228469J194389D01*
G01*
%TO.C,DR34*%
X292146000Y-71075000D02*
X292146000Y-70374647D01*
X292146000Y-71075000D02*
X292146000Y-71775353D01*
X293846000Y-69575000D02*
X292945647Y-69575000D01*
X293846000Y-69575000D02*
X294746353Y-69575000D01*
X293846000Y-72575000D02*
X292945647Y-72575000D01*
X293846000Y-72575000D02*
X294746353Y-72575000D01*
X295546000Y-71075000D02*
X295546000Y-70374647D01*
X295546000Y-71075000D02*
X295546000Y-71775353D01*
X292102066Y-70218345D02*
G75*
G02*
X292146000Y-70374647I-256058J-156299D01*
G01*
X292102066Y-70218345D02*
G75*
G02*
X292789345Y-69531066I426776J260503D01*
G01*
X292146000Y-71775353D02*
G75*
G02*
X292102066Y-71931655I-299992J-3D01*
G01*
X292789345Y-72618934D02*
G75*
G02*
X292102066Y-71931655I-260503J426776D01*
G01*
X292789345Y-72618934D02*
G75*
G02*
X292945647Y-72575000I156299J-256058D01*
G01*
X292945647Y-69575000D02*
G75*
G02*
X292789345Y-69531066I-3J299992D01*
G01*
X294746353Y-72575000D02*
G75*
G02*
X294902656Y-72618933I-3J-300020D01*
G01*
X294902655Y-69531066D02*
G75*
G02*
X294746353Y-69574976I-156255J256066D01*
G01*
X294902655Y-69531066D02*
G75*
G02*
X295589934Y-70218345I260505J-426774D01*
G01*
X295546000Y-70374647D02*
G75*
G02*
X295589935Y-70218346I299680J87D01*
G01*
X295589934Y-71931655D02*
G75*
G02*
X294902655Y-72618934I-426774J-260505D01*
G01*
X295589934Y-71931655D02*
G75*
G02*
X295546024Y-71775353I256066J156255D01*
G01*
%TO.C,DR17*%
X256427000Y-52975000D02*
X256427000Y-52274647D01*
X256427000Y-52975000D02*
X256427000Y-53675353D01*
X258127000Y-51475000D02*
X257226647Y-51475000D01*
X258127000Y-51475000D02*
X259027353Y-51475000D01*
X258127000Y-54475000D02*
X257226647Y-54475000D01*
X258127000Y-54475000D02*
X259027353Y-54475000D01*
X259827000Y-52975000D02*
X259827000Y-52274647D01*
X259827000Y-52975000D02*
X259827000Y-53675353D01*
X256383066Y-52118345D02*
G75*
G02*
X256427000Y-52274647I-256058J-156299D01*
G01*
X256383066Y-52118345D02*
G75*
G02*
X257070345Y-51431066I426776J260503D01*
G01*
X256427000Y-53675353D02*
G75*
G02*
X256383066Y-53831655I-299992J-3D01*
G01*
X257070345Y-54518934D02*
G75*
G02*
X256383066Y-53831655I-260503J426776D01*
G01*
X257070345Y-54518934D02*
G75*
G02*
X257226647Y-54475000I156299J-256058D01*
G01*
X257226647Y-51475000D02*
G75*
G02*
X257070345Y-51431066I-3J299992D01*
G01*
X259027353Y-54475000D02*
G75*
G02*
X259183656Y-54518933I-3J-300020D01*
G01*
X259183655Y-51431066D02*
G75*
G02*
X259027353Y-51474976I-156255J256066D01*
G01*
X259183655Y-51431066D02*
G75*
G02*
X259870934Y-52118345I260505J-426774D01*
G01*
X259827000Y-52274647D02*
G75*
G02*
X259870935Y-52118346I299680J87D01*
G01*
X259870934Y-53831655D02*
G75*
G02*
X259183655Y-54518934I-426774J-260505D01*
G01*
X259870934Y-53831655D02*
G75*
G02*
X259827024Y-53675353I256066J156255D01*
G01*
%TO.C,DR24*%
X233052130Y-72581671D02*
X233015476Y-71882278D01*
X233052130Y-72581671D02*
X233088783Y-73281064D01*
X234671296Y-70994756D02*
X233772177Y-71041877D01*
X234671296Y-70994756D02*
X235570415Y-70947635D01*
X234828304Y-73990644D02*
X233929185Y-74037765D01*
X234828304Y-73990644D02*
X235727423Y-73943523D01*
X236447470Y-72403729D02*
X236410817Y-71704336D01*
X236447470Y-72403729D02*
X236484124Y-73103122D01*
X232963422Y-71728489D02*
G75*
G02*
X233015476Y-71882278I-247527J-169486D01*
G01*
X232963422Y-71728489D02*
G75*
G02*
X233613790Y-71006183I412558J282481D01*
G01*
X233088783Y-73281064D02*
G75*
G02*
X233053090Y-73439451I-299587J-15702D01*
G01*
X233772177Y-71041877D02*
G75*
G02*
X233613790Y-71006184I-15726J299480D01*
G01*
X233775396Y-74089819D02*
G75*
G02*
X233053091Y-73439452I-282480J412558D01*
G01*
X233775396Y-74089819D02*
G75*
G02*
X233929185Y-74037765I169486J-247527D01*
G01*
X235724204Y-70895581D02*
G75*
G02*
X235570414Y-70947611I-169443J247537D01*
G01*
X235724204Y-70895581D02*
G75*
G02*
X236446509Y-71545949I282483J-412555D01*
G01*
X235727423Y-73943523D02*
G75*
G02*
X235885809Y-73979218I15698J-299589D01*
G01*
X236410817Y-71704336D02*
G75*
G02*
X236446510Y-71545949I299274J15772D01*
G01*
X236536178Y-73256911D02*
G75*
G02*
X235885810Y-73979216I-412555J-282483D01*
G01*
X236536178Y-73256911D02*
G75*
G02*
X236484148Y-73103121I247537J169443D01*
G01*
%TO.C,DR8*%
X284050000Y-33925000D02*
X284050000Y-33224647D01*
X284050000Y-33925000D02*
X284050000Y-34625353D01*
X285750000Y-32425000D02*
X284849647Y-32425000D01*
X285750000Y-32425000D02*
X286650353Y-32425000D01*
X285750000Y-35425000D02*
X284849647Y-35425000D01*
X285750000Y-35425000D02*
X286650353Y-35425000D01*
X287450000Y-33925000D02*
X287450000Y-33224647D01*
X287450000Y-33925000D02*
X287450000Y-34625353D01*
X284006066Y-33068345D02*
G75*
G02*
X284050000Y-33224647I-256058J-156299D01*
G01*
X284006066Y-33068345D02*
G75*
G02*
X284693345Y-32381066I426776J260503D01*
G01*
X284050000Y-34625353D02*
G75*
G02*
X284006066Y-34781655I-299992J-3D01*
G01*
X284693345Y-35468934D02*
G75*
G02*
X284006066Y-34781655I-260503J426776D01*
G01*
X284693345Y-35468934D02*
G75*
G02*
X284849647Y-35425000I156299J-256058D01*
G01*
X284849647Y-32425000D02*
G75*
G02*
X284693345Y-32381066I-3J299992D01*
G01*
X286650353Y-35425000D02*
G75*
G02*
X286806656Y-35468933I-3J-300020D01*
G01*
X286806655Y-32381066D02*
G75*
G02*
X286650353Y-32424976I-156255J256066D01*
G01*
X286806655Y-32381066D02*
G75*
G02*
X287493934Y-33068345I260505J-426774D01*
G01*
X287450000Y-33224647D02*
G75*
G02*
X287493935Y-33068346I299680J87D01*
G01*
X287493934Y-34781655D02*
G75*
G02*
X286806655Y-35468934I-426774J-260505D01*
G01*
X287493934Y-34781655D02*
G75*
G02*
X287450024Y-34625353I256066J156255D01*
G01*
%TO.C,DR3*%
X248808000Y-14875000D02*
X248808000Y-14174647D01*
X248808000Y-14875000D02*
X248808000Y-15575353D01*
X250508000Y-13375000D02*
X249607647Y-13375000D01*
X250508000Y-13375000D02*
X251408353Y-13375000D01*
X250508000Y-16375000D02*
X249607647Y-16375000D01*
X250508000Y-16375000D02*
X251408353Y-16375000D01*
X252208000Y-14875000D02*
X252208000Y-14174647D01*
X252208000Y-14875000D02*
X252208000Y-15575353D01*
X248764066Y-14018345D02*
G75*
G02*
X248808000Y-14174647I-256058J-156299D01*
G01*
X248764066Y-14018345D02*
G75*
G02*
X249451345Y-13331066I426776J260503D01*
G01*
X248808000Y-15575353D02*
G75*
G02*
X248764066Y-15731655I-299992J-3D01*
G01*
X249451345Y-16418934D02*
G75*
G02*
X248764066Y-15731655I-260503J426776D01*
G01*
X249451345Y-16418934D02*
G75*
G02*
X249607647Y-16375000I156299J-256058D01*
G01*
X249607647Y-13375000D02*
G75*
G02*
X249451345Y-13331066I-3J299992D01*
G01*
X251408353Y-16375000D02*
G75*
G02*
X251564656Y-16418933I-3J-300020D01*
G01*
X251564655Y-13331066D02*
G75*
G02*
X251408353Y-13374976I-156255J256066D01*
G01*
X251564655Y-13331066D02*
G75*
G02*
X252251934Y-14018345I260505J-426774D01*
G01*
X252208000Y-14174647D02*
G75*
G02*
X252251935Y-14018346I299680J87D01*
G01*
X252251934Y-15731655D02*
G75*
G02*
X251564655Y-16418934I-426774J-260505D01*
G01*
X252251934Y-15731655D02*
G75*
G02*
X252208024Y-15575353I256066J156255D01*
G01*
%TO.C,DR19*%
X199309830Y-56647839D02*
X199200270Y-55956108D01*
X199309830Y-56647839D02*
X199419389Y-57339569D01*
X200754248Y-54900367D02*
X199864980Y-55041214D01*
X200754248Y-54900367D02*
X201643516Y-54759521D01*
X201223552Y-57863433D02*
X200334284Y-58004279D01*
X201223552Y-57863433D02*
X202112820Y-57722586D01*
X202667970Y-56115961D02*
X202558411Y-55424231D01*
X202667970Y-56115961D02*
X202777530Y-56807692D01*
X199132426Y-55808603D02*
G75*
G02*
X199200270Y-55956108I-228477J-194442D01*
G01*
X199132426Y-55808603D02*
G75*
G02*
X199703730Y-55022272I380769J324059D01*
G01*
X199419389Y-57339569D02*
G75*
G02*
X199400447Y-57500820I-296298J-46932D01*
G01*
X199864980Y-55041214D02*
G75*
G02*
X199703730Y-55022272I-46932J296298D01*
G01*
X200186779Y-58072123D02*
G75*
G02*
X199400447Y-57500820I-324059J380769D01*
G01*
X200186779Y-58072123D02*
G75*
G02*
X200334284Y-58004279I194444J-228484D01*
G01*
X201791021Y-54691677D02*
G75*
G02*
X201643516Y-54759519I-194426J228453D01*
G01*
X201791021Y-54691677D02*
G75*
G02*
X202577353Y-55262980I324060J-380768D01*
G01*
X202112820Y-57722586D02*
G75*
G02*
X202274070Y-57741527I46930J-296327D01*
G01*
X202558411Y-55424231D02*
G75*
G02*
X202577353Y-55262980I295987J46968D01*
G01*
X202845374Y-56955197D02*
G75*
G02*
X202274070Y-57741529I-380768J-324060D01*
G01*
X202845374Y-56955197D02*
G75*
G02*
X202777554Y-56807688I228469J194389D01*
G01*
%TO.C,DR25*%
X214088113Y-74035998D02*
X214014906Y-73339482D01*
X214088113Y-74035998D02*
X214161320Y-74732515D01*
X215622007Y-72366517D02*
X214726587Y-72460630D01*
X215622007Y-72366517D02*
X216517428Y-72272405D01*
X215935593Y-75350083D02*
X215040172Y-75444195D01*
X215935593Y-75350083D02*
X216831013Y-75255970D01*
X217469487Y-73680602D02*
X217396280Y-72984085D01*
X217469487Y-73680602D02*
X217542694Y-74377118D01*
X213954875Y-73188629D02*
G75*
G02*
X214014906Y-73339482I-238341J-182217D01*
G01*
X213954875Y-73188629D02*
G75*
G02*
X214566548Y-72433274I397207J303687D01*
G01*
X214161320Y-74732515D02*
G75*
G02*
X214133965Y-74892553I-298349J-31360D01*
G01*
X214726587Y-72460630D02*
G75*
G02*
X214566548Y-72433274I-31355J298380D01*
G01*
X214889319Y-75504227D02*
G75*
G02*
X214133963Y-74892553I-303688J397207D01*
G01*
X214889319Y-75504227D02*
G75*
G02*
X215040172Y-75444196I182208J-238317D01*
G01*
X216668281Y-72212373D02*
G75*
G02*
X216517428Y-72272402I-182203J238316D01*
G01*
X216668281Y-72212373D02*
G75*
G02*
X217423635Y-72824047I303688J-397206D01*
G01*
X216831013Y-75255970D02*
G75*
G02*
X216991053Y-75283325I31358J-298377D01*
G01*
X217396280Y-72984085D02*
G75*
G02*
X217423635Y-72824047I298009J31419D01*
G01*
X217602725Y-74527971D02*
G75*
G02*
X216991052Y-75283326I-397206J-303688D01*
G01*
X217602725Y-74527971D02*
G75*
G02*
X217542718Y-74377115I238331J182165D01*
G01*
%TO.C,DR28*%
X216079813Y-92980998D02*
X216006606Y-92284482D01*
X216079813Y-92980998D02*
X216153020Y-93677515D01*
X217613707Y-91311517D02*
X216718287Y-91405630D01*
X217613707Y-91311517D02*
X218509128Y-91217405D01*
X217927293Y-94295083D02*
X217031872Y-94389195D01*
X217927293Y-94295083D02*
X218822713Y-94200970D01*
X219461187Y-92625602D02*
X219387980Y-91929085D01*
X219461187Y-92625602D02*
X219534394Y-93322118D01*
X215946575Y-92133629D02*
G75*
G02*
X216006606Y-92284482I-238348J-182220D01*
G01*
X215946575Y-92133629D02*
G75*
G02*
X216558248Y-91378274I397207J303687D01*
G01*
X216153020Y-93677515D02*
G75*
G02*
X216125665Y-93837553I-298349J-31360D01*
G01*
X216718287Y-91405630D02*
G75*
G02*
X216558248Y-91378274I-31355J298380D01*
G01*
X216881019Y-94449227D02*
G75*
G02*
X216125663Y-93837553I-303688J397207D01*
G01*
X216881019Y-94449227D02*
G75*
G02*
X217031872Y-94389196I182210J-238324D01*
G01*
X218659981Y-91157373D02*
G75*
G02*
X218509125Y-91217380I-182165J238330D01*
G01*
X218659981Y-91157373D02*
G75*
G02*
X219415335Y-91769047I303688J-397206D01*
G01*
X218822713Y-94200970D02*
G75*
G02*
X218982753Y-94228325I31358J-298377D01*
G01*
X219387980Y-91929085D02*
G75*
G02*
X219415335Y-91769047I298009J31419D01*
G01*
X219594425Y-93472971D02*
G75*
G02*
X218982752Y-94228325I-397203J-303690D01*
G01*
X219594425Y-93472971D02*
G75*
G02*
X219534418Y-93322115I238331J182165D01*
G01*
%TO.C,DR18*%
X282621000Y-52975000D02*
X282621000Y-52274647D01*
X282621000Y-52975000D02*
X282621000Y-53675353D01*
X284321000Y-51475000D02*
X283420647Y-51475000D01*
X284321000Y-51475000D02*
X285221353Y-51475000D01*
X284321000Y-54475000D02*
X283420647Y-54475000D01*
X284321000Y-54475000D02*
X285221353Y-54475000D01*
X286021000Y-52975000D02*
X286021000Y-52274647D01*
X286021000Y-52975000D02*
X286021000Y-53675353D01*
X282577066Y-52118345D02*
G75*
G02*
X282621000Y-52274647I-256058J-156299D01*
G01*
X282577066Y-52118345D02*
G75*
G02*
X283264345Y-51431066I426776J260503D01*
G01*
X282621000Y-53675353D02*
G75*
G02*
X282577066Y-53831655I-299992J-3D01*
G01*
X283264345Y-54518934D02*
G75*
G02*
X282577066Y-53831655I-260503J426776D01*
G01*
X283264345Y-54518934D02*
G75*
G02*
X283420647Y-54475000I156299J-256058D01*
G01*
X283420647Y-51475000D02*
G75*
G02*
X283264345Y-51431066I-3J299992D01*
G01*
X285221353Y-54475000D02*
G75*
G02*
X285377656Y-54518933I-3J-300020D01*
G01*
X285377655Y-51431066D02*
G75*
G02*
X285221353Y-51474976I-156255J256066D01*
G01*
X285377655Y-51431066D02*
G75*
G02*
X286064934Y-52118345I260505J-426774D01*
G01*
X286021000Y-52274647D02*
G75*
G02*
X286064935Y-52118346I299680J87D01*
G01*
X286064934Y-53831655D02*
G75*
G02*
X285377655Y-54518934I-426774J-260505D01*
G01*
X286064934Y-53831655D02*
G75*
G02*
X286021024Y-53675353I256066J156255D01*
G01*
%TO.C,DR6*%
X192467830Y-19459639D02*
X192358270Y-18767908D01*
X192467830Y-19459639D02*
X192577389Y-20151369D01*
X193912248Y-17712167D02*
X193022980Y-17853014D01*
X193912248Y-17712167D02*
X194801516Y-17571321D01*
X194381552Y-20675233D02*
X193492284Y-20816079D01*
X194381552Y-20675233D02*
X195270820Y-20534386D01*
X195825970Y-18927761D02*
X195716411Y-18236031D01*
X195825970Y-18927761D02*
X195935530Y-19619492D01*
X192290426Y-18620403D02*
G75*
G02*
X192358270Y-18767908I-228477J-194442D01*
G01*
X192290426Y-18620403D02*
G75*
G02*
X192861730Y-17834072I380769J324059D01*
G01*
X192577389Y-20151369D02*
G75*
G02*
X192558447Y-20312620I-296298J-46932D01*
G01*
X193022980Y-17853014D02*
G75*
G02*
X192861730Y-17834072I-46932J296298D01*
G01*
X193344779Y-20883923D02*
G75*
G02*
X192558447Y-20312620I-324059J380769D01*
G01*
X193344779Y-20883923D02*
G75*
G02*
X193492284Y-20816079I194444J-228484D01*
G01*
X194949021Y-17503477D02*
G75*
G02*
X194801516Y-17571319I-194426J228453D01*
G01*
X194949021Y-17503477D02*
G75*
G02*
X195735353Y-18074780I324060J-380768D01*
G01*
X195270820Y-20534386D02*
G75*
G02*
X195432070Y-20553327I46930J-296327D01*
G01*
X195716411Y-18236031D02*
G75*
G02*
X195735353Y-18074780I295987J46968D01*
G01*
X196003374Y-19766997D02*
G75*
G02*
X195432070Y-20553329I-380768J-324060D01*
G01*
X196003374Y-19766997D02*
G75*
G02*
X195935554Y-19619488I228469J194389D01*
G01*
%TO.C,DR2*%
X230006530Y-15199871D02*
X229969876Y-14500478D01*
X230006530Y-15199871D02*
X230043183Y-15899264D01*
X231625696Y-13612956D02*
X230726577Y-13660077D01*
X231625696Y-13612956D02*
X232524815Y-13565835D01*
X231782704Y-16608844D02*
X230883585Y-16655965D01*
X231782704Y-16608844D02*
X232681823Y-16561723D01*
X233401870Y-15021929D02*
X233365217Y-14322536D01*
X233401870Y-15021929D02*
X233438524Y-15721322D01*
X229917822Y-14346689D02*
G75*
G02*
X229969876Y-14500478I-247527J-169486D01*
G01*
X229917822Y-14346689D02*
G75*
G02*
X230568190Y-13624383I412558J282481D01*
G01*
X230043183Y-15899264D02*
G75*
G02*
X230007490Y-16057651I-299587J-15702D01*
G01*
X230726577Y-13660077D02*
G75*
G02*
X230568190Y-13624384I-15726J299480D01*
G01*
X230729796Y-16708019D02*
G75*
G02*
X230007491Y-16057652I-282480J412558D01*
G01*
X230729796Y-16708019D02*
G75*
G02*
X230883585Y-16655965I169486J-247527D01*
G01*
X232678604Y-13513781D02*
G75*
G02*
X232524814Y-13565811I-169443J247537D01*
G01*
X232678604Y-13513781D02*
G75*
G02*
X233400909Y-14164149I282483J-412555D01*
G01*
X232681823Y-16561723D02*
G75*
G02*
X232840209Y-16597418I15698J-299589D01*
G01*
X233365217Y-14322536D02*
G75*
G02*
X233400910Y-14164149I299274J15772D01*
G01*
X233490578Y-15875111D02*
G75*
G02*
X232840210Y-16597416I-412555J-282483D01*
G01*
X233490578Y-15875111D02*
G75*
G02*
X233438548Y-15721321I247537J169443D01*
G01*
%TO.C,DR9*%
X260238000Y-33925000D02*
X260238000Y-33224647D01*
X260238000Y-33925000D02*
X260238000Y-34625353D01*
X261938000Y-32425000D02*
X261037647Y-32425000D01*
X261938000Y-32425000D02*
X262838353Y-32425000D01*
X261938000Y-35425000D02*
X261037647Y-35425000D01*
X261938000Y-35425000D02*
X262838353Y-35425000D01*
X263638000Y-33925000D02*
X263638000Y-33224647D01*
X263638000Y-33925000D02*
X263638000Y-34625353D01*
X260194066Y-33068345D02*
G75*
G02*
X260238000Y-33224647I-256058J-156299D01*
G01*
X260194066Y-33068345D02*
G75*
G02*
X260881345Y-32381066I426776J260503D01*
G01*
X260238000Y-34625353D02*
G75*
G02*
X260194066Y-34781655I-299992J-3D01*
G01*
X260881345Y-35468934D02*
G75*
G02*
X260194066Y-34781655I-260503J426776D01*
G01*
X260881345Y-35468934D02*
G75*
G02*
X261037647Y-35425000I156299J-256058D01*
G01*
X261037647Y-32425000D02*
G75*
G02*
X260881345Y-32381066I-3J299992D01*
G01*
X262838353Y-35425000D02*
G75*
G02*
X262994656Y-35468933I-3J-300020D01*
G01*
X262994655Y-32381066D02*
G75*
G02*
X262838353Y-32424976I-156255J256066D01*
G01*
X262994655Y-32381066D02*
G75*
G02*
X263681934Y-33068345I260505J-426774D01*
G01*
X263638000Y-33224647D02*
G75*
G02*
X263681935Y-33068346I299680J87D01*
G01*
X263681934Y-34781655D02*
G75*
G02*
X262994655Y-35468934I-426774J-260505D01*
G01*
X263681934Y-34781655D02*
G75*
G02*
X263638024Y-34625353I256066J156255D01*
G01*
%TO.C,DR11*%
X222489113Y-34830198D02*
X222415906Y-34133682D01*
X222489113Y-34830198D02*
X222562320Y-35526715D01*
X224023007Y-33160717D02*
X223127587Y-33254830D01*
X224023007Y-33160717D02*
X224918428Y-33066605D01*
X224336593Y-36144283D02*
X223441172Y-36238395D01*
X224336593Y-36144283D02*
X225232013Y-36050170D01*
X225870487Y-34474802D02*
X225797280Y-33778285D01*
X225870487Y-34474802D02*
X225943694Y-35171318D01*
X222355875Y-33982829D02*
G75*
G02*
X222415906Y-34133682I-238341J-182217D01*
G01*
X222355875Y-33982829D02*
G75*
G02*
X222967548Y-33227474I397207J303687D01*
G01*
X222562320Y-35526715D02*
G75*
G02*
X222534965Y-35686753I-298349J-31360D01*
G01*
X223127587Y-33254830D02*
G75*
G02*
X222967548Y-33227474I-31355J298380D01*
G01*
X223290319Y-36298427D02*
G75*
G02*
X222534963Y-35686753I-303688J397207D01*
G01*
X223290319Y-36298427D02*
G75*
G02*
X223441172Y-36238396I182208J-238317D01*
G01*
X225069281Y-33006573D02*
G75*
G02*
X224918428Y-33066602I-182203J238316D01*
G01*
X225069281Y-33006573D02*
G75*
G02*
X225824635Y-33618247I303688J-397206D01*
G01*
X225232013Y-36050170D02*
G75*
G02*
X225392053Y-36077525I31358J-298377D01*
G01*
X225797280Y-33778285D02*
G75*
G02*
X225824635Y-33618247I298009J31419D01*
G01*
X226003725Y-35322171D02*
G75*
G02*
X225392052Y-36077526I-397206J-303688D01*
G01*
X226003725Y-35322171D02*
G75*
G02*
X225943718Y-35171315I238331J182165D01*
G01*
%TO.C,DR27*%
X177033030Y-79661039D02*
X176923470Y-78969308D01*
X177033030Y-79661039D02*
X177142589Y-80352769D01*
X178477448Y-77913567D02*
X177588180Y-78054414D01*
X178477448Y-77913567D02*
X179366716Y-77772721D01*
X178946752Y-80876633D02*
X178057484Y-81017479D01*
X178946752Y-80876633D02*
X179836020Y-80735786D01*
X180391170Y-79129161D02*
X180281611Y-78437431D01*
X180391170Y-79129161D02*
X180500730Y-79820892D01*
X176855626Y-78821803D02*
G75*
G02*
X176923470Y-78969308I-228477J-194442D01*
G01*
X176855626Y-78821803D02*
G75*
G02*
X177426930Y-78035472I380769J324059D01*
G01*
X177142589Y-80352769D02*
G75*
G02*
X177123647Y-80514020I-296298J-46932D01*
G01*
X177588180Y-78054414D02*
G75*
G02*
X177426930Y-78035472I-46932J296298D01*
G01*
X177909979Y-81085323D02*
G75*
G02*
X177123647Y-80514020I-324059J380769D01*
G01*
X177909979Y-81085323D02*
G75*
G02*
X178057484Y-81017479I194444J-228484D01*
G01*
X179514221Y-77704877D02*
G75*
G02*
X179366716Y-77772719I-194426J228453D01*
G01*
X179514221Y-77704877D02*
G75*
G02*
X180300553Y-78276180I324060J-380768D01*
G01*
X179836020Y-80735786D02*
G75*
G02*
X179997270Y-80754727I46930J-296327D01*
G01*
X180281611Y-78437431D02*
G75*
G02*
X180300553Y-78276180I295987J46968D01*
G01*
X180568574Y-79968397D02*
G75*
G02*
X179997270Y-80754729I-380768J-324060D01*
G01*
X180568574Y-79968397D02*
G75*
G02*
X180500754Y-79820888I228469J194389D01*
G01*
%TO.C,DR1*%
X210897113Y-16975998D02*
X210823906Y-16279482D01*
X210897113Y-16975998D02*
X210970320Y-17672515D01*
X212431007Y-15306517D02*
X211535587Y-15400630D01*
X212431007Y-15306517D02*
X213326428Y-15212405D01*
X212744593Y-18290083D02*
X211849172Y-18384195D01*
X212744593Y-18290083D02*
X213640013Y-18195970D01*
X214278487Y-16620602D02*
X214205280Y-15924085D01*
X214278487Y-16620602D02*
X214351694Y-17317118D01*
X210763875Y-16128629D02*
G75*
G02*
X210823906Y-16279482I-238341J-182217D01*
G01*
X210763875Y-16128629D02*
G75*
G02*
X211375548Y-15373274I397207J303687D01*
G01*
X210970320Y-17672515D02*
G75*
G02*
X210942965Y-17832553I-298349J-31360D01*
G01*
X211535587Y-15400630D02*
G75*
G02*
X211375548Y-15373274I-31355J298380D01*
G01*
X211698319Y-18444227D02*
G75*
G02*
X210942963Y-17832553I-303688J397207D01*
G01*
X211698319Y-18444227D02*
G75*
G02*
X211849172Y-18384196I182208J-238317D01*
G01*
X213477281Y-15152373D02*
G75*
G02*
X213326428Y-15212402I-182203J238316D01*
G01*
X213477281Y-15152373D02*
G75*
G02*
X214232635Y-15764047I303688J-397206D01*
G01*
X213640013Y-18195970D02*
G75*
G02*
X213800053Y-18223325I31358J-298377D01*
G01*
X214205280Y-15924085D02*
G75*
G02*
X214232635Y-15764047I298009J31419D01*
G01*
X214411725Y-17467971D02*
G75*
G02*
X213800052Y-18223326I-397206J-303688D01*
G01*
X214411725Y-17467971D02*
G75*
G02*
X214351718Y-17317115I238331J182165D01*
G01*
%TO.C,DR14*%
X166307630Y-42750639D02*
X166198070Y-42058908D01*
X166307630Y-42750639D02*
X166417189Y-43442369D01*
X167752048Y-41003167D02*
X166862780Y-41144014D01*
X167752048Y-41003167D02*
X168641316Y-40862321D01*
X168221352Y-43966233D02*
X167332084Y-44107079D01*
X168221352Y-43966233D02*
X169110620Y-43825386D01*
X169665770Y-42218761D02*
X169556211Y-41527031D01*
X169665770Y-42218761D02*
X169775330Y-42910492D01*
X166130226Y-41911403D02*
G75*
G02*
X166198070Y-42058908I-228477J-194442D01*
G01*
X166130226Y-41911403D02*
G75*
G02*
X166701530Y-41125072I380769J324059D01*
G01*
X166417189Y-43442369D02*
G75*
G02*
X166398247Y-43603620I-296298J-46932D01*
G01*
X166862780Y-41144014D02*
G75*
G02*
X166701530Y-41125072I-46932J296298D01*
G01*
X167184579Y-44174923D02*
G75*
G02*
X166398247Y-43603620I-324059J380769D01*
G01*
X167184579Y-44174923D02*
G75*
G02*
X167332084Y-44107079I194444J-228484D01*
G01*
X168788821Y-40794477D02*
G75*
G02*
X168641316Y-40862319I-194426J228453D01*
G01*
X168788821Y-40794477D02*
G75*
G02*
X169575153Y-41365780I324060J-380768D01*
G01*
X169110620Y-43825386D02*
G75*
G02*
X169271870Y-43844327I46930J-296327D01*
G01*
X169556211Y-41527031D02*
G75*
G02*
X169575153Y-41365780I295987J46968D01*
G01*
X169843174Y-43057997D02*
G75*
G02*
X169271870Y-43844329I-380768J-324060D01*
G01*
X169843174Y-43057997D02*
G75*
G02*
X169775354Y-42910488I228469J194389D01*
G01*
%TO.C,DR12*%
X203545913Y-36814598D02*
X203472706Y-36118082D01*
X203545913Y-36814598D02*
X203619120Y-37511115D01*
X205079807Y-35145117D02*
X204184387Y-35239230D01*
X205079807Y-35145117D02*
X205975228Y-35051005D01*
X205393393Y-38128683D02*
X204497972Y-38222795D01*
X205393393Y-38128683D02*
X206288813Y-38034570D01*
X206927287Y-36459202D02*
X206854080Y-35762685D01*
X206927287Y-36459202D02*
X207000494Y-37155718D01*
X203412675Y-35967229D02*
G75*
G02*
X203472706Y-36118082I-238341J-182217D01*
G01*
X203412675Y-35967229D02*
G75*
G02*
X204024348Y-35211874I397207J303687D01*
G01*
X203619120Y-37511115D02*
G75*
G02*
X203591765Y-37671153I-298349J-31360D01*
G01*
X204184387Y-35239230D02*
G75*
G02*
X204024348Y-35211874I-31355J298380D01*
G01*
X204347119Y-38282827D02*
G75*
G02*
X203591763Y-37671153I-303688J397207D01*
G01*
X204347119Y-38282827D02*
G75*
G02*
X204497972Y-38222796I182208J-238317D01*
G01*
X206126081Y-34990973D02*
G75*
G02*
X205975228Y-35051002I-182203J238316D01*
G01*
X206126081Y-34990973D02*
G75*
G02*
X206881435Y-35602647I303688J-397206D01*
G01*
X206288813Y-38034570D02*
G75*
G02*
X206448853Y-38061925I31358J-298377D01*
G01*
X206854080Y-35762685D02*
G75*
G02*
X206881435Y-35602647I298009J31419D01*
G01*
X207060525Y-37306571D02*
G75*
G02*
X206448852Y-38061926I-397206J-303688D01*
G01*
X207060525Y-37306571D02*
G75*
G02*
X207000518Y-37155715I238331J182165D01*
G01*
%TO.C,DR33*%
X277383000Y-14875000D02*
X277383000Y-14174647D01*
X277383000Y-14875000D02*
X277383000Y-15575353D01*
X279083000Y-13375000D02*
X278182647Y-13375000D01*
X279083000Y-13375000D02*
X279983353Y-13375000D01*
X279083000Y-16375000D02*
X278182647Y-16375000D01*
X279083000Y-16375000D02*
X279983353Y-16375000D01*
X280783000Y-14875000D02*
X280783000Y-14174647D01*
X280783000Y-14875000D02*
X280783000Y-15575353D01*
X277339066Y-14018345D02*
G75*
G02*
X277383000Y-14174647I-256058J-156299D01*
G01*
X277339066Y-14018345D02*
G75*
G02*
X278026345Y-13331066I426776J260503D01*
G01*
X277383000Y-15575353D02*
G75*
G02*
X277339066Y-15731655I-299992J-3D01*
G01*
X278026345Y-16418934D02*
G75*
G02*
X277339066Y-15731655I-260503J426776D01*
G01*
X278026345Y-16418934D02*
G75*
G02*
X278182647Y-16375000I156299J-256058D01*
G01*
X278182647Y-13375000D02*
G75*
G02*
X278026345Y-13331066I-3J299992D01*
G01*
X279983353Y-16375000D02*
G75*
G02*
X280139656Y-16418933I-3J-300020D01*
G01*
X280139655Y-13331066D02*
G75*
G02*
X279983353Y-13374976I-156255J256066D01*
G01*
X280139655Y-13331066D02*
G75*
G02*
X280826934Y-14018345I260505J-426774D01*
G01*
X280783000Y-14174647D02*
G75*
G02*
X280826935Y-14018346I299680J87D01*
G01*
X280826934Y-15731655D02*
G75*
G02*
X280139655Y-16418934I-426774J-260505D01*
G01*
X280826934Y-15731655D02*
G75*
G02*
X280783024Y-15575353I256066J156255D01*
G01*
%TO.C,DR36*%
X270715000Y-91075000D02*
X270715000Y-90374647D01*
X270715000Y-91075000D02*
X270715000Y-91775353D01*
X272415000Y-89575000D02*
X271514647Y-89575000D01*
X272415000Y-89575000D02*
X273315353Y-89575000D01*
X272415000Y-92575000D02*
X271514647Y-92575000D01*
X272415000Y-92575000D02*
X273315353Y-92575000D01*
X274115000Y-91075000D02*
X274115000Y-90374647D01*
X274115000Y-91075000D02*
X274115000Y-91775353D01*
X270671066Y-90218345D02*
G75*
G02*
X270715000Y-90374647I-256058J-156299D01*
G01*
X270671066Y-90218345D02*
G75*
G02*
X271358345Y-89531066I426776J260503D01*
G01*
X270715000Y-91775353D02*
G75*
G02*
X270671066Y-91931655I-299992J-3D01*
G01*
X271358345Y-92618934D02*
G75*
G02*
X270671066Y-91931655I-260503J426776D01*
G01*
X271358345Y-92618934D02*
G75*
G02*
X271514647Y-92575000I156299J-256058D01*
G01*
X271514647Y-89575000D02*
G75*
G02*
X271358345Y-89531066I-3J299992D01*
G01*
X273315353Y-92575000D02*
G75*
G02*
X273471656Y-92618933I-3J-300020D01*
G01*
X273471655Y-89531066D02*
G75*
G02*
X273315353Y-89574976I-156255J256066D01*
G01*
X273471655Y-89531066D02*
G75*
G02*
X274158934Y-90218345I260505J-426774D01*
G01*
X274115000Y-90374647D02*
G75*
G02*
X274158935Y-90218346I299680J87D01*
G01*
X274158934Y-91931655D02*
G75*
G02*
X273471655Y-92618934I-426774J-260505D01*
G01*
X274158934Y-91931655D02*
G75*
G02*
X274115024Y-91775353I256066J156255D01*
G01*
%TO.C,DR7*%
X173664030Y-22451239D02*
X173554470Y-21759508D01*
X173664030Y-22451239D02*
X173773589Y-23142969D01*
X175108448Y-20703767D02*
X174219180Y-20844614D01*
X175108448Y-20703767D02*
X175997716Y-20562921D01*
X175577752Y-23666833D02*
X174688484Y-23807679D01*
X175577752Y-23666833D02*
X176467020Y-23525986D01*
X177022170Y-21919361D02*
X176912611Y-21227631D01*
X177022170Y-21919361D02*
X177131730Y-22611092D01*
X173486626Y-21612003D02*
G75*
G02*
X173554470Y-21759508I-228477J-194442D01*
G01*
X173486626Y-21612003D02*
G75*
G02*
X174057930Y-20825672I380769J324059D01*
G01*
X173773589Y-23142969D02*
G75*
G02*
X173754647Y-23304220I-296298J-46932D01*
G01*
X174219180Y-20844614D02*
G75*
G02*
X174057930Y-20825672I-46932J296298D01*
G01*
X174540979Y-23875523D02*
G75*
G02*
X173754647Y-23304220I-324059J380769D01*
G01*
X174540979Y-23875523D02*
G75*
G02*
X174688484Y-23807679I194444J-228484D01*
G01*
X176145221Y-20495077D02*
G75*
G02*
X175997716Y-20562919I-194426J228453D01*
G01*
X176145221Y-20495077D02*
G75*
G02*
X176931553Y-21066380I324060J-380768D01*
G01*
X176467020Y-23525986D02*
G75*
G02*
X176628270Y-23544927I46930J-296327D01*
G01*
X176912611Y-21227631D02*
G75*
G02*
X176931553Y-21066380I295987J46968D01*
G01*
X177199574Y-22758597D02*
G75*
G02*
X176628270Y-23544929I-380768J-324060D01*
G01*
X177199574Y-22758597D02*
G75*
G02*
X177131754Y-22611088I228469J194389D01*
G01*
%TO.C,DR13*%
X185116830Y-39762839D02*
X185007270Y-39071108D01*
X185116830Y-39762839D02*
X185226389Y-40454569D01*
X186561248Y-38015367D02*
X185671980Y-38156214D01*
X186561248Y-38015367D02*
X187450516Y-37874521D01*
X187030552Y-40978433D02*
X186141284Y-41119279D01*
X187030552Y-40978433D02*
X187919820Y-40837586D01*
X188474970Y-39230961D02*
X188365411Y-38539231D01*
X188474970Y-39230961D02*
X188584530Y-39922692D01*
X184939426Y-38923603D02*
G75*
G02*
X185007270Y-39071108I-228477J-194442D01*
G01*
X184939426Y-38923603D02*
G75*
G02*
X185510730Y-38137272I380769J324059D01*
G01*
X185226389Y-40454569D02*
G75*
G02*
X185207447Y-40615820I-296298J-46932D01*
G01*
X185671980Y-38156214D02*
G75*
G02*
X185510730Y-38137272I-46932J296298D01*
G01*
X185993779Y-41187123D02*
G75*
G02*
X185207447Y-40615820I-324059J380769D01*
G01*
X185993779Y-41187123D02*
G75*
G02*
X186141284Y-41119279I194444J-228484D01*
G01*
X187598021Y-37806677D02*
G75*
G02*
X187450516Y-37874519I-194426J228453D01*
G01*
X187598021Y-37806677D02*
G75*
G02*
X188384353Y-38377980I324060J-380768D01*
G01*
X187919820Y-40837586D02*
G75*
G02*
X188081070Y-40856527I46930J-296327D01*
G01*
X188365411Y-38539231D02*
G75*
G02*
X188384353Y-38377980I295987J46968D01*
G01*
X188652374Y-40070197D02*
G75*
G02*
X188081070Y-40856529I-380768J-324060D01*
G01*
X188652374Y-40070197D02*
G75*
G02*
X188584554Y-39922688I228469J194389D01*
G01*
%TO.C,DR10*%
X241188000Y-33925000D02*
X241188000Y-33224647D01*
X241188000Y-33925000D02*
X241188000Y-34625353D01*
X242888000Y-32425000D02*
X241987647Y-32425000D01*
X242888000Y-32425000D02*
X243788353Y-32425000D01*
X242888000Y-35425000D02*
X241987647Y-35425000D01*
X242888000Y-35425000D02*
X243788353Y-35425000D01*
X244588000Y-33925000D02*
X244588000Y-33224647D01*
X244588000Y-33925000D02*
X244588000Y-34625353D01*
X241144066Y-33068345D02*
G75*
G02*
X241188000Y-33224647I-256058J-156299D01*
G01*
X241144066Y-33068345D02*
G75*
G02*
X241831345Y-32381066I426776J260503D01*
G01*
X241188000Y-34625353D02*
G75*
G02*
X241144066Y-34781655I-299992J-3D01*
G01*
X241831345Y-35468934D02*
G75*
G02*
X241144066Y-34781655I-260503J426776D01*
G01*
X241831345Y-35468934D02*
G75*
G02*
X241987647Y-35425000I156299J-256058D01*
G01*
X241987647Y-32425000D02*
G75*
G02*
X241831345Y-32381066I-3J299992D01*
G01*
X243788353Y-35425000D02*
G75*
G02*
X243944656Y-35468933I-3J-300020D01*
G01*
X243944655Y-32381066D02*
G75*
G02*
X243788353Y-32424976I-156255J256066D01*
G01*
X243944655Y-32381066D02*
G75*
G02*
X244631934Y-33068345I260505J-426774D01*
G01*
X244588000Y-33224647D02*
G75*
G02*
X244631935Y-33068346I299680J87D01*
G01*
X244631934Y-34781655D02*
G75*
G02*
X243944655Y-35468934I-426774J-260505D01*
G01*
X244631934Y-34781655D02*
G75*
G02*
X244588024Y-34625353I256066J156255D01*
G01*
%TD*%
M02*
