M48
; DRILL file KiCad 10.0.5 date 2026-09-22T21:49:26
; FORMAT={-:-/ absolute / metric / decimal}
; #@! TF.CreationDate,2026-09-22T21:49:26-04:00
; #@! TF.GenerationSoftware,Kicad,Pcbnew,10.0.5
; #@! TF.FileFunction,Plated,1,2,PTH
FMAT,2
METRIC
; #@! TA.AperFunction,Plated,PTH,ViaDrill
T1C0.300
%
G90
G05
T1
X160.23Y-30.804
X163.526Y-55.456
X163.8Y-56.5
X163.858Y-69.045
X165.027Y-41.96
X165.488Y-34.78
X166.967Y-61.422
X167.238Y-12.53
X167.458Y-62.151
X167.48Y-56.554
X167.556Y-54.785
X167.599Y-60.626
X169.23Y-46.804
X169.488Y-10.28
X169.98Y-68.304
X170.304Y-14.626
X170.48Y-69.804
X170.756Y-66.5
X171.23Y-51.054
X171.23Y-54.804
X171.48Y-70.304
X172.303Y-41.572
X172.48Y-21.804
X172.48Y-50.054
X173.136Y-40.221
X173.238Y-16.03
X173.602Y-51.55
X174.238Y-47.53
X174.73Y-79.804
X174.98Y-84.304
X174.988Y-44.28
X175.08Y-77.047
X175.48Y-41.304
X175.98Y-79.054
X175.983Y-37.673
X176.48Y-25.554
X177.73Y-98.054
X177.73Y-52.804
X178.23Y-59.054
X178.73Y-29.804
X178.733Y-46.666
X178.988Y-10.03
X178.988Y-27.78
X179.239Y-25.742
X179.241Y-64.847
X179.48Y-90.554
X179.48Y-55.554
X179.73Y-83.554
X179.738Y-51.78
X180.651Y-62.3
X181.218Y-14.535
X181.488Y-64.53
X182.074Y-13.069
X182.692Y-11.53
X182.738Y-22.03
X182.964Y-79.709
X182.98Y-39.304
X183.23Y-63.554
X183.23Y-101.054
X183.23Y-20.303
X183.987Y-39.182
X184.79Y-43.325
X185.426Y-19.908
X185.488Y-46.28
X185.98Y-79.804
X185.98Y-78.304
X186.15Y-44.729
X186.674Y-49.376
X186.674Y-62.3
X187.73Y-97.554
X187.73Y-100.554
X187.98Y-44.054
X188.209Y-42.74
X188.238Y-7.03
X189.23Y-61.304
X189.488Y-65.28
X189.592Y-12.304
X189.738Y-24.53
X189.9Y-46.376
X190.23Y-19.054
X190.677Y-38.493
X191.307Y-21.574
X191.738Y-63.53
X191.873Y-22.812
X191.892Y-14.604
X191.98Y-11.554
X191.988Y-13.03
X192.174Y-77.047
X192.9Y-44.729
X192.924Y-70.605
X193.386Y-14.91
X193.98Y-76.304
X194.238Y-39.28
X194.742Y-76.096
X194.988Y-43.53
X195.23Y-68.554
X195.895Y-79.366
X197.13Y-63.892
X197.23Y-20.054
X197.238Y-5.28
X197.73Y-73.304
X197.988Y-24.28
X198.23Y-56.054
X198.738Y-50.28
X198.98Y-80.554
X200.011Y-34.675
X200.23Y-60.554
X200.488Y-61.53
X201.238Y-20.78
X201.27Y-52.979
X201.341Y-25.871
X201.48Y-19.054
X201.98Y-52.554
X202.02Y-61.55
X202.026Y-59.863
X202.77Y-47.19
X202.964Y-76.837
X203.48Y-30.554
X203.738Y-41.53
X204.23Y-60.554
X204.23Y-77.804
X204.266Y-28.336
X204.73Y-76.054
X205.238Y-6.53
X205.716Y-5.562
X205.77Y-57.949
X206.23Y-40.054
X206.6Y-26.846
X207.317Y-33.012
X207.488Y-4.53
X208.238Y-55.53
X208.48Y-61.554
X208.493Y-58.216
X208.73Y-16.304
X209.238Y-24.53
X209.254Y-42.954
X209.98Y-20.304
X210.192Y-59.88
X210.48Y-80.554
X210.488Y-60.78
X210.73Y-9.054
X210.738Y-10.53
X211.738Y-42.03
X212.038Y-91.689
X212.217Y-27.273
X212.488Y-36.78
X212.98Y-73.304
X213.192Y-72.05
X213.48Y-19.554
X213.738Y-66.28
X213.98Y-92.304
X214.32Y-67.444
X215.411Y-47.375
X215.501Y-14.735
X215.981Y-86.657
X216.116Y-69.85
X216.48Y-53.804
X216.488Y-5.53
X216.704Y-66.694
X216.73Y-78.804
X216.73Y-85.804
X216.738Y-22.28
X216.926Y-84.633
X217.553Y-22.556
X218.98Y-77.054
X219.181Y-16.276
X219.738Y-18.78
X219.738Y-61.78
X219.98Y-59.054
X220.454Y-72.05
X220.694Y-88.922
X220.882Y-76.537
X220.98Y-89.804
X221.391Y-34.191
X221.704Y-32.297
X221.98Y-17.304
X222.98Y-74.054
X222.988Y-40.03
X223.23Y-76.554
X223.248Y-53.145
X223.273Y-65.631
X223.73Y-91.304
X223.993Y-4.152
X224.455Y-71.201
X224.954Y-41.724
X224.98Y-39.554
X224.98Y-94.804
X225.039Y-71.758
X225.73Y-67.804
X226.238Y-53.78
X226.48Y-54.304
X226.48Y-63.554
X226.48Y-67.304
X226.48Y-87.804
X226.73Y-68.804
X226.73Y-76.554
X227.063Y-59.757
X227.165Y-66.506
X227.238Y-2.53
X227.73Y-14.554
X227.765Y-82.164
X227.988Y-62.03
X228.089Y-60.949
X228.48Y-57.554
X228.48Y-63.304
X228.73Y-61.804
X228.98Y-79.304
X229.23Y-59.554
X229.48Y-83.554
X229.73Y-54.804
X229.73Y-70.554
X230.238Y-7.28
X230.431Y-40.434
X230.73Y-61.054
X230.98Y-71.804
X231.199Y-77.762
X231.48Y-34.804
X231.488Y-42.53
X231.839Y-41.748
X232.003Y-88.85
X232.108Y-45.106
X232.23Y-50.304
X232.23Y-70.554
X232.48Y-20.054
X232.571Y-79.908
X232.908Y-50.859
X233.005Y-41.039
X233.238Y-66.53
X233.612Y-64.948
X233.777Y-75.579
X233.855Y-52.51
X233.98Y-80.304
X233.988Y-78.78
X234.197Y-57.551
X234.23Y-59.054
X234.23Y-68.554
X234.303Y-55.523
X234.812Y-63.639
X235.48Y-52.554
X235.48Y-55.054
X235.965Y-25.027
X236.48Y-94.054
X236.695Y-17.477
X236.738Y-21.03
X238.032Y-58.345
X238.49Y-59.512
X238.73Y-14.804
X238.98Y-33.054
X238.988Y-17.53
X239.026Y-63.682
X239.256Y-15.888
X239.337Y-57.949
X239.76Y-59.687
X240.98Y-58.304
X241.488Y-71.28
X241.853Y-62.523
X241.98Y-72.804
X242.131Y-53.085
X242.73Y-87.804
X242.738Y-41.28
X243.428Y-3.535
X243.48Y-43.054
X244.214Y-52.062
X244.462Y-37.552
X244.48Y-4.054
X244.587Y-44.412
X245.238Y-53.53
X245.604Y-40.662
X245.636Y-32.152
X246.663Y-35.366
X246.73Y-14.054
X246.738Y-2.03
X247.23Y-78.054
X247.238Y-61.03
X247.238Y-78.78
X247.942Y-73.772
X247.98Y-35.304
X247.988Y-20.28
X248.649Y-75.503
X248.7Y-78.7
X248.895Y-52.661
X249.465Y-38.495
X249.48Y-71.304
X249.488Y-6.78
X249.98Y-34.804
X249.98Y-93.804
X250.026Y-23.588
X250.104Y-37.946
X250.263Y-90.205
X250.984Y-37.558
X251.452Y-84.842
X251.988Y-40.03
X253.704Y-17.601
X253.779Y-24.96
X254.23Y-52.304
X254.488Y-86.78
X254.644Y-13.827
X255.5Y-83.5
X255.73Y-16.054
X255.738Y-4.03
X255.738Y-21.03
X255.98Y-18.304
X256.455Y-74.165
X256.628Y-17.517
X256.98Y-32.554
X256.988Y-46.78
X257.48Y-33.804
X257.488Y-15.53
X257.73Y-93.804
X257.816Y-57.675
X258.23Y-33.054
X258.48Y-73.304
X258.48Y-18.304
X259.73Y-89.804
X260.315Y-48.693
X260.374Y-65.451
X260.488Y-75.03
X260.488Y-94.03
X260.738Y-27.53
X260.749Y-82.389
X261.296Y-64.196
X261.73Y-52.304
X262.73Y-83.804
X263.041Y-42.357
X263.066Y-60.675
X263.23Y-54.304
X263.307Y-52.975
X263.408Y-3.732
X263.48Y-45.054
X263.488Y-43.03
X263.98Y-51.554
X264.501Y-70.908
X264.697Y-32.071
X264.73Y-80.554
X264.752Y-61.08
X265.23Y-53.554
X265.238Y-55.78
X265.238Y-94.03
X265.813Y-54.949
X265.848Y-35.591
X265.968Y-82.347
X266.188Y-34.84
X266.23Y-49.054
X266.23Y-87.304
X266.238Y-80.28
X266.326Y-40.003
X266.48Y-89.554
X266.48Y-21.054
X266.788Y-22.217
X266.98Y-40.804
X267.217Y-39.074
X267.23Y-35.304
X267.238Y-14.375
X267.238Y-25.28
X267.433Y-10.904
X267.475Y-46.865
X267.613Y-44.068
X267.73Y-55.054
X267.738Y-64.03
X268.251Y-38.89
X268.488Y-8.53
X268.551Y-40.687
X268.615Y-22.42
X268.636Y-70.908
X268.686Y-80.022
X268.912Y-56.045
X269.018Y-35.475
X269.133Y-12.504
X269.48Y-43.804
X269.533Y-5.204
X269.533Y-6.804
X269.73Y-34.054
X269.73Y-70.304
X269.73Y-90.304
X269.73Y-50.054
X269.98Y-48.054
X270.317Y-33.301
X270.379Y-35.61
X270.948Y-11.092
X271.23Y-64.054
X271.238Y-65.78
X271.238Y-84.78
X271.287Y-87.916
X271.98Y-45.554
X272.039Y-40.297
X272.192Y-10.102
X272.438Y-67.443
X272.566Y-44.148
X272.566Y-52.705
X272.582Y-39.7
X272.73Y-35.554
X272.73Y-77.804
X272.738Y-37.53
X272.931Y-6.004
X272.98Y-34.804
X273.21Y-48.414
X273.933Y-11.604
X274.487Y-43.993
X274.488Y-45.53
X274.631Y-7.804
X274.649Y-68.358
X274.649Y-93.837
X275.23Y-51.054
X275.481Y-48.328
X275.692Y-89.288
X275.751Y-56.029
X275.867Y-40.297
X275.926Y-7.004
X275.98Y-49.804
X276.319Y-44.53
X276.358Y-14.725
X276.48Y-14.054
X276.799Y-1.907
X276.865Y-11.763
X277.48Y-72.554
X277.48Y-92.304
X277.488Y-82.53
X277.595Y-71.075
X277.988Y-8.53
X278.218Y-51.348
X278.23Y-42.054
X278.238Y-61.03
X278.254Y-89.404
X278.386Y-55.437
X278.48Y-72.804
X278.931Y-8.004
X279.042Y-10.634
X279.305Y-54.455
X279.338Y-58.567
X279.48Y-72.804
X279.488Y-94.03
X279.738Y-23.03
X279.98Y-52.304
X280.411Y-34.642
X280.488Y-39.28
X280.488Y-80.28
X280.98Y-53.804
X281.549Y-56.291
X281.596Y-52.225
X281.596Y-71.275
X281.895Y-6.4
X281.98Y-33.054
X281.98Y-87.304
X283.238Y-45.28
X283.238Y-64.03
X283.98Y-85.554
X284.488Y-27.53
X285.23Y-12.054
X285.23Y-78.304
X285.23Y-83.804
X285.23Y-87.304
X285.238Y-76.28
X285.836Y-28.201
X285.98Y-12.804
X286.038Y-7.904
X286.238Y-82.53
X286.463Y-11.125
X286.73Y-49.804
X287.23Y-55.804
X287.238Y-58.28
X287.48Y-52.804
X287.48Y-68.404
X287.73Y-83.554
X288.446Y-74.373
X288.48Y-86.054
X288.7Y-87.6
X288.73Y-54.304
X288.73Y-89.304
X288.73Y-73.303
X289.23Y-72.554
X289.238Y-71.53
X290.23Y-83.304
X290.323Y-87.917
X290.738Y-47.03
X290.78Y-62.104
X290.87Y-33.925
X290.988Y-25.28
X291.129Y-34.697
X291.238Y-88.03
X291.48Y-53.804
X291.488Y-55.78
X291.488Y-75.03
X291.98Y-48.554
X292.055Y-47.025
X292.671Y-76.65
X292.73Y-49.804
X292.738Y-36.78
X292.738Y-64.03
X292.98Y-88.054
X293.473Y-57.104
X293.738Y-94.03
X293.98Y-43.054
X293.98Y-87.554
X295.387Y-49.368
X295.738Y-17.78
X295.98Y-45.554
X296.48Y-90.554
X297.988Y-82.53
X298.488Y-94.03
X298.564Y-50.419
X298.98Y-71.054
X299.238Y-47.03
X299.73Y-48.554
X299.855Y-92.179
X300.28Y-53.359
X300.399Y-54.248
X300.988Y-75.03
M30
