M48
; DRILL file KiCad 10.0.5 date 2026-09-21T10:22:47
; FORMAT={-:-/ absolute / metric / decimal}
; #@! TF.CreationDate,2026-09-21T10:22:47-04:00
; #@! TF.GenerationSoftware,Kicad,Pcbnew,10.0.5
; #@! TF.FileFunction,Plated,1,2,PTH
FMAT,2
METRIC
; #@! TA.AperFunction,Plated,PTH,ViaDrill
T1C0.300
%
G90
G05
T1
X3.429Y-75.814
X3.797Y-1.75
X5.547Y-82.304
X6.73Y-3.45
X7.797Y-84.304
X7.823Y-53.467
X7.875Y-72.359
X8.873Y-46.727
X9.104Y-58.749
X9.147Y-41.404
X9.738Y-81.309
X9.747Y-43.204
X10.579Y-86.589
X11.224Y-46.413
X11.547Y-34.804
X11.74Y-10.519
X13.943Y-22.691
X15.034Y-87.805
X15.372Y-41.727
X16.567Y-46.862
X18.827Y-79.641
X19.443Y-19.198
X19.567Y-79.037
X20.111Y-36.05
X20.509Y-1.75
X20.719Y-22.775
X20.822Y-38.315
X20.822Y-50.075
X21.805Y-38.552
X21.826Y-4.327
X22.009Y-5.5
X22.788Y-38.674
X24.177Y-50.64
X24.217Y-71.22
X24.386Y-84.118
X24.662Y-81.068
X25.271Y-79.867
X25.297Y-79.304
X26.259Y-3.375
X26.5Y-45.75
X27.047Y-56.054
X27.638Y-77.61
X27.97Y-84.085
X28.485Y-41.575
X29.284Y-4.327
X29.743Y-41.569
X29.75Y-42.5
X31.0Y-41.75
X31.025Y-46.95
X31.634Y-48.432
X32.283Y-36.036
X32.479Y-30.783
X32.547Y-77.804
X32.888Y-40.362
X32.96Y-48.004
X33.553Y-40.998
X33.734Y-88.632
X34.086Y-47.015
X34.223Y-82.454
X34.323Y-51.966
X34.823Y-40.984
X34.845Y-31.78
X34.901Y-32.682
X35.027Y-19.568
X36.093Y-44.115
X36.852Y-47.934
X36.965Y-6.026
X37.277Y-19.568
X37.453Y-81.332
X37.495Y-59.144
X37.709Y-34.412
X37.755Y-22.683
X38.758Y-38.717
X38.822Y-41.352
X39.437Y-1.75
X40.587Y-46.008
X41.029Y-4.327
X41.687Y-6.25
X42.072Y-42.249
X42.639Y-80.058
X42.679Y-18.518
X42.905Y-31.78
X43.297Y-58.804
X43.706Y-35.014
X46.101Y-48.592
X48.334Y-4.327
X48.452Y-20.467
X49.297Y-80.304
X49.973Y-38.717
X51.547Y-77.804
X51.972Y-79.928
X52.047Y-77.554
X52.656Y-57.507
X53.047Y-77.054
X53.464Y-79.587
X54.195Y-4.428
X54.694Y-19.341
X55.258Y-7.097
X55.501Y-74.406
X55.538Y-20.106
X57.712Y-2.114
X58.46Y-32.684
X58.81Y-23.832
X59.288Y-38.717
X62.546Y-49.548
X62.648Y-71.222
X63.788Y-22.356
X63.821Y-43.439
X64.285Y-3.331
X64.675Y-59.387
X64.768Y-74.485
X65.259Y-69.088
X66.013Y-72.506
X66.043Y-2.114
X66.276Y-81.522
X66.673Y-50.197
X67.206Y-69.23
X67.609Y-2.306
X67.713Y-38.698
X68.208Y-72.85
X68.288Y-37.086
X68.366Y-69.53
X68.366Y-52.373
X68.553Y-74.135
X69.75Y-70.25
X69.792Y-13.691
X70.0Y-79.5
X70.615Y-73.237
X70.935Y-26.357
X70.973Y-81.522
X71.25Y-71.0
X71.273Y-37.086
X71.287Y-87.337
X72.047Y-72.635
X72.25Y-58.0
X72.302Y-58.953
X72.679Y-83.488
X73.2Y-75.975
X73.447Y-87.154
X73.5Y-59.25
X73.5Y-78.0
X73.513Y-83.488
X73.896Y-88.634
X73.997Y-84.054
X74.273Y-25.489
X74.323Y-82.455
X74.5Y-80.0
X74.64Y-70.337
X74.783Y-83.474
X75.407Y-2.373
X75.75Y-77.25
X76.053Y-81.546
X76.633Y-2.125
X76.804Y-23.171
X77.297Y-90.054
X77.323Y-83.488
X78.03Y-79.587
X78.25Y-73.25
X78.457Y-83.276
X78.78Y-37.086
X78.797Y-78.304
X79.055Y-34.412
X80.146Y-26.03
X80.742Y-81.774
X81.047Y-81.054
X81.764Y-42.752
X82.381Y-20.364
X84.356Y-62.287
X84.547Y-5.804
X85.047Y-88.504
X86.601Y-12.72
X86.808Y-70.072
X87.121Y-5.176
X87.341Y-39.941
X88.5Y-73.25
X89.159Y-13.494
X89.28Y-22.727
X89.547Y-79.304
X90.047Y-11.304
X90.561Y-41.509
X92.0Y-76.75
X92.014Y-60.543
X93.826Y-6.957
X94.873Y-19.9
X96.433Y-4.689
X97.576Y-37.086
X97.576Y-41.509
X98.121Y-66.742
X99.11Y-70.91
X99.327Y-37.671
X99.41Y-90.511
X100.047Y-9.304
X100.477Y-21.492
X100.647Y-44.865
X100.95Y-67.507
X100.995Y-61.417
X101.047Y-7.054
X102.11Y-67.91
X103.225Y-63.076
X103.588Y-39.633
X105.196Y-80.151
X105.297Y-7.054
X106.647Y-83.404
X109.472Y-25.649
X109.703Y-62.336
X109.772Y-77.895
X109.938Y-27.015
X110.797Y-9.554
X112.523Y-27.617
X113.683Y-67.91
X116.047Y-83.304
X116.797Y-82.554
X117.187Y-74.204
X117.797Y-44.554
X118.626Y-61.654
X119.236Y-62.336
X119.676Y-65.66
X120.397Y-41.064
X120.797Y-10.054
X121.176Y-67.798
X121.176Y-71.954
X122.018Y-17.916
X122.058Y-92.85
X122.111Y-88.253
X122.383Y-26.657
X122.428Y-74.194
X123.664Y-43.896
X124.047Y-10.054
X125.967Y-63.859
X126.811Y-74.194
X128.139Y-80.626
X128.449Y-65.638
X129.351Y-25.682
X130.234Y-33.072
X130.247Y-65.1
X130.54Y-58.898
X131.519Y-67.182
X132.489Y-51.354
X132.575Y-64.498
X132.615Y-29.154
X132.758Y-32.034
X133.003Y-50.464
X133.003Y-9.871
X133.993Y-55.445
X134.4Y-10.338
X136.322Y-63.55
X136.672Y-57.039
X137.486Y-61.024
X137.491Y-54.068
X137.495Y-62.5
X138.451Y-43.304
X139.047Y-30.304
M30
