%TF.GenerationSoftware,KiCad,Pcbnew,10.0.5*%
%TF.CreationDate,2026-09-13T20:06:24-04:00*%
%TF.ProjectId,Symm60HE-Panel,53796d6d-3630-4484-952d-50616e656c2e,rev?*%
%TF.SameCoordinates,Original*%
%TF.FileFunction,Profile,NP*%
%FSLAX46Y46*%
G04 Gerber Fmt 4.6, Leading zero omitted, Abs format (unit mm)*
G04 Created by KiCad (PCBNEW 10.0.5) date 2026-09-13 20:06:24*
%MOMM*%
%LPD*%
G01*
G04 APERTURE LIST*
%TA.AperFunction,Profile*%
%ADD10C,0.050000*%
%TD*%
G04 APERTURE END LIST*
D10*
X-15915300Y10210500D02*
X-15915300Y-223702700D01*
X-15915300Y-223702700D02*
X159409000Y-223702700D01*
X159409000Y-223702700D02*
X159409000Y10210500D01*
X159409000Y10210500D02*
X-15915300Y10210500D01*
X144192700Y-105740800D02*
X144284600Y-105746100D01*
X144284600Y-105746100D02*
X144376500Y-105743000D01*
X144376500Y-105743000D02*
X144467800Y-105731400D01*
X144467800Y-105731400D02*
X144557600Y-105711500D01*
X144557600Y-105711500D02*
X144645200Y-105683400D01*
X144645200Y-105683400D02*
X144729900Y-105647400D01*
X144729900Y-105647400D02*
X144810900Y-105603700D01*
X144810900Y-105603700D02*
X144852700Y-105576000D01*
X144852700Y-105576000D02*
X144869200Y-105566200D01*
X144869200Y-105566200D02*
X144893300Y-105567500D01*
X144893300Y-105567500D02*
X146229900Y-105707000D01*
X146229900Y-105707000D02*
X146327900Y-105712300D01*
X146327900Y-105712300D02*
X146425900Y-105708100D01*
X146425900Y-105708100D02*
X146523100Y-105694200D01*
X146523100Y-105694200D02*
X146618400Y-105670900D01*
X146618400Y-105670900D02*
X146711000Y-105638400D01*
X146711000Y-105638400D02*
X146800000Y-105597000D01*
X146800000Y-105597000D02*
X146884400Y-105547000D01*
X146884400Y-105547000D02*
X146963600Y-105489000D01*
X146963600Y-105489000D02*
X147036700Y-105423500D01*
X147036700Y-105423500D02*
X147103000Y-105351200D01*
X147103000Y-105351200D02*
X147161900Y-105272700D01*
X147161900Y-105272700D02*
X147212800Y-105188800D01*
X147212800Y-105188800D02*
X147255300Y-105100300D01*
X147255300Y-105100300D02*
X147288900Y-105008100D01*
X147288900Y-105008100D02*
X147313300Y-104913100D01*
X147313300Y-104913100D02*
X147328200Y-104816100D01*
X147328200Y-104816100D02*
X149820800Y-80920700D01*
X149820800Y-80920700D02*
X149826100Y-80822700D01*
X149826100Y-80822700D02*
X149821900Y-80724700D01*
X149821900Y-80724700D02*
X149808000Y-80627500D01*
X149808000Y-80627500D02*
X149784700Y-80532200D01*
X149784700Y-80532200D02*
X149752200Y-80439600D01*
X149752200Y-80439600D02*
X149710800Y-80350600D01*
X149710800Y-80350600D02*
X149660800Y-80266200D01*
X149660800Y-80266200D02*
X149602800Y-80187000D01*
X149602800Y-80187000D02*
X149537300Y-80113900D01*
X149537300Y-80113900D02*
X149465000Y-80047600D01*
X149465000Y-80047600D02*
X149386500Y-79988700D01*
X149386500Y-79988700D02*
X149302600Y-79937800D01*
X149302600Y-79937800D02*
X149214100Y-79895300D01*
X149214100Y-79895300D02*
X149121900Y-79861700D01*
X149121900Y-79861700D02*
X149026900Y-79837300D01*
X149026900Y-79837300D02*
X148929900Y-79822400D01*
X148929900Y-79822400D02*
X140027600Y-78893800D01*
X140027600Y-78893800D02*
X140004300Y-78890200D01*
X140004300Y-78890200D02*
X140005800Y-78866700D01*
X140005800Y-78866700D02*
X141178600Y-68524100D01*
X141178600Y-68524100D02*
X141182300Y-68501100D01*
X141182300Y-68501100D02*
X141205600Y-68500000D01*
X141205600Y-68500000D02*
X150209000Y-68500000D01*
X150209000Y-68500000D02*
X150307000Y-68495200D01*
X150307000Y-68495200D02*
X150404100Y-68480800D01*
X150404100Y-68480800D02*
X150499300Y-68456900D01*
X150499300Y-68456900D02*
X150591700Y-68423900D01*
X150591700Y-68423900D02*
X150680400Y-68381900D01*
X150680400Y-68381900D02*
X150764600Y-68331500D01*
X150764600Y-68331500D02*
X150843400Y-68273000D01*
X150843400Y-68273000D02*
X150916100Y-68207100D01*
X150916100Y-68207100D02*
X150982000Y-68134400D01*
X150982000Y-68134400D02*
X151040500Y-68055600D01*
X151040500Y-68055600D02*
X151090900Y-67971400D01*
X151090900Y-67971400D02*
X151132900Y-67882700D01*
X151132900Y-67882700D02*
X151165900Y-67790300D01*
X151165900Y-67790300D02*
X151189800Y-67695100D01*
X151189800Y-67695100D02*
X151204200Y-67598000D01*
X151204200Y-67598000D02*
X151209000Y-67500000D01*
X151209000Y-67500000D02*
X151209000Y-54367800D01*
X151209000Y-54367800D02*
X154409000Y-54367800D01*
X154409000Y-54367800D02*
X154409000Y-159124400D01*
X154409000Y-159124400D02*
X146446400Y-159124400D01*
X146446400Y-159124400D02*
X146446400Y-146854300D01*
X146446400Y-146854300D02*
X146441300Y-146753000D01*
X146441300Y-146753000D02*
X146425900Y-146652800D01*
X146425900Y-146652800D02*
X146400400Y-146554600D01*
X146400400Y-146554600D02*
X146365200Y-146459600D01*
X146365200Y-146459600D02*
X146320500Y-146368500D01*
X146320500Y-146368500D02*
X146266800Y-146282500D01*
X146266800Y-146282500D02*
X146204700Y-146202400D01*
X146204700Y-146202400D02*
X146134800Y-146128900D01*
X146134800Y-146128900D02*
X146057800Y-146062900D01*
X146057800Y-146062900D02*
X145974500Y-146005100D01*
X145974500Y-146005100D02*
X145885800Y-145956000D01*
X145885800Y-145956000D02*
X145792500Y-145916100D01*
X145792500Y-145916100D02*
X145695700Y-145885900D01*
X145695700Y-145885900D02*
X145596400Y-145865600D01*
X145596400Y-145865600D02*
X145494300Y-145855500D01*
X145494300Y-145855500D02*
X145493200Y-145832100D01*
X145493200Y-145832100D02*
X145493200Y-127806600D01*
X145493200Y-127806600D02*
X145488400Y-127708600D01*
X145488400Y-127708600D02*
X145474000Y-127611500D01*
X145474000Y-127611500D02*
X145450100Y-127516300D01*
X145450100Y-127516300D02*
X145417100Y-127423900D01*
X145417100Y-127423900D02*
X145375100Y-127335200D01*
X145375100Y-127335200D02*
X145324700Y-127251000D01*
X145324700Y-127251000D02*
X145266200Y-127172200D01*
X145266200Y-127172200D02*
X145200300Y-127099500D01*
X145200300Y-127099500D02*
X145127600Y-127033600D01*
X145127600Y-127033600D02*
X145048800Y-126975100D01*
X145048800Y-126975100D02*
X144964600Y-126924700D01*
X144964600Y-126924700D02*
X144875900Y-126882700D01*
X144875900Y-126882700D02*
X144783500Y-126849700D01*
X144783500Y-126849700D02*
X144688300Y-126825800D01*
X144688300Y-126825800D02*
X144591200Y-126811400D01*
X144591200Y-126811400D02*
X144493200Y-126806600D01*
X144493200Y-126806600D02*
X143613200Y-126806600D01*
X143613200Y-126806600D02*
X143589800Y-126805500D01*
X143589800Y-126805500D02*
X143588700Y-126782100D01*
X143588700Y-126782100D02*
X143588700Y-108756600D01*
X143588700Y-108756600D02*
X143583900Y-108658600D01*
X143583900Y-108658600D02*
X143569500Y-108561500D01*
X143569500Y-108561500D02*
X143545600Y-108466300D01*
X143545600Y-108466300D02*
X143512600Y-108373900D01*
X143512600Y-108373900D02*
X143470600Y-108285200D01*
X143470600Y-108285200D02*
X143420200Y-108201000D01*
X143420200Y-108201000D02*
X143361700Y-108122200D01*
X143361700Y-108122200D02*
X143295800Y-108049500D01*
X143295800Y-108049500D02*
X143223100Y-107983600D01*
X143223100Y-107983600D02*
X143144300Y-107925100D01*
X143144300Y-107925100D02*
X143060100Y-107874700D01*
X143060100Y-107874700D02*
X142971400Y-107832700D01*
X142971400Y-107832700D02*
X142879000Y-107799700D01*
X142879000Y-107799700D02*
X142783800Y-107775800D01*
X142783800Y-107775800D02*
X142686700Y-107761400D01*
X142686700Y-107761400D02*
X142588700Y-107756600D01*
X142588700Y-107756600D02*
X117156410Y-107756600D01*
X117156410Y-107756600D02*
X117156410Y-102920590D01*
X117156410Y-102920590D02*
X144192700Y-105740800D01*
X151209000Y-44500000D02*
X151204500Y-44405000D01*
X151204500Y-44405000D02*
X151191000Y-44310900D01*
X151191000Y-44310900D02*
X151168600Y-44218500D01*
X151168600Y-44218500D02*
X151137500Y-44128700D01*
X151137500Y-44128700D02*
X151098000Y-44042200D01*
X151098000Y-44042200D02*
X151050600Y-43959800D01*
X151050600Y-43959800D02*
X150995500Y-43882400D01*
X150995500Y-43882400D02*
X150933200Y-43810500D01*
X150933200Y-43810500D02*
X150864500Y-43744800D01*
X150864500Y-43744800D02*
X150789800Y-43686000D01*
X150789800Y-43686000D02*
X150709900Y-43634500D01*
X150709900Y-43634500D02*
X150625400Y-43590800D01*
X150625400Y-43590800D02*
X150537200Y-43555400D01*
X150537200Y-43555400D02*
X150446000Y-43528500D01*
X150446000Y-43528500D02*
X150352700Y-43510400D01*
X150352700Y-43510400D02*
X150258100Y-43501200D01*
X150258100Y-43501200D02*
X150210100Y-43498900D01*
X150210100Y-43498900D02*
X150209000Y-43475500D01*
X150209000Y-43475500D02*
X150209000Y-23712200D01*
X150209000Y-23712200D02*
X150204300Y-23615200D01*
X150204300Y-23615200D02*
X150190200Y-23519100D01*
X150190200Y-23519100D02*
X150166800Y-23424900D01*
X150166800Y-23424900D02*
X150134400Y-23333300D01*
X150134400Y-23333300D02*
X150093300Y-23245300D01*
X150093300Y-23245300D02*
X150043800Y-23161800D01*
X150043800Y-23161800D02*
X149986500Y-23083400D01*
X149986500Y-23083400D02*
X149921800Y-23010900D01*
X149921800Y-23010900D02*
X149850400Y-22945100D01*
X149850400Y-22945100D02*
X149773000Y-22886500D01*
X149773000Y-22886500D02*
X149690200Y-22835700D01*
X149690200Y-22835700D02*
X149602900Y-22793100D01*
X149602900Y-22793100D02*
X149511900Y-22759200D01*
X149511900Y-22759200D02*
X149418000Y-22734300D01*
X149418000Y-22734300D02*
X149322200Y-22718700D01*
X149322200Y-22718700D02*
X143127300Y-22012900D01*
X143127300Y-22012900D02*
X143104200Y-22009100D01*
X143104200Y-22009100D02*
X143105700Y-21985700D01*
X143105700Y-21985700D02*
X145132400Y-4197400D01*
X145132400Y-4197400D02*
X145138700Y-4099400D01*
X145138700Y-4099400D02*
X145135400Y-4001400D01*
X145135400Y-4001400D02*
X145122500Y-3904100D01*
X145122500Y-3904100D02*
X145100100Y-3808500D01*
X145100100Y-3808500D02*
X145068400Y-3715600D01*
X145068400Y-3715600D02*
X145027800Y-3626300D01*
X145027800Y-3626300D02*
X144978700Y-3541400D01*
X144978700Y-3541400D02*
X144921400Y-3461700D01*
X144921400Y-3461700D02*
X144856600Y-3387900D01*
X144856600Y-3387900D02*
X144785000Y-3320900D01*
X144785000Y-3320900D02*
X144707000Y-3261300D01*
X144707000Y-3261300D02*
X144623600Y-3209500D01*
X144623600Y-3209500D02*
X144535600Y-3166200D01*
X144535600Y-3166200D02*
X144443700Y-3131800D01*
X144443700Y-3131800D02*
X144348900Y-3106500D01*
X144348900Y-3106500D02*
X144252000Y-3090600D01*
X144252000Y-3090600D02*
X124079000Y-792100D01*
X124079000Y-792100D02*
X124055200Y-788300D01*
X124055200Y-788300D02*
X124039400Y-784100D01*
X124039400Y-784100D02*
X123988500Y-767700D01*
X123988500Y-767700D02*
X123901500Y-748200D01*
X123901500Y-748200D02*
X123813200Y-736400D01*
X123813200Y-736400D02*
X122853400Y-652300D01*
X122853400Y-652300D02*
X122840500Y-651000D01*
X122840500Y-651000D02*
X122498000Y-612000D01*
X122498000Y-612000D02*
X122412900Y-605900D01*
X122412900Y-605900D02*
X122354000Y-606800D01*
X122354000Y-606800D02*
X122318300Y-605400D01*
X122318300Y-605400D02*
X117156410Y-152700D01*
X117156410Y-152700D02*
X117156410Y5210500D01*
X117156410Y5210500D02*
X154409000Y5210500D01*
X154409000Y5210500D02*
X154409000Y-49367800D01*
X154409000Y-49367800D02*
X151209000Y-49367800D01*
X151209000Y-49367800D02*
X151209000Y-44500000D01*
X154409000Y-218702700D02*
X117156410Y-218702700D01*
X117156410Y-218702700D02*
X117156410Y-207006600D01*
X117156410Y-207006600D02*
X145446700Y-207006600D01*
X145446700Y-207006600D02*
X145544700Y-207001800D01*
X145544700Y-207001800D02*
X145641800Y-206987400D01*
X145641800Y-206987400D02*
X145737000Y-206963500D01*
X145737000Y-206963500D02*
X145829400Y-206930500D01*
X145829400Y-206930500D02*
X145918100Y-206888500D01*
X145918100Y-206888500D02*
X146002300Y-206838100D01*
X146002300Y-206838100D02*
X146081100Y-206779600D01*
X146081100Y-206779600D02*
X146153800Y-206713700D01*
X146153800Y-206713700D02*
X146219700Y-206641000D01*
X146219700Y-206641000D02*
X146278200Y-206562200D01*
X146278200Y-206562200D02*
X146328600Y-206478000D01*
X146328600Y-206478000D02*
X146370600Y-206389300D01*
X146370600Y-206389300D02*
X146403600Y-206296900D01*
X146403600Y-206296900D02*
X146427500Y-206201700D01*
X146427500Y-206201700D02*
X146441900Y-206104600D01*
X146441900Y-206104600D02*
X146446700Y-206006600D01*
X146446700Y-206006600D02*
X146446700Y-190956100D01*
X146446700Y-190956100D02*
X146447800Y-190932700D01*
X146447800Y-190932700D02*
X146471200Y-190931600D01*
X146471200Y-190931600D02*
X150209000Y-190931600D01*
X150209000Y-190931600D02*
X150307000Y-190926800D01*
X150307000Y-190926800D02*
X150404100Y-190912400D01*
X150404100Y-190912400D02*
X150499300Y-190888500D01*
X150499300Y-190888500D02*
X150591700Y-190855500D01*
X150591700Y-190855500D02*
X150680400Y-190813500D01*
X150680400Y-190813500D02*
X150764600Y-190763100D01*
X150764600Y-190763100D02*
X150843400Y-190704600D01*
X150843400Y-190704600D02*
X150916100Y-190638700D01*
X150916100Y-190638700D02*
X150982000Y-190566000D01*
X150982000Y-190566000D02*
X151040500Y-190487200D01*
X151040500Y-190487200D02*
X151090900Y-190403000D01*
X151090900Y-190403000D02*
X151132900Y-190314300D01*
X151132900Y-190314300D02*
X151165900Y-190221900D01*
X151165900Y-190221900D02*
X151189800Y-190126700D01*
X151189800Y-190126700D02*
X151204200Y-190029600D01*
X151204200Y-190029600D02*
X151209000Y-189931600D01*
X151209000Y-189931600D02*
X151209000Y-165906600D01*
X151209000Y-165906600D02*
X151204200Y-165808600D01*
X151204200Y-165808600D02*
X151189800Y-165711500D01*
X151189800Y-165711500D02*
X151165900Y-165616300D01*
X151165900Y-165616300D02*
X151132900Y-165523900D01*
X151132900Y-165523900D02*
X151090900Y-165435200D01*
X151090900Y-165435200D02*
X151040500Y-165351000D01*
X151040500Y-165351000D02*
X150982000Y-165272200D01*
X150982000Y-165272200D02*
X150916100Y-165199500D01*
X150916100Y-165199500D02*
X150843400Y-165133600D01*
X150843400Y-165133600D02*
X150764600Y-165075100D01*
X150764600Y-165075100D02*
X150680400Y-165024700D01*
X150680400Y-165024700D02*
X150591700Y-164982700D01*
X150591700Y-164982700D02*
X150499300Y-164949700D01*
X150499300Y-164949700D02*
X150404100Y-164925800D01*
X150404100Y-164925800D02*
X150307000Y-164911400D01*
X150307000Y-164911400D02*
X150209000Y-164906600D01*
X150209000Y-164906600D02*
X146470900Y-164906600D01*
X146470900Y-164906600D02*
X146447500Y-164905500D01*
X146447500Y-164905500D02*
X146446400Y-164882100D01*
X146446400Y-164882100D02*
X146446400Y-164124400D01*
X146446400Y-164124400D02*
X154409000Y-164124400D01*
X154409000Y-164124400D02*
X154409000Y-218702700D01*
X74246850Y-218702700D02*
X74246850Y-206960170D01*
X74246850Y-206960170D02*
X74639000Y-206948000D01*
X74639000Y-206948000D02*
X74658100Y-206947800D01*
X74658100Y-206947800D02*
X82918800Y-207006600D01*
X82918800Y-207006600D02*
X112156410Y-207006600D01*
X112156410Y-207006600D02*
X112156410Y-218702700D01*
X112156410Y-218702700D02*
X74246850Y-218702700D01*
X98505300Y-98111700D02*
X98528300Y-98113600D01*
X98528300Y-98113600D02*
X98527000Y-98136500D01*
X98527000Y-98136500D02*
X98337600Y-99952200D01*
X98337600Y-99952200D02*
X98332300Y-100050200D01*
X98332300Y-100050200D02*
X98336500Y-100148200D01*
X98336500Y-100148200D02*
X98350300Y-100245400D01*
X98350300Y-100245400D02*
X98373600Y-100340700D01*
X98373600Y-100340700D02*
X98406200Y-100433300D01*
X98406200Y-100433300D02*
X98447600Y-100522300D01*
X98447600Y-100522300D02*
X98497600Y-100606700D01*
X98497600Y-100606700D02*
X98555600Y-100685900D01*
X98555600Y-100685900D02*
X98621100Y-100759000D01*
X98621100Y-100759000D02*
X98693400Y-100825300D01*
X98693400Y-100825300D02*
X98771900Y-100884200D01*
X98771900Y-100884200D02*
X98855800Y-100935100D01*
X98855800Y-100935100D02*
X98944200Y-100977600D01*
X98944200Y-100977600D02*
X99036400Y-101011200D01*
X99036400Y-101011200D02*
X99131500Y-101035600D01*
X99131500Y-101035600D02*
X99228500Y-101050500D01*
X99228500Y-101050500D02*
X112156410Y-102399030D01*
X112156410Y-102399030D02*
X112156410Y-107756600D01*
X112156410Y-107756600D02*
X86416600Y-107756600D01*
X86416600Y-107756600D02*
X86353400Y-107753500D01*
X86353400Y-107753500D02*
X86302200Y-107752300D01*
X86302200Y-107752300D02*
X84271100Y-107756600D01*
X84271100Y-107756600D02*
X84036600Y-107756600D01*
X84036600Y-107756600D02*
X83973400Y-107753500D01*
X83973400Y-107753500D02*
X83922200Y-107752300D01*
X83922200Y-107752300D02*
X74246850Y-107772880D01*
X74246850Y-107772880D02*
X74246850Y-97358760D01*
X74246850Y-97358760D02*
X98505300Y-98111700D01*
X102621500Y1122000D02*
X102584600Y1127100D01*
X102584600Y1127100D02*
X102509600Y1141500D01*
X102509600Y1141500D02*
X102409400Y1150400D01*
X102409400Y1150400D02*
X102224800Y1157400D01*
X102224800Y1157400D02*
X102200200Y1159000D01*
X102200200Y1159000D02*
X101422500Y1227200D01*
X101422500Y1227200D02*
X101326900Y1230900D01*
X101326900Y1230900D02*
X101231400Y1225600D01*
X101231400Y1225600D02*
X101136800Y1211100D01*
X101136800Y1211100D02*
X101091000Y1201800D01*
X101091000Y1201800D02*
X101067300Y1201600D01*
X101067300Y1201600D02*
X82555400Y1907900D01*
X82555400Y1907900D02*
X82531600Y1909900D01*
X82531600Y1909900D02*
X82504500Y1917700D01*
X82504500Y1917700D02*
X82415100Y1938800D01*
X82415100Y1938800D02*
X82324100Y1951600D01*
X82324100Y1951600D02*
X82232300Y1956000D01*
X82232300Y1956000D02*
X81245900Y1958200D01*
X81245900Y1958200D02*
X81227900Y1958500D01*
X81227900Y1958500D02*
X79902900Y2009100D01*
X79902900Y2009100D02*
X79810100Y2008300D01*
X79810100Y2008300D02*
X79717600Y1998900D01*
X79717600Y1998900D02*
X79626500Y1981000D01*
X79626500Y1981000D02*
X79584200Y1968500D01*
X79584200Y1968500D02*
X79561300Y1962900D01*
X79561300Y1962900D02*
X79537500Y1961900D01*
X79537500Y1961900D02*
X78752100Y1963500D01*
X78752100Y1963500D02*
X78734100Y1963900D01*
X78734100Y1963900D02*
X77513500Y2010500D01*
X77513500Y2010500D02*
X77420600Y2009700D01*
X77420600Y2009700D02*
X77328300Y2000300D01*
X77328300Y2000300D02*
X77237200Y1982400D01*
X77237200Y1982400D02*
X77215300Y1976000D01*
X77215300Y1976000D02*
X77182400Y1968000D01*
X77182400Y1968000D02*
X77158600Y1966900D01*
X77158600Y1966900D02*
X74246850Y1973090D01*
X74246850Y1973090D02*
X74246850Y5210500D01*
X74246850Y5210500D02*
X112156410Y5210500D01*
X112156410Y5210500D02*
X112156410Y285790D01*
X112156410Y285790D02*
X102621500Y1122000D01*
X31337290Y-218702700D02*
X31337290Y-212155630D01*
X31337290Y-212155630D02*
X44265200Y-210807100D01*
X44265200Y-210807100D02*
X44362200Y-210792200D01*
X44362200Y-210792200D02*
X44457300Y-210767800D01*
X44457300Y-210767800D02*
X44549500Y-210734200D01*
X44549500Y-210734200D02*
X44637900Y-210691700D01*
X44637900Y-210691700D02*
X44721800Y-210640800D01*
X44721800Y-210640800D02*
X44800300Y-210581900D01*
X44800300Y-210581900D02*
X44872600Y-210515600D01*
X44872600Y-210515600D02*
X44938100Y-210442500D01*
X44938100Y-210442500D02*
X44996100Y-210363300D01*
X44996100Y-210363300D02*
X45046100Y-210278900D01*
X45046100Y-210278900D02*
X45087500Y-210189900D01*
X45087500Y-210189900D02*
X45120100Y-210097300D01*
X45120100Y-210097300D02*
X45143400Y-210002000D01*
X45143400Y-210002000D02*
X45157200Y-209904800D01*
X45157200Y-209904800D02*
X45161400Y-209806800D01*
X45161400Y-209806800D02*
X45156100Y-209708800D01*
X45156100Y-209708800D02*
X44966700Y-207893100D01*
X44966700Y-207893100D02*
X44965400Y-207870200D01*
X44965400Y-207870200D02*
X44988400Y-207868300D01*
X44988400Y-207868300D02*
X69246850Y-207115360D01*
X69246850Y-207115360D02*
X69246850Y-218702700D01*
X69246850Y-218702700D02*
X31337290Y-218702700D01*
X59571500Y2004300D02*
X59520300Y2003100D01*
X59520300Y2003100D02*
X59457100Y2000000D01*
X59457100Y2000000D02*
X59222600Y2000000D01*
X59222600Y2000000D02*
X57191500Y2004300D01*
X57191500Y2004300D02*
X57140300Y2003100D01*
X57140300Y2003100D02*
X57077100Y2000000D01*
X57077100Y2000000D02*
X31337290Y2000000D01*
X31337290Y2000000D02*
X31337290Y5210500D01*
X31337290Y5210500D02*
X69246850Y5210500D01*
X69246850Y5210500D02*
X69246850Y1983720D01*
X69246850Y1983720D02*
X59571500Y2004300D01*
X60574900Y-97250000D02*
X68835600Y-97191200D01*
X68835600Y-97191200D02*
X68854700Y-97191400D01*
X68854700Y-97191400D02*
X69246850Y-97203570D01*
X69246850Y-97203570D02*
X69246850Y-107783510D01*
X69246850Y-107783510D02*
X66335100Y-107789700D01*
X66335100Y-107789700D02*
X66311300Y-107788600D01*
X66311300Y-107788600D02*
X66278400Y-107780600D01*
X66278400Y-107780600D02*
X66256500Y-107774200D01*
X66256500Y-107774200D02*
X66165400Y-107756300D01*
X66165400Y-107756300D02*
X66073100Y-107746900D01*
X66073100Y-107746900D02*
X65980200Y-107746100D01*
X65980200Y-107746100D02*
X64759600Y-107792700D01*
X64759600Y-107792700D02*
X64741600Y-107793100D01*
X64741600Y-107793100D02*
X63956200Y-107794700D01*
X63956200Y-107794700D02*
X63932400Y-107793700D01*
X63932400Y-107793700D02*
X63909500Y-107788100D01*
X63909500Y-107788100D02*
X63867200Y-107775600D01*
X63867200Y-107775600D02*
X63776100Y-107757700D01*
X63776100Y-107757700D02*
X63683600Y-107748300D01*
X63683600Y-107748300D02*
X63590800Y-107747500D01*
X63590800Y-107747500D02*
X62265800Y-107798100D01*
X62265800Y-107798100D02*
X62247800Y-107798400D01*
X62247800Y-107798400D02*
X61261400Y-107800600D01*
X61261400Y-107800600D02*
X61169600Y-107805000D01*
X61169600Y-107805000D02*
X61078600Y-107817800D01*
X61078600Y-107817800D02*
X60989200Y-107838900D01*
X60989200Y-107838900D02*
X60962100Y-107846700D01*
X60962100Y-107846700D02*
X60938300Y-107848700D01*
X60938300Y-107848700D02*
X42426400Y-108555000D01*
X42426400Y-108555000D02*
X42402700Y-108554800D01*
X42402700Y-108554800D02*
X42356900Y-108545500D01*
X42356900Y-108545500D02*
X42262300Y-108531000D01*
X42262300Y-108531000D02*
X42166800Y-108525700D01*
X42166800Y-108525700D02*
X42071200Y-108529400D01*
X42071200Y-108529400D02*
X41293500Y-108597600D01*
X41293500Y-108597600D02*
X41268900Y-108599200D01*
X41268900Y-108599200D02*
X41084300Y-108606200D01*
X41084300Y-108606200D02*
X40984100Y-108615100D01*
X40984100Y-108615100D02*
X40909100Y-108629500D01*
X40909100Y-108629500D02*
X40872200Y-108634600D01*
X40872200Y-108634600D02*
X31337290Y-109470810D01*
X31337290Y-109470810D02*
X31337290Y-97250000D01*
X31337290Y-97250000D02*
X60574900Y-97250000D01*
X-7715300Y-177256600D02*
X-7710500Y-177354600D01*
X-7710500Y-177354600D02*
X-7696100Y-177451700D01*
X-7696100Y-177451700D02*
X-7672200Y-177546900D01*
X-7672200Y-177546900D02*
X-7639200Y-177639300D01*
X-7639200Y-177639300D02*
X-7597200Y-177728000D01*
X-7597200Y-177728000D02*
X-7546800Y-177812200D01*
X-7546800Y-177812200D02*
X-7488300Y-177891000D01*
X-7488300Y-177891000D02*
X-7422400Y-177963700D01*
X-7422400Y-177963700D02*
X-7349700Y-178029600D01*
X-7349700Y-178029600D02*
X-7270900Y-178088100D01*
X-7270900Y-178088100D02*
X-7186700Y-178138500D01*
X-7186700Y-178138500D02*
X-7098000Y-178180500D01*
X-7098000Y-178180500D02*
X-7005600Y-178213500D01*
X-7005600Y-178213500D02*
X-6910400Y-178237400D01*
X-6910400Y-178237400D02*
X-6813300Y-178251800D01*
X-6813300Y-178251800D02*
X-6715300Y-178256600D01*
X-6715300Y-178256600D02*
X2288100Y-178256600D01*
X2288100Y-178256600D02*
X2311400Y-178257700D01*
X2311400Y-178257700D02*
X2315100Y-178280700D01*
X2315100Y-178280700D02*
X3487900Y-188623300D01*
X3487900Y-188623300D02*
X3489400Y-188646800D01*
X3489400Y-188646800D02*
X3466100Y-188650400D01*
X3466100Y-188650400D02*
X-5436200Y-189579000D01*
X-5436200Y-189579000D02*
X-5533200Y-189593900D01*
X-5533200Y-189593900D02*
X-5628200Y-189618300D01*
X-5628200Y-189618300D02*
X-5720400Y-189651900D01*
X-5720400Y-189651900D02*
X-5808900Y-189694400D01*
X-5808900Y-189694400D02*
X-5892800Y-189745300D01*
X-5892800Y-189745300D02*
X-5971300Y-189804200D01*
X-5971300Y-189804200D02*
X-6043600Y-189870500D01*
X-6043600Y-189870500D02*
X-6109100Y-189943600D01*
X-6109100Y-189943600D02*
X-6167100Y-190022800D01*
X-6167100Y-190022800D02*
X-6217100Y-190107200D01*
X-6217100Y-190107200D02*
X-6258500Y-190196200D01*
X-6258500Y-190196200D02*
X-6291000Y-190288800D01*
X-6291000Y-190288800D02*
X-6314300Y-190384100D01*
X-6314300Y-190384100D02*
X-6328200Y-190481300D01*
X-6328200Y-190481300D02*
X-6332400Y-190579300D01*
X-6332400Y-190579300D02*
X-6327100Y-190677300D01*
X-6327100Y-190677300D02*
X-3834500Y-214572700D01*
X-3834500Y-214572700D02*
X-3819600Y-214669700D01*
X-3819600Y-214669700D02*
X-3795200Y-214764700D01*
X-3795200Y-214764700D02*
X-3761600Y-214856900D01*
X-3761600Y-214856900D02*
X-3719100Y-214945400D01*
X-3719100Y-214945400D02*
X-3668200Y-215029300D01*
X-3668200Y-215029300D02*
X-3609300Y-215107800D01*
X-3609300Y-215107800D02*
X-3543000Y-215180100D01*
X-3543000Y-215180100D02*
X-3469900Y-215245600D01*
X-3469900Y-215245600D02*
X-3390700Y-215303600D01*
X-3390700Y-215303600D02*
X-3306300Y-215353600D01*
X-3306300Y-215353600D02*
X-3217300Y-215395000D01*
X-3217300Y-215395000D02*
X-3124700Y-215427500D01*
X-3124700Y-215427500D02*
X-3029400Y-215450800D01*
X-3029400Y-215450800D02*
X-2932200Y-215464700D01*
X-2932200Y-215464700D02*
X-2834200Y-215468900D01*
X-2834200Y-215468900D02*
X-2736200Y-215463600D01*
X-2736200Y-215463600D02*
X-1399600Y-215324100D01*
X-1399600Y-215324100D02*
X-1375500Y-215322800D01*
X-1375500Y-215322800D02*
X-1359000Y-215332600D01*
X-1359000Y-215332600D02*
X-1317200Y-215360300D01*
X-1317200Y-215360300D02*
X-1236200Y-215404000D01*
X-1236200Y-215404000D02*
X-1151500Y-215440000D01*
X-1151500Y-215440000D02*
X-1063900Y-215468100D01*
X-1063900Y-215468100D02*
X-974100Y-215488000D01*
X-974100Y-215488000D02*
X-882800Y-215499600D01*
X-882800Y-215499600D02*
X-790900Y-215502700D01*
X-790900Y-215502700D02*
X-699000Y-215497400D01*
X-699000Y-215497400D02*
X26337290Y-212677190D01*
X26337290Y-212677190D02*
X26337290Y-218702700D01*
X26337290Y-218702700D02*
X-10915300Y-218702700D01*
X-10915300Y-218702700D02*
X-10915300Y-164124400D01*
X-10915300Y-164124400D02*
X-7715300Y-164124400D01*
X-7715300Y-164124400D02*
X-7715300Y-177256600D01*
X-2952700Y-55125500D02*
X-2953800Y-55148900D01*
X-2953800Y-55148900D02*
X-2977200Y-55150000D01*
X-2977200Y-55150000D02*
X-6715300Y-55150000D01*
X-6715300Y-55150000D02*
X-6813300Y-55154800D01*
X-6813300Y-55154800D02*
X-6910400Y-55169200D01*
X-6910400Y-55169200D02*
X-7005600Y-55193100D01*
X-7005600Y-55193100D02*
X-7098000Y-55226100D01*
X-7098000Y-55226100D02*
X-7186700Y-55268100D01*
X-7186700Y-55268100D02*
X-7270900Y-55318500D01*
X-7270900Y-55318500D02*
X-7349700Y-55377000D01*
X-7349700Y-55377000D02*
X-7422400Y-55442900D01*
X-7422400Y-55442900D02*
X-7488300Y-55515600D01*
X-7488300Y-55515600D02*
X-7546800Y-55594400D01*
X-7546800Y-55594400D02*
X-7597200Y-55678600D01*
X-7597200Y-55678600D02*
X-7639200Y-55767300D01*
X-7639200Y-55767300D02*
X-7672200Y-55859700D01*
X-7672200Y-55859700D02*
X-7696100Y-55954900D01*
X-7696100Y-55954900D02*
X-7710500Y-56052000D01*
X-7710500Y-56052000D02*
X-7715300Y-56150000D01*
X-7715300Y-56150000D02*
X-7715300Y-80175000D01*
X-7715300Y-80175000D02*
X-7710500Y-80273000D01*
X-7710500Y-80273000D02*
X-7696100Y-80370100D01*
X-7696100Y-80370100D02*
X-7672200Y-80465300D01*
X-7672200Y-80465300D02*
X-7639200Y-80557700D01*
X-7639200Y-80557700D02*
X-7597200Y-80646400D01*
X-7597200Y-80646400D02*
X-7546800Y-80730600D01*
X-7546800Y-80730600D02*
X-7488300Y-80809400D01*
X-7488300Y-80809400D02*
X-7422400Y-80882100D01*
X-7422400Y-80882100D02*
X-7349700Y-80948000D01*
X-7349700Y-80948000D02*
X-7270900Y-81006500D01*
X-7270900Y-81006500D02*
X-7186700Y-81056900D01*
X-7186700Y-81056900D02*
X-7098000Y-81098900D01*
X-7098000Y-81098900D02*
X-7005600Y-81131900D01*
X-7005600Y-81131900D02*
X-6910400Y-81155800D01*
X-6910400Y-81155800D02*
X-6813300Y-81170200D01*
X-6813300Y-81170200D02*
X-6715300Y-81175000D01*
X-6715300Y-81175000D02*
X-2977500Y-81175000D01*
X-2977500Y-81175000D02*
X-2954100Y-81176100D01*
X-2954100Y-81176100D02*
X-2953000Y-81199500D01*
X-2953000Y-81199500D02*
X-2953000Y-96250000D01*
X-2953000Y-96250000D02*
X-2948200Y-96348000D01*
X-2948200Y-96348000D02*
X-2933800Y-96445100D01*
X-2933800Y-96445100D02*
X-2909900Y-96540300D01*
X-2909900Y-96540300D02*
X-2876900Y-96632700D01*
X-2876900Y-96632700D02*
X-2834900Y-96721400D01*
X-2834900Y-96721400D02*
X-2784500Y-96805600D01*
X-2784500Y-96805600D02*
X-2726000Y-96884400D01*
X-2726000Y-96884400D02*
X-2660100Y-96957100D01*
X-2660100Y-96957100D02*
X-2587400Y-97023000D01*
X-2587400Y-97023000D02*
X-2508600Y-97081500D01*
X-2508600Y-97081500D02*
X-2424400Y-97131900D01*
X-2424400Y-97131900D02*
X-2335700Y-97173900D01*
X-2335700Y-97173900D02*
X-2243300Y-97206900D01*
X-2243300Y-97206900D02*
X-2148100Y-97230800D01*
X-2148100Y-97230800D02*
X-2051000Y-97245200D01*
X-2051000Y-97245200D02*
X-1953000Y-97250000D01*
X-1953000Y-97250000D02*
X26337290Y-97250000D01*
X26337290Y-97250000D02*
X26337290Y-109909300D01*
X26337290Y-109909300D02*
X21175400Y-110362000D01*
X21175400Y-110362000D02*
X21139700Y-110363400D01*
X21139700Y-110363400D02*
X21080800Y-110362500D01*
X21080800Y-110362500D02*
X20995700Y-110368600D01*
X20995700Y-110368600D02*
X20653200Y-110407600D01*
X20653200Y-110407600D02*
X20640300Y-110408900D01*
X20640300Y-110408900D02*
X19680500Y-110493000D01*
X19680500Y-110493000D02*
X19592200Y-110504800D01*
X19592200Y-110504800D02*
X19505200Y-110524300D01*
X19505200Y-110524300D02*
X19454300Y-110540700D01*
X19454300Y-110540700D02*
X19438500Y-110544900D01*
X19438500Y-110544900D02*
X19414700Y-110548700D01*
X19414700Y-110548700D02*
X-758300Y-112847200D01*
X-758300Y-112847200D02*
X-855200Y-112863100D01*
X-855200Y-112863100D02*
X-950000Y-112888400D01*
X-950000Y-112888400D02*
X-1041900Y-112922800D01*
X-1041900Y-112922800D02*
X-1129900Y-112966100D01*
X-1129900Y-112966100D02*
X-1213300Y-113017900D01*
X-1213300Y-113017900D02*
X-1291300Y-113077500D01*
X-1291300Y-113077500D02*
X-1362900Y-113144500D01*
X-1362900Y-113144500D02*
X-1427700Y-113218300D01*
X-1427700Y-113218300D02*
X-1485000Y-113298000D01*
X-1485000Y-113298000D02*
X-1534100Y-113382900D01*
X-1534100Y-113382900D02*
X-1574700Y-113472200D01*
X-1574700Y-113472200D02*
X-1606400Y-113565100D01*
X-1606400Y-113565100D02*
X-1628800Y-113660700D01*
X-1628800Y-113660700D02*
X-1641700Y-113758000D01*
X-1641700Y-113758000D02*
X-1645000Y-113856000D01*
X-1645000Y-113856000D02*
X-1638700Y-113954000D01*
X-1638700Y-113954000D02*
X388000Y-131742300D01*
X388000Y-131742300D02*
X389500Y-131765700D01*
X389500Y-131765700D02*
X366400Y-131769500D01*
X366400Y-131769500D02*
X-5828500Y-132475300D01*
X-5828500Y-132475300D02*
X-5924300Y-132490900D01*
X-5924300Y-132490900D02*
X-6018200Y-132515800D01*
X-6018200Y-132515800D02*
X-6109200Y-132549700D01*
X-6109200Y-132549700D02*
X-6196500Y-132592300D01*
X-6196500Y-132592300D02*
X-6279300Y-132643100D01*
X-6279300Y-132643100D02*
X-6356700Y-132701700D01*
X-6356700Y-132701700D02*
X-6428100Y-132767500D01*
X-6428100Y-132767500D02*
X-6492800Y-132840000D01*
X-6492800Y-132840000D02*
X-6550100Y-132918400D01*
X-6550100Y-132918400D02*
X-6599600Y-133001900D01*
X-6599600Y-133001900D02*
X-6640700Y-133089900D01*
X-6640700Y-133089900D02*
X-6673100Y-133181500D01*
X-6673100Y-133181500D02*
X-6696500Y-133275700D01*
X-6696500Y-133275700D02*
X-6710600Y-133371800D01*
X-6710600Y-133371800D02*
X-6715300Y-133468800D01*
X-6715300Y-133468800D02*
X-6715300Y-153232100D01*
X-6715300Y-153232100D02*
X-6716400Y-153255500D01*
X-6716400Y-153255500D02*
X-6764400Y-153257800D01*
X-6764400Y-153257800D02*
X-6859000Y-153267000D01*
X-6859000Y-153267000D02*
X-6952300Y-153285100D01*
X-6952300Y-153285100D02*
X-7043500Y-153312000D01*
X-7043500Y-153312000D02*
X-7131700Y-153347400D01*
X-7131700Y-153347400D02*
X-7216200Y-153391100D01*
X-7216200Y-153391100D02*
X-7296100Y-153442600D01*
X-7296100Y-153442600D02*
X-7370800Y-153501400D01*
X-7370800Y-153501400D02*
X-7439500Y-153567100D01*
X-7439500Y-153567100D02*
X-7501800Y-153639000D01*
X-7501800Y-153639000D02*
X-7556900Y-153716400D01*
X-7556900Y-153716400D02*
X-7604300Y-153798800D01*
X-7604300Y-153798800D02*
X-7643800Y-153885300D01*
X-7643800Y-153885300D02*
X-7674900Y-153975100D01*
X-7674900Y-153975100D02*
X-7697300Y-154067500D01*
X-7697300Y-154067500D02*
X-7710800Y-154161600D01*
X-7710800Y-154161600D02*
X-7715300Y-154256600D01*
X-7715300Y-154256600D02*
X-7715300Y-159124400D01*
X-7715300Y-159124400D02*
X-10915300Y-159124400D01*
X-10915300Y-159124400D02*
X-10915300Y-54367800D01*
X-10915300Y-54367800D02*
X-2952700Y-54367800D01*
X-2952700Y-54367800D02*
X-2952700Y-55125500D01*
X807000Y1995200D02*
X709900Y1980800D01*
X709900Y1980800D02*
X614700Y1956900D01*
X614700Y1956900D02*
X522300Y1923900D01*
X522300Y1923900D02*
X433600Y1881900D01*
X433600Y1881900D02*
X349400Y1831500D01*
X349400Y1831500D02*
X270600Y1773000D01*
X270600Y1773000D02*
X197900Y1707100D01*
X197900Y1707100D02*
X132000Y1634400D01*
X132000Y1634400D02*
X73500Y1555600D01*
X73500Y1555600D02*
X23100Y1471400D01*
X23100Y1471400D02*
X-18900Y1382700D01*
X-18900Y1382700D02*
X-51900Y1290300D01*
X-51900Y1290300D02*
X-75800Y1195100D01*
X-75800Y1195100D02*
X-90200Y1098000D01*
X-90200Y1098000D02*
X-95000Y1000000D01*
X-95000Y1000000D02*
X-95000Y-17025500D01*
X-95000Y-17025500D02*
X-96100Y-17048900D01*
X-96100Y-17048900D02*
X-119500Y-17050000D01*
X-119500Y-17050000D02*
X-999500Y-17050000D01*
X-999500Y-17050000D02*
X-1097500Y-17054800D01*
X-1097500Y-17054800D02*
X-1194600Y-17069200D01*
X-1194600Y-17069200D02*
X-1289800Y-17093100D01*
X-1289800Y-17093100D02*
X-1382200Y-17126100D01*
X-1382200Y-17126100D02*
X-1470900Y-17168100D01*
X-1470900Y-17168100D02*
X-1555100Y-17218500D01*
X-1555100Y-17218500D02*
X-1633900Y-17277000D01*
X-1633900Y-17277000D02*
X-1706600Y-17342900D01*
X-1706600Y-17342900D02*
X-1772500Y-17415600D01*
X-1772500Y-17415600D02*
X-1831000Y-17494400D01*
X-1831000Y-17494400D02*
X-1881400Y-17578600D01*
X-1881400Y-17578600D02*
X-1923400Y-17667300D01*
X-1923400Y-17667300D02*
X-1956400Y-17759700D01*
X-1956400Y-17759700D02*
X-1980300Y-17854900D01*
X-1980300Y-17854900D02*
X-1994700Y-17952000D01*
X-1994700Y-17952000D02*
X-1999500Y-18050000D01*
X-1999500Y-18050000D02*
X-1999500Y-36075500D01*
X-1999500Y-36075500D02*
X-2000600Y-36098900D01*
X-2000600Y-36098900D02*
X-2102700Y-36109000D01*
X-2102700Y-36109000D02*
X-2202000Y-36129300D01*
X-2202000Y-36129300D02*
X-2298800Y-36159500D01*
X-2298800Y-36159500D02*
X-2392100Y-36199400D01*
X-2392100Y-36199400D02*
X-2480800Y-36248500D01*
X-2480800Y-36248500D02*
X-2564100Y-36306300D01*
X-2564100Y-36306300D02*
X-2641100Y-36372300D01*
X-2641100Y-36372300D02*
X-2711000Y-36445800D01*
X-2711000Y-36445800D02*
X-2773100Y-36525900D01*
X-2773100Y-36525900D02*
X-2826800Y-36611900D01*
X-2826800Y-36611900D02*
X-2871500Y-36703000D01*
X-2871500Y-36703000D02*
X-2906700Y-36798000D01*
X-2906700Y-36798000D02*
X-2932200Y-36896200D01*
X-2932200Y-36896200D02*
X-2947600Y-36996400D01*
X-2947600Y-36996400D02*
X-2952700Y-37097700D01*
X-2952700Y-37097700D02*
X-2952700Y-49367800D01*
X-2952700Y-49367800D02*
X-10915300Y-49367800D01*
X-10915300Y-49367800D02*
X-10915300Y5210500D01*
X-10915300Y5210500D02*
X26337290Y5210500D01*
X26337290Y5210500D02*
X26337290Y2000000D01*
X26337290Y2000000D02*
X905000Y2000000D01*
X905000Y2000000D02*
X807000Y1995200D01*
M02*
