M48
; DRILL file KiCad 10.0.5 date 2026-10-05T15:10:33
; FORMAT={-:-/ absolute / metric / decimal}
; #@! TF.CreationDate,2026-10-05T15:10:33-04:00
; #@! TF.GenerationSoftware,Kicad,Pcbnew,10.0.5
; #@! TF.FileFunction,Plated,1,2,PTH
FMAT,2
METRIC
; #@! TA.AperFunction,Plated,PTH,ViaDrill
T1C0.300
%
G90
G05
T1
X3.429Y-75.814
X3.797Y-1.75
X4.893Y-48.227
X4.998Y-1.255
X5.047Y-45.554
X6.093Y-162.173
X6.367Y-163.216
X6.425Y-175.761
X6.73Y-3.45
X6.797Y-43.804
X6.797Y-53.554
X7.994Y-149.277
X8.055Y-141.496
X8.239Y-54.461
X8.873Y-46.727
X9.104Y-58.749
X9.147Y-41.404
X9.534Y-168.138
X9.679Y-87.589
X9.805Y-119.246
X10.025Y-168.867
X10.123Y-161.501
X10.166Y-167.342
X10.522Y-41.666
X11.224Y-46.413
X11.567Y-175.012
X12.055Y-116.996
X12.244Y-31.144
X12.871Y-121.342
X13.323Y-173.216
X13.347Y-43.204
X13.797Y-157.771
X13.797Y-161.521
X14.047Y-177.021
X14.172Y-40.712
X14.87Y-148.289
X14.917Y-126.86
X15.034Y-87.805
X15.047Y-156.771
X15.067Y-47.725
X15.187Y-71.844
X15.376Y-55.996
X15.397Y-23.482
X15.703Y-146.938
X15.747Y-40.804
X16.067Y-46.612
X16.169Y-158.266
X16.297Y-87.804
X16.347Y-39.304
X16.503Y-19.08
X16.577Y-12.433
X16.767Y-74.521
X16.805Y-154.246
X17.297Y-186.521
X17.5Y-45.003
X17.555Y-150.996
X17.647Y-183.763
X17.912Y-83.647
X17.947Y-30.436
X18.047Y-43.804
X18.318Y-90.306
X18.55Y-144.389
X18.659Y-31.477
X18.797Y-36.054
X18.86Y-45.475
X19.443Y-19.198
X19.747Y-75.624
X19.797Y-45.554
X19.797Y-91.554
X19.89Y-14.875
X20.047Y-43.304
X20.297Y-35.804
X20.297Y-40.804
X20.297Y-159.521
X20.459Y-19.732
X20.662Y-36.79
X20.719Y-22.775
X20.749Y-88.775
X20.797Y-90.554
X21.3Y-153.382
X21.447Y-39.304
X21.555Y-116.746
X21.555Y-134.496
X21.797Y-48.304
X21.806Y-132.459
X21.809Y-171.564
X22.047Y-162.271
X22.187Y-57.235
X22.305Y-158.496
X22.439Y-55.515
X22.716Y-189.992
X22.788Y-38.674
X23.218Y-169.017
X23.247Y-53.404
X23.472Y-82.269
X23.785Y-121.251
X23.847Y-41.704
X24.055Y-171.246
X24.177Y-50.64
X24.217Y-71.22
X24.641Y-119.785
X25.047Y-38.304
X25.047Y-88.054
X25.259Y-118.247
X25.305Y-128.746
X25.532Y-186.426
X25.797Y-207.771
X25.797Y-127.019
X26.259Y-3.375
X26.297Y-44.054
X26.847Y-38.704
X27.047Y-42.054
X27.147Y-53.404
X27.297Y-45.554
X27.357Y-150.041
X27.797Y-50.054
X27.797Y-52.054
X27.993Y-126.625
X28.055Y-152.996
X28.297Y-40.304
X28.547Y-36.804
X28.547Y-185.021
X28.717Y-151.446
X29.171Y-83.62
X29.241Y-156.093
X29.241Y-169.017
X29.297Y-35.804
X29.297Y-50.054
X29.547Y-35.054
X29.743Y-41.569
X29.797Y-43.304
X29.909Y-38.839
X29.92Y-87.986
X30.297Y-31.304
X30.374Y-36.03
X30.5Y-43.95
X30.747Y-34.204
X30.776Y-149.456
X30.805Y-113.746
X31.025Y-46.95
X31.285Y-55.627
X31.547Y-46.304
X31.634Y-48.432
X31.647Y-39.604
X32.159Y-119.021
X32.305Y-131.246
X32.343Y-79.374
X32.467Y-153.093
X32.547Y-46.304
X33.147Y-62.704
X33.244Y-145.21
X33.397Y-19.732
X33.447Y-53.404
X33.52Y-92.723
X33.547Y-49.554
X33.734Y-88.632
X33.875Y-128.29
X33.909Y-121.721
X34.047Y-40.304
X34.047Y-46.054
X34.173Y-41.2
X34.305Y-170.246
X34.44Y-129.529
X34.647Y-35.404
X34.741Y-183.763
X34.763Y-12.528
X34.845Y-31.78
X34.947Y-32.704
X34.947Y-40.95
X35.154Y-92.859
X35.201Y-47.595
X35.467Y-151.446
X35.492Y-177.321
X35.547Y-44.404
X35.797Y-61.054
X35.847Y-32.404
X35.847Y-33.904
X35.865Y-89.853
X35.942Y-184.364
X35.953Y-122.876
X36.047Y-52.804
X36.142Y-35.938
X36.297Y-39.554
X36.797Y-31.054
X36.805Y-145.996
X36.9Y-41.7
X36.9Y-43.285
X36.965Y-6.026
X37.297Y-53.304
X37.455Y-32.675
X37.555Y-150.246
X37.555Y-175.746
X37.688Y-45.505
X37.714Y-35.603
X37.797Y-63.054
X37.889Y-19.732
X38.462Y-186.082
X38.755Y-79.55
X38.758Y-38.717
X39.698Y-170.608
X39.797Y-126.771
X39.805Y-111.996
X40.047Y-41.554
X40.297Y-180.021
X40.555Y-130.996
X40.587Y-46.008
X41.191Y-83.7
X41.348Y-186.971
X41.405Y-89.392
X41.585Y-51.813
X42.237Y-56.147
X42.297Y-39.304
X42.389Y-3.041
X42.579Y-141.391
X42.675Y-166.15
X42.797Y-167.271
X42.905Y-31.78
X43.055Y-168.246
X43.33Y-19.732
X43.38Y-60.933
X43.805Y-127.496
X43.837Y-159.696
X43.908Y-132.588
X44.547Y-159.271
X44.587Y-168.267
X45.047Y-22.804
X45.047Y-24.804
X45.337Y-153.907
X45.476Y-159.172
X45.531Y-183.553
X45.88Y-3.041
X46.126Y-23.873
X46.251Y-48.742
X46.305Y-148.246
X46.404Y-86.695
X46.515Y-34.205
X46.642Y-141.051
X46.797Y-167.271
X46.797Y-184.521
X46.833Y-135.053
X46.992Y-82.404
X47.297Y-63.054
X47.771Y-15.539
X47.805Y-113.246
X47.923Y-14.605
X48.283Y-112.279
X48.337Y-164.665
X48.615Y-51.929
X49.167Y-133.562
X49.234Y-35.041
X49.885Y-139.728
X50.055Y-111.246
X50.805Y-162.246
X51.06Y-164.932
X51.274Y-91.66
X51.547Y-34.304
X51.805Y-131.246
X51.821Y-149.67
X51.873Y-77.096
X52.223Y-173.635
X52.347Y-62.404
X52.547Y-127.021
X52.597Y-37.1
X52.689Y-38.732
X52.759Y-166.597
X52.864Y-74.035
X52.915Y-80.066
X53.055Y-167.496
X53.665Y-89.816
X53.731Y-10.883
X54.003Y-74.022
X54.195Y-4.428
X54.305Y-148.746
X54.605Y-198.405
X54.784Y-133.989
X54.797Y-37.554
X55.018Y-6.845
X55.055Y-143.496
X55.297Y-38.804
X55.416Y-67.698
X55.759Y-178.767
X55.896Y-58.701
X56.287Y-173.56
X56.305Y-172.996
X56.519Y-116.868
X56.78Y-32.706
X57.09Y-15.775
X57.856Y-36.752
X57.978Y-154.091
X58.069Y-121.452
X58.373Y-72.325
X58.831Y-15.308
X58.897Y-192.121
X59.055Y-112.246
X59.271Y-173.41
X59.305Y-128.996
X59.493Y-191.349
X59.583Y-176.617
X60.12Y-129.273
X61.034Y-65.829
X61.172Y-30.13
X61.46Y-52.709
X61.547Y-183.771
X61.748Y-122.993
X61.811Y-31.483
X62.271Y-165.415
X62.305Y-125.496
X62.305Y-168.496
X62.546Y-49.548
X63.021Y-178.767
X63.047Y-61.804
X63.261Y-195.638
X63.449Y-183.254
X63.547Y-194.521
X63.547Y-196.521
X63.623Y-73.825
X63.669Y-140.618
X64.047Y-164.021
X64.271Y-139.013
X64.285Y-3.331
X64.547Y-60.304
X64.547Y-61.304
X64.547Y-124.021
X65.259Y-69.088
X65.468Y-50.909
X65.547Y-191.021
X65.555Y-146.746
X65.797Y-183.271
X65.815Y-159.862
X65.84Y-172.347
X66.047Y-162.021
X66.276Y-81.522
X66.56Y-110.868
X66.747Y-62.704
X67.023Y-177.917
X67.273Y-10.742
X67.297Y-162.521
X67.297Y-164.771
X67.521Y-148.441
X67.547Y-160.521
X67.547Y-166.521
X67.606Y-178.474
X68.227Y-64.236
X68.297Y-166.271
X68.297Y-168.021
X68.297Y-174.521
X68.805Y-160.496
X69.023Y-55.411
X69.047Y-170.271
X69.047Y-174.021
X69.047Y-193.271
X69.297Y-63.554
X69.297Y-175.521
X69.297Y-183.271
X69.578Y-70.26
X69.647Y-68.654
X69.733Y-173.223
X69.797Y-167.021
X69.805Y-109.246
X70.0Y-79.5
X70.047Y-62.554
X70.047Y-189.521
X70.051Y-175.996
X70.114Y-75.535
X70.297Y-187.521
X70.547Y-59.804
X70.555Y-168.746
X70.656Y-167.665
X70.935Y-26.357
X70.973Y-81.522
X71.009Y-86.505
X71.047Y-164.271
X71.047Y-170.021
X71.273Y-37.086
X71.297Y-168.271
X71.507Y-66.889
X72.047Y-190.271
X72.297Y-161.521
X72.297Y-162.521
X72.297Y-177.271
X72.435Y-72.528
X72.679Y-83.488
X72.797Y-77.304
X72.805Y-113.996
X72.998Y-147.15
X73.047Y-58.804
X73.447Y-87.154
X73.766Y-184.479
X73.896Y-88.634
X74.047Y-76.804
X74.055Y-149.246
X74.125Y-4.752
X74.245Y-82.613
X74.273Y-25.489
X74.297Y-153.021
X74.406Y-148.465
X74.547Y-164.521
X74.547Y-185.271
X74.57Y-195.567
X74.64Y-70.337
X74.675Y-151.822
X74.797Y-66.304
X74.797Y-157.021
X74.797Y-177.271
X75.044Y-83.173
X75.138Y-186.625
X75.297Y-168.521
X75.547Y-61.054
X75.547Y-81.554
X75.572Y-147.755
X75.625Y-20.482
X75.797Y-82.554
X76.047Y-167.021
X76.179Y-171.665
X76.344Y-182.296
X76.422Y-159.227
X76.646Y-22.969
X76.797Y-167.771
X76.797Y-176.121
X76.87Y-162.239
X77.297Y-90.054
X77.379Y-170.355
X77.938Y-91.28
X78.047Y-161.771
X78.047Y-166.771
X78.457Y-83.276
X78.492Y-37.22
X78.533Y-131.744
X78.797Y-78.304
X79.047Y-200.771
X79.263Y-124.194
X79.305Y-127.746
X80.047Y-170.271
X80.047Y-176.021
X80.146Y-26.03
X80.567Y-166.334
X80.742Y-81.774
X81.555Y-124.246
X81.797Y-167.021
X81.823Y-122.604
X81.904Y-164.665
X82.327Y-166.404
X82.336Y-73.499
X82.547Y-155.271
X82.547Y-163.021
X83.047Y-161.771
X83.547Y-165.021
X83.547Y-174.271
X83.977Y-22.201
X84.055Y-177.996
X84.547Y-5.804
X84.698Y-159.801
X84.797Y-172.771
X85.047Y-89.754
X85.047Y-158.271
X85.297Y-171.271
X85.297Y-176.021
X85.297Y-194.521
X85.305Y-147.996
X85.547Y-58.054
X85.797Y-172.771
X85.995Y-110.252
X86.047Y-149.771
X86.227Y-52.253
X86.781Y-158.778
X87.029Y-144.269
X87.396Y-41.481
X87.805Y-160.246
X88.047Y-168.271
X88.171Y-147.378
X88.204Y-138.868
X88.896Y-23.481
X89.23Y-142.083
X89.305Y-108.746
X89.547Y-58.054
X89.547Y-92.554
X89.805Y-167.746
X89.997Y-9.254
X90.165Y-67.965
X90.434Y-59.879
X90.509Y-180.488
X90.547Y-154.021
X90.555Y-126.996
X90.626Y-72.232
X90.651Y-46.84
X91.267Y-185.416
X91.462Y-159.378
X91.64Y-20.831
X92.032Y-145.212
X92.055Y-113.496
X92.291Y-12.746
X92.593Y-130.304
X92.671Y-144.663
X92.681Y-24.451
X93.551Y-144.275
X93.626Y-69.982
X93.826Y-6.957
X94.019Y-191.558
X94.419Y-32.486
X94.555Y-146.746
X94.674Y-66.397
X94.797Y-36.554
X94.797Y-131.521
X94.797Y-145.021
X94.797Y-158.271
X95.458Y-20.482
X95.547Y-131.271
X96.272Y-124.318
X96.346Y-131.676
X96.797Y-146.771
X97.211Y-120.544
X97.576Y-41.509
X98.067Y-190.216
X98.197Y-29.104
X98.305Y-110.746
X98.305Y-127.746
X98.547Y-125.021
X98.562Y-57.595
X98.797Y-140.021
X99.022Y-180.881
X99.174Y-71.006
X99.195Y-124.233
X99.297Y-145.271
X99.327Y-39.926
X99.41Y-90.511
X99.547Y-139.271
X99.559Y-194.634
X100.047Y-140.521
X100.055Y-122.246
X100.383Y-164.392
X100.547Y-142.021
X100.982Y-66.218
X101.047Y-125.021
X101.547Y-136.271
X102.37Y-120.398
X102.482Y-68.756
X102.547Y-149.771
X102.88Y-137.591
X102.882Y-155.409
X102.941Y-172.167
X102.966Y-192.352
X103.047Y-196.271
X103.055Y-181.746
X103.055Y-200.746
X103.291Y-62.415
X103.297Y-151.271
X103.316Y-189.105
X103.339Y-153.121
X103.864Y-170.912
X104.297Y-159.021
X105.633Y-167.392
X105.797Y-18.554
X105.797Y-146.021
X105.963Y-111.831
X105.975Y-110.449
X106.047Y-196.271
X106.055Y-149.746
X106.547Y-149.021
X106.745Y-47.308
X106.797Y-145.021
X106.797Y-150.021
X107.055Y-186.996
X107.068Y-177.625
X107.264Y-138.787
X107.547Y-148.021
X107.697Y-69.884
X107.797Y-26.304
X107.805Y-162.496
X107.805Y-200.746
X108.047Y-21.804
X108.047Y-158.271
X108.285Y-27.176
X108.297Y-148.521
X108.38Y-161.665
X108.535Y-189.063
X108.547Y-142.771
X108.755Y-141.556
X108.797Y-155.771
X108.805Y-186.996
X108.922Y-121.999
X108.999Y-80.868
X109.047Y-127.771
X109.067Y-16.181
X109.297Y-151.271
X109.336Y-190.762
X109.355Y-128.933
X109.512Y-148.391
X109.601Y-158.271
X109.797Y-130.771
X109.805Y-131.996
X109.938Y-27.015
X110.0Y-117.621
X110.047Y-145.771
X110.047Y-152.021
X110.297Y-146.771
X110.297Y-161.771
X110.305Y-170.746
X110.547Y-160.521
X110.797Y-144.771
X111.182Y-129.136
X111.203Y-177.625
X111.251Y-35.337
X111.254Y-186.738
X111.46Y-114.073
X111.479Y-162.762
X111.592Y-153.041
X111.7Y-119.221
X111.797Y-22.304
X112.1Y-111.921
X112.1Y-113.521
X112.797Y-133.771
X112.797Y-148.521
X112.884Y-140.018
X112.892Y-153.041
X112.946Y-142.327
X113.142Y-158.826
X113.297Y-155.021
X113.297Y-156.021
X113.567Y-147.716
X113.615Y-117.959
X113.817Y-153.216
X113.854Y-194.632
X114.567Y-154.516
X114.759Y-116.818
X115.047Y-130.771
X115.047Y-141.021
X115.047Y-157.771
X115.133Y-159.421
X115.149Y-146.417
X115.297Y-184.521
X115.305Y-144.246
X115.498Y-112.721
X115.777Y-155.13
X116.047Y-97.304
X116.125Y-149.732
X116.16Y-57.592
X116.259Y-59.693
X116.297Y-142.521
X116.5Y-118.321
X116.547Y-157.771
X117.054Y-150.71
X117.055Y-152.246
X117.055Y-174.31
X117.184Y-61.205
X117.198Y-114.521
X117.216Y-175.074
X117.216Y-200.553
X117.297Y-154.521
X117.382Y-97.105
X117.697Y-79.389
X117.797Y-157.771
X118.048Y-155.044
X118.259Y-196.004
X118.318Y-162.746
X118.434Y-147.013
X118.493Y-113.721
X118.547Y-143.021
X118.547Y-156.521
X118.886Y-151.246
X118.925Y-121.441
X119.047Y-145.521
X119.366Y-108.623
X119.433Y-118.479
X119.529Y-38.2
X119.68Y-176.294
X120.055Y-189.246
X120.547Y-153.271
X120.785Y-158.065
X120.805Y-167.746
X120.821Y-196.12
X120.848Y-114.121
X120.953Y-162.153
X121.047Y-179.521
X121.609Y-118.501
X121.872Y-161.171
X121.905Y-165.284
X122.055Y-200.746
X122.062Y-179.531
X122.305Y-129.746
X122.308Y-95.05
X122.428Y-74.194
X122.607Y-55.968
X122.919Y-38.247
X122.978Y-141.358
X123.047Y-84.804
X123.047Y-94.804
X123.055Y-145.996
X123.055Y-186.996
X123.074Y-67.65
X123.297Y-139.021
X124.067Y-161.216
X124.072Y-174.366
X124.116Y-163.007
X124.462Y-113.116
X124.797Y-20.054
X124.913Y-140.416
X125.101Y-156.385
X125.805Y-151.996
X125.805Y-170.746
X125.967Y-63.859
X126.811Y-74.194
X127.797Y-118.771
X127.805Y-182.996
X128.297Y-19.054
X128.313Y-79.597
X128.403Y-133.018
X128.605Y-114.621
X128.805Y-189.246
X129.03Y-117.841
X129.285Y-39.176
X129.297Y-156.521
X129.351Y-25.682
X129.363Y-18.648
X129.797Y-162.521
X129.805Y-164.996
X130.047Y-159.521
X130.047Y-175.121
X130.247Y-65.1
X130.407Y-188.716
X131.014Y-181.09
X131.267Y-194.316
X131.297Y-161.021
X131.297Y-180.019
X131.519Y-67.182
X131.55Y-178.828
X131.669Y-58.046
X131.843Y-138.729
X132.047Y-157.771
X132.89Y-194.634
X133.305Y-153.746
X133.347Y-168.821
X133.555Y-131.996
X133.696Y-141.413
X133.805Y-194.746
X134.055Y-162.496
X134.055Y-181.746
X134.344Y-34.966
X134.515Y-62.414
X134.547Y-159.271
X134.622Y-153.741
X135.238Y-183.367
X135.293Y-54.772
X135.297Y-156.521
X135.305Y-143.496
X135.305Y-170.746
X135.316Y-40.134
X135.797Y-150.521
X136.047Y-157.771
X136.266Y-198.248
X136.305Y-200.746
X136.547Y-159.271
X136.629Y-46.165
X136.757Y-122.355
X136.931Y-163.391
X137.486Y-61.024
X137.491Y-54.068
X137.547Y-56.054
X137.955Y-156.084
X138.305Y-124.496
X138.547Y-49.304
X138.547Y-160.271
X140.555Y-189.246
X141.055Y-200.746
X141.131Y-157.136
X141.185Y-60.978
X141.547Y-158.771
X141.805Y-153.746
X141.951Y-198.248
X142.966Y-160.964
X143.555Y-181.746
M30
