M48
; DRILL file KiCad 10.0.5 date 2026-09-12T13:40:35
; FORMAT={-:-/ absolute / metric / decimal}
; #@! TF.CreationDate,2026-09-12T13:40:35-04:00
; #@! TF.GenerationSoftware,Kicad,Pcbnew,10.0.5
; #@! TF.FileFunction,NonPlated,1,2,NPTH
FMAT,2
METRIC
; #@! TA.AperFunction,NonPlated,NPTH,ComponentDrill
T1C0.500
; #@! TA.AperFunction,NonPlated,NPTH,ComponentDrill
T2C1.750
; #@! TA.AperFunction,NonPlated,NPTH,ComponentDrill
T3C2.000
; #@! TA.AperFunction,NonPlated,NPTH,ComponentDrill
T4C3.048
; #@! TA.AperFunction,NonPlated,NPTH,ComponentDrill
T5C3.988
%
G90
G05
T1
X-7.715Y-160.124
X-7.715Y-160.874
X-7.715Y-161.624
X-7.715Y-162.374
X-7.715Y-163.124
X-2.953Y-50.368
X-2.953Y-51.118
X-2.953Y-51.868
X-2.953Y-52.618
X-2.953Y-53.368
X27.337Y2.0
X27.337Y-103.47
X27.337Y-212.416
X28.087Y2.0
X28.087Y-103.47
X28.087Y-212.416
X28.837Y2.0
X28.837Y-103.47
X28.837Y-212.416
X29.587Y2.0
X29.587Y-103.47
X29.587Y-212.416
X30.337Y2.0
X30.337Y-103.47
X30.337Y-212.416
X70.247Y1.978
X70.247Y-102.53
X70.247Y-207.038
X70.997Y1.978
X70.997Y-102.53
X70.997Y-207.038
X71.747Y1.978
X71.747Y-102.53
X71.747Y-207.038
X72.497Y1.978
X72.497Y-102.53
X72.497Y-207.038
X73.247Y1.978
X73.247Y-102.53
X73.247Y-207.038
X113.156Y0.067
X113.156Y-105.208
X113.156Y-207.007
X113.906Y0.067
X113.906Y-105.208
X113.906Y-207.007
X114.656Y0.067
X114.656Y-105.208
X114.656Y-207.007
X115.406Y0.067
X115.406Y-105.208
X115.406Y-207.007
X116.156Y0.067
X116.156Y-105.208
X116.156Y-207.007
X146.446Y-160.124
X146.446Y-160.874
X146.446Y-161.624
X146.446Y-162.374
X146.446Y-163.124
X151.209Y-50.368
X151.209Y-51.118
X151.209Y-51.868
X151.209Y-52.618
X151.209Y-53.368
T2
X2.525Y-148.105
X3.675Y-138.01
X8.572Y-80.645
X8.572Y-90.805
X10.429Y-128.154
X10.954Y-42.545
X10.954Y-52.705
X11.43Y-4.445
X11.43Y-14.605
X11.579Y-118.059
X13.335Y-80.645
X13.335Y-90.805
X13.526Y-184.957
X14.288Y-23.495
X14.288Y-33.655
X14.671Y-174.862
X15.716Y-42.545
X15.716Y-52.705
X15.716Y-61.595
X15.716Y-71.755
X17.543Y-203.767
X18.597Y-193.662
X18.741Y-165.352
X19.85Y-155.253
X22.953Y-145.881
X24.01Y-135.776
X27.622Y-80.645
X27.622Y-90.805
X30.48Y-4.445
X30.48Y-14.605
X31.48Y-126.049
X32.368Y-115.928
X34.693Y-182.938
X35.505Y-172.811
X38.1Y-23.495
X38.1Y-33.655
X40.04Y-163.508
X40.725Y-153.371
X41.91Y-42.545
X41.91Y-52.705
X41.91Y-80.645
X41.91Y-90.805
X44.284Y-144.201
X44.869Y-134.058
X46.673Y-61.595
X46.673Y-71.755
X46.673Y-80.645
X46.673Y-90.805
X49.53Y-4.445
X49.53Y-14.605
X52.659Y-124.767
X53.046Y-114.614
X55.76Y-181.814
X55.891Y-200.997
X56.074Y-171.659
X56.206Y-190.842
X57.15Y-23.495
X57.15Y-33.655
X60.821Y-162.642
X60.96Y-42.545
X60.96Y-52.705
X61.016Y-152.484
X64.742Y-143.521
X64.86Y-133.362
X65.726Y-61.6
X65.732Y-71.76
X68.591Y-4.465
X68.613Y-14.625
X72.501Y-124.382
X72.523Y-114.222
X75.382Y-181.517
X75.387Y-171.357
X76.255Y-23.605
X76.373Y-33.765
X80.097Y-42.727
X80.154Y-152.302
X80.154Y-162.462
X80.293Y-52.885
X83.964Y-133.252
X83.964Y-143.412
X84.906Y-81.086
X85.04Y-61.902
X85.222Y-91.242
X85.354Y-72.058
X88.068Y-4.857
X88.456Y-15.009
X91.584Y-114.202
X91.584Y-124.362
X94.441Y-171.352
X94.441Y-181.512
X94.441Y-190.402
X94.441Y-200.562
X96.244Y-24.301
X96.83Y-34.445
X99.203Y-152.302
X99.203Y-162.462
X99.203Y-190.402
X99.203Y-200.562
X100.388Y-43.614
X101.074Y-53.75
X103.014Y-133.252
X103.014Y-143.412
X105.608Y-63.054
X106.42Y-73.182
X108.745Y-6.172
X109.633Y-16.294
X110.634Y-114.202
X110.634Y-124.362
X113.491Y-171.352
X113.491Y-181.512
X113.491Y-190.402
X113.491Y-200.562
X117.103Y-26.019
X118.159Y-36.123
X120.159Y-114.202
X120.159Y-124.362
X121.263Y-45.495
X122.373Y-55.595
X122.516Y-83.903
X123.57Y-94.009
X125.397Y-152.302
X125.397Y-162.462
X125.397Y-171.352
X125.397Y-181.512
X126.444Y-65.105
X126.826Y-133.252
X126.826Y-143.412
X127.588Y-75.201
X127.779Y-190.402
X127.779Y-200.562
X129.534Y-8.303
X129.684Y-114.202
X129.684Y-124.362
X130.684Y-18.397
X132.541Y-190.402
X132.541Y-200.562
X134.922Y-171.352
X134.922Y-181.512
X137.44Y-28.254
X138.59Y-38.348
T3
X-13.415Y-59.963
X-13.415Y-153.529
X156.909Y-59.963
X156.909Y-153.529
T4
X3.81Y-59.69
X6.952Y-190.532
X27.622Y-59.69
X30.636Y-193.003
X108.252Y-112.297
X110.476Y-83.244
X113.49Y-169.447
X132.065Y-112.297
X134.16Y-80.773
X137.303Y-169.447
T5
X3.81Y-74.93
X5.371Y-205.69
X27.622Y-74.93
X29.055Y-208.16
X108.252Y-127.537
X112.057Y-98.402
X113.49Y-184.687
X132.065Y-127.537
X135.741Y-95.931
X137.303Y-184.687
M30
