%TF.GenerationSoftware,KiCad,Pcbnew,10.0.5*%
%TF.CreationDate,2026-09-21T10:22:00-04:00*%
%TF.ProjectId,Symm60HE-Panel,53796d6d-3630-4484-952d-50616e656c2e,rev?*%
%TF.SameCoordinates,Original*%
%TF.FileFunction,Soldermask,Bot*%
%TF.FilePolarity,Negative*%
%FSLAX46Y46*%
G04 Gerber Fmt 4.6, Leading zero omitted, Abs format (unit mm)*
G04 Created by KiCad (PCBNEW 10.0.5) date 2026-09-21 10:22:00*
%MOMM*%
%LPD*%
G01*
G04 APERTURE LIST*
G04 Aperture macros list*
%AMRoundRect*
0 Rectangle with rounded corners*
0 $1 Rounding radius*
0 $2 $3 $4 $5 $6 $7 $8 $9 X,Y pos of 4 corners*
0 Add a 4 corners polygon primitive as box body*
4,1,4,$2,$3,$4,$5,$6,$7,$8,$9,$2,$3,0*
0 Add four circle primitives for the rounded corners*
1,1,$1+$1,$2,$3*
1,1,$1+$1,$4,$5*
1,1,$1+$1,$6,$7*
1,1,$1+$1,$8,$9*
0 Add four rect primitives between the rounded corners*
20,1,$1+$1,$2,$3,$4,$5,0*
20,1,$1+$1,$4,$5,$6,$7,0*
20,1,$1+$1,$6,$7,$8,$9,0*
20,1,$1+$1,$8,$9,$2,$3,0*%
G04 Aperture macros list end*
%ADD10C,3.048000*%
%ADD11C,3.987800*%
%ADD12C,2.200000*%
%ADD13RoundRect,0.140000X-0.140000X-0.170000X0.140000X-0.170000X0.140000X0.170000X-0.140000X0.170000X0*%
%ADD14RoundRect,0.150000X-0.150000X0.512500X-0.150000X-0.512500X0.150000X-0.512500X0.150000X0.512500X0*%
%ADD15RoundRect,0.140000X-0.134676X-0.174248X0.145190X-0.165590X0.134676X0.174248X-0.145190X0.165590X0*%
%ADD16RoundRect,0.140000X-0.140362X-0.169702X0.139638X-0.170298X0.140362X0.169702X-0.139638X0.170298X0*%
%ADD17RoundRect,0.150000X-0.148908X0.512818X-0.151091X-0.512179X0.148908X-0.512818X0.151091X0.512179X0*%
%ADD18RoundRect,0.140000X-0.124613X-0.181581X0.154317X-0.157119X0.124613X0.181581X-0.154317X0.157119X0*%
%ADD19RoundRect,0.150000X0.150000X-0.825000X0.150000X0.825000X-0.150000X0.825000X-0.150000X-0.825000X0*%
%ADD20RoundRect,0.140000X-0.125969X-0.180643X0.153136X-0.158270X0.125969X0.180643X-0.153136X0.158270X0*%
%ADD21RoundRect,0.140000X-0.136705X-0.172661X0.143244X-0.167276X0.136705X0.172661X-0.143244X0.167276X0*%
%ADD22RoundRect,0.140000X-0.151152X-0.160166X0.128210X-0.179059X0.151152X0.160166X-0.128210X0.179059X0*%
%ADD23RoundRect,0.150000X-0.144042X0.514206X-0.155938X-0.510725X0.144042X-0.514206X0.155938X0.510725X0*%
%ADD24RoundRect,0.140000X-0.140089X-0.169927X0.139911X-0.170073X0.140089X0.169927X-0.139911X0.170073X0*%
%ADD25RoundRect,0.205000X-0.484877X-0.166790X0.452117X-0.241899X0.484877X0.166790X-0.452117X0.241899X0*%
%ADD26RoundRect,0.140000X-0.149559X-0.161654X0.129976X-0.177782X0.149559X0.161654X-0.129976X0.177782X0*%
%ADD27RoundRect,0.140000X-0.121556X-0.183641X0.156925X-0.154514X0.121556X0.183641X-0.156925X0.154514X0*%
%ADD28RoundRect,0.205000X-0.476114X-0.190368X0.463436X-0.219435X0.476114X0.190368X-0.463436X0.219435X0*%
%ADD29RoundRect,0.150000X-0.130351X0.517846X-0.169431X-0.506408X0.130351X-0.517846X0.169431X0.506408X0*%
%ADD30RoundRect,0.140000X-0.145190X-0.165590X0.134676X-0.174248X0.145190X0.165590X-0.134676X0.174248X0*%
%ADD31RoundRect,0.140000X-0.119955X-0.184691X0.158262X-0.153144X0.119955X0.184691X-0.158262X0.153144X0*%
%ADD32RoundRect,0.140000X-0.119856X-0.184756X0.158345X-0.153059X0.119856X0.184756X-0.158345X0.153059X0*%
%ADD33RoundRect,0.140000X-0.139638X-0.170298X0.140362X-0.169702X0.139638X0.170298X-0.140362X0.169702X0*%
%ADD34RoundRect,0.140000X-0.158345X-0.153059X0.119856X-0.184756X0.158345X0.153059X-0.119856X0.184756X0*%
%ADD35RoundRect,0.140000X-0.154317X-0.157119X0.124613X-0.181581X0.154317X0.157119X-0.124613X0.181581X0*%
%ADD36RoundRect,0.205000X-0.489572X-0.152460X0.444809X-0.255089X0.489572X0.152460X-0.444809X0.255089X0*%
%ADD37RoundRect,0.150000X-0.120232X0.520289X-0.179270X-0.503009X0.120232X-0.520289X0.179270X0.503009X0*%
%ADD38RoundRect,0.140000X-0.138018X-0.171613X0.141964X-0.168364X0.138018X0.171613X-0.141964X0.168364X0*%
%ADD39RoundRect,0.205000X-0.477474X-0.186932X0.461842X-0.222770X0.477474X0.186932X-0.461842X0.222770X0*%
%ADD40RoundRect,0.140000X-0.120603X-0.184269X0.157724X-0.153699X0.120603X0.184269X-0.157724X0.153699X0*%
%ADD41RoundRect,0.140000X-0.145207X-0.165574X0.134658X-0.174262X0.145207X0.165574X-0.134658X0.174262X0*%
%ADD42RoundRect,0.150000X-0.115077X0.521453X-0.184239X-0.501211X0.115077X-0.521453X0.184239X0.501211X0*%
%ADD43RoundRect,0.150000X-0.134026X0.516907X-0.165829X-0.507599X0.134026X-0.516907X0.165829X0.507599X0*%
%ADD44RoundRect,0.140000X-0.134658X-0.174262X0.145207X-0.165574X0.134658X0.174262X-0.145207X0.165574X0*%
%ADD45RoundRect,0.150000X-0.091019X0.526186X-0.207052X-0.492225X0.091019X-0.526186X0.207052X0.492225X0*%
%ADD46RoundRect,0.205000X-0.470000X-0.205000X0.470000X-0.205000X0.470000X0.205000X-0.470000X0.205000X0*%
%ADD47RoundRect,0.140000X-0.158262X-0.153144X0.119955X-0.184691X0.158262X0.153144X-0.119955X0.184691X0*%
%ADD48RoundRect,0.140000X-0.133417X-0.175214X0.146380X-0.164539X0.133417X0.175214X-0.146380X0.164539X0*%
%ADD49RoundRect,0.150000X-0.149732X0.512578X-0.150268X-0.512421X0.149732X-0.512578X0.150268X0.512421X0*%
%ADD50RoundRect,0.205000X-0.476134X-0.190319X0.463413X-0.219484X0.476134X0.190319X-0.463413X0.219484X0*%
%ADD51RoundRect,0.150000X-0.950000X0.150000X-0.950000X-0.150000X0.950000X-0.150000X0.950000X0.150000X0*%
%ADD52RoundRect,0.360000X-0.940000X0.540000X-0.940000X-0.540000X0.940000X-0.540000X0.940000X0.540000X0*%
%ADD53RoundRect,0.205000X-0.470107X-0.204754X0.469893X-0.205246X0.470107X0.204754X-0.469893X0.205246X0*%
%ADD54RoundRect,0.205000X-0.490185X-0.150477X0.443772X-0.256888X0.490185X0.150477X-0.443772X0.256888X0*%
%ADD55RoundRect,0.205000X-0.470435X-0.203999X0.469562X-0.206000X0.470435X0.203999X-0.469562X0.206000X0*%
%ADD56RoundRect,0.205000X-0.481027X-0.177588X0.457412X-0.231731X0.481027X0.177588X-0.457412X0.231731X0*%
%ADD57RoundRect,0.205000X-0.482761X-0.172819X0.455096X-0.236246X0.482761X0.172819X-0.455096X0.236246X0*%
%ADD58RoundRect,0.140000X-0.146380X-0.164539X0.133417X-0.175214X0.146380X0.164539X-0.133417X0.175214X0*%
%ADD59RoundRect,0.150000X-0.134081X0.516893X-0.165776X-0.507617X0.134081X-0.516893X0.165776X0.507617X0*%
%ADD60RoundRect,0.140000X-0.153136X-0.158270X0.125969X-0.180643X0.153136X0.158270X-0.125969X0.180643X0*%
%ADD61RoundRect,0.205000X-0.472348X-0.199531X0.467589X-0.210441X0.472348X0.199531X-0.467589X0.210441X0*%
%ADD62RoundRect,0.140000X-0.156925X-0.154514X0.121556X-0.183641X0.156925X0.154514X-0.121556X0.183641X0*%
%ADD63RoundRect,0.150000X-0.091304X0.526137X-0.206786X-0.492337X0.091304X-0.526137X0.206786X0.492337X0*%
%ADD64RoundRect,0.140000X-0.157724X-0.153699X0.120603X-0.184269X0.157724X0.153699X-0.120603X0.184269X0*%
%ADD65RoundRect,0.140000X-0.129976X-0.177782X0.149559X-0.161654X0.129976X0.177782X-0.149559X0.161654X0*%
%ADD66RoundRect,0.140000X-0.128210X-0.179059X0.151152X-0.160166X0.128210X0.179059X-0.151152X0.160166X0*%
%ADD67RoundRect,0.140000X-0.139911X-0.170073X0.140089X-0.169927X0.139911X0.170073X-0.140089X0.169927X0*%
%ADD68RoundRect,0.140000X-0.143244X-0.167276X0.136705X-0.172661X0.143244X0.167276X-0.136705X0.172661X0*%
%ADD69RoundRect,0.150000X-0.093149X0.525813X-0.205058X-0.493059X0.093149X-0.525813X0.205058X0.493059X0*%
%ADD70RoundRect,0.150000X-0.096020X0.525296X-0.202361X-0.494172X0.096020X-0.525296X0.202361X0.494172X0*%
%ADD71RoundRect,0.205000X-0.473856X-0.195923X0.465970X-0.214001X0.473856X0.195923X-0.465970X0.214001X0*%
%ADD72RoundRect,0.150000X-0.140116X0.515290X-0.159829X-0.509520X0.140116X-0.515290X0.159829X0.509520X0*%
%ADD73RoundRect,0.140000X-0.156882X-0.154558X0.121607X-0.183607X0.156882X0.154558X-0.121607X0.183607X0*%
%ADD74RoundRect,0.150000X-0.095873X0.525323X-0.202499X-0.494116X0.095873X-0.525323X0.202499X0.494116X0*%
%ADD75RoundRect,0.150000X-0.108570X0.522847X-0.190471X-0.498876X0.108570X-0.522847X0.190471X0.498876X0*%
%ADD76RoundRect,0.150000X-0.104652X0.523645X-0.194201X-0.497436X0.104652X-0.523645X0.194201X0.497436X0*%
%ADD77RoundRect,0.205000X-0.488732X-0.155133X0.446196X-0.252655X0.488732X0.155133X-0.446196X0.252655X0*%
%ADD78RoundRect,0.205000X-0.490104X-0.150742X0.443911X-0.256648X0.490104X0.150742X-0.443911X0.256648X0*%
%ADD79RoundRect,0.205000X-0.488775X-0.154996X0.446125X-0.252780X0.488775X0.154996X-0.446125X0.252780X0*%
%ADD80RoundRect,0.135000X-0.135000X-0.185000X0.135000X-0.185000X0.135000X0.185000X-0.135000X0.185000X0*%
%ADD81RoundRect,0.140000X-0.141964X-0.168364X0.138018X-0.171613X0.141964X0.168364X-0.138018X0.171613X0*%
%ADD82RoundRect,0.205000X-0.486113X-0.163155X0.450293X-0.245277X0.486113X0.163155X-0.450293X0.245277X0*%
%ADD83RoundRect,0.150000X-0.207052X0.492225X-0.091019X-0.526186X0.207052X-0.492225X0.091019X0.526186X0*%
%ADD84RoundRect,0.205000X-0.446196X-0.252655X0.488732X-0.155133X0.446196X0.252655X-0.488732X0.155133X0*%
%ADD85RoundRect,0.205000X-0.465970X-0.214001X0.473856X-0.195923X0.465970X0.214001X-0.473856X0.195923X0*%
%ADD86RoundRect,0.140000X-0.121607X-0.183607X0.156882X-0.154558X0.121607X0.183607X-0.156882X0.154558X0*%
%ADD87RoundRect,0.150000X0.950000X-0.150000X0.950000X0.150000X-0.950000X0.150000X-0.950000X-0.150000X0*%
%ADD88RoundRect,0.360000X0.940000X-0.540000X0.940000X0.540000X-0.940000X0.540000X-0.940000X-0.540000X0*%
%ADD89RoundRect,0.150000X-0.150268X0.512421X-0.149732X-0.512578X0.150268X-0.512421X0.149732X0.512578X0*%
%ADD90RoundRect,0.150000X-0.179270X0.503009X-0.120232X-0.520289X0.179270X-0.503009X0.120232X0.520289X0*%
%ADD91RoundRect,0.150000X-0.169431X0.506408X-0.130351X-0.517846X0.169431X-0.506408X0.130351X0.517846X0*%
%ADD92RoundRect,0.150000X-0.190471X0.498876X-0.108570X-0.522847X0.190471X-0.498876X0.108570X0.522847X0*%
%ADD93RoundRect,0.150000X-0.202361X0.494172X-0.096020X-0.525296X0.202361X-0.494172X0.096020X0.525296X0*%
%ADD94RoundRect,0.205000X-0.452117X-0.241899X0.484877X-0.166790X0.452117X0.241899X-0.484877X0.166790X0*%
%ADD95RoundRect,0.205000X-0.444809X-0.255089X0.489572X-0.152460X0.444809X0.255089X-0.489572X0.152460X0*%
%ADD96RoundRect,0.150000X-0.165829X0.507599X-0.134026X-0.516907X0.165829X-0.507599X0.134026X0.516907X0*%
%ADD97RoundRect,0.205000X-0.469893X-0.205246X0.470107X-0.204754X0.469893X0.205246X-0.470107X0.204754X0*%
%ADD98RoundRect,0.150000X-0.205058X0.493059X-0.093149X-0.525813X0.205058X-0.493059X0.093149X0.525813X0*%
%ADD99RoundRect,0.150000X-0.151091X0.512179X-0.148908X-0.512818X0.151091X-0.512179X0.148908X0.512818X0*%
%ADD100RoundRect,0.205000X-0.455096X-0.236246X0.482761X-0.172819X0.455096X0.236246X-0.482761X0.172819X0*%
%ADD101RoundRect,0.205000X-0.463436X-0.219435X0.476114X-0.190368X0.463436X0.219435X-0.476114X0.190368X0*%
%ADD102RoundRect,0.140000X0.170000X-0.140000X0.170000X0.140000X-0.170000X0.140000X-0.170000X-0.140000X0*%
%ADD103RoundRect,0.205000X-0.463413X-0.219484X0.476134X-0.190319X0.463413X0.219484X-0.476134X0.190319X0*%
%ADD104RoundRect,0.150000X-0.184239X0.501211X-0.115077X-0.521453X0.184239X-0.501211X0.115077X0.521453X0*%
%ADD105RoundRect,0.205000X-0.450293X-0.245277X0.486113X-0.163155X0.450293X0.245277X-0.486113X0.163155X0*%
%ADD106RoundRect,0.205000X-0.469562X-0.206000X0.470435X-0.203999X0.469562X0.206000X-0.470435X0.203999X0*%
%ADD107RoundRect,0.150000X-0.159829X0.509520X-0.140116X-0.515290X0.159829X-0.509520X0.140116X0.515290X0*%
%ADD108RoundRect,0.205000X-0.467589X-0.210441X0.472348X-0.199531X0.467589X0.210441X-0.472348X0.199531X0*%
%ADD109RoundRect,0.150000X-0.165776X0.507617X-0.134081X-0.516893X0.165776X-0.507617X0.134081X0.516893X0*%
%ADD110RoundRect,0.205000X-0.443911X-0.256648X0.490104X-0.150742X0.443911X0.256648X-0.490104X0.150742X0*%
%ADD111RoundRect,0.150000X-0.206786X0.492337X-0.091304X-0.526137X0.206786X-0.492337X0.091304X0.526137X0*%
%ADD112RoundRect,0.205000X-0.461842X-0.222770X0.477474X-0.186932X0.461842X0.222770X-0.477474X0.186932X0*%
%ADD113RoundRect,0.150000X-0.194201X0.497436X-0.104652X-0.523645X0.194201X-0.497436X0.104652X0.523645X0*%
%ADD114RoundRect,0.150000X-0.202499X0.494116X-0.095873X-0.525323X0.202499X-0.494116X0.095873X0.525323X0*%
%ADD115RoundRect,0.205000X-0.443772X-0.256888X0.490185X-0.150477X0.443772X0.256888X-0.490185X0.150477X0*%
%ADD116RoundRect,0.205000X-0.457412X-0.231731X0.481027X-0.177588X0.457412X0.231731X-0.481027X0.177588X0*%
%ADD117RoundRect,0.150000X-0.155938X0.510725X-0.144042X-0.514206X0.155938X-0.510725X0.144042X0.514206X0*%
%ADD118RoundRect,0.205000X0.205000X-0.470000X0.205000X0.470000X-0.205000X0.470000X-0.205000X-0.470000X0*%
%ADD119RoundRect,0.205000X-0.446125X-0.252780X0.488775X-0.154996X0.446125X0.252780X-0.488775X0.154996X0*%
%ADD120C,0.500000*%
%ADD121C,2.000000*%
G04 APERTURE END LIST*
D10*
%TO.C,L-SL2*%
X132228970Y-101686551D03*
D11*
X134613031Y-86634181D03*
D10*
X108709641Y-97961455D03*
D11*
X111093702Y-82909085D03*
%TD*%
D10*
%TO.C,L-SL1*%
X6190750Y-59690000D03*
D11*
X6190750Y-74930000D03*
D10*
X30003250Y-59690000D03*
D11*
X30003250Y-74930000D03*
%TD*%
D12*
%TO.C,L-MHL4*%
X100000000Y-92000000D03*
%TD*%
%TO.C,L-MHL3*%
X137000000Y-50000000D03*
%TD*%
%TO.C,L-MHL1*%
X28000000Y-22000000D03*
%TD*%
%TO.C,L-MHL2*%
X38000000Y-66000000D03*
%TD*%
D13*
%TO.C,L-CL30A*%
X37211000Y-78825000D03*
X38171000Y-78825000D03*
%TD*%
D14*
%TO.C,L-HEL16*%
X43153500Y-48575000D03*
X43153500Y-46675000D03*
X45428500Y-47625000D03*
%TD*%
D15*
%TO.C,L-CL24B*%
X92561741Y-76068531D03*
X93520859Y-76109669D03*
%TD*%
D16*
%TO.C,L-CRGBL4*%
X75564858Y-3197979D03*
X76523542Y-3248221D03*
%TD*%
D17*
%TO.C,L-HEL4*%
X69809140Y-10656966D03*
X69908578Y-8759570D03*
X72130741Y-9827332D03*
%TD*%
D14*
%TO.C,L-HEL28*%
X14577500Y-86675000D03*
X14577500Y-84775000D03*
X16852500Y-85725000D03*
%TD*%
D18*
%TO.C,L-CL6B*%
X114068277Y-21764278D03*
X115028123Y-21747122D03*
%TD*%
D19*
%TO.C,L-AML3*%
X63473000Y-71025000D03*
X64743000Y-71025000D03*
X66013000Y-71025000D03*
X67283000Y-71025000D03*
X68553000Y-71025000D03*
X69823000Y-71025000D03*
X71093000Y-71025000D03*
X72363000Y-71025000D03*
X72363000Y-75975000D03*
X71093000Y-75975000D03*
X69823000Y-75975000D03*
X68553000Y-75975000D03*
X67283000Y-75975000D03*
X66013000Y-75975000D03*
X64743000Y-75975000D03*
X63473000Y-75975000D03*
%TD*%
D20*
%TO.C,L-CL25B*%
X105571000Y-73913000D03*
X106531000Y-73913000D03*
%TD*%
D21*
%TO.C,L-CL18B*%
X89122453Y-56415122D03*
X90080347Y-56478678D03*
%TD*%
D22*
%TO.C,L-CRGBL19*%
X48510600Y-40024498D03*
X49470600Y-40024502D03*
%TD*%
D13*
%TO.C,L-CL22A*%
X41973000Y-59775000D03*
X42933000Y-59775000D03*
%TD*%
%TO.C,L-CRGBL15*%
X126426910Y-47229709D03*
X127375090Y-47379891D03*
%TD*%
%TO.C,L-CL2B*%
X38980000Y-16425000D03*
X39940000Y-16425000D03*
%TD*%
%TO.C,L-CL8A*%
X9588000Y-21675000D03*
X10548000Y-21675000D03*
%TD*%
D23*
%TO.C,L-HEL11*%
X77567429Y-30157695D03*
X77766033Y-28268103D03*
X79929269Y-29450701D03*
%TD*%
D13*
%TO.C,L-CL16A*%
X37211000Y-39475000D03*
X38171000Y-39475000D03*
%TD*%
D24*
%TO.C,L-CRGBL22*%
X53274000Y-59074500D03*
X54234000Y-59074500D03*
%TD*%
D13*
%TO.C,L-CL16B*%
X50411000Y-54525000D03*
X51371000Y-54525000D03*
%TD*%
%TO.C,L-CL28A*%
X8235000Y-78825000D03*
X9195000Y-78825000D03*
%TD*%
%TO.C,L-CML2*%
X38991000Y-43649000D03*
X39951000Y-43649000D03*
%TD*%
%TO.C,L-CRGBL10*%
X63750800Y-20975800D03*
X64710800Y-20975800D03*
%TD*%
%TO.C,L-CL8B*%
X22788000Y-35475000D03*
X23748000Y-35475000D03*
%TD*%
D25*
%TO.C,L-DL25*%
X104319675Y-62454350D03*
X104085023Y-63935882D03*
X109467925Y-64788450D03*
X109702577Y-63306918D03*
%TD*%
D26*
%TO.C,L-CRGBL8*%
X102731528Y-24197726D03*
X103686272Y-24298074D03*
%TD*%
D27*
%TO.C,L-CL13A*%
X110538333Y-26389136D03*
X111497067Y-26339864D03*
%TD*%
D13*
%TO.C,L-CL10B*%
X65650800Y-35475700D03*
X66610800Y-35475700D03*
%TD*%
D28*
%TO.C,L-DL21*%
X15372600Y-58324901D03*
X15372597Y-59824900D03*
X20822600Y-59824899D03*
X20822603Y-58324900D03*
%TD*%
D29*
%TO.C,L-HEL5*%
X89159029Y-12303895D03*
X89357633Y-10414303D03*
X91520869Y-11596901D03*
%TD*%
D30*
%TO.C,L-CRGBL21*%
X22317598Y-59075000D03*
X23277602Y-59075000D03*
%TD*%
D31*
%TO.C,L-CL26B*%
X129504533Y-81991465D03*
X130462267Y-81925535D03*
%TD*%
D32*
%TO.C,L-CL14A*%
X129351369Y-29387783D03*
X130309031Y-29320817D03*
%TD*%
D13*
%TO.C,L-CRGBL16*%
X107623910Y-44250709D03*
X108572090Y-44400891D03*
%TD*%
D33*
%TO.C,L-CL4A*%
X64285455Y-2508820D03*
X65244345Y-2554980D03*
%TD*%
D34*
%TO.C,L-CRGBL7*%
X133143010Y-10845709D03*
X134091190Y-10995891D03*
%TD*%
D13*
%TO.C,L-CL15A*%
X11017000Y-40725000D03*
X11977000Y-40725000D03*
%TD*%
D19*
%TO.C,L-AML1*%
X36863000Y-50475000D03*
X35593000Y-50475000D03*
X34323000Y-50475000D03*
X33053000Y-50475000D03*
X31783000Y-50475000D03*
X30513000Y-50475000D03*
X29243000Y-50475000D03*
X27973000Y-50475000D03*
X27973000Y-45525000D03*
X29243000Y-45525000D03*
X30513000Y-45525000D03*
X31783000Y-45525000D03*
X33053000Y-45525000D03*
X34323000Y-45525000D03*
X35593000Y-45525000D03*
X36863000Y-45525000D03*
%TD*%
D33*
%TO.C,L-CL4B*%
X76745155Y-16980620D03*
X77704045Y-17026780D03*
%TD*%
D35*
%TO.C,L-CRGBL6*%
X114340710Y-7852109D03*
X115288890Y-8002291D03*
%TD*%
D13*
%TO.C,L-CL27B*%
X17073000Y-92625000D03*
X18033000Y-92625000D03*
%TD*%
D36*
%TO.C,L-DL20*%
X15372300Y-39274700D03*
X15372300Y-40774700D03*
X20822300Y-40774700D03*
X20822300Y-39274700D03*
%TD*%
D14*
%TO.C,L-HEL15*%
X16959500Y-48575000D03*
X16959500Y-46675000D03*
X19234500Y-47625000D03*
%TD*%
D37*
%TO.C,L-HEL12*%
X96509629Y-32140895D03*
X96708233Y-30251303D03*
X98871469Y-31433901D03*
%TD*%
D13*
%TO.C,L-CL9B*%
X46600000Y-35475000D03*
X47560000Y-35475000D03*
%TD*%
%TO.C,L-CL21A*%
X11017000Y-59775000D03*
X11977000Y-59775000D03*
%TD*%
%TO.C,L-CL1A*%
X6730000Y-2625000D03*
X7690000Y-2625000D03*
%TD*%
D27*
%TO.C,L-CL13B*%
X121417033Y-42084136D03*
X122375767Y-42034864D03*
%TD*%
D38*
%TO.C,L-CL11A*%
X72476994Y-21740720D03*
X73433806Y-21818880D03*
%TD*%
D21*
%TO.C,L-CL18A*%
X77437153Y-41310922D03*
X78395047Y-41374478D03*
%TD*%
D39*
%TO.C,L-DL5*%
X88468824Y-3684470D03*
X88312029Y-5176251D03*
X93732176Y-5745930D03*
X93888971Y-4254149D03*
%TD*%
D14*
%TO.C,L-HEL27*%
X12090500Y-84775000D03*
X12090500Y-86675000D03*
X9815500Y-85725000D03*
%TD*%
%TO.C,L-HEL29*%
X28865500Y-86675000D03*
X28865500Y-84775000D03*
X31140500Y-85725000D03*
%TD*%
D13*
%TO.C,L-CL17A*%
X57845158Y-40575179D03*
X58803842Y-40625421D03*
%TD*%
D40*
%TO.C,L-CL20B*%
X126030514Y-61952804D03*
X126988686Y-61893596D03*
%TD*%
D19*
%TO.C,L-AML2*%
X37363000Y-42475000D03*
X36093000Y-42475000D03*
X34823000Y-42475000D03*
X33553000Y-42475000D03*
X32283000Y-42475000D03*
X31013000Y-42475000D03*
X29743000Y-42475000D03*
X28473000Y-42475000D03*
X28473000Y-37525000D03*
X29743000Y-37525000D03*
X31013000Y-37525000D03*
X32283000Y-37525000D03*
X33553000Y-37525000D03*
X34823000Y-37525000D03*
X36093000Y-37525000D03*
X37363000Y-37525000D03*
%TD*%
D41*
%TO.C,L-CRGBL30*%
X80849628Y-79382826D03*
X81804372Y-79483174D03*
%TD*%
D13*
%TO.C,L-CRGBL11*%
X44700000Y-20975000D03*
X45660000Y-20975000D03*
%TD*%
D42*
%TO.C,L-HEL19*%
X100994492Y-51856760D03*
X101291717Y-49980152D03*
X103390094Y-51274344D03*
%TD*%
D14*
%TO.C,L-HEL17*%
X63368740Y-48725366D03*
X63468178Y-46827970D03*
X65690341Y-47895732D03*
%TD*%
D43*
%TO.C,L-HEL32*%
X83976429Y-88308895D03*
X84175029Y-86419303D03*
X86338269Y-87601901D03*
%TD*%
D44*
%TO.C,L-CL32A*%
X92012437Y-81289531D03*
X92971563Y-81330469D03*
%TD*%
D18*
%TO.C,L-CL6A*%
X103189477Y-6069278D03*
X104149323Y-6052122D03*
%TD*%
D13*
%TO.C,L-CL2A*%
X25780000Y-2625000D03*
X26740000Y-2625000D03*
%TD*%
D45*
%TO.C,L-HEL14*%
X133997492Y-37962160D03*
X134294717Y-36085552D03*
X136393094Y-37379744D03*
%TD*%
D13*
%TO.C,L-CL17B*%
X70304858Y-55047079D03*
X71263542Y-55097321D03*
%TD*%
%TO.C,L-CL9A*%
X33400000Y-21675000D03*
X34360000Y-21675000D03*
%TD*%
D34*
%TO.C,L-CRGBL14*%
X140563910Y-30750609D03*
X141512090Y-30900791D03*
%TD*%
D19*
%TO.C,L-AML4*%
X70973000Y-79950000D03*
X72243000Y-79950000D03*
X73513000Y-79950000D03*
X74783000Y-79950000D03*
X76053000Y-79950000D03*
X77323000Y-79950000D03*
X78593000Y-79950000D03*
X79863000Y-79950000D03*
X79863000Y-84900000D03*
X78593000Y-84900000D03*
X77323000Y-84900000D03*
X76053000Y-84900000D03*
X74783000Y-84900000D03*
X73513000Y-84900000D03*
X72243000Y-84900000D03*
X70973000Y-84900000D03*
%TD*%
D46*
%TO.C,L-DL29*%
X43947500Y-77250000D03*
X43947500Y-78750000D03*
X49397500Y-78750000D03*
X49397500Y-77250000D03*
%TD*%
D47*
%TO.C,L-CRGBL26*%
X129854010Y-67561009D03*
X130802190Y-67711191D03*
%TD*%
D48*
%TO.C,L-CL5A*%
X84067194Y-3912246D03*
X85026806Y-3939554D03*
%TD*%
D19*
%TO.C,L-AML5*%
X10363000Y-51975000D03*
X9093000Y-51975000D03*
X7823000Y-51975000D03*
X6553000Y-51975000D03*
X5283000Y-51975000D03*
X4013000Y-51975000D03*
X2743000Y-51975000D03*
X1473000Y-51975000D03*
X1473000Y-47025000D03*
X2743000Y-47025000D03*
X4013000Y-47025000D03*
X5283000Y-47025000D03*
X6553000Y-47025000D03*
X7823000Y-47025000D03*
X9093000Y-47025000D03*
X10363000Y-47025000D03*
%TD*%
D46*
%TO.C,L-DL3*%
X49185000Y-1975000D03*
X49185000Y-3475000D03*
X54635000Y-3475000D03*
X54635000Y-1975000D03*
%TD*%
D13*
%TO.C,L-CL1B*%
X19930000Y-16425000D03*
X20890000Y-16425000D03*
%TD*%
D40*
%TO.C,L-CL20A*%
X115151814Y-46257904D03*
X116109986Y-46198696D03*
%TD*%
D13*
%TO.C,L-CRGBL27*%
X21236000Y-81125000D03*
X22196000Y-81125000D03*
%TD*%
%TO.C,L-CL27A*%
X3873000Y-78825000D03*
X4833000Y-78825000D03*
%TD*%
D49*
%TO.C,L-HEL23*%
X66763340Y-68037566D03*
X66862778Y-66140170D03*
X69084941Y-67207932D03*
%TD*%
D50*
%TO.C,L-DL30*%
X83369324Y-78893270D03*
X83212529Y-80385051D03*
X88632676Y-80954730D03*
X88789471Y-79462949D03*
%TD*%
D14*
%TO.C,L-HEL22*%
X47915500Y-67625000D03*
X47915500Y-65725000D03*
X50190500Y-66675000D03*
%TD*%
D32*
%TO.C,L-CL7B*%
X132871769Y-24782883D03*
X133829431Y-24715917D03*
%TD*%
D14*
%TO.C,L-HEL31*%
X47915500Y-86675000D03*
X47915500Y-84775000D03*
X50190500Y-85725000D03*
%TD*%
D13*
%TO.C,L-CL3B*%
X58030000Y-16425000D03*
X58990000Y-16425000D03*
%TD*%
%TO.C,L-CL29A*%
X22923000Y-78825000D03*
X23883000Y-78825000D03*
%TD*%
D51*
%TO.C,L-JL1*%
X139109000Y-52500000D03*
X139109000Y-53500000D03*
X139109000Y-54500000D03*
X139109000Y-55500000D03*
X139109000Y-56500000D03*
X139109000Y-57500000D03*
X139109000Y-58500000D03*
X139109000Y-59500000D03*
X139109000Y-60500000D03*
X139109000Y-61500000D03*
X139109000Y-62500000D03*
X139109000Y-63500000D03*
D52*
X141309000Y-50200000D03*
X141309000Y-65800000D03*
%TD*%
D14*
%TO.C,L-HEL2*%
X31722500Y-10475000D03*
X31722500Y-8575000D03*
X33997500Y-9525000D03*
%TD*%
D13*
%TO.C,L-CRGBL2*%
X37080000Y-2725000D03*
X38040000Y-2725000D03*
%TD*%
D53*
%TO.C,L-DL22*%
X46328897Y-58324300D03*
X46328900Y-59824300D03*
X51778903Y-59824300D03*
X51778900Y-58324300D03*
%TD*%
D13*
%TO.C,L-CRGBL29*%
X54574000Y-81125000D03*
X55534000Y-81125000D03*
%TD*%
D15*
%TO.C,L-CL24A*%
X80876441Y-60964331D03*
X81835559Y-61005469D03*
%TD*%
D54*
%TO.C,L-DL14*%
X133821775Y-28923450D03*
X133587123Y-30404982D03*
X138970025Y-31257550D03*
X139204677Y-29776018D03*
%TD*%
D13*
%TO.C,L-CML3*%
X60885000Y-69851000D03*
X61845000Y-69851000D03*
%TD*%
D55*
%TO.C,L-DL4*%
X68668583Y-2085512D03*
X68590083Y-3583457D03*
X74032617Y-3868688D03*
X74111117Y-2370743D03*
%TD*%
D14*
%TO.C,L-HEL30*%
X45428500Y-84775000D03*
X45428500Y-86675000D03*
X43153500Y-85725000D03*
%TD*%
D56*
%TO.C,L-DL8*%
X95903024Y-22725870D03*
X95746229Y-24217651D03*
X101166376Y-24787330D03*
X101323171Y-23295549D03*
%TD*%
D13*
%TO.C,L-CRGBL23*%
X72559958Y-59780279D03*
X73518642Y-59830521D03*
%TD*%
D46*
%TO.C,L-DL1*%
X11085000Y-1975000D03*
X11085000Y-3475000D03*
X16535000Y-3475000D03*
X16535000Y-1975000D03*
%TD*%
D13*
%TO.C,L-CL15B*%
X24217000Y-54525000D03*
X25177000Y-54525000D03*
%TD*%
%TO.C,L-CL31A*%
X41973000Y-77000000D03*
X42933000Y-77000000D03*
%TD*%
D46*
%TO.C,L-DL33*%
X27278000Y-80375000D03*
X27278000Y-81875000D03*
X32728000Y-81875000D03*
X32728000Y-80375000D03*
%TD*%
%TO.C,L-DL23*%
X65663783Y-58667812D03*
X65585283Y-60165757D03*
X71027817Y-60450988D03*
X71106317Y-58953043D03*
%TD*%
D54*
%TO.C,L-DL7*%
X126400875Y-9018550D03*
X126166223Y-10500082D03*
X131549125Y-11352650D03*
X131783777Y-9871118D03*
%TD*%
D57*
%TO.C,L-DL19*%
X41565500Y-39274500D03*
X41565500Y-40774500D03*
X47015500Y-40774500D03*
X47015500Y-39274500D03*
%TD*%
D46*
%TO.C,L-DL12*%
X13943000Y-20225000D03*
X13943000Y-21725000D03*
X19393000Y-21725000D03*
X19393000Y-20225000D03*
%TD*%
D13*
%TO.C,L-CL21B*%
X24217000Y-73575000D03*
X25177000Y-73575000D03*
%TD*%
D58*
%TO.C,L-CRGBL5*%
X95297228Y-5156326D03*
X96251972Y-5256674D03*
%TD*%
D59*
%TO.C,L-HEL24*%
X85968029Y-69362895D03*
X86166633Y-67473303D03*
X88329869Y-68655901D03*
%TD*%
D60*
%TO.C,L-CRGBL25*%
X111061710Y-64281509D03*
X112009890Y-64431691D03*
%TD*%
D46*
%TO.C,L-DL10*%
X56805797Y-20225700D03*
X56805800Y-21725700D03*
X62255803Y-21725700D03*
X62255800Y-20225700D03*
%TD*%
D61*
%TO.C,L-DL9*%
X76960724Y-20742770D03*
X76803929Y-22234551D03*
X82224076Y-22804230D03*
X82380871Y-21312449D03*
%TD*%
D13*
%TO.C,L-CRGBL17*%
X88749728Y-41775926D03*
X89704472Y-41876274D03*
%TD*%
%TO.C,L-CL28B*%
X21835000Y-92625000D03*
X22795000Y-92625000D03*
%TD*%
D46*
%TO.C,L-DL24*%
X85360724Y-59947870D03*
X85203929Y-61439651D03*
X90624076Y-62009330D03*
X90780871Y-60517549D03*
%TD*%
D62*
%TO.C,L-CRGBL13*%
X121814010Y-27365709D03*
X122762190Y-27515891D03*
%TD*%
D63*
%TO.C,L-HEL26*%
X123271892Y-74871360D03*
X123569117Y-72994752D03*
X125667494Y-74288944D03*
%TD*%
D64*
%TO.C,L-CRGBL20*%
X22317200Y-40024798D03*
X23277200Y-40024802D03*
%TD*%
D13*
%TO.C,L-CML5*%
X11991000Y-53149000D03*
X12951000Y-53149000D03*
%TD*%
D65*
%TO.C,L-CL12B*%
X103102827Y-38872160D03*
X104062773Y-38862040D03*
%TD*%
D46*
%TO.C,L-DL27*%
X10609500Y-77250000D03*
X10609500Y-78750000D03*
X16059500Y-78750000D03*
X16059500Y-77250000D03*
%TD*%
D14*
%TO.C,L-HEL10*%
X58393300Y-29525800D03*
X58393300Y-27625800D03*
X60668300Y-28575800D03*
%TD*%
D66*
%TO.C,L-CL19B*%
X107226116Y-58933328D03*
X108185884Y-58954472D03*
%TD*%
D67*
%TO.C,L-CL23B*%
X73699432Y-74359781D03*
X74658168Y-74409019D03*
%TD*%
D68*
%TO.C,L-CRGBL18*%
X69166756Y-40469079D03*
X70125444Y-40519321D03*
%TD*%
D13*
%TO.C,L-CL10A*%
X52450800Y-21675700D03*
X53410800Y-21675700D03*
%TD*%
%TO.C,L-CL22B*%
X55173000Y-73575000D03*
X56133000Y-73575000D03*
%TD*%
D46*
%TO.C,L-DL15*%
X119684775Y-45402550D03*
X119450123Y-46884082D03*
X124833025Y-47736650D03*
X125067677Y-46255118D03*
%TD*%
D69*
%TO.C,L-HEL20*%
X119798092Y-54836160D03*
X120095317Y-52959552D03*
X122193694Y-54253744D03*
%TD*%
D13*
%TO.C,L-CL31B*%
X55173000Y-92625000D03*
X56133000Y-92625000D03*
%TD*%
D65*
%TO.C,L-CL12A*%
X91417627Y-23767960D03*
X92377573Y-23757840D03*
%TD*%
D70*
%TO.C,L-HEL33*%
X120289892Y-93685360D03*
X120587117Y-91808752D03*
X122685494Y-93102944D03*
%TD*%
D45*
%TO.C,L-HEL7*%
X126639092Y-17662160D03*
X126936317Y-15785552D03*
X129034694Y-17079744D03*
%TD*%
D71*
%TO.C,L-DL18*%
X62270586Y-39356613D03*
X62192080Y-40854557D03*
X67634614Y-41139787D03*
X67713120Y-39641843D03*
%TD*%
D13*
%TO.C,L-CL29B*%
X36123000Y-92625000D03*
X37083000Y-92625000D03*
%TD*%
D46*
%TO.C,L-DL2*%
X30135000Y-1975000D03*
X30135000Y-3475000D03*
X35585000Y-3475000D03*
X35585000Y-1975000D03*
%TD*%
%TO.C,L-DL11*%
X37755000Y-20225000D03*
X37755000Y-21725000D03*
X43205000Y-21725000D03*
X43205000Y-20225000D03*
%TD*%
D13*
%TO.C,L-CL30B*%
X50411000Y-92625000D03*
X51371000Y-92625000D03*
%TD*%
D72*
%TO.C,L-HEL18*%
X82528229Y-49720695D03*
X82726833Y-47831103D03*
X84890069Y-49013701D03*
%TD*%
D48*
%TO.C,L-CL5B*%
X95752394Y-19016446D03*
X96712006Y-19043754D03*
%TD*%
D14*
%TO.C,L-HEL1*%
X12672500Y-10475000D03*
X12672500Y-8575000D03*
X14947500Y-9525000D03*
%TD*%
D73*
%TO.C,L-CRGBL31*%
X116795910Y-85539909D03*
X117744090Y-85690091D03*
%TD*%
D13*
%TO.C,L-CRGBL1*%
X18030000Y-2725000D03*
X18990000Y-2725000D03*
%TD*%
D32*
%TO.C,L-CL14B*%
X140230169Y-45082883D03*
X141187831Y-45015917D03*
%TD*%
D31*
%TO.C,L-CL26A*%
X118625733Y-66296365D03*
X119583467Y-66230435D03*
%TD*%
D74*
%TO.C,L-HEL13*%
X115184892Y-34972360D03*
X115482117Y-33095752D03*
X117580494Y-34389944D03*
%TD*%
D13*
%TO.C,L-CRGBL33*%
X34223000Y-81125000D03*
X35183000Y-81125000D03*
%TD*%
D14*
%TO.C,L-HEL3*%
X50772500Y-10475000D03*
X50772500Y-8575000D03*
X53047500Y-9525000D03*
%TD*%
D20*
%TO.C,L-CL25A*%
X99785502Y-63281691D03*
X100745498Y-63278909D03*
%TD*%
D73*
%TO.C,L-CL33B*%
X114846910Y-100075909D03*
X115795090Y-100226091D03*
%TD*%
D13*
%TO.C,L-CRGBL12*%
X20888000Y-20975000D03*
X21848000Y-20975000D03*
%TD*%
D75*
%TO.C,L-HEL25*%
X104432692Y-71888160D03*
X104729917Y-70011552D03*
X106828294Y-71305744D03*
%TD*%
D44*
%TO.C,L-CL32B*%
X77442437Y-93634531D03*
X78401563Y-93675469D03*
%TD*%
D14*
%TO.C,L-HEL9*%
X39342500Y-29525000D03*
X39342500Y-27625000D03*
X41617500Y-28575000D03*
%TD*%
D73*
%TO.C,L-CL33A*%
X127328910Y-85623909D03*
X128277090Y-85774091D03*
%TD*%
D14*
%TO.C,L-HEL8*%
X15530500Y-29525000D03*
X15530500Y-27625000D03*
X17805500Y-28575000D03*
%TD*%
D76*
%TO.C,L-HEL6*%
X107836692Y-14668560D03*
X108133917Y-12791952D03*
X110232294Y-14086144D03*
%TD*%
D67*
%TO.C,L-CL23A*%
X61239732Y-59887781D03*
X62198468Y-59937019D03*
%TD*%
D46*
%TO.C,L-DL17*%
X81921121Y-40304068D03*
X81764329Y-41795851D03*
X87184479Y-42365532D03*
X87341271Y-40873749D03*
%TD*%
D13*
%TO.C,L-CML1*%
X38491000Y-51649000D03*
X39451000Y-51649000D03*
%TD*%
%TO.C,L-CML4*%
X68385000Y-78851000D03*
X69345000Y-78851000D03*
%TD*%
D77*
%TO.C,L-DL31*%
X119389875Y-84209950D03*
X119155223Y-85691482D03*
X124538125Y-86544050D03*
X124772777Y-85062518D03*
%TD*%
D13*
%TO.C,L-CRGBL24*%
X92189328Y-61419726D03*
X93144072Y-61520074D03*
%TD*%
D66*
%TO.C,L-CL19A*%
X96347416Y-43238328D03*
X97307184Y-43259472D03*
%TD*%
D78*
%TO.C,L-DL26*%
X123111875Y-65733750D03*
X122877223Y-67215282D03*
X128260125Y-68067850D03*
X128494777Y-66586318D03*
%TD*%
D79*
%TO.C,L-DL13*%
X115071875Y-25538450D03*
X114837223Y-27019982D03*
X120220125Y-27872550D03*
X120454777Y-26391018D03*
%TD*%
D80*
%TO.C,L-RBPL29*%
X46371000Y-81500000D03*
X47391000Y-81500000D03*
%TD*%
D32*
%TO.C,L-CL7A*%
X121993069Y-9087783D03*
X122950731Y-9020817D03*
%TD*%
D13*
%TO.C,L-CRGBL3*%
X56130000Y-2725000D03*
X57090000Y-2725000D03*
%TD*%
D81*
%TO.C,L-CRGBL9*%
X83789328Y-22214626D03*
X84744072Y-22314974D03*
%TD*%
D14*
%TO.C,L-HEL21*%
X16959500Y-67625000D03*
X16959500Y-65725000D03*
X19234500Y-66675000D03*
%TD*%
D38*
%TO.C,L-CL11B*%
X84162194Y-36844820D03*
X85119006Y-36922980D03*
%TD*%
D82*
%TO.C,L-DL6*%
X107598475Y-6024950D03*
X107363823Y-7506482D03*
X112746725Y-8359050D03*
X112981377Y-6877518D03*
%TD*%
D46*
%TO.C,L-DL16*%
X100881775Y-42423550D03*
X100647123Y-43905082D03*
X106030025Y-44757650D03*
X106264677Y-43276118D03*
%TD*%
D13*
%TO.C,L-CL3A*%
X44830000Y-2625000D03*
X45790000Y-2625000D03*
%TD*%
D12*
%TO.C,R-MHR3*%
X115567400Y-127716400D03*
%TD*%
D10*
%TO.C,R-SR3*%
X36275636Y-204677918D03*
D11*
X33891575Y-189625548D03*
D10*
X12756307Y-208403014D03*
D11*
X10372246Y-193350644D03*
%TD*%
D12*
%TO.C,R-MHR4*%
X141567400Y-150716400D03*
%TD*%
%TO.C,R-MHR2*%
X46567400Y-198716400D03*
%TD*%
D10*
%TO.C,R-SR2*%
X114982150Y-166406400D03*
D11*
X114982150Y-181646400D03*
D10*
X138794650Y-166406400D03*
D11*
X138794650Y-181646400D03*
%TD*%
D12*
%TO.C,R-MHR1*%
X9567400Y-155716400D03*
%TD*%
D10*
%TO.C,R-SR1*%
X109744150Y-109256400D03*
D11*
X109744150Y-124496400D03*
D10*
X133556650Y-109256400D03*
D11*
X133556650Y-124496400D03*
%TD*%
D13*
%TO.C,R-CRGBR8*%
X132537400Y-130691400D03*
X133497400Y-130691400D03*
%TD*%
D34*
%TO.C,R-CR15B*%
X16836569Y-149666017D03*
X17794231Y-149732983D03*
%TD*%
D14*
%TO.C,R-HER10*%
X103367900Y-136241400D03*
X103367900Y-134341400D03*
X105642900Y-135291400D03*
%TD*%
D13*
%TO.C,R-CR11B*%
X134437400Y-142191400D03*
X135397400Y-142191400D03*
%TD*%
D83*
%TO.C,R-HER8*%
X16098717Y-124733848D03*
X15801492Y-122857240D03*
X18197094Y-123439656D03*
%TD*%
D81*
%TO.C,R-CR12A*%
X58424594Y-129914980D03*
X59381406Y-129836820D03*
%TD*%
D41*
%TO.C,R-CR35A*%
X52013973Y-188047214D03*
X52973099Y-188006276D03*
%TD*%
D13*
%TO.C,R-CRGBR9*%
X108725400Y-130691400D03*
X109685400Y-130691400D03*
%TD*%
%TO.C,R-CR31A*%
X93214400Y-185541400D03*
X94174400Y-185541400D03*
%TD*%
D44*
%TO.C,R-CRGBR28*%
X63181101Y-186199578D03*
X64135845Y-186099230D03*
%TD*%
D84*
%TO.C,R-DR32*%
X20213000Y-191778681D03*
X20447652Y-193260213D03*
X25830554Y-192407645D03*
X25595902Y-190926113D03*
%TD*%
D46*
%TO.C,R-DR29*%
X95588400Y-183966400D03*
X95588400Y-185466400D03*
X101038400Y-185466400D03*
X101038400Y-183966400D03*
%TD*%
D47*
%TO.C,R-CR29A*%
X12365633Y-175011835D03*
X13323367Y-175077765D03*
%TD*%
D13*
%TO.C,R-CR16A*%
X72998458Y-148034121D03*
X73957142Y-147983879D03*
%TD*%
D14*
%TO.C,R-HER17*%
X99556900Y-155291400D03*
X99556900Y-153391400D03*
X101831900Y-154341400D03*
%TD*%
D46*
%TO.C,R-DR16*%
X77271583Y-146358243D03*
X77350083Y-147856188D03*
X82792617Y-147570957D03*
X82714117Y-146073012D03*
%TD*%
D13*
%TO.C,R-CR26A*%
X130887400Y-178216400D03*
X131847400Y-178216400D03*
%TD*%
D14*
%TO.C,R-HER25*%
X125750900Y-174341400D03*
X125750900Y-172441400D03*
X128025900Y-173391400D03*
%TD*%
D58*
%TO.C,R-CR6B*%
X61401294Y-124379954D03*
X62360906Y-124352646D03*
%TD*%
D32*
%TO.C,R-CRGBR7*%
X20177810Y-116241191D03*
X21125990Y-116091009D03*
%TD*%
D18*
%TO.C,R-CRGBR6*%
X38981710Y-113249591D03*
X39929890Y-113099409D03*
%TD*%
D85*
%TO.C,R-DR15*%
X57643329Y-147591549D03*
X57800124Y-149083330D03*
X63220271Y-148513651D03*
X63063476Y-147021870D03*
%TD*%
D64*
%TO.C,R-CR21A*%
X15839014Y-154979196D03*
X16797186Y-155038404D03*
%TD*%
D13*
%TO.C,R-CR34A*%
X126952400Y-183716400D03*
X127912400Y-183716400D03*
%TD*%
%TO.C,R-CR23A*%
X88852400Y-166491400D03*
X89812400Y-166491400D03*
%TD*%
D62*
%TO.C,R-CR14A*%
X20448933Y-135121964D03*
X21407667Y-135171236D03*
%TD*%
D14*
%TO.C,R-HER30*%
X97069900Y-191491400D03*
X97069900Y-193391400D03*
X94794900Y-192441400D03*
%TD*%
D13*
%TO.C,R-CR16B*%
X86902558Y-161124421D03*
X87861242Y-161074179D03*
%TD*%
D86*
%TO.C,R-CRGBR32*%
X27241587Y-192406854D03*
X28189767Y-192256672D03*
%TD*%
D13*
%TO.C,R-CR11A*%
X121237400Y-128391400D03*
X122197400Y-128391400D03*
%TD*%
D87*
%TO.C,R-JR1*%
X7876400Y-170216400D03*
X7876400Y-169216400D03*
X7876400Y-168216400D03*
X7876400Y-167216400D03*
X7876400Y-166216400D03*
X7876400Y-165216400D03*
X7876400Y-164216400D03*
X7876400Y-163216400D03*
X7876400Y-162216400D03*
X7876400Y-161216400D03*
X7876400Y-160216400D03*
X7876400Y-159216400D03*
D88*
X5676400Y-172516400D03*
X5676400Y-156916400D03*
%TD*%
D13*
%TO.C,R-CR34B*%
X140152400Y-199341400D03*
X141112400Y-199341400D03*
%TD*%
D19*
%TO.C,R-AMR4*%
X74012400Y-191616400D03*
X72742400Y-191616400D03*
X71472400Y-191616400D03*
X70202400Y-191616400D03*
X68932400Y-191616400D03*
X67662400Y-191616400D03*
X66392400Y-191616400D03*
X65122400Y-191616400D03*
X65122400Y-186666400D03*
X66392400Y-186666400D03*
X67662400Y-186666400D03*
X68932400Y-186666400D03*
X70202400Y-186666400D03*
X71472400Y-186666400D03*
X72742400Y-186666400D03*
X74012400Y-186666400D03*
%TD*%
D13*
%TO.C,R-CR10A*%
X97425400Y-128391400D03*
X98385400Y-128391400D03*
%TD*%
D19*
%TO.C,R-AMR2*%
X107622400Y-144241400D03*
X108892400Y-144241400D03*
X110162400Y-144241400D03*
X111432400Y-144241400D03*
X112702400Y-144241400D03*
X113972400Y-144241400D03*
X115242400Y-144241400D03*
X116512400Y-144241400D03*
X116512400Y-149191400D03*
X115242400Y-149191400D03*
X113972400Y-149191400D03*
X112702400Y-149191400D03*
X111432400Y-149191400D03*
X110162400Y-149191400D03*
X108892400Y-149191400D03*
X107622400Y-149191400D03*
%TD*%
D89*
%TO.C,R-HER22*%
X75950978Y-174874630D03*
X75851540Y-172977234D03*
X78173141Y-173806868D03*
%TD*%
D86*
%TO.C,R-CR36B*%
X29190387Y-206942754D03*
X30138567Y-206792572D03*
%TD*%
D90*
%TO.C,R-HER13*%
X46212833Y-139096297D03*
X46014229Y-137206705D03*
X48376069Y-137913699D03*
%TD*%
D13*
%TO.C,R-CR5B*%
X137295400Y-123141400D03*
X138255400Y-123141400D03*
%TD*%
D91*
%TO.C,R-HER6*%
X53564033Y-119257697D03*
X53365429Y-117368105D03*
X55727269Y-118075099D03*
%TD*%
D13*
%TO.C,R-CR17A*%
X93614400Y-147441400D03*
X94574400Y-147441400D03*
%TD*%
%TO.C,R-CRGBR16*%
X84246258Y-146743721D03*
X85204942Y-146693479D03*
%TD*%
D46*
%TO.C,R-DR31*%
X128926400Y-183966400D03*
X128926400Y-185466400D03*
X134376400Y-185466400D03*
X134376400Y-183966400D03*
%TD*%
D92*
%TO.C,R-HER28*%
X38306117Y-178959048D03*
X38008892Y-177082440D03*
X40404494Y-177664856D03*
%TD*%
D46*
%TO.C,R-DR21*%
X123163400Y-165041400D03*
X123163400Y-166541400D03*
X128613400Y-166541400D03*
X128613400Y-165041400D03*
%TD*%
D47*
%TO.C,R-CR29B*%
X27561933Y-186577035D03*
X28519667Y-186642965D03*
%TD*%
D14*
%TO.C,R-HER33*%
X130407900Y-191491400D03*
X130407900Y-193391400D03*
X128132900Y-192441400D03*
%TD*%
D93*
%TO.C,R-HER36*%
X22448394Y-200757711D03*
X22151169Y-198881103D03*
X24546771Y-199463519D03*
%TD*%
D13*
%TO.C,R-CR32A*%
X107902400Y-185541400D03*
X108862400Y-185541400D03*
%TD*%
D21*
%TO.C,R-CRGBR15*%
X64628728Y-147611474D03*
X65583472Y-147511126D03*
%TD*%
D48*
%TO.C,R-CRGBR1*%
X58082028Y-110990074D03*
X59036772Y-110889726D03*
%TD*%
D94*
%TO.C,R-DR26*%
X35283323Y-170021918D03*
X35517975Y-171503450D03*
X40900877Y-170650882D03*
X40666225Y-169169350D03*
%TD*%
D30*
%TO.C,R-CR27A*%
X50022441Y-169102269D03*
X50981559Y-169061131D03*
%TD*%
D46*
%TO.C,R-DR22*%
X107057400Y-165041400D03*
X107057400Y-166541400D03*
X112507400Y-166541400D03*
X112507400Y-165041400D03*
%TD*%
%TO.C,R-DR23*%
X93207400Y-165041400D03*
X93207400Y-166541400D03*
X98657400Y-166541400D03*
X98657400Y-165041400D03*
%TD*%
D95*
%TO.C,R-DR20*%
X19918523Y-152970518D03*
X20153175Y-154452050D03*
X25536077Y-153599482D03*
X25301425Y-152117950D03*
%TD*%
D38*
%TO.C,R-CRGBR11*%
X69590528Y-128048674D03*
X70545272Y-127948326D03*
%TD*%
D13*
%TO.C,R-CMR2*%
X105034700Y-150365000D03*
X105994700Y-150365000D03*
%TD*%
D14*
%TO.C,R-HER26*%
X135275900Y-174341400D03*
X135275900Y-172441400D03*
X137550900Y-173391400D03*
%TD*%
D13*
%TO.C,R-CRGBR17*%
X104914400Y-146741400D03*
X105874400Y-146741400D03*
%TD*%
%TO.C,R-CRGBR3*%
X97295400Y-109441400D03*
X98255400Y-109441400D03*
%TD*%
D27*
%TO.C,R-CRGBR13*%
X31505610Y-132762591D03*
X32453790Y-132612409D03*
%TD*%
D19*
%TO.C,R-AMR1*%
X108122400Y-152241400D03*
X109392400Y-152241400D03*
X110662400Y-152241400D03*
X111932400Y-152241400D03*
X113202400Y-152241400D03*
X114472400Y-152241400D03*
X115742400Y-152241400D03*
X117012400Y-152241400D03*
X117012400Y-157191400D03*
X115742400Y-157191400D03*
X114472400Y-157191400D03*
X113202400Y-157191400D03*
X111932400Y-157191400D03*
X110662400Y-157191400D03*
X109392400Y-157191400D03*
X108122400Y-157191400D03*
%TD*%
D13*
%TO.C,R-CR17B*%
X106814400Y-161241400D03*
X107774400Y-161241400D03*
%TD*%
%TO.C,R-CRGBR29*%
X106214400Y-187841400D03*
X107174400Y-187841400D03*
%TD*%
D46*
%TO.C,R-DR34*%
X130788400Y-165041400D03*
X130788400Y-166541400D03*
X136238400Y-166541400D03*
X136238400Y-165041400D03*
%TD*%
D80*
%TO.C,R-RBPR31*%
X114557400Y-184716400D03*
X115577400Y-184716400D03*
%TD*%
D46*
%TO.C,R-DR17*%
X97969400Y-145991400D03*
X97969400Y-147491400D03*
X103419400Y-147491400D03*
X103419400Y-145991400D03*
%TD*%
D26*
%TO.C,R-CR13A*%
X39479727Y-131855240D03*
X40439673Y-131865360D03*
%TD*%
D13*
%TO.C,R-CRGBR5*%
X127668100Y-113773400D03*
X128628100Y-113773400D03*
%TD*%
%TO.C,R-CR5A*%
X130695400Y-120716400D03*
X131655400Y-120716400D03*
%TD*%
D14*
%TO.C,R-HER34*%
X132894900Y-193391400D03*
X132894900Y-191491400D03*
X135169900Y-192441400D03*
%TD*%
D13*
%TO.C,R-CR9B*%
X91575400Y-142191400D03*
X92535400Y-142191400D03*
%TD*%
D96*
%TO.C,R-HER35*%
X58746696Y-195262739D03*
X58548096Y-193373147D03*
X60909936Y-194080141D03*
%TD*%
D97*
%TO.C,R-DR24*%
X73878883Y-165670443D03*
X73957383Y-167168388D03*
X79399917Y-166883157D03*
X79321417Y-165385212D03*
%TD*%
D13*
%TO.C,R-CR33A*%
X122190400Y-185541400D03*
X123150400Y-185541400D03*
%TD*%
D14*
%TO.C,R-HER3*%
X110987900Y-117191400D03*
X110987900Y-115291400D03*
X113262900Y-116241400D03*
%TD*%
D83*
%TO.C,R-HER15*%
X8742317Y-145033248D03*
X8445092Y-143156640D03*
X10840694Y-143739056D03*
%TD*%
D46*
%TO.C,R-DR8*%
X125592400Y-129941400D03*
X125592400Y-131441400D03*
X131042400Y-131441400D03*
X131042400Y-129941400D03*
%TD*%
D24*
%TO.C,R-CR22A*%
X69605732Y-167345919D03*
X70564468Y-167296681D03*
%TD*%
D13*
%TO.C,R-CMR1*%
X105534700Y-158365000D03*
X106494700Y-158365000D03*
%TD*%
%TO.C,R-CR30B*%
X102052400Y-199341400D03*
X103012400Y-199341400D03*
%TD*%
%TO.C,R-CR33B*%
X135390400Y-199341400D03*
X136350400Y-199341400D03*
%TD*%
D98*
%TO.C,R-HER21*%
X22941317Y-161907648D03*
X22644092Y-160031040D03*
X25039694Y-160613456D03*
%TD*%
D46*
%TO.C,R-DR3*%
X90350400Y-108691400D03*
X90350400Y-110191400D03*
X95800400Y-110191400D03*
X95800400Y-108691400D03*
%TD*%
D99*
%TO.C,R-HER1*%
X72905378Y-117492830D03*
X72805940Y-115595434D03*
X75127541Y-116425068D03*
%TD*%
D68*
%TO.C,R-CR19A*%
X53462153Y-149470478D03*
X54420047Y-149406922D03*
%TD*%
D13*
%TO.C,R-CMR3*%
X83140100Y-176567800D03*
X84100100Y-176567800D03*
%TD*%
D14*
%TO.C,R-HER4*%
X120512900Y-117191400D03*
X120512900Y-115291400D03*
X122787900Y-116241400D03*
%TD*%
D60*
%TO.C,R-CR28B*%
X46399102Y-183624009D03*
X47359098Y-183626791D03*
%TD*%
D14*
%TO.C,R-HER32*%
X113844900Y-193391400D03*
X113844900Y-191491400D03*
X116119900Y-192441400D03*
%TD*%
D100*
%TO.C,R-DR19*%
X38721723Y-149993218D03*
X38956375Y-151474750D03*
X44339277Y-150622182D03*
X44104625Y-149140650D03*
%TD*%
D19*
%TO.C,R-AMR5*%
X134622400Y-153741400D03*
X135892400Y-153741400D03*
X137162400Y-153741400D03*
X138432400Y-153741400D03*
X139702400Y-153741400D03*
X140972400Y-153741400D03*
X142242400Y-153741400D03*
X143512400Y-153741400D03*
X143512400Y-158691400D03*
X142242400Y-158691400D03*
X140972400Y-158691400D03*
X139702400Y-158691400D03*
X138432400Y-158691400D03*
X137162400Y-158691400D03*
X135892400Y-158691400D03*
X134622400Y-158691400D03*
%TD*%
D101*
%TO.C,R-DR25*%
X54204129Y-167234549D03*
X54360924Y-168726330D03*
X59781071Y-168156651D03*
X59624276Y-166664870D03*
%TD*%
D102*
%TO.C,R-CRGBR33*%
X114650400Y-123371400D03*
X114650400Y-122411400D03*
%TD*%
D13*
%TO.C,R-CMR4*%
X75640100Y-185567800D03*
X76600100Y-185567800D03*
%TD*%
%TO.C,R-CR2B*%
X99195400Y-123141400D03*
X100155400Y-123141400D03*
%TD*%
%TO.C,R-CR10B*%
X110625400Y-142191400D03*
X111585400Y-142191400D03*
%TD*%
%TO.C,R-CRGBR36*%
X119202400Y-187841400D03*
X120162400Y-187841400D03*
%TD*%
D103*
%TO.C,R-DR28*%
X56195765Y-186179705D03*
X56352560Y-187671486D03*
X61772707Y-187101807D03*
X61615912Y-185610026D03*
%TD*%
D104*
%TO.C,R-HER20*%
X41744517Y-158930448D03*
X41447292Y-157053840D03*
X43842894Y-157636256D03*
%TD*%
D13*
%TO.C,R-CRGBR21*%
X125408400Y-169391400D03*
X126368400Y-169391400D03*
%TD*%
%TO.C,R-CRGBR18*%
X131108400Y-146741400D03*
X132068400Y-146741400D03*
%TD*%
%TO.C,R-CRGBR10*%
X89675400Y-127691400D03*
X90635400Y-127691400D03*
%TD*%
D46*
%TO.C,R-DR18*%
X124163400Y-145991400D03*
X124163400Y-147491400D03*
X129613400Y-147491400D03*
X129613400Y-145991400D03*
%TD*%
D13*
%TO.C,R-CR32B*%
X121102400Y-199341400D03*
X122062400Y-199341400D03*
%TD*%
D105*
%TO.C,R-DR6*%
X32004823Y-113595318D03*
X32239475Y-115076850D03*
X37622377Y-114224282D03*
X37387725Y-112742750D03*
%TD*%
D60*
%TO.C,R-CR28A*%
X31202902Y-172058809D03*
X32162898Y-172061591D03*
%TD*%
D46*
%TO.C,R-DR4*%
X112427700Y-108623400D03*
X112427700Y-110123400D03*
X117877700Y-110123400D03*
X117877700Y-108623400D03*
%TD*%
D30*
%TO.C,R-CR27B*%
X64592541Y-181446869D03*
X65551659Y-181405731D03*
%TD*%
D65*
%TO.C,R-CRGBR12*%
X50647228Y-130033074D03*
X51601972Y-129932726D03*
%TD*%
D16*
%TO.C,R-CR1B*%
X80464255Y-123052780D03*
X81423145Y-123006620D03*
%TD*%
D106*
%TO.C,R-DR2*%
X70875283Y-109087543D03*
X70953783Y-110585488D03*
X76396317Y-110300257D03*
X76317817Y-108802312D03*
%TD*%
D13*
%TO.C,R-CR18B*%
X133008400Y-161241400D03*
X133968400Y-161241400D03*
%TD*%
%TO.C,R-CR25B*%
X133008400Y-180291400D03*
X133968400Y-180291400D03*
%TD*%
%TO.C,R-CRGBR22*%
X109302400Y-169391400D03*
X110262400Y-169391400D03*
%TD*%
D62*
%TO.C,R-CR14B*%
X35645233Y-146687164D03*
X36603967Y-146736436D03*
%TD*%
D20*
%TO.C,R-CRGBR26*%
X42260210Y-169676291D03*
X43208390Y-169526109D03*
%TD*%
D13*
%TO.C,R-CR23B*%
X102052400Y-180291400D03*
X103012400Y-180291400D03*
%TD*%
D35*
%TO.C,R-CR7B*%
X42995677Y-126400022D03*
X43955523Y-126417178D03*
%TD*%
D13*
%TO.C,R-CR3A*%
X105045400Y-109341400D03*
X106005400Y-109341400D03*
%TD*%
%TO.C,R-CR9A*%
X78375400Y-128391400D03*
X79335400Y-128391400D03*
%TD*%
%TO.C,R-CR24A*%
X109587400Y-178216400D03*
X110547400Y-178216400D03*
%TD*%
%TO.C,R-CMR5*%
X132034700Y-159865000D03*
X132994700Y-159865000D03*
%TD*%
D64*
%TO.C,R-CR21B*%
X31035314Y-166544496D03*
X31993486Y-166603704D03*
%TD*%
D107*
%TO.C,R-HER19*%
X60194233Y-156674697D03*
X59995629Y-154785105D03*
X62357469Y-155492099D03*
%TD*%
D33*
%TO.C,R-CRGBR2*%
X77849958Y-109473021D03*
X78808642Y-109422779D03*
%TD*%
D34*
%TO.C,R-CR8A*%
X8996569Y-117801517D03*
X9954231Y-117868483D03*
%TD*%
D13*
%TO.C,R-CR4A*%
X121170400Y-120716400D03*
X122130400Y-120716400D03*
%TD*%
%TO.C,R-CR26B*%
X142533400Y-180291400D03*
X143493400Y-180291400D03*
%TD*%
D32*
%TO.C,R-CRGBR14*%
X12758910Y-136145491D03*
X13707090Y-135995309D03*
%TD*%
D66*
%TO.C,R-CRGBR19*%
X45698610Y-149647591D03*
X46646790Y-149497409D03*
%TD*%
D46*
%TO.C,R-DR9*%
X101780400Y-129941400D03*
X101780400Y-131441400D03*
X107230400Y-131441400D03*
X107230400Y-129941400D03*
%TD*%
D14*
%TO.C,R-HER16*%
X79343578Y-155562430D03*
X79244140Y-153665034D03*
X81565741Y-154494668D03*
%TD*%
D13*
%TO.C,R-CR18A*%
X119808400Y-147441400D03*
X120768400Y-147441400D03*
%TD*%
D108*
%TO.C,R-DR11*%
X62605129Y-128028749D03*
X62761924Y-129520530D03*
X68182071Y-128950851D03*
X68025276Y-127459070D03*
%TD*%
D26*
%TO.C,R-CR13B*%
X54049927Y-144199840D03*
X55009873Y-144209960D03*
%TD*%
D109*
%TO.C,R-HER27*%
X56755033Y-176317697D03*
X56556429Y-174428105D03*
X58918269Y-175135099D03*
%TD*%
D13*
%TO.C,R-CRGBR4*%
X114672700Y-113773400D03*
X115632700Y-113773400D03*
%TD*%
D14*
%TO.C,R-HER2*%
X91937900Y-117191400D03*
X91937900Y-115291400D03*
X94212900Y-116241400D03*
%TD*%
D13*
%TO.C,R-CR30A*%
X88852400Y-185541400D03*
X89812400Y-185541400D03*
%TD*%
D68*
%TO.C,R-CR19B*%
X68032353Y-161815078D03*
X68990247Y-161751522D03*
%TD*%
D110*
%TO.C,R-DR27*%
X16444923Y-173006518D03*
X16679575Y-174488050D03*
X22062477Y-173635482D03*
X21827825Y-172153950D03*
%TD*%
D14*
%TO.C,R-HER24*%
X113844900Y-174341400D03*
X113844900Y-172441400D03*
X116119900Y-173391400D03*
%TD*%
D24*
%TO.C,R-CR22B*%
X83509832Y-180436119D03*
X84468568Y-180386881D03*
%TD*%
D14*
%TO.C,R-HER5*%
X130037900Y-117191400D03*
X130037900Y-115291400D03*
X132312900Y-116241400D03*
%TD*%
D111*
%TO.C,R-HER29*%
X19467717Y-181943648D03*
X19170492Y-180067040D03*
X21566094Y-180649456D03*
%TD*%
D112*
%TO.C,R-DR1*%
X51096629Y-110970149D03*
X51253424Y-112461930D03*
X56673571Y-111892251D03*
X56516776Y-110400470D03*
%TD*%
D58*
%TO.C,R-CR6A*%
X46830994Y-112035254D03*
X47790606Y-112007946D03*
%TD*%
D113*
%TO.C,R-HER7*%
X34902517Y-121742248D03*
X34605292Y-119865640D03*
X37000894Y-120448056D03*
%TD*%
D13*
%TO.C,R-CR4B*%
X127770400Y-123141400D03*
X128730400Y-123141400D03*
%TD*%
D114*
%TO.C,R-HER14*%
X27551517Y-142045448D03*
X27254292Y-140168840D03*
X29649894Y-140751256D03*
%TD*%
D31*
%TO.C,R-CRGBR27*%
X23421810Y-172660891D03*
X24369990Y-172510709D03*
%TD*%
D34*
%TO.C,R-CR8B*%
X24192969Y-129366717D03*
X25150631Y-129433683D03*
%TD*%
D14*
%TO.C,R-HER23*%
X94794900Y-174341400D03*
X94794900Y-172441400D03*
X97069900Y-173391400D03*
%TD*%
D34*
%TO.C,R-CR15A*%
X1640269Y-138100917D03*
X2597931Y-138167883D03*
%TD*%
D13*
%TO.C,R-CRGBR31*%
X139552400Y-187841400D03*
X140512400Y-187841400D03*
%TD*%
D14*
%TO.C,R-HER11*%
X127179900Y-136241400D03*
X127179900Y-134341400D03*
X129454900Y-135291400D03*
%TD*%
D115*
%TO.C,R-DR14*%
X5782223Y-136491218D03*
X6016875Y-137972750D03*
X11399777Y-137120182D03*
X11165125Y-135638650D03*
%TD*%
D86*
%TO.C,R-CR36A*%
X16708087Y-192490354D03*
X17656267Y-192340172D03*
%TD*%
D116*
%TO.C,R-DR12*%
X43661929Y-130013149D03*
X43818724Y-131504930D03*
X49238871Y-130935251D03*
X49082076Y-129443470D03*
%TD*%
D13*
%TO.C,R-CR31B*%
X106814400Y-199341400D03*
X107774400Y-199341400D03*
%TD*%
D15*
%TO.C,R-CRGBR25*%
X61189428Y-167254574D03*
X62144172Y-167154226D03*
%TD*%
D117*
%TO.C,R-HER12*%
X65156033Y-137111897D03*
X64957429Y-135222305D03*
X67319269Y-135929299D03*
%TD*%
D81*
%TO.C,R-CR12B*%
X72994694Y-142259480D03*
X73951506Y-142181320D03*
%TD*%
D40*
%TO.C,R-CRGBR20*%
X26895310Y-152624891D03*
X27843490Y-152474709D03*
%TD*%
D80*
%TO.C,R-RBPR24*%
X76057400Y-169216400D03*
X77077400Y-169216400D03*
%TD*%
D35*
%TO.C,R-CR7A*%
X27799377Y-114834922D03*
X28759223Y-114852078D03*
%TD*%
D118*
%TO.C,R-DR33*%
X120900400Y-113616400D03*
X122400400Y-113616400D03*
X122400400Y-108166400D03*
X120900400Y-108166400D03*
%TD*%
D13*
%TO.C,R-CR2A*%
X85995400Y-109341400D03*
X86955400Y-109341400D03*
%TD*%
D67*
%TO.C,R-CRGBR24*%
X80853658Y-166055921D03*
X81812342Y-166005679D03*
%TD*%
D14*
%TO.C,R-HER9*%
X84317900Y-136241400D03*
X84317900Y-134341400D03*
X86592900Y-135291400D03*
%TD*%
D46*
%TO.C,R-DR36*%
X112257400Y-187091400D03*
X112257400Y-188591400D03*
X117707400Y-188591400D03*
X117707400Y-187091400D03*
%TD*%
D13*
%TO.C,R-CR3B*%
X118245400Y-123141400D03*
X119205400Y-123141400D03*
%TD*%
%TO.C,R-CR24B*%
X121102400Y-180291400D03*
X122062400Y-180291400D03*
%TD*%
D14*
%TO.C,R-HER18*%
X125750900Y-155291400D03*
X125750900Y-153391400D03*
X128025900Y-154341400D03*
%TD*%
D22*
%TO.C,R-CR20B*%
X49837616Y-163607272D03*
X50797384Y-163586128D03*
%TD*%
D115*
%TO.C,R-DR7*%
X13201123Y-116586918D03*
X13435775Y-118068450D03*
X18818677Y-117215882D03*
X18584025Y-115734350D03*
%TD*%
D119*
%TO.C,R-DR13*%
X24528723Y-133108218D03*
X24763375Y-134589750D03*
X30146277Y-133737182D03*
X29911625Y-132255650D03*
%TD*%
D19*
%TO.C,R-AMR3*%
X81512400Y-182691400D03*
X80242400Y-182691400D03*
X78972400Y-182691400D03*
X77702400Y-182691400D03*
X76432400Y-182691400D03*
X75162400Y-182691400D03*
X73892400Y-182691400D03*
X72622400Y-182691400D03*
X72622400Y-177741400D03*
X73892400Y-177741400D03*
X75162400Y-177741400D03*
X76432400Y-177741400D03*
X77702400Y-177741400D03*
X78972400Y-177741400D03*
X80242400Y-177741400D03*
X81512400Y-177741400D03*
%TD*%
D13*
%TO.C,R-CRGBR34*%
X133033400Y-169391400D03*
X133993400Y-169391400D03*
%TD*%
D22*
%TO.C,R-CR20A*%
X34641416Y-152042172D03*
X35601184Y-152021028D03*
%TD*%
D80*
%TO.C,R-RBPR5*%
X117557400Y-112216400D03*
X118577400Y-112216400D03*
%TD*%
D16*
%TO.C,R-CR1A*%
X66560055Y-109962580D03*
X67518945Y-109916420D03*
%TD*%
D46*
%TO.C,R-DR10*%
X82730400Y-126941400D03*
X82730400Y-128441400D03*
X88180400Y-128441400D03*
X88180400Y-126941400D03*
%TD*%
%TO.C,R-DR5*%
X125423100Y-108623400D03*
X125423100Y-110123400D03*
X130873100Y-110123400D03*
X130873100Y-108623400D03*
%TD*%
D41*
%TO.C,R-CR35B*%
X66584235Y-200391808D03*
X67543361Y-200350870D03*
%TD*%
D14*
%TO.C,R-HER31*%
X99556900Y-193391400D03*
X99556900Y-191491400D03*
X101831900Y-192441400D03*
%TD*%
D13*
%TO.C,R-CR25A*%
X119808400Y-166491400D03*
X120768400Y-166491400D03*
%TD*%
%TO.C,R-CRGBR23*%
X100152400Y-165791400D03*
X101112400Y-165791400D03*
%TD*%
D120*
%TO.C,MB1*%
X31602020Y-500000D03*
%TD*%
%TO.C,MB2*%
X32352020Y-500000D03*
%TD*%
%TO.C,MB3*%
X33102020Y-500000D03*
%TD*%
%TO.C,MB4*%
X33852020Y-500000D03*
%TD*%
%TO.C,MB5*%
X34602020Y-500000D03*
%TD*%
%TO.C,MB6*%
X31602020Y-103342940D03*
%TD*%
%TO.C,MB7*%
X32352020Y-103342940D03*
%TD*%
%TO.C,MB8*%
X33102020Y-103342940D03*
%TD*%
%TO.C,MB9*%
X33852020Y-103342940D03*
%TD*%
%TO.C,MB10*%
X34602020Y-103342940D03*
%TD*%
%TO.C,MB11*%
X31602020Y-207641970D03*
%TD*%
%TO.C,MB12*%
X32352020Y-207641970D03*
%TD*%
%TO.C,MB13*%
X33102020Y-207641970D03*
%TD*%
%TO.C,MB14*%
X33852020Y-207641970D03*
%TD*%
%TO.C,MB15*%
X34602020Y-207641970D03*
%TD*%
%TO.C,MB16*%
X70992700Y-809140D03*
%TD*%
%TO.C,MB17*%
X71742700Y-809140D03*
%TD*%
%TO.C,MB18*%
X72492700Y-809140D03*
%TD*%
%TO.C,MB19*%
X73242700Y-809140D03*
%TD*%
%TO.C,MB20*%
X73992700Y-809140D03*
%TD*%
%TO.C,MB21*%
X70992700Y-101142440D03*
%TD*%
%TO.C,MB22*%
X71742700Y-101142440D03*
%TD*%
%TO.C,MB23*%
X72492700Y-101142440D03*
%TD*%
%TO.C,MB24*%
X73242700Y-101142440D03*
%TD*%
%TO.C,MB25*%
X73992700Y-101142440D03*
%TD*%
%TO.C,MB26*%
X70992700Y-201475740D03*
%TD*%
%TO.C,MB27*%
X71742700Y-201475740D03*
%TD*%
%TO.C,MB28*%
X72492700Y-201475740D03*
%TD*%
%TO.C,MB29*%
X73242700Y-201475740D03*
%TD*%
%TO.C,MB30*%
X73992700Y-201475740D03*
%TD*%
%TO.C,MB31*%
X110383380Y-5215300D03*
%TD*%
%TO.C,MB32*%
X111133380Y-5215300D03*
%TD*%
%TO.C,MB33*%
X111883380Y-5215300D03*
%TD*%
%TO.C,MB34*%
X112633380Y-5215300D03*
%TD*%
%TO.C,MB35*%
X113383380Y-5215300D03*
%TD*%
%TO.C,MB36*%
X110383380Y-104070990D03*
%TD*%
%TO.C,MB37*%
X111133380Y-104070990D03*
%TD*%
%TO.C,MB38*%
X111883380Y-104070990D03*
%TD*%
%TO.C,MB39*%
X112633380Y-104070990D03*
%TD*%
%TO.C,MB40*%
X113383380Y-104070990D03*
%TD*%
%TO.C,MB41*%
X110383380Y-201470570D03*
%TD*%
%TO.C,MB42*%
X111133380Y-201470570D03*
%TD*%
%TO.C,MB43*%
X111883380Y-201470570D03*
%TD*%
%TO.C,MB44*%
X112633380Y-201470570D03*
%TD*%
%TO.C,MB45*%
X113383380Y-201470570D03*
%TD*%
%TO.C,MB46*%
X-452850Y-51162500D03*
%TD*%
%TO.C,MB47*%
X-452850Y-51912500D03*
%TD*%
%TO.C,MB48*%
X-452850Y-52662500D03*
%TD*%
%TO.C,MB49*%
X-452850Y-53412500D03*
%TD*%
%TO.C,MB50*%
X-452850Y-54162500D03*
%TD*%
%TO.C,MB51*%
X144009760Y-51162500D03*
%TD*%
%TO.C,MB52*%
X144009760Y-51912500D03*
%TD*%
%TO.C,MB53*%
X144009760Y-52662500D03*
%TD*%
%TO.C,MB54*%
X144009760Y-53412500D03*
%TD*%
%TO.C,MB55*%
X144009760Y-54162500D03*
%TD*%
%TO.C,MB56*%
X975640Y-157878900D03*
%TD*%
%TO.C,MB57*%
X975640Y-158628900D03*
%TD*%
%TO.C,MB58*%
X975640Y-159378900D03*
%TD*%
%TO.C,MB59*%
X975640Y-160128900D03*
%TD*%
%TO.C,MB60*%
X975640Y-160878900D03*
%TD*%
%TO.C,MB61*%
X145438250Y-157878900D03*
%TD*%
%TO.C,MB62*%
X145438250Y-158628900D03*
%TD*%
%TO.C,MB63*%
X145438250Y-159378900D03*
%TD*%
%TO.C,MB64*%
X145438250Y-160128900D03*
%TD*%
%TO.C,MB65*%
X145438250Y-160878900D03*
%TD*%
D121*
%TO.C,FID1*%
X-4803000Y4045700D03*
%TD*%
%TO.C,FID2*%
X149788400Y4045700D03*
%TD*%
%TO.C,FID3*%
X-4803000Y-216087100D03*
%TD*%
%TO.C,TH1*%
X-6153000Y-60454140D03*
%TD*%
%TO.C,TH2*%
X151138400Y-60454140D03*
%TD*%
%TO.C,TH3*%
X-6153000Y-151587260D03*
%TD*%
%TO.C,TH4*%
X151138400Y-151587260D03*
%TD*%
M02*
