M48
; DRILL file KiCad 10.0.5 date 2026-09-21T10:22:00
; FORMAT={-:-/ absolute / metric / decimal}
; #@! TF.CreationDate,2026-09-21T10:22:00-04:00
; #@! TF.GenerationSoftware,Kicad,Pcbnew,10.0.5
; #@! TF.FileFunction,Plated,1,2,PTH
FMAT,2
METRIC
; #@! TA.AperFunction,Plated,PTH,ViaDrill
T1C0.300
%
G90
G05
T1
X3.429Y-75.814
X3.797Y-1.75
X6.367Y-163.216
X6.425Y-175.761
X6.73Y-3.45
X7.823Y-53.467
X7.875Y-72.359
X8.056Y-141.496
X8.873Y-46.727
X9.104Y-58.749
X9.147Y-41.404
X9.534Y-168.138
X9.543Y-167.216
X9.738Y-81.309
X9.747Y-43.204
X9.806Y-119.246
X9.842Y-166.342
X10.025Y-168.867
X10.241Y-160.538
X10.579Y-86.589
X11.224Y-46.413
X11.547Y-34.804
X11.74Y-10.519
X12.056Y-116.996
X12.409Y-135.252
X12.547Y-175.021
X12.871Y-121.342
X13.323Y-173.216
X13.556Y-118.996
X13.806Y-135.746
X13.943Y-22.691
X14.047Y-177.021
X15.034Y-87.805
X15.047Y-156.771
X15.372Y-41.727
X15.806Y-122.746
X16.17Y-158.266
X16.567Y-46.862
X16.806Y-154.246
X16.837Y-145.635
X17.556Y-150.996
X17.648Y-183.763
X17.886Y-175.694
X18.827Y-79.641
X19.443Y-19.198
X19.567Y-79.037
X20.056Y-153.246
X20.111Y-36.05
X20.297Y-159.521
X20.449Y-135.998
X20.509Y-1.75
X20.719Y-22.775
X20.822Y-38.315
X20.822Y-50.075
X21.297Y-185.021
X21.556Y-116.746
X21.556Y-134.496
X21.805Y-38.552
X21.806Y-132.459
X21.826Y-4.327
X22.009Y-5.5
X22.306Y-158.496
X22.663Y-148.377
X22.757Y-171.274
X22.788Y-38.674
X23.21Y-89.378
X23.218Y-169.017
X23.509Y-133.856
X23.786Y-121.251
X24.056Y-171.246
X24.177Y-50.64
X24.193Y-126.885
X24.217Y-71.22
X24.386Y-84.118
X24.549Y-57.552
X24.642Y-119.785
X24.662Y-81.068
X24.806Y-133.246
X25.26Y-118.247
X25.271Y-79.867
X25.301Y-151.103
X25.306Y-128.746
X26.259Y-3.375
X26.5Y-45.75
X27.047Y-190.771
X27.638Y-77.61
X27.97Y-84.085
X28.056Y-152.996
X28.46Y-122.425
X28.485Y-41.575
X28.547Y-185.021
X28.717Y-151.446
X29.242Y-156.093
X29.242Y-169.017
X29.284Y-4.327
X29.743Y-41.569
X29.75Y-42.5
X30.777Y-149.456
X30.806Y-113.746
X31.0Y-41.75
X31.025Y-46.95
X31.047Y-192.021
X31.634Y-48.432
X32.056Y-171.996
X32.16Y-119.021
X32.283Y-36.036
X32.306Y-131.246
X32.467Y-153.093
X32.479Y-30.783
X32.728Y-79.414
X32.888Y-40.362
X32.96Y-48.004
X33.553Y-40.998
X33.734Y-88.632
X33.88Y-117.723
X34.086Y-47.015
X34.223Y-82.454
X34.306Y-170.246
X34.323Y-51.966
X34.441Y-129.529
X34.46Y-121.321
X34.556Y-119.746
X34.741Y-183.763
X34.823Y-40.984
X34.845Y-31.78
X34.901Y-32.682
X35.027Y-19.568
X35.467Y-151.446
X35.953Y-121.626
X36.093Y-44.115
X36.137Y-174.96
X36.234Y-142.227
X36.806Y-145.996
X36.852Y-47.934
X36.965Y-6.026
X37.277Y-19.568
X37.33Y-129.704
X37.453Y-81.332
X37.495Y-59.144
X37.506Y-112.621
X37.556Y-150.246
X37.556Y-175.746
X37.709Y-34.412
X37.755Y-22.683
X38.306Y-114.246
X38.758Y-38.717
X38.822Y-41.352
X38.956Y-152.48
X38.982Y-114.139
X39.437Y-1.75
X39.806Y-111.996
X40.556Y-130.996
X40.587Y-46.008
X40.666Y-168.165
X41.029Y-4.327
X41.306Y-156.996
X41.687Y-6.25
X42.072Y-42.249
X42.639Y-80.058
X42.679Y-18.518
X42.833Y-57.552
X42.846Y-115.523
X42.905Y-31.78
X43.056Y-168.246
X43.706Y-35.014
X43.806Y-127.496
X43.837Y-159.696
X43.908Y-132.588
X44.587Y-168.267
X44.847Y-89.404
X45.337Y-153.907
X46.101Y-48.592
X46.292Y-135.967
X46.306Y-148.246
X46.797Y-184.521
X47.806Y-113.246
X47.807Y-128.168
X48.284Y-112.279
X48.327Y-140.054
X48.334Y-4.327
X48.337Y-164.665
X48.452Y-20.467
X49.973Y-38.717
X50.056Y-111.246
X50.447Y-80.504
X50.589Y-78.492
X50.806Y-162.246
X50.847Y-79.354
X51.06Y-164.932
X51.806Y-131.246
X51.873Y-77.096
X51.972Y-79.928
X52.656Y-57.507
X52.759Y-166.597
X53.056Y-167.496
X53.306Y-117.246
X53.464Y-79.587
X54.047Y-186.771
X54.195Y-4.428
X54.306Y-148.746
X54.361Y-169.726
X54.694Y-19.341
X54.77Y-145.594
X55.056Y-143.496
X55.258Y-7.097
X55.47Y-140.524
X55.501Y-74.406
X55.538Y-20.106
X55.759Y-178.767
X56.306Y-172.996
X56.797Y-188.771
X56.888Y-174.16
X57.405Y-109.512
X57.556Y-147.496
X57.712Y-2.114
X57.978Y-154.091
X58.46Y-32.684
X58.81Y-23.832
X59.056Y-112.246
X59.271Y-173.41
X59.288Y-38.717
X59.306Y-128.996
X60.121Y-129.273
X60.385Y-138.993
X61.866Y-185.86
X62.271Y-159.696
X62.271Y-165.415
X62.306Y-125.496
X62.306Y-168.496
X62.546Y-49.548
X62.547Y-196.521
X62.556Y-127.996
X62.648Y-71.222
X62.899Y-130.974
X63.021Y-178.767
X63.596Y-145.743
X63.788Y-22.356
X63.821Y-43.439
X64.285Y-3.331
X64.675Y-59.387
X64.768Y-74.485
X65.047Y-199.021
X65.259Y-69.088
X65.556Y-146.746
X65.797Y-180.021
X65.797Y-183.271
X66.013Y-72.506
X66.043Y-2.114
X66.276Y-81.522
X66.56Y-110.868
X66.673Y-50.197
X67.206Y-69.23
X67.521Y-148.441
X67.609Y-2.306
X67.713Y-38.698
X68.208Y-72.85
X68.288Y-37.086
X68.352Y-109.512
X68.366Y-69.53
X68.366Y-52.373
X68.553Y-74.135
X68.806Y-160.496
X69.047Y-194.521
X69.547Y-181.521
X69.631Y-166.473
X69.75Y-70.25
X69.792Y-13.691
X69.806Y-109.246
X70.0Y-79.5
X70.556Y-168.746
X70.615Y-73.237
X70.656Y-167.665
X70.935Y-26.357
X70.973Y-81.522
X70.995Y-128.82
X71.047Y-189.521
X71.25Y-71.0
X71.273Y-37.086
X71.287Y-87.337
X71.547Y-186.021
X72.047Y-72.635
X72.047Y-190.271
X72.25Y-58.0
X72.302Y-58.953
X72.622Y-179.292
X72.679Y-83.488
X72.806Y-113.996
X72.998Y-147.15
X73.134Y-141.226
X73.2Y-75.975
X73.447Y-87.154
X73.5Y-59.25
X73.5Y-78.0
X73.513Y-83.488
X73.766Y-184.479
X73.806Y-165.746
X73.845Y-145.743
X73.892Y-176.194
X73.896Y-88.634
X73.997Y-84.054
X74.056Y-149.246
X74.273Y-25.489
X74.323Y-82.455
X74.406Y-148.465
X74.5Y-80.0
X74.547Y-184.271
X74.547Y-185.271
X74.57Y-195.567
X74.64Y-70.337
X74.675Y-151.822
X74.783Y-83.474
X75.138Y-186.625
X75.407Y-2.373
X75.547Y-180.521
X75.75Y-77.25
X75.806Y-173.246
X75.822Y-176.354
X76.053Y-81.546
X76.179Y-171.665
X76.556Y-185.496
X76.633Y-2.125
X76.804Y-23.171
X76.87Y-162.239
X77.067Y-184.216
X77.209Y-107.911
X77.297Y-90.054
X77.306Y-146.246
X77.323Y-83.488
X77.69Y-168.509
X78.03Y-79.587
X78.04Y-176.208
X78.25Y-73.25
X78.457Y-83.276
X78.78Y-37.086
X78.797Y-78.304
X78.806Y-109.496
X78.854Y-174.802
X78.909Y-180.781
X79.055Y-34.412
X79.129Y-176.028
X79.292Y-172.884
X79.306Y-127.746
X79.321Y-164.411
X79.321Y-167.88
X79.656Y-158.946
X80.146Y-26.03
X80.29Y-160.439
X80.513Y-169.218
X80.742Y-81.774
X81.047Y-81.054
X81.512Y-181.15
X81.556Y-124.246
X81.764Y-42.752
X81.806Y-167.246
X81.904Y-164.665
X82.381Y-20.364
X83.404Y-158.627
X83.51Y-179.558
X83.97Y-145.874
X83.997Y-129.878
X84.056Y-177.996
X84.319Y-147.267
X84.356Y-62.287
X84.547Y-5.804
X84.751Y-136.599
X85.047Y-88.504
X85.306Y-147.996
X85.995Y-110.252
X86.007Y-149.725
X86.451Y-138.199
X86.601Y-12.72
X86.664Y-107.911
X86.808Y-70.072
X87.03Y-144.269
X87.121Y-5.176
X87.154Y-151.128
X87.341Y-39.941
X87.404Y-124.478
X87.806Y-160.246
X88.067Y-187.216
X88.171Y-147.378
X88.5Y-73.25
X89.159Y-13.494
X89.28Y-22.727
X89.306Y-108.746
X89.547Y-79.304
X89.806Y-167.746
X89.806Y-185.496
X89.817Y-188.716
X89.851Y-144.399
X90.047Y-11.304
X90.556Y-126.996
X90.561Y-41.509
X91.216Y-182.22
X91.267Y-185.416
X92.0Y-76.75
X92.014Y-60.543
X92.033Y-145.212
X92.056Y-113.496
X92.671Y-144.663
X93.306Y-164.996
X93.551Y-144.275
X93.826Y-6.957
X94.019Y-191.558
X94.047Y-187.421
X94.556Y-146.746
X94.873Y-19.9
X96.352Y-145.874
X96.433Y-4.689
X96.619Y-147.967
X97.043Y-108.552
X97.056Y-193.496
X97.576Y-37.086
X97.576Y-41.509
X97.88Y-177.625
X98.056Y-145.996
X98.067Y-190.216
X98.121Y-66.742
X98.306Y-110.746
X98.306Y-127.746
X98.657Y-164.023
X99.11Y-70.91
X99.195Y-124.233
X99.297Y-169.157
X99.327Y-37.671
X99.41Y-90.511
X99.556Y-153.496
X99.559Y-194.634
X100.047Y-9.304
X100.056Y-122.246
X100.383Y-164.392
X100.477Y-21.492
X100.647Y-44.865
X100.95Y-67.507
X100.995Y-61.417
X101.047Y-7.054
X101.279Y-132.699
X102.11Y-67.91
X102.306Y-128.746
X102.876Y-158.803
X102.882Y-155.41
X103.056Y-181.746
X103.056Y-200.746
X103.225Y-63.076
X103.306Y-134.246
X103.316Y-189.105
X103.531Y-190.691
X103.588Y-39.633
X103.797Y-187.521
X104.252Y-145.094
X105.196Y-80.151
X105.297Y-7.054
X105.391Y-161.107
X105.608Y-149.074
X105.633Y-167.392
X105.857Y-147.901
X105.976Y-110.449
X106.056Y-149.746
X106.647Y-83.404
X106.76Y-144.311
X107.056Y-165.246
X107.056Y-186.996
X107.069Y-177.625
X107.319Y-167.796
X107.469Y-138.32
X107.806Y-162.496
X107.806Y-200.746
X108.314Y-153.772
X108.38Y-161.665
X108.416Y-142.307
X108.666Y-150.746
X108.778Y-155.663
X108.806Y-186.996
X108.893Y-146.719
X109.356Y-128.933
X109.472Y-25.649
X109.703Y-62.336
X109.772Y-77.895
X109.784Y-145.79
X109.806Y-131.996
X109.933Y-133.483
X109.938Y-27.015
X110.0Y-117.621
X110.162Y-147.645
X110.306Y-170.746
X110.797Y-9.554
X110.818Y-145.606
X111.042Y-189.105
X111.056Y-115.246
X111.203Y-177.625
X111.7Y-119.221
X111.997Y-145.646
X112.081Y-150.552
X112.1Y-111.921
X112.1Y-113.521
X112.306Y-108.746
X112.523Y-27.617
X112.681Y-146.187
X112.744Y-171.687
X113.351Y-150.552
X113.515Y-117.809
X113.683Y-67.91
X113.806Y-172.496
X113.806Y-191.496
X113.855Y-194.632
X113.998Y-112.692
X114.556Y-119.496
X114.606Y-147.013
X114.76Y-116.818
X114.881Y-145.784
X115.133Y-159.421
X115.134Y-150.864
X115.297Y-184.521
X115.306Y-144.246
X115.498Y-112.721
X115.777Y-155.13
X116.047Y-83.304
X116.5Y-118.321
X116.797Y-82.554
X117.055Y-150.71
X117.056Y-152.246
X117.187Y-74.204
X117.198Y-114.521
X117.797Y-44.554
X117.816Y-186.081
X118.153Y-177.342
X118.319Y-162.746
X118.435Y-147.013
X118.493Y-113.721
X118.626Y-61.654
X118.8Y-116.421
X118.887Y-151.246
X119.236Y-62.336
X119.306Y-124.496
X119.366Y-108.623
X119.478Y-113.621
X119.676Y-65.66
X119.679Y-160.525
X119.989Y-196.311
X120.047Y-182.271
X120.056Y-189.246
X120.397Y-41.064
X120.5Y-108.321
X120.556Y-115.246
X120.785Y-158.065
X120.797Y-10.054
X120.806Y-167.746
X120.92Y-149.484
X120.953Y-162.153
X121.176Y-67.798
X121.176Y-71.954
X121.498Y-114.721
X121.609Y-117.351
X121.905Y-165.284
X122.018Y-17.916
X122.056Y-179.496
X122.056Y-200.746
X122.058Y-92.85
X122.089Y-158.716
X122.111Y-88.253
X122.306Y-129.746
X122.383Y-26.657
X122.428Y-74.194
X122.778Y-108.321
X123.056Y-145.996
X123.056Y-164.996
X123.056Y-186.996
X123.664Y-43.896
X124.047Y-10.054
X124.29Y-186.081
X124.348Y-131.441
X124.462Y-113.116
X124.648Y-194.634
X125.1Y-110.821
X125.606Y-109.021
X125.806Y-151.996
X125.806Y-170.746
X125.967Y-63.859
X126.811Y-74.194
X127.056Y-134.246
X127.806Y-182.996
X128.026Y-174.616
X128.051Y-133.483
X128.139Y-80.626
X128.297Y-182.271
X128.449Y-65.638
X128.606Y-114.621
X128.806Y-122.496
X128.806Y-189.246
X129.351Y-25.682
X129.806Y-164.996
X129.835Y-163.82
X130.234Y-33.072
X130.247Y-65.1
X130.408Y-188.716
X130.455Y-141.769
X130.491Y-167.834
X130.54Y-58.898
X130.873Y-107.866
X131.042Y-128.927
X131.267Y-194.316
X131.519Y-67.182
X131.556Y-121.996
X131.806Y-178.246
X132.123Y-139.285
X132.156Y-160.835
X132.489Y-51.354
X132.575Y-64.498
X132.615Y-29.154
X132.758Y-32.034
X132.891Y-194.634
X133.003Y-50.464
X133.003Y-9.871
X133.306Y-153.746
X133.556Y-131.996
X133.806Y-194.746
X133.993Y-55.445
X134.056Y-162.496
X134.056Y-181.746
X134.4Y-10.338
X135.306Y-143.496
X135.306Y-170.746
X136.04Y-163.82
X136.266Y-198.248
X136.306Y-200.746
X136.322Y-63.55
X136.672Y-57.039
X136.757Y-122.355
X136.931Y-163.391
X137.486Y-61.024
X137.491Y-54.068
X137.495Y-62.5
X138.306Y-124.496
X138.451Y-43.304
X139.047Y-30.304
X140.556Y-189.246
X140.972Y-160.228
X141.056Y-200.746
X141.132Y-157.136
X141.806Y-153.746
X141.952Y-198.248
X142.847Y-160.076
X142.966Y-160.964
X143.556Y-181.746
M30
