%TF.GenerationSoftware,KiCad,Pcbnew,10.0.5*%
%TF.CreationDate,2026-09-21T10:22:00-04:00*%
%TF.ProjectId,Symm60HE-Panel,53796d6d-3630-4484-952d-50616e656c2e,rev?*%
%TF.SameCoordinates,Original*%
%TF.FileFunction,Profile,NP*%
%FSLAX46Y46*%
G04 Gerber Fmt 4.6, Leading zero omitted, Abs format (unit mm)*
G04 Created by KiCad (PCBNEW 10.0.5) date 2026-09-21 10:22:00*
%MOMM*%
%LPD*%
G01*
G04 APERTURE LIST*
%TA.AperFunction,Profile*%
%ADD10C,0.050000*%
%TD*%
%TA.AperFunction,Profile*%
%ADD11C,0.120000*%
%TD*%
G04 APERTURE END LIST*
D10*
X-8653000Y7895700D02*
X-8653000Y-219937100D01*
X-8653000Y-219937100D02*
X153638400Y-219937100D01*
X153638400Y-219937100D02*
X153638400Y7895700D01*
X153638400Y7895700D02*
X-8653000Y7895700D01*
X137739000Y-105020700D02*
X137952100Y-105014200D01*
X137952100Y-105014200D02*
X138301900Y-104962600D01*
X138301900Y-104962600D02*
X138471000Y-104910600D01*
X138471000Y-104910600D02*
X138789400Y-104756900D01*
X138789400Y-104756900D02*
X139070300Y-104542300D01*
X139070300Y-104542300D02*
X139302300Y-104275600D01*
X139302300Y-104275600D02*
X139397000Y-104126000D01*
X139397000Y-104126000D02*
X139538800Y-103802200D01*
X139538800Y-103802200D02*
X139612500Y-103456400D01*
X139612500Y-103456400D02*
X141602900Y-85271900D01*
X141602900Y-85271900D02*
X141607500Y-84939400D01*
X141607500Y-84939400D02*
X141586100Y-84774300D01*
X141586100Y-84774300D02*
X141496900Y-84453900D01*
X141496900Y-84453900D02*
X141429800Y-84301500D01*
X141429800Y-84301500D02*
X141348600Y-84156100D01*
X141348600Y-84156100D02*
X141146700Y-83891800D01*
X141146700Y-83891800D02*
X141027800Y-83775300D01*
X141027800Y-83775300D02*
X140759700Y-83578500D01*
X140759700Y-83578500D02*
X140459100Y-83436100D01*
X140459100Y-83436100D02*
X140137000Y-83353100D01*
X140137000Y-83353100D02*
X133043500Y-82229600D01*
X133043500Y-82229600D02*
X132688600Y-82126200D01*
X132688600Y-82126200D02*
X132451500Y-82008700D01*
X132451500Y-82008700D02*
X132168100Y-81799100D01*
X132168100Y-81799100D02*
X131986400Y-81606900D01*
X131986400Y-81606900D02*
X131793000Y-81312200D01*
X131793000Y-81312200D02*
X131689000Y-81068900D01*
X131689000Y-81068900D02*
X131622900Y-80812700D01*
X131622900Y-80812700D02*
X131595200Y-80527400D01*
X131595200Y-80527400D02*
X131600400Y-72121400D01*
X131600400Y-72121400D02*
X131638100Y-71866900D01*
X131638100Y-71866900D02*
X131745600Y-71541500D01*
X131745600Y-71541500D02*
X131866900Y-71314600D01*
X131866900Y-71314600D02*
X132020100Y-71108000D01*
X132020100Y-71108000D02*
X132268400Y-70871600D01*
X132268400Y-70871600D02*
X132482200Y-70728700D01*
X132482200Y-70728700D02*
X132714800Y-70618700D01*
X132714800Y-70618700D02*
X132961000Y-70544100D01*
X132961000Y-70544100D02*
X133130000Y-70514700D01*
X133130000Y-70514700D02*
X133365500Y-70500000D01*
X133365500Y-70500000D02*
X142430500Y-70500000D01*
X142430500Y-70500000D02*
X142600400Y-70466400D01*
X142600400Y-70466400D02*
X142928700Y-70366800D01*
X142928700Y-70366800D02*
X143231200Y-70205100D01*
X143231200Y-70205100D02*
X143369200Y-70102800D01*
X143369200Y-70102800D02*
X143496400Y-69987400D01*
X143496400Y-69987400D02*
X143714100Y-69722200D01*
X143714100Y-69722200D02*
X143802400Y-69574900D01*
X143802400Y-69574900D02*
X143933600Y-69258000D01*
X143933600Y-69258000D02*
X144000600Y-68921500D01*
X144000600Y-68921500D02*
X144009000Y-68750000D01*
X144009000Y-68750000D02*
X144009640Y-55162500D01*
X144009640Y-55162500D02*
X148638400Y-55162500D01*
X148638400Y-55162500D02*
X148638400Y-156878900D01*
X148638400Y-156878900D02*
X145438240Y-156878900D01*
X145438240Y-156878900D02*
X145438200Y-146157700D01*
X145438200Y-146157700D02*
X145407300Y-145830400D01*
X145407300Y-145830400D02*
X145315700Y-145514600D01*
X145315700Y-145514600D02*
X145166600Y-145221500D01*
X145166600Y-145221500D02*
X145072200Y-145086700D01*
X145072200Y-145086700D02*
X144827300Y-144797000D01*
X144827300Y-144797000D02*
X144658100Y-144515400D01*
X144658100Y-144515400D02*
X144544600Y-144207100D01*
X144544600Y-144207100D02*
X144490700Y-143883000D01*
X144490700Y-143883000D02*
X144476500Y-127458300D01*
X144476500Y-127458300D02*
X144409500Y-127121800D01*
X144409500Y-127121800D02*
X144351700Y-126960100D01*
X144351700Y-126960100D02*
X144278300Y-126804900D01*
X144278300Y-126804900D02*
X144087700Y-126519600D01*
X144087700Y-126519600D02*
X143845100Y-126277000D01*
X143845100Y-126277000D02*
X143707100Y-126174700D01*
X143707100Y-126174700D02*
X143395000Y-125993600D01*
X143395000Y-125993600D02*
X143188400Y-125840300D01*
X143188400Y-125840300D02*
X143006500Y-125658400D01*
X143006500Y-125658400D02*
X142900900Y-125523200D01*
X142900900Y-125523200D02*
X142768700Y-125302500D01*
X142768700Y-125302500D02*
X142670200Y-125064800D01*
X142670200Y-125064800D02*
X142607700Y-124815300D01*
X142607700Y-124815300D02*
X142586700Y-124645000D01*
X142586700Y-124645000D02*
X142580400Y-108966400D01*
X142580400Y-108966400D02*
X142546800Y-108625000D01*
X142546800Y-108625000D02*
X142505000Y-108458400D01*
X142505000Y-108458400D02*
X142373800Y-108141500D01*
X142373800Y-108141500D02*
X142183200Y-107856200D01*
X142183200Y-107856200D02*
X142067800Y-107729000D01*
X142067800Y-107729000D02*
X141802600Y-107511300D01*
X141802600Y-107511300D02*
X141500100Y-107349600D01*
X141500100Y-107349600D02*
X141338400Y-107291800D01*
X141338400Y-107291800D02*
X141001900Y-107224800D01*
X141001900Y-107224800D02*
X140830400Y-107216400D01*
X140830400Y-107216400D02*
X114383380Y-107216400D01*
X114383380Y-107216400D02*
X114383380Y-101321530D01*
X114383380Y-101321530D02*
X137739000Y-105020700D01*
X144010100Y-45565700D02*
X145438400Y-31167300D01*
X145438400Y-31167300D02*
X145402600Y-30816500D01*
X145402600Y-30816500D02*
X145358400Y-30645600D01*
X145358400Y-30645600D02*
X145297100Y-30480000D01*
X145297100Y-30480000D02*
X145126400Y-30171500D01*
X145126400Y-30171500D02*
X145018600Y-30031700D01*
X145018600Y-30031700D02*
X144763700Y-29788100D01*
X144763700Y-29788100D02*
X144465000Y-29600600D01*
X144465000Y-29600600D02*
X144303100Y-29530300D01*
X144303100Y-29530300D02*
X143962200Y-29440400D01*
X143962200Y-29440400D02*
X137030100Y-28342400D01*
X137030100Y-28342400D02*
X136799800Y-28291000D01*
X136799800Y-28291000D02*
X136481200Y-28164600D01*
X136481200Y-28164600D02*
X136332800Y-28078500D01*
X136332800Y-28078500D02*
X136127700Y-27923300D01*
X136127700Y-27923300D02*
X136004600Y-27803700D01*
X136004600Y-27803700D02*
X135843300Y-27603300D01*
X135843300Y-27603300D02*
X135753000Y-27457400D01*
X135753000Y-27457400D02*
X135645300Y-27223800D01*
X135645300Y-27223800D02*
X135593000Y-27060400D01*
X135593000Y-27060400D02*
X135545300Y-26807600D01*
X135545300Y-26807600D02*
X135535200Y-26550500D01*
X135535200Y-26550500D02*
X135557500Y-26315600D01*
X135557500Y-26315600D02*
X137963100Y-11127700D01*
X137963100Y-11127700D02*
X137981600Y-10957000D01*
X137981600Y-10957000D02*
X137968100Y-10614300D01*
X137968100Y-10614300D02*
X137888100Y-10280800D01*
X137888100Y-10280800D02*
X137744500Y-9969300D01*
X137744500Y-9969300D02*
X137543000Y-9691800D01*
X137543000Y-9691800D02*
X137291200Y-9458900D01*
X137291200Y-9458900D02*
X136998800Y-9279600D01*
X136998800Y-9279600D02*
X136840900Y-9212300D01*
X136840900Y-9212300D02*
X136509000Y-9125600D01*
X136509000Y-9125600D02*
X114383380Y-5612280D01*
X114383380Y-5612280D02*
X114383380Y2895700D01*
X114383380Y2895700D02*
X148638400Y2895700D01*
X148638400Y2895700D02*
X148638400Y-50162500D01*
X148638400Y-50162500D02*
X144009880Y-50162500D01*
X144009880Y-50162500D02*
X144010100Y-45565700D01*
X148638400Y-214937100D02*
X114383380Y-214937100D01*
X114383380Y-214937100D02*
X114383380Y-201470240D01*
X114383380Y-201470240D02*
X143688400Y-201466400D01*
X143688400Y-201466400D02*
X144029800Y-201432800D01*
X144029800Y-201432800D02*
X144358100Y-201333200D01*
X144358100Y-201333200D02*
X144660600Y-201171500D01*
X144660600Y-201171500D02*
X144925800Y-200953800D01*
X144925800Y-200953800D02*
X145143500Y-200688600D01*
X145143500Y-200688600D02*
X145305200Y-200386100D01*
X145305200Y-200386100D02*
X145404800Y-200057800D01*
X145404800Y-200057800D02*
X145438400Y-199716400D01*
X145438400Y-199716400D02*
X145438260Y-161878900D01*
X145438260Y-161878900D02*
X148638400Y-161878900D01*
X148638400Y-161878900D02*
X148638400Y-214937100D01*
X74992700Y-214937100D02*
X74992700Y-201475410D01*
X74992700Y-201475410D02*
X109383380Y-201470900D01*
X109383380Y-201470900D02*
X109383380Y-214937100D01*
X109383380Y-214937100D02*
X74992700Y-214937100D01*
X101607500Y-3583600D02*
X80427700Y-1225000D01*
X80427700Y-1225000D02*
X74992700Y-940160D01*
X74992700Y-940160D02*
X74992700Y2895700D01*
X74992700Y2895700D02*
X109383380Y2895700D01*
X109383380Y2895700D02*
X109383380Y-4818330D01*
X109383380Y-4818330D02*
X101607500Y-3583600D01*
X109383380Y-100529610D02*
X109383380Y-107216400D01*
X109383380Y-107216400D02*
X83393000Y-107216400D01*
X83393000Y-107216400D02*
X83074700Y-107189400D01*
X83074700Y-107189400D02*
X82469000Y-107036600D01*
X82469000Y-107036600D02*
X82125500Y-107020700D01*
X82125500Y-107020700D02*
X74992700Y-107394520D01*
X74992700Y-107394520D02*
X74992700Y-95082660D01*
X74992700Y-95082660D02*
X109383380Y-100529610D01*
X35602020Y-214937100D02*
X35602020Y-207246010D01*
X35602020Y-207246010D02*
X69992700Y-201799060D01*
X69992700Y-201799060D02*
X69992700Y-214937100D01*
X69992700Y-214937100D02*
X35602020Y-214937100D01*
X62859900Y-304300D02*
X62516400Y-320200D01*
X62516400Y-320200D02*
X61910700Y-473000D01*
X61910700Y-473000D02*
X61592400Y-500000D01*
X61592400Y-500000D02*
X35602020Y-500000D01*
X35602020Y-500000D02*
X35602020Y2895700D01*
X35602020Y2895700D02*
X69992700Y2895700D01*
X69992700Y2895700D02*
X69992700Y-678120D01*
X69992700Y-678120D02*
X62859900Y-304300D01*
X69992700Y-94759010D02*
X69992700Y-107656560D01*
X69992700Y-107656560D02*
X64557700Y-107941400D01*
X64557700Y-107941400D02*
X43377900Y-110300000D01*
X43377900Y-110300000D02*
X35602020Y-111534730D01*
X35602020Y-111534730D02*
X35602020Y-94754500D01*
X35602020Y-94754500D02*
X69992700Y-94759010D01*
X-453000Y-93000000D02*
X-419400Y-93341400D01*
X-419400Y-93341400D02*
X-319800Y-93669700D01*
X-319800Y-93669700D02*
X-158100Y-93972200D01*
X-158100Y-93972200D02*
X59600Y-94237400D01*
X59600Y-94237400D02*
X324800Y-94455100D01*
X324800Y-94455100D02*
X627300Y-94616800D01*
X627300Y-94616800D02*
X955600Y-94716400D01*
X955600Y-94716400D02*
X1297000Y-94750000D01*
X1297000Y-94750000D02*
X30602020Y-94753840D01*
X30602020Y-94753840D02*
X30602020Y-112328680D01*
X30602020Y-112328680D02*
X8476400Y-115842000D01*
X8476400Y-115842000D02*
X8144500Y-115928700D01*
X8144500Y-115928700D02*
X7986600Y-115996000D01*
X7986600Y-115996000D02*
X7694200Y-116175300D01*
X7694200Y-116175300D02*
X7442400Y-116408200D01*
X7442400Y-116408200D02*
X7240900Y-116685700D01*
X7240900Y-116685700D02*
X7097300Y-116997200D01*
X7097300Y-116997200D02*
X7017300Y-117330700D01*
X7017300Y-117330700D02*
X7003800Y-117673400D01*
X7003800Y-117673400D02*
X7022300Y-117844100D01*
X7022300Y-117844100D02*
X9427900Y-133032000D01*
X9427900Y-133032000D02*
X9450200Y-133266900D01*
X9450200Y-133266900D02*
X9440100Y-133524000D01*
X9440100Y-133524000D02*
X9392400Y-133776800D01*
X9392400Y-133776800D02*
X9340100Y-133940200D01*
X9340100Y-133940200D02*
X9232400Y-134173800D01*
X9232400Y-134173800D02*
X9142100Y-134319700D01*
X9142100Y-134319700D02*
X8980800Y-134520100D01*
X8980800Y-134520100D02*
X8857700Y-134639700D01*
X8857700Y-134639700D02*
X8652600Y-134794900D01*
X8652600Y-134794900D02*
X8504200Y-134881000D01*
X8504200Y-134881000D02*
X8185600Y-135007400D01*
X8185600Y-135007400D02*
X7955300Y-135058800D01*
X7955300Y-135058800D02*
X1023200Y-136156800D01*
X1023200Y-136156800D02*
X682300Y-136246700D01*
X682300Y-136246700D02*
X520400Y-136317000D01*
X520400Y-136317000D02*
X221700Y-136504500D01*
X221700Y-136504500D02*
X-33200Y-136748100D01*
X-33200Y-136748100D02*
X-141000Y-136887900D01*
X-141000Y-136887900D02*
X-311700Y-137196400D01*
X-311700Y-137196400D02*
X-373000Y-137362000D01*
X-373000Y-137362000D02*
X-417200Y-137532900D01*
X-417200Y-137532900D02*
X-453000Y-137883700D01*
X-453000Y-137883700D02*
X975300Y-152282100D01*
X975300Y-152282100D02*
X975520Y-156878900D01*
X975520Y-156878900D02*
X-3653000Y-156878900D01*
X-3653000Y-156878900D02*
X-3653000Y-55162500D01*
X-3653000Y-55162500D02*
X-452860Y-55162500D01*
X-452860Y-55162500D02*
X-453000Y-93000000D01*
X976400Y-175466400D02*
X984800Y-175637900D01*
X984800Y-175637900D02*
X1051800Y-175974400D01*
X1051800Y-175974400D02*
X1183000Y-176291300D01*
X1183000Y-176291300D02*
X1271300Y-176438600D01*
X1271300Y-176438600D02*
X1489000Y-176703800D01*
X1489000Y-176703800D02*
X1616200Y-176819200D01*
X1616200Y-176819200D02*
X1754200Y-176921500D01*
X1754200Y-176921500D02*
X2056700Y-177083200D01*
X2056700Y-177083200D02*
X2385000Y-177182800D01*
X2385000Y-177182800D02*
X2554900Y-177216400D01*
X2554900Y-177216400D02*
X11619900Y-177216400D01*
X11619900Y-177216400D02*
X11855400Y-177231100D01*
X11855400Y-177231100D02*
X12024400Y-177260500D01*
X12024400Y-177260500D02*
X12270600Y-177335100D01*
X12270600Y-177335100D02*
X12503200Y-177445100D01*
X12503200Y-177445100D02*
X12717000Y-177588000D01*
X12717000Y-177588000D02*
X12965300Y-177824400D01*
X12965300Y-177824400D02*
X13118500Y-178031000D01*
X13118500Y-178031000D02*
X13239800Y-178257900D01*
X13239800Y-178257900D02*
X13347300Y-178583300D01*
X13347300Y-178583300D02*
X13385000Y-178837800D01*
X13385000Y-178837800D02*
X13390200Y-187243800D01*
X13390200Y-187243800D02*
X13362500Y-187529100D01*
X13362500Y-187529100D02*
X13296400Y-187785300D01*
X13296400Y-187785300D02*
X13192400Y-188028600D01*
X13192400Y-188028600D02*
X12999000Y-188323300D01*
X12999000Y-188323300D02*
X12817300Y-188515500D01*
X12817300Y-188515500D02*
X12533900Y-188725100D01*
X12533900Y-188725100D02*
X12296800Y-188842600D01*
X12296800Y-188842600D02*
X11941900Y-188946000D01*
X11941900Y-188946000D02*
X4848400Y-190069500D01*
X4848400Y-190069500D02*
X4526300Y-190152500D01*
X4526300Y-190152500D02*
X4225700Y-190294900D01*
X4225700Y-190294900D02*
X3957600Y-190491700D01*
X3957600Y-190491700D02*
X3838700Y-190608200D01*
X3838700Y-190608200D02*
X3636800Y-190872500D01*
X3636800Y-190872500D02*
X3555600Y-191017900D01*
X3555600Y-191017900D02*
X3488500Y-191170300D01*
X3488500Y-191170300D02*
X3399300Y-191490700D01*
X3399300Y-191490700D02*
X3377900Y-191655800D01*
X3377900Y-191655800D02*
X3382500Y-191988300D01*
X3382500Y-191988300D02*
X5372900Y-210172800D01*
X5372900Y-210172800D02*
X5446600Y-210518600D01*
X5446600Y-210518600D02*
X5588400Y-210842400D01*
X5588400Y-210842400D02*
X5683100Y-210992000D01*
X5683100Y-210992000D02*
X5915100Y-211258700D01*
X5915100Y-211258700D02*
X6196000Y-211473300D01*
X6196000Y-211473300D02*
X6514400Y-211627000D01*
X6514400Y-211627000D02*
X6683500Y-211679000D01*
X6683500Y-211679000D02*
X7033300Y-211730600D01*
X7033300Y-211730600D02*
X7246400Y-211737100D01*
X7246400Y-211737100D02*
X30602020Y-208037930D01*
X30602020Y-208037930D02*
X30602020Y-214937100D01*
X30602020Y-214937100D02*
X-3653000Y-214937100D01*
X-3653000Y-214937100D02*
X-3653000Y-161878900D01*
X-3653000Y-161878900D02*
X975760Y-161878900D01*
X975760Y-161878900D02*
X976400Y-175466400D01*
X3983500Y-508400D02*
X3647000Y-575400D01*
X3647000Y-575400D02*
X3485300Y-633200D01*
X3485300Y-633200D02*
X3182800Y-794900D01*
X3182800Y-794900D02*
X2917600Y-1012600D01*
X2917600Y-1012600D02*
X2802200Y-1139800D01*
X2802200Y-1139800D02*
X2611600Y-1425100D01*
X2611600Y-1425100D02*
X2480400Y-1742000D01*
X2480400Y-1742000D02*
X2438600Y-1908600D01*
X2438600Y-1908600D02*
X2405000Y-2250000D01*
X2405000Y-2250000D02*
X2398700Y-17928600D01*
X2398700Y-17928600D02*
X2377700Y-18098900D01*
X2377700Y-18098900D02*
X2315200Y-18348400D01*
X2315200Y-18348400D02*
X2216700Y-18586100D01*
X2216700Y-18586100D02*
X2084500Y-18806800D01*
X2084500Y-18806800D02*
X1978900Y-18942000D01*
X1978900Y-18942000D02*
X1797000Y-19123900D01*
X1797000Y-19123900D02*
X1590400Y-19277200D01*
X1590400Y-19277200D02*
X1278300Y-19458300D01*
X1278300Y-19458300D02*
X1140300Y-19560600D01*
X1140300Y-19560600D02*
X897700Y-19803200D01*
X897700Y-19803200D02*
X707100Y-20088500D01*
X707100Y-20088500D02*
X633700Y-20243700D01*
X633700Y-20243700D02*
X575900Y-20405400D01*
X575900Y-20405400D02*
X508900Y-20741900D01*
X508900Y-20741900D02*
X494700Y-37166600D01*
X494700Y-37166600D02*
X440800Y-37490700D01*
X440800Y-37490700D02*
X327300Y-37799000D01*
X327300Y-37799000D02*
X158100Y-38080600D01*
X158100Y-38080600D02*
X-86800Y-38370300D01*
X-86800Y-38370300D02*
X-181200Y-38505100D01*
X-181200Y-38505100D02*
X-330300Y-38798200D01*
X-330300Y-38798200D02*
X-421900Y-39114000D01*
X-421900Y-39114000D02*
X-452800Y-39441300D01*
X-452800Y-39441300D02*
X-452840Y-50162500D01*
X-452840Y-50162500D02*
X-3653000Y-50162500D01*
X-3653000Y-50162500D02*
X-3653000Y2895700D01*
X-3653000Y2895700D02*
X30602020Y2895700D01*
X30602020Y2895700D02*
X30602020Y-500000D01*
X30602020Y-500000D02*
X4155000Y-500000D01*
X4155000Y-500000D02*
X3983500Y-508400D01*
%TO.C,L-DL25*%
D11*
X105214730Y-63355461D02*
X105105170Y-64047192D01*
X105214730Y-63355461D02*
X105324289Y-62663731D01*
X106659148Y-65102933D02*
X105769880Y-64962086D01*
X106659148Y-65102933D02*
X107548416Y-65243779D01*
X107128452Y-62139867D02*
X106239184Y-61999021D01*
X107128452Y-62139867D02*
X108017720Y-62280714D01*
X108572870Y-63887339D02*
X108463311Y-64579069D01*
X108572870Y-63887339D02*
X108682430Y-63195608D01*
X105105170Y-64047192D02*
G75*
G02*
X105037326Y-64194697I-296321J46937D01*
G01*
X105305347Y-62502480D02*
G75*
G02*
X105324289Y-62663731I-277356J-114319D01*
G01*
X105305347Y-62502480D02*
G75*
G02*
X106091678Y-61931178I462273J190533D01*
G01*
X105608630Y-64981028D02*
G75*
G02*
X105037326Y-64194697I-190535J462272D01*
G01*
X105608630Y-64981028D02*
G75*
G02*
X105769880Y-64962086I114318J-277356D01*
G01*
X106239184Y-61999021D02*
G75*
G02*
X106091679Y-61931177I46939J296328D01*
G01*
X107548416Y-65243779D02*
G75*
G02*
X107695922Y-65311622I-46936J-296326D01*
G01*
X108178970Y-62261772D02*
G75*
G02*
X108017724Y-62280690I-114273J277357D01*
G01*
X108178970Y-62261772D02*
G75*
G02*
X108750273Y-63048103I190536J-462271D01*
G01*
X108482253Y-64740320D02*
G75*
G02*
X107695921Y-65311623I-462272J-190535D01*
G01*
X108482253Y-64740320D02*
G75*
G02*
X108463335Y-64579073I277357J114274D01*
G01*
X108682430Y-63195608D02*
G75*
G02*
X108750275Y-63048104I296004J-46794D01*
G01*
%TO.C,L-DL21*%
X16397600Y-59074900D02*
X16397600Y-58374547D01*
X16397600Y-59074900D02*
X16397600Y-59775253D01*
X18097600Y-57574900D02*
X17197247Y-57574900D01*
X18097600Y-57574900D02*
X18997953Y-57574900D01*
X18097600Y-60574900D02*
X17197247Y-60574900D01*
X18097600Y-60574900D02*
X18997953Y-60574900D01*
X19797600Y-59074900D02*
X19797600Y-58374547D01*
X19797600Y-59074900D02*
X19797600Y-59775253D01*
X16353666Y-58218245D02*
G75*
G02*
X16397600Y-58374547I-256082J-156306D01*
G01*
X16353666Y-58218245D02*
G75*
G02*
X17040945Y-57530966I426775J260504D01*
G01*
X16397600Y-59775253D02*
G75*
G02*
X16353666Y-59931555I-299992J-3D01*
G01*
X17040945Y-60618834D02*
G75*
G02*
X16353666Y-59931555I-260503J426776D01*
G01*
X17040945Y-60618834D02*
G75*
G02*
X17197247Y-60574900I156308J-256089D01*
G01*
X17197247Y-57574900D02*
G75*
G02*
X17040945Y-57530966I-8J299974D01*
G01*
X18997953Y-60574900D02*
G75*
G02*
X19154256Y-60618832I7J-299990D01*
G01*
X19154255Y-57530966D02*
G75*
G02*
X18997953Y-57574899I-156305J256086D01*
G01*
X19154255Y-57530966D02*
G75*
G02*
X19841534Y-58218245I260505J-426774D01*
G01*
X19797600Y-58374547D02*
G75*
G02*
X19841532Y-58218244I299670J97D01*
G01*
X19841534Y-59931555D02*
G75*
G02*
X19154255Y-60618834I-426774J-260505D01*
G01*
X19841534Y-59931555D02*
G75*
G02*
X19797624Y-59775253I256066J156255D01*
G01*
%TO.C,L-DL20*%
X16397300Y-40024700D02*
X16397300Y-39324347D01*
X16397300Y-40024700D02*
X16397300Y-40725053D01*
X18097300Y-38524699D02*
X17196947Y-38524700D01*
X18097300Y-38524699D02*
X18997653Y-38524700D01*
X18097300Y-41524701D02*
X17196947Y-41524700D01*
X18097300Y-41524701D02*
X18997653Y-41524700D01*
X19797300Y-40024700D02*
X19797300Y-39324347D01*
X19797300Y-40024700D02*
X19797300Y-40725053D01*
X16353366Y-39168045D02*
G75*
G02*
X16397300Y-39324347I-256058J-156299D01*
G01*
X16353366Y-39168045D02*
G75*
G02*
X17040645Y-38480766I426776J260503D01*
G01*
X16397300Y-40725053D02*
G75*
G02*
X16353366Y-40881355I-300016J4D01*
G01*
X17040645Y-41568634D02*
G75*
G02*
X16353366Y-40881355I-260504J426775D01*
G01*
X17040645Y-41568634D02*
G75*
G02*
X17196947Y-41524700I156299J-256058D01*
G01*
X17196947Y-38524700D02*
G75*
G02*
X17040645Y-38480766I6J300023D01*
G01*
X18997653Y-41524700D02*
G75*
G02*
X19153956Y-41568633I-3J-300020D01*
G01*
X19153955Y-38480766D02*
G75*
G02*
X18997653Y-38524676I-156255J256066D01*
G01*
X19153955Y-38480766D02*
G75*
G02*
X19841234Y-39168045I260505J-426774D01*
G01*
X19797300Y-39324347D02*
G75*
G02*
X19841235Y-39168046I299680J87D01*
G01*
X19841234Y-40881355D02*
G75*
G02*
X19153955Y-41568634I-426774J-260505D01*
G01*
X19841234Y-40881355D02*
G75*
G02*
X19797324Y-40725053I256066J156255D01*
G01*
%TO.C,L-DL5*%
X89409813Y-4537502D02*
X89336606Y-5234018D01*
X89409813Y-4537502D02*
X89483020Y-3840985D01*
X90943707Y-6206983D02*
X90048287Y-6112870D01*
X90943707Y-6206983D02*
X91839128Y-6301095D01*
X91257293Y-3223417D02*
X90361872Y-3129305D01*
X91257293Y-3223417D02*
X92152713Y-3317530D01*
X92791187Y-4892898D02*
X92717980Y-5589415D01*
X92791187Y-4892898D02*
X92864394Y-4196382D01*
X89336606Y-5234018D02*
G75*
G02*
X89276575Y-5384871I-298349J31355D01*
G01*
X89455664Y-3680947D02*
G75*
G02*
X89483019Y-3840985I-271017J-128682D01*
G01*
X89455664Y-3680947D02*
G75*
G02*
X90211019Y-3069273I451667J214467D01*
G01*
X89888248Y-6140226D02*
G75*
G02*
X89276576Y-5384871I-214465J451668D01*
G01*
X89888248Y-6140226D02*
G75*
G02*
X90048287Y-6112870I128684J-271024D01*
G01*
X90361872Y-3129305D02*
G75*
G02*
X90211018Y-3069274I31348J298332D01*
G01*
X91839128Y-6301095D02*
G75*
G02*
X91989983Y-6361124I-31350J-298348D01*
G01*
X92312752Y-3290174D02*
G75*
G02*
X92152713Y-3317528I-128681J271021D01*
G01*
X92312752Y-3290174D02*
G75*
G02*
X92924425Y-4045529I214467J-451667D01*
G01*
X92745336Y-5749453D02*
G75*
G02*
X91989981Y-6361127I-451667J-214468D01*
G01*
X92745336Y-5749453D02*
G75*
G02*
X92718005Y-5589418I270996J128633D01*
G01*
X92864394Y-4196382D02*
G75*
G02*
X92924423Y-4045528I298039J-31228D01*
G01*
%TO.C,L-DL29*%
X44972500Y-78000000D02*
X44972500Y-77299647D01*
X44972500Y-78000000D02*
X44972500Y-78700353D01*
X46672500Y-76500000D02*
X45772147Y-76500000D01*
X46672500Y-76500000D02*
X47572853Y-76500000D01*
X46672500Y-79500000D02*
X45772147Y-79500000D01*
X46672500Y-79500000D02*
X47572853Y-79500000D01*
X48372500Y-78000000D02*
X48372500Y-77299647D01*
X48372500Y-78000000D02*
X48372500Y-78700353D01*
X44928566Y-77143345D02*
G75*
G02*
X44972500Y-77299647I-256058J-156299D01*
G01*
X44928566Y-77143345D02*
G75*
G02*
X45615845Y-76456066I426776J260503D01*
G01*
X44972500Y-78700353D02*
G75*
G02*
X44928566Y-78856655I-299992J-3D01*
G01*
X45615845Y-79543934D02*
G75*
G02*
X44928566Y-78856655I-260503J426776D01*
G01*
X45615845Y-79543934D02*
G75*
G02*
X45772147Y-79500000I156299J-256058D01*
G01*
X45772147Y-76500000D02*
G75*
G02*
X45615845Y-76456066I-3J299992D01*
G01*
X47572853Y-79500000D02*
G75*
G02*
X47729156Y-79543933I-3J-300020D01*
G01*
X47729155Y-76456066D02*
G75*
G02*
X47572853Y-76499976I-156255J256066D01*
G01*
X47729155Y-76456066D02*
G75*
G02*
X48416434Y-77143345I260505J-426774D01*
G01*
X48372500Y-77299647D02*
G75*
G02*
X48416435Y-77143346I299680J87D01*
G01*
X48416434Y-78856655D02*
G75*
G02*
X47729155Y-79543934I-426774J-260505D01*
G01*
X48416434Y-78856655D02*
G75*
G02*
X48372524Y-78700353I256066J156255D01*
G01*
%TO.C,L-DL3*%
X50210000Y-2725000D02*
X50210000Y-2024647D01*
X50210000Y-2725000D02*
X50210000Y-3425353D01*
X51910000Y-1225000D02*
X51009647Y-1225000D01*
X51910000Y-1225000D02*
X52810353Y-1225000D01*
X51910000Y-4225000D02*
X51009647Y-4225000D01*
X51910000Y-4225000D02*
X52810353Y-4225000D01*
X53610000Y-2725000D02*
X53610000Y-2024647D01*
X53610000Y-2725000D02*
X53610000Y-3425353D01*
X50166066Y-1868345D02*
G75*
G02*
X50210000Y-2024647I-256058J-156299D01*
G01*
X50166066Y-1868345D02*
G75*
G02*
X50853345Y-1181066I426776J260503D01*
G01*
X50210000Y-3425353D02*
G75*
G02*
X50166066Y-3581655I-299992J-3D01*
G01*
X50853345Y-4268934D02*
G75*
G02*
X50166066Y-3581655I-260503J426776D01*
G01*
X50853345Y-4268934D02*
G75*
G02*
X51009647Y-4225000I156299J-256058D01*
G01*
X51009647Y-1225000D02*
G75*
G02*
X50853345Y-1181066I-3J299992D01*
G01*
X52810353Y-4225000D02*
G75*
G02*
X52966656Y-4268933I-3J-300020D01*
G01*
X52966655Y-1181066D02*
G75*
G02*
X52810353Y-1224976I-156255J256066D01*
G01*
X52966655Y-1181066D02*
G75*
G02*
X53653934Y-1868345I260505J-426774D01*
G01*
X53610000Y-2024647D02*
G75*
G02*
X53653935Y-1868346I299680J87D01*
G01*
X53653934Y-3581655D02*
G75*
G02*
X52966655Y-4268934I-426774J-260505D01*
G01*
X53653934Y-3581655D02*
G75*
G02*
X53610024Y-3425353I256066J156255D01*
G01*
%TO.C,L-DL30*%
X84310313Y-79746302D02*
X84237106Y-80442818D01*
X84310313Y-79746302D02*
X84383520Y-79049785D01*
X85844207Y-81415783D02*
X84948787Y-81321670D01*
X85844207Y-81415783D02*
X86739628Y-81509895D01*
X86157793Y-78432217D02*
X85262372Y-78338105D01*
X86157793Y-78432217D02*
X87053213Y-78526330D01*
X87691687Y-80101698D02*
X87618480Y-80798215D01*
X87691687Y-80101698D02*
X87764894Y-79405182D01*
X84237106Y-80442818D02*
G75*
G02*
X84177075Y-80593671I-298379J31367D01*
G01*
X84356164Y-78889747D02*
G75*
G02*
X84383519Y-79049785I-270993J-128678D01*
G01*
X84356164Y-78889747D02*
G75*
G02*
X85111519Y-78278073I451667J214467D01*
G01*
X84788748Y-81349026D02*
G75*
G02*
X84177075Y-80593671I-214466J451668D01*
G01*
X84788748Y-81349026D02*
G75*
G02*
X84948787Y-81321671I128678J-270993D01*
G01*
X85262372Y-78338105D02*
G75*
G02*
X85111518Y-78278074I31357J298356D01*
G01*
X86739628Y-81509895D02*
G75*
G02*
X86890481Y-81569927I-31361J-298357D01*
G01*
X87213252Y-78498974D02*
G75*
G02*
X87053216Y-78526305I-128633J270996D01*
G01*
X87213252Y-78498974D02*
G75*
G02*
X87824925Y-79254329I214467J-451667D01*
G01*
X87645836Y-80958253D02*
G75*
G02*
X86890481Y-81569927I-451667J-214468D01*
G01*
X87645836Y-80958253D02*
G75*
G02*
X87618505Y-80798218I270996J128633D01*
G01*
X87764894Y-79405182D02*
G75*
G02*
X87824925Y-79254329I298057J-31240D01*
G01*
%TO.C,L-DL22*%
X47353900Y-59074300D02*
X47353900Y-58373947D01*
X47353900Y-59074300D02*
X47353900Y-59774653D01*
X49053900Y-57574300D02*
X48153547Y-57574300D01*
X49053900Y-57574300D02*
X49954253Y-57574300D01*
X49053900Y-60574300D02*
X48153547Y-60574300D01*
X49053900Y-60574300D02*
X49954253Y-60574300D01*
X50753900Y-59074300D02*
X50753900Y-58373947D01*
X50753900Y-59074300D02*
X50753900Y-59774653D01*
X47309966Y-58217645D02*
G75*
G02*
X47353900Y-58373947I-256065J-156301D01*
G01*
X47309966Y-58217645D02*
G75*
G02*
X47997245Y-57530366I426775J260504D01*
G01*
X47353900Y-59774653D02*
G75*
G02*
X47309966Y-59930955I-300016J4D01*
G01*
X47997245Y-60618234D02*
G75*
G02*
X47309966Y-59930955I-260503J426776D01*
G01*
X47997245Y-60618234D02*
G75*
G02*
X48153547Y-60574300I156301J-256065D01*
G01*
X48153547Y-57574300D02*
G75*
G02*
X47997245Y-57530366I4J300016D01*
G01*
X49954253Y-60574300D02*
G75*
G02*
X50110556Y-60618233I-3J-300020D01*
G01*
X50110555Y-57530366D02*
G75*
G02*
X49954253Y-57574290I-156255J255966D01*
G01*
X50110555Y-57530366D02*
G75*
G02*
X50797834Y-58217645I260505J-426774D01*
G01*
X50753900Y-58373947D02*
G75*
G02*
X50797834Y-58217645I299690J87D01*
G01*
X50797834Y-59930955D02*
G75*
G02*
X50110555Y-60618234I-426774J-260505D01*
G01*
X50797834Y-59930955D02*
G75*
G02*
X50753924Y-59774653I256066J156255D01*
G01*
%TO.C,L-DL14*%
X134716830Y-29824561D02*
X134607270Y-30516292D01*
X134716830Y-29824561D02*
X134826389Y-29132831D01*
X136161248Y-31572033D02*
X135271980Y-31431186D01*
X136161248Y-31572033D02*
X137050516Y-31712879D01*
X136630552Y-28608967D02*
X135741284Y-28468121D01*
X136630552Y-28608967D02*
X137519820Y-28749814D01*
X138074970Y-30356439D02*
X137965411Y-31048169D01*
X138074970Y-30356439D02*
X138184530Y-29664708D01*
X134607270Y-30516292D02*
G75*
G02*
X134539426Y-30663797I-296321J46937D01*
G01*
X134807447Y-28971580D02*
G75*
G02*
X134826389Y-29132831I-277356J-114319D01*
G01*
X134807447Y-28971580D02*
G75*
G02*
X135593778Y-28400278I462273J190533D01*
G01*
X135110730Y-31450128D02*
G75*
G02*
X134539426Y-30663797I-190535J462272D01*
G01*
X135110730Y-31450128D02*
G75*
G02*
X135271980Y-31431186I114318J-277356D01*
G01*
X135741284Y-28468121D02*
G75*
G02*
X135593779Y-28400277I46939J296328D01*
G01*
X137050516Y-31712879D02*
G75*
G02*
X137198022Y-31780722I-46936J-296326D01*
G01*
X137681070Y-28730872D02*
G75*
G02*
X137519824Y-28749790I-114273J277357D01*
G01*
X137681070Y-28730872D02*
G75*
G02*
X138252373Y-29517203I190536J-462271D01*
G01*
X137984353Y-31209420D02*
G75*
G02*
X137198021Y-31780723I-462272J-190535D01*
G01*
X137984353Y-31209420D02*
G75*
G02*
X137965435Y-31048173I277357J114274D01*
G01*
X138184530Y-29664708D02*
G75*
G02*
X138252375Y-29517204I296004J-46794D01*
G01*
%TO.C,L-DL4*%
X69652930Y-2888129D02*
X69616276Y-3587522D01*
X69652930Y-2888129D02*
X69689583Y-2188736D01*
X71272096Y-4475044D02*
X70372977Y-4427923D01*
X71272096Y-4475044D02*
X72171215Y-4522165D01*
X71429104Y-1479156D02*
X70529985Y-1432035D01*
X71429104Y-1479156D02*
X72328223Y-1526277D01*
X73048270Y-3066071D02*
X73011617Y-3765464D01*
X73048270Y-3066071D02*
X73084924Y-2366678D01*
X69616276Y-3587522D02*
G75*
G02*
X69564222Y-3741311I-299604J15706D01*
G01*
X69653890Y-2030349D02*
G75*
G02*
X69689583Y-2188736I-263894J-142685D01*
G01*
X69653890Y-2030349D02*
G75*
G02*
X70376197Y-1379980I439824J237812D01*
G01*
X70214590Y-4463617D02*
G75*
G02*
X69564222Y-3741311I-237810J439825D01*
G01*
X70214590Y-4463617D02*
G75*
G02*
X70372977Y-4427924I142685J-263894D01*
G01*
X70529985Y-1432035D02*
G75*
G02*
X70376196Y-1379981I15705J299605D01*
G01*
X72171215Y-4522165D02*
G75*
G02*
X72325004Y-4574218I-15705J-299609D01*
G01*
X72486610Y-1490583D02*
G75*
G02*
X72328224Y-1526267I-142644J263793D01*
G01*
X72486610Y-1490583D02*
G75*
G02*
X73136979Y-2212890I237813J-439823D01*
G01*
X73047310Y-3923851D02*
G75*
G02*
X72325003Y-4574220I-439823J-237813D01*
G01*
X73047310Y-3923851D02*
G75*
G02*
X73011641Y-3765465I263893J142639D01*
G01*
X73084924Y-2366678D02*
G75*
G02*
X73136979Y-2212889I299284J-15598D01*
G01*
%TO.C,L-DL8*%
X96844013Y-23578902D02*
X96770806Y-24275418D01*
X96844013Y-23578902D02*
X96917220Y-22882385D01*
X98377907Y-25248383D02*
X97482487Y-25154270D01*
X98377907Y-25248383D02*
X99273328Y-25342495D01*
X98691493Y-22264817D02*
X97796072Y-22170705D01*
X98691493Y-22264817D02*
X99586913Y-22358930D01*
X100225387Y-23934298D02*
X100152180Y-24630815D01*
X100225387Y-23934298D02*
X100298594Y-23237782D01*
X96770806Y-24275418D02*
G75*
G02*
X96710775Y-24426271I-298349J31355D01*
G01*
X96889864Y-22722347D02*
G75*
G02*
X96917219Y-22882385I-271017J-128682D01*
G01*
X96889864Y-22722347D02*
G75*
G02*
X97645219Y-22110673I451667J214467D01*
G01*
X97322448Y-25181626D02*
G75*
G02*
X96710776Y-24426271I-214465J451668D01*
G01*
X97322448Y-25181626D02*
G75*
G02*
X97482487Y-25154270I128684J-271024D01*
G01*
X97796072Y-22170705D02*
G75*
G02*
X97645218Y-22110674I31348J298332D01*
G01*
X99273328Y-25342495D02*
G75*
G02*
X99424183Y-25402524I-31350J-298348D01*
G01*
X99746952Y-22331574D02*
G75*
G02*
X99586913Y-22358928I-128681J271021D01*
G01*
X99746952Y-22331574D02*
G75*
G02*
X100358625Y-23086929I214467J-451667D01*
G01*
X100179536Y-24790853D02*
G75*
G02*
X99424181Y-25402527I-451667J-214468D01*
G01*
X100179536Y-24790853D02*
G75*
G02*
X100152205Y-24630818I270996J128633D01*
G01*
X100298594Y-23237782D02*
G75*
G02*
X100358623Y-23086928I298039J-31228D01*
G01*
%TO.C,L-DL1*%
X12110000Y-2725000D02*
X12110000Y-2024647D01*
X12110000Y-2725000D02*
X12110000Y-3425353D01*
X13810000Y-1225000D02*
X12909647Y-1225000D01*
X13810000Y-1225000D02*
X14710353Y-1225000D01*
X13810000Y-4225000D02*
X12909647Y-4225000D01*
X13810000Y-4225000D02*
X14710353Y-4225000D01*
X15510000Y-2725000D02*
X15510000Y-2024647D01*
X15510000Y-2725000D02*
X15510000Y-3425353D01*
X12066066Y-1868345D02*
G75*
G02*
X12110000Y-2024647I-256058J-156299D01*
G01*
X12066066Y-1868345D02*
G75*
G02*
X12753345Y-1181066I426776J260503D01*
G01*
X12110000Y-3425353D02*
G75*
G02*
X12066066Y-3581655I-299992J-3D01*
G01*
X12753345Y-4268934D02*
G75*
G02*
X12066066Y-3581655I-260503J426776D01*
G01*
X12753345Y-4268934D02*
G75*
G02*
X12909647Y-4225000I156299J-256058D01*
G01*
X12909647Y-1225000D02*
G75*
G02*
X12753345Y-1181066I-3J299992D01*
G01*
X14710353Y-4225000D02*
G75*
G02*
X14866656Y-4268933I-3J-300020D01*
G01*
X14866655Y-1181066D02*
G75*
G02*
X14710353Y-1224976I-156255J256066D01*
G01*
X14866655Y-1181066D02*
G75*
G02*
X15553934Y-1868345I260505J-426774D01*
G01*
X15510000Y-2024647D02*
G75*
G02*
X15553935Y-1868346I299680J87D01*
G01*
X15553934Y-3581655D02*
G75*
G02*
X14866655Y-4268934I-426774J-260505D01*
G01*
X15553934Y-3581655D02*
G75*
G02*
X15510024Y-3425353I256066J156255D01*
G01*
%TO.C,L-DL33*%
X28303000Y-81125000D02*
X28303000Y-80424647D01*
X28303000Y-81125000D02*
X28303000Y-81825353D01*
X30003000Y-79625000D02*
X29102647Y-79625000D01*
X30003000Y-79625000D02*
X30903353Y-79625000D01*
X30003000Y-82625000D02*
X29102647Y-82625000D01*
X30003000Y-82625000D02*
X30903353Y-82625000D01*
X31703000Y-81125000D02*
X31703000Y-80424647D01*
X31703000Y-81125000D02*
X31703000Y-81825353D01*
X28259066Y-80268345D02*
G75*
G02*
X28303000Y-80424647I-256058J-156299D01*
G01*
X28259066Y-80268345D02*
G75*
G02*
X28946345Y-79581066I426776J260503D01*
G01*
X28303000Y-81825353D02*
G75*
G02*
X28259066Y-81981655I-299992J-3D01*
G01*
X28946345Y-82668934D02*
G75*
G02*
X28259066Y-81981655I-260503J426776D01*
G01*
X28946345Y-82668934D02*
G75*
G02*
X29102647Y-82625000I156299J-256058D01*
G01*
X29102647Y-79625000D02*
G75*
G02*
X28946345Y-79581066I-3J299992D01*
G01*
X30903353Y-82625000D02*
G75*
G02*
X31059656Y-82668933I-3J-300020D01*
G01*
X31059655Y-79581066D02*
G75*
G02*
X30903353Y-79624976I-156255J256066D01*
G01*
X31059655Y-79581066D02*
G75*
G02*
X31746934Y-80268345I260505J-426774D01*
G01*
X31703000Y-80424647D02*
G75*
G02*
X31746935Y-80268346I299680J87D01*
G01*
X31746934Y-81981655D02*
G75*
G02*
X31059655Y-82668934I-426774J-260505D01*
G01*
X31746934Y-81981655D02*
G75*
G02*
X31703024Y-81825353I256066J156255D01*
G01*
%TO.C,L-DL23*%
X66648130Y-59470429D02*
X66611476Y-60169822D01*
X66648130Y-59470429D02*
X66684783Y-58771036D01*
X68267296Y-61057344D02*
X67368177Y-61010223D01*
X68267296Y-61057344D02*
X69166415Y-61104465D01*
X68424304Y-58061456D02*
X67525185Y-58014335D01*
X68424304Y-58061456D02*
X69323423Y-58108577D01*
X70043470Y-59648371D02*
X70006817Y-60347764D01*
X70043470Y-59648371D02*
X70080124Y-58948978D01*
X66611476Y-60169822D02*
G75*
G02*
X66559422Y-60323611I-299581J15697D01*
G01*
X66649090Y-58612649D02*
G75*
G02*
X66684783Y-58771036I-263887J-142683D01*
G01*
X66649090Y-58612649D02*
G75*
G02*
X67371397Y-57962280I439825J237811D01*
G01*
X67209790Y-61045917D02*
G75*
G02*
X66559422Y-60323611I-237810J439825D01*
G01*
X67209790Y-61045917D02*
G75*
G02*
X67368177Y-61010224I142679J-263866D01*
G01*
X67525185Y-58014335D02*
G75*
G02*
X67371396Y-57962281I15697J299581D01*
G01*
X69166415Y-61104465D02*
G75*
G02*
X69320204Y-61156518I-15705J-299609D01*
G01*
X69481810Y-58072883D02*
G75*
G02*
X69323424Y-58108567I-142644J263793D01*
G01*
X69481810Y-58072883D02*
G75*
G02*
X70132179Y-58795190I237813J-439823D01*
G01*
X70042510Y-60506151D02*
G75*
G02*
X69320203Y-61156520I-439823J-237813D01*
G01*
X70042510Y-60506151D02*
G75*
G02*
X70006841Y-60347765I263893J142639D01*
G01*
X70080124Y-58948978D02*
G75*
G02*
X70132180Y-58795190I299274J-15597D01*
G01*
%TO.C,L-DL7*%
X127295930Y-9919661D02*
X127186370Y-10611392D01*
X127295930Y-9919661D02*
X127405489Y-9227931D01*
X128740348Y-11667133D02*
X127851080Y-11526286D01*
X128740348Y-11667133D02*
X129629616Y-11807979D01*
X129209652Y-8704067D02*
X128320384Y-8563221D01*
X129209652Y-8704067D02*
X130098920Y-8844914D01*
X130654070Y-10451539D02*
X130544511Y-11143269D01*
X130654070Y-10451539D02*
X130763630Y-9759808D01*
X127186370Y-10611392D02*
G75*
G02*
X127118526Y-10758897I-296321J46937D01*
G01*
X127386547Y-9066680D02*
G75*
G02*
X127405489Y-9227931I-277356J-114319D01*
G01*
X127386547Y-9066680D02*
G75*
G02*
X128172878Y-8495378I462273J190533D01*
G01*
X127689830Y-11545228D02*
G75*
G02*
X127118526Y-10758897I-190535J462272D01*
G01*
X127689830Y-11545228D02*
G75*
G02*
X127851080Y-11526286I114318J-277356D01*
G01*
X128320384Y-8563221D02*
G75*
G02*
X128172879Y-8495377I46939J296328D01*
G01*
X129629616Y-11807979D02*
G75*
G02*
X129777122Y-11875822I-46936J-296326D01*
G01*
X130260170Y-8825972D02*
G75*
G02*
X130098924Y-8844890I-114273J277357D01*
G01*
X130260170Y-8825972D02*
G75*
G02*
X130831473Y-9612303I190536J-462271D01*
G01*
X130563453Y-11304520D02*
G75*
G02*
X129777121Y-11875823I-462272J-190535D01*
G01*
X130563453Y-11304520D02*
G75*
G02*
X130544535Y-11143273I277357J114274D01*
G01*
X130763630Y-9759808D02*
G75*
G02*
X130831475Y-9612304I296004J-46794D01*
G01*
%TO.C,L-DL19*%
X42590500Y-40024500D02*
X42590500Y-39324147D01*
X42590500Y-40024500D02*
X42590500Y-40724853D01*
X44290500Y-38524499D02*
X43390147Y-38524500D01*
X44290500Y-38524499D02*
X45190853Y-38524500D01*
X44290500Y-41524501D02*
X43390147Y-41524500D01*
X44290500Y-41524501D02*
X45190853Y-41524500D01*
X45990500Y-40024500D02*
X45990500Y-39324147D01*
X45990500Y-40024500D02*
X45990500Y-40724853D01*
X42546566Y-39167845D02*
G75*
G02*
X42590500Y-39324147I-256058J-156299D01*
G01*
X42546566Y-39167845D02*
G75*
G02*
X43233845Y-38480566I426776J260503D01*
G01*
X42590500Y-40724853D02*
G75*
G02*
X42546566Y-40881155I-300016J4D01*
G01*
X43233845Y-41568434D02*
G75*
G02*
X42546566Y-40881155I-260504J426775D01*
G01*
X43233845Y-41568434D02*
G75*
G02*
X43390147Y-41524500I156299J-256058D01*
G01*
X43390147Y-38524500D02*
G75*
G02*
X43233845Y-38480566I6J300023D01*
G01*
X45190853Y-41524500D02*
G75*
G02*
X45347156Y-41568433I-3J-300020D01*
G01*
X45347155Y-38480566D02*
G75*
G02*
X45190853Y-38524476I-156255J256066D01*
G01*
X45347155Y-38480566D02*
G75*
G02*
X46034434Y-39167845I260505J-426774D01*
G01*
X45990500Y-39324147D02*
G75*
G02*
X46034435Y-39167846I299680J87D01*
G01*
X46034434Y-40881155D02*
G75*
G02*
X45347155Y-41568434I-426774J-260505D01*
G01*
X46034434Y-40881155D02*
G75*
G02*
X45990524Y-40724853I256066J156255D01*
G01*
%TO.C,L-DL12*%
X14968000Y-20975000D02*
X14968000Y-20274647D01*
X14968000Y-20975000D02*
X14968000Y-21675353D01*
X16668000Y-19475000D02*
X15767647Y-19475000D01*
X16668000Y-19475000D02*
X17568353Y-19475000D01*
X16668000Y-22475000D02*
X15767647Y-22475000D01*
X16668000Y-22475000D02*
X17568353Y-22475000D01*
X18368000Y-20975000D02*
X18368000Y-20274647D01*
X18368000Y-20975000D02*
X18368000Y-21675353D01*
X14924066Y-20118345D02*
G75*
G02*
X14968000Y-20274647I-256058J-156299D01*
G01*
X14924066Y-20118345D02*
G75*
G02*
X15611345Y-19431066I426776J260503D01*
G01*
X14968000Y-21675353D02*
G75*
G02*
X14924066Y-21831655I-299992J-3D01*
G01*
X15611345Y-22518934D02*
G75*
G02*
X14924066Y-21831655I-260503J426776D01*
G01*
X15611345Y-22518934D02*
G75*
G02*
X15767647Y-22475000I156299J-256058D01*
G01*
X15767647Y-19475000D02*
G75*
G02*
X15611345Y-19431066I-3J299992D01*
G01*
X17568353Y-22475000D02*
G75*
G02*
X17724656Y-22518933I-3J-300020D01*
G01*
X17724655Y-19431066D02*
G75*
G02*
X17568353Y-19474976I-156255J256066D01*
G01*
X17724655Y-19431066D02*
G75*
G02*
X18411934Y-20118345I260505J-426774D01*
G01*
X18368000Y-20274647D02*
G75*
G02*
X18411935Y-20118346I299680J87D01*
G01*
X18411934Y-21831655D02*
G75*
G02*
X17724655Y-22518934I-426774J-260505D01*
G01*
X18411934Y-21831655D02*
G75*
G02*
X18368024Y-21675353I256066J156255D01*
G01*
%TO.C,L-DL10*%
X57830800Y-20975700D02*
X57830800Y-20275347D01*
X57830800Y-20975700D02*
X57830800Y-21676053D01*
X59530800Y-19475700D02*
X58630447Y-19475700D01*
X59530800Y-19475700D02*
X60431153Y-19475700D01*
X59530800Y-22475700D02*
X58630447Y-22475700D01*
X59530800Y-22475700D02*
X60431153Y-22475700D01*
X61230800Y-20975700D02*
X61230800Y-20275347D01*
X61230800Y-20975700D02*
X61230800Y-21676053D01*
X57786866Y-20119045D02*
G75*
G02*
X57830800Y-20275347I-256065J-156301D01*
G01*
X57786866Y-20119045D02*
G75*
G02*
X58474145Y-19431766I426775J260504D01*
G01*
X57830800Y-21676053D02*
G75*
G02*
X57786866Y-21832355I-300016J4D01*
G01*
X58474145Y-22519634D02*
G75*
G02*
X57786866Y-21832355I-260503J426776D01*
G01*
X58474145Y-22519634D02*
G75*
G02*
X58630447Y-22475700I156301J-256065D01*
G01*
X58630447Y-19475700D02*
G75*
G02*
X58474145Y-19431766I4J300016D01*
G01*
X60431153Y-22475700D02*
G75*
G02*
X60587456Y-22519633I-3J-300020D01*
G01*
X60587455Y-19431766D02*
G75*
G02*
X60431153Y-19475690I-156255J255966D01*
G01*
X60587455Y-19431766D02*
G75*
G02*
X61274734Y-20119045I260505J-426774D01*
G01*
X61230800Y-20275347D02*
G75*
G02*
X61274734Y-20119045I299690J87D01*
G01*
X61274734Y-21832355D02*
G75*
G02*
X60587455Y-22519634I-426774J-260505D01*
G01*
X61274734Y-21832355D02*
G75*
G02*
X61230824Y-21676053I256066J156255D01*
G01*
%TO.C,L-DL9*%
X77901713Y-21595802D02*
X77828506Y-22292318D01*
X77901713Y-21595802D02*
X77974920Y-20899285D01*
X79435607Y-23265283D02*
X78540187Y-23171170D01*
X79435607Y-23265283D02*
X80331028Y-23359395D01*
X79749193Y-20281717D02*
X78853772Y-20187605D01*
X79749193Y-20281717D02*
X80644613Y-20375830D01*
X81283087Y-21951198D02*
X81209880Y-22647715D01*
X81283087Y-21951198D02*
X81356294Y-21254682D01*
X77828506Y-22292318D02*
G75*
G02*
X77768475Y-22443171I-298349J31355D01*
G01*
X77947564Y-20739247D02*
G75*
G02*
X77974919Y-20899285I-271017J-128682D01*
G01*
X77947564Y-20739247D02*
G75*
G02*
X78702919Y-20127573I451667J214467D01*
G01*
X78380148Y-23198526D02*
G75*
G02*
X77768476Y-22443171I-214465J451668D01*
G01*
X78380148Y-23198526D02*
G75*
G02*
X78540187Y-23171170I128684J-271024D01*
G01*
X78853772Y-20187605D02*
G75*
G02*
X78702918Y-20127574I31348J298332D01*
G01*
X80331028Y-23359395D02*
G75*
G02*
X80481883Y-23419424I-31350J-298348D01*
G01*
X80804652Y-20348474D02*
G75*
G02*
X80644613Y-20375828I-128681J271021D01*
G01*
X80804652Y-20348474D02*
G75*
G02*
X81416325Y-21103829I214467J-451667D01*
G01*
X81237236Y-22807753D02*
G75*
G02*
X80481881Y-23419427I-451667J-214468D01*
G01*
X81237236Y-22807753D02*
G75*
G02*
X81209905Y-22647718I270996J128633D01*
G01*
X81356294Y-21254682D02*
G75*
G02*
X81416323Y-21103828I298039J-31228D01*
G01*
%TO.C,L-DL24*%
X86301713Y-60800902D02*
X86228506Y-61497418D01*
X86301713Y-60800902D02*
X86374920Y-60104385D01*
X87835607Y-62470383D02*
X86940187Y-62376270D01*
X87835607Y-62470383D02*
X88731028Y-62564495D01*
X88149193Y-59486817D02*
X87253772Y-59392705D01*
X88149193Y-59486817D02*
X89044613Y-59580930D01*
X89683087Y-61156298D02*
X89609880Y-61852815D01*
X89683087Y-61156298D02*
X89756294Y-60459782D01*
X86228506Y-61497418D02*
G75*
G02*
X86168475Y-61648271I-298349J31355D01*
G01*
X86347564Y-59944347D02*
G75*
G02*
X86374919Y-60104385I-270993J-128678D01*
G01*
X86347564Y-59944347D02*
G75*
G02*
X87102919Y-59332673I451668J214466D01*
G01*
X86780148Y-62403626D02*
G75*
G02*
X86168476Y-61648271I-214465J451668D01*
G01*
X86780148Y-62403626D02*
G75*
G02*
X86940187Y-62376271I128678J-270993D01*
G01*
X87253772Y-59392705D02*
G75*
G02*
X87102918Y-59332674I31355J298349D01*
G01*
X88731028Y-62564495D02*
G75*
G02*
X88881882Y-62624525I-31364J-298377D01*
G01*
X89204652Y-59553574D02*
G75*
G02*
X89044616Y-59580905I-128633J270996D01*
G01*
X89204652Y-59553574D02*
G75*
G02*
X89816325Y-60308929I214467J-451667D01*
G01*
X89637236Y-62012853D02*
G75*
G02*
X88881881Y-62624527I-451667J-214468D01*
G01*
X89637236Y-62012853D02*
G75*
G02*
X89609905Y-61852818I270996J128633D01*
G01*
X89756294Y-60459782D02*
G75*
G02*
X89816327Y-60308930I298047J-31239D01*
G01*
%TO.C,L-DL27*%
X11634500Y-78000000D02*
X11634500Y-77299647D01*
X11634500Y-78000000D02*
X11634500Y-78700353D01*
X13334500Y-76500000D02*
X12434147Y-76500000D01*
X13334500Y-76500000D02*
X14234853Y-76500000D01*
X13334500Y-79500000D02*
X12434147Y-79500000D01*
X13334500Y-79500000D02*
X14234853Y-79500000D01*
X15034500Y-78000000D02*
X15034500Y-77299647D01*
X15034500Y-78000000D02*
X15034500Y-78700353D01*
X11590566Y-77143345D02*
G75*
G02*
X11634500Y-77299647I-256058J-156299D01*
G01*
X11590566Y-77143345D02*
G75*
G02*
X12277845Y-76456066I426776J260503D01*
G01*
X11634500Y-78700353D02*
G75*
G02*
X11590566Y-78856655I-299992J-3D01*
G01*
X12277845Y-79543934D02*
G75*
G02*
X11590566Y-78856655I-260503J426776D01*
G01*
X12277845Y-79543934D02*
G75*
G02*
X12434147Y-79500000I156299J-256058D01*
G01*
X12434147Y-76500000D02*
G75*
G02*
X12277845Y-76456066I-3J299992D01*
G01*
X14234853Y-79500000D02*
G75*
G02*
X14391156Y-79543933I-3J-300020D01*
G01*
X14391155Y-76456066D02*
G75*
G02*
X14234853Y-76499976I-156255J256066D01*
G01*
X14391155Y-76456066D02*
G75*
G02*
X15078434Y-77143345I260505J-426774D01*
G01*
X15034500Y-77299647D02*
G75*
G02*
X15078435Y-77143346I299680J87D01*
G01*
X15078434Y-78856655D02*
G75*
G02*
X14391155Y-79543934I-426774J-260505D01*
G01*
X15078434Y-78856655D02*
G75*
G02*
X15034524Y-78700353I256066J156255D01*
G01*
%TO.C,L-DL15*%
X120579830Y-46303661D02*
X120470270Y-46995392D01*
X120579830Y-46303661D02*
X120689389Y-45611931D01*
X122024248Y-48051133D02*
X121134980Y-47910286D01*
X122024248Y-48051133D02*
X122913516Y-48191979D01*
X122493552Y-45088067D02*
X121604284Y-44947221D01*
X122493552Y-45088067D02*
X123382820Y-45228914D01*
X123937970Y-46835539D02*
X123828411Y-47527269D01*
X123937970Y-46835539D02*
X124047530Y-46143808D01*
X120470270Y-46995392D02*
G75*
G02*
X120402426Y-47142897I-296299J46926D01*
G01*
X120670447Y-45450680D02*
G75*
G02*
X120689389Y-45611931I-277356J-114319D01*
G01*
X120670447Y-45450680D02*
G75*
G02*
X121456778Y-44879378I462273J190533D01*
G01*
X120973730Y-47929228D02*
G75*
G02*
X120402426Y-47142897I-190534J462273D01*
G01*
X120973730Y-47929228D02*
G75*
G02*
X121134980Y-47910286I114318J-277356D01*
G01*
X121604284Y-44947221D02*
G75*
G02*
X121456779Y-44879377I46926J296299D01*
G01*
X122913516Y-48191979D02*
G75*
G02*
X123061022Y-48259822I-46936J-296326D01*
G01*
X123544070Y-45209972D02*
G75*
G02*
X123382824Y-45228890I-114273J277357D01*
G01*
X123544070Y-45209972D02*
G75*
G02*
X124115373Y-45996303I190536J-462271D01*
G01*
X123847353Y-47688520D02*
G75*
G02*
X123061021Y-48259823I-462272J-190535D01*
G01*
X123847353Y-47688520D02*
G75*
G02*
X123828435Y-47527273I277357J114274D01*
G01*
X124047530Y-46143808D02*
G75*
G02*
X124115375Y-45996304I296004J-46794D01*
G01*
%TO.C,L-DL18*%
X63254930Y-40159229D02*
X63218276Y-40858622D01*
X63254930Y-40159229D02*
X63291583Y-39459836D01*
X64874096Y-41746144D02*
X63974977Y-41699023D01*
X64874096Y-41746144D02*
X65773215Y-41793265D01*
X65031104Y-38750256D02*
X64131985Y-38703135D01*
X65031104Y-38750256D02*
X65930223Y-38797377D01*
X66650270Y-40337171D02*
X66613617Y-41036564D01*
X66650270Y-40337171D02*
X66686924Y-39637778D01*
X63218276Y-40858622D02*
G75*
G02*
X63166222Y-41012411I-299581J15697D01*
G01*
X63255890Y-39301449D02*
G75*
G02*
X63291583Y-39459836I-263912J-142689D01*
G01*
X63255890Y-39301449D02*
G75*
G02*
X63978197Y-38651080I439824J237812D01*
G01*
X63816590Y-41734717D02*
G75*
G02*
X63166222Y-41012411I-237810J439825D01*
G01*
X63816590Y-41734717D02*
G75*
G02*
X63974977Y-41699024I142691J-263919D01*
G01*
X64131985Y-38703135D02*
G75*
G02*
X63978196Y-38651081I15691J299563D01*
G01*
X65773215Y-41793265D02*
G75*
G02*
X65927005Y-41845318I-15693J-299579D01*
G01*
X66088610Y-38761683D02*
G75*
G02*
X65930223Y-38797375I-142688J263915D01*
G01*
X66088610Y-38761683D02*
G75*
G02*
X66738979Y-39483990I237813J-439823D01*
G01*
X66649310Y-41194951D02*
G75*
G02*
X65927003Y-41845320I-439823J-237813D01*
G01*
X66649310Y-41194951D02*
G75*
G02*
X66613641Y-41036565I263893J142639D01*
G01*
X66686924Y-39637778D02*
G75*
G02*
X66738977Y-39483988I299264J-15587D01*
G01*
%TO.C,L-DL2*%
X31160000Y-2725000D02*
X31160000Y-2024647D01*
X31160000Y-2725000D02*
X31160000Y-3425353D01*
X32860000Y-1225000D02*
X31959647Y-1225000D01*
X32860000Y-1225000D02*
X33760353Y-1225000D01*
X32860000Y-4225000D02*
X31959647Y-4225000D01*
X32860000Y-4225000D02*
X33760353Y-4225000D01*
X34560000Y-2725000D02*
X34560000Y-2024647D01*
X34560000Y-2725000D02*
X34560000Y-3425353D01*
X31116066Y-1868345D02*
G75*
G02*
X31160000Y-2024647I-256058J-156299D01*
G01*
X31116066Y-1868345D02*
G75*
G02*
X31803345Y-1181066I426776J260503D01*
G01*
X31160000Y-3425353D02*
G75*
G02*
X31116066Y-3581655I-299992J-3D01*
G01*
X31803345Y-4268934D02*
G75*
G02*
X31116066Y-3581655I-260503J426776D01*
G01*
X31803345Y-4268934D02*
G75*
G02*
X31959647Y-4225000I156299J-256058D01*
G01*
X31959647Y-1225000D02*
G75*
G02*
X31803345Y-1181066I-3J299992D01*
G01*
X33760353Y-4225000D02*
G75*
G02*
X33916656Y-4268933I-3J-300020D01*
G01*
X33916655Y-1181066D02*
G75*
G02*
X33760353Y-1224976I-156255J256066D01*
G01*
X33916655Y-1181066D02*
G75*
G02*
X34603934Y-1868345I260505J-426774D01*
G01*
X34560000Y-2024647D02*
G75*
G02*
X34603935Y-1868346I299680J87D01*
G01*
X34603934Y-3581655D02*
G75*
G02*
X33916655Y-4268934I-426774J-260505D01*
G01*
X34603934Y-3581655D02*
G75*
G02*
X34560024Y-3425353I256066J156255D01*
G01*
%TO.C,L-DL11*%
X38780000Y-20975000D02*
X38780000Y-20274647D01*
X38780000Y-20975000D02*
X38780000Y-21675353D01*
X40480000Y-19475000D02*
X39579647Y-19475000D01*
X40480000Y-19475000D02*
X41380353Y-19475000D01*
X40480000Y-22475000D02*
X39579647Y-22475000D01*
X40480000Y-22475000D02*
X41380353Y-22475000D01*
X42180000Y-20975000D02*
X42180000Y-20274647D01*
X42180000Y-20975000D02*
X42180000Y-21675353D01*
X38736066Y-20118345D02*
G75*
G02*
X38780000Y-20274647I-256058J-156299D01*
G01*
X38736066Y-20118345D02*
G75*
G02*
X39423345Y-19431066I426776J260503D01*
G01*
X38780000Y-21675353D02*
G75*
G02*
X38736066Y-21831655I-299992J-3D01*
G01*
X39423345Y-22518934D02*
G75*
G02*
X38736066Y-21831655I-260503J426776D01*
G01*
X39423345Y-22518934D02*
G75*
G02*
X39579647Y-22475000I156299J-256058D01*
G01*
X39579647Y-19475000D02*
G75*
G02*
X39423345Y-19431066I-3J299992D01*
G01*
X41380353Y-22475000D02*
G75*
G02*
X41536656Y-22518933I-3J-300020D01*
G01*
X41536655Y-19431066D02*
G75*
G02*
X41380353Y-19474976I-156255J256066D01*
G01*
X41536655Y-19431066D02*
G75*
G02*
X42223934Y-20118345I260505J-426774D01*
G01*
X42180000Y-20274647D02*
G75*
G02*
X42223935Y-20118346I299680J87D01*
G01*
X42223934Y-21831655D02*
G75*
G02*
X41536655Y-22518934I-426774J-260505D01*
G01*
X42223934Y-21831655D02*
G75*
G02*
X42180024Y-21675353I256066J156255D01*
G01*
%TO.C,L-DL17*%
X82862113Y-41157102D02*
X82788906Y-41853618D01*
X82862113Y-41157102D02*
X82935320Y-40460585D01*
X84396007Y-42826583D02*
X83500587Y-42732470D01*
X84396007Y-42826583D02*
X85291428Y-42920695D01*
X84709593Y-39843017D02*
X83814172Y-39748905D01*
X84709593Y-39843017D02*
X85605013Y-39937130D01*
X86243487Y-41512498D02*
X86170280Y-42209015D01*
X86243487Y-41512498D02*
X86316694Y-40815982D01*
X82788906Y-41853618D02*
G75*
G02*
X82728875Y-42004471I-298372J31364D01*
G01*
X82907964Y-40300547D02*
G75*
G02*
X82935319Y-40460585I-271000J-128679D01*
G01*
X82907964Y-40300547D02*
G75*
G02*
X83663319Y-39688873I451667J214467D01*
G01*
X83340548Y-42759826D02*
G75*
G02*
X82728876Y-42004471I-214465J451668D01*
G01*
X83340548Y-42759826D02*
G75*
G02*
X83500587Y-42732470I128684J-271024D01*
G01*
X83814172Y-39748905D02*
G75*
G02*
X83663318Y-39688874I31364J298372D01*
G01*
X85291428Y-42920695D02*
G75*
G02*
X85442282Y-42980725I-31364J-298377D01*
G01*
X85765052Y-39909774D02*
G75*
G02*
X85605014Y-39937120I-128644J270897D01*
G01*
X85765052Y-39909774D02*
G75*
G02*
X86376725Y-40665129I214467J-451667D01*
G01*
X86197636Y-42369053D02*
G75*
G02*
X85442281Y-42980727I-451667J-214468D01*
G01*
X86197636Y-42369053D02*
G75*
G02*
X86170305Y-42209018I270996J128633D01*
G01*
X86316694Y-40815982D02*
G75*
G02*
X86376725Y-40665129I298057J-31240D01*
G01*
%TO.C,L-DL31*%
X120284930Y-85111061D02*
X120175370Y-85802792D01*
X120284930Y-85111061D02*
X120394489Y-84419331D01*
X121729348Y-86858533D02*
X120840080Y-86717686D01*
X121729348Y-86858533D02*
X122618616Y-86999379D01*
X122198652Y-83895467D02*
X121309384Y-83754621D01*
X122198652Y-83895467D02*
X123087920Y-84036314D01*
X123643070Y-85642939D02*
X123533511Y-86334669D01*
X123643070Y-85642939D02*
X123752630Y-84951208D01*
X120175370Y-85802792D02*
G75*
G02*
X120107526Y-85950297I-296321J46937D01*
G01*
X120375547Y-84258080D02*
G75*
G02*
X120394489Y-84419331I-277356J-114319D01*
G01*
X120375547Y-84258080D02*
G75*
G02*
X121161878Y-83686778I462273J190533D01*
G01*
X120678830Y-86736628D02*
G75*
G02*
X120107526Y-85950297I-190535J462272D01*
G01*
X120678830Y-86736628D02*
G75*
G02*
X120840080Y-86717686I114318J-277356D01*
G01*
X121309384Y-83754621D02*
G75*
G02*
X121161879Y-83686777I46939J296328D01*
G01*
X122618616Y-86999379D02*
G75*
G02*
X122766122Y-87067222I-46936J-296326D01*
G01*
X123249170Y-84017372D02*
G75*
G02*
X123087924Y-84036290I-114273J277357D01*
G01*
X123249170Y-84017372D02*
G75*
G02*
X123820473Y-84803703I190536J-462271D01*
G01*
X123552453Y-86495920D02*
G75*
G02*
X122766121Y-87067223I-462272J-190535D01*
G01*
X123552453Y-86495920D02*
G75*
G02*
X123533535Y-86334673I277357J114274D01*
G01*
X123752630Y-84951208D02*
G75*
G02*
X123820475Y-84803704I296004J-46794D01*
G01*
%TO.C,L-DL26*%
X124006930Y-66634861D02*
X123897370Y-67326592D01*
X124006930Y-66634861D02*
X124116489Y-65943131D01*
X125451348Y-68382333D02*
X124562080Y-68241486D01*
X125451348Y-68382333D02*
X126340616Y-68523179D01*
X125920652Y-65419267D02*
X125031384Y-65278421D01*
X125920652Y-65419267D02*
X126809920Y-65560114D01*
X127365070Y-67166739D02*
X127255511Y-67858469D01*
X127365070Y-67166739D02*
X127474630Y-66475008D01*
X123897370Y-67326592D02*
G75*
G02*
X123829526Y-67474097I-296321J46937D01*
G01*
X124097547Y-65781880D02*
G75*
G02*
X124116489Y-65943131I-277356J-114319D01*
G01*
X124097547Y-65781880D02*
G75*
G02*
X124883878Y-65210578I462273J190533D01*
G01*
X124400830Y-68260428D02*
G75*
G02*
X123829526Y-67474097I-190535J462272D01*
G01*
X124400830Y-68260428D02*
G75*
G02*
X124562080Y-68241486I114318J-277356D01*
G01*
X125031384Y-65278421D02*
G75*
G02*
X124883879Y-65210577I46939J296328D01*
G01*
X126340616Y-68523179D02*
G75*
G02*
X126488122Y-68591022I-46936J-296326D01*
G01*
X126971170Y-65541172D02*
G75*
G02*
X126809924Y-65560090I-114273J277357D01*
G01*
X126971170Y-65541172D02*
G75*
G02*
X127542473Y-66327503I190536J-462271D01*
G01*
X127274453Y-68019720D02*
G75*
G02*
X126488121Y-68591023I-462272J-190535D01*
G01*
X127274453Y-68019720D02*
G75*
G02*
X127255535Y-67858473I277357J114274D01*
G01*
X127474630Y-66475008D02*
G75*
G02*
X127542475Y-66327504I296004J-46794D01*
G01*
%TO.C,L-DL13*%
X115966930Y-26439561D02*
X115857370Y-27131292D01*
X115966930Y-26439561D02*
X116076489Y-25747831D01*
X117411348Y-28187033D02*
X116522080Y-28046186D01*
X117411348Y-28187033D02*
X118300616Y-28327879D01*
X117880652Y-25223967D02*
X116991384Y-25083121D01*
X117880652Y-25223967D02*
X118769920Y-25364814D01*
X119325070Y-26971439D02*
X119215511Y-27663169D01*
X119325070Y-26971439D02*
X119434630Y-26279708D01*
X115857370Y-27131292D02*
G75*
G02*
X115789526Y-27278797I-296321J46937D01*
G01*
X116057547Y-25586580D02*
G75*
G02*
X116076489Y-25747831I-277356J-114319D01*
G01*
X116057547Y-25586580D02*
G75*
G02*
X116843878Y-25015278I462273J190533D01*
G01*
X116360830Y-28065128D02*
G75*
G02*
X115789526Y-27278797I-190535J462272D01*
G01*
X116360830Y-28065128D02*
G75*
G02*
X116522080Y-28046186I114318J-277356D01*
G01*
X116991384Y-25083121D02*
G75*
G02*
X116843879Y-25015277I46939J296328D01*
G01*
X118300616Y-28327879D02*
G75*
G02*
X118448122Y-28395722I-46936J-296326D01*
G01*
X118931170Y-25345872D02*
G75*
G02*
X118769924Y-25364790I-114273J277357D01*
G01*
X118931170Y-25345872D02*
G75*
G02*
X119502473Y-26132203I190536J-462271D01*
G01*
X119234453Y-27824420D02*
G75*
G02*
X118448121Y-28395723I-462272J-190535D01*
G01*
X119234453Y-27824420D02*
G75*
G02*
X119215535Y-27663173I277357J114274D01*
G01*
X119434630Y-26279708D02*
G75*
G02*
X119502475Y-26132204I296004J-46794D01*
G01*
%TO.C,L-DL6*%
X108493530Y-6926061D02*
X108383970Y-7617792D01*
X108493530Y-6926061D02*
X108603089Y-6234331D01*
X109937948Y-8673533D02*
X109048680Y-8532686D01*
X109937948Y-8673533D02*
X110827216Y-8814379D01*
X110407252Y-5710467D02*
X109517984Y-5569621D01*
X110407252Y-5710467D02*
X111296520Y-5851314D01*
X111851670Y-7457939D02*
X111742111Y-8149669D01*
X111851670Y-7457939D02*
X111961230Y-6766208D01*
X108383970Y-7617792D02*
G75*
G02*
X108316126Y-7765297I-296321J46937D01*
G01*
X108584147Y-6073080D02*
G75*
G02*
X108603089Y-6234331I-277356J-114319D01*
G01*
X108584147Y-6073080D02*
G75*
G02*
X109370478Y-5501778I462273J190533D01*
G01*
X108887430Y-8551628D02*
G75*
G02*
X108316126Y-7765297I-190535J462272D01*
G01*
X108887430Y-8551628D02*
G75*
G02*
X109048680Y-8532686I114318J-277356D01*
G01*
X109517984Y-5569621D02*
G75*
G02*
X109370479Y-5501777I46939J296328D01*
G01*
X110827216Y-8814379D02*
G75*
G02*
X110974722Y-8882222I-46936J-296326D01*
G01*
X111457770Y-5832372D02*
G75*
G02*
X111296524Y-5851290I-114273J277357D01*
G01*
X111457770Y-5832372D02*
G75*
G02*
X112029073Y-6618703I190536J-462271D01*
G01*
X111761053Y-8310920D02*
G75*
G02*
X110974721Y-8882223I-462272J-190535D01*
G01*
X111761053Y-8310920D02*
G75*
G02*
X111742135Y-8149673I277357J114274D01*
G01*
X111961230Y-6766208D02*
G75*
G02*
X112029075Y-6618704I296004J-46794D01*
G01*
%TO.C,L-DL16*%
X101776830Y-43324661D02*
X101667270Y-44016392D01*
X101776830Y-43324661D02*
X101886389Y-42632931D01*
X103221248Y-45072133D02*
X102331980Y-44931286D01*
X103221248Y-45072133D02*
X104110516Y-45212979D01*
X103690552Y-42109067D02*
X102801284Y-41968221D01*
X103690552Y-42109067D02*
X104579820Y-42249914D01*
X105134970Y-43856539D02*
X105025411Y-44548269D01*
X105134970Y-43856539D02*
X105244530Y-43164808D01*
X101667270Y-44016392D02*
G75*
G02*
X101599426Y-44163897I-296299J46926D01*
G01*
X101867447Y-42471680D02*
G75*
G02*
X101886389Y-42632931I-277356J-114319D01*
G01*
X101867447Y-42471680D02*
G75*
G02*
X102653778Y-41900378I462273J190533D01*
G01*
X102170730Y-44950228D02*
G75*
G02*
X101599426Y-44163897I-190534J462273D01*
G01*
X102170730Y-44950228D02*
G75*
G02*
X102331980Y-44931286I114318J-277356D01*
G01*
X102801284Y-41968221D02*
G75*
G02*
X102653779Y-41900377I46926J296299D01*
G01*
X104110516Y-45212979D02*
G75*
G02*
X104258022Y-45280822I-46936J-296326D01*
G01*
X104741070Y-42230972D02*
G75*
G02*
X104579824Y-42249890I-114273J277357D01*
G01*
X104741070Y-42230972D02*
G75*
G02*
X105312373Y-43017303I190536J-462271D01*
G01*
X105044353Y-44709520D02*
G75*
G02*
X104258021Y-45280823I-462272J-190535D01*
G01*
X105044353Y-44709520D02*
G75*
G02*
X105025435Y-44548273I277357J114274D01*
G01*
X105244530Y-43164808D02*
G75*
G02*
X105312375Y-43017304I296004J-46794D01*
G01*
%TO.C,R-DR32*%
X21342707Y-192359102D02*
X21233147Y-191667371D01*
X21342707Y-192359102D02*
X21452266Y-193050832D01*
X22787125Y-190611630D02*
X21897857Y-190752477D01*
X22787125Y-190611630D02*
X23676393Y-190470784D01*
X23256429Y-193574696D02*
X22367161Y-193715542D01*
X23256429Y-193574696D02*
X24145697Y-193433849D01*
X24700847Y-191827224D02*
X24591288Y-191135494D01*
X24700847Y-191827224D02*
X24810407Y-192518955D01*
X21165303Y-191519866D02*
G75*
G02*
X21233147Y-191667371I-228477J-194442D01*
G01*
X21165303Y-191519866D02*
G75*
G02*
X21736607Y-190733535I380769J324059D01*
G01*
X21452266Y-193050832D02*
G75*
G02*
X21433324Y-193212083I-296298J-46932D01*
G01*
X21897857Y-190752477D02*
G75*
G02*
X21736607Y-190733535I-46932J296298D01*
G01*
X22219656Y-193783386D02*
G75*
G02*
X21433324Y-193212083I-324059J380769D01*
G01*
X22219656Y-193783386D02*
G75*
G02*
X22367161Y-193715542I194444J-228484D01*
G01*
X23823898Y-190402940D02*
G75*
G02*
X23676393Y-190470782I-194426J228453D01*
G01*
X23823898Y-190402940D02*
G75*
G02*
X24610230Y-190974243I324060J-380768D01*
G01*
X24145697Y-193433849D02*
G75*
G02*
X24306947Y-193452790I46930J-296327D01*
G01*
X24591288Y-191135494D02*
G75*
G02*
X24610230Y-190974243I295987J46968D01*
G01*
X24878251Y-192666460D02*
G75*
G02*
X24306947Y-193452792I-380768J-324060D01*
G01*
X24878251Y-192666460D02*
G75*
G02*
X24810431Y-192518951I228469J194389D01*
G01*
%TO.C,R-DR29*%
X96613400Y-184716400D02*
X96613400Y-184016047D01*
X96613400Y-184716400D02*
X96613400Y-185416753D01*
X98313400Y-183216400D02*
X97413047Y-183216400D01*
X98313400Y-183216400D02*
X99213753Y-183216400D01*
X98313400Y-186216400D02*
X97413047Y-186216400D01*
X98313400Y-186216400D02*
X99213753Y-186216400D01*
X100013400Y-184716400D02*
X100013400Y-184016047D01*
X100013400Y-184716400D02*
X100013400Y-185416753D01*
X96569466Y-183859745D02*
G75*
G02*
X96613400Y-184016047I-256058J-156299D01*
G01*
X96569466Y-183859745D02*
G75*
G02*
X97256745Y-183172466I426776J260503D01*
G01*
X96613400Y-185416753D02*
G75*
G02*
X96569466Y-185573055I-299992J-3D01*
G01*
X97256745Y-186260334D02*
G75*
G02*
X96569466Y-185573055I-260503J426776D01*
G01*
X97256745Y-186260334D02*
G75*
G02*
X97413047Y-186216400I156299J-256058D01*
G01*
X97413047Y-183216400D02*
G75*
G02*
X97256745Y-183172466I-3J299992D01*
G01*
X99213753Y-186216400D02*
G75*
G02*
X99370056Y-186260333I-3J-300020D01*
G01*
X99370055Y-183172466D02*
G75*
G02*
X99213753Y-183216376I-156255J256066D01*
G01*
X99370055Y-183172466D02*
G75*
G02*
X100057334Y-183859745I260505J-426774D01*
G01*
X100013400Y-184016047D02*
G75*
G02*
X100057335Y-183859746I299680J87D01*
G01*
X100057334Y-185573055D02*
G75*
G02*
X99370055Y-186260334I-426774J-260505D01*
G01*
X100057334Y-185573055D02*
G75*
G02*
X100013424Y-185416753I256066J156255D01*
G01*
%TO.C,R-DR16*%
X78334430Y-147053571D02*
X78297776Y-146354178D01*
X78334430Y-147053571D02*
X78371083Y-147752964D01*
X79953596Y-145466656D02*
X79054477Y-145513777D01*
X79953596Y-145466656D02*
X80852715Y-145419535D01*
X80110604Y-148462544D02*
X79211485Y-148509665D01*
X80110604Y-148462544D02*
X81009723Y-148415423D01*
X81729770Y-146875629D02*
X81693117Y-146176236D01*
X81729770Y-146875629D02*
X81766424Y-147575022D01*
X78245722Y-146200389D02*
G75*
G02*
X78297776Y-146354178I-247527J-169486D01*
G01*
X78245722Y-146200389D02*
G75*
G02*
X78896090Y-145478083I412558J282481D01*
G01*
X78371083Y-147752964D02*
G75*
G02*
X78335390Y-147911351I-299587J-15702D01*
G01*
X79054477Y-145513777D02*
G75*
G02*
X78896090Y-145478084I-15726J299480D01*
G01*
X79057696Y-148561719D02*
G75*
G02*
X78335391Y-147911352I-282480J412558D01*
G01*
X79057696Y-148561719D02*
G75*
G02*
X79211485Y-148509665I169486J-247527D01*
G01*
X81006504Y-145367481D02*
G75*
G02*
X80852714Y-145419511I-169443J247537D01*
G01*
X81006504Y-145367481D02*
G75*
G02*
X81728809Y-146017849I282483J-412555D01*
G01*
X81009723Y-148415423D02*
G75*
G02*
X81168109Y-148451118I15698J-299589D01*
G01*
X81693117Y-146176236D02*
G75*
G02*
X81728810Y-146017849I299274J15772D01*
G01*
X81818478Y-147728811D02*
G75*
G02*
X81168110Y-148451116I-412555J-282483D01*
G01*
X81818478Y-147728811D02*
G75*
G02*
X81766448Y-147575021I247537J169443D01*
G01*
%TO.C,R-DR15*%
X58741113Y-148230298D02*
X58667906Y-147533782D01*
X58741113Y-148230298D02*
X58814320Y-148926815D01*
X60275007Y-146560817D02*
X59379587Y-146654930D01*
X60275007Y-146560817D02*
X61170428Y-146466705D01*
X60588593Y-149544383D02*
X59693172Y-149638495D01*
X60588593Y-149544383D02*
X61484013Y-149450270D01*
X62122487Y-147874902D02*
X62049280Y-147178385D01*
X62122487Y-147874902D02*
X62195694Y-148571418D01*
X58607875Y-147382929D02*
G75*
G02*
X58667906Y-147533782I-238341J-182217D01*
G01*
X58607875Y-147382929D02*
G75*
G02*
X59219548Y-146627574I397207J303687D01*
G01*
X58814320Y-148926815D02*
G75*
G02*
X58786965Y-149086853I-298349J-31360D01*
G01*
X59379587Y-146654930D02*
G75*
G02*
X59219548Y-146627574I-31355J298380D01*
G01*
X59542319Y-149698527D02*
G75*
G02*
X58786963Y-149086853I-303688J397207D01*
G01*
X59542319Y-149698527D02*
G75*
G02*
X59693172Y-149638496I182208J-238317D01*
G01*
X61321281Y-146406673D02*
G75*
G02*
X61170428Y-146466702I-182203J238316D01*
G01*
X61321281Y-146406673D02*
G75*
G02*
X62076635Y-147018347I303688J-397206D01*
G01*
X61484013Y-149450270D02*
G75*
G02*
X61644053Y-149477625I31358J-298377D01*
G01*
X62049280Y-147178385D02*
G75*
G02*
X62076635Y-147018347I298009J31419D01*
G01*
X62255725Y-148722271D02*
G75*
G02*
X61644052Y-149477626I-397206J-303688D01*
G01*
X62255725Y-148722271D02*
G75*
G02*
X62195718Y-148571415I238331J182165D01*
G01*
%TO.C,R-DR31*%
X129951400Y-184716400D02*
X129951400Y-184016047D01*
X129951400Y-184716400D02*
X129951400Y-185416753D01*
X131651400Y-183216400D02*
X130751047Y-183216400D01*
X131651400Y-183216400D02*
X132551753Y-183216400D01*
X131651400Y-186216400D02*
X130751047Y-186216400D01*
X131651400Y-186216400D02*
X132551753Y-186216400D01*
X133351400Y-184716400D02*
X133351400Y-184016047D01*
X133351400Y-184716400D02*
X133351400Y-185416753D01*
X129907466Y-183859745D02*
G75*
G02*
X129951400Y-184016047I-256058J-156299D01*
G01*
X129907466Y-183859745D02*
G75*
G02*
X130594745Y-183172466I426776J260503D01*
G01*
X129951400Y-185416753D02*
G75*
G02*
X129907466Y-185573055I-299992J-3D01*
G01*
X130594745Y-186260334D02*
G75*
G02*
X129907466Y-185573055I-260503J426776D01*
G01*
X130594745Y-186260334D02*
G75*
G02*
X130751047Y-186216400I156299J-256058D01*
G01*
X130751047Y-183216400D02*
G75*
G02*
X130594745Y-183172466I-3J299992D01*
G01*
X132551753Y-186216400D02*
G75*
G02*
X132708056Y-186260333I-3J-300020D01*
G01*
X132708055Y-183172466D02*
G75*
G02*
X132551753Y-183216376I-156255J256066D01*
G01*
X132708055Y-183172466D02*
G75*
G02*
X133395334Y-183859745I260505J-426774D01*
G01*
X133351400Y-184016047D02*
G75*
G02*
X133395335Y-183859746I299680J87D01*
G01*
X133395334Y-185573055D02*
G75*
G02*
X132708055Y-186260334I-426774J-260505D01*
G01*
X133395334Y-185573055D02*
G75*
G02*
X133351424Y-185416753I256066J156255D01*
G01*
%TO.C,R-DR21*%
X124188400Y-165791400D02*
X124188400Y-165091047D01*
X124188400Y-165791400D02*
X124188400Y-166491753D01*
X125888400Y-164291400D02*
X124988047Y-164291400D01*
X125888400Y-164291400D02*
X126788753Y-164291400D01*
X125888400Y-167291400D02*
X124988047Y-167291400D01*
X125888400Y-167291400D02*
X126788753Y-167291400D01*
X127588400Y-165791400D02*
X127588400Y-165091047D01*
X127588400Y-165791400D02*
X127588400Y-166491753D01*
X124144466Y-164934745D02*
G75*
G02*
X124188400Y-165091047I-256058J-156299D01*
G01*
X124144466Y-164934745D02*
G75*
G02*
X124831745Y-164247466I426776J260503D01*
G01*
X124188400Y-166491753D02*
G75*
G02*
X124144466Y-166648055I-299992J-3D01*
G01*
X124831745Y-167335334D02*
G75*
G02*
X124144466Y-166648055I-260503J426776D01*
G01*
X124831745Y-167335334D02*
G75*
G02*
X124988047Y-167291400I156299J-256058D01*
G01*
X124988047Y-164291400D02*
G75*
G02*
X124831745Y-164247466I-3J299992D01*
G01*
X126788753Y-167291400D02*
G75*
G02*
X126945056Y-167335333I-3J-300020D01*
G01*
X126945055Y-164247466D02*
G75*
G02*
X126788753Y-164291376I-156255J256066D01*
G01*
X126945055Y-164247466D02*
G75*
G02*
X127632334Y-164934745I260505J-426774D01*
G01*
X127588400Y-165091047D02*
G75*
G02*
X127632335Y-164934746I299680J87D01*
G01*
X127632334Y-166648055D02*
G75*
G02*
X126945055Y-167335334I-426774J-260505D01*
G01*
X127632334Y-166648055D02*
G75*
G02*
X127588424Y-166491753I256066J156255D01*
G01*
%TO.C,R-DR26*%
X36413030Y-170602339D02*
X36303470Y-169910608D01*
X36413030Y-170602339D02*
X36522589Y-171294069D01*
X37857448Y-168854867D02*
X36968180Y-168995714D01*
X37857448Y-168854867D02*
X38746716Y-168714021D01*
X38326752Y-171817933D02*
X37437484Y-171958779D01*
X38326752Y-171817933D02*
X39216020Y-171677086D01*
X39771170Y-170070461D02*
X39661611Y-169378731D01*
X39771170Y-170070461D02*
X39880730Y-170762192D01*
X36235626Y-169763103D02*
G75*
G02*
X36303470Y-169910608I-228477J-194442D01*
G01*
X36235626Y-169763103D02*
G75*
G02*
X36806930Y-168976772I380769J324059D01*
G01*
X36522589Y-171294069D02*
G75*
G02*
X36503647Y-171455320I-296298J-46932D01*
G01*
X36968180Y-168995714D02*
G75*
G02*
X36806930Y-168976772I-46932J296298D01*
G01*
X37289979Y-172026623D02*
G75*
G02*
X36503647Y-171455320I-324059J380769D01*
G01*
X37289979Y-172026623D02*
G75*
G02*
X37437484Y-171958779I194444J-228484D01*
G01*
X38894221Y-168646177D02*
G75*
G02*
X38746716Y-168714019I-194426J228453D01*
G01*
X38894221Y-168646177D02*
G75*
G02*
X39680553Y-169217480I324060J-380768D01*
G01*
X39216020Y-171677086D02*
G75*
G02*
X39377270Y-171696027I46930J-296327D01*
G01*
X39661611Y-169378731D02*
G75*
G02*
X39680553Y-169217480I295987J46968D01*
G01*
X39948574Y-170909697D02*
G75*
G02*
X39377270Y-171696029I-380768J-324060D01*
G01*
X39948574Y-170909697D02*
G75*
G02*
X39880754Y-170762188I228469J194389D01*
G01*
%TO.C,R-DR22*%
X108082400Y-165791400D02*
X108082400Y-165091047D01*
X108082400Y-165791400D02*
X108082400Y-166491753D01*
X109782400Y-164291400D02*
X108882047Y-164291400D01*
X109782400Y-164291400D02*
X110682753Y-164291400D01*
X109782400Y-167291400D02*
X108882047Y-167291400D01*
X109782400Y-167291400D02*
X110682753Y-167291400D01*
X111482400Y-165791400D02*
X111482400Y-165091047D01*
X111482400Y-165791400D02*
X111482400Y-166491753D01*
X108038466Y-164934745D02*
G75*
G02*
X108082400Y-165091047I-256058J-156299D01*
G01*
X108038466Y-164934745D02*
G75*
G02*
X108725745Y-164247466I426776J260503D01*
G01*
X108082400Y-166491753D02*
G75*
G02*
X108038466Y-166648055I-299992J-3D01*
G01*
X108725745Y-167335334D02*
G75*
G02*
X108038466Y-166648055I-260503J426776D01*
G01*
X108725745Y-167335334D02*
G75*
G02*
X108882047Y-167291400I156299J-256058D01*
G01*
X108882047Y-164291400D02*
G75*
G02*
X108725745Y-164247466I-3J299992D01*
G01*
X110682753Y-167291400D02*
G75*
G02*
X110839056Y-167335333I-3J-300020D01*
G01*
X110839055Y-164247466D02*
G75*
G02*
X110682753Y-164291376I-156255J256066D01*
G01*
X110839055Y-164247466D02*
G75*
G02*
X111526334Y-164934745I260505J-426774D01*
G01*
X111482400Y-165091047D02*
G75*
G02*
X111526335Y-164934746I299680J87D01*
G01*
X111526334Y-166648055D02*
G75*
G02*
X110839055Y-167335334I-426774J-260505D01*
G01*
X111526334Y-166648055D02*
G75*
G02*
X111482424Y-166491753I256066J156255D01*
G01*
%TO.C,R-DR23*%
X94232400Y-165791400D02*
X94232400Y-165091047D01*
X94232400Y-165791400D02*
X94232400Y-166491753D01*
X95932400Y-164291400D02*
X95032047Y-164291400D01*
X95932400Y-164291400D02*
X96832753Y-164291400D01*
X95932400Y-167291400D02*
X95032047Y-167291400D01*
X95932400Y-167291400D02*
X96832753Y-167291400D01*
X97632400Y-165791400D02*
X97632400Y-165091047D01*
X97632400Y-165791400D02*
X97632400Y-166491753D01*
X94188466Y-164934745D02*
G75*
G02*
X94232400Y-165091047I-256058J-156299D01*
G01*
X94188466Y-164934745D02*
G75*
G02*
X94875745Y-164247466I426776J260503D01*
G01*
X94232400Y-166491753D02*
G75*
G02*
X94188466Y-166648055I-299992J-3D01*
G01*
X94875745Y-167335334D02*
G75*
G02*
X94188466Y-166648055I-260503J426776D01*
G01*
X94875745Y-167335334D02*
G75*
G02*
X95032047Y-167291400I156299J-256058D01*
G01*
X95032047Y-164291400D02*
G75*
G02*
X94875745Y-164247466I-3J299992D01*
G01*
X96832753Y-167291400D02*
G75*
G02*
X96989056Y-167335333I-3J-300020D01*
G01*
X96989055Y-164247466D02*
G75*
G02*
X96832753Y-164291376I-156255J256066D01*
G01*
X96989055Y-164247466D02*
G75*
G02*
X97676334Y-164934745I260505J-426774D01*
G01*
X97632400Y-165091047D02*
G75*
G02*
X97676335Y-164934746I299680J87D01*
G01*
X97676334Y-166648055D02*
G75*
G02*
X96989055Y-167335334I-426774J-260505D01*
G01*
X97676334Y-166648055D02*
G75*
G02*
X97632424Y-166491753I256066J156255D01*
G01*
%TO.C,R-DR20*%
X21048230Y-153550939D02*
X20938670Y-152859208D01*
X21048230Y-153550939D02*
X21157789Y-154242669D01*
X22492648Y-151803467D02*
X21603380Y-151944314D01*
X22492648Y-151803467D02*
X23381916Y-151662621D01*
X22961952Y-154766533D02*
X22072684Y-154907379D01*
X22961952Y-154766533D02*
X23851220Y-154625686D01*
X24406370Y-153019061D02*
X24296811Y-152327331D01*
X24406370Y-153019061D02*
X24515930Y-153710792D01*
X20870826Y-152711703D02*
G75*
G02*
X20938670Y-152859208I-228477J-194442D01*
G01*
X20870826Y-152711703D02*
G75*
G02*
X21442130Y-151925372I380769J324059D01*
G01*
X21157789Y-154242669D02*
G75*
G02*
X21138847Y-154403920I-296298J-46932D01*
G01*
X21603380Y-151944314D02*
G75*
G02*
X21442130Y-151925372I-46932J296298D01*
G01*
X21925179Y-154975223D02*
G75*
G02*
X21138847Y-154403920I-324059J380769D01*
G01*
X21925179Y-154975223D02*
G75*
G02*
X22072684Y-154907379I194444J-228484D01*
G01*
X23529421Y-151594777D02*
G75*
G02*
X23381916Y-151662619I-194426J228453D01*
G01*
X23529421Y-151594777D02*
G75*
G02*
X24315753Y-152166080I324060J-380768D01*
G01*
X23851220Y-154625686D02*
G75*
G02*
X24012470Y-154644627I46930J-296327D01*
G01*
X24296811Y-152327331D02*
G75*
G02*
X24315753Y-152166080I295987J46968D01*
G01*
X24583774Y-153858297D02*
G75*
G02*
X24012470Y-154644629I-380768J-324060D01*
G01*
X24583774Y-153858297D02*
G75*
G02*
X24515954Y-153710788I228469J194389D01*
G01*
%TO.C,R-DR34*%
X131813400Y-165791400D02*
X131813400Y-165091047D01*
X131813400Y-165791400D02*
X131813400Y-166491753D01*
X133513400Y-164291400D02*
X132613047Y-164291400D01*
X133513400Y-164291400D02*
X134413753Y-164291400D01*
X133513400Y-167291400D02*
X132613047Y-167291400D01*
X133513400Y-167291400D02*
X134413753Y-167291400D01*
X135213400Y-165791400D02*
X135213400Y-165091047D01*
X135213400Y-165791400D02*
X135213400Y-166491753D01*
X131769466Y-164934745D02*
G75*
G02*
X131813400Y-165091047I-256058J-156299D01*
G01*
X131769466Y-164934745D02*
G75*
G02*
X132456745Y-164247466I426776J260503D01*
G01*
X131813400Y-166491753D02*
G75*
G02*
X131769466Y-166648055I-299992J-3D01*
G01*
X132456745Y-167335334D02*
G75*
G02*
X131769466Y-166648055I-260503J426776D01*
G01*
X132456745Y-167335334D02*
G75*
G02*
X132613047Y-167291400I156299J-256058D01*
G01*
X132613047Y-164291400D02*
G75*
G02*
X132456745Y-164247466I-3J299992D01*
G01*
X134413753Y-167291400D02*
G75*
G02*
X134570056Y-167335333I-3J-300020D01*
G01*
X134570055Y-164247466D02*
G75*
G02*
X134413753Y-164291376I-156255J256066D01*
G01*
X134570055Y-164247466D02*
G75*
G02*
X135257334Y-164934745I260505J-426774D01*
G01*
X135213400Y-165091047D02*
G75*
G02*
X135257335Y-164934746I299680J87D01*
G01*
X135257334Y-166648055D02*
G75*
G02*
X134570055Y-167335334I-426774J-260505D01*
G01*
X135257334Y-166648055D02*
G75*
G02*
X135213424Y-166491753I256066J156255D01*
G01*
%TO.C,R-DR17*%
X98994400Y-146741400D02*
X98994400Y-146041047D01*
X98994400Y-146741400D02*
X98994400Y-147441753D01*
X100694400Y-145241400D02*
X99794047Y-145241400D01*
X100694400Y-145241400D02*
X101594753Y-145241400D01*
X100694400Y-148241400D02*
X99794047Y-148241400D01*
X100694400Y-148241400D02*
X101594753Y-148241400D01*
X102394400Y-146741400D02*
X102394400Y-146041047D01*
X102394400Y-146741400D02*
X102394400Y-147441753D01*
X98950466Y-145884745D02*
G75*
G02*
X98994400Y-146041047I-256058J-156299D01*
G01*
X98950466Y-145884745D02*
G75*
G02*
X99637745Y-145197466I426776J260503D01*
G01*
X98994400Y-147441753D02*
G75*
G02*
X98950466Y-147598055I-299992J-3D01*
G01*
X99637745Y-148285334D02*
G75*
G02*
X98950466Y-147598055I-260503J426776D01*
G01*
X99637745Y-148285334D02*
G75*
G02*
X99794047Y-148241400I156299J-256058D01*
G01*
X99794047Y-145241400D02*
G75*
G02*
X99637745Y-145197466I-3J299992D01*
G01*
X101594753Y-148241400D02*
G75*
G02*
X101751056Y-148285333I-3J-300020D01*
G01*
X101751055Y-145197466D02*
G75*
G02*
X101594753Y-145241376I-156255J256066D01*
G01*
X101751055Y-145197466D02*
G75*
G02*
X102438334Y-145884745I260505J-426774D01*
G01*
X102394400Y-146041047D02*
G75*
G02*
X102438335Y-145884746I299680J87D01*
G01*
X102438334Y-147598055D02*
G75*
G02*
X101751055Y-148285334I-426774J-260505D01*
G01*
X102438334Y-147598055D02*
G75*
G02*
X102394424Y-147441753I256066J156255D01*
G01*
%TO.C,R-DR24*%
X74941730Y-166365771D02*
X74905076Y-165666378D01*
X74941730Y-166365771D02*
X74978383Y-167065164D01*
X76560896Y-164778856D02*
X75661777Y-164825977D01*
X76560896Y-164778856D02*
X77460015Y-164731735D01*
X76717904Y-167774744D02*
X75818785Y-167821865D01*
X76717904Y-167774744D02*
X77617023Y-167727623D01*
X78337070Y-166187829D02*
X78300417Y-165488436D01*
X78337070Y-166187829D02*
X78373724Y-166887222D01*
X74853022Y-165512589D02*
G75*
G02*
X74905076Y-165666378I-247527J-169486D01*
G01*
X74853022Y-165512589D02*
G75*
G02*
X75503390Y-164790283I412558J282481D01*
G01*
X74978383Y-167065164D02*
G75*
G02*
X74942690Y-167223551I-299587J-15702D01*
G01*
X75661777Y-164825977D02*
G75*
G02*
X75503390Y-164790284I-15726J299480D01*
G01*
X75664996Y-167873919D02*
G75*
G02*
X74942691Y-167223552I-282480J412558D01*
G01*
X75664996Y-167873919D02*
G75*
G02*
X75818785Y-167821865I169486J-247527D01*
G01*
X77613804Y-164679681D02*
G75*
G02*
X77460014Y-164731711I-169443J247537D01*
G01*
X77613804Y-164679681D02*
G75*
G02*
X78336109Y-165330049I282483J-412555D01*
G01*
X77617023Y-167727623D02*
G75*
G02*
X77775409Y-167763318I15698J-299589D01*
G01*
X78300417Y-165488436D02*
G75*
G02*
X78336110Y-165330049I299274J15772D01*
G01*
X78425778Y-167041011D02*
G75*
G02*
X77775410Y-167763316I-412555J-282483D01*
G01*
X78425778Y-167041011D02*
G75*
G02*
X78373748Y-166887221I247537J169443D01*
G01*
%TO.C,R-DR8*%
X126617400Y-130691400D02*
X126617400Y-129991047D01*
X126617400Y-130691400D02*
X126617400Y-131391753D01*
X128317400Y-129191400D02*
X127417047Y-129191400D01*
X128317400Y-129191400D02*
X129217753Y-129191400D01*
X128317400Y-132191400D02*
X127417047Y-132191400D01*
X128317400Y-132191400D02*
X129217753Y-132191400D01*
X130017400Y-130691400D02*
X130017400Y-129991047D01*
X130017400Y-130691400D02*
X130017400Y-131391753D01*
X126573466Y-129834745D02*
G75*
G02*
X126617400Y-129991047I-256058J-156299D01*
G01*
X126573466Y-129834745D02*
G75*
G02*
X127260745Y-129147466I426776J260503D01*
G01*
X126617400Y-131391753D02*
G75*
G02*
X126573466Y-131548055I-299992J-3D01*
G01*
X127260745Y-132235334D02*
G75*
G02*
X126573466Y-131548055I-260503J426776D01*
G01*
X127260745Y-132235334D02*
G75*
G02*
X127417047Y-132191400I156299J-256058D01*
G01*
X127417047Y-129191400D02*
G75*
G02*
X127260745Y-129147466I-3J299992D01*
G01*
X129217753Y-132191400D02*
G75*
G02*
X129374056Y-132235333I-3J-300020D01*
G01*
X129374055Y-129147466D02*
G75*
G02*
X129217753Y-129191376I-156255J256066D01*
G01*
X129374055Y-129147466D02*
G75*
G02*
X130061334Y-129834745I260505J-426774D01*
G01*
X130017400Y-129991047D02*
G75*
G02*
X130061335Y-129834746I299680J87D01*
G01*
X130061334Y-131548055D02*
G75*
G02*
X129374055Y-132235334I-426774J-260505D01*
G01*
X130061334Y-131548055D02*
G75*
G02*
X130017424Y-131391753I256066J156255D01*
G01*
%TO.C,R-DR3*%
X91375400Y-109441400D02*
X91375400Y-108741047D01*
X91375400Y-109441400D02*
X91375400Y-110141753D01*
X93075400Y-107941400D02*
X92175047Y-107941400D01*
X93075400Y-107941400D02*
X93975753Y-107941400D01*
X93075400Y-110941400D02*
X92175047Y-110941400D01*
X93075400Y-110941400D02*
X93975753Y-110941400D01*
X94775400Y-109441400D02*
X94775400Y-108741047D01*
X94775400Y-109441400D02*
X94775400Y-110141753D01*
X91331466Y-108584745D02*
G75*
G02*
X91375400Y-108741047I-256058J-156299D01*
G01*
X91331466Y-108584745D02*
G75*
G02*
X92018745Y-107897466I426776J260503D01*
G01*
X91375400Y-110141753D02*
G75*
G02*
X91331466Y-110298055I-299992J-3D01*
G01*
X92018745Y-110985334D02*
G75*
G02*
X91331466Y-110298055I-260503J426776D01*
G01*
X92018745Y-110985334D02*
G75*
G02*
X92175047Y-110941400I156299J-256058D01*
G01*
X92175047Y-107941400D02*
G75*
G02*
X92018745Y-107897466I-3J299992D01*
G01*
X93975753Y-110941400D02*
G75*
G02*
X94132056Y-110985333I-3J-300020D01*
G01*
X94132055Y-107897466D02*
G75*
G02*
X93975753Y-107941376I-156255J256066D01*
G01*
X94132055Y-107897466D02*
G75*
G02*
X94819334Y-108584745I260505J-426774D01*
G01*
X94775400Y-108741047D02*
G75*
G02*
X94819335Y-108584746I299680J87D01*
G01*
X94819334Y-110298055D02*
G75*
G02*
X94132055Y-110985334I-426774J-260505D01*
G01*
X94819334Y-110298055D02*
G75*
G02*
X94775424Y-110141753I256066J156255D01*
G01*
%TO.C,R-DR19*%
X39851430Y-150573639D02*
X39741870Y-149881908D01*
X39851430Y-150573639D02*
X39960989Y-151265369D01*
X41295848Y-148826167D02*
X40406580Y-148967014D01*
X41295848Y-148826167D02*
X42185116Y-148685321D01*
X41765152Y-151789233D02*
X40875884Y-151930079D01*
X41765152Y-151789233D02*
X42654420Y-151648386D01*
X43209570Y-150041761D02*
X43100011Y-149350031D01*
X43209570Y-150041761D02*
X43319130Y-150733492D01*
X39674026Y-149734403D02*
G75*
G02*
X39741870Y-149881908I-228477J-194442D01*
G01*
X39674026Y-149734403D02*
G75*
G02*
X40245330Y-148948072I380769J324059D01*
G01*
X39960989Y-151265369D02*
G75*
G02*
X39942047Y-151426620I-296298J-46932D01*
G01*
X40406580Y-148967014D02*
G75*
G02*
X40245330Y-148948072I-46932J296298D01*
G01*
X40728379Y-151997923D02*
G75*
G02*
X39942047Y-151426620I-324059J380769D01*
G01*
X40728379Y-151997923D02*
G75*
G02*
X40875884Y-151930079I194444J-228484D01*
G01*
X42332621Y-148617477D02*
G75*
G02*
X42185116Y-148685319I-194426J228453D01*
G01*
X42332621Y-148617477D02*
G75*
G02*
X43118953Y-149188780I324060J-380768D01*
G01*
X42654420Y-151648386D02*
G75*
G02*
X42815670Y-151667327I46930J-296327D01*
G01*
X43100011Y-149350031D02*
G75*
G02*
X43118953Y-149188780I295987J46968D01*
G01*
X43386974Y-150880997D02*
G75*
G02*
X42815670Y-151667329I-380768J-324060D01*
G01*
X43386974Y-150880997D02*
G75*
G02*
X43319154Y-150733488I228469J194389D01*
G01*
%TO.C,R-DR25*%
X55301913Y-167873298D02*
X55228706Y-167176782D01*
X55301913Y-167873298D02*
X55375120Y-168569815D01*
X56835807Y-166203817D02*
X55940387Y-166297930D01*
X56835807Y-166203817D02*
X57731228Y-166109705D01*
X57149393Y-169187383D02*
X56253972Y-169281495D01*
X57149393Y-169187383D02*
X58044813Y-169093270D01*
X58683287Y-167517902D02*
X58610080Y-166821385D01*
X58683287Y-167517902D02*
X58756494Y-168214418D01*
X55168675Y-167025929D02*
G75*
G02*
X55228706Y-167176782I-238341J-182217D01*
G01*
X55168675Y-167025929D02*
G75*
G02*
X55780348Y-166270574I397207J303687D01*
G01*
X55375120Y-168569815D02*
G75*
G02*
X55347765Y-168729853I-298349J-31360D01*
G01*
X55940387Y-166297930D02*
G75*
G02*
X55780348Y-166270574I-31355J298380D01*
G01*
X56103119Y-169341527D02*
G75*
G02*
X55347763Y-168729853I-303688J397207D01*
G01*
X56103119Y-169341527D02*
G75*
G02*
X56253972Y-169281496I182208J-238317D01*
G01*
X57882081Y-166049673D02*
G75*
G02*
X57731228Y-166109702I-182203J238316D01*
G01*
X57882081Y-166049673D02*
G75*
G02*
X58637435Y-166661347I303688J-397206D01*
G01*
X58044813Y-169093270D02*
G75*
G02*
X58204853Y-169120625I31358J-298377D01*
G01*
X58610080Y-166821385D02*
G75*
G02*
X58637435Y-166661347I298009J31419D01*
G01*
X58816525Y-168365271D02*
G75*
G02*
X58204852Y-169120626I-397206J-303688D01*
G01*
X58816525Y-168365271D02*
G75*
G02*
X58756518Y-168214415I238331J182165D01*
G01*
%TO.C,R-DR28*%
X57293549Y-186818454D02*
X57220342Y-186121938D01*
X57293549Y-186818454D02*
X57366756Y-187514971D01*
X58827443Y-185148973D02*
X57932023Y-185243086D01*
X58827443Y-185148973D02*
X59722864Y-185054861D01*
X59141029Y-188132539D02*
X58245608Y-188226651D01*
X59141029Y-188132539D02*
X60036449Y-188038426D01*
X60674923Y-186463058D02*
X60601716Y-185766541D01*
X60674923Y-186463058D02*
X60748130Y-187159574D01*
X57160311Y-185971085D02*
G75*
G02*
X57220342Y-186121938I-238348J-182220D01*
G01*
X57160311Y-185971085D02*
G75*
G02*
X57771984Y-185215730I397207J303687D01*
G01*
X57366756Y-187514971D02*
G75*
G02*
X57339401Y-187675009I-298349J-31360D01*
G01*
X57932023Y-185243086D02*
G75*
G02*
X57771984Y-185215730I-31355J298380D01*
G01*
X58094755Y-188286683D02*
G75*
G02*
X57339399Y-187675009I-303688J397207D01*
G01*
X58094755Y-188286683D02*
G75*
G02*
X58245608Y-188226652I182210J-238324D01*
G01*
X59873717Y-184994829D02*
G75*
G02*
X59722861Y-185054836I-182165J238330D01*
G01*
X59873717Y-184994829D02*
G75*
G02*
X60629071Y-185606503I303688J-397206D01*
G01*
X60036449Y-188038426D02*
G75*
G02*
X60196489Y-188065781I31358J-298377D01*
G01*
X60601716Y-185766541D02*
G75*
G02*
X60629071Y-185606503I298009J31419D01*
G01*
X60808161Y-187310427D02*
G75*
G02*
X60196488Y-188065781I-397203J-303690D01*
G01*
X60808161Y-187310427D02*
G75*
G02*
X60748154Y-187159571I238331J182165D01*
G01*
%TO.C,R-DR18*%
X125188400Y-146741400D02*
X125188400Y-146041047D01*
X125188400Y-146741400D02*
X125188400Y-147441753D01*
X126888400Y-145241400D02*
X125988047Y-145241400D01*
X126888400Y-145241400D02*
X127788753Y-145241400D01*
X126888400Y-148241400D02*
X125988047Y-148241400D01*
X126888400Y-148241400D02*
X127788753Y-148241400D01*
X128588400Y-146741400D02*
X128588400Y-146041047D01*
X128588400Y-146741400D02*
X128588400Y-147441753D01*
X125144466Y-145884745D02*
G75*
G02*
X125188400Y-146041047I-256058J-156299D01*
G01*
X125144466Y-145884745D02*
G75*
G02*
X125831745Y-145197466I426776J260503D01*
G01*
X125188400Y-147441753D02*
G75*
G02*
X125144466Y-147598055I-299992J-3D01*
G01*
X125831745Y-148285334D02*
G75*
G02*
X125144466Y-147598055I-260503J426776D01*
G01*
X125831745Y-148285334D02*
G75*
G02*
X125988047Y-148241400I156299J-256058D01*
G01*
X125988047Y-145241400D02*
G75*
G02*
X125831745Y-145197466I-3J299992D01*
G01*
X127788753Y-148241400D02*
G75*
G02*
X127945056Y-148285333I-3J-300020D01*
G01*
X127945055Y-145197466D02*
G75*
G02*
X127788753Y-145241376I-156255J256066D01*
G01*
X127945055Y-145197466D02*
G75*
G02*
X128632334Y-145884745I260505J-426774D01*
G01*
X128588400Y-146041047D02*
G75*
G02*
X128632335Y-145884746I299680J87D01*
G01*
X128632334Y-147598055D02*
G75*
G02*
X127945055Y-148285334I-426774J-260505D01*
G01*
X128632334Y-147598055D02*
G75*
G02*
X128588424Y-147441753I256066J156255D01*
G01*
%TO.C,R-DR6*%
X33134530Y-114175739D02*
X33024970Y-113484008D01*
X33134530Y-114175739D02*
X33244089Y-114867469D01*
X34578948Y-112428267D02*
X33689680Y-112569114D01*
X34578948Y-112428267D02*
X35468216Y-112287421D01*
X35048252Y-115391333D02*
X34158984Y-115532179D01*
X35048252Y-115391333D02*
X35937520Y-115250486D01*
X36492670Y-113643861D02*
X36383111Y-112952131D01*
X36492670Y-113643861D02*
X36602230Y-114335592D01*
X32957126Y-113336503D02*
G75*
G02*
X33024970Y-113484008I-228477J-194442D01*
G01*
X32957126Y-113336503D02*
G75*
G02*
X33528430Y-112550172I380769J324059D01*
G01*
X33244089Y-114867469D02*
G75*
G02*
X33225147Y-115028720I-296298J-46932D01*
G01*
X33689680Y-112569114D02*
G75*
G02*
X33528430Y-112550172I-46932J296298D01*
G01*
X34011479Y-115600023D02*
G75*
G02*
X33225147Y-115028720I-324059J380769D01*
G01*
X34011479Y-115600023D02*
G75*
G02*
X34158984Y-115532179I194444J-228484D01*
G01*
X35615721Y-112219577D02*
G75*
G02*
X35468216Y-112287419I-194426J228453D01*
G01*
X35615721Y-112219577D02*
G75*
G02*
X36402053Y-112790880I324060J-380768D01*
G01*
X35937520Y-115250486D02*
G75*
G02*
X36098770Y-115269427I46930J-296327D01*
G01*
X36383111Y-112952131D02*
G75*
G02*
X36402053Y-112790880I295987J46968D01*
G01*
X36670074Y-114483097D02*
G75*
G02*
X36098770Y-115269429I-380768J-324060D01*
G01*
X36670074Y-114483097D02*
G75*
G02*
X36602254Y-114335588I228469J194389D01*
G01*
%TO.C,R-DR4*%
X113452700Y-109373400D02*
X113452700Y-108673047D01*
X113452700Y-109373400D02*
X113452700Y-110073753D01*
X115152700Y-107873400D02*
X114252347Y-107873400D01*
X115152700Y-107873400D02*
X116053053Y-107873400D01*
X115152700Y-110873400D02*
X114252347Y-110873400D01*
X115152700Y-110873400D02*
X116053053Y-110873400D01*
X116852700Y-109373400D02*
X116852700Y-108673047D01*
X116852700Y-109373400D02*
X116852700Y-110073753D01*
X113408766Y-108516745D02*
G75*
G02*
X113452700Y-108673047I-256058J-156299D01*
G01*
X113408766Y-108516745D02*
G75*
G02*
X114096045Y-107829466I426776J260503D01*
G01*
X113452700Y-110073753D02*
G75*
G02*
X113408766Y-110230055I-299992J-3D01*
G01*
X114096045Y-110917334D02*
G75*
G02*
X113408766Y-110230055I-260503J426776D01*
G01*
X114096045Y-110917334D02*
G75*
G02*
X114252347Y-110873400I156299J-256058D01*
G01*
X114252347Y-107873400D02*
G75*
G02*
X114096045Y-107829466I-3J299992D01*
G01*
X116053053Y-110873400D02*
G75*
G02*
X116209356Y-110917333I-3J-300020D01*
G01*
X116209355Y-107829466D02*
G75*
G02*
X116053053Y-107873376I-156255J256066D01*
G01*
X116209355Y-107829466D02*
G75*
G02*
X116896634Y-108516745I260505J-426774D01*
G01*
X116852700Y-108673047D02*
G75*
G02*
X116896635Y-108516746I299680J87D01*
G01*
X116896634Y-110230055D02*
G75*
G02*
X116209355Y-110917334I-426774J-260505D01*
G01*
X116896634Y-110230055D02*
G75*
G02*
X116852724Y-110073753I256066J156255D01*
G01*
%TO.C,R-DR2*%
X71938130Y-109782871D02*
X71901476Y-109083478D01*
X71938130Y-109782871D02*
X71974783Y-110482264D01*
X73557296Y-108195956D02*
X72658177Y-108243077D01*
X73557296Y-108195956D02*
X74456415Y-108148835D01*
X73714304Y-111191844D02*
X72815185Y-111238965D01*
X73714304Y-111191844D02*
X74613423Y-111144723D01*
X75333470Y-109604929D02*
X75296817Y-108905536D01*
X75333470Y-109604929D02*
X75370124Y-110304322D01*
X71849422Y-108929689D02*
G75*
G02*
X71901476Y-109083478I-247527J-169486D01*
G01*
X71849422Y-108929689D02*
G75*
G02*
X72499790Y-108207383I412558J282481D01*
G01*
X71974783Y-110482264D02*
G75*
G02*
X71939090Y-110640651I-299587J-15702D01*
G01*
X72658177Y-108243077D02*
G75*
G02*
X72499790Y-108207384I-15726J299480D01*
G01*
X72661396Y-111291019D02*
G75*
G02*
X71939091Y-110640652I-282480J412558D01*
G01*
X72661396Y-111291019D02*
G75*
G02*
X72815185Y-111238965I169486J-247527D01*
G01*
X74610204Y-108096781D02*
G75*
G02*
X74456414Y-108148811I-169443J247537D01*
G01*
X74610204Y-108096781D02*
G75*
G02*
X75332509Y-108747149I282483J-412555D01*
G01*
X74613423Y-111144723D02*
G75*
G02*
X74771809Y-111180418I15698J-299589D01*
G01*
X75296817Y-108905536D02*
G75*
G02*
X75332510Y-108747149I299274J15772D01*
G01*
X75422178Y-110458111D02*
G75*
G02*
X74771810Y-111180416I-412555J-282483D01*
G01*
X75422178Y-110458111D02*
G75*
G02*
X75370148Y-110304321I247537J169443D01*
G01*
%TO.C,R-DR9*%
X102805400Y-130691400D02*
X102805400Y-129991047D01*
X102805400Y-130691400D02*
X102805400Y-131391753D01*
X104505400Y-129191400D02*
X103605047Y-129191400D01*
X104505400Y-129191400D02*
X105405753Y-129191400D01*
X104505400Y-132191400D02*
X103605047Y-132191400D01*
X104505400Y-132191400D02*
X105405753Y-132191400D01*
X106205400Y-130691400D02*
X106205400Y-129991047D01*
X106205400Y-130691400D02*
X106205400Y-131391753D01*
X102761466Y-129834745D02*
G75*
G02*
X102805400Y-129991047I-256058J-156299D01*
G01*
X102761466Y-129834745D02*
G75*
G02*
X103448745Y-129147466I426776J260503D01*
G01*
X102805400Y-131391753D02*
G75*
G02*
X102761466Y-131548055I-299992J-3D01*
G01*
X103448745Y-132235334D02*
G75*
G02*
X102761466Y-131548055I-260503J426776D01*
G01*
X103448745Y-132235334D02*
G75*
G02*
X103605047Y-132191400I156299J-256058D01*
G01*
X103605047Y-129191400D02*
G75*
G02*
X103448745Y-129147466I-3J299992D01*
G01*
X105405753Y-132191400D02*
G75*
G02*
X105562056Y-132235333I-3J-300020D01*
G01*
X105562055Y-129147466D02*
G75*
G02*
X105405753Y-129191376I-156255J256066D01*
G01*
X105562055Y-129147466D02*
G75*
G02*
X106249334Y-129834745I260505J-426774D01*
G01*
X106205400Y-129991047D02*
G75*
G02*
X106249335Y-129834746I299680J87D01*
G01*
X106249334Y-131548055D02*
G75*
G02*
X105562055Y-132235334I-426774J-260505D01*
G01*
X106249334Y-131548055D02*
G75*
G02*
X106205424Y-131391753I256066J156255D01*
G01*
%TO.C,R-DR11*%
X63702913Y-128667498D02*
X63629706Y-127970982D01*
X63702913Y-128667498D02*
X63776120Y-129364015D01*
X65236807Y-126998017D02*
X64341387Y-127092130D01*
X65236807Y-126998017D02*
X66132228Y-126903905D01*
X65550393Y-129981583D02*
X64654972Y-130075695D01*
X65550393Y-129981583D02*
X66445813Y-129887470D01*
X67084287Y-128312102D02*
X67011080Y-127615585D01*
X67084287Y-128312102D02*
X67157494Y-129008618D01*
X63569675Y-127820129D02*
G75*
G02*
X63629706Y-127970982I-238341J-182217D01*
G01*
X63569675Y-127820129D02*
G75*
G02*
X64181348Y-127064774I397207J303687D01*
G01*
X63776120Y-129364015D02*
G75*
G02*
X63748765Y-129524053I-298349J-31360D01*
G01*
X64341387Y-127092130D02*
G75*
G02*
X64181348Y-127064774I-31355J298380D01*
G01*
X64504119Y-130135727D02*
G75*
G02*
X63748763Y-129524053I-303688J397207D01*
G01*
X64504119Y-130135727D02*
G75*
G02*
X64654972Y-130075696I182208J-238317D01*
G01*
X66283081Y-126843873D02*
G75*
G02*
X66132228Y-126903902I-182203J238316D01*
G01*
X66283081Y-126843873D02*
G75*
G02*
X67038435Y-127455547I303688J-397206D01*
G01*
X66445813Y-129887470D02*
G75*
G02*
X66605853Y-129914825I31358J-298377D01*
G01*
X67011080Y-127615585D02*
G75*
G02*
X67038435Y-127455547I298009J31419D01*
G01*
X67217525Y-129159471D02*
G75*
G02*
X66605852Y-129914826I-397206J-303688D01*
G01*
X67217525Y-129159471D02*
G75*
G02*
X67157518Y-129008615I238331J182165D01*
G01*
%TO.C,R-DR27*%
X17574630Y-173586939D02*
X17465070Y-172895208D01*
X17574630Y-173586939D02*
X17684189Y-174278669D01*
X19019048Y-171839467D02*
X18129780Y-171980314D01*
X19019048Y-171839467D02*
X19908316Y-171698621D01*
X19488352Y-174802533D02*
X18599084Y-174943379D01*
X19488352Y-174802533D02*
X20377620Y-174661686D01*
X20932770Y-173055061D02*
X20823211Y-172363331D01*
X20932770Y-173055061D02*
X21042330Y-173746792D01*
X17397226Y-172747703D02*
G75*
G02*
X17465070Y-172895208I-228477J-194442D01*
G01*
X17397226Y-172747703D02*
G75*
G02*
X17968530Y-171961372I380769J324059D01*
G01*
X17684189Y-174278669D02*
G75*
G02*
X17665247Y-174439920I-296298J-46932D01*
G01*
X18129780Y-171980314D02*
G75*
G02*
X17968530Y-171961372I-46932J296298D01*
G01*
X18451579Y-175011223D02*
G75*
G02*
X17665247Y-174439920I-324059J380769D01*
G01*
X18451579Y-175011223D02*
G75*
G02*
X18599084Y-174943379I194444J-228484D01*
G01*
X20055821Y-171630777D02*
G75*
G02*
X19908316Y-171698619I-194426J228453D01*
G01*
X20055821Y-171630777D02*
G75*
G02*
X20842153Y-172202080I324060J-380768D01*
G01*
X20377620Y-174661686D02*
G75*
G02*
X20538870Y-174680627I46930J-296327D01*
G01*
X20823211Y-172363331D02*
G75*
G02*
X20842153Y-172202080I295987J46968D01*
G01*
X21110174Y-173894297D02*
G75*
G02*
X20538870Y-174680629I-380768J-324060D01*
G01*
X21110174Y-173894297D02*
G75*
G02*
X21042354Y-173746788I228469J194389D01*
G01*
%TO.C,R-DR1*%
X52194413Y-111608898D02*
X52121206Y-110912382D01*
X52194413Y-111608898D02*
X52267620Y-112305415D01*
X53728307Y-109939417D02*
X52832887Y-110033530D01*
X53728307Y-109939417D02*
X54623728Y-109845305D01*
X54041893Y-112922983D02*
X53146472Y-113017095D01*
X54041893Y-112922983D02*
X54937313Y-112828870D01*
X55575787Y-111253502D02*
X55502580Y-110556985D01*
X55575787Y-111253502D02*
X55648994Y-111950018D01*
X52061175Y-110761529D02*
G75*
G02*
X52121206Y-110912382I-238341J-182217D01*
G01*
X52061175Y-110761529D02*
G75*
G02*
X52672848Y-110006174I397207J303687D01*
G01*
X52267620Y-112305415D02*
G75*
G02*
X52240265Y-112465453I-298349J-31360D01*
G01*
X52832887Y-110033530D02*
G75*
G02*
X52672848Y-110006174I-31355J298380D01*
G01*
X52995619Y-113077127D02*
G75*
G02*
X52240263Y-112465453I-303688J397207D01*
G01*
X52995619Y-113077127D02*
G75*
G02*
X53146472Y-113017096I182208J-238317D01*
G01*
X54774581Y-109785273D02*
G75*
G02*
X54623728Y-109845302I-182203J238316D01*
G01*
X54774581Y-109785273D02*
G75*
G02*
X55529935Y-110396947I303688J-397206D01*
G01*
X54937313Y-112828870D02*
G75*
G02*
X55097353Y-112856225I31358J-298377D01*
G01*
X55502580Y-110556985D02*
G75*
G02*
X55529935Y-110396947I298009J31419D01*
G01*
X55709025Y-112100871D02*
G75*
G02*
X55097352Y-112856226I-397206J-303688D01*
G01*
X55709025Y-112100871D02*
G75*
G02*
X55649018Y-111950015I238331J182165D01*
G01*
%TO.C,R-DR14*%
X6911930Y-137071639D02*
X6802370Y-136379908D01*
X6911930Y-137071639D02*
X7021489Y-137763369D01*
X8356348Y-135324167D02*
X7467080Y-135465014D01*
X8356348Y-135324167D02*
X9245616Y-135183321D01*
X8825652Y-138287233D02*
X7936384Y-138428079D01*
X8825652Y-138287233D02*
X9714920Y-138146386D01*
X10270070Y-136539761D02*
X10160511Y-135848031D01*
X10270070Y-136539761D02*
X10379630Y-137231492D01*
X6734526Y-136232403D02*
G75*
G02*
X6802370Y-136379908I-228477J-194442D01*
G01*
X6734526Y-136232403D02*
G75*
G02*
X7305830Y-135446072I380769J324059D01*
G01*
X7021489Y-137763369D02*
G75*
G02*
X7002547Y-137924620I-296298J-46932D01*
G01*
X7467080Y-135465014D02*
G75*
G02*
X7305830Y-135446072I-46932J296298D01*
G01*
X7788879Y-138495923D02*
G75*
G02*
X7002547Y-137924620I-324059J380769D01*
G01*
X7788879Y-138495923D02*
G75*
G02*
X7936384Y-138428079I194444J-228484D01*
G01*
X9393121Y-135115477D02*
G75*
G02*
X9245616Y-135183319I-194426J228453D01*
G01*
X9393121Y-135115477D02*
G75*
G02*
X10179453Y-135686780I324060J-380768D01*
G01*
X9714920Y-138146386D02*
G75*
G02*
X9876170Y-138165327I46930J-296327D01*
G01*
X10160511Y-135848031D02*
G75*
G02*
X10179453Y-135686780I295987J46968D01*
G01*
X10447474Y-137378997D02*
G75*
G02*
X9876170Y-138165329I-380768J-324060D01*
G01*
X10447474Y-137378997D02*
G75*
G02*
X10379654Y-137231488I228469J194389D01*
G01*
%TO.C,R-DR12*%
X44759713Y-130651898D02*
X44686506Y-129955382D01*
X44759713Y-130651898D02*
X44832920Y-131348415D01*
X46293607Y-128982417D02*
X45398187Y-129076530D01*
X46293607Y-128982417D02*
X47189028Y-128888305D01*
X46607193Y-131965983D02*
X45711772Y-132060095D01*
X46607193Y-131965983D02*
X47502613Y-131871870D01*
X48141087Y-130296502D02*
X48067880Y-129599985D01*
X48141087Y-130296502D02*
X48214294Y-130993018D01*
X44626475Y-129804529D02*
G75*
G02*
X44686506Y-129955382I-238341J-182217D01*
G01*
X44626475Y-129804529D02*
G75*
G02*
X45238148Y-129049174I397207J303687D01*
G01*
X44832920Y-131348415D02*
G75*
G02*
X44805565Y-131508453I-298349J-31360D01*
G01*
X45398187Y-129076530D02*
G75*
G02*
X45238148Y-129049174I-31355J298380D01*
G01*
X45560919Y-132120127D02*
G75*
G02*
X44805563Y-131508453I-303688J397207D01*
G01*
X45560919Y-132120127D02*
G75*
G02*
X45711772Y-132060096I182208J-238317D01*
G01*
X47339881Y-128828273D02*
G75*
G02*
X47189028Y-128888302I-182203J238316D01*
G01*
X47339881Y-128828273D02*
G75*
G02*
X48095235Y-129439947I303688J-397206D01*
G01*
X47502613Y-131871870D02*
G75*
G02*
X47662653Y-131899225I31358J-298377D01*
G01*
X48067880Y-129599985D02*
G75*
G02*
X48095235Y-129439947I298009J31419D01*
G01*
X48274325Y-131143871D02*
G75*
G02*
X47662652Y-131899226I-397206J-303688D01*
G01*
X48274325Y-131143871D02*
G75*
G02*
X48214318Y-130993015I238331J182165D01*
G01*
%TO.C,R-DR33*%
X120150400Y-110891400D02*
X120150400Y-109991047D01*
X120150400Y-110891400D02*
X120150400Y-111791753D01*
X121650400Y-109191400D02*
X120950047Y-109191400D01*
X121650400Y-109191400D02*
X122350753Y-109191400D01*
X121650400Y-112591400D02*
X120950047Y-112591400D01*
X121650400Y-112591400D02*
X122350753Y-112591400D01*
X123150400Y-110891400D02*
X123150400Y-109991047D01*
X123150400Y-110891400D02*
X123150400Y-111791753D01*
X120106466Y-109834745D02*
G75*
G02*
X120150376Y-109991047I-256066J-156255D01*
G01*
X120106466Y-109834745D02*
G75*
G02*
X120793745Y-109147466I426774J260505D01*
G01*
X120150400Y-111791753D02*
G75*
G02*
X120106466Y-111948055I-299992J-3D01*
G01*
X120793745Y-112635334D02*
G75*
G02*
X120106466Y-111948055I-260503J426776D01*
G01*
X120793745Y-112635334D02*
G75*
G02*
X120950047Y-112591400I156299J-256058D01*
G01*
X120950047Y-109191400D02*
G75*
G02*
X120793746Y-109147465I-87J299680D01*
G01*
X122350753Y-112591400D02*
G75*
G02*
X122507055Y-112635334I3J-299992D01*
G01*
X122507055Y-109147466D02*
G75*
G02*
X122350753Y-109191376I-156255J256066D01*
G01*
X122507055Y-109147466D02*
G75*
G02*
X123194334Y-109834745I260505J-426774D01*
G01*
X123150400Y-109991047D02*
G75*
G02*
X123194333Y-109834744I300020J-3D01*
G01*
X123194334Y-111948055D02*
G75*
G02*
X122507055Y-112635334I-426776J-260503D01*
G01*
X123194334Y-111948055D02*
G75*
G02*
X123150400Y-111791753I256058J156299D01*
G01*
%TO.C,R-DR36*%
X113282400Y-187841400D02*
X113282400Y-187141047D01*
X113282400Y-187841400D02*
X113282400Y-188541753D01*
X114982400Y-186341400D02*
X114082047Y-186341400D01*
X114982400Y-186341400D02*
X115882753Y-186341400D01*
X114982400Y-189341400D02*
X114082047Y-189341400D01*
X114982400Y-189341400D02*
X115882753Y-189341400D01*
X116682400Y-187841400D02*
X116682400Y-187141047D01*
X116682400Y-187841400D02*
X116682400Y-188541753D01*
X113238466Y-186984745D02*
G75*
G02*
X113282400Y-187141047I-256058J-156299D01*
G01*
X113238466Y-186984745D02*
G75*
G02*
X113925745Y-186297466I426776J260503D01*
G01*
X113282400Y-188541753D02*
G75*
G02*
X113238466Y-188698055I-299992J-3D01*
G01*
X113925745Y-189385334D02*
G75*
G02*
X113238466Y-188698055I-260503J426776D01*
G01*
X113925745Y-189385334D02*
G75*
G02*
X114082047Y-189341400I156299J-256058D01*
G01*
X114082047Y-186341400D02*
G75*
G02*
X113925745Y-186297466I-3J299992D01*
G01*
X115882753Y-189341400D02*
G75*
G02*
X116039056Y-189385333I-3J-300020D01*
G01*
X116039055Y-186297466D02*
G75*
G02*
X115882753Y-186341376I-156255J256066D01*
G01*
X116039055Y-186297466D02*
G75*
G02*
X116726334Y-186984745I260505J-426774D01*
G01*
X116682400Y-187141047D02*
G75*
G02*
X116726335Y-186984746I299680J87D01*
G01*
X116726334Y-188698055D02*
G75*
G02*
X116039055Y-189385334I-426774J-260505D01*
G01*
X116726334Y-188698055D02*
G75*
G02*
X116682424Y-188541753I256066J156255D01*
G01*
%TO.C,R-DR7*%
X14330830Y-117167339D02*
X14221270Y-116475608D01*
X14330830Y-117167339D02*
X14440389Y-117859069D01*
X15775248Y-115419867D02*
X14885980Y-115560714D01*
X15775248Y-115419867D02*
X16664516Y-115279021D01*
X16244552Y-118382933D02*
X15355284Y-118523779D01*
X16244552Y-118382933D02*
X17133820Y-118242086D01*
X17688970Y-116635461D02*
X17579411Y-115943731D01*
X17688970Y-116635461D02*
X17798530Y-117327192D01*
X14153426Y-116328103D02*
G75*
G02*
X14221270Y-116475608I-228477J-194442D01*
G01*
X14153426Y-116328103D02*
G75*
G02*
X14724730Y-115541772I380769J324059D01*
G01*
X14440389Y-117859069D02*
G75*
G02*
X14421447Y-118020320I-296298J-46932D01*
G01*
X14885980Y-115560714D02*
G75*
G02*
X14724730Y-115541772I-46932J296298D01*
G01*
X15207779Y-118591623D02*
G75*
G02*
X14421447Y-118020320I-324059J380769D01*
G01*
X15207779Y-118591623D02*
G75*
G02*
X15355284Y-118523779I194444J-228484D01*
G01*
X16812021Y-115211177D02*
G75*
G02*
X16664516Y-115279019I-194426J228453D01*
G01*
X16812021Y-115211177D02*
G75*
G02*
X17598353Y-115782480I324060J-380768D01*
G01*
X17133820Y-118242086D02*
G75*
G02*
X17295070Y-118261027I46930J-296327D01*
G01*
X17579411Y-115943731D02*
G75*
G02*
X17598353Y-115782480I295987J46968D01*
G01*
X17866374Y-117474697D02*
G75*
G02*
X17295070Y-118261029I-380768J-324060D01*
G01*
X17866374Y-117474697D02*
G75*
G02*
X17798554Y-117327188I228469J194389D01*
G01*
%TO.C,R-DR13*%
X25658430Y-133688639D02*
X25548870Y-132996908D01*
X25658430Y-133688639D02*
X25767989Y-134380369D01*
X27102848Y-131941167D02*
X26213580Y-132082014D01*
X27102848Y-131941167D02*
X27992116Y-131800321D01*
X27572152Y-134904233D02*
X26682884Y-135045079D01*
X27572152Y-134904233D02*
X28461420Y-134763386D01*
X29016570Y-133156761D02*
X28907011Y-132465031D01*
X29016570Y-133156761D02*
X29126130Y-133848492D01*
X25481026Y-132849403D02*
G75*
G02*
X25548870Y-132996908I-228477J-194442D01*
G01*
X25481026Y-132849403D02*
G75*
G02*
X26052330Y-132063072I380769J324059D01*
G01*
X25767989Y-134380369D02*
G75*
G02*
X25749047Y-134541620I-296298J-46932D01*
G01*
X26213580Y-132082014D02*
G75*
G02*
X26052330Y-132063072I-46932J296298D01*
G01*
X26535379Y-135112923D02*
G75*
G02*
X25749047Y-134541620I-324059J380769D01*
G01*
X26535379Y-135112923D02*
G75*
G02*
X26682884Y-135045079I194444J-228484D01*
G01*
X28139621Y-131732477D02*
G75*
G02*
X27992116Y-131800319I-194426J228453D01*
G01*
X28139621Y-131732477D02*
G75*
G02*
X28925953Y-132303780I324060J-380768D01*
G01*
X28461420Y-134763386D02*
G75*
G02*
X28622670Y-134782327I46930J-296327D01*
G01*
X28907011Y-132465031D02*
G75*
G02*
X28925953Y-132303780I295987J46968D01*
G01*
X29193974Y-133995997D02*
G75*
G02*
X28622670Y-134782329I-380768J-324060D01*
G01*
X29193974Y-133995997D02*
G75*
G02*
X29126154Y-133848488I228469J194389D01*
G01*
%TO.C,R-DR10*%
X83755400Y-127691400D02*
X83755400Y-126991047D01*
X83755400Y-127691400D02*
X83755400Y-128391753D01*
X85455400Y-126191400D02*
X84555047Y-126191400D01*
X85455400Y-126191400D02*
X86355753Y-126191400D01*
X85455400Y-129191400D02*
X84555047Y-129191400D01*
X85455400Y-129191400D02*
X86355753Y-129191400D01*
X87155400Y-127691400D02*
X87155400Y-126991047D01*
X87155400Y-127691400D02*
X87155400Y-128391753D01*
X83711466Y-126834745D02*
G75*
G02*
X83755400Y-126991047I-256058J-156299D01*
G01*
X83711466Y-126834745D02*
G75*
G02*
X84398745Y-126147466I426776J260503D01*
G01*
X83755400Y-128391753D02*
G75*
G02*
X83711466Y-128548055I-299992J-3D01*
G01*
X84398745Y-129235334D02*
G75*
G02*
X83711466Y-128548055I-260503J426776D01*
G01*
X84398745Y-129235334D02*
G75*
G02*
X84555047Y-129191400I156299J-256058D01*
G01*
X84555047Y-126191400D02*
G75*
G02*
X84398745Y-126147466I-3J299992D01*
G01*
X86355753Y-129191400D02*
G75*
G02*
X86512056Y-129235333I-3J-300020D01*
G01*
X86512055Y-126147466D02*
G75*
G02*
X86355753Y-126191376I-156255J256066D01*
G01*
X86512055Y-126147466D02*
G75*
G02*
X87199334Y-126834745I260505J-426774D01*
G01*
X87155400Y-126991047D02*
G75*
G02*
X87199335Y-126834746I299680J87D01*
G01*
X87199334Y-128548055D02*
G75*
G02*
X86512055Y-129235334I-426774J-260505D01*
G01*
X87199334Y-128548055D02*
G75*
G02*
X87155424Y-128391753I256066J156255D01*
G01*
%TO.C,R-DR5*%
X126448100Y-109373400D02*
X126448100Y-108673047D01*
X126448100Y-109373400D02*
X126448100Y-110073753D01*
X128148100Y-107873400D02*
X127247747Y-107873400D01*
X128148100Y-107873400D02*
X129048453Y-107873400D01*
X128148100Y-110873400D02*
X127247747Y-110873400D01*
X128148100Y-110873400D02*
X129048453Y-110873400D01*
X129848100Y-109373400D02*
X129848100Y-108673047D01*
X129848100Y-109373400D02*
X129848100Y-110073753D01*
X126404166Y-108516745D02*
G75*
G02*
X126448100Y-108673047I-256058J-156299D01*
G01*
X126404166Y-108516745D02*
G75*
G02*
X127091445Y-107829466I426776J260503D01*
G01*
X126448100Y-110073753D02*
G75*
G02*
X126404166Y-110230055I-299992J-3D01*
G01*
X127091445Y-110917334D02*
G75*
G02*
X126404166Y-110230055I-260503J426776D01*
G01*
X127091445Y-110917334D02*
G75*
G02*
X127247747Y-110873400I156299J-256058D01*
G01*
X127247747Y-107873400D02*
G75*
G02*
X127091445Y-107829466I-3J299992D01*
G01*
X129048453Y-110873400D02*
G75*
G02*
X129204756Y-110917333I-3J-300020D01*
G01*
X129204755Y-107829466D02*
G75*
G02*
X129048453Y-107873376I-156255J256066D01*
G01*
X129204755Y-107829466D02*
G75*
G02*
X129892034Y-108516745I260505J-426774D01*
G01*
X129848100Y-108673047D02*
G75*
G02*
X129892035Y-108516746I299680J87D01*
G01*
X129892034Y-110230055D02*
G75*
G02*
X129204755Y-110917334I-426774J-260505D01*
G01*
X129892034Y-110230055D02*
G75*
G02*
X129848124Y-110073753I256066J156255D01*
G01*
%TD*%
M02*
