%TF.GenerationSoftware,KiCad,Pcbnew,10.0.5*%
%TF.CreationDate,2026-09-22T22:02:48-04:00*%
%TF.ProjectId,Symm60HE-Panel,53796d6d-3630-4484-952d-50616e656c2e,rev?*%
%TF.SameCoordinates,Original*%
%TF.FileFunction,Soldermask,Bot*%
%TF.FilePolarity,Negative*%
%FSLAX46Y46*%
G04 Gerber Fmt 4.6, Leading zero omitted, Abs format (unit mm)*
G04 Created by KiCad (PCBNEW 10.0.5) date 2026-09-22 22:02:48*
%MOMM*%
%LPD*%
G01*
G04 APERTURE LIST*
G04 Aperture macros list*
%AMRoundRect*
0 Rectangle with rounded corners*
0 $1 Rounding radius*
0 $2 $3 $4 $5 $6 $7 $8 $9 X,Y pos of 4 corners*
0 Add a 4 corners polygon primitive as box body*
4,1,4,$2,$3,$4,$5,$6,$7,$8,$9,$2,$3,0*
0 Add four circle primitives for the rounded corners*
1,1,$1+$1,$2,$3*
1,1,$1+$1,$4,$5*
1,1,$1+$1,$6,$7*
1,1,$1+$1,$8,$9*
0 Add four rect primitives between the rounded corners*
20,1,$1+$1,$2,$3,$4,$5,0*
20,1,$1+$1,$4,$5,$6,$7,0*
20,1,$1+$1,$6,$7,$8,$9,0*
20,1,$1+$1,$8,$9,$2,$3,0*%
G04 Aperture macros list end*
%ADD10C,3.048000*%
%ADD11C,3.987800*%
%ADD12C,2.200000*%
%ADD13RoundRect,0.140000X-0.140000X-0.170000X0.140000X-0.170000X0.140000X0.170000X-0.140000X0.170000X0*%
%ADD14RoundRect,0.150000X-0.150000X0.512500X-0.150000X-0.512500X0.150000X-0.512500X0.150000X0.512500X0*%
%ADD15RoundRect,0.140000X-0.133285X-0.175314X0.146503X-0.164429X0.133285X0.175314X-0.146503X0.164429X0*%
%ADD16RoundRect,0.140000X-0.140362X-0.169702X0.139638X-0.170298X0.140362X0.169702X-0.139638X0.170298X0*%
%ADD17RoundRect,0.150000X-0.148908X0.512818X-0.151091X-0.512179X0.148908X-0.512818X0.151091X0.512179X0*%
%ADD18RoundRect,0.140000X-0.124689X-0.181529X0.154251X-0.157184X0.124689X0.181529X-0.154251X0.157184X0*%
%ADD19RoundRect,0.150000X0.831720X0.106617X-0.816019X0.192972X-0.831720X-0.106617X0.816019X-0.192972X0*%
%ADD20RoundRect,0.140000X-0.125969X-0.180643X0.153136X-0.158270X0.125969X0.180643X-0.153136X0.158270X0*%
%ADD21RoundRect,0.140000X-0.137318X-0.172173X0.142647X-0.167785X0.137318X0.172173X-0.142647X0.167785X0*%
%ADD22RoundRect,0.140000X-0.151152X-0.160166X0.128210X-0.179059X0.151152X0.160166X-0.128210X0.179059X0*%
%ADD23RoundRect,0.150000X-0.144042X0.514206X-0.155938X-0.510725X0.144042X-0.514206X0.155938X0.510725X0*%
%ADD24RoundRect,0.140000X-0.140089X-0.169927X0.139911X-0.170073X0.140089X0.169927X-0.139911X0.170073X0*%
%ADD25RoundRect,0.205000X-0.484877X-0.166790X0.452117X-0.241899X0.484877X0.166790X-0.452117X0.241899X0*%
%ADD26RoundRect,0.140000X-0.149559X-0.161654X0.129976X-0.177782X0.149559X0.161654X-0.129976X0.177782X0*%
%ADD27RoundRect,0.140000X-0.121370X-0.183764X0.157081X-0.154355X0.121370X0.183764X-0.157081X0.154355X0*%
%ADD28RoundRect,0.205000X-0.476114X-0.190368X0.463436X-0.219435X0.476114X0.190368X-0.463436X0.219435X0*%
%ADD29RoundRect,0.150000X-0.130351X0.517846X-0.169431X-0.506408X0.130351X-0.517846X0.169431X0.506408X0*%
%ADD30RoundRect,0.140000X-0.145190X-0.165590X0.134676X-0.174248X0.145190X0.165590X-0.134676X0.174248X0*%
%ADD31RoundRect,0.140000X-0.119756X-0.184820X0.158427X-0.152973X0.119756X0.184820X-0.158427X0.152973X0*%
%ADD32RoundRect,0.140000X-0.119856X-0.184756X0.158345X-0.153059X0.119856X0.184756X-0.158345X0.153059X0*%
%ADD33RoundRect,0.140000X-0.158345X-0.153059X0.119856X-0.184756X0.158345X0.153059X-0.119856X0.184756X0*%
%ADD34RoundRect,0.150000X0.150000X-0.825000X0.150000X0.825000X-0.150000X0.825000X-0.150000X-0.825000X0*%
%ADD35RoundRect,0.140000X-0.154317X-0.157119X0.124613X-0.181581X0.154317X0.157119X-0.124613X0.181581X0*%
%ADD36RoundRect,0.205000X-0.489572X-0.152460X0.444809X-0.255089X0.489572X0.152460X-0.444809X0.255089X0*%
%ADD37RoundRect,0.150000X-0.120232X0.520289X-0.179270X-0.503009X0.120232X-0.520289X0.179270X0.503009X0*%
%ADD38RoundRect,0.140000X-0.139004X-0.170816X0.140992X-0.169179X0.139004X0.170816X-0.140992X0.169179X0*%
%ADD39RoundRect,0.205000X-0.477474X-0.186932X0.461842X-0.222770X0.477474X0.186932X-0.461842X0.222770X0*%
%ADD40RoundRect,0.140000X-0.119106X-0.185239X0.158963X-0.152416X0.119106X0.185239X-0.158963X0.152416X0*%
%ADD41RoundRect,0.140000X-0.145207X-0.165574X0.134658X-0.174262X0.145207X0.165574X-0.134658X0.174262X0*%
%ADD42RoundRect,0.150000X-0.115077X0.521453X-0.184239X-0.501211X0.115077X-0.521453X0.184239X0.501211X0*%
%ADD43RoundRect,0.150000X-0.134026X0.516907X-0.165829X-0.507599X0.134026X-0.516907X0.165829X0.507599X0*%
%ADD44RoundRect,0.140000X-0.133304X-0.175300X0.146486X-0.164444X0.133304X0.175300X-0.146486X0.164444X0*%
%ADD45RoundRect,0.150000X-0.091019X0.526186X-0.207052X-0.492225X0.091019X-0.526186X0.207052X0.492225X0*%
%ADD46RoundRect,0.205000X-0.205000X0.470000X-0.205000X-0.470000X0.205000X-0.470000X0.205000X0.470000X0*%
%ADD47RoundRect,0.140000X-0.158262X-0.153144X0.119955X-0.184691X0.158262X0.153144X-0.119955X0.184691X0*%
%ADD48RoundRect,0.140000X-0.134545X-0.174349X0.145314X-0.165481X0.134545X0.174349X-0.145314X0.165481X0*%
%ADD49RoundRect,0.205000X-0.470000X-0.205000X0.470000X-0.205000X0.470000X0.205000X-0.470000X0.205000X0*%
%ADD50RoundRect,0.140000X0.170000X-0.140000X0.170000X0.140000X-0.170000X0.140000X-0.170000X-0.140000X0*%
%ADD51RoundRect,0.150000X-0.149732X0.512578X-0.150268X-0.512421X0.149732X-0.512578X0.150268X0.512421X0*%
%ADD52RoundRect,0.205000X-0.476134X-0.190319X0.463413X-0.219484X0.476134X0.190319X-0.463413X0.219484X0*%
%ADD53RoundRect,0.150000X-0.950000X0.150000X-0.950000X-0.150000X0.950000X-0.150000X0.950000X0.150000X0*%
%ADD54RoundRect,0.360000X-0.940000X0.540000X-0.940000X-0.540000X0.940000X-0.540000X0.940000X0.540000X0*%
%ADD55RoundRect,0.205000X-0.470107X-0.204754X0.469893X-0.205246X0.470107X0.204754X-0.469893X0.205246X0*%
%ADD56RoundRect,0.140000X-0.170000X0.140000X-0.170000X-0.140000X0.170000X-0.140000X0.170000X0.140000X0*%
%ADD57RoundRect,0.205000X-0.490185X-0.150477X0.443772X-0.256888X0.490185X0.150477X-0.443772X0.256888X0*%
%ADD58RoundRect,0.140000X-0.148705X-0.162440X0.130911X-0.177094X0.148705X0.162440X-0.130911X0.177094X0*%
%ADD59RoundRect,0.205000X-0.470435X-0.203999X0.469562X-0.206000X0.470435X0.203999X-0.469562X0.206000X0*%
%ADD60RoundRect,0.205000X-0.481027X-0.177588X0.457412X-0.231731X0.481027X0.177588X-0.457412X0.231731X0*%
%ADD61RoundRect,0.205000X-0.482761X-0.172819X0.455096X-0.236246X0.482761X0.172819X-0.455096X0.236246X0*%
%ADD62RoundRect,0.140000X-0.146380X-0.164539X0.133417X-0.175214X0.146380X0.164539X-0.133417X0.175214X0*%
%ADD63RoundRect,0.150000X-0.134081X0.516893X-0.165776X-0.507617X0.134081X-0.516893X0.165776X0.507617X0*%
%ADD64RoundRect,0.140000X-0.153136X-0.158270X0.125969X-0.180643X0.153136X0.158270X-0.125969X0.180643X0*%
%ADD65RoundRect,0.205000X-0.472348X-0.199531X0.467589X-0.210441X0.472348X0.199531X-0.467589X0.210441X0*%
%ADD66RoundRect,0.140000X-0.156925X-0.154514X0.121556X-0.183641X0.156925X0.154514X-0.121556X0.183641X0*%
%ADD67RoundRect,0.150000X-0.091304X0.526137X-0.206786X-0.492337X0.091304X-0.526137X0.206786X0.492337X0*%
%ADD68RoundRect,0.140000X-0.157724X-0.153699X0.120603X-0.184269X0.157724X0.153699X-0.120603X0.184269X0*%
%ADD69RoundRect,0.140000X-0.128744X-0.178676X0.150673X-0.160616X0.128744X0.178676X-0.150673X0.160616X0*%
%ADD70RoundRect,0.205000X0.205000X-0.470000X0.205000X0.470000X-0.205000X0.470000X-0.205000X-0.470000X0*%
%ADD71RoundRect,0.140000X-0.127390X-0.179644X0.151883X-0.159473X0.127390X0.179644X-0.151883X0.159473X0*%
%ADD72RoundRect,0.140000X-0.143244X-0.167276X0.136705X-0.172661X0.143244X0.167276X-0.136705X0.172661X0*%
%ADD73RoundRect,0.150000X-0.093149X0.525813X-0.205058X-0.493059X0.093149X-0.525813X0.205058X0.493059X0*%
%ADD74RoundRect,0.150000X-0.096020X0.525296X-0.202361X-0.494172X0.096020X-0.525296X0.202361X0.494172X0*%
%ADD75RoundRect,0.205000X-0.473856X-0.195923X0.465970X-0.214001X0.473856X0.195923X-0.465970X0.214001X0*%
%ADD76RoundRect,0.150000X-0.140116X0.515290X-0.159829X-0.509520X0.140116X-0.515290X0.159829X0.509520X0*%
%ADD77RoundRect,0.140000X-0.156882X-0.154558X0.121607X-0.183607X0.156882X0.154558X-0.121607X0.183607X0*%
%ADD78RoundRect,0.150000X-0.095873X0.525323X-0.202499X-0.494116X0.095873X-0.525323X0.202499X0.494116X0*%
%ADD79RoundRect,0.140000X-0.126492X-0.180277X0.152677X-0.158713X0.126492X0.180277X-0.152677X0.158713X0*%
%ADD80RoundRect,0.150000X-0.108570X0.522847X-0.190471X-0.498876X0.108570X-0.522847X0.190471X0.498876X0*%
%ADD81RoundRect,0.150000X-0.104652X0.523645X-0.194201X-0.497436X0.104652X-0.523645X0.194201X0.497436X0*%
%ADD82RoundRect,0.205000X-0.488732X-0.155133X0.446196X-0.252655X0.488732X0.155133X-0.446196X0.252655X0*%
%ADD83RoundRect,0.205000X-0.490104X-0.150742X0.443911X-0.256648X0.490104X0.150742X-0.443911X0.256648X0*%
%ADD84RoundRect,0.205000X-0.488775X-0.154996X0.446125X-0.252780X0.488775X0.154996X-0.446125X0.252780X0*%
%ADD85RoundRect,0.135000X-0.135000X-0.185000X0.135000X-0.185000X0.135000X0.185000X-0.135000X0.185000X0*%
%ADD86RoundRect,0.140000X-0.141964X-0.168364X0.138018X-0.171613X0.141964X0.168364X-0.138018X0.171613X0*%
%ADD87RoundRect,0.205000X-0.486113X-0.163155X0.450293X-0.245277X0.486113X0.163155X-0.450293X0.245277X0*%
%ADD88RoundRect,0.150000X-0.207052X0.492225X-0.091019X-0.526186X0.207052X-0.492225X0.091019X0.526186X0*%
%ADD89RoundRect,0.140000X-0.140992X-0.169179X0.139004X-0.170816X0.140992X0.169179X-0.139004X0.170816X0*%
%ADD90RoundRect,0.140000X-0.146486X-0.164444X0.133304X-0.175300X0.146486X0.164444X-0.133304X0.175300X0*%
%ADD91RoundRect,0.140000X-0.134658X-0.174262X0.145207X-0.165574X0.134658X0.174262X-0.145207X0.165574X0*%
%ADD92RoundRect,0.205000X-0.446196X-0.252655X0.488732X-0.155133X0.446196X0.252655X-0.488732X0.155133X0*%
%ADD93RoundRect,0.140000X-0.158427X-0.152973X0.119756X-0.184820X0.158427X0.152973X-0.119756X0.184820X0*%
%ADD94RoundRect,0.140000X-0.145314X-0.165481X0.134545X-0.174349X0.145314X0.165481X-0.134545X0.174349X0*%
%ADD95RoundRect,0.140000X-0.124613X-0.181581X0.154317X-0.157119X0.124613X0.181581X-0.154317X0.157119X0*%
%ADD96RoundRect,0.205000X-0.465970X-0.214001X0.473856X-0.195923X0.465970X0.214001X-0.473856X0.195923X0*%
%ADD97RoundRect,0.140000X-0.158963X-0.152416X0.119106X-0.185239X0.158963X0.152416X-0.119106X0.185239X0*%
%ADD98RoundRect,0.140000X-0.157081X-0.154355X0.121370X-0.183764X0.157081X0.154355X-0.121370X0.183764X0*%
%ADD99RoundRect,0.140000X-0.121607X-0.183607X0.156882X-0.154558X0.121607X0.183607X-0.156882X0.154558X0*%
%ADD100RoundRect,0.150000X0.950000X-0.150000X0.950000X0.150000X-0.950000X0.150000X-0.950000X-0.150000X0*%
%ADD101RoundRect,0.360000X0.940000X-0.540000X0.940000X0.540000X-0.940000X0.540000X-0.940000X-0.540000X0*%
%ADD102RoundRect,0.150000X-0.150268X0.512421X-0.149732X-0.512578X0.150268X-0.512421X0.149732X0.512578X0*%
%ADD103RoundRect,0.150000X-0.179270X0.503009X-0.120232X-0.520289X0.179270X-0.503009X0.120232X0.520289X0*%
%ADD104RoundRect,0.150000X-0.169431X0.506408X-0.130351X-0.517846X0.169431X-0.506408X0.130351X0.517846X0*%
%ADD105RoundRect,0.150000X-0.190471X0.498876X-0.108570X-0.522847X0.190471X-0.498876X0.108570X0.522847X0*%
%ADD106RoundRect,0.150000X-0.202361X0.494172X-0.096020X-0.525296X0.202361X-0.494172X0.096020X0.525296X0*%
%ADD107RoundRect,0.140000X-0.136705X-0.172661X0.143244X-0.167276X0.136705X0.172661X-0.143244X0.167276X0*%
%ADD108RoundRect,0.140000X-0.133417X-0.175214X0.146380X-0.164539X0.133417X0.175214X-0.146380X0.164539X0*%
%ADD109RoundRect,0.205000X-0.452117X-0.241899X0.484877X-0.166790X0.452117X0.241899X-0.484877X0.166790X0*%
%ADD110RoundRect,0.140000X-0.146503X-0.164429X0.133285X-0.175314X0.146503X0.164429X-0.133285X0.175314X0*%
%ADD111RoundRect,0.205000X-0.444809X-0.255089X0.489572X-0.152460X0.444809X0.255089X-0.489572X0.152460X0*%
%ADD112RoundRect,0.140000X-0.138018X-0.171613X0.141964X-0.168364X0.138018X0.171613X-0.141964X0.168364X0*%
%ADD113RoundRect,0.140000X-0.121556X-0.183641X0.156925X-0.154514X0.121556X0.183641X-0.156925X0.154514X0*%
%ADD114RoundRect,0.140000X-0.150673X-0.160616X0.128744X-0.178676X0.150673X0.160616X-0.128744X0.178676X0*%
%ADD115RoundRect,0.150000X-0.165829X0.507599X-0.134026X-0.516907X0.165829X-0.507599X0.134026X0.516907X0*%
%ADD116RoundRect,0.205000X-0.469893X-0.205246X0.470107X-0.204754X0.469893X0.205246X-0.470107X0.204754X0*%
%ADD117RoundRect,0.140000X-0.139911X-0.170073X0.140089X-0.169927X0.139911X0.170073X-0.140089X0.169927X0*%
%ADD118RoundRect,0.150000X-0.205058X0.493059X-0.093149X-0.525813X0.205058X-0.493059X0.093149X0.525813X0*%
%ADD119RoundRect,0.150000X-0.151091X0.512179X-0.148908X-0.512818X0.151091X-0.512179X0.148908X0.512818X0*%
%ADD120RoundRect,0.140000X-0.142647X-0.167785X0.137318X-0.172173X0.142647X0.167785X-0.137318X0.172173X0*%
%ADD121RoundRect,0.140000X-0.130911X-0.177094X0.148705X-0.162440X0.130911X0.177094X-0.148705X0.162440X0*%
%ADD122RoundRect,0.140000X-0.152677X-0.158713X0.126492X-0.180277X0.152677X0.158713X-0.126492X0.180277X0*%
%ADD123RoundRect,0.205000X-0.455096X-0.236246X0.482761X-0.172819X0.455096X0.236246X-0.482761X0.172819X0*%
%ADD124RoundRect,0.205000X-0.463436X-0.219435X0.476114X-0.190368X0.463436X0.219435X-0.476114X0.190368X0*%
%ADD125RoundRect,0.205000X-0.463413X-0.219484X0.476134X-0.190319X0.463413X0.219484X-0.476134X0.190319X0*%
%ADD126RoundRect,0.150000X-0.184239X0.501211X-0.115077X-0.521453X0.184239X-0.501211X0.115077X0.521453X0*%
%ADD127RoundRect,0.205000X-0.450293X-0.245277X0.486113X-0.163155X0.450293X0.245277X-0.486113X0.163155X0*%
%ADD128RoundRect,0.140000X-0.129976X-0.177782X0.149559X-0.161654X0.129976X0.177782X-0.149559X0.161654X0*%
%ADD129RoundRect,0.140000X-0.139638X-0.170298X0.140362X-0.169702X0.139638X0.170298X-0.140362X0.169702X0*%
%ADD130RoundRect,0.205000X-0.469562X-0.206000X0.470435X-0.203999X0.469562X0.206000X-0.470435X0.203999X0*%
%ADD131RoundRect,0.140000X-0.154251X-0.157184X0.124689X-0.181529X0.154251X0.157184X-0.124689X0.181529X0*%
%ADD132RoundRect,0.150000X-0.159829X0.509520X-0.140116X-0.515290X0.159829X-0.509520X0.140116X0.515290X0*%
%ADD133RoundRect,0.140000X-0.128210X-0.179059X0.151152X-0.160166X0.128210X0.179059X-0.151152X0.160166X0*%
%ADD134RoundRect,0.205000X-0.467589X-0.210441X0.472348X-0.199531X0.467589X0.210441X-0.472348X0.199531X0*%
%ADD135RoundRect,0.150000X-0.165776X0.507617X-0.134081X-0.516893X0.165776X-0.507617X0.134081X0.516893X0*%
%ADD136RoundRect,0.205000X-0.443911X-0.256648X0.490104X-0.150742X0.443911X0.256648X-0.490104X0.150742X0*%
%ADD137RoundRect,0.150000X-0.206786X0.492337X-0.091304X-0.526137X0.206786X-0.492337X0.091304X0.526137X0*%
%ADD138RoundRect,0.205000X-0.461842X-0.222770X0.477474X-0.186932X0.461842X0.222770X-0.477474X0.186932X0*%
%ADD139RoundRect,0.150000X-0.194201X0.497436X-0.104652X-0.523645X0.194201X-0.497436X0.104652X0.523645X0*%
%ADD140RoundRect,0.150000X-0.202499X0.494116X-0.095873X-0.525323X0.202499X-0.494116X0.095873X0.525323X0*%
%ADD141RoundRect,0.140000X-0.119955X-0.184691X0.158262X-0.153144X0.119955X0.184691X-0.158262X0.153144X0*%
%ADD142RoundRect,0.205000X-0.443772X-0.256888X0.490185X-0.150477X0.443772X0.256888X-0.490185X0.150477X0*%
%ADD143RoundRect,0.205000X-0.457412X-0.231731X0.481027X-0.177588X0.457412X0.231731X-0.481027X0.177588X0*%
%ADD144RoundRect,0.140000X-0.134676X-0.174248X0.145190X-0.165590X0.134676X0.174248X-0.145190X0.165590X0*%
%ADD145RoundRect,0.150000X-0.155938X0.510725X-0.144042X-0.514206X0.155938X-0.510725X0.144042X0.514206X0*%
%ADD146RoundRect,0.140000X-0.120603X-0.184269X0.157724X-0.153699X0.120603X0.184269X-0.157724X0.153699X0*%
%ADD147RoundRect,0.140000X-0.151883X-0.159473X0.127390X-0.179644X0.151883X0.159473X-0.127390X0.179644X0*%
%ADD148RoundRect,0.205000X-0.446125X-0.252780X0.488775X-0.154996X0.446125X0.252780X-0.488775X0.154996X0*%
%ADD149RoundRect,0.150000X-0.816019X-0.192972X0.831720X-0.106617X0.816019X0.192972X-0.831720X0.106617X0*%
%ADD150C,0.500000*%
%ADD151C,2.000000*%
G04 APERTURE END LIST*
D10*
%TO.C,L-SL2*%
X132228970Y-101686551D03*
D11*
X134613031Y-86634181D03*
D10*
X108709641Y-97961455D03*
D11*
X111093702Y-82909085D03*
%TD*%
D10*
%TO.C,L-SL1*%
X6190750Y-59690000D03*
D11*
X6190750Y-74930000D03*
D10*
X30003250Y-59690000D03*
D11*
X30003250Y-74930000D03*
%TD*%
D12*
%TO.C,L-MHL4*%
X100000000Y-92000000D03*
%TD*%
%TO.C,L-MHL3*%
X137000000Y-50000000D03*
%TD*%
%TO.C,L-MHL1*%
X28000000Y-22000000D03*
%TD*%
%TO.C,L-MHL2*%
X38000000Y-66000000D03*
%TD*%
D13*
%TO.C,L-CL30A*%
X37211000Y-78825000D03*
X38171000Y-78825000D03*
%TD*%
D14*
%TO.C,L-HEL16*%
X43153500Y-48575000D03*
X43153500Y-46675000D03*
X45428500Y-47625000D03*
%TD*%
D15*
%TO.C,L-CL24B*%
X92561592Y-76072348D03*
X93521008Y-76105852D03*
%TD*%
D16*
%TO.C,L-CRGBL4*%
X70047058Y-18680379D03*
X71005742Y-18730621D03*
%TD*%
D17*
%TO.C,L-HEL4*%
X69809140Y-10656966D03*
X69908578Y-8759570D03*
X72130741Y-9827332D03*
%TD*%
D14*
%TO.C,L-HEL28*%
X14577500Y-86675000D03*
X14577500Y-84775000D03*
X16852500Y-85725000D03*
%TD*%
D18*
%TO.C,L-CL6B*%
X114068273Y-21764077D03*
X115028127Y-21747323D03*
%TD*%
D19*
%TO.C,L-AML3*%
X65834559Y-64979777D03*
X65901025Y-63711517D03*
X65967492Y-62443258D03*
X66033959Y-61174998D03*
X66100425Y-59906739D03*
X66166892Y-58638479D03*
X66233359Y-57370220D03*
X66299825Y-56101960D03*
X71243041Y-56361023D03*
X71176575Y-57629283D03*
X71110108Y-58897542D03*
X71043641Y-60165802D03*
X70977175Y-61434061D03*
X70910708Y-62702321D03*
X70844241Y-63970580D03*
X70777775Y-65238840D03*
%TD*%
D20*
%TO.C,L-CL25B*%
X105571000Y-73913000D03*
X106531000Y-73913000D03*
%TD*%
D21*
%TO.C,L-CL18B*%
X89122569Y-56413417D03*
X90080231Y-56480383D03*
%TD*%
D22*
%TO.C,L-CRGBL19*%
X43811000Y-56574998D03*
X44771000Y-56575002D03*
%TD*%
D13*
%TO.C,L-CL22A*%
X41973000Y-59775000D03*
X42933000Y-59775000D03*
%TD*%
%TO.C,L-CRGBL15*%
X119196010Y-62840509D03*
X120144190Y-62990691D03*
%TD*%
%TO.C,L-CL2B*%
X38980000Y-16425000D03*
X39940000Y-16425000D03*
%TD*%
%TO.C,L-CL8A*%
X9588000Y-21675000D03*
X10548000Y-21675000D03*
%TD*%
D23*
%TO.C,L-HEL11*%
X77567429Y-30157695D03*
X77766033Y-28268103D03*
X79929269Y-29450701D03*
%TD*%
D13*
%TO.C,L-CL16A*%
X37211000Y-39475000D03*
X38171000Y-39475000D03*
%TD*%
D24*
%TO.C,L-CRGBL22*%
X54173000Y-72025000D03*
X55133000Y-72025000D03*
%TD*%
D13*
%TO.C,L-CL16B*%
X50411000Y-54525000D03*
X51371000Y-54525000D03*
%TD*%
%TO.C,L-CL28A*%
X8235000Y-78825000D03*
X9195000Y-78825000D03*
%TD*%
%TO.C,L-CML2*%
X38991000Y-43649000D03*
X39951000Y-43649000D03*
%TD*%
%TO.C,L-CRGBL10*%
X59050800Y-37525800D03*
X60010800Y-37525800D03*
%TD*%
%TO.C,L-CL8B*%
X22788000Y-35475000D03*
X23748000Y-35475000D03*
%TD*%
D25*
%TO.C,L-DL25*%
X102293775Y-75244850D03*
X102059123Y-76726382D03*
X107442025Y-77578950D03*
X107676677Y-76097418D03*
%TD*%
D26*
%TO.C,L-CRGBL8*%
X96327328Y-40165826D03*
X97282072Y-40266174D03*
%TD*%
D27*
%TO.C,L-CL13A*%
X110538358Y-26389621D03*
X111497042Y-26339379D03*
%TD*%
D13*
%TO.C,L-CL10B*%
X65650800Y-35475700D03*
X66610800Y-35475700D03*
%TD*%
D28*
%TO.C,L-DL21*%
X15372000Y-71275001D03*
X15371997Y-72775000D03*
X20822000Y-72774999D03*
X20822003Y-71275000D03*
%TD*%
D29*
%TO.C,L-HEL5*%
X89159029Y-12303895D03*
X89357633Y-10414303D03*
X91520869Y-11596901D03*
%TD*%
D30*
%TO.C,L-CRGBL21*%
X17616998Y-75625000D03*
X18577002Y-75625000D03*
%TD*%
D31*
%TO.C,L-CL26B*%
X129504569Y-81991983D03*
X130462231Y-81925017D03*
%TD*%
D32*
%TO.C,L-CL14A*%
X129351369Y-29387783D03*
X130309031Y-29320817D03*
%TD*%
D13*
%TO.C,L-CRGBL16*%
X100392410Y-59861109D03*
X101340590Y-60011291D03*
%TD*%
D16*
%TO.C,L-CL4A*%
X64285558Y-2506778D03*
X65244242Y-2557022D03*
%TD*%
D33*
%TO.C,L-CRGBL7*%
X126037010Y-25666509D03*
X126985190Y-25816691D03*
%TD*%
D13*
%TO.C,L-CL15A*%
X11017000Y-40725000D03*
X11977000Y-40725000D03*
%TD*%
D34*
%TO.C,L-AML1*%
X36863000Y-50475000D03*
X35593000Y-50475000D03*
X34323000Y-50475000D03*
X33053000Y-50475000D03*
X31783000Y-50475000D03*
X30513000Y-50475000D03*
X29243000Y-50475000D03*
X27973000Y-50475000D03*
X27973000Y-45525000D03*
X29243000Y-45525000D03*
X30513000Y-45525000D03*
X31783000Y-45525000D03*
X33053000Y-45525000D03*
X34323000Y-45525000D03*
X35593000Y-45525000D03*
X36863000Y-45525000D03*
%TD*%
D16*
%TO.C,L-CL4B*%
X76745258Y-16978578D03*
X77703942Y-17028822D03*
%TD*%
D35*
%TO.C,L-CRGBL6*%
X107234610Y-22672909D03*
X108182790Y-22823091D03*
%TD*%
D13*
%TO.C,L-CL27B*%
X17073000Y-92625000D03*
X18033000Y-92625000D03*
%TD*%
D36*
%TO.C,L-DL20*%
X15372000Y-52225000D03*
X15372000Y-53725000D03*
X20822000Y-53725000D03*
X20822000Y-52225000D03*
%TD*%
D14*
%TO.C,L-HEL15*%
X16959500Y-48575000D03*
X16959500Y-46675000D03*
X19234500Y-47625000D03*
%TD*%
D37*
%TO.C,L-HEL12*%
X96509629Y-32140895D03*
X96708233Y-30251303D03*
X98871469Y-31433901D03*
%TD*%
D13*
%TO.C,L-CL9B*%
X46600000Y-35475000D03*
X47560000Y-35475000D03*
%TD*%
%TO.C,L-CL21A*%
X11017000Y-59775000D03*
X11977000Y-59775000D03*
%TD*%
%TO.C,L-CL1A*%
X6730000Y-2625000D03*
X7690000Y-2625000D03*
%TD*%
D27*
%TO.C,L-CL13B*%
X121417058Y-42084621D03*
X122375742Y-42034379D03*
%TD*%
D38*
%TO.C,L-CL11A*%
X72477227Y-21737965D03*
X73433573Y-21821635D03*
%TD*%
D21*
%TO.C,L-CL18A*%
X77437269Y-41309217D03*
X78394931Y-41376183D03*
%TD*%
D39*
%TO.C,L-DL5*%
X87198724Y-15767970D03*
X87041929Y-17259751D03*
X92462076Y-17829430D03*
X92618871Y-16337649D03*
%TD*%
D14*
%TO.C,L-HEL27*%
X12090500Y-84775000D03*
X12090500Y-86675000D03*
X9815500Y-85725000D03*
%TD*%
%TO.C,L-HEL29*%
X28865500Y-86675000D03*
X28865500Y-84775000D03*
X31140500Y-85725000D03*
%TD*%
D13*
%TO.C,L-CL17A*%
X57845158Y-40575179D03*
X58803842Y-40625421D03*
%TD*%
D40*
%TO.C,L-CL20B*%
X126030769Y-61956683D03*
X126988431Y-61889717D03*
%TD*%
D34*
%TO.C,L-AML2*%
X37363000Y-42475000D03*
X36093000Y-42475000D03*
X34823000Y-42475000D03*
X33553000Y-42475000D03*
X32283000Y-42475000D03*
X31013000Y-42475000D03*
X29743000Y-42475000D03*
X28473000Y-42475000D03*
X28473000Y-37525000D03*
X29743000Y-37525000D03*
X31013000Y-37525000D03*
X32283000Y-37525000D03*
X33553000Y-37525000D03*
X34823000Y-37525000D03*
X36093000Y-37525000D03*
X37363000Y-37525000D03*
%TD*%
D41*
%TO.C,L-CRGBL30*%
X89739728Y-93338926D03*
X90694472Y-93439274D03*
%TD*%
D13*
%TO.C,L-CRGBL11*%
X44700000Y-33925000D03*
X45660000Y-33925000D03*
%TD*%
D42*
%TO.C,L-HEL19*%
X100994492Y-51856760D03*
X101291717Y-49980152D03*
X103390094Y-51274344D03*
%TD*%
D14*
%TO.C,L-HEL17*%
X63368740Y-48725366D03*
X63468178Y-46827970D03*
X65690341Y-47895732D03*
%TD*%
D43*
%TO.C,L-HEL32*%
X83976429Y-88308895D03*
X84175029Y-86419303D03*
X86338269Y-87601901D03*
%TD*%
D44*
%TO.C,L-CL32A*%
X92012293Y-81293248D03*
X92971707Y-81326752D03*
%TD*%
D18*
%TO.C,L-CL6A*%
X103189473Y-6069077D03*
X104149327Y-6052323D03*
%TD*%
D13*
%TO.C,L-CL2A*%
X25780000Y-2625000D03*
X26740000Y-2625000D03*
%TD*%
D45*
%TO.C,L-HEL14*%
X133997492Y-37962160D03*
X134294717Y-36085552D03*
X136393094Y-37379744D03*
%TD*%
D13*
%TO.C,L-CL17B*%
X70304858Y-55047079D03*
X71263542Y-55097321D03*
%TD*%
%TO.C,L-CL9A*%
X33400000Y-21675000D03*
X34360000Y-21675000D03*
%TD*%
D33*
%TO.C,L-CRGBL14*%
X133395410Y-45966509D03*
X134343590Y-46116691D03*
%TD*%
D34*
%TO.C,L-AML4*%
X70973000Y-79950000D03*
X72243000Y-79950000D03*
X73513000Y-79950000D03*
X74783000Y-79950000D03*
X76053000Y-79950000D03*
X77323000Y-79950000D03*
X78593000Y-79950000D03*
X79863000Y-79950000D03*
X79863000Y-84900000D03*
X78593000Y-84900000D03*
X77323000Y-84900000D03*
X76053000Y-84900000D03*
X74783000Y-84900000D03*
X73513000Y-84900000D03*
X72243000Y-84900000D03*
X70973000Y-84900000D03*
%TD*%
D46*
%TO.C,L-DL29*%
X39691000Y-83000000D03*
X38191000Y-83000000D03*
X38191000Y-88450000D03*
X39691000Y-88450000D03*
%TD*%
D47*
%TO.C,L-CRGBL26*%
X122669810Y-82875709D03*
X123617990Y-83025891D03*
%TD*%
D48*
%TO.C,L-CL5A*%
X84067292Y-3909148D03*
X85026708Y-3942652D03*
%TD*%
D34*
%TO.C,L-AML5*%
X10363000Y-51975000D03*
X9093000Y-51975000D03*
X7823000Y-51975000D03*
X6553000Y-51975000D03*
X5283000Y-51975000D03*
X4013000Y-51975000D03*
X2743000Y-51975000D03*
X1473000Y-51975000D03*
X1473000Y-47025000D03*
X2743000Y-47025000D03*
X4013000Y-47025000D03*
X5283000Y-47025000D03*
X6553000Y-47025000D03*
X7823000Y-47025000D03*
X9093000Y-47025000D03*
X10363000Y-47025000D03*
%TD*%
D49*
%TO.C,L-DL3*%
X49185000Y-14125000D03*
X49185000Y-15625000D03*
X54635000Y-15625000D03*
X54635000Y-14125000D03*
%TD*%
D13*
%TO.C,L-CL1B*%
X19930000Y-16425000D03*
X20890000Y-16425000D03*
%TD*%
D40*
%TO.C,L-CL20A*%
X115152069Y-46261783D03*
X116109731Y-46194817D03*
%TD*%
D50*
%TO.C,L-CRGBL27*%
X21065000Y-81505000D03*
X21065000Y-80545000D03*
%TD*%
D13*
%TO.C,L-CL27A*%
X3873000Y-78825000D03*
X4833000Y-78825000D03*
%TD*%
D51*
%TO.C,L-HEL23*%
X66763340Y-68037566D03*
X66862778Y-66140170D03*
X69084941Y-67207932D03*
%TD*%
D52*
%TO.C,L-DL30*%
X82016124Y-91772970D03*
X81859329Y-93264751D03*
X87279476Y-93834430D03*
X87436271Y-92342649D03*
%TD*%
D14*
%TO.C,L-HEL22*%
X47915500Y-67625000D03*
X47915500Y-65725000D03*
X50190500Y-66675000D03*
%TD*%
D32*
%TO.C,L-CL7B*%
X132871769Y-24782883D03*
X133829431Y-24715917D03*
%TD*%
D14*
%TO.C,L-HEL31*%
X47915500Y-86675000D03*
X47915500Y-84775000D03*
X50190500Y-85725000D03*
%TD*%
D13*
%TO.C,L-CL3B*%
X58030000Y-16425000D03*
X58990000Y-16425000D03*
%TD*%
%TO.C,L-CL29A*%
X22923000Y-78825000D03*
X23883000Y-78825000D03*
%TD*%
D53*
%TO.C,L-JL1*%
X139109000Y-52500000D03*
X139109000Y-53500000D03*
X139109000Y-54500000D03*
X139109000Y-55500000D03*
X139109000Y-56500000D03*
X139109000Y-57500000D03*
X139109000Y-58500000D03*
X139109000Y-59500000D03*
X139109000Y-60500000D03*
X139109000Y-61500000D03*
X139109000Y-62500000D03*
X139109000Y-63500000D03*
D54*
X141309000Y-50200000D03*
X141309000Y-65800000D03*
%TD*%
D14*
%TO.C,L-HEL2*%
X31722500Y-10475000D03*
X31722500Y-8575000D03*
X33997500Y-9525000D03*
%TD*%
D13*
%TO.C,L-CRGBL2*%
X37080000Y-14875000D03*
X38040000Y-14875000D03*
%TD*%
D55*
%TO.C,L-DL22*%
X46327997Y-71275000D03*
X46328000Y-72775000D03*
X51778003Y-72775000D03*
X51778000Y-71275000D03*
%TD*%
D56*
%TO.C,L-CRGBL29*%
X38941000Y-89945000D03*
X38941000Y-90905000D03*
%TD*%
D15*
%TO.C,L-CL24A*%
X80876292Y-60968148D03*
X81835708Y-61001652D03*
%TD*%
D57*
%TO.C,L-DL14*%
X131858575Y-41318850D03*
X131623923Y-42800382D03*
X137006825Y-43652950D03*
X137241477Y-42171418D03*
%TD*%
D58*
%TO.C,L-CML3*%
X68221758Y-57549479D03*
X69180442Y-57599721D03*
%TD*%
D59*
%TO.C,L-DL4*%
X68032783Y-14218912D03*
X67954283Y-15716857D03*
X73396817Y-16002088D03*
X73475317Y-14504143D03*
%TD*%
D14*
%TO.C,L-HEL30*%
X45428500Y-84775000D03*
X45428500Y-86675000D03*
X43153500Y-85725000D03*
%TD*%
D60*
%TO.C,L-DL8*%
X94549324Y-35604970D03*
X94392529Y-37096751D03*
X99812676Y-37666430D03*
X99969471Y-36174649D03*
%TD*%
D13*
%TO.C,L-CRGBL23*%
X67001258Y-76060979D03*
X67959942Y-76111221D03*
%TD*%
D49*
%TO.C,L-DL1*%
X11085000Y-14125000D03*
X11085000Y-15625000D03*
X16535000Y-15625000D03*
X16535000Y-14125000D03*
%TD*%
D13*
%TO.C,L-CL15B*%
X24217000Y-54525000D03*
X25177000Y-54525000D03*
%TD*%
%TO.C,L-CL31A*%
X41973000Y-77000000D03*
X42933000Y-77000000D03*
%TD*%
D49*
%TO.C,L-DL33*%
X27278000Y-90325000D03*
X27278000Y-91825000D03*
X32728000Y-91825000D03*
X32728000Y-90325000D03*
%TD*%
%TO.C,L-DL23*%
X64986983Y-71599512D03*
X64908483Y-73097457D03*
X70351017Y-73382688D03*
X70429517Y-71884743D03*
%TD*%
D57*
%TO.C,L-DL7*%
X124500175Y-21018850D03*
X124265523Y-22500382D03*
X129648425Y-23352950D03*
X129883077Y-21871418D03*
%TD*%
D61*
%TO.C,L-DL19*%
X41566000Y-52225000D03*
X41566000Y-53725000D03*
X47016000Y-53725000D03*
X47016000Y-52225000D03*
%TD*%
D49*
%TO.C,L-DL12*%
X13943000Y-33175000D03*
X13943000Y-34675000D03*
X19393000Y-34675000D03*
X19393000Y-33175000D03*
%TD*%
D13*
%TO.C,L-CL21B*%
X24217000Y-73575000D03*
X25177000Y-73575000D03*
%TD*%
D62*
%TO.C,L-CRGBL5*%
X88976728Y-20328826D03*
X89931472Y-20429174D03*
%TD*%
D63*
%TO.C,L-HEL24*%
X85968029Y-69362895D03*
X86166633Y-67473303D03*
X88329869Y-68655901D03*
%TD*%
D64*
%TO.C,L-CRGBL25*%
X103830610Y-79892509D03*
X104778790Y-80042691D03*
%TD*%
D49*
%TO.C,L-DL10*%
X56805797Y-33175800D03*
X56805800Y-34675800D03*
X62255803Y-34675800D03*
X62255800Y-33175800D03*
%TD*%
D65*
%TO.C,L-DL9*%
X75607124Y-33621770D03*
X75450329Y-35113551D03*
X80870476Y-35683230D03*
X81027271Y-34191449D03*
%TD*%
D13*
%TO.C,L-CRGBL17*%
X82345928Y-57745626D03*
X83300672Y-57845974D03*
%TD*%
%TO.C,L-CL28B*%
X21835000Y-92625000D03*
X22795000Y-92625000D03*
%TD*%
D49*
%TO.C,L-DL24*%
X84007724Y-72826970D03*
X83850929Y-74318751D03*
X89271076Y-74888430D03*
X89427871Y-73396649D03*
%TD*%
D66*
%TO.C,L-CRGBL13*%
X114582810Y-42976709D03*
X115530990Y-43126891D03*
%TD*%
D67*
%TO.C,L-HEL26*%
X123271892Y-74871360D03*
X123569117Y-72994752D03*
X125667494Y-74288944D03*
%TD*%
D68*
%TO.C,L-CRGBL20*%
X17617000Y-56574998D03*
X18577000Y-56575002D03*
%TD*%
D13*
%TO.C,L-CML5*%
X11991000Y-53149000D03*
X12951000Y-53149000D03*
%TD*%
D69*
%TO.C,L-CL12B*%
X103102873Y-38875477D03*
X104062727Y-38858723D03*
%TD*%
D70*
%TO.C,L-DL27*%
X20315000Y-88450000D03*
X21815000Y-88450000D03*
X21815000Y-83000000D03*
X20315000Y-83000000D03*
%TD*%
D14*
%TO.C,L-HEL10*%
X58393300Y-29525800D03*
X58393300Y-27625800D03*
X60668300Y-28575800D03*
%TD*%
D71*
%TO.C,L-CL19B*%
X107226073Y-58935522D03*
X108185927Y-58952278D03*
%TD*%
D24*
%TO.C,L-CL23B*%
X73699458Y-74359279D03*
X74658142Y-74409521D03*
%TD*%
D72*
%TO.C,L-CRGBL18*%
X69387356Y-53446779D03*
X70346044Y-53497021D03*
%TD*%
D13*
%TO.C,L-CL10A*%
X52450800Y-21675700D03*
X53410800Y-21675700D03*
%TD*%
%TO.C,L-CL22B*%
X55173000Y-73575000D03*
X56133000Y-73575000D03*
%TD*%
D49*
%TO.C,L-DL15*%
X117659175Y-58192850D03*
X117424523Y-59674382D03*
X122807425Y-60526950D03*
X123042077Y-59045418D03*
%TD*%
D73*
%TO.C,L-HEL20*%
X119798092Y-54836160D03*
X120095317Y-52959552D03*
X122193694Y-54253744D03*
%TD*%
D13*
%TO.C,L-CL31B*%
X55173000Y-92625000D03*
X56133000Y-92625000D03*
%TD*%
D69*
%TO.C,L-CL12A*%
X91417673Y-23771277D03*
X92377527Y-23754523D03*
%TD*%
D74*
%TO.C,L-HEL33*%
X120289892Y-93685360D03*
X120587117Y-91808752D03*
X122685494Y-93102944D03*
%TD*%
D45*
%TO.C,L-HEL7*%
X126639092Y-17662160D03*
X126936317Y-15785552D03*
X129034694Y-17079744D03*
%TD*%
D75*
%TO.C,L-DL18*%
X61592386Y-52287313D03*
X61513880Y-53785257D03*
X66956414Y-54070487D03*
X67034920Y-52572543D03*
%TD*%
D13*
%TO.C,L-CL29B*%
X36123000Y-92625000D03*
X37083000Y-92625000D03*
%TD*%
D49*
%TO.C,L-DL2*%
X30135000Y-14125000D03*
X30135000Y-15625000D03*
X35585000Y-15625000D03*
X35585000Y-14125000D03*
%TD*%
%TO.C,L-DL11*%
X37755000Y-33175000D03*
X37755000Y-34675000D03*
X43205000Y-34675000D03*
X43205000Y-33175000D03*
%TD*%
D13*
%TO.C,L-CL30B*%
X50411000Y-92625000D03*
X51371000Y-92625000D03*
%TD*%
D76*
%TO.C,L-HEL18*%
X82528229Y-49720695D03*
X82726833Y-47831103D03*
X84890069Y-49013701D03*
%TD*%
D48*
%TO.C,L-CL5B*%
X95752492Y-19013348D03*
X96711908Y-19046852D03*
%TD*%
D14*
%TO.C,L-HEL1*%
X12672500Y-10475000D03*
X12672500Y-8575000D03*
X14947500Y-9525000D03*
%TD*%
D77*
%TO.C,L-CRGBL31*%
X125782010Y-99010109D03*
X126730190Y-99160291D03*
%TD*%
D13*
%TO.C,L-CRGBL1*%
X18030000Y-14875000D03*
X18990000Y-14875000D03*
%TD*%
D32*
%TO.C,L-CL14B*%
X140230169Y-45082883D03*
X141187831Y-45015917D03*
%TD*%
D31*
%TO.C,L-CL26A*%
X118625769Y-66296883D03*
X119583431Y-66229917D03*
%TD*%
D78*
%TO.C,L-HEL13*%
X115184892Y-34972360D03*
X115482117Y-33095752D03*
X117580494Y-34389944D03*
%TD*%
D13*
%TO.C,L-CRGBL33*%
X34223000Y-91075000D03*
X35183000Y-91075000D03*
%TD*%
D14*
%TO.C,L-HEL3*%
X50772500Y-10475000D03*
X50772500Y-8575000D03*
X53047500Y-9525000D03*
%TD*%
D79*
%TO.C,L-CL25A*%
X99785500Y-63280300D03*
X100745500Y-63280300D03*
%TD*%
D77*
%TO.C,L-CL33B*%
X114846910Y-100075909D03*
X115795090Y-100226091D03*
%TD*%
D13*
%TO.C,L-CRGBL12*%
X20888000Y-33925000D03*
X21848000Y-33925000D03*
%TD*%
D80*
%TO.C,L-HEL25*%
X104432692Y-71888160D03*
X104729917Y-70011552D03*
X106828294Y-71305744D03*
%TD*%
D44*
%TO.C,L-CL32B*%
X77442293Y-93638248D03*
X78401707Y-93671752D03*
%TD*%
D14*
%TO.C,L-HEL9*%
X39342500Y-29525000D03*
X39342500Y-27625000D03*
X41617500Y-28575000D03*
%TD*%
D77*
%TO.C,L-CL33A*%
X127328910Y-85623909D03*
X128277090Y-85774091D03*
%TD*%
D14*
%TO.C,L-HEL8*%
X15530500Y-29525000D03*
X15530500Y-27625000D03*
X17805500Y-28575000D03*
%TD*%
D81*
%TO.C,L-HEL6*%
X107836692Y-14668560D03*
X108133917Y-12791952D03*
X110232294Y-14086144D03*
%TD*%
D24*
%TO.C,L-CL23A*%
X61239758Y-59887279D03*
X62198442Y-59937521D03*
%TD*%
D49*
%TO.C,L-DL17*%
X80567921Y-53184768D03*
X80411129Y-54676551D03*
X85831279Y-55246232D03*
X85988071Y-53754449D03*
%TD*%
D13*
%TO.C,L-CML1*%
X38491000Y-51649000D03*
X39451000Y-51649000D03*
%TD*%
%TO.C,L-CML4*%
X68385000Y-78851000D03*
X69345000Y-78851000D03*
%TD*%
D82*
%TO.C,L-DL31*%
X118150975Y-97042050D03*
X117916323Y-98523582D03*
X123299225Y-99376150D03*
X123533877Y-97894618D03*
%TD*%
D13*
%TO.C,L-CRGBL24*%
X85785728Y-77387826D03*
X86740472Y-77488174D03*
%TD*%
D71*
%TO.C,L-CL19A*%
X96347373Y-43240522D03*
X97307227Y-43257278D03*
%TD*%
D83*
%TO.C,L-DL26*%
X121132975Y-78228050D03*
X120898323Y-79709582D03*
X126281225Y-80562150D03*
X126515877Y-79080618D03*
%TD*%
D84*
%TO.C,L-DL13*%
X113045975Y-38329050D03*
X112811323Y-39810582D03*
X118194225Y-40663150D03*
X118428877Y-39181618D03*
%TD*%
D85*
%TO.C,L-RBPL29*%
X46371000Y-81500000D03*
X47391000Y-81500000D03*
%TD*%
D32*
%TO.C,L-CL7A*%
X121993069Y-9087783D03*
X122950731Y-9020817D03*
%TD*%
D13*
%TO.C,L-CRGBL3*%
X56130000Y-14875000D03*
X57090000Y-14875000D03*
%TD*%
D86*
%TO.C,L-CRGBL9*%
X77385128Y-38182626D03*
X78339872Y-38282974D03*
%TD*%
D14*
%TO.C,L-HEL21*%
X16959500Y-67625000D03*
X16959500Y-65725000D03*
X19234500Y-66675000D03*
%TD*%
D38*
%TO.C,L-CL11B*%
X84162427Y-36842065D03*
X85118773Y-36925735D03*
%TD*%
D87*
%TO.C,L-DL6*%
X105697775Y-18025250D03*
X105463123Y-19506782D03*
X110846025Y-20359350D03*
X111080677Y-18877818D03*
%TD*%
D49*
%TO.C,L-DL16*%
X98855575Y-55213450D03*
X98620923Y-56694982D03*
X104003825Y-57547550D03*
X104238477Y-56066018D03*
%TD*%
D13*
%TO.C,L-CL3A*%
X44830000Y-2625000D03*
X45790000Y-2625000D03*
%TD*%
D12*
%TO.C,R-MHR3*%
X115567400Y-127716400D03*
%TD*%
D10*
%TO.C,R-SR3*%
X36275659Y-204677955D03*
D11*
X33891598Y-189625585D03*
D10*
X12756330Y-208403051D03*
D11*
X10372269Y-193350681D03*
%TD*%
D12*
%TO.C,R-MHR4*%
X141567400Y-150716400D03*
%TD*%
%TO.C,R-MHR2*%
X46567400Y-198716400D03*
%TD*%
D10*
%TO.C,R-SR2*%
X114982150Y-166406400D03*
D11*
X114982150Y-181646400D03*
D10*
X138794650Y-166406400D03*
D11*
X138794650Y-181646400D03*
%TD*%
D12*
%TO.C,R-MHR1*%
X9567400Y-155716400D03*
%TD*%
D10*
%TO.C,R-SR1*%
X109744150Y-109256400D03*
D11*
X109744150Y-124496400D03*
D10*
X133556650Y-109256400D03*
D11*
X133556650Y-124496400D03*
%TD*%
D13*
%TO.C,R-CRGBR8*%
X132537400Y-140641400D03*
X133497400Y-140641400D03*
%TD*%
D33*
%TO.C,R-CR15B*%
X16836569Y-149666017D03*
X17794231Y-149732983D03*
%TD*%
D14*
%TO.C,R-HER10*%
X103367900Y-136241400D03*
X103367900Y-134341400D03*
X105642900Y-135291400D03*
%TD*%
D13*
%TO.C,R-CR11B*%
X134437400Y-142191400D03*
X135397400Y-142191400D03*
%TD*%
D88*
%TO.C,R-HER8*%
X16098717Y-124733848D03*
X15801492Y-122857240D03*
X18197094Y-123439656D03*
%TD*%
D89*
%TO.C,R-CR12A*%
X58424827Y-129917735D03*
X59381173Y-129834065D03*
%TD*%
D90*
%TO.C,R-CR35A*%
X52013793Y-188043452D03*
X52973207Y-188009948D03*
%TD*%
D13*
%TO.C,R-CRGBR9*%
X108725400Y-140641400D03*
X109685400Y-140641400D03*
%TD*%
%TO.C,R-CR31A*%
X93214400Y-185541400D03*
X94174400Y-185541400D03*
%TD*%
D91*
%TO.C,R-CRGBR28*%
X65429828Y-198984574D03*
X66384572Y-198884226D03*
%TD*%
D92*
%TO.C,R-DR32*%
X21451423Y-204611118D03*
X21686075Y-206092650D03*
X27068977Y-205240082D03*
X26834325Y-203758550D03*
%TD*%
D70*
%TO.C,R-DR29*%
X105294400Y-195166400D03*
X106794400Y-195166400D03*
X106794400Y-189716400D03*
X105294400Y-189716400D03*
%TD*%
D93*
%TO.C,R-CR29A*%
X12365669Y-175011317D03*
X13323331Y-175078283D03*
%TD*%
D13*
%TO.C,R-CR16A*%
X72998458Y-148034121D03*
X73957142Y-147983879D03*
%TD*%
D14*
%TO.C,R-HER17*%
X99556900Y-155291400D03*
X99556900Y-153391400D03*
X101831900Y-154341400D03*
%TD*%
D49*
%TO.C,R-DR16*%
X77949283Y-159290543D03*
X78027783Y-160788488D03*
X83470317Y-160503257D03*
X83391817Y-159005312D03*
%TD*%
D13*
%TO.C,R-CR26A*%
X130887400Y-178216400D03*
X131847400Y-178216400D03*
%TD*%
D14*
%TO.C,R-HER25*%
X125750900Y-174341400D03*
X125750900Y-172441400D03*
X128025900Y-173391400D03*
%TD*%
D94*
%TO.C,R-CR6B*%
X61401392Y-124383052D03*
X62360808Y-124349548D03*
%TD*%
D32*
%TO.C,R-CRGBR7*%
X17999610Y-132532491D03*
X18947790Y-132382309D03*
%TD*%
D95*
%TO.C,R-CRGBR6*%
X36803410Y-129540891D03*
X37751590Y-129390709D03*
%TD*%
D96*
%TO.C,R-DR15*%
X58996929Y-160470649D03*
X59153724Y-161962430D03*
X64573871Y-161392751D03*
X64417076Y-159900970D03*
%TD*%
D97*
%TO.C,R-CR21A*%
X15839269Y-154975317D03*
X16796931Y-155042283D03*
%TD*%
D13*
%TO.C,R-CR34A*%
X126952400Y-183716400D03*
X127912400Y-183716400D03*
%TD*%
%TO.C,R-CR23A*%
X88852400Y-166491400D03*
X89812400Y-166491400D03*
%TD*%
D98*
%TO.C,R-CR14A*%
X20448958Y-135121479D03*
X21407642Y-135171721D03*
%TD*%
D14*
%TO.C,R-HER30*%
X97069900Y-191491400D03*
X97069900Y-193391400D03*
X94794900Y-192441400D03*
%TD*%
D13*
%TO.C,R-CR16B*%
X86902558Y-161124421D03*
X87861242Y-161074179D03*
%TD*%
D99*
%TO.C,R-CRGBR32*%
X29317210Y-204124691D03*
X30265390Y-203974509D03*
%TD*%
D13*
%TO.C,R-CR11A*%
X121237400Y-128391400D03*
X122197400Y-128391400D03*
%TD*%
D100*
%TO.C,R-JR1*%
X7876400Y-170216400D03*
X7876400Y-169216400D03*
X7876400Y-168216400D03*
X7876400Y-167216400D03*
X7876400Y-166216400D03*
X7876400Y-165216400D03*
X7876400Y-164216400D03*
X7876400Y-163216400D03*
X7876400Y-162216400D03*
X7876400Y-161216400D03*
X7876400Y-160216400D03*
X7876400Y-159216400D03*
D101*
X5676400Y-172516400D03*
X5676400Y-156916400D03*
%TD*%
D13*
%TO.C,R-CR34B*%
X140152400Y-199341400D03*
X141112400Y-199341400D03*
%TD*%
D34*
%TO.C,R-AMR4*%
X74012400Y-191616400D03*
X72742400Y-191616400D03*
X71472400Y-191616400D03*
X70202400Y-191616400D03*
X68932400Y-191616400D03*
X67662400Y-191616400D03*
X66392400Y-191616400D03*
X65122400Y-191616400D03*
X65122400Y-186666400D03*
X66392400Y-186666400D03*
X67662400Y-186666400D03*
X68932400Y-186666400D03*
X70202400Y-186666400D03*
X71472400Y-186666400D03*
X72742400Y-186666400D03*
X74012400Y-186666400D03*
%TD*%
D13*
%TO.C,R-CR10A*%
X97425400Y-128391400D03*
X98385400Y-128391400D03*
%TD*%
D34*
%TO.C,R-AMR2*%
X107622400Y-144241400D03*
X108892400Y-144241400D03*
X110162400Y-144241400D03*
X111432400Y-144241400D03*
X112702400Y-144241400D03*
X113972400Y-144241400D03*
X115242400Y-144241400D03*
X116512400Y-144241400D03*
X116512400Y-149191400D03*
X115242400Y-149191400D03*
X113972400Y-149191400D03*
X112702400Y-149191400D03*
X111432400Y-149191400D03*
X110162400Y-149191400D03*
X108892400Y-149191400D03*
X107622400Y-149191400D03*
%TD*%
D102*
%TO.C,R-HER22*%
X75950978Y-174874630D03*
X75851540Y-172977234D03*
X78173141Y-173806868D03*
%TD*%
D99*
%TO.C,R-CR36B*%
X29190410Y-206942791D03*
X30138590Y-206792609D03*
%TD*%
D103*
%TO.C,R-HER13*%
X46212833Y-139096297D03*
X46014229Y-137206705D03*
X48376069Y-137913699D03*
%TD*%
D13*
%TO.C,R-CR5B*%
X137295400Y-123141400D03*
X138255400Y-123141400D03*
%TD*%
D104*
%TO.C,R-HER6*%
X53564033Y-119257697D03*
X53365429Y-117368105D03*
X55727269Y-118075099D03*
%TD*%
D13*
%TO.C,R-CR17A*%
X93614400Y-147441400D03*
X94574400Y-147441400D03*
%TD*%
%TO.C,R-CRGBR16*%
X85822758Y-159628921D03*
X86781442Y-159578679D03*
%TD*%
D46*
%TO.C,R-DR31*%
X124670400Y-189716400D03*
X123170400Y-189716400D03*
X123170400Y-195166400D03*
X124670400Y-195166400D03*
%TD*%
D105*
%TO.C,R-HER28*%
X38306117Y-178959048D03*
X38008892Y-177082440D03*
X40404494Y-177664856D03*
%TD*%
D49*
%TO.C,R-DR21*%
X124163400Y-177991400D03*
X124163400Y-179491400D03*
X129613400Y-179491400D03*
X129613400Y-177991400D03*
%TD*%
D93*
%TO.C,R-CR29B*%
X27561969Y-186576517D03*
X28519631Y-186643483D03*
%TD*%
D14*
%TO.C,R-HER33*%
X130407900Y-191491400D03*
X130407900Y-193391400D03*
X128132900Y-192441400D03*
%TD*%
D106*
%TO.C,R-HER36*%
X22448417Y-200757748D03*
X22151192Y-198881140D03*
X24546794Y-199463556D03*
%TD*%
D13*
%TO.C,R-CR32A*%
X107902400Y-185541400D03*
X108862400Y-185541400D03*
%TD*%
D107*
%TO.C,R-CRGBR15*%
X61684328Y-164562174D03*
X62639072Y-164461826D03*
%TD*%
D108*
%TO.C,R-CRGBR1*%
X55054128Y-127145174D03*
X56008872Y-127044826D03*
%TD*%
D109*
%TO.C,R-DR26*%
X37309123Y-182812418D03*
X37543775Y-184293950D03*
X42926677Y-183441382D03*
X42692025Y-181959850D03*
%TD*%
D110*
%TO.C,R-CR27A*%
X50022292Y-169098452D03*
X50981708Y-169064948D03*
%TD*%
D49*
%TO.C,R-DR22*%
X112257400Y-177041400D03*
X112257400Y-178541400D03*
X117707400Y-178541400D03*
X117707400Y-177041400D03*
%TD*%
%TO.C,R-DR23*%
X93207400Y-177991400D03*
X93207400Y-179491400D03*
X98657400Y-179491400D03*
X98657400Y-177991400D03*
%TD*%
D111*
%TO.C,R-DR20*%
X21944323Y-165761018D03*
X22178975Y-167242550D03*
X27561877Y-166389982D03*
X27327225Y-164908450D03*
%TD*%
D112*
%TO.C,R-CRGBR11*%
X66646128Y-144999374D03*
X67600872Y-144899026D03*
%TD*%
D13*
%TO.C,R-CMR2*%
X105034700Y-150365000D03*
X105994700Y-150365000D03*
%TD*%
D14*
%TO.C,R-HER26*%
X135275900Y-174341400D03*
X135275900Y-172441400D03*
X137550900Y-173391400D03*
%TD*%
D13*
%TO.C,R-CRGBR17*%
X104914400Y-159691400D03*
X105874400Y-159691400D03*
%TD*%
%TO.C,R-CRGBR3*%
X97295400Y-121591400D03*
X98255400Y-121591400D03*
%TD*%
D113*
%TO.C,R-CRGBR13*%
X29452410Y-149844091D03*
X30400590Y-149693909D03*
%TD*%
D34*
%TO.C,R-AMR1*%
X108122400Y-152241400D03*
X109392400Y-152241400D03*
X110662400Y-152241400D03*
X111932400Y-152241400D03*
X113202400Y-152241400D03*
X114472400Y-152241400D03*
X115742400Y-152241400D03*
X117012400Y-152241400D03*
X117012400Y-157191400D03*
X115742400Y-157191400D03*
X114472400Y-157191400D03*
X113202400Y-157191400D03*
X111932400Y-157191400D03*
X110662400Y-157191400D03*
X109392400Y-157191400D03*
X108122400Y-157191400D03*
%TD*%
D13*
%TO.C,R-CR17B*%
X106814400Y-161241400D03*
X107774400Y-161241400D03*
%TD*%
D50*
%TO.C,R-CRGBR29*%
X106044400Y-188221400D03*
X106044400Y-187261400D03*
%TD*%
D49*
%TO.C,R-DR34*%
X133688400Y-177041400D03*
X133688400Y-178541400D03*
X139138400Y-178541400D03*
X139138400Y-177041400D03*
%TD*%
D85*
%TO.C,R-RBPR31*%
X114557400Y-184716400D03*
X115577400Y-184716400D03*
%TD*%
D49*
%TO.C,R-DR17*%
X97969400Y-158941400D03*
X97969400Y-160441400D03*
X103419400Y-160441400D03*
X103419400Y-158941400D03*
%TD*%
D114*
%TO.C,R-CR13A*%
X39479773Y-131851923D03*
X40439627Y-131868677D03*
%TD*%
D13*
%TO.C,R-CRGBR5*%
X133495400Y-121091400D03*
X134455400Y-121091400D03*
%TD*%
%TO.C,R-CR5A*%
X126095400Y-113641400D03*
X127055400Y-113641400D03*
%TD*%
D14*
%TO.C,R-HER34*%
X132894900Y-193391400D03*
X132894900Y-191491400D03*
X135169900Y-192441400D03*
%TD*%
D13*
%TO.C,R-CR9B*%
X91575400Y-142191400D03*
X92535400Y-142191400D03*
%TD*%
D115*
%TO.C,R-HER35*%
X58746729Y-195262697D03*
X58548129Y-193373105D03*
X60909969Y-194080099D03*
%TD*%
D116*
%TO.C,R-DR24*%
X74556683Y-178602743D03*
X74635183Y-180100688D03*
X80077717Y-179815457D03*
X79999217Y-178317512D03*
%TD*%
D13*
%TO.C,R-CR33A*%
X122190400Y-185541400D03*
X123150400Y-185541400D03*
%TD*%
D14*
%TO.C,R-HER3*%
X110987900Y-117191400D03*
X110987900Y-115291400D03*
X113262900Y-116241400D03*
%TD*%
D88*
%TO.C,R-HER15*%
X8742317Y-145033248D03*
X8445092Y-143156640D03*
X10840694Y-143739056D03*
%TD*%
D49*
%TO.C,R-DR8*%
X125592400Y-139891400D03*
X125592400Y-141391400D03*
X131042400Y-141391400D03*
X131042400Y-139891400D03*
%TD*%
D117*
%TO.C,R-CR22A*%
X69605758Y-167346421D03*
X70564442Y-167296179D03*
%TD*%
D13*
%TO.C,R-CMR1*%
X105534700Y-158365000D03*
X106494700Y-158365000D03*
%TD*%
%TO.C,R-CR30B*%
X102052400Y-199341400D03*
X103012400Y-199341400D03*
%TD*%
%TO.C,R-CR33B*%
X135390400Y-199341400D03*
X136350400Y-199341400D03*
%TD*%
D118*
%TO.C,R-HER21*%
X22941317Y-161907648D03*
X22644092Y-160031040D03*
X25039694Y-160613456D03*
%TD*%
D49*
%TO.C,R-DR3*%
X90350400Y-120841400D03*
X90350400Y-122341400D03*
X95800400Y-122341400D03*
X95800400Y-120841400D03*
%TD*%
D119*
%TO.C,R-HER1*%
X72905378Y-117492830D03*
X72805940Y-115595434D03*
X75127541Y-116425068D03*
%TD*%
D120*
%TO.C,R-CR19A*%
X53462269Y-149472183D03*
X54419931Y-149405217D03*
%TD*%
D121*
%TO.C,R-CMR3*%
X75805758Y-164317721D03*
X76764442Y-164267479D03*
%TD*%
D14*
%TO.C,R-HER4*%
X120512900Y-117191400D03*
X120512900Y-115291400D03*
X122787900Y-116241400D03*
%TD*%
D122*
%TO.C,R-CR28B*%
X46399100Y-183625400D03*
X47359100Y-183625400D03*
%TD*%
D14*
%TO.C,R-HER32*%
X113844900Y-193391400D03*
X113844900Y-191491400D03*
X116119900Y-192441400D03*
%TD*%
D123*
%TO.C,R-DR19*%
X40747523Y-162783818D03*
X40982175Y-164265350D03*
X46365077Y-163412782D03*
X46130425Y-161931250D03*
%TD*%
D34*
%TO.C,R-AMR5*%
X134622400Y-153741400D03*
X135892400Y-153741400D03*
X137162400Y-153741400D03*
X138432400Y-153741400D03*
X139702400Y-153741400D03*
X140972400Y-153741400D03*
X142242400Y-153741400D03*
X143512400Y-153741400D03*
X143512400Y-158691400D03*
X142242400Y-158691400D03*
X140972400Y-158691400D03*
X139702400Y-158691400D03*
X138432400Y-158691400D03*
X137162400Y-158691400D03*
X135892400Y-158691400D03*
X134622400Y-158691400D03*
%TD*%
D124*
%TO.C,R-DR25*%
X55557729Y-180113649D03*
X55714524Y-181605430D03*
X61134671Y-181035751D03*
X60977876Y-179543970D03*
%TD*%
D13*
%TO.C,R-CRGBR33*%
X121170400Y-125191400D03*
X122130400Y-125191400D03*
%TD*%
%TO.C,R-CMR4*%
X75640100Y-185567800D03*
X76600100Y-185567800D03*
%TD*%
%TO.C,R-CR2B*%
X99195400Y-123141400D03*
X100155400Y-123141400D03*
%TD*%
%TO.C,R-CR10B*%
X110625400Y-142191400D03*
X111585400Y-142191400D03*
%TD*%
%TO.C,R-CRGBR36*%
X119202400Y-197791400D03*
X120162400Y-197791400D03*
%TD*%
D125*
%TO.C,R-DR28*%
X57549429Y-199058649D03*
X57706224Y-200550430D03*
X63126371Y-199980751D03*
X62969576Y-198488970D03*
%TD*%
D126*
%TO.C,R-HER20*%
X41744517Y-158930448D03*
X41447292Y-157053840D03*
X43842894Y-157636256D03*
%TD*%
D13*
%TO.C,R-CRGBR21*%
X121708400Y-178741400D03*
X122668400Y-178741400D03*
%TD*%
%TO.C,R-CRGBR18*%
X121708400Y-159691400D03*
X122668400Y-159691400D03*
%TD*%
%TO.C,R-CRGBR10*%
X89675400Y-140641400D03*
X90635400Y-140641400D03*
%TD*%
D49*
%TO.C,R-DR18*%
X124163400Y-158941400D03*
X124163400Y-160441400D03*
X129613400Y-160441400D03*
X129613400Y-158941400D03*
%TD*%
D13*
%TO.C,R-CR32B*%
X121102400Y-199341400D03*
X122062400Y-199341400D03*
%TD*%
D127*
%TO.C,R-DR6*%
X33905523Y-125595618D03*
X34140175Y-127077150D03*
X39523077Y-126224582D03*
X39288425Y-124743050D03*
%TD*%
D122*
%TO.C,R-CR28A*%
X31202900Y-172060200D03*
X32162900Y-172060200D03*
%TD*%
D49*
%TO.C,R-DR4*%
X111300400Y-120341400D03*
X111300400Y-121841400D03*
X116750400Y-121841400D03*
X116750400Y-120341400D03*
%TD*%
D110*
%TO.C,R-CR27B*%
X64592392Y-181443052D03*
X65551808Y-181409548D03*
%TD*%
D128*
%TO.C,R-CRGBR12*%
X47702928Y-146983774D03*
X48657672Y-146883426D03*
%TD*%
D129*
%TO.C,R-CR1B*%
X80464358Y-123054822D03*
X81423042Y-123004578D03*
%TD*%
D130*
%TO.C,R-DR2*%
X71511083Y-121220943D03*
X71589583Y-122718888D03*
X77032117Y-122433657D03*
X76953617Y-120935712D03*
%TD*%
D13*
%TO.C,R-CR18B*%
X133008400Y-161241400D03*
X133968400Y-161241400D03*
%TD*%
%TO.C,R-CR25B*%
X131008400Y-170791400D03*
X131968400Y-170791400D03*
%TD*%
%TO.C,R-CRGBR22*%
X119202400Y-177791400D03*
X120162400Y-177791400D03*
%TD*%
D98*
%TO.C,R-CR14B*%
X35645258Y-146686679D03*
X36603942Y-146736921D03*
%TD*%
D20*
%TO.C,R-CRGBR26*%
X40207010Y-186757691D03*
X41155190Y-186607509D03*
%TD*%
D13*
%TO.C,R-CR23B*%
X102052400Y-180291400D03*
X103012400Y-180291400D03*
%TD*%
D131*
%TO.C,R-CR7B*%
X42995673Y-126400223D03*
X43955527Y-126416977D03*
%TD*%
D13*
%TO.C,R-CR3A*%
X105045400Y-109341400D03*
X106005400Y-109341400D03*
%TD*%
%TO.C,R-CR9A*%
X78375400Y-128391400D03*
X79335400Y-128391400D03*
%TD*%
%TO.C,R-CR24A*%
X109587400Y-178216400D03*
X110547400Y-178216400D03*
%TD*%
%TO.C,R-CMR5*%
X132034700Y-159865000D03*
X132994700Y-159865000D03*
%TD*%
D97*
%TO.C,R-CR21B*%
X31035569Y-166540617D03*
X31993231Y-166607583D03*
%TD*%
D132*
%TO.C,R-HER19*%
X60194233Y-156674697D03*
X59995629Y-154785105D03*
X62357469Y-155492099D03*
%TD*%
D129*
%TO.C,R-CRGBR2*%
X73980658Y-125447421D03*
X74939342Y-125397179D03*
%TD*%
D33*
%TO.C,R-CR8A*%
X8996569Y-117801517D03*
X9954231Y-117868483D03*
%TD*%
D13*
%TO.C,R-CR4A*%
X116570400Y-113641400D03*
X117530400Y-113641400D03*
%TD*%
%TO.C,R-CR26B*%
X142533400Y-180291400D03*
X143493400Y-180291400D03*
%TD*%
D32*
%TO.C,R-CRGBR14*%
X10643210Y-152831891D03*
X11591390Y-152681709D03*
%TD*%
D133*
%TO.C,R-CRGBR19*%
X43645410Y-166729091D03*
X44593590Y-166578909D03*
%TD*%
D49*
%TO.C,R-DR9*%
X101780400Y-139891400D03*
X101780400Y-141391400D03*
X107230400Y-141391400D03*
X107230400Y-139891400D03*
%TD*%
D14*
%TO.C,R-HER16*%
X79343578Y-155562430D03*
X79244140Y-153665034D03*
X81565741Y-154494668D03*
%TD*%
D13*
%TO.C,R-CR18A*%
X119808400Y-147441400D03*
X120768400Y-147441400D03*
%TD*%
D134*
%TO.C,R-DR11*%
X63958729Y-140907849D03*
X64115524Y-142399630D03*
X69535671Y-141829951D03*
X69378876Y-140338170D03*
%TD*%
D114*
%TO.C,R-CR13B*%
X54049973Y-144196523D03*
X55009827Y-144213277D03*
%TD*%
D135*
%TO.C,R-HER27*%
X56755033Y-176317697D03*
X56556429Y-174428105D03*
X58918269Y-175135099D03*
%TD*%
D13*
%TO.C,R-CRGBR4*%
X108845400Y-121091400D03*
X109805400Y-121091400D03*
%TD*%
D14*
%TO.C,R-HER2*%
X91937900Y-117191400D03*
X91937900Y-115291400D03*
X94212900Y-116241400D03*
%TD*%
D13*
%TO.C,R-CR30A*%
X88852400Y-185541400D03*
X89812400Y-185541400D03*
%TD*%
D120*
%TO.C,R-CR19B*%
X68032469Y-161816783D03*
X68990131Y-161749817D03*
%TD*%
D136*
%TO.C,R-DR27*%
X18470723Y-185797018D03*
X18705375Y-187278550D03*
X24088277Y-186425982D03*
X23853625Y-184944450D03*
%TD*%
D14*
%TO.C,R-HER24*%
X113844900Y-174341400D03*
X113844900Y-172441400D03*
X116119900Y-173391400D03*
%TD*%
D117*
%TO.C,R-CR22B*%
X83509858Y-180436621D03*
X84468542Y-180386379D03*
%TD*%
D14*
%TO.C,R-HER5*%
X130037900Y-117191400D03*
X130037900Y-115291400D03*
X132312900Y-116241400D03*
%TD*%
D137*
%TO.C,R-HER29*%
X19467717Y-181943648D03*
X19170492Y-180067040D03*
X21566094Y-180649456D03*
%TD*%
D138*
%TO.C,R-DR1*%
X52366729Y-123053649D03*
X52523524Y-124545430D03*
X57943671Y-123975751D03*
X57786876Y-122483970D03*
%TD*%
D94*
%TO.C,R-CR6A*%
X46831092Y-112038352D03*
X47790508Y-112004848D03*
%TD*%
D139*
%TO.C,R-HER7*%
X34902517Y-121742248D03*
X34605292Y-119865640D03*
X37000894Y-120448056D03*
%TD*%
D13*
%TO.C,R-CR4B*%
X127670400Y-118241400D03*
X128630400Y-118241400D03*
%TD*%
D140*
%TO.C,R-HER14*%
X27551517Y-142045448D03*
X27254292Y-140168840D03*
X29649894Y-140751256D03*
%TD*%
D141*
%TO.C,R-CRGBR27*%
X21368610Y-189742291D03*
X22316790Y-189592109D03*
%TD*%
D33*
%TO.C,R-CR8B*%
X24192969Y-129366717D03*
X25150631Y-129433683D03*
%TD*%
D14*
%TO.C,R-HER23*%
X94794900Y-174341400D03*
X94794900Y-172441400D03*
X97069900Y-173391400D03*
%TD*%
D33*
%TO.C,R-CR15A*%
X1640269Y-138100917D03*
X2597931Y-138167883D03*
%TD*%
D56*
%TO.C,R-CRGBR31*%
X123920400Y-196661400D03*
X123920400Y-197621400D03*
%TD*%
D14*
%TO.C,R-HER11*%
X127179900Y-136241400D03*
X127179900Y-134341400D03*
X129454900Y-135291400D03*
%TD*%
D142*
%TO.C,R-DR14*%
X7745323Y-148886618D03*
X7979975Y-150368150D03*
X13362877Y-149515582D03*
X13128225Y-148034050D03*
%TD*%
D99*
%TO.C,R-CR36A*%
X16708110Y-192490391D03*
X17656290Y-192340209D03*
%TD*%
D143*
%TO.C,R-DR12*%
X45015529Y-142892249D03*
X45172324Y-144384030D03*
X50592471Y-143814351D03*
X50435676Y-142322570D03*
%TD*%
D13*
%TO.C,R-CR31B*%
X106814400Y-199341400D03*
X107774400Y-199341400D03*
%TD*%
D144*
%TO.C,R-CRGBR25*%
X58245128Y-184205174D03*
X59199872Y-184104826D03*
%TD*%
D145*
%TO.C,R-HER12*%
X65156033Y-137111897D03*
X64957429Y-135222305D03*
X67319269Y-135929299D03*
%TD*%
D89*
%TO.C,R-CR12B*%
X72994927Y-142262235D03*
X73951273Y-142178565D03*
%TD*%
D146*
%TO.C,R-CRGBR20*%
X24842210Y-169706291D03*
X25790390Y-169556109D03*
%TD*%
D85*
%TO.C,R-RBPR24*%
X76057400Y-169216400D03*
X77077400Y-169216400D03*
%TD*%
D131*
%TO.C,R-CR7A*%
X27799373Y-114835123D03*
X28759227Y-114851877D03*
%TD*%
D49*
%TO.C,R-DR33*%
X118925400Y-120841400D03*
X118925400Y-122341400D03*
X124375400Y-122341400D03*
X124375400Y-120841400D03*
%TD*%
D13*
%TO.C,R-CR2A*%
X85995400Y-109341400D03*
X86955400Y-109341400D03*
%TD*%
D117*
%TO.C,R-CRGBR24*%
X77026258Y-182829221D03*
X77984942Y-182778979D03*
%TD*%
D14*
%TO.C,R-HER9*%
X84317900Y-136241400D03*
X84317900Y-134341400D03*
X86592900Y-135291400D03*
%TD*%
D49*
%TO.C,R-DR36*%
X112257400Y-197041400D03*
X112257400Y-198541400D03*
X117707400Y-198541400D03*
X117707400Y-197041400D03*
%TD*%
D13*
%TO.C,R-CR3B*%
X107045400Y-113641400D03*
X108005400Y-113641400D03*
%TD*%
%TO.C,R-CR24B*%
X121102400Y-180291400D03*
X122062400Y-180291400D03*
%TD*%
D14*
%TO.C,R-HER18*%
X125750900Y-155291400D03*
X125750900Y-153391400D03*
X128025900Y-154341400D03*
%TD*%
D147*
%TO.C,R-CR20B*%
X49837573Y-163605078D03*
X50797427Y-163588322D03*
%TD*%
D142*
%TO.C,R-DR7*%
X15101723Y-128587218D03*
X15336375Y-130068750D03*
X20719277Y-129216182D03*
X20484625Y-127734650D03*
%TD*%
D148*
%TO.C,R-DR13*%
X26554523Y-145898818D03*
X26789175Y-147380350D03*
X32172077Y-146527782D03*
X31937425Y-145046250D03*
%TD*%
D149*
%TO.C,R-AMR3*%
X74208425Y-171956840D03*
X74141959Y-170688580D03*
X74075492Y-169420321D03*
X74009025Y-168152061D03*
X73942559Y-166883802D03*
X73876092Y-165615542D03*
X73809625Y-164347283D03*
X73743159Y-163079023D03*
X78686375Y-162819960D03*
X78752841Y-164088220D03*
X78819308Y-165356479D03*
X78885775Y-166624739D03*
X78952241Y-167892998D03*
X79018708Y-169161258D03*
X79085175Y-170429517D03*
X79151641Y-171697777D03*
%TD*%
D13*
%TO.C,R-CRGBR34*%
X140633400Y-177791400D03*
X141593400Y-177791400D03*
%TD*%
D147*
%TO.C,R-CR20A*%
X34641373Y-152039978D03*
X35601227Y-152023222D03*
%TD*%
D85*
%TO.C,R-RBPR5*%
X117557400Y-112216400D03*
X118577400Y-112216400D03*
%TD*%
D129*
%TO.C,R-CR1A*%
X66560158Y-109964622D03*
X67518842Y-109914378D03*
%TD*%
D49*
%TO.C,R-DR10*%
X82730400Y-139891400D03*
X82730400Y-141391400D03*
X88180400Y-141391400D03*
X88180400Y-139891400D03*
%TD*%
%TO.C,R-DR5*%
X126550400Y-120341400D03*
X126550400Y-121841400D03*
X132000400Y-121841400D03*
X132000400Y-120341400D03*
%TD*%
D90*
%TO.C,R-CR35B*%
X66584093Y-200388052D03*
X67543507Y-200354548D03*
%TD*%
D14*
%TO.C,R-HER31*%
X99556900Y-193391400D03*
X99556900Y-191491400D03*
X101831900Y-192441400D03*
%TD*%
D13*
%TO.C,R-CR25A*%
X119808400Y-166491400D03*
X120768400Y-166491400D03*
%TD*%
%TO.C,R-CRGBR23*%
X100152400Y-178741400D03*
X101112400Y-178741400D03*
%TD*%
D150*
%TO.C,MB1*%
X31602020Y-500000D03*
%TD*%
%TO.C,MB2*%
X32352020Y-500000D03*
%TD*%
%TO.C,MB3*%
X33102020Y-500000D03*
%TD*%
%TO.C,MB4*%
X33852020Y-500000D03*
%TD*%
%TO.C,MB5*%
X34602020Y-500000D03*
%TD*%
%TO.C,MB6*%
X31602020Y-103342940D03*
%TD*%
%TO.C,MB7*%
X32352020Y-103342940D03*
%TD*%
%TO.C,MB8*%
X33102020Y-103342940D03*
%TD*%
%TO.C,MB9*%
X33852020Y-103342940D03*
%TD*%
%TO.C,MB10*%
X34602020Y-103342940D03*
%TD*%
%TO.C,MB11*%
X31602020Y-207641970D03*
%TD*%
%TO.C,MB12*%
X32352020Y-207641970D03*
%TD*%
%TO.C,MB13*%
X33102020Y-207641970D03*
%TD*%
%TO.C,MB14*%
X33852020Y-207641970D03*
%TD*%
%TO.C,MB15*%
X34602020Y-207641970D03*
%TD*%
%TO.C,MB16*%
X70992700Y-809140D03*
%TD*%
%TO.C,MB17*%
X71742700Y-809140D03*
%TD*%
%TO.C,MB18*%
X72492700Y-809140D03*
%TD*%
%TO.C,MB19*%
X73242700Y-809140D03*
%TD*%
%TO.C,MB20*%
X73992700Y-809140D03*
%TD*%
%TO.C,MB21*%
X70992700Y-101142440D03*
%TD*%
%TO.C,MB22*%
X71742700Y-101142440D03*
%TD*%
%TO.C,MB23*%
X72492700Y-101142440D03*
%TD*%
%TO.C,MB24*%
X73242700Y-101142440D03*
%TD*%
%TO.C,MB25*%
X73992700Y-101142440D03*
%TD*%
%TO.C,MB26*%
X70992700Y-201475740D03*
%TD*%
%TO.C,MB27*%
X71742700Y-201475740D03*
%TD*%
%TO.C,MB28*%
X72492700Y-201475740D03*
%TD*%
%TO.C,MB29*%
X73242700Y-201475740D03*
%TD*%
%TO.C,MB30*%
X73992700Y-201475740D03*
%TD*%
%TO.C,MB31*%
X104383380Y-4262570D03*
%TD*%
%TO.C,MB32*%
X105133380Y-4262570D03*
%TD*%
%TO.C,MB33*%
X105883380Y-4262570D03*
%TD*%
%TO.C,MB34*%
X106633380Y-4262570D03*
%TD*%
%TO.C,MB35*%
X107383380Y-4262570D03*
%TD*%
%TO.C,MB36*%
X104383380Y-103595830D03*
%TD*%
%TO.C,MB37*%
X105133380Y-103595830D03*
%TD*%
%TO.C,MB38*%
X105883380Y-103595830D03*
%TD*%
%TO.C,MB39*%
X106633380Y-103595830D03*
%TD*%
%TO.C,MB40*%
X107383380Y-103595830D03*
%TD*%
%TO.C,MB41*%
X104383380Y-201471360D03*
%TD*%
%TO.C,MB42*%
X105133380Y-201471360D03*
%TD*%
%TO.C,MB43*%
X105883380Y-201471360D03*
%TD*%
%TO.C,MB44*%
X106633380Y-201471360D03*
%TD*%
%TO.C,MB45*%
X107383380Y-201471360D03*
%TD*%
%TO.C,MB46*%
X-452850Y-51162500D03*
%TD*%
%TO.C,MB47*%
X-452850Y-51912500D03*
%TD*%
%TO.C,MB48*%
X-452850Y-52662500D03*
%TD*%
%TO.C,MB49*%
X-452850Y-53412500D03*
%TD*%
%TO.C,MB50*%
X-452850Y-54162500D03*
%TD*%
%TO.C,MB51*%
X144009760Y-51162500D03*
%TD*%
%TO.C,MB52*%
X144009760Y-51912500D03*
%TD*%
%TO.C,MB53*%
X144009760Y-52662500D03*
%TD*%
%TO.C,MB54*%
X144009760Y-53412500D03*
%TD*%
%TO.C,MB55*%
X144009760Y-54162500D03*
%TD*%
%TO.C,MB56*%
X975640Y-157878900D03*
%TD*%
%TO.C,MB57*%
X975640Y-158628900D03*
%TD*%
%TO.C,MB58*%
X975640Y-159378900D03*
%TD*%
%TO.C,MB59*%
X975640Y-160128900D03*
%TD*%
%TO.C,MB60*%
X975640Y-160878900D03*
%TD*%
%TO.C,MB61*%
X145438250Y-157878900D03*
%TD*%
%TO.C,MB62*%
X145438250Y-158628900D03*
%TD*%
%TO.C,MB63*%
X145438250Y-159378900D03*
%TD*%
%TO.C,MB64*%
X145438250Y-160128900D03*
%TD*%
%TO.C,MB65*%
X145438250Y-160878900D03*
%TD*%
D151*
%TO.C,FID1*%
X-4803000Y4045700D03*
%TD*%
%TO.C,FID2*%
X149788400Y4045700D03*
%TD*%
%TO.C,FID3*%
X-4803000Y-216087100D03*
%TD*%
%TO.C,TH1*%
X-6153000Y-60454140D03*
%TD*%
%TO.C,TH2*%
X151138400Y-60454140D03*
%TD*%
%TO.C,TH3*%
X-6153000Y-151587260D03*
%TD*%
%TO.C,TH4*%
X151138400Y-151587260D03*
%TD*%
M02*
