M48
; DRILL file KiCad 10.0.5 date 2026-09-13T20:06:25
; FORMAT={-:-/ absolute / metric / decimal}
; #@! TF.CreationDate,2026-09-13T20:06:25-04:00
; #@! TF.GenerationSoftware,Kicad,Pcbnew,10.0.5
; #@! TF.FileFunction,Plated,1,2,PTH
FMAT,2
METRIC
; #@! TA.AperFunction,Plated,PTH,ViaDrill
T1C0.300
; #@! TA.AperFunction,Plated,PTH,ComponentDrill
T2C2.200
%
G90
G05
T1
X-1.715Y-160.257
X-1.715Y-161.257
X-1.715Y-163.257
X-1.715Y-165.257
X-1.715Y-167.257
X-1.715Y-168.257
X-1.715Y-169.257
X-1.715Y-171.257
X0.031Y-163.783
X1.285Y-160.257
X1.285Y-161.257
X1.285Y-163.257
X1.285Y-165.257
X1.285Y-167.257
X1.285Y-168.257
X1.285Y-169.257
X1.285Y-171.257
X2.549Y-165.778
X3.189Y-167.644
X3.804Y-162.471
X4.35Y-3.453
X5.028Y-143.985
X5.164Y-81.537
X7.28Y-120.191
X7.391Y-161.865
X14.03Y-195.349
X17.011Y-160.96
X17.816Y-172.653
X18.734Y-67.38
X20.001Y-199.632
X20.528Y-84.01
X20.922Y-182.405
X21.11Y-173.277
X21.197Y-161.197
X22.657Y-74.396
X23.4Y-4.532
X23.589Y-81.013
X23.693Y-147.808
X24.613Y-142.134
X25.865Y-178.175
X25.955Y-170.976
X26.19Y-173.282
X26.655Y-171.544
X27.695Y-6.927
X27.985Y-117.494
X28.126Y-173.446
X28.419Y-16.855
X28.633Y-131.446
X29.993Y-172.979
X30.267Y-142.134
X31.304Y-149.97
X31.6Y-170.964
X31.84Y-64.011
X32.913Y-132.075
X32.996Y-160.694
X33.11Y-63.998
X34.274Y-174.021
X34.38Y-61.004
X34.702Y-91.8
X35.65Y-65.973
X35.841Y-60.799
X37.014Y-178.747
X37.461Y-129.408
X38.19Y-65.974
X38.319Y-134.945
X39.46Y-65.951
X41.243Y-170.355
X41.523Y-172.312
X41.538Y-66.644
X42.45Y-4.532
X42.967Y-176.174
X43.61Y-174.744
X43.65Y-169.44
X44.172Y-140.798
X45.805Y-36.1
X46.138Y-165.153
X46.499Y-139.982
X47.188Y-174.748
X47.832Y-170.099
X47.965Y-63.106
X48.356Y-115.169
X48.443Y-170.877
X48.608Y-86.523
X48.69Y-176.721
X48.85Y-62.781
X48.972Y-171.495
X49.612Y-92.003
X50.549Y-169.29
X50.556Y-176.121
X50.664Y-174.851
X51.463Y-10.32
X52.323Y-59.07
X52.535Y-166.924
X52.709Y-61.523
X53.145Y-72.394
X53.369Y-66.455
X53.88Y-61.418
X54.775Y-120.519
X55.124Y-65.995
X55.8Y-53.241
X56.491Y-42.973
X58.131Y-70.633
X58.946Y-158.968
X59.726Y-64.41
X60.23Y-66.421
X60.642Y-176.121
X60.655Y-179.951
X61.537Y-4.568
X63.299Y-48.581
X64.421Y-36.528
X65.4Y-65.203
X66.137Y-7.271
X66.84Y-117.851
X69.239Y-176.256
X69.918Y-170.251
X71.064Y-168.218
X71.552Y-167.005
X71.691Y-28.09
X73.965Y-70.626
X76.022Y-155.338
X77.46Y-46.81
X77.604Y-163.835
X77.669Y-163.033
X78.245Y-29.501
X80.84Y-173.769
X81.861Y-178.703
X81.944Y-173.773
X82.324Y-33.144
X82.982Y-5.376
X83.033Y-48.018
X83.154Y-174.211
X84.504Y-114.931
X84.65Y-178.703
X85.763Y-7.474
X85.92Y-170.778
X86.201Y-87.299
X86.555Y-170.144
X86.57Y-175.45
X87.84Y-170.953
X88.495Y-179.951
X89.176Y-155.338
X89.609Y-66.76
X89.866Y-24.897
X90.321Y-175.888
X90.433Y-187.926
X90.47Y-65.831
X90.967Y-92.089
X91.008Y-172.861
X91.101Y-73.278
X92.013Y-167.396
X92.38Y-64.997
X92.666Y-73.278
X93.096Y-164.182
X93.274Y-69.933
X93.522Y-120.082
X93.65Y-61.383
X94.92Y-61.997
X95.914Y-70.626
X96.665Y-66.672
X97.46Y-61.998
X98.478Y-30.112
X98.672Y-64.986
X98.718Y-69.964
X99.938Y-182.708
X101.565Y-60.85
X102.739Y-4.683
X103.554Y-114.289
X105.184Y-140.558
X105.755Y-187.926
X106.178Y-173.924
X107.99Y-68.808
X108.12Y-163.979
X108.514Y-144.612
X108.703Y-9.564
X109.496Y-117.149
X110.266Y-164.591
X111.134Y-11.946
X112.553Y-60.652
X113.492Y-75.592
X114.38Y-161.762
X114.952Y-173.927
X115.063Y-112.739
X115.441Y-177.244
X115.905Y-174.956
X116.272Y-162.362
X116.851Y-68.547
X116.92Y-161.759
X117.199Y-163.366
X117.346Y-67.181
X118.0Y-163.644
X118.215Y-119.137
X118.318Y-151.317
X119.02Y-168.417
X119.46Y-166.691
X119.69Y-67.003
X119.829Y-168.529
X120.132Y-58.898
X120.133Y-59.764
X120.14Y-57.703
X120.197Y-69.043
X120.96Y-67.629
X122.069Y-50.062
X122.23Y-71.954
X122.368Y-39.302
X122.818Y-129.643
X123.073Y-170.166
X123.397Y-115.006
X123.428Y-177.211
X123.698Y-166.759
X123.892Y-62.892
X125.125Y-67.003
X126.421Y-67.448
X126.534Y-158.548
X127.294Y-8.177
X127.353Y-117.138
X127.656Y-27.897
X130.85Y-98.542
X131.639Y-120.099
X132.135Y-144.918
X133.236Y-180.762
X134.482Y-196.757
X136.884Y-200.605
X139.145Y-34.373
X143.707Y-62.286
X144.362Y-58.898
X144.884Y-53.899
X144.896Y-56.557
X144.899Y-59.5
X144.903Y-51.899
X144.904Y-57.701
T2
X0.285Y-205.235
X3.285Y-92.477
X4.785Y-9.977
X37.285Y-139.757
X106.209Y-30.0
X138.285Y-131.735
X139.285Y-197.735
X140.785Y-95.977
M30
