%TF.GenerationSoftware,KiCad,Pcbnew,10.0.5*%
%TF.CreationDate,2026-09-13T20:06:24-04:00*%
%TF.ProjectId,Symm60HE-Panel,53796d6d-3630-4484-952d-50616e656c2e,rev?*%
%TF.SameCoordinates,Original*%
%TF.FileFunction,Legend,Top*%
%TF.FilePolarity,Positive*%
%FSLAX46Y46*%
G04 Gerber Fmt 4.6, Leading zero omitted, Abs format (unit mm)*
G04 Created by KiCad (PCBNEW 10.0.5) date 2026-09-13 20:06:24*
%MOMM*%
%LPD*%
G01*
G04 APERTURE LIST*
%ADD10C,0.150000*%
%ADD11C,0.158750*%
%ADD12C,0.200000*%
%ADD13C,4.400000*%
%ADD14C,3.048000*%
%ADD15C,3.987800*%
%ADD16C,0.500000*%
%ADD17C,2.000000*%
G04 APERTURE END LIST*
D10*
X2498985Y-7281819D02*
X2022795Y-7281819D01*
X2022795Y-7281819D02*
X2022795Y-6281819D01*
X2832319Y-6900866D02*
X3594224Y-6900866D01*
X4070414Y-7281819D02*
X4070414Y-6281819D01*
X4070414Y-6281819D02*
X4403747Y-6996104D01*
X4403747Y-6996104D02*
X4737080Y-6281819D01*
X4737080Y-6281819D02*
X4737080Y-7281819D01*
X5213271Y-7281819D02*
X5213271Y-6281819D01*
X5213271Y-6758009D02*
X5784699Y-6758009D01*
X5784699Y-7281819D02*
X5784699Y-6281819D01*
X6737080Y-7281819D02*
X6260890Y-7281819D01*
X6260890Y-7281819D02*
X6260890Y-6281819D01*
X7594223Y-7281819D02*
X7022795Y-7281819D01*
X7308509Y-7281819D02*
X7308509Y-6281819D01*
X7308509Y-6281819D02*
X7213271Y-6424676D01*
X7213271Y-6424676D02*
X7118033Y-6519914D01*
X7118033Y-6519914D02*
X7022795Y-6567533D01*
X103923285Y-27304819D02*
X103447095Y-27304819D01*
X103447095Y-27304819D02*
X103447095Y-26304819D01*
X104256619Y-26923866D02*
X105018524Y-26923866D01*
X105494714Y-27304819D02*
X105494714Y-26304819D01*
X105494714Y-26304819D02*
X105828047Y-27019104D01*
X105828047Y-27019104D02*
X106161380Y-26304819D01*
X106161380Y-26304819D02*
X106161380Y-27304819D01*
X106637571Y-27304819D02*
X106637571Y-26304819D01*
X106637571Y-26781009D02*
X107208999Y-26781009D01*
X107208999Y-27304819D02*
X107208999Y-26304819D01*
X108161380Y-27304819D02*
X107685190Y-27304819D01*
X107685190Y-27304819D02*
X107685190Y-26304819D01*
X108399476Y-26304819D02*
X109018523Y-26304819D01*
X109018523Y-26304819D02*
X108685190Y-26685771D01*
X108685190Y-26685771D02*
X108828047Y-26685771D01*
X108828047Y-26685771D02*
X108923285Y-26733390D01*
X108923285Y-26733390D02*
X108970904Y-26781009D01*
X108970904Y-26781009D02*
X109018523Y-26876247D01*
X109018523Y-26876247D02*
X109018523Y-27114342D01*
X109018523Y-27114342D02*
X108970904Y-27209580D01*
X108970904Y-27209580D02*
X108923285Y-27257200D01*
X108923285Y-27257200D02*
X108828047Y-27304819D01*
X108828047Y-27304819D02*
X108542333Y-27304819D01*
X108542333Y-27304819D02*
X108447095Y-27257200D01*
X108447095Y-27257200D02*
X108399476Y-27209580D01*
D11*
X13599333Y-67254271D02*
X12994571Y-67254271D01*
X12994571Y-67254271D02*
X12994571Y-65984271D01*
X14022666Y-66770461D02*
X14990286Y-66770461D01*
X15534571Y-67193795D02*
X15716000Y-67254271D01*
X15716000Y-67254271D02*
X16018381Y-67254271D01*
X16018381Y-67254271D02*
X16139333Y-67193795D01*
X16139333Y-67193795D02*
X16199809Y-67133318D01*
X16199809Y-67133318D02*
X16260286Y-67012366D01*
X16260286Y-67012366D02*
X16260286Y-66891414D01*
X16260286Y-66891414D02*
X16199809Y-66770461D01*
X16199809Y-66770461D02*
X16139333Y-66709985D01*
X16139333Y-66709985D02*
X16018381Y-66649509D01*
X16018381Y-66649509D02*
X15776476Y-66589033D01*
X15776476Y-66589033D02*
X15655524Y-66528556D01*
X15655524Y-66528556D02*
X15595047Y-66468080D01*
X15595047Y-66468080D02*
X15534571Y-66347128D01*
X15534571Y-66347128D02*
X15534571Y-66226175D01*
X15534571Y-66226175D02*
X15595047Y-66105223D01*
X15595047Y-66105223D02*
X15655524Y-66044747D01*
X15655524Y-66044747D02*
X15776476Y-65984271D01*
X15776476Y-65984271D02*
X16078857Y-65984271D01*
X16078857Y-65984271D02*
X16260286Y-66044747D01*
X17409333Y-67254271D02*
X16804571Y-67254271D01*
X16804571Y-67254271D02*
X16804571Y-65984271D01*
X18497905Y-67254271D02*
X17772190Y-67254271D01*
X18135047Y-67254271D02*
X18135047Y-65984271D01*
X18135047Y-65984271D02*
X18014095Y-66165699D01*
X18014095Y-66165699D02*
X17893143Y-66286652D01*
X17893143Y-66286652D02*
X17772190Y-66347128D01*
D10*
X138499085Y-93281819D02*
X138022895Y-93281819D01*
X138022895Y-93281819D02*
X138022895Y-92281819D01*
X138832419Y-92900866D02*
X139594324Y-92900866D01*
X140070514Y-93281819D02*
X140070514Y-92281819D01*
X140070514Y-92281819D02*
X140403847Y-92996104D01*
X140403847Y-92996104D02*
X140737180Y-92281819D01*
X140737180Y-92281819D02*
X140737180Y-93281819D01*
X141213371Y-93281819D02*
X141213371Y-92281819D01*
X141213371Y-92758009D02*
X141784799Y-92758009D01*
X141784799Y-93281819D02*
X141784799Y-92281819D01*
X142737180Y-93281819D02*
X142260990Y-93281819D01*
X142260990Y-93281819D02*
X142260990Y-92281819D01*
X143499085Y-92615152D02*
X143499085Y-93281819D01*
X143260990Y-92234200D02*
X143022895Y-92948485D01*
X143022895Y-92948485D02*
X143641942Y-92948485D01*
X998985Y-89781819D02*
X522795Y-89781819D01*
X522795Y-89781819D02*
X522795Y-88781819D01*
X1332319Y-89400866D02*
X2094224Y-89400866D01*
X2570414Y-89781819D02*
X2570414Y-88781819D01*
X2570414Y-88781819D02*
X2903747Y-89496104D01*
X2903747Y-89496104D02*
X3237080Y-88781819D01*
X3237080Y-88781819D02*
X3237080Y-89781819D01*
X3713271Y-89781819D02*
X3713271Y-88781819D01*
X3713271Y-89258009D02*
X4284699Y-89258009D01*
X4284699Y-89781819D02*
X4284699Y-88781819D01*
X5237080Y-89781819D02*
X4760890Y-89781819D01*
X4760890Y-89781819D02*
X4760890Y-88781819D01*
X5522795Y-88877057D02*
X5570414Y-88829438D01*
X5570414Y-88829438D02*
X5665652Y-88781819D01*
X5665652Y-88781819D02*
X5903747Y-88781819D01*
X5903747Y-88781819D02*
X5998985Y-88829438D01*
X5998985Y-88829438D02*
X6046604Y-88877057D01*
X6046604Y-88877057D02*
X6094223Y-88972295D01*
X6094223Y-88972295D02*
X6094223Y-89067533D01*
X6094223Y-89067533D02*
X6046604Y-89210390D01*
X6046604Y-89210390D02*
X5475176Y-89781819D01*
X5475176Y-89781819D02*
X6094223Y-89781819D01*
D11*
X120926333Y-89535271D02*
X120321571Y-89535271D01*
X120321571Y-89535271D02*
X120321571Y-88265271D01*
X121349666Y-89051461D02*
X122317286Y-89051461D01*
X122861571Y-89474795D02*
X123043000Y-89535271D01*
X123043000Y-89535271D02*
X123345381Y-89535271D01*
X123345381Y-89535271D02*
X123466333Y-89474795D01*
X123466333Y-89474795D02*
X123526809Y-89414318D01*
X123526809Y-89414318D02*
X123587286Y-89293366D01*
X123587286Y-89293366D02*
X123587286Y-89172414D01*
X123587286Y-89172414D02*
X123526809Y-89051461D01*
X123526809Y-89051461D02*
X123466333Y-88990985D01*
X123466333Y-88990985D02*
X123345381Y-88930509D01*
X123345381Y-88930509D02*
X123103476Y-88870033D01*
X123103476Y-88870033D02*
X122982524Y-88809556D01*
X122982524Y-88809556D02*
X122922047Y-88749080D01*
X122922047Y-88749080D02*
X122861571Y-88628128D01*
X122861571Y-88628128D02*
X122861571Y-88507175D01*
X122861571Y-88507175D02*
X122922047Y-88386223D01*
X122922047Y-88386223D02*
X122982524Y-88325747D01*
X122982524Y-88325747D02*
X123103476Y-88265271D01*
X123103476Y-88265271D02*
X123405857Y-88265271D01*
X123405857Y-88265271D02*
X123587286Y-88325747D01*
X124736333Y-89535271D02*
X124131571Y-89535271D01*
X124131571Y-89535271D02*
X124131571Y-88265271D01*
X125099190Y-88386223D02*
X125159666Y-88325747D01*
X125159666Y-88325747D02*
X125280619Y-88265271D01*
X125280619Y-88265271D02*
X125583000Y-88265271D01*
X125583000Y-88265271D02*
X125703952Y-88325747D01*
X125703952Y-88325747D02*
X125764428Y-88386223D01*
X125764428Y-88386223D02*
X125824905Y-88507175D01*
X125824905Y-88507175D02*
X125824905Y-88628128D01*
X125824905Y-88628128D02*
X125764428Y-88809556D01*
X125764428Y-88809556D02*
X125038714Y-89535271D01*
X125038714Y-89535271D02*
X125824905Y-89535271D01*
X123159081Y-177010871D02*
X122735747Y-176406109D01*
X122433366Y-177010871D02*
X122433366Y-175740871D01*
X122433366Y-175740871D02*
X122917176Y-175740871D01*
X122917176Y-175740871D02*
X123038128Y-175801347D01*
X123038128Y-175801347D02*
X123098605Y-175861823D01*
X123098605Y-175861823D02*
X123159081Y-175982775D01*
X123159081Y-175982775D02*
X123159081Y-176164204D01*
X123159081Y-176164204D02*
X123098605Y-176285156D01*
X123098605Y-176285156D02*
X123038128Y-176345633D01*
X123038128Y-176345633D02*
X122917176Y-176406109D01*
X122917176Y-176406109D02*
X122433366Y-176406109D01*
X123703366Y-176527061D02*
X124670986Y-176527061D01*
X125215271Y-176950395D02*
X125396700Y-177010871D01*
X125396700Y-177010871D02*
X125699081Y-177010871D01*
X125699081Y-177010871D02*
X125820033Y-176950395D01*
X125820033Y-176950395D02*
X125880509Y-176889918D01*
X125880509Y-176889918D02*
X125940986Y-176768966D01*
X125940986Y-176768966D02*
X125940986Y-176648014D01*
X125940986Y-176648014D02*
X125880509Y-176527061D01*
X125880509Y-176527061D02*
X125820033Y-176466585D01*
X125820033Y-176466585D02*
X125699081Y-176406109D01*
X125699081Y-176406109D02*
X125457176Y-176345633D01*
X125457176Y-176345633D02*
X125336224Y-176285156D01*
X125336224Y-176285156D02*
X125275747Y-176224680D01*
X125275747Y-176224680D02*
X125215271Y-176103728D01*
X125215271Y-176103728D02*
X125215271Y-175982775D01*
X125215271Y-175982775D02*
X125275747Y-175861823D01*
X125275747Y-175861823D02*
X125336224Y-175801347D01*
X125336224Y-175801347D02*
X125457176Y-175740871D01*
X125457176Y-175740871D02*
X125759557Y-175740871D01*
X125759557Y-175740871D02*
X125940986Y-175801347D01*
X127210986Y-177010871D02*
X126787652Y-176406109D01*
X126485271Y-177010871D02*
X126485271Y-175740871D01*
X126485271Y-175740871D02*
X126969081Y-175740871D01*
X126969081Y-175740871D02*
X127090033Y-175801347D01*
X127090033Y-175801347D02*
X127150510Y-175861823D01*
X127150510Y-175861823D02*
X127210986Y-175982775D01*
X127210986Y-175982775D02*
X127210986Y-176164204D01*
X127210986Y-176164204D02*
X127150510Y-176285156D01*
X127150510Y-176285156D02*
X127090033Y-176345633D01*
X127090033Y-176345633D02*
X126969081Y-176406109D01*
X126969081Y-176406109D02*
X126485271Y-176406109D01*
X127694795Y-175861823D02*
X127755271Y-175801347D01*
X127755271Y-175801347D02*
X127876224Y-175740871D01*
X127876224Y-175740871D02*
X128178605Y-175740871D01*
X128178605Y-175740871D02*
X128299557Y-175801347D01*
X128299557Y-175801347D02*
X128360033Y-175861823D01*
X128360033Y-175861823D02*
X128420510Y-175982775D01*
X128420510Y-175982775D02*
X128420510Y-176103728D01*
X128420510Y-176103728D02*
X128360033Y-176285156D01*
X128360033Y-176285156D02*
X127634319Y-177010871D01*
X127634319Y-177010871D02*
X128420510Y-177010871D01*
D10*
X136903747Y-195039419D02*
X136570414Y-194563228D01*
X136332319Y-195039419D02*
X136332319Y-194039419D01*
X136332319Y-194039419D02*
X136713271Y-194039419D01*
X136713271Y-194039419D02*
X136808509Y-194087038D01*
X136808509Y-194087038D02*
X136856128Y-194134657D01*
X136856128Y-194134657D02*
X136903747Y-194229895D01*
X136903747Y-194229895D02*
X136903747Y-194372752D01*
X136903747Y-194372752D02*
X136856128Y-194467990D01*
X136856128Y-194467990D02*
X136808509Y-194515609D01*
X136808509Y-194515609D02*
X136713271Y-194563228D01*
X136713271Y-194563228D02*
X136332319Y-194563228D01*
X137332319Y-194658466D02*
X138094224Y-194658466D01*
X138570414Y-195039419D02*
X138570414Y-194039419D01*
X138570414Y-194039419D02*
X138903747Y-194753704D01*
X138903747Y-194753704D02*
X139237080Y-194039419D01*
X139237080Y-194039419D02*
X139237080Y-195039419D01*
X139713271Y-195039419D02*
X139713271Y-194039419D01*
X139713271Y-194515609D02*
X140284699Y-194515609D01*
X140284699Y-195039419D02*
X140284699Y-194039419D01*
X141332318Y-195039419D02*
X140998985Y-194563228D01*
X140760890Y-195039419D02*
X140760890Y-194039419D01*
X140760890Y-194039419D02*
X141141842Y-194039419D01*
X141141842Y-194039419D02*
X141237080Y-194087038D01*
X141237080Y-194087038D02*
X141284699Y-194134657D01*
X141284699Y-194134657D02*
X141332318Y-194229895D01*
X141332318Y-194229895D02*
X141332318Y-194372752D01*
X141332318Y-194372752D02*
X141284699Y-194467990D01*
X141284699Y-194467990D02*
X141237080Y-194515609D01*
X141237080Y-194515609D02*
X141141842Y-194563228D01*
X141141842Y-194563228D02*
X140760890Y-194563228D01*
X142189461Y-194372752D02*
X142189461Y-195039419D01*
X141951366Y-193991800D02*
X141713271Y-194706085D01*
X141713271Y-194706085D02*
X142332318Y-194706085D01*
X34903747Y-137061419D02*
X34570414Y-136585228D01*
X34332319Y-137061419D02*
X34332319Y-136061419D01*
X34332319Y-136061419D02*
X34713271Y-136061419D01*
X34713271Y-136061419D02*
X34808509Y-136109038D01*
X34808509Y-136109038D02*
X34856128Y-136156657D01*
X34856128Y-136156657D02*
X34903747Y-136251895D01*
X34903747Y-136251895D02*
X34903747Y-136394752D01*
X34903747Y-136394752D02*
X34856128Y-136489990D01*
X34856128Y-136489990D02*
X34808509Y-136537609D01*
X34808509Y-136537609D02*
X34713271Y-136585228D01*
X34713271Y-136585228D02*
X34332319Y-136585228D01*
X35332319Y-136680466D02*
X36094224Y-136680466D01*
X36570414Y-137061419D02*
X36570414Y-136061419D01*
X36570414Y-136061419D02*
X36903747Y-136775704D01*
X36903747Y-136775704D02*
X37237080Y-136061419D01*
X37237080Y-136061419D02*
X37237080Y-137061419D01*
X37713271Y-137061419D02*
X37713271Y-136061419D01*
X37713271Y-136537609D02*
X38284699Y-136537609D01*
X38284699Y-137061419D02*
X38284699Y-136061419D01*
X39332318Y-137061419D02*
X38998985Y-136585228D01*
X38760890Y-137061419D02*
X38760890Y-136061419D01*
X38760890Y-136061419D02*
X39141842Y-136061419D01*
X39141842Y-136061419D02*
X39237080Y-136109038D01*
X39237080Y-136109038D02*
X39284699Y-136156657D01*
X39284699Y-136156657D02*
X39332318Y-136251895D01*
X39332318Y-136251895D02*
X39332318Y-136394752D01*
X39332318Y-136394752D02*
X39284699Y-136489990D01*
X39284699Y-136489990D02*
X39237080Y-136537609D01*
X39237080Y-136537609D02*
X39141842Y-136585228D01*
X39141842Y-136585228D02*
X38760890Y-136585228D01*
X40284699Y-137061419D02*
X39713271Y-137061419D01*
X39998985Y-137061419D02*
X39998985Y-136061419D01*
X39998985Y-136061419D02*
X39903747Y-136204276D01*
X39903747Y-136204276D02*
X39808509Y-136299514D01*
X39808509Y-136299514D02*
X39713271Y-136347133D01*
X-2096252Y-202539419D02*
X-2429585Y-202063228D01*
X-2667680Y-202539419D02*
X-2667680Y-201539419D01*
X-2667680Y-201539419D02*
X-2286728Y-201539419D01*
X-2286728Y-201539419D02*
X-2191490Y-201587038D01*
X-2191490Y-201587038D02*
X-2143871Y-201634657D01*
X-2143871Y-201634657D02*
X-2096252Y-201729895D01*
X-2096252Y-201729895D02*
X-2096252Y-201872752D01*
X-2096252Y-201872752D02*
X-2143871Y-201967990D01*
X-2143871Y-201967990D02*
X-2191490Y-202015609D01*
X-2191490Y-202015609D02*
X-2286728Y-202063228D01*
X-2286728Y-202063228D02*
X-2667680Y-202063228D01*
X-1667680Y-202158466D02*
X-905776Y-202158466D01*
X-429585Y-202539419D02*
X-429585Y-201539419D01*
X-429585Y-201539419D02*
X-96252Y-202253704D01*
X-96252Y-202253704D02*
X237080Y-201539419D01*
X237080Y-201539419D02*
X237080Y-202539419D01*
X713271Y-202539419D02*
X713271Y-201539419D01*
X713271Y-202015609D02*
X1284699Y-202015609D01*
X1284699Y-202539419D02*
X1284699Y-201539419D01*
X2332318Y-202539419D02*
X1998985Y-202063228D01*
X1760890Y-202539419D02*
X1760890Y-201539419D01*
X1760890Y-201539419D02*
X2141842Y-201539419D01*
X2141842Y-201539419D02*
X2237080Y-201587038D01*
X2237080Y-201587038D02*
X2284699Y-201634657D01*
X2284699Y-201634657D02*
X2332318Y-201729895D01*
X2332318Y-201729895D02*
X2332318Y-201872752D01*
X2332318Y-201872752D02*
X2284699Y-201967990D01*
X2284699Y-201967990D02*
X2237080Y-202015609D01*
X2237080Y-202015609D02*
X2141842Y-202063228D01*
X2141842Y-202063228D02*
X1760890Y-202063228D01*
X2713271Y-201634657D02*
X2760890Y-201587038D01*
X2760890Y-201587038D02*
X2856128Y-201539419D01*
X2856128Y-201539419D02*
X3094223Y-201539419D01*
X3094223Y-201539419D02*
X3189461Y-201587038D01*
X3189461Y-201587038D02*
X3237080Y-201634657D01*
X3237080Y-201634657D02*
X3284699Y-201729895D01*
X3284699Y-201729895D02*
X3284699Y-201825133D01*
X3284699Y-201825133D02*
X3237080Y-201967990D01*
X3237080Y-201967990D02*
X2665652Y-202539419D01*
X2665652Y-202539419D02*
X3284699Y-202539419D01*
D11*
X15832081Y-199293871D02*
X15408747Y-198689109D01*
X15106366Y-199293871D02*
X15106366Y-198023871D01*
X15106366Y-198023871D02*
X15590176Y-198023871D01*
X15590176Y-198023871D02*
X15711128Y-198084347D01*
X15711128Y-198084347D02*
X15771605Y-198144823D01*
X15771605Y-198144823D02*
X15832081Y-198265775D01*
X15832081Y-198265775D02*
X15832081Y-198447204D01*
X15832081Y-198447204D02*
X15771605Y-198568156D01*
X15771605Y-198568156D02*
X15711128Y-198628633D01*
X15711128Y-198628633D02*
X15590176Y-198689109D01*
X15590176Y-198689109D02*
X15106366Y-198689109D01*
X16376366Y-198810061D02*
X17343986Y-198810061D01*
X17888271Y-199233395D02*
X18069700Y-199293871D01*
X18069700Y-199293871D02*
X18372081Y-199293871D01*
X18372081Y-199293871D02*
X18493033Y-199233395D01*
X18493033Y-199233395D02*
X18553509Y-199172918D01*
X18553509Y-199172918D02*
X18613986Y-199051966D01*
X18613986Y-199051966D02*
X18613986Y-198931014D01*
X18613986Y-198931014D02*
X18553509Y-198810061D01*
X18553509Y-198810061D02*
X18493033Y-198749585D01*
X18493033Y-198749585D02*
X18372081Y-198689109D01*
X18372081Y-198689109D02*
X18130176Y-198628633D01*
X18130176Y-198628633D02*
X18009224Y-198568156D01*
X18009224Y-198568156D02*
X17948747Y-198507680D01*
X17948747Y-198507680D02*
X17888271Y-198386728D01*
X17888271Y-198386728D02*
X17888271Y-198265775D01*
X17888271Y-198265775D02*
X17948747Y-198144823D01*
X17948747Y-198144823D02*
X18009224Y-198084347D01*
X18009224Y-198084347D02*
X18130176Y-198023871D01*
X18130176Y-198023871D02*
X18432557Y-198023871D01*
X18432557Y-198023871D02*
X18613986Y-198084347D01*
X19883986Y-199293871D02*
X19460652Y-198689109D01*
X19158271Y-199293871D02*
X19158271Y-198023871D01*
X19158271Y-198023871D02*
X19642081Y-198023871D01*
X19642081Y-198023871D02*
X19763033Y-198084347D01*
X19763033Y-198084347D02*
X19823510Y-198144823D01*
X19823510Y-198144823D02*
X19883986Y-198265775D01*
X19883986Y-198265775D02*
X19883986Y-198447204D01*
X19883986Y-198447204D02*
X19823510Y-198568156D01*
X19823510Y-198568156D02*
X19763033Y-198628633D01*
X19763033Y-198628633D02*
X19642081Y-198689109D01*
X19642081Y-198689109D02*
X19158271Y-198689109D01*
X20307319Y-198023871D02*
X21093510Y-198023871D01*
X21093510Y-198023871D02*
X20670176Y-198507680D01*
X20670176Y-198507680D02*
X20851605Y-198507680D01*
X20851605Y-198507680D02*
X20972557Y-198568156D01*
X20972557Y-198568156D02*
X21033033Y-198628633D01*
X21033033Y-198628633D02*
X21093510Y-198749585D01*
X21093510Y-198749585D02*
X21093510Y-199051966D01*
X21093510Y-199051966D02*
X21033033Y-199172918D01*
X21033033Y-199172918D02*
X20972557Y-199233395D01*
X20972557Y-199233395D02*
X20851605Y-199293871D01*
X20851605Y-199293871D02*
X20488748Y-199293871D01*
X20488748Y-199293871D02*
X20367795Y-199233395D01*
X20367795Y-199233395D02*
X20307319Y-199172918D01*
D10*
X135903747Y-129039419D02*
X135570414Y-128563228D01*
X135332319Y-129039419D02*
X135332319Y-128039419D01*
X135332319Y-128039419D02*
X135713271Y-128039419D01*
X135713271Y-128039419D02*
X135808509Y-128087038D01*
X135808509Y-128087038D02*
X135856128Y-128134657D01*
X135856128Y-128134657D02*
X135903747Y-128229895D01*
X135903747Y-128229895D02*
X135903747Y-128372752D01*
X135903747Y-128372752D02*
X135856128Y-128467990D01*
X135856128Y-128467990D02*
X135808509Y-128515609D01*
X135808509Y-128515609D02*
X135713271Y-128563228D01*
X135713271Y-128563228D02*
X135332319Y-128563228D01*
X136332319Y-128658466D02*
X137094224Y-128658466D01*
X137570414Y-129039419D02*
X137570414Y-128039419D01*
X137570414Y-128039419D02*
X137903747Y-128753704D01*
X137903747Y-128753704D02*
X138237080Y-128039419D01*
X138237080Y-128039419D02*
X138237080Y-129039419D01*
X138713271Y-129039419D02*
X138713271Y-128039419D01*
X138713271Y-128515609D02*
X139284699Y-128515609D01*
X139284699Y-129039419D02*
X139284699Y-128039419D01*
X140332318Y-129039419D02*
X139998985Y-128563228D01*
X139760890Y-129039419D02*
X139760890Y-128039419D01*
X139760890Y-128039419D02*
X140141842Y-128039419D01*
X140141842Y-128039419D02*
X140237080Y-128087038D01*
X140237080Y-128087038D02*
X140284699Y-128134657D01*
X140284699Y-128134657D02*
X140332318Y-128229895D01*
X140332318Y-128229895D02*
X140332318Y-128372752D01*
X140332318Y-128372752D02*
X140284699Y-128467990D01*
X140284699Y-128467990D02*
X140237080Y-128515609D01*
X140237080Y-128515609D02*
X140141842Y-128563228D01*
X140141842Y-128563228D02*
X139760890Y-128563228D01*
X140665652Y-128039419D02*
X141284699Y-128039419D01*
X141284699Y-128039419D02*
X140951366Y-128420371D01*
X140951366Y-128420371D02*
X141094223Y-128420371D01*
X141094223Y-128420371D02*
X141189461Y-128467990D01*
X141189461Y-128467990D02*
X141237080Y-128515609D01*
X141237080Y-128515609D02*
X141284699Y-128610847D01*
X141284699Y-128610847D02*
X141284699Y-128848942D01*
X141284699Y-128848942D02*
X141237080Y-128944180D01*
X141237080Y-128944180D02*
X141189461Y-128991800D01*
X141189461Y-128991800D02*
X141094223Y-129039419D01*
X141094223Y-129039419D02*
X140808509Y-129039419D01*
X140808509Y-129039419D02*
X140713271Y-128991800D01*
X140713271Y-128991800D02*
X140665652Y-128944180D01*
D11*
X117921081Y-119860871D02*
X117497747Y-119256109D01*
X117195366Y-119860871D02*
X117195366Y-118590871D01*
X117195366Y-118590871D02*
X117679176Y-118590871D01*
X117679176Y-118590871D02*
X117800128Y-118651347D01*
X117800128Y-118651347D02*
X117860605Y-118711823D01*
X117860605Y-118711823D02*
X117921081Y-118832775D01*
X117921081Y-118832775D02*
X117921081Y-119014204D01*
X117921081Y-119014204D02*
X117860605Y-119135156D01*
X117860605Y-119135156D02*
X117800128Y-119195633D01*
X117800128Y-119195633D02*
X117679176Y-119256109D01*
X117679176Y-119256109D02*
X117195366Y-119256109D01*
X118465366Y-119377061D02*
X119432986Y-119377061D01*
X119977271Y-119800395D02*
X120158700Y-119860871D01*
X120158700Y-119860871D02*
X120461081Y-119860871D01*
X120461081Y-119860871D02*
X120582033Y-119800395D01*
X120582033Y-119800395D02*
X120642509Y-119739918D01*
X120642509Y-119739918D02*
X120702986Y-119618966D01*
X120702986Y-119618966D02*
X120702986Y-119498014D01*
X120702986Y-119498014D02*
X120642509Y-119377061D01*
X120642509Y-119377061D02*
X120582033Y-119316585D01*
X120582033Y-119316585D02*
X120461081Y-119256109D01*
X120461081Y-119256109D02*
X120219176Y-119195633D01*
X120219176Y-119195633D02*
X120098224Y-119135156D01*
X120098224Y-119135156D02*
X120037747Y-119074680D01*
X120037747Y-119074680D02*
X119977271Y-118953728D01*
X119977271Y-118953728D02*
X119977271Y-118832775D01*
X119977271Y-118832775D02*
X120037747Y-118711823D01*
X120037747Y-118711823D02*
X120098224Y-118651347D01*
X120098224Y-118651347D02*
X120219176Y-118590871D01*
X120219176Y-118590871D02*
X120521557Y-118590871D01*
X120521557Y-118590871D02*
X120702986Y-118651347D01*
X121972986Y-119860871D02*
X121549652Y-119256109D01*
X121247271Y-119860871D02*
X121247271Y-118590871D01*
X121247271Y-118590871D02*
X121731081Y-118590871D01*
X121731081Y-118590871D02*
X121852033Y-118651347D01*
X121852033Y-118651347D02*
X121912510Y-118711823D01*
X121912510Y-118711823D02*
X121972986Y-118832775D01*
X121972986Y-118832775D02*
X121972986Y-119014204D01*
X121972986Y-119014204D02*
X121912510Y-119135156D01*
X121912510Y-119135156D02*
X121852033Y-119195633D01*
X121852033Y-119195633D02*
X121731081Y-119256109D01*
X121731081Y-119256109D02*
X121247271Y-119256109D01*
X123182510Y-119860871D02*
X122456795Y-119860871D01*
X122819652Y-119860871D02*
X122819652Y-118590871D01*
X122819652Y-118590871D02*
X122698700Y-118772299D01*
X122698700Y-118772299D02*
X122577748Y-118893252D01*
X122577748Y-118893252D02*
X122456795Y-118953728D01*
%TO.C,L-JL1*%
D12*
X146059000Y-49300000D02*
X146059000Y-62700000D01*
X145209000Y-56000000D02*
X145859000Y-55300000D01*
X145209000Y-56000000D02*
X145859000Y-56700000D01*
%TO.C,R-JR1*%
X-2565300Y-172456600D02*
X-2565300Y-159056600D01*
X-1715300Y-165756600D02*
X-2365300Y-166456600D01*
X-1715300Y-165756600D02*
X-2365300Y-165056600D01*
%TD*%
%LPC*%
D13*
%TO.C,L-MHL1*%
X4784700Y-9977000D03*
%TD*%
%TO.C,L-MHL3*%
X106209000Y-30000000D03*
%TD*%
D14*
%TO.C,L-SL1*%
X3809750Y-59690000D03*
D15*
X3809750Y-74930000D03*
D14*
X27622250Y-59690000D03*
D15*
X27622250Y-74930000D03*
%TD*%
D13*
%TO.C,L-MHL4*%
X140784800Y-95977000D03*
%TD*%
%TO.C,L-MHL2*%
X3284700Y-92477000D03*
%TD*%
D14*
%TO.C,L-SL2*%
X110476325Y-83243935D03*
D15*
X112057434Y-98401695D03*
D14*
X134160325Y-80773452D03*
D15*
X135741434Y-95931212D03*
%TD*%
D14*
%TO.C,R-SR2*%
X113490450Y-169446600D03*
D15*
X113490450Y-184686600D03*
D14*
X137302950Y-169446600D03*
D15*
X137302950Y-184686600D03*
%TD*%
D13*
%TO.C,R-MHR4*%
X139284700Y-197734600D03*
%TD*%
%TO.C,R-MHR1*%
X37284700Y-139756600D03*
%TD*%
%TO.C,R-MHR2*%
X284700Y-205234600D03*
%TD*%
D14*
%TO.C,R-SR3*%
X6952375Y-190532052D03*
D15*
X5371266Y-205689812D03*
D14*
X30636375Y-193002535D03*
D15*
X29055266Y-208160295D03*
%TD*%
D13*
%TO.C,R-MHR3*%
X138284700Y-131734600D03*
%TD*%
D14*
%TO.C,R-SR1*%
X108252450Y-112296600D03*
D15*
X108252450Y-127536600D03*
D14*
X132064950Y-112296600D03*
D15*
X132064950Y-127536600D03*
%TD*%
D16*
%TO.C,MB1*%
X27337290Y2000000D03*
%TD*%
%TO.C,MB2*%
X28087290Y2000000D03*
%TD*%
%TO.C,MB3*%
X28837290Y2000000D03*
%TD*%
%TO.C,MB4*%
X29587290Y2000000D03*
%TD*%
%TO.C,MB5*%
X30337290Y2000000D03*
%TD*%
%TO.C,MB6*%
X27337290Y-103470030D03*
%TD*%
%TO.C,MB7*%
X28087290Y-103470030D03*
%TD*%
%TO.C,MB8*%
X28837290Y-103470030D03*
%TD*%
%TO.C,MB9*%
X29587290Y-103470030D03*
%TD*%
%TO.C,MB10*%
X30337290Y-103470030D03*
%TD*%
%TO.C,MB11*%
X27337290Y-212416410D03*
%TD*%
%TO.C,MB12*%
X28087290Y-212416410D03*
%TD*%
%TO.C,MB13*%
X28837290Y-212416410D03*
%TD*%
%TO.C,MB14*%
X29587290Y-212416410D03*
%TD*%
%TO.C,MB15*%
X30337290Y-212416410D03*
%TD*%
%TO.C,MB16*%
X70246850Y1978410D03*
%TD*%
%TO.C,MB17*%
X70996850Y1978410D03*
%TD*%
%TO.C,MB18*%
X71746850Y1978410D03*
%TD*%
%TO.C,MB19*%
X72496850Y1978410D03*
%TD*%
%TO.C,MB20*%
X73246850Y1978410D03*
%TD*%
%TO.C,MB21*%
X70246850Y-102529680D03*
%TD*%
%TO.C,MB22*%
X70996850Y-102529680D03*
%TD*%
%TO.C,MB23*%
X71746850Y-102529680D03*
%TD*%
%TO.C,MB24*%
X72496850Y-102529680D03*
%TD*%
%TO.C,MB25*%
X73246850Y-102529680D03*
%TD*%
%TO.C,MB26*%
X70246850Y-207037770D03*
%TD*%
%TO.C,MB27*%
X70996850Y-207037770D03*
%TD*%
%TO.C,MB28*%
X71746850Y-207037770D03*
%TD*%
%TO.C,MB29*%
X72496850Y-207037770D03*
%TD*%
%TO.C,MB30*%
X73246850Y-207037770D03*
%TD*%
%TO.C,MB31*%
X113156410Y66540D03*
%TD*%
%TO.C,MB32*%
X113906410Y66540D03*
%TD*%
%TO.C,MB33*%
X114656410Y66540D03*
%TD*%
%TO.C,MB34*%
X115406410Y66540D03*
%TD*%
%TO.C,MB35*%
X116156410Y66540D03*
%TD*%
%TO.C,MB36*%
X113156410Y-105208210D03*
%TD*%
%TO.C,MB37*%
X113906410Y-105208210D03*
%TD*%
%TO.C,MB38*%
X114656410Y-105208210D03*
%TD*%
%TO.C,MB39*%
X115406410Y-105208210D03*
%TD*%
%TO.C,MB40*%
X116156410Y-105208210D03*
%TD*%
%TO.C,MB41*%
X113156410Y-207006600D03*
%TD*%
%TO.C,MB42*%
X113906410Y-207006600D03*
%TD*%
%TO.C,MB43*%
X114656410Y-207006600D03*
%TD*%
%TO.C,MB44*%
X115406410Y-207006600D03*
%TD*%
%TO.C,MB45*%
X116156410Y-207006600D03*
%TD*%
%TO.C,MB46*%
X-2952700Y-50367800D03*
%TD*%
%TO.C,MB47*%
X-2952700Y-51117800D03*
%TD*%
%TO.C,MB48*%
X-2952700Y-51867800D03*
%TD*%
%TO.C,MB49*%
X-2952700Y-52617800D03*
%TD*%
%TO.C,MB50*%
X-2952700Y-53367800D03*
%TD*%
%TO.C,MB51*%
X151209000Y-50367800D03*
%TD*%
%TO.C,MB52*%
X151209000Y-51117800D03*
%TD*%
%TO.C,MB53*%
X151209000Y-51867800D03*
%TD*%
%TO.C,MB54*%
X151209000Y-52617800D03*
%TD*%
%TO.C,MB55*%
X151209000Y-53367800D03*
%TD*%
%TO.C,MB56*%
X-7715300Y-160124400D03*
%TD*%
%TO.C,MB57*%
X-7715300Y-160874400D03*
%TD*%
%TO.C,MB58*%
X-7715300Y-161624400D03*
%TD*%
%TO.C,MB59*%
X-7715300Y-162374400D03*
%TD*%
%TO.C,MB60*%
X-7715300Y-163124400D03*
%TD*%
%TO.C,MB61*%
X146446400Y-160124400D03*
%TD*%
%TO.C,MB62*%
X146446400Y-160874400D03*
%TD*%
%TO.C,MB63*%
X146446400Y-161624400D03*
%TD*%
%TO.C,MB64*%
X146446400Y-162374400D03*
%TD*%
%TO.C,MB65*%
X146446400Y-163124400D03*
%TD*%
D17*
%TO.C,TH1*%
X-13415300Y-59963460D03*
%TD*%
%TO.C,TH2*%
X156909000Y-59963460D03*
%TD*%
%TO.C,TH3*%
X-13415300Y-153528740D03*
%TD*%
%TO.C,TH4*%
X156909000Y-153528740D03*
%TD*%
%LPD*%
M02*
