%TF.GenerationSoftware,KiCad,Pcbnew,10.0.5*%
%TF.CreationDate,2026-10-05T15:10:33-04:00*%
%TF.ProjectId,Symm60HE-Panel,53796d6d-3630-4484-952d-50616e656c2e,rev?*%
%TF.SameCoordinates,Original*%
%TF.FileFunction,Legend,Top*%
%TF.FilePolarity,Positive*%
%FSLAX46Y46*%
G04 Gerber Fmt 4.6, Leading zero omitted, Abs format (unit mm)*
G04 Created by KiCad (PCBNEW 10.0.5) date 2026-10-05 15:10:33*
%MOMM*%
%LPD*%
G01*
G04 APERTURE LIST*
%ADD10C,0.150000*%
%ADD11C,0.158750*%
%ADD12C,0.300000*%
%ADD13C,0.200000*%
%ADD14C,2.000000*%
%ADD15C,0.500000*%
%ADD16C,2.200000*%
%ADD17C,3.048000*%
%ADD18C,3.987800*%
G04 APERTURE END LIST*
D10*
X142374046Y-48417319D02*
X142374046Y-47417319D01*
X142374046Y-47417319D02*
X142707379Y-48131604D01*
X142707379Y-48131604D02*
X143040712Y-47417319D01*
X143040712Y-47417319D02*
X143040712Y-48417319D01*
X143850236Y-47893509D02*
X143993093Y-47941128D01*
X143993093Y-47941128D02*
X144040712Y-47988747D01*
X144040712Y-47988747D02*
X144088331Y-48083985D01*
X144088331Y-48083985D02*
X144088331Y-48226842D01*
X144088331Y-48226842D02*
X144040712Y-48322080D01*
X144040712Y-48322080D02*
X143993093Y-48369700D01*
X143993093Y-48369700D02*
X143897855Y-48417319D01*
X143897855Y-48417319D02*
X143516903Y-48417319D01*
X143516903Y-48417319D02*
X143516903Y-47417319D01*
X143516903Y-47417319D02*
X143850236Y-47417319D01*
X143850236Y-47417319D02*
X143945474Y-47464938D01*
X143945474Y-47464938D02*
X143993093Y-47512557D01*
X143993093Y-47512557D02*
X144040712Y-47607795D01*
X144040712Y-47607795D02*
X144040712Y-47703033D01*
X144040712Y-47703033D02*
X143993093Y-47798271D01*
X143993093Y-47798271D02*
X143945474Y-47845890D01*
X143945474Y-47845890D02*
X143850236Y-47893509D01*
X143850236Y-47893509D02*
X143516903Y-47893509D01*
X144993093Y-47417319D02*
X144516903Y-47417319D01*
X144516903Y-47417319D02*
X144469284Y-47893509D01*
X144469284Y-47893509D02*
X144516903Y-47845890D01*
X144516903Y-47845890D02*
X144612141Y-47798271D01*
X144612141Y-47798271D02*
X144850236Y-47798271D01*
X144850236Y-47798271D02*
X144945474Y-47845890D01*
X144945474Y-47845890D02*
X144993093Y-47893509D01*
X144993093Y-47893509D02*
X145040712Y-47988747D01*
X145040712Y-47988747D02*
X145040712Y-48226842D01*
X145040712Y-48226842D02*
X144993093Y-48322080D01*
X144993093Y-48322080D02*
X144945474Y-48369700D01*
X144945474Y-48369700D02*
X144850236Y-48417319D01*
X144850236Y-48417319D02*
X144612141Y-48417319D01*
X144612141Y-48417319D02*
X144516903Y-48369700D01*
X144516903Y-48369700D02*
X144469284Y-48322080D01*
X145993093Y-48417319D02*
X145421665Y-48417319D01*
X145707379Y-48417319D02*
X145707379Y-47417319D01*
X145707379Y-47417319D02*
X145612141Y-47560176D01*
X145612141Y-47560176D02*
X145516903Y-47655414D01*
X145516903Y-47655414D02*
X145421665Y-47703033D01*
X32816306Y-100597759D02*
X32816306Y-99597759D01*
X32816306Y-99597759D02*
X33149639Y-100312044D01*
X33149639Y-100312044D02*
X33482972Y-99597759D01*
X33482972Y-99597759D02*
X33482972Y-100597759D01*
X34292496Y-100073949D02*
X34435353Y-100121568D01*
X34435353Y-100121568D02*
X34482972Y-100169187D01*
X34482972Y-100169187D02*
X34530591Y-100264425D01*
X34530591Y-100264425D02*
X34530591Y-100407282D01*
X34530591Y-100407282D02*
X34482972Y-100502520D01*
X34482972Y-100502520D02*
X34435353Y-100550140D01*
X34435353Y-100550140D02*
X34340115Y-100597759D01*
X34340115Y-100597759D02*
X33959163Y-100597759D01*
X33959163Y-100597759D02*
X33959163Y-99597759D01*
X33959163Y-99597759D02*
X34292496Y-99597759D01*
X34292496Y-99597759D02*
X34387734Y-99645378D01*
X34387734Y-99645378D02*
X34435353Y-99692997D01*
X34435353Y-99692997D02*
X34482972Y-99788235D01*
X34482972Y-99788235D02*
X34482972Y-99883473D01*
X34482972Y-99883473D02*
X34435353Y-99978711D01*
X34435353Y-99978711D02*
X34387734Y-100026330D01*
X34387734Y-100026330D02*
X34292496Y-100073949D01*
X34292496Y-100073949D02*
X33959163Y-100073949D01*
X35482972Y-100597759D02*
X34911544Y-100597759D01*
X35197258Y-100597759D02*
X35197258Y-99597759D01*
X35197258Y-99597759D02*
X35102020Y-99740616D01*
X35102020Y-99740616D02*
X35006782Y-99835854D01*
X35006782Y-99835854D02*
X34911544Y-99883473D01*
X36102020Y-99597759D02*
X36197258Y-99597759D01*
X36197258Y-99597759D02*
X36292496Y-99645378D01*
X36292496Y-99645378D02*
X36340115Y-99692997D01*
X36340115Y-99692997D02*
X36387734Y-99788235D01*
X36387734Y-99788235D02*
X36435353Y-99978711D01*
X36435353Y-99978711D02*
X36435353Y-100216806D01*
X36435353Y-100216806D02*
X36387734Y-100407282D01*
X36387734Y-100407282D02*
X36340115Y-100502520D01*
X36340115Y-100502520D02*
X36292496Y-100550140D01*
X36292496Y-100550140D02*
X36197258Y-100597759D01*
X36197258Y-100597759D02*
X36102020Y-100597759D01*
X36102020Y-100597759D02*
X36006782Y-100550140D01*
X36006782Y-100550140D02*
X35959163Y-100502520D01*
X35959163Y-100502520D02*
X35911544Y-100407282D01*
X35911544Y-100407282D02*
X35863925Y-100216806D01*
X35863925Y-100216806D02*
X35863925Y-99978711D01*
X35863925Y-99978711D02*
X35911544Y-99788235D01*
X35911544Y-99788235D02*
X35959163Y-99692997D01*
X35959163Y-99692997D02*
X36006782Y-99645378D01*
X36006782Y-99645378D02*
X36102020Y-99597759D01*
X25714285Y-19304819D02*
X25238095Y-19304819D01*
X25238095Y-19304819D02*
X25238095Y-18304819D01*
X26047619Y-18923866D02*
X26809524Y-18923866D01*
X27285714Y-19304819D02*
X27285714Y-18304819D01*
X27285714Y-18304819D02*
X27619047Y-19019104D01*
X27619047Y-19019104D02*
X27952380Y-18304819D01*
X27952380Y-18304819D02*
X27952380Y-19304819D01*
X28428571Y-19304819D02*
X28428571Y-18304819D01*
X28428571Y-18781009D02*
X28999999Y-18781009D01*
X28999999Y-19304819D02*
X28999999Y-18304819D01*
X29952380Y-19304819D02*
X29476190Y-19304819D01*
X29476190Y-19304819D02*
X29476190Y-18304819D01*
X30809523Y-19304819D02*
X30238095Y-19304819D01*
X30523809Y-19304819D02*
X30523809Y-18304819D01*
X30523809Y-18304819D02*
X30428571Y-18447676D01*
X30428571Y-18447676D02*
X30333333Y-18542914D01*
X30333333Y-18542914D02*
X30238095Y-18590533D01*
X69206986Y-98397259D02*
X69206986Y-97397259D01*
X69206986Y-97397259D02*
X69540319Y-98111544D01*
X69540319Y-98111544D02*
X69873652Y-97397259D01*
X69873652Y-97397259D02*
X69873652Y-98397259D01*
X70683176Y-97873449D02*
X70826033Y-97921068D01*
X70826033Y-97921068D02*
X70873652Y-97968687D01*
X70873652Y-97968687D02*
X70921271Y-98063925D01*
X70921271Y-98063925D02*
X70921271Y-98206782D01*
X70921271Y-98206782D02*
X70873652Y-98302020D01*
X70873652Y-98302020D02*
X70826033Y-98349640D01*
X70826033Y-98349640D02*
X70730795Y-98397259D01*
X70730795Y-98397259D02*
X70349843Y-98397259D01*
X70349843Y-98397259D02*
X70349843Y-97397259D01*
X70349843Y-97397259D02*
X70683176Y-97397259D01*
X70683176Y-97397259D02*
X70778414Y-97444878D01*
X70778414Y-97444878D02*
X70826033Y-97492497D01*
X70826033Y-97492497D02*
X70873652Y-97587735D01*
X70873652Y-97587735D02*
X70873652Y-97682973D01*
X70873652Y-97682973D02*
X70826033Y-97778211D01*
X70826033Y-97778211D02*
X70778414Y-97825830D01*
X70778414Y-97825830D02*
X70683176Y-97873449D01*
X70683176Y-97873449D02*
X70349843Y-97873449D01*
X71302224Y-97492497D02*
X71349843Y-97444878D01*
X71349843Y-97444878D02*
X71445081Y-97397259D01*
X71445081Y-97397259D02*
X71683176Y-97397259D01*
X71683176Y-97397259D02*
X71778414Y-97444878D01*
X71778414Y-97444878D02*
X71826033Y-97492497D01*
X71826033Y-97492497D02*
X71873652Y-97587735D01*
X71873652Y-97587735D02*
X71873652Y-97682973D01*
X71873652Y-97682973D02*
X71826033Y-97825830D01*
X71826033Y-97825830D02*
X71254605Y-98397259D01*
X71254605Y-98397259D02*
X71873652Y-98397259D01*
X72826033Y-98397259D02*
X72254605Y-98397259D01*
X72540319Y-98397259D02*
X72540319Y-97397259D01*
X72540319Y-97397259D02*
X72445081Y-97540116D01*
X72445081Y-97540116D02*
X72349843Y-97635354D01*
X72349843Y-97635354D02*
X72254605Y-97682973D01*
X69956986Y2086040D02*
X69956986Y3086040D01*
X69956986Y3086040D02*
X70290319Y2371755D01*
X70290319Y2371755D02*
X70623652Y3086040D01*
X70623652Y3086040D02*
X70623652Y2086040D01*
X71433176Y2609850D02*
X71576033Y2562231D01*
X71576033Y2562231D02*
X71623652Y2514612D01*
X71623652Y2514612D02*
X71671271Y2419374D01*
X71671271Y2419374D02*
X71671271Y2276517D01*
X71671271Y2276517D02*
X71623652Y2181279D01*
X71623652Y2181279D02*
X71576033Y2133660D01*
X71576033Y2133660D02*
X71480795Y2086040D01*
X71480795Y2086040D02*
X71099843Y2086040D01*
X71099843Y2086040D02*
X71099843Y3086040D01*
X71099843Y3086040D02*
X71433176Y3086040D01*
X71433176Y3086040D02*
X71528414Y3038421D01*
X71528414Y3038421D02*
X71576033Y2990802D01*
X71576033Y2990802D02*
X71623652Y2895564D01*
X71623652Y2895564D02*
X71623652Y2800326D01*
X71623652Y2800326D02*
X71576033Y2705088D01*
X71576033Y2705088D02*
X71528414Y2657469D01*
X71528414Y2657469D02*
X71433176Y2609850D01*
X71433176Y2609850D02*
X71099843Y2609850D01*
X72623652Y2086040D02*
X72052224Y2086040D01*
X72337938Y2086040D02*
X72337938Y3086040D01*
X72337938Y3086040D02*
X72242700Y2943183D01*
X72242700Y2943183D02*
X72147462Y2847945D01*
X72147462Y2847945D02*
X72052224Y2800326D01*
X72956986Y3086040D02*
X73623652Y3086040D01*
X73623652Y3086040D02*
X73195081Y2086040D01*
X7186447Y-153021219D02*
X6853114Y-152545028D01*
X6615019Y-153021219D02*
X6615019Y-152021219D01*
X6615019Y-152021219D02*
X6995971Y-152021219D01*
X6995971Y-152021219D02*
X7091209Y-152068838D01*
X7091209Y-152068838D02*
X7138828Y-152116457D01*
X7138828Y-152116457D02*
X7186447Y-152211695D01*
X7186447Y-152211695D02*
X7186447Y-152354552D01*
X7186447Y-152354552D02*
X7138828Y-152449790D01*
X7138828Y-152449790D02*
X7091209Y-152497409D01*
X7091209Y-152497409D02*
X6995971Y-152545028D01*
X6995971Y-152545028D02*
X6615019Y-152545028D01*
X7615019Y-152640266D02*
X8376924Y-152640266D01*
X8853114Y-153021219D02*
X8853114Y-152021219D01*
X8853114Y-152021219D02*
X9186447Y-152735504D01*
X9186447Y-152735504D02*
X9519780Y-152021219D01*
X9519780Y-152021219D02*
X9519780Y-153021219D01*
X9995971Y-153021219D02*
X9995971Y-152021219D01*
X9995971Y-152497409D02*
X10567399Y-152497409D01*
X10567399Y-153021219D02*
X10567399Y-152021219D01*
X11615018Y-153021219D02*
X11281685Y-152545028D01*
X11043590Y-153021219D02*
X11043590Y-152021219D01*
X11043590Y-152021219D02*
X11424542Y-152021219D01*
X11424542Y-152021219D02*
X11519780Y-152068838D01*
X11519780Y-152068838D02*
X11567399Y-152116457D01*
X11567399Y-152116457D02*
X11615018Y-152211695D01*
X11615018Y-152211695D02*
X11615018Y-152354552D01*
X11615018Y-152354552D02*
X11567399Y-152449790D01*
X11567399Y-152449790D02*
X11519780Y-152497409D01*
X11519780Y-152497409D02*
X11424542Y-152545028D01*
X11424542Y-152545028D02*
X11043590Y-152545028D01*
X12567399Y-153021219D02*
X11995971Y-153021219D01*
X12281685Y-153021219D02*
X12281685Y-152021219D01*
X12281685Y-152021219D02*
X12186447Y-152164076D01*
X12186447Y-152164076D02*
X12091209Y-152259314D01*
X12091209Y-152259314D02*
X11995971Y-152306933D01*
X142374046Y-50667319D02*
X142374046Y-49667319D01*
X142374046Y-49667319D02*
X142707379Y-50381604D01*
X142707379Y-50381604D02*
X143040712Y-49667319D01*
X143040712Y-49667319D02*
X143040712Y-50667319D01*
X143850236Y-50143509D02*
X143993093Y-50191128D01*
X143993093Y-50191128D02*
X144040712Y-50238747D01*
X144040712Y-50238747D02*
X144088331Y-50333985D01*
X144088331Y-50333985D02*
X144088331Y-50476842D01*
X144088331Y-50476842D02*
X144040712Y-50572080D01*
X144040712Y-50572080D02*
X143993093Y-50619700D01*
X143993093Y-50619700D02*
X143897855Y-50667319D01*
X143897855Y-50667319D02*
X143516903Y-50667319D01*
X143516903Y-50667319D02*
X143516903Y-49667319D01*
X143516903Y-49667319D02*
X143850236Y-49667319D01*
X143850236Y-49667319D02*
X143945474Y-49714938D01*
X143945474Y-49714938D02*
X143993093Y-49762557D01*
X143993093Y-49762557D02*
X144040712Y-49857795D01*
X144040712Y-49857795D02*
X144040712Y-49953033D01*
X144040712Y-49953033D02*
X143993093Y-50048271D01*
X143993093Y-50048271D02*
X143945474Y-50095890D01*
X143945474Y-50095890D02*
X143850236Y-50143509D01*
X143850236Y-50143509D02*
X143516903Y-50143509D01*
X144993093Y-49667319D02*
X144516903Y-49667319D01*
X144516903Y-49667319D02*
X144469284Y-50143509D01*
X144469284Y-50143509D02*
X144516903Y-50095890D01*
X144516903Y-50095890D02*
X144612141Y-50048271D01*
X144612141Y-50048271D02*
X144850236Y-50048271D01*
X144850236Y-50048271D02*
X144945474Y-50095890D01*
X144945474Y-50095890D02*
X144993093Y-50143509D01*
X144993093Y-50143509D02*
X145040712Y-50238747D01*
X145040712Y-50238747D02*
X145040712Y-50476842D01*
X145040712Y-50476842D02*
X144993093Y-50572080D01*
X144993093Y-50572080D02*
X144945474Y-50619700D01*
X144945474Y-50619700D02*
X144850236Y-50667319D01*
X144850236Y-50667319D02*
X144612141Y-50667319D01*
X144612141Y-50667319D02*
X144516903Y-50619700D01*
X144516903Y-50619700D02*
X144469284Y-50572080D01*
X145897855Y-50000652D02*
X145897855Y-50667319D01*
X145659760Y-49619700D02*
X145421665Y-50333985D01*
X145421665Y-50333985D02*
X146040712Y-50333985D01*
X143802536Y-157383719D02*
X143802536Y-156383719D01*
X143802536Y-156383719D02*
X144135869Y-157098004D01*
X144135869Y-157098004D02*
X144469202Y-156383719D01*
X144469202Y-156383719D02*
X144469202Y-157383719D01*
X145278726Y-156859909D02*
X145421583Y-156907528D01*
X145421583Y-156907528D02*
X145469202Y-156955147D01*
X145469202Y-156955147D02*
X145516821Y-157050385D01*
X145516821Y-157050385D02*
X145516821Y-157193242D01*
X145516821Y-157193242D02*
X145469202Y-157288480D01*
X145469202Y-157288480D02*
X145421583Y-157336100D01*
X145421583Y-157336100D02*
X145326345Y-157383719D01*
X145326345Y-157383719D02*
X144945393Y-157383719D01*
X144945393Y-157383719D02*
X144945393Y-156383719D01*
X144945393Y-156383719D02*
X145278726Y-156383719D01*
X145278726Y-156383719D02*
X145373964Y-156431338D01*
X145373964Y-156431338D02*
X145421583Y-156478957D01*
X145421583Y-156478957D02*
X145469202Y-156574195D01*
X145469202Y-156574195D02*
X145469202Y-156669433D01*
X145469202Y-156669433D02*
X145421583Y-156764671D01*
X145421583Y-156764671D02*
X145373964Y-156812290D01*
X145373964Y-156812290D02*
X145278726Y-156859909D01*
X145278726Y-156859909D02*
X144945393Y-156859909D01*
X146373964Y-156383719D02*
X146183488Y-156383719D01*
X146183488Y-156383719D02*
X146088250Y-156431338D01*
X146088250Y-156431338D02*
X146040631Y-156478957D01*
X146040631Y-156478957D02*
X145945393Y-156621814D01*
X145945393Y-156621814D02*
X145897774Y-156812290D01*
X145897774Y-156812290D02*
X145897774Y-157193242D01*
X145897774Y-157193242D02*
X145945393Y-157288480D01*
X145945393Y-157288480D02*
X145993012Y-157336100D01*
X145993012Y-157336100D02*
X146088250Y-157383719D01*
X146088250Y-157383719D02*
X146278726Y-157383719D01*
X146278726Y-157383719D02*
X146373964Y-157336100D01*
X146373964Y-157336100D02*
X146421583Y-157288480D01*
X146421583Y-157288480D02*
X146469202Y-157193242D01*
X146469202Y-157193242D02*
X146469202Y-156955147D01*
X146469202Y-156955147D02*
X146421583Y-156859909D01*
X146421583Y-156859909D02*
X146373964Y-156812290D01*
X146373964Y-156812290D02*
X146278726Y-156764671D01*
X146278726Y-156764671D02*
X146088250Y-156764671D01*
X146088250Y-156764671D02*
X145993012Y-156812290D01*
X145993012Y-156812290D02*
X145945393Y-156859909D01*
X145945393Y-156859909D02*
X145897774Y-156955147D01*
X147326345Y-156717052D02*
X147326345Y-157383719D01*
X147088250Y-156336100D02*
X146850155Y-157050385D01*
X146850155Y-157050385D02*
X147469202Y-157050385D01*
X-2388563Y-49167319D02*
X-2388563Y-48167319D01*
X-2388563Y-48167319D02*
X-2055230Y-48881604D01*
X-2055230Y-48881604D02*
X-1721897Y-48167319D01*
X-1721897Y-48167319D02*
X-1721897Y-49167319D01*
X-912373Y-48643509D02*
X-769516Y-48691128D01*
X-769516Y-48691128D02*
X-721897Y-48738747D01*
X-721897Y-48738747D02*
X-674278Y-48833985D01*
X-674278Y-48833985D02*
X-674278Y-48976842D01*
X-674278Y-48976842D02*
X-721897Y-49072080D01*
X-721897Y-49072080D02*
X-769516Y-49119700D01*
X-769516Y-49119700D02*
X-864754Y-49167319D01*
X-864754Y-49167319D02*
X-1245706Y-49167319D01*
X-1245706Y-49167319D02*
X-1245706Y-48167319D01*
X-1245706Y-48167319D02*
X-912373Y-48167319D01*
X-912373Y-48167319D02*
X-817135Y-48214938D01*
X-817135Y-48214938D02*
X-769516Y-48262557D01*
X-769516Y-48262557D02*
X-721897Y-48357795D01*
X-721897Y-48357795D02*
X-721897Y-48453033D01*
X-721897Y-48453033D02*
X-769516Y-48548271D01*
X-769516Y-48548271D02*
X-817135Y-48595890D01*
X-817135Y-48595890D02*
X-912373Y-48643509D01*
X-912373Y-48643509D02*
X-1245706Y-48643509D01*
X182864Y-48500652D02*
X182864Y-49167319D01*
X-55230Y-48119700D02*
X-293325Y-48833985D01*
X-293325Y-48833985D02*
X325721Y-48833985D01*
X611436Y-48167319D02*
X1278102Y-48167319D01*
X1278102Y-48167319D02*
X849531Y-49167319D01*
X32542496Y-100597759D02*
X32542496Y-99597759D01*
X32542496Y-99597759D02*
X32875829Y-100312044D01*
X32875829Y-100312044D02*
X33209162Y-99597759D01*
X33209162Y-99597759D02*
X33209162Y-100597759D01*
X34018686Y-100073949D02*
X34161543Y-100121568D01*
X34161543Y-100121568D02*
X34209162Y-100169187D01*
X34209162Y-100169187D02*
X34256781Y-100264425D01*
X34256781Y-100264425D02*
X34256781Y-100407282D01*
X34256781Y-100407282D02*
X34209162Y-100502520D01*
X34209162Y-100502520D02*
X34161543Y-100550140D01*
X34161543Y-100550140D02*
X34066305Y-100597759D01*
X34066305Y-100597759D02*
X33685353Y-100597759D01*
X33685353Y-100597759D02*
X33685353Y-99597759D01*
X33685353Y-99597759D02*
X34018686Y-99597759D01*
X34018686Y-99597759D02*
X34113924Y-99645378D01*
X34113924Y-99645378D02*
X34161543Y-99692997D01*
X34161543Y-99692997D02*
X34209162Y-99788235D01*
X34209162Y-99788235D02*
X34209162Y-99883473D01*
X34209162Y-99883473D02*
X34161543Y-99978711D01*
X34161543Y-99978711D02*
X34113924Y-100026330D01*
X34113924Y-100026330D02*
X34018686Y-100073949D01*
X34018686Y-100073949D02*
X33685353Y-100073949D01*
X34732972Y-100597759D02*
X34923448Y-100597759D01*
X34923448Y-100597759D02*
X35018686Y-100550140D01*
X35018686Y-100550140D02*
X35066305Y-100502520D01*
X35066305Y-100502520D02*
X35161543Y-100359663D01*
X35161543Y-100359663D02*
X35209162Y-100169187D01*
X35209162Y-100169187D02*
X35209162Y-99788235D01*
X35209162Y-99788235D02*
X35161543Y-99692997D01*
X35161543Y-99692997D02*
X35113924Y-99645378D01*
X35113924Y-99645378D02*
X35018686Y-99597759D01*
X35018686Y-99597759D02*
X34828210Y-99597759D01*
X34828210Y-99597759D02*
X34732972Y-99645378D01*
X34732972Y-99645378D02*
X34685353Y-99692997D01*
X34685353Y-99692997D02*
X34637734Y-99788235D01*
X34637734Y-99788235D02*
X34637734Y-100026330D01*
X34637734Y-100026330D02*
X34685353Y-100121568D01*
X34685353Y-100121568D02*
X34732972Y-100169187D01*
X34732972Y-100169187D02*
X34828210Y-100216806D01*
X34828210Y-100216806D02*
X35018686Y-100216806D01*
X35018686Y-100216806D02*
X35113924Y-100169187D01*
X35113924Y-100169187D02*
X35161543Y-100121568D01*
X35161543Y-100121568D02*
X35209162Y-100026330D01*
X106347666Y-100969439D02*
X106347666Y-99969439D01*
X106347666Y-99969439D02*
X106680999Y-100683724D01*
X106680999Y-100683724D02*
X107014332Y-99969439D01*
X107014332Y-99969439D02*
X107014332Y-100969439D01*
X107823856Y-100445629D02*
X107966713Y-100493248D01*
X107966713Y-100493248D02*
X108014332Y-100540867D01*
X108014332Y-100540867D02*
X108061951Y-100636105D01*
X108061951Y-100636105D02*
X108061951Y-100778962D01*
X108061951Y-100778962D02*
X108014332Y-100874200D01*
X108014332Y-100874200D02*
X107966713Y-100921820D01*
X107966713Y-100921820D02*
X107871475Y-100969439D01*
X107871475Y-100969439D02*
X107490523Y-100969439D01*
X107490523Y-100969439D02*
X107490523Y-99969439D01*
X107490523Y-99969439D02*
X107823856Y-99969439D01*
X107823856Y-99969439D02*
X107919094Y-100017058D01*
X107919094Y-100017058D02*
X107966713Y-100064677D01*
X107966713Y-100064677D02*
X108014332Y-100159915D01*
X108014332Y-100159915D02*
X108014332Y-100255153D01*
X108014332Y-100255153D02*
X107966713Y-100350391D01*
X107966713Y-100350391D02*
X107919094Y-100398010D01*
X107919094Y-100398010D02*
X107823856Y-100445629D01*
X107823856Y-100445629D02*
X107490523Y-100445629D01*
X108395285Y-99969439D02*
X109014332Y-99969439D01*
X109014332Y-99969439D02*
X108680999Y-100350391D01*
X108680999Y-100350391D02*
X108823856Y-100350391D01*
X108823856Y-100350391D02*
X108919094Y-100398010D01*
X108919094Y-100398010D02*
X108966713Y-100445629D01*
X108966713Y-100445629D02*
X109014332Y-100540867D01*
X109014332Y-100540867D02*
X109014332Y-100778962D01*
X109014332Y-100778962D02*
X108966713Y-100874200D01*
X108966713Y-100874200D02*
X108919094Y-100921820D01*
X108919094Y-100921820D02*
X108823856Y-100969439D01*
X108823856Y-100969439D02*
X108538142Y-100969439D01*
X108538142Y-100969439D02*
X108442904Y-100921820D01*
X108442904Y-100921820D02*
X108395285Y-100874200D01*
X109490523Y-100969439D02*
X109680999Y-100969439D01*
X109680999Y-100969439D02*
X109776237Y-100921820D01*
X109776237Y-100921820D02*
X109823856Y-100874200D01*
X109823856Y-100874200D02*
X109919094Y-100731343D01*
X109919094Y-100731343D02*
X109966713Y-100540867D01*
X109966713Y-100540867D02*
X109966713Y-100159915D01*
X109966713Y-100159915D02*
X109919094Y-100064677D01*
X109919094Y-100064677D02*
X109871475Y-100017058D01*
X109871475Y-100017058D02*
X109776237Y-99969439D01*
X109776237Y-99969439D02*
X109585761Y-99969439D01*
X109585761Y-99969439D02*
X109490523Y-100017058D01*
X109490523Y-100017058D02*
X109442904Y-100064677D01*
X109442904Y-100064677D02*
X109395285Y-100159915D01*
X109395285Y-100159915D02*
X109395285Y-100398010D01*
X109395285Y-100398010D02*
X109442904Y-100493248D01*
X109442904Y-100493248D02*
X109490523Y-100540867D01*
X109490523Y-100540867D02*
X109585761Y-100588486D01*
X109585761Y-100588486D02*
X109776237Y-100588486D01*
X109776237Y-100588486D02*
X109871475Y-100540867D01*
X109871475Y-100540867D02*
X109919094Y-100493248D01*
X109919094Y-100493248D02*
X109966713Y-100398010D01*
D11*
X119412781Y-116820671D02*
X118989447Y-116215909D01*
X118687066Y-116820671D02*
X118687066Y-115550671D01*
X118687066Y-115550671D02*
X119170876Y-115550671D01*
X119170876Y-115550671D02*
X119291828Y-115611147D01*
X119291828Y-115611147D02*
X119352305Y-115671623D01*
X119352305Y-115671623D02*
X119412781Y-115792575D01*
X119412781Y-115792575D02*
X119412781Y-115974004D01*
X119412781Y-115974004D02*
X119352305Y-116094956D01*
X119352305Y-116094956D02*
X119291828Y-116155433D01*
X119291828Y-116155433D02*
X119170876Y-116215909D01*
X119170876Y-116215909D02*
X118687066Y-116215909D01*
X119957066Y-116336861D02*
X120924686Y-116336861D01*
X121468971Y-116760195D02*
X121650400Y-116820671D01*
X121650400Y-116820671D02*
X121952781Y-116820671D01*
X121952781Y-116820671D02*
X122073733Y-116760195D01*
X122073733Y-116760195D02*
X122134209Y-116699718D01*
X122134209Y-116699718D02*
X122194686Y-116578766D01*
X122194686Y-116578766D02*
X122194686Y-116457814D01*
X122194686Y-116457814D02*
X122134209Y-116336861D01*
X122134209Y-116336861D02*
X122073733Y-116276385D01*
X122073733Y-116276385D02*
X121952781Y-116215909D01*
X121952781Y-116215909D02*
X121710876Y-116155433D01*
X121710876Y-116155433D02*
X121589924Y-116094956D01*
X121589924Y-116094956D02*
X121529447Y-116034480D01*
X121529447Y-116034480D02*
X121468971Y-115913528D01*
X121468971Y-115913528D02*
X121468971Y-115792575D01*
X121468971Y-115792575D02*
X121529447Y-115671623D01*
X121529447Y-115671623D02*
X121589924Y-115611147D01*
X121589924Y-115611147D02*
X121710876Y-115550671D01*
X121710876Y-115550671D02*
X122013257Y-115550671D01*
X122013257Y-115550671D02*
X122194686Y-115611147D01*
X123464686Y-116820671D02*
X123041352Y-116215909D01*
X122738971Y-116820671D02*
X122738971Y-115550671D01*
X122738971Y-115550671D02*
X123222781Y-115550671D01*
X123222781Y-115550671D02*
X123343733Y-115611147D01*
X123343733Y-115611147D02*
X123404210Y-115671623D01*
X123404210Y-115671623D02*
X123464686Y-115792575D01*
X123464686Y-115792575D02*
X123464686Y-115974004D01*
X123464686Y-115974004D02*
X123404210Y-116094956D01*
X123404210Y-116094956D02*
X123343733Y-116155433D01*
X123343733Y-116155433D02*
X123222781Y-116215909D01*
X123222781Y-116215909D02*
X122738971Y-116215909D01*
X124674210Y-116820671D02*
X123948495Y-116820671D01*
X124311352Y-116820671D02*
X124311352Y-115550671D01*
X124311352Y-115550671D02*
X124190400Y-115732099D01*
X124190400Y-115732099D02*
X124069448Y-115853052D01*
X124069448Y-115853052D02*
X123948495Y-115913528D01*
D10*
X104847666Y-198875979D02*
X104847666Y-197875979D01*
X104847666Y-197875979D02*
X105180999Y-198590264D01*
X105180999Y-198590264D02*
X105514332Y-197875979D01*
X105514332Y-197875979D02*
X105514332Y-198875979D01*
X106323856Y-198352169D02*
X106466713Y-198399788D01*
X106466713Y-198399788D02*
X106514332Y-198447407D01*
X106514332Y-198447407D02*
X106561951Y-198542645D01*
X106561951Y-198542645D02*
X106561951Y-198685502D01*
X106561951Y-198685502D02*
X106514332Y-198780740D01*
X106514332Y-198780740D02*
X106466713Y-198828360D01*
X106466713Y-198828360D02*
X106371475Y-198875979D01*
X106371475Y-198875979D02*
X105990523Y-198875979D01*
X105990523Y-198875979D02*
X105990523Y-197875979D01*
X105990523Y-197875979D02*
X106323856Y-197875979D01*
X106323856Y-197875979D02*
X106419094Y-197923598D01*
X106419094Y-197923598D02*
X106466713Y-197971217D01*
X106466713Y-197971217D02*
X106514332Y-198066455D01*
X106514332Y-198066455D02*
X106514332Y-198161693D01*
X106514332Y-198161693D02*
X106466713Y-198256931D01*
X106466713Y-198256931D02*
X106419094Y-198304550D01*
X106419094Y-198304550D02*
X106323856Y-198352169D01*
X106323856Y-198352169D02*
X105990523Y-198352169D01*
X107419094Y-198209312D02*
X107419094Y-198875979D01*
X107180999Y-197828360D02*
X106942904Y-198542645D01*
X106942904Y-198542645D02*
X107561951Y-198542645D01*
X107895285Y-197971217D02*
X107942904Y-197923598D01*
X107942904Y-197923598D02*
X108038142Y-197875979D01*
X108038142Y-197875979D02*
X108276237Y-197875979D01*
X108276237Y-197875979D02*
X108371475Y-197923598D01*
X108371475Y-197923598D02*
X108419094Y-197971217D01*
X108419094Y-197971217D02*
X108466713Y-198066455D01*
X108466713Y-198066455D02*
X108466713Y-198161693D01*
X108466713Y-198161693D02*
X108419094Y-198304550D01*
X108419094Y-198304550D02*
X107847666Y-198875979D01*
X107847666Y-198875979D02*
X108466713Y-198875979D01*
X32542496Y2395180D02*
X32542496Y3395180D01*
X32542496Y3395180D02*
X32875829Y2680895D01*
X32875829Y2680895D02*
X33209162Y3395180D01*
X33209162Y3395180D02*
X33209162Y2395180D01*
X34018686Y2918990D02*
X34161543Y2871371D01*
X34161543Y2871371D02*
X34209162Y2823752D01*
X34209162Y2823752D02*
X34256781Y2728514D01*
X34256781Y2728514D02*
X34256781Y2585657D01*
X34256781Y2585657D02*
X34209162Y2490419D01*
X34209162Y2490419D02*
X34161543Y2442800D01*
X34161543Y2442800D02*
X34066305Y2395180D01*
X34066305Y2395180D02*
X33685353Y2395180D01*
X33685353Y2395180D02*
X33685353Y3395180D01*
X33685353Y3395180D02*
X34018686Y3395180D01*
X34018686Y3395180D02*
X34113924Y3347561D01*
X34113924Y3347561D02*
X34161543Y3299942D01*
X34161543Y3299942D02*
X34209162Y3204704D01*
X34209162Y3204704D02*
X34209162Y3109466D01*
X34209162Y3109466D02*
X34161543Y3014228D01*
X34161543Y3014228D02*
X34113924Y2966609D01*
X34113924Y2966609D02*
X34018686Y2918990D01*
X34018686Y2918990D02*
X33685353Y2918990D01*
X35113924Y3061847D02*
X35113924Y2395180D01*
X34875829Y3442800D02*
X34637734Y2728514D01*
X34637734Y2728514D02*
X35256781Y2728514D01*
X104097666Y-1605569D02*
X104097666Y-605569D01*
X104097666Y-605569D02*
X104430999Y-1319854D01*
X104430999Y-1319854D02*
X104764332Y-605569D01*
X104764332Y-605569D02*
X104764332Y-1605569D01*
X105573856Y-1081759D02*
X105716713Y-1129378D01*
X105716713Y-1129378D02*
X105764332Y-1176997D01*
X105764332Y-1176997D02*
X105811951Y-1272235D01*
X105811951Y-1272235D02*
X105811951Y-1415092D01*
X105811951Y-1415092D02*
X105764332Y-1510330D01*
X105764332Y-1510330D02*
X105716713Y-1557950D01*
X105716713Y-1557950D02*
X105621475Y-1605569D01*
X105621475Y-1605569D02*
X105240523Y-1605569D01*
X105240523Y-1605569D02*
X105240523Y-605569D01*
X105240523Y-605569D02*
X105573856Y-605569D01*
X105573856Y-605569D02*
X105669094Y-653188D01*
X105669094Y-653188D02*
X105716713Y-700807D01*
X105716713Y-700807D02*
X105764332Y-796045D01*
X105764332Y-796045D02*
X105764332Y-891283D01*
X105764332Y-891283D02*
X105716713Y-986521D01*
X105716713Y-986521D02*
X105669094Y-1034140D01*
X105669094Y-1034140D02*
X105573856Y-1081759D01*
X105573856Y-1081759D02*
X105240523Y-1081759D01*
X106145285Y-605569D02*
X106764332Y-605569D01*
X106764332Y-605569D02*
X106430999Y-986521D01*
X106430999Y-986521D02*
X106573856Y-986521D01*
X106573856Y-986521D02*
X106669094Y-1034140D01*
X106669094Y-1034140D02*
X106716713Y-1081759D01*
X106716713Y-1081759D02*
X106764332Y-1176997D01*
X106764332Y-1176997D02*
X106764332Y-1415092D01*
X106764332Y-1415092D02*
X106716713Y-1510330D01*
X106716713Y-1510330D02*
X106669094Y-1557950D01*
X106669094Y-1557950D02*
X106573856Y-1605569D01*
X106573856Y-1605569D02*
X106288142Y-1605569D01*
X106288142Y-1605569D02*
X106192904Y-1557950D01*
X106192904Y-1557950D02*
X106145285Y-1510330D01*
X107716713Y-1605569D02*
X107145285Y-1605569D01*
X107430999Y-1605569D02*
X107430999Y-605569D01*
X107430999Y-605569D02*
X107335761Y-748426D01*
X107335761Y-748426D02*
X107240523Y-843664D01*
X107240523Y-843664D02*
X107145285Y-891283D01*
X105597666Y-100969439D02*
X105597666Y-99969439D01*
X105597666Y-99969439D02*
X105930999Y-100683724D01*
X105930999Y-100683724D02*
X106264332Y-99969439D01*
X106264332Y-99969439D02*
X106264332Y-100969439D01*
X107073856Y-100445629D02*
X107216713Y-100493248D01*
X107216713Y-100493248D02*
X107264332Y-100540867D01*
X107264332Y-100540867D02*
X107311951Y-100636105D01*
X107311951Y-100636105D02*
X107311951Y-100778962D01*
X107311951Y-100778962D02*
X107264332Y-100874200D01*
X107264332Y-100874200D02*
X107216713Y-100921820D01*
X107216713Y-100921820D02*
X107121475Y-100969439D01*
X107121475Y-100969439D02*
X106740523Y-100969439D01*
X106740523Y-100969439D02*
X106740523Y-99969439D01*
X106740523Y-99969439D02*
X107073856Y-99969439D01*
X107073856Y-99969439D02*
X107169094Y-100017058D01*
X107169094Y-100017058D02*
X107216713Y-100064677D01*
X107216713Y-100064677D02*
X107264332Y-100159915D01*
X107264332Y-100159915D02*
X107264332Y-100255153D01*
X107264332Y-100255153D02*
X107216713Y-100350391D01*
X107216713Y-100350391D02*
X107169094Y-100398010D01*
X107169094Y-100398010D02*
X107073856Y-100445629D01*
X107073856Y-100445629D02*
X106740523Y-100445629D01*
X107645285Y-99969439D02*
X108264332Y-99969439D01*
X108264332Y-99969439D02*
X107930999Y-100350391D01*
X107930999Y-100350391D02*
X108073856Y-100350391D01*
X108073856Y-100350391D02*
X108169094Y-100398010D01*
X108169094Y-100398010D02*
X108216713Y-100445629D01*
X108216713Y-100445629D02*
X108264332Y-100540867D01*
X108264332Y-100540867D02*
X108264332Y-100778962D01*
X108264332Y-100778962D02*
X108216713Y-100874200D01*
X108216713Y-100874200D02*
X108169094Y-100921820D01*
X108169094Y-100921820D02*
X108073856Y-100969439D01*
X108073856Y-100969439D02*
X107788142Y-100969439D01*
X107788142Y-100969439D02*
X107692904Y-100921820D01*
X107692904Y-100921820D02*
X107645285Y-100874200D01*
X108835761Y-100398010D02*
X108740523Y-100350391D01*
X108740523Y-100350391D02*
X108692904Y-100302772D01*
X108692904Y-100302772D02*
X108645285Y-100207534D01*
X108645285Y-100207534D02*
X108645285Y-100159915D01*
X108645285Y-100159915D02*
X108692904Y-100064677D01*
X108692904Y-100064677D02*
X108740523Y-100017058D01*
X108740523Y-100017058D02*
X108835761Y-99969439D01*
X108835761Y-99969439D02*
X109026237Y-99969439D01*
X109026237Y-99969439D02*
X109121475Y-100017058D01*
X109121475Y-100017058D02*
X109169094Y-100064677D01*
X109169094Y-100064677D02*
X109216713Y-100159915D01*
X109216713Y-100159915D02*
X109216713Y-100207534D01*
X109216713Y-100207534D02*
X109169094Y-100302772D01*
X109169094Y-100302772D02*
X109121475Y-100350391D01*
X109121475Y-100350391D02*
X109026237Y-100398010D01*
X109026237Y-100398010D02*
X108835761Y-100398010D01*
X108835761Y-100398010D02*
X108740523Y-100445629D01*
X108740523Y-100445629D02*
X108692904Y-100493248D01*
X108692904Y-100493248D02*
X108645285Y-100588486D01*
X108645285Y-100588486D02*
X108645285Y-100778962D01*
X108645285Y-100778962D02*
X108692904Y-100874200D01*
X108692904Y-100874200D02*
X108740523Y-100921820D01*
X108740523Y-100921820D02*
X108835761Y-100969439D01*
X108835761Y-100969439D02*
X109026237Y-100969439D01*
X109026237Y-100969439D02*
X109121475Y-100921820D01*
X109121475Y-100921820D02*
X109169094Y-100874200D01*
X109169094Y-100874200D02*
X109216713Y-100778962D01*
X109216713Y-100778962D02*
X109216713Y-100588486D01*
X109216713Y-100588486D02*
X109169094Y-100493248D01*
X109169094Y-100493248D02*
X109121475Y-100445629D01*
X109121475Y-100445629D02*
X109026237Y-100398010D01*
X142374046Y-49167319D02*
X142374046Y-48167319D01*
X142374046Y-48167319D02*
X142707379Y-48881604D01*
X142707379Y-48881604D02*
X143040712Y-48167319D01*
X143040712Y-48167319D02*
X143040712Y-49167319D01*
X143850236Y-48643509D02*
X143993093Y-48691128D01*
X143993093Y-48691128D02*
X144040712Y-48738747D01*
X144040712Y-48738747D02*
X144088331Y-48833985D01*
X144088331Y-48833985D02*
X144088331Y-48976842D01*
X144088331Y-48976842D02*
X144040712Y-49072080D01*
X144040712Y-49072080D02*
X143993093Y-49119700D01*
X143993093Y-49119700D02*
X143897855Y-49167319D01*
X143897855Y-49167319D02*
X143516903Y-49167319D01*
X143516903Y-49167319D02*
X143516903Y-48167319D01*
X143516903Y-48167319D02*
X143850236Y-48167319D01*
X143850236Y-48167319D02*
X143945474Y-48214938D01*
X143945474Y-48214938D02*
X143993093Y-48262557D01*
X143993093Y-48262557D02*
X144040712Y-48357795D01*
X144040712Y-48357795D02*
X144040712Y-48453033D01*
X144040712Y-48453033D02*
X143993093Y-48548271D01*
X143993093Y-48548271D02*
X143945474Y-48595890D01*
X143945474Y-48595890D02*
X143850236Y-48643509D01*
X143850236Y-48643509D02*
X143516903Y-48643509D01*
X144993093Y-48167319D02*
X144516903Y-48167319D01*
X144516903Y-48167319D02*
X144469284Y-48643509D01*
X144469284Y-48643509D02*
X144516903Y-48595890D01*
X144516903Y-48595890D02*
X144612141Y-48548271D01*
X144612141Y-48548271D02*
X144850236Y-48548271D01*
X144850236Y-48548271D02*
X144945474Y-48595890D01*
X144945474Y-48595890D02*
X144993093Y-48643509D01*
X144993093Y-48643509D02*
X145040712Y-48738747D01*
X145040712Y-48738747D02*
X145040712Y-48976842D01*
X145040712Y-48976842D02*
X144993093Y-49072080D01*
X144993093Y-49072080D02*
X144945474Y-49119700D01*
X144945474Y-49119700D02*
X144850236Y-49167319D01*
X144850236Y-49167319D02*
X144612141Y-49167319D01*
X144612141Y-49167319D02*
X144516903Y-49119700D01*
X144516903Y-49119700D02*
X144469284Y-49072080D01*
X145421665Y-48262557D02*
X145469284Y-48214938D01*
X145469284Y-48214938D02*
X145564522Y-48167319D01*
X145564522Y-48167319D02*
X145802617Y-48167319D01*
X145802617Y-48167319D02*
X145897855Y-48214938D01*
X145897855Y-48214938D02*
X145945474Y-48262557D01*
X145945474Y-48262557D02*
X145993093Y-48357795D01*
X145993093Y-48357795D02*
X145993093Y-48453033D01*
X145993093Y-48453033D02*
X145945474Y-48595890D01*
X145945474Y-48595890D02*
X145374046Y-49167319D01*
X145374046Y-49167319D02*
X145993093Y-49167319D01*
X142374046Y-49917319D02*
X142374046Y-48917319D01*
X142374046Y-48917319D02*
X142707379Y-49631604D01*
X142707379Y-49631604D02*
X143040712Y-48917319D01*
X143040712Y-48917319D02*
X143040712Y-49917319D01*
X143850236Y-49393509D02*
X143993093Y-49441128D01*
X143993093Y-49441128D02*
X144040712Y-49488747D01*
X144040712Y-49488747D02*
X144088331Y-49583985D01*
X144088331Y-49583985D02*
X144088331Y-49726842D01*
X144088331Y-49726842D02*
X144040712Y-49822080D01*
X144040712Y-49822080D02*
X143993093Y-49869700D01*
X143993093Y-49869700D02*
X143897855Y-49917319D01*
X143897855Y-49917319D02*
X143516903Y-49917319D01*
X143516903Y-49917319D02*
X143516903Y-48917319D01*
X143516903Y-48917319D02*
X143850236Y-48917319D01*
X143850236Y-48917319D02*
X143945474Y-48964938D01*
X143945474Y-48964938D02*
X143993093Y-49012557D01*
X143993093Y-49012557D02*
X144040712Y-49107795D01*
X144040712Y-49107795D02*
X144040712Y-49203033D01*
X144040712Y-49203033D02*
X143993093Y-49298271D01*
X143993093Y-49298271D02*
X143945474Y-49345890D01*
X143945474Y-49345890D02*
X143850236Y-49393509D01*
X143850236Y-49393509D02*
X143516903Y-49393509D01*
X144993093Y-48917319D02*
X144516903Y-48917319D01*
X144516903Y-48917319D02*
X144469284Y-49393509D01*
X144469284Y-49393509D02*
X144516903Y-49345890D01*
X144516903Y-49345890D02*
X144612141Y-49298271D01*
X144612141Y-49298271D02*
X144850236Y-49298271D01*
X144850236Y-49298271D02*
X144945474Y-49345890D01*
X144945474Y-49345890D02*
X144993093Y-49393509D01*
X144993093Y-49393509D02*
X145040712Y-49488747D01*
X145040712Y-49488747D02*
X145040712Y-49726842D01*
X145040712Y-49726842D02*
X144993093Y-49822080D01*
X144993093Y-49822080D02*
X144945474Y-49869700D01*
X144945474Y-49869700D02*
X144850236Y-49917319D01*
X144850236Y-49917319D02*
X144612141Y-49917319D01*
X144612141Y-49917319D02*
X144516903Y-49869700D01*
X144516903Y-49869700D02*
X144469284Y-49822080D01*
X145374046Y-48917319D02*
X145993093Y-48917319D01*
X145993093Y-48917319D02*
X145659760Y-49298271D01*
X145659760Y-49298271D02*
X145802617Y-49298271D01*
X145802617Y-49298271D02*
X145897855Y-49345890D01*
X145897855Y-49345890D02*
X145945474Y-49393509D01*
X145945474Y-49393509D02*
X145993093Y-49488747D01*
X145993093Y-49488747D02*
X145993093Y-49726842D01*
X145993093Y-49726842D02*
X145945474Y-49822080D01*
X145945474Y-49822080D02*
X145897855Y-49869700D01*
X145897855Y-49869700D02*
X145802617Y-49917319D01*
X145802617Y-49917319D02*
X145516903Y-49917319D01*
X145516903Y-49917319D02*
X145421665Y-49869700D01*
X145421665Y-49869700D02*
X145374046Y-49822080D01*
X142374046Y-51417319D02*
X142374046Y-50417319D01*
X142374046Y-50417319D02*
X142707379Y-51131604D01*
X142707379Y-51131604D02*
X143040712Y-50417319D01*
X143040712Y-50417319D02*
X143040712Y-51417319D01*
X143850236Y-50893509D02*
X143993093Y-50941128D01*
X143993093Y-50941128D02*
X144040712Y-50988747D01*
X144040712Y-50988747D02*
X144088331Y-51083985D01*
X144088331Y-51083985D02*
X144088331Y-51226842D01*
X144088331Y-51226842D02*
X144040712Y-51322080D01*
X144040712Y-51322080D02*
X143993093Y-51369700D01*
X143993093Y-51369700D02*
X143897855Y-51417319D01*
X143897855Y-51417319D02*
X143516903Y-51417319D01*
X143516903Y-51417319D02*
X143516903Y-50417319D01*
X143516903Y-50417319D02*
X143850236Y-50417319D01*
X143850236Y-50417319D02*
X143945474Y-50464938D01*
X143945474Y-50464938D02*
X143993093Y-50512557D01*
X143993093Y-50512557D02*
X144040712Y-50607795D01*
X144040712Y-50607795D02*
X144040712Y-50703033D01*
X144040712Y-50703033D02*
X143993093Y-50798271D01*
X143993093Y-50798271D02*
X143945474Y-50845890D01*
X143945474Y-50845890D02*
X143850236Y-50893509D01*
X143850236Y-50893509D02*
X143516903Y-50893509D01*
X144993093Y-50417319D02*
X144516903Y-50417319D01*
X144516903Y-50417319D02*
X144469284Y-50893509D01*
X144469284Y-50893509D02*
X144516903Y-50845890D01*
X144516903Y-50845890D02*
X144612141Y-50798271D01*
X144612141Y-50798271D02*
X144850236Y-50798271D01*
X144850236Y-50798271D02*
X144945474Y-50845890D01*
X144945474Y-50845890D02*
X144993093Y-50893509D01*
X144993093Y-50893509D02*
X145040712Y-50988747D01*
X145040712Y-50988747D02*
X145040712Y-51226842D01*
X145040712Y-51226842D02*
X144993093Y-51322080D01*
X144993093Y-51322080D02*
X144945474Y-51369700D01*
X144945474Y-51369700D02*
X144850236Y-51417319D01*
X144850236Y-51417319D02*
X144612141Y-51417319D01*
X144612141Y-51417319D02*
X144516903Y-51369700D01*
X144516903Y-51369700D02*
X144469284Y-51322080D01*
X145945474Y-50417319D02*
X145469284Y-50417319D01*
X145469284Y-50417319D02*
X145421665Y-50893509D01*
X145421665Y-50893509D02*
X145469284Y-50845890D01*
X145469284Y-50845890D02*
X145564522Y-50798271D01*
X145564522Y-50798271D02*
X145802617Y-50798271D01*
X145802617Y-50798271D02*
X145897855Y-50845890D01*
X145897855Y-50845890D02*
X145945474Y-50893509D01*
X145945474Y-50893509D02*
X145993093Y-50988747D01*
X145993093Y-50988747D02*
X145993093Y-51226842D01*
X145993093Y-51226842D02*
X145945474Y-51322080D01*
X145945474Y-51322080D02*
X145897855Y-51369700D01*
X145897855Y-51369700D02*
X145802617Y-51417319D01*
X145802617Y-51417319D02*
X145564522Y-51417319D01*
X145564522Y-51417319D02*
X145469284Y-51369700D01*
X145469284Y-51369700D02*
X145421665Y-51322080D01*
X31316306Y-205046789D02*
X31316306Y-204046789D01*
X31316306Y-204046789D02*
X31649639Y-204761074D01*
X31649639Y-204761074D02*
X31982972Y-204046789D01*
X31982972Y-204046789D02*
X31982972Y-205046789D01*
X32792496Y-204522979D02*
X32935353Y-204570598D01*
X32935353Y-204570598D02*
X32982972Y-204618217D01*
X32982972Y-204618217D02*
X33030591Y-204713455D01*
X33030591Y-204713455D02*
X33030591Y-204856312D01*
X33030591Y-204856312D02*
X32982972Y-204951550D01*
X32982972Y-204951550D02*
X32935353Y-204999170D01*
X32935353Y-204999170D02*
X32840115Y-205046789D01*
X32840115Y-205046789D02*
X32459163Y-205046789D01*
X32459163Y-205046789D02*
X32459163Y-204046789D01*
X32459163Y-204046789D02*
X32792496Y-204046789D01*
X32792496Y-204046789D02*
X32887734Y-204094408D01*
X32887734Y-204094408D02*
X32935353Y-204142027D01*
X32935353Y-204142027D02*
X32982972Y-204237265D01*
X32982972Y-204237265D02*
X32982972Y-204332503D01*
X32982972Y-204332503D02*
X32935353Y-204427741D01*
X32935353Y-204427741D02*
X32887734Y-204475360D01*
X32887734Y-204475360D02*
X32792496Y-204522979D01*
X32792496Y-204522979D02*
X32459163Y-204522979D01*
X33982972Y-205046789D02*
X33411544Y-205046789D01*
X33697258Y-205046789D02*
X33697258Y-204046789D01*
X33697258Y-204046789D02*
X33602020Y-204189646D01*
X33602020Y-204189646D02*
X33506782Y-204284884D01*
X33506782Y-204284884D02*
X33411544Y-204332503D01*
X34316306Y-204046789D02*
X34935353Y-204046789D01*
X34935353Y-204046789D02*
X34602020Y-204427741D01*
X34602020Y-204427741D02*
X34744877Y-204427741D01*
X34744877Y-204427741D02*
X34840115Y-204475360D01*
X34840115Y-204475360D02*
X34887734Y-204522979D01*
X34887734Y-204522979D02*
X34935353Y-204618217D01*
X34935353Y-204618217D02*
X34935353Y-204856312D01*
X34935353Y-204856312D02*
X34887734Y-204951550D01*
X34887734Y-204951550D02*
X34840115Y-204999170D01*
X34840115Y-204999170D02*
X34744877Y-205046789D01*
X34744877Y-205046789D02*
X34459163Y-205046789D01*
X34459163Y-205046789D02*
X34363925Y-204999170D01*
X34363925Y-204999170D02*
X34316306Y-204951550D01*
X113186447Y-125021219D02*
X112853114Y-124545028D01*
X112615019Y-125021219D02*
X112615019Y-124021219D01*
X112615019Y-124021219D02*
X112995971Y-124021219D01*
X112995971Y-124021219D02*
X113091209Y-124068838D01*
X113091209Y-124068838D02*
X113138828Y-124116457D01*
X113138828Y-124116457D02*
X113186447Y-124211695D01*
X113186447Y-124211695D02*
X113186447Y-124354552D01*
X113186447Y-124354552D02*
X113138828Y-124449790D01*
X113138828Y-124449790D02*
X113091209Y-124497409D01*
X113091209Y-124497409D02*
X112995971Y-124545028D01*
X112995971Y-124545028D02*
X112615019Y-124545028D01*
X113615019Y-124640266D02*
X114376924Y-124640266D01*
X114853114Y-125021219D02*
X114853114Y-124021219D01*
X114853114Y-124021219D02*
X115186447Y-124735504D01*
X115186447Y-124735504D02*
X115519780Y-124021219D01*
X115519780Y-124021219D02*
X115519780Y-125021219D01*
X115995971Y-125021219D02*
X115995971Y-124021219D01*
X115995971Y-124497409D02*
X116567399Y-124497409D01*
X116567399Y-125021219D02*
X116567399Y-124021219D01*
X117615018Y-125021219D02*
X117281685Y-124545028D01*
X117043590Y-125021219D02*
X117043590Y-124021219D01*
X117043590Y-124021219D02*
X117424542Y-124021219D01*
X117424542Y-124021219D02*
X117519780Y-124068838D01*
X117519780Y-124068838D02*
X117567399Y-124116457D01*
X117567399Y-124116457D02*
X117615018Y-124211695D01*
X117615018Y-124211695D02*
X117615018Y-124354552D01*
X117615018Y-124354552D02*
X117567399Y-124449790D01*
X117567399Y-124449790D02*
X117519780Y-124497409D01*
X117519780Y-124497409D02*
X117424542Y-124545028D01*
X117424542Y-124545028D02*
X117043590Y-124545028D01*
X117948352Y-124021219D02*
X118567399Y-124021219D01*
X118567399Y-124021219D02*
X118234066Y-124402171D01*
X118234066Y-124402171D02*
X118376923Y-124402171D01*
X118376923Y-124402171D02*
X118472161Y-124449790D01*
X118472161Y-124449790D02*
X118519780Y-124497409D01*
X118519780Y-124497409D02*
X118567399Y-124592647D01*
X118567399Y-124592647D02*
X118567399Y-124830742D01*
X118567399Y-124830742D02*
X118519780Y-124925980D01*
X118519780Y-124925980D02*
X118472161Y-124973600D01*
X118472161Y-124973600D02*
X118376923Y-125021219D01*
X118376923Y-125021219D02*
X118091209Y-125021219D01*
X118091209Y-125021219D02*
X117995971Y-124973600D01*
X117995971Y-124973600D02*
X117948352Y-124925980D01*
X69206986Y2086040D02*
X69206986Y3086040D01*
X69206986Y3086040D02*
X69540319Y2371755D01*
X69540319Y2371755D02*
X69873652Y3086040D01*
X69873652Y3086040D02*
X69873652Y2086040D01*
X70683176Y2609850D02*
X70826033Y2562231D01*
X70826033Y2562231D02*
X70873652Y2514612D01*
X70873652Y2514612D02*
X70921271Y2419374D01*
X70921271Y2419374D02*
X70921271Y2276517D01*
X70921271Y2276517D02*
X70873652Y2181279D01*
X70873652Y2181279D02*
X70826033Y2133660D01*
X70826033Y2133660D02*
X70730795Y2086040D01*
X70730795Y2086040D02*
X70349843Y2086040D01*
X70349843Y2086040D02*
X70349843Y3086040D01*
X70349843Y3086040D02*
X70683176Y3086040D01*
X70683176Y3086040D02*
X70778414Y3038421D01*
X70778414Y3038421D02*
X70826033Y2990802D01*
X70826033Y2990802D02*
X70873652Y2895564D01*
X70873652Y2895564D02*
X70873652Y2800326D01*
X70873652Y2800326D02*
X70826033Y2705088D01*
X70826033Y2705088D02*
X70778414Y2657469D01*
X70778414Y2657469D02*
X70683176Y2609850D01*
X70683176Y2609850D02*
X70349843Y2609850D01*
X71873652Y2086040D02*
X71302224Y2086040D01*
X71587938Y2086040D02*
X71587938Y3086040D01*
X71587938Y3086040D02*
X71492700Y2943183D01*
X71492700Y2943183D02*
X71397462Y2847945D01*
X71397462Y2847945D02*
X71302224Y2800326D01*
X72730795Y3086040D02*
X72540319Y3086040D01*
X72540319Y3086040D02*
X72445081Y3038421D01*
X72445081Y3038421D02*
X72397462Y2990802D01*
X72397462Y2990802D02*
X72302224Y2847945D01*
X72302224Y2847945D02*
X72254605Y2657469D01*
X72254605Y2657469D02*
X72254605Y2276517D01*
X72254605Y2276517D02*
X72302224Y2181279D01*
X72302224Y2181279D02*
X72349843Y2133660D01*
X72349843Y2133660D02*
X72445081Y2086040D01*
X72445081Y2086040D02*
X72635557Y2086040D01*
X72635557Y2086040D02*
X72730795Y2133660D01*
X72730795Y2133660D02*
X72778414Y2181279D01*
X72778414Y2181279D02*
X72826033Y2276517D01*
X72826033Y2276517D02*
X72826033Y2514612D01*
X72826033Y2514612D02*
X72778414Y2609850D01*
X72778414Y2609850D02*
X72730795Y2657469D01*
X72730795Y2657469D02*
X72635557Y2705088D01*
X72635557Y2705088D02*
X72445081Y2705088D01*
X72445081Y2705088D02*
X72349843Y2657469D01*
X72349843Y2657469D02*
X72302224Y2609850D01*
X72302224Y2609850D02*
X72254605Y2514612D01*
D11*
X15980333Y-67254271D02*
X15375571Y-67254271D01*
X15375571Y-67254271D02*
X15375571Y-65984271D01*
X16403666Y-66770461D02*
X17371286Y-66770461D01*
X17915571Y-67193795D02*
X18097000Y-67254271D01*
X18097000Y-67254271D02*
X18399381Y-67254271D01*
X18399381Y-67254271D02*
X18520333Y-67193795D01*
X18520333Y-67193795D02*
X18580809Y-67133318D01*
X18580809Y-67133318D02*
X18641286Y-67012366D01*
X18641286Y-67012366D02*
X18641286Y-66891414D01*
X18641286Y-66891414D02*
X18580809Y-66770461D01*
X18580809Y-66770461D02*
X18520333Y-66709985D01*
X18520333Y-66709985D02*
X18399381Y-66649509D01*
X18399381Y-66649509D02*
X18157476Y-66589033D01*
X18157476Y-66589033D02*
X18036524Y-66528556D01*
X18036524Y-66528556D02*
X17976047Y-66468080D01*
X17976047Y-66468080D02*
X17915571Y-66347128D01*
X17915571Y-66347128D02*
X17915571Y-66226175D01*
X17915571Y-66226175D02*
X17976047Y-66105223D01*
X17976047Y-66105223D02*
X18036524Y-66044747D01*
X18036524Y-66044747D02*
X18157476Y-65984271D01*
X18157476Y-65984271D02*
X18459857Y-65984271D01*
X18459857Y-65984271D02*
X18641286Y-66044747D01*
X19790333Y-67254271D02*
X19185571Y-67254271D01*
X19185571Y-67254271D02*
X19185571Y-65984271D01*
X20878905Y-67254271D02*
X20153190Y-67254271D01*
X20516047Y-67254271D02*
X20516047Y-65984271D01*
X20516047Y-65984271D02*
X20395095Y-66165699D01*
X20395095Y-66165699D02*
X20274143Y-66286652D01*
X20274143Y-66286652D02*
X20153190Y-66347128D01*
D10*
X105597666Y-1605569D02*
X105597666Y-605569D01*
X105597666Y-605569D02*
X105930999Y-1319854D01*
X105930999Y-1319854D02*
X106264332Y-605569D01*
X106264332Y-605569D02*
X106264332Y-1605569D01*
X107073856Y-1081759D02*
X107216713Y-1129378D01*
X107216713Y-1129378D02*
X107264332Y-1176997D01*
X107264332Y-1176997D02*
X107311951Y-1272235D01*
X107311951Y-1272235D02*
X107311951Y-1415092D01*
X107311951Y-1415092D02*
X107264332Y-1510330D01*
X107264332Y-1510330D02*
X107216713Y-1557950D01*
X107216713Y-1557950D02*
X107121475Y-1605569D01*
X107121475Y-1605569D02*
X106740523Y-1605569D01*
X106740523Y-1605569D02*
X106740523Y-605569D01*
X106740523Y-605569D02*
X107073856Y-605569D01*
X107073856Y-605569D02*
X107169094Y-653188D01*
X107169094Y-653188D02*
X107216713Y-700807D01*
X107216713Y-700807D02*
X107264332Y-796045D01*
X107264332Y-796045D02*
X107264332Y-891283D01*
X107264332Y-891283D02*
X107216713Y-986521D01*
X107216713Y-986521D02*
X107169094Y-1034140D01*
X107169094Y-1034140D02*
X107073856Y-1081759D01*
X107073856Y-1081759D02*
X106740523Y-1081759D01*
X107645285Y-605569D02*
X108264332Y-605569D01*
X108264332Y-605569D02*
X107930999Y-986521D01*
X107930999Y-986521D02*
X108073856Y-986521D01*
X108073856Y-986521D02*
X108169094Y-1034140D01*
X108169094Y-1034140D02*
X108216713Y-1081759D01*
X108216713Y-1081759D02*
X108264332Y-1176997D01*
X108264332Y-1176997D02*
X108264332Y-1415092D01*
X108264332Y-1415092D02*
X108216713Y-1510330D01*
X108216713Y-1510330D02*
X108169094Y-1557950D01*
X108169094Y-1557950D02*
X108073856Y-1605569D01*
X108073856Y-1605569D02*
X107788142Y-1605569D01*
X107788142Y-1605569D02*
X107692904Y-1557950D01*
X107692904Y-1557950D02*
X107645285Y-1510330D01*
X108597666Y-605569D02*
X109216713Y-605569D01*
X109216713Y-605569D02*
X108883380Y-986521D01*
X108883380Y-986521D02*
X109026237Y-986521D01*
X109026237Y-986521D02*
X109121475Y-1034140D01*
X109121475Y-1034140D02*
X109169094Y-1081759D01*
X109169094Y-1081759D02*
X109216713Y-1176997D01*
X109216713Y-1176997D02*
X109216713Y-1415092D01*
X109216713Y-1415092D02*
X109169094Y-1510330D01*
X109169094Y-1510330D02*
X109121475Y-1557950D01*
X109121475Y-1557950D02*
X109026237Y-1605569D01*
X109026237Y-1605569D02*
X108740523Y-1605569D01*
X108740523Y-1605569D02*
X108645285Y-1557950D01*
X108645285Y-1557950D02*
X108597666Y-1510330D01*
X104097666Y-100969439D02*
X104097666Y-99969439D01*
X104097666Y-99969439D02*
X104430999Y-100683724D01*
X104430999Y-100683724D02*
X104764332Y-99969439D01*
X104764332Y-99969439D02*
X104764332Y-100969439D01*
X105573856Y-100445629D02*
X105716713Y-100493248D01*
X105716713Y-100493248D02*
X105764332Y-100540867D01*
X105764332Y-100540867D02*
X105811951Y-100636105D01*
X105811951Y-100636105D02*
X105811951Y-100778962D01*
X105811951Y-100778962D02*
X105764332Y-100874200D01*
X105764332Y-100874200D02*
X105716713Y-100921820D01*
X105716713Y-100921820D02*
X105621475Y-100969439D01*
X105621475Y-100969439D02*
X105240523Y-100969439D01*
X105240523Y-100969439D02*
X105240523Y-99969439D01*
X105240523Y-99969439D02*
X105573856Y-99969439D01*
X105573856Y-99969439D02*
X105669094Y-100017058D01*
X105669094Y-100017058D02*
X105716713Y-100064677D01*
X105716713Y-100064677D02*
X105764332Y-100159915D01*
X105764332Y-100159915D02*
X105764332Y-100255153D01*
X105764332Y-100255153D02*
X105716713Y-100350391D01*
X105716713Y-100350391D02*
X105669094Y-100398010D01*
X105669094Y-100398010D02*
X105573856Y-100445629D01*
X105573856Y-100445629D02*
X105240523Y-100445629D01*
X106145285Y-99969439D02*
X106764332Y-99969439D01*
X106764332Y-99969439D02*
X106430999Y-100350391D01*
X106430999Y-100350391D02*
X106573856Y-100350391D01*
X106573856Y-100350391D02*
X106669094Y-100398010D01*
X106669094Y-100398010D02*
X106716713Y-100445629D01*
X106716713Y-100445629D02*
X106764332Y-100540867D01*
X106764332Y-100540867D02*
X106764332Y-100778962D01*
X106764332Y-100778962D02*
X106716713Y-100874200D01*
X106716713Y-100874200D02*
X106669094Y-100921820D01*
X106669094Y-100921820D02*
X106573856Y-100969439D01*
X106573856Y-100969439D02*
X106288142Y-100969439D01*
X106288142Y-100969439D02*
X106192904Y-100921820D01*
X106192904Y-100921820D02*
X106145285Y-100874200D01*
X107621475Y-99969439D02*
X107430999Y-99969439D01*
X107430999Y-99969439D02*
X107335761Y-100017058D01*
X107335761Y-100017058D02*
X107288142Y-100064677D01*
X107288142Y-100064677D02*
X107192904Y-100207534D01*
X107192904Y-100207534D02*
X107145285Y-100398010D01*
X107145285Y-100398010D02*
X107145285Y-100778962D01*
X107145285Y-100778962D02*
X107192904Y-100874200D01*
X107192904Y-100874200D02*
X107240523Y-100921820D01*
X107240523Y-100921820D02*
X107335761Y-100969439D01*
X107335761Y-100969439D02*
X107526237Y-100969439D01*
X107526237Y-100969439D02*
X107621475Y-100921820D01*
X107621475Y-100921820D02*
X107669094Y-100874200D01*
X107669094Y-100874200D02*
X107716713Y-100778962D01*
X107716713Y-100778962D02*
X107716713Y-100540867D01*
X107716713Y-100540867D02*
X107669094Y-100445629D01*
X107669094Y-100445629D02*
X107621475Y-100398010D01*
X107621475Y-100398010D02*
X107526237Y-100350391D01*
X107526237Y-100350391D02*
X107335761Y-100350391D01*
X107335761Y-100350391D02*
X107240523Y-100398010D01*
X107240523Y-100398010D02*
X107192904Y-100445629D01*
X107192904Y-100445629D02*
X107145285Y-100540867D01*
X139186447Y-148021219D02*
X138853114Y-147545028D01*
X138615019Y-148021219D02*
X138615019Y-147021219D01*
X138615019Y-147021219D02*
X138995971Y-147021219D01*
X138995971Y-147021219D02*
X139091209Y-147068838D01*
X139091209Y-147068838D02*
X139138828Y-147116457D01*
X139138828Y-147116457D02*
X139186447Y-147211695D01*
X139186447Y-147211695D02*
X139186447Y-147354552D01*
X139186447Y-147354552D02*
X139138828Y-147449790D01*
X139138828Y-147449790D02*
X139091209Y-147497409D01*
X139091209Y-147497409D02*
X138995971Y-147545028D01*
X138995971Y-147545028D02*
X138615019Y-147545028D01*
X139615019Y-147640266D02*
X140376924Y-147640266D01*
X140853114Y-148021219D02*
X140853114Y-147021219D01*
X140853114Y-147021219D02*
X141186447Y-147735504D01*
X141186447Y-147735504D02*
X141519780Y-147021219D01*
X141519780Y-147021219D02*
X141519780Y-148021219D01*
X141995971Y-148021219D02*
X141995971Y-147021219D01*
X141995971Y-147497409D02*
X142567399Y-147497409D01*
X142567399Y-148021219D02*
X142567399Y-147021219D01*
X143615018Y-148021219D02*
X143281685Y-147545028D01*
X143043590Y-148021219D02*
X143043590Y-147021219D01*
X143043590Y-147021219D02*
X143424542Y-147021219D01*
X143424542Y-147021219D02*
X143519780Y-147068838D01*
X143519780Y-147068838D02*
X143567399Y-147116457D01*
X143567399Y-147116457D02*
X143615018Y-147211695D01*
X143615018Y-147211695D02*
X143615018Y-147354552D01*
X143615018Y-147354552D02*
X143567399Y-147449790D01*
X143567399Y-147449790D02*
X143519780Y-147497409D01*
X143519780Y-147497409D02*
X143424542Y-147545028D01*
X143424542Y-147545028D02*
X143043590Y-147545028D01*
X144472161Y-147354552D02*
X144472161Y-148021219D01*
X144234066Y-146973600D02*
X143995971Y-147687885D01*
X143995971Y-147687885D02*
X144615018Y-147687885D01*
X44186447Y-196021219D02*
X43853114Y-195545028D01*
X43615019Y-196021219D02*
X43615019Y-195021219D01*
X43615019Y-195021219D02*
X43995971Y-195021219D01*
X43995971Y-195021219D02*
X44091209Y-195068838D01*
X44091209Y-195068838D02*
X44138828Y-195116457D01*
X44138828Y-195116457D02*
X44186447Y-195211695D01*
X44186447Y-195211695D02*
X44186447Y-195354552D01*
X44186447Y-195354552D02*
X44138828Y-195449790D01*
X44138828Y-195449790D02*
X44091209Y-195497409D01*
X44091209Y-195497409D02*
X43995971Y-195545028D01*
X43995971Y-195545028D02*
X43615019Y-195545028D01*
X44615019Y-195640266D02*
X45376924Y-195640266D01*
X45853114Y-196021219D02*
X45853114Y-195021219D01*
X45853114Y-195021219D02*
X46186447Y-195735504D01*
X46186447Y-195735504D02*
X46519780Y-195021219D01*
X46519780Y-195021219D02*
X46519780Y-196021219D01*
X46995971Y-196021219D02*
X46995971Y-195021219D01*
X46995971Y-195497409D02*
X47567399Y-195497409D01*
X47567399Y-196021219D02*
X47567399Y-195021219D01*
X48615018Y-196021219D02*
X48281685Y-195545028D01*
X48043590Y-196021219D02*
X48043590Y-195021219D01*
X48043590Y-195021219D02*
X48424542Y-195021219D01*
X48424542Y-195021219D02*
X48519780Y-195068838D01*
X48519780Y-195068838D02*
X48567399Y-195116457D01*
X48567399Y-195116457D02*
X48615018Y-195211695D01*
X48615018Y-195211695D02*
X48615018Y-195354552D01*
X48615018Y-195354552D02*
X48567399Y-195449790D01*
X48567399Y-195449790D02*
X48519780Y-195497409D01*
X48519780Y-195497409D02*
X48424542Y-195545028D01*
X48424542Y-195545028D02*
X48043590Y-195545028D01*
X48995971Y-195116457D02*
X49043590Y-195068838D01*
X49043590Y-195068838D02*
X49138828Y-195021219D01*
X49138828Y-195021219D02*
X49376923Y-195021219D01*
X49376923Y-195021219D02*
X49472161Y-195068838D01*
X49472161Y-195068838D02*
X49519780Y-195116457D01*
X49519780Y-195116457D02*
X49567399Y-195211695D01*
X49567399Y-195211695D02*
X49567399Y-195306933D01*
X49567399Y-195306933D02*
X49519780Y-195449790D01*
X49519780Y-195449790D02*
X48948352Y-196021219D01*
X48948352Y-196021219D02*
X49567399Y-196021219D01*
X143802536Y-155133719D02*
X143802536Y-154133719D01*
X143802536Y-154133719D02*
X144135869Y-154848004D01*
X144135869Y-154848004D02*
X144469202Y-154133719D01*
X144469202Y-154133719D02*
X144469202Y-155133719D01*
X145278726Y-154609909D02*
X145421583Y-154657528D01*
X145421583Y-154657528D02*
X145469202Y-154705147D01*
X145469202Y-154705147D02*
X145516821Y-154800385D01*
X145516821Y-154800385D02*
X145516821Y-154943242D01*
X145516821Y-154943242D02*
X145469202Y-155038480D01*
X145469202Y-155038480D02*
X145421583Y-155086100D01*
X145421583Y-155086100D02*
X145326345Y-155133719D01*
X145326345Y-155133719D02*
X144945393Y-155133719D01*
X144945393Y-155133719D02*
X144945393Y-154133719D01*
X144945393Y-154133719D02*
X145278726Y-154133719D01*
X145278726Y-154133719D02*
X145373964Y-154181338D01*
X145373964Y-154181338D02*
X145421583Y-154228957D01*
X145421583Y-154228957D02*
X145469202Y-154324195D01*
X145469202Y-154324195D02*
X145469202Y-154419433D01*
X145469202Y-154419433D02*
X145421583Y-154514671D01*
X145421583Y-154514671D02*
X145373964Y-154562290D01*
X145373964Y-154562290D02*
X145278726Y-154609909D01*
X145278726Y-154609909D02*
X144945393Y-154609909D01*
X146373964Y-154133719D02*
X146183488Y-154133719D01*
X146183488Y-154133719D02*
X146088250Y-154181338D01*
X146088250Y-154181338D02*
X146040631Y-154228957D01*
X146040631Y-154228957D02*
X145945393Y-154371814D01*
X145945393Y-154371814D02*
X145897774Y-154562290D01*
X145897774Y-154562290D02*
X145897774Y-154943242D01*
X145897774Y-154943242D02*
X145945393Y-155038480D01*
X145945393Y-155038480D02*
X145993012Y-155086100D01*
X145993012Y-155086100D02*
X146088250Y-155133719D01*
X146088250Y-155133719D02*
X146278726Y-155133719D01*
X146278726Y-155133719D02*
X146373964Y-155086100D01*
X146373964Y-155086100D02*
X146421583Y-155038480D01*
X146421583Y-155038480D02*
X146469202Y-154943242D01*
X146469202Y-154943242D02*
X146469202Y-154705147D01*
X146469202Y-154705147D02*
X146421583Y-154609909D01*
X146421583Y-154609909D02*
X146373964Y-154562290D01*
X146373964Y-154562290D02*
X146278726Y-154514671D01*
X146278726Y-154514671D02*
X146088250Y-154514671D01*
X146088250Y-154514671D02*
X145993012Y-154562290D01*
X145993012Y-154562290D02*
X145945393Y-154609909D01*
X145945393Y-154609909D02*
X145897774Y-154705147D01*
X147421583Y-155133719D02*
X146850155Y-155133719D01*
X147135869Y-155133719D02*
X147135869Y-154133719D01*
X147135869Y-154133719D02*
X147040631Y-154276576D01*
X147040631Y-154276576D02*
X146945393Y-154371814D01*
X146945393Y-154371814D02*
X146850155Y-154419433D01*
X30292496Y-100597759D02*
X30292496Y-99597759D01*
X30292496Y-99597759D02*
X30625829Y-100312044D01*
X30625829Y-100312044D02*
X30959162Y-99597759D01*
X30959162Y-99597759D02*
X30959162Y-100597759D01*
X31768686Y-100073949D02*
X31911543Y-100121568D01*
X31911543Y-100121568D02*
X31959162Y-100169187D01*
X31959162Y-100169187D02*
X32006781Y-100264425D01*
X32006781Y-100264425D02*
X32006781Y-100407282D01*
X32006781Y-100407282D02*
X31959162Y-100502520D01*
X31959162Y-100502520D02*
X31911543Y-100550140D01*
X31911543Y-100550140D02*
X31816305Y-100597759D01*
X31816305Y-100597759D02*
X31435353Y-100597759D01*
X31435353Y-100597759D02*
X31435353Y-99597759D01*
X31435353Y-99597759D02*
X31768686Y-99597759D01*
X31768686Y-99597759D02*
X31863924Y-99645378D01*
X31863924Y-99645378D02*
X31911543Y-99692997D01*
X31911543Y-99692997D02*
X31959162Y-99788235D01*
X31959162Y-99788235D02*
X31959162Y-99883473D01*
X31959162Y-99883473D02*
X31911543Y-99978711D01*
X31911543Y-99978711D02*
X31863924Y-100026330D01*
X31863924Y-100026330D02*
X31768686Y-100073949D01*
X31768686Y-100073949D02*
X31435353Y-100073949D01*
X32863924Y-99597759D02*
X32673448Y-99597759D01*
X32673448Y-99597759D02*
X32578210Y-99645378D01*
X32578210Y-99645378D02*
X32530591Y-99692997D01*
X32530591Y-99692997D02*
X32435353Y-99835854D01*
X32435353Y-99835854D02*
X32387734Y-100026330D01*
X32387734Y-100026330D02*
X32387734Y-100407282D01*
X32387734Y-100407282D02*
X32435353Y-100502520D01*
X32435353Y-100502520D02*
X32482972Y-100550140D01*
X32482972Y-100550140D02*
X32578210Y-100597759D01*
X32578210Y-100597759D02*
X32768686Y-100597759D01*
X32768686Y-100597759D02*
X32863924Y-100550140D01*
X32863924Y-100550140D02*
X32911543Y-100502520D01*
X32911543Y-100502520D02*
X32959162Y-100407282D01*
X32959162Y-100407282D02*
X32959162Y-100169187D01*
X32959162Y-100169187D02*
X32911543Y-100073949D01*
X32911543Y-100073949D02*
X32863924Y-100026330D01*
X32863924Y-100026330D02*
X32768686Y-99978711D01*
X32768686Y-99978711D02*
X32578210Y-99978711D01*
X32578210Y-99978711D02*
X32482972Y-100026330D01*
X32482972Y-100026330D02*
X32435353Y-100073949D01*
X32435353Y-100073949D02*
X32387734Y-100169187D01*
X107097666Y-1605569D02*
X107097666Y-605569D01*
X107097666Y-605569D02*
X107430999Y-1319854D01*
X107430999Y-1319854D02*
X107764332Y-605569D01*
X107764332Y-605569D02*
X107764332Y-1605569D01*
X108573856Y-1081759D02*
X108716713Y-1129378D01*
X108716713Y-1129378D02*
X108764332Y-1176997D01*
X108764332Y-1176997D02*
X108811951Y-1272235D01*
X108811951Y-1272235D02*
X108811951Y-1415092D01*
X108811951Y-1415092D02*
X108764332Y-1510330D01*
X108764332Y-1510330D02*
X108716713Y-1557950D01*
X108716713Y-1557950D02*
X108621475Y-1605569D01*
X108621475Y-1605569D02*
X108240523Y-1605569D01*
X108240523Y-1605569D02*
X108240523Y-605569D01*
X108240523Y-605569D02*
X108573856Y-605569D01*
X108573856Y-605569D02*
X108669094Y-653188D01*
X108669094Y-653188D02*
X108716713Y-700807D01*
X108716713Y-700807D02*
X108764332Y-796045D01*
X108764332Y-796045D02*
X108764332Y-891283D01*
X108764332Y-891283D02*
X108716713Y-986521D01*
X108716713Y-986521D02*
X108669094Y-1034140D01*
X108669094Y-1034140D02*
X108573856Y-1081759D01*
X108573856Y-1081759D02*
X108240523Y-1081759D01*
X109145285Y-605569D02*
X109764332Y-605569D01*
X109764332Y-605569D02*
X109430999Y-986521D01*
X109430999Y-986521D02*
X109573856Y-986521D01*
X109573856Y-986521D02*
X109669094Y-1034140D01*
X109669094Y-1034140D02*
X109716713Y-1081759D01*
X109716713Y-1081759D02*
X109764332Y-1176997D01*
X109764332Y-1176997D02*
X109764332Y-1415092D01*
X109764332Y-1415092D02*
X109716713Y-1510330D01*
X109716713Y-1510330D02*
X109669094Y-1557950D01*
X109669094Y-1557950D02*
X109573856Y-1605569D01*
X109573856Y-1605569D02*
X109288142Y-1605569D01*
X109288142Y-1605569D02*
X109192904Y-1557950D01*
X109192904Y-1557950D02*
X109145285Y-1510330D01*
X110669094Y-605569D02*
X110192904Y-605569D01*
X110192904Y-605569D02*
X110145285Y-1081759D01*
X110145285Y-1081759D02*
X110192904Y-1034140D01*
X110192904Y-1034140D02*
X110288142Y-986521D01*
X110288142Y-986521D02*
X110526237Y-986521D01*
X110526237Y-986521D02*
X110621475Y-1034140D01*
X110621475Y-1034140D02*
X110669094Y-1081759D01*
X110669094Y-1081759D02*
X110716713Y-1176997D01*
X110716713Y-1176997D02*
X110716713Y-1415092D01*
X110716713Y-1415092D02*
X110669094Y-1510330D01*
X110669094Y-1510330D02*
X110621475Y-1557950D01*
X110621475Y-1557950D02*
X110526237Y-1605569D01*
X110526237Y-1605569D02*
X110288142Y-1605569D01*
X110288142Y-1605569D02*
X110192904Y-1557950D01*
X110192904Y-1557950D02*
X110145285Y-1510330D01*
X-960073Y-157383719D02*
X-960073Y-156383719D01*
X-960073Y-156383719D02*
X-626740Y-157098004D01*
X-626740Y-157098004D02*
X-293407Y-156383719D01*
X-293407Y-156383719D02*
X-293407Y-157383719D01*
X516116Y-156859909D02*
X658973Y-156907528D01*
X658973Y-156907528D02*
X706592Y-156955147D01*
X706592Y-156955147D02*
X754211Y-157050385D01*
X754211Y-157050385D02*
X754211Y-157193242D01*
X754211Y-157193242D02*
X706592Y-157288480D01*
X706592Y-157288480D02*
X658973Y-157336100D01*
X658973Y-157336100D02*
X563735Y-157383719D01*
X563735Y-157383719D02*
X182783Y-157383719D01*
X182783Y-157383719D02*
X182783Y-156383719D01*
X182783Y-156383719D02*
X516116Y-156383719D01*
X516116Y-156383719D02*
X611354Y-156431338D01*
X611354Y-156431338D02*
X658973Y-156478957D01*
X658973Y-156478957D02*
X706592Y-156574195D01*
X706592Y-156574195D02*
X706592Y-156669433D01*
X706592Y-156669433D02*
X658973Y-156764671D01*
X658973Y-156764671D02*
X611354Y-156812290D01*
X611354Y-156812290D02*
X516116Y-156859909D01*
X516116Y-156859909D02*
X182783Y-156859909D01*
X1658973Y-156383719D02*
X1182783Y-156383719D01*
X1182783Y-156383719D02*
X1135164Y-156859909D01*
X1135164Y-156859909D02*
X1182783Y-156812290D01*
X1182783Y-156812290D02*
X1278021Y-156764671D01*
X1278021Y-156764671D02*
X1516116Y-156764671D01*
X1516116Y-156764671D02*
X1611354Y-156812290D01*
X1611354Y-156812290D02*
X1658973Y-156859909D01*
X1658973Y-156859909D02*
X1706592Y-156955147D01*
X1706592Y-156955147D02*
X1706592Y-157193242D01*
X1706592Y-157193242D02*
X1658973Y-157288480D01*
X1658973Y-157288480D02*
X1611354Y-157336100D01*
X1611354Y-157336100D02*
X1516116Y-157383719D01*
X1516116Y-157383719D02*
X1278021Y-157383719D01*
X1278021Y-157383719D02*
X1182783Y-157336100D01*
X1182783Y-157336100D02*
X1135164Y-157288480D01*
X2182783Y-157383719D02*
X2373259Y-157383719D01*
X2373259Y-157383719D02*
X2468497Y-157336100D01*
X2468497Y-157336100D02*
X2516116Y-157288480D01*
X2516116Y-157288480D02*
X2611354Y-157145623D01*
X2611354Y-157145623D02*
X2658973Y-156955147D01*
X2658973Y-156955147D02*
X2658973Y-156574195D01*
X2658973Y-156574195D02*
X2611354Y-156478957D01*
X2611354Y-156478957D02*
X2563735Y-156431338D01*
X2563735Y-156431338D02*
X2468497Y-156383719D01*
X2468497Y-156383719D02*
X2278021Y-156383719D01*
X2278021Y-156383719D02*
X2182783Y-156431338D01*
X2182783Y-156431338D02*
X2135164Y-156478957D01*
X2135164Y-156478957D02*
X2087545Y-156574195D01*
X2087545Y-156574195D02*
X2087545Y-156812290D01*
X2087545Y-156812290D02*
X2135164Y-156907528D01*
X2135164Y-156907528D02*
X2182783Y-156955147D01*
X2182783Y-156955147D02*
X2278021Y-157002766D01*
X2278021Y-157002766D02*
X2468497Y-157002766D01*
X2468497Y-157002766D02*
X2563735Y-156955147D01*
X2563735Y-156955147D02*
X2611354Y-156907528D01*
X2611354Y-156907528D02*
X2658973Y-156812290D01*
X143802536Y-155883719D02*
X143802536Y-154883719D01*
X143802536Y-154883719D02*
X144135869Y-155598004D01*
X144135869Y-155598004D02*
X144469202Y-154883719D01*
X144469202Y-154883719D02*
X144469202Y-155883719D01*
X145278726Y-155359909D02*
X145421583Y-155407528D01*
X145421583Y-155407528D02*
X145469202Y-155455147D01*
X145469202Y-155455147D02*
X145516821Y-155550385D01*
X145516821Y-155550385D02*
X145516821Y-155693242D01*
X145516821Y-155693242D02*
X145469202Y-155788480D01*
X145469202Y-155788480D02*
X145421583Y-155836100D01*
X145421583Y-155836100D02*
X145326345Y-155883719D01*
X145326345Y-155883719D02*
X144945393Y-155883719D01*
X144945393Y-155883719D02*
X144945393Y-154883719D01*
X144945393Y-154883719D02*
X145278726Y-154883719D01*
X145278726Y-154883719D02*
X145373964Y-154931338D01*
X145373964Y-154931338D02*
X145421583Y-154978957D01*
X145421583Y-154978957D02*
X145469202Y-155074195D01*
X145469202Y-155074195D02*
X145469202Y-155169433D01*
X145469202Y-155169433D02*
X145421583Y-155264671D01*
X145421583Y-155264671D02*
X145373964Y-155312290D01*
X145373964Y-155312290D02*
X145278726Y-155359909D01*
X145278726Y-155359909D02*
X144945393Y-155359909D01*
X146373964Y-154883719D02*
X146183488Y-154883719D01*
X146183488Y-154883719D02*
X146088250Y-154931338D01*
X146088250Y-154931338D02*
X146040631Y-154978957D01*
X146040631Y-154978957D02*
X145945393Y-155121814D01*
X145945393Y-155121814D02*
X145897774Y-155312290D01*
X145897774Y-155312290D02*
X145897774Y-155693242D01*
X145897774Y-155693242D02*
X145945393Y-155788480D01*
X145945393Y-155788480D02*
X145993012Y-155836100D01*
X145993012Y-155836100D02*
X146088250Y-155883719D01*
X146088250Y-155883719D02*
X146278726Y-155883719D01*
X146278726Y-155883719D02*
X146373964Y-155836100D01*
X146373964Y-155836100D02*
X146421583Y-155788480D01*
X146421583Y-155788480D02*
X146469202Y-155693242D01*
X146469202Y-155693242D02*
X146469202Y-155455147D01*
X146469202Y-155455147D02*
X146421583Y-155359909D01*
X146421583Y-155359909D02*
X146373964Y-155312290D01*
X146373964Y-155312290D02*
X146278726Y-155264671D01*
X146278726Y-155264671D02*
X146088250Y-155264671D01*
X146088250Y-155264671D02*
X145993012Y-155312290D01*
X145993012Y-155312290D02*
X145945393Y-155359909D01*
X145945393Y-155359909D02*
X145897774Y-155455147D01*
X146850155Y-154978957D02*
X146897774Y-154931338D01*
X146897774Y-154931338D02*
X146993012Y-154883719D01*
X146993012Y-154883719D02*
X147231107Y-154883719D01*
X147231107Y-154883719D02*
X147326345Y-154931338D01*
X147326345Y-154931338D02*
X147373964Y-154978957D01*
X147373964Y-154978957D02*
X147421583Y-155074195D01*
X147421583Y-155074195D02*
X147421583Y-155169433D01*
X147421583Y-155169433D02*
X147373964Y-155312290D01*
X147373964Y-155312290D02*
X146802536Y-155883719D01*
X146802536Y-155883719D02*
X147421583Y-155883719D01*
X69956986Y-198880559D02*
X69956986Y-197880559D01*
X69956986Y-197880559D02*
X70290319Y-198594844D01*
X70290319Y-198594844D02*
X70623652Y-197880559D01*
X70623652Y-197880559D02*
X70623652Y-198880559D01*
X71433176Y-198356749D02*
X71576033Y-198404368D01*
X71576033Y-198404368D02*
X71623652Y-198451987D01*
X71623652Y-198451987D02*
X71671271Y-198547225D01*
X71671271Y-198547225D02*
X71671271Y-198690082D01*
X71671271Y-198690082D02*
X71623652Y-198785320D01*
X71623652Y-198785320D02*
X71576033Y-198832940D01*
X71576033Y-198832940D02*
X71480795Y-198880559D01*
X71480795Y-198880559D02*
X71099843Y-198880559D01*
X71099843Y-198880559D02*
X71099843Y-197880559D01*
X71099843Y-197880559D02*
X71433176Y-197880559D01*
X71433176Y-197880559D02*
X71528414Y-197928178D01*
X71528414Y-197928178D02*
X71576033Y-197975797D01*
X71576033Y-197975797D02*
X71623652Y-198071035D01*
X71623652Y-198071035D02*
X71623652Y-198166273D01*
X71623652Y-198166273D02*
X71576033Y-198261511D01*
X71576033Y-198261511D02*
X71528414Y-198309130D01*
X71528414Y-198309130D02*
X71433176Y-198356749D01*
X71433176Y-198356749D02*
X71099843Y-198356749D01*
X72052224Y-197975797D02*
X72099843Y-197928178D01*
X72099843Y-197928178D02*
X72195081Y-197880559D01*
X72195081Y-197880559D02*
X72433176Y-197880559D01*
X72433176Y-197880559D02*
X72528414Y-197928178D01*
X72528414Y-197928178D02*
X72576033Y-197975797D01*
X72576033Y-197975797D02*
X72623652Y-198071035D01*
X72623652Y-198071035D02*
X72623652Y-198166273D01*
X72623652Y-198166273D02*
X72576033Y-198309130D01*
X72576033Y-198309130D02*
X72004605Y-198880559D01*
X72004605Y-198880559D02*
X72623652Y-198880559D01*
X72956986Y-197880559D02*
X73623652Y-197880559D01*
X73623652Y-197880559D02*
X73195081Y-198880559D01*
D11*
X124650781Y-173970671D02*
X124227447Y-173365909D01*
X123925066Y-173970671D02*
X123925066Y-172700671D01*
X123925066Y-172700671D02*
X124408876Y-172700671D01*
X124408876Y-172700671D02*
X124529828Y-172761147D01*
X124529828Y-172761147D02*
X124590305Y-172821623D01*
X124590305Y-172821623D02*
X124650781Y-172942575D01*
X124650781Y-172942575D02*
X124650781Y-173124004D01*
X124650781Y-173124004D02*
X124590305Y-173244956D01*
X124590305Y-173244956D02*
X124529828Y-173305433D01*
X124529828Y-173305433D02*
X124408876Y-173365909D01*
X124408876Y-173365909D02*
X123925066Y-173365909D01*
X125195066Y-173486861D02*
X126162686Y-173486861D01*
X126706971Y-173910195D02*
X126888400Y-173970671D01*
X126888400Y-173970671D02*
X127190781Y-173970671D01*
X127190781Y-173970671D02*
X127311733Y-173910195D01*
X127311733Y-173910195D02*
X127372209Y-173849718D01*
X127372209Y-173849718D02*
X127432686Y-173728766D01*
X127432686Y-173728766D02*
X127432686Y-173607814D01*
X127432686Y-173607814D02*
X127372209Y-173486861D01*
X127372209Y-173486861D02*
X127311733Y-173426385D01*
X127311733Y-173426385D02*
X127190781Y-173365909D01*
X127190781Y-173365909D02*
X126948876Y-173305433D01*
X126948876Y-173305433D02*
X126827924Y-173244956D01*
X126827924Y-173244956D02*
X126767447Y-173184480D01*
X126767447Y-173184480D02*
X126706971Y-173063528D01*
X126706971Y-173063528D02*
X126706971Y-172942575D01*
X126706971Y-172942575D02*
X126767447Y-172821623D01*
X126767447Y-172821623D02*
X126827924Y-172761147D01*
X126827924Y-172761147D02*
X126948876Y-172700671D01*
X126948876Y-172700671D02*
X127251257Y-172700671D01*
X127251257Y-172700671D02*
X127432686Y-172761147D01*
X128702686Y-173970671D02*
X128279352Y-173365909D01*
X127976971Y-173970671D02*
X127976971Y-172700671D01*
X127976971Y-172700671D02*
X128460781Y-172700671D01*
X128460781Y-172700671D02*
X128581733Y-172761147D01*
X128581733Y-172761147D02*
X128642210Y-172821623D01*
X128642210Y-172821623D02*
X128702686Y-172942575D01*
X128702686Y-172942575D02*
X128702686Y-173124004D01*
X128702686Y-173124004D02*
X128642210Y-173244956D01*
X128642210Y-173244956D02*
X128581733Y-173305433D01*
X128581733Y-173305433D02*
X128460781Y-173365909D01*
X128460781Y-173365909D02*
X127976971Y-173365909D01*
X129186495Y-172821623D02*
X129246971Y-172761147D01*
X129246971Y-172761147D02*
X129367924Y-172700671D01*
X129367924Y-172700671D02*
X129670305Y-172700671D01*
X129670305Y-172700671D02*
X129791257Y-172761147D01*
X129791257Y-172761147D02*
X129851733Y-172821623D01*
X129851733Y-172821623D02*
X129912210Y-172942575D01*
X129912210Y-172942575D02*
X129912210Y-173063528D01*
X129912210Y-173063528D02*
X129851733Y-173244956D01*
X129851733Y-173244956D02*
X129126019Y-173970671D01*
X129126019Y-173970671D02*
X129912210Y-173970671D01*
D10*
X97714285Y-89304819D02*
X97238095Y-89304819D01*
X97238095Y-89304819D02*
X97238095Y-88304819D01*
X98047619Y-88923866D02*
X98809524Y-88923866D01*
X99285714Y-89304819D02*
X99285714Y-88304819D01*
X99285714Y-88304819D02*
X99619047Y-89019104D01*
X99619047Y-89019104D02*
X99952380Y-88304819D01*
X99952380Y-88304819D02*
X99952380Y-89304819D01*
X100428571Y-89304819D02*
X100428571Y-88304819D01*
X100428571Y-88781009D02*
X100999999Y-88781009D01*
X100999999Y-89304819D02*
X100999999Y-88304819D01*
X101952380Y-89304819D02*
X101476190Y-89304819D01*
X101476190Y-89304819D02*
X101476190Y-88304819D01*
X102714285Y-88638152D02*
X102714285Y-89304819D01*
X102476190Y-88257200D02*
X102238095Y-88971485D01*
X102238095Y-88971485D02*
X102857142Y-88971485D01*
X143802536Y-158133719D02*
X143802536Y-157133719D01*
X143802536Y-157133719D02*
X144135869Y-157848004D01*
X144135869Y-157848004D02*
X144469202Y-157133719D01*
X144469202Y-157133719D02*
X144469202Y-158133719D01*
X145278726Y-157609909D02*
X145421583Y-157657528D01*
X145421583Y-157657528D02*
X145469202Y-157705147D01*
X145469202Y-157705147D02*
X145516821Y-157800385D01*
X145516821Y-157800385D02*
X145516821Y-157943242D01*
X145516821Y-157943242D02*
X145469202Y-158038480D01*
X145469202Y-158038480D02*
X145421583Y-158086100D01*
X145421583Y-158086100D02*
X145326345Y-158133719D01*
X145326345Y-158133719D02*
X144945393Y-158133719D01*
X144945393Y-158133719D02*
X144945393Y-157133719D01*
X144945393Y-157133719D02*
X145278726Y-157133719D01*
X145278726Y-157133719D02*
X145373964Y-157181338D01*
X145373964Y-157181338D02*
X145421583Y-157228957D01*
X145421583Y-157228957D02*
X145469202Y-157324195D01*
X145469202Y-157324195D02*
X145469202Y-157419433D01*
X145469202Y-157419433D02*
X145421583Y-157514671D01*
X145421583Y-157514671D02*
X145373964Y-157562290D01*
X145373964Y-157562290D02*
X145278726Y-157609909D01*
X145278726Y-157609909D02*
X144945393Y-157609909D01*
X146373964Y-157133719D02*
X146183488Y-157133719D01*
X146183488Y-157133719D02*
X146088250Y-157181338D01*
X146088250Y-157181338D02*
X146040631Y-157228957D01*
X146040631Y-157228957D02*
X145945393Y-157371814D01*
X145945393Y-157371814D02*
X145897774Y-157562290D01*
X145897774Y-157562290D02*
X145897774Y-157943242D01*
X145897774Y-157943242D02*
X145945393Y-158038480D01*
X145945393Y-158038480D02*
X145993012Y-158086100D01*
X145993012Y-158086100D02*
X146088250Y-158133719D01*
X146088250Y-158133719D02*
X146278726Y-158133719D01*
X146278726Y-158133719D02*
X146373964Y-158086100D01*
X146373964Y-158086100D02*
X146421583Y-158038480D01*
X146421583Y-158038480D02*
X146469202Y-157943242D01*
X146469202Y-157943242D02*
X146469202Y-157705147D01*
X146469202Y-157705147D02*
X146421583Y-157609909D01*
X146421583Y-157609909D02*
X146373964Y-157562290D01*
X146373964Y-157562290D02*
X146278726Y-157514671D01*
X146278726Y-157514671D02*
X146088250Y-157514671D01*
X146088250Y-157514671D02*
X145993012Y-157562290D01*
X145993012Y-157562290D02*
X145945393Y-157609909D01*
X145945393Y-157609909D02*
X145897774Y-157705147D01*
X147373964Y-157133719D02*
X146897774Y-157133719D01*
X146897774Y-157133719D02*
X146850155Y-157609909D01*
X146850155Y-157609909D02*
X146897774Y-157562290D01*
X146897774Y-157562290D02*
X146993012Y-157514671D01*
X146993012Y-157514671D02*
X147231107Y-157514671D01*
X147231107Y-157514671D02*
X147326345Y-157562290D01*
X147326345Y-157562290D02*
X147373964Y-157609909D01*
X147373964Y-157609909D02*
X147421583Y-157705147D01*
X147421583Y-157705147D02*
X147421583Y-157943242D01*
X147421583Y-157943242D02*
X147373964Y-158038480D01*
X147373964Y-158038480D02*
X147326345Y-158086100D01*
X147326345Y-158086100D02*
X147231107Y-158133719D01*
X147231107Y-158133719D02*
X146993012Y-158133719D01*
X146993012Y-158133719D02*
X146897774Y-158086100D01*
X146897774Y-158086100D02*
X146850155Y-158038480D01*
X35714285Y-63304819D02*
X35238095Y-63304819D01*
X35238095Y-63304819D02*
X35238095Y-62304819D01*
X36047619Y-62923866D02*
X36809524Y-62923866D01*
X37285714Y-63304819D02*
X37285714Y-62304819D01*
X37285714Y-62304819D02*
X37619047Y-63019104D01*
X37619047Y-63019104D02*
X37952380Y-62304819D01*
X37952380Y-62304819D02*
X37952380Y-63304819D01*
X38428571Y-63304819D02*
X38428571Y-62304819D01*
X38428571Y-62781009D02*
X38999999Y-62781009D01*
X38999999Y-63304819D02*
X38999999Y-62304819D01*
X39952380Y-63304819D02*
X39476190Y-63304819D01*
X39476190Y-63304819D02*
X39476190Y-62304819D01*
X40238095Y-62400057D02*
X40285714Y-62352438D01*
X40285714Y-62352438D02*
X40380952Y-62304819D01*
X40380952Y-62304819D02*
X40619047Y-62304819D01*
X40619047Y-62304819D02*
X40714285Y-62352438D01*
X40714285Y-62352438D02*
X40761904Y-62400057D01*
X40761904Y-62400057D02*
X40809523Y-62495295D01*
X40809523Y-62495295D02*
X40809523Y-62590533D01*
X40809523Y-62590533D02*
X40761904Y-62733390D01*
X40761904Y-62733390D02*
X40190476Y-63304819D01*
X40190476Y-63304819D02*
X40809523Y-63304819D01*
X105597666Y-198875979D02*
X105597666Y-197875979D01*
X105597666Y-197875979D02*
X105930999Y-198590264D01*
X105930999Y-198590264D02*
X106264332Y-197875979D01*
X106264332Y-197875979D02*
X106264332Y-198875979D01*
X107073856Y-198352169D02*
X107216713Y-198399788D01*
X107216713Y-198399788D02*
X107264332Y-198447407D01*
X107264332Y-198447407D02*
X107311951Y-198542645D01*
X107311951Y-198542645D02*
X107311951Y-198685502D01*
X107311951Y-198685502D02*
X107264332Y-198780740D01*
X107264332Y-198780740D02*
X107216713Y-198828360D01*
X107216713Y-198828360D02*
X107121475Y-198875979D01*
X107121475Y-198875979D02*
X106740523Y-198875979D01*
X106740523Y-198875979D02*
X106740523Y-197875979D01*
X106740523Y-197875979D02*
X107073856Y-197875979D01*
X107073856Y-197875979D02*
X107169094Y-197923598D01*
X107169094Y-197923598D02*
X107216713Y-197971217D01*
X107216713Y-197971217D02*
X107264332Y-198066455D01*
X107264332Y-198066455D02*
X107264332Y-198161693D01*
X107264332Y-198161693D02*
X107216713Y-198256931D01*
X107216713Y-198256931D02*
X107169094Y-198304550D01*
X107169094Y-198304550D02*
X107073856Y-198352169D01*
X107073856Y-198352169D02*
X106740523Y-198352169D01*
X108169094Y-198209312D02*
X108169094Y-198875979D01*
X107930999Y-197828360D02*
X107692904Y-198542645D01*
X107692904Y-198542645D02*
X108311951Y-198542645D01*
X108597666Y-197875979D02*
X109216713Y-197875979D01*
X109216713Y-197875979D02*
X108883380Y-198256931D01*
X108883380Y-198256931D02*
X109026237Y-198256931D01*
X109026237Y-198256931D02*
X109121475Y-198304550D01*
X109121475Y-198304550D02*
X109169094Y-198352169D01*
X109169094Y-198352169D02*
X109216713Y-198447407D01*
X109216713Y-198447407D02*
X109216713Y-198685502D01*
X109216713Y-198685502D02*
X109169094Y-198780740D01*
X109169094Y-198780740D02*
X109121475Y-198828360D01*
X109121475Y-198828360D02*
X109026237Y-198875979D01*
X109026237Y-198875979D02*
X108740523Y-198875979D01*
X108740523Y-198875979D02*
X108645285Y-198828360D01*
X108645285Y-198828360D02*
X108597666Y-198780740D01*
X104097666Y-198875979D02*
X104097666Y-197875979D01*
X104097666Y-197875979D02*
X104430999Y-198590264D01*
X104430999Y-198590264D02*
X104764332Y-197875979D01*
X104764332Y-197875979D02*
X104764332Y-198875979D01*
X105573856Y-198352169D02*
X105716713Y-198399788D01*
X105716713Y-198399788D02*
X105764332Y-198447407D01*
X105764332Y-198447407D02*
X105811951Y-198542645D01*
X105811951Y-198542645D02*
X105811951Y-198685502D01*
X105811951Y-198685502D02*
X105764332Y-198780740D01*
X105764332Y-198780740D02*
X105716713Y-198828360D01*
X105716713Y-198828360D02*
X105621475Y-198875979D01*
X105621475Y-198875979D02*
X105240523Y-198875979D01*
X105240523Y-198875979D02*
X105240523Y-197875979D01*
X105240523Y-197875979D02*
X105573856Y-197875979D01*
X105573856Y-197875979D02*
X105669094Y-197923598D01*
X105669094Y-197923598D02*
X105716713Y-197971217D01*
X105716713Y-197971217D02*
X105764332Y-198066455D01*
X105764332Y-198066455D02*
X105764332Y-198161693D01*
X105764332Y-198161693D02*
X105716713Y-198256931D01*
X105716713Y-198256931D02*
X105669094Y-198304550D01*
X105669094Y-198304550D02*
X105573856Y-198352169D01*
X105573856Y-198352169D02*
X105240523Y-198352169D01*
X106669094Y-198209312D02*
X106669094Y-198875979D01*
X106430999Y-197828360D02*
X106192904Y-198542645D01*
X106192904Y-198542645D02*
X106811951Y-198542645D01*
X107716713Y-198875979D02*
X107145285Y-198875979D01*
X107430999Y-198875979D02*
X107430999Y-197875979D01*
X107430999Y-197875979D02*
X107335761Y-198018836D01*
X107335761Y-198018836D02*
X107240523Y-198114074D01*
X107240523Y-198114074D02*
X107145285Y-198161693D01*
X31792496Y-100597759D02*
X31792496Y-99597759D01*
X31792496Y-99597759D02*
X32125829Y-100312044D01*
X32125829Y-100312044D02*
X32459162Y-99597759D01*
X32459162Y-99597759D02*
X32459162Y-100597759D01*
X33268686Y-100073949D02*
X33411543Y-100121568D01*
X33411543Y-100121568D02*
X33459162Y-100169187D01*
X33459162Y-100169187D02*
X33506781Y-100264425D01*
X33506781Y-100264425D02*
X33506781Y-100407282D01*
X33506781Y-100407282D02*
X33459162Y-100502520D01*
X33459162Y-100502520D02*
X33411543Y-100550140D01*
X33411543Y-100550140D02*
X33316305Y-100597759D01*
X33316305Y-100597759D02*
X32935353Y-100597759D01*
X32935353Y-100597759D02*
X32935353Y-99597759D01*
X32935353Y-99597759D02*
X33268686Y-99597759D01*
X33268686Y-99597759D02*
X33363924Y-99645378D01*
X33363924Y-99645378D02*
X33411543Y-99692997D01*
X33411543Y-99692997D02*
X33459162Y-99788235D01*
X33459162Y-99788235D02*
X33459162Y-99883473D01*
X33459162Y-99883473D02*
X33411543Y-99978711D01*
X33411543Y-99978711D02*
X33363924Y-100026330D01*
X33363924Y-100026330D02*
X33268686Y-100073949D01*
X33268686Y-100073949D02*
X32935353Y-100073949D01*
X34078210Y-100026330D02*
X33982972Y-99978711D01*
X33982972Y-99978711D02*
X33935353Y-99931092D01*
X33935353Y-99931092D02*
X33887734Y-99835854D01*
X33887734Y-99835854D02*
X33887734Y-99788235D01*
X33887734Y-99788235D02*
X33935353Y-99692997D01*
X33935353Y-99692997D02*
X33982972Y-99645378D01*
X33982972Y-99645378D02*
X34078210Y-99597759D01*
X34078210Y-99597759D02*
X34268686Y-99597759D01*
X34268686Y-99597759D02*
X34363924Y-99645378D01*
X34363924Y-99645378D02*
X34411543Y-99692997D01*
X34411543Y-99692997D02*
X34459162Y-99788235D01*
X34459162Y-99788235D02*
X34459162Y-99835854D01*
X34459162Y-99835854D02*
X34411543Y-99931092D01*
X34411543Y-99931092D02*
X34363924Y-99978711D01*
X34363924Y-99978711D02*
X34268686Y-100026330D01*
X34268686Y-100026330D02*
X34078210Y-100026330D01*
X34078210Y-100026330D02*
X33982972Y-100073949D01*
X33982972Y-100073949D02*
X33935353Y-100121568D01*
X33935353Y-100121568D02*
X33887734Y-100216806D01*
X33887734Y-100216806D02*
X33887734Y-100407282D01*
X33887734Y-100407282D02*
X33935353Y-100502520D01*
X33935353Y-100502520D02*
X33982972Y-100550140D01*
X33982972Y-100550140D02*
X34078210Y-100597759D01*
X34078210Y-100597759D02*
X34268686Y-100597759D01*
X34268686Y-100597759D02*
X34363924Y-100550140D01*
X34363924Y-100550140D02*
X34411543Y-100502520D01*
X34411543Y-100502520D02*
X34459162Y-100407282D01*
X34459162Y-100407282D02*
X34459162Y-100216806D01*
X34459162Y-100216806D02*
X34411543Y-100121568D01*
X34411543Y-100121568D02*
X34363924Y-100073949D01*
X34363924Y-100073949D02*
X34268686Y-100026330D01*
X134714285Y-47304819D02*
X134238095Y-47304819D01*
X134238095Y-47304819D02*
X134238095Y-46304819D01*
X135047619Y-46923866D02*
X135809524Y-46923866D01*
X136285714Y-47304819D02*
X136285714Y-46304819D01*
X136285714Y-46304819D02*
X136619047Y-47019104D01*
X136619047Y-47019104D02*
X136952380Y-46304819D01*
X136952380Y-46304819D02*
X136952380Y-47304819D01*
X137428571Y-47304819D02*
X137428571Y-46304819D01*
X137428571Y-46781009D02*
X137999999Y-46781009D01*
X137999999Y-47304819D02*
X137999999Y-46304819D01*
X138952380Y-47304819D02*
X138476190Y-47304819D01*
X138476190Y-47304819D02*
X138476190Y-46304819D01*
X139190476Y-46304819D02*
X139809523Y-46304819D01*
X139809523Y-46304819D02*
X139476190Y-46685771D01*
X139476190Y-46685771D02*
X139619047Y-46685771D01*
X139619047Y-46685771D02*
X139714285Y-46733390D01*
X139714285Y-46733390D02*
X139761904Y-46781009D01*
X139761904Y-46781009D02*
X139809523Y-46876247D01*
X139809523Y-46876247D02*
X139809523Y-47114342D01*
X139809523Y-47114342D02*
X139761904Y-47209580D01*
X139761904Y-47209580D02*
X139714285Y-47257200D01*
X139714285Y-47257200D02*
X139619047Y-47304819D01*
X139619047Y-47304819D02*
X139333333Y-47304819D01*
X139333333Y-47304819D02*
X139238095Y-47257200D01*
X139238095Y-47257200D02*
X139190476Y-47209580D01*
X143802536Y-156633719D02*
X143802536Y-155633719D01*
X143802536Y-155633719D02*
X144135869Y-156348004D01*
X144135869Y-156348004D02*
X144469202Y-155633719D01*
X144469202Y-155633719D02*
X144469202Y-156633719D01*
X145278726Y-156109909D02*
X145421583Y-156157528D01*
X145421583Y-156157528D02*
X145469202Y-156205147D01*
X145469202Y-156205147D02*
X145516821Y-156300385D01*
X145516821Y-156300385D02*
X145516821Y-156443242D01*
X145516821Y-156443242D02*
X145469202Y-156538480D01*
X145469202Y-156538480D02*
X145421583Y-156586100D01*
X145421583Y-156586100D02*
X145326345Y-156633719D01*
X145326345Y-156633719D02*
X144945393Y-156633719D01*
X144945393Y-156633719D02*
X144945393Y-155633719D01*
X144945393Y-155633719D02*
X145278726Y-155633719D01*
X145278726Y-155633719D02*
X145373964Y-155681338D01*
X145373964Y-155681338D02*
X145421583Y-155728957D01*
X145421583Y-155728957D02*
X145469202Y-155824195D01*
X145469202Y-155824195D02*
X145469202Y-155919433D01*
X145469202Y-155919433D02*
X145421583Y-156014671D01*
X145421583Y-156014671D02*
X145373964Y-156062290D01*
X145373964Y-156062290D02*
X145278726Y-156109909D01*
X145278726Y-156109909D02*
X144945393Y-156109909D01*
X146373964Y-155633719D02*
X146183488Y-155633719D01*
X146183488Y-155633719D02*
X146088250Y-155681338D01*
X146088250Y-155681338D02*
X146040631Y-155728957D01*
X146040631Y-155728957D02*
X145945393Y-155871814D01*
X145945393Y-155871814D02*
X145897774Y-156062290D01*
X145897774Y-156062290D02*
X145897774Y-156443242D01*
X145897774Y-156443242D02*
X145945393Y-156538480D01*
X145945393Y-156538480D02*
X145993012Y-156586100D01*
X145993012Y-156586100D02*
X146088250Y-156633719D01*
X146088250Y-156633719D02*
X146278726Y-156633719D01*
X146278726Y-156633719D02*
X146373964Y-156586100D01*
X146373964Y-156586100D02*
X146421583Y-156538480D01*
X146421583Y-156538480D02*
X146469202Y-156443242D01*
X146469202Y-156443242D02*
X146469202Y-156205147D01*
X146469202Y-156205147D02*
X146421583Y-156109909D01*
X146421583Y-156109909D02*
X146373964Y-156062290D01*
X146373964Y-156062290D02*
X146278726Y-156014671D01*
X146278726Y-156014671D02*
X146088250Y-156014671D01*
X146088250Y-156014671D02*
X145993012Y-156062290D01*
X145993012Y-156062290D02*
X145945393Y-156109909D01*
X145945393Y-156109909D02*
X145897774Y-156205147D01*
X146802536Y-155633719D02*
X147421583Y-155633719D01*
X147421583Y-155633719D02*
X147088250Y-156014671D01*
X147088250Y-156014671D02*
X147231107Y-156014671D01*
X147231107Y-156014671D02*
X147326345Y-156062290D01*
X147326345Y-156062290D02*
X147373964Y-156109909D01*
X147373964Y-156109909D02*
X147421583Y-156205147D01*
X147421583Y-156205147D02*
X147421583Y-156443242D01*
X147421583Y-156443242D02*
X147373964Y-156538480D01*
X147373964Y-156538480D02*
X147326345Y-156586100D01*
X147326345Y-156586100D02*
X147231107Y-156633719D01*
X147231107Y-156633719D02*
X146945393Y-156633719D01*
X146945393Y-156633719D02*
X146850155Y-156586100D01*
X146850155Y-156586100D02*
X146802536Y-156538480D01*
X-2388563Y-48417319D02*
X-2388563Y-47417319D01*
X-2388563Y-47417319D02*
X-2055230Y-48131604D01*
X-2055230Y-48131604D02*
X-1721897Y-47417319D01*
X-1721897Y-47417319D02*
X-1721897Y-48417319D01*
X-912373Y-47893509D02*
X-769516Y-47941128D01*
X-769516Y-47941128D02*
X-721897Y-47988747D01*
X-721897Y-47988747D02*
X-674278Y-48083985D01*
X-674278Y-48083985D02*
X-674278Y-48226842D01*
X-674278Y-48226842D02*
X-721897Y-48322080D01*
X-721897Y-48322080D02*
X-769516Y-48369700D01*
X-769516Y-48369700D02*
X-864754Y-48417319D01*
X-864754Y-48417319D02*
X-1245706Y-48417319D01*
X-1245706Y-48417319D02*
X-1245706Y-47417319D01*
X-1245706Y-47417319D02*
X-912373Y-47417319D01*
X-912373Y-47417319D02*
X-817135Y-47464938D01*
X-817135Y-47464938D02*
X-769516Y-47512557D01*
X-769516Y-47512557D02*
X-721897Y-47607795D01*
X-721897Y-47607795D02*
X-721897Y-47703033D01*
X-721897Y-47703033D02*
X-769516Y-47798271D01*
X-769516Y-47798271D02*
X-817135Y-47845890D01*
X-817135Y-47845890D02*
X-912373Y-47893509D01*
X-912373Y-47893509D02*
X-1245706Y-47893509D01*
X182864Y-47750652D02*
X182864Y-48417319D01*
X-55230Y-47369700D02*
X-293325Y-48083985D01*
X-293325Y-48083985D02*
X325721Y-48083985D01*
X1135245Y-47417319D02*
X944769Y-47417319D01*
X944769Y-47417319D02*
X849531Y-47464938D01*
X849531Y-47464938D02*
X801912Y-47512557D01*
X801912Y-47512557D02*
X706674Y-47655414D01*
X706674Y-47655414D02*
X659055Y-47845890D01*
X659055Y-47845890D02*
X659055Y-48226842D01*
X659055Y-48226842D02*
X706674Y-48322080D01*
X706674Y-48322080D02*
X754293Y-48369700D01*
X754293Y-48369700D02*
X849531Y-48417319D01*
X849531Y-48417319D02*
X1040007Y-48417319D01*
X1040007Y-48417319D02*
X1135245Y-48369700D01*
X1135245Y-48369700D02*
X1182864Y-48322080D01*
X1182864Y-48322080D02*
X1230483Y-48226842D01*
X1230483Y-48226842D02*
X1230483Y-47988747D01*
X1230483Y-47988747D02*
X1182864Y-47893509D01*
X1182864Y-47893509D02*
X1135245Y-47845890D01*
X1135245Y-47845890D02*
X1040007Y-47798271D01*
X1040007Y-47798271D02*
X849531Y-47798271D01*
X849531Y-47798271D02*
X754293Y-47845890D01*
X754293Y-47845890D02*
X706674Y-47893509D01*
X706674Y-47893509D02*
X659055Y-47988747D01*
X-2388563Y-49917319D02*
X-2388563Y-48917319D01*
X-2388563Y-48917319D02*
X-2055230Y-49631604D01*
X-2055230Y-49631604D02*
X-1721897Y-48917319D01*
X-1721897Y-48917319D02*
X-1721897Y-49917319D01*
X-912373Y-49393509D02*
X-769516Y-49441128D01*
X-769516Y-49441128D02*
X-721897Y-49488747D01*
X-721897Y-49488747D02*
X-674278Y-49583985D01*
X-674278Y-49583985D02*
X-674278Y-49726842D01*
X-674278Y-49726842D02*
X-721897Y-49822080D01*
X-721897Y-49822080D02*
X-769516Y-49869700D01*
X-769516Y-49869700D02*
X-864754Y-49917319D01*
X-864754Y-49917319D02*
X-1245706Y-49917319D01*
X-1245706Y-49917319D02*
X-1245706Y-48917319D01*
X-1245706Y-48917319D02*
X-912373Y-48917319D01*
X-912373Y-48917319D02*
X-817135Y-48964938D01*
X-817135Y-48964938D02*
X-769516Y-49012557D01*
X-769516Y-49012557D02*
X-721897Y-49107795D01*
X-721897Y-49107795D02*
X-721897Y-49203033D01*
X-721897Y-49203033D02*
X-769516Y-49298271D01*
X-769516Y-49298271D02*
X-817135Y-49345890D01*
X-817135Y-49345890D02*
X-912373Y-49393509D01*
X-912373Y-49393509D02*
X-1245706Y-49393509D01*
X182864Y-49250652D02*
X182864Y-49917319D01*
X-55230Y-48869700D02*
X-293325Y-49583985D01*
X-293325Y-49583985D02*
X325721Y-49583985D01*
X849531Y-49345890D02*
X754293Y-49298271D01*
X754293Y-49298271D02*
X706674Y-49250652D01*
X706674Y-49250652D02*
X659055Y-49155414D01*
X659055Y-49155414D02*
X659055Y-49107795D01*
X659055Y-49107795D02*
X706674Y-49012557D01*
X706674Y-49012557D02*
X754293Y-48964938D01*
X754293Y-48964938D02*
X849531Y-48917319D01*
X849531Y-48917319D02*
X1040007Y-48917319D01*
X1040007Y-48917319D02*
X1135245Y-48964938D01*
X1135245Y-48964938D02*
X1182864Y-49012557D01*
X1182864Y-49012557D02*
X1230483Y-49107795D01*
X1230483Y-49107795D02*
X1230483Y-49155414D01*
X1230483Y-49155414D02*
X1182864Y-49250652D01*
X1182864Y-49250652D02*
X1135245Y-49298271D01*
X1135245Y-49298271D02*
X1040007Y-49345890D01*
X1040007Y-49345890D02*
X849531Y-49345890D01*
X849531Y-49345890D02*
X754293Y-49393509D01*
X754293Y-49393509D02*
X706674Y-49441128D01*
X706674Y-49441128D02*
X659055Y-49536366D01*
X659055Y-49536366D02*
X659055Y-49726842D01*
X659055Y-49726842D02*
X706674Y-49822080D01*
X706674Y-49822080D02*
X754293Y-49869700D01*
X754293Y-49869700D02*
X849531Y-49917319D01*
X849531Y-49917319D02*
X1040007Y-49917319D01*
X1040007Y-49917319D02*
X1135245Y-49869700D01*
X1135245Y-49869700D02*
X1182864Y-49822080D01*
X1182864Y-49822080D02*
X1230483Y-49726842D01*
X1230483Y-49726842D02*
X1230483Y-49536366D01*
X1230483Y-49536366D02*
X1182864Y-49441128D01*
X1182864Y-49441128D02*
X1135245Y-49393509D01*
X1135245Y-49393509D02*
X1040007Y-49345890D01*
X69956986Y-98397259D02*
X69956986Y-97397259D01*
X69956986Y-97397259D02*
X70290319Y-98111544D01*
X70290319Y-98111544D02*
X70623652Y-97397259D01*
X70623652Y-97397259D02*
X70623652Y-98397259D01*
X71433176Y-97873449D02*
X71576033Y-97921068D01*
X71576033Y-97921068D02*
X71623652Y-97968687D01*
X71623652Y-97968687D02*
X71671271Y-98063925D01*
X71671271Y-98063925D02*
X71671271Y-98206782D01*
X71671271Y-98206782D02*
X71623652Y-98302020D01*
X71623652Y-98302020D02*
X71576033Y-98349640D01*
X71576033Y-98349640D02*
X71480795Y-98397259D01*
X71480795Y-98397259D02*
X71099843Y-98397259D01*
X71099843Y-98397259D02*
X71099843Y-97397259D01*
X71099843Y-97397259D02*
X71433176Y-97397259D01*
X71433176Y-97397259D02*
X71528414Y-97444878D01*
X71528414Y-97444878D02*
X71576033Y-97492497D01*
X71576033Y-97492497D02*
X71623652Y-97587735D01*
X71623652Y-97587735D02*
X71623652Y-97682973D01*
X71623652Y-97682973D02*
X71576033Y-97778211D01*
X71576033Y-97778211D02*
X71528414Y-97825830D01*
X71528414Y-97825830D02*
X71433176Y-97873449D01*
X71433176Y-97873449D02*
X71099843Y-97873449D01*
X72052224Y-97492497D02*
X72099843Y-97444878D01*
X72099843Y-97444878D02*
X72195081Y-97397259D01*
X72195081Y-97397259D02*
X72433176Y-97397259D01*
X72433176Y-97397259D02*
X72528414Y-97444878D01*
X72528414Y-97444878D02*
X72576033Y-97492497D01*
X72576033Y-97492497D02*
X72623652Y-97587735D01*
X72623652Y-97587735D02*
X72623652Y-97682973D01*
X72623652Y-97682973D02*
X72576033Y-97825830D01*
X72576033Y-97825830D02*
X72004605Y-98397259D01*
X72004605Y-98397259D02*
X72623652Y-98397259D01*
X73004605Y-97492497D02*
X73052224Y-97444878D01*
X73052224Y-97444878D02*
X73147462Y-97397259D01*
X73147462Y-97397259D02*
X73385557Y-97397259D01*
X73385557Y-97397259D02*
X73480795Y-97444878D01*
X73480795Y-97444878D02*
X73528414Y-97492497D01*
X73528414Y-97492497D02*
X73576033Y-97587735D01*
X73576033Y-97587735D02*
X73576033Y-97682973D01*
X73576033Y-97682973D02*
X73528414Y-97825830D01*
X73528414Y-97825830D02*
X72956986Y-98397259D01*
X72956986Y-98397259D02*
X73576033Y-98397259D01*
X71456986Y2086040D02*
X71456986Y3086040D01*
X71456986Y3086040D02*
X71790319Y2371755D01*
X71790319Y2371755D02*
X72123652Y3086040D01*
X72123652Y3086040D02*
X72123652Y2086040D01*
X72933176Y2609850D02*
X73076033Y2562231D01*
X73076033Y2562231D02*
X73123652Y2514612D01*
X73123652Y2514612D02*
X73171271Y2419374D01*
X73171271Y2419374D02*
X73171271Y2276517D01*
X73171271Y2276517D02*
X73123652Y2181279D01*
X73123652Y2181279D02*
X73076033Y2133660D01*
X73076033Y2133660D02*
X72980795Y2086040D01*
X72980795Y2086040D02*
X72599843Y2086040D01*
X72599843Y2086040D02*
X72599843Y3086040D01*
X72599843Y3086040D02*
X72933176Y3086040D01*
X72933176Y3086040D02*
X73028414Y3038421D01*
X73028414Y3038421D02*
X73076033Y2990802D01*
X73076033Y2990802D02*
X73123652Y2895564D01*
X73123652Y2895564D02*
X73123652Y2800326D01*
X73123652Y2800326D02*
X73076033Y2705088D01*
X73076033Y2705088D02*
X73028414Y2657469D01*
X73028414Y2657469D02*
X72933176Y2609850D01*
X72933176Y2609850D02*
X72599843Y2609850D01*
X74123652Y2086040D02*
X73552224Y2086040D01*
X73837938Y2086040D02*
X73837938Y3086040D01*
X73837938Y3086040D02*
X73742700Y2943183D01*
X73742700Y2943183D02*
X73647462Y2847945D01*
X73647462Y2847945D02*
X73552224Y2800326D01*
X74599843Y2086040D02*
X74790319Y2086040D01*
X74790319Y2086040D02*
X74885557Y2133660D01*
X74885557Y2133660D02*
X74933176Y2181279D01*
X74933176Y2181279D02*
X75028414Y2324136D01*
X75028414Y2324136D02*
X75076033Y2514612D01*
X75076033Y2514612D02*
X75076033Y2895564D01*
X75076033Y2895564D02*
X75028414Y2990802D01*
X75028414Y2990802D02*
X74980795Y3038421D01*
X74980795Y3038421D02*
X74885557Y3086040D01*
X74885557Y3086040D02*
X74695081Y3086040D01*
X74695081Y3086040D02*
X74599843Y3038421D01*
X74599843Y3038421D02*
X74552224Y2990802D01*
X74552224Y2990802D02*
X74504605Y2895564D01*
X74504605Y2895564D02*
X74504605Y2657469D01*
X74504605Y2657469D02*
X74552224Y2562231D01*
X74552224Y2562231D02*
X74599843Y2514612D01*
X74599843Y2514612D02*
X74695081Y2466993D01*
X74695081Y2466993D02*
X74885557Y2466993D01*
X74885557Y2466993D02*
X74980795Y2514612D01*
X74980795Y2514612D02*
X75028414Y2562231D01*
X75028414Y2562231D02*
X75076033Y2657469D01*
X104847666Y-1605569D02*
X104847666Y-605569D01*
X104847666Y-605569D02*
X105180999Y-1319854D01*
X105180999Y-1319854D02*
X105514332Y-605569D01*
X105514332Y-605569D02*
X105514332Y-1605569D01*
X106323856Y-1081759D02*
X106466713Y-1129378D01*
X106466713Y-1129378D02*
X106514332Y-1176997D01*
X106514332Y-1176997D02*
X106561951Y-1272235D01*
X106561951Y-1272235D02*
X106561951Y-1415092D01*
X106561951Y-1415092D02*
X106514332Y-1510330D01*
X106514332Y-1510330D02*
X106466713Y-1557950D01*
X106466713Y-1557950D02*
X106371475Y-1605569D01*
X106371475Y-1605569D02*
X105990523Y-1605569D01*
X105990523Y-1605569D02*
X105990523Y-605569D01*
X105990523Y-605569D02*
X106323856Y-605569D01*
X106323856Y-605569D02*
X106419094Y-653188D01*
X106419094Y-653188D02*
X106466713Y-700807D01*
X106466713Y-700807D02*
X106514332Y-796045D01*
X106514332Y-796045D02*
X106514332Y-891283D01*
X106514332Y-891283D02*
X106466713Y-986521D01*
X106466713Y-986521D02*
X106419094Y-1034140D01*
X106419094Y-1034140D02*
X106323856Y-1081759D01*
X106323856Y-1081759D02*
X105990523Y-1081759D01*
X106895285Y-605569D02*
X107514332Y-605569D01*
X107514332Y-605569D02*
X107180999Y-986521D01*
X107180999Y-986521D02*
X107323856Y-986521D01*
X107323856Y-986521D02*
X107419094Y-1034140D01*
X107419094Y-1034140D02*
X107466713Y-1081759D01*
X107466713Y-1081759D02*
X107514332Y-1176997D01*
X107514332Y-1176997D02*
X107514332Y-1415092D01*
X107514332Y-1415092D02*
X107466713Y-1510330D01*
X107466713Y-1510330D02*
X107419094Y-1557950D01*
X107419094Y-1557950D02*
X107323856Y-1605569D01*
X107323856Y-1605569D02*
X107038142Y-1605569D01*
X107038142Y-1605569D02*
X106942904Y-1557950D01*
X106942904Y-1557950D02*
X106895285Y-1510330D01*
X107895285Y-700807D02*
X107942904Y-653188D01*
X107942904Y-653188D02*
X108038142Y-605569D01*
X108038142Y-605569D02*
X108276237Y-605569D01*
X108276237Y-605569D02*
X108371475Y-653188D01*
X108371475Y-653188D02*
X108419094Y-700807D01*
X108419094Y-700807D02*
X108466713Y-796045D01*
X108466713Y-796045D02*
X108466713Y-891283D01*
X108466713Y-891283D02*
X108419094Y-1034140D01*
X108419094Y-1034140D02*
X107847666Y-1605569D01*
X107847666Y-1605569D02*
X108466713Y-1605569D01*
X70706986Y-198880559D02*
X70706986Y-197880559D01*
X70706986Y-197880559D02*
X71040319Y-198594844D01*
X71040319Y-198594844D02*
X71373652Y-197880559D01*
X71373652Y-197880559D02*
X71373652Y-198880559D01*
X72183176Y-198356749D02*
X72326033Y-198404368D01*
X72326033Y-198404368D02*
X72373652Y-198451987D01*
X72373652Y-198451987D02*
X72421271Y-198547225D01*
X72421271Y-198547225D02*
X72421271Y-198690082D01*
X72421271Y-198690082D02*
X72373652Y-198785320D01*
X72373652Y-198785320D02*
X72326033Y-198832940D01*
X72326033Y-198832940D02*
X72230795Y-198880559D01*
X72230795Y-198880559D02*
X71849843Y-198880559D01*
X71849843Y-198880559D02*
X71849843Y-197880559D01*
X71849843Y-197880559D02*
X72183176Y-197880559D01*
X72183176Y-197880559D02*
X72278414Y-197928178D01*
X72278414Y-197928178D02*
X72326033Y-197975797D01*
X72326033Y-197975797D02*
X72373652Y-198071035D01*
X72373652Y-198071035D02*
X72373652Y-198166273D01*
X72373652Y-198166273D02*
X72326033Y-198261511D01*
X72326033Y-198261511D02*
X72278414Y-198309130D01*
X72278414Y-198309130D02*
X72183176Y-198356749D01*
X72183176Y-198356749D02*
X71849843Y-198356749D01*
X72802224Y-197975797D02*
X72849843Y-197928178D01*
X72849843Y-197928178D02*
X72945081Y-197880559D01*
X72945081Y-197880559D02*
X73183176Y-197880559D01*
X73183176Y-197880559D02*
X73278414Y-197928178D01*
X73278414Y-197928178D02*
X73326033Y-197975797D01*
X73326033Y-197975797D02*
X73373652Y-198071035D01*
X73373652Y-198071035D02*
X73373652Y-198166273D01*
X73373652Y-198166273D02*
X73326033Y-198309130D01*
X73326033Y-198309130D02*
X72754605Y-198880559D01*
X72754605Y-198880559D02*
X73373652Y-198880559D01*
X73945081Y-198309130D02*
X73849843Y-198261511D01*
X73849843Y-198261511D02*
X73802224Y-198213892D01*
X73802224Y-198213892D02*
X73754605Y-198118654D01*
X73754605Y-198118654D02*
X73754605Y-198071035D01*
X73754605Y-198071035D02*
X73802224Y-197975797D01*
X73802224Y-197975797D02*
X73849843Y-197928178D01*
X73849843Y-197928178D02*
X73945081Y-197880559D01*
X73945081Y-197880559D02*
X74135557Y-197880559D01*
X74135557Y-197880559D02*
X74230795Y-197928178D01*
X74230795Y-197928178D02*
X74278414Y-197975797D01*
X74278414Y-197975797D02*
X74326033Y-198071035D01*
X74326033Y-198071035D02*
X74326033Y-198118654D01*
X74326033Y-198118654D02*
X74278414Y-198213892D01*
X74278414Y-198213892D02*
X74230795Y-198261511D01*
X74230795Y-198261511D02*
X74135557Y-198309130D01*
X74135557Y-198309130D02*
X73945081Y-198309130D01*
X73945081Y-198309130D02*
X73849843Y-198356749D01*
X73849843Y-198356749D02*
X73802224Y-198404368D01*
X73802224Y-198404368D02*
X73754605Y-198499606D01*
X73754605Y-198499606D02*
X73754605Y-198690082D01*
X73754605Y-198690082D02*
X73802224Y-198785320D01*
X73802224Y-198785320D02*
X73849843Y-198832940D01*
X73849843Y-198832940D02*
X73945081Y-198880559D01*
X73945081Y-198880559D02*
X74135557Y-198880559D01*
X74135557Y-198880559D02*
X74230795Y-198832940D01*
X74230795Y-198832940D02*
X74278414Y-198785320D01*
X74278414Y-198785320D02*
X74326033Y-198690082D01*
X74326033Y-198690082D02*
X74326033Y-198499606D01*
X74326033Y-198499606D02*
X74278414Y-198404368D01*
X74278414Y-198404368D02*
X74230795Y-198356749D01*
X74230795Y-198356749D02*
X74135557Y-198309130D01*
X106347666Y-1605569D02*
X106347666Y-605569D01*
X106347666Y-605569D02*
X106680999Y-1319854D01*
X106680999Y-1319854D02*
X107014332Y-605569D01*
X107014332Y-605569D02*
X107014332Y-1605569D01*
X107823856Y-1081759D02*
X107966713Y-1129378D01*
X107966713Y-1129378D02*
X108014332Y-1176997D01*
X108014332Y-1176997D02*
X108061951Y-1272235D01*
X108061951Y-1272235D02*
X108061951Y-1415092D01*
X108061951Y-1415092D02*
X108014332Y-1510330D01*
X108014332Y-1510330D02*
X107966713Y-1557950D01*
X107966713Y-1557950D02*
X107871475Y-1605569D01*
X107871475Y-1605569D02*
X107490523Y-1605569D01*
X107490523Y-1605569D02*
X107490523Y-605569D01*
X107490523Y-605569D02*
X107823856Y-605569D01*
X107823856Y-605569D02*
X107919094Y-653188D01*
X107919094Y-653188D02*
X107966713Y-700807D01*
X107966713Y-700807D02*
X108014332Y-796045D01*
X108014332Y-796045D02*
X108014332Y-891283D01*
X108014332Y-891283D02*
X107966713Y-986521D01*
X107966713Y-986521D02*
X107919094Y-1034140D01*
X107919094Y-1034140D02*
X107823856Y-1081759D01*
X107823856Y-1081759D02*
X107490523Y-1081759D01*
X108395285Y-605569D02*
X109014332Y-605569D01*
X109014332Y-605569D02*
X108680999Y-986521D01*
X108680999Y-986521D02*
X108823856Y-986521D01*
X108823856Y-986521D02*
X108919094Y-1034140D01*
X108919094Y-1034140D02*
X108966713Y-1081759D01*
X108966713Y-1081759D02*
X109014332Y-1176997D01*
X109014332Y-1176997D02*
X109014332Y-1415092D01*
X109014332Y-1415092D02*
X108966713Y-1510330D01*
X108966713Y-1510330D02*
X108919094Y-1557950D01*
X108919094Y-1557950D02*
X108823856Y-1605569D01*
X108823856Y-1605569D02*
X108538142Y-1605569D01*
X108538142Y-1605569D02*
X108442904Y-1557950D01*
X108442904Y-1557950D02*
X108395285Y-1510330D01*
X109871475Y-938902D02*
X109871475Y-1605569D01*
X109633380Y-557950D02*
X109395285Y-1272235D01*
X109395285Y-1272235D02*
X110014332Y-1272235D01*
X-2388563Y-51417319D02*
X-2388563Y-50417319D01*
X-2388563Y-50417319D02*
X-2055230Y-51131604D01*
X-2055230Y-51131604D02*
X-1721897Y-50417319D01*
X-1721897Y-50417319D02*
X-1721897Y-51417319D01*
X-912373Y-50893509D02*
X-769516Y-50941128D01*
X-769516Y-50941128D02*
X-721897Y-50988747D01*
X-721897Y-50988747D02*
X-674278Y-51083985D01*
X-674278Y-51083985D02*
X-674278Y-51226842D01*
X-674278Y-51226842D02*
X-721897Y-51322080D01*
X-721897Y-51322080D02*
X-769516Y-51369700D01*
X-769516Y-51369700D02*
X-864754Y-51417319D01*
X-864754Y-51417319D02*
X-1245706Y-51417319D01*
X-1245706Y-51417319D02*
X-1245706Y-50417319D01*
X-1245706Y-50417319D02*
X-912373Y-50417319D01*
X-912373Y-50417319D02*
X-817135Y-50464938D01*
X-817135Y-50464938D02*
X-769516Y-50512557D01*
X-769516Y-50512557D02*
X-721897Y-50607795D01*
X-721897Y-50607795D02*
X-721897Y-50703033D01*
X-721897Y-50703033D02*
X-769516Y-50798271D01*
X-769516Y-50798271D02*
X-817135Y-50845890D01*
X-817135Y-50845890D02*
X-912373Y-50893509D01*
X-912373Y-50893509D02*
X-1245706Y-50893509D01*
X230483Y-50417319D02*
X-245706Y-50417319D01*
X-245706Y-50417319D02*
X-293325Y-50893509D01*
X-293325Y-50893509D02*
X-245706Y-50845890D01*
X-245706Y-50845890D02*
X-150468Y-50798271D01*
X-150468Y-50798271D02*
X87626Y-50798271D01*
X87626Y-50798271D02*
X182864Y-50845890D01*
X182864Y-50845890D02*
X230483Y-50893509D01*
X230483Y-50893509D02*
X278102Y-50988747D01*
X278102Y-50988747D02*
X278102Y-51226842D01*
X278102Y-51226842D02*
X230483Y-51322080D01*
X230483Y-51322080D02*
X182864Y-51369700D01*
X182864Y-51369700D02*
X87626Y-51417319D01*
X87626Y-51417319D02*
X-150468Y-51417319D01*
X-150468Y-51417319D02*
X-245706Y-51369700D01*
X-245706Y-51369700D02*
X-293325Y-51322080D01*
X897150Y-50417319D02*
X992388Y-50417319D01*
X992388Y-50417319D02*
X1087626Y-50464938D01*
X1087626Y-50464938D02*
X1135245Y-50512557D01*
X1135245Y-50512557D02*
X1182864Y-50607795D01*
X1182864Y-50607795D02*
X1230483Y-50798271D01*
X1230483Y-50798271D02*
X1230483Y-51036366D01*
X1230483Y-51036366D02*
X1182864Y-51226842D01*
X1182864Y-51226842D02*
X1135245Y-51322080D01*
X1135245Y-51322080D02*
X1087626Y-51369700D01*
X1087626Y-51369700D02*
X992388Y-51417319D01*
X992388Y-51417319D02*
X897150Y-51417319D01*
X897150Y-51417319D02*
X801912Y-51369700D01*
X801912Y-51369700D02*
X754293Y-51322080D01*
X754293Y-51322080D02*
X706674Y-51226842D01*
X706674Y-51226842D02*
X659055Y-51036366D01*
X659055Y-51036366D02*
X659055Y-50798271D01*
X659055Y-50798271D02*
X706674Y-50607795D01*
X706674Y-50607795D02*
X754293Y-50512557D01*
X754293Y-50512557D02*
X801912Y-50464938D01*
X801912Y-50464938D02*
X897150Y-50417319D01*
X70706986Y-98397259D02*
X70706986Y-97397259D01*
X70706986Y-97397259D02*
X71040319Y-98111544D01*
X71040319Y-98111544D02*
X71373652Y-97397259D01*
X71373652Y-97397259D02*
X71373652Y-98397259D01*
X72183176Y-97873449D02*
X72326033Y-97921068D01*
X72326033Y-97921068D02*
X72373652Y-97968687D01*
X72373652Y-97968687D02*
X72421271Y-98063925D01*
X72421271Y-98063925D02*
X72421271Y-98206782D01*
X72421271Y-98206782D02*
X72373652Y-98302020D01*
X72373652Y-98302020D02*
X72326033Y-98349640D01*
X72326033Y-98349640D02*
X72230795Y-98397259D01*
X72230795Y-98397259D02*
X71849843Y-98397259D01*
X71849843Y-98397259D02*
X71849843Y-97397259D01*
X71849843Y-97397259D02*
X72183176Y-97397259D01*
X72183176Y-97397259D02*
X72278414Y-97444878D01*
X72278414Y-97444878D02*
X72326033Y-97492497D01*
X72326033Y-97492497D02*
X72373652Y-97587735D01*
X72373652Y-97587735D02*
X72373652Y-97682973D01*
X72373652Y-97682973D02*
X72326033Y-97778211D01*
X72326033Y-97778211D02*
X72278414Y-97825830D01*
X72278414Y-97825830D02*
X72183176Y-97873449D01*
X72183176Y-97873449D02*
X71849843Y-97873449D01*
X72802224Y-97492497D02*
X72849843Y-97444878D01*
X72849843Y-97444878D02*
X72945081Y-97397259D01*
X72945081Y-97397259D02*
X73183176Y-97397259D01*
X73183176Y-97397259D02*
X73278414Y-97444878D01*
X73278414Y-97444878D02*
X73326033Y-97492497D01*
X73326033Y-97492497D02*
X73373652Y-97587735D01*
X73373652Y-97587735D02*
X73373652Y-97682973D01*
X73373652Y-97682973D02*
X73326033Y-97825830D01*
X73326033Y-97825830D02*
X72754605Y-98397259D01*
X72754605Y-98397259D02*
X73373652Y-98397259D01*
X73706986Y-97397259D02*
X74326033Y-97397259D01*
X74326033Y-97397259D02*
X73992700Y-97778211D01*
X73992700Y-97778211D02*
X74135557Y-97778211D01*
X74135557Y-97778211D02*
X74230795Y-97825830D01*
X74230795Y-97825830D02*
X74278414Y-97873449D01*
X74278414Y-97873449D02*
X74326033Y-97968687D01*
X74326033Y-97968687D02*
X74326033Y-98206782D01*
X74326033Y-98206782D02*
X74278414Y-98302020D01*
X74278414Y-98302020D02*
X74230795Y-98349640D01*
X74230795Y-98349640D02*
X74135557Y-98397259D01*
X74135557Y-98397259D02*
X73849843Y-98397259D01*
X73849843Y-98397259D02*
X73754605Y-98349640D01*
X73754605Y-98349640D02*
X73706986Y-98302020D01*
X69206986Y-198880559D02*
X69206986Y-197880559D01*
X69206986Y-197880559D02*
X69540319Y-198594844D01*
X69540319Y-198594844D02*
X69873652Y-197880559D01*
X69873652Y-197880559D02*
X69873652Y-198880559D01*
X70683176Y-198356749D02*
X70826033Y-198404368D01*
X70826033Y-198404368D02*
X70873652Y-198451987D01*
X70873652Y-198451987D02*
X70921271Y-198547225D01*
X70921271Y-198547225D02*
X70921271Y-198690082D01*
X70921271Y-198690082D02*
X70873652Y-198785320D01*
X70873652Y-198785320D02*
X70826033Y-198832940D01*
X70826033Y-198832940D02*
X70730795Y-198880559D01*
X70730795Y-198880559D02*
X70349843Y-198880559D01*
X70349843Y-198880559D02*
X70349843Y-197880559D01*
X70349843Y-197880559D02*
X70683176Y-197880559D01*
X70683176Y-197880559D02*
X70778414Y-197928178D01*
X70778414Y-197928178D02*
X70826033Y-197975797D01*
X70826033Y-197975797D02*
X70873652Y-198071035D01*
X70873652Y-198071035D02*
X70873652Y-198166273D01*
X70873652Y-198166273D02*
X70826033Y-198261511D01*
X70826033Y-198261511D02*
X70778414Y-198309130D01*
X70778414Y-198309130D02*
X70683176Y-198356749D01*
X70683176Y-198356749D02*
X70349843Y-198356749D01*
X71302224Y-197975797D02*
X71349843Y-197928178D01*
X71349843Y-197928178D02*
X71445081Y-197880559D01*
X71445081Y-197880559D02*
X71683176Y-197880559D01*
X71683176Y-197880559D02*
X71778414Y-197928178D01*
X71778414Y-197928178D02*
X71826033Y-197975797D01*
X71826033Y-197975797D02*
X71873652Y-198071035D01*
X71873652Y-198071035D02*
X71873652Y-198166273D01*
X71873652Y-198166273D02*
X71826033Y-198309130D01*
X71826033Y-198309130D02*
X71254605Y-198880559D01*
X71254605Y-198880559D02*
X71873652Y-198880559D01*
X72730795Y-197880559D02*
X72540319Y-197880559D01*
X72540319Y-197880559D02*
X72445081Y-197928178D01*
X72445081Y-197928178D02*
X72397462Y-197975797D01*
X72397462Y-197975797D02*
X72302224Y-198118654D01*
X72302224Y-198118654D02*
X72254605Y-198309130D01*
X72254605Y-198309130D02*
X72254605Y-198690082D01*
X72254605Y-198690082D02*
X72302224Y-198785320D01*
X72302224Y-198785320D02*
X72349843Y-198832940D01*
X72349843Y-198832940D02*
X72445081Y-198880559D01*
X72445081Y-198880559D02*
X72635557Y-198880559D01*
X72635557Y-198880559D02*
X72730795Y-198832940D01*
X72730795Y-198832940D02*
X72778414Y-198785320D01*
X72778414Y-198785320D02*
X72826033Y-198690082D01*
X72826033Y-198690082D02*
X72826033Y-198451987D01*
X72826033Y-198451987D02*
X72778414Y-198356749D01*
X72778414Y-198356749D02*
X72730795Y-198309130D01*
X72730795Y-198309130D02*
X72635557Y-198261511D01*
X72635557Y-198261511D02*
X72445081Y-198261511D01*
X72445081Y-198261511D02*
X72349843Y-198309130D01*
X72349843Y-198309130D02*
X72302224Y-198356749D01*
X72302224Y-198356749D02*
X72254605Y-198451987D01*
X107097666Y-100969439D02*
X107097666Y-99969439D01*
X107097666Y-99969439D02*
X107430999Y-100683724D01*
X107430999Y-100683724D02*
X107764332Y-99969439D01*
X107764332Y-99969439D02*
X107764332Y-100969439D01*
X108573856Y-100445629D02*
X108716713Y-100493248D01*
X108716713Y-100493248D02*
X108764332Y-100540867D01*
X108764332Y-100540867D02*
X108811951Y-100636105D01*
X108811951Y-100636105D02*
X108811951Y-100778962D01*
X108811951Y-100778962D02*
X108764332Y-100874200D01*
X108764332Y-100874200D02*
X108716713Y-100921820D01*
X108716713Y-100921820D02*
X108621475Y-100969439D01*
X108621475Y-100969439D02*
X108240523Y-100969439D01*
X108240523Y-100969439D02*
X108240523Y-99969439D01*
X108240523Y-99969439D02*
X108573856Y-99969439D01*
X108573856Y-99969439D02*
X108669094Y-100017058D01*
X108669094Y-100017058D02*
X108716713Y-100064677D01*
X108716713Y-100064677D02*
X108764332Y-100159915D01*
X108764332Y-100159915D02*
X108764332Y-100255153D01*
X108764332Y-100255153D02*
X108716713Y-100350391D01*
X108716713Y-100350391D02*
X108669094Y-100398010D01*
X108669094Y-100398010D02*
X108573856Y-100445629D01*
X108573856Y-100445629D02*
X108240523Y-100445629D01*
X109669094Y-100302772D02*
X109669094Y-100969439D01*
X109430999Y-99921820D02*
X109192904Y-100636105D01*
X109192904Y-100636105D02*
X109811951Y-100636105D01*
X110383380Y-99969439D02*
X110478618Y-99969439D01*
X110478618Y-99969439D02*
X110573856Y-100017058D01*
X110573856Y-100017058D02*
X110621475Y-100064677D01*
X110621475Y-100064677D02*
X110669094Y-100159915D01*
X110669094Y-100159915D02*
X110716713Y-100350391D01*
X110716713Y-100350391D02*
X110716713Y-100588486D01*
X110716713Y-100588486D02*
X110669094Y-100778962D01*
X110669094Y-100778962D02*
X110621475Y-100874200D01*
X110621475Y-100874200D02*
X110573856Y-100921820D01*
X110573856Y-100921820D02*
X110478618Y-100969439D01*
X110478618Y-100969439D02*
X110383380Y-100969439D01*
X110383380Y-100969439D02*
X110288142Y-100921820D01*
X110288142Y-100921820D02*
X110240523Y-100874200D01*
X110240523Y-100874200D02*
X110192904Y-100778962D01*
X110192904Y-100778962D02*
X110145285Y-100588486D01*
X110145285Y-100588486D02*
X110145285Y-100350391D01*
X110145285Y-100350391D02*
X110192904Y-100159915D01*
X110192904Y-100159915D02*
X110240523Y-100064677D01*
X110240523Y-100064677D02*
X110288142Y-100017058D01*
X110288142Y-100017058D02*
X110383380Y-99969439D01*
X-960073Y-158133719D02*
X-960073Y-157133719D01*
X-960073Y-157133719D02*
X-626740Y-157848004D01*
X-626740Y-157848004D02*
X-293407Y-157133719D01*
X-293407Y-157133719D02*
X-293407Y-158133719D01*
X516116Y-157609909D02*
X658973Y-157657528D01*
X658973Y-157657528D02*
X706592Y-157705147D01*
X706592Y-157705147D02*
X754211Y-157800385D01*
X754211Y-157800385D02*
X754211Y-157943242D01*
X754211Y-157943242D02*
X706592Y-158038480D01*
X706592Y-158038480D02*
X658973Y-158086100D01*
X658973Y-158086100D02*
X563735Y-158133719D01*
X563735Y-158133719D02*
X182783Y-158133719D01*
X182783Y-158133719D02*
X182783Y-157133719D01*
X182783Y-157133719D02*
X516116Y-157133719D01*
X516116Y-157133719D02*
X611354Y-157181338D01*
X611354Y-157181338D02*
X658973Y-157228957D01*
X658973Y-157228957D02*
X706592Y-157324195D01*
X706592Y-157324195D02*
X706592Y-157419433D01*
X706592Y-157419433D02*
X658973Y-157514671D01*
X658973Y-157514671D02*
X611354Y-157562290D01*
X611354Y-157562290D02*
X516116Y-157609909D01*
X516116Y-157609909D02*
X182783Y-157609909D01*
X1611354Y-157133719D02*
X1420878Y-157133719D01*
X1420878Y-157133719D02*
X1325640Y-157181338D01*
X1325640Y-157181338D02*
X1278021Y-157228957D01*
X1278021Y-157228957D02*
X1182783Y-157371814D01*
X1182783Y-157371814D02*
X1135164Y-157562290D01*
X1135164Y-157562290D02*
X1135164Y-157943242D01*
X1135164Y-157943242D02*
X1182783Y-158038480D01*
X1182783Y-158038480D02*
X1230402Y-158086100D01*
X1230402Y-158086100D02*
X1325640Y-158133719D01*
X1325640Y-158133719D02*
X1516116Y-158133719D01*
X1516116Y-158133719D02*
X1611354Y-158086100D01*
X1611354Y-158086100D02*
X1658973Y-158038480D01*
X1658973Y-158038480D02*
X1706592Y-157943242D01*
X1706592Y-157943242D02*
X1706592Y-157705147D01*
X1706592Y-157705147D02*
X1658973Y-157609909D01*
X1658973Y-157609909D02*
X1611354Y-157562290D01*
X1611354Y-157562290D02*
X1516116Y-157514671D01*
X1516116Y-157514671D02*
X1325640Y-157514671D01*
X1325640Y-157514671D02*
X1230402Y-157562290D01*
X1230402Y-157562290D02*
X1182783Y-157609909D01*
X1182783Y-157609909D02*
X1135164Y-157705147D01*
X2325640Y-157133719D02*
X2420878Y-157133719D01*
X2420878Y-157133719D02*
X2516116Y-157181338D01*
X2516116Y-157181338D02*
X2563735Y-157228957D01*
X2563735Y-157228957D02*
X2611354Y-157324195D01*
X2611354Y-157324195D02*
X2658973Y-157514671D01*
X2658973Y-157514671D02*
X2658973Y-157752766D01*
X2658973Y-157752766D02*
X2611354Y-157943242D01*
X2611354Y-157943242D02*
X2563735Y-158038480D01*
X2563735Y-158038480D02*
X2516116Y-158086100D01*
X2516116Y-158086100D02*
X2420878Y-158133719D01*
X2420878Y-158133719D02*
X2325640Y-158133719D01*
X2325640Y-158133719D02*
X2230402Y-158086100D01*
X2230402Y-158086100D02*
X2182783Y-158038480D01*
X2182783Y-158038480D02*
X2135164Y-157943242D01*
X2135164Y-157943242D02*
X2087545Y-157752766D01*
X2087545Y-157752766D02*
X2087545Y-157514671D01*
X2087545Y-157514671D02*
X2135164Y-157324195D01*
X2135164Y-157324195D02*
X2182783Y-157228957D01*
X2182783Y-157228957D02*
X2230402Y-157181338D01*
X2230402Y-157181338D02*
X2325640Y-157133719D01*
X-2388563Y-50667319D02*
X-2388563Y-49667319D01*
X-2388563Y-49667319D02*
X-2055230Y-50381604D01*
X-2055230Y-50381604D02*
X-1721897Y-49667319D01*
X-1721897Y-49667319D02*
X-1721897Y-50667319D01*
X-912373Y-50143509D02*
X-769516Y-50191128D01*
X-769516Y-50191128D02*
X-721897Y-50238747D01*
X-721897Y-50238747D02*
X-674278Y-50333985D01*
X-674278Y-50333985D02*
X-674278Y-50476842D01*
X-674278Y-50476842D02*
X-721897Y-50572080D01*
X-721897Y-50572080D02*
X-769516Y-50619700D01*
X-769516Y-50619700D02*
X-864754Y-50667319D01*
X-864754Y-50667319D02*
X-1245706Y-50667319D01*
X-1245706Y-50667319D02*
X-1245706Y-49667319D01*
X-1245706Y-49667319D02*
X-912373Y-49667319D01*
X-912373Y-49667319D02*
X-817135Y-49714938D01*
X-817135Y-49714938D02*
X-769516Y-49762557D01*
X-769516Y-49762557D02*
X-721897Y-49857795D01*
X-721897Y-49857795D02*
X-721897Y-49953033D01*
X-721897Y-49953033D02*
X-769516Y-50048271D01*
X-769516Y-50048271D02*
X-817135Y-50095890D01*
X-817135Y-50095890D02*
X-912373Y-50143509D01*
X-912373Y-50143509D02*
X-1245706Y-50143509D01*
X182864Y-50000652D02*
X182864Y-50667319D01*
X-55230Y-49619700D02*
X-293325Y-50333985D01*
X-293325Y-50333985D02*
X325721Y-50333985D01*
X754293Y-50667319D02*
X944769Y-50667319D01*
X944769Y-50667319D02*
X1040007Y-50619700D01*
X1040007Y-50619700D02*
X1087626Y-50572080D01*
X1087626Y-50572080D02*
X1182864Y-50429223D01*
X1182864Y-50429223D02*
X1230483Y-50238747D01*
X1230483Y-50238747D02*
X1230483Y-49857795D01*
X1230483Y-49857795D02*
X1182864Y-49762557D01*
X1182864Y-49762557D02*
X1135245Y-49714938D01*
X1135245Y-49714938D02*
X1040007Y-49667319D01*
X1040007Y-49667319D02*
X849531Y-49667319D01*
X849531Y-49667319D02*
X754293Y-49714938D01*
X754293Y-49714938D02*
X706674Y-49762557D01*
X706674Y-49762557D02*
X659055Y-49857795D01*
X659055Y-49857795D02*
X659055Y-50095890D01*
X659055Y-50095890D02*
X706674Y-50191128D01*
X706674Y-50191128D02*
X754293Y-50238747D01*
X754293Y-50238747D02*
X849531Y-50286366D01*
X849531Y-50286366D02*
X1040007Y-50286366D01*
X1040007Y-50286366D02*
X1135245Y-50238747D01*
X1135245Y-50238747D02*
X1182864Y-50191128D01*
X1182864Y-50191128D02*
X1230483Y-50095890D01*
X72206986Y2086040D02*
X72206986Y3086040D01*
X72206986Y3086040D02*
X72540319Y2371755D01*
X72540319Y2371755D02*
X72873652Y3086040D01*
X72873652Y3086040D02*
X72873652Y2086040D01*
X73683176Y2609850D02*
X73826033Y2562231D01*
X73826033Y2562231D02*
X73873652Y2514612D01*
X73873652Y2514612D02*
X73921271Y2419374D01*
X73921271Y2419374D02*
X73921271Y2276517D01*
X73921271Y2276517D02*
X73873652Y2181279D01*
X73873652Y2181279D02*
X73826033Y2133660D01*
X73826033Y2133660D02*
X73730795Y2086040D01*
X73730795Y2086040D02*
X73349843Y2086040D01*
X73349843Y2086040D02*
X73349843Y3086040D01*
X73349843Y3086040D02*
X73683176Y3086040D01*
X73683176Y3086040D02*
X73778414Y3038421D01*
X73778414Y3038421D02*
X73826033Y2990802D01*
X73826033Y2990802D02*
X73873652Y2895564D01*
X73873652Y2895564D02*
X73873652Y2800326D01*
X73873652Y2800326D02*
X73826033Y2705088D01*
X73826033Y2705088D02*
X73778414Y2657469D01*
X73778414Y2657469D02*
X73683176Y2609850D01*
X73683176Y2609850D02*
X73349843Y2609850D01*
X74302224Y2990802D02*
X74349843Y3038421D01*
X74349843Y3038421D02*
X74445081Y3086040D01*
X74445081Y3086040D02*
X74683176Y3086040D01*
X74683176Y3086040D02*
X74778414Y3038421D01*
X74778414Y3038421D02*
X74826033Y2990802D01*
X74826033Y2990802D02*
X74873652Y2895564D01*
X74873652Y2895564D02*
X74873652Y2800326D01*
X74873652Y2800326D02*
X74826033Y2657469D01*
X74826033Y2657469D02*
X74254605Y2086040D01*
X74254605Y2086040D02*
X74873652Y2086040D01*
X75492700Y3086040D02*
X75587938Y3086040D01*
X75587938Y3086040D02*
X75683176Y3038421D01*
X75683176Y3038421D02*
X75730795Y2990802D01*
X75730795Y2990802D02*
X75778414Y2895564D01*
X75778414Y2895564D02*
X75826033Y2705088D01*
X75826033Y2705088D02*
X75826033Y2466993D01*
X75826033Y2466993D02*
X75778414Y2276517D01*
X75778414Y2276517D02*
X75730795Y2181279D01*
X75730795Y2181279D02*
X75683176Y2133660D01*
X75683176Y2133660D02*
X75587938Y2086040D01*
X75587938Y2086040D02*
X75492700Y2086040D01*
X75492700Y2086040D02*
X75397462Y2133660D01*
X75397462Y2133660D02*
X75349843Y2181279D01*
X75349843Y2181279D02*
X75302224Y2276517D01*
X75302224Y2276517D02*
X75254605Y2466993D01*
X75254605Y2466993D02*
X75254605Y2705088D01*
X75254605Y2705088D02*
X75302224Y2895564D01*
X75302224Y2895564D02*
X75349843Y2990802D01*
X75349843Y2990802D02*
X75397462Y3038421D01*
X75397462Y3038421D02*
X75492700Y3086040D01*
X31042496Y2395180D02*
X31042496Y3395180D01*
X31042496Y3395180D02*
X31375829Y2680895D01*
X31375829Y2680895D02*
X31709162Y3395180D01*
X31709162Y3395180D02*
X31709162Y2395180D01*
X32518686Y2918990D02*
X32661543Y2871371D01*
X32661543Y2871371D02*
X32709162Y2823752D01*
X32709162Y2823752D02*
X32756781Y2728514D01*
X32756781Y2728514D02*
X32756781Y2585657D01*
X32756781Y2585657D02*
X32709162Y2490419D01*
X32709162Y2490419D02*
X32661543Y2442800D01*
X32661543Y2442800D02*
X32566305Y2395180D01*
X32566305Y2395180D02*
X32185353Y2395180D01*
X32185353Y2395180D02*
X32185353Y3395180D01*
X32185353Y3395180D02*
X32518686Y3395180D01*
X32518686Y3395180D02*
X32613924Y3347561D01*
X32613924Y3347561D02*
X32661543Y3299942D01*
X32661543Y3299942D02*
X32709162Y3204704D01*
X32709162Y3204704D02*
X32709162Y3109466D01*
X32709162Y3109466D02*
X32661543Y3014228D01*
X32661543Y3014228D02*
X32613924Y2966609D01*
X32613924Y2966609D02*
X32518686Y2918990D01*
X32518686Y2918990D02*
X32185353Y2918990D01*
X33137734Y3299942D02*
X33185353Y3347561D01*
X33185353Y3347561D02*
X33280591Y3395180D01*
X33280591Y3395180D02*
X33518686Y3395180D01*
X33518686Y3395180D02*
X33613924Y3347561D01*
X33613924Y3347561D02*
X33661543Y3299942D01*
X33661543Y3299942D02*
X33709162Y3204704D01*
X33709162Y3204704D02*
X33709162Y3109466D01*
X33709162Y3109466D02*
X33661543Y2966609D01*
X33661543Y2966609D02*
X33090115Y2395180D01*
X33090115Y2395180D02*
X33709162Y2395180D01*
X-960073Y-155883719D02*
X-960073Y-154883719D01*
X-960073Y-154883719D02*
X-626740Y-155598004D01*
X-626740Y-155598004D02*
X-293407Y-154883719D01*
X-293407Y-154883719D02*
X-293407Y-155883719D01*
X516116Y-155359909D02*
X658973Y-155407528D01*
X658973Y-155407528D02*
X706592Y-155455147D01*
X706592Y-155455147D02*
X754211Y-155550385D01*
X754211Y-155550385D02*
X754211Y-155693242D01*
X754211Y-155693242D02*
X706592Y-155788480D01*
X706592Y-155788480D02*
X658973Y-155836100D01*
X658973Y-155836100D02*
X563735Y-155883719D01*
X563735Y-155883719D02*
X182783Y-155883719D01*
X182783Y-155883719D02*
X182783Y-154883719D01*
X182783Y-154883719D02*
X516116Y-154883719D01*
X516116Y-154883719D02*
X611354Y-154931338D01*
X611354Y-154931338D02*
X658973Y-154978957D01*
X658973Y-154978957D02*
X706592Y-155074195D01*
X706592Y-155074195D02*
X706592Y-155169433D01*
X706592Y-155169433D02*
X658973Y-155264671D01*
X658973Y-155264671D02*
X611354Y-155312290D01*
X611354Y-155312290D02*
X516116Y-155359909D01*
X516116Y-155359909D02*
X182783Y-155359909D01*
X1658973Y-154883719D02*
X1182783Y-154883719D01*
X1182783Y-154883719D02*
X1135164Y-155359909D01*
X1135164Y-155359909D02*
X1182783Y-155312290D01*
X1182783Y-155312290D02*
X1278021Y-155264671D01*
X1278021Y-155264671D02*
X1516116Y-155264671D01*
X1516116Y-155264671D02*
X1611354Y-155312290D01*
X1611354Y-155312290D02*
X1658973Y-155359909D01*
X1658973Y-155359909D02*
X1706592Y-155455147D01*
X1706592Y-155455147D02*
X1706592Y-155693242D01*
X1706592Y-155693242D02*
X1658973Y-155788480D01*
X1658973Y-155788480D02*
X1611354Y-155836100D01*
X1611354Y-155836100D02*
X1516116Y-155883719D01*
X1516116Y-155883719D02*
X1278021Y-155883719D01*
X1278021Y-155883719D02*
X1182783Y-155836100D01*
X1182783Y-155836100D02*
X1135164Y-155788480D01*
X2039926Y-154883719D02*
X2706592Y-154883719D01*
X2706592Y-154883719D02*
X2278021Y-155883719D01*
X33292496Y2395180D02*
X33292496Y3395180D01*
X33292496Y3395180D02*
X33625829Y2680895D01*
X33625829Y2680895D02*
X33959162Y3395180D01*
X33959162Y3395180D02*
X33959162Y2395180D01*
X34768686Y2918990D02*
X34911543Y2871371D01*
X34911543Y2871371D02*
X34959162Y2823752D01*
X34959162Y2823752D02*
X35006781Y2728514D01*
X35006781Y2728514D02*
X35006781Y2585657D01*
X35006781Y2585657D02*
X34959162Y2490419D01*
X34959162Y2490419D02*
X34911543Y2442800D01*
X34911543Y2442800D02*
X34816305Y2395180D01*
X34816305Y2395180D02*
X34435353Y2395180D01*
X34435353Y2395180D02*
X34435353Y3395180D01*
X34435353Y3395180D02*
X34768686Y3395180D01*
X34768686Y3395180D02*
X34863924Y3347561D01*
X34863924Y3347561D02*
X34911543Y3299942D01*
X34911543Y3299942D02*
X34959162Y3204704D01*
X34959162Y3204704D02*
X34959162Y3109466D01*
X34959162Y3109466D02*
X34911543Y3014228D01*
X34911543Y3014228D02*
X34863924Y2966609D01*
X34863924Y2966609D02*
X34768686Y2918990D01*
X34768686Y2918990D02*
X34435353Y2918990D01*
X35911543Y3395180D02*
X35435353Y3395180D01*
X35435353Y3395180D02*
X35387734Y2918990D01*
X35387734Y2918990D02*
X35435353Y2966609D01*
X35435353Y2966609D02*
X35530591Y3014228D01*
X35530591Y3014228D02*
X35768686Y3014228D01*
X35768686Y3014228D02*
X35863924Y2966609D01*
X35863924Y2966609D02*
X35911543Y2918990D01*
X35911543Y2918990D02*
X35959162Y2823752D01*
X35959162Y2823752D02*
X35959162Y2585657D01*
X35959162Y2585657D02*
X35911543Y2490419D01*
X35911543Y2490419D02*
X35863924Y2442800D01*
X35863924Y2442800D02*
X35768686Y2395180D01*
X35768686Y2395180D02*
X35530591Y2395180D01*
X35530591Y2395180D02*
X35435353Y2442800D01*
X35435353Y2442800D02*
X35387734Y2490419D01*
D11*
X119445333Y-93504271D02*
X118840571Y-93504271D01*
X118840571Y-93504271D02*
X118840571Y-92234271D01*
X119868666Y-93020461D02*
X120836286Y-93020461D01*
X121380571Y-93443795D02*
X121562000Y-93504271D01*
X121562000Y-93504271D02*
X121864381Y-93504271D01*
X121864381Y-93504271D02*
X121985333Y-93443795D01*
X121985333Y-93443795D02*
X122045809Y-93383318D01*
X122045809Y-93383318D02*
X122106286Y-93262366D01*
X122106286Y-93262366D02*
X122106286Y-93141414D01*
X122106286Y-93141414D02*
X122045809Y-93020461D01*
X122045809Y-93020461D02*
X121985333Y-92959985D01*
X121985333Y-92959985D02*
X121864381Y-92899509D01*
X121864381Y-92899509D02*
X121622476Y-92839033D01*
X121622476Y-92839033D02*
X121501524Y-92778556D01*
X121501524Y-92778556D02*
X121441047Y-92718080D01*
X121441047Y-92718080D02*
X121380571Y-92597128D01*
X121380571Y-92597128D02*
X121380571Y-92476175D01*
X121380571Y-92476175D02*
X121441047Y-92355223D01*
X121441047Y-92355223D02*
X121501524Y-92294747D01*
X121501524Y-92294747D02*
X121622476Y-92234271D01*
X121622476Y-92234271D02*
X121924857Y-92234271D01*
X121924857Y-92234271D02*
X122106286Y-92294747D01*
X123255333Y-93504271D02*
X122650571Y-93504271D01*
X122650571Y-93504271D02*
X122650571Y-92234271D01*
X123618190Y-92355223D02*
X123678666Y-92294747D01*
X123678666Y-92294747D02*
X123799619Y-92234271D01*
X123799619Y-92234271D02*
X124102000Y-92234271D01*
X124102000Y-92234271D02*
X124222952Y-92294747D01*
X124222952Y-92294747D02*
X124283428Y-92355223D01*
X124283428Y-92355223D02*
X124343905Y-92476175D01*
X124343905Y-92476175D02*
X124343905Y-92597128D01*
X124343905Y-92597128D02*
X124283428Y-92778556D01*
X124283428Y-92778556D02*
X123557714Y-93504271D01*
X123557714Y-93504271D02*
X124343905Y-93504271D01*
D10*
X30566306Y-205046789D02*
X30566306Y-204046789D01*
X30566306Y-204046789D02*
X30899639Y-204761074D01*
X30899639Y-204761074D02*
X31232972Y-204046789D01*
X31232972Y-204046789D02*
X31232972Y-205046789D01*
X32042496Y-204522979D02*
X32185353Y-204570598D01*
X32185353Y-204570598D02*
X32232972Y-204618217D01*
X32232972Y-204618217D02*
X32280591Y-204713455D01*
X32280591Y-204713455D02*
X32280591Y-204856312D01*
X32280591Y-204856312D02*
X32232972Y-204951550D01*
X32232972Y-204951550D02*
X32185353Y-204999170D01*
X32185353Y-204999170D02*
X32090115Y-205046789D01*
X32090115Y-205046789D02*
X31709163Y-205046789D01*
X31709163Y-205046789D02*
X31709163Y-204046789D01*
X31709163Y-204046789D02*
X32042496Y-204046789D01*
X32042496Y-204046789D02*
X32137734Y-204094408D01*
X32137734Y-204094408D02*
X32185353Y-204142027D01*
X32185353Y-204142027D02*
X32232972Y-204237265D01*
X32232972Y-204237265D02*
X32232972Y-204332503D01*
X32232972Y-204332503D02*
X32185353Y-204427741D01*
X32185353Y-204427741D02*
X32137734Y-204475360D01*
X32137734Y-204475360D02*
X32042496Y-204522979D01*
X32042496Y-204522979D02*
X31709163Y-204522979D01*
X33232972Y-205046789D02*
X32661544Y-205046789D01*
X32947258Y-205046789D02*
X32947258Y-204046789D01*
X32947258Y-204046789D02*
X32852020Y-204189646D01*
X32852020Y-204189646D02*
X32756782Y-204284884D01*
X32756782Y-204284884D02*
X32661544Y-204332503D01*
X33613925Y-204142027D02*
X33661544Y-204094408D01*
X33661544Y-204094408D02*
X33756782Y-204046789D01*
X33756782Y-204046789D02*
X33994877Y-204046789D01*
X33994877Y-204046789D02*
X34090115Y-204094408D01*
X34090115Y-204094408D02*
X34137734Y-204142027D01*
X34137734Y-204142027D02*
X34185353Y-204237265D01*
X34185353Y-204237265D02*
X34185353Y-204332503D01*
X34185353Y-204332503D02*
X34137734Y-204475360D01*
X34137734Y-204475360D02*
X33566306Y-205046789D01*
X33566306Y-205046789D02*
X34185353Y-205046789D01*
X-960073Y-156633719D02*
X-960073Y-155633719D01*
X-960073Y-155633719D02*
X-626740Y-156348004D01*
X-626740Y-156348004D02*
X-293407Y-155633719D01*
X-293407Y-155633719D02*
X-293407Y-156633719D01*
X516116Y-156109909D02*
X658973Y-156157528D01*
X658973Y-156157528D02*
X706592Y-156205147D01*
X706592Y-156205147D02*
X754211Y-156300385D01*
X754211Y-156300385D02*
X754211Y-156443242D01*
X754211Y-156443242D02*
X706592Y-156538480D01*
X706592Y-156538480D02*
X658973Y-156586100D01*
X658973Y-156586100D02*
X563735Y-156633719D01*
X563735Y-156633719D02*
X182783Y-156633719D01*
X182783Y-156633719D02*
X182783Y-155633719D01*
X182783Y-155633719D02*
X516116Y-155633719D01*
X516116Y-155633719D02*
X611354Y-155681338D01*
X611354Y-155681338D02*
X658973Y-155728957D01*
X658973Y-155728957D02*
X706592Y-155824195D01*
X706592Y-155824195D02*
X706592Y-155919433D01*
X706592Y-155919433D02*
X658973Y-156014671D01*
X658973Y-156014671D02*
X611354Y-156062290D01*
X611354Y-156062290D02*
X516116Y-156109909D01*
X516116Y-156109909D02*
X182783Y-156109909D01*
X1658973Y-155633719D02*
X1182783Y-155633719D01*
X1182783Y-155633719D02*
X1135164Y-156109909D01*
X1135164Y-156109909D02*
X1182783Y-156062290D01*
X1182783Y-156062290D02*
X1278021Y-156014671D01*
X1278021Y-156014671D02*
X1516116Y-156014671D01*
X1516116Y-156014671D02*
X1611354Y-156062290D01*
X1611354Y-156062290D02*
X1658973Y-156109909D01*
X1658973Y-156109909D02*
X1706592Y-156205147D01*
X1706592Y-156205147D02*
X1706592Y-156443242D01*
X1706592Y-156443242D02*
X1658973Y-156538480D01*
X1658973Y-156538480D02*
X1611354Y-156586100D01*
X1611354Y-156586100D02*
X1516116Y-156633719D01*
X1516116Y-156633719D02*
X1278021Y-156633719D01*
X1278021Y-156633719D02*
X1182783Y-156586100D01*
X1182783Y-156586100D02*
X1135164Y-156538480D01*
X2278021Y-156062290D02*
X2182783Y-156014671D01*
X2182783Y-156014671D02*
X2135164Y-155967052D01*
X2135164Y-155967052D02*
X2087545Y-155871814D01*
X2087545Y-155871814D02*
X2087545Y-155824195D01*
X2087545Y-155824195D02*
X2135164Y-155728957D01*
X2135164Y-155728957D02*
X2182783Y-155681338D01*
X2182783Y-155681338D02*
X2278021Y-155633719D01*
X2278021Y-155633719D02*
X2468497Y-155633719D01*
X2468497Y-155633719D02*
X2563735Y-155681338D01*
X2563735Y-155681338D02*
X2611354Y-155728957D01*
X2611354Y-155728957D02*
X2658973Y-155824195D01*
X2658973Y-155824195D02*
X2658973Y-155871814D01*
X2658973Y-155871814D02*
X2611354Y-155967052D01*
X2611354Y-155967052D02*
X2563735Y-156014671D01*
X2563735Y-156014671D02*
X2468497Y-156062290D01*
X2468497Y-156062290D02*
X2278021Y-156062290D01*
X2278021Y-156062290D02*
X2182783Y-156109909D01*
X2182783Y-156109909D02*
X2135164Y-156157528D01*
X2135164Y-156157528D02*
X2087545Y-156252766D01*
X2087545Y-156252766D02*
X2087545Y-156443242D01*
X2087545Y-156443242D02*
X2135164Y-156538480D01*
X2135164Y-156538480D02*
X2182783Y-156586100D01*
X2182783Y-156586100D02*
X2278021Y-156633719D01*
X2278021Y-156633719D02*
X2468497Y-156633719D01*
X2468497Y-156633719D02*
X2563735Y-156586100D01*
X2563735Y-156586100D02*
X2611354Y-156538480D01*
X2611354Y-156538480D02*
X2658973Y-156443242D01*
X2658973Y-156443242D02*
X2658973Y-156252766D01*
X2658973Y-156252766D02*
X2611354Y-156157528D01*
X2611354Y-156157528D02*
X2563735Y-156109909D01*
X2563735Y-156109909D02*
X2468497Y-156062290D01*
X104847666Y-100969439D02*
X104847666Y-99969439D01*
X104847666Y-99969439D02*
X105180999Y-100683724D01*
X105180999Y-100683724D02*
X105514332Y-99969439D01*
X105514332Y-99969439D02*
X105514332Y-100969439D01*
X106323856Y-100445629D02*
X106466713Y-100493248D01*
X106466713Y-100493248D02*
X106514332Y-100540867D01*
X106514332Y-100540867D02*
X106561951Y-100636105D01*
X106561951Y-100636105D02*
X106561951Y-100778962D01*
X106561951Y-100778962D02*
X106514332Y-100874200D01*
X106514332Y-100874200D02*
X106466713Y-100921820D01*
X106466713Y-100921820D02*
X106371475Y-100969439D01*
X106371475Y-100969439D02*
X105990523Y-100969439D01*
X105990523Y-100969439D02*
X105990523Y-99969439D01*
X105990523Y-99969439D02*
X106323856Y-99969439D01*
X106323856Y-99969439D02*
X106419094Y-100017058D01*
X106419094Y-100017058D02*
X106466713Y-100064677D01*
X106466713Y-100064677D02*
X106514332Y-100159915D01*
X106514332Y-100159915D02*
X106514332Y-100255153D01*
X106514332Y-100255153D02*
X106466713Y-100350391D01*
X106466713Y-100350391D02*
X106419094Y-100398010D01*
X106419094Y-100398010D02*
X106323856Y-100445629D01*
X106323856Y-100445629D02*
X105990523Y-100445629D01*
X106895285Y-99969439D02*
X107514332Y-99969439D01*
X107514332Y-99969439D02*
X107180999Y-100350391D01*
X107180999Y-100350391D02*
X107323856Y-100350391D01*
X107323856Y-100350391D02*
X107419094Y-100398010D01*
X107419094Y-100398010D02*
X107466713Y-100445629D01*
X107466713Y-100445629D02*
X107514332Y-100540867D01*
X107514332Y-100540867D02*
X107514332Y-100778962D01*
X107514332Y-100778962D02*
X107466713Y-100874200D01*
X107466713Y-100874200D02*
X107419094Y-100921820D01*
X107419094Y-100921820D02*
X107323856Y-100969439D01*
X107323856Y-100969439D02*
X107038142Y-100969439D01*
X107038142Y-100969439D02*
X106942904Y-100921820D01*
X106942904Y-100921820D02*
X106895285Y-100874200D01*
X107847666Y-99969439D02*
X108514332Y-99969439D01*
X108514332Y-99969439D02*
X108085761Y-100969439D01*
X30292496Y2395180D02*
X30292496Y3395180D01*
X30292496Y3395180D02*
X30625829Y2680895D01*
X30625829Y2680895D02*
X30959162Y3395180D01*
X30959162Y3395180D02*
X30959162Y2395180D01*
X31768686Y2918990D02*
X31911543Y2871371D01*
X31911543Y2871371D02*
X31959162Y2823752D01*
X31959162Y2823752D02*
X32006781Y2728514D01*
X32006781Y2728514D02*
X32006781Y2585657D01*
X32006781Y2585657D02*
X31959162Y2490419D01*
X31959162Y2490419D02*
X31911543Y2442800D01*
X31911543Y2442800D02*
X31816305Y2395180D01*
X31816305Y2395180D02*
X31435353Y2395180D01*
X31435353Y2395180D02*
X31435353Y3395180D01*
X31435353Y3395180D02*
X31768686Y3395180D01*
X31768686Y3395180D02*
X31863924Y3347561D01*
X31863924Y3347561D02*
X31911543Y3299942D01*
X31911543Y3299942D02*
X31959162Y3204704D01*
X31959162Y3204704D02*
X31959162Y3109466D01*
X31959162Y3109466D02*
X31911543Y3014228D01*
X31911543Y3014228D02*
X31863924Y2966609D01*
X31863924Y2966609D02*
X31768686Y2918990D01*
X31768686Y2918990D02*
X31435353Y2918990D01*
X32959162Y2395180D02*
X32387734Y2395180D01*
X32673448Y2395180D02*
X32673448Y3395180D01*
X32673448Y3395180D02*
X32578210Y3252323D01*
X32578210Y3252323D02*
X32482972Y3157085D01*
X32482972Y3157085D02*
X32387734Y3109466D01*
X106347666Y-198875979D02*
X106347666Y-197875979D01*
X106347666Y-197875979D02*
X106680999Y-198590264D01*
X106680999Y-198590264D02*
X107014332Y-197875979D01*
X107014332Y-197875979D02*
X107014332Y-198875979D01*
X107823856Y-198352169D02*
X107966713Y-198399788D01*
X107966713Y-198399788D02*
X108014332Y-198447407D01*
X108014332Y-198447407D02*
X108061951Y-198542645D01*
X108061951Y-198542645D02*
X108061951Y-198685502D01*
X108061951Y-198685502D02*
X108014332Y-198780740D01*
X108014332Y-198780740D02*
X107966713Y-198828360D01*
X107966713Y-198828360D02*
X107871475Y-198875979D01*
X107871475Y-198875979D02*
X107490523Y-198875979D01*
X107490523Y-198875979D02*
X107490523Y-197875979D01*
X107490523Y-197875979D02*
X107823856Y-197875979D01*
X107823856Y-197875979D02*
X107919094Y-197923598D01*
X107919094Y-197923598D02*
X107966713Y-197971217D01*
X107966713Y-197971217D02*
X108014332Y-198066455D01*
X108014332Y-198066455D02*
X108014332Y-198161693D01*
X108014332Y-198161693D02*
X107966713Y-198256931D01*
X107966713Y-198256931D02*
X107919094Y-198304550D01*
X107919094Y-198304550D02*
X107823856Y-198352169D01*
X107823856Y-198352169D02*
X107490523Y-198352169D01*
X108919094Y-198209312D02*
X108919094Y-198875979D01*
X108680999Y-197828360D02*
X108442904Y-198542645D01*
X108442904Y-198542645D02*
X109061951Y-198542645D01*
X109871475Y-198209312D02*
X109871475Y-198875979D01*
X109633380Y-197828360D02*
X109395285Y-198542645D01*
X109395285Y-198542645D02*
X110014332Y-198542645D01*
X107097666Y-198875979D02*
X107097666Y-197875979D01*
X107097666Y-197875979D02*
X107430999Y-198590264D01*
X107430999Y-198590264D02*
X107764332Y-197875979D01*
X107764332Y-197875979D02*
X107764332Y-198875979D01*
X108573856Y-198352169D02*
X108716713Y-198399788D01*
X108716713Y-198399788D02*
X108764332Y-198447407D01*
X108764332Y-198447407D02*
X108811951Y-198542645D01*
X108811951Y-198542645D02*
X108811951Y-198685502D01*
X108811951Y-198685502D02*
X108764332Y-198780740D01*
X108764332Y-198780740D02*
X108716713Y-198828360D01*
X108716713Y-198828360D02*
X108621475Y-198875979D01*
X108621475Y-198875979D02*
X108240523Y-198875979D01*
X108240523Y-198875979D02*
X108240523Y-197875979D01*
X108240523Y-197875979D02*
X108573856Y-197875979D01*
X108573856Y-197875979D02*
X108669094Y-197923598D01*
X108669094Y-197923598D02*
X108716713Y-197971217D01*
X108716713Y-197971217D02*
X108764332Y-198066455D01*
X108764332Y-198066455D02*
X108764332Y-198161693D01*
X108764332Y-198161693D02*
X108716713Y-198256931D01*
X108716713Y-198256931D02*
X108669094Y-198304550D01*
X108669094Y-198304550D02*
X108573856Y-198352169D01*
X108573856Y-198352169D02*
X108240523Y-198352169D01*
X109669094Y-198209312D02*
X109669094Y-198875979D01*
X109430999Y-197828360D02*
X109192904Y-198542645D01*
X109192904Y-198542645D02*
X109811951Y-198542645D01*
X110669094Y-197875979D02*
X110192904Y-197875979D01*
X110192904Y-197875979D02*
X110145285Y-198352169D01*
X110145285Y-198352169D02*
X110192904Y-198304550D01*
X110192904Y-198304550D02*
X110288142Y-198256931D01*
X110288142Y-198256931D02*
X110526237Y-198256931D01*
X110526237Y-198256931D02*
X110621475Y-198304550D01*
X110621475Y-198304550D02*
X110669094Y-198352169D01*
X110669094Y-198352169D02*
X110716713Y-198447407D01*
X110716713Y-198447407D02*
X110716713Y-198685502D01*
X110716713Y-198685502D02*
X110669094Y-198780740D01*
X110669094Y-198780740D02*
X110621475Y-198828360D01*
X110621475Y-198828360D02*
X110526237Y-198875979D01*
X110526237Y-198875979D02*
X110288142Y-198875979D01*
X110288142Y-198875979D02*
X110192904Y-198828360D01*
X110192904Y-198828360D02*
X110145285Y-198780740D01*
X-960073Y-155133719D02*
X-960073Y-154133719D01*
X-960073Y-154133719D02*
X-626740Y-154848004D01*
X-626740Y-154848004D02*
X-293407Y-154133719D01*
X-293407Y-154133719D02*
X-293407Y-155133719D01*
X516116Y-154609909D02*
X658973Y-154657528D01*
X658973Y-154657528D02*
X706592Y-154705147D01*
X706592Y-154705147D02*
X754211Y-154800385D01*
X754211Y-154800385D02*
X754211Y-154943242D01*
X754211Y-154943242D02*
X706592Y-155038480D01*
X706592Y-155038480D02*
X658973Y-155086100D01*
X658973Y-155086100D02*
X563735Y-155133719D01*
X563735Y-155133719D02*
X182783Y-155133719D01*
X182783Y-155133719D02*
X182783Y-154133719D01*
X182783Y-154133719D02*
X516116Y-154133719D01*
X516116Y-154133719D02*
X611354Y-154181338D01*
X611354Y-154181338D02*
X658973Y-154228957D01*
X658973Y-154228957D02*
X706592Y-154324195D01*
X706592Y-154324195D02*
X706592Y-154419433D01*
X706592Y-154419433D02*
X658973Y-154514671D01*
X658973Y-154514671D02*
X611354Y-154562290D01*
X611354Y-154562290D02*
X516116Y-154609909D01*
X516116Y-154609909D02*
X182783Y-154609909D01*
X1658973Y-154133719D02*
X1182783Y-154133719D01*
X1182783Y-154133719D02*
X1135164Y-154609909D01*
X1135164Y-154609909D02*
X1182783Y-154562290D01*
X1182783Y-154562290D02*
X1278021Y-154514671D01*
X1278021Y-154514671D02*
X1516116Y-154514671D01*
X1516116Y-154514671D02*
X1611354Y-154562290D01*
X1611354Y-154562290D02*
X1658973Y-154609909D01*
X1658973Y-154609909D02*
X1706592Y-154705147D01*
X1706592Y-154705147D02*
X1706592Y-154943242D01*
X1706592Y-154943242D02*
X1658973Y-155038480D01*
X1658973Y-155038480D02*
X1611354Y-155086100D01*
X1611354Y-155086100D02*
X1516116Y-155133719D01*
X1516116Y-155133719D02*
X1278021Y-155133719D01*
X1278021Y-155133719D02*
X1182783Y-155086100D01*
X1182783Y-155086100D02*
X1135164Y-155038480D01*
X2563735Y-154133719D02*
X2373259Y-154133719D01*
X2373259Y-154133719D02*
X2278021Y-154181338D01*
X2278021Y-154181338D02*
X2230402Y-154228957D01*
X2230402Y-154228957D02*
X2135164Y-154371814D01*
X2135164Y-154371814D02*
X2087545Y-154562290D01*
X2087545Y-154562290D02*
X2087545Y-154943242D01*
X2087545Y-154943242D02*
X2135164Y-155038480D01*
X2135164Y-155038480D02*
X2182783Y-155086100D01*
X2182783Y-155086100D02*
X2278021Y-155133719D01*
X2278021Y-155133719D02*
X2468497Y-155133719D01*
X2468497Y-155133719D02*
X2563735Y-155086100D01*
X2563735Y-155086100D02*
X2611354Y-155038480D01*
X2611354Y-155038480D02*
X2658973Y-154943242D01*
X2658973Y-154943242D02*
X2658973Y-154705147D01*
X2658973Y-154705147D02*
X2611354Y-154609909D01*
X2611354Y-154609909D02*
X2563735Y-154562290D01*
X2563735Y-154562290D02*
X2468497Y-154514671D01*
X2468497Y-154514671D02*
X2278021Y-154514671D01*
X2278021Y-154514671D02*
X2182783Y-154562290D01*
X2182783Y-154562290D02*
X2135164Y-154609909D01*
X2135164Y-154609909D02*
X2087545Y-154705147D01*
X72206986Y-98397259D02*
X72206986Y-97397259D01*
X72206986Y-97397259D02*
X72540319Y-98111544D01*
X72540319Y-98111544D02*
X72873652Y-97397259D01*
X72873652Y-97397259D02*
X72873652Y-98397259D01*
X73683176Y-97873449D02*
X73826033Y-97921068D01*
X73826033Y-97921068D02*
X73873652Y-97968687D01*
X73873652Y-97968687D02*
X73921271Y-98063925D01*
X73921271Y-98063925D02*
X73921271Y-98206782D01*
X73921271Y-98206782D02*
X73873652Y-98302020D01*
X73873652Y-98302020D02*
X73826033Y-98349640D01*
X73826033Y-98349640D02*
X73730795Y-98397259D01*
X73730795Y-98397259D02*
X73349843Y-98397259D01*
X73349843Y-98397259D02*
X73349843Y-97397259D01*
X73349843Y-97397259D02*
X73683176Y-97397259D01*
X73683176Y-97397259D02*
X73778414Y-97444878D01*
X73778414Y-97444878D02*
X73826033Y-97492497D01*
X73826033Y-97492497D02*
X73873652Y-97587735D01*
X73873652Y-97587735D02*
X73873652Y-97682973D01*
X73873652Y-97682973D02*
X73826033Y-97778211D01*
X73826033Y-97778211D02*
X73778414Y-97825830D01*
X73778414Y-97825830D02*
X73683176Y-97873449D01*
X73683176Y-97873449D02*
X73349843Y-97873449D01*
X74302224Y-97492497D02*
X74349843Y-97444878D01*
X74349843Y-97444878D02*
X74445081Y-97397259D01*
X74445081Y-97397259D02*
X74683176Y-97397259D01*
X74683176Y-97397259D02*
X74778414Y-97444878D01*
X74778414Y-97444878D02*
X74826033Y-97492497D01*
X74826033Y-97492497D02*
X74873652Y-97587735D01*
X74873652Y-97587735D02*
X74873652Y-97682973D01*
X74873652Y-97682973D02*
X74826033Y-97825830D01*
X74826033Y-97825830D02*
X74254605Y-98397259D01*
X74254605Y-98397259D02*
X74873652Y-98397259D01*
X75778414Y-97397259D02*
X75302224Y-97397259D01*
X75302224Y-97397259D02*
X75254605Y-97873449D01*
X75254605Y-97873449D02*
X75302224Y-97825830D01*
X75302224Y-97825830D02*
X75397462Y-97778211D01*
X75397462Y-97778211D02*
X75635557Y-97778211D01*
X75635557Y-97778211D02*
X75730795Y-97825830D01*
X75730795Y-97825830D02*
X75778414Y-97873449D01*
X75778414Y-97873449D02*
X75826033Y-97968687D01*
X75826033Y-97968687D02*
X75826033Y-98206782D01*
X75826033Y-98206782D02*
X75778414Y-98302020D01*
X75778414Y-98302020D02*
X75730795Y-98349640D01*
X75730795Y-98349640D02*
X75635557Y-98397259D01*
X75635557Y-98397259D02*
X75397462Y-98397259D01*
X75397462Y-98397259D02*
X75302224Y-98349640D01*
X75302224Y-98349640D02*
X75254605Y-98302020D01*
X72206986Y-198880559D02*
X72206986Y-197880559D01*
X72206986Y-197880559D02*
X72540319Y-198594844D01*
X72540319Y-198594844D02*
X72873652Y-197880559D01*
X72873652Y-197880559D02*
X72873652Y-198880559D01*
X73683176Y-198356749D02*
X73826033Y-198404368D01*
X73826033Y-198404368D02*
X73873652Y-198451987D01*
X73873652Y-198451987D02*
X73921271Y-198547225D01*
X73921271Y-198547225D02*
X73921271Y-198690082D01*
X73921271Y-198690082D02*
X73873652Y-198785320D01*
X73873652Y-198785320D02*
X73826033Y-198832940D01*
X73826033Y-198832940D02*
X73730795Y-198880559D01*
X73730795Y-198880559D02*
X73349843Y-198880559D01*
X73349843Y-198880559D02*
X73349843Y-197880559D01*
X73349843Y-197880559D02*
X73683176Y-197880559D01*
X73683176Y-197880559D02*
X73778414Y-197928178D01*
X73778414Y-197928178D02*
X73826033Y-197975797D01*
X73826033Y-197975797D02*
X73873652Y-198071035D01*
X73873652Y-198071035D02*
X73873652Y-198166273D01*
X73873652Y-198166273D02*
X73826033Y-198261511D01*
X73826033Y-198261511D02*
X73778414Y-198309130D01*
X73778414Y-198309130D02*
X73683176Y-198356749D01*
X73683176Y-198356749D02*
X73349843Y-198356749D01*
X74254605Y-197880559D02*
X74873652Y-197880559D01*
X74873652Y-197880559D02*
X74540319Y-198261511D01*
X74540319Y-198261511D02*
X74683176Y-198261511D01*
X74683176Y-198261511D02*
X74778414Y-198309130D01*
X74778414Y-198309130D02*
X74826033Y-198356749D01*
X74826033Y-198356749D02*
X74873652Y-198451987D01*
X74873652Y-198451987D02*
X74873652Y-198690082D01*
X74873652Y-198690082D02*
X74826033Y-198785320D01*
X74826033Y-198785320D02*
X74778414Y-198832940D01*
X74778414Y-198832940D02*
X74683176Y-198880559D01*
X74683176Y-198880559D02*
X74397462Y-198880559D01*
X74397462Y-198880559D02*
X74302224Y-198832940D01*
X74302224Y-198832940D02*
X74254605Y-198785320D01*
X75492700Y-197880559D02*
X75587938Y-197880559D01*
X75587938Y-197880559D02*
X75683176Y-197928178D01*
X75683176Y-197928178D02*
X75730795Y-197975797D01*
X75730795Y-197975797D02*
X75778414Y-198071035D01*
X75778414Y-198071035D02*
X75826033Y-198261511D01*
X75826033Y-198261511D02*
X75826033Y-198499606D01*
X75826033Y-198499606D02*
X75778414Y-198690082D01*
X75778414Y-198690082D02*
X75730795Y-198785320D01*
X75730795Y-198785320D02*
X75683176Y-198832940D01*
X75683176Y-198832940D02*
X75587938Y-198880559D01*
X75587938Y-198880559D02*
X75492700Y-198880559D01*
X75492700Y-198880559D02*
X75397462Y-198832940D01*
X75397462Y-198832940D02*
X75349843Y-198785320D01*
X75349843Y-198785320D02*
X75302224Y-198690082D01*
X75302224Y-198690082D02*
X75254605Y-198499606D01*
X75254605Y-198499606D02*
X75254605Y-198261511D01*
X75254605Y-198261511D02*
X75302224Y-198071035D01*
X75302224Y-198071035D02*
X75349843Y-197975797D01*
X75349843Y-197975797D02*
X75397462Y-197928178D01*
X75397462Y-197928178D02*
X75492700Y-197880559D01*
X32066306Y-205046789D02*
X32066306Y-204046789D01*
X32066306Y-204046789D02*
X32399639Y-204761074D01*
X32399639Y-204761074D02*
X32732972Y-204046789D01*
X32732972Y-204046789D02*
X32732972Y-205046789D01*
X33542496Y-204522979D02*
X33685353Y-204570598D01*
X33685353Y-204570598D02*
X33732972Y-204618217D01*
X33732972Y-204618217D02*
X33780591Y-204713455D01*
X33780591Y-204713455D02*
X33780591Y-204856312D01*
X33780591Y-204856312D02*
X33732972Y-204951550D01*
X33732972Y-204951550D02*
X33685353Y-204999170D01*
X33685353Y-204999170D02*
X33590115Y-205046789D01*
X33590115Y-205046789D02*
X33209163Y-205046789D01*
X33209163Y-205046789D02*
X33209163Y-204046789D01*
X33209163Y-204046789D02*
X33542496Y-204046789D01*
X33542496Y-204046789D02*
X33637734Y-204094408D01*
X33637734Y-204094408D02*
X33685353Y-204142027D01*
X33685353Y-204142027D02*
X33732972Y-204237265D01*
X33732972Y-204237265D02*
X33732972Y-204332503D01*
X33732972Y-204332503D02*
X33685353Y-204427741D01*
X33685353Y-204427741D02*
X33637734Y-204475360D01*
X33637734Y-204475360D02*
X33542496Y-204522979D01*
X33542496Y-204522979D02*
X33209163Y-204522979D01*
X34732972Y-205046789D02*
X34161544Y-205046789D01*
X34447258Y-205046789D02*
X34447258Y-204046789D01*
X34447258Y-204046789D02*
X34352020Y-204189646D01*
X34352020Y-204189646D02*
X34256782Y-204284884D01*
X34256782Y-204284884D02*
X34161544Y-204332503D01*
X35590115Y-204380122D02*
X35590115Y-205046789D01*
X35352020Y-203999170D02*
X35113925Y-204713455D01*
X35113925Y-204713455D02*
X35732972Y-204713455D01*
X70706986Y2086040D02*
X70706986Y3086040D01*
X70706986Y3086040D02*
X71040319Y2371755D01*
X71040319Y2371755D02*
X71373652Y3086040D01*
X71373652Y3086040D02*
X71373652Y2086040D01*
X72183176Y2609850D02*
X72326033Y2562231D01*
X72326033Y2562231D02*
X72373652Y2514612D01*
X72373652Y2514612D02*
X72421271Y2419374D01*
X72421271Y2419374D02*
X72421271Y2276517D01*
X72421271Y2276517D02*
X72373652Y2181279D01*
X72373652Y2181279D02*
X72326033Y2133660D01*
X72326033Y2133660D02*
X72230795Y2086040D01*
X72230795Y2086040D02*
X71849843Y2086040D01*
X71849843Y2086040D02*
X71849843Y3086040D01*
X71849843Y3086040D02*
X72183176Y3086040D01*
X72183176Y3086040D02*
X72278414Y3038421D01*
X72278414Y3038421D02*
X72326033Y2990802D01*
X72326033Y2990802D02*
X72373652Y2895564D01*
X72373652Y2895564D02*
X72373652Y2800326D01*
X72373652Y2800326D02*
X72326033Y2705088D01*
X72326033Y2705088D02*
X72278414Y2657469D01*
X72278414Y2657469D02*
X72183176Y2609850D01*
X72183176Y2609850D02*
X71849843Y2609850D01*
X73373652Y2086040D02*
X72802224Y2086040D01*
X73087938Y2086040D02*
X73087938Y3086040D01*
X73087938Y3086040D02*
X72992700Y2943183D01*
X72992700Y2943183D02*
X72897462Y2847945D01*
X72897462Y2847945D02*
X72802224Y2800326D01*
X73945081Y2657469D02*
X73849843Y2705088D01*
X73849843Y2705088D02*
X73802224Y2752707D01*
X73802224Y2752707D02*
X73754605Y2847945D01*
X73754605Y2847945D02*
X73754605Y2895564D01*
X73754605Y2895564D02*
X73802224Y2990802D01*
X73802224Y2990802D02*
X73849843Y3038421D01*
X73849843Y3038421D02*
X73945081Y3086040D01*
X73945081Y3086040D02*
X74135557Y3086040D01*
X74135557Y3086040D02*
X74230795Y3038421D01*
X74230795Y3038421D02*
X74278414Y2990802D01*
X74278414Y2990802D02*
X74326033Y2895564D01*
X74326033Y2895564D02*
X74326033Y2847945D01*
X74326033Y2847945D02*
X74278414Y2752707D01*
X74278414Y2752707D02*
X74230795Y2705088D01*
X74230795Y2705088D02*
X74135557Y2657469D01*
X74135557Y2657469D02*
X73945081Y2657469D01*
X73945081Y2657469D02*
X73849843Y2609850D01*
X73849843Y2609850D02*
X73802224Y2562231D01*
X73802224Y2562231D02*
X73754605Y2466993D01*
X73754605Y2466993D02*
X73754605Y2276517D01*
X73754605Y2276517D02*
X73802224Y2181279D01*
X73802224Y2181279D02*
X73849843Y2133660D01*
X73849843Y2133660D02*
X73945081Y2086040D01*
X73945081Y2086040D02*
X74135557Y2086040D01*
X74135557Y2086040D02*
X74230795Y2133660D01*
X74230795Y2133660D02*
X74278414Y2181279D01*
X74278414Y2181279D02*
X74326033Y2276517D01*
X74326033Y2276517D02*
X74326033Y2466993D01*
X74326033Y2466993D02*
X74278414Y2562231D01*
X74278414Y2562231D02*
X74230795Y2609850D01*
X74230795Y2609850D02*
X74135557Y2657469D01*
X31792496Y2395180D02*
X31792496Y3395180D01*
X31792496Y3395180D02*
X32125829Y2680895D01*
X32125829Y2680895D02*
X32459162Y3395180D01*
X32459162Y3395180D02*
X32459162Y2395180D01*
X33268686Y2918990D02*
X33411543Y2871371D01*
X33411543Y2871371D02*
X33459162Y2823752D01*
X33459162Y2823752D02*
X33506781Y2728514D01*
X33506781Y2728514D02*
X33506781Y2585657D01*
X33506781Y2585657D02*
X33459162Y2490419D01*
X33459162Y2490419D02*
X33411543Y2442800D01*
X33411543Y2442800D02*
X33316305Y2395180D01*
X33316305Y2395180D02*
X32935353Y2395180D01*
X32935353Y2395180D02*
X32935353Y3395180D01*
X32935353Y3395180D02*
X33268686Y3395180D01*
X33268686Y3395180D02*
X33363924Y3347561D01*
X33363924Y3347561D02*
X33411543Y3299942D01*
X33411543Y3299942D02*
X33459162Y3204704D01*
X33459162Y3204704D02*
X33459162Y3109466D01*
X33459162Y3109466D02*
X33411543Y3014228D01*
X33411543Y3014228D02*
X33363924Y2966609D01*
X33363924Y2966609D02*
X33268686Y2918990D01*
X33268686Y2918990D02*
X32935353Y2918990D01*
X33840115Y3395180D02*
X34459162Y3395180D01*
X34459162Y3395180D02*
X34125829Y3014228D01*
X34125829Y3014228D02*
X34268686Y3014228D01*
X34268686Y3014228D02*
X34363924Y2966609D01*
X34363924Y2966609D02*
X34411543Y2918990D01*
X34411543Y2918990D02*
X34459162Y2823752D01*
X34459162Y2823752D02*
X34459162Y2585657D01*
X34459162Y2585657D02*
X34411543Y2490419D01*
X34411543Y2490419D02*
X34363924Y2442800D01*
X34363924Y2442800D02*
X34268686Y2395180D01*
X34268686Y2395180D02*
X33982972Y2395180D01*
X33982972Y2395180D02*
X33887734Y2442800D01*
X33887734Y2442800D02*
X33840115Y2490419D01*
X31042496Y-100597759D02*
X31042496Y-99597759D01*
X31042496Y-99597759D02*
X31375829Y-100312044D01*
X31375829Y-100312044D02*
X31709162Y-99597759D01*
X31709162Y-99597759D02*
X31709162Y-100597759D01*
X32518686Y-100073949D02*
X32661543Y-100121568D01*
X32661543Y-100121568D02*
X32709162Y-100169187D01*
X32709162Y-100169187D02*
X32756781Y-100264425D01*
X32756781Y-100264425D02*
X32756781Y-100407282D01*
X32756781Y-100407282D02*
X32709162Y-100502520D01*
X32709162Y-100502520D02*
X32661543Y-100550140D01*
X32661543Y-100550140D02*
X32566305Y-100597759D01*
X32566305Y-100597759D02*
X32185353Y-100597759D01*
X32185353Y-100597759D02*
X32185353Y-99597759D01*
X32185353Y-99597759D02*
X32518686Y-99597759D01*
X32518686Y-99597759D02*
X32613924Y-99645378D01*
X32613924Y-99645378D02*
X32661543Y-99692997D01*
X32661543Y-99692997D02*
X32709162Y-99788235D01*
X32709162Y-99788235D02*
X32709162Y-99883473D01*
X32709162Y-99883473D02*
X32661543Y-99978711D01*
X32661543Y-99978711D02*
X32613924Y-100026330D01*
X32613924Y-100026330D02*
X32518686Y-100073949D01*
X32518686Y-100073949D02*
X32185353Y-100073949D01*
X33090115Y-99597759D02*
X33756781Y-99597759D01*
X33756781Y-99597759D02*
X33328210Y-100597759D01*
X71456986Y-198880559D02*
X71456986Y-197880559D01*
X71456986Y-197880559D02*
X71790319Y-198594844D01*
X71790319Y-198594844D02*
X72123652Y-197880559D01*
X72123652Y-197880559D02*
X72123652Y-198880559D01*
X72933176Y-198356749D02*
X73076033Y-198404368D01*
X73076033Y-198404368D02*
X73123652Y-198451987D01*
X73123652Y-198451987D02*
X73171271Y-198547225D01*
X73171271Y-198547225D02*
X73171271Y-198690082D01*
X73171271Y-198690082D02*
X73123652Y-198785320D01*
X73123652Y-198785320D02*
X73076033Y-198832940D01*
X73076033Y-198832940D02*
X72980795Y-198880559D01*
X72980795Y-198880559D02*
X72599843Y-198880559D01*
X72599843Y-198880559D02*
X72599843Y-197880559D01*
X72599843Y-197880559D02*
X72933176Y-197880559D01*
X72933176Y-197880559D02*
X73028414Y-197928178D01*
X73028414Y-197928178D02*
X73076033Y-197975797D01*
X73076033Y-197975797D02*
X73123652Y-198071035D01*
X73123652Y-198071035D02*
X73123652Y-198166273D01*
X73123652Y-198166273D02*
X73076033Y-198261511D01*
X73076033Y-198261511D02*
X73028414Y-198309130D01*
X73028414Y-198309130D02*
X72933176Y-198356749D01*
X72933176Y-198356749D02*
X72599843Y-198356749D01*
X73552224Y-197975797D02*
X73599843Y-197928178D01*
X73599843Y-197928178D02*
X73695081Y-197880559D01*
X73695081Y-197880559D02*
X73933176Y-197880559D01*
X73933176Y-197880559D02*
X74028414Y-197928178D01*
X74028414Y-197928178D02*
X74076033Y-197975797D01*
X74076033Y-197975797D02*
X74123652Y-198071035D01*
X74123652Y-198071035D02*
X74123652Y-198166273D01*
X74123652Y-198166273D02*
X74076033Y-198309130D01*
X74076033Y-198309130D02*
X73504605Y-198880559D01*
X73504605Y-198880559D02*
X74123652Y-198880559D01*
X74599843Y-198880559D02*
X74790319Y-198880559D01*
X74790319Y-198880559D02*
X74885557Y-198832940D01*
X74885557Y-198832940D02*
X74933176Y-198785320D01*
X74933176Y-198785320D02*
X75028414Y-198642463D01*
X75028414Y-198642463D02*
X75076033Y-198451987D01*
X75076033Y-198451987D02*
X75076033Y-198071035D01*
X75076033Y-198071035D02*
X75028414Y-197975797D01*
X75028414Y-197975797D02*
X74980795Y-197928178D01*
X74980795Y-197928178D02*
X74885557Y-197880559D01*
X74885557Y-197880559D02*
X74695081Y-197880559D01*
X74695081Y-197880559D02*
X74599843Y-197928178D01*
X74599843Y-197928178D02*
X74552224Y-197975797D01*
X74552224Y-197975797D02*
X74504605Y-198071035D01*
X74504605Y-198071035D02*
X74504605Y-198309130D01*
X74504605Y-198309130D02*
X74552224Y-198404368D01*
X74552224Y-198404368D02*
X74599843Y-198451987D01*
X74599843Y-198451987D02*
X74695081Y-198499606D01*
X74695081Y-198499606D02*
X74885557Y-198499606D01*
X74885557Y-198499606D02*
X74980795Y-198451987D01*
X74980795Y-198451987D02*
X75028414Y-198404368D01*
X75028414Y-198404368D02*
X75076033Y-198309130D01*
D11*
X21185681Y-200220771D02*
X20762347Y-199616009D01*
X20459966Y-200220771D02*
X20459966Y-198950771D01*
X20459966Y-198950771D02*
X20943776Y-198950771D01*
X20943776Y-198950771D02*
X21064728Y-199011247D01*
X21064728Y-199011247D02*
X21125205Y-199071723D01*
X21125205Y-199071723D02*
X21185681Y-199192675D01*
X21185681Y-199192675D02*
X21185681Y-199374104D01*
X21185681Y-199374104D02*
X21125205Y-199495056D01*
X21125205Y-199495056D02*
X21064728Y-199555533D01*
X21064728Y-199555533D02*
X20943776Y-199616009D01*
X20943776Y-199616009D02*
X20459966Y-199616009D01*
X21729966Y-199736961D02*
X22697586Y-199736961D01*
X23241871Y-200160295D02*
X23423300Y-200220771D01*
X23423300Y-200220771D02*
X23725681Y-200220771D01*
X23725681Y-200220771D02*
X23846633Y-200160295D01*
X23846633Y-200160295D02*
X23907109Y-200099818D01*
X23907109Y-200099818D02*
X23967586Y-199978866D01*
X23967586Y-199978866D02*
X23967586Y-199857914D01*
X23967586Y-199857914D02*
X23907109Y-199736961D01*
X23907109Y-199736961D02*
X23846633Y-199676485D01*
X23846633Y-199676485D02*
X23725681Y-199616009D01*
X23725681Y-199616009D02*
X23483776Y-199555533D01*
X23483776Y-199555533D02*
X23362824Y-199495056D01*
X23362824Y-199495056D02*
X23302347Y-199434580D01*
X23302347Y-199434580D02*
X23241871Y-199313628D01*
X23241871Y-199313628D02*
X23241871Y-199192675D01*
X23241871Y-199192675D02*
X23302347Y-199071723D01*
X23302347Y-199071723D02*
X23362824Y-199011247D01*
X23362824Y-199011247D02*
X23483776Y-198950771D01*
X23483776Y-198950771D02*
X23786157Y-198950771D01*
X23786157Y-198950771D02*
X23967586Y-199011247D01*
X25237586Y-200220771D02*
X24814252Y-199616009D01*
X24511871Y-200220771D02*
X24511871Y-198950771D01*
X24511871Y-198950771D02*
X24995681Y-198950771D01*
X24995681Y-198950771D02*
X25116633Y-199011247D01*
X25116633Y-199011247D02*
X25177110Y-199071723D01*
X25177110Y-199071723D02*
X25237586Y-199192675D01*
X25237586Y-199192675D02*
X25237586Y-199374104D01*
X25237586Y-199374104D02*
X25177110Y-199495056D01*
X25177110Y-199495056D02*
X25116633Y-199555533D01*
X25116633Y-199555533D02*
X24995681Y-199616009D01*
X24995681Y-199616009D02*
X24511871Y-199616009D01*
X25660919Y-198950771D02*
X26447110Y-198950771D01*
X26447110Y-198950771D02*
X26023776Y-199434580D01*
X26023776Y-199434580D02*
X26205205Y-199434580D01*
X26205205Y-199434580D02*
X26326157Y-199495056D01*
X26326157Y-199495056D02*
X26386633Y-199555533D01*
X26386633Y-199555533D02*
X26447110Y-199676485D01*
X26447110Y-199676485D02*
X26447110Y-199978866D01*
X26447110Y-199978866D02*
X26386633Y-200099818D01*
X26386633Y-200099818D02*
X26326157Y-200160295D01*
X26326157Y-200160295D02*
X26205205Y-200220771D01*
X26205205Y-200220771D02*
X25842348Y-200220771D01*
X25842348Y-200220771D02*
X25721395Y-200160295D01*
X25721395Y-200160295D02*
X25660919Y-200099818D01*
D10*
X71456986Y-98397259D02*
X71456986Y-97397259D01*
X71456986Y-97397259D02*
X71790319Y-98111544D01*
X71790319Y-98111544D02*
X72123652Y-97397259D01*
X72123652Y-97397259D02*
X72123652Y-98397259D01*
X72933176Y-97873449D02*
X73076033Y-97921068D01*
X73076033Y-97921068D02*
X73123652Y-97968687D01*
X73123652Y-97968687D02*
X73171271Y-98063925D01*
X73171271Y-98063925D02*
X73171271Y-98206782D01*
X73171271Y-98206782D02*
X73123652Y-98302020D01*
X73123652Y-98302020D02*
X73076033Y-98349640D01*
X73076033Y-98349640D02*
X72980795Y-98397259D01*
X72980795Y-98397259D02*
X72599843Y-98397259D01*
X72599843Y-98397259D02*
X72599843Y-97397259D01*
X72599843Y-97397259D02*
X72933176Y-97397259D01*
X72933176Y-97397259D02*
X73028414Y-97444878D01*
X73028414Y-97444878D02*
X73076033Y-97492497D01*
X73076033Y-97492497D02*
X73123652Y-97587735D01*
X73123652Y-97587735D02*
X73123652Y-97682973D01*
X73123652Y-97682973D02*
X73076033Y-97778211D01*
X73076033Y-97778211D02*
X73028414Y-97825830D01*
X73028414Y-97825830D02*
X72933176Y-97873449D01*
X72933176Y-97873449D02*
X72599843Y-97873449D01*
X73552224Y-97492497D02*
X73599843Y-97444878D01*
X73599843Y-97444878D02*
X73695081Y-97397259D01*
X73695081Y-97397259D02*
X73933176Y-97397259D01*
X73933176Y-97397259D02*
X74028414Y-97444878D01*
X74028414Y-97444878D02*
X74076033Y-97492497D01*
X74076033Y-97492497D02*
X74123652Y-97587735D01*
X74123652Y-97587735D02*
X74123652Y-97682973D01*
X74123652Y-97682973D02*
X74076033Y-97825830D01*
X74076033Y-97825830D02*
X73504605Y-98397259D01*
X73504605Y-98397259D02*
X74123652Y-98397259D01*
X74980795Y-97730592D02*
X74980795Y-98397259D01*
X74742700Y-97349640D02*
X74504605Y-98063925D01*
X74504605Y-98063925D02*
X75123652Y-98063925D01*
X29816306Y-205046789D02*
X29816306Y-204046789D01*
X29816306Y-204046789D02*
X30149639Y-204761074D01*
X30149639Y-204761074D02*
X30482972Y-204046789D01*
X30482972Y-204046789D02*
X30482972Y-205046789D01*
X31292496Y-204522979D02*
X31435353Y-204570598D01*
X31435353Y-204570598D02*
X31482972Y-204618217D01*
X31482972Y-204618217D02*
X31530591Y-204713455D01*
X31530591Y-204713455D02*
X31530591Y-204856312D01*
X31530591Y-204856312D02*
X31482972Y-204951550D01*
X31482972Y-204951550D02*
X31435353Y-204999170D01*
X31435353Y-204999170D02*
X31340115Y-205046789D01*
X31340115Y-205046789D02*
X30959163Y-205046789D01*
X30959163Y-205046789D02*
X30959163Y-204046789D01*
X30959163Y-204046789D02*
X31292496Y-204046789D01*
X31292496Y-204046789D02*
X31387734Y-204094408D01*
X31387734Y-204094408D02*
X31435353Y-204142027D01*
X31435353Y-204142027D02*
X31482972Y-204237265D01*
X31482972Y-204237265D02*
X31482972Y-204332503D01*
X31482972Y-204332503D02*
X31435353Y-204427741D01*
X31435353Y-204427741D02*
X31387734Y-204475360D01*
X31387734Y-204475360D02*
X31292496Y-204522979D01*
X31292496Y-204522979D02*
X30959163Y-204522979D01*
X32482972Y-205046789D02*
X31911544Y-205046789D01*
X32197258Y-205046789D02*
X32197258Y-204046789D01*
X32197258Y-204046789D02*
X32102020Y-204189646D01*
X32102020Y-204189646D02*
X32006782Y-204284884D01*
X32006782Y-204284884D02*
X31911544Y-204332503D01*
X33435353Y-205046789D02*
X32863925Y-205046789D01*
X33149639Y-205046789D02*
X33149639Y-204046789D01*
X33149639Y-204046789D02*
X33054401Y-204189646D01*
X33054401Y-204189646D02*
X32959163Y-204284884D01*
X32959163Y-204284884D02*
X32863925Y-204332503D01*
X32816306Y-205046789D02*
X32816306Y-204046789D01*
X32816306Y-204046789D02*
X33149639Y-204761074D01*
X33149639Y-204761074D02*
X33482972Y-204046789D01*
X33482972Y-204046789D02*
X33482972Y-205046789D01*
X34292496Y-204522979D02*
X34435353Y-204570598D01*
X34435353Y-204570598D02*
X34482972Y-204618217D01*
X34482972Y-204618217D02*
X34530591Y-204713455D01*
X34530591Y-204713455D02*
X34530591Y-204856312D01*
X34530591Y-204856312D02*
X34482972Y-204951550D01*
X34482972Y-204951550D02*
X34435353Y-204999170D01*
X34435353Y-204999170D02*
X34340115Y-205046789D01*
X34340115Y-205046789D02*
X33959163Y-205046789D01*
X33959163Y-205046789D02*
X33959163Y-204046789D01*
X33959163Y-204046789D02*
X34292496Y-204046789D01*
X34292496Y-204046789D02*
X34387734Y-204094408D01*
X34387734Y-204094408D02*
X34435353Y-204142027D01*
X34435353Y-204142027D02*
X34482972Y-204237265D01*
X34482972Y-204237265D02*
X34482972Y-204332503D01*
X34482972Y-204332503D02*
X34435353Y-204427741D01*
X34435353Y-204427741D02*
X34387734Y-204475360D01*
X34387734Y-204475360D02*
X34292496Y-204522979D01*
X34292496Y-204522979D02*
X33959163Y-204522979D01*
X35482972Y-205046789D02*
X34911544Y-205046789D01*
X35197258Y-205046789D02*
X35197258Y-204046789D01*
X35197258Y-204046789D02*
X35102020Y-204189646D01*
X35102020Y-204189646D02*
X35006782Y-204284884D01*
X35006782Y-204284884D02*
X34911544Y-204332503D01*
X36387734Y-204046789D02*
X35911544Y-204046789D01*
X35911544Y-204046789D02*
X35863925Y-204522979D01*
X35863925Y-204522979D02*
X35911544Y-204475360D01*
X35911544Y-204475360D02*
X36006782Y-204427741D01*
X36006782Y-204427741D02*
X36244877Y-204427741D01*
X36244877Y-204427741D02*
X36340115Y-204475360D01*
X36340115Y-204475360D02*
X36387734Y-204522979D01*
X36387734Y-204522979D02*
X36435353Y-204618217D01*
X36435353Y-204618217D02*
X36435353Y-204856312D01*
X36435353Y-204856312D02*
X36387734Y-204951550D01*
X36387734Y-204951550D02*
X36340115Y-204999170D01*
X36340115Y-204999170D02*
X36244877Y-205046789D01*
X36244877Y-205046789D02*
X36006782Y-205046789D01*
X36006782Y-205046789D02*
X35911544Y-204999170D01*
X35911544Y-204999170D02*
X35863925Y-204951550D01*
%TO.C,L-MHL1*%
D12*
X30400000Y-22000000D02*
G75*
G02*
X25600000Y-22000000I-2400000J0D01*
G01*
X25600000Y-22000000D02*
G75*
G02*
X30400000Y-22000000I2400000J0D01*
G01*
%TO.C,R-MHR1*%
X11967400Y-155716400D02*
G75*
G02*
X7167400Y-155716400I-2400000J0D01*
G01*
X7167400Y-155716400D02*
G75*
G02*
X11967400Y-155716400I2400000J0D01*
G01*
%TO.C,R-MHR3*%
X117967400Y-127716400D02*
G75*
G02*
X113167400Y-127716400I-2400000J0D01*
G01*
X113167400Y-127716400D02*
G75*
G02*
X117967400Y-127716400I2400000J0D01*
G01*
%TO.C,R-MHR4*%
X143967400Y-150716400D02*
G75*
G02*
X139167400Y-150716400I-2400000J0D01*
G01*
X139167400Y-150716400D02*
G75*
G02*
X143967400Y-150716400I2400000J0D01*
G01*
%TO.C,R-MHR2*%
X48967400Y-198716400D02*
G75*
G02*
X44167400Y-198716400I-2400000J0D01*
G01*
X44167400Y-198716400D02*
G75*
G02*
X48967400Y-198716400I2400000J0D01*
G01*
%TO.C,L-MHL4*%
X102400000Y-92000000D02*
G75*
G02*
X97600000Y-92000000I-2400000J0D01*
G01*
X97600000Y-92000000D02*
G75*
G02*
X102400000Y-92000000I2400000J0D01*
G01*
%TO.C,L-MHL2*%
X40400000Y-66000000D02*
G75*
G02*
X35600000Y-66000000I-2400000J0D01*
G01*
X35600000Y-66000000D02*
G75*
G02*
X40400000Y-66000000I2400000J0D01*
G01*
%TO.C,L-MHL3*%
X139400000Y-50000000D02*
G75*
G02*
X134600000Y-50000000I-2400000J0D01*
G01*
X134600000Y-50000000D02*
G75*
G02*
X139400000Y-50000000I2400000J0D01*
G01*
%TO.C,R-JR1*%
D13*
X8926400Y-171416400D02*
X8926400Y-158016400D01*
X9776400Y-164716400D02*
X9126400Y-164016400D01*
X9776400Y-164716400D02*
X9126400Y-165416400D01*
%TO.C,L-JL1*%
X137209000Y-58000000D02*
X137859000Y-57300000D01*
X137209000Y-58000000D02*
X137859000Y-58700000D01*
X138059000Y-51300000D02*
X138059000Y-64700000D01*
%TD*%
%LPC*%
D14*
%TO.C,TH3*%
X-6153000Y-151587260D03*
%TD*%
D15*
%TO.C,MB51*%
X144159760Y-51162500D03*
%TD*%
%TO.C,MB10*%
X34602020Y-103342940D03*
%TD*%
D16*
%TO.C,L-MHL1*%
X28000000Y-22000000D03*
%TD*%
D15*
%TO.C,MB21*%
X70992700Y-101142440D03*
%TD*%
%TO.C,MB17*%
X71742700Y-659140D03*
%TD*%
D16*
%TO.C,R-MHR1*%
X9567400Y-155716400D03*
%TD*%
D15*
%TO.C,MB54*%
X144159760Y-53412500D03*
%TD*%
%TO.C,MB64*%
X145588250Y-160128900D03*
%TD*%
%TO.C,MB47*%
X-602850Y-51912500D03*
%TD*%
%TO.C,MB9*%
X33852020Y-103342940D03*
%TD*%
%TO.C,MB39*%
X108133380Y-103714620D03*
%TD*%
D17*
%TO.C,R-SR1*%
X109744150Y-109256400D03*
D18*
X109744150Y-124496400D03*
D17*
X133556650Y-109256400D03*
D18*
X133556650Y-124496400D03*
%TD*%
D15*
%TO.C,MB42*%
X106633380Y-201621160D03*
%TD*%
%TO.C,MB4*%
X33852020Y-350000D03*
%TD*%
%TO.C,MB31*%
X105883380Y-4350750D03*
%TD*%
%TO.C,MB38*%
X107383380Y-103714620D03*
%TD*%
%TO.C,MB52*%
X144159760Y-51912500D03*
%TD*%
%TO.C,MB53*%
X144159760Y-52662500D03*
%TD*%
%TO.C,MB55*%
X144159760Y-54162500D03*
%TD*%
%TO.C,MB13*%
X33102020Y-207791970D03*
%TD*%
D14*
%TO.C,TH1*%
X-6153000Y-60454140D03*
%TD*%
D16*
%TO.C,R-MHR3*%
X115567400Y-127716400D03*
%TD*%
D15*
%TO.C,MB16*%
X70992700Y-659140D03*
%TD*%
D17*
%TO.C,L-SL1*%
X6190750Y-59690000D03*
D18*
X6190750Y-74930000D03*
D17*
X30003250Y-59690000D03*
D18*
X30003250Y-74930000D03*
%TD*%
D15*
%TO.C,MB33*%
X107383380Y-4350750D03*
%TD*%
%TO.C,MB36*%
X105883380Y-103714620D03*
%TD*%
D16*
%TO.C,R-MHR4*%
X141567400Y-150716400D03*
%TD*%
%TO.C,R-MHR2*%
X46567400Y-198716400D03*
%TD*%
D14*
%TO.C,TH4*%
X151138400Y-151587260D03*
%TD*%
D15*
%TO.C,MB61*%
X145588250Y-157878900D03*
%TD*%
%TO.C,MB6*%
X31602020Y-103342940D03*
%TD*%
%TO.C,MB35*%
X108883380Y-4350750D03*
%TD*%
%TO.C,MB59*%
X825640Y-160128900D03*
%TD*%
%TO.C,MB62*%
X145588250Y-158628900D03*
%TD*%
%TO.C,MB27*%
X71742700Y-201625740D03*
%TD*%
D17*
%TO.C,R-SR2*%
X114982150Y-166406400D03*
D18*
X114982150Y-181646400D03*
D17*
X138794650Y-166406400D03*
D18*
X138794650Y-181646400D03*
%TD*%
D16*
%TO.C,L-MHL4*%
X100000000Y-92000000D03*
%TD*%
D15*
%TO.C,MB65*%
X145588250Y-160878900D03*
%TD*%
D16*
%TO.C,L-MHL2*%
X38000000Y-66000000D03*
%TD*%
D15*
%TO.C,MB43*%
X107383380Y-201621160D03*
%TD*%
%TO.C,MB41*%
X105883380Y-201621160D03*
%TD*%
%TO.C,MB8*%
X33102020Y-103342940D03*
%TD*%
D16*
%TO.C,L-MHL3*%
X137000000Y-50000000D03*
%TD*%
D15*
%TO.C,MB63*%
X145588250Y-159378900D03*
%TD*%
%TO.C,MB46*%
X-602850Y-51162500D03*
%TD*%
%TO.C,MB48*%
X-602850Y-52662500D03*
%TD*%
%TO.C,MB22*%
X71742700Y-101142440D03*
%TD*%
%TO.C,MB19*%
X73242700Y-659140D03*
%TD*%
%TO.C,MB32*%
X106633380Y-4350750D03*
%TD*%
%TO.C,MB28*%
X72492700Y-201625740D03*
%TD*%
%TO.C,MB34*%
X108133380Y-4350750D03*
%TD*%
%TO.C,MB50*%
X-602850Y-54162500D03*
%TD*%
%TO.C,MB23*%
X72492700Y-101142440D03*
%TD*%
%TO.C,MB26*%
X70992700Y-201625740D03*
%TD*%
%TO.C,MB40*%
X108883380Y-103714620D03*
%TD*%
%TO.C,MB60*%
X825640Y-160878900D03*
%TD*%
%TO.C,MB49*%
X-602850Y-53412500D03*
%TD*%
%TO.C,MB20*%
X73992700Y-659140D03*
%TD*%
%TO.C,MB2*%
X32352020Y-350000D03*
%TD*%
%TO.C,MB57*%
X825640Y-158628900D03*
%TD*%
%TO.C,MB5*%
X34602020Y-350000D03*
%TD*%
D17*
%TO.C,L-SL2*%
X132228970Y-101686551D03*
D18*
X134613031Y-86634181D03*
D17*
X108709641Y-97961455D03*
D18*
X111093702Y-82909085D03*
%TD*%
D15*
%TO.C,MB12*%
X32352020Y-207791970D03*
%TD*%
%TO.C,MB58*%
X825640Y-159378900D03*
%TD*%
%TO.C,MB37*%
X106633380Y-103714620D03*
%TD*%
%TO.C,MB1*%
X31602020Y-350000D03*
%TD*%
D14*
%TO.C,TH2*%
X151138400Y-60454140D03*
%TD*%
D15*
%TO.C,MB44*%
X108133380Y-201621160D03*
%TD*%
%TO.C,MB45*%
X108883380Y-201621160D03*
%TD*%
%TO.C,MB56*%
X825640Y-157878900D03*
%TD*%
%TO.C,MB25*%
X73992700Y-101142440D03*
%TD*%
%TO.C,MB30*%
X73992700Y-201625740D03*
%TD*%
%TO.C,MB14*%
X33852020Y-207791970D03*
%TD*%
%TO.C,MB18*%
X72492700Y-659140D03*
%TD*%
%TO.C,MB3*%
X33102020Y-350000D03*
%TD*%
%TO.C,MB7*%
X32352020Y-103342940D03*
%TD*%
%TO.C,MB29*%
X73242700Y-201625740D03*
%TD*%
D17*
%TO.C,R-SR3*%
X36275659Y-204677955D03*
D18*
X33891598Y-189625585D03*
D17*
X12756330Y-208403051D03*
D18*
X10372269Y-193350681D03*
%TD*%
D15*
%TO.C,MB24*%
X73242700Y-101142440D03*
%TD*%
%TO.C,MB11*%
X31602020Y-207791970D03*
%TD*%
%TO.C,MB15*%
X34602020Y-207791970D03*
%TD*%
%LPD*%
M02*
