%TF.GenerationSoftware,KiCad,Pcbnew,10.0.5*%
%TF.CreationDate,2026-09-13T20:06:24-04:00*%
%TF.ProjectId,Symm60HE-Panel,53796d6d-3630-4484-952d-50616e656c2e,rev?*%
%TF.SameCoordinates,Original*%
%TF.FileFunction,Legend,Bot*%
%TF.FilePolarity,Positive*%
%FSLAX46Y46*%
G04 Gerber Fmt 4.6, Leading zero omitted, Abs format (unit mm)*
G04 Created by KiCad (PCBNEW 10.0.5) date 2026-09-13 20:06:24*
%MOMM*%
%LPD*%
G01*
G04 APERTURE LIST*
G04 Aperture macros list*
%AMRoundRect*
0 Rectangle with rounded corners*
0 $1 Rounding radius*
0 $2 $3 $4 $5 $6 $7 $8 $9 X,Y pos of 4 corners*
0 Add a 4 corners polygon primitive as box body*
4,1,4,$2,$3,$4,$5,$6,$7,$8,$9,$2,$3,0*
0 Add four circle primitives for the rounded corners*
1,1,$1+$1,$2,$3*
1,1,$1+$1,$4,$5*
1,1,$1+$1,$6,$7*
1,1,$1+$1,$8,$9*
0 Add four rect primitives between the rounded corners*
20,1,$1+$1,$2,$3,$4,$5,0*
20,1,$1+$1,$4,$5,$6,$7,0*
20,1,$1+$1,$6,$7,$8,$9,0*
20,1,$1+$1,$8,$9,$2,$3,0*%
G04 Aperture macros list end*
%ADD10C,0.150000*%
%ADD11C,0.120000*%
%ADD12C,0.310000*%
%ADD13C,4.400000*%
%ADD14C,3.048000*%
%ADD15C,3.987800*%
%ADD16RoundRect,0.140000X-0.134658X-0.174262X0.145207X-0.165574X0.134658X0.174262X-0.145207X0.165574X0*%
%ADD17RoundRect,0.140000X-0.125969X-0.180643X0.153136X-0.158270X0.125969X0.180643X-0.153136X0.158270X0*%
%ADD18RoundRect,0.150000X-0.150000X0.512500X-0.150000X-0.512500X0.150000X-0.512500X0.150000X0.512500X0*%
%ADD19RoundRect,0.140000X-0.140000X-0.170000X0.140000X-0.170000X0.140000X0.170000X-0.140000X0.170000X0*%
%ADD20RoundRect,0.140000X-0.120603X-0.184269X0.157724X-0.153699X0.120603X0.184269X-0.157724X0.153699X0*%
%ADD21RoundRect,0.140000X-0.133417X-0.175214X0.146380X-0.164539X0.133417X0.175214X-0.146380X0.164539X0*%
%ADD22RoundRect,0.150000X-0.950000X0.150000X-0.950000X-0.150000X0.950000X-0.150000X0.950000X0.150000X0*%
%ADD23RoundRect,0.360000X-0.940000X0.540000X-0.940000X-0.540000X0.940000X-0.540000X0.940000X0.540000X0*%
%ADD24RoundRect,0.140000X-0.129976X-0.177782X0.149559X-0.161654X0.129976X0.177782X-0.149559X0.161654X0*%
%ADD25RoundRect,0.150000X0.150000X-0.825000X0.150000X0.825000X-0.150000X0.825000X-0.150000X-0.825000X0*%
%ADD26RoundRect,0.150000X-0.202499X0.494116X-0.095873X-0.525323X0.202499X-0.494116X0.095873X0.525323X0*%
%ADD27RoundRect,0.140000X-0.139911X-0.170073X0.140089X-0.169927X0.139911X0.170073X-0.140089X0.169927X0*%
%ADD28RoundRect,0.150000X-0.202361X0.494172X-0.096020X-0.525296X0.202361X-0.494172X0.096020X0.525296X0*%
%ADD29RoundRect,0.150000X-0.165776X0.507617X-0.134081X-0.516893X0.165776X-0.507617X0.134081X0.516893X0*%
%ADD30RoundRect,0.140000X-0.121556X-0.183641X0.156925X-0.154514X0.121556X0.183641X-0.156925X0.154514X0*%
%ADD31RoundRect,0.140000X-0.139638X-0.170298X0.140362X-0.169702X0.139638X0.170298X-0.140362X0.169702X0*%
%ADD32RoundRect,0.150000X-0.179270X0.503009X-0.120232X-0.520289X0.179270X-0.503009X0.120232X0.520289X0*%
%ADD33RoundRect,0.150000X-0.165829X0.507599X-0.134026X-0.516907X0.165829X-0.507599X0.134026X0.516907X0*%
%ADD34RoundRect,0.140000X-0.119856X-0.184756X0.158345X-0.153059X0.119856X0.184756X-0.158345X0.153059X0*%
%ADD35RoundRect,0.140000X-0.121607X-0.183607X0.156882X-0.154558X0.121607X0.183607X-0.156882X0.154558X0*%
%ADD36RoundRect,0.150000X-0.159829X0.509520X-0.140116X-0.515290X0.159829X-0.509520X0.140116X0.515290X0*%
%ADD37RoundRect,0.150000X-0.184239X0.501211X-0.115077X-0.521453X0.184239X-0.501211X0.115077X0.521453X0*%
%ADD38RoundRect,0.140000X-0.138018X-0.171613X0.141964X-0.168364X0.138018X0.171613X-0.141964X0.168364X0*%
%ADD39RoundRect,0.150000X-0.205058X0.493059X-0.093149X-0.525813X0.205058X-0.493059X0.093149X0.525813X0*%
%ADD40RoundRect,0.140000X-0.136705X-0.172661X0.143244X-0.167276X0.136705X0.172661X-0.143244X0.167276X0*%
%ADD41RoundRect,0.150000X-0.150268X0.512421X-0.149732X-0.512578X0.150268X-0.512421X0.149732X0.512578X0*%
%ADD42RoundRect,0.150000X-0.155938X0.510725X-0.144042X-0.514206X0.155938X-0.510725X0.144042X0.514206X0*%
%ADD43RoundRect,0.140000X-0.124613X-0.181581X0.154317X-0.157119X0.124613X0.181581X-0.154317X0.157119X0*%
%ADD44RoundRect,0.150000X-0.194201X0.497436X-0.104652X-0.523645X0.194201X-0.497436X0.104652X0.523645X0*%
%ADD45RoundRect,0.140000X-0.128210X-0.179059X0.151152X-0.160166X0.128210X0.179059X-0.151152X0.160166X0*%
%ADD46RoundRect,0.140000X-0.119955X-0.184691X0.158262X-0.153144X0.119955X0.184691X-0.158262X0.153144X0*%
%ADD47RoundRect,0.140000X-0.134676X-0.174248X0.145190X-0.165590X0.134676X0.174248X-0.145190X0.165590X0*%
%ADD48RoundRect,0.150000X-0.207052X0.492225X-0.091019X-0.526186X0.207052X-0.492225X0.091019X0.526186X0*%
%ADD49RoundRect,0.150000X-0.190471X0.498876X-0.108570X-0.522847X0.190471X-0.498876X0.108570X0.522847X0*%
%ADD50RoundRect,0.150000X-0.206786X0.492337X-0.091304X-0.526137X0.206786X-0.492337X0.091304X0.526137X0*%
%ADD51RoundRect,0.150000X-0.151091X0.512179X-0.148908X-0.512818X0.151091X-0.512179X0.148908X0.512818X0*%
%ADD52RoundRect,0.150000X-0.169431X0.506408X-0.130351X-0.517846X0.169431X-0.506408X0.130351X0.517846X0*%
%ADD53RoundRect,0.140000X-0.157724X-0.153699X0.120603X-0.184269X0.157724X0.153699X-0.120603X0.184269X0*%
%ADD54RoundRect,0.150000X-0.091019X0.526186X-0.207052X-0.492225X0.091019X-0.526186X0.207052X0.492225X0*%
%ADD55RoundRect,0.150000X-0.096020X0.525296X-0.202361X-0.494172X0.096020X-0.525296X0.202361X0.494172X0*%
%ADD56RoundRect,0.140000X-0.158345X-0.153059X0.119856X-0.184756X0.158345X0.153059X-0.119856X0.184756X0*%
%ADD57RoundRect,0.140000X-0.145190X-0.165590X0.134676X-0.174248X0.145190X0.165590X-0.134676X0.174248X0*%
%ADD58RoundRect,0.140000X-0.156882X-0.154558X0.121607X-0.183607X0.156882X0.154558X-0.121607X0.183607X0*%
%ADD59RoundRect,0.140000X-0.158262X-0.153144X0.119955X-0.184691X0.158262X0.153144X-0.119955X0.184691X0*%
%ADD60RoundRect,0.140000X-0.140362X-0.169702X0.139638X-0.170298X0.140362X0.169702X-0.139638X0.170298X0*%
%ADD61RoundRect,0.140000X-0.153136X-0.158270X0.125969X-0.180643X0.153136X0.158270X-0.125969X0.180643X0*%
%ADD62RoundRect,0.140000X-0.151152X-0.160166X0.128210X-0.179059X0.151152X0.160166X-0.128210X0.179059X0*%
%ADD63RoundRect,0.150000X-0.134081X0.516893X-0.165776X-0.507617X0.134081X-0.516893X0.165776X0.507617X0*%
%ADD64RoundRect,0.140000X-0.154317X-0.157119X0.124613X-0.181581X0.154317X0.157119X-0.124613X0.181581X0*%
%ADD65RoundRect,0.150000X-0.144042X0.514206X-0.155938X-0.510725X0.144042X-0.514206X0.155938X0.510725X0*%
%ADD66RoundRect,0.150000X0.950000X-0.150000X0.950000X0.150000X-0.950000X0.150000X-0.950000X-0.150000X0*%
%ADD67RoundRect,0.360000X0.940000X-0.540000X0.940000X0.540000X-0.940000X0.540000X-0.940000X-0.540000X0*%
%ADD68RoundRect,0.150000X-0.130351X0.517846X-0.169431X-0.506408X0.130351X-0.517846X0.169431X0.506408X0*%
%ADD69RoundRect,0.140000X-0.156925X-0.154514X0.121556X-0.183641X0.156925X0.154514X-0.121556X0.183641X0*%
%ADD70RoundRect,0.150000X-0.091304X0.526137X-0.206786X-0.492337X0.091304X-0.526137X0.206786X0.492337X0*%
%ADD71RoundRect,0.140000X-0.146380X-0.164539X0.133417X-0.175214X0.146380X0.164539X-0.133417X0.175214X0*%
%ADD72RoundRect,0.150000X-0.140116X0.515290X-0.159829X-0.509520X0.140116X-0.515290X0.159829X0.509520X0*%
%ADD73RoundRect,0.150000X-0.134026X0.516907X-0.165829X-0.507599X0.134026X-0.516907X0.165829X0.507599X0*%
%ADD74RoundRect,0.150000X-0.104652X0.523645X-0.194201X-0.497436X0.104652X-0.523645X0.194201X0.497436X0*%
%ADD75RoundRect,0.140000X-0.140089X-0.169927X0.139911X-0.170073X0.140089X0.169927X-0.139911X0.170073X0*%
%ADD76RoundRect,0.140000X-0.141964X-0.168364X0.138018X-0.171613X0.141964X0.168364X-0.138018X0.171613X0*%
%ADD77RoundRect,0.150000X-0.108570X0.522847X-0.190471X-0.498876X0.108570X-0.522847X0.190471X0.498876X0*%
%ADD78RoundRect,0.140000X-0.143244X-0.167276X0.136705X-0.172661X0.143244X0.167276X-0.136705X0.172661X0*%
%ADD79RoundRect,0.140000X-0.149559X-0.161654X0.129976X-0.177782X0.149559X0.161654X-0.129976X0.177782X0*%
%ADD80RoundRect,0.140000X-0.145207X-0.165574X0.134658X-0.174262X0.145207X0.165574X-0.134658X0.174262X0*%
%ADD81RoundRect,0.150000X-0.095873X0.525323X-0.202499X-0.494116X0.095873X-0.525323X0.202499X0.494116X0*%
%ADD82RoundRect,0.150000X-0.148908X0.512818X-0.151091X-0.512179X0.148908X-0.512818X0.151091X0.512179X0*%
%ADD83RoundRect,0.150000X-0.115077X0.521453X-0.184239X-0.501211X0.115077X-0.521453X0.184239X0.501211X0*%
%ADD84RoundRect,0.150000X-0.093149X0.525813X-0.205058X-0.493059X0.093149X-0.525813X0.205058X0.493059X0*%
%ADD85RoundRect,0.150000X-0.120232X0.520289X-0.179270X-0.503009X0.120232X-0.520289X0.179270X0.503009X0*%
%ADD86RoundRect,0.150000X-0.149732X0.512578X-0.150268X-0.512421X0.149732X-0.512578X0.150268X0.512421X0*%
%ADD87C,0.500000*%
%ADD88C,2.000000*%
G04 APERTURE END LIST*
D10*
X141637571Y-56454819D02*
X141161381Y-56454819D01*
X141161381Y-56454819D02*
X141161381Y-55454819D01*
X141970905Y-56073866D02*
X142732810Y-56073866D01*
X143494714Y-55454819D02*
X143494714Y-56169104D01*
X143494714Y-56169104D02*
X143447095Y-56311961D01*
X143447095Y-56311961D02*
X143351857Y-56407200D01*
X143351857Y-56407200D02*
X143209000Y-56454819D01*
X143209000Y-56454819D02*
X143113762Y-56454819D01*
X144447095Y-56454819D02*
X143970905Y-56454819D01*
X143970905Y-56454819D02*
X143970905Y-55454819D01*
X145304238Y-56454819D02*
X144732810Y-56454819D01*
X145018524Y-56454819D02*
X145018524Y-55454819D01*
X145018524Y-55454819D02*
X144923286Y-55597676D01*
X144923286Y-55597676D02*
X144828048Y-55692914D01*
X144828048Y-55692914D02*
X144732810Y-55740533D01*
X40494223Y-65431819D02*
X40018033Y-65431819D01*
X40018033Y-65431819D02*
X40018033Y-64431819D01*
X40827557Y-65050866D02*
X41589462Y-65050866D01*
X42018033Y-65146104D02*
X42494223Y-65146104D01*
X41922795Y-65431819D02*
X42256128Y-64431819D01*
X42256128Y-64431819D02*
X42589461Y-65431819D01*
X42922795Y-65431819D02*
X42922795Y-64431819D01*
X42922795Y-64431819D02*
X43256128Y-65146104D01*
X43256128Y-65146104D02*
X43589461Y-64431819D01*
X43589461Y-64431819D02*
X43589461Y-65431819D01*
X44541842Y-65431819D02*
X44065652Y-65431819D01*
X44065652Y-65431819D02*
X44065652Y-64431819D01*
X45398985Y-65431819D02*
X44827557Y-65431819D01*
X45113271Y-65431819D02*
X45113271Y-64431819D01*
X45113271Y-64431819D02*
X45018033Y-64574676D01*
X45018033Y-64574676D02*
X44922795Y-64669914D01*
X44922795Y-64669914D02*
X44827557Y-64717533D01*
X121994323Y-68431819D02*
X121518133Y-68431819D01*
X121518133Y-68431819D02*
X121518133Y-67431819D01*
X122327657Y-68050866D02*
X123089562Y-68050866D01*
X123518133Y-68146104D02*
X123994323Y-68146104D01*
X123422895Y-68431819D02*
X123756228Y-67431819D01*
X123756228Y-67431819D02*
X124089561Y-68431819D01*
X124422895Y-68431819D02*
X124422895Y-67431819D01*
X124422895Y-67431819D02*
X124756228Y-68146104D01*
X124756228Y-68146104D02*
X125089561Y-67431819D01*
X125089561Y-67431819D02*
X125089561Y-68431819D01*
X126041942Y-68431819D02*
X125565752Y-68431819D01*
X125565752Y-68431819D02*
X125565752Y-67431819D01*
X126803847Y-67765152D02*
X126803847Y-68431819D01*
X126565752Y-67384200D02*
X126327657Y-68098485D01*
X126327657Y-68098485D02*
X126946704Y-68098485D01*
X59994223Y-65931819D02*
X59518033Y-65931819D01*
X59518033Y-65931819D02*
X59518033Y-64931819D01*
X60327557Y-65550866D02*
X61089462Y-65550866D01*
X61518033Y-65646104D02*
X61994223Y-65646104D01*
X61422795Y-65931819D02*
X61756128Y-64931819D01*
X61756128Y-64931819D02*
X62089461Y-65931819D01*
X62422795Y-65931819D02*
X62422795Y-64931819D01*
X62422795Y-64931819D02*
X62756128Y-65646104D01*
X62756128Y-65646104D02*
X63089461Y-64931819D01*
X63089461Y-64931819D02*
X63089461Y-65931819D01*
X64041842Y-65931819D02*
X63565652Y-65931819D01*
X63565652Y-65931819D02*
X63565652Y-64931819D01*
X64327557Y-65027057D02*
X64375176Y-64979438D01*
X64375176Y-64979438D02*
X64470414Y-64931819D01*
X64470414Y-64931819D02*
X64708509Y-64931819D01*
X64708509Y-64931819D02*
X64803747Y-64979438D01*
X64803747Y-64979438D02*
X64851366Y-65027057D01*
X64851366Y-65027057D02*
X64898985Y-65122295D01*
X64898985Y-65122295D02*
X64898985Y-65217533D01*
X64898985Y-65217533D02*
X64851366Y-65360390D01*
X64851366Y-65360390D02*
X64279938Y-65931819D01*
X64279938Y-65931819D02*
X64898985Y-65931819D01*
X98494323Y-66431819D02*
X98018133Y-66431819D01*
X98018133Y-66431819D02*
X98018133Y-65431819D01*
X98827657Y-66050866D02*
X99589562Y-66050866D01*
X100018133Y-66146104D02*
X100494323Y-66146104D01*
X99922895Y-66431819D02*
X100256228Y-65431819D01*
X100256228Y-65431819D02*
X100589561Y-66431819D01*
X100922895Y-66431819D02*
X100922895Y-65431819D01*
X100922895Y-65431819D02*
X101256228Y-66146104D01*
X101256228Y-66146104D02*
X101589561Y-65431819D01*
X101589561Y-65431819D02*
X101589561Y-66431819D01*
X102541942Y-66431819D02*
X102065752Y-66431819D01*
X102065752Y-66431819D02*
X102065752Y-65431819D01*
X102780038Y-65431819D02*
X103399085Y-65431819D01*
X103399085Y-65431819D02*
X103065752Y-65812771D01*
X103065752Y-65812771D02*
X103208609Y-65812771D01*
X103208609Y-65812771D02*
X103303847Y-65860390D01*
X103303847Y-65860390D02*
X103351466Y-65908009D01*
X103351466Y-65908009D02*
X103399085Y-66003247D01*
X103399085Y-66003247D02*
X103399085Y-66241342D01*
X103399085Y-66241342D02*
X103351466Y-66336580D01*
X103351466Y-66336580D02*
X103303847Y-66384200D01*
X103303847Y-66384200D02*
X103208609Y-66431819D01*
X103208609Y-66431819D02*
X102922895Y-66431819D01*
X102922895Y-66431819D02*
X102827657Y-66384200D01*
X102827657Y-66384200D02*
X102780038Y-66336580D01*
X-1381966Y-166211419D02*
X-1715299Y-165735228D01*
X-1953394Y-166211419D02*
X-1953394Y-165211419D01*
X-1953394Y-165211419D02*
X-1572442Y-165211419D01*
X-1572442Y-165211419D02*
X-1477204Y-165259038D01*
X-1477204Y-165259038D02*
X-1429585Y-165306657D01*
X-1429585Y-165306657D02*
X-1381966Y-165401895D01*
X-1381966Y-165401895D02*
X-1381966Y-165544752D01*
X-1381966Y-165544752D02*
X-1429585Y-165639990D01*
X-1429585Y-165639990D02*
X-1477204Y-165687609D01*
X-1477204Y-165687609D02*
X-1572442Y-165735228D01*
X-1572442Y-165735228D02*
X-1953394Y-165735228D01*
X-953394Y-165830466D02*
X-191490Y-165830466D01*
X570414Y-165211419D02*
X570414Y-165925704D01*
X570414Y-165925704D02*
X522795Y-166068561D01*
X522795Y-166068561D02*
X427557Y-166163800D01*
X427557Y-166163800D02*
X284700Y-166211419D01*
X284700Y-166211419D02*
X189462Y-166211419D01*
X1618033Y-166211419D02*
X1284700Y-165735228D01*
X1046605Y-166211419D02*
X1046605Y-165211419D01*
X1046605Y-165211419D02*
X1427557Y-165211419D01*
X1427557Y-165211419D02*
X1522795Y-165259038D01*
X1522795Y-165259038D02*
X1570414Y-165306657D01*
X1570414Y-165306657D02*
X1618033Y-165401895D01*
X1618033Y-165401895D02*
X1618033Y-165544752D01*
X1618033Y-165544752D02*
X1570414Y-165639990D01*
X1570414Y-165639990D02*
X1522795Y-165687609D01*
X1522795Y-165687609D02*
X1427557Y-165735228D01*
X1427557Y-165735228D02*
X1046605Y-165735228D01*
X2570414Y-166211419D02*
X1998986Y-166211419D01*
X2284700Y-166211419D02*
X2284700Y-165211419D01*
X2284700Y-165211419D02*
X2189462Y-165354276D01*
X2189462Y-165354276D02*
X2094224Y-165449514D01*
X2094224Y-165449514D02*
X1998986Y-165497133D01*
X28398985Y-177689419D02*
X28065652Y-177213228D01*
X27827557Y-177689419D02*
X27827557Y-176689419D01*
X27827557Y-176689419D02*
X28208509Y-176689419D01*
X28208509Y-176689419D02*
X28303747Y-176737038D01*
X28303747Y-176737038D02*
X28351366Y-176784657D01*
X28351366Y-176784657D02*
X28398985Y-176879895D01*
X28398985Y-176879895D02*
X28398985Y-177022752D01*
X28398985Y-177022752D02*
X28351366Y-177117990D01*
X28351366Y-177117990D02*
X28303747Y-177165609D01*
X28303747Y-177165609D02*
X28208509Y-177213228D01*
X28208509Y-177213228D02*
X27827557Y-177213228D01*
X28827557Y-177308466D02*
X29589462Y-177308466D01*
X30018033Y-177403704D02*
X30494223Y-177403704D01*
X29922795Y-177689419D02*
X30256128Y-176689419D01*
X30256128Y-176689419D02*
X30589461Y-177689419D01*
X30922795Y-177689419D02*
X30922795Y-176689419D01*
X30922795Y-176689419D02*
X31256128Y-177403704D01*
X31256128Y-177403704D02*
X31589461Y-176689419D01*
X31589461Y-176689419D02*
X31589461Y-177689419D01*
X32637080Y-177689419D02*
X32303747Y-177213228D01*
X32065652Y-177689419D02*
X32065652Y-176689419D01*
X32065652Y-176689419D02*
X32446604Y-176689419D01*
X32446604Y-176689419D02*
X32541842Y-176737038D01*
X32541842Y-176737038D02*
X32589461Y-176784657D01*
X32589461Y-176784657D02*
X32637080Y-176879895D01*
X32637080Y-176879895D02*
X32637080Y-177022752D01*
X32637080Y-177022752D02*
X32589461Y-177117990D01*
X32589461Y-177117990D02*
X32541842Y-177165609D01*
X32541842Y-177165609D02*
X32446604Y-177213228D01*
X32446604Y-177213228D02*
X32065652Y-177213228D01*
X33589461Y-177689419D02*
X33018033Y-177689419D01*
X33303747Y-177689419D02*
X33303747Y-176689419D01*
X33303747Y-176689419D02*
X33208509Y-176832276D01*
X33208509Y-176832276D02*
X33113271Y-176927514D01*
X33113271Y-176927514D02*
X33018033Y-176975133D01*
X89398985Y-175189419D02*
X89065652Y-174713228D01*
X88827557Y-175189419D02*
X88827557Y-174189419D01*
X88827557Y-174189419D02*
X89208509Y-174189419D01*
X89208509Y-174189419D02*
X89303747Y-174237038D01*
X89303747Y-174237038D02*
X89351366Y-174284657D01*
X89351366Y-174284657D02*
X89398985Y-174379895D01*
X89398985Y-174379895D02*
X89398985Y-174522752D01*
X89398985Y-174522752D02*
X89351366Y-174617990D01*
X89351366Y-174617990D02*
X89303747Y-174665609D01*
X89303747Y-174665609D02*
X89208509Y-174713228D01*
X89208509Y-174713228D02*
X88827557Y-174713228D01*
X89827557Y-174808466D02*
X90589462Y-174808466D01*
X91018033Y-174903704D02*
X91494223Y-174903704D01*
X90922795Y-175189419D02*
X91256128Y-174189419D01*
X91256128Y-174189419D02*
X91589461Y-175189419D01*
X91922795Y-175189419D02*
X91922795Y-174189419D01*
X91922795Y-174189419D02*
X92256128Y-174903704D01*
X92256128Y-174903704D02*
X92589461Y-174189419D01*
X92589461Y-174189419D02*
X92589461Y-175189419D01*
X93637080Y-175189419D02*
X93303747Y-174713228D01*
X93065652Y-175189419D02*
X93065652Y-174189419D01*
X93065652Y-174189419D02*
X93446604Y-174189419D01*
X93446604Y-174189419D02*
X93541842Y-174237038D01*
X93541842Y-174237038D02*
X93589461Y-174284657D01*
X93589461Y-174284657D02*
X93637080Y-174379895D01*
X93637080Y-174379895D02*
X93637080Y-174522752D01*
X93637080Y-174522752D02*
X93589461Y-174617990D01*
X93589461Y-174617990D02*
X93541842Y-174665609D01*
X93541842Y-174665609D02*
X93446604Y-174713228D01*
X93446604Y-174713228D02*
X93065652Y-174713228D01*
X93970414Y-174189419D02*
X94589461Y-174189419D01*
X94589461Y-174189419D02*
X94256128Y-174570371D01*
X94256128Y-174570371D02*
X94398985Y-174570371D01*
X94398985Y-174570371D02*
X94494223Y-174617990D01*
X94494223Y-174617990D02*
X94541842Y-174665609D01*
X94541842Y-174665609D02*
X94589461Y-174760847D01*
X94589461Y-174760847D02*
X94589461Y-174998942D01*
X94589461Y-174998942D02*
X94541842Y-175094180D01*
X94541842Y-175094180D02*
X94494223Y-175141800D01*
X94494223Y-175141800D02*
X94398985Y-175189419D01*
X94398985Y-175189419D02*
X94113271Y-175189419D01*
X94113271Y-175189419D02*
X94018033Y-175141800D01*
X94018033Y-175141800D02*
X93970414Y-175094180D01*
X50898985Y-176189419D02*
X50565652Y-175713228D01*
X50327557Y-176189419D02*
X50327557Y-175189419D01*
X50327557Y-175189419D02*
X50708509Y-175189419D01*
X50708509Y-175189419D02*
X50803747Y-175237038D01*
X50803747Y-175237038D02*
X50851366Y-175284657D01*
X50851366Y-175284657D02*
X50898985Y-175379895D01*
X50898985Y-175379895D02*
X50898985Y-175522752D01*
X50898985Y-175522752D02*
X50851366Y-175617990D01*
X50851366Y-175617990D02*
X50803747Y-175665609D01*
X50803747Y-175665609D02*
X50708509Y-175713228D01*
X50708509Y-175713228D02*
X50327557Y-175713228D01*
X51327557Y-175808466D02*
X52089462Y-175808466D01*
X52518033Y-175903704D02*
X52994223Y-175903704D01*
X52422795Y-176189419D02*
X52756128Y-175189419D01*
X52756128Y-175189419D02*
X53089461Y-176189419D01*
X53422795Y-176189419D02*
X53422795Y-175189419D01*
X53422795Y-175189419D02*
X53756128Y-175903704D01*
X53756128Y-175903704D02*
X54089461Y-175189419D01*
X54089461Y-175189419D02*
X54089461Y-176189419D01*
X55137080Y-176189419D02*
X54803747Y-175713228D01*
X54565652Y-176189419D02*
X54565652Y-175189419D01*
X54565652Y-175189419D02*
X54946604Y-175189419D01*
X54946604Y-175189419D02*
X55041842Y-175237038D01*
X55041842Y-175237038D02*
X55089461Y-175284657D01*
X55089461Y-175284657D02*
X55137080Y-175379895D01*
X55137080Y-175379895D02*
X55137080Y-175522752D01*
X55137080Y-175522752D02*
X55089461Y-175617990D01*
X55089461Y-175617990D02*
X55041842Y-175665609D01*
X55041842Y-175665609D02*
X54946604Y-175713228D01*
X54946604Y-175713228D02*
X54565652Y-175713228D01*
X55518033Y-175284657D02*
X55565652Y-175237038D01*
X55565652Y-175237038D02*
X55660890Y-175189419D01*
X55660890Y-175189419D02*
X55898985Y-175189419D01*
X55898985Y-175189419D02*
X55994223Y-175237038D01*
X55994223Y-175237038D02*
X56041842Y-175284657D01*
X56041842Y-175284657D02*
X56089461Y-175379895D01*
X56089461Y-175379895D02*
X56089461Y-175475133D01*
X56089461Y-175475133D02*
X56041842Y-175617990D01*
X56041842Y-175617990D02*
X55470414Y-176189419D01*
X55470414Y-176189419D02*
X56089461Y-176189419D01*
X120398985Y-163189419D02*
X120065652Y-162713228D01*
X119827557Y-163189419D02*
X119827557Y-162189419D01*
X119827557Y-162189419D02*
X120208509Y-162189419D01*
X120208509Y-162189419D02*
X120303747Y-162237038D01*
X120303747Y-162237038D02*
X120351366Y-162284657D01*
X120351366Y-162284657D02*
X120398985Y-162379895D01*
X120398985Y-162379895D02*
X120398985Y-162522752D01*
X120398985Y-162522752D02*
X120351366Y-162617990D01*
X120351366Y-162617990D02*
X120303747Y-162665609D01*
X120303747Y-162665609D02*
X120208509Y-162713228D01*
X120208509Y-162713228D02*
X119827557Y-162713228D01*
X120827557Y-162808466D02*
X121589462Y-162808466D01*
X122018033Y-162903704D02*
X122494223Y-162903704D01*
X121922795Y-163189419D02*
X122256128Y-162189419D01*
X122256128Y-162189419D02*
X122589461Y-163189419D01*
X122922795Y-163189419D02*
X122922795Y-162189419D01*
X122922795Y-162189419D02*
X123256128Y-162903704D01*
X123256128Y-162903704D02*
X123589461Y-162189419D01*
X123589461Y-162189419D02*
X123589461Y-163189419D01*
X124637080Y-163189419D02*
X124303747Y-162713228D01*
X124065652Y-163189419D02*
X124065652Y-162189419D01*
X124065652Y-162189419D02*
X124446604Y-162189419D01*
X124446604Y-162189419D02*
X124541842Y-162237038D01*
X124541842Y-162237038D02*
X124589461Y-162284657D01*
X124589461Y-162284657D02*
X124637080Y-162379895D01*
X124637080Y-162379895D02*
X124637080Y-162522752D01*
X124637080Y-162522752D02*
X124589461Y-162617990D01*
X124589461Y-162617990D02*
X124541842Y-162665609D01*
X124541842Y-162665609D02*
X124446604Y-162713228D01*
X124446604Y-162713228D02*
X124065652Y-162713228D01*
X125494223Y-162522752D02*
X125494223Y-163189419D01*
X125256128Y-162141800D02*
X125018033Y-162856085D01*
X125018033Y-162856085D02*
X125637080Y-162856085D01*
%TO.C,L-AML1*%
D11*
X41234700Y-63027000D02*
X31334700Y-63027000D01*
X41234700Y-66927000D02*
X31334700Y-66927000D01*
D12*
X40884700Y-67652000D02*
G75*
G02*
X40574700Y-67652000I-155000J0D01*
G01*
X40574700Y-67652000D02*
G75*
G02*
X40884700Y-67652000I155000J0D01*
G01*
%TO.C,L-AML4*%
D11*
X122734800Y-66027000D02*
X112834800Y-66027000D01*
X122734800Y-69927000D02*
X112834800Y-69927000D01*
D12*
X122384800Y-70652000D02*
G75*
G02*
X122074800Y-70652000I-155000J0D01*
G01*
X122074800Y-70652000D02*
G75*
G02*
X122384800Y-70652000I155000J0D01*
G01*
%TO.C,L-AML2*%
D11*
X60734700Y-63527000D02*
X50834700Y-63527000D01*
X60734700Y-67427000D02*
X50834700Y-67427000D01*
D12*
X60384700Y-68152000D02*
G75*
G02*
X60074700Y-68152000I-155000J0D01*
G01*
X60074700Y-68152000D02*
G75*
G02*
X60384700Y-68152000I155000J0D01*
G01*
%TO.C,L-AML3*%
D11*
X99234800Y-64027000D02*
X89334800Y-64027000D01*
X99234800Y-67927000D02*
X89334800Y-67927000D01*
D12*
X98884800Y-68652000D02*
G75*
G02*
X98574800Y-68652000I-155000J0D01*
G01*
X98574800Y-68652000D02*
G75*
G02*
X98884800Y-68652000I155000J0D01*
G01*
%TO.C,R-AMR1*%
D11*
X29234700Y-175284600D02*
X19334700Y-175284600D01*
X29234700Y-179184600D02*
X19334700Y-179184600D01*
D12*
X28884700Y-179909600D02*
G75*
G02*
X28574700Y-179909600I-155000J0D01*
G01*
X28574700Y-179909600D02*
G75*
G02*
X28884700Y-179909600I155000J0D01*
G01*
%TO.C,R-AMR3*%
D11*
X90234700Y-172784600D02*
X80334700Y-172784600D01*
X90234700Y-176684600D02*
X80334700Y-176684600D01*
D12*
X89884700Y-177409600D02*
G75*
G02*
X89574700Y-177409600I-155000J0D01*
G01*
X89574700Y-177409600D02*
G75*
G02*
X89884700Y-177409600I155000J0D01*
G01*
%TO.C,R-AMR2*%
D11*
X51734700Y-173784600D02*
X41834700Y-173784600D01*
X51734700Y-177684600D02*
X41834700Y-177684600D01*
D12*
X51384700Y-178409600D02*
G75*
G02*
X51074700Y-178409600I-155000J0D01*
G01*
X51074700Y-178409600D02*
G75*
G02*
X51384700Y-178409600I155000J0D01*
G01*
%TO.C,R-AMR4*%
D11*
X121234700Y-160784600D02*
X111334700Y-160784600D01*
X121234700Y-164684600D02*
X111334700Y-164684600D01*
D12*
X120884700Y-165409600D02*
G75*
G02*
X120574700Y-165409600I-155000J0D01*
G01*
X120574700Y-165409600D02*
G75*
G02*
X120884700Y-165409600I155000J0D01*
G01*
%TD*%
%LPC*%
D13*
%TO.C,L-MHL1*%
X4784700Y-9977000D03*
%TD*%
%TO.C,L-MHL3*%
X106209000Y-30000000D03*
%TD*%
D14*
%TO.C,L-SL1*%
X3809750Y-59690000D03*
D15*
X3809750Y-74930000D03*
D14*
X27622250Y-59690000D03*
D15*
X27622250Y-74930000D03*
%TD*%
D13*
%TO.C,L-MHL4*%
X140784800Y-95977000D03*
%TD*%
%TO.C,L-MHL2*%
X3284700Y-92477000D03*
%TD*%
D14*
%TO.C,L-SL2*%
X110476325Y-83243935D03*
D15*
X112057434Y-98401695D03*
D14*
X134160325Y-80773452D03*
D15*
X135741434Y-95931212D03*
%TD*%
D16*
%TO.C,L-CL32A*%
X78201531Y-79077393D03*
X79161069Y-79047607D03*
%TD*%
D17*
%TO.C,L-CL25A*%
X99507935Y-60751054D03*
X100464865Y-60674346D03*
%TD*%
D18*
%TO.C,L-HEL1*%
X10292500Y-10475000D03*
X10292500Y-8575000D03*
X12567500Y-9525000D03*
%TD*%
%TO.C,L-HEL30*%
X40772500Y-86675000D03*
X40772500Y-84775000D03*
X43047500Y-85725000D03*
%TD*%
D19*
%TO.C,L-CML3*%
X101804800Y-63977000D03*
X102764800Y-63977000D03*
%TD*%
%TO.C,L-CL9B*%
X44220000Y-35475000D03*
X45180000Y-35475000D03*
%TD*%
D18*
%TO.C,L-HEL2*%
X29342500Y-10475000D03*
X29342500Y-8575000D03*
X31617500Y-9525000D03*
%TD*%
D20*
%TO.C,L-CL20B*%
X127148069Y-58176706D03*
X128102331Y-58071894D03*
%TD*%
D21*
%TO.C,L-CL5B*%
X94114449Y-17097901D03*
X95073751Y-17061299D03*
%TD*%
D19*
%TO.C,L-CL17B*%
X67080000Y-54525000D03*
X68040000Y-54525000D03*
%TD*%
%TO.C,L-CL8B*%
X20408000Y-35475000D03*
X21368000Y-35475000D03*
%TD*%
D18*
%TO.C,L-HEL9*%
X36962500Y-29525000D03*
X36962500Y-27625000D03*
X39237500Y-28575000D03*
%TD*%
D19*
%TO.C,L-CL3A*%
X42450000Y-2625000D03*
X43410000Y-2625000D03*
%TD*%
D22*
%TO.C,L-JL1*%
X147109000Y-50500000D03*
X147109000Y-51500000D03*
X147109000Y-52500000D03*
X147109000Y-53500000D03*
X147109000Y-54500000D03*
X147109000Y-55500000D03*
X147109000Y-56500000D03*
X147109000Y-57500000D03*
X147109000Y-58500000D03*
X147109000Y-59500000D03*
X147109000Y-60500000D03*
X147109000Y-61500000D03*
D23*
X149309000Y-48200000D03*
X149309000Y-63800000D03*
%TD*%
D24*
%TO.C,L-CL12B*%
X102249397Y-36669347D03*
X103207803Y-36614053D03*
%TD*%
D19*
%TO.C,L-CL27A*%
X13720000Y-87000000D03*
X14680000Y-87000000D03*
%TD*%
D18*
%TO.C,L-HEL29*%
X26484500Y-86675000D03*
X26484500Y-84775000D03*
X28759500Y-85725000D03*
%TD*%
D19*
%TO.C,L-CL16B*%
X48030000Y-54525000D03*
X48990000Y-54525000D03*
%TD*%
D25*
%TO.C,L-AML1*%
X40729700Y-67452000D03*
X39459700Y-67452000D03*
X38189700Y-67452000D03*
X36919700Y-67452000D03*
X35649700Y-67452000D03*
X34379700Y-67452000D03*
X33109700Y-67452000D03*
X31839700Y-67452000D03*
X31839700Y-62502000D03*
X33109700Y-62502000D03*
X34379700Y-62502000D03*
X35649700Y-62502000D03*
X36919700Y-62502000D03*
X38189700Y-62502000D03*
X39459700Y-62502000D03*
X40729700Y-62502000D03*
%TD*%
D26*
%TO.C,L-HEL13*%
X116598495Y-32134174D03*
X116400845Y-30244483D03*
X118762329Y-30952671D03*
%TD*%
D27*
%TO.C,L-CL23B*%
X71845400Y-73583751D03*
X72805400Y-73583249D03*
%TD*%
D28*
%TO.C,L-HEL33*%
X122010198Y-90018886D03*
X121813078Y-88129139D03*
X124174362Y-88837987D03*
%TD*%
D21*
%TO.C,L-CL5A*%
X81450249Y-2804701D03*
X82409551Y-2768099D03*
%TD*%
D19*
%TO.C,L-CL9A*%
X31020000Y-21675000D03*
X31980000Y-21675000D03*
%TD*%
D29*
%TO.C,L-HEL24*%
X84089420Y-67964720D03*
X84030668Y-66065628D03*
X86333956Y-66944826D03*
%TD*%
D30*
%TO.C,L-CL13B*%
X123000004Y-38670032D03*
X123954796Y-38570168D03*
%TD*%
D19*
%TO.C,L-CL1B*%
X17550000Y-16425000D03*
X18510000Y-16425000D03*
%TD*%
%TO.C,L-CL22A*%
X39593000Y-59775000D03*
X40553000Y-59775000D03*
%TD*%
D31*
%TO.C,L-CL4A*%
X61536701Y-2632022D03*
X62496699Y-2629978D03*
%TD*%
D19*
%TO.C,L-CL22B*%
X52793000Y-73575000D03*
X53753000Y-73575000D03*
%TD*%
D20*
%TO.C,L-CL20A*%
X115533669Y-43018106D03*
X116487931Y-42913294D03*
%TD*%
D32*
%TO.C,L-HEL12*%
X95456107Y-30386942D03*
X95346670Y-28490096D03*
X97672612Y-29307481D03*
%TD*%
D24*
%TO.C,L-CL12A*%
X89866197Y-22131947D03*
X90824603Y-22076653D03*
%TD*%
D19*
%TO.C,L-CL3B*%
X55650000Y-16425000D03*
X56610000Y-16425000D03*
%TD*%
D33*
%TO.C,L-HEL32*%
X83956523Y-87148836D03*
X83897572Y-85249751D03*
X86200952Y-86128707D03*
%TD*%
D34*
%TO.C,L-CL14A*%
X131761586Y-25752540D03*
X132715414Y-25643860D03*
%TD*%
D35*
%TO.C,L-CL33A*%
X116717090Y-81458299D03*
X117671910Y-81358701D03*
%TD*%
D19*
%TO.C,L-CL30A*%
X34830000Y-78825000D03*
X35790000Y-78825000D03*
%TD*%
D18*
%TO.C,L-HEL22*%
X45535500Y-67625000D03*
X45535500Y-65725000D03*
X47810500Y-66675000D03*
%TD*%
D31*
%TO.C,L-CL4B*%
X74707301Y-16460022D03*
X75667299Y-16457978D03*
%TD*%
D19*
%TO.C,L-CL30B*%
X48030000Y-92625000D03*
X48990000Y-92625000D03*
%TD*%
D27*
%TO.C,L-CL23A*%
X58652600Y-59776751D03*
X59612600Y-59776249D03*
%TD*%
D17*
%TO.C,L-CL25B*%
X111563135Y-75561654D03*
X112520065Y-75484946D03*
%TD*%
D19*
%TO.C,L-CL15B*%
X16520000Y-45000000D03*
X17480000Y-45000000D03*
%TD*%
D25*
%TO.C,L-AML4*%
X122229800Y-70452000D03*
X120959800Y-70452000D03*
X119689800Y-70452000D03*
X118419800Y-70452000D03*
X117149800Y-70452000D03*
X115879800Y-70452000D03*
X114609800Y-70452000D03*
X113339800Y-70452000D03*
X113339800Y-65502000D03*
X114609800Y-65502000D03*
X115879800Y-65502000D03*
X117149800Y-65502000D03*
X118419800Y-65502000D03*
X119689800Y-65502000D03*
X120959800Y-65502000D03*
X122229800Y-65502000D03*
%TD*%
D36*
%TO.C,L-HEL18*%
X79075981Y-48777701D03*
X79039440Y-46878054D03*
X81332290Y-47784123D03*
%TD*%
D18*
%TO.C,L-HEL17*%
X59822500Y-48575000D03*
X59822500Y-46675000D03*
X62097500Y-47625000D03*
%TD*%
D37*
%TO.C,L-HEL19*%
X99660194Y-49706588D03*
X99531991Y-47810918D03*
X101865908Y-48605247D03*
%TD*%
D35*
%TO.C,L-CL33B*%
X128414090Y-96553299D03*
X129368910Y-96453701D03*
%TD*%
D38*
%TO.C,L-CL11A*%
X69314532Y-21714471D03*
X70274468Y-21703329D03*
%TD*%
%TO.C,L-CL11B*%
X82353532Y-35666671D03*
X83313468Y-35655529D03*
%TD*%
D39*
%TO.C,L-HEL20*%
X120791020Y-51613512D03*
X120583580Y-49724870D03*
X122948700Y-50420809D03*
%TD*%
D40*
%TO.C,L-CL18B*%
X86181189Y-54840932D03*
X87141011Y-54822468D03*
%TD*%
D19*
%TO.C,L-CL21B*%
X21836000Y-73575000D03*
X22796000Y-73575000D03*
%TD*%
D41*
%TO.C,L-HEL23*%
X64591998Y-67630595D03*
X64591003Y-65730596D03*
X66866500Y-66679404D03*
%TD*%
D19*
%TO.C,L-CL31A*%
X39593000Y-78825000D03*
X40553000Y-78825000D03*
%TD*%
%TO.C,L-CL29A*%
X20542000Y-78825000D03*
X21502000Y-78825000D03*
%TD*%
D16*
%TO.C,L-CL32B*%
X90966931Y-93280393D03*
X91926469Y-93250607D03*
%TD*%
D25*
%TO.C,L-AML2*%
X60229700Y-67952000D03*
X58959700Y-67952000D03*
X57689700Y-67952000D03*
X56419700Y-67952000D03*
X55149700Y-67952000D03*
X53879700Y-67952000D03*
X52609700Y-67952000D03*
X51339700Y-67952000D03*
X51339700Y-63002000D03*
X52609700Y-63002000D03*
X53879700Y-63002000D03*
X55149700Y-63002000D03*
X56419700Y-63002000D03*
X57689700Y-63002000D03*
X58959700Y-63002000D03*
X60229700Y-63002000D03*
%TD*%
D19*
%TO.C,L-CL10A*%
X50070000Y-21675000D03*
X51030000Y-21675000D03*
%TD*%
D42*
%TO.C,L-HEL11*%
X75187602Y-29648138D03*
X75165551Y-27748266D03*
X77451423Y-28671798D03*
%TD*%
D43*
%TO.C,L-CL6A*%
X102738835Y-3824735D03*
X103695165Y-3740865D03*
%TD*%
D44*
%TO.C,L-HEL6*%
X108138841Y-12278745D03*
X107972853Y-10386009D03*
X110322151Y-11133623D03*
%TD*%
D19*
%TO.C,L-CML4*%
X124804800Y-61977000D03*
X125764800Y-61977000D03*
%TD*%
%TO.C,L-CL8A*%
X7208000Y-21675000D03*
X8168000Y-21675000D03*
%TD*%
%TO.C,L-CL15A*%
X16520000Y-49000000D03*
X17480000Y-49000000D03*
%TD*%
D45*
%TO.C,L-CL19B*%
X106371494Y-56043988D03*
X107329306Y-55979212D03*
%TD*%
D30*
%TO.C,L-CL13A*%
X111307204Y-23571832D03*
X112261996Y-23471968D03*
%TD*%
D19*
%TO.C,L-CL10B*%
X63270000Y-35475000D03*
X64230000Y-35475000D03*
%TD*%
D25*
%TO.C,L-AML3*%
X98729800Y-68452000D03*
X97459800Y-68452000D03*
X96189800Y-68452000D03*
X94919800Y-68452000D03*
X93649800Y-68452000D03*
X92379800Y-68452000D03*
X91109800Y-68452000D03*
X89839800Y-68452000D03*
X89839800Y-63502000D03*
X91109800Y-63502000D03*
X92379800Y-63502000D03*
X93649800Y-63502000D03*
X94919800Y-63502000D03*
X96189800Y-63502000D03*
X97459800Y-63502000D03*
X98729800Y-63502000D03*
%TD*%
D19*
%TO.C,L-CML2*%
X61804700Y-59977000D03*
X62764700Y-59977000D03*
%TD*%
%TO.C,L-CL17A*%
X53880000Y-40725000D03*
X54840000Y-40725000D03*
%TD*%
D46*
%TO.C,L-CL26B*%
X132319656Y-77806779D03*
X133273544Y-77698621D03*
%TD*%
D19*
%TO.C,L-CML1*%
X42804700Y-58977000D03*
X43764700Y-58977000D03*
%TD*%
D18*
%TO.C,L-HEL8*%
X13150500Y-29525000D03*
X13150500Y-27625000D03*
X15425500Y-28575000D03*
%TD*%
D19*
%TO.C,L-CL16A*%
X34830000Y-40725000D03*
X35790000Y-40725000D03*
%TD*%
D45*
%TO.C,L-CL19A*%
X94132694Y-41384788D03*
X95090506Y-41320012D03*
%TD*%
D19*
%TO.C,L-CL27B*%
X13720000Y-83000000D03*
X14680000Y-83000000D03*
%TD*%
%TO.C,L-CL29B*%
X33742000Y-92625000D03*
X34702000Y-92625000D03*
%TD*%
D47*
%TO.C,L-CL24A*%
X78333730Y-59894043D03*
X79293270Y-59864357D03*
%TD*%
D18*
%TO.C,L-HEL10*%
X56012500Y-29525000D03*
X56012500Y-27625000D03*
X58287500Y-28575000D03*
%TD*%
D34*
%TO.C,L-CL14B*%
X143314586Y-40958140D03*
X144268414Y-40849460D03*
%TD*%
%TO.C,L-CL7A*%
X123855586Y-5801540D03*
X124809414Y-5692860D03*
%TD*%
D46*
%TO.C,L-CL26A*%
X120758456Y-62607379D03*
X121712344Y-62499221D03*
%TD*%
D18*
%TO.C,L-HEL16*%
X40772500Y-48575000D03*
X40772500Y-46675000D03*
X43047500Y-47625000D03*
%TD*%
D19*
%TO.C,L-CL2B*%
X36600000Y-16425000D03*
X37560000Y-16425000D03*
%TD*%
%TO.C,L-CL1A*%
X4350000Y-2625000D03*
X5310000Y-2625000D03*
%TD*%
D18*
%TO.C,L-HEL21*%
X14578500Y-67625000D03*
X14578500Y-65725000D03*
X16853500Y-66675000D03*
%TD*%
D19*
%TO.C,L-CL2A*%
X23400000Y-2625000D03*
X24360000Y-2625000D03*
%TD*%
D48*
%TO.C,L-HEL7*%
X129086355Y-14422662D03*
X128871269Y-12534875D03*
X131239188Y-13221231D03*
%TD*%
D49*
%TO.C,L-HEL25*%
X104956045Y-69155852D03*
X104804229Y-67261927D03*
X107147863Y-68027110D03*
%TD*%
D50*
%TO.C,L-HEL26*%
X125992775Y-71225108D03*
X125778710Y-69337206D03*
X128146256Y-70024843D03*
%TD*%
D19*
%TO.C,L-CL31B*%
X52793000Y-92625000D03*
X53753000Y-92625000D03*
%TD*%
D43*
%TO.C,L-CL6B*%
X114682835Y-18725135D03*
X115639165Y-18641265D03*
%TD*%
D18*
%TO.C,L-HEL3*%
X48392500Y-10475000D03*
X48392500Y-8575000D03*
X50667500Y-9525000D03*
%TD*%
D51*
%TO.C,L-HEL4*%
X67466525Y-10497420D03*
X67462480Y-8597424D03*
X69739497Y-9542578D03*
%TD*%
D19*
%TO.C,L-CL21A*%
X8636000Y-59775000D03*
X9596000Y-59775000D03*
%TD*%
D47*
%TO.C,L-CL24B*%
X91100730Y-74095643D03*
X92060270Y-74065957D03*
%TD*%
D40*
%TO.C,L-CL18A*%
X73248989Y-40789532D03*
X74208811Y-40771068D03*
%TD*%
D52*
%TO.C,L-HEL5*%
X87161547Y-10925678D03*
X87089107Y-9027059D03*
X89398673Y-9889631D03*
%TD*%
D48*
%TO.C,L-HEL14*%
X136992355Y-34373662D03*
X136777269Y-32485875D03*
X139145188Y-33172231D03*
%TD*%
D34*
%TO.C,L-CL7B*%
X135408586Y-21007140D03*
X136362414Y-20898460D03*
%TD*%
D18*
%TO.C,L-HEL31*%
X45535500Y-86675000D03*
X45535500Y-84775000D03*
X47810500Y-85725000D03*
%TD*%
%TO.C,L-HEL15*%
X14284750Y-48762500D03*
X12384750Y-48762500D03*
X13334750Y-46487500D03*
%TD*%
%TO.C,L-HEL27*%
X11903500Y-86862500D03*
X10003500Y-86862500D03*
X10953500Y-84587500D03*
%TD*%
D14*
%TO.C,R-SR2*%
X113490450Y-169446600D03*
D15*
X113490450Y-184686600D03*
D14*
X137302950Y-169446600D03*
D15*
X137302950Y-184686600D03*
%TD*%
D13*
%TO.C,R-MHR4*%
X139284700Y-197734600D03*
%TD*%
%TO.C,R-MHR1*%
X37284700Y-139756600D03*
%TD*%
%TO.C,R-MHR2*%
X284700Y-205234600D03*
%TD*%
D14*
%TO.C,R-SR3*%
X6952375Y-190532052D03*
D15*
X5371266Y-205689812D03*
D14*
X30636375Y-193002535D03*
D15*
X29055266Y-208160295D03*
%TD*%
D13*
%TO.C,R-MHR3*%
X138284700Y-131734600D03*
%TD*%
D14*
%TO.C,R-SR1*%
X108252450Y-112296600D03*
D15*
X108252450Y-127536600D03*
D14*
X132064950Y-112296600D03*
D15*
X132064950Y-127536600D03*
%TD*%
D53*
%TO.C,R-CR21A*%
X11504669Y-154111994D03*
X12458931Y-154216806D03*
%TD*%
D54*
%TO.C,R-HER8*%
X9765969Y-123921725D03*
X9981055Y-122033938D03*
X12133888Y-123235369D03*
%TD*%
D55*
%TO.C,R-HER36*%
X16839778Y-199541461D03*
X17036898Y-197651714D03*
X19201062Y-198832613D03*
%TD*%
D19*
%TO.C,R-CR30A*%
X100395700Y-196756600D03*
X101355700Y-196756600D03*
%TD*%
%TO.C,R-CR3B*%
X116753700Y-126181600D03*
X117713700Y-126181600D03*
%TD*%
D18*
%TO.C,R-HER18*%
X124259200Y-158331600D03*
X124259200Y-156431600D03*
X126534200Y-157381600D03*
%TD*%
D56*
%TO.C,R-CR8A*%
X3188086Y-116943760D03*
X4141914Y-117052440D03*
%TD*%
D18*
%TO.C,R-HER26*%
X133784200Y-177381600D03*
X133784200Y-175481600D03*
X136059200Y-176431600D03*
%TD*%
D57*
%TO.C,R-CR27A*%
X48626730Y-170029157D03*
X49586270Y-170058843D03*
%TD*%
D58*
%TO.C,R-CR36B*%
X24872490Y-204842801D03*
X25827310Y-204942399D03*
%TD*%
D19*
%TO.C,R-CMR3*%
X96804700Y-172734600D03*
X97764700Y-172734600D03*
%TD*%
D18*
%TO.C,R-HER2*%
X90446200Y-120231600D03*
X90446200Y-118331600D03*
X92721200Y-119281600D03*
%TD*%
D19*
%TO.C,R-CR11B*%
X132945700Y-145231600D03*
X133905700Y-145231600D03*
%TD*%
D59*
%TO.C,R-CR29A*%
X6286356Y-173743021D03*
X7240244Y-173851179D03*
%TD*%
D19*
%TO.C,R-CR34A*%
X125460700Y-188581600D03*
X126420700Y-188581600D03*
%TD*%
%TO.C,R-CR4A*%
X113078700Y-112381600D03*
X114038700Y-112381600D03*
%TD*%
D60*
%TO.C,R-CR1A*%
X65417001Y-112414678D03*
X66376999Y-112416722D03*
%TD*%
D53*
%TO.C,R-CR21B*%
X26132469Y-166388394D03*
X27086731Y-166493206D03*
%TD*%
D19*
%TO.C,R-CR18B*%
X131516700Y-164281600D03*
X132476700Y-164281600D03*
%TD*%
D61*
%TO.C,R-CR28A*%
X27490035Y-171485646D03*
X28446965Y-171562354D03*
%TD*%
D19*
%TO.C,R-CR33B*%
X133898700Y-202381600D03*
X134858700Y-202381600D03*
%TD*%
D62*
%TO.C,R-CR20A*%
X32853294Y-151968312D03*
X33811106Y-152033088D03*
%TD*%
D63*
%TO.C,R-HER27*%
X54750368Y-177650972D03*
X54809120Y-175751880D03*
X57053656Y-176771774D03*
%TD*%
D64*
%TO.C,R-CR7A*%
X24267935Y-114649665D03*
X25224265Y-114733535D03*
%TD*%
D19*
%TO.C,R-CR33A*%
X120698700Y-188581600D03*
X121658700Y-188581600D03*
%TD*%
%TO.C,R-CR3A*%
X103553700Y-112381600D03*
X104513700Y-112381600D03*
%TD*%
D18*
%TO.C,R-HER25*%
X124259200Y-177381600D03*
X124259200Y-175481600D03*
X126534200Y-176431600D03*
%TD*%
D65*
%TO.C,R-HER12*%
X63652251Y-139378334D03*
X63674302Y-137478462D03*
X65938123Y-138454802D03*
%TD*%
D18*
%TO.C,R-HER17*%
X98065200Y-158331600D03*
X98065200Y-156431600D03*
X100340200Y-157381600D03*
%TD*%
D66*
%TO.C,R-JR1*%
X-3615300Y-171256600D03*
X-3615300Y-170256600D03*
X-3615300Y-169256600D03*
X-3615300Y-168256600D03*
X-3615300Y-167256600D03*
X-3615300Y-166256600D03*
X-3615300Y-165256600D03*
X-3615300Y-164256600D03*
X-3615300Y-163256600D03*
X-3615300Y-162256600D03*
X-3615300Y-161256600D03*
X-3615300Y-160256600D03*
D67*
X-5815300Y-173556600D03*
X-5815300Y-157956600D03*
%TD*%
D56*
%TO.C,R-CR15A*%
X-4715914Y-136894760D03*
X-3762086Y-137003440D03*
%TD*%
D19*
%TO.C,R-CR23B*%
X100560700Y-183331600D03*
X101520700Y-183331600D03*
%TD*%
%TO.C,R-CR10B*%
X109133700Y-145231600D03*
X110093700Y-145231600D03*
%TD*%
%TO.C,R-CMR4*%
X123804700Y-165734600D03*
X124764700Y-165734600D03*
%TD*%
D68*
%TO.C,R-HER6*%
X51679807Y-120596541D03*
X51752247Y-118697922D03*
X53989373Y-119733969D03*
%TD*%
D60*
%TO.C,R-CR1B*%
X78646401Y-126186478D03*
X79606399Y-126188522D03*
%TD*%
D25*
%TO.C,R-AMR1*%
X28729700Y-179709600D03*
X27459700Y-179709600D03*
X26189700Y-179709600D03*
X24919700Y-179709600D03*
X23649700Y-179709600D03*
X22379700Y-179709600D03*
X21109700Y-179709600D03*
X19839700Y-179709600D03*
X19839700Y-174759600D03*
X21109700Y-174759600D03*
X22379700Y-174759600D03*
X23649700Y-174759600D03*
X24919700Y-174759600D03*
X26189700Y-174759600D03*
X27459700Y-174759600D03*
X28729700Y-174759600D03*
%TD*%
D58*
%TO.C,R-CR36A*%
X10312090Y-192486801D03*
X11266910Y-192586399D03*
%TD*%
D19*
%TO.C,R-CR16A*%
X73073700Y-150481600D03*
X74033700Y-150481600D03*
%TD*%
D64*
%TO.C,R-CR7B*%
X38623135Y-127243665D03*
X39579465Y-127327535D03*
%TD*%
D69*
%TO.C,R-CR14A*%
X15722304Y-134602668D03*
X16677096Y-134702532D03*
%TD*%
D19*
%TO.C,R-CR26A*%
X127841700Y-169531600D03*
X128801700Y-169531600D03*
%TD*%
%TO.C,R-CR16B*%
X86273700Y-164281600D03*
X87233700Y-164281600D03*
%TD*%
D70*
%TO.C,R-HER29*%
X12861410Y-180725394D03*
X13075475Y-178837492D03*
X15228956Y-180037757D03*
%TD*%
D18*
%TO.C,R-HER11*%
X125688200Y-139281600D03*
X125688200Y-137381600D03*
X127963200Y-138331600D03*
%TD*%
D71*
%TO.C,R-CR6A*%
X45514749Y-113028899D03*
X46474051Y-113065501D03*
%TD*%
D72*
%TO.C,R-HER19*%
X59763140Y-158490546D03*
X59799681Y-156590899D03*
X62055990Y-157584477D03*
%TD*%
D18*
%TO.C,R-HER3*%
X109496200Y-120231600D03*
X109496200Y-118331600D03*
X111771200Y-119281600D03*
%TD*%
D19*
%TO.C,R-CR2B*%
X97703700Y-126181600D03*
X98663700Y-126181600D03*
%TD*%
D73*
%TO.C,R-HER35*%
X54882272Y-196833849D03*
X54941223Y-194934764D03*
X57185652Y-195954893D03*
%TD*%
D19*
%TO.C,R-CR4B*%
X126278700Y-126181600D03*
X127238700Y-126181600D03*
%TD*%
D18*
%TO.C,R-HER10*%
X101876200Y-139281600D03*
X101876200Y-137381600D03*
X104151200Y-138331600D03*
%TD*%
D19*
%TO.C,R-CR5B*%
X135803700Y-126181600D03*
X136763700Y-126181600D03*
%TD*%
D18*
%TO.C,R-HER34*%
X131403200Y-196431600D03*
X131403200Y-194531600D03*
X133678200Y-195481600D03*
%TD*%
D74*
%TO.C,R-HER7*%
X30707553Y-121835591D03*
X30873541Y-119942855D03*
X33056851Y-121087977D03*
%TD*%
D19*
%TO.C,R-CMR2*%
X52804700Y-181734600D03*
X53764700Y-181734600D03*
%TD*%
%TO.C,R-CR23A*%
X87360700Y-169531600D03*
X88320700Y-169531600D03*
%TD*%
%TO.C,R-CR5A*%
X122603700Y-112381600D03*
X123563700Y-112381600D03*
%TD*%
%TO.C,R-CR9A*%
X76883700Y-131431600D03*
X77843700Y-131431600D03*
%TD*%
D75*
%TO.C,R-CR22B*%
X81508300Y-183332849D03*
X82468300Y-183333351D03*
%TD*%
D59*
%TO.C,R-CR29B*%
X20957156Y-185968021D03*
X21911044Y-186076179D03*
%TD*%
D19*
%TO.C,R-CR24A*%
X106410700Y-169531600D03*
X107370700Y-169531600D03*
%TD*%
%TO.C,R-CR26B*%
X141041700Y-183331600D03*
X142001700Y-183331600D03*
%TD*%
D69*
%TO.C,R-CR14B*%
X30286304Y-146954668D03*
X31241096Y-147054532D03*
%TD*%
D19*
%TO.C,R-CR17A*%
X92122700Y-150481600D03*
X93082700Y-150481600D03*
%TD*%
D25*
%TO.C,R-AMR3*%
X89729700Y-177209600D03*
X88459700Y-177209600D03*
X87189700Y-177209600D03*
X85919700Y-177209600D03*
X84649700Y-177209600D03*
X83379700Y-177209600D03*
X82109700Y-177209600D03*
X80839700Y-177209600D03*
X80839700Y-172259600D03*
X82109700Y-172259600D03*
X83379700Y-172259600D03*
X84649700Y-172259600D03*
X85919700Y-172259600D03*
X87189700Y-172259600D03*
X88459700Y-172259600D03*
X89729700Y-172259600D03*
%TD*%
D76*
%TO.C,R-CR12B*%
X71000332Y-145258929D03*
X71960268Y-145270071D03*
%TD*%
D75*
%TO.C,R-CR22A*%
X68301100Y-169539849D03*
X69261100Y-169540351D03*
%TD*%
D19*
%TO.C,R-CR11A*%
X119745700Y-131431600D03*
X120705700Y-131431600D03*
%TD*%
D18*
%TO.C,R-HER4*%
X119021200Y-120231600D03*
X119021200Y-118331600D03*
X121296200Y-119281600D03*
%TD*%
D77*
%TO.C,R-HER28*%
X33888929Y-178730673D03*
X34040745Y-176836748D03*
X36232563Y-177965490D03*
%TD*%
D25*
%TO.C,R-AMR2*%
X51229700Y-178209600D03*
X49959700Y-178209600D03*
X48689700Y-178209600D03*
X47419700Y-178209600D03*
X46149700Y-178209600D03*
X44879700Y-178209600D03*
X43609700Y-178209600D03*
X42339700Y-178209600D03*
X42339700Y-173259600D03*
X43609700Y-173259600D03*
X44879700Y-173259600D03*
X46149700Y-173259600D03*
X47419700Y-173259600D03*
X48689700Y-173259600D03*
X49959700Y-173259600D03*
X51229700Y-173259600D03*
%TD*%
D19*
%TO.C,R-CR34B*%
X138660700Y-202381600D03*
X139620700Y-202381600D03*
%TD*%
D78*
%TO.C,R-CR19B*%
X67170289Y-164325168D03*
X68130111Y-164343632D03*
%TD*%
D62*
%TO.C,R-CR20B*%
X46954294Y-164846112D03*
X47912106Y-164910888D03*
%TD*%
D19*
%TO.C,R-CR32B*%
X119610700Y-202381600D03*
X120570700Y-202381600D03*
%TD*%
D79*
%TO.C,R-CR13B*%
X51083997Y-145610353D03*
X52042403Y-145665647D03*
%TD*%
D19*
%TO.C,R-CR17B*%
X105322700Y-164281600D03*
X106282700Y-164281600D03*
%TD*%
D80*
%TO.C,R-CR35A*%
X48758031Y-189212807D03*
X49717569Y-189242593D03*
%TD*%
D81*
%TO.C,R-HER14*%
X22251545Y-141655117D03*
X22449195Y-139765426D03*
X24613029Y-140946929D03*
%TD*%
D19*
%TO.C,R-CR25B*%
X131516700Y-183331600D03*
X132476700Y-183331600D03*
%TD*%
%TO.C,R-CR32A*%
X106410700Y-188581600D03*
X107370700Y-188581600D03*
%TD*%
D18*
%TO.C,R-HER16*%
X79016200Y-158331600D03*
X79016200Y-156431600D03*
X81291200Y-157381600D03*
%TD*%
D54*
%TO.C,R-HER15*%
X1861969Y-143872725D03*
X2077055Y-141984938D03*
X4229888Y-143186369D03*
%TD*%
D19*
%TO.C,R-CMR1*%
X31804700Y-181734600D03*
X32764700Y-181734600D03*
%TD*%
%TO.C,R-CR18A*%
X118316700Y-150481600D03*
X119276700Y-150481600D03*
%TD*%
D18*
%TO.C,R-HER9*%
X82826200Y-139281600D03*
X82826200Y-137381600D03*
X85101200Y-138331600D03*
%TD*%
D76*
%TO.C,R-CR12A*%
X57641132Y-131613129D03*
X58601068Y-131624271D03*
%TD*%
D18*
%TO.C,R-HER24*%
X112353200Y-177381600D03*
X112353200Y-175481600D03*
X114628200Y-176431600D03*
%TD*%
D71*
%TO.C,R-CR6B*%
X59231349Y-126315699D03*
X60190651Y-126352301D03*
%TD*%
D19*
%TO.C,R-CR30B*%
X100395700Y-192756600D03*
X101355700Y-192756600D03*
%TD*%
D56*
%TO.C,R-CR8B*%
X17865486Y-129160760D03*
X18819314Y-129269440D03*
%TD*%
D82*
%TO.C,R-HER1*%
X71372180Y-120249176D03*
X71376225Y-118349180D03*
X73649197Y-119304022D03*
%TD*%
D61*
%TO.C,R-CR28B*%
X41750435Y-184186846D03*
X42707365Y-184263554D03*
%TD*%
D25*
%TO.C,R-AMR4*%
X120729700Y-165209600D03*
X119459700Y-165209600D03*
X118189700Y-165209600D03*
X116919700Y-165209600D03*
X115649700Y-165209600D03*
X114379700Y-165209600D03*
X113109700Y-165209600D03*
X111839700Y-165209600D03*
X111839700Y-160259600D03*
X113109700Y-160259600D03*
X114379700Y-160259600D03*
X115649700Y-160259600D03*
X116919700Y-160259600D03*
X118189700Y-160259600D03*
X119459700Y-160259600D03*
X120729700Y-160259600D03*
%TD*%
D80*
%TO.C,R-CR35B*%
X62379831Y-202596607D03*
X63339369Y-202626393D03*
%TD*%
D19*
%TO.C,R-CR24B*%
X119610700Y-183331600D03*
X120570700Y-183331600D03*
%TD*%
D18*
%TO.C,R-HER23*%
X93303200Y-177381600D03*
X93303200Y-175481600D03*
X95578200Y-176431600D03*
%TD*%
%TO.C,R-HER5*%
X128546200Y-120231600D03*
X128546200Y-118331600D03*
X130821200Y-119281600D03*
%TD*%
D83*
%TO.C,R-HER20*%
X39183691Y-159310682D03*
X39311894Y-157415012D03*
X41517608Y-158516353D03*
%TD*%
D19*
%TO.C,R-CR10A*%
X95933700Y-131431600D03*
X96893700Y-131431600D03*
%TD*%
D84*
%TO.C,R-HER21*%
X18061280Y-161122730D03*
X18268720Y-159234088D03*
X20426400Y-160426791D03*
%TD*%
D18*
%TO.C,R-HER32*%
X112353200Y-196431600D03*
X112353200Y-194531600D03*
X114628200Y-195481600D03*
%TD*%
D85*
%TO.C,R-HER13*%
X43386370Y-140012504D03*
X43495807Y-138115658D03*
X45712312Y-139195119D03*
%TD*%
D19*
%TO.C,R-CR2A*%
X84503700Y-112381600D03*
X85463700Y-112381600D03*
%TD*%
D86*
%TO.C,R-HER22*%
X74246703Y-177386004D03*
X74247698Y-175486005D03*
X76522200Y-176437196D03*
%TD*%
D19*
%TO.C,R-CR9B*%
X90083700Y-145231600D03*
X91043700Y-145231600D03*
%TD*%
D18*
%TO.C,R-HER33*%
X126641200Y-196431600D03*
X126641200Y-194531600D03*
X128916200Y-195481600D03*
%TD*%
D79*
%TO.C,R-CR13A*%
X37110997Y-132593553D03*
X38069403Y-132648847D03*
%TD*%
D19*
%TO.C,R-CR25A*%
X118316700Y-169531600D03*
X119276700Y-169531600D03*
%TD*%
D57*
%TO.C,R-CR27B*%
X62247130Y-183414357D03*
X63206670Y-183444043D03*
%TD*%
D78*
%TO.C,R-CR19A*%
X53707289Y-150781568D03*
X54667111Y-150800032D03*
%TD*%
D56*
%TO.C,R-CR15B*%
X9961486Y-149111760D03*
X10915314Y-149220440D03*
%TD*%
D18*
%TO.C,R-HER30*%
X97771700Y-196619100D03*
X95871700Y-196619100D03*
X96821700Y-194344100D03*
%TD*%
D87*
%TO.C,MB1*%
X27337290Y2000000D03*
%TD*%
%TO.C,MB2*%
X28087290Y2000000D03*
%TD*%
%TO.C,MB3*%
X28837290Y2000000D03*
%TD*%
%TO.C,MB4*%
X29587290Y2000000D03*
%TD*%
%TO.C,MB5*%
X30337290Y2000000D03*
%TD*%
%TO.C,MB6*%
X27337290Y-103470030D03*
%TD*%
%TO.C,MB7*%
X28087290Y-103470030D03*
%TD*%
%TO.C,MB8*%
X28837290Y-103470030D03*
%TD*%
%TO.C,MB9*%
X29587290Y-103470030D03*
%TD*%
%TO.C,MB10*%
X30337290Y-103470030D03*
%TD*%
%TO.C,MB11*%
X27337290Y-212416410D03*
%TD*%
%TO.C,MB12*%
X28087290Y-212416410D03*
%TD*%
%TO.C,MB13*%
X28837290Y-212416410D03*
%TD*%
%TO.C,MB14*%
X29587290Y-212416410D03*
%TD*%
%TO.C,MB15*%
X30337290Y-212416410D03*
%TD*%
%TO.C,MB16*%
X70246850Y1978410D03*
%TD*%
%TO.C,MB17*%
X70996850Y1978410D03*
%TD*%
%TO.C,MB18*%
X71746850Y1978410D03*
%TD*%
%TO.C,MB19*%
X72496850Y1978410D03*
%TD*%
%TO.C,MB20*%
X73246850Y1978410D03*
%TD*%
%TO.C,MB21*%
X70246850Y-102529680D03*
%TD*%
%TO.C,MB22*%
X70996850Y-102529680D03*
%TD*%
%TO.C,MB23*%
X71746850Y-102529680D03*
%TD*%
%TO.C,MB24*%
X72496850Y-102529680D03*
%TD*%
%TO.C,MB25*%
X73246850Y-102529680D03*
%TD*%
%TO.C,MB26*%
X70246850Y-207037770D03*
%TD*%
%TO.C,MB27*%
X70996850Y-207037770D03*
%TD*%
%TO.C,MB28*%
X71746850Y-207037770D03*
%TD*%
%TO.C,MB29*%
X72496850Y-207037770D03*
%TD*%
%TO.C,MB30*%
X73246850Y-207037770D03*
%TD*%
%TO.C,MB31*%
X113156410Y66540D03*
%TD*%
%TO.C,MB32*%
X113906410Y66540D03*
%TD*%
%TO.C,MB33*%
X114656410Y66540D03*
%TD*%
%TO.C,MB34*%
X115406410Y66540D03*
%TD*%
%TO.C,MB35*%
X116156410Y66540D03*
%TD*%
%TO.C,MB36*%
X113156410Y-105208210D03*
%TD*%
%TO.C,MB37*%
X113906410Y-105208210D03*
%TD*%
%TO.C,MB38*%
X114656410Y-105208210D03*
%TD*%
%TO.C,MB39*%
X115406410Y-105208210D03*
%TD*%
%TO.C,MB40*%
X116156410Y-105208210D03*
%TD*%
%TO.C,MB41*%
X113156410Y-207006600D03*
%TD*%
%TO.C,MB42*%
X113906410Y-207006600D03*
%TD*%
%TO.C,MB43*%
X114656410Y-207006600D03*
%TD*%
%TO.C,MB44*%
X115406410Y-207006600D03*
%TD*%
%TO.C,MB45*%
X116156410Y-207006600D03*
%TD*%
%TO.C,MB46*%
X-2952700Y-50367800D03*
%TD*%
%TO.C,MB47*%
X-2952700Y-51117800D03*
%TD*%
%TO.C,MB48*%
X-2952700Y-51867800D03*
%TD*%
%TO.C,MB49*%
X-2952700Y-52617800D03*
%TD*%
%TO.C,MB50*%
X-2952700Y-53367800D03*
%TD*%
%TO.C,MB51*%
X151209000Y-50367800D03*
%TD*%
%TO.C,MB52*%
X151209000Y-51117800D03*
%TD*%
%TO.C,MB53*%
X151209000Y-51867800D03*
%TD*%
%TO.C,MB54*%
X151209000Y-52617800D03*
%TD*%
%TO.C,MB55*%
X151209000Y-53367800D03*
%TD*%
%TO.C,MB56*%
X-7715300Y-160124400D03*
%TD*%
%TO.C,MB57*%
X-7715300Y-160874400D03*
%TD*%
%TO.C,MB58*%
X-7715300Y-161624400D03*
%TD*%
%TO.C,MB59*%
X-7715300Y-162374400D03*
%TD*%
%TO.C,MB60*%
X-7715300Y-163124400D03*
%TD*%
%TO.C,MB61*%
X146446400Y-160124400D03*
%TD*%
%TO.C,MB62*%
X146446400Y-160874400D03*
%TD*%
%TO.C,MB63*%
X146446400Y-161624400D03*
%TD*%
%TO.C,MB64*%
X146446400Y-162374400D03*
%TD*%
%TO.C,MB65*%
X146446400Y-163124400D03*
%TD*%
D88*
%TO.C,FID1*%
X-12065300Y6360500D03*
%TD*%
%TO.C,FID2*%
X155559000Y6360500D03*
%TD*%
%TO.C,FID3*%
X-12065300Y-219852700D03*
%TD*%
%TO.C,TH1*%
X-13415300Y-59963460D03*
%TD*%
%TO.C,TH2*%
X156909000Y-59963460D03*
%TD*%
%TO.C,TH3*%
X-13415300Y-153528740D03*
%TD*%
%TO.C,TH4*%
X156909000Y-153528740D03*
%TD*%
%LPD*%
M02*
