M48
; DRILL file KiCad 10.0.5 date 2026-09-22T23:06:26
; FORMAT={-:-/ absolute / metric / decimal}
; #@! TF.CreationDate,2026-09-22T23:06:26-04:00
; #@! TF.GenerationSoftware,Kicad,Pcbnew,10.0.5
; #@! TF.FileFunction,Plated,1,2,PTH
FMAT,2
METRIC
; #@! TA.AperFunction,Plated,PTH,ViaDrill
T1C0.300
%
G90
G05
T1
X3.429Y-75.814
X3.797Y-1.75
X4.893Y-48.227
X4.998Y-1.255
X6.093Y-162.173
X6.367Y-163.216
X6.425Y-175.761
X6.73Y-3.45
X7.594Y-148.677
X7.823Y-53.467
X8.055Y-141.496
X8.239Y-54.461
X8.873Y-46.727
X9.104Y-58.749
X9.147Y-41.404
X9.534Y-168.138
X9.747Y-43.204
X9.805Y-119.246
X10.025Y-168.867
X10.123Y-161.501
X10.166Y-167.342
X10.579Y-86.589
X11.224Y-46.413
X12.055Y-116.996
X12.244Y-31.144
X12.547Y-175.021
X12.871Y-121.342
X13.323Y-173.216
X13.797Y-157.771
X13.797Y-161.521
X14.047Y-177.021
X14.87Y-148.289
X15.034Y-87.805
X15.047Y-156.771
X15.067Y-47.725
X15.376Y-55.996
X15.397Y-23.482
X15.703Y-146.938
X15.805Y-122.746
X16.169Y-158.266
X16.297Y-87.804
X16.503Y-19.08
X16.567Y-46.862
X16.577Y-12.433
X16.767Y-74.521
X16.805Y-154.246
X17.297Y-186.521
X17.5Y-45.003
X17.555Y-150.996
X17.647Y-30.086
X17.647Y-183.763
X17.912Y-83.647
X18.318Y-90.306
X18.55Y-144.389
X18.659Y-31.477
X18.848Y-75.624
X18.99Y-14.875
X19.173Y-80.312
X19.443Y-19.198
X19.797Y-91.554
X20.255Y-88.675
X20.297Y-159.521
X20.459Y-19.732
X20.662Y-36.79
X20.719Y-22.775
X20.797Y-90.554
X21.3Y-153.382
X21.555Y-116.746
X21.555Y-134.496
X21.806Y-132.459
X21.809Y-171.564
X22.047Y-162.271
X22.187Y-57.235
X22.305Y-158.496
X22.439Y-55.515
X22.716Y-189.992
X22.788Y-38.674
X23.218Y-169.017
X23.472Y-82.269
X23.785Y-121.251
X24.055Y-171.246
X24.177Y-50.64
X24.217Y-71.22
X24.641Y-119.785
X25.047Y-88.054
X25.259Y-118.247
X25.271Y-79.867
X25.305Y-128.746
X25.532Y-186.426
X25.797Y-207.771
X25.797Y-127.019
X26.259Y-3.375
X26.5Y-45.75
X26.554Y-145.898
X27.357Y-150.041
X27.993Y-126.625
X28.055Y-152.996
X28.485Y-41.575
X28.547Y-185.021
X28.717Y-151.446
X28.876Y-47.835
X29.241Y-156.093
X29.241Y-169.017
X29.471Y-83.72
X29.743Y-41.569
X29.75Y-42.5
X29.92Y-86.836
X30.776Y-149.456
X30.805Y-113.746
X31.0Y-41.75
X31.025Y-46.95
X31.529Y-52.054
X31.634Y-48.432
X32.055Y-171.996
X32.159Y-119.021
X32.297Y-32.804
X32.305Y-131.246
X32.343Y-79.374
X32.467Y-153.093
X32.479Y-30.783
X32.888Y-40.362
X32.96Y-48.004
X33.244Y-145.21
X33.397Y-19.732
X33.52Y-92.723
X33.553Y-40.998
X33.734Y-88.632
X33.875Y-128.29
X34.086Y-47.015
X34.305Y-170.246
X34.336Y-48.985
X34.44Y-129.529
X34.459Y-121.321
X34.555Y-119.746
X34.741Y-183.763
X34.763Y-12.528
X34.823Y-40.984
X34.845Y-31.78
X34.901Y-32.682
X35.154Y-92.859
X35.467Y-151.446
X35.492Y-177.321
X35.865Y-89.853
X35.953Y-121.626
X36.093Y-44.115
X36.142Y-35.938
X36.244Y-39.692
X36.716Y-52.757
X36.805Y-145.996
X36.965Y-6.026
X37.309Y-182.812
X37.555Y-150.246
X37.555Y-175.746
X37.714Y-35.603
X37.889Y-19.732
X38.462Y-186.082
X38.755Y-79.55
X38.758Y-38.717
X39.698Y-170.608
X39.797Y-126.771
X39.805Y-111.996
X40.297Y-180.021
X40.555Y-130.996
X40.587Y-46.008
X41.191Y-83.7
X41.305Y-156.996
X41.334Y-52.19
X41.405Y-89.392
X42.237Y-56.147
X42.389Y-3.041
X42.579Y-141.391
X42.797Y-167.271
X42.905Y-31.78
X43.055Y-168.246
X43.33Y-19.732
X43.38Y-60.933
X43.805Y-127.496
X43.837Y-159.696
X43.908Y-132.588
X44.547Y-159.271
X44.587Y-168.267
X44.593Y-166.579
X45.337Y-153.907
X45.531Y-183.553
X45.88Y-3.041
X46.101Y-48.592
X46.126Y-23.873
X46.305Y-148.246
X46.515Y-34.205
X46.797Y-167.271
X46.797Y-184.521
X46.833Y-135.053
X47.805Y-113.246
X47.923Y-14.605
X48.283Y-112.279
X48.337Y-164.665
X48.615Y-51.929
X49.167Y-133.562
X49.185Y-14.125
X49.234Y-35.041
X49.885Y-139.728
X50.055Y-111.246
X50.805Y-162.246
X51.06Y-164.932
X51.274Y-92.56
X51.805Y-131.246
X51.821Y-149.67
X51.873Y-77.096
X52.547Y-127.021
X52.597Y-37.1
X52.689Y-38.732
X52.759Y-166.597
X52.864Y-74.035
X52.915Y-80.066
X53.055Y-167.496
X53.131Y-10.783
X53.305Y-117.246
X53.665Y-89.816
X54.003Y-74.022
X54.195Y-4.428
X54.305Y-148.746
X54.605Y-198.405
X54.784Y-133.989
X55.018Y-6.845
X55.055Y-143.496
X55.416Y-67.698
X55.759Y-178.767
X55.896Y-58.701
X56.305Y-172.996
X56.78Y-32.706
X56.887Y-174.16
X57.09Y-14.875
X57.856Y-36.752
X57.978Y-154.091
X58.069Y-121.452
X58.373Y-72.325
X58.548Y-193.373
X58.683Y-176.567
X59.055Y-112.246
X59.271Y-173.41
X59.297Y-192.521
X59.305Y-128.996
X59.493Y-191.349
X59.722Y-28.68
X60.12Y-129.273
X61.034Y-65.829
X61.547Y-183.771
X61.592Y-52.287
X61.748Y-122.993
X61.811Y-31.483
X62.271Y-165.415
X62.305Y-125.496
X62.305Y-168.496
X62.546Y-49.548
X63.021Y-178.767
X63.261Y-195.638
X63.449Y-183.254
X63.547Y-196.521
X63.623Y-73.825
X63.958Y-140.907
X64.061Y-64.8
X64.271Y-139.013
X64.285Y-3.331
X64.547Y-124.021
X65.259Y-69.088
X65.468Y-50.909
X65.555Y-146.746
X65.797Y-183.271
X65.815Y-159.862
X65.84Y-172.347
X66.276Y-81.522
X66.56Y-110.868
X67.023Y-177.917
X67.273Y-10.742
X67.521Y-148.441
X67.606Y-62.777
X67.606Y-178.474
X68.227Y-64.236
X68.297Y-174.521
X68.805Y-160.496
X69.023Y-55.411
X69.047Y-170.271
X69.047Y-174.021
X69.047Y-194.521
X69.091Y-61.085
X69.297Y-175.521
X69.297Y-183.271
X69.352Y-63.664
X69.578Y-70.26
X69.63Y-166.473
X69.733Y-173.223
X69.805Y-109.246
X70.0Y-79.5
X70.114Y-75.535
X70.332Y-188.88
X70.555Y-168.746
X70.656Y-167.665
X70.935Y-26.357
X70.973Y-81.522
X71.009Y-86.505
X71.047Y-164.271
X71.047Y-170.021
X71.273Y-37.086
X71.297Y-168.521
X71.507Y-66.889
X71.547Y-186.021
X71.797Y-166.271
X72.047Y-190.271
X72.297Y-161.521
X72.297Y-177.271
X72.435Y-72.528
X72.587Y-63.38
X72.679Y-83.488
X72.805Y-113.996
X72.998Y-147.15
X73.297Y-167.771
X73.447Y-87.154
X73.5Y-78.0
X73.513Y-83.488
X73.766Y-184.479
X73.896Y-88.634
X73.997Y-84.054
X74.055Y-149.246
X74.125Y-4.752
X74.245Y-82.613
X74.273Y-25.489
X74.406Y-148.465
X74.5Y-80.0
X74.547Y-185.271
X74.57Y-195.567
X74.64Y-70.337
X74.675Y-151.822
X74.797Y-157.021
X74.797Y-177.271
X75.044Y-83.173
X75.138Y-186.625
X75.476Y-157.575
X75.572Y-147.755
X75.625Y-20.482
X75.805Y-173.246
X76.053Y-81.546
X76.179Y-171.665
X76.344Y-182.296
X76.422Y-159.227
X76.555Y-185.496
X76.646Y-22.969
X76.764Y-164.267
X76.797Y-175.271
X76.87Y-162.239
X77.297Y-90.054
X77.323Y-83.488
X77.379Y-170.355
X78.047Y-161.771
X78.457Y-83.276
X78.492Y-37.22
X78.533Y-131.744
X78.797Y-78.304
X79.047Y-200.771
X79.252Y-57.583
X79.263Y-124.194
X79.305Y-127.746
X80.146Y-26.03
X80.6Y-165.062
X80.742Y-81.774
X81.058Y-166.228
X81.555Y-124.246
X81.594Y-170.398
X81.805Y-167.246
X81.823Y-122.604
X81.904Y-164.665
X82.327Y-166.404
X82.336Y-73.499
X83.547Y-165.021
X83.977Y-22.201
X84.055Y-177.996
X84.42Y-169.239
X84.547Y-5.804
X84.698Y-159.801
X85.047Y-88.504
X85.297Y-194.521
X85.305Y-147.996
X85.547Y-58.054
X85.995Y-110.252
X86.047Y-149.771
X86.227Y-52.253
X86.781Y-158.778
X87.029Y-144.269
X87.154Y-151.128
X87.396Y-41.481
X87.805Y-160.246
X88.171Y-147.378
X88.204Y-138.868
X88.896Y-23.481
X89.159Y-13.494
X89.23Y-142.083
X89.305Y-108.746
X89.547Y-58.054
X89.547Y-92.554
X89.805Y-167.746
X89.805Y-185.496
X90.047Y-11.304
X90.165Y-67.965
X90.434Y-59.879
X90.509Y-180.488
X90.555Y-126.996
X90.626Y-72.232
X90.88Y-145.97
X91.216Y-182.22
X91.267Y-185.416
X91.462Y-159.378
X91.64Y-20.831
X91.641Y-12.746
X92.032Y-145.212
X92.055Y-113.496
X92.593Y-130.304
X92.671Y-144.663
X92.681Y-24.451
X93.551Y-144.275
X93.626Y-69.982
X93.826Y-6.957
X94.019Y-191.558
X94.419Y-32.486
X94.555Y-146.746
X94.674Y-66.397
X94.797Y-36.554
X95.458Y-20.482
X96.272Y-124.318
X96.346Y-131.676
X97.055Y-193.496
X97.211Y-120.544
X97.576Y-41.509
X98.047Y-30.304
X98.067Y-190.216
X98.305Y-110.746
X98.305Y-127.746
X98.547Y-125.021
X98.562Y-57.595
X99.022Y-180.881
X99.174Y-71.006
X99.195Y-124.233
X99.327Y-39.926
X99.41Y-90.511
X99.547Y-139.271
X99.555Y-153.496
X99.559Y-194.634
X100.047Y-140.521
X100.055Y-122.246
X100.383Y-164.392
X100.982Y-66.218
X101.047Y-125.021
X102.37Y-120.398
X102.482Y-68.756
X102.882Y-155.409
X102.941Y-172.167
X102.966Y-192.352
X103.047Y-196.271
X103.055Y-181.746
X103.055Y-200.746
X103.291Y-62.415
X103.305Y-134.246
X103.316Y-189.105
X103.864Y-170.912
X104.252Y-145.094
X104.297Y-159.021
X105.608Y-149.074
X105.633Y-167.392
X105.797Y-18.554
X105.874Y-159.691
X105.963Y-111.831
X105.975Y-110.449
X106.047Y-196.271
X106.055Y-149.746
X106.745Y-47.308
X107.055Y-186.996
X107.068Y-177.625
X107.264Y-138.787
X107.319Y-167.796
X107.797Y-26.304
X107.805Y-162.496
X107.805Y-200.746
X108.047Y-21.804
X108.285Y-27.176
X108.38Y-161.665
X108.415Y-142.307
X108.535Y-189.063
X108.666Y-150.746
X108.755Y-141.556
X108.797Y-155.771
X108.805Y-186.996
X108.893Y-146.719
X108.999Y-80.868
X109.047Y-127.771
X109.067Y-14.631
X109.355Y-128.933
X109.784Y-145.79
X109.805Y-121.091
X109.805Y-131.996
X109.938Y-27.015
X110.0Y-117.621
X110.042Y-153.582
X110.162Y-147.645
X110.181Y-150.784
X110.297Y-161.771
X110.305Y-170.746
X110.818Y-145.606
X111.055Y-115.246
X111.118Y-147.403
X111.182Y-129.136
X111.203Y-177.625
X111.251Y-35.337
X111.254Y-186.738
X111.46Y-114.073
X111.479Y-162.762
X111.585Y-142.191
X111.7Y-119.221
X111.797Y-22.304
X111.959Y-146.043
X112.1Y-111.921
X112.1Y-113.521
X112.297Y-156.771
X112.547Y-154.771
X112.884Y-140.018
X112.946Y-142.327
X113.297Y-158.771
X113.515Y-117.809
X113.805Y-172.496
X113.805Y-191.496
X113.854Y-194.632
X114.606Y-147.013
X114.759Y-116.818
X115.005Y-174.16
X115.133Y-150.864
X115.133Y-159.421
X115.149Y-146.417
X115.297Y-184.521
X115.305Y-144.246
X115.498Y-112.721
X115.777Y-155.13
X116.047Y-97.304
X116.16Y-57.592
X116.259Y-59.693
X116.5Y-118.321
X117.054Y-150.71
X117.055Y-152.246
X117.184Y-61.205
X117.198Y-114.521
X117.216Y-175.074
X117.216Y-200.553
X117.382Y-97.105
X117.697Y-79.389
X117.797Y-157.771
X118.048Y-155.044
X118.259Y-196.004
X118.318Y-162.746
X118.434Y-147.013
X118.493Y-113.721
X118.547Y-156.521
X118.886Y-151.246
X118.925Y-121.441
X119.366Y-108.623
X119.433Y-118.479
X119.529Y-38.2
X120.055Y-189.246
X120.162Y-177.791
X120.555Y-115.246
X120.785Y-158.065
X120.805Y-167.746
X120.821Y-196.12
X120.953Y-162.153
X121.047Y-179.521
X121.498Y-114.721
X121.609Y-117.351
X121.872Y-161.171
X121.905Y-165.284
X122.055Y-200.746
X122.058Y-92.85
X122.305Y-129.746
X122.428Y-74.194
X122.607Y-55.968
X122.919Y-38.247
X122.978Y-141.358
X123.047Y-84.804
X123.047Y-94.804
X123.055Y-145.996
X123.055Y-186.996
X123.074Y-67.65
X123.547Y-160.521
X124.072Y-174.366
X124.116Y-163.007
X124.163Y-158.941
X124.163Y-177.991
X124.462Y-113.116
X124.797Y-20.054
X125.805Y-151.996
X125.805Y-170.746
X125.967Y-63.859
X126.811Y-74.194
X127.055Y-134.246
X127.797Y-118.771
X127.805Y-182.996
X128.163Y-17.398
X128.297Y-19.054
X128.313Y-79.597
X128.403Y-134.918
X128.449Y-65.638
X128.605Y-114.621
X128.805Y-189.246
X129.03Y-117.841
X129.285Y-39.176
X129.297Y-156.521
X129.351Y-25.682
X129.797Y-162.521
X129.805Y-164.996
X130.047Y-159.521
X130.047Y-175.121
X130.247Y-65.1
X130.407Y-188.716
X131.014Y-181.09
X131.267Y-194.316
X131.297Y-161.021
X131.297Y-180.019
X131.519Y-67.182
X131.669Y-58.046
X131.805Y-178.246
X132.047Y-157.771
X132.89Y-194.634
X133.305Y-153.746
X133.347Y-168.821
X133.437Y-140.641
X133.555Y-131.996
X133.696Y-141.413
X133.805Y-194.746
X134.055Y-162.496
X134.055Y-181.746
X134.515Y-62.414
X134.622Y-153.741
X135.238Y-183.367
X135.293Y-54.772
X135.297Y-156.521
X135.305Y-143.496
X135.305Y-170.746
X135.316Y-40.134
X135.344Y-36.366
X136.04Y-163.82
X136.266Y-198.248
X136.305Y-200.746
X136.547Y-149.771
X136.629Y-46.165
X136.757Y-122.355
X136.931Y-163.391
X137.486Y-61.024
X137.491Y-54.068
X137.547Y-56.054
X137.955Y-156.084
X138.305Y-124.496
X138.547Y-49.304
X140.555Y-189.246
X141.055Y-200.746
X141.131Y-157.136
X141.185Y-60.978
X141.805Y-153.746
X141.951Y-198.248
X142.847Y-160.076
X142.966Y-160.964
X143.555Y-181.746
M30
