%TF.GenerationSoftware,KiCad,Pcbnew,10.0.5*%
%TF.CreationDate,2026-09-22T22:02:47-04:00*%
%TF.ProjectId,Symm60HE-Panel,53796d6d-3630-4484-952d-50616e656c2e,rev?*%
%TF.SameCoordinates,Original*%
%TF.FileFunction,Legend,Top*%
%TF.FilePolarity,Positive*%
%FSLAX46Y46*%
G04 Gerber Fmt 4.6, Leading zero omitted, Abs format (unit mm)*
G04 Created by KiCad (PCBNEW 10.0.5) date 2026-09-22 22:02:47*
%MOMM*%
%LPD*%
G01*
G04 APERTURE LIST*
%ADD10C,0.158750*%
%ADD11C,0.150000*%
%ADD12C,0.300000*%
%ADD13C,0.200000*%
%ADD14C,3.048000*%
%ADD15C,3.987800*%
%ADD16C,2.200000*%
%ADD17C,0.500000*%
%ADD18C,2.000000*%
G04 APERTURE END LIST*
D10*
X119445333Y-93504271D02*
X118840571Y-93504271D01*
X118840571Y-93504271D02*
X118840571Y-92234271D01*
X119868666Y-93020461D02*
X120836286Y-93020461D01*
X121380571Y-93443795D02*
X121562000Y-93504271D01*
X121562000Y-93504271D02*
X121864381Y-93504271D01*
X121864381Y-93504271D02*
X121985333Y-93443795D01*
X121985333Y-93443795D02*
X122045809Y-93383318D01*
X122045809Y-93383318D02*
X122106286Y-93262366D01*
X122106286Y-93262366D02*
X122106286Y-93141414D01*
X122106286Y-93141414D02*
X122045809Y-93020461D01*
X122045809Y-93020461D02*
X121985333Y-92959985D01*
X121985333Y-92959985D02*
X121864381Y-92899509D01*
X121864381Y-92899509D02*
X121622476Y-92839033D01*
X121622476Y-92839033D02*
X121501524Y-92778556D01*
X121501524Y-92778556D02*
X121441047Y-92718080D01*
X121441047Y-92718080D02*
X121380571Y-92597128D01*
X121380571Y-92597128D02*
X121380571Y-92476175D01*
X121380571Y-92476175D02*
X121441047Y-92355223D01*
X121441047Y-92355223D02*
X121501524Y-92294747D01*
X121501524Y-92294747D02*
X121622476Y-92234271D01*
X121622476Y-92234271D02*
X121924857Y-92234271D01*
X121924857Y-92234271D02*
X122106286Y-92294747D01*
X123255333Y-93504271D02*
X122650571Y-93504271D01*
X122650571Y-93504271D02*
X122650571Y-92234271D01*
X123618190Y-92355223D02*
X123678666Y-92294747D01*
X123678666Y-92294747D02*
X123799619Y-92234271D01*
X123799619Y-92234271D02*
X124102000Y-92234271D01*
X124102000Y-92234271D02*
X124222952Y-92294747D01*
X124222952Y-92294747D02*
X124283428Y-92355223D01*
X124283428Y-92355223D02*
X124343905Y-92476175D01*
X124343905Y-92476175D02*
X124343905Y-92597128D01*
X124343905Y-92597128D02*
X124283428Y-92778556D01*
X124283428Y-92778556D02*
X123557714Y-93504271D01*
X123557714Y-93504271D02*
X124343905Y-93504271D01*
X15980333Y-67254271D02*
X15375571Y-67254271D01*
X15375571Y-67254271D02*
X15375571Y-65984271D01*
X16403666Y-66770461D02*
X17371286Y-66770461D01*
X17915571Y-67193795D02*
X18097000Y-67254271D01*
X18097000Y-67254271D02*
X18399381Y-67254271D01*
X18399381Y-67254271D02*
X18520333Y-67193795D01*
X18520333Y-67193795D02*
X18580809Y-67133318D01*
X18580809Y-67133318D02*
X18641286Y-67012366D01*
X18641286Y-67012366D02*
X18641286Y-66891414D01*
X18641286Y-66891414D02*
X18580809Y-66770461D01*
X18580809Y-66770461D02*
X18520333Y-66709985D01*
X18520333Y-66709985D02*
X18399381Y-66649509D01*
X18399381Y-66649509D02*
X18157476Y-66589033D01*
X18157476Y-66589033D02*
X18036524Y-66528556D01*
X18036524Y-66528556D02*
X17976047Y-66468080D01*
X17976047Y-66468080D02*
X17915571Y-66347128D01*
X17915571Y-66347128D02*
X17915571Y-66226175D01*
X17915571Y-66226175D02*
X17976047Y-66105223D01*
X17976047Y-66105223D02*
X18036524Y-66044747D01*
X18036524Y-66044747D02*
X18157476Y-65984271D01*
X18157476Y-65984271D02*
X18459857Y-65984271D01*
X18459857Y-65984271D02*
X18641286Y-66044747D01*
X19790333Y-67254271D02*
X19185571Y-67254271D01*
X19185571Y-67254271D02*
X19185571Y-65984271D01*
X20878905Y-67254271D02*
X20153190Y-67254271D01*
X20516047Y-67254271D02*
X20516047Y-65984271D01*
X20516047Y-65984271D02*
X20395095Y-66165699D01*
X20395095Y-66165699D02*
X20274143Y-66286652D01*
X20274143Y-66286652D02*
X20153190Y-66347128D01*
D11*
X97714285Y-89304819D02*
X97238095Y-89304819D01*
X97238095Y-89304819D02*
X97238095Y-88304819D01*
X98047619Y-88923866D02*
X98809524Y-88923866D01*
X99285714Y-89304819D02*
X99285714Y-88304819D01*
X99285714Y-88304819D02*
X99619047Y-89019104D01*
X99619047Y-89019104D02*
X99952380Y-88304819D01*
X99952380Y-88304819D02*
X99952380Y-89304819D01*
X100428571Y-89304819D02*
X100428571Y-88304819D01*
X100428571Y-88781009D02*
X100999999Y-88781009D01*
X100999999Y-89304819D02*
X100999999Y-88304819D01*
X101952380Y-89304819D02*
X101476190Y-89304819D01*
X101476190Y-89304819D02*
X101476190Y-88304819D01*
X102714285Y-88638152D02*
X102714285Y-89304819D01*
X102476190Y-88257200D02*
X102238095Y-88971485D01*
X102238095Y-88971485D02*
X102857142Y-88971485D01*
X134714285Y-47304819D02*
X134238095Y-47304819D01*
X134238095Y-47304819D02*
X134238095Y-46304819D01*
X135047619Y-46923866D02*
X135809524Y-46923866D01*
X136285714Y-47304819D02*
X136285714Y-46304819D01*
X136285714Y-46304819D02*
X136619047Y-47019104D01*
X136619047Y-47019104D02*
X136952380Y-46304819D01*
X136952380Y-46304819D02*
X136952380Y-47304819D01*
X137428571Y-47304819D02*
X137428571Y-46304819D01*
X137428571Y-46781009D02*
X137999999Y-46781009D01*
X137999999Y-47304819D02*
X137999999Y-46304819D01*
X138952380Y-47304819D02*
X138476190Y-47304819D01*
X138476190Y-47304819D02*
X138476190Y-46304819D01*
X139190476Y-46304819D02*
X139809523Y-46304819D01*
X139809523Y-46304819D02*
X139476190Y-46685771D01*
X139476190Y-46685771D02*
X139619047Y-46685771D01*
X139619047Y-46685771D02*
X139714285Y-46733390D01*
X139714285Y-46733390D02*
X139761904Y-46781009D01*
X139761904Y-46781009D02*
X139809523Y-46876247D01*
X139809523Y-46876247D02*
X139809523Y-47114342D01*
X139809523Y-47114342D02*
X139761904Y-47209580D01*
X139761904Y-47209580D02*
X139714285Y-47257200D01*
X139714285Y-47257200D02*
X139619047Y-47304819D01*
X139619047Y-47304819D02*
X139333333Y-47304819D01*
X139333333Y-47304819D02*
X139238095Y-47257200D01*
X139238095Y-47257200D02*
X139190476Y-47209580D01*
X25714285Y-19304819D02*
X25238095Y-19304819D01*
X25238095Y-19304819D02*
X25238095Y-18304819D01*
X26047619Y-18923866D02*
X26809524Y-18923866D01*
X27285714Y-19304819D02*
X27285714Y-18304819D01*
X27285714Y-18304819D02*
X27619047Y-19019104D01*
X27619047Y-19019104D02*
X27952380Y-18304819D01*
X27952380Y-18304819D02*
X27952380Y-19304819D01*
X28428571Y-19304819D02*
X28428571Y-18304819D01*
X28428571Y-18781009D02*
X28999999Y-18781009D01*
X28999999Y-19304819D02*
X28999999Y-18304819D01*
X29952380Y-19304819D02*
X29476190Y-19304819D01*
X29476190Y-19304819D02*
X29476190Y-18304819D01*
X30809523Y-19304819D02*
X30238095Y-19304819D01*
X30523809Y-19304819D02*
X30523809Y-18304819D01*
X30523809Y-18304819D02*
X30428571Y-18447676D01*
X30428571Y-18447676D02*
X30333333Y-18542914D01*
X30333333Y-18542914D02*
X30238095Y-18590533D01*
X35714285Y-63304819D02*
X35238095Y-63304819D01*
X35238095Y-63304819D02*
X35238095Y-62304819D01*
X36047619Y-62923866D02*
X36809524Y-62923866D01*
X37285714Y-63304819D02*
X37285714Y-62304819D01*
X37285714Y-62304819D02*
X37619047Y-63019104D01*
X37619047Y-63019104D02*
X37952380Y-62304819D01*
X37952380Y-62304819D02*
X37952380Y-63304819D01*
X38428571Y-63304819D02*
X38428571Y-62304819D01*
X38428571Y-62781009D02*
X38999999Y-62781009D01*
X38999999Y-63304819D02*
X38999999Y-62304819D01*
X39952380Y-63304819D02*
X39476190Y-63304819D01*
X39476190Y-63304819D02*
X39476190Y-62304819D01*
X40238095Y-62400057D02*
X40285714Y-62352438D01*
X40285714Y-62352438D02*
X40380952Y-62304819D01*
X40380952Y-62304819D02*
X40619047Y-62304819D01*
X40619047Y-62304819D02*
X40714285Y-62352438D01*
X40714285Y-62352438D02*
X40761904Y-62400057D01*
X40761904Y-62400057D02*
X40809523Y-62495295D01*
X40809523Y-62495295D02*
X40809523Y-62590533D01*
X40809523Y-62590533D02*
X40761904Y-62733390D01*
X40761904Y-62733390D02*
X40190476Y-63304819D01*
X40190476Y-63304819D02*
X40809523Y-63304819D01*
X113186447Y-125021219D02*
X112853114Y-124545028D01*
X112615019Y-125021219D02*
X112615019Y-124021219D01*
X112615019Y-124021219D02*
X112995971Y-124021219D01*
X112995971Y-124021219D02*
X113091209Y-124068838D01*
X113091209Y-124068838D02*
X113138828Y-124116457D01*
X113138828Y-124116457D02*
X113186447Y-124211695D01*
X113186447Y-124211695D02*
X113186447Y-124354552D01*
X113186447Y-124354552D02*
X113138828Y-124449790D01*
X113138828Y-124449790D02*
X113091209Y-124497409D01*
X113091209Y-124497409D02*
X112995971Y-124545028D01*
X112995971Y-124545028D02*
X112615019Y-124545028D01*
X113615019Y-124640266D02*
X114376924Y-124640266D01*
X114853114Y-125021219D02*
X114853114Y-124021219D01*
X114853114Y-124021219D02*
X115186447Y-124735504D01*
X115186447Y-124735504D02*
X115519780Y-124021219D01*
X115519780Y-124021219D02*
X115519780Y-125021219D01*
X115995971Y-125021219D02*
X115995971Y-124021219D01*
X115995971Y-124497409D02*
X116567399Y-124497409D01*
X116567399Y-125021219D02*
X116567399Y-124021219D01*
X117615018Y-125021219D02*
X117281685Y-124545028D01*
X117043590Y-125021219D02*
X117043590Y-124021219D01*
X117043590Y-124021219D02*
X117424542Y-124021219D01*
X117424542Y-124021219D02*
X117519780Y-124068838D01*
X117519780Y-124068838D02*
X117567399Y-124116457D01*
X117567399Y-124116457D02*
X117615018Y-124211695D01*
X117615018Y-124211695D02*
X117615018Y-124354552D01*
X117615018Y-124354552D02*
X117567399Y-124449790D01*
X117567399Y-124449790D02*
X117519780Y-124497409D01*
X117519780Y-124497409D02*
X117424542Y-124545028D01*
X117424542Y-124545028D02*
X117043590Y-124545028D01*
X117948352Y-124021219D02*
X118567399Y-124021219D01*
X118567399Y-124021219D02*
X118234066Y-124402171D01*
X118234066Y-124402171D02*
X118376923Y-124402171D01*
X118376923Y-124402171D02*
X118472161Y-124449790D01*
X118472161Y-124449790D02*
X118519780Y-124497409D01*
X118519780Y-124497409D02*
X118567399Y-124592647D01*
X118567399Y-124592647D02*
X118567399Y-124830742D01*
X118567399Y-124830742D02*
X118519780Y-124925980D01*
X118519780Y-124925980D02*
X118472161Y-124973600D01*
X118472161Y-124973600D02*
X118376923Y-125021219D01*
X118376923Y-125021219D02*
X118091209Y-125021219D01*
X118091209Y-125021219D02*
X117995971Y-124973600D01*
X117995971Y-124973600D02*
X117948352Y-124925980D01*
D10*
X21185681Y-200220771D02*
X20762347Y-199616009D01*
X20459966Y-200220771D02*
X20459966Y-198950771D01*
X20459966Y-198950771D02*
X20943776Y-198950771D01*
X20943776Y-198950771D02*
X21064728Y-199011247D01*
X21064728Y-199011247D02*
X21125205Y-199071723D01*
X21125205Y-199071723D02*
X21185681Y-199192675D01*
X21185681Y-199192675D02*
X21185681Y-199374104D01*
X21185681Y-199374104D02*
X21125205Y-199495056D01*
X21125205Y-199495056D02*
X21064728Y-199555533D01*
X21064728Y-199555533D02*
X20943776Y-199616009D01*
X20943776Y-199616009D02*
X20459966Y-199616009D01*
X21729966Y-199736961D02*
X22697586Y-199736961D01*
X23241871Y-200160295D02*
X23423300Y-200220771D01*
X23423300Y-200220771D02*
X23725681Y-200220771D01*
X23725681Y-200220771D02*
X23846633Y-200160295D01*
X23846633Y-200160295D02*
X23907109Y-200099818D01*
X23907109Y-200099818D02*
X23967586Y-199978866D01*
X23967586Y-199978866D02*
X23967586Y-199857914D01*
X23967586Y-199857914D02*
X23907109Y-199736961D01*
X23907109Y-199736961D02*
X23846633Y-199676485D01*
X23846633Y-199676485D02*
X23725681Y-199616009D01*
X23725681Y-199616009D02*
X23483776Y-199555533D01*
X23483776Y-199555533D02*
X23362824Y-199495056D01*
X23362824Y-199495056D02*
X23302347Y-199434580D01*
X23302347Y-199434580D02*
X23241871Y-199313628D01*
X23241871Y-199313628D02*
X23241871Y-199192675D01*
X23241871Y-199192675D02*
X23302347Y-199071723D01*
X23302347Y-199071723D02*
X23362824Y-199011247D01*
X23362824Y-199011247D02*
X23483776Y-198950771D01*
X23483776Y-198950771D02*
X23786157Y-198950771D01*
X23786157Y-198950771D02*
X23967586Y-199011247D01*
X25237586Y-200220771D02*
X24814252Y-199616009D01*
X24511871Y-200220771D02*
X24511871Y-198950771D01*
X24511871Y-198950771D02*
X24995681Y-198950771D01*
X24995681Y-198950771D02*
X25116633Y-199011247D01*
X25116633Y-199011247D02*
X25177110Y-199071723D01*
X25177110Y-199071723D02*
X25237586Y-199192675D01*
X25237586Y-199192675D02*
X25237586Y-199374104D01*
X25237586Y-199374104D02*
X25177110Y-199495056D01*
X25177110Y-199495056D02*
X25116633Y-199555533D01*
X25116633Y-199555533D02*
X24995681Y-199616009D01*
X24995681Y-199616009D02*
X24511871Y-199616009D01*
X25660919Y-198950771D02*
X26447110Y-198950771D01*
X26447110Y-198950771D02*
X26023776Y-199434580D01*
X26023776Y-199434580D02*
X26205205Y-199434580D01*
X26205205Y-199434580D02*
X26326157Y-199495056D01*
X26326157Y-199495056D02*
X26386633Y-199555533D01*
X26386633Y-199555533D02*
X26447110Y-199676485D01*
X26447110Y-199676485D02*
X26447110Y-199978866D01*
X26447110Y-199978866D02*
X26386633Y-200099818D01*
X26386633Y-200099818D02*
X26326157Y-200160295D01*
X26326157Y-200160295D02*
X26205205Y-200220771D01*
X26205205Y-200220771D02*
X25842348Y-200220771D01*
X25842348Y-200220771D02*
X25721395Y-200160295D01*
X25721395Y-200160295D02*
X25660919Y-200099818D01*
D11*
X139186447Y-148021219D02*
X138853114Y-147545028D01*
X138615019Y-148021219D02*
X138615019Y-147021219D01*
X138615019Y-147021219D02*
X138995971Y-147021219D01*
X138995971Y-147021219D02*
X139091209Y-147068838D01*
X139091209Y-147068838D02*
X139138828Y-147116457D01*
X139138828Y-147116457D02*
X139186447Y-147211695D01*
X139186447Y-147211695D02*
X139186447Y-147354552D01*
X139186447Y-147354552D02*
X139138828Y-147449790D01*
X139138828Y-147449790D02*
X139091209Y-147497409D01*
X139091209Y-147497409D02*
X138995971Y-147545028D01*
X138995971Y-147545028D02*
X138615019Y-147545028D01*
X139615019Y-147640266D02*
X140376924Y-147640266D01*
X140853114Y-148021219D02*
X140853114Y-147021219D01*
X140853114Y-147021219D02*
X141186447Y-147735504D01*
X141186447Y-147735504D02*
X141519780Y-147021219D01*
X141519780Y-147021219D02*
X141519780Y-148021219D01*
X141995971Y-148021219D02*
X141995971Y-147021219D01*
X141995971Y-147497409D02*
X142567399Y-147497409D01*
X142567399Y-148021219D02*
X142567399Y-147021219D01*
X143615018Y-148021219D02*
X143281685Y-147545028D01*
X143043590Y-148021219D02*
X143043590Y-147021219D01*
X143043590Y-147021219D02*
X143424542Y-147021219D01*
X143424542Y-147021219D02*
X143519780Y-147068838D01*
X143519780Y-147068838D02*
X143567399Y-147116457D01*
X143567399Y-147116457D02*
X143615018Y-147211695D01*
X143615018Y-147211695D02*
X143615018Y-147354552D01*
X143615018Y-147354552D02*
X143567399Y-147449790D01*
X143567399Y-147449790D02*
X143519780Y-147497409D01*
X143519780Y-147497409D02*
X143424542Y-147545028D01*
X143424542Y-147545028D02*
X143043590Y-147545028D01*
X144472161Y-147354552D02*
X144472161Y-148021219D01*
X144234066Y-146973600D02*
X143995971Y-147687885D01*
X143995971Y-147687885D02*
X144615018Y-147687885D01*
X44186447Y-196021219D02*
X43853114Y-195545028D01*
X43615019Y-196021219D02*
X43615019Y-195021219D01*
X43615019Y-195021219D02*
X43995971Y-195021219D01*
X43995971Y-195021219D02*
X44091209Y-195068838D01*
X44091209Y-195068838D02*
X44138828Y-195116457D01*
X44138828Y-195116457D02*
X44186447Y-195211695D01*
X44186447Y-195211695D02*
X44186447Y-195354552D01*
X44186447Y-195354552D02*
X44138828Y-195449790D01*
X44138828Y-195449790D02*
X44091209Y-195497409D01*
X44091209Y-195497409D02*
X43995971Y-195545028D01*
X43995971Y-195545028D02*
X43615019Y-195545028D01*
X44615019Y-195640266D02*
X45376924Y-195640266D01*
X45853114Y-196021219D02*
X45853114Y-195021219D01*
X45853114Y-195021219D02*
X46186447Y-195735504D01*
X46186447Y-195735504D02*
X46519780Y-195021219D01*
X46519780Y-195021219D02*
X46519780Y-196021219D01*
X46995971Y-196021219D02*
X46995971Y-195021219D01*
X46995971Y-195497409D02*
X47567399Y-195497409D01*
X47567399Y-196021219D02*
X47567399Y-195021219D01*
X48615018Y-196021219D02*
X48281685Y-195545028D01*
X48043590Y-196021219D02*
X48043590Y-195021219D01*
X48043590Y-195021219D02*
X48424542Y-195021219D01*
X48424542Y-195021219D02*
X48519780Y-195068838D01*
X48519780Y-195068838D02*
X48567399Y-195116457D01*
X48567399Y-195116457D02*
X48615018Y-195211695D01*
X48615018Y-195211695D02*
X48615018Y-195354552D01*
X48615018Y-195354552D02*
X48567399Y-195449790D01*
X48567399Y-195449790D02*
X48519780Y-195497409D01*
X48519780Y-195497409D02*
X48424542Y-195545028D01*
X48424542Y-195545028D02*
X48043590Y-195545028D01*
X48995971Y-195116457D02*
X49043590Y-195068838D01*
X49043590Y-195068838D02*
X49138828Y-195021219D01*
X49138828Y-195021219D02*
X49376923Y-195021219D01*
X49376923Y-195021219D02*
X49472161Y-195068838D01*
X49472161Y-195068838D02*
X49519780Y-195116457D01*
X49519780Y-195116457D02*
X49567399Y-195211695D01*
X49567399Y-195211695D02*
X49567399Y-195306933D01*
X49567399Y-195306933D02*
X49519780Y-195449790D01*
X49519780Y-195449790D02*
X48948352Y-196021219D01*
X48948352Y-196021219D02*
X49567399Y-196021219D01*
D10*
X124650781Y-173970671D02*
X124227447Y-173365909D01*
X123925066Y-173970671D02*
X123925066Y-172700671D01*
X123925066Y-172700671D02*
X124408876Y-172700671D01*
X124408876Y-172700671D02*
X124529828Y-172761147D01*
X124529828Y-172761147D02*
X124590305Y-172821623D01*
X124590305Y-172821623D02*
X124650781Y-172942575D01*
X124650781Y-172942575D02*
X124650781Y-173124004D01*
X124650781Y-173124004D02*
X124590305Y-173244956D01*
X124590305Y-173244956D02*
X124529828Y-173305433D01*
X124529828Y-173305433D02*
X124408876Y-173365909D01*
X124408876Y-173365909D02*
X123925066Y-173365909D01*
X125195066Y-173486861D02*
X126162686Y-173486861D01*
X126706971Y-173910195D02*
X126888400Y-173970671D01*
X126888400Y-173970671D02*
X127190781Y-173970671D01*
X127190781Y-173970671D02*
X127311733Y-173910195D01*
X127311733Y-173910195D02*
X127372209Y-173849718D01*
X127372209Y-173849718D02*
X127432686Y-173728766D01*
X127432686Y-173728766D02*
X127432686Y-173607814D01*
X127432686Y-173607814D02*
X127372209Y-173486861D01*
X127372209Y-173486861D02*
X127311733Y-173426385D01*
X127311733Y-173426385D02*
X127190781Y-173365909D01*
X127190781Y-173365909D02*
X126948876Y-173305433D01*
X126948876Y-173305433D02*
X126827924Y-173244956D01*
X126827924Y-173244956D02*
X126767447Y-173184480D01*
X126767447Y-173184480D02*
X126706971Y-173063528D01*
X126706971Y-173063528D02*
X126706971Y-172942575D01*
X126706971Y-172942575D02*
X126767447Y-172821623D01*
X126767447Y-172821623D02*
X126827924Y-172761147D01*
X126827924Y-172761147D02*
X126948876Y-172700671D01*
X126948876Y-172700671D02*
X127251257Y-172700671D01*
X127251257Y-172700671D02*
X127432686Y-172761147D01*
X128702686Y-173970671D02*
X128279352Y-173365909D01*
X127976971Y-173970671D02*
X127976971Y-172700671D01*
X127976971Y-172700671D02*
X128460781Y-172700671D01*
X128460781Y-172700671D02*
X128581733Y-172761147D01*
X128581733Y-172761147D02*
X128642210Y-172821623D01*
X128642210Y-172821623D02*
X128702686Y-172942575D01*
X128702686Y-172942575D02*
X128702686Y-173124004D01*
X128702686Y-173124004D02*
X128642210Y-173244956D01*
X128642210Y-173244956D02*
X128581733Y-173305433D01*
X128581733Y-173305433D02*
X128460781Y-173365909D01*
X128460781Y-173365909D02*
X127976971Y-173365909D01*
X129186495Y-172821623D02*
X129246971Y-172761147D01*
X129246971Y-172761147D02*
X129367924Y-172700671D01*
X129367924Y-172700671D02*
X129670305Y-172700671D01*
X129670305Y-172700671D02*
X129791257Y-172761147D01*
X129791257Y-172761147D02*
X129851733Y-172821623D01*
X129851733Y-172821623D02*
X129912210Y-172942575D01*
X129912210Y-172942575D02*
X129912210Y-173063528D01*
X129912210Y-173063528D02*
X129851733Y-173244956D01*
X129851733Y-173244956D02*
X129126019Y-173970671D01*
X129126019Y-173970671D02*
X129912210Y-173970671D01*
D11*
X7186447Y-153021219D02*
X6853114Y-152545028D01*
X6615019Y-153021219D02*
X6615019Y-152021219D01*
X6615019Y-152021219D02*
X6995971Y-152021219D01*
X6995971Y-152021219D02*
X7091209Y-152068838D01*
X7091209Y-152068838D02*
X7138828Y-152116457D01*
X7138828Y-152116457D02*
X7186447Y-152211695D01*
X7186447Y-152211695D02*
X7186447Y-152354552D01*
X7186447Y-152354552D02*
X7138828Y-152449790D01*
X7138828Y-152449790D02*
X7091209Y-152497409D01*
X7091209Y-152497409D02*
X6995971Y-152545028D01*
X6995971Y-152545028D02*
X6615019Y-152545028D01*
X7615019Y-152640266D02*
X8376924Y-152640266D01*
X8853114Y-153021219D02*
X8853114Y-152021219D01*
X8853114Y-152021219D02*
X9186447Y-152735504D01*
X9186447Y-152735504D02*
X9519780Y-152021219D01*
X9519780Y-152021219D02*
X9519780Y-153021219D01*
X9995971Y-153021219D02*
X9995971Y-152021219D01*
X9995971Y-152497409D02*
X10567399Y-152497409D01*
X10567399Y-153021219D02*
X10567399Y-152021219D01*
X11615018Y-153021219D02*
X11281685Y-152545028D01*
X11043590Y-153021219D02*
X11043590Y-152021219D01*
X11043590Y-152021219D02*
X11424542Y-152021219D01*
X11424542Y-152021219D02*
X11519780Y-152068838D01*
X11519780Y-152068838D02*
X11567399Y-152116457D01*
X11567399Y-152116457D02*
X11615018Y-152211695D01*
X11615018Y-152211695D02*
X11615018Y-152354552D01*
X11615018Y-152354552D02*
X11567399Y-152449790D01*
X11567399Y-152449790D02*
X11519780Y-152497409D01*
X11519780Y-152497409D02*
X11424542Y-152545028D01*
X11424542Y-152545028D02*
X11043590Y-152545028D01*
X12567399Y-153021219D02*
X11995971Y-153021219D01*
X12281685Y-153021219D02*
X12281685Y-152021219D01*
X12281685Y-152021219D02*
X12186447Y-152164076D01*
X12186447Y-152164076D02*
X12091209Y-152259314D01*
X12091209Y-152259314D02*
X11995971Y-152306933D01*
D10*
X119412781Y-116820671D02*
X118989447Y-116215909D01*
X118687066Y-116820671D02*
X118687066Y-115550671D01*
X118687066Y-115550671D02*
X119170876Y-115550671D01*
X119170876Y-115550671D02*
X119291828Y-115611147D01*
X119291828Y-115611147D02*
X119352305Y-115671623D01*
X119352305Y-115671623D02*
X119412781Y-115792575D01*
X119412781Y-115792575D02*
X119412781Y-115974004D01*
X119412781Y-115974004D02*
X119352305Y-116094956D01*
X119352305Y-116094956D02*
X119291828Y-116155433D01*
X119291828Y-116155433D02*
X119170876Y-116215909D01*
X119170876Y-116215909D02*
X118687066Y-116215909D01*
X119957066Y-116336861D02*
X120924686Y-116336861D01*
X121468971Y-116760195D02*
X121650400Y-116820671D01*
X121650400Y-116820671D02*
X121952781Y-116820671D01*
X121952781Y-116820671D02*
X122073733Y-116760195D01*
X122073733Y-116760195D02*
X122134209Y-116699718D01*
X122134209Y-116699718D02*
X122194686Y-116578766D01*
X122194686Y-116578766D02*
X122194686Y-116457814D01*
X122194686Y-116457814D02*
X122134209Y-116336861D01*
X122134209Y-116336861D02*
X122073733Y-116276385D01*
X122073733Y-116276385D02*
X121952781Y-116215909D01*
X121952781Y-116215909D02*
X121710876Y-116155433D01*
X121710876Y-116155433D02*
X121589924Y-116094956D01*
X121589924Y-116094956D02*
X121529447Y-116034480D01*
X121529447Y-116034480D02*
X121468971Y-115913528D01*
X121468971Y-115913528D02*
X121468971Y-115792575D01*
X121468971Y-115792575D02*
X121529447Y-115671623D01*
X121529447Y-115671623D02*
X121589924Y-115611147D01*
X121589924Y-115611147D02*
X121710876Y-115550671D01*
X121710876Y-115550671D02*
X122013257Y-115550671D01*
X122013257Y-115550671D02*
X122194686Y-115611147D01*
X123464686Y-116820671D02*
X123041352Y-116215909D01*
X122738971Y-116820671D02*
X122738971Y-115550671D01*
X122738971Y-115550671D02*
X123222781Y-115550671D01*
X123222781Y-115550671D02*
X123343733Y-115611147D01*
X123343733Y-115611147D02*
X123404210Y-115671623D01*
X123404210Y-115671623D02*
X123464686Y-115792575D01*
X123464686Y-115792575D02*
X123464686Y-115974004D01*
X123464686Y-115974004D02*
X123404210Y-116094956D01*
X123404210Y-116094956D02*
X123343733Y-116155433D01*
X123343733Y-116155433D02*
X123222781Y-116215909D01*
X123222781Y-116215909D02*
X122738971Y-116215909D01*
X124674210Y-116820671D02*
X123948495Y-116820671D01*
X124311352Y-116820671D02*
X124311352Y-115550671D01*
X124311352Y-115550671D02*
X124190400Y-115732099D01*
X124190400Y-115732099D02*
X124069448Y-115853052D01*
X124069448Y-115853052D02*
X123948495Y-115913528D01*
D11*
X30292496Y2245180D02*
X30292496Y3245180D01*
X30292496Y3245180D02*
X30625829Y2530895D01*
X30625829Y2530895D02*
X30959162Y3245180D01*
X30959162Y3245180D02*
X30959162Y2245180D01*
X31768686Y2768990D02*
X31911543Y2721371D01*
X31911543Y2721371D02*
X31959162Y2673752D01*
X31959162Y2673752D02*
X32006781Y2578514D01*
X32006781Y2578514D02*
X32006781Y2435657D01*
X32006781Y2435657D02*
X31959162Y2340419D01*
X31959162Y2340419D02*
X31911543Y2292800D01*
X31911543Y2292800D02*
X31816305Y2245180D01*
X31816305Y2245180D02*
X31435353Y2245180D01*
X31435353Y2245180D02*
X31435353Y3245180D01*
X31435353Y3245180D02*
X31768686Y3245180D01*
X31768686Y3245180D02*
X31863924Y3197561D01*
X31863924Y3197561D02*
X31911543Y3149942D01*
X31911543Y3149942D02*
X31959162Y3054704D01*
X31959162Y3054704D02*
X31959162Y2959466D01*
X31959162Y2959466D02*
X31911543Y2864228D01*
X31911543Y2864228D02*
X31863924Y2816609D01*
X31863924Y2816609D02*
X31768686Y2768990D01*
X31768686Y2768990D02*
X31435353Y2768990D01*
X32959162Y2245180D02*
X32387734Y2245180D01*
X32673448Y2245180D02*
X32673448Y3245180D01*
X32673448Y3245180D02*
X32578210Y3102323D01*
X32578210Y3102323D02*
X32482972Y3007085D01*
X32482972Y3007085D02*
X32387734Y2959466D01*
X31042496Y2245180D02*
X31042496Y3245180D01*
X31042496Y3245180D02*
X31375829Y2530895D01*
X31375829Y2530895D02*
X31709162Y3245180D01*
X31709162Y3245180D02*
X31709162Y2245180D01*
X32518686Y2768990D02*
X32661543Y2721371D01*
X32661543Y2721371D02*
X32709162Y2673752D01*
X32709162Y2673752D02*
X32756781Y2578514D01*
X32756781Y2578514D02*
X32756781Y2435657D01*
X32756781Y2435657D02*
X32709162Y2340419D01*
X32709162Y2340419D02*
X32661543Y2292800D01*
X32661543Y2292800D02*
X32566305Y2245180D01*
X32566305Y2245180D02*
X32185353Y2245180D01*
X32185353Y2245180D02*
X32185353Y3245180D01*
X32185353Y3245180D02*
X32518686Y3245180D01*
X32518686Y3245180D02*
X32613924Y3197561D01*
X32613924Y3197561D02*
X32661543Y3149942D01*
X32661543Y3149942D02*
X32709162Y3054704D01*
X32709162Y3054704D02*
X32709162Y2959466D01*
X32709162Y2959466D02*
X32661543Y2864228D01*
X32661543Y2864228D02*
X32613924Y2816609D01*
X32613924Y2816609D02*
X32518686Y2768990D01*
X32518686Y2768990D02*
X32185353Y2768990D01*
X33137734Y3149942D02*
X33185353Y3197561D01*
X33185353Y3197561D02*
X33280591Y3245180D01*
X33280591Y3245180D02*
X33518686Y3245180D01*
X33518686Y3245180D02*
X33613924Y3197561D01*
X33613924Y3197561D02*
X33661543Y3149942D01*
X33661543Y3149942D02*
X33709162Y3054704D01*
X33709162Y3054704D02*
X33709162Y2959466D01*
X33709162Y2959466D02*
X33661543Y2816609D01*
X33661543Y2816609D02*
X33090115Y2245180D01*
X33090115Y2245180D02*
X33709162Y2245180D01*
X31792496Y2245180D02*
X31792496Y3245180D01*
X31792496Y3245180D02*
X32125829Y2530895D01*
X32125829Y2530895D02*
X32459162Y3245180D01*
X32459162Y3245180D02*
X32459162Y2245180D01*
X33268686Y2768990D02*
X33411543Y2721371D01*
X33411543Y2721371D02*
X33459162Y2673752D01*
X33459162Y2673752D02*
X33506781Y2578514D01*
X33506781Y2578514D02*
X33506781Y2435657D01*
X33506781Y2435657D02*
X33459162Y2340419D01*
X33459162Y2340419D02*
X33411543Y2292800D01*
X33411543Y2292800D02*
X33316305Y2245180D01*
X33316305Y2245180D02*
X32935353Y2245180D01*
X32935353Y2245180D02*
X32935353Y3245180D01*
X32935353Y3245180D02*
X33268686Y3245180D01*
X33268686Y3245180D02*
X33363924Y3197561D01*
X33363924Y3197561D02*
X33411543Y3149942D01*
X33411543Y3149942D02*
X33459162Y3054704D01*
X33459162Y3054704D02*
X33459162Y2959466D01*
X33459162Y2959466D02*
X33411543Y2864228D01*
X33411543Y2864228D02*
X33363924Y2816609D01*
X33363924Y2816609D02*
X33268686Y2768990D01*
X33268686Y2768990D02*
X32935353Y2768990D01*
X33840115Y3245180D02*
X34459162Y3245180D01*
X34459162Y3245180D02*
X34125829Y2864228D01*
X34125829Y2864228D02*
X34268686Y2864228D01*
X34268686Y2864228D02*
X34363924Y2816609D01*
X34363924Y2816609D02*
X34411543Y2768990D01*
X34411543Y2768990D02*
X34459162Y2673752D01*
X34459162Y2673752D02*
X34459162Y2435657D01*
X34459162Y2435657D02*
X34411543Y2340419D01*
X34411543Y2340419D02*
X34363924Y2292800D01*
X34363924Y2292800D02*
X34268686Y2245180D01*
X34268686Y2245180D02*
X33982972Y2245180D01*
X33982972Y2245180D02*
X33887734Y2292800D01*
X33887734Y2292800D02*
X33840115Y2340419D01*
X32542496Y2245180D02*
X32542496Y3245180D01*
X32542496Y3245180D02*
X32875829Y2530895D01*
X32875829Y2530895D02*
X33209162Y3245180D01*
X33209162Y3245180D02*
X33209162Y2245180D01*
X34018686Y2768990D02*
X34161543Y2721371D01*
X34161543Y2721371D02*
X34209162Y2673752D01*
X34209162Y2673752D02*
X34256781Y2578514D01*
X34256781Y2578514D02*
X34256781Y2435657D01*
X34256781Y2435657D02*
X34209162Y2340419D01*
X34209162Y2340419D02*
X34161543Y2292800D01*
X34161543Y2292800D02*
X34066305Y2245180D01*
X34066305Y2245180D02*
X33685353Y2245180D01*
X33685353Y2245180D02*
X33685353Y3245180D01*
X33685353Y3245180D02*
X34018686Y3245180D01*
X34018686Y3245180D02*
X34113924Y3197561D01*
X34113924Y3197561D02*
X34161543Y3149942D01*
X34161543Y3149942D02*
X34209162Y3054704D01*
X34209162Y3054704D02*
X34209162Y2959466D01*
X34209162Y2959466D02*
X34161543Y2864228D01*
X34161543Y2864228D02*
X34113924Y2816609D01*
X34113924Y2816609D02*
X34018686Y2768990D01*
X34018686Y2768990D02*
X33685353Y2768990D01*
X35113924Y2911847D02*
X35113924Y2245180D01*
X34875829Y3292800D02*
X34637734Y2578514D01*
X34637734Y2578514D02*
X35256781Y2578514D01*
X33292496Y2245180D02*
X33292496Y3245180D01*
X33292496Y3245180D02*
X33625829Y2530895D01*
X33625829Y2530895D02*
X33959162Y3245180D01*
X33959162Y3245180D02*
X33959162Y2245180D01*
X34768686Y2768990D02*
X34911543Y2721371D01*
X34911543Y2721371D02*
X34959162Y2673752D01*
X34959162Y2673752D02*
X35006781Y2578514D01*
X35006781Y2578514D02*
X35006781Y2435657D01*
X35006781Y2435657D02*
X34959162Y2340419D01*
X34959162Y2340419D02*
X34911543Y2292800D01*
X34911543Y2292800D02*
X34816305Y2245180D01*
X34816305Y2245180D02*
X34435353Y2245180D01*
X34435353Y2245180D02*
X34435353Y3245180D01*
X34435353Y3245180D02*
X34768686Y3245180D01*
X34768686Y3245180D02*
X34863924Y3197561D01*
X34863924Y3197561D02*
X34911543Y3149942D01*
X34911543Y3149942D02*
X34959162Y3054704D01*
X34959162Y3054704D02*
X34959162Y2959466D01*
X34959162Y2959466D02*
X34911543Y2864228D01*
X34911543Y2864228D02*
X34863924Y2816609D01*
X34863924Y2816609D02*
X34768686Y2768990D01*
X34768686Y2768990D02*
X34435353Y2768990D01*
X35911543Y3245180D02*
X35435353Y3245180D01*
X35435353Y3245180D02*
X35387734Y2768990D01*
X35387734Y2768990D02*
X35435353Y2816609D01*
X35435353Y2816609D02*
X35530591Y2864228D01*
X35530591Y2864228D02*
X35768686Y2864228D01*
X35768686Y2864228D02*
X35863924Y2816609D01*
X35863924Y2816609D02*
X35911543Y2768990D01*
X35911543Y2768990D02*
X35959162Y2673752D01*
X35959162Y2673752D02*
X35959162Y2435657D01*
X35959162Y2435657D02*
X35911543Y2340419D01*
X35911543Y2340419D02*
X35863924Y2292800D01*
X35863924Y2292800D02*
X35768686Y2245180D01*
X35768686Y2245180D02*
X35530591Y2245180D01*
X35530591Y2245180D02*
X35435353Y2292800D01*
X35435353Y2292800D02*
X35387734Y2340419D01*
X30292496Y-100597759D02*
X30292496Y-99597759D01*
X30292496Y-99597759D02*
X30625829Y-100312044D01*
X30625829Y-100312044D02*
X30959162Y-99597759D01*
X30959162Y-99597759D02*
X30959162Y-100597759D01*
X31768686Y-100073949D02*
X31911543Y-100121568D01*
X31911543Y-100121568D02*
X31959162Y-100169187D01*
X31959162Y-100169187D02*
X32006781Y-100264425D01*
X32006781Y-100264425D02*
X32006781Y-100407282D01*
X32006781Y-100407282D02*
X31959162Y-100502520D01*
X31959162Y-100502520D02*
X31911543Y-100550140D01*
X31911543Y-100550140D02*
X31816305Y-100597759D01*
X31816305Y-100597759D02*
X31435353Y-100597759D01*
X31435353Y-100597759D02*
X31435353Y-99597759D01*
X31435353Y-99597759D02*
X31768686Y-99597759D01*
X31768686Y-99597759D02*
X31863924Y-99645378D01*
X31863924Y-99645378D02*
X31911543Y-99692997D01*
X31911543Y-99692997D02*
X31959162Y-99788235D01*
X31959162Y-99788235D02*
X31959162Y-99883473D01*
X31959162Y-99883473D02*
X31911543Y-99978711D01*
X31911543Y-99978711D02*
X31863924Y-100026330D01*
X31863924Y-100026330D02*
X31768686Y-100073949D01*
X31768686Y-100073949D02*
X31435353Y-100073949D01*
X32863924Y-99597759D02*
X32673448Y-99597759D01*
X32673448Y-99597759D02*
X32578210Y-99645378D01*
X32578210Y-99645378D02*
X32530591Y-99692997D01*
X32530591Y-99692997D02*
X32435353Y-99835854D01*
X32435353Y-99835854D02*
X32387734Y-100026330D01*
X32387734Y-100026330D02*
X32387734Y-100407282D01*
X32387734Y-100407282D02*
X32435353Y-100502520D01*
X32435353Y-100502520D02*
X32482972Y-100550140D01*
X32482972Y-100550140D02*
X32578210Y-100597759D01*
X32578210Y-100597759D02*
X32768686Y-100597759D01*
X32768686Y-100597759D02*
X32863924Y-100550140D01*
X32863924Y-100550140D02*
X32911543Y-100502520D01*
X32911543Y-100502520D02*
X32959162Y-100407282D01*
X32959162Y-100407282D02*
X32959162Y-100169187D01*
X32959162Y-100169187D02*
X32911543Y-100073949D01*
X32911543Y-100073949D02*
X32863924Y-100026330D01*
X32863924Y-100026330D02*
X32768686Y-99978711D01*
X32768686Y-99978711D02*
X32578210Y-99978711D01*
X32578210Y-99978711D02*
X32482972Y-100026330D01*
X32482972Y-100026330D02*
X32435353Y-100073949D01*
X32435353Y-100073949D02*
X32387734Y-100169187D01*
X31042496Y-100597759D02*
X31042496Y-99597759D01*
X31042496Y-99597759D02*
X31375829Y-100312044D01*
X31375829Y-100312044D02*
X31709162Y-99597759D01*
X31709162Y-99597759D02*
X31709162Y-100597759D01*
X32518686Y-100073949D02*
X32661543Y-100121568D01*
X32661543Y-100121568D02*
X32709162Y-100169187D01*
X32709162Y-100169187D02*
X32756781Y-100264425D01*
X32756781Y-100264425D02*
X32756781Y-100407282D01*
X32756781Y-100407282D02*
X32709162Y-100502520D01*
X32709162Y-100502520D02*
X32661543Y-100550140D01*
X32661543Y-100550140D02*
X32566305Y-100597759D01*
X32566305Y-100597759D02*
X32185353Y-100597759D01*
X32185353Y-100597759D02*
X32185353Y-99597759D01*
X32185353Y-99597759D02*
X32518686Y-99597759D01*
X32518686Y-99597759D02*
X32613924Y-99645378D01*
X32613924Y-99645378D02*
X32661543Y-99692997D01*
X32661543Y-99692997D02*
X32709162Y-99788235D01*
X32709162Y-99788235D02*
X32709162Y-99883473D01*
X32709162Y-99883473D02*
X32661543Y-99978711D01*
X32661543Y-99978711D02*
X32613924Y-100026330D01*
X32613924Y-100026330D02*
X32518686Y-100073949D01*
X32518686Y-100073949D02*
X32185353Y-100073949D01*
X33090115Y-99597759D02*
X33756781Y-99597759D01*
X33756781Y-99597759D02*
X33328210Y-100597759D01*
X31792496Y-100597759D02*
X31792496Y-99597759D01*
X31792496Y-99597759D02*
X32125829Y-100312044D01*
X32125829Y-100312044D02*
X32459162Y-99597759D01*
X32459162Y-99597759D02*
X32459162Y-100597759D01*
X33268686Y-100073949D02*
X33411543Y-100121568D01*
X33411543Y-100121568D02*
X33459162Y-100169187D01*
X33459162Y-100169187D02*
X33506781Y-100264425D01*
X33506781Y-100264425D02*
X33506781Y-100407282D01*
X33506781Y-100407282D02*
X33459162Y-100502520D01*
X33459162Y-100502520D02*
X33411543Y-100550140D01*
X33411543Y-100550140D02*
X33316305Y-100597759D01*
X33316305Y-100597759D02*
X32935353Y-100597759D01*
X32935353Y-100597759D02*
X32935353Y-99597759D01*
X32935353Y-99597759D02*
X33268686Y-99597759D01*
X33268686Y-99597759D02*
X33363924Y-99645378D01*
X33363924Y-99645378D02*
X33411543Y-99692997D01*
X33411543Y-99692997D02*
X33459162Y-99788235D01*
X33459162Y-99788235D02*
X33459162Y-99883473D01*
X33459162Y-99883473D02*
X33411543Y-99978711D01*
X33411543Y-99978711D02*
X33363924Y-100026330D01*
X33363924Y-100026330D02*
X33268686Y-100073949D01*
X33268686Y-100073949D02*
X32935353Y-100073949D01*
X34078210Y-100026330D02*
X33982972Y-99978711D01*
X33982972Y-99978711D02*
X33935353Y-99931092D01*
X33935353Y-99931092D02*
X33887734Y-99835854D01*
X33887734Y-99835854D02*
X33887734Y-99788235D01*
X33887734Y-99788235D02*
X33935353Y-99692997D01*
X33935353Y-99692997D02*
X33982972Y-99645378D01*
X33982972Y-99645378D02*
X34078210Y-99597759D01*
X34078210Y-99597759D02*
X34268686Y-99597759D01*
X34268686Y-99597759D02*
X34363924Y-99645378D01*
X34363924Y-99645378D02*
X34411543Y-99692997D01*
X34411543Y-99692997D02*
X34459162Y-99788235D01*
X34459162Y-99788235D02*
X34459162Y-99835854D01*
X34459162Y-99835854D02*
X34411543Y-99931092D01*
X34411543Y-99931092D02*
X34363924Y-99978711D01*
X34363924Y-99978711D02*
X34268686Y-100026330D01*
X34268686Y-100026330D02*
X34078210Y-100026330D01*
X34078210Y-100026330D02*
X33982972Y-100073949D01*
X33982972Y-100073949D02*
X33935353Y-100121568D01*
X33935353Y-100121568D02*
X33887734Y-100216806D01*
X33887734Y-100216806D02*
X33887734Y-100407282D01*
X33887734Y-100407282D02*
X33935353Y-100502520D01*
X33935353Y-100502520D02*
X33982972Y-100550140D01*
X33982972Y-100550140D02*
X34078210Y-100597759D01*
X34078210Y-100597759D02*
X34268686Y-100597759D01*
X34268686Y-100597759D02*
X34363924Y-100550140D01*
X34363924Y-100550140D02*
X34411543Y-100502520D01*
X34411543Y-100502520D02*
X34459162Y-100407282D01*
X34459162Y-100407282D02*
X34459162Y-100216806D01*
X34459162Y-100216806D02*
X34411543Y-100121568D01*
X34411543Y-100121568D02*
X34363924Y-100073949D01*
X34363924Y-100073949D02*
X34268686Y-100026330D01*
X32542496Y-100597759D02*
X32542496Y-99597759D01*
X32542496Y-99597759D02*
X32875829Y-100312044D01*
X32875829Y-100312044D02*
X33209162Y-99597759D01*
X33209162Y-99597759D02*
X33209162Y-100597759D01*
X34018686Y-100073949D02*
X34161543Y-100121568D01*
X34161543Y-100121568D02*
X34209162Y-100169187D01*
X34209162Y-100169187D02*
X34256781Y-100264425D01*
X34256781Y-100264425D02*
X34256781Y-100407282D01*
X34256781Y-100407282D02*
X34209162Y-100502520D01*
X34209162Y-100502520D02*
X34161543Y-100550140D01*
X34161543Y-100550140D02*
X34066305Y-100597759D01*
X34066305Y-100597759D02*
X33685353Y-100597759D01*
X33685353Y-100597759D02*
X33685353Y-99597759D01*
X33685353Y-99597759D02*
X34018686Y-99597759D01*
X34018686Y-99597759D02*
X34113924Y-99645378D01*
X34113924Y-99645378D02*
X34161543Y-99692997D01*
X34161543Y-99692997D02*
X34209162Y-99788235D01*
X34209162Y-99788235D02*
X34209162Y-99883473D01*
X34209162Y-99883473D02*
X34161543Y-99978711D01*
X34161543Y-99978711D02*
X34113924Y-100026330D01*
X34113924Y-100026330D02*
X34018686Y-100073949D01*
X34018686Y-100073949D02*
X33685353Y-100073949D01*
X34732972Y-100597759D02*
X34923448Y-100597759D01*
X34923448Y-100597759D02*
X35018686Y-100550140D01*
X35018686Y-100550140D02*
X35066305Y-100502520D01*
X35066305Y-100502520D02*
X35161543Y-100359663D01*
X35161543Y-100359663D02*
X35209162Y-100169187D01*
X35209162Y-100169187D02*
X35209162Y-99788235D01*
X35209162Y-99788235D02*
X35161543Y-99692997D01*
X35161543Y-99692997D02*
X35113924Y-99645378D01*
X35113924Y-99645378D02*
X35018686Y-99597759D01*
X35018686Y-99597759D02*
X34828210Y-99597759D01*
X34828210Y-99597759D02*
X34732972Y-99645378D01*
X34732972Y-99645378D02*
X34685353Y-99692997D01*
X34685353Y-99692997D02*
X34637734Y-99788235D01*
X34637734Y-99788235D02*
X34637734Y-100026330D01*
X34637734Y-100026330D02*
X34685353Y-100121568D01*
X34685353Y-100121568D02*
X34732972Y-100169187D01*
X34732972Y-100169187D02*
X34828210Y-100216806D01*
X34828210Y-100216806D02*
X35018686Y-100216806D01*
X35018686Y-100216806D02*
X35113924Y-100169187D01*
X35113924Y-100169187D02*
X35161543Y-100121568D01*
X35161543Y-100121568D02*
X35209162Y-100026330D01*
X32816306Y-100597759D02*
X32816306Y-99597759D01*
X32816306Y-99597759D02*
X33149639Y-100312044D01*
X33149639Y-100312044D02*
X33482972Y-99597759D01*
X33482972Y-99597759D02*
X33482972Y-100597759D01*
X34292496Y-100073949D02*
X34435353Y-100121568D01*
X34435353Y-100121568D02*
X34482972Y-100169187D01*
X34482972Y-100169187D02*
X34530591Y-100264425D01*
X34530591Y-100264425D02*
X34530591Y-100407282D01*
X34530591Y-100407282D02*
X34482972Y-100502520D01*
X34482972Y-100502520D02*
X34435353Y-100550140D01*
X34435353Y-100550140D02*
X34340115Y-100597759D01*
X34340115Y-100597759D02*
X33959163Y-100597759D01*
X33959163Y-100597759D02*
X33959163Y-99597759D01*
X33959163Y-99597759D02*
X34292496Y-99597759D01*
X34292496Y-99597759D02*
X34387734Y-99645378D01*
X34387734Y-99645378D02*
X34435353Y-99692997D01*
X34435353Y-99692997D02*
X34482972Y-99788235D01*
X34482972Y-99788235D02*
X34482972Y-99883473D01*
X34482972Y-99883473D02*
X34435353Y-99978711D01*
X34435353Y-99978711D02*
X34387734Y-100026330D01*
X34387734Y-100026330D02*
X34292496Y-100073949D01*
X34292496Y-100073949D02*
X33959163Y-100073949D01*
X35482972Y-100597759D02*
X34911544Y-100597759D01*
X35197258Y-100597759D02*
X35197258Y-99597759D01*
X35197258Y-99597759D02*
X35102020Y-99740616D01*
X35102020Y-99740616D02*
X35006782Y-99835854D01*
X35006782Y-99835854D02*
X34911544Y-99883473D01*
X36102020Y-99597759D02*
X36197258Y-99597759D01*
X36197258Y-99597759D02*
X36292496Y-99645378D01*
X36292496Y-99645378D02*
X36340115Y-99692997D01*
X36340115Y-99692997D02*
X36387734Y-99788235D01*
X36387734Y-99788235D02*
X36435353Y-99978711D01*
X36435353Y-99978711D02*
X36435353Y-100216806D01*
X36435353Y-100216806D02*
X36387734Y-100407282D01*
X36387734Y-100407282D02*
X36340115Y-100502520D01*
X36340115Y-100502520D02*
X36292496Y-100550140D01*
X36292496Y-100550140D02*
X36197258Y-100597759D01*
X36197258Y-100597759D02*
X36102020Y-100597759D01*
X36102020Y-100597759D02*
X36006782Y-100550140D01*
X36006782Y-100550140D02*
X35959163Y-100502520D01*
X35959163Y-100502520D02*
X35911544Y-100407282D01*
X35911544Y-100407282D02*
X35863925Y-100216806D01*
X35863925Y-100216806D02*
X35863925Y-99978711D01*
X35863925Y-99978711D02*
X35911544Y-99788235D01*
X35911544Y-99788235D02*
X35959163Y-99692997D01*
X35959163Y-99692997D02*
X36006782Y-99645378D01*
X36006782Y-99645378D02*
X36102020Y-99597759D01*
X29816306Y-204896789D02*
X29816306Y-203896789D01*
X29816306Y-203896789D02*
X30149639Y-204611074D01*
X30149639Y-204611074D02*
X30482972Y-203896789D01*
X30482972Y-203896789D02*
X30482972Y-204896789D01*
X31292496Y-204372979D02*
X31435353Y-204420598D01*
X31435353Y-204420598D02*
X31482972Y-204468217D01*
X31482972Y-204468217D02*
X31530591Y-204563455D01*
X31530591Y-204563455D02*
X31530591Y-204706312D01*
X31530591Y-204706312D02*
X31482972Y-204801550D01*
X31482972Y-204801550D02*
X31435353Y-204849170D01*
X31435353Y-204849170D02*
X31340115Y-204896789D01*
X31340115Y-204896789D02*
X30959163Y-204896789D01*
X30959163Y-204896789D02*
X30959163Y-203896789D01*
X30959163Y-203896789D02*
X31292496Y-203896789D01*
X31292496Y-203896789D02*
X31387734Y-203944408D01*
X31387734Y-203944408D02*
X31435353Y-203992027D01*
X31435353Y-203992027D02*
X31482972Y-204087265D01*
X31482972Y-204087265D02*
X31482972Y-204182503D01*
X31482972Y-204182503D02*
X31435353Y-204277741D01*
X31435353Y-204277741D02*
X31387734Y-204325360D01*
X31387734Y-204325360D02*
X31292496Y-204372979D01*
X31292496Y-204372979D02*
X30959163Y-204372979D01*
X32482972Y-204896789D02*
X31911544Y-204896789D01*
X32197258Y-204896789D02*
X32197258Y-203896789D01*
X32197258Y-203896789D02*
X32102020Y-204039646D01*
X32102020Y-204039646D02*
X32006782Y-204134884D01*
X32006782Y-204134884D02*
X31911544Y-204182503D01*
X33435353Y-204896789D02*
X32863925Y-204896789D01*
X33149639Y-204896789D02*
X33149639Y-203896789D01*
X33149639Y-203896789D02*
X33054401Y-204039646D01*
X33054401Y-204039646D02*
X32959163Y-204134884D01*
X32959163Y-204134884D02*
X32863925Y-204182503D01*
X30566306Y-204896789D02*
X30566306Y-203896789D01*
X30566306Y-203896789D02*
X30899639Y-204611074D01*
X30899639Y-204611074D02*
X31232972Y-203896789D01*
X31232972Y-203896789D02*
X31232972Y-204896789D01*
X32042496Y-204372979D02*
X32185353Y-204420598D01*
X32185353Y-204420598D02*
X32232972Y-204468217D01*
X32232972Y-204468217D02*
X32280591Y-204563455D01*
X32280591Y-204563455D02*
X32280591Y-204706312D01*
X32280591Y-204706312D02*
X32232972Y-204801550D01*
X32232972Y-204801550D02*
X32185353Y-204849170D01*
X32185353Y-204849170D02*
X32090115Y-204896789D01*
X32090115Y-204896789D02*
X31709163Y-204896789D01*
X31709163Y-204896789D02*
X31709163Y-203896789D01*
X31709163Y-203896789D02*
X32042496Y-203896789D01*
X32042496Y-203896789D02*
X32137734Y-203944408D01*
X32137734Y-203944408D02*
X32185353Y-203992027D01*
X32185353Y-203992027D02*
X32232972Y-204087265D01*
X32232972Y-204087265D02*
X32232972Y-204182503D01*
X32232972Y-204182503D02*
X32185353Y-204277741D01*
X32185353Y-204277741D02*
X32137734Y-204325360D01*
X32137734Y-204325360D02*
X32042496Y-204372979D01*
X32042496Y-204372979D02*
X31709163Y-204372979D01*
X33232972Y-204896789D02*
X32661544Y-204896789D01*
X32947258Y-204896789D02*
X32947258Y-203896789D01*
X32947258Y-203896789D02*
X32852020Y-204039646D01*
X32852020Y-204039646D02*
X32756782Y-204134884D01*
X32756782Y-204134884D02*
X32661544Y-204182503D01*
X33613925Y-203992027D02*
X33661544Y-203944408D01*
X33661544Y-203944408D02*
X33756782Y-203896789D01*
X33756782Y-203896789D02*
X33994877Y-203896789D01*
X33994877Y-203896789D02*
X34090115Y-203944408D01*
X34090115Y-203944408D02*
X34137734Y-203992027D01*
X34137734Y-203992027D02*
X34185353Y-204087265D01*
X34185353Y-204087265D02*
X34185353Y-204182503D01*
X34185353Y-204182503D02*
X34137734Y-204325360D01*
X34137734Y-204325360D02*
X33566306Y-204896789D01*
X33566306Y-204896789D02*
X34185353Y-204896789D01*
X31316306Y-204896789D02*
X31316306Y-203896789D01*
X31316306Y-203896789D02*
X31649639Y-204611074D01*
X31649639Y-204611074D02*
X31982972Y-203896789D01*
X31982972Y-203896789D02*
X31982972Y-204896789D01*
X32792496Y-204372979D02*
X32935353Y-204420598D01*
X32935353Y-204420598D02*
X32982972Y-204468217D01*
X32982972Y-204468217D02*
X33030591Y-204563455D01*
X33030591Y-204563455D02*
X33030591Y-204706312D01*
X33030591Y-204706312D02*
X32982972Y-204801550D01*
X32982972Y-204801550D02*
X32935353Y-204849170D01*
X32935353Y-204849170D02*
X32840115Y-204896789D01*
X32840115Y-204896789D02*
X32459163Y-204896789D01*
X32459163Y-204896789D02*
X32459163Y-203896789D01*
X32459163Y-203896789D02*
X32792496Y-203896789D01*
X32792496Y-203896789D02*
X32887734Y-203944408D01*
X32887734Y-203944408D02*
X32935353Y-203992027D01*
X32935353Y-203992027D02*
X32982972Y-204087265D01*
X32982972Y-204087265D02*
X32982972Y-204182503D01*
X32982972Y-204182503D02*
X32935353Y-204277741D01*
X32935353Y-204277741D02*
X32887734Y-204325360D01*
X32887734Y-204325360D02*
X32792496Y-204372979D01*
X32792496Y-204372979D02*
X32459163Y-204372979D01*
X33982972Y-204896789D02*
X33411544Y-204896789D01*
X33697258Y-204896789D02*
X33697258Y-203896789D01*
X33697258Y-203896789D02*
X33602020Y-204039646D01*
X33602020Y-204039646D02*
X33506782Y-204134884D01*
X33506782Y-204134884D02*
X33411544Y-204182503D01*
X34316306Y-203896789D02*
X34935353Y-203896789D01*
X34935353Y-203896789D02*
X34602020Y-204277741D01*
X34602020Y-204277741D02*
X34744877Y-204277741D01*
X34744877Y-204277741D02*
X34840115Y-204325360D01*
X34840115Y-204325360D02*
X34887734Y-204372979D01*
X34887734Y-204372979D02*
X34935353Y-204468217D01*
X34935353Y-204468217D02*
X34935353Y-204706312D01*
X34935353Y-204706312D02*
X34887734Y-204801550D01*
X34887734Y-204801550D02*
X34840115Y-204849170D01*
X34840115Y-204849170D02*
X34744877Y-204896789D01*
X34744877Y-204896789D02*
X34459163Y-204896789D01*
X34459163Y-204896789D02*
X34363925Y-204849170D01*
X34363925Y-204849170D02*
X34316306Y-204801550D01*
X32066306Y-204896789D02*
X32066306Y-203896789D01*
X32066306Y-203896789D02*
X32399639Y-204611074D01*
X32399639Y-204611074D02*
X32732972Y-203896789D01*
X32732972Y-203896789D02*
X32732972Y-204896789D01*
X33542496Y-204372979D02*
X33685353Y-204420598D01*
X33685353Y-204420598D02*
X33732972Y-204468217D01*
X33732972Y-204468217D02*
X33780591Y-204563455D01*
X33780591Y-204563455D02*
X33780591Y-204706312D01*
X33780591Y-204706312D02*
X33732972Y-204801550D01*
X33732972Y-204801550D02*
X33685353Y-204849170D01*
X33685353Y-204849170D02*
X33590115Y-204896789D01*
X33590115Y-204896789D02*
X33209163Y-204896789D01*
X33209163Y-204896789D02*
X33209163Y-203896789D01*
X33209163Y-203896789D02*
X33542496Y-203896789D01*
X33542496Y-203896789D02*
X33637734Y-203944408D01*
X33637734Y-203944408D02*
X33685353Y-203992027D01*
X33685353Y-203992027D02*
X33732972Y-204087265D01*
X33732972Y-204087265D02*
X33732972Y-204182503D01*
X33732972Y-204182503D02*
X33685353Y-204277741D01*
X33685353Y-204277741D02*
X33637734Y-204325360D01*
X33637734Y-204325360D02*
X33542496Y-204372979D01*
X33542496Y-204372979D02*
X33209163Y-204372979D01*
X34732972Y-204896789D02*
X34161544Y-204896789D01*
X34447258Y-204896789D02*
X34447258Y-203896789D01*
X34447258Y-203896789D02*
X34352020Y-204039646D01*
X34352020Y-204039646D02*
X34256782Y-204134884D01*
X34256782Y-204134884D02*
X34161544Y-204182503D01*
X35590115Y-204230122D02*
X35590115Y-204896789D01*
X35352020Y-203849170D02*
X35113925Y-204563455D01*
X35113925Y-204563455D02*
X35732972Y-204563455D01*
X32816306Y-204896789D02*
X32816306Y-203896789D01*
X32816306Y-203896789D02*
X33149639Y-204611074D01*
X33149639Y-204611074D02*
X33482972Y-203896789D01*
X33482972Y-203896789D02*
X33482972Y-204896789D01*
X34292496Y-204372979D02*
X34435353Y-204420598D01*
X34435353Y-204420598D02*
X34482972Y-204468217D01*
X34482972Y-204468217D02*
X34530591Y-204563455D01*
X34530591Y-204563455D02*
X34530591Y-204706312D01*
X34530591Y-204706312D02*
X34482972Y-204801550D01*
X34482972Y-204801550D02*
X34435353Y-204849170D01*
X34435353Y-204849170D02*
X34340115Y-204896789D01*
X34340115Y-204896789D02*
X33959163Y-204896789D01*
X33959163Y-204896789D02*
X33959163Y-203896789D01*
X33959163Y-203896789D02*
X34292496Y-203896789D01*
X34292496Y-203896789D02*
X34387734Y-203944408D01*
X34387734Y-203944408D02*
X34435353Y-203992027D01*
X34435353Y-203992027D02*
X34482972Y-204087265D01*
X34482972Y-204087265D02*
X34482972Y-204182503D01*
X34482972Y-204182503D02*
X34435353Y-204277741D01*
X34435353Y-204277741D02*
X34387734Y-204325360D01*
X34387734Y-204325360D02*
X34292496Y-204372979D01*
X34292496Y-204372979D02*
X33959163Y-204372979D01*
X35482972Y-204896789D02*
X34911544Y-204896789D01*
X35197258Y-204896789D02*
X35197258Y-203896789D01*
X35197258Y-203896789D02*
X35102020Y-204039646D01*
X35102020Y-204039646D02*
X35006782Y-204134884D01*
X35006782Y-204134884D02*
X34911544Y-204182503D01*
X36387734Y-203896789D02*
X35911544Y-203896789D01*
X35911544Y-203896789D02*
X35863925Y-204372979D01*
X35863925Y-204372979D02*
X35911544Y-204325360D01*
X35911544Y-204325360D02*
X36006782Y-204277741D01*
X36006782Y-204277741D02*
X36244877Y-204277741D01*
X36244877Y-204277741D02*
X36340115Y-204325360D01*
X36340115Y-204325360D02*
X36387734Y-204372979D01*
X36387734Y-204372979D02*
X36435353Y-204468217D01*
X36435353Y-204468217D02*
X36435353Y-204706312D01*
X36435353Y-204706312D02*
X36387734Y-204801550D01*
X36387734Y-204801550D02*
X36340115Y-204849170D01*
X36340115Y-204849170D02*
X36244877Y-204896789D01*
X36244877Y-204896789D02*
X36006782Y-204896789D01*
X36006782Y-204896789D02*
X35911544Y-204849170D01*
X35911544Y-204849170D02*
X35863925Y-204801550D01*
X69206986Y1936040D02*
X69206986Y2936040D01*
X69206986Y2936040D02*
X69540319Y2221755D01*
X69540319Y2221755D02*
X69873652Y2936040D01*
X69873652Y2936040D02*
X69873652Y1936040D01*
X70683176Y2459850D02*
X70826033Y2412231D01*
X70826033Y2412231D02*
X70873652Y2364612D01*
X70873652Y2364612D02*
X70921271Y2269374D01*
X70921271Y2269374D02*
X70921271Y2126517D01*
X70921271Y2126517D02*
X70873652Y2031279D01*
X70873652Y2031279D02*
X70826033Y1983660D01*
X70826033Y1983660D02*
X70730795Y1936040D01*
X70730795Y1936040D02*
X70349843Y1936040D01*
X70349843Y1936040D02*
X70349843Y2936040D01*
X70349843Y2936040D02*
X70683176Y2936040D01*
X70683176Y2936040D02*
X70778414Y2888421D01*
X70778414Y2888421D02*
X70826033Y2840802D01*
X70826033Y2840802D02*
X70873652Y2745564D01*
X70873652Y2745564D02*
X70873652Y2650326D01*
X70873652Y2650326D02*
X70826033Y2555088D01*
X70826033Y2555088D02*
X70778414Y2507469D01*
X70778414Y2507469D02*
X70683176Y2459850D01*
X70683176Y2459850D02*
X70349843Y2459850D01*
X71873652Y1936040D02*
X71302224Y1936040D01*
X71587938Y1936040D02*
X71587938Y2936040D01*
X71587938Y2936040D02*
X71492700Y2793183D01*
X71492700Y2793183D02*
X71397462Y2697945D01*
X71397462Y2697945D02*
X71302224Y2650326D01*
X72730795Y2936040D02*
X72540319Y2936040D01*
X72540319Y2936040D02*
X72445081Y2888421D01*
X72445081Y2888421D02*
X72397462Y2840802D01*
X72397462Y2840802D02*
X72302224Y2697945D01*
X72302224Y2697945D02*
X72254605Y2507469D01*
X72254605Y2507469D02*
X72254605Y2126517D01*
X72254605Y2126517D02*
X72302224Y2031279D01*
X72302224Y2031279D02*
X72349843Y1983660D01*
X72349843Y1983660D02*
X72445081Y1936040D01*
X72445081Y1936040D02*
X72635557Y1936040D01*
X72635557Y1936040D02*
X72730795Y1983660D01*
X72730795Y1983660D02*
X72778414Y2031279D01*
X72778414Y2031279D02*
X72826033Y2126517D01*
X72826033Y2126517D02*
X72826033Y2364612D01*
X72826033Y2364612D02*
X72778414Y2459850D01*
X72778414Y2459850D02*
X72730795Y2507469D01*
X72730795Y2507469D02*
X72635557Y2555088D01*
X72635557Y2555088D02*
X72445081Y2555088D01*
X72445081Y2555088D02*
X72349843Y2507469D01*
X72349843Y2507469D02*
X72302224Y2459850D01*
X72302224Y2459850D02*
X72254605Y2364612D01*
X69956986Y1936040D02*
X69956986Y2936040D01*
X69956986Y2936040D02*
X70290319Y2221755D01*
X70290319Y2221755D02*
X70623652Y2936040D01*
X70623652Y2936040D02*
X70623652Y1936040D01*
X71433176Y2459850D02*
X71576033Y2412231D01*
X71576033Y2412231D02*
X71623652Y2364612D01*
X71623652Y2364612D02*
X71671271Y2269374D01*
X71671271Y2269374D02*
X71671271Y2126517D01*
X71671271Y2126517D02*
X71623652Y2031279D01*
X71623652Y2031279D02*
X71576033Y1983660D01*
X71576033Y1983660D02*
X71480795Y1936040D01*
X71480795Y1936040D02*
X71099843Y1936040D01*
X71099843Y1936040D02*
X71099843Y2936040D01*
X71099843Y2936040D02*
X71433176Y2936040D01*
X71433176Y2936040D02*
X71528414Y2888421D01*
X71528414Y2888421D02*
X71576033Y2840802D01*
X71576033Y2840802D02*
X71623652Y2745564D01*
X71623652Y2745564D02*
X71623652Y2650326D01*
X71623652Y2650326D02*
X71576033Y2555088D01*
X71576033Y2555088D02*
X71528414Y2507469D01*
X71528414Y2507469D02*
X71433176Y2459850D01*
X71433176Y2459850D02*
X71099843Y2459850D01*
X72623652Y1936040D02*
X72052224Y1936040D01*
X72337938Y1936040D02*
X72337938Y2936040D01*
X72337938Y2936040D02*
X72242700Y2793183D01*
X72242700Y2793183D02*
X72147462Y2697945D01*
X72147462Y2697945D02*
X72052224Y2650326D01*
X72956986Y2936040D02*
X73623652Y2936040D01*
X73623652Y2936040D02*
X73195081Y1936040D01*
X70706986Y1936040D02*
X70706986Y2936040D01*
X70706986Y2936040D02*
X71040319Y2221755D01*
X71040319Y2221755D02*
X71373652Y2936040D01*
X71373652Y2936040D02*
X71373652Y1936040D01*
X72183176Y2459850D02*
X72326033Y2412231D01*
X72326033Y2412231D02*
X72373652Y2364612D01*
X72373652Y2364612D02*
X72421271Y2269374D01*
X72421271Y2269374D02*
X72421271Y2126517D01*
X72421271Y2126517D02*
X72373652Y2031279D01*
X72373652Y2031279D02*
X72326033Y1983660D01*
X72326033Y1983660D02*
X72230795Y1936040D01*
X72230795Y1936040D02*
X71849843Y1936040D01*
X71849843Y1936040D02*
X71849843Y2936040D01*
X71849843Y2936040D02*
X72183176Y2936040D01*
X72183176Y2936040D02*
X72278414Y2888421D01*
X72278414Y2888421D02*
X72326033Y2840802D01*
X72326033Y2840802D02*
X72373652Y2745564D01*
X72373652Y2745564D02*
X72373652Y2650326D01*
X72373652Y2650326D02*
X72326033Y2555088D01*
X72326033Y2555088D02*
X72278414Y2507469D01*
X72278414Y2507469D02*
X72183176Y2459850D01*
X72183176Y2459850D02*
X71849843Y2459850D01*
X73373652Y1936040D02*
X72802224Y1936040D01*
X73087938Y1936040D02*
X73087938Y2936040D01*
X73087938Y2936040D02*
X72992700Y2793183D01*
X72992700Y2793183D02*
X72897462Y2697945D01*
X72897462Y2697945D02*
X72802224Y2650326D01*
X73945081Y2507469D02*
X73849843Y2555088D01*
X73849843Y2555088D02*
X73802224Y2602707D01*
X73802224Y2602707D02*
X73754605Y2697945D01*
X73754605Y2697945D02*
X73754605Y2745564D01*
X73754605Y2745564D02*
X73802224Y2840802D01*
X73802224Y2840802D02*
X73849843Y2888421D01*
X73849843Y2888421D02*
X73945081Y2936040D01*
X73945081Y2936040D02*
X74135557Y2936040D01*
X74135557Y2936040D02*
X74230795Y2888421D01*
X74230795Y2888421D02*
X74278414Y2840802D01*
X74278414Y2840802D02*
X74326033Y2745564D01*
X74326033Y2745564D02*
X74326033Y2697945D01*
X74326033Y2697945D02*
X74278414Y2602707D01*
X74278414Y2602707D02*
X74230795Y2555088D01*
X74230795Y2555088D02*
X74135557Y2507469D01*
X74135557Y2507469D02*
X73945081Y2507469D01*
X73945081Y2507469D02*
X73849843Y2459850D01*
X73849843Y2459850D02*
X73802224Y2412231D01*
X73802224Y2412231D02*
X73754605Y2316993D01*
X73754605Y2316993D02*
X73754605Y2126517D01*
X73754605Y2126517D02*
X73802224Y2031279D01*
X73802224Y2031279D02*
X73849843Y1983660D01*
X73849843Y1983660D02*
X73945081Y1936040D01*
X73945081Y1936040D02*
X74135557Y1936040D01*
X74135557Y1936040D02*
X74230795Y1983660D01*
X74230795Y1983660D02*
X74278414Y2031279D01*
X74278414Y2031279D02*
X74326033Y2126517D01*
X74326033Y2126517D02*
X74326033Y2316993D01*
X74326033Y2316993D02*
X74278414Y2412231D01*
X74278414Y2412231D02*
X74230795Y2459850D01*
X74230795Y2459850D02*
X74135557Y2507469D01*
X71456986Y1936040D02*
X71456986Y2936040D01*
X71456986Y2936040D02*
X71790319Y2221755D01*
X71790319Y2221755D02*
X72123652Y2936040D01*
X72123652Y2936040D02*
X72123652Y1936040D01*
X72933176Y2459850D02*
X73076033Y2412231D01*
X73076033Y2412231D02*
X73123652Y2364612D01*
X73123652Y2364612D02*
X73171271Y2269374D01*
X73171271Y2269374D02*
X73171271Y2126517D01*
X73171271Y2126517D02*
X73123652Y2031279D01*
X73123652Y2031279D02*
X73076033Y1983660D01*
X73076033Y1983660D02*
X72980795Y1936040D01*
X72980795Y1936040D02*
X72599843Y1936040D01*
X72599843Y1936040D02*
X72599843Y2936040D01*
X72599843Y2936040D02*
X72933176Y2936040D01*
X72933176Y2936040D02*
X73028414Y2888421D01*
X73028414Y2888421D02*
X73076033Y2840802D01*
X73076033Y2840802D02*
X73123652Y2745564D01*
X73123652Y2745564D02*
X73123652Y2650326D01*
X73123652Y2650326D02*
X73076033Y2555088D01*
X73076033Y2555088D02*
X73028414Y2507469D01*
X73028414Y2507469D02*
X72933176Y2459850D01*
X72933176Y2459850D02*
X72599843Y2459850D01*
X74123652Y1936040D02*
X73552224Y1936040D01*
X73837938Y1936040D02*
X73837938Y2936040D01*
X73837938Y2936040D02*
X73742700Y2793183D01*
X73742700Y2793183D02*
X73647462Y2697945D01*
X73647462Y2697945D02*
X73552224Y2650326D01*
X74599843Y1936040D02*
X74790319Y1936040D01*
X74790319Y1936040D02*
X74885557Y1983660D01*
X74885557Y1983660D02*
X74933176Y2031279D01*
X74933176Y2031279D02*
X75028414Y2174136D01*
X75028414Y2174136D02*
X75076033Y2364612D01*
X75076033Y2364612D02*
X75076033Y2745564D01*
X75076033Y2745564D02*
X75028414Y2840802D01*
X75028414Y2840802D02*
X74980795Y2888421D01*
X74980795Y2888421D02*
X74885557Y2936040D01*
X74885557Y2936040D02*
X74695081Y2936040D01*
X74695081Y2936040D02*
X74599843Y2888421D01*
X74599843Y2888421D02*
X74552224Y2840802D01*
X74552224Y2840802D02*
X74504605Y2745564D01*
X74504605Y2745564D02*
X74504605Y2507469D01*
X74504605Y2507469D02*
X74552224Y2412231D01*
X74552224Y2412231D02*
X74599843Y2364612D01*
X74599843Y2364612D02*
X74695081Y2316993D01*
X74695081Y2316993D02*
X74885557Y2316993D01*
X74885557Y2316993D02*
X74980795Y2364612D01*
X74980795Y2364612D02*
X75028414Y2412231D01*
X75028414Y2412231D02*
X75076033Y2507469D01*
X72206986Y1936040D02*
X72206986Y2936040D01*
X72206986Y2936040D02*
X72540319Y2221755D01*
X72540319Y2221755D02*
X72873652Y2936040D01*
X72873652Y2936040D02*
X72873652Y1936040D01*
X73683176Y2459850D02*
X73826033Y2412231D01*
X73826033Y2412231D02*
X73873652Y2364612D01*
X73873652Y2364612D02*
X73921271Y2269374D01*
X73921271Y2269374D02*
X73921271Y2126517D01*
X73921271Y2126517D02*
X73873652Y2031279D01*
X73873652Y2031279D02*
X73826033Y1983660D01*
X73826033Y1983660D02*
X73730795Y1936040D01*
X73730795Y1936040D02*
X73349843Y1936040D01*
X73349843Y1936040D02*
X73349843Y2936040D01*
X73349843Y2936040D02*
X73683176Y2936040D01*
X73683176Y2936040D02*
X73778414Y2888421D01*
X73778414Y2888421D02*
X73826033Y2840802D01*
X73826033Y2840802D02*
X73873652Y2745564D01*
X73873652Y2745564D02*
X73873652Y2650326D01*
X73873652Y2650326D02*
X73826033Y2555088D01*
X73826033Y2555088D02*
X73778414Y2507469D01*
X73778414Y2507469D02*
X73683176Y2459850D01*
X73683176Y2459850D02*
X73349843Y2459850D01*
X74302224Y2840802D02*
X74349843Y2888421D01*
X74349843Y2888421D02*
X74445081Y2936040D01*
X74445081Y2936040D02*
X74683176Y2936040D01*
X74683176Y2936040D02*
X74778414Y2888421D01*
X74778414Y2888421D02*
X74826033Y2840802D01*
X74826033Y2840802D02*
X74873652Y2745564D01*
X74873652Y2745564D02*
X74873652Y2650326D01*
X74873652Y2650326D02*
X74826033Y2507469D01*
X74826033Y2507469D02*
X74254605Y1936040D01*
X74254605Y1936040D02*
X74873652Y1936040D01*
X75492700Y2936040D02*
X75587938Y2936040D01*
X75587938Y2936040D02*
X75683176Y2888421D01*
X75683176Y2888421D02*
X75730795Y2840802D01*
X75730795Y2840802D02*
X75778414Y2745564D01*
X75778414Y2745564D02*
X75826033Y2555088D01*
X75826033Y2555088D02*
X75826033Y2316993D01*
X75826033Y2316993D02*
X75778414Y2126517D01*
X75778414Y2126517D02*
X75730795Y2031279D01*
X75730795Y2031279D02*
X75683176Y1983660D01*
X75683176Y1983660D02*
X75587938Y1936040D01*
X75587938Y1936040D02*
X75492700Y1936040D01*
X75492700Y1936040D02*
X75397462Y1983660D01*
X75397462Y1983660D02*
X75349843Y2031279D01*
X75349843Y2031279D02*
X75302224Y2126517D01*
X75302224Y2126517D02*
X75254605Y2316993D01*
X75254605Y2316993D02*
X75254605Y2555088D01*
X75254605Y2555088D02*
X75302224Y2745564D01*
X75302224Y2745564D02*
X75349843Y2840802D01*
X75349843Y2840802D02*
X75397462Y2888421D01*
X75397462Y2888421D02*
X75492700Y2936040D01*
X69206986Y-98397259D02*
X69206986Y-97397259D01*
X69206986Y-97397259D02*
X69540319Y-98111544D01*
X69540319Y-98111544D02*
X69873652Y-97397259D01*
X69873652Y-97397259D02*
X69873652Y-98397259D01*
X70683176Y-97873449D02*
X70826033Y-97921068D01*
X70826033Y-97921068D02*
X70873652Y-97968687D01*
X70873652Y-97968687D02*
X70921271Y-98063925D01*
X70921271Y-98063925D02*
X70921271Y-98206782D01*
X70921271Y-98206782D02*
X70873652Y-98302020D01*
X70873652Y-98302020D02*
X70826033Y-98349640D01*
X70826033Y-98349640D02*
X70730795Y-98397259D01*
X70730795Y-98397259D02*
X70349843Y-98397259D01*
X70349843Y-98397259D02*
X70349843Y-97397259D01*
X70349843Y-97397259D02*
X70683176Y-97397259D01*
X70683176Y-97397259D02*
X70778414Y-97444878D01*
X70778414Y-97444878D02*
X70826033Y-97492497D01*
X70826033Y-97492497D02*
X70873652Y-97587735D01*
X70873652Y-97587735D02*
X70873652Y-97682973D01*
X70873652Y-97682973D02*
X70826033Y-97778211D01*
X70826033Y-97778211D02*
X70778414Y-97825830D01*
X70778414Y-97825830D02*
X70683176Y-97873449D01*
X70683176Y-97873449D02*
X70349843Y-97873449D01*
X71302224Y-97492497D02*
X71349843Y-97444878D01*
X71349843Y-97444878D02*
X71445081Y-97397259D01*
X71445081Y-97397259D02*
X71683176Y-97397259D01*
X71683176Y-97397259D02*
X71778414Y-97444878D01*
X71778414Y-97444878D02*
X71826033Y-97492497D01*
X71826033Y-97492497D02*
X71873652Y-97587735D01*
X71873652Y-97587735D02*
X71873652Y-97682973D01*
X71873652Y-97682973D02*
X71826033Y-97825830D01*
X71826033Y-97825830D02*
X71254605Y-98397259D01*
X71254605Y-98397259D02*
X71873652Y-98397259D01*
X72826033Y-98397259D02*
X72254605Y-98397259D01*
X72540319Y-98397259D02*
X72540319Y-97397259D01*
X72540319Y-97397259D02*
X72445081Y-97540116D01*
X72445081Y-97540116D02*
X72349843Y-97635354D01*
X72349843Y-97635354D02*
X72254605Y-97682973D01*
X69956986Y-98397259D02*
X69956986Y-97397259D01*
X69956986Y-97397259D02*
X70290319Y-98111544D01*
X70290319Y-98111544D02*
X70623652Y-97397259D01*
X70623652Y-97397259D02*
X70623652Y-98397259D01*
X71433176Y-97873449D02*
X71576033Y-97921068D01*
X71576033Y-97921068D02*
X71623652Y-97968687D01*
X71623652Y-97968687D02*
X71671271Y-98063925D01*
X71671271Y-98063925D02*
X71671271Y-98206782D01*
X71671271Y-98206782D02*
X71623652Y-98302020D01*
X71623652Y-98302020D02*
X71576033Y-98349640D01*
X71576033Y-98349640D02*
X71480795Y-98397259D01*
X71480795Y-98397259D02*
X71099843Y-98397259D01*
X71099843Y-98397259D02*
X71099843Y-97397259D01*
X71099843Y-97397259D02*
X71433176Y-97397259D01*
X71433176Y-97397259D02*
X71528414Y-97444878D01*
X71528414Y-97444878D02*
X71576033Y-97492497D01*
X71576033Y-97492497D02*
X71623652Y-97587735D01*
X71623652Y-97587735D02*
X71623652Y-97682973D01*
X71623652Y-97682973D02*
X71576033Y-97778211D01*
X71576033Y-97778211D02*
X71528414Y-97825830D01*
X71528414Y-97825830D02*
X71433176Y-97873449D01*
X71433176Y-97873449D02*
X71099843Y-97873449D01*
X72052224Y-97492497D02*
X72099843Y-97444878D01*
X72099843Y-97444878D02*
X72195081Y-97397259D01*
X72195081Y-97397259D02*
X72433176Y-97397259D01*
X72433176Y-97397259D02*
X72528414Y-97444878D01*
X72528414Y-97444878D02*
X72576033Y-97492497D01*
X72576033Y-97492497D02*
X72623652Y-97587735D01*
X72623652Y-97587735D02*
X72623652Y-97682973D01*
X72623652Y-97682973D02*
X72576033Y-97825830D01*
X72576033Y-97825830D02*
X72004605Y-98397259D01*
X72004605Y-98397259D02*
X72623652Y-98397259D01*
X73004605Y-97492497D02*
X73052224Y-97444878D01*
X73052224Y-97444878D02*
X73147462Y-97397259D01*
X73147462Y-97397259D02*
X73385557Y-97397259D01*
X73385557Y-97397259D02*
X73480795Y-97444878D01*
X73480795Y-97444878D02*
X73528414Y-97492497D01*
X73528414Y-97492497D02*
X73576033Y-97587735D01*
X73576033Y-97587735D02*
X73576033Y-97682973D01*
X73576033Y-97682973D02*
X73528414Y-97825830D01*
X73528414Y-97825830D02*
X72956986Y-98397259D01*
X72956986Y-98397259D02*
X73576033Y-98397259D01*
X70706986Y-98397259D02*
X70706986Y-97397259D01*
X70706986Y-97397259D02*
X71040319Y-98111544D01*
X71040319Y-98111544D02*
X71373652Y-97397259D01*
X71373652Y-97397259D02*
X71373652Y-98397259D01*
X72183176Y-97873449D02*
X72326033Y-97921068D01*
X72326033Y-97921068D02*
X72373652Y-97968687D01*
X72373652Y-97968687D02*
X72421271Y-98063925D01*
X72421271Y-98063925D02*
X72421271Y-98206782D01*
X72421271Y-98206782D02*
X72373652Y-98302020D01*
X72373652Y-98302020D02*
X72326033Y-98349640D01*
X72326033Y-98349640D02*
X72230795Y-98397259D01*
X72230795Y-98397259D02*
X71849843Y-98397259D01*
X71849843Y-98397259D02*
X71849843Y-97397259D01*
X71849843Y-97397259D02*
X72183176Y-97397259D01*
X72183176Y-97397259D02*
X72278414Y-97444878D01*
X72278414Y-97444878D02*
X72326033Y-97492497D01*
X72326033Y-97492497D02*
X72373652Y-97587735D01*
X72373652Y-97587735D02*
X72373652Y-97682973D01*
X72373652Y-97682973D02*
X72326033Y-97778211D01*
X72326033Y-97778211D02*
X72278414Y-97825830D01*
X72278414Y-97825830D02*
X72183176Y-97873449D01*
X72183176Y-97873449D02*
X71849843Y-97873449D01*
X72802224Y-97492497D02*
X72849843Y-97444878D01*
X72849843Y-97444878D02*
X72945081Y-97397259D01*
X72945081Y-97397259D02*
X73183176Y-97397259D01*
X73183176Y-97397259D02*
X73278414Y-97444878D01*
X73278414Y-97444878D02*
X73326033Y-97492497D01*
X73326033Y-97492497D02*
X73373652Y-97587735D01*
X73373652Y-97587735D02*
X73373652Y-97682973D01*
X73373652Y-97682973D02*
X73326033Y-97825830D01*
X73326033Y-97825830D02*
X72754605Y-98397259D01*
X72754605Y-98397259D02*
X73373652Y-98397259D01*
X73706986Y-97397259D02*
X74326033Y-97397259D01*
X74326033Y-97397259D02*
X73992700Y-97778211D01*
X73992700Y-97778211D02*
X74135557Y-97778211D01*
X74135557Y-97778211D02*
X74230795Y-97825830D01*
X74230795Y-97825830D02*
X74278414Y-97873449D01*
X74278414Y-97873449D02*
X74326033Y-97968687D01*
X74326033Y-97968687D02*
X74326033Y-98206782D01*
X74326033Y-98206782D02*
X74278414Y-98302020D01*
X74278414Y-98302020D02*
X74230795Y-98349640D01*
X74230795Y-98349640D02*
X74135557Y-98397259D01*
X74135557Y-98397259D02*
X73849843Y-98397259D01*
X73849843Y-98397259D02*
X73754605Y-98349640D01*
X73754605Y-98349640D02*
X73706986Y-98302020D01*
X71456986Y-98397259D02*
X71456986Y-97397259D01*
X71456986Y-97397259D02*
X71790319Y-98111544D01*
X71790319Y-98111544D02*
X72123652Y-97397259D01*
X72123652Y-97397259D02*
X72123652Y-98397259D01*
X72933176Y-97873449D02*
X73076033Y-97921068D01*
X73076033Y-97921068D02*
X73123652Y-97968687D01*
X73123652Y-97968687D02*
X73171271Y-98063925D01*
X73171271Y-98063925D02*
X73171271Y-98206782D01*
X73171271Y-98206782D02*
X73123652Y-98302020D01*
X73123652Y-98302020D02*
X73076033Y-98349640D01*
X73076033Y-98349640D02*
X72980795Y-98397259D01*
X72980795Y-98397259D02*
X72599843Y-98397259D01*
X72599843Y-98397259D02*
X72599843Y-97397259D01*
X72599843Y-97397259D02*
X72933176Y-97397259D01*
X72933176Y-97397259D02*
X73028414Y-97444878D01*
X73028414Y-97444878D02*
X73076033Y-97492497D01*
X73076033Y-97492497D02*
X73123652Y-97587735D01*
X73123652Y-97587735D02*
X73123652Y-97682973D01*
X73123652Y-97682973D02*
X73076033Y-97778211D01*
X73076033Y-97778211D02*
X73028414Y-97825830D01*
X73028414Y-97825830D02*
X72933176Y-97873449D01*
X72933176Y-97873449D02*
X72599843Y-97873449D01*
X73552224Y-97492497D02*
X73599843Y-97444878D01*
X73599843Y-97444878D02*
X73695081Y-97397259D01*
X73695081Y-97397259D02*
X73933176Y-97397259D01*
X73933176Y-97397259D02*
X74028414Y-97444878D01*
X74028414Y-97444878D02*
X74076033Y-97492497D01*
X74076033Y-97492497D02*
X74123652Y-97587735D01*
X74123652Y-97587735D02*
X74123652Y-97682973D01*
X74123652Y-97682973D02*
X74076033Y-97825830D01*
X74076033Y-97825830D02*
X73504605Y-98397259D01*
X73504605Y-98397259D02*
X74123652Y-98397259D01*
X74980795Y-97730592D02*
X74980795Y-98397259D01*
X74742700Y-97349640D02*
X74504605Y-98063925D01*
X74504605Y-98063925D02*
X75123652Y-98063925D01*
X72206986Y-98397259D02*
X72206986Y-97397259D01*
X72206986Y-97397259D02*
X72540319Y-98111544D01*
X72540319Y-98111544D02*
X72873652Y-97397259D01*
X72873652Y-97397259D02*
X72873652Y-98397259D01*
X73683176Y-97873449D02*
X73826033Y-97921068D01*
X73826033Y-97921068D02*
X73873652Y-97968687D01*
X73873652Y-97968687D02*
X73921271Y-98063925D01*
X73921271Y-98063925D02*
X73921271Y-98206782D01*
X73921271Y-98206782D02*
X73873652Y-98302020D01*
X73873652Y-98302020D02*
X73826033Y-98349640D01*
X73826033Y-98349640D02*
X73730795Y-98397259D01*
X73730795Y-98397259D02*
X73349843Y-98397259D01*
X73349843Y-98397259D02*
X73349843Y-97397259D01*
X73349843Y-97397259D02*
X73683176Y-97397259D01*
X73683176Y-97397259D02*
X73778414Y-97444878D01*
X73778414Y-97444878D02*
X73826033Y-97492497D01*
X73826033Y-97492497D02*
X73873652Y-97587735D01*
X73873652Y-97587735D02*
X73873652Y-97682973D01*
X73873652Y-97682973D02*
X73826033Y-97778211D01*
X73826033Y-97778211D02*
X73778414Y-97825830D01*
X73778414Y-97825830D02*
X73683176Y-97873449D01*
X73683176Y-97873449D02*
X73349843Y-97873449D01*
X74302224Y-97492497D02*
X74349843Y-97444878D01*
X74349843Y-97444878D02*
X74445081Y-97397259D01*
X74445081Y-97397259D02*
X74683176Y-97397259D01*
X74683176Y-97397259D02*
X74778414Y-97444878D01*
X74778414Y-97444878D02*
X74826033Y-97492497D01*
X74826033Y-97492497D02*
X74873652Y-97587735D01*
X74873652Y-97587735D02*
X74873652Y-97682973D01*
X74873652Y-97682973D02*
X74826033Y-97825830D01*
X74826033Y-97825830D02*
X74254605Y-98397259D01*
X74254605Y-98397259D02*
X74873652Y-98397259D01*
X75778414Y-97397259D02*
X75302224Y-97397259D01*
X75302224Y-97397259D02*
X75254605Y-97873449D01*
X75254605Y-97873449D02*
X75302224Y-97825830D01*
X75302224Y-97825830D02*
X75397462Y-97778211D01*
X75397462Y-97778211D02*
X75635557Y-97778211D01*
X75635557Y-97778211D02*
X75730795Y-97825830D01*
X75730795Y-97825830D02*
X75778414Y-97873449D01*
X75778414Y-97873449D02*
X75826033Y-97968687D01*
X75826033Y-97968687D02*
X75826033Y-98206782D01*
X75826033Y-98206782D02*
X75778414Y-98302020D01*
X75778414Y-98302020D02*
X75730795Y-98349640D01*
X75730795Y-98349640D02*
X75635557Y-98397259D01*
X75635557Y-98397259D02*
X75397462Y-98397259D01*
X75397462Y-98397259D02*
X75302224Y-98349640D01*
X75302224Y-98349640D02*
X75254605Y-98302020D01*
X69206986Y-198730559D02*
X69206986Y-197730559D01*
X69206986Y-197730559D02*
X69540319Y-198444844D01*
X69540319Y-198444844D02*
X69873652Y-197730559D01*
X69873652Y-197730559D02*
X69873652Y-198730559D01*
X70683176Y-198206749D02*
X70826033Y-198254368D01*
X70826033Y-198254368D02*
X70873652Y-198301987D01*
X70873652Y-198301987D02*
X70921271Y-198397225D01*
X70921271Y-198397225D02*
X70921271Y-198540082D01*
X70921271Y-198540082D02*
X70873652Y-198635320D01*
X70873652Y-198635320D02*
X70826033Y-198682940D01*
X70826033Y-198682940D02*
X70730795Y-198730559D01*
X70730795Y-198730559D02*
X70349843Y-198730559D01*
X70349843Y-198730559D02*
X70349843Y-197730559D01*
X70349843Y-197730559D02*
X70683176Y-197730559D01*
X70683176Y-197730559D02*
X70778414Y-197778178D01*
X70778414Y-197778178D02*
X70826033Y-197825797D01*
X70826033Y-197825797D02*
X70873652Y-197921035D01*
X70873652Y-197921035D02*
X70873652Y-198016273D01*
X70873652Y-198016273D02*
X70826033Y-198111511D01*
X70826033Y-198111511D02*
X70778414Y-198159130D01*
X70778414Y-198159130D02*
X70683176Y-198206749D01*
X70683176Y-198206749D02*
X70349843Y-198206749D01*
X71302224Y-197825797D02*
X71349843Y-197778178D01*
X71349843Y-197778178D02*
X71445081Y-197730559D01*
X71445081Y-197730559D02*
X71683176Y-197730559D01*
X71683176Y-197730559D02*
X71778414Y-197778178D01*
X71778414Y-197778178D02*
X71826033Y-197825797D01*
X71826033Y-197825797D02*
X71873652Y-197921035D01*
X71873652Y-197921035D02*
X71873652Y-198016273D01*
X71873652Y-198016273D02*
X71826033Y-198159130D01*
X71826033Y-198159130D02*
X71254605Y-198730559D01*
X71254605Y-198730559D02*
X71873652Y-198730559D01*
X72730795Y-197730559D02*
X72540319Y-197730559D01*
X72540319Y-197730559D02*
X72445081Y-197778178D01*
X72445081Y-197778178D02*
X72397462Y-197825797D01*
X72397462Y-197825797D02*
X72302224Y-197968654D01*
X72302224Y-197968654D02*
X72254605Y-198159130D01*
X72254605Y-198159130D02*
X72254605Y-198540082D01*
X72254605Y-198540082D02*
X72302224Y-198635320D01*
X72302224Y-198635320D02*
X72349843Y-198682940D01*
X72349843Y-198682940D02*
X72445081Y-198730559D01*
X72445081Y-198730559D02*
X72635557Y-198730559D01*
X72635557Y-198730559D02*
X72730795Y-198682940D01*
X72730795Y-198682940D02*
X72778414Y-198635320D01*
X72778414Y-198635320D02*
X72826033Y-198540082D01*
X72826033Y-198540082D02*
X72826033Y-198301987D01*
X72826033Y-198301987D02*
X72778414Y-198206749D01*
X72778414Y-198206749D02*
X72730795Y-198159130D01*
X72730795Y-198159130D02*
X72635557Y-198111511D01*
X72635557Y-198111511D02*
X72445081Y-198111511D01*
X72445081Y-198111511D02*
X72349843Y-198159130D01*
X72349843Y-198159130D02*
X72302224Y-198206749D01*
X72302224Y-198206749D02*
X72254605Y-198301987D01*
X69956986Y-198730559D02*
X69956986Y-197730559D01*
X69956986Y-197730559D02*
X70290319Y-198444844D01*
X70290319Y-198444844D02*
X70623652Y-197730559D01*
X70623652Y-197730559D02*
X70623652Y-198730559D01*
X71433176Y-198206749D02*
X71576033Y-198254368D01*
X71576033Y-198254368D02*
X71623652Y-198301987D01*
X71623652Y-198301987D02*
X71671271Y-198397225D01*
X71671271Y-198397225D02*
X71671271Y-198540082D01*
X71671271Y-198540082D02*
X71623652Y-198635320D01*
X71623652Y-198635320D02*
X71576033Y-198682940D01*
X71576033Y-198682940D02*
X71480795Y-198730559D01*
X71480795Y-198730559D02*
X71099843Y-198730559D01*
X71099843Y-198730559D02*
X71099843Y-197730559D01*
X71099843Y-197730559D02*
X71433176Y-197730559D01*
X71433176Y-197730559D02*
X71528414Y-197778178D01*
X71528414Y-197778178D02*
X71576033Y-197825797D01*
X71576033Y-197825797D02*
X71623652Y-197921035D01*
X71623652Y-197921035D02*
X71623652Y-198016273D01*
X71623652Y-198016273D02*
X71576033Y-198111511D01*
X71576033Y-198111511D02*
X71528414Y-198159130D01*
X71528414Y-198159130D02*
X71433176Y-198206749D01*
X71433176Y-198206749D02*
X71099843Y-198206749D01*
X72052224Y-197825797D02*
X72099843Y-197778178D01*
X72099843Y-197778178D02*
X72195081Y-197730559D01*
X72195081Y-197730559D02*
X72433176Y-197730559D01*
X72433176Y-197730559D02*
X72528414Y-197778178D01*
X72528414Y-197778178D02*
X72576033Y-197825797D01*
X72576033Y-197825797D02*
X72623652Y-197921035D01*
X72623652Y-197921035D02*
X72623652Y-198016273D01*
X72623652Y-198016273D02*
X72576033Y-198159130D01*
X72576033Y-198159130D02*
X72004605Y-198730559D01*
X72004605Y-198730559D02*
X72623652Y-198730559D01*
X72956986Y-197730559D02*
X73623652Y-197730559D01*
X73623652Y-197730559D02*
X73195081Y-198730559D01*
X70706986Y-198730559D02*
X70706986Y-197730559D01*
X70706986Y-197730559D02*
X71040319Y-198444844D01*
X71040319Y-198444844D02*
X71373652Y-197730559D01*
X71373652Y-197730559D02*
X71373652Y-198730559D01*
X72183176Y-198206749D02*
X72326033Y-198254368D01*
X72326033Y-198254368D02*
X72373652Y-198301987D01*
X72373652Y-198301987D02*
X72421271Y-198397225D01*
X72421271Y-198397225D02*
X72421271Y-198540082D01*
X72421271Y-198540082D02*
X72373652Y-198635320D01*
X72373652Y-198635320D02*
X72326033Y-198682940D01*
X72326033Y-198682940D02*
X72230795Y-198730559D01*
X72230795Y-198730559D02*
X71849843Y-198730559D01*
X71849843Y-198730559D02*
X71849843Y-197730559D01*
X71849843Y-197730559D02*
X72183176Y-197730559D01*
X72183176Y-197730559D02*
X72278414Y-197778178D01*
X72278414Y-197778178D02*
X72326033Y-197825797D01*
X72326033Y-197825797D02*
X72373652Y-197921035D01*
X72373652Y-197921035D02*
X72373652Y-198016273D01*
X72373652Y-198016273D02*
X72326033Y-198111511D01*
X72326033Y-198111511D02*
X72278414Y-198159130D01*
X72278414Y-198159130D02*
X72183176Y-198206749D01*
X72183176Y-198206749D02*
X71849843Y-198206749D01*
X72802224Y-197825797D02*
X72849843Y-197778178D01*
X72849843Y-197778178D02*
X72945081Y-197730559D01*
X72945081Y-197730559D02*
X73183176Y-197730559D01*
X73183176Y-197730559D02*
X73278414Y-197778178D01*
X73278414Y-197778178D02*
X73326033Y-197825797D01*
X73326033Y-197825797D02*
X73373652Y-197921035D01*
X73373652Y-197921035D02*
X73373652Y-198016273D01*
X73373652Y-198016273D02*
X73326033Y-198159130D01*
X73326033Y-198159130D02*
X72754605Y-198730559D01*
X72754605Y-198730559D02*
X73373652Y-198730559D01*
X73945081Y-198159130D02*
X73849843Y-198111511D01*
X73849843Y-198111511D02*
X73802224Y-198063892D01*
X73802224Y-198063892D02*
X73754605Y-197968654D01*
X73754605Y-197968654D02*
X73754605Y-197921035D01*
X73754605Y-197921035D02*
X73802224Y-197825797D01*
X73802224Y-197825797D02*
X73849843Y-197778178D01*
X73849843Y-197778178D02*
X73945081Y-197730559D01*
X73945081Y-197730559D02*
X74135557Y-197730559D01*
X74135557Y-197730559D02*
X74230795Y-197778178D01*
X74230795Y-197778178D02*
X74278414Y-197825797D01*
X74278414Y-197825797D02*
X74326033Y-197921035D01*
X74326033Y-197921035D02*
X74326033Y-197968654D01*
X74326033Y-197968654D02*
X74278414Y-198063892D01*
X74278414Y-198063892D02*
X74230795Y-198111511D01*
X74230795Y-198111511D02*
X74135557Y-198159130D01*
X74135557Y-198159130D02*
X73945081Y-198159130D01*
X73945081Y-198159130D02*
X73849843Y-198206749D01*
X73849843Y-198206749D02*
X73802224Y-198254368D01*
X73802224Y-198254368D02*
X73754605Y-198349606D01*
X73754605Y-198349606D02*
X73754605Y-198540082D01*
X73754605Y-198540082D02*
X73802224Y-198635320D01*
X73802224Y-198635320D02*
X73849843Y-198682940D01*
X73849843Y-198682940D02*
X73945081Y-198730559D01*
X73945081Y-198730559D02*
X74135557Y-198730559D01*
X74135557Y-198730559D02*
X74230795Y-198682940D01*
X74230795Y-198682940D02*
X74278414Y-198635320D01*
X74278414Y-198635320D02*
X74326033Y-198540082D01*
X74326033Y-198540082D02*
X74326033Y-198349606D01*
X74326033Y-198349606D02*
X74278414Y-198254368D01*
X74278414Y-198254368D02*
X74230795Y-198206749D01*
X74230795Y-198206749D02*
X74135557Y-198159130D01*
X71456986Y-198730559D02*
X71456986Y-197730559D01*
X71456986Y-197730559D02*
X71790319Y-198444844D01*
X71790319Y-198444844D02*
X72123652Y-197730559D01*
X72123652Y-197730559D02*
X72123652Y-198730559D01*
X72933176Y-198206749D02*
X73076033Y-198254368D01*
X73076033Y-198254368D02*
X73123652Y-198301987D01*
X73123652Y-198301987D02*
X73171271Y-198397225D01*
X73171271Y-198397225D02*
X73171271Y-198540082D01*
X73171271Y-198540082D02*
X73123652Y-198635320D01*
X73123652Y-198635320D02*
X73076033Y-198682940D01*
X73076033Y-198682940D02*
X72980795Y-198730559D01*
X72980795Y-198730559D02*
X72599843Y-198730559D01*
X72599843Y-198730559D02*
X72599843Y-197730559D01*
X72599843Y-197730559D02*
X72933176Y-197730559D01*
X72933176Y-197730559D02*
X73028414Y-197778178D01*
X73028414Y-197778178D02*
X73076033Y-197825797D01*
X73076033Y-197825797D02*
X73123652Y-197921035D01*
X73123652Y-197921035D02*
X73123652Y-198016273D01*
X73123652Y-198016273D02*
X73076033Y-198111511D01*
X73076033Y-198111511D02*
X73028414Y-198159130D01*
X73028414Y-198159130D02*
X72933176Y-198206749D01*
X72933176Y-198206749D02*
X72599843Y-198206749D01*
X73552224Y-197825797D02*
X73599843Y-197778178D01*
X73599843Y-197778178D02*
X73695081Y-197730559D01*
X73695081Y-197730559D02*
X73933176Y-197730559D01*
X73933176Y-197730559D02*
X74028414Y-197778178D01*
X74028414Y-197778178D02*
X74076033Y-197825797D01*
X74076033Y-197825797D02*
X74123652Y-197921035D01*
X74123652Y-197921035D02*
X74123652Y-198016273D01*
X74123652Y-198016273D02*
X74076033Y-198159130D01*
X74076033Y-198159130D02*
X73504605Y-198730559D01*
X73504605Y-198730559D02*
X74123652Y-198730559D01*
X74599843Y-198730559D02*
X74790319Y-198730559D01*
X74790319Y-198730559D02*
X74885557Y-198682940D01*
X74885557Y-198682940D02*
X74933176Y-198635320D01*
X74933176Y-198635320D02*
X75028414Y-198492463D01*
X75028414Y-198492463D02*
X75076033Y-198301987D01*
X75076033Y-198301987D02*
X75076033Y-197921035D01*
X75076033Y-197921035D02*
X75028414Y-197825797D01*
X75028414Y-197825797D02*
X74980795Y-197778178D01*
X74980795Y-197778178D02*
X74885557Y-197730559D01*
X74885557Y-197730559D02*
X74695081Y-197730559D01*
X74695081Y-197730559D02*
X74599843Y-197778178D01*
X74599843Y-197778178D02*
X74552224Y-197825797D01*
X74552224Y-197825797D02*
X74504605Y-197921035D01*
X74504605Y-197921035D02*
X74504605Y-198159130D01*
X74504605Y-198159130D02*
X74552224Y-198254368D01*
X74552224Y-198254368D02*
X74599843Y-198301987D01*
X74599843Y-198301987D02*
X74695081Y-198349606D01*
X74695081Y-198349606D02*
X74885557Y-198349606D01*
X74885557Y-198349606D02*
X74980795Y-198301987D01*
X74980795Y-198301987D02*
X75028414Y-198254368D01*
X75028414Y-198254368D02*
X75076033Y-198159130D01*
X72206986Y-198730559D02*
X72206986Y-197730559D01*
X72206986Y-197730559D02*
X72540319Y-198444844D01*
X72540319Y-198444844D02*
X72873652Y-197730559D01*
X72873652Y-197730559D02*
X72873652Y-198730559D01*
X73683176Y-198206749D02*
X73826033Y-198254368D01*
X73826033Y-198254368D02*
X73873652Y-198301987D01*
X73873652Y-198301987D02*
X73921271Y-198397225D01*
X73921271Y-198397225D02*
X73921271Y-198540082D01*
X73921271Y-198540082D02*
X73873652Y-198635320D01*
X73873652Y-198635320D02*
X73826033Y-198682940D01*
X73826033Y-198682940D02*
X73730795Y-198730559D01*
X73730795Y-198730559D02*
X73349843Y-198730559D01*
X73349843Y-198730559D02*
X73349843Y-197730559D01*
X73349843Y-197730559D02*
X73683176Y-197730559D01*
X73683176Y-197730559D02*
X73778414Y-197778178D01*
X73778414Y-197778178D02*
X73826033Y-197825797D01*
X73826033Y-197825797D02*
X73873652Y-197921035D01*
X73873652Y-197921035D02*
X73873652Y-198016273D01*
X73873652Y-198016273D02*
X73826033Y-198111511D01*
X73826033Y-198111511D02*
X73778414Y-198159130D01*
X73778414Y-198159130D02*
X73683176Y-198206749D01*
X73683176Y-198206749D02*
X73349843Y-198206749D01*
X74254605Y-197730559D02*
X74873652Y-197730559D01*
X74873652Y-197730559D02*
X74540319Y-198111511D01*
X74540319Y-198111511D02*
X74683176Y-198111511D01*
X74683176Y-198111511D02*
X74778414Y-198159130D01*
X74778414Y-198159130D02*
X74826033Y-198206749D01*
X74826033Y-198206749D02*
X74873652Y-198301987D01*
X74873652Y-198301987D02*
X74873652Y-198540082D01*
X74873652Y-198540082D02*
X74826033Y-198635320D01*
X74826033Y-198635320D02*
X74778414Y-198682940D01*
X74778414Y-198682940D02*
X74683176Y-198730559D01*
X74683176Y-198730559D02*
X74397462Y-198730559D01*
X74397462Y-198730559D02*
X74302224Y-198682940D01*
X74302224Y-198682940D02*
X74254605Y-198635320D01*
X75492700Y-197730559D02*
X75587938Y-197730559D01*
X75587938Y-197730559D02*
X75683176Y-197778178D01*
X75683176Y-197778178D02*
X75730795Y-197825797D01*
X75730795Y-197825797D02*
X75778414Y-197921035D01*
X75778414Y-197921035D02*
X75826033Y-198111511D01*
X75826033Y-198111511D02*
X75826033Y-198349606D01*
X75826033Y-198349606D02*
X75778414Y-198540082D01*
X75778414Y-198540082D02*
X75730795Y-198635320D01*
X75730795Y-198635320D02*
X75683176Y-198682940D01*
X75683176Y-198682940D02*
X75587938Y-198730559D01*
X75587938Y-198730559D02*
X75492700Y-198730559D01*
X75492700Y-198730559D02*
X75397462Y-198682940D01*
X75397462Y-198682940D02*
X75349843Y-198635320D01*
X75349843Y-198635320D02*
X75302224Y-198540082D01*
X75302224Y-198540082D02*
X75254605Y-198349606D01*
X75254605Y-198349606D02*
X75254605Y-198111511D01*
X75254605Y-198111511D02*
X75302224Y-197921035D01*
X75302224Y-197921035D02*
X75349843Y-197825797D01*
X75349843Y-197825797D02*
X75397462Y-197778178D01*
X75397462Y-197778178D02*
X75492700Y-197730559D01*
X102597666Y-1517389D02*
X102597666Y-517389D01*
X102597666Y-517389D02*
X102930999Y-1231674D01*
X102930999Y-1231674D02*
X103264332Y-517389D01*
X103264332Y-517389D02*
X103264332Y-1517389D01*
X104073856Y-993579D02*
X104216713Y-1041198D01*
X104216713Y-1041198D02*
X104264332Y-1088817D01*
X104264332Y-1088817D02*
X104311951Y-1184055D01*
X104311951Y-1184055D02*
X104311951Y-1326912D01*
X104311951Y-1326912D02*
X104264332Y-1422150D01*
X104264332Y-1422150D02*
X104216713Y-1469770D01*
X104216713Y-1469770D02*
X104121475Y-1517389D01*
X104121475Y-1517389D02*
X103740523Y-1517389D01*
X103740523Y-1517389D02*
X103740523Y-517389D01*
X103740523Y-517389D02*
X104073856Y-517389D01*
X104073856Y-517389D02*
X104169094Y-565008D01*
X104169094Y-565008D02*
X104216713Y-612627D01*
X104216713Y-612627D02*
X104264332Y-707865D01*
X104264332Y-707865D02*
X104264332Y-803103D01*
X104264332Y-803103D02*
X104216713Y-898341D01*
X104216713Y-898341D02*
X104169094Y-945960D01*
X104169094Y-945960D02*
X104073856Y-993579D01*
X104073856Y-993579D02*
X103740523Y-993579D01*
X104645285Y-517389D02*
X105264332Y-517389D01*
X105264332Y-517389D02*
X104930999Y-898341D01*
X104930999Y-898341D02*
X105073856Y-898341D01*
X105073856Y-898341D02*
X105169094Y-945960D01*
X105169094Y-945960D02*
X105216713Y-993579D01*
X105216713Y-993579D02*
X105264332Y-1088817D01*
X105264332Y-1088817D02*
X105264332Y-1326912D01*
X105264332Y-1326912D02*
X105216713Y-1422150D01*
X105216713Y-1422150D02*
X105169094Y-1469770D01*
X105169094Y-1469770D02*
X105073856Y-1517389D01*
X105073856Y-1517389D02*
X104788142Y-1517389D01*
X104788142Y-1517389D02*
X104692904Y-1469770D01*
X104692904Y-1469770D02*
X104645285Y-1422150D01*
X106216713Y-1517389D02*
X105645285Y-1517389D01*
X105930999Y-1517389D02*
X105930999Y-517389D01*
X105930999Y-517389D02*
X105835761Y-660246D01*
X105835761Y-660246D02*
X105740523Y-755484D01*
X105740523Y-755484D02*
X105645285Y-803103D01*
X103347666Y-1517389D02*
X103347666Y-517389D01*
X103347666Y-517389D02*
X103680999Y-1231674D01*
X103680999Y-1231674D02*
X104014332Y-517389D01*
X104014332Y-517389D02*
X104014332Y-1517389D01*
X104823856Y-993579D02*
X104966713Y-1041198D01*
X104966713Y-1041198D02*
X105014332Y-1088817D01*
X105014332Y-1088817D02*
X105061951Y-1184055D01*
X105061951Y-1184055D02*
X105061951Y-1326912D01*
X105061951Y-1326912D02*
X105014332Y-1422150D01*
X105014332Y-1422150D02*
X104966713Y-1469770D01*
X104966713Y-1469770D02*
X104871475Y-1517389D01*
X104871475Y-1517389D02*
X104490523Y-1517389D01*
X104490523Y-1517389D02*
X104490523Y-517389D01*
X104490523Y-517389D02*
X104823856Y-517389D01*
X104823856Y-517389D02*
X104919094Y-565008D01*
X104919094Y-565008D02*
X104966713Y-612627D01*
X104966713Y-612627D02*
X105014332Y-707865D01*
X105014332Y-707865D02*
X105014332Y-803103D01*
X105014332Y-803103D02*
X104966713Y-898341D01*
X104966713Y-898341D02*
X104919094Y-945960D01*
X104919094Y-945960D02*
X104823856Y-993579D01*
X104823856Y-993579D02*
X104490523Y-993579D01*
X105395285Y-517389D02*
X106014332Y-517389D01*
X106014332Y-517389D02*
X105680999Y-898341D01*
X105680999Y-898341D02*
X105823856Y-898341D01*
X105823856Y-898341D02*
X105919094Y-945960D01*
X105919094Y-945960D02*
X105966713Y-993579D01*
X105966713Y-993579D02*
X106014332Y-1088817D01*
X106014332Y-1088817D02*
X106014332Y-1326912D01*
X106014332Y-1326912D02*
X105966713Y-1422150D01*
X105966713Y-1422150D02*
X105919094Y-1469770D01*
X105919094Y-1469770D02*
X105823856Y-1517389D01*
X105823856Y-1517389D02*
X105538142Y-1517389D01*
X105538142Y-1517389D02*
X105442904Y-1469770D01*
X105442904Y-1469770D02*
X105395285Y-1422150D01*
X106395285Y-612627D02*
X106442904Y-565008D01*
X106442904Y-565008D02*
X106538142Y-517389D01*
X106538142Y-517389D02*
X106776237Y-517389D01*
X106776237Y-517389D02*
X106871475Y-565008D01*
X106871475Y-565008D02*
X106919094Y-612627D01*
X106919094Y-612627D02*
X106966713Y-707865D01*
X106966713Y-707865D02*
X106966713Y-803103D01*
X106966713Y-803103D02*
X106919094Y-945960D01*
X106919094Y-945960D02*
X106347666Y-1517389D01*
X106347666Y-1517389D02*
X106966713Y-1517389D01*
X104097666Y-1517389D02*
X104097666Y-517389D01*
X104097666Y-517389D02*
X104430999Y-1231674D01*
X104430999Y-1231674D02*
X104764332Y-517389D01*
X104764332Y-517389D02*
X104764332Y-1517389D01*
X105573856Y-993579D02*
X105716713Y-1041198D01*
X105716713Y-1041198D02*
X105764332Y-1088817D01*
X105764332Y-1088817D02*
X105811951Y-1184055D01*
X105811951Y-1184055D02*
X105811951Y-1326912D01*
X105811951Y-1326912D02*
X105764332Y-1422150D01*
X105764332Y-1422150D02*
X105716713Y-1469770D01*
X105716713Y-1469770D02*
X105621475Y-1517389D01*
X105621475Y-1517389D02*
X105240523Y-1517389D01*
X105240523Y-1517389D02*
X105240523Y-517389D01*
X105240523Y-517389D02*
X105573856Y-517389D01*
X105573856Y-517389D02*
X105669094Y-565008D01*
X105669094Y-565008D02*
X105716713Y-612627D01*
X105716713Y-612627D02*
X105764332Y-707865D01*
X105764332Y-707865D02*
X105764332Y-803103D01*
X105764332Y-803103D02*
X105716713Y-898341D01*
X105716713Y-898341D02*
X105669094Y-945960D01*
X105669094Y-945960D02*
X105573856Y-993579D01*
X105573856Y-993579D02*
X105240523Y-993579D01*
X106145285Y-517389D02*
X106764332Y-517389D01*
X106764332Y-517389D02*
X106430999Y-898341D01*
X106430999Y-898341D02*
X106573856Y-898341D01*
X106573856Y-898341D02*
X106669094Y-945960D01*
X106669094Y-945960D02*
X106716713Y-993579D01*
X106716713Y-993579D02*
X106764332Y-1088817D01*
X106764332Y-1088817D02*
X106764332Y-1326912D01*
X106764332Y-1326912D02*
X106716713Y-1422150D01*
X106716713Y-1422150D02*
X106669094Y-1469770D01*
X106669094Y-1469770D02*
X106573856Y-1517389D01*
X106573856Y-1517389D02*
X106288142Y-1517389D01*
X106288142Y-1517389D02*
X106192904Y-1469770D01*
X106192904Y-1469770D02*
X106145285Y-1422150D01*
X107097666Y-517389D02*
X107716713Y-517389D01*
X107716713Y-517389D02*
X107383380Y-898341D01*
X107383380Y-898341D02*
X107526237Y-898341D01*
X107526237Y-898341D02*
X107621475Y-945960D01*
X107621475Y-945960D02*
X107669094Y-993579D01*
X107669094Y-993579D02*
X107716713Y-1088817D01*
X107716713Y-1088817D02*
X107716713Y-1326912D01*
X107716713Y-1326912D02*
X107669094Y-1422150D01*
X107669094Y-1422150D02*
X107621475Y-1469770D01*
X107621475Y-1469770D02*
X107526237Y-1517389D01*
X107526237Y-1517389D02*
X107240523Y-1517389D01*
X107240523Y-1517389D02*
X107145285Y-1469770D01*
X107145285Y-1469770D02*
X107097666Y-1422150D01*
X104847666Y-1517389D02*
X104847666Y-517389D01*
X104847666Y-517389D02*
X105180999Y-1231674D01*
X105180999Y-1231674D02*
X105514332Y-517389D01*
X105514332Y-517389D02*
X105514332Y-1517389D01*
X106323856Y-993579D02*
X106466713Y-1041198D01*
X106466713Y-1041198D02*
X106514332Y-1088817D01*
X106514332Y-1088817D02*
X106561951Y-1184055D01*
X106561951Y-1184055D02*
X106561951Y-1326912D01*
X106561951Y-1326912D02*
X106514332Y-1422150D01*
X106514332Y-1422150D02*
X106466713Y-1469770D01*
X106466713Y-1469770D02*
X106371475Y-1517389D01*
X106371475Y-1517389D02*
X105990523Y-1517389D01*
X105990523Y-1517389D02*
X105990523Y-517389D01*
X105990523Y-517389D02*
X106323856Y-517389D01*
X106323856Y-517389D02*
X106419094Y-565008D01*
X106419094Y-565008D02*
X106466713Y-612627D01*
X106466713Y-612627D02*
X106514332Y-707865D01*
X106514332Y-707865D02*
X106514332Y-803103D01*
X106514332Y-803103D02*
X106466713Y-898341D01*
X106466713Y-898341D02*
X106419094Y-945960D01*
X106419094Y-945960D02*
X106323856Y-993579D01*
X106323856Y-993579D02*
X105990523Y-993579D01*
X106895285Y-517389D02*
X107514332Y-517389D01*
X107514332Y-517389D02*
X107180999Y-898341D01*
X107180999Y-898341D02*
X107323856Y-898341D01*
X107323856Y-898341D02*
X107419094Y-945960D01*
X107419094Y-945960D02*
X107466713Y-993579D01*
X107466713Y-993579D02*
X107514332Y-1088817D01*
X107514332Y-1088817D02*
X107514332Y-1326912D01*
X107514332Y-1326912D02*
X107466713Y-1422150D01*
X107466713Y-1422150D02*
X107419094Y-1469770D01*
X107419094Y-1469770D02*
X107323856Y-1517389D01*
X107323856Y-1517389D02*
X107038142Y-1517389D01*
X107038142Y-1517389D02*
X106942904Y-1469770D01*
X106942904Y-1469770D02*
X106895285Y-1422150D01*
X108371475Y-850722D02*
X108371475Y-1517389D01*
X108133380Y-469770D02*
X107895285Y-1184055D01*
X107895285Y-1184055D02*
X108514332Y-1184055D01*
X105597666Y-1517389D02*
X105597666Y-517389D01*
X105597666Y-517389D02*
X105930999Y-1231674D01*
X105930999Y-1231674D02*
X106264332Y-517389D01*
X106264332Y-517389D02*
X106264332Y-1517389D01*
X107073856Y-993579D02*
X107216713Y-1041198D01*
X107216713Y-1041198D02*
X107264332Y-1088817D01*
X107264332Y-1088817D02*
X107311951Y-1184055D01*
X107311951Y-1184055D02*
X107311951Y-1326912D01*
X107311951Y-1326912D02*
X107264332Y-1422150D01*
X107264332Y-1422150D02*
X107216713Y-1469770D01*
X107216713Y-1469770D02*
X107121475Y-1517389D01*
X107121475Y-1517389D02*
X106740523Y-1517389D01*
X106740523Y-1517389D02*
X106740523Y-517389D01*
X106740523Y-517389D02*
X107073856Y-517389D01*
X107073856Y-517389D02*
X107169094Y-565008D01*
X107169094Y-565008D02*
X107216713Y-612627D01*
X107216713Y-612627D02*
X107264332Y-707865D01*
X107264332Y-707865D02*
X107264332Y-803103D01*
X107264332Y-803103D02*
X107216713Y-898341D01*
X107216713Y-898341D02*
X107169094Y-945960D01*
X107169094Y-945960D02*
X107073856Y-993579D01*
X107073856Y-993579D02*
X106740523Y-993579D01*
X107645285Y-517389D02*
X108264332Y-517389D01*
X108264332Y-517389D02*
X107930999Y-898341D01*
X107930999Y-898341D02*
X108073856Y-898341D01*
X108073856Y-898341D02*
X108169094Y-945960D01*
X108169094Y-945960D02*
X108216713Y-993579D01*
X108216713Y-993579D02*
X108264332Y-1088817D01*
X108264332Y-1088817D02*
X108264332Y-1326912D01*
X108264332Y-1326912D02*
X108216713Y-1422150D01*
X108216713Y-1422150D02*
X108169094Y-1469770D01*
X108169094Y-1469770D02*
X108073856Y-1517389D01*
X108073856Y-1517389D02*
X107788142Y-1517389D01*
X107788142Y-1517389D02*
X107692904Y-1469770D01*
X107692904Y-1469770D02*
X107645285Y-1422150D01*
X109169094Y-517389D02*
X108692904Y-517389D01*
X108692904Y-517389D02*
X108645285Y-993579D01*
X108645285Y-993579D02*
X108692904Y-945960D01*
X108692904Y-945960D02*
X108788142Y-898341D01*
X108788142Y-898341D02*
X109026237Y-898341D01*
X109026237Y-898341D02*
X109121475Y-945960D01*
X109121475Y-945960D02*
X109169094Y-993579D01*
X109169094Y-993579D02*
X109216713Y-1088817D01*
X109216713Y-1088817D02*
X109216713Y-1326912D01*
X109216713Y-1326912D02*
X109169094Y-1422150D01*
X109169094Y-1422150D02*
X109121475Y-1469770D01*
X109121475Y-1469770D02*
X109026237Y-1517389D01*
X109026237Y-1517389D02*
X108788142Y-1517389D01*
X108788142Y-1517389D02*
X108692904Y-1469770D01*
X108692904Y-1469770D02*
X108645285Y-1422150D01*
X102597666Y-100850649D02*
X102597666Y-99850649D01*
X102597666Y-99850649D02*
X102930999Y-100564934D01*
X102930999Y-100564934D02*
X103264332Y-99850649D01*
X103264332Y-99850649D02*
X103264332Y-100850649D01*
X104073856Y-100326839D02*
X104216713Y-100374458D01*
X104216713Y-100374458D02*
X104264332Y-100422077D01*
X104264332Y-100422077D02*
X104311951Y-100517315D01*
X104311951Y-100517315D02*
X104311951Y-100660172D01*
X104311951Y-100660172D02*
X104264332Y-100755410D01*
X104264332Y-100755410D02*
X104216713Y-100803030D01*
X104216713Y-100803030D02*
X104121475Y-100850649D01*
X104121475Y-100850649D02*
X103740523Y-100850649D01*
X103740523Y-100850649D02*
X103740523Y-99850649D01*
X103740523Y-99850649D02*
X104073856Y-99850649D01*
X104073856Y-99850649D02*
X104169094Y-99898268D01*
X104169094Y-99898268D02*
X104216713Y-99945887D01*
X104216713Y-99945887D02*
X104264332Y-100041125D01*
X104264332Y-100041125D02*
X104264332Y-100136363D01*
X104264332Y-100136363D02*
X104216713Y-100231601D01*
X104216713Y-100231601D02*
X104169094Y-100279220D01*
X104169094Y-100279220D02*
X104073856Y-100326839D01*
X104073856Y-100326839D02*
X103740523Y-100326839D01*
X104645285Y-99850649D02*
X105264332Y-99850649D01*
X105264332Y-99850649D02*
X104930999Y-100231601D01*
X104930999Y-100231601D02*
X105073856Y-100231601D01*
X105073856Y-100231601D02*
X105169094Y-100279220D01*
X105169094Y-100279220D02*
X105216713Y-100326839D01*
X105216713Y-100326839D02*
X105264332Y-100422077D01*
X105264332Y-100422077D02*
X105264332Y-100660172D01*
X105264332Y-100660172D02*
X105216713Y-100755410D01*
X105216713Y-100755410D02*
X105169094Y-100803030D01*
X105169094Y-100803030D02*
X105073856Y-100850649D01*
X105073856Y-100850649D02*
X104788142Y-100850649D01*
X104788142Y-100850649D02*
X104692904Y-100803030D01*
X104692904Y-100803030D02*
X104645285Y-100755410D01*
X106121475Y-99850649D02*
X105930999Y-99850649D01*
X105930999Y-99850649D02*
X105835761Y-99898268D01*
X105835761Y-99898268D02*
X105788142Y-99945887D01*
X105788142Y-99945887D02*
X105692904Y-100088744D01*
X105692904Y-100088744D02*
X105645285Y-100279220D01*
X105645285Y-100279220D02*
X105645285Y-100660172D01*
X105645285Y-100660172D02*
X105692904Y-100755410D01*
X105692904Y-100755410D02*
X105740523Y-100803030D01*
X105740523Y-100803030D02*
X105835761Y-100850649D01*
X105835761Y-100850649D02*
X106026237Y-100850649D01*
X106026237Y-100850649D02*
X106121475Y-100803030D01*
X106121475Y-100803030D02*
X106169094Y-100755410D01*
X106169094Y-100755410D02*
X106216713Y-100660172D01*
X106216713Y-100660172D02*
X106216713Y-100422077D01*
X106216713Y-100422077D02*
X106169094Y-100326839D01*
X106169094Y-100326839D02*
X106121475Y-100279220D01*
X106121475Y-100279220D02*
X106026237Y-100231601D01*
X106026237Y-100231601D02*
X105835761Y-100231601D01*
X105835761Y-100231601D02*
X105740523Y-100279220D01*
X105740523Y-100279220D02*
X105692904Y-100326839D01*
X105692904Y-100326839D02*
X105645285Y-100422077D01*
X103347666Y-100850649D02*
X103347666Y-99850649D01*
X103347666Y-99850649D02*
X103680999Y-100564934D01*
X103680999Y-100564934D02*
X104014332Y-99850649D01*
X104014332Y-99850649D02*
X104014332Y-100850649D01*
X104823856Y-100326839D02*
X104966713Y-100374458D01*
X104966713Y-100374458D02*
X105014332Y-100422077D01*
X105014332Y-100422077D02*
X105061951Y-100517315D01*
X105061951Y-100517315D02*
X105061951Y-100660172D01*
X105061951Y-100660172D02*
X105014332Y-100755410D01*
X105014332Y-100755410D02*
X104966713Y-100803030D01*
X104966713Y-100803030D02*
X104871475Y-100850649D01*
X104871475Y-100850649D02*
X104490523Y-100850649D01*
X104490523Y-100850649D02*
X104490523Y-99850649D01*
X104490523Y-99850649D02*
X104823856Y-99850649D01*
X104823856Y-99850649D02*
X104919094Y-99898268D01*
X104919094Y-99898268D02*
X104966713Y-99945887D01*
X104966713Y-99945887D02*
X105014332Y-100041125D01*
X105014332Y-100041125D02*
X105014332Y-100136363D01*
X105014332Y-100136363D02*
X104966713Y-100231601D01*
X104966713Y-100231601D02*
X104919094Y-100279220D01*
X104919094Y-100279220D02*
X104823856Y-100326839D01*
X104823856Y-100326839D02*
X104490523Y-100326839D01*
X105395285Y-99850649D02*
X106014332Y-99850649D01*
X106014332Y-99850649D02*
X105680999Y-100231601D01*
X105680999Y-100231601D02*
X105823856Y-100231601D01*
X105823856Y-100231601D02*
X105919094Y-100279220D01*
X105919094Y-100279220D02*
X105966713Y-100326839D01*
X105966713Y-100326839D02*
X106014332Y-100422077D01*
X106014332Y-100422077D02*
X106014332Y-100660172D01*
X106014332Y-100660172D02*
X105966713Y-100755410D01*
X105966713Y-100755410D02*
X105919094Y-100803030D01*
X105919094Y-100803030D02*
X105823856Y-100850649D01*
X105823856Y-100850649D02*
X105538142Y-100850649D01*
X105538142Y-100850649D02*
X105442904Y-100803030D01*
X105442904Y-100803030D02*
X105395285Y-100755410D01*
X106347666Y-99850649D02*
X107014332Y-99850649D01*
X107014332Y-99850649D02*
X106585761Y-100850649D01*
X104097666Y-100850649D02*
X104097666Y-99850649D01*
X104097666Y-99850649D02*
X104430999Y-100564934D01*
X104430999Y-100564934D02*
X104764332Y-99850649D01*
X104764332Y-99850649D02*
X104764332Y-100850649D01*
X105573856Y-100326839D02*
X105716713Y-100374458D01*
X105716713Y-100374458D02*
X105764332Y-100422077D01*
X105764332Y-100422077D02*
X105811951Y-100517315D01*
X105811951Y-100517315D02*
X105811951Y-100660172D01*
X105811951Y-100660172D02*
X105764332Y-100755410D01*
X105764332Y-100755410D02*
X105716713Y-100803030D01*
X105716713Y-100803030D02*
X105621475Y-100850649D01*
X105621475Y-100850649D02*
X105240523Y-100850649D01*
X105240523Y-100850649D02*
X105240523Y-99850649D01*
X105240523Y-99850649D02*
X105573856Y-99850649D01*
X105573856Y-99850649D02*
X105669094Y-99898268D01*
X105669094Y-99898268D02*
X105716713Y-99945887D01*
X105716713Y-99945887D02*
X105764332Y-100041125D01*
X105764332Y-100041125D02*
X105764332Y-100136363D01*
X105764332Y-100136363D02*
X105716713Y-100231601D01*
X105716713Y-100231601D02*
X105669094Y-100279220D01*
X105669094Y-100279220D02*
X105573856Y-100326839D01*
X105573856Y-100326839D02*
X105240523Y-100326839D01*
X106145285Y-99850649D02*
X106764332Y-99850649D01*
X106764332Y-99850649D02*
X106430999Y-100231601D01*
X106430999Y-100231601D02*
X106573856Y-100231601D01*
X106573856Y-100231601D02*
X106669094Y-100279220D01*
X106669094Y-100279220D02*
X106716713Y-100326839D01*
X106716713Y-100326839D02*
X106764332Y-100422077D01*
X106764332Y-100422077D02*
X106764332Y-100660172D01*
X106764332Y-100660172D02*
X106716713Y-100755410D01*
X106716713Y-100755410D02*
X106669094Y-100803030D01*
X106669094Y-100803030D02*
X106573856Y-100850649D01*
X106573856Y-100850649D02*
X106288142Y-100850649D01*
X106288142Y-100850649D02*
X106192904Y-100803030D01*
X106192904Y-100803030D02*
X106145285Y-100755410D01*
X107335761Y-100279220D02*
X107240523Y-100231601D01*
X107240523Y-100231601D02*
X107192904Y-100183982D01*
X107192904Y-100183982D02*
X107145285Y-100088744D01*
X107145285Y-100088744D02*
X107145285Y-100041125D01*
X107145285Y-100041125D02*
X107192904Y-99945887D01*
X107192904Y-99945887D02*
X107240523Y-99898268D01*
X107240523Y-99898268D02*
X107335761Y-99850649D01*
X107335761Y-99850649D02*
X107526237Y-99850649D01*
X107526237Y-99850649D02*
X107621475Y-99898268D01*
X107621475Y-99898268D02*
X107669094Y-99945887D01*
X107669094Y-99945887D02*
X107716713Y-100041125D01*
X107716713Y-100041125D02*
X107716713Y-100088744D01*
X107716713Y-100088744D02*
X107669094Y-100183982D01*
X107669094Y-100183982D02*
X107621475Y-100231601D01*
X107621475Y-100231601D02*
X107526237Y-100279220D01*
X107526237Y-100279220D02*
X107335761Y-100279220D01*
X107335761Y-100279220D02*
X107240523Y-100326839D01*
X107240523Y-100326839D02*
X107192904Y-100374458D01*
X107192904Y-100374458D02*
X107145285Y-100469696D01*
X107145285Y-100469696D02*
X107145285Y-100660172D01*
X107145285Y-100660172D02*
X107192904Y-100755410D01*
X107192904Y-100755410D02*
X107240523Y-100803030D01*
X107240523Y-100803030D02*
X107335761Y-100850649D01*
X107335761Y-100850649D02*
X107526237Y-100850649D01*
X107526237Y-100850649D02*
X107621475Y-100803030D01*
X107621475Y-100803030D02*
X107669094Y-100755410D01*
X107669094Y-100755410D02*
X107716713Y-100660172D01*
X107716713Y-100660172D02*
X107716713Y-100469696D01*
X107716713Y-100469696D02*
X107669094Y-100374458D01*
X107669094Y-100374458D02*
X107621475Y-100326839D01*
X107621475Y-100326839D02*
X107526237Y-100279220D01*
X104847666Y-100850649D02*
X104847666Y-99850649D01*
X104847666Y-99850649D02*
X105180999Y-100564934D01*
X105180999Y-100564934D02*
X105514332Y-99850649D01*
X105514332Y-99850649D02*
X105514332Y-100850649D01*
X106323856Y-100326839D02*
X106466713Y-100374458D01*
X106466713Y-100374458D02*
X106514332Y-100422077D01*
X106514332Y-100422077D02*
X106561951Y-100517315D01*
X106561951Y-100517315D02*
X106561951Y-100660172D01*
X106561951Y-100660172D02*
X106514332Y-100755410D01*
X106514332Y-100755410D02*
X106466713Y-100803030D01*
X106466713Y-100803030D02*
X106371475Y-100850649D01*
X106371475Y-100850649D02*
X105990523Y-100850649D01*
X105990523Y-100850649D02*
X105990523Y-99850649D01*
X105990523Y-99850649D02*
X106323856Y-99850649D01*
X106323856Y-99850649D02*
X106419094Y-99898268D01*
X106419094Y-99898268D02*
X106466713Y-99945887D01*
X106466713Y-99945887D02*
X106514332Y-100041125D01*
X106514332Y-100041125D02*
X106514332Y-100136363D01*
X106514332Y-100136363D02*
X106466713Y-100231601D01*
X106466713Y-100231601D02*
X106419094Y-100279220D01*
X106419094Y-100279220D02*
X106323856Y-100326839D01*
X106323856Y-100326839D02*
X105990523Y-100326839D01*
X106895285Y-99850649D02*
X107514332Y-99850649D01*
X107514332Y-99850649D02*
X107180999Y-100231601D01*
X107180999Y-100231601D02*
X107323856Y-100231601D01*
X107323856Y-100231601D02*
X107419094Y-100279220D01*
X107419094Y-100279220D02*
X107466713Y-100326839D01*
X107466713Y-100326839D02*
X107514332Y-100422077D01*
X107514332Y-100422077D02*
X107514332Y-100660172D01*
X107514332Y-100660172D02*
X107466713Y-100755410D01*
X107466713Y-100755410D02*
X107419094Y-100803030D01*
X107419094Y-100803030D02*
X107323856Y-100850649D01*
X107323856Y-100850649D02*
X107038142Y-100850649D01*
X107038142Y-100850649D02*
X106942904Y-100803030D01*
X106942904Y-100803030D02*
X106895285Y-100755410D01*
X107990523Y-100850649D02*
X108180999Y-100850649D01*
X108180999Y-100850649D02*
X108276237Y-100803030D01*
X108276237Y-100803030D02*
X108323856Y-100755410D01*
X108323856Y-100755410D02*
X108419094Y-100612553D01*
X108419094Y-100612553D02*
X108466713Y-100422077D01*
X108466713Y-100422077D02*
X108466713Y-100041125D01*
X108466713Y-100041125D02*
X108419094Y-99945887D01*
X108419094Y-99945887D02*
X108371475Y-99898268D01*
X108371475Y-99898268D02*
X108276237Y-99850649D01*
X108276237Y-99850649D02*
X108085761Y-99850649D01*
X108085761Y-99850649D02*
X107990523Y-99898268D01*
X107990523Y-99898268D02*
X107942904Y-99945887D01*
X107942904Y-99945887D02*
X107895285Y-100041125D01*
X107895285Y-100041125D02*
X107895285Y-100279220D01*
X107895285Y-100279220D02*
X107942904Y-100374458D01*
X107942904Y-100374458D02*
X107990523Y-100422077D01*
X107990523Y-100422077D02*
X108085761Y-100469696D01*
X108085761Y-100469696D02*
X108276237Y-100469696D01*
X108276237Y-100469696D02*
X108371475Y-100422077D01*
X108371475Y-100422077D02*
X108419094Y-100374458D01*
X108419094Y-100374458D02*
X108466713Y-100279220D01*
X105597666Y-100850649D02*
X105597666Y-99850649D01*
X105597666Y-99850649D02*
X105930999Y-100564934D01*
X105930999Y-100564934D02*
X106264332Y-99850649D01*
X106264332Y-99850649D02*
X106264332Y-100850649D01*
X107073856Y-100326839D02*
X107216713Y-100374458D01*
X107216713Y-100374458D02*
X107264332Y-100422077D01*
X107264332Y-100422077D02*
X107311951Y-100517315D01*
X107311951Y-100517315D02*
X107311951Y-100660172D01*
X107311951Y-100660172D02*
X107264332Y-100755410D01*
X107264332Y-100755410D02*
X107216713Y-100803030D01*
X107216713Y-100803030D02*
X107121475Y-100850649D01*
X107121475Y-100850649D02*
X106740523Y-100850649D01*
X106740523Y-100850649D02*
X106740523Y-99850649D01*
X106740523Y-99850649D02*
X107073856Y-99850649D01*
X107073856Y-99850649D02*
X107169094Y-99898268D01*
X107169094Y-99898268D02*
X107216713Y-99945887D01*
X107216713Y-99945887D02*
X107264332Y-100041125D01*
X107264332Y-100041125D02*
X107264332Y-100136363D01*
X107264332Y-100136363D02*
X107216713Y-100231601D01*
X107216713Y-100231601D02*
X107169094Y-100279220D01*
X107169094Y-100279220D02*
X107073856Y-100326839D01*
X107073856Y-100326839D02*
X106740523Y-100326839D01*
X108169094Y-100183982D02*
X108169094Y-100850649D01*
X107930999Y-99803030D02*
X107692904Y-100517315D01*
X107692904Y-100517315D02*
X108311951Y-100517315D01*
X108883380Y-99850649D02*
X108978618Y-99850649D01*
X108978618Y-99850649D02*
X109073856Y-99898268D01*
X109073856Y-99898268D02*
X109121475Y-99945887D01*
X109121475Y-99945887D02*
X109169094Y-100041125D01*
X109169094Y-100041125D02*
X109216713Y-100231601D01*
X109216713Y-100231601D02*
X109216713Y-100469696D01*
X109216713Y-100469696D02*
X109169094Y-100660172D01*
X109169094Y-100660172D02*
X109121475Y-100755410D01*
X109121475Y-100755410D02*
X109073856Y-100803030D01*
X109073856Y-100803030D02*
X108978618Y-100850649D01*
X108978618Y-100850649D02*
X108883380Y-100850649D01*
X108883380Y-100850649D02*
X108788142Y-100803030D01*
X108788142Y-100803030D02*
X108740523Y-100755410D01*
X108740523Y-100755410D02*
X108692904Y-100660172D01*
X108692904Y-100660172D02*
X108645285Y-100469696D01*
X108645285Y-100469696D02*
X108645285Y-100231601D01*
X108645285Y-100231601D02*
X108692904Y-100041125D01*
X108692904Y-100041125D02*
X108740523Y-99945887D01*
X108740523Y-99945887D02*
X108788142Y-99898268D01*
X108788142Y-99898268D02*
X108883380Y-99850649D01*
X102597666Y-198726179D02*
X102597666Y-197726179D01*
X102597666Y-197726179D02*
X102930999Y-198440464D01*
X102930999Y-198440464D02*
X103264332Y-197726179D01*
X103264332Y-197726179D02*
X103264332Y-198726179D01*
X104073856Y-198202369D02*
X104216713Y-198249988D01*
X104216713Y-198249988D02*
X104264332Y-198297607D01*
X104264332Y-198297607D02*
X104311951Y-198392845D01*
X104311951Y-198392845D02*
X104311951Y-198535702D01*
X104311951Y-198535702D02*
X104264332Y-198630940D01*
X104264332Y-198630940D02*
X104216713Y-198678560D01*
X104216713Y-198678560D02*
X104121475Y-198726179D01*
X104121475Y-198726179D02*
X103740523Y-198726179D01*
X103740523Y-198726179D02*
X103740523Y-197726179D01*
X103740523Y-197726179D02*
X104073856Y-197726179D01*
X104073856Y-197726179D02*
X104169094Y-197773798D01*
X104169094Y-197773798D02*
X104216713Y-197821417D01*
X104216713Y-197821417D02*
X104264332Y-197916655D01*
X104264332Y-197916655D02*
X104264332Y-198011893D01*
X104264332Y-198011893D02*
X104216713Y-198107131D01*
X104216713Y-198107131D02*
X104169094Y-198154750D01*
X104169094Y-198154750D02*
X104073856Y-198202369D01*
X104073856Y-198202369D02*
X103740523Y-198202369D01*
X105169094Y-198059512D02*
X105169094Y-198726179D01*
X104930999Y-197678560D02*
X104692904Y-198392845D01*
X104692904Y-198392845D02*
X105311951Y-198392845D01*
X106216713Y-198726179D02*
X105645285Y-198726179D01*
X105930999Y-198726179D02*
X105930999Y-197726179D01*
X105930999Y-197726179D02*
X105835761Y-197869036D01*
X105835761Y-197869036D02*
X105740523Y-197964274D01*
X105740523Y-197964274D02*
X105645285Y-198011893D01*
X103347666Y-198726179D02*
X103347666Y-197726179D01*
X103347666Y-197726179D02*
X103680999Y-198440464D01*
X103680999Y-198440464D02*
X104014332Y-197726179D01*
X104014332Y-197726179D02*
X104014332Y-198726179D01*
X104823856Y-198202369D02*
X104966713Y-198249988D01*
X104966713Y-198249988D02*
X105014332Y-198297607D01*
X105014332Y-198297607D02*
X105061951Y-198392845D01*
X105061951Y-198392845D02*
X105061951Y-198535702D01*
X105061951Y-198535702D02*
X105014332Y-198630940D01*
X105014332Y-198630940D02*
X104966713Y-198678560D01*
X104966713Y-198678560D02*
X104871475Y-198726179D01*
X104871475Y-198726179D02*
X104490523Y-198726179D01*
X104490523Y-198726179D02*
X104490523Y-197726179D01*
X104490523Y-197726179D02*
X104823856Y-197726179D01*
X104823856Y-197726179D02*
X104919094Y-197773798D01*
X104919094Y-197773798D02*
X104966713Y-197821417D01*
X104966713Y-197821417D02*
X105014332Y-197916655D01*
X105014332Y-197916655D02*
X105014332Y-198011893D01*
X105014332Y-198011893D02*
X104966713Y-198107131D01*
X104966713Y-198107131D02*
X104919094Y-198154750D01*
X104919094Y-198154750D02*
X104823856Y-198202369D01*
X104823856Y-198202369D02*
X104490523Y-198202369D01*
X105919094Y-198059512D02*
X105919094Y-198726179D01*
X105680999Y-197678560D02*
X105442904Y-198392845D01*
X105442904Y-198392845D02*
X106061951Y-198392845D01*
X106395285Y-197821417D02*
X106442904Y-197773798D01*
X106442904Y-197773798D02*
X106538142Y-197726179D01*
X106538142Y-197726179D02*
X106776237Y-197726179D01*
X106776237Y-197726179D02*
X106871475Y-197773798D01*
X106871475Y-197773798D02*
X106919094Y-197821417D01*
X106919094Y-197821417D02*
X106966713Y-197916655D01*
X106966713Y-197916655D02*
X106966713Y-198011893D01*
X106966713Y-198011893D02*
X106919094Y-198154750D01*
X106919094Y-198154750D02*
X106347666Y-198726179D01*
X106347666Y-198726179D02*
X106966713Y-198726179D01*
X104097666Y-198726179D02*
X104097666Y-197726179D01*
X104097666Y-197726179D02*
X104430999Y-198440464D01*
X104430999Y-198440464D02*
X104764332Y-197726179D01*
X104764332Y-197726179D02*
X104764332Y-198726179D01*
X105573856Y-198202369D02*
X105716713Y-198249988D01*
X105716713Y-198249988D02*
X105764332Y-198297607D01*
X105764332Y-198297607D02*
X105811951Y-198392845D01*
X105811951Y-198392845D02*
X105811951Y-198535702D01*
X105811951Y-198535702D02*
X105764332Y-198630940D01*
X105764332Y-198630940D02*
X105716713Y-198678560D01*
X105716713Y-198678560D02*
X105621475Y-198726179D01*
X105621475Y-198726179D02*
X105240523Y-198726179D01*
X105240523Y-198726179D02*
X105240523Y-197726179D01*
X105240523Y-197726179D02*
X105573856Y-197726179D01*
X105573856Y-197726179D02*
X105669094Y-197773798D01*
X105669094Y-197773798D02*
X105716713Y-197821417D01*
X105716713Y-197821417D02*
X105764332Y-197916655D01*
X105764332Y-197916655D02*
X105764332Y-198011893D01*
X105764332Y-198011893D02*
X105716713Y-198107131D01*
X105716713Y-198107131D02*
X105669094Y-198154750D01*
X105669094Y-198154750D02*
X105573856Y-198202369D01*
X105573856Y-198202369D02*
X105240523Y-198202369D01*
X106669094Y-198059512D02*
X106669094Y-198726179D01*
X106430999Y-197678560D02*
X106192904Y-198392845D01*
X106192904Y-198392845D02*
X106811951Y-198392845D01*
X107097666Y-197726179D02*
X107716713Y-197726179D01*
X107716713Y-197726179D02*
X107383380Y-198107131D01*
X107383380Y-198107131D02*
X107526237Y-198107131D01*
X107526237Y-198107131D02*
X107621475Y-198154750D01*
X107621475Y-198154750D02*
X107669094Y-198202369D01*
X107669094Y-198202369D02*
X107716713Y-198297607D01*
X107716713Y-198297607D02*
X107716713Y-198535702D01*
X107716713Y-198535702D02*
X107669094Y-198630940D01*
X107669094Y-198630940D02*
X107621475Y-198678560D01*
X107621475Y-198678560D02*
X107526237Y-198726179D01*
X107526237Y-198726179D02*
X107240523Y-198726179D01*
X107240523Y-198726179D02*
X107145285Y-198678560D01*
X107145285Y-198678560D02*
X107097666Y-198630940D01*
X104847666Y-198726179D02*
X104847666Y-197726179D01*
X104847666Y-197726179D02*
X105180999Y-198440464D01*
X105180999Y-198440464D02*
X105514332Y-197726179D01*
X105514332Y-197726179D02*
X105514332Y-198726179D01*
X106323856Y-198202369D02*
X106466713Y-198249988D01*
X106466713Y-198249988D02*
X106514332Y-198297607D01*
X106514332Y-198297607D02*
X106561951Y-198392845D01*
X106561951Y-198392845D02*
X106561951Y-198535702D01*
X106561951Y-198535702D02*
X106514332Y-198630940D01*
X106514332Y-198630940D02*
X106466713Y-198678560D01*
X106466713Y-198678560D02*
X106371475Y-198726179D01*
X106371475Y-198726179D02*
X105990523Y-198726179D01*
X105990523Y-198726179D02*
X105990523Y-197726179D01*
X105990523Y-197726179D02*
X106323856Y-197726179D01*
X106323856Y-197726179D02*
X106419094Y-197773798D01*
X106419094Y-197773798D02*
X106466713Y-197821417D01*
X106466713Y-197821417D02*
X106514332Y-197916655D01*
X106514332Y-197916655D02*
X106514332Y-198011893D01*
X106514332Y-198011893D02*
X106466713Y-198107131D01*
X106466713Y-198107131D02*
X106419094Y-198154750D01*
X106419094Y-198154750D02*
X106323856Y-198202369D01*
X106323856Y-198202369D02*
X105990523Y-198202369D01*
X107419094Y-198059512D02*
X107419094Y-198726179D01*
X107180999Y-197678560D02*
X106942904Y-198392845D01*
X106942904Y-198392845D02*
X107561951Y-198392845D01*
X108371475Y-198059512D02*
X108371475Y-198726179D01*
X108133380Y-197678560D02*
X107895285Y-198392845D01*
X107895285Y-198392845D02*
X108514332Y-198392845D01*
X105597666Y-198726179D02*
X105597666Y-197726179D01*
X105597666Y-197726179D02*
X105930999Y-198440464D01*
X105930999Y-198440464D02*
X106264332Y-197726179D01*
X106264332Y-197726179D02*
X106264332Y-198726179D01*
X107073856Y-198202369D02*
X107216713Y-198249988D01*
X107216713Y-198249988D02*
X107264332Y-198297607D01*
X107264332Y-198297607D02*
X107311951Y-198392845D01*
X107311951Y-198392845D02*
X107311951Y-198535702D01*
X107311951Y-198535702D02*
X107264332Y-198630940D01*
X107264332Y-198630940D02*
X107216713Y-198678560D01*
X107216713Y-198678560D02*
X107121475Y-198726179D01*
X107121475Y-198726179D02*
X106740523Y-198726179D01*
X106740523Y-198726179D02*
X106740523Y-197726179D01*
X106740523Y-197726179D02*
X107073856Y-197726179D01*
X107073856Y-197726179D02*
X107169094Y-197773798D01*
X107169094Y-197773798D02*
X107216713Y-197821417D01*
X107216713Y-197821417D02*
X107264332Y-197916655D01*
X107264332Y-197916655D02*
X107264332Y-198011893D01*
X107264332Y-198011893D02*
X107216713Y-198107131D01*
X107216713Y-198107131D02*
X107169094Y-198154750D01*
X107169094Y-198154750D02*
X107073856Y-198202369D01*
X107073856Y-198202369D02*
X106740523Y-198202369D01*
X108169094Y-198059512D02*
X108169094Y-198726179D01*
X107930999Y-197678560D02*
X107692904Y-198392845D01*
X107692904Y-198392845D02*
X108311951Y-198392845D01*
X109169094Y-197726179D02*
X108692904Y-197726179D01*
X108692904Y-197726179D02*
X108645285Y-198202369D01*
X108645285Y-198202369D02*
X108692904Y-198154750D01*
X108692904Y-198154750D02*
X108788142Y-198107131D01*
X108788142Y-198107131D02*
X109026237Y-198107131D01*
X109026237Y-198107131D02*
X109121475Y-198154750D01*
X109121475Y-198154750D02*
X109169094Y-198202369D01*
X109169094Y-198202369D02*
X109216713Y-198297607D01*
X109216713Y-198297607D02*
X109216713Y-198535702D01*
X109216713Y-198535702D02*
X109169094Y-198630940D01*
X109169094Y-198630940D02*
X109121475Y-198678560D01*
X109121475Y-198678560D02*
X109026237Y-198726179D01*
X109026237Y-198726179D02*
X108788142Y-198726179D01*
X108788142Y-198726179D02*
X108692904Y-198678560D01*
X108692904Y-198678560D02*
X108645285Y-198630940D01*
X-2238563Y-48417319D02*
X-2238563Y-47417319D01*
X-2238563Y-47417319D02*
X-1905230Y-48131604D01*
X-1905230Y-48131604D02*
X-1571897Y-47417319D01*
X-1571897Y-47417319D02*
X-1571897Y-48417319D01*
X-762373Y-47893509D02*
X-619516Y-47941128D01*
X-619516Y-47941128D02*
X-571897Y-47988747D01*
X-571897Y-47988747D02*
X-524278Y-48083985D01*
X-524278Y-48083985D02*
X-524278Y-48226842D01*
X-524278Y-48226842D02*
X-571897Y-48322080D01*
X-571897Y-48322080D02*
X-619516Y-48369700D01*
X-619516Y-48369700D02*
X-714754Y-48417319D01*
X-714754Y-48417319D02*
X-1095706Y-48417319D01*
X-1095706Y-48417319D02*
X-1095706Y-47417319D01*
X-1095706Y-47417319D02*
X-762373Y-47417319D01*
X-762373Y-47417319D02*
X-667135Y-47464938D01*
X-667135Y-47464938D02*
X-619516Y-47512557D01*
X-619516Y-47512557D02*
X-571897Y-47607795D01*
X-571897Y-47607795D02*
X-571897Y-47703033D01*
X-571897Y-47703033D02*
X-619516Y-47798271D01*
X-619516Y-47798271D02*
X-667135Y-47845890D01*
X-667135Y-47845890D02*
X-762373Y-47893509D01*
X-762373Y-47893509D02*
X-1095706Y-47893509D01*
X332864Y-47750652D02*
X332864Y-48417319D01*
X94769Y-47369700D02*
X-143325Y-48083985D01*
X-143325Y-48083985D02*
X475721Y-48083985D01*
X1285245Y-47417319D02*
X1094769Y-47417319D01*
X1094769Y-47417319D02*
X999531Y-47464938D01*
X999531Y-47464938D02*
X951912Y-47512557D01*
X951912Y-47512557D02*
X856674Y-47655414D01*
X856674Y-47655414D02*
X809055Y-47845890D01*
X809055Y-47845890D02*
X809055Y-48226842D01*
X809055Y-48226842D02*
X856674Y-48322080D01*
X856674Y-48322080D02*
X904293Y-48369700D01*
X904293Y-48369700D02*
X999531Y-48417319D01*
X999531Y-48417319D02*
X1190007Y-48417319D01*
X1190007Y-48417319D02*
X1285245Y-48369700D01*
X1285245Y-48369700D02*
X1332864Y-48322080D01*
X1332864Y-48322080D02*
X1380483Y-48226842D01*
X1380483Y-48226842D02*
X1380483Y-47988747D01*
X1380483Y-47988747D02*
X1332864Y-47893509D01*
X1332864Y-47893509D02*
X1285245Y-47845890D01*
X1285245Y-47845890D02*
X1190007Y-47798271D01*
X1190007Y-47798271D02*
X999531Y-47798271D01*
X999531Y-47798271D02*
X904293Y-47845890D01*
X904293Y-47845890D02*
X856674Y-47893509D01*
X856674Y-47893509D02*
X809055Y-47988747D01*
X-2238563Y-49167319D02*
X-2238563Y-48167319D01*
X-2238563Y-48167319D02*
X-1905230Y-48881604D01*
X-1905230Y-48881604D02*
X-1571897Y-48167319D01*
X-1571897Y-48167319D02*
X-1571897Y-49167319D01*
X-762373Y-48643509D02*
X-619516Y-48691128D01*
X-619516Y-48691128D02*
X-571897Y-48738747D01*
X-571897Y-48738747D02*
X-524278Y-48833985D01*
X-524278Y-48833985D02*
X-524278Y-48976842D01*
X-524278Y-48976842D02*
X-571897Y-49072080D01*
X-571897Y-49072080D02*
X-619516Y-49119700D01*
X-619516Y-49119700D02*
X-714754Y-49167319D01*
X-714754Y-49167319D02*
X-1095706Y-49167319D01*
X-1095706Y-49167319D02*
X-1095706Y-48167319D01*
X-1095706Y-48167319D02*
X-762373Y-48167319D01*
X-762373Y-48167319D02*
X-667135Y-48214938D01*
X-667135Y-48214938D02*
X-619516Y-48262557D01*
X-619516Y-48262557D02*
X-571897Y-48357795D01*
X-571897Y-48357795D02*
X-571897Y-48453033D01*
X-571897Y-48453033D02*
X-619516Y-48548271D01*
X-619516Y-48548271D02*
X-667135Y-48595890D01*
X-667135Y-48595890D02*
X-762373Y-48643509D01*
X-762373Y-48643509D02*
X-1095706Y-48643509D01*
X332864Y-48500652D02*
X332864Y-49167319D01*
X94769Y-48119700D02*
X-143325Y-48833985D01*
X-143325Y-48833985D02*
X475721Y-48833985D01*
X761436Y-48167319D02*
X1428102Y-48167319D01*
X1428102Y-48167319D02*
X999531Y-49167319D01*
X-2238563Y-49917319D02*
X-2238563Y-48917319D01*
X-2238563Y-48917319D02*
X-1905230Y-49631604D01*
X-1905230Y-49631604D02*
X-1571897Y-48917319D01*
X-1571897Y-48917319D02*
X-1571897Y-49917319D01*
X-762373Y-49393509D02*
X-619516Y-49441128D01*
X-619516Y-49441128D02*
X-571897Y-49488747D01*
X-571897Y-49488747D02*
X-524278Y-49583985D01*
X-524278Y-49583985D02*
X-524278Y-49726842D01*
X-524278Y-49726842D02*
X-571897Y-49822080D01*
X-571897Y-49822080D02*
X-619516Y-49869700D01*
X-619516Y-49869700D02*
X-714754Y-49917319D01*
X-714754Y-49917319D02*
X-1095706Y-49917319D01*
X-1095706Y-49917319D02*
X-1095706Y-48917319D01*
X-1095706Y-48917319D02*
X-762373Y-48917319D01*
X-762373Y-48917319D02*
X-667135Y-48964938D01*
X-667135Y-48964938D02*
X-619516Y-49012557D01*
X-619516Y-49012557D02*
X-571897Y-49107795D01*
X-571897Y-49107795D02*
X-571897Y-49203033D01*
X-571897Y-49203033D02*
X-619516Y-49298271D01*
X-619516Y-49298271D02*
X-667135Y-49345890D01*
X-667135Y-49345890D02*
X-762373Y-49393509D01*
X-762373Y-49393509D02*
X-1095706Y-49393509D01*
X332864Y-49250652D02*
X332864Y-49917319D01*
X94769Y-48869700D02*
X-143325Y-49583985D01*
X-143325Y-49583985D02*
X475721Y-49583985D01*
X999531Y-49345890D02*
X904293Y-49298271D01*
X904293Y-49298271D02*
X856674Y-49250652D01*
X856674Y-49250652D02*
X809055Y-49155414D01*
X809055Y-49155414D02*
X809055Y-49107795D01*
X809055Y-49107795D02*
X856674Y-49012557D01*
X856674Y-49012557D02*
X904293Y-48964938D01*
X904293Y-48964938D02*
X999531Y-48917319D01*
X999531Y-48917319D02*
X1190007Y-48917319D01*
X1190007Y-48917319D02*
X1285245Y-48964938D01*
X1285245Y-48964938D02*
X1332864Y-49012557D01*
X1332864Y-49012557D02*
X1380483Y-49107795D01*
X1380483Y-49107795D02*
X1380483Y-49155414D01*
X1380483Y-49155414D02*
X1332864Y-49250652D01*
X1332864Y-49250652D02*
X1285245Y-49298271D01*
X1285245Y-49298271D02*
X1190007Y-49345890D01*
X1190007Y-49345890D02*
X999531Y-49345890D01*
X999531Y-49345890D02*
X904293Y-49393509D01*
X904293Y-49393509D02*
X856674Y-49441128D01*
X856674Y-49441128D02*
X809055Y-49536366D01*
X809055Y-49536366D02*
X809055Y-49726842D01*
X809055Y-49726842D02*
X856674Y-49822080D01*
X856674Y-49822080D02*
X904293Y-49869700D01*
X904293Y-49869700D02*
X999531Y-49917319D01*
X999531Y-49917319D02*
X1190007Y-49917319D01*
X1190007Y-49917319D02*
X1285245Y-49869700D01*
X1285245Y-49869700D02*
X1332864Y-49822080D01*
X1332864Y-49822080D02*
X1380483Y-49726842D01*
X1380483Y-49726842D02*
X1380483Y-49536366D01*
X1380483Y-49536366D02*
X1332864Y-49441128D01*
X1332864Y-49441128D02*
X1285245Y-49393509D01*
X1285245Y-49393509D02*
X1190007Y-49345890D01*
X-2238563Y-50667319D02*
X-2238563Y-49667319D01*
X-2238563Y-49667319D02*
X-1905230Y-50381604D01*
X-1905230Y-50381604D02*
X-1571897Y-49667319D01*
X-1571897Y-49667319D02*
X-1571897Y-50667319D01*
X-762373Y-50143509D02*
X-619516Y-50191128D01*
X-619516Y-50191128D02*
X-571897Y-50238747D01*
X-571897Y-50238747D02*
X-524278Y-50333985D01*
X-524278Y-50333985D02*
X-524278Y-50476842D01*
X-524278Y-50476842D02*
X-571897Y-50572080D01*
X-571897Y-50572080D02*
X-619516Y-50619700D01*
X-619516Y-50619700D02*
X-714754Y-50667319D01*
X-714754Y-50667319D02*
X-1095706Y-50667319D01*
X-1095706Y-50667319D02*
X-1095706Y-49667319D01*
X-1095706Y-49667319D02*
X-762373Y-49667319D01*
X-762373Y-49667319D02*
X-667135Y-49714938D01*
X-667135Y-49714938D02*
X-619516Y-49762557D01*
X-619516Y-49762557D02*
X-571897Y-49857795D01*
X-571897Y-49857795D02*
X-571897Y-49953033D01*
X-571897Y-49953033D02*
X-619516Y-50048271D01*
X-619516Y-50048271D02*
X-667135Y-50095890D01*
X-667135Y-50095890D02*
X-762373Y-50143509D01*
X-762373Y-50143509D02*
X-1095706Y-50143509D01*
X332864Y-50000652D02*
X332864Y-50667319D01*
X94769Y-49619700D02*
X-143325Y-50333985D01*
X-143325Y-50333985D02*
X475721Y-50333985D01*
X904293Y-50667319D02*
X1094769Y-50667319D01*
X1094769Y-50667319D02*
X1190007Y-50619700D01*
X1190007Y-50619700D02*
X1237626Y-50572080D01*
X1237626Y-50572080D02*
X1332864Y-50429223D01*
X1332864Y-50429223D02*
X1380483Y-50238747D01*
X1380483Y-50238747D02*
X1380483Y-49857795D01*
X1380483Y-49857795D02*
X1332864Y-49762557D01*
X1332864Y-49762557D02*
X1285245Y-49714938D01*
X1285245Y-49714938D02*
X1190007Y-49667319D01*
X1190007Y-49667319D02*
X999531Y-49667319D01*
X999531Y-49667319D02*
X904293Y-49714938D01*
X904293Y-49714938D02*
X856674Y-49762557D01*
X856674Y-49762557D02*
X809055Y-49857795D01*
X809055Y-49857795D02*
X809055Y-50095890D01*
X809055Y-50095890D02*
X856674Y-50191128D01*
X856674Y-50191128D02*
X904293Y-50238747D01*
X904293Y-50238747D02*
X999531Y-50286366D01*
X999531Y-50286366D02*
X1190007Y-50286366D01*
X1190007Y-50286366D02*
X1285245Y-50238747D01*
X1285245Y-50238747D02*
X1332864Y-50191128D01*
X1332864Y-50191128D02*
X1380483Y-50095890D01*
X-2238563Y-51417319D02*
X-2238563Y-50417319D01*
X-2238563Y-50417319D02*
X-1905230Y-51131604D01*
X-1905230Y-51131604D02*
X-1571897Y-50417319D01*
X-1571897Y-50417319D02*
X-1571897Y-51417319D01*
X-762373Y-50893509D02*
X-619516Y-50941128D01*
X-619516Y-50941128D02*
X-571897Y-50988747D01*
X-571897Y-50988747D02*
X-524278Y-51083985D01*
X-524278Y-51083985D02*
X-524278Y-51226842D01*
X-524278Y-51226842D02*
X-571897Y-51322080D01*
X-571897Y-51322080D02*
X-619516Y-51369700D01*
X-619516Y-51369700D02*
X-714754Y-51417319D01*
X-714754Y-51417319D02*
X-1095706Y-51417319D01*
X-1095706Y-51417319D02*
X-1095706Y-50417319D01*
X-1095706Y-50417319D02*
X-762373Y-50417319D01*
X-762373Y-50417319D02*
X-667135Y-50464938D01*
X-667135Y-50464938D02*
X-619516Y-50512557D01*
X-619516Y-50512557D02*
X-571897Y-50607795D01*
X-571897Y-50607795D02*
X-571897Y-50703033D01*
X-571897Y-50703033D02*
X-619516Y-50798271D01*
X-619516Y-50798271D02*
X-667135Y-50845890D01*
X-667135Y-50845890D02*
X-762373Y-50893509D01*
X-762373Y-50893509D02*
X-1095706Y-50893509D01*
X380483Y-50417319D02*
X-95706Y-50417319D01*
X-95706Y-50417319D02*
X-143325Y-50893509D01*
X-143325Y-50893509D02*
X-95706Y-50845890D01*
X-95706Y-50845890D02*
X-468Y-50798271D01*
X-468Y-50798271D02*
X237626Y-50798271D01*
X237626Y-50798271D02*
X332864Y-50845890D01*
X332864Y-50845890D02*
X380483Y-50893509D01*
X380483Y-50893509D02*
X428102Y-50988747D01*
X428102Y-50988747D02*
X428102Y-51226842D01*
X428102Y-51226842D02*
X380483Y-51322080D01*
X380483Y-51322080D02*
X332864Y-51369700D01*
X332864Y-51369700D02*
X237626Y-51417319D01*
X237626Y-51417319D02*
X-468Y-51417319D01*
X-468Y-51417319D02*
X-95706Y-51369700D01*
X-95706Y-51369700D02*
X-143325Y-51322080D01*
X1047150Y-50417319D02*
X1142388Y-50417319D01*
X1142388Y-50417319D02*
X1237626Y-50464938D01*
X1237626Y-50464938D02*
X1285245Y-50512557D01*
X1285245Y-50512557D02*
X1332864Y-50607795D01*
X1332864Y-50607795D02*
X1380483Y-50798271D01*
X1380483Y-50798271D02*
X1380483Y-51036366D01*
X1380483Y-51036366D02*
X1332864Y-51226842D01*
X1332864Y-51226842D02*
X1285245Y-51322080D01*
X1285245Y-51322080D02*
X1237626Y-51369700D01*
X1237626Y-51369700D02*
X1142388Y-51417319D01*
X1142388Y-51417319D02*
X1047150Y-51417319D01*
X1047150Y-51417319D02*
X951912Y-51369700D01*
X951912Y-51369700D02*
X904293Y-51322080D01*
X904293Y-51322080D02*
X856674Y-51226842D01*
X856674Y-51226842D02*
X809055Y-51036366D01*
X809055Y-51036366D02*
X809055Y-50798271D01*
X809055Y-50798271D02*
X856674Y-50607795D01*
X856674Y-50607795D02*
X904293Y-50512557D01*
X904293Y-50512557D02*
X951912Y-50464938D01*
X951912Y-50464938D02*
X1047150Y-50417319D01*
X142224046Y-48417319D02*
X142224046Y-47417319D01*
X142224046Y-47417319D02*
X142557379Y-48131604D01*
X142557379Y-48131604D02*
X142890712Y-47417319D01*
X142890712Y-47417319D02*
X142890712Y-48417319D01*
X143700236Y-47893509D02*
X143843093Y-47941128D01*
X143843093Y-47941128D02*
X143890712Y-47988747D01*
X143890712Y-47988747D02*
X143938331Y-48083985D01*
X143938331Y-48083985D02*
X143938331Y-48226842D01*
X143938331Y-48226842D02*
X143890712Y-48322080D01*
X143890712Y-48322080D02*
X143843093Y-48369700D01*
X143843093Y-48369700D02*
X143747855Y-48417319D01*
X143747855Y-48417319D02*
X143366903Y-48417319D01*
X143366903Y-48417319D02*
X143366903Y-47417319D01*
X143366903Y-47417319D02*
X143700236Y-47417319D01*
X143700236Y-47417319D02*
X143795474Y-47464938D01*
X143795474Y-47464938D02*
X143843093Y-47512557D01*
X143843093Y-47512557D02*
X143890712Y-47607795D01*
X143890712Y-47607795D02*
X143890712Y-47703033D01*
X143890712Y-47703033D02*
X143843093Y-47798271D01*
X143843093Y-47798271D02*
X143795474Y-47845890D01*
X143795474Y-47845890D02*
X143700236Y-47893509D01*
X143700236Y-47893509D02*
X143366903Y-47893509D01*
X144843093Y-47417319D02*
X144366903Y-47417319D01*
X144366903Y-47417319D02*
X144319284Y-47893509D01*
X144319284Y-47893509D02*
X144366903Y-47845890D01*
X144366903Y-47845890D02*
X144462141Y-47798271D01*
X144462141Y-47798271D02*
X144700236Y-47798271D01*
X144700236Y-47798271D02*
X144795474Y-47845890D01*
X144795474Y-47845890D02*
X144843093Y-47893509D01*
X144843093Y-47893509D02*
X144890712Y-47988747D01*
X144890712Y-47988747D02*
X144890712Y-48226842D01*
X144890712Y-48226842D02*
X144843093Y-48322080D01*
X144843093Y-48322080D02*
X144795474Y-48369700D01*
X144795474Y-48369700D02*
X144700236Y-48417319D01*
X144700236Y-48417319D02*
X144462141Y-48417319D01*
X144462141Y-48417319D02*
X144366903Y-48369700D01*
X144366903Y-48369700D02*
X144319284Y-48322080D01*
X145843093Y-48417319D02*
X145271665Y-48417319D01*
X145557379Y-48417319D02*
X145557379Y-47417319D01*
X145557379Y-47417319D02*
X145462141Y-47560176D01*
X145462141Y-47560176D02*
X145366903Y-47655414D01*
X145366903Y-47655414D02*
X145271665Y-47703033D01*
X142224046Y-49167319D02*
X142224046Y-48167319D01*
X142224046Y-48167319D02*
X142557379Y-48881604D01*
X142557379Y-48881604D02*
X142890712Y-48167319D01*
X142890712Y-48167319D02*
X142890712Y-49167319D01*
X143700236Y-48643509D02*
X143843093Y-48691128D01*
X143843093Y-48691128D02*
X143890712Y-48738747D01*
X143890712Y-48738747D02*
X143938331Y-48833985D01*
X143938331Y-48833985D02*
X143938331Y-48976842D01*
X143938331Y-48976842D02*
X143890712Y-49072080D01*
X143890712Y-49072080D02*
X143843093Y-49119700D01*
X143843093Y-49119700D02*
X143747855Y-49167319D01*
X143747855Y-49167319D02*
X143366903Y-49167319D01*
X143366903Y-49167319D02*
X143366903Y-48167319D01*
X143366903Y-48167319D02*
X143700236Y-48167319D01*
X143700236Y-48167319D02*
X143795474Y-48214938D01*
X143795474Y-48214938D02*
X143843093Y-48262557D01*
X143843093Y-48262557D02*
X143890712Y-48357795D01*
X143890712Y-48357795D02*
X143890712Y-48453033D01*
X143890712Y-48453033D02*
X143843093Y-48548271D01*
X143843093Y-48548271D02*
X143795474Y-48595890D01*
X143795474Y-48595890D02*
X143700236Y-48643509D01*
X143700236Y-48643509D02*
X143366903Y-48643509D01*
X144843093Y-48167319D02*
X144366903Y-48167319D01*
X144366903Y-48167319D02*
X144319284Y-48643509D01*
X144319284Y-48643509D02*
X144366903Y-48595890D01*
X144366903Y-48595890D02*
X144462141Y-48548271D01*
X144462141Y-48548271D02*
X144700236Y-48548271D01*
X144700236Y-48548271D02*
X144795474Y-48595890D01*
X144795474Y-48595890D02*
X144843093Y-48643509D01*
X144843093Y-48643509D02*
X144890712Y-48738747D01*
X144890712Y-48738747D02*
X144890712Y-48976842D01*
X144890712Y-48976842D02*
X144843093Y-49072080D01*
X144843093Y-49072080D02*
X144795474Y-49119700D01*
X144795474Y-49119700D02*
X144700236Y-49167319D01*
X144700236Y-49167319D02*
X144462141Y-49167319D01*
X144462141Y-49167319D02*
X144366903Y-49119700D01*
X144366903Y-49119700D02*
X144319284Y-49072080D01*
X145271665Y-48262557D02*
X145319284Y-48214938D01*
X145319284Y-48214938D02*
X145414522Y-48167319D01*
X145414522Y-48167319D02*
X145652617Y-48167319D01*
X145652617Y-48167319D02*
X145747855Y-48214938D01*
X145747855Y-48214938D02*
X145795474Y-48262557D01*
X145795474Y-48262557D02*
X145843093Y-48357795D01*
X145843093Y-48357795D02*
X145843093Y-48453033D01*
X145843093Y-48453033D02*
X145795474Y-48595890D01*
X145795474Y-48595890D02*
X145224046Y-49167319D01*
X145224046Y-49167319D02*
X145843093Y-49167319D01*
X142224046Y-49917319D02*
X142224046Y-48917319D01*
X142224046Y-48917319D02*
X142557379Y-49631604D01*
X142557379Y-49631604D02*
X142890712Y-48917319D01*
X142890712Y-48917319D02*
X142890712Y-49917319D01*
X143700236Y-49393509D02*
X143843093Y-49441128D01*
X143843093Y-49441128D02*
X143890712Y-49488747D01*
X143890712Y-49488747D02*
X143938331Y-49583985D01*
X143938331Y-49583985D02*
X143938331Y-49726842D01*
X143938331Y-49726842D02*
X143890712Y-49822080D01*
X143890712Y-49822080D02*
X143843093Y-49869700D01*
X143843093Y-49869700D02*
X143747855Y-49917319D01*
X143747855Y-49917319D02*
X143366903Y-49917319D01*
X143366903Y-49917319D02*
X143366903Y-48917319D01*
X143366903Y-48917319D02*
X143700236Y-48917319D01*
X143700236Y-48917319D02*
X143795474Y-48964938D01*
X143795474Y-48964938D02*
X143843093Y-49012557D01*
X143843093Y-49012557D02*
X143890712Y-49107795D01*
X143890712Y-49107795D02*
X143890712Y-49203033D01*
X143890712Y-49203033D02*
X143843093Y-49298271D01*
X143843093Y-49298271D02*
X143795474Y-49345890D01*
X143795474Y-49345890D02*
X143700236Y-49393509D01*
X143700236Y-49393509D02*
X143366903Y-49393509D01*
X144843093Y-48917319D02*
X144366903Y-48917319D01*
X144366903Y-48917319D02*
X144319284Y-49393509D01*
X144319284Y-49393509D02*
X144366903Y-49345890D01*
X144366903Y-49345890D02*
X144462141Y-49298271D01*
X144462141Y-49298271D02*
X144700236Y-49298271D01*
X144700236Y-49298271D02*
X144795474Y-49345890D01*
X144795474Y-49345890D02*
X144843093Y-49393509D01*
X144843093Y-49393509D02*
X144890712Y-49488747D01*
X144890712Y-49488747D02*
X144890712Y-49726842D01*
X144890712Y-49726842D02*
X144843093Y-49822080D01*
X144843093Y-49822080D02*
X144795474Y-49869700D01*
X144795474Y-49869700D02*
X144700236Y-49917319D01*
X144700236Y-49917319D02*
X144462141Y-49917319D01*
X144462141Y-49917319D02*
X144366903Y-49869700D01*
X144366903Y-49869700D02*
X144319284Y-49822080D01*
X145224046Y-48917319D02*
X145843093Y-48917319D01*
X145843093Y-48917319D02*
X145509760Y-49298271D01*
X145509760Y-49298271D02*
X145652617Y-49298271D01*
X145652617Y-49298271D02*
X145747855Y-49345890D01*
X145747855Y-49345890D02*
X145795474Y-49393509D01*
X145795474Y-49393509D02*
X145843093Y-49488747D01*
X145843093Y-49488747D02*
X145843093Y-49726842D01*
X145843093Y-49726842D02*
X145795474Y-49822080D01*
X145795474Y-49822080D02*
X145747855Y-49869700D01*
X145747855Y-49869700D02*
X145652617Y-49917319D01*
X145652617Y-49917319D02*
X145366903Y-49917319D01*
X145366903Y-49917319D02*
X145271665Y-49869700D01*
X145271665Y-49869700D02*
X145224046Y-49822080D01*
X142224046Y-50667319D02*
X142224046Y-49667319D01*
X142224046Y-49667319D02*
X142557379Y-50381604D01*
X142557379Y-50381604D02*
X142890712Y-49667319D01*
X142890712Y-49667319D02*
X142890712Y-50667319D01*
X143700236Y-50143509D02*
X143843093Y-50191128D01*
X143843093Y-50191128D02*
X143890712Y-50238747D01*
X143890712Y-50238747D02*
X143938331Y-50333985D01*
X143938331Y-50333985D02*
X143938331Y-50476842D01*
X143938331Y-50476842D02*
X143890712Y-50572080D01*
X143890712Y-50572080D02*
X143843093Y-50619700D01*
X143843093Y-50619700D02*
X143747855Y-50667319D01*
X143747855Y-50667319D02*
X143366903Y-50667319D01*
X143366903Y-50667319D02*
X143366903Y-49667319D01*
X143366903Y-49667319D02*
X143700236Y-49667319D01*
X143700236Y-49667319D02*
X143795474Y-49714938D01*
X143795474Y-49714938D02*
X143843093Y-49762557D01*
X143843093Y-49762557D02*
X143890712Y-49857795D01*
X143890712Y-49857795D02*
X143890712Y-49953033D01*
X143890712Y-49953033D02*
X143843093Y-50048271D01*
X143843093Y-50048271D02*
X143795474Y-50095890D01*
X143795474Y-50095890D02*
X143700236Y-50143509D01*
X143700236Y-50143509D02*
X143366903Y-50143509D01*
X144843093Y-49667319D02*
X144366903Y-49667319D01*
X144366903Y-49667319D02*
X144319284Y-50143509D01*
X144319284Y-50143509D02*
X144366903Y-50095890D01*
X144366903Y-50095890D02*
X144462141Y-50048271D01*
X144462141Y-50048271D02*
X144700236Y-50048271D01*
X144700236Y-50048271D02*
X144795474Y-50095890D01*
X144795474Y-50095890D02*
X144843093Y-50143509D01*
X144843093Y-50143509D02*
X144890712Y-50238747D01*
X144890712Y-50238747D02*
X144890712Y-50476842D01*
X144890712Y-50476842D02*
X144843093Y-50572080D01*
X144843093Y-50572080D02*
X144795474Y-50619700D01*
X144795474Y-50619700D02*
X144700236Y-50667319D01*
X144700236Y-50667319D02*
X144462141Y-50667319D01*
X144462141Y-50667319D02*
X144366903Y-50619700D01*
X144366903Y-50619700D02*
X144319284Y-50572080D01*
X145747855Y-50000652D02*
X145747855Y-50667319D01*
X145509760Y-49619700D02*
X145271665Y-50333985D01*
X145271665Y-50333985D02*
X145890712Y-50333985D01*
X142224046Y-51417319D02*
X142224046Y-50417319D01*
X142224046Y-50417319D02*
X142557379Y-51131604D01*
X142557379Y-51131604D02*
X142890712Y-50417319D01*
X142890712Y-50417319D02*
X142890712Y-51417319D01*
X143700236Y-50893509D02*
X143843093Y-50941128D01*
X143843093Y-50941128D02*
X143890712Y-50988747D01*
X143890712Y-50988747D02*
X143938331Y-51083985D01*
X143938331Y-51083985D02*
X143938331Y-51226842D01*
X143938331Y-51226842D02*
X143890712Y-51322080D01*
X143890712Y-51322080D02*
X143843093Y-51369700D01*
X143843093Y-51369700D02*
X143747855Y-51417319D01*
X143747855Y-51417319D02*
X143366903Y-51417319D01*
X143366903Y-51417319D02*
X143366903Y-50417319D01*
X143366903Y-50417319D02*
X143700236Y-50417319D01*
X143700236Y-50417319D02*
X143795474Y-50464938D01*
X143795474Y-50464938D02*
X143843093Y-50512557D01*
X143843093Y-50512557D02*
X143890712Y-50607795D01*
X143890712Y-50607795D02*
X143890712Y-50703033D01*
X143890712Y-50703033D02*
X143843093Y-50798271D01*
X143843093Y-50798271D02*
X143795474Y-50845890D01*
X143795474Y-50845890D02*
X143700236Y-50893509D01*
X143700236Y-50893509D02*
X143366903Y-50893509D01*
X144843093Y-50417319D02*
X144366903Y-50417319D01*
X144366903Y-50417319D02*
X144319284Y-50893509D01*
X144319284Y-50893509D02*
X144366903Y-50845890D01*
X144366903Y-50845890D02*
X144462141Y-50798271D01*
X144462141Y-50798271D02*
X144700236Y-50798271D01*
X144700236Y-50798271D02*
X144795474Y-50845890D01*
X144795474Y-50845890D02*
X144843093Y-50893509D01*
X144843093Y-50893509D02*
X144890712Y-50988747D01*
X144890712Y-50988747D02*
X144890712Y-51226842D01*
X144890712Y-51226842D02*
X144843093Y-51322080D01*
X144843093Y-51322080D02*
X144795474Y-51369700D01*
X144795474Y-51369700D02*
X144700236Y-51417319D01*
X144700236Y-51417319D02*
X144462141Y-51417319D01*
X144462141Y-51417319D02*
X144366903Y-51369700D01*
X144366903Y-51369700D02*
X144319284Y-51322080D01*
X145795474Y-50417319D02*
X145319284Y-50417319D01*
X145319284Y-50417319D02*
X145271665Y-50893509D01*
X145271665Y-50893509D02*
X145319284Y-50845890D01*
X145319284Y-50845890D02*
X145414522Y-50798271D01*
X145414522Y-50798271D02*
X145652617Y-50798271D01*
X145652617Y-50798271D02*
X145747855Y-50845890D01*
X145747855Y-50845890D02*
X145795474Y-50893509D01*
X145795474Y-50893509D02*
X145843093Y-50988747D01*
X145843093Y-50988747D02*
X145843093Y-51226842D01*
X145843093Y-51226842D02*
X145795474Y-51322080D01*
X145795474Y-51322080D02*
X145747855Y-51369700D01*
X145747855Y-51369700D02*
X145652617Y-51417319D01*
X145652617Y-51417319D02*
X145414522Y-51417319D01*
X145414522Y-51417319D02*
X145319284Y-51369700D01*
X145319284Y-51369700D02*
X145271665Y-51322080D01*
X-810073Y-155133719D02*
X-810073Y-154133719D01*
X-810073Y-154133719D02*
X-476740Y-154848004D01*
X-476740Y-154848004D02*
X-143407Y-154133719D01*
X-143407Y-154133719D02*
X-143407Y-155133719D01*
X666116Y-154609909D02*
X808973Y-154657528D01*
X808973Y-154657528D02*
X856592Y-154705147D01*
X856592Y-154705147D02*
X904211Y-154800385D01*
X904211Y-154800385D02*
X904211Y-154943242D01*
X904211Y-154943242D02*
X856592Y-155038480D01*
X856592Y-155038480D02*
X808973Y-155086100D01*
X808973Y-155086100D02*
X713735Y-155133719D01*
X713735Y-155133719D02*
X332783Y-155133719D01*
X332783Y-155133719D02*
X332783Y-154133719D01*
X332783Y-154133719D02*
X666116Y-154133719D01*
X666116Y-154133719D02*
X761354Y-154181338D01*
X761354Y-154181338D02*
X808973Y-154228957D01*
X808973Y-154228957D02*
X856592Y-154324195D01*
X856592Y-154324195D02*
X856592Y-154419433D01*
X856592Y-154419433D02*
X808973Y-154514671D01*
X808973Y-154514671D02*
X761354Y-154562290D01*
X761354Y-154562290D02*
X666116Y-154609909D01*
X666116Y-154609909D02*
X332783Y-154609909D01*
X1808973Y-154133719D02*
X1332783Y-154133719D01*
X1332783Y-154133719D02*
X1285164Y-154609909D01*
X1285164Y-154609909D02*
X1332783Y-154562290D01*
X1332783Y-154562290D02*
X1428021Y-154514671D01*
X1428021Y-154514671D02*
X1666116Y-154514671D01*
X1666116Y-154514671D02*
X1761354Y-154562290D01*
X1761354Y-154562290D02*
X1808973Y-154609909D01*
X1808973Y-154609909D02*
X1856592Y-154705147D01*
X1856592Y-154705147D02*
X1856592Y-154943242D01*
X1856592Y-154943242D02*
X1808973Y-155038480D01*
X1808973Y-155038480D02*
X1761354Y-155086100D01*
X1761354Y-155086100D02*
X1666116Y-155133719D01*
X1666116Y-155133719D02*
X1428021Y-155133719D01*
X1428021Y-155133719D02*
X1332783Y-155086100D01*
X1332783Y-155086100D02*
X1285164Y-155038480D01*
X2713735Y-154133719D02*
X2523259Y-154133719D01*
X2523259Y-154133719D02*
X2428021Y-154181338D01*
X2428021Y-154181338D02*
X2380402Y-154228957D01*
X2380402Y-154228957D02*
X2285164Y-154371814D01*
X2285164Y-154371814D02*
X2237545Y-154562290D01*
X2237545Y-154562290D02*
X2237545Y-154943242D01*
X2237545Y-154943242D02*
X2285164Y-155038480D01*
X2285164Y-155038480D02*
X2332783Y-155086100D01*
X2332783Y-155086100D02*
X2428021Y-155133719D01*
X2428021Y-155133719D02*
X2618497Y-155133719D01*
X2618497Y-155133719D02*
X2713735Y-155086100D01*
X2713735Y-155086100D02*
X2761354Y-155038480D01*
X2761354Y-155038480D02*
X2808973Y-154943242D01*
X2808973Y-154943242D02*
X2808973Y-154705147D01*
X2808973Y-154705147D02*
X2761354Y-154609909D01*
X2761354Y-154609909D02*
X2713735Y-154562290D01*
X2713735Y-154562290D02*
X2618497Y-154514671D01*
X2618497Y-154514671D02*
X2428021Y-154514671D01*
X2428021Y-154514671D02*
X2332783Y-154562290D01*
X2332783Y-154562290D02*
X2285164Y-154609909D01*
X2285164Y-154609909D02*
X2237545Y-154705147D01*
X-810073Y-155883719D02*
X-810073Y-154883719D01*
X-810073Y-154883719D02*
X-476740Y-155598004D01*
X-476740Y-155598004D02*
X-143407Y-154883719D01*
X-143407Y-154883719D02*
X-143407Y-155883719D01*
X666116Y-155359909D02*
X808973Y-155407528D01*
X808973Y-155407528D02*
X856592Y-155455147D01*
X856592Y-155455147D02*
X904211Y-155550385D01*
X904211Y-155550385D02*
X904211Y-155693242D01*
X904211Y-155693242D02*
X856592Y-155788480D01*
X856592Y-155788480D02*
X808973Y-155836100D01*
X808973Y-155836100D02*
X713735Y-155883719D01*
X713735Y-155883719D02*
X332783Y-155883719D01*
X332783Y-155883719D02*
X332783Y-154883719D01*
X332783Y-154883719D02*
X666116Y-154883719D01*
X666116Y-154883719D02*
X761354Y-154931338D01*
X761354Y-154931338D02*
X808973Y-154978957D01*
X808973Y-154978957D02*
X856592Y-155074195D01*
X856592Y-155074195D02*
X856592Y-155169433D01*
X856592Y-155169433D02*
X808973Y-155264671D01*
X808973Y-155264671D02*
X761354Y-155312290D01*
X761354Y-155312290D02*
X666116Y-155359909D01*
X666116Y-155359909D02*
X332783Y-155359909D01*
X1808973Y-154883719D02*
X1332783Y-154883719D01*
X1332783Y-154883719D02*
X1285164Y-155359909D01*
X1285164Y-155359909D02*
X1332783Y-155312290D01*
X1332783Y-155312290D02*
X1428021Y-155264671D01*
X1428021Y-155264671D02*
X1666116Y-155264671D01*
X1666116Y-155264671D02*
X1761354Y-155312290D01*
X1761354Y-155312290D02*
X1808973Y-155359909D01*
X1808973Y-155359909D02*
X1856592Y-155455147D01*
X1856592Y-155455147D02*
X1856592Y-155693242D01*
X1856592Y-155693242D02*
X1808973Y-155788480D01*
X1808973Y-155788480D02*
X1761354Y-155836100D01*
X1761354Y-155836100D02*
X1666116Y-155883719D01*
X1666116Y-155883719D02*
X1428021Y-155883719D01*
X1428021Y-155883719D02*
X1332783Y-155836100D01*
X1332783Y-155836100D02*
X1285164Y-155788480D01*
X2189926Y-154883719D02*
X2856592Y-154883719D01*
X2856592Y-154883719D02*
X2428021Y-155883719D01*
X-810073Y-156633719D02*
X-810073Y-155633719D01*
X-810073Y-155633719D02*
X-476740Y-156348004D01*
X-476740Y-156348004D02*
X-143407Y-155633719D01*
X-143407Y-155633719D02*
X-143407Y-156633719D01*
X666116Y-156109909D02*
X808973Y-156157528D01*
X808973Y-156157528D02*
X856592Y-156205147D01*
X856592Y-156205147D02*
X904211Y-156300385D01*
X904211Y-156300385D02*
X904211Y-156443242D01*
X904211Y-156443242D02*
X856592Y-156538480D01*
X856592Y-156538480D02*
X808973Y-156586100D01*
X808973Y-156586100D02*
X713735Y-156633719D01*
X713735Y-156633719D02*
X332783Y-156633719D01*
X332783Y-156633719D02*
X332783Y-155633719D01*
X332783Y-155633719D02*
X666116Y-155633719D01*
X666116Y-155633719D02*
X761354Y-155681338D01*
X761354Y-155681338D02*
X808973Y-155728957D01*
X808973Y-155728957D02*
X856592Y-155824195D01*
X856592Y-155824195D02*
X856592Y-155919433D01*
X856592Y-155919433D02*
X808973Y-156014671D01*
X808973Y-156014671D02*
X761354Y-156062290D01*
X761354Y-156062290D02*
X666116Y-156109909D01*
X666116Y-156109909D02*
X332783Y-156109909D01*
X1808973Y-155633719D02*
X1332783Y-155633719D01*
X1332783Y-155633719D02*
X1285164Y-156109909D01*
X1285164Y-156109909D02*
X1332783Y-156062290D01*
X1332783Y-156062290D02*
X1428021Y-156014671D01*
X1428021Y-156014671D02*
X1666116Y-156014671D01*
X1666116Y-156014671D02*
X1761354Y-156062290D01*
X1761354Y-156062290D02*
X1808973Y-156109909D01*
X1808973Y-156109909D02*
X1856592Y-156205147D01*
X1856592Y-156205147D02*
X1856592Y-156443242D01*
X1856592Y-156443242D02*
X1808973Y-156538480D01*
X1808973Y-156538480D02*
X1761354Y-156586100D01*
X1761354Y-156586100D02*
X1666116Y-156633719D01*
X1666116Y-156633719D02*
X1428021Y-156633719D01*
X1428021Y-156633719D02*
X1332783Y-156586100D01*
X1332783Y-156586100D02*
X1285164Y-156538480D01*
X2428021Y-156062290D02*
X2332783Y-156014671D01*
X2332783Y-156014671D02*
X2285164Y-155967052D01*
X2285164Y-155967052D02*
X2237545Y-155871814D01*
X2237545Y-155871814D02*
X2237545Y-155824195D01*
X2237545Y-155824195D02*
X2285164Y-155728957D01*
X2285164Y-155728957D02*
X2332783Y-155681338D01*
X2332783Y-155681338D02*
X2428021Y-155633719D01*
X2428021Y-155633719D02*
X2618497Y-155633719D01*
X2618497Y-155633719D02*
X2713735Y-155681338D01*
X2713735Y-155681338D02*
X2761354Y-155728957D01*
X2761354Y-155728957D02*
X2808973Y-155824195D01*
X2808973Y-155824195D02*
X2808973Y-155871814D01*
X2808973Y-155871814D02*
X2761354Y-155967052D01*
X2761354Y-155967052D02*
X2713735Y-156014671D01*
X2713735Y-156014671D02*
X2618497Y-156062290D01*
X2618497Y-156062290D02*
X2428021Y-156062290D01*
X2428021Y-156062290D02*
X2332783Y-156109909D01*
X2332783Y-156109909D02*
X2285164Y-156157528D01*
X2285164Y-156157528D02*
X2237545Y-156252766D01*
X2237545Y-156252766D02*
X2237545Y-156443242D01*
X2237545Y-156443242D02*
X2285164Y-156538480D01*
X2285164Y-156538480D02*
X2332783Y-156586100D01*
X2332783Y-156586100D02*
X2428021Y-156633719D01*
X2428021Y-156633719D02*
X2618497Y-156633719D01*
X2618497Y-156633719D02*
X2713735Y-156586100D01*
X2713735Y-156586100D02*
X2761354Y-156538480D01*
X2761354Y-156538480D02*
X2808973Y-156443242D01*
X2808973Y-156443242D02*
X2808973Y-156252766D01*
X2808973Y-156252766D02*
X2761354Y-156157528D01*
X2761354Y-156157528D02*
X2713735Y-156109909D01*
X2713735Y-156109909D02*
X2618497Y-156062290D01*
X-810073Y-157383719D02*
X-810073Y-156383719D01*
X-810073Y-156383719D02*
X-476740Y-157098004D01*
X-476740Y-157098004D02*
X-143407Y-156383719D01*
X-143407Y-156383719D02*
X-143407Y-157383719D01*
X666116Y-156859909D02*
X808973Y-156907528D01*
X808973Y-156907528D02*
X856592Y-156955147D01*
X856592Y-156955147D02*
X904211Y-157050385D01*
X904211Y-157050385D02*
X904211Y-157193242D01*
X904211Y-157193242D02*
X856592Y-157288480D01*
X856592Y-157288480D02*
X808973Y-157336100D01*
X808973Y-157336100D02*
X713735Y-157383719D01*
X713735Y-157383719D02*
X332783Y-157383719D01*
X332783Y-157383719D02*
X332783Y-156383719D01*
X332783Y-156383719D02*
X666116Y-156383719D01*
X666116Y-156383719D02*
X761354Y-156431338D01*
X761354Y-156431338D02*
X808973Y-156478957D01*
X808973Y-156478957D02*
X856592Y-156574195D01*
X856592Y-156574195D02*
X856592Y-156669433D01*
X856592Y-156669433D02*
X808973Y-156764671D01*
X808973Y-156764671D02*
X761354Y-156812290D01*
X761354Y-156812290D02*
X666116Y-156859909D01*
X666116Y-156859909D02*
X332783Y-156859909D01*
X1808973Y-156383719D02*
X1332783Y-156383719D01*
X1332783Y-156383719D02*
X1285164Y-156859909D01*
X1285164Y-156859909D02*
X1332783Y-156812290D01*
X1332783Y-156812290D02*
X1428021Y-156764671D01*
X1428021Y-156764671D02*
X1666116Y-156764671D01*
X1666116Y-156764671D02*
X1761354Y-156812290D01*
X1761354Y-156812290D02*
X1808973Y-156859909D01*
X1808973Y-156859909D02*
X1856592Y-156955147D01*
X1856592Y-156955147D02*
X1856592Y-157193242D01*
X1856592Y-157193242D02*
X1808973Y-157288480D01*
X1808973Y-157288480D02*
X1761354Y-157336100D01*
X1761354Y-157336100D02*
X1666116Y-157383719D01*
X1666116Y-157383719D02*
X1428021Y-157383719D01*
X1428021Y-157383719D02*
X1332783Y-157336100D01*
X1332783Y-157336100D02*
X1285164Y-157288480D01*
X2332783Y-157383719D02*
X2523259Y-157383719D01*
X2523259Y-157383719D02*
X2618497Y-157336100D01*
X2618497Y-157336100D02*
X2666116Y-157288480D01*
X2666116Y-157288480D02*
X2761354Y-157145623D01*
X2761354Y-157145623D02*
X2808973Y-156955147D01*
X2808973Y-156955147D02*
X2808973Y-156574195D01*
X2808973Y-156574195D02*
X2761354Y-156478957D01*
X2761354Y-156478957D02*
X2713735Y-156431338D01*
X2713735Y-156431338D02*
X2618497Y-156383719D01*
X2618497Y-156383719D02*
X2428021Y-156383719D01*
X2428021Y-156383719D02*
X2332783Y-156431338D01*
X2332783Y-156431338D02*
X2285164Y-156478957D01*
X2285164Y-156478957D02*
X2237545Y-156574195D01*
X2237545Y-156574195D02*
X2237545Y-156812290D01*
X2237545Y-156812290D02*
X2285164Y-156907528D01*
X2285164Y-156907528D02*
X2332783Y-156955147D01*
X2332783Y-156955147D02*
X2428021Y-157002766D01*
X2428021Y-157002766D02*
X2618497Y-157002766D01*
X2618497Y-157002766D02*
X2713735Y-156955147D01*
X2713735Y-156955147D02*
X2761354Y-156907528D01*
X2761354Y-156907528D02*
X2808973Y-156812290D01*
X-810073Y-158133719D02*
X-810073Y-157133719D01*
X-810073Y-157133719D02*
X-476740Y-157848004D01*
X-476740Y-157848004D02*
X-143407Y-157133719D01*
X-143407Y-157133719D02*
X-143407Y-158133719D01*
X666116Y-157609909D02*
X808973Y-157657528D01*
X808973Y-157657528D02*
X856592Y-157705147D01*
X856592Y-157705147D02*
X904211Y-157800385D01*
X904211Y-157800385D02*
X904211Y-157943242D01*
X904211Y-157943242D02*
X856592Y-158038480D01*
X856592Y-158038480D02*
X808973Y-158086100D01*
X808973Y-158086100D02*
X713735Y-158133719D01*
X713735Y-158133719D02*
X332783Y-158133719D01*
X332783Y-158133719D02*
X332783Y-157133719D01*
X332783Y-157133719D02*
X666116Y-157133719D01*
X666116Y-157133719D02*
X761354Y-157181338D01*
X761354Y-157181338D02*
X808973Y-157228957D01*
X808973Y-157228957D02*
X856592Y-157324195D01*
X856592Y-157324195D02*
X856592Y-157419433D01*
X856592Y-157419433D02*
X808973Y-157514671D01*
X808973Y-157514671D02*
X761354Y-157562290D01*
X761354Y-157562290D02*
X666116Y-157609909D01*
X666116Y-157609909D02*
X332783Y-157609909D01*
X1761354Y-157133719D02*
X1570878Y-157133719D01*
X1570878Y-157133719D02*
X1475640Y-157181338D01*
X1475640Y-157181338D02*
X1428021Y-157228957D01*
X1428021Y-157228957D02*
X1332783Y-157371814D01*
X1332783Y-157371814D02*
X1285164Y-157562290D01*
X1285164Y-157562290D02*
X1285164Y-157943242D01*
X1285164Y-157943242D02*
X1332783Y-158038480D01*
X1332783Y-158038480D02*
X1380402Y-158086100D01*
X1380402Y-158086100D02*
X1475640Y-158133719D01*
X1475640Y-158133719D02*
X1666116Y-158133719D01*
X1666116Y-158133719D02*
X1761354Y-158086100D01*
X1761354Y-158086100D02*
X1808973Y-158038480D01*
X1808973Y-158038480D02*
X1856592Y-157943242D01*
X1856592Y-157943242D02*
X1856592Y-157705147D01*
X1856592Y-157705147D02*
X1808973Y-157609909D01*
X1808973Y-157609909D02*
X1761354Y-157562290D01*
X1761354Y-157562290D02*
X1666116Y-157514671D01*
X1666116Y-157514671D02*
X1475640Y-157514671D01*
X1475640Y-157514671D02*
X1380402Y-157562290D01*
X1380402Y-157562290D02*
X1332783Y-157609909D01*
X1332783Y-157609909D02*
X1285164Y-157705147D01*
X2475640Y-157133719D02*
X2570878Y-157133719D01*
X2570878Y-157133719D02*
X2666116Y-157181338D01*
X2666116Y-157181338D02*
X2713735Y-157228957D01*
X2713735Y-157228957D02*
X2761354Y-157324195D01*
X2761354Y-157324195D02*
X2808973Y-157514671D01*
X2808973Y-157514671D02*
X2808973Y-157752766D01*
X2808973Y-157752766D02*
X2761354Y-157943242D01*
X2761354Y-157943242D02*
X2713735Y-158038480D01*
X2713735Y-158038480D02*
X2666116Y-158086100D01*
X2666116Y-158086100D02*
X2570878Y-158133719D01*
X2570878Y-158133719D02*
X2475640Y-158133719D01*
X2475640Y-158133719D02*
X2380402Y-158086100D01*
X2380402Y-158086100D02*
X2332783Y-158038480D01*
X2332783Y-158038480D02*
X2285164Y-157943242D01*
X2285164Y-157943242D02*
X2237545Y-157752766D01*
X2237545Y-157752766D02*
X2237545Y-157514671D01*
X2237545Y-157514671D02*
X2285164Y-157324195D01*
X2285164Y-157324195D02*
X2332783Y-157228957D01*
X2332783Y-157228957D02*
X2380402Y-157181338D01*
X2380402Y-157181338D02*
X2475640Y-157133719D01*
X143652536Y-155133719D02*
X143652536Y-154133719D01*
X143652536Y-154133719D02*
X143985869Y-154848004D01*
X143985869Y-154848004D02*
X144319202Y-154133719D01*
X144319202Y-154133719D02*
X144319202Y-155133719D01*
X145128726Y-154609909D02*
X145271583Y-154657528D01*
X145271583Y-154657528D02*
X145319202Y-154705147D01*
X145319202Y-154705147D02*
X145366821Y-154800385D01*
X145366821Y-154800385D02*
X145366821Y-154943242D01*
X145366821Y-154943242D02*
X145319202Y-155038480D01*
X145319202Y-155038480D02*
X145271583Y-155086100D01*
X145271583Y-155086100D02*
X145176345Y-155133719D01*
X145176345Y-155133719D02*
X144795393Y-155133719D01*
X144795393Y-155133719D02*
X144795393Y-154133719D01*
X144795393Y-154133719D02*
X145128726Y-154133719D01*
X145128726Y-154133719D02*
X145223964Y-154181338D01*
X145223964Y-154181338D02*
X145271583Y-154228957D01*
X145271583Y-154228957D02*
X145319202Y-154324195D01*
X145319202Y-154324195D02*
X145319202Y-154419433D01*
X145319202Y-154419433D02*
X145271583Y-154514671D01*
X145271583Y-154514671D02*
X145223964Y-154562290D01*
X145223964Y-154562290D02*
X145128726Y-154609909D01*
X145128726Y-154609909D02*
X144795393Y-154609909D01*
X146223964Y-154133719D02*
X146033488Y-154133719D01*
X146033488Y-154133719D02*
X145938250Y-154181338D01*
X145938250Y-154181338D02*
X145890631Y-154228957D01*
X145890631Y-154228957D02*
X145795393Y-154371814D01*
X145795393Y-154371814D02*
X145747774Y-154562290D01*
X145747774Y-154562290D02*
X145747774Y-154943242D01*
X145747774Y-154943242D02*
X145795393Y-155038480D01*
X145795393Y-155038480D02*
X145843012Y-155086100D01*
X145843012Y-155086100D02*
X145938250Y-155133719D01*
X145938250Y-155133719D02*
X146128726Y-155133719D01*
X146128726Y-155133719D02*
X146223964Y-155086100D01*
X146223964Y-155086100D02*
X146271583Y-155038480D01*
X146271583Y-155038480D02*
X146319202Y-154943242D01*
X146319202Y-154943242D02*
X146319202Y-154705147D01*
X146319202Y-154705147D02*
X146271583Y-154609909D01*
X146271583Y-154609909D02*
X146223964Y-154562290D01*
X146223964Y-154562290D02*
X146128726Y-154514671D01*
X146128726Y-154514671D02*
X145938250Y-154514671D01*
X145938250Y-154514671D02*
X145843012Y-154562290D01*
X145843012Y-154562290D02*
X145795393Y-154609909D01*
X145795393Y-154609909D02*
X145747774Y-154705147D01*
X147271583Y-155133719D02*
X146700155Y-155133719D01*
X146985869Y-155133719D02*
X146985869Y-154133719D01*
X146985869Y-154133719D02*
X146890631Y-154276576D01*
X146890631Y-154276576D02*
X146795393Y-154371814D01*
X146795393Y-154371814D02*
X146700155Y-154419433D01*
X143652536Y-155883719D02*
X143652536Y-154883719D01*
X143652536Y-154883719D02*
X143985869Y-155598004D01*
X143985869Y-155598004D02*
X144319202Y-154883719D01*
X144319202Y-154883719D02*
X144319202Y-155883719D01*
X145128726Y-155359909D02*
X145271583Y-155407528D01*
X145271583Y-155407528D02*
X145319202Y-155455147D01*
X145319202Y-155455147D02*
X145366821Y-155550385D01*
X145366821Y-155550385D02*
X145366821Y-155693242D01*
X145366821Y-155693242D02*
X145319202Y-155788480D01*
X145319202Y-155788480D02*
X145271583Y-155836100D01*
X145271583Y-155836100D02*
X145176345Y-155883719D01*
X145176345Y-155883719D02*
X144795393Y-155883719D01*
X144795393Y-155883719D02*
X144795393Y-154883719D01*
X144795393Y-154883719D02*
X145128726Y-154883719D01*
X145128726Y-154883719D02*
X145223964Y-154931338D01*
X145223964Y-154931338D02*
X145271583Y-154978957D01*
X145271583Y-154978957D02*
X145319202Y-155074195D01*
X145319202Y-155074195D02*
X145319202Y-155169433D01*
X145319202Y-155169433D02*
X145271583Y-155264671D01*
X145271583Y-155264671D02*
X145223964Y-155312290D01*
X145223964Y-155312290D02*
X145128726Y-155359909D01*
X145128726Y-155359909D02*
X144795393Y-155359909D01*
X146223964Y-154883719D02*
X146033488Y-154883719D01*
X146033488Y-154883719D02*
X145938250Y-154931338D01*
X145938250Y-154931338D02*
X145890631Y-154978957D01*
X145890631Y-154978957D02*
X145795393Y-155121814D01*
X145795393Y-155121814D02*
X145747774Y-155312290D01*
X145747774Y-155312290D02*
X145747774Y-155693242D01*
X145747774Y-155693242D02*
X145795393Y-155788480D01*
X145795393Y-155788480D02*
X145843012Y-155836100D01*
X145843012Y-155836100D02*
X145938250Y-155883719D01*
X145938250Y-155883719D02*
X146128726Y-155883719D01*
X146128726Y-155883719D02*
X146223964Y-155836100D01*
X146223964Y-155836100D02*
X146271583Y-155788480D01*
X146271583Y-155788480D02*
X146319202Y-155693242D01*
X146319202Y-155693242D02*
X146319202Y-155455147D01*
X146319202Y-155455147D02*
X146271583Y-155359909D01*
X146271583Y-155359909D02*
X146223964Y-155312290D01*
X146223964Y-155312290D02*
X146128726Y-155264671D01*
X146128726Y-155264671D02*
X145938250Y-155264671D01*
X145938250Y-155264671D02*
X145843012Y-155312290D01*
X145843012Y-155312290D02*
X145795393Y-155359909D01*
X145795393Y-155359909D02*
X145747774Y-155455147D01*
X146700155Y-154978957D02*
X146747774Y-154931338D01*
X146747774Y-154931338D02*
X146843012Y-154883719D01*
X146843012Y-154883719D02*
X147081107Y-154883719D01*
X147081107Y-154883719D02*
X147176345Y-154931338D01*
X147176345Y-154931338D02*
X147223964Y-154978957D01*
X147223964Y-154978957D02*
X147271583Y-155074195D01*
X147271583Y-155074195D02*
X147271583Y-155169433D01*
X147271583Y-155169433D02*
X147223964Y-155312290D01*
X147223964Y-155312290D02*
X146652536Y-155883719D01*
X146652536Y-155883719D02*
X147271583Y-155883719D01*
X143652536Y-156633719D02*
X143652536Y-155633719D01*
X143652536Y-155633719D02*
X143985869Y-156348004D01*
X143985869Y-156348004D02*
X144319202Y-155633719D01*
X144319202Y-155633719D02*
X144319202Y-156633719D01*
X145128726Y-156109909D02*
X145271583Y-156157528D01*
X145271583Y-156157528D02*
X145319202Y-156205147D01*
X145319202Y-156205147D02*
X145366821Y-156300385D01*
X145366821Y-156300385D02*
X145366821Y-156443242D01*
X145366821Y-156443242D02*
X145319202Y-156538480D01*
X145319202Y-156538480D02*
X145271583Y-156586100D01*
X145271583Y-156586100D02*
X145176345Y-156633719D01*
X145176345Y-156633719D02*
X144795393Y-156633719D01*
X144795393Y-156633719D02*
X144795393Y-155633719D01*
X144795393Y-155633719D02*
X145128726Y-155633719D01*
X145128726Y-155633719D02*
X145223964Y-155681338D01*
X145223964Y-155681338D02*
X145271583Y-155728957D01*
X145271583Y-155728957D02*
X145319202Y-155824195D01*
X145319202Y-155824195D02*
X145319202Y-155919433D01*
X145319202Y-155919433D02*
X145271583Y-156014671D01*
X145271583Y-156014671D02*
X145223964Y-156062290D01*
X145223964Y-156062290D02*
X145128726Y-156109909D01*
X145128726Y-156109909D02*
X144795393Y-156109909D01*
X146223964Y-155633719D02*
X146033488Y-155633719D01*
X146033488Y-155633719D02*
X145938250Y-155681338D01*
X145938250Y-155681338D02*
X145890631Y-155728957D01*
X145890631Y-155728957D02*
X145795393Y-155871814D01*
X145795393Y-155871814D02*
X145747774Y-156062290D01*
X145747774Y-156062290D02*
X145747774Y-156443242D01*
X145747774Y-156443242D02*
X145795393Y-156538480D01*
X145795393Y-156538480D02*
X145843012Y-156586100D01*
X145843012Y-156586100D02*
X145938250Y-156633719D01*
X145938250Y-156633719D02*
X146128726Y-156633719D01*
X146128726Y-156633719D02*
X146223964Y-156586100D01*
X146223964Y-156586100D02*
X146271583Y-156538480D01*
X146271583Y-156538480D02*
X146319202Y-156443242D01*
X146319202Y-156443242D02*
X146319202Y-156205147D01*
X146319202Y-156205147D02*
X146271583Y-156109909D01*
X146271583Y-156109909D02*
X146223964Y-156062290D01*
X146223964Y-156062290D02*
X146128726Y-156014671D01*
X146128726Y-156014671D02*
X145938250Y-156014671D01*
X145938250Y-156014671D02*
X145843012Y-156062290D01*
X145843012Y-156062290D02*
X145795393Y-156109909D01*
X145795393Y-156109909D02*
X145747774Y-156205147D01*
X146652536Y-155633719D02*
X147271583Y-155633719D01*
X147271583Y-155633719D02*
X146938250Y-156014671D01*
X146938250Y-156014671D02*
X147081107Y-156014671D01*
X147081107Y-156014671D02*
X147176345Y-156062290D01*
X147176345Y-156062290D02*
X147223964Y-156109909D01*
X147223964Y-156109909D02*
X147271583Y-156205147D01*
X147271583Y-156205147D02*
X147271583Y-156443242D01*
X147271583Y-156443242D02*
X147223964Y-156538480D01*
X147223964Y-156538480D02*
X147176345Y-156586100D01*
X147176345Y-156586100D02*
X147081107Y-156633719D01*
X147081107Y-156633719D02*
X146795393Y-156633719D01*
X146795393Y-156633719D02*
X146700155Y-156586100D01*
X146700155Y-156586100D02*
X146652536Y-156538480D01*
X143652536Y-157383719D02*
X143652536Y-156383719D01*
X143652536Y-156383719D02*
X143985869Y-157098004D01*
X143985869Y-157098004D02*
X144319202Y-156383719D01*
X144319202Y-156383719D02*
X144319202Y-157383719D01*
X145128726Y-156859909D02*
X145271583Y-156907528D01*
X145271583Y-156907528D02*
X145319202Y-156955147D01*
X145319202Y-156955147D02*
X145366821Y-157050385D01*
X145366821Y-157050385D02*
X145366821Y-157193242D01*
X145366821Y-157193242D02*
X145319202Y-157288480D01*
X145319202Y-157288480D02*
X145271583Y-157336100D01*
X145271583Y-157336100D02*
X145176345Y-157383719D01*
X145176345Y-157383719D02*
X144795393Y-157383719D01*
X144795393Y-157383719D02*
X144795393Y-156383719D01*
X144795393Y-156383719D02*
X145128726Y-156383719D01*
X145128726Y-156383719D02*
X145223964Y-156431338D01*
X145223964Y-156431338D02*
X145271583Y-156478957D01*
X145271583Y-156478957D02*
X145319202Y-156574195D01*
X145319202Y-156574195D02*
X145319202Y-156669433D01*
X145319202Y-156669433D02*
X145271583Y-156764671D01*
X145271583Y-156764671D02*
X145223964Y-156812290D01*
X145223964Y-156812290D02*
X145128726Y-156859909D01*
X145128726Y-156859909D02*
X144795393Y-156859909D01*
X146223964Y-156383719D02*
X146033488Y-156383719D01*
X146033488Y-156383719D02*
X145938250Y-156431338D01*
X145938250Y-156431338D02*
X145890631Y-156478957D01*
X145890631Y-156478957D02*
X145795393Y-156621814D01*
X145795393Y-156621814D02*
X145747774Y-156812290D01*
X145747774Y-156812290D02*
X145747774Y-157193242D01*
X145747774Y-157193242D02*
X145795393Y-157288480D01*
X145795393Y-157288480D02*
X145843012Y-157336100D01*
X145843012Y-157336100D02*
X145938250Y-157383719D01*
X145938250Y-157383719D02*
X146128726Y-157383719D01*
X146128726Y-157383719D02*
X146223964Y-157336100D01*
X146223964Y-157336100D02*
X146271583Y-157288480D01*
X146271583Y-157288480D02*
X146319202Y-157193242D01*
X146319202Y-157193242D02*
X146319202Y-156955147D01*
X146319202Y-156955147D02*
X146271583Y-156859909D01*
X146271583Y-156859909D02*
X146223964Y-156812290D01*
X146223964Y-156812290D02*
X146128726Y-156764671D01*
X146128726Y-156764671D02*
X145938250Y-156764671D01*
X145938250Y-156764671D02*
X145843012Y-156812290D01*
X145843012Y-156812290D02*
X145795393Y-156859909D01*
X145795393Y-156859909D02*
X145747774Y-156955147D01*
X147176345Y-156717052D02*
X147176345Y-157383719D01*
X146938250Y-156336100D02*
X146700155Y-157050385D01*
X146700155Y-157050385D02*
X147319202Y-157050385D01*
X143652536Y-158133719D02*
X143652536Y-157133719D01*
X143652536Y-157133719D02*
X143985869Y-157848004D01*
X143985869Y-157848004D02*
X144319202Y-157133719D01*
X144319202Y-157133719D02*
X144319202Y-158133719D01*
X145128726Y-157609909D02*
X145271583Y-157657528D01*
X145271583Y-157657528D02*
X145319202Y-157705147D01*
X145319202Y-157705147D02*
X145366821Y-157800385D01*
X145366821Y-157800385D02*
X145366821Y-157943242D01*
X145366821Y-157943242D02*
X145319202Y-158038480D01*
X145319202Y-158038480D02*
X145271583Y-158086100D01*
X145271583Y-158086100D02*
X145176345Y-158133719D01*
X145176345Y-158133719D02*
X144795393Y-158133719D01*
X144795393Y-158133719D02*
X144795393Y-157133719D01*
X144795393Y-157133719D02*
X145128726Y-157133719D01*
X145128726Y-157133719D02*
X145223964Y-157181338D01*
X145223964Y-157181338D02*
X145271583Y-157228957D01*
X145271583Y-157228957D02*
X145319202Y-157324195D01*
X145319202Y-157324195D02*
X145319202Y-157419433D01*
X145319202Y-157419433D02*
X145271583Y-157514671D01*
X145271583Y-157514671D02*
X145223964Y-157562290D01*
X145223964Y-157562290D02*
X145128726Y-157609909D01*
X145128726Y-157609909D02*
X144795393Y-157609909D01*
X146223964Y-157133719D02*
X146033488Y-157133719D01*
X146033488Y-157133719D02*
X145938250Y-157181338D01*
X145938250Y-157181338D02*
X145890631Y-157228957D01*
X145890631Y-157228957D02*
X145795393Y-157371814D01*
X145795393Y-157371814D02*
X145747774Y-157562290D01*
X145747774Y-157562290D02*
X145747774Y-157943242D01*
X145747774Y-157943242D02*
X145795393Y-158038480D01*
X145795393Y-158038480D02*
X145843012Y-158086100D01*
X145843012Y-158086100D02*
X145938250Y-158133719D01*
X145938250Y-158133719D02*
X146128726Y-158133719D01*
X146128726Y-158133719D02*
X146223964Y-158086100D01*
X146223964Y-158086100D02*
X146271583Y-158038480D01*
X146271583Y-158038480D02*
X146319202Y-157943242D01*
X146319202Y-157943242D02*
X146319202Y-157705147D01*
X146319202Y-157705147D02*
X146271583Y-157609909D01*
X146271583Y-157609909D02*
X146223964Y-157562290D01*
X146223964Y-157562290D02*
X146128726Y-157514671D01*
X146128726Y-157514671D02*
X145938250Y-157514671D01*
X145938250Y-157514671D02*
X145843012Y-157562290D01*
X145843012Y-157562290D02*
X145795393Y-157609909D01*
X145795393Y-157609909D02*
X145747774Y-157705147D01*
X147223964Y-157133719D02*
X146747774Y-157133719D01*
X146747774Y-157133719D02*
X146700155Y-157609909D01*
X146700155Y-157609909D02*
X146747774Y-157562290D01*
X146747774Y-157562290D02*
X146843012Y-157514671D01*
X146843012Y-157514671D02*
X147081107Y-157514671D01*
X147081107Y-157514671D02*
X147176345Y-157562290D01*
X147176345Y-157562290D02*
X147223964Y-157609909D01*
X147223964Y-157609909D02*
X147271583Y-157705147D01*
X147271583Y-157705147D02*
X147271583Y-157943242D01*
X147271583Y-157943242D02*
X147223964Y-158038480D01*
X147223964Y-158038480D02*
X147176345Y-158086100D01*
X147176345Y-158086100D02*
X147081107Y-158133719D01*
X147081107Y-158133719D02*
X146843012Y-158133719D01*
X146843012Y-158133719D02*
X146747774Y-158086100D01*
X146747774Y-158086100D02*
X146700155Y-158038480D01*
%TO.C,L-MHL4*%
D12*
X102400000Y-92000000D02*
G75*
G02*
X97600000Y-92000000I-2400000J0D01*
G01*
X97600000Y-92000000D02*
G75*
G02*
X102400000Y-92000000I2400000J0D01*
G01*
%TO.C,L-MHL3*%
X139400000Y-50000000D02*
G75*
G02*
X134600000Y-50000000I-2400000J0D01*
G01*
X134600000Y-50000000D02*
G75*
G02*
X139400000Y-50000000I2400000J0D01*
G01*
%TO.C,L-MHL1*%
X30400000Y-22000000D02*
G75*
G02*
X25600000Y-22000000I-2400000J0D01*
G01*
X25600000Y-22000000D02*
G75*
G02*
X30400000Y-22000000I2400000J0D01*
G01*
%TO.C,L-MHL2*%
X40400000Y-66000000D02*
G75*
G02*
X35600000Y-66000000I-2400000J0D01*
G01*
X35600000Y-66000000D02*
G75*
G02*
X40400000Y-66000000I2400000J0D01*
G01*
%TO.C,L-JL1*%
D13*
X137209000Y-58000000D02*
X137859000Y-57300000D01*
X137209000Y-58000000D02*
X137859000Y-58700000D01*
X138059000Y-51300000D02*
X138059000Y-64700000D01*
%TO.C,R-MHR3*%
D12*
X117967400Y-127716400D02*
G75*
G02*
X113167400Y-127716400I-2400000J0D01*
G01*
X113167400Y-127716400D02*
G75*
G02*
X117967400Y-127716400I2400000J0D01*
G01*
%TO.C,R-MHR4*%
X143967400Y-150716400D02*
G75*
G02*
X139167400Y-150716400I-2400000J0D01*
G01*
X139167400Y-150716400D02*
G75*
G02*
X143967400Y-150716400I2400000J0D01*
G01*
%TO.C,R-MHR2*%
X48967400Y-198716400D02*
G75*
G02*
X44167400Y-198716400I-2400000J0D01*
G01*
X44167400Y-198716400D02*
G75*
G02*
X48967400Y-198716400I2400000J0D01*
G01*
%TO.C,R-MHR1*%
X11967400Y-155716400D02*
G75*
G02*
X7167400Y-155716400I-2400000J0D01*
G01*
X7167400Y-155716400D02*
G75*
G02*
X11967400Y-155716400I2400000J0D01*
G01*
%TO.C,R-JR1*%
D13*
X8926400Y-171416400D02*
X8926400Y-158016400D01*
X9776400Y-164716400D02*
X9126400Y-164016400D01*
X9776400Y-164716400D02*
X9126400Y-165416400D01*
%TD*%
%LPC*%
D14*
%TO.C,L-SL2*%
X132228970Y-101686551D03*
D15*
X134613031Y-86634181D03*
D14*
X108709641Y-97961455D03*
D15*
X111093702Y-82909085D03*
%TD*%
D14*
%TO.C,L-SL1*%
X6190750Y-59690000D03*
D15*
X6190750Y-74930000D03*
D14*
X30003250Y-59690000D03*
D15*
X30003250Y-74930000D03*
%TD*%
D16*
%TO.C,L-MHL4*%
X100000000Y-92000000D03*
%TD*%
%TO.C,L-MHL3*%
X137000000Y-50000000D03*
%TD*%
%TO.C,L-MHL1*%
X28000000Y-22000000D03*
%TD*%
%TO.C,L-MHL2*%
X38000000Y-66000000D03*
%TD*%
%TO.C,R-MHR3*%
X115567400Y-127716400D03*
%TD*%
D14*
%TO.C,R-SR3*%
X36275659Y-204677955D03*
D15*
X33891598Y-189625585D03*
D14*
X12756330Y-208403051D03*
D15*
X10372269Y-193350681D03*
%TD*%
D16*
%TO.C,R-MHR4*%
X141567400Y-150716400D03*
%TD*%
%TO.C,R-MHR2*%
X46567400Y-198716400D03*
%TD*%
D14*
%TO.C,R-SR2*%
X114982150Y-166406400D03*
D15*
X114982150Y-181646400D03*
D14*
X138794650Y-166406400D03*
D15*
X138794650Y-181646400D03*
%TD*%
D16*
%TO.C,R-MHR1*%
X9567400Y-155716400D03*
%TD*%
D14*
%TO.C,R-SR1*%
X109744150Y-109256400D03*
D15*
X109744150Y-124496400D03*
D14*
X133556650Y-109256400D03*
D15*
X133556650Y-124496400D03*
%TD*%
D17*
%TO.C,MB1*%
X31602020Y-500000D03*
%TD*%
%TO.C,MB2*%
X32352020Y-500000D03*
%TD*%
%TO.C,MB3*%
X33102020Y-500000D03*
%TD*%
%TO.C,MB4*%
X33852020Y-500000D03*
%TD*%
%TO.C,MB5*%
X34602020Y-500000D03*
%TD*%
%TO.C,MB6*%
X31602020Y-103342940D03*
%TD*%
%TO.C,MB7*%
X32352020Y-103342940D03*
%TD*%
%TO.C,MB8*%
X33102020Y-103342940D03*
%TD*%
%TO.C,MB9*%
X33852020Y-103342940D03*
%TD*%
%TO.C,MB10*%
X34602020Y-103342940D03*
%TD*%
%TO.C,MB11*%
X31602020Y-207641970D03*
%TD*%
%TO.C,MB12*%
X32352020Y-207641970D03*
%TD*%
%TO.C,MB13*%
X33102020Y-207641970D03*
%TD*%
%TO.C,MB14*%
X33852020Y-207641970D03*
%TD*%
%TO.C,MB15*%
X34602020Y-207641970D03*
%TD*%
%TO.C,MB16*%
X70992700Y-809140D03*
%TD*%
%TO.C,MB17*%
X71742700Y-809140D03*
%TD*%
%TO.C,MB18*%
X72492700Y-809140D03*
%TD*%
%TO.C,MB19*%
X73242700Y-809140D03*
%TD*%
%TO.C,MB20*%
X73992700Y-809140D03*
%TD*%
%TO.C,MB21*%
X70992700Y-101142440D03*
%TD*%
%TO.C,MB22*%
X71742700Y-101142440D03*
%TD*%
%TO.C,MB23*%
X72492700Y-101142440D03*
%TD*%
%TO.C,MB24*%
X73242700Y-101142440D03*
%TD*%
%TO.C,MB25*%
X73992700Y-101142440D03*
%TD*%
%TO.C,MB26*%
X70992700Y-201475740D03*
%TD*%
%TO.C,MB27*%
X71742700Y-201475740D03*
%TD*%
%TO.C,MB28*%
X72492700Y-201475740D03*
%TD*%
%TO.C,MB29*%
X73242700Y-201475740D03*
%TD*%
%TO.C,MB30*%
X73992700Y-201475740D03*
%TD*%
%TO.C,MB31*%
X104383380Y-4262570D03*
%TD*%
%TO.C,MB32*%
X105133380Y-4262570D03*
%TD*%
%TO.C,MB33*%
X105883380Y-4262570D03*
%TD*%
%TO.C,MB34*%
X106633380Y-4262570D03*
%TD*%
%TO.C,MB35*%
X107383380Y-4262570D03*
%TD*%
%TO.C,MB36*%
X104383380Y-103595830D03*
%TD*%
%TO.C,MB37*%
X105133380Y-103595830D03*
%TD*%
%TO.C,MB38*%
X105883380Y-103595830D03*
%TD*%
%TO.C,MB39*%
X106633380Y-103595830D03*
%TD*%
%TO.C,MB40*%
X107383380Y-103595830D03*
%TD*%
%TO.C,MB41*%
X104383380Y-201471360D03*
%TD*%
%TO.C,MB42*%
X105133380Y-201471360D03*
%TD*%
%TO.C,MB43*%
X105883380Y-201471360D03*
%TD*%
%TO.C,MB44*%
X106633380Y-201471360D03*
%TD*%
%TO.C,MB45*%
X107383380Y-201471360D03*
%TD*%
%TO.C,MB46*%
X-452850Y-51162500D03*
%TD*%
%TO.C,MB47*%
X-452850Y-51912500D03*
%TD*%
%TO.C,MB48*%
X-452850Y-52662500D03*
%TD*%
%TO.C,MB49*%
X-452850Y-53412500D03*
%TD*%
%TO.C,MB50*%
X-452850Y-54162500D03*
%TD*%
%TO.C,MB51*%
X144009760Y-51162500D03*
%TD*%
%TO.C,MB52*%
X144009760Y-51912500D03*
%TD*%
%TO.C,MB53*%
X144009760Y-52662500D03*
%TD*%
%TO.C,MB54*%
X144009760Y-53412500D03*
%TD*%
%TO.C,MB55*%
X144009760Y-54162500D03*
%TD*%
%TO.C,MB56*%
X975640Y-157878900D03*
%TD*%
%TO.C,MB57*%
X975640Y-158628900D03*
%TD*%
%TO.C,MB58*%
X975640Y-159378900D03*
%TD*%
%TO.C,MB59*%
X975640Y-160128900D03*
%TD*%
%TO.C,MB60*%
X975640Y-160878900D03*
%TD*%
%TO.C,MB61*%
X145438250Y-157878900D03*
%TD*%
%TO.C,MB62*%
X145438250Y-158628900D03*
%TD*%
%TO.C,MB63*%
X145438250Y-159378900D03*
%TD*%
%TO.C,MB64*%
X145438250Y-160128900D03*
%TD*%
%TO.C,MB65*%
X145438250Y-160878900D03*
%TD*%
D18*
%TO.C,TH1*%
X-6153000Y-60454140D03*
%TD*%
%TO.C,TH2*%
X151138400Y-60454140D03*
%TD*%
%TO.C,TH3*%
X-6153000Y-151587260D03*
%TD*%
%TO.C,TH4*%
X151138400Y-151587260D03*
%TD*%
%LPD*%
M02*
