%TF.GenerationSoftware,KiCad,Pcbnew,10.0.5*%
%TF.CreationDate,2026-09-21T10:22:50-04:00*%
%TF.ProjectId,Symm60HE-three-key-left-wkl-right-Right,53796d6d-3630-4484-952d-74687265652d,rev?*%
%TF.SameCoordinates,Original*%
%TF.FileFunction,Profile,NP*%
%FSLAX46Y46*%
G04 Gerber Fmt 4.6, Leading zero omitted, Abs format (unit mm)*
G04 Created by KiCad (PCBNEW 10.0.5) date 2026-09-21 10:22:50*
%MOMM*%
%LPD*%
G01*
G04 APERTURE LIST*
%TA.AperFunction,Profile*%
%ADD10C,0.100000*%
%TD*%
%TA.AperFunction,Profile*%
%ADD11C,0.120000*%
%TD*%
G04 APERTURE END LIST*
D10*
X156979600Y-31167300D02*
X157015400Y-30816500D01*
X157015400Y-30816500D02*
X157059600Y-30645600D01*
X157059600Y-30645600D02*
X157120900Y-30480000D01*
X157120900Y-30480000D02*
X157291600Y-30171500D01*
X157291600Y-30171500D02*
X157399400Y-30031700D01*
X157399400Y-30031700D02*
X157654300Y-29788100D01*
X157654300Y-29788100D02*
X157953000Y-29600600D01*
X157953000Y-29600600D02*
X158114900Y-29530300D01*
X158114900Y-29530300D02*
X158455800Y-29440400D01*
X158407900Y-45565700D02*
X156979600Y-31167300D01*
X158409000Y-68750000D02*
X158407900Y-45565700D01*
X158417400Y-68921500D02*
X158409000Y-68750000D01*
X158455800Y-29440400D02*
X165387900Y-28342400D01*
X158484400Y-69258000D02*
X158417400Y-68921500D01*
X158615600Y-69574900D02*
X158484400Y-69258000D01*
X158703900Y-69722200D02*
X158615600Y-69574900D01*
X158921600Y-69987400D02*
X158703900Y-69722200D01*
X159048800Y-70102800D02*
X158921600Y-69987400D01*
X159186800Y-70205100D02*
X159048800Y-70102800D01*
X159489300Y-70366800D02*
X159186800Y-70205100D01*
X159817600Y-70466400D02*
X159489300Y-70366800D01*
X159987500Y-70500000D02*
X159817600Y-70466400D01*
X160810500Y-84939400D02*
X160831900Y-84774300D01*
X160815100Y-85271900D02*
X160810500Y-84939400D01*
X160831900Y-84774300D02*
X160921100Y-84453900D01*
X160921100Y-84453900D02*
X160988200Y-84301500D01*
X160988200Y-84301500D02*
X161069400Y-84156100D01*
X161069400Y-84156100D02*
X161271300Y-83891800D01*
X161271300Y-83891800D02*
X161390200Y-83775300D01*
X161390200Y-83775300D02*
X161658300Y-83578500D01*
X161658300Y-83578500D02*
X161958900Y-83436100D01*
X161958900Y-83436100D02*
X162281000Y-83353100D01*
X162281000Y-83353100D02*
X169374500Y-82229600D01*
X162805500Y-103456400D02*
X160815100Y-85271900D01*
X162879200Y-103802200D02*
X162805500Y-103456400D01*
X163021000Y-104126000D02*
X162879200Y-103802200D01*
X163115700Y-104275600D02*
X163021000Y-104126000D01*
X163347700Y-104542300D02*
X163115700Y-104275600D01*
X163628600Y-104756900D02*
X163347700Y-104542300D01*
X163947000Y-104910600D02*
X163628600Y-104756900D01*
X164116100Y-104962600D02*
X163947000Y-104910600D01*
X164436400Y-10957000D02*
X164449900Y-10614300D01*
X164449900Y-10614300D02*
X164529900Y-10280800D01*
X164454900Y-11127700D02*
X164436400Y-10957000D01*
X164465900Y-105014200D02*
X164116100Y-104962600D01*
X164529900Y-10280800D02*
X164673500Y-9969300D01*
X164673500Y-9969300D02*
X164875000Y-9691800D01*
X164679000Y-105020700D02*
X164465900Y-105014200D01*
X164875000Y-9691800D02*
X165126800Y-9458900D01*
X165126800Y-9458900D02*
X165419200Y-9279600D01*
X165387900Y-28342400D02*
X165618200Y-28291000D01*
X165419200Y-9279600D02*
X165577100Y-9212300D01*
X165577100Y-9212300D02*
X165909000Y-9125600D01*
X165618200Y-28291000D02*
X165936800Y-28164600D01*
X165909000Y-9125600D02*
X200810500Y-3583600D01*
X165936800Y-28164600D02*
X166085200Y-28078500D01*
X166085200Y-28078500D02*
X166290300Y-27923300D01*
X166290300Y-27923300D02*
X166413400Y-27803700D01*
X166413400Y-27803700D02*
X166574700Y-27603300D01*
X166574700Y-27603300D02*
X166665000Y-27457400D01*
X166665000Y-27457400D02*
X166772700Y-27223800D01*
X166772700Y-27223800D02*
X166825000Y-27060400D01*
X166825000Y-27060400D02*
X166872700Y-26807600D01*
X166860500Y-26315600D02*
X164454900Y-11127700D01*
X166872700Y-26807600D02*
X166882800Y-26550500D01*
X166882800Y-26550500D02*
X166860500Y-26315600D01*
X169052500Y-70500000D02*
X159987500Y-70500000D01*
X169288000Y-70514700D02*
X169052500Y-70500000D01*
X169374500Y-82229600D02*
X169729400Y-82126200D01*
X169457000Y-70544100D02*
X169288000Y-70514700D01*
X169703200Y-70618700D02*
X169457000Y-70544100D01*
X169729400Y-82126200D02*
X169966500Y-82008700D01*
X169935800Y-70728700D02*
X169703200Y-70618700D01*
X169966500Y-82008700D02*
X170249900Y-81799100D01*
X170149600Y-70871600D02*
X169935800Y-70728700D01*
X170249900Y-81799100D02*
X170431600Y-81606900D01*
X170397900Y-71108000D02*
X170149600Y-70871600D01*
X170431600Y-81606900D02*
X170625000Y-81312200D01*
X170551100Y-71314600D02*
X170397900Y-71108000D01*
X170625000Y-81312200D02*
X170729000Y-81068900D01*
X170672400Y-71541500D02*
X170551100Y-71314600D01*
X170729000Y-81068900D02*
X170795100Y-80812700D01*
X170779900Y-71866900D02*
X170672400Y-71541500D01*
X170795100Y-80812700D02*
X170822800Y-80527400D01*
X170817600Y-72121400D02*
X170779900Y-71866900D01*
X170822800Y-80527400D02*
X170817600Y-72121400D01*
X200810500Y-3583600D02*
X221990300Y-1225000D01*
X221990300Y-1225000D02*
X239558100Y-304300D01*
X229466300Y-94759400D02*
X164679000Y-105020700D01*
X239558100Y-304300D02*
X239901600Y-320200D01*
X239901600Y-320200D02*
X240507300Y-473000D01*
X240507300Y-473000D02*
X240825600Y-500000D01*
X240825600Y-500000D02*
X298263000Y-500000D01*
X298263000Y-500000D02*
X298434500Y-508400D01*
X298434500Y-508400D02*
X298771000Y-575400D01*
X298771000Y-575400D02*
X298932700Y-633200D01*
X298932700Y-633200D02*
X299235200Y-794900D01*
X299235200Y-794900D02*
X299500400Y-1012600D01*
X299500400Y-1012600D02*
X299615800Y-1139800D01*
X299615800Y-1139800D02*
X299806400Y-1425100D01*
X299806400Y-1425100D02*
X299937600Y-1742000D01*
X299937600Y-1742000D02*
X299979400Y-1908600D01*
X299979400Y-1908600D02*
X300013000Y-2250000D01*
X300013000Y-2250000D02*
X300019300Y-17928600D01*
X300019300Y-17928600D02*
X300040300Y-18098900D01*
X300040300Y-18098900D02*
X300102800Y-18348400D01*
X300102800Y-18348400D02*
X300201300Y-18586100D01*
X300201300Y-18586100D02*
X300333500Y-18806800D01*
X300333500Y-18806800D02*
X300439100Y-18942000D01*
X300439100Y-18942000D02*
X300621000Y-19123900D01*
X300621000Y-19123900D02*
X300827600Y-19277200D01*
X300827600Y-19277200D02*
X301139700Y-19458300D01*
X301121000Y-94750000D02*
X229466300Y-94759400D01*
X301139700Y-19458300D02*
X301277700Y-19560600D01*
X301277700Y-19560600D02*
X301520300Y-19803200D01*
X301462400Y-94716400D02*
X301121000Y-94750000D01*
X301520300Y-19803200D02*
X301710900Y-20088500D01*
X301710900Y-20088500D02*
X301784300Y-20243700D01*
X301784300Y-20243700D02*
X301842100Y-20405400D01*
X301790700Y-94616800D02*
X301462400Y-94716400D01*
X301842100Y-20405400D02*
X301909100Y-20741900D01*
X301909100Y-20741900D02*
X301923300Y-37166600D01*
X301923300Y-37166600D02*
X301977200Y-37490700D01*
X301977200Y-37490700D02*
X302090700Y-37799000D01*
X302090700Y-37799000D02*
X302259900Y-38080600D01*
X302093200Y-94455100D02*
X301790700Y-94616800D01*
X302259900Y-38080600D02*
X302504800Y-38370300D01*
X302358400Y-94237400D02*
X302093200Y-94455100D01*
X302504800Y-38370300D02*
X302599200Y-38505100D01*
X302576100Y-93972200D02*
X302358400Y-94237400D01*
X302599200Y-38505100D02*
X302748300Y-38798200D01*
X302737800Y-93669700D02*
X302576100Y-93972200D01*
X302748300Y-38798200D02*
X302839900Y-39114000D01*
X302837400Y-93341400D02*
X302737800Y-93669700D01*
X302839900Y-39114000D02*
X302870800Y-39441300D01*
X302870800Y-39441300D02*
X302871000Y-93000000D01*
X302871000Y-93000000D02*
X302837400Y-93341400D01*
%TO.C,DR32*%
D11*
X178775307Y-85642702D02*
X178665747Y-84950971D01*
X178775307Y-85642702D02*
X178884866Y-86334432D01*
X180219725Y-83895230D02*
X179330457Y-84036077D01*
X180219725Y-83895230D02*
X181108993Y-83754384D01*
X180689029Y-86858296D02*
X179799761Y-86999142D01*
X180689029Y-86858296D02*
X181578297Y-86717449D01*
X182133447Y-85110824D02*
X182023888Y-84419094D01*
X182133447Y-85110824D02*
X182243007Y-85802555D01*
X178597903Y-84803466D02*
G75*
G02*
X178665747Y-84950971I-228477J-194442D01*
G01*
X178597903Y-84803466D02*
G75*
G02*
X179169207Y-84017135I380769J324059D01*
G01*
X178884866Y-86334432D02*
G75*
G02*
X178865924Y-86495683I-296298J-46932D01*
G01*
X179330457Y-84036077D02*
G75*
G02*
X179169207Y-84017135I-46932J296298D01*
G01*
X179652256Y-87066986D02*
G75*
G02*
X178865924Y-86495683I-324059J380769D01*
G01*
X179652256Y-87066986D02*
G75*
G02*
X179799761Y-86999142I194444J-228484D01*
G01*
X181256498Y-83686540D02*
G75*
G02*
X181108993Y-83754382I-194426J228453D01*
G01*
X181256498Y-83686540D02*
G75*
G02*
X182042830Y-84257843I324060J-380768D01*
G01*
X181578297Y-86717449D02*
G75*
G02*
X181739547Y-86736390I46930J-296327D01*
G01*
X182023888Y-84419094D02*
G75*
G02*
X182042830Y-84257843I295987J46968D01*
G01*
X182310851Y-85950060D02*
G75*
G02*
X181739547Y-86736392I-380768J-324060D01*
G01*
X182310851Y-85950060D02*
G75*
G02*
X182243031Y-85802551I228469J194389D01*
G01*
%TO.C,DR29*%
X256427000Y-78125000D02*
X256427000Y-77424647D01*
X256427000Y-78125000D02*
X256427000Y-78825353D01*
X258127000Y-76625000D02*
X257226647Y-76625000D01*
X258127000Y-76625000D02*
X259027353Y-76625000D01*
X258127000Y-79625000D02*
X257226647Y-79625000D01*
X258127000Y-79625000D02*
X259027353Y-79625000D01*
X259827000Y-78125000D02*
X259827000Y-77424647D01*
X259827000Y-78125000D02*
X259827000Y-78825353D01*
X256383066Y-77268345D02*
G75*
G02*
X256427000Y-77424647I-256058J-156299D01*
G01*
X256383066Y-77268345D02*
G75*
G02*
X257070345Y-76581066I426776J260503D01*
G01*
X256427000Y-78825353D02*
G75*
G02*
X256383066Y-78981655I-299992J-3D01*
G01*
X257070345Y-79668934D02*
G75*
G02*
X256383066Y-78981655I-260503J426776D01*
G01*
X257070345Y-79668934D02*
G75*
G02*
X257226647Y-79625000I156299J-256058D01*
G01*
X257226647Y-76625000D02*
G75*
G02*
X257070345Y-76581066I-3J299992D01*
G01*
X259027353Y-79625000D02*
G75*
G02*
X259183656Y-79668933I-3J-300020D01*
G01*
X259183655Y-76581066D02*
G75*
G02*
X259027353Y-76624976I-156255J256066D01*
G01*
X259183655Y-76581066D02*
G75*
G02*
X259870934Y-77268345I260505J-426774D01*
G01*
X259827000Y-77424647D02*
G75*
G02*
X259870935Y-77268346I299680J87D01*
G01*
X259870934Y-78981655D02*
G75*
G02*
X259183655Y-79668934I-426774J-260505D01*
G01*
X259870934Y-78981655D02*
G75*
G02*
X259827024Y-78825353I256066J156255D01*
G01*
%TO.C,DR16*%
X235767030Y-40337171D02*
X235730376Y-39637778D01*
X235767030Y-40337171D02*
X235803683Y-41036564D01*
X237386196Y-38750256D02*
X236487077Y-38797377D01*
X237386196Y-38750256D02*
X238285315Y-38703135D01*
X237543204Y-41746144D02*
X236644085Y-41793265D01*
X237543204Y-41746144D02*
X238442323Y-41699023D01*
X239162370Y-40159229D02*
X239125717Y-39459836D01*
X239162370Y-40159229D02*
X239199024Y-40858622D01*
X235678322Y-39483989D02*
G75*
G02*
X235730376Y-39637778I-247527J-169486D01*
G01*
X235678322Y-39483989D02*
G75*
G02*
X236328690Y-38761683I412558J282481D01*
G01*
X235803683Y-41036564D02*
G75*
G02*
X235767990Y-41194951I-299587J-15702D01*
G01*
X236487077Y-38797377D02*
G75*
G02*
X236328690Y-38761684I-15726J299480D01*
G01*
X236490296Y-41845319D02*
G75*
G02*
X235767991Y-41194952I-282480J412558D01*
G01*
X236490296Y-41845319D02*
G75*
G02*
X236644085Y-41793265I169486J-247527D01*
G01*
X238439104Y-38651081D02*
G75*
G02*
X238285314Y-38703111I-169443J247537D01*
G01*
X238439104Y-38651081D02*
G75*
G02*
X239161409Y-39301449I282483J-412555D01*
G01*
X238442323Y-41699023D02*
G75*
G02*
X238600709Y-41734718I15698J-299589D01*
G01*
X239125717Y-39459836D02*
G75*
G02*
X239161410Y-39301449I299274J15772D01*
G01*
X239251078Y-41012411D02*
G75*
G02*
X238600710Y-41734716I-412555J-282483D01*
G01*
X239251078Y-41012411D02*
G75*
G02*
X239199048Y-40858621I247537J169443D01*
G01*
%TO.C,DR15*%
X216173713Y-41513898D02*
X216100506Y-40817382D01*
X216173713Y-41513898D02*
X216246920Y-42210415D01*
X217707607Y-39844417D02*
X216812187Y-39938530D01*
X217707607Y-39844417D02*
X218603028Y-39750305D01*
X218021193Y-42827983D02*
X217125772Y-42922095D01*
X218021193Y-42827983D02*
X218916613Y-42733870D01*
X219555087Y-41158502D02*
X219481880Y-40461985D01*
X219555087Y-41158502D02*
X219628294Y-41855018D01*
X216040475Y-40666529D02*
G75*
G02*
X216100506Y-40817382I-238341J-182217D01*
G01*
X216040475Y-40666529D02*
G75*
G02*
X216652148Y-39911174I397207J303687D01*
G01*
X216246920Y-42210415D02*
G75*
G02*
X216219565Y-42370453I-298349J-31360D01*
G01*
X216812187Y-39938530D02*
G75*
G02*
X216652148Y-39911174I-31355J298380D01*
G01*
X216974919Y-42982127D02*
G75*
G02*
X216219563Y-42370453I-303688J397207D01*
G01*
X216974919Y-42982127D02*
G75*
G02*
X217125772Y-42922096I182208J-238317D01*
G01*
X218753881Y-39690273D02*
G75*
G02*
X218603028Y-39750302I-182203J238316D01*
G01*
X218753881Y-39690273D02*
G75*
G02*
X219509235Y-40301947I303688J-397206D01*
G01*
X218916613Y-42733870D02*
G75*
G02*
X219076653Y-42761225I31358J-298377D01*
G01*
X219481880Y-40461985D02*
G75*
G02*
X219509235Y-40301947I298009J31419D01*
G01*
X219688325Y-42005871D02*
G75*
G02*
X219076652Y-42761226I-397206J-303688D01*
G01*
X219688325Y-42005871D02*
G75*
G02*
X219628318Y-41855015I238331J182165D01*
G01*
%TO.C,DR31*%
X285003000Y-78125000D02*
X285003000Y-77424647D01*
X285003000Y-78125000D02*
X285003000Y-78825353D01*
X286703000Y-76625000D02*
X285802647Y-76625000D01*
X286703000Y-76625000D02*
X287603353Y-76625000D01*
X286703000Y-79625000D02*
X285802647Y-79625000D01*
X286703000Y-79625000D02*
X287603353Y-79625000D01*
X288403000Y-78125000D02*
X288403000Y-77424647D01*
X288403000Y-78125000D02*
X288403000Y-78825353D01*
X284959066Y-77268345D02*
G75*
G02*
X285003000Y-77424647I-256058J-156299D01*
G01*
X284959066Y-77268345D02*
G75*
G02*
X285646345Y-76581066I426776J260503D01*
G01*
X285003000Y-78825353D02*
G75*
G02*
X284959066Y-78981655I-299992J-3D01*
G01*
X285646345Y-79668934D02*
G75*
G02*
X284959066Y-78981655I-260503J426776D01*
G01*
X285646345Y-79668934D02*
G75*
G02*
X285802647Y-79625000I156299J-256058D01*
G01*
X285802647Y-76625000D02*
G75*
G02*
X285646345Y-76581066I-3J299992D01*
G01*
X287603353Y-79625000D02*
G75*
G02*
X287759656Y-79668933I-3J-300020D01*
G01*
X287759655Y-76581066D02*
G75*
G02*
X287603353Y-76624976I-156255J256066D01*
G01*
X287759655Y-76581066D02*
G75*
G02*
X288446934Y-77268345I260505J-426774D01*
G01*
X288403000Y-77424647D02*
G75*
G02*
X288446935Y-77268346I299680J87D01*
G01*
X288446934Y-78981655D02*
G75*
G02*
X287759655Y-79668934I-426774J-260505D01*
G01*
X288446934Y-78981655D02*
G75*
G02*
X288403024Y-78825353I256066J156255D01*
G01*
%TO.C,DR21*%
X282621000Y-59075000D02*
X282621000Y-58374647D01*
X282621000Y-59075000D02*
X282621000Y-59775353D01*
X284321000Y-57575000D02*
X283420647Y-57575000D01*
X284321000Y-57575000D02*
X285221353Y-57575000D01*
X284321000Y-60575000D02*
X283420647Y-60575000D01*
X284321000Y-60575000D02*
X285221353Y-60575000D01*
X286021000Y-59075000D02*
X286021000Y-58374647D01*
X286021000Y-59075000D02*
X286021000Y-59775353D01*
X282577066Y-58218345D02*
G75*
G02*
X282621000Y-58374647I-256058J-156299D01*
G01*
X282577066Y-58218345D02*
G75*
G02*
X283264345Y-57531066I426776J260503D01*
G01*
X282621000Y-59775353D02*
G75*
G02*
X282577066Y-59931655I-299992J-3D01*
G01*
X283264345Y-60618934D02*
G75*
G02*
X282577066Y-59931655I-260503J426776D01*
G01*
X283264345Y-60618934D02*
G75*
G02*
X283420647Y-60575000I156299J-256058D01*
G01*
X283420647Y-57575000D02*
G75*
G02*
X283264345Y-57531066I-3J299992D01*
G01*
X285221353Y-60575000D02*
G75*
G02*
X285377656Y-60618933I-3J-300020D01*
G01*
X285377655Y-57531066D02*
G75*
G02*
X285221353Y-57574976I-156255J256066D01*
G01*
X285377655Y-57531066D02*
G75*
G02*
X286064934Y-58218345I260505J-426774D01*
G01*
X286021000Y-58374647D02*
G75*
G02*
X286064935Y-58218346I299680J87D01*
G01*
X286064934Y-59931655D02*
G75*
G02*
X285377655Y-60618934I-426774J-260505D01*
G01*
X286064934Y-59931655D02*
G75*
G02*
X286021024Y-59775353I256066J156255D01*
G01*
%TO.C,DR26*%
X193845630Y-63885939D02*
X193736070Y-63194208D01*
X193845630Y-63885939D02*
X193955189Y-64577669D01*
X195290048Y-62138467D02*
X194400780Y-62279314D01*
X195290048Y-62138467D02*
X196179316Y-61997621D01*
X195759352Y-65101533D02*
X194870084Y-65242379D01*
X195759352Y-65101533D02*
X196648620Y-64960686D01*
X197203770Y-63354061D02*
X197094211Y-62662331D01*
X197203770Y-63354061D02*
X197313330Y-64045792D01*
X193668226Y-63046703D02*
G75*
G02*
X193736070Y-63194208I-228477J-194442D01*
G01*
X193668226Y-63046703D02*
G75*
G02*
X194239530Y-62260372I380769J324059D01*
G01*
X193955189Y-64577669D02*
G75*
G02*
X193936247Y-64738920I-296298J-46932D01*
G01*
X194400780Y-62279314D02*
G75*
G02*
X194239530Y-62260372I-46932J296298D01*
G01*
X194722579Y-65310223D02*
G75*
G02*
X193936247Y-64738920I-324059J380769D01*
G01*
X194722579Y-65310223D02*
G75*
G02*
X194870084Y-65242379I194444J-228484D01*
G01*
X196326821Y-61929777D02*
G75*
G02*
X196179316Y-61997619I-194426J228453D01*
G01*
X196326821Y-61929777D02*
G75*
G02*
X197113153Y-62501080I324060J-380768D01*
G01*
X196648620Y-64960686D02*
G75*
G02*
X196809870Y-64979627I46930J-296327D01*
G01*
X197094211Y-62662331D02*
G75*
G02*
X197113153Y-62501080I295987J46968D01*
G01*
X197381174Y-64193297D02*
G75*
G02*
X196809870Y-64979629I-380768J-324060D01*
G01*
X197381174Y-64193297D02*
G75*
G02*
X197313354Y-64045788I228469J194389D01*
G01*
%TO.C,DR23*%
X251665000Y-59075000D02*
X251665000Y-58374647D01*
X251665000Y-59075000D02*
X251665000Y-59775353D01*
X253365000Y-57575000D02*
X252464647Y-57575000D01*
X253365000Y-57575000D02*
X254265353Y-57575000D01*
X253365000Y-60575000D02*
X252464647Y-60575000D01*
X253365000Y-60575000D02*
X254265353Y-60575000D01*
X255065000Y-59075000D02*
X255065000Y-58374647D01*
X255065000Y-59075000D02*
X255065000Y-59775353D01*
X251621066Y-58218345D02*
G75*
G02*
X251665000Y-58374647I-256058J-156299D01*
G01*
X251621066Y-58218345D02*
G75*
G02*
X252308345Y-57531066I426776J260503D01*
G01*
X251665000Y-59775353D02*
G75*
G02*
X251621066Y-59931655I-299992J-3D01*
G01*
X252308345Y-60618934D02*
G75*
G02*
X251621066Y-59931655I-260503J426776D01*
G01*
X252308345Y-60618934D02*
G75*
G02*
X252464647Y-60575000I156299J-256058D01*
G01*
X252464647Y-57575000D02*
G75*
G02*
X252308345Y-57531066I-3J299992D01*
G01*
X254265353Y-60575000D02*
G75*
G02*
X254421656Y-60618933I-3J-300020D01*
G01*
X254421655Y-57531066D02*
G75*
G02*
X254265353Y-57574976I-156255J256066D01*
G01*
X254421655Y-57531066D02*
G75*
G02*
X255108934Y-58218345I260505J-426774D01*
G01*
X255065000Y-58374647D02*
G75*
G02*
X255108935Y-58218346I299680J87D01*
G01*
X255108934Y-59931655D02*
G75*
G02*
X254421655Y-60618934I-426774J-260505D01*
G01*
X255108934Y-59931655D02*
G75*
G02*
X255065024Y-59775353I256066J156255D01*
G01*
%TO.C,DR20*%
X178480830Y-46834539D02*
X178371270Y-46142808D01*
X178480830Y-46834539D02*
X178590389Y-47526269D01*
X179925248Y-45087067D02*
X179035980Y-45227914D01*
X179925248Y-45087067D02*
X180814516Y-44946221D01*
X180394552Y-48050133D02*
X179505284Y-48190979D01*
X180394552Y-48050133D02*
X181283820Y-47909286D01*
X181838970Y-46302661D02*
X181729411Y-45610931D01*
X181838970Y-46302661D02*
X181948530Y-46994392D01*
X178303426Y-45995303D02*
G75*
G02*
X178371270Y-46142808I-228477J-194442D01*
G01*
X178303426Y-45995303D02*
G75*
G02*
X178874730Y-45208972I380769J324059D01*
G01*
X178590389Y-47526269D02*
G75*
G02*
X178571447Y-47687520I-296298J-46932D01*
G01*
X179035980Y-45227914D02*
G75*
G02*
X178874730Y-45208972I-46932J296298D01*
G01*
X179357779Y-48258823D02*
G75*
G02*
X178571447Y-47687520I-324059J380769D01*
G01*
X179357779Y-48258823D02*
G75*
G02*
X179505284Y-48190979I194444J-228484D01*
G01*
X180962021Y-44878377D02*
G75*
G02*
X180814516Y-44946219I-194426J228453D01*
G01*
X180962021Y-44878377D02*
G75*
G02*
X181748353Y-45449680I324060J-380768D01*
G01*
X181283820Y-47909286D02*
G75*
G02*
X181445070Y-47928227I46930J-296327D01*
G01*
X181729411Y-45610931D02*
G75*
G02*
X181748353Y-45449680I295987J46968D01*
G01*
X182016374Y-47141897D02*
G75*
G02*
X181445070Y-47928229I-380768J-324060D01*
G01*
X182016374Y-47141897D02*
G75*
G02*
X181948554Y-46994388I228469J194389D01*
G01*
%TO.C,DR17*%
X256427000Y-40025000D02*
X256427000Y-39324647D01*
X256427000Y-40025000D02*
X256427000Y-40725353D01*
X258127000Y-38525000D02*
X257226647Y-38525000D01*
X258127000Y-38525000D02*
X259027353Y-38525000D01*
X258127000Y-41525000D02*
X257226647Y-41525000D01*
X258127000Y-41525000D02*
X259027353Y-41525000D01*
X259827000Y-40025000D02*
X259827000Y-39324647D01*
X259827000Y-40025000D02*
X259827000Y-40725353D01*
X256383066Y-39168345D02*
G75*
G02*
X256427000Y-39324647I-256058J-156299D01*
G01*
X256383066Y-39168345D02*
G75*
G02*
X257070345Y-38481066I426776J260503D01*
G01*
X256427000Y-40725353D02*
G75*
G02*
X256383066Y-40881655I-299992J-3D01*
G01*
X257070345Y-41568934D02*
G75*
G02*
X256383066Y-40881655I-260503J426776D01*
G01*
X257070345Y-41568934D02*
G75*
G02*
X257226647Y-41525000I156299J-256058D01*
G01*
X257226647Y-38525000D02*
G75*
G02*
X257070345Y-38481066I-3J299992D01*
G01*
X259027353Y-41525000D02*
G75*
G02*
X259183656Y-41568933I-3J-300020D01*
G01*
X259183655Y-38481066D02*
G75*
G02*
X259027353Y-38524976I-156255J256066D01*
G01*
X259183655Y-38481066D02*
G75*
G02*
X259870934Y-39168345I260505J-426774D01*
G01*
X259827000Y-39324647D02*
G75*
G02*
X259870935Y-39168346I299680J87D01*
G01*
X259870934Y-40881655D02*
G75*
G02*
X259183655Y-41568934I-426774J-260505D01*
G01*
X259870934Y-40881655D02*
G75*
G02*
X259827024Y-40725353I256066J156255D01*
G01*
%TO.C,DR24*%
X232374330Y-59649371D02*
X232337676Y-58949978D01*
X232374330Y-59649371D02*
X232410983Y-60348764D01*
X233993496Y-58062456D02*
X233094377Y-58109577D01*
X233993496Y-58062456D02*
X234892615Y-58015335D01*
X234150504Y-61058344D02*
X233251385Y-61105465D01*
X234150504Y-61058344D02*
X235049623Y-61011223D01*
X235769670Y-59471429D02*
X235733017Y-58772036D01*
X235769670Y-59471429D02*
X235806324Y-60170822D01*
X232285622Y-58796189D02*
G75*
G02*
X232337676Y-58949978I-247527J-169486D01*
G01*
X232285622Y-58796189D02*
G75*
G02*
X232935990Y-58073883I412558J282481D01*
G01*
X232410983Y-60348764D02*
G75*
G02*
X232375290Y-60507151I-299587J-15702D01*
G01*
X233094377Y-58109577D02*
G75*
G02*
X232935990Y-58073884I-15726J299480D01*
G01*
X233097596Y-61157519D02*
G75*
G02*
X232375291Y-60507152I-282480J412558D01*
G01*
X233097596Y-61157519D02*
G75*
G02*
X233251385Y-61105465I169486J-247527D01*
G01*
X235046404Y-57963281D02*
G75*
G02*
X234892614Y-58015311I-169443J247537D01*
G01*
X235046404Y-57963281D02*
G75*
G02*
X235768709Y-58613649I282483J-412555D01*
G01*
X235049623Y-61011223D02*
G75*
G02*
X235208009Y-61046918I15698J-299589D01*
G01*
X235733017Y-58772036D02*
G75*
G02*
X235768710Y-58613649I299274J15772D01*
G01*
X235858378Y-60324611D02*
G75*
G02*
X235208010Y-61046916I-412555J-282483D01*
G01*
X235858378Y-60324611D02*
G75*
G02*
X235806348Y-60170821I247537J169443D01*
G01*
%TO.C,DR8*%
X284050000Y-23975000D02*
X284050000Y-23274647D01*
X284050000Y-23975000D02*
X284050000Y-24675353D01*
X285750000Y-22475000D02*
X284849647Y-22475000D01*
X285750000Y-22475000D02*
X286650353Y-22475000D01*
X285750000Y-25475000D02*
X284849647Y-25475000D01*
X285750000Y-25475000D02*
X286650353Y-25475000D01*
X287450000Y-23975000D02*
X287450000Y-23274647D01*
X287450000Y-23975000D02*
X287450000Y-24675353D01*
X284006066Y-23118345D02*
G75*
G02*
X284050000Y-23274647I-256058J-156299D01*
G01*
X284006066Y-23118345D02*
G75*
G02*
X284693345Y-22431066I426776J260503D01*
G01*
X284050000Y-24675353D02*
G75*
G02*
X284006066Y-24831655I-299992J-3D01*
G01*
X284693345Y-25518934D02*
G75*
G02*
X284006066Y-24831655I-260503J426776D01*
G01*
X284693345Y-25518934D02*
G75*
G02*
X284849647Y-25475000I156299J-256058D01*
G01*
X284849647Y-22475000D02*
G75*
G02*
X284693345Y-22431066I-3J299992D01*
G01*
X286650353Y-25475000D02*
G75*
G02*
X286806656Y-25518933I-3J-300020D01*
G01*
X286806655Y-22431066D02*
G75*
G02*
X286650353Y-22474976I-156255J256066D01*
G01*
X286806655Y-22431066D02*
G75*
G02*
X287493934Y-23118345I260505J-426774D01*
G01*
X287450000Y-23274647D02*
G75*
G02*
X287493935Y-23118346I299680J87D01*
G01*
X287493934Y-24831655D02*
G75*
G02*
X286806655Y-25518934I-426774J-260505D01*
G01*
X287493934Y-24831655D02*
G75*
G02*
X287450024Y-24675353I256066J156255D01*
G01*
%TO.C,DR3*%
X248808000Y-2725000D02*
X248808000Y-2024647D01*
X248808000Y-2725000D02*
X248808000Y-3425353D01*
X250508000Y-1225000D02*
X249607647Y-1225000D01*
X250508000Y-1225000D02*
X251408353Y-1225000D01*
X250508000Y-4225000D02*
X249607647Y-4225000D01*
X250508000Y-4225000D02*
X251408353Y-4225000D01*
X252208000Y-2725000D02*
X252208000Y-2024647D01*
X252208000Y-2725000D02*
X252208000Y-3425353D01*
X248764066Y-1868345D02*
G75*
G02*
X248808000Y-2024647I-256058J-156299D01*
G01*
X248764066Y-1868345D02*
G75*
G02*
X249451345Y-1181066I426776J260503D01*
G01*
X248808000Y-3425353D02*
G75*
G02*
X248764066Y-3581655I-299992J-3D01*
G01*
X249451345Y-4268934D02*
G75*
G02*
X248764066Y-3581655I-260503J426776D01*
G01*
X249451345Y-4268934D02*
G75*
G02*
X249607647Y-4225000I156299J-256058D01*
G01*
X249607647Y-1225000D02*
G75*
G02*
X249451345Y-1181066I-3J299992D01*
G01*
X251408353Y-4225000D02*
G75*
G02*
X251564656Y-4268933I-3J-300020D01*
G01*
X251564655Y-1181066D02*
G75*
G02*
X251408353Y-1224976I-156255J256066D01*
G01*
X251564655Y-1181066D02*
G75*
G02*
X252251934Y-1868345I260505J-426774D01*
G01*
X252208000Y-2024647D02*
G75*
G02*
X252251935Y-1868346I299680J87D01*
G01*
X252251934Y-3581655D02*
G75*
G02*
X251564655Y-4268934I-426774J-260505D01*
G01*
X252251934Y-3581655D02*
G75*
G02*
X252208024Y-3425353I256066J156255D01*
G01*
%TO.C,DR19*%
X197284030Y-43857239D02*
X197174470Y-43165508D01*
X197284030Y-43857239D02*
X197393589Y-44548969D01*
X198728448Y-42109767D02*
X197839180Y-42250614D01*
X198728448Y-42109767D02*
X199617716Y-41968921D01*
X199197752Y-45072833D02*
X198308484Y-45213679D01*
X199197752Y-45072833D02*
X200087020Y-44931986D01*
X200642170Y-43325361D02*
X200532611Y-42633631D01*
X200642170Y-43325361D02*
X200751730Y-44017092D01*
X197106626Y-43018003D02*
G75*
G02*
X197174470Y-43165508I-228477J-194442D01*
G01*
X197106626Y-43018003D02*
G75*
G02*
X197677930Y-42231672I380769J324059D01*
G01*
X197393589Y-44548969D02*
G75*
G02*
X197374647Y-44710220I-296298J-46932D01*
G01*
X197839180Y-42250614D02*
G75*
G02*
X197677930Y-42231672I-46932J296298D01*
G01*
X198160979Y-45281523D02*
G75*
G02*
X197374647Y-44710220I-324059J380769D01*
G01*
X198160979Y-45281523D02*
G75*
G02*
X198308484Y-45213679I194444J-228484D01*
G01*
X199765221Y-41901077D02*
G75*
G02*
X199617716Y-41968919I-194426J228453D01*
G01*
X199765221Y-41901077D02*
G75*
G02*
X200551553Y-42472380I324060J-380768D01*
G01*
X200087020Y-44931986D02*
G75*
G02*
X200248270Y-44950927I46930J-296327D01*
G01*
X200532611Y-42633631D02*
G75*
G02*
X200551553Y-42472380I295987J46968D01*
G01*
X200819574Y-44164597D02*
G75*
G02*
X200248270Y-44950929I-380768J-324060D01*
G01*
X200819574Y-44164597D02*
G75*
G02*
X200751754Y-44017088I228469J194389D01*
G01*
%TO.C,DR25*%
X212734513Y-61156898D02*
X212661306Y-60460382D01*
X212734513Y-61156898D02*
X212807720Y-61853415D01*
X214268407Y-59487417D02*
X213372987Y-59581530D01*
X214268407Y-59487417D02*
X215163828Y-59393305D01*
X214581993Y-62470983D02*
X213686572Y-62565095D01*
X214581993Y-62470983D02*
X215477413Y-62376870D01*
X216115887Y-60801502D02*
X216042680Y-60104985D01*
X216115887Y-60801502D02*
X216189094Y-61498018D01*
X212601275Y-60309529D02*
G75*
G02*
X212661306Y-60460382I-238341J-182217D01*
G01*
X212601275Y-60309529D02*
G75*
G02*
X213212948Y-59554174I397207J303687D01*
G01*
X212807720Y-61853415D02*
G75*
G02*
X212780365Y-62013453I-298349J-31360D01*
G01*
X213372987Y-59581530D02*
G75*
G02*
X213212948Y-59554174I-31355J298380D01*
G01*
X213535719Y-62625127D02*
G75*
G02*
X212780363Y-62013453I-303688J397207D01*
G01*
X213535719Y-62625127D02*
G75*
G02*
X213686572Y-62565096I182208J-238317D01*
G01*
X215314681Y-59333273D02*
G75*
G02*
X215163828Y-59393302I-182203J238316D01*
G01*
X215314681Y-59333273D02*
G75*
G02*
X216070035Y-59944947I303688J-397206D01*
G01*
X215477413Y-62376870D02*
G75*
G02*
X215637453Y-62404225I31358J-298377D01*
G01*
X216042680Y-60104985D02*
G75*
G02*
X216070035Y-59944947I298009J31419D01*
G01*
X216249125Y-61648871D02*
G75*
G02*
X215637452Y-62404226I-397206J-303688D01*
G01*
X216249125Y-61648871D02*
G75*
G02*
X216189118Y-61498015I238331J182165D01*
G01*
%TO.C,DR28*%
X214726149Y-80102054D02*
X214652942Y-79405538D01*
X214726149Y-80102054D02*
X214799356Y-80798571D01*
X216260043Y-78432573D02*
X215364623Y-78526686D01*
X216260043Y-78432573D02*
X217155464Y-78338461D01*
X216573629Y-81416139D02*
X215678208Y-81510251D01*
X216573629Y-81416139D02*
X217469049Y-81322026D01*
X218107523Y-79746658D02*
X218034316Y-79050141D01*
X218107523Y-79746658D02*
X218180730Y-80443174D01*
X214592911Y-79254685D02*
G75*
G02*
X214652942Y-79405538I-238348J-182220D01*
G01*
X214592911Y-79254685D02*
G75*
G02*
X215204584Y-78499330I397207J303687D01*
G01*
X214799356Y-80798571D02*
G75*
G02*
X214772001Y-80958609I-298349J-31360D01*
G01*
X215364623Y-78526686D02*
G75*
G02*
X215204584Y-78499330I-31355J298380D01*
G01*
X215527355Y-81570283D02*
G75*
G02*
X214771999Y-80958609I-303688J397207D01*
G01*
X215527355Y-81570283D02*
G75*
G02*
X215678208Y-81510252I182210J-238324D01*
G01*
X217306317Y-78278429D02*
G75*
G02*
X217155461Y-78338436I-182165J238330D01*
G01*
X217306317Y-78278429D02*
G75*
G02*
X218061671Y-78890103I303688J-397206D01*
G01*
X217469049Y-81322026D02*
G75*
G02*
X217629089Y-81349381I31358J-298377D01*
G01*
X218034316Y-79050141D02*
G75*
G02*
X218061671Y-78890103I298009J31419D01*
G01*
X218240761Y-80594027D02*
G75*
G02*
X217629088Y-81349381I-397203J-303690D01*
G01*
X218240761Y-80594027D02*
G75*
G02*
X218180754Y-80443171I238331J182165D01*
G01*
%TO.C,DR18*%
X282621000Y-40025000D02*
X282621000Y-39324647D01*
X282621000Y-40025000D02*
X282621000Y-40725353D01*
X284321000Y-38525000D02*
X283420647Y-38525000D01*
X284321000Y-38525000D02*
X285221353Y-38525000D01*
X284321000Y-41525000D02*
X283420647Y-41525000D01*
X284321000Y-41525000D02*
X285221353Y-41525000D01*
X286021000Y-40025000D02*
X286021000Y-39324647D01*
X286021000Y-40025000D02*
X286021000Y-40725353D01*
X282577066Y-39168345D02*
G75*
G02*
X282621000Y-39324647I-256058J-156299D01*
G01*
X282577066Y-39168345D02*
G75*
G02*
X283264345Y-38481066I426776J260503D01*
G01*
X282621000Y-40725353D02*
G75*
G02*
X282577066Y-40881655I-299992J-3D01*
G01*
X283264345Y-41568934D02*
G75*
G02*
X282577066Y-40881655I-260503J426776D01*
G01*
X283264345Y-41568934D02*
G75*
G02*
X283420647Y-41525000I156299J-256058D01*
G01*
X283420647Y-38525000D02*
G75*
G02*
X283264345Y-38481066I-3J299992D01*
G01*
X285221353Y-41525000D02*
G75*
G02*
X285377656Y-41568933I-3J-300020D01*
G01*
X285377655Y-38481066D02*
G75*
G02*
X285221353Y-38524976I-156255J256066D01*
G01*
X285377655Y-38481066D02*
G75*
G02*
X286064934Y-39168345I260505J-426774D01*
G01*
X286021000Y-39324647D02*
G75*
G02*
X286064935Y-39168346I299680J87D01*
G01*
X286064934Y-40881655D02*
G75*
G02*
X285377655Y-41568934I-426774J-260505D01*
G01*
X286064934Y-40881655D02*
G75*
G02*
X286021024Y-40725353I256066J156255D01*
G01*
%TO.C,DR6*%
X190567130Y-7459339D02*
X190457570Y-6767608D01*
X190567130Y-7459339D02*
X190676689Y-8151069D01*
X192011548Y-5711867D02*
X191122280Y-5852714D01*
X192011548Y-5711867D02*
X192900816Y-5571021D01*
X192480852Y-8674933D02*
X191591584Y-8815779D01*
X192480852Y-8674933D02*
X193370120Y-8534086D01*
X193925270Y-6927461D02*
X193815711Y-6235731D01*
X193925270Y-6927461D02*
X194034830Y-7619192D01*
X190389726Y-6620103D02*
G75*
G02*
X190457570Y-6767608I-228477J-194442D01*
G01*
X190389726Y-6620103D02*
G75*
G02*
X190961030Y-5833772I380769J324059D01*
G01*
X190676689Y-8151069D02*
G75*
G02*
X190657747Y-8312320I-296298J-46932D01*
G01*
X191122280Y-5852714D02*
G75*
G02*
X190961030Y-5833772I-46932J296298D01*
G01*
X191444079Y-8883623D02*
G75*
G02*
X190657747Y-8312320I-324059J380769D01*
G01*
X191444079Y-8883623D02*
G75*
G02*
X191591584Y-8815779I194444J-228484D01*
G01*
X193048321Y-5503177D02*
G75*
G02*
X192900816Y-5571019I-194426J228453D01*
G01*
X193048321Y-5503177D02*
G75*
G02*
X193834653Y-6074480I324060J-380768D01*
G01*
X193370120Y-8534086D02*
G75*
G02*
X193531370Y-8553027I46930J-296327D01*
G01*
X193815711Y-6235731D02*
G75*
G02*
X193834653Y-6074480I295987J46968D01*
G01*
X194102674Y-7766697D02*
G75*
G02*
X193531370Y-8553029I-380768J-324060D01*
G01*
X194102674Y-7766697D02*
G75*
G02*
X194034854Y-7619188I228469J194389D01*
G01*
%TO.C,DR4*%
X267858000Y-2657000D02*
X267858000Y-1956647D01*
X267858000Y-2657000D02*
X267858000Y-3357353D01*
X269558000Y-1157000D02*
X268657647Y-1157000D01*
X269558000Y-1157000D02*
X270458353Y-1157000D01*
X269558000Y-4157000D02*
X268657647Y-4157000D01*
X269558000Y-4157000D02*
X270458353Y-4157000D01*
X271258000Y-2657000D02*
X271258000Y-1956647D01*
X271258000Y-2657000D02*
X271258000Y-3357353D01*
X267814066Y-1800345D02*
G75*
G02*
X267858000Y-1956647I-256058J-156299D01*
G01*
X267814066Y-1800345D02*
G75*
G02*
X268501345Y-1113066I426776J260503D01*
G01*
X267858000Y-3357353D02*
G75*
G02*
X267814066Y-3513655I-299992J-3D01*
G01*
X268501345Y-4200934D02*
G75*
G02*
X267814066Y-3513655I-260503J426776D01*
G01*
X268501345Y-4200934D02*
G75*
G02*
X268657647Y-4157000I156299J-256058D01*
G01*
X268657647Y-1157000D02*
G75*
G02*
X268501345Y-1113066I-3J299992D01*
G01*
X270458353Y-4157000D02*
G75*
G02*
X270614656Y-4200933I-3J-300020D01*
G01*
X270614655Y-1113066D02*
G75*
G02*
X270458353Y-1156976I-156255J256066D01*
G01*
X270614655Y-1113066D02*
G75*
G02*
X271301934Y-1800345I260505J-426774D01*
G01*
X271258000Y-1956647D02*
G75*
G02*
X271301935Y-1800346I299680J87D01*
G01*
X271301934Y-3513655D02*
G75*
G02*
X270614655Y-4200934I-426774J-260505D01*
G01*
X271301934Y-3513655D02*
G75*
G02*
X271258024Y-3357353I256066J156255D01*
G01*
%TO.C,DR2*%
X229370730Y-3066471D02*
X229334076Y-2367078D01*
X229370730Y-3066471D02*
X229407383Y-3765864D01*
X230989896Y-1479556D02*
X230090777Y-1526677D01*
X230989896Y-1479556D02*
X231889015Y-1432435D01*
X231146904Y-4475444D02*
X230247785Y-4522565D01*
X231146904Y-4475444D02*
X232046023Y-4428323D01*
X232766070Y-2888529D02*
X232729417Y-2189136D01*
X232766070Y-2888529D02*
X232802724Y-3587922D01*
X229282022Y-2213289D02*
G75*
G02*
X229334076Y-2367078I-247527J-169486D01*
G01*
X229282022Y-2213289D02*
G75*
G02*
X229932390Y-1490983I412558J282481D01*
G01*
X229407383Y-3765864D02*
G75*
G02*
X229371690Y-3924251I-299587J-15702D01*
G01*
X230090777Y-1526677D02*
G75*
G02*
X229932390Y-1490984I-15726J299480D01*
G01*
X230093996Y-4574619D02*
G75*
G02*
X229371691Y-3924252I-282480J412558D01*
G01*
X230093996Y-4574619D02*
G75*
G02*
X230247785Y-4522565I169486J-247527D01*
G01*
X232042804Y-1380381D02*
G75*
G02*
X231889014Y-1432411I-169443J247537D01*
G01*
X232042804Y-1380381D02*
G75*
G02*
X232765109Y-2030749I282483J-412555D01*
G01*
X232046023Y-4428323D02*
G75*
G02*
X232204409Y-4464018I15698J-299589D01*
G01*
X232729417Y-2189136D02*
G75*
G02*
X232765110Y-2030749I299274J15772D01*
G01*
X232854778Y-3741711D02*
G75*
G02*
X232204410Y-4464016I-412555J-282483D01*
G01*
X232854778Y-3741711D02*
G75*
G02*
X232802748Y-3587921I247537J169443D01*
G01*
%TO.C,DR9*%
X260238000Y-23975000D02*
X260238000Y-23274647D01*
X260238000Y-23975000D02*
X260238000Y-24675353D01*
X261938000Y-22475000D02*
X261037647Y-22475000D01*
X261938000Y-22475000D02*
X262838353Y-22475000D01*
X261938000Y-25475000D02*
X261037647Y-25475000D01*
X261938000Y-25475000D02*
X262838353Y-25475000D01*
X263638000Y-23975000D02*
X263638000Y-23274647D01*
X263638000Y-23975000D02*
X263638000Y-24675353D01*
X260194066Y-23118345D02*
G75*
G02*
X260238000Y-23274647I-256058J-156299D01*
G01*
X260194066Y-23118345D02*
G75*
G02*
X260881345Y-22431066I426776J260503D01*
G01*
X260238000Y-24675353D02*
G75*
G02*
X260194066Y-24831655I-299992J-3D01*
G01*
X260881345Y-25518934D02*
G75*
G02*
X260194066Y-24831655I-260503J426776D01*
G01*
X260881345Y-25518934D02*
G75*
G02*
X261037647Y-25475000I156299J-256058D01*
G01*
X261037647Y-22475000D02*
G75*
G02*
X260881345Y-22431066I-3J299992D01*
G01*
X262838353Y-25475000D02*
G75*
G02*
X262994656Y-25518933I-3J-300020D01*
G01*
X262994655Y-22431066D02*
G75*
G02*
X262838353Y-22474976I-156255J256066D01*
G01*
X262994655Y-22431066D02*
G75*
G02*
X263681934Y-23118345I260505J-426774D01*
G01*
X263638000Y-23274647D02*
G75*
G02*
X263681935Y-23118346I299680J87D01*
G01*
X263681934Y-24831655D02*
G75*
G02*
X262994655Y-25518934I-426774J-260505D01*
G01*
X263681934Y-24831655D02*
G75*
G02*
X263638024Y-24675353I256066J156255D01*
G01*
%TO.C,DR11*%
X221135513Y-21951098D02*
X221062306Y-21254582D01*
X221135513Y-21951098D02*
X221208720Y-22647615D01*
X222669407Y-20281617D02*
X221773987Y-20375730D01*
X222669407Y-20281617D02*
X223564828Y-20187505D01*
X222982993Y-23265183D02*
X222087572Y-23359295D01*
X222982993Y-23265183D02*
X223878413Y-23171070D01*
X224516887Y-21595702D02*
X224443680Y-20899185D01*
X224516887Y-21595702D02*
X224590094Y-22292218D01*
X221002275Y-21103729D02*
G75*
G02*
X221062306Y-21254582I-238341J-182217D01*
G01*
X221002275Y-21103729D02*
G75*
G02*
X221613948Y-20348374I397207J303687D01*
G01*
X221208720Y-22647615D02*
G75*
G02*
X221181365Y-22807653I-298349J-31360D01*
G01*
X221773987Y-20375730D02*
G75*
G02*
X221613948Y-20348374I-31355J298380D01*
G01*
X221936719Y-23419327D02*
G75*
G02*
X221181363Y-22807653I-303688J397207D01*
G01*
X221936719Y-23419327D02*
G75*
G02*
X222087572Y-23359296I182208J-238317D01*
G01*
X223715681Y-20127473D02*
G75*
G02*
X223564828Y-20187502I-182203J238316D01*
G01*
X223715681Y-20127473D02*
G75*
G02*
X224471035Y-20739147I303688J-397206D01*
G01*
X223878413Y-23171070D02*
G75*
G02*
X224038453Y-23198425I31358J-298377D01*
G01*
X224443680Y-20899185D02*
G75*
G02*
X224471035Y-20739147I298009J31419D01*
G01*
X224650125Y-22443071D02*
G75*
G02*
X224038452Y-23198426I-397206J-303688D01*
G01*
X224650125Y-22443071D02*
G75*
G02*
X224590118Y-22292215I238331J182165D01*
G01*
%TO.C,DR27*%
X175007230Y-66870539D02*
X174897670Y-66178808D01*
X175007230Y-66870539D02*
X175116789Y-67562269D01*
X176451648Y-65123067D02*
X175562380Y-65263914D01*
X176451648Y-65123067D02*
X177340916Y-64982221D01*
X176920952Y-68086133D02*
X176031684Y-68226979D01*
X176920952Y-68086133D02*
X177810220Y-67945286D01*
X178365370Y-66338661D02*
X178255811Y-65646931D01*
X178365370Y-66338661D02*
X178474930Y-67030392D01*
X174829826Y-66031303D02*
G75*
G02*
X174897670Y-66178808I-228477J-194442D01*
G01*
X174829826Y-66031303D02*
G75*
G02*
X175401130Y-65244972I380769J324059D01*
G01*
X175116789Y-67562269D02*
G75*
G02*
X175097847Y-67723520I-296298J-46932D01*
G01*
X175562380Y-65263914D02*
G75*
G02*
X175401130Y-65244972I-46932J296298D01*
G01*
X175884179Y-68294823D02*
G75*
G02*
X175097847Y-67723520I-324059J380769D01*
G01*
X175884179Y-68294823D02*
G75*
G02*
X176031684Y-68226979I194444J-228484D01*
G01*
X177488421Y-64914377D02*
G75*
G02*
X177340916Y-64982219I-194426J228453D01*
G01*
X177488421Y-64914377D02*
G75*
G02*
X178274753Y-65485680I324060J-380768D01*
G01*
X177810220Y-67945286D02*
G75*
G02*
X177971470Y-67964227I46930J-296327D01*
G01*
X178255811Y-65646931D02*
G75*
G02*
X178274753Y-65485680I295987J46968D01*
G01*
X178542774Y-67177897D02*
G75*
G02*
X177971470Y-67964229I-380768J-324060D01*
G01*
X178542774Y-67177897D02*
G75*
G02*
X178474954Y-67030388I228469J194389D01*
G01*
%TO.C,DR1*%
X209627013Y-4892498D02*
X209553806Y-4195982D01*
X209627013Y-4892498D02*
X209700220Y-5589015D01*
X211160907Y-3223017D02*
X210265487Y-3317130D01*
X211160907Y-3223017D02*
X212056328Y-3128905D01*
X211474493Y-6206583D02*
X210579072Y-6300695D01*
X211474493Y-6206583D02*
X212369913Y-6112470D01*
X213008387Y-4537102D02*
X212935180Y-3840585D01*
X213008387Y-4537102D02*
X213081594Y-5233618D01*
X209493775Y-4045129D02*
G75*
G02*
X209553806Y-4195982I-238341J-182217D01*
G01*
X209493775Y-4045129D02*
G75*
G02*
X210105448Y-3289774I397207J303687D01*
G01*
X209700220Y-5589015D02*
G75*
G02*
X209672865Y-5749053I-298349J-31360D01*
G01*
X210265487Y-3317130D02*
G75*
G02*
X210105448Y-3289774I-31355J298380D01*
G01*
X210428219Y-6360727D02*
G75*
G02*
X209672863Y-5749053I-303688J397207D01*
G01*
X210428219Y-6360727D02*
G75*
G02*
X210579072Y-6300696I182208J-238317D01*
G01*
X212207181Y-3068873D02*
G75*
G02*
X212056328Y-3128902I-182203J238316D01*
G01*
X212207181Y-3068873D02*
G75*
G02*
X212962535Y-3680547I303688J-397206D01*
G01*
X212369913Y-6112470D02*
G75*
G02*
X212529953Y-6139825I31358J-298377D01*
G01*
X212935180Y-3840585D02*
G75*
G02*
X212962535Y-3680547I298009J31419D01*
G01*
X213141625Y-5384471D02*
G75*
G02*
X212529952Y-6139826I-397206J-303688D01*
G01*
X213141625Y-5384471D02*
G75*
G02*
X213081618Y-5233615I238331J182165D01*
G01*
%TO.C,DR14*%
X164344530Y-30355239D02*
X164234970Y-29663508D01*
X164344530Y-30355239D02*
X164454089Y-31046969D01*
X165788948Y-28607767D02*
X164899680Y-28748614D01*
X165788948Y-28607767D02*
X166678216Y-28466921D01*
X166258252Y-31570833D02*
X165368984Y-31711679D01*
X166258252Y-31570833D02*
X167147520Y-31429986D01*
X167702670Y-29823361D02*
X167593111Y-29131631D01*
X167702670Y-29823361D02*
X167812230Y-30515092D01*
X164167126Y-29516003D02*
G75*
G02*
X164234970Y-29663508I-228477J-194442D01*
G01*
X164167126Y-29516003D02*
G75*
G02*
X164738430Y-28729672I380769J324059D01*
G01*
X164454089Y-31046969D02*
G75*
G02*
X164435147Y-31208220I-296298J-46932D01*
G01*
X164899680Y-28748614D02*
G75*
G02*
X164738430Y-28729672I-46932J296298D01*
G01*
X165221479Y-31779523D02*
G75*
G02*
X164435147Y-31208220I-324059J380769D01*
G01*
X165221479Y-31779523D02*
G75*
G02*
X165368984Y-31711679I194444J-228484D01*
G01*
X166825721Y-28399077D02*
G75*
G02*
X166678216Y-28466919I-194426J228453D01*
G01*
X166825721Y-28399077D02*
G75*
G02*
X167612053Y-28970380I324060J-380768D01*
G01*
X167147520Y-31429986D02*
G75*
G02*
X167308770Y-31448927I46930J-296327D01*
G01*
X167593111Y-29131631D02*
G75*
G02*
X167612053Y-28970380I295987J46968D01*
G01*
X167880074Y-30662597D02*
G75*
G02*
X167308770Y-31448929I-380768J-324060D01*
G01*
X167880074Y-30662597D02*
G75*
G02*
X167812254Y-30515088I228469J194389D01*
G01*
%TO.C,DR12*%
X202192313Y-23935498D02*
X202119106Y-23238982D01*
X202192313Y-23935498D02*
X202265520Y-24632015D01*
X203726207Y-22266017D02*
X202830787Y-22360130D01*
X203726207Y-22266017D02*
X204621628Y-22171905D01*
X204039793Y-25249583D02*
X203144372Y-25343695D01*
X204039793Y-25249583D02*
X204935213Y-25155470D01*
X205573687Y-23580102D02*
X205500480Y-22883585D01*
X205573687Y-23580102D02*
X205646894Y-24276618D01*
X202059075Y-23088129D02*
G75*
G02*
X202119106Y-23238982I-238341J-182217D01*
G01*
X202059075Y-23088129D02*
G75*
G02*
X202670748Y-22332774I397207J303687D01*
G01*
X202265520Y-24632015D02*
G75*
G02*
X202238165Y-24792053I-298349J-31360D01*
G01*
X202830787Y-22360130D02*
G75*
G02*
X202670748Y-22332774I-31355J298380D01*
G01*
X202993519Y-25403727D02*
G75*
G02*
X202238163Y-24792053I-303688J397207D01*
G01*
X202993519Y-25403727D02*
G75*
G02*
X203144372Y-25343696I182208J-238317D01*
G01*
X204772481Y-22111873D02*
G75*
G02*
X204621628Y-22171902I-182203J238316D01*
G01*
X204772481Y-22111873D02*
G75*
G02*
X205527835Y-22723547I303688J-397206D01*
G01*
X204935213Y-25155470D02*
G75*
G02*
X205095253Y-25182825I31358J-298377D01*
G01*
X205500480Y-22883585D02*
G75*
G02*
X205527835Y-22723547I298009J31419D01*
G01*
X205706925Y-24427471D02*
G75*
G02*
X205095252Y-25182826I-397206J-303688D01*
G01*
X205706925Y-24427471D02*
G75*
G02*
X205646918Y-24276615I238331J182165D01*
G01*
%TO.C,DR7*%
X171763430Y-10450939D02*
X171653870Y-9759208D01*
X171763430Y-10450939D02*
X171872989Y-11142669D01*
X173207848Y-8703467D02*
X172318580Y-8844314D01*
X173207848Y-8703467D02*
X174097116Y-8562621D01*
X173677152Y-11666533D02*
X172787884Y-11807379D01*
X173677152Y-11666533D02*
X174566420Y-11525686D01*
X175121570Y-9919061D02*
X175012011Y-9227331D01*
X175121570Y-9919061D02*
X175231130Y-10610792D01*
X171586026Y-9611703D02*
G75*
G02*
X171653870Y-9759208I-228477J-194442D01*
G01*
X171586026Y-9611703D02*
G75*
G02*
X172157330Y-8825372I380769J324059D01*
G01*
X171872989Y-11142669D02*
G75*
G02*
X171854047Y-11303920I-296298J-46932D01*
G01*
X172318580Y-8844314D02*
G75*
G02*
X172157330Y-8825372I-46932J296298D01*
G01*
X172640379Y-11875223D02*
G75*
G02*
X171854047Y-11303920I-324059J380769D01*
G01*
X172640379Y-11875223D02*
G75*
G02*
X172787884Y-11807379I194444J-228484D01*
G01*
X174244621Y-8494777D02*
G75*
G02*
X174097116Y-8562619I-194426J228453D01*
G01*
X174244621Y-8494777D02*
G75*
G02*
X175030953Y-9066080I324060J-380768D01*
G01*
X174566420Y-11525686D02*
G75*
G02*
X174727670Y-11544627I46930J-296327D01*
G01*
X175012011Y-9227331D02*
G75*
G02*
X175030953Y-9066080I295987J46968D01*
G01*
X175298974Y-10758297D02*
G75*
G02*
X174727670Y-11544629I-380768J-324060D01*
G01*
X175298974Y-10758297D02*
G75*
G02*
X175231154Y-10610788I228469J194389D01*
G01*
%TO.C,DR13*%
X183091030Y-26972239D02*
X182981470Y-26280508D01*
X183091030Y-26972239D02*
X183200589Y-27663969D01*
X184535448Y-25224767D02*
X183646180Y-25365614D01*
X184535448Y-25224767D02*
X185424716Y-25083921D01*
X185004752Y-28187833D02*
X184115484Y-28328679D01*
X185004752Y-28187833D02*
X185894020Y-28046986D01*
X186449170Y-26440361D02*
X186339611Y-25748631D01*
X186449170Y-26440361D02*
X186558730Y-27132092D01*
X182913626Y-26133003D02*
G75*
G02*
X182981470Y-26280508I-228477J-194442D01*
G01*
X182913626Y-26133003D02*
G75*
G02*
X183484930Y-25346672I380769J324059D01*
G01*
X183200589Y-27663969D02*
G75*
G02*
X183181647Y-27825220I-296298J-46932D01*
G01*
X183646180Y-25365614D02*
G75*
G02*
X183484930Y-25346672I-46932J296298D01*
G01*
X183967979Y-28396523D02*
G75*
G02*
X183181647Y-27825220I-324059J380769D01*
G01*
X183967979Y-28396523D02*
G75*
G02*
X184115484Y-28328679I194444J-228484D01*
G01*
X185572221Y-25016077D02*
G75*
G02*
X185424716Y-25083919I-194426J228453D01*
G01*
X185572221Y-25016077D02*
G75*
G02*
X186358553Y-25587380I324060J-380768D01*
G01*
X185894020Y-28046986D02*
G75*
G02*
X186055270Y-28065927I46930J-296327D01*
G01*
X186339611Y-25748631D02*
G75*
G02*
X186358553Y-25587380I295987J46968D01*
G01*
X186626574Y-27279597D02*
G75*
G02*
X186055270Y-28065929I-380768J-324060D01*
G01*
X186626574Y-27279597D02*
G75*
G02*
X186558754Y-27132088I228469J194389D01*
G01*
%TO.C,DR10*%
X241188000Y-20975000D02*
X241188000Y-20274647D01*
X241188000Y-20975000D02*
X241188000Y-21675353D01*
X242888000Y-19475000D02*
X241987647Y-19475000D01*
X242888000Y-19475000D02*
X243788353Y-19475000D01*
X242888000Y-22475000D02*
X241987647Y-22475000D01*
X242888000Y-22475000D02*
X243788353Y-22475000D01*
X244588000Y-20975000D02*
X244588000Y-20274647D01*
X244588000Y-20975000D02*
X244588000Y-21675353D01*
X241144066Y-20118345D02*
G75*
G02*
X241188000Y-20274647I-256058J-156299D01*
G01*
X241144066Y-20118345D02*
G75*
G02*
X241831345Y-19431066I426776J260503D01*
G01*
X241188000Y-21675353D02*
G75*
G02*
X241144066Y-21831655I-299992J-3D01*
G01*
X241831345Y-22518934D02*
G75*
G02*
X241144066Y-21831655I-260503J426776D01*
G01*
X241831345Y-22518934D02*
G75*
G02*
X241987647Y-22475000I156299J-256058D01*
G01*
X241987647Y-19475000D02*
G75*
G02*
X241831345Y-19431066I-3J299992D01*
G01*
X243788353Y-22475000D02*
G75*
G02*
X243944656Y-22518933I-3J-300020D01*
G01*
X243944655Y-19431066D02*
G75*
G02*
X243788353Y-19474976I-156255J256066D01*
G01*
X243944655Y-19431066D02*
G75*
G02*
X244631934Y-20118345I260505J-426774D01*
G01*
X244588000Y-20274647D02*
G75*
G02*
X244631935Y-20118346I299680J87D01*
G01*
X244631934Y-21831655D02*
G75*
G02*
X243944655Y-22518934I-426774J-260505D01*
G01*
X244631934Y-21831655D02*
G75*
G02*
X244588024Y-21675353I256066J156255D01*
G01*
%TO.C,DR5*%
X286908000Y-2657000D02*
X286908000Y-1956647D01*
X286908000Y-2657000D02*
X286908000Y-3357353D01*
X288608000Y-1157000D02*
X287707647Y-1157000D01*
X288608000Y-1157000D02*
X289508353Y-1157000D01*
X288608000Y-4157000D02*
X287707647Y-4157000D01*
X288608000Y-4157000D02*
X289508353Y-4157000D01*
X290308000Y-2657000D02*
X290308000Y-1956647D01*
X290308000Y-2657000D02*
X290308000Y-3357353D01*
X286864066Y-1800345D02*
G75*
G02*
X286908000Y-1956647I-256058J-156299D01*
G01*
X286864066Y-1800345D02*
G75*
G02*
X287551345Y-1113066I426776J260503D01*
G01*
X286908000Y-3357353D02*
G75*
G02*
X286864066Y-3513655I-299992J-3D01*
G01*
X287551345Y-4200934D02*
G75*
G02*
X286864066Y-3513655I-260503J426776D01*
G01*
X287551345Y-4200934D02*
G75*
G02*
X287707647Y-4157000I156299J-256058D01*
G01*
X287707647Y-1157000D02*
G75*
G02*
X287551345Y-1113066I-3J299992D01*
G01*
X289508353Y-4157000D02*
G75*
G02*
X289664656Y-4200933I-3J-300020D01*
G01*
X289664655Y-1113066D02*
G75*
G02*
X289508353Y-1156976I-156255J256066D01*
G01*
X289664655Y-1113066D02*
G75*
G02*
X290351934Y-1800345I260505J-426774D01*
G01*
X290308000Y-1956647D02*
G75*
G02*
X290351935Y-1800346I299680J87D01*
G01*
X290351934Y-3513655D02*
G75*
G02*
X289664655Y-4200934I-426774J-260505D01*
G01*
X290351934Y-3513655D02*
G75*
G02*
X290308024Y-3357353I256066J156255D01*
G01*
%TD*%
M02*
