M48
; DRILL file KiCad 10.0.5 date 2026-10-05T15:11:40
; FORMAT={-:-/ absolute / metric / decimal}
; #@! TF.CreationDate,2026-10-05T15:11:40-04:00
; #@! TF.GenerationSoftware,Kicad,Pcbnew,10.0.5
; #@! TF.FileFunction,Plated,1,2,PTH
FMAT,2
METRIC
; #@! TA.AperFunction,Plated,PTH,ViaDrill
T1C0.300
%
G90
G05
T1
X0.298Y-39.055
X4.043Y-146.051
X4.229Y-191.223
X6.667Y-160.216
X6.778Y-144.242
X6.797Y-146.021
X6.927Y-153.083
X7.345Y-148.487
X7.58Y-3.075
X7.647Y-143.271
X7.98Y-151.568
X8.517Y-139.716
X8.941Y-146.032
X9.076Y-161.216
X9.588Y-20.475
X9.876Y-172.216
X10.047Y-163.271
X11.017Y-39.525
X11.017Y-61.375
X11.167Y-153.716
X11.376Y-165.216
X11.569Y-145.829
X11.644Y-123.035
X11.843Y-143.592
X11.876Y-169.706
X11.885Y-17.275
X11.991Y-54.749
X12.077Y-85.675
X12.167Y-151.116
X12.167Y-168.216
X12.74Y-89.626
X12.797Y-143.271
X12.876Y-172.216
X12.985Y-153.716
X13.363Y-150.416
X13.363Y-153.016
X13.633Y-127.106
X13.694Y-32.475
X14.1Y-134.744
X14.116Y-28.111
X14.297Y-125.771
X14.343Y-146.792
X14.367Y-148.716
X14.367Y-166.216
X14.488Y-130.917
X14.934Y-37.475
X15.122Y-66.963
X15.25Y-132.532
X15.372Y-54.925
X15.547Y-121.271
X15.567Y-149.916
X15.567Y-167.216
X15.828Y-66.494
X15.876Y-172.216
X15.882Y-8.925
X16.2Y-139.392
X16.567Y-152.716
X17.543Y-64.363
X17.547Y-183.021
X17.578Y-87.675
X17.617Y-58.575
X17.617Y-74.425
X17.652Y-142.804
X18.03Y-17.375
X18.567Y-154.716
X18.855Y-28.563
X19.047Y-178.271
X19.177Y-122.812
X19.269Y-123.993
X19.402Y-134.542
X19.548Y-132.582
X20.166Y-178.592
X20.267Y-159.216
X20.284Y-66.501
X20.297Y-204.771
X20.307Y-189.758
X20.352Y-88.0
X20.762Y-125.461
X20.888Y-35.525
X21.047Y-166.021
X21.851Y-128.085
X22.179Y-168.443
X22.297Y-197.271
X22.569Y-182.903
X22.665Y-81.505
X22.9Y-129.344
X23.376Y-179.716
X23.547Y-182.021
X23.994Y-170.555
X24.061Y-158.507
X24.088Y-187.626
X24.421Y-93.681
X24.517Y-193.216
X24.843Y-157.292
X25.297Y-141.021
X25.549Y-197.517
X25.767Y-137.216
X25.767Y-183.716
X26.042Y-158.666
X26.236Y-145.023
X26.297Y-199.021
X26.63Y-3.075
X26.697Y-169.521
X26.797Y-160.271
X27.047Y-138.521
X27.055Y-34.675
X27.207Y-186.258
X27.517Y-130.716
X27.517Y-153.466
X27.552Y-143.195
X28.465Y-185.21
X29.111Y-94.126
X29.317Y-202.525
X29.493Y-153.992
X30.267Y-191.716
X30.297Y-204.771
X30.547Y-153.271
X30.652Y-143.004
X30.659Y-140.942
X30.907Y-180.218
X31.167Y-204.876
X31.272Y-166.504
X31.4Y-21.675
X31.547Y-140.271
X31.937Y-143.846
X32.172Y-148.128
X32.544Y-181.76
X32.797Y-125.521
X32.878Y-120.956
X33.4Y-23.275
X34.067Y-153.216
X34.447Y-11.125
X34.932Y-8.925
X35.267Y-179.657
X35.628Y-118.389
X36.245Y-184.705
X36.297Y-180.021
X36.297Y-183.021
X36.311Y-78.825
X36.517Y-122.966
X36.803Y-130.591
X36.803Y-132.992
X37.08Y-17.375
X37.451Y-89.096
X37.527Y-119.067
X37.797Y-175.271
X38.003Y-122.991
X38.02Y-39.475
X38.211Y-28.394
X38.212Y-48.7
X38.3Y-87.445
X38.491Y-52.399
X38.713Y-142.096
X39.005Y-175.608
X39.288Y-123.543
X39.797Y-159.771
X40.02Y-41.075
X40.45Y-93.25
X40.647Y-157.021
X40.767Y-124.966
X40.811Y-55.8
X41.2Y-89.5
X41.335Y-47.973
X41.407Y-179.718
X41.491Y-57.649
X41.523Y-126.225
X41.739Y-47.161
X42.297Y-177.271
X42.445Y-166.729
X42.562Y-57.8
X42.611Y-55.8
X42.667Y-28.563
X42.765Y-87.4
X42.927Y-184.941
X43.213Y-142.096
X43.286Y-35.339
X43.797Y-143.021
X44.047Y-137.521
X44.371Y-83.5
X44.7Y-35.525
X44.703Y-146.984
X44.797Y-167.521
X44.845Y-157.489
X44.982Y-138.016
X45.547Y-157.021
X45.68Y-3.075
X45.971Y-87.318
X46.217Y-131.216
X46.217Y-169.716
X46.276Y-46.373
X46.277Y-83.926
X46.365Y-165.013
X46.392Y-127.904
X46.392Y-166.404
X46.617Y-132.783
X46.784Y-66.494
X46.979Y-161.083
X47.016Y-51.025
X47.016Y-55.725
X47.016Y-93.425
X47.292Y-148.716
X47.942Y-129.716
X47.942Y-149.916
X47.942Y-168.466
X48.547Y-146.521
X48.547Y-171.271
X48.592Y-151.116
X48.692Y-129.716
X48.692Y-168.466
X49.226Y-151.942
X49.267Y-164.216
X49.367Y-132.783
X49.367Y-137.283
X49.406Y-35.876
X49.516Y-90.325
X49.683Y-129.617
X50.297Y-137.271
X50.547Y-165.021
X51.106Y-65.501
X51.267Y-147.466
X51.297Y-129.521
X51.547Y-119.771
X51.778Y-73.975
X51.797Y-135.271
X52.313Y-118.156
X52.397Y-117.271
X52.451Y-23.276
X52.523Y-127.545
X52.767Y-128.854
X53.342Y-166.854
X53.497Y-11.125
X53.592Y-141.814
X53.64Y-125.731
X53.982Y-8.925
X54.092Y-143.314
X54.173Y-72.925
X54.547Y-174.771
X55.054Y-125.945
X55.206Y-200.55
X55.504Y-175.216
X55.715Y-182.805
X56.051Y-37.526
X56.13Y-16.875
X56.133Y-197.606
X56.719Y-120.244
X56.947Y-127.021
X56.989Y-41.226
X57.262Y-28.394
X57.297Y-184.021
X57.497Y-194.163
X57.547Y-118.271
X57.745Y-184.705
X57.797Y-160.521
X58.528Y-156.289
X58.547Y-191.771
X58.99Y-49.287
X59.903Y-38.726
X59.95Y-55.25
X60.517Y-174.332
X61.135Y-181.936
X61.24Y-58.287
X61.297Y-177.271
X61.385Y-184.536
X61.514Y-55.385
X61.684Y-163.362
X61.718Y-28.513
X61.901Y-196.249
X62.797Y-141.021
X63.047Y-135.521
X63.047Y-196.271
X63.104Y-35.524
X63.447Y-164.521
X63.673Y-75.025
X63.905Y-136.01
X63.918Y-157.776
X64.0Y-94.0
X64.23Y-198.985
X64.297Y-155.521
X64.547Y-197.771
X64.636Y-4.256
X64.642Y-65.916
X64.7Y-45.25
X64.704Y-155.961
X64.842Y-183.854
X65.047Y-133.521
X65.267Y-174.716
X65.325Y-43.2
X65.43Y-195.985
X65.45Y-75.25
X65.7Y-57.25
X65.786Y-78.888
X65.992Y-183.804
X66.158Y-168.691
X66.185Y-49.439
X66.547Y-200.271
X66.646Y-146.199
X66.7Y-59.5
X66.8Y-42.0
X66.892Y-148.716
X67.45Y-59.5
X67.525Y-44.4
X67.542Y-149.916
X67.542Y-182.966
X67.797Y-146.271
X68.051Y-20.275
X68.192Y-151.116
X68.286Y-81.388
X68.292Y-182.966
X68.297Y-188.771
X68.311Y-138.098
X68.32Y-135.853
X68.45Y-55.0
X68.588Y-128.441
X68.885Y-77.851
X69.047Y-136.021
X69.047Y-184.271
X69.387Y-55.947
X69.536Y-143.03
X69.7Y-32.25
X70.051Y-18.675
X70.295Y-128.591
X70.297Y-121.271
X70.588Y-153.879
X70.7Y-67.5
X70.797Y-116.021
X71.028Y-46.721
X71.137Y-52.447
X71.229Y-38.875
X71.517Y-140.216
X71.7Y-63.5
X71.737Y-88.0
X71.795Y-127.091
X71.85Y-60.7
X71.92Y-55.5
X71.975Y-57.837
X72.017Y-169.966
X72.088Y-152.38
X72.447Y-128.521
X72.477Y-23.738
X72.661Y-11.305
X72.717Y-167.416
X72.797Y-113.771
X72.885Y-63.851
X72.95Y-36.125
X73.125Y-42.0
X73.136Y-76.277
X73.156Y-163.468
X73.24Y-9.305
X73.547Y-170.271
X73.547Y-178.771
X73.768Y-158.101
X73.775Y-43.2
X73.792Y-148.716
X73.825Y-75.981
X73.842Y-140.854
X73.856Y-153.23
X74.392Y-124.404
X74.393Y-163.218
X74.425Y-44.4
X74.442Y-149.916
X74.454Y-139.992
X74.555Y-159.542
X74.567Y-30.158
X74.575Y-76.005
X74.597Y-16.002
X74.897Y-173.021
X75.055Y-182.179
X75.073Y-57.301
X75.092Y-151.116
X75.127Y-118.259
X75.142Y-163.197
X75.154Y-59.8
X75.156Y-71.126
X75.191Y-55.747
X75.2Y-19.0
X75.244Y-62.419
X75.286Y-76.535
X75.45Y-66.75
X75.572Y-156.796
X75.658Y-168.691
X75.807Y-34.222
X75.881Y-126.441
X75.999Y-175.873
X76.112Y-115.71
X76.387Y-55.947
X76.555Y-157.542
X76.63Y-123.516
X76.631Y-126.441
X76.842Y-162.554
X77.047Y-116.521
X77.2Y-81.431
X77.297Y-156.021
X77.532Y-128.434
X77.637Y-57.197
X77.825Y-85.212
X77.877Y-182.292
X78.292Y-162.304
X78.397Y-153.771
X78.441Y-31.628
X78.523Y-78.386
X78.532Y-122.434
X78.711Y-82.325
X78.75Y-80.4
X79.002Y-127.941
X79.089Y-19.324
X79.114Y-121.736
X79.158Y-175.591
X79.297Y-126.021
X79.517Y-163.966
X79.725Y-42.0
X80.047Y-173.771
X80.092Y-95.032
X80.275Y-15.637
X80.275Y-48.137
X80.375Y-20.5
X80.375Y-43.2
X80.822Y-182.824
X80.876Y-62.568
X80.947Y-48.688
X81.0Y-52.62
X81.025Y-44.4
X81.125Y-20.5
X81.146Y-57.746
X81.199Y-178.317
X81.257Y-126.268
X81.547Y-139.771
X81.719Y-36.532
X81.779Y-28.629
X82.047Y-156.771
X82.297Y-134.771
X82.557Y-170.466
X82.575Y-137.591
X82.976Y-87.309
X83.017Y-156.716
X83.267Y-154.466
X83.276Y-182.079
X83.397Y-134.271
X83.557Y-178.466
X83.976Y-84.809
X84.118Y-38.465
X84.173Y-172.779
X84.276Y-178.079
X84.416Y-137.29
X84.418Y-5.658
X84.777Y-169.966
X84.786Y-76.388
X84.837Y-68.231
X85.184Y-22.851
X85.23Y-133.079
X85.35Y-22.0
X85.811Y-48.366
X85.823Y-162.129
X85.988Y-52.554
X86.567Y-200.716
X86.723Y-159.206
X87.017Y-157.716
X87.031Y-55.246
X87.436Y-90.343
X87.517Y-122.466
X87.575Y-137.291
X87.797Y-111.021
X88.14Y-93.339
X88.2Y-53.75
X88.839Y-155.05
X89.444Y-141.773
X89.675Y-138.141
X89.814Y-156.641
X90.047Y-115.771
X90.154Y-120.236
X90.797Y-139.771
X91.147Y-115.271
X91.7Y-83.25
X91.825Y-21.188
X91.892Y-37.097
X92.047Y-178.021
X92.201Y-10.138
X92.7Y-172.229
X92.725Y-42.0
X92.725Y-58.787
X92.797Y-174.771
X92.8Y-24.5
X93.052Y-175.691
X93.277Y-15.093
X93.326Y-20.2
X93.362Y-161.342
X93.375Y-43.2
X93.375Y-58.137
X93.897Y-172.521
X94.025Y-44.4
X94.025Y-58.587
X94.075Y-20.231
X94.468Y-118.828
X94.749Y-36.205
X94.775Y-23.637
X94.885Y-50.0
X95.012Y-84.793
X95.195Y-115.841
X95.295Y-127.091
X95.376Y-58.3
X95.547Y-123.521
X95.689Y-45.2
X95.775Y-46.637
X95.797Y-114.021
X95.797Y-197.771
X96.047Y-116.521
X96.327Y-41.366
X96.35Y-46.892
X97.067Y-195.216
X97.2Y-81.75
X97.547Y-153.771
X97.547Y-191.771
X97.692Y-158.306
X97.775Y-59.637
X98.052Y-173.291
X98.162Y-60.425
X98.27Y-121.942
X98.295Y-123.091
X98.35Y-63.0
X98.55Y-29.213
X98.621Y-57.895
X98.647Y-153.271
X98.977Y-22.829
X99.047Y-173.521
X99.135Y-24.272
X99.547Y-189.771
X99.58Y-50.442
X99.67Y-194.459
X99.683Y-66.388
X100.047Y-170.771
X100.152Y-179.941
X100.226Y-62.101
X100.547Y-139.771
X100.661Y-38.515
X100.833Y-178.042
X101.45Y-21.5
X101.547Y-134.771
X102.118Y-156.728
X102.183Y-69.638
X102.32Y-195.259
X102.397Y-134.271
X102.417Y-155.916
X102.814Y-154.241
X102.864Y-47.825
X103.047Y-198.021
X103.335Y-20.072
X103.44Y-14.5
X103.466Y-137.29
X103.797Y-196.021
X103.903Y-151.497
X104.297Y-120.271
X104.32Y-195.259
X104.337Y-8.669
X104.444Y-188.221
X104.526Y-59.425
X104.913Y-189.353
X104.914Y-161.691
X104.918Y-23.771
X105.026Y-58.175
X105.13Y-132.479
X105.297Y-175.021
X105.547Y-190.521
X105.797Y-160.771
X105.977Y-22.829
X106.047Y-151.771
X106.2Y-27.5
X106.267Y-157.466
X106.267Y-193.966
X106.337Y-10.669
X106.625Y-133.091
X106.625Y-137.291
X107.017Y-199.966
X107.176Y-189.353
X107.235Y-23.873
X107.297Y-187.271
X107.547Y-137.271
X108.087Y-192.041
X108.529Y-55.866
X108.677Y-45.076
X108.725Y-138.141
X109.047Y-194.521
X109.271Y-22.558
X109.797Y-139.771
X111.613Y-165.941
X111.695Y-21.208
X111.897Y-23.575
X112.547Y-190.521
X112.547Y-192.271
X113.081Y-18.878
X113.942Y-77.579
X114.012Y-85.793
X114.245Y-114.041
X114.245Y-115.841
X114.685Y-31.472
X114.7Y-66.25
X114.851Y-45.888
X114.95Y-78.25
X115.131Y-80.681
X115.297Y-186.771
X115.66Y-59.305
X116.13Y-46.625
X116.45Y-9.0
X116.45Y-84.25
X116.716Y-98.524
X116.8Y-97.389
X116.942Y-77.579
X117.047Y-112.271
X117.047Y-114.771
X117.493Y-20.588
X117.517Y-161.216
X117.65Y-78.579
X117.797Y-120.771
X118.149Y-50.878
X118.358Y-113.047
X118.685Y-27.472
X119.297Y-112.771
X119.297Y-116.021
X119.394Y-40.663
X119.45Y-24.0
X119.587Y-176.62
X119.639Y-15.662
X119.647Y-115.271
X119.7Y-21.5
X119.775Y-63.544
X119.797Y-119.021
X120.047Y-123.771
X120.2Y-81.0
X120.297Y-191.771
X120.35Y-26.5
X121.047Y-118.421
X121.622Y-69.855
X121.708Y-160.891
X122.047Y-126.521
X122.185Y-24.972
X122.2Y-41.25
X122.265Y-22.5
X122.3Y-18.3
X122.506Y-195.247
X122.547Y-159.021
X122.609Y-177.992
X122.67Y-84.876
X122.837Y-91.059
X122.95Y-56.5
X123.042Y-57.845
X123.297Y-124.021
X123.351Y-38.888
X123.547Y-119.271
X123.656Y-61.375
X123.782Y-99.01
X123.797Y-153.771
X123.797Y-172.771
X123.845Y-28.875
X124.152Y-63.262
X124.547Y-139.771
X124.547Y-196.021
X124.547Y-198.271
X124.652Y-54.762
X124.897Y-153.271
X124.897Y-172.521
X124.97Y-83.579
X125.297Y-134.771
X125.297Y-197.021
X125.5Y-39.5
X125.639Y-17.662
X125.849Y-175.39
X125.998Y-81.548
X126.182Y-196.517
X126.397Y-134.271
X126.45Y-57.0
X127.021Y-73.534
X127.047Y-192.521
X127.278Y-137.29
X127.351Y-29.388
X127.4Y-52.5
X128.0Y-42.0
X128.0Y-59.5
X128.547Y-119.521
X129.008Y-153.941
X129.008Y-156.741
X129.008Y-175.391
X129.2Y-43.2
X129.2Y-60.5
X129.2Y-85.026
X129.613Y-157.441
X129.613Y-161.341
X129.874Y-51.026
X129.883Y-20.671
X130.047Y-156.521
X130.047Y-175.521
X130.437Y-133.091
X130.437Y-137.291
X130.58Y-17.429
X131.297Y-137.271
X131.497Y-193.771
X131.5Y-44.4
X131.5Y-61.5
X132.034Y-161.065
X132.35Y-192.041
X132.537Y-138.141
X133.047Y-161.271
X133.547Y-139.771
X134.0Y-53.5
X135.109Y-25.666
X135.109Y-58.5
X135.109Y-83.376
X135.109Y-99.01
X136.0Y-57.5
X136.0Y-62.5
X137.5Y-39.5
X137.6Y-55.5
X139.2Y-68.25
M30
