M48
; DRILL file KiCad 10.0.5 date 2026-10-05T15:12:23
; FORMAT={-:-/ absolute / metric / decimal}
; #@! TF.CreationDate,2026-10-05T15:12:23-04:00
; #@! TF.GenerationSoftware,Kicad,Pcbnew,10.0.5
; #@! TF.FileFunction,NonPlated,1,2,NPTH
FMAT,2
METRIC
; #@! TA.AperFunction,NonPlated,NPTH,ComponentDrill
T1C0.500
; #@! TA.AperFunction,NonPlated,NPTH,ComponentDrill
T2C1.750
; #@! TA.AperFunction,NonPlated,NPTH,ComponentDrill
T3C2.000
; #@! TA.AperFunction,NonPlated,NPTH,ComponentDrill
T4C2.200
; #@! TA.AperFunction,NonPlated,NPTH,ComponentDrill
T5C3.048
; #@! TA.AperFunction,NonPlated,NPTH,ComponentDrill
T6C3.988
%
G90
G05
T1
X-0.603Y-51.162
X-0.603Y-51.912
X-0.603Y-52.662
X-0.603Y-53.412
X-0.603Y-54.162
X0.826Y-157.879
X0.826Y-158.629
X0.826Y-159.379
X0.826Y-160.129
X0.826Y-160.879
X31.602Y-0.35
X31.602Y-103.343
X31.602Y-207.792
X32.352Y-0.35
X32.352Y-103.343
X32.352Y-207.792
X33.102Y-0.35
X33.102Y-103.343
X33.102Y-207.792
X33.852Y-0.35
X33.852Y-103.343
X33.852Y-207.792
X34.602Y-0.35
X34.602Y-103.343
X34.602Y-207.792
X70.993Y-0.659
X70.993Y-101.142
X70.993Y-201.626
X71.743Y-0.659
X71.743Y-101.142
X71.743Y-201.626
X72.493Y-0.659
X72.493Y-101.142
X72.493Y-201.626
X73.243Y-0.659
X73.243Y-101.142
X73.243Y-201.626
X73.993Y-0.659
X73.993Y-101.142
X73.993Y-201.626
X110.383Y-5.065
X110.383Y-104.071
X110.383Y-201.621
X111.133Y-5.065
X111.133Y-104.071
X111.133Y-201.621
X111.883Y-5.065
X111.883Y-104.071
X111.883Y-201.621
X112.633Y-5.065
X112.633Y-104.071
X112.633Y-201.621
X113.383Y-5.065
X113.383Y-104.071
X113.383Y-201.621
X144.16Y-51.162
X144.16Y-51.912
X144.16Y-52.662
X144.16Y-53.412
X144.16Y-54.162
X145.588Y-157.879
X145.588Y-158.629
X145.588Y-159.379
X145.588Y-160.129
X145.588Y-160.879
T2
X4.7Y-144.712
X8.73Y-9.525
X10.635Y-85.725
X11.588Y-28.575
X12.056Y-124.412
X13.017Y-47.625
X13.017Y-66.675
X14.735Y-143.122
X15.425Y-181.622
X18.406Y-200.436
X18.89Y-9.525
X18.899Y-161.586
X20.795Y-85.725
X21.748Y-28.575
X22.091Y-122.823
X23.177Y-47.625
X23.177Y-66.675
X23.509Y-141.724
X25.46Y-180.033
X27.78Y-9.525
X28.441Y-198.847
X28.934Y-159.997
X30.86Y-121.421
X33.544Y-140.135
X34.264Y-178.637
X35.4Y-28.575
X37.702Y-158.609
X37.94Y-9.525
X39.211Y-47.625
X39.211Y-85.725
X40.895Y-119.831
X42.193Y-138.564
X43.973Y-66.675
X44.298Y-177.048
X45.56Y-28.575
X46.83Y-9.525
X47.737Y-157.02
X49.371Y-47.625
X49.371Y-85.725
X49.544Y-118.725
X52.297Y-137.502
X52.735Y-175.785
X54.133Y-66.675
X54.451Y-28.576
X54.727Y-194.73
X56.174Y-156.142
X56.99Y-9.525
X59.481Y-47.57
X59.648Y-117.663
X61.136Y-136.579
X62.839Y-174.723
X62.876Y-66.883
X64.611Y-28.576
X64.831Y-193.668
X65.922Y-9.502
X66.278Y-155.08
X68.919Y-116.75
X69.627Y-48.102
X71.24Y-135.517
X71.964Y-174.132
X73.022Y-67.414
X73.746Y-28.801
X75.357Y-154.82
X76.068Y-10.034
X78.707Y-48.364
X79.065Y-116.219
X80.155Y-86.952
X80.375Y-135.291
X82.11Y-173.601
X82.146Y-68.006
X83.85Y-29.863
X85.337Y-10.947
X85.503Y-154.288
X87.995Y-116.241
X88.811Y-49.426
X90.259Y-88.014
X90.535Y-135.291
X90.852Y-173.391
X90.852Y-192.441
X92.251Y-69.068
X92.688Y-30.784
X95.442Y-12.009
X95.614Y-154.341
X97.249Y-50.302
X98.155Y-116.241
X99.425Y-135.291
X100.687Y-70.333
X101.012Y-173.391
X101.012Y-192.441
X102.792Y-31.846
X104.091Y-13.114
X105.774Y-154.341
X107.045Y-116.241
X107.284Y-51.891
X109.585Y-135.291
X109.902Y-173.391
X109.902Y-192.441
X110.722Y-71.922
X111.44Y-33.417
X114.126Y-14.703
X116.053Y-53.281
X116.545Y-92.13
X117.205Y-116.241
X119.527Y-73.316
X120.062Y-173.391
X120.062Y-192.441
X121.474Y-35.007
X121.808Y-154.341
X122.894Y-16.107
X123.237Y-135.291
X126.088Y-54.87
X126.095Y-116.241
X126.579Y-93.72
X128.952Y-192.441
X129.561Y-74.906
X130.252Y-36.407
X131.333Y-173.391
X131.968Y-154.341
X132.929Y-17.696
X133.397Y-135.291
X136.255Y-116.241
X139.112Y-192.441
X140.287Y-37.996
X141.493Y-173.391
T3
X-6.153Y-60.454
X-6.153Y-151.587
X151.138Y-60.454
X151.138Y-151.587
T4
X9.567Y-155.716
X28.0Y-22.0
X38.0Y-66.0
X46.567Y-198.716
X100.0Y-92.0
X115.567Y-127.716
X137.0Y-50.0
X141.567Y-150.716
T5
X6.191Y-59.69
X12.756Y-208.403
X30.003Y-59.69
X36.276Y-204.678
X108.71Y-97.961
X132.229Y-101.687
T6
X6.191Y-74.93
X10.372Y-193.351
X30.003Y-74.93
X33.892Y-189.626
X111.094Y-82.909
X134.613Y-86.634
M30
