M48
; DRILL file KiCad 10.0.5 date 2026-09-22T21:49:22
; FORMAT={-:-/ absolute / metric / decimal}
; #@! TF.CreationDate,2026-09-22T21:49:22-04:00
; #@! TF.GenerationSoftware,Kicad,Pcbnew,10.0.5
; #@! TF.FileFunction,Plated,1,2,PTH
FMAT,2
METRIC
; #@! TA.AperFunction,Plated,PTH,ViaDrill
T1C0.300
%
G90
G05
T1
X3.429Y-75.814
X3.797Y-1.75
X4.893Y-48.227
X4.998Y-1.255
X6.73Y-3.45
X7.823Y-53.467
X8.239Y-54.461
X8.873Y-46.727
X9.104Y-58.749
X9.147Y-41.404
X9.747Y-43.204
X10.579Y-86.589
X11.224Y-46.413
X12.244Y-31.144
X15.034Y-87.805
X15.067Y-47.725
X15.376Y-55.996
X15.397Y-23.482
X16.297Y-87.804
X16.503Y-19.08
X16.567Y-46.862
X16.577Y-12.433
X16.767Y-74.521
X17.5Y-45.003
X17.647Y-30.086
X18.318Y-90.306
X18.659Y-31.477
X18.848Y-75.624
X18.99Y-14.875
X19.173Y-80.312
X19.443Y-19.198
X19.797Y-91.554
X20.255Y-88.675
X20.459Y-19.732
X20.662Y-36.79
X20.719Y-22.775
X20.797Y-90.554
X22.187Y-57.235
X22.439Y-55.515
X22.788Y-38.674
X23.472Y-82.269
X24.177Y-50.64
X24.217Y-71.22
X25.047Y-88.054
X25.271Y-79.867
X26.259Y-3.375
X26.5Y-45.75
X28.485Y-41.575
X28.876Y-47.835
X29.471Y-83.72
X29.743Y-41.569
X29.75Y-42.5
X29.92Y-86.836
X31.0Y-41.75
X31.025Y-46.95
X31.529Y-52.054
X31.634Y-48.432
X32.297Y-32.804
X32.343Y-79.374
X32.479Y-30.783
X32.888Y-40.362
X32.96Y-48.004
X33.397Y-19.732
X33.52Y-92.723
X33.553Y-40.998
X33.734Y-88.632
X34.086Y-47.015
X34.336Y-48.985
X34.763Y-12.528
X34.823Y-40.984
X34.845Y-31.78
X34.901Y-32.682
X35.154Y-92.859
X35.865Y-89.853
X36.093Y-44.115
X36.142Y-35.938
X36.244Y-39.692
X36.716Y-52.757
X36.965Y-6.026
X37.714Y-35.603
X37.889Y-19.732
X38.755Y-79.55
X38.758Y-38.717
X40.587Y-46.008
X41.191Y-83.7
X41.334Y-52.19
X42.237Y-56.147
X42.389Y-3.041
X42.905Y-31.78
X43.33Y-19.732
X43.38Y-60.933
X45.88Y-3.041
X46.101Y-48.592
X46.126Y-23.873
X46.515Y-34.205
X47.923Y-14.605
X48.615Y-51.929
X49.185Y-14.125
X49.234Y-35.041
X51.274Y-92.56
X51.873Y-77.096
X52.597Y-37.1
X52.689Y-38.732
X52.864Y-74.035
X52.915Y-80.066
X53.131Y-10.783
X53.665Y-89.816
X54.003Y-74.022
X54.195Y-4.428
X55.018Y-6.845
X55.416Y-67.698
X55.896Y-58.701
X56.78Y-32.706
X57.09Y-14.875
X57.856Y-36.752
X58.373Y-72.325
X59.722Y-28.68
X61.034Y-65.829
X61.592Y-52.287
X61.811Y-31.483
X62.546Y-49.548
X63.623Y-73.825
X64.061Y-64.8
X64.285Y-3.331
X65.259Y-69.088
X65.468Y-50.909
X66.276Y-81.522
X67.273Y-10.742
X67.606Y-62.777
X68.227Y-64.236
X69.023Y-55.411
X69.091Y-61.085
X69.352Y-63.664
X69.578Y-70.26
X70.0Y-79.5
X70.114Y-75.535
X70.935Y-26.357
X70.973Y-81.522
X71.009Y-86.505
X71.273Y-37.086
X71.507Y-66.889
X72.435Y-72.528
X72.587Y-63.38
X72.679Y-83.488
X73.447Y-87.154
X73.5Y-78.0
X73.513Y-83.488
X73.896Y-88.634
X73.997Y-84.054
X74.125Y-4.752
X74.245Y-82.613
X74.273Y-25.489
X74.5Y-80.0
X74.64Y-70.337
X75.044Y-83.173
X75.625Y-20.482
X76.053Y-81.546
X76.646Y-22.969
X77.297Y-90.054
X77.323Y-83.488
X78.457Y-83.276
X78.492Y-37.22
X78.797Y-78.304
X79.252Y-57.583
X80.146Y-26.03
X80.742Y-81.774
X82.336Y-73.499
X83.977Y-22.201
X84.547Y-5.804
X85.047Y-88.504
X85.547Y-58.054
X86.227Y-52.253
X87.396Y-41.481
X88.896Y-23.481
X89.159Y-13.494
X89.547Y-58.054
X89.547Y-92.554
X90.047Y-11.304
X90.165Y-67.965
X90.434Y-59.879
X90.626Y-72.232
X91.64Y-20.831
X91.641Y-12.746
X92.681Y-24.451
X93.626Y-69.982
X93.826Y-6.957
X94.419Y-32.486
X94.674Y-66.397
X94.797Y-36.554
X95.458Y-20.482
X97.576Y-41.509
X98.047Y-30.304
X98.562Y-57.595
X99.174Y-71.006
X99.327Y-39.926
X99.41Y-90.511
X100.982Y-66.218
X102.482Y-68.756
X103.291Y-62.415
X105.797Y-18.554
X106.745Y-47.308
X107.797Y-26.304
X108.047Y-21.804
X108.285Y-27.176
X108.999Y-80.868
X109.067Y-14.631
X109.938Y-27.015
X111.251Y-35.337
X111.797Y-22.304
X116.047Y-97.304
X116.16Y-57.592
X116.259Y-59.693
X117.184Y-61.205
X117.382Y-97.105
X117.697Y-79.389
X119.529Y-38.2
X122.058Y-92.85
X122.428Y-74.194
X122.607Y-55.968
X122.919Y-38.247
X123.047Y-84.804
X123.047Y-94.804
X123.074Y-67.65
X124.797Y-20.054
X125.967Y-63.859
X126.811Y-74.194
X128.163Y-17.398
X128.297Y-19.054
X128.313Y-79.597
X128.449Y-65.638
X129.285Y-39.176
X129.351Y-25.682
X130.247Y-65.1
X131.519Y-67.182
X131.669Y-58.046
X134.515Y-62.414
X135.293Y-54.772
X135.316Y-40.134
X135.344Y-36.366
X136.629Y-46.165
X137.486Y-61.024
X137.491Y-54.068
X137.547Y-56.054
X138.547Y-49.304
X141.185Y-60.978
M30
