%TF.GenerationSoftware,KiCad,Pcbnew,10.0.5*%
%TF.CreationDate,2026-09-21T10:23:01-04:00*%
%TF.ProjectId,Symm60HE-three-key-left-wkl-right-bs2-Left,53796d6d-3630-4484-952d-74687265652d,rev?*%
%TF.SameCoordinates,Original*%
%TF.FileFunction,Soldermask,Bot*%
%TF.FilePolarity,Negative*%
%FSLAX46Y46*%
G04 Gerber Fmt 4.6, Leading zero omitted, Abs format (unit mm)*
G04 Created by KiCad (PCBNEW 10.0.5) date 2026-09-21 10:23:01*
%MOMM*%
%LPD*%
G01*
G04 APERTURE LIST*
G04 Aperture macros list*
%AMRoundRect*
0 Rectangle with rounded corners*
0 $1 Rounding radius*
0 $2 $3 $4 $5 $6 $7 $8 $9 X,Y pos of 4 corners*
0 Add a 4 corners polygon primitive as box body*
4,1,4,$2,$3,$4,$5,$6,$7,$8,$9,$2,$3,0*
0 Add four circle primitives for the rounded corners*
1,1,$1+$1,$2,$3*
1,1,$1+$1,$4,$5*
1,1,$1+$1,$6,$7*
1,1,$1+$1,$8,$9*
0 Add four rect primitives between the rounded corners*
20,1,$1+$1,$2,$3,$4,$5,0*
20,1,$1+$1,$4,$5,$6,$7,0*
20,1,$1+$1,$6,$7,$8,$9,0*
20,1,$1+$1,$8,$9,$2,$3,0*%
G04 Aperture macros list end*
%ADD10C,3.048000*%
%ADD11C,3.987800*%
%ADD12C,2.200000*%
%ADD13RoundRect,0.150000X-0.150000X0.512500X-0.150000X-0.512500X0.150000X-0.512500X0.150000X0.512500X0*%
%ADD14RoundRect,0.140000X-0.134676X-0.174248X0.145190X-0.165590X0.134676X0.174248X-0.145190X0.165590X0*%
%ADD15RoundRect,0.140000X-0.140362X-0.169702X0.139638X-0.170298X0.140362X0.169702X-0.139638X0.170298X0*%
%ADD16RoundRect,0.150000X-0.148908X0.512818X-0.151091X-0.512179X0.148908X-0.512818X0.151091X0.512179X0*%
%ADD17RoundRect,0.140000X-0.124613X-0.181581X0.154317X-0.157119X0.124613X0.181581X-0.154317X0.157119X0*%
%ADD18RoundRect,0.150000X0.150000X-0.825000X0.150000X0.825000X-0.150000X0.825000X-0.150000X-0.825000X0*%
%ADD19RoundRect,0.140000X-0.125969X-0.180643X0.153136X-0.158270X0.125969X0.180643X-0.153136X0.158270X0*%
%ADD20RoundRect,0.140000X-0.136705X-0.172661X0.143244X-0.167276X0.136705X0.172661X-0.143244X0.167276X0*%
%ADD21RoundRect,0.140000X-0.151152X-0.160166X0.128210X-0.179059X0.151152X0.160166X-0.128210X0.179059X0*%
%ADD22RoundRect,0.140000X-0.140000X-0.170000X0.140000X-0.170000X0.140000X0.170000X-0.140000X0.170000X0*%
%ADD23RoundRect,0.150000X-0.144042X0.514206X-0.155938X-0.510725X0.144042X-0.514206X0.155938X0.510725X0*%
%ADD24RoundRect,0.140000X-0.140089X-0.169927X0.139911X-0.170073X0.140089X0.169927X-0.139911X0.170073X0*%
%ADD25RoundRect,0.205000X-0.484877X-0.166790X0.452117X-0.241899X0.484877X0.166790X-0.452117X0.241899X0*%
%ADD26RoundRect,0.140000X-0.149559X-0.161654X0.129976X-0.177782X0.149559X0.161654X-0.129976X0.177782X0*%
%ADD27RoundRect,0.140000X-0.121556X-0.183641X0.156925X-0.154514X0.121556X0.183641X-0.156925X0.154514X0*%
%ADD28RoundRect,0.205000X-0.476114X-0.190368X0.463436X-0.219435X0.476114X0.190368X-0.463436X0.219435X0*%
%ADD29RoundRect,0.150000X-0.130351X0.517846X-0.169431X-0.506408X0.130351X-0.517846X0.169431X0.506408X0*%
%ADD30RoundRect,0.140000X-0.145190X-0.165590X0.134676X-0.174248X0.145190X0.165590X-0.134676X0.174248X0*%
%ADD31RoundRect,0.140000X-0.119955X-0.184691X0.158262X-0.153144X0.119955X0.184691X-0.158262X0.153144X0*%
%ADD32RoundRect,0.140000X-0.119856X-0.184756X0.158345X-0.153059X0.119856X0.184756X-0.158345X0.153059X0*%
%ADD33RoundRect,0.140000X-0.139638X-0.170298X0.140362X-0.169702X0.139638X0.170298X-0.140362X0.169702X0*%
%ADD34RoundRect,0.140000X-0.158345X-0.153059X0.119856X-0.184756X0.158345X0.153059X-0.119856X0.184756X0*%
%ADD35RoundRect,0.140000X-0.154317X-0.157119X0.124613X-0.181581X0.154317X0.157119X-0.124613X0.181581X0*%
%ADD36RoundRect,0.205000X-0.489572X-0.152460X0.444809X-0.255089X0.489572X0.152460X-0.444809X0.255089X0*%
%ADD37RoundRect,0.150000X-0.120232X0.520289X-0.179270X-0.503009X0.120232X-0.520289X0.179270X0.503009X0*%
%ADD38RoundRect,0.140000X-0.138018X-0.171613X0.141964X-0.168364X0.138018X0.171613X-0.141964X0.168364X0*%
%ADD39RoundRect,0.205000X-0.477474X-0.186932X0.461842X-0.222770X0.477474X0.186932X-0.461842X0.222770X0*%
%ADD40RoundRect,0.140000X-0.120603X-0.184269X0.157724X-0.153699X0.120603X0.184269X-0.157724X0.153699X0*%
%ADD41RoundRect,0.140000X-0.145207X-0.165574X0.134658X-0.174262X0.145207X0.165574X-0.134658X0.174262X0*%
%ADD42RoundRect,0.150000X-0.115077X0.521453X-0.184239X-0.501211X0.115077X-0.521453X0.184239X0.501211X0*%
%ADD43RoundRect,0.150000X-0.134026X0.516907X-0.165829X-0.507599X0.134026X-0.516907X0.165829X0.507599X0*%
%ADD44RoundRect,0.140000X-0.134658X-0.174262X0.145207X-0.165574X0.134658X0.174262X-0.145207X0.165574X0*%
%ADD45RoundRect,0.150000X-0.091019X0.526186X-0.207052X-0.492225X0.091019X-0.526186X0.207052X0.492225X0*%
%ADD46RoundRect,0.205000X-0.470000X-0.205000X0.470000X-0.205000X0.470000X0.205000X-0.470000X0.205000X0*%
%ADD47RoundRect,0.140000X-0.158262X-0.153144X0.119955X-0.184691X0.158262X0.153144X-0.119955X0.184691X0*%
%ADD48RoundRect,0.140000X-0.133417X-0.175214X0.146380X-0.164539X0.133417X0.175214X-0.146380X0.164539X0*%
%ADD49RoundRect,0.150000X-0.149732X0.512578X-0.150268X-0.512421X0.149732X-0.512578X0.150268X0.512421X0*%
%ADD50RoundRect,0.205000X-0.476134X-0.190319X0.463413X-0.219484X0.476134X0.190319X-0.463413X0.219484X0*%
%ADD51RoundRect,0.150000X-0.950000X0.150000X-0.950000X-0.150000X0.950000X-0.150000X0.950000X0.150000X0*%
%ADD52RoundRect,0.360000X-0.940000X0.540000X-0.940000X-0.540000X0.940000X-0.540000X0.940000X0.540000X0*%
%ADD53RoundRect,0.205000X-0.470107X-0.204754X0.469893X-0.205246X0.470107X0.204754X-0.469893X0.205246X0*%
%ADD54RoundRect,0.205000X-0.490185X-0.150477X0.443772X-0.256888X0.490185X0.150477X-0.443772X0.256888X0*%
%ADD55RoundRect,0.205000X-0.470435X-0.203999X0.469562X-0.206000X0.470435X0.203999X-0.469562X0.206000X0*%
%ADD56RoundRect,0.205000X-0.481027X-0.177588X0.457412X-0.231731X0.481027X0.177588X-0.457412X0.231731X0*%
%ADD57RoundRect,0.205000X-0.482761X-0.172819X0.455096X-0.236246X0.482761X0.172819X-0.455096X0.236246X0*%
%ADD58RoundRect,0.140000X-0.146380X-0.164539X0.133417X-0.175214X0.146380X0.164539X-0.133417X0.175214X0*%
%ADD59RoundRect,0.150000X-0.134081X0.516893X-0.165776X-0.507617X0.134081X-0.516893X0.165776X0.507617X0*%
%ADD60RoundRect,0.140000X-0.153136X-0.158270X0.125969X-0.180643X0.153136X0.158270X-0.125969X0.180643X0*%
%ADD61RoundRect,0.205000X-0.472348X-0.199531X0.467589X-0.210441X0.472348X0.199531X-0.467589X0.210441X0*%
%ADD62RoundRect,0.140000X-0.156925X-0.154514X0.121556X-0.183641X0.156925X0.154514X-0.121556X0.183641X0*%
%ADD63RoundRect,0.150000X-0.091304X0.526137X-0.206786X-0.492337X0.091304X-0.526137X0.206786X0.492337X0*%
%ADD64RoundRect,0.140000X-0.157724X-0.153699X0.120603X-0.184269X0.157724X0.153699X-0.120603X0.184269X0*%
%ADD65RoundRect,0.140000X-0.129976X-0.177782X0.149559X-0.161654X0.129976X0.177782X-0.149559X0.161654X0*%
%ADD66RoundRect,0.140000X-0.128210X-0.179059X0.151152X-0.160166X0.128210X0.179059X-0.151152X0.160166X0*%
%ADD67RoundRect,0.140000X-0.139911X-0.170073X0.140089X-0.169927X0.139911X0.170073X-0.140089X0.169927X0*%
%ADD68RoundRect,0.140000X-0.143244X-0.167276X0.136705X-0.172661X0.143244X0.167276X-0.136705X0.172661X0*%
%ADD69RoundRect,0.150000X-0.093149X0.525813X-0.205058X-0.493059X0.093149X-0.525813X0.205058X0.493059X0*%
%ADD70RoundRect,0.150000X-0.096020X0.525296X-0.202361X-0.494172X0.096020X-0.525296X0.202361X0.494172X0*%
%ADD71RoundRect,0.205000X-0.473856X-0.195923X0.465970X-0.214001X0.473856X0.195923X-0.465970X0.214001X0*%
%ADD72RoundRect,0.150000X-0.140116X0.515290X-0.159829X-0.509520X0.140116X-0.515290X0.159829X0.509520X0*%
%ADD73RoundRect,0.140000X-0.156882X-0.154558X0.121607X-0.183607X0.156882X0.154558X-0.121607X0.183607X0*%
%ADD74RoundRect,0.150000X-0.095873X0.525323X-0.202499X-0.494116X0.095873X-0.525323X0.202499X0.494116X0*%
%ADD75RoundRect,0.150000X-0.108570X0.522847X-0.190471X-0.498876X0.108570X-0.522847X0.190471X0.498876X0*%
%ADD76RoundRect,0.150000X-0.104652X0.523645X-0.194201X-0.497436X0.104652X-0.523645X0.194201X0.497436X0*%
%ADD77RoundRect,0.205000X-0.488732X-0.155133X0.446196X-0.252655X0.488732X0.155133X-0.446196X0.252655X0*%
%ADD78RoundRect,0.205000X-0.490104X-0.150742X0.443911X-0.256648X0.490104X0.150742X-0.443911X0.256648X0*%
%ADD79RoundRect,0.205000X-0.488775X-0.154996X0.446125X-0.252780X0.488775X0.154996X-0.446125X0.252780X0*%
%ADD80RoundRect,0.135000X-0.135000X-0.185000X0.135000X-0.185000X0.135000X0.185000X-0.135000X0.185000X0*%
%ADD81RoundRect,0.140000X-0.141964X-0.168364X0.138018X-0.171613X0.141964X0.168364X-0.138018X0.171613X0*%
%ADD82RoundRect,0.205000X-0.486113X-0.163155X0.450293X-0.245277X0.486113X0.163155X-0.450293X0.245277X0*%
G04 APERTURE END LIST*
D10*
%TO.C,SL2*%
X132228970Y-101686551D03*
D11*
X134613031Y-86634181D03*
D10*
X108709641Y-97961455D03*
D11*
X111093702Y-82909085D03*
%TD*%
D10*
%TO.C,SL1*%
X30003250Y-73660000D03*
D11*
X30003250Y-58420000D03*
D10*
X6190750Y-73660000D03*
D11*
X6190750Y-58420000D03*
%TD*%
D12*
%TO.C,MHL4*%
X100000000Y-92000000D03*
%TD*%
%TO.C,MHL3*%
X137000000Y-50000000D03*
%TD*%
%TO.C,MHL1*%
X28000000Y-22000000D03*
%TD*%
%TO.C,MHL2*%
X38000000Y-66000000D03*
%TD*%
D13*
%TO.C,HEL16*%
X43153500Y-48575000D03*
X43153500Y-46675000D03*
X45428500Y-47625000D03*
%TD*%
D14*
%TO.C,CL24B*%
X92561741Y-76068531D03*
X93520859Y-76109669D03*
%TD*%
D15*
%TO.C,CRGBL4*%
X75564858Y-3197979D03*
X76523542Y-3248221D03*
%TD*%
D16*
%TO.C,HEL4*%
X69809140Y-10656966D03*
X69908578Y-8759570D03*
X72130741Y-9827332D03*
%TD*%
D17*
%TO.C,CL6B*%
X114068277Y-21764278D03*
X115028123Y-21747122D03*
%TD*%
D18*
%TO.C,AML3*%
X63473000Y-71025000D03*
X64743000Y-71025000D03*
X66013000Y-71025000D03*
X67283000Y-71025000D03*
X68553000Y-71025000D03*
X69823000Y-71025000D03*
X71093000Y-71025000D03*
X72363000Y-71025000D03*
X72363000Y-75975000D03*
X71093000Y-75975000D03*
X69823000Y-75975000D03*
X68553000Y-75975000D03*
X67283000Y-75975000D03*
X66013000Y-75975000D03*
X64743000Y-75975000D03*
X63473000Y-75975000D03*
%TD*%
D19*
%TO.C,CL25B*%
X105571000Y-73913000D03*
X106531000Y-73913000D03*
%TD*%
D20*
%TO.C,CL18B*%
X89122453Y-56415122D03*
X90080347Y-56478678D03*
%TD*%
D21*
%TO.C,CRGBL19*%
X48510600Y-40024498D03*
X49470600Y-40024502D03*
%TD*%
D22*
%TO.C,CL22A*%
X41973000Y-59775000D03*
X42933000Y-59775000D03*
%TD*%
%TO.C,CRGBL15*%
X126426910Y-47229709D03*
X127375090Y-47379891D03*
%TD*%
%TO.C,CL2B*%
X38980000Y-16425000D03*
X39940000Y-16425000D03*
%TD*%
%TO.C,CL8A*%
X9588000Y-21675000D03*
X10548000Y-21675000D03*
%TD*%
D23*
%TO.C,HEL11*%
X77567429Y-30157695D03*
X77766033Y-28268103D03*
X79929269Y-29450701D03*
%TD*%
D22*
%TO.C,CL16A*%
X37211000Y-39475000D03*
X38171000Y-39475000D03*
%TD*%
D24*
%TO.C,CRGBL22*%
X53274000Y-59074500D03*
X54234000Y-59074500D03*
%TD*%
D22*
%TO.C,CL16B*%
X50411000Y-54525000D03*
X51371000Y-54525000D03*
%TD*%
%TO.C,CML2*%
X38991000Y-43649000D03*
X39951000Y-43649000D03*
%TD*%
%TO.C,CRGBL10*%
X63750800Y-20975800D03*
X64710800Y-20975800D03*
%TD*%
%TO.C,CL8B*%
X22788000Y-35475000D03*
X23748000Y-35475000D03*
%TD*%
D25*
%TO.C,DL25*%
X104319675Y-62454350D03*
X104085023Y-63935882D03*
X109467925Y-64788450D03*
X109702577Y-63306918D03*
%TD*%
D26*
%TO.C,CRGBL8*%
X102731528Y-24197726D03*
X103686272Y-24298074D03*
%TD*%
D27*
%TO.C,CL13A*%
X110538333Y-26389136D03*
X111497067Y-26339864D03*
%TD*%
D22*
%TO.C,CL10B*%
X65650800Y-35475700D03*
X66610800Y-35475700D03*
%TD*%
D28*
%TO.C,DL21*%
X15372600Y-58324901D03*
X15372597Y-59824900D03*
X20822600Y-59824899D03*
X20822603Y-58324900D03*
%TD*%
D29*
%TO.C,HEL5*%
X89159029Y-12303895D03*
X89357633Y-10414303D03*
X91520869Y-11596901D03*
%TD*%
D30*
%TO.C,CRGBL21*%
X22317598Y-59075000D03*
X23277602Y-59075000D03*
%TD*%
D31*
%TO.C,CL26B*%
X129504533Y-81991465D03*
X130462267Y-81925535D03*
%TD*%
D32*
%TO.C,CL14A*%
X129351369Y-29387783D03*
X130309031Y-29320817D03*
%TD*%
D22*
%TO.C,CRGBL16*%
X107623910Y-44250709D03*
X108572090Y-44400891D03*
%TD*%
D33*
%TO.C,CL4A*%
X64285455Y-2508820D03*
X65244345Y-2554980D03*
%TD*%
D34*
%TO.C,CRGBL7*%
X133143010Y-10845709D03*
X134091190Y-10995891D03*
%TD*%
D22*
%TO.C,CL15A*%
X11017000Y-40725000D03*
X11977000Y-40725000D03*
%TD*%
D18*
%TO.C,AML1*%
X36863000Y-50475000D03*
X35593000Y-50475000D03*
X34323000Y-50475000D03*
X33053000Y-50475000D03*
X31783000Y-50475000D03*
X30513000Y-50475000D03*
X29243000Y-50475000D03*
X27973000Y-50475000D03*
X27973000Y-45525000D03*
X29243000Y-45525000D03*
X30513000Y-45525000D03*
X31783000Y-45525000D03*
X33053000Y-45525000D03*
X34323000Y-45525000D03*
X35593000Y-45525000D03*
X36863000Y-45525000D03*
%TD*%
D33*
%TO.C,CL4B*%
X76745155Y-16980620D03*
X77704045Y-17026780D03*
%TD*%
D35*
%TO.C,CRGBL6*%
X114340710Y-7852109D03*
X115288890Y-8002291D03*
%TD*%
D22*
%TO.C,CL27B*%
X17073000Y-92625000D03*
X18033000Y-92625000D03*
%TD*%
D36*
%TO.C,DL20*%
X15372300Y-39274700D03*
X15372300Y-40774700D03*
X20822300Y-40774700D03*
X20822300Y-39274700D03*
%TD*%
D13*
%TO.C,HEL15*%
X16959500Y-48575000D03*
X16959500Y-46675000D03*
X19234500Y-47625000D03*
%TD*%
D37*
%TO.C,HEL12*%
X96509629Y-32140895D03*
X96708233Y-30251303D03*
X98871469Y-31433901D03*
%TD*%
D22*
%TO.C,CL9B*%
X46600000Y-35475000D03*
X47560000Y-35475000D03*
%TD*%
%TO.C,CL21A*%
X11017000Y-59775000D03*
X11977000Y-59775000D03*
%TD*%
%TO.C,CL1A*%
X6730000Y-2625000D03*
X7690000Y-2625000D03*
%TD*%
D27*
%TO.C,CL13B*%
X121417033Y-42084136D03*
X122375767Y-42034864D03*
%TD*%
D38*
%TO.C,CL11A*%
X72476994Y-21740720D03*
X73433806Y-21818880D03*
%TD*%
D20*
%TO.C,CL18A*%
X77437153Y-41310922D03*
X78395047Y-41374478D03*
%TD*%
D39*
%TO.C,DL5*%
X88468824Y-3684470D03*
X88312029Y-5176251D03*
X93732176Y-5745930D03*
X93888971Y-4254149D03*
%TD*%
D13*
%TO.C,HEL27*%
X12090500Y-84775000D03*
X12090500Y-86675000D03*
X9815500Y-85725000D03*
%TD*%
%TO.C,HEL29*%
X28865500Y-86675000D03*
X28865500Y-84775000D03*
X31140500Y-85725000D03*
%TD*%
D22*
%TO.C,CL17A*%
X57845158Y-40575179D03*
X58803842Y-40625421D03*
%TD*%
D40*
%TO.C,CL20B*%
X126030514Y-61952804D03*
X126988686Y-61893596D03*
%TD*%
D18*
%TO.C,AML2*%
X37363000Y-42475000D03*
X36093000Y-42475000D03*
X34823000Y-42475000D03*
X33553000Y-42475000D03*
X32283000Y-42475000D03*
X31013000Y-42475000D03*
X29743000Y-42475000D03*
X28473000Y-42475000D03*
X28473000Y-37525000D03*
X29743000Y-37525000D03*
X31013000Y-37525000D03*
X32283000Y-37525000D03*
X33553000Y-37525000D03*
X34823000Y-37525000D03*
X36093000Y-37525000D03*
X37363000Y-37525000D03*
%TD*%
D41*
%TO.C,CRGBL30*%
X80849628Y-79382826D03*
X81804372Y-79483174D03*
%TD*%
D22*
%TO.C,CRGBL11*%
X44700000Y-20975000D03*
X45660000Y-20975000D03*
%TD*%
D42*
%TO.C,HEL19*%
X100994492Y-51856760D03*
X101291717Y-49980152D03*
X103390094Y-51274344D03*
%TD*%
D13*
%TO.C,HEL17*%
X63368740Y-48725366D03*
X63468178Y-46827970D03*
X65690341Y-47895732D03*
%TD*%
D43*
%TO.C,HEL32*%
X83976429Y-88308895D03*
X84175029Y-86419303D03*
X86338269Y-87601901D03*
%TD*%
D44*
%TO.C,CL32A*%
X92012437Y-81289531D03*
X92971563Y-81330469D03*
%TD*%
D17*
%TO.C,CL6A*%
X103189477Y-6069278D03*
X104149323Y-6052122D03*
%TD*%
D22*
%TO.C,CL2A*%
X25780000Y-2625000D03*
X26740000Y-2625000D03*
%TD*%
D45*
%TO.C,HEL14*%
X133997492Y-37962160D03*
X134294717Y-36085552D03*
X136393094Y-37379744D03*
%TD*%
D22*
%TO.C,CL17B*%
X70304858Y-55047079D03*
X71263542Y-55097321D03*
%TD*%
%TO.C,CL9A*%
X33400000Y-21675000D03*
X34360000Y-21675000D03*
%TD*%
D34*
%TO.C,CRGBL14*%
X140563910Y-30750609D03*
X141512090Y-30900791D03*
%TD*%
D18*
%TO.C,AML4*%
X70973000Y-79950000D03*
X72243000Y-79950000D03*
X73513000Y-79950000D03*
X74783000Y-79950000D03*
X76053000Y-79950000D03*
X77323000Y-79950000D03*
X78593000Y-79950000D03*
X79863000Y-79950000D03*
X79863000Y-84900000D03*
X78593000Y-84900000D03*
X77323000Y-84900000D03*
X76053000Y-84900000D03*
X74783000Y-84900000D03*
X73513000Y-84900000D03*
X72243000Y-84900000D03*
X70973000Y-84900000D03*
%TD*%
D46*
%TO.C,DL29*%
X46328000Y-77375000D03*
X46328000Y-78875000D03*
X51778000Y-78875000D03*
X51778000Y-77375000D03*
%TD*%
D47*
%TO.C,CRGBL26*%
X129854010Y-67561009D03*
X130802190Y-67711191D03*
%TD*%
D48*
%TO.C,CL5A*%
X84067194Y-3912246D03*
X85026806Y-3939554D03*
%TD*%
D18*
%TO.C,AML5*%
X10363000Y-51975000D03*
X9093000Y-51975000D03*
X7823000Y-51975000D03*
X6553000Y-51975000D03*
X5283000Y-51975000D03*
X4013000Y-51975000D03*
X2743000Y-51975000D03*
X1473000Y-51975000D03*
X1473000Y-47025000D03*
X2743000Y-47025000D03*
X4013000Y-47025000D03*
X5283000Y-47025000D03*
X6553000Y-47025000D03*
X7823000Y-47025000D03*
X9093000Y-47025000D03*
X10363000Y-47025000D03*
%TD*%
D46*
%TO.C,DL3*%
X49185000Y-1975000D03*
X49185000Y-3475000D03*
X54635000Y-3475000D03*
X54635000Y-1975000D03*
%TD*%
D22*
%TO.C,CL1B*%
X19930000Y-16425000D03*
X20890000Y-16425000D03*
%TD*%
D40*
%TO.C,CL20A*%
X115151814Y-46257904D03*
X116109986Y-46198696D03*
%TD*%
D22*
%TO.C,CRGBL27*%
X21236000Y-81125000D03*
X22196000Y-81125000D03*
%TD*%
%TO.C,CL27A*%
X3873000Y-78825000D03*
X4833000Y-78825000D03*
%TD*%
D49*
%TO.C,HEL23*%
X66763340Y-68037566D03*
X66862778Y-66140170D03*
X69084941Y-67207932D03*
%TD*%
D50*
%TO.C,DL30*%
X83369324Y-78893270D03*
X83212529Y-80385051D03*
X88632676Y-80954730D03*
X88789471Y-79462949D03*
%TD*%
D13*
%TO.C,HEL22*%
X47915500Y-67625000D03*
X47915500Y-65725000D03*
X50190500Y-66675000D03*
%TD*%
D32*
%TO.C,CL7B*%
X132871769Y-24782883D03*
X133829431Y-24715917D03*
%TD*%
D13*
%TO.C,HEL31*%
X47915500Y-86675000D03*
X47915500Y-84775000D03*
X50190500Y-85725000D03*
%TD*%
D22*
%TO.C,CL3B*%
X58030000Y-16425000D03*
X58990000Y-16425000D03*
%TD*%
%TO.C,CL29A*%
X22923000Y-78825000D03*
X23883000Y-78825000D03*
%TD*%
D51*
%TO.C,JL1*%
X139109000Y-52500000D03*
X139109000Y-53500000D03*
X139109000Y-54500000D03*
X139109000Y-55500000D03*
X139109000Y-56500000D03*
X139109000Y-57500000D03*
X139109000Y-58500000D03*
X139109000Y-59500000D03*
X139109000Y-60500000D03*
X139109000Y-61500000D03*
X139109000Y-62500000D03*
X139109000Y-63500000D03*
D52*
X141309000Y-50200000D03*
X141309000Y-65800000D03*
%TD*%
D13*
%TO.C,HEL2*%
X31722500Y-10475000D03*
X31722500Y-8575000D03*
X33997500Y-9525000D03*
%TD*%
D22*
%TO.C,CRGBL2*%
X37080000Y-2725000D03*
X38040000Y-2725000D03*
%TD*%
D53*
%TO.C,DL22*%
X46328897Y-58324300D03*
X46328900Y-59824300D03*
X51778903Y-59824300D03*
X51778900Y-58324300D03*
%TD*%
D22*
%TO.C,CRGBL29*%
X54574000Y-81125000D03*
X55534000Y-81125000D03*
%TD*%
D14*
%TO.C,CL24A*%
X80876441Y-60964331D03*
X81835559Y-61005469D03*
%TD*%
D54*
%TO.C,DL14*%
X133821775Y-28923450D03*
X133587123Y-30404982D03*
X138970025Y-31257550D03*
X139204677Y-29776018D03*
%TD*%
D22*
%TO.C,CML3*%
X60885000Y-69851000D03*
X61845000Y-69851000D03*
%TD*%
D55*
%TO.C,DL4*%
X68668583Y-2085512D03*
X68590083Y-3583457D03*
X74032617Y-3868688D03*
X74111117Y-2370743D03*
%TD*%
D56*
%TO.C,DL8*%
X95903024Y-22725870D03*
X95746229Y-24217651D03*
X101166376Y-24787330D03*
X101323171Y-23295549D03*
%TD*%
D22*
%TO.C,CRGBL23*%
X72559958Y-59780279D03*
X73518642Y-59830521D03*
%TD*%
D46*
%TO.C,DL1*%
X11085000Y-1975000D03*
X11085000Y-3475000D03*
X16535000Y-3475000D03*
X16535000Y-1975000D03*
%TD*%
D22*
%TO.C,CL15B*%
X24217000Y-54525000D03*
X25177000Y-54525000D03*
%TD*%
%TO.C,CL31A*%
X41973000Y-77000000D03*
X42933000Y-77000000D03*
%TD*%
D46*
%TO.C,DL33*%
X27278000Y-77375000D03*
X27278000Y-78875000D03*
X32728000Y-78875000D03*
X32728000Y-77375000D03*
%TD*%
%TO.C,DL23*%
X65663783Y-58667812D03*
X65585283Y-60165757D03*
X71027817Y-60450988D03*
X71106317Y-58953043D03*
%TD*%
D54*
%TO.C,DL7*%
X126400875Y-9018550D03*
X126166223Y-10500082D03*
X131549125Y-11352650D03*
X131783777Y-9871118D03*
%TD*%
D57*
%TO.C,DL19*%
X41565500Y-39274500D03*
X41565500Y-40774500D03*
X47015500Y-40774500D03*
X47015500Y-39274500D03*
%TD*%
D46*
%TO.C,DL12*%
X13943000Y-20225000D03*
X13943000Y-21725000D03*
X19393000Y-21725000D03*
X19393000Y-20225000D03*
%TD*%
D22*
%TO.C,CL21B*%
X24217000Y-73575000D03*
X25177000Y-73575000D03*
%TD*%
D58*
%TO.C,CRGBL5*%
X95297228Y-5156326D03*
X96251972Y-5256674D03*
%TD*%
D59*
%TO.C,HEL24*%
X85968029Y-69362895D03*
X86166633Y-67473303D03*
X88329869Y-68655901D03*
%TD*%
D60*
%TO.C,CRGBL25*%
X111061710Y-64281509D03*
X112009890Y-64431691D03*
%TD*%
D46*
%TO.C,DL10*%
X56805797Y-20225700D03*
X56805800Y-21725700D03*
X62255803Y-21725700D03*
X62255800Y-20225700D03*
%TD*%
D61*
%TO.C,DL9*%
X76960724Y-20742770D03*
X76803929Y-22234551D03*
X82224076Y-22804230D03*
X82380871Y-21312449D03*
%TD*%
D22*
%TO.C,CRGBL17*%
X88749728Y-41775926D03*
X89704472Y-41876274D03*
%TD*%
D46*
%TO.C,DL24*%
X85360724Y-59947870D03*
X85203929Y-61439651D03*
X90624076Y-62009330D03*
X90780871Y-60517549D03*
%TD*%
D62*
%TO.C,CRGBL13*%
X121814010Y-27365709D03*
X122762190Y-27515891D03*
%TD*%
D63*
%TO.C,HEL26*%
X123271892Y-74871360D03*
X123569117Y-72994752D03*
X125667494Y-74288944D03*
%TD*%
D64*
%TO.C,CRGBL20*%
X22317200Y-40024798D03*
X23277200Y-40024802D03*
%TD*%
D22*
%TO.C,CML5*%
X11991000Y-53149000D03*
X12951000Y-53149000D03*
%TD*%
D65*
%TO.C,CL12B*%
X103102827Y-38872160D03*
X104062773Y-38862040D03*
%TD*%
D46*
%TO.C,DL27*%
X8228000Y-77375000D03*
X8228000Y-78875000D03*
X13678000Y-78875000D03*
X13678000Y-77375000D03*
%TD*%
D13*
%TO.C,HEL10*%
X58393300Y-29525800D03*
X58393300Y-27625800D03*
X60668300Y-28575800D03*
%TD*%
D66*
%TO.C,CL19B*%
X107226116Y-58933328D03*
X108185884Y-58954472D03*
%TD*%
D67*
%TO.C,CL23B*%
X73699432Y-74359781D03*
X74658168Y-74409019D03*
%TD*%
D68*
%TO.C,CRGBL18*%
X69166756Y-40469079D03*
X70125444Y-40519321D03*
%TD*%
D22*
%TO.C,CL10A*%
X52450800Y-21675700D03*
X53410800Y-21675700D03*
%TD*%
%TO.C,CL22B*%
X55173000Y-73575000D03*
X56133000Y-73575000D03*
%TD*%
D46*
%TO.C,DL15*%
X119684775Y-45402550D03*
X119450123Y-46884082D03*
X124833025Y-47736650D03*
X125067677Y-46255118D03*
%TD*%
D69*
%TO.C,HEL20*%
X119798092Y-54836160D03*
X120095317Y-52959552D03*
X122193694Y-54253744D03*
%TD*%
D22*
%TO.C,CL31B*%
X55173000Y-92625000D03*
X56133000Y-92625000D03*
%TD*%
D65*
%TO.C,CL12A*%
X91417627Y-23767960D03*
X92377573Y-23757840D03*
%TD*%
D70*
%TO.C,HEL33*%
X120289892Y-93685360D03*
X120587117Y-91808752D03*
X122685494Y-93102944D03*
%TD*%
D45*
%TO.C,HEL7*%
X126639092Y-17662160D03*
X126936317Y-15785552D03*
X129034694Y-17079744D03*
%TD*%
D71*
%TO.C,DL18*%
X62270586Y-39356613D03*
X62192080Y-40854557D03*
X67634614Y-41139787D03*
X67713120Y-39641843D03*
%TD*%
D22*
%TO.C,CL29B*%
X36123000Y-92625000D03*
X37083000Y-92625000D03*
%TD*%
D46*
%TO.C,DL2*%
X30135000Y-1975000D03*
X30135000Y-3475000D03*
X35585000Y-3475000D03*
X35585000Y-1975000D03*
%TD*%
%TO.C,DL11*%
X37755000Y-20225000D03*
X37755000Y-21725000D03*
X43205000Y-21725000D03*
X43205000Y-20225000D03*
%TD*%
D72*
%TO.C,HEL18*%
X82528229Y-49720695D03*
X82726833Y-47831103D03*
X84890069Y-49013701D03*
%TD*%
D48*
%TO.C,CL5B*%
X95752394Y-19016446D03*
X96712006Y-19043754D03*
%TD*%
D13*
%TO.C,HEL1*%
X12672500Y-10475000D03*
X12672500Y-8575000D03*
X14947500Y-9525000D03*
%TD*%
D73*
%TO.C,CRGBL31*%
X116795910Y-85539909D03*
X117744090Y-85690091D03*
%TD*%
D22*
%TO.C,CRGBL1*%
X18030000Y-2725000D03*
X18990000Y-2725000D03*
%TD*%
D32*
%TO.C,CL14B*%
X140230169Y-45082883D03*
X141187831Y-45015917D03*
%TD*%
D31*
%TO.C,CL26A*%
X118625733Y-66296365D03*
X119583467Y-66230435D03*
%TD*%
D74*
%TO.C,HEL13*%
X115184892Y-34972360D03*
X115482117Y-33095752D03*
X117580494Y-34389944D03*
%TD*%
D22*
%TO.C,CRGBL33*%
X34223000Y-81125000D03*
X35183000Y-81125000D03*
%TD*%
D13*
%TO.C,HEL3*%
X50772500Y-10475000D03*
X50772500Y-8575000D03*
X53047500Y-9525000D03*
%TD*%
D19*
%TO.C,CL25A*%
X99785502Y-63281691D03*
X100745498Y-63278909D03*
%TD*%
D73*
%TO.C,CL33B*%
X114846910Y-100075909D03*
X115795090Y-100226091D03*
%TD*%
D22*
%TO.C,CRGBL12*%
X20888000Y-20975000D03*
X21848000Y-20975000D03*
%TD*%
D75*
%TO.C,HEL25*%
X104432692Y-71888160D03*
X104729917Y-70011552D03*
X106828294Y-71305744D03*
%TD*%
D44*
%TO.C,CL32B*%
X77442437Y-93634531D03*
X78401563Y-93675469D03*
%TD*%
D13*
%TO.C,HEL9*%
X39342500Y-29525000D03*
X39342500Y-27625000D03*
X41617500Y-28575000D03*
%TD*%
D73*
%TO.C,CL33A*%
X127328910Y-85623909D03*
X128277090Y-85774091D03*
%TD*%
D13*
%TO.C,HEL8*%
X15530500Y-29525000D03*
X15530500Y-27625000D03*
X17805500Y-28575000D03*
%TD*%
D76*
%TO.C,HEL6*%
X107836692Y-14668560D03*
X108133917Y-12791952D03*
X110232294Y-14086144D03*
%TD*%
D67*
%TO.C,CL23A*%
X61239732Y-59887781D03*
X62198468Y-59937019D03*
%TD*%
D46*
%TO.C,DL17*%
X81921121Y-40304068D03*
X81764329Y-41795851D03*
X87184479Y-42365532D03*
X87341271Y-40873749D03*
%TD*%
D22*
%TO.C,CML1*%
X38491000Y-51649000D03*
X39451000Y-51649000D03*
%TD*%
%TO.C,CML4*%
X68385000Y-78851000D03*
X69345000Y-78851000D03*
%TD*%
D77*
%TO.C,DL31*%
X119389875Y-84209950D03*
X119155223Y-85691482D03*
X124538125Y-86544050D03*
X124772777Y-85062518D03*
%TD*%
D22*
%TO.C,CRGBL24*%
X92189328Y-61419726D03*
X93144072Y-61520074D03*
%TD*%
D66*
%TO.C,CL19A*%
X96347416Y-43238328D03*
X97307184Y-43259472D03*
%TD*%
D78*
%TO.C,DL26*%
X123111875Y-65733750D03*
X122877223Y-67215282D03*
X128260125Y-68067850D03*
X128494777Y-66586318D03*
%TD*%
D79*
%TO.C,DL13*%
X115071875Y-25538450D03*
X114837223Y-27019982D03*
X120220125Y-27872550D03*
X120454777Y-26391018D03*
%TD*%
D80*
%TO.C,RBPL29*%
X46371000Y-81500000D03*
X47391000Y-81500000D03*
%TD*%
D32*
%TO.C,CL7A*%
X121993069Y-9087783D03*
X122950731Y-9020817D03*
%TD*%
D22*
%TO.C,CRGBL3*%
X56130000Y-2725000D03*
X57090000Y-2725000D03*
%TD*%
D81*
%TO.C,CRGBL9*%
X83789328Y-22214626D03*
X84744072Y-22314974D03*
%TD*%
D13*
%TO.C,HEL21*%
X16959500Y-67625000D03*
X16959500Y-65725000D03*
X19234500Y-66675000D03*
%TD*%
D38*
%TO.C,CL11B*%
X84162194Y-36844820D03*
X85119006Y-36922980D03*
%TD*%
D82*
%TO.C,DL6*%
X107598475Y-6024950D03*
X107363823Y-7506482D03*
X112746725Y-8359050D03*
X112981377Y-6877518D03*
%TD*%
D46*
%TO.C,DL16*%
X100881775Y-42423550D03*
X100647123Y-43905082D03*
X106030025Y-44757650D03*
X106264677Y-43276118D03*
%TD*%
D22*
%TO.C,CL3A*%
X44830000Y-2625000D03*
X45790000Y-2625000D03*
%TD*%
M02*
