%TF.GenerationSoftware,KiCad,Pcbnew,10.0.5*%
%TF.CreationDate,2026-09-22T21:49:29-04:00*%
%TF.ProjectId,Symm60HE-wkl-left-arrows-right-Left,53796d6d-3630-4484-952d-776b6c2d6c65,rev?*%
%TF.SameCoordinates,Original*%
%TF.FileFunction,Legend,Bot*%
%TF.FilePolarity,Positive*%
%FSLAX46Y46*%
G04 Gerber Fmt 4.6, Leading zero omitted, Abs format (unit mm)*
G04 Created by KiCad (PCBNEW 10.0.5) date 2026-09-22 21:49:29*
%MOMM*%
%LPD*%
G01*
G04 APERTURE LIST*
G04 Aperture macros list*
%AMRoundRect*
0 Rectangle with rounded corners*
0 $1 Rounding radius*
0 $2 $3 $4 $5 $6 $7 $8 $9 X,Y pos of 4 corners*
0 Add a 4 corners polygon primitive as box body*
4,1,4,$2,$3,$4,$5,$6,$7,$8,$9,$2,$3,0*
0 Add four circle primitives for the rounded corners*
1,1,$1+$1,$2,$3*
1,1,$1+$1,$4,$5*
1,1,$1+$1,$6,$7*
1,1,$1+$1,$8,$9*
0 Add four rect primitives between the rounded corners*
20,1,$1+$1,$2,$3,$4,$5,0*
20,1,$1+$1,$4,$5,$6,$7,0*
20,1,$1+$1,$6,$7,$8,$9,0*
20,1,$1+$1,$8,$9,$2,$3,0*%
G04 Aperture macros list end*
%ADD10C,0.150000*%
%ADD11C,0.120000*%
%ADD12C,0.310000*%
%ADD13C,3.048000*%
%ADD14C,3.987800*%
%ADD15C,2.200000*%
%ADD16RoundRect,0.140000X-0.140000X-0.170000X0.140000X-0.170000X0.140000X0.170000X-0.140000X0.170000X0*%
%ADD17RoundRect,0.150000X-0.150000X0.512500X-0.150000X-0.512500X0.150000X-0.512500X0.150000X0.512500X0*%
%ADD18RoundRect,0.140000X-0.133285X-0.175314X0.146503X-0.164429X0.133285X0.175314X-0.146503X0.164429X0*%
%ADD19RoundRect,0.140000X-0.140362X-0.169702X0.139638X-0.170298X0.140362X0.169702X-0.139638X0.170298X0*%
%ADD20RoundRect,0.150000X-0.148908X0.512818X-0.151091X-0.512179X0.148908X-0.512818X0.151091X0.512179X0*%
%ADD21RoundRect,0.140000X-0.124689X-0.181529X0.154251X-0.157184X0.124689X0.181529X-0.154251X0.157184X0*%
%ADD22RoundRect,0.150000X0.831720X0.106617X-0.816019X0.192972X-0.831720X-0.106617X0.816019X-0.192972X0*%
%ADD23RoundRect,0.140000X-0.125969X-0.180643X0.153136X-0.158270X0.125969X0.180643X-0.153136X0.158270X0*%
%ADD24RoundRect,0.140000X-0.137318X-0.172173X0.142647X-0.167785X0.137318X0.172173X-0.142647X0.167785X0*%
%ADD25RoundRect,0.140000X-0.151152X-0.160166X0.128210X-0.179059X0.151152X0.160166X-0.128210X0.179059X0*%
%ADD26RoundRect,0.150000X-0.144042X0.514206X-0.155938X-0.510725X0.144042X-0.514206X0.155938X0.510725X0*%
%ADD27RoundRect,0.140000X-0.140089X-0.169927X0.139911X-0.170073X0.140089X0.169927X-0.139911X0.170073X0*%
%ADD28RoundRect,0.205000X-0.484877X-0.166790X0.452117X-0.241899X0.484877X0.166790X-0.452117X0.241899X0*%
%ADD29RoundRect,0.140000X-0.149559X-0.161654X0.129976X-0.177782X0.149559X0.161654X-0.129976X0.177782X0*%
%ADD30RoundRect,0.140000X-0.121370X-0.183764X0.157081X-0.154355X0.121370X0.183764X-0.157081X0.154355X0*%
%ADD31RoundRect,0.205000X-0.476114X-0.190368X0.463436X-0.219435X0.476114X0.190368X-0.463436X0.219435X0*%
%ADD32RoundRect,0.150000X-0.130351X0.517846X-0.169431X-0.506408X0.130351X-0.517846X0.169431X0.506408X0*%
%ADD33RoundRect,0.140000X-0.145190X-0.165590X0.134676X-0.174248X0.145190X0.165590X-0.134676X0.174248X0*%
%ADD34RoundRect,0.140000X-0.119756X-0.184820X0.158427X-0.152973X0.119756X0.184820X-0.158427X0.152973X0*%
%ADD35RoundRect,0.140000X-0.119856X-0.184756X0.158345X-0.153059X0.119856X0.184756X-0.158345X0.153059X0*%
%ADD36RoundRect,0.140000X-0.158345X-0.153059X0.119856X-0.184756X0.158345X0.153059X-0.119856X0.184756X0*%
%ADD37RoundRect,0.150000X0.150000X-0.825000X0.150000X0.825000X-0.150000X0.825000X-0.150000X-0.825000X0*%
%ADD38RoundRect,0.140000X-0.154317X-0.157119X0.124613X-0.181581X0.154317X0.157119X-0.124613X0.181581X0*%
%ADD39RoundRect,0.205000X-0.489572X-0.152460X0.444809X-0.255089X0.489572X0.152460X-0.444809X0.255089X0*%
%ADD40RoundRect,0.150000X-0.120232X0.520289X-0.179270X-0.503009X0.120232X-0.520289X0.179270X0.503009X0*%
%ADD41RoundRect,0.140000X-0.139004X-0.170816X0.140992X-0.169179X0.139004X0.170816X-0.140992X0.169179X0*%
%ADD42RoundRect,0.205000X-0.477474X-0.186932X0.461842X-0.222770X0.477474X0.186932X-0.461842X0.222770X0*%
%ADD43RoundRect,0.140000X-0.119106X-0.185239X0.158963X-0.152416X0.119106X0.185239X-0.158963X0.152416X0*%
%ADD44RoundRect,0.140000X-0.145207X-0.165574X0.134658X-0.174262X0.145207X0.165574X-0.134658X0.174262X0*%
%ADD45RoundRect,0.150000X-0.115077X0.521453X-0.184239X-0.501211X0.115077X-0.521453X0.184239X0.501211X0*%
%ADD46RoundRect,0.150000X-0.134026X0.516907X-0.165829X-0.507599X0.134026X-0.516907X0.165829X0.507599X0*%
%ADD47RoundRect,0.140000X-0.133304X-0.175300X0.146486X-0.164444X0.133304X0.175300X-0.146486X0.164444X0*%
%ADD48RoundRect,0.150000X-0.091019X0.526186X-0.207052X-0.492225X0.091019X-0.526186X0.207052X0.492225X0*%
%ADD49RoundRect,0.205000X-0.205000X0.470000X-0.205000X-0.470000X0.205000X-0.470000X0.205000X0.470000X0*%
%ADD50RoundRect,0.140000X-0.158262X-0.153144X0.119955X-0.184691X0.158262X0.153144X-0.119955X0.184691X0*%
%ADD51RoundRect,0.140000X-0.134545X-0.174349X0.145314X-0.165481X0.134545X0.174349X-0.145314X0.165481X0*%
%ADD52RoundRect,0.205000X-0.470000X-0.205000X0.470000X-0.205000X0.470000X0.205000X-0.470000X0.205000X0*%
%ADD53RoundRect,0.140000X0.170000X-0.140000X0.170000X0.140000X-0.170000X0.140000X-0.170000X-0.140000X0*%
%ADD54RoundRect,0.150000X-0.149732X0.512578X-0.150268X-0.512421X0.149732X-0.512578X0.150268X0.512421X0*%
%ADD55RoundRect,0.205000X-0.476134X-0.190319X0.463413X-0.219484X0.476134X0.190319X-0.463413X0.219484X0*%
%ADD56RoundRect,0.150000X-0.950000X0.150000X-0.950000X-0.150000X0.950000X-0.150000X0.950000X0.150000X0*%
%ADD57RoundRect,0.360000X-0.940000X0.540000X-0.940000X-0.540000X0.940000X-0.540000X0.940000X0.540000X0*%
%ADD58RoundRect,0.205000X-0.470107X-0.204754X0.469893X-0.205246X0.470107X0.204754X-0.469893X0.205246X0*%
%ADD59RoundRect,0.140000X-0.170000X0.140000X-0.170000X-0.140000X0.170000X-0.140000X0.170000X0.140000X0*%
%ADD60RoundRect,0.205000X-0.490185X-0.150477X0.443772X-0.256888X0.490185X0.150477X-0.443772X0.256888X0*%
%ADD61RoundRect,0.140000X-0.148705X-0.162440X0.130911X-0.177094X0.148705X0.162440X-0.130911X0.177094X0*%
%ADD62RoundRect,0.205000X-0.470435X-0.203999X0.469562X-0.206000X0.470435X0.203999X-0.469562X0.206000X0*%
%ADD63RoundRect,0.205000X-0.481027X-0.177588X0.457412X-0.231731X0.481027X0.177588X-0.457412X0.231731X0*%
%ADD64RoundRect,0.205000X-0.482761X-0.172819X0.455096X-0.236246X0.482761X0.172819X-0.455096X0.236246X0*%
%ADD65RoundRect,0.140000X-0.146380X-0.164539X0.133417X-0.175214X0.146380X0.164539X-0.133417X0.175214X0*%
%ADD66RoundRect,0.150000X-0.134081X0.516893X-0.165776X-0.507617X0.134081X-0.516893X0.165776X0.507617X0*%
%ADD67RoundRect,0.140000X-0.153136X-0.158270X0.125969X-0.180643X0.153136X0.158270X-0.125969X0.180643X0*%
%ADD68RoundRect,0.205000X-0.472348X-0.199531X0.467589X-0.210441X0.472348X0.199531X-0.467589X0.210441X0*%
%ADD69RoundRect,0.140000X-0.156925X-0.154514X0.121556X-0.183641X0.156925X0.154514X-0.121556X0.183641X0*%
%ADD70RoundRect,0.150000X-0.091304X0.526137X-0.206786X-0.492337X0.091304X-0.526137X0.206786X0.492337X0*%
%ADD71RoundRect,0.140000X-0.157724X-0.153699X0.120603X-0.184269X0.157724X0.153699X-0.120603X0.184269X0*%
%ADD72RoundRect,0.140000X-0.128744X-0.178676X0.150673X-0.160616X0.128744X0.178676X-0.150673X0.160616X0*%
%ADD73RoundRect,0.205000X0.205000X-0.470000X0.205000X0.470000X-0.205000X0.470000X-0.205000X-0.470000X0*%
%ADD74RoundRect,0.140000X-0.127390X-0.179644X0.151883X-0.159473X0.127390X0.179644X-0.151883X0.159473X0*%
%ADD75RoundRect,0.140000X-0.143244X-0.167276X0.136705X-0.172661X0.143244X0.167276X-0.136705X0.172661X0*%
%ADD76RoundRect,0.150000X-0.093149X0.525813X-0.205058X-0.493059X0.093149X-0.525813X0.205058X0.493059X0*%
%ADD77RoundRect,0.150000X-0.096020X0.525296X-0.202361X-0.494172X0.096020X-0.525296X0.202361X0.494172X0*%
%ADD78RoundRect,0.205000X-0.473856X-0.195923X0.465970X-0.214001X0.473856X0.195923X-0.465970X0.214001X0*%
%ADD79RoundRect,0.150000X-0.140116X0.515290X-0.159829X-0.509520X0.140116X-0.515290X0.159829X0.509520X0*%
%ADD80RoundRect,0.140000X-0.156882X-0.154558X0.121607X-0.183607X0.156882X0.154558X-0.121607X0.183607X0*%
%ADD81RoundRect,0.150000X-0.095873X0.525323X-0.202499X-0.494116X0.095873X-0.525323X0.202499X0.494116X0*%
%ADD82RoundRect,0.140000X-0.126492X-0.180277X0.152677X-0.158713X0.126492X0.180277X-0.152677X0.158713X0*%
%ADD83RoundRect,0.150000X-0.108570X0.522847X-0.190471X-0.498876X0.108570X-0.522847X0.190471X0.498876X0*%
%ADD84RoundRect,0.150000X-0.104652X0.523645X-0.194201X-0.497436X0.104652X-0.523645X0.194201X0.497436X0*%
%ADD85RoundRect,0.205000X-0.488732X-0.155133X0.446196X-0.252655X0.488732X0.155133X-0.446196X0.252655X0*%
%ADD86RoundRect,0.205000X-0.490104X-0.150742X0.443911X-0.256648X0.490104X0.150742X-0.443911X0.256648X0*%
%ADD87RoundRect,0.205000X-0.488775X-0.154996X0.446125X-0.252780X0.488775X0.154996X-0.446125X0.252780X0*%
%ADD88RoundRect,0.135000X-0.135000X-0.185000X0.135000X-0.185000X0.135000X0.185000X-0.135000X0.185000X0*%
%ADD89RoundRect,0.140000X-0.141964X-0.168364X0.138018X-0.171613X0.141964X0.168364X-0.138018X0.171613X0*%
%ADD90RoundRect,0.205000X-0.486113X-0.163155X0.450293X-0.245277X0.486113X0.163155X-0.450293X0.245277X0*%
G04 APERTURE END LIST*
D10*
X68461195Y-65382320D02*
X68436273Y-65857858D01*
X68751502Y-65302165D02*
X67735427Y-65582706D01*
X67735427Y-65582706D02*
X68716612Y-65967918D01*
X68699166Y-66300795D02*
X67700537Y-66248459D01*
X67700537Y-66248459D02*
X68396398Y-66618718D01*
X68396398Y-66618718D02*
X67665646Y-66914212D01*
X67665646Y-66914212D02*
X68664276Y-66966548D01*
X68614432Y-67917624D02*
X68639354Y-67442086D01*
X68639354Y-67442086D02*
X67640724Y-67389750D01*
X67603341Y-68103057D02*
X67570943Y-68721256D01*
X67570943Y-68721256D02*
X67968819Y-68408317D01*
X67968819Y-68408317D02*
X67961342Y-68550978D01*
X67961342Y-68550978D02*
X68003911Y-68648578D01*
X68003911Y-68648578D02*
X68048973Y-68698624D01*
X68048973Y-68698624D02*
X68141588Y-68751162D01*
X68141588Y-68751162D02*
X68379357Y-68763623D01*
X68379357Y-68763623D02*
X68476957Y-68721054D01*
X68476957Y-68721054D02*
X68527003Y-68675992D01*
X68527003Y-68675992D02*
X68579541Y-68583377D01*
X68579541Y-68583377D02*
X68594494Y-68298054D01*
X68594494Y-68298054D02*
X68551925Y-68200454D01*
X68551925Y-68200454D02*
X68506863Y-68150408D01*
X106080217Y-79434709D02*
X106080217Y-78434709D01*
X106080217Y-78434709D02*
X105842122Y-78434709D01*
X105842122Y-78434709D02*
X105699265Y-78482328D01*
X105699265Y-78482328D02*
X105604027Y-78577566D01*
X105604027Y-78577566D02*
X105556408Y-78672804D01*
X105556408Y-78672804D02*
X105508789Y-78863280D01*
X105508789Y-78863280D02*
X105508789Y-79006137D01*
X105508789Y-79006137D02*
X105556408Y-79196613D01*
X105556408Y-79196613D02*
X105604027Y-79291851D01*
X105604027Y-79291851D02*
X105699265Y-79387090D01*
X105699265Y-79387090D02*
X105842122Y-79434709D01*
X105842122Y-79434709D02*
X106080217Y-79434709D01*
X104604027Y-79434709D02*
X105080217Y-79434709D01*
X105080217Y-79434709D02*
X105080217Y-78434709D01*
X104318312Y-78529947D02*
X104270693Y-78482328D01*
X104270693Y-78482328D02*
X104175455Y-78434709D01*
X104175455Y-78434709D02*
X103937360Y-78434709D01*
X103937360Y-78434709D02*
X103842122Y-78482328D01*
X103842122Y-78482328D02*
X103794503Y-78529947D01*
X103794503Y-78529947D02*
X103746884Y-78625185D01*
X103746884Y-78625185D02*
X103746884Y-78720423D01*
X103746884Y-78720423D02*
X103794503Y-78863280D01*
X103794503Y-78863280D02*
X104365931Y-79434709D01*
X104365931Y-79434709D02*
X103746884Y-79434709D01*
X102842122Y-78434709D02*
X103318312Y-78434709D01*
X103318312Y-78434709D02*
X103365931Y-78910899D01*
X103365931Y-78910899D02*
X103318312Y-78863280D01*
X103318312Y-78863280D02*
X103223074Y-78815661D01*
X103223074Y-78815661D02*
X102984979Y-78815661D01*
X102984979Y-78815661D02*
X102889741Y-78863280D01*
X102889741Y-78863280D02*
X102842122Y-78910899D01*
X102842122Y-78910899D02*
X102794503Y-79006137D01*
X102794503Y-79006137D02*
X102794503Y-79244232D01*
X102794503Y-79244232D02*
X102842122Y-79339470D01*
X102842122Y-79339470D02*
X102889741Y-79387090D01*
X102889741Y-79387090D02*
X102984979Y-79434709D01*
X102984979Y-79434709D02*
X103223074Y-79434709D01*
X103223074Y-79434709D02*
X103318312Y-79387090D01*
X103318312Y-79387090D02*
X103365931Y-79339470D01*
X19716047Y-75079819D02*
X19716047Y-74079819D01*
X19716047Y-74079819D02*
X19477952Y-74079819D01*
X19477952Y-74079819D02*
X19335095Y-74127438D01*
X19335095Y-74127438D02*
X19239857Y-74222676D01*
X19239857Y-74222676D02*
X19192238Y-74317914D01*
X19192238Y-74317914D02*
X19144619Y-74508390D01*
X19144619Y-74508390D02*
X19144619Y-74651247D01*
X19144619Y-74651247D02*
X19192238Y-74841723D01*
X19192238Y-74841723D02*
X19239857Y-74936961D01*
X19239857Y-74936961D02*
X19335095Y-75032200D01*
X19335095Y-75032200D02*
X19477952Y-75079819D01*
X19477952Y-75079819D02*
X19716047Y-75079819D01*
X18239857Y-75079819D02*
X18716047Y-75079819D01*
X18716047Y-75079819D02*
X18716047Y-74079819D01*
X17954142Y-74175057D02*
X17906523Y-74127438D01*
X17906523Y-74127438D02*
X17811285Y-74079819D01*
X17811285Y-74079819D02*
X17573190Y-74079819D01*
X17573190Y-74079819D02*
X17477952Y-74127438D01*
X17477952Y-74127438D02*
X17430333Y-74175057D01*
X17430333Y-74175057D02*
X17382714Y-74270295D01*
X17382714Y-74270295D02*
X17382714Y-74365533D01*
X17382714Y-74365533D02*
X17430333Y-74508390D01*
X17430333Y-74508390D02*
X18001761Y-75079819D01*
X18001761Y-75079819D02*
X17382714Y-75079819D01*
X16430333Y-75079819D02*
X17001761Y-75079819D01*
X16716047Y-75079819D02*
X16716047Y-74079819D01*
X16716047Y-74079819D02*
X16811285Y-74222676D01*
X16811285Y-74222676D02*
X16906523Y-74317914D01*
X16906523Y-74317914D02*
X17001761Y-74365533D01*
X40508475Y-48169104D02*
X40032285Y-48169104D01*
X40603713Y-48454819D02*
X40270380Y-47454819D01*
X40270380Y-47454819D02*
X39937047Y-48454819D01*
X39603713Y-48454819D02*
X39603713Y-47454819D01*
X39603713Y-47454819D02*
X39270380Y-48169104D01*
X39270380Y-48169104D02*
X38937047Y-47454819D01*
X38937047Y-47454819D02*
X38937047Y-48454819D01*
X37984666Y-48454819D02*
X38460856Y-48454819D01*
X38460856Y-48454819D02*
X38460856Y-47454819D01*
X37127523Y-48454819D02*
X37698951Y-48454819D01*
X37413237Y-48454819D02*
X37413237Y-47454819D01*
X37413237Y-47454819D02*
X37508475Y-47597676D01*
X37508475Y-47597676D02*
X37603713Y-47692914D01*
X37603713Y-47692914D02*
X37698951Y-47740533D01*
X19716047Y-56029819D02*
X19716047Y-55029819D01*
X19716047Y-55029819D02*
X19477952Y-55029819D01*
X19477952Y-55029819D02*
X19335095Y-55077438D01*
X19335095Y-55077438D02*
X19239857Y-55172676D01*
X19239857Y-55172676D02*
X19192238Y-55267914D01*
X19192238Y-55267914D02*
X19144619Y-55458390D01*
X19144619Y-55458390D02*
X19144619Y-55601247D01*
X19144619Y-55601247D02*
X19192238Y-55791723D01*
X19192238Y-55791723D02*
X19239857Y-55886961D01*
X19239857Y-55886961D02*
X19335095Y-55982200D01*
X19335095Y-55982200D02*
X19477952Y-56029819D01*
X19477952Y-56029819D02*
X19716047Y-56029819D01*
X18239857Y-56029819D02*
X18716047Y-56029819D01*
X18716047Y-56029819D02*
X18716047Y-55029819D01*
X17954142Y-55125057D02*
X17906523Y-55077438D01*
X17906523Y-55077438D02*
X17811285Y-55029819D01*
X17811285Y-55029819D02*
X17573190Y-55029819D01*
X17573190Y-55029819D02*
X17477952Y-55077438D01*
X17477952Y-55077438D02*
X17430333Y-55125057D01*
X17430333Y-55125057D02*
X17382714Y-55220295D01*
X17382714Y-55220295D02*
X17382714Y-55315533D01*
X17382714Y-55315533D02*
X17430333Y-55458390D01*
X17430333Y-55458390D02*
X18001761Y-56029819D01*
X18001761Y-56029819D02*
X17382714Y-56029819D01*
X16763666Y-55029819D02*
X16668428Y-55029819D01*
X16668428Y-55029819D02*
X16573190Y-55077438D01*
X16573190Y-55077438D02*
X16525571Y-55125057D01*
X16525571Y-55125057D02*
X16477952Y-55220295D01*
X16477952Y-55220295D02*
X16430333Y-55410771D01*
X16430333Y-55410771D02*
X16430333Y-55648866D01*
X16430333Y-55648866D02*
X16477952Y-55839342D01*
X16477952Y-55839342D02*
X16525571Y-55934580D01*
X16525571Y-55934580D02*
X16573190Y-55982200D01*
X16573190Y-55982200D02*
X16668428Y-56029819D01*
X16668428Y-56029819D02*
X16763666Y-56029819D01*
X16763666Y-56029819D02*
X16858904Y-55982200D01*
X16858904Y-55982200D02*
X16906523Y-55934580D01*
X16906523Y-55934580D02*
X16954142Y-55839342D01*
X16954142Y-55839342D02*
X17001761Y-55648866D01*
X17001761Y-55648866D02*
X17001761Y-55410771D01*
X17001761Y-55410771D02*
X16954142Y-55220295D01*
X16954142Y-55220295D02*
X16906523Y-55125057D01*
X16906523Y-55125057D02*
X16858904Y-55077438D01*
X16858904Y-55077438D02*
X16763666Y-55029819D01*
X90701482Y-19839276D02*
X90701482Y-18839276D01*
X90701482Y-18839276D02*
X90463387Y-18839276D01*
X90463387Y-18839276D02*
X90320530Y-18886895D01*
X90320530Y-18886895D02*
X90225292Y-18982133D01*
X90225292Y-18982133D02*
X90177673Y-19077371D01*
X90177673Y-19077371D02*
X90130054Y-19267847D01*
X90130054Y-19267847D02*
X90130054Y-19410704D01*
X90130054Y-19410704D02*
X90177673Y-19601180D01*
X90177673Y-19601180D02*
X90225292Y-19696418D01*
X90225292Y-19696418D02*
X90320530Y-19791657D01*
X90320530Y-19791657D02*
X90463387Y-19839276D01*
X90463387Y-19839276D02*
X90701482Y-19839276D01*
X89225292Y-19839276D02*
X89701482Y-19839276D01*
X89701482Y-19839276D02*
X89701482Y-18839276D01*
X88415768Y-18839276D02*
X88891958Y-18839276D01*
X88891958Y-18839276D02*
X88939577Y-19315466D01*
X88939577Y-19315466D02*
X88891958Y-19267847D01*
X88891958Y-19267847D02*
X88796720Y-19220228D01*
X88796720Y-19220228D02*
X88558625Y-19220228D01*
X88558625Y-19220228D02*
X88463387Y-19267847D01*
X88463387Y-19267847D02*
X88415768Y-19315466D01*
X88415768Y-19315466D02*
X88368149Y-19410704D01*
X88368149Y-19410704D02*
X88368149Y-19648799D01*
X88368149Y-19648799D02*
X88415768Y-19744037D01*
X88415768Y-19744037D02*
X88463387Y-19791657D01*
X88463387Y-19791657D02*
X88558625Y-19839276D01*
X88558625Y-19839276D02*
X88796720Y-19839276D01*
X88796720Y-19839276D02*
X88891958Y-19791657D01*
X88891958Y-19791657D02*
X88939577Y-19744037D01*
X41008475Y-40169104D02*
X40532285Y-40169104D01*
X41103713Y-40454819D02*
X40770380Y-39454819D01*
X40770380Y-39454819D02*
X40437047Y-40454819D01*
X40103713Y-40454819D02*
X40103713Y-39454819D01*
X40103713Y-39454819D02*
X39770380Y-40169104D01*
X39770380Y-40169104D02*
X39437047Y-39454819D01*
X39437047Y-39454819D02*
X39437047Y-40454819D01*
X38484666Y-40454819D02*
X38960856Y-40454819D01*
X38960856Y-40454819D02*
X38960856Y-39454819D01*
X38198951Y-39550057D02*
X38151332Y-39502438D01*
X38151332Y-39502438D02*
X38056094Y-39454819D01*
X38056094Y-39454819D02*
X37817999Y-39454819D01*
X37817999Y-39454819D02*
X37722761Y-39502438D01*
X37722761Y-39502438D02*
X37675142Y-39550057D01*
X37675142Y-39550057D02*
X37627523Y-39645295D01*
X37627523Y-39645295D02*
X37627523Y-39740533D01*
X37627523Y-39740533D02*
X37675142Y-39883390D01*
X37675142Y-39883390D02*
X38246570Y-40454819D01*
X38246570Y-40454819D02*
X37627523Y-40454819D01*
X70708475Y-82594104D02*
X70232285Y-82594104D01*
X70803713Y-82879819D02*
X70470380Y-81879819D01*
X70470380Y-81879819D02*
X70137047Y-82879819D01*
X69803713Y-82879819D02*
X69803713Y-81879819D01*
X69803713Y-81879819D02*
X69470380Y-82594104D01*
X69470380Y-82594104D02*
X69137047Y-81879819D01*
X69137047Y-81879819D02*
X69137047Y-82879819D01*
X68184666Y-82879819D02*
X68660856Y-82879819D01*
X68660856Y-82879819D02*
X68660856Y-81879819D01*
X67422761Y-82213152D02*
X67422761Y-82879819D01*
X67660856Y-81832200D02*
X67898951Y-82546485D01*
X67898951Y-82546485D02*
X67279904Y-82546485D01*
X43836180Y-95294047D02*
X44836180Y-95294047D01*
X44836180Y-95294047D02*
X44836180Y-95055952D01*
X44836180Y-95055952D02*
X44788561Y-94913095D01*
X44788561Y-94913095D02*
X44693323Y-94817857D01*
X44693323Y-94817857D02*
X44598085Y-94770238D01*
X44598085Y-94770238D02*
X44407609Y-94722619D01*
X44407609Y-94722619D02*
X44264752Y-94722619D01*
X44264752Y-94722619D02*
X44074276Y-94770238D01*
X44074276Y-94770238D02*
X43979038Y-94817857D01*
X43979038Y-94817857D02*
X43883800Y-94913095D01*
X43883800Y-94913095D02*
X43836180Y-95055952D01*
X43836180Y-95055952D02*
X43836180Y-95294047D01*
X43836180Y-93817857D02*
X43836180Y-94294047D01*
X43836180Y-94294047D02*
X44836180Y-94294047D01*
X44740942Y-93532142D02*
X44788561Y-93484523D01*
X44788561Y-93484523D02*
X44836180Y-93389285D01*
X44836180Y-93389285D02*
X44836180Y-93151190D01*
X44836180Y-93151190D02*
X44788561Y-93055952D01*
X44788561Y-93055952D02*
X44740942Y-93008333D01*
X44740942Y-93008333D02*
X44645704Y-92960714D01*
X44645704Y-92960714D02*
X44550466Y-92960714D01*
X44550466Y-92960714D02*
X44407609Y-93008333D01*
X44407609Y-93008333D02*
X43836180Y-93579761D01*
X43836180Y-93579761D02*
X43836180Y-92960714D01*
X43836180Y-92484523D02*
X43836180Y-92294047D01*
X43836180Y-92294047D02*
X43883800Y-92198809D01*
X43883800Y-92198809D02*
X43931419Y-92151190D01*
X43931419Y-92151190D02*
X44074276Y-92055952D01*
X44074276Y-92055952D02*
X44264752Y-92008333D01*
X44264752Y-92008333D02*
X44645704Y-92008333D01*
X44645704Y-92008333D02*
X44740942Y-92055952D01*
X44740942Y-92055952D02*
X44788561Y-92103571D01*
X44788561Y-92103571D02*
X44836180Y-92198809D01*
X44836180Y-92198809D02*
X44836180Y-92389285D01*
X44836180Y-92389285D02*
X44788561Y-92484523D01*
X44788561Y-92484523D02*
X44740942Y-92532142D01*
X44740942Y-92532142D02*
X44645704Y-92579761D01*
X44645704Y-92579761D02*
X44407609Y-92579761D01*
X44407609Y-92579761D02*
X44312371Y-92532142D01*
X44312371Y-92532142D02*
X44264752Y-92484523D01*
X44264752Y-92484523D02*
X44217133Y-92389285D01*
X44217133Y-92389285D02*
X44217133Y-92198809D01*
X44217133Y-92198809D02*
X44264752Y-92103571D01*
X44264752Y-92103571D02*
X44312371Y-92055952D01*
X44312371Y-92055952D02*
X44407609Y-92008333D01*
X14008475Y-49669104D02*
X13532285Y-49669104D01*
X14103713Y-49954819D02*
X13770380Y-48954819D01*
X13770380Y-48954819D02*
X13437047Y-49954819D01*
X13103713Y-49954819D02*
X13103713Y-48954819D01*
X13103713Y-48954819D02*
X12770380Y-49669104D01*
X12770380Y-49669104D02*
X12437047Y-48954819D01*
X12437047Y-48954819D02*
X12437047Y-49954819D01*
X11484666Y-49954819D02*
X11960856Y-49954819D01*
X11960856Y-49954819D02*
X11960856Y-48954819D01*
X10675142Y-48954819D02*
X11151332Y-48954819D01*
X11151332Y-48954819D02*
X11198951Y-49431009D01*
X11198951Y-49431009D02*
X11151332Y-49383390D01*
X11151332Y-49383390D02*
X11056094Y-49335771D01*
X11056094Y-49335771D02*
X10817999Y-49335771D01*
X10817999Y-49335771D02*
X10722761Y-49383390D01*
X10722761Y-49383390D02*
X10675142Y-49431009D01*
X10675142Y-49431009D02*
X10627523Y-49526247D01*
X10627523Y-49526247D02*
X10627523Y-49764342D01*
X10627523Y-49764342D02*
X10675142Y-49859580D01*
X10675142Y-49859580D02*
X10722761Y-49907200D01*
X10722761Y-49907200D02*
X10817999Y-49954819D01*
X10817999Y-49954819D02*
X11056094Y-49954819D01*
X11056094Y-49954819D02*
X11151332Y-49907200D01*
X11151332Y-49907200D02*
X11198951Y-49859580D01*
X53052856Y-17929819D02*
X53052856Y-16929819D01*
X53052856Y-16929819D02*
X52814761Y-16929819D01*
X52814761Y-16929819D02*
X52671904Y-16977438D01*
X52671904Y-16977438D02*
X52576666Y-17072676D01*
X52576666Y-17072676D02*
X52529047Y-17167914D01*
X52529047Y-17167914D02*
X52481428Y-17358390D01*
X52481428Y-17358390D02*
X52481428Y-17501247D01*
X52481428Y-17501247D02*
X52529047Y-17691723D01*
X52529047Y-17691723D02*
X52576666Y-17786961D01*
X52576666Y-17786961D02*
X52671904Y-17882200D01*
X52671904Y-17882200D02*
X52814761Y-17929819D01*
X52814761Y-17929819D02*
X53052856Y-17929819D01*
X51576666Y-17929819D02*
X52052856Y-17929819D01*
X52052856Y-17929819D02*
X52052856Y-16929819D01*
X51338570Y-16929819D02*
X50719523Y-16929819D01*
X50719523Y-16929819D02*
X51052856Y-17310771D01*
X51052856Y-17310771D02*
X50909999Y-17310771D01*
X50909999Y-17310771D02*
X50814761Y-17358390D01*
X50814761Y-17358390D02*
X50767142Y-17406009D01*
X50767142Y-17406009D02*
X50719523Y-17501247D01*
X50719523Y-17501247D02*
X50719523Y-17739342D01*
X50719523Y-17739342D02*
X50767142Y-17834580D01*
X50767142Y-17834580D02*
X50814761Y-17882200D01*
X50814761Y-17882200D02*
X50909999Y-17929819D01*
X50909999Y-17929819D02*
X51195713Y-17929819D01*
X51195713Y-17929819D02*
X51290951Y-17882200D01*
X51290951Y-17882200D02*
X51338570Y-17834580D01*
X85995073Y-95844276D02*
X85995073Y-94844276D01*
X85995073Y-94844276D02*
X85756978Y-94844276D01*
X85756978Y-94844276D02*
X85614121Y-94891895D01*
X85614121Y-94891895D02*
X85518883Y-94987133D01*
X85518883Y-94987133D02*
X85471264Y-95082371D01*
X85471264Y-95082371D02*
X85423645Y-95272847D01*
X85423645Y-95272847D02*
X85423645Y-95415704D01*
X85423645Y-95415704D02*
X85471264Y-95606180D01*
X85471264Y-95606180D02*
X85518883Y-95701418D01*
X85518883Y-95701418D02*
X85614121Y-95796657D01*
X85614121Y-95796657D02*
X85756978Y-95844276D01*
X85756978Y-95844276D02*
X85995073Y-95844276D01*
X84518883Y-95844276D02*
X84995073Y-95844276D01*
X84995073Y-95844276D02*
X84995073Y-94844276D01*
X84280787Y-94844276D02*
X83661740Y-94844276D01*
X83661740Y-94844276D02*
X83995073Y-95225228D01*
X83995073Y-95225228D02*
X83852216Y-95225228D01*
X83852216Y-95225228D02*
X83756978Y-95272847D01*
X83756978Y-95272847D02*
X83709359Y-95320466D01*
X83709359Y-95320466D02*
X83661740Y-95415704D01*
X83661740Y-95415704D02*
X83661740Y-95653799D01*
X83661740Y-95653799D02*
X83709359Y-95749037D01*
X83709359Y-95749037D02*
X83756978Y-95796657D01*
X83756978Y-95796657D02*
X83852216Y-95844276D01*
X83852216Y-95844276D02*
X84137930Y-95844276D01*
X84137930Y-95844276D02*
X84233168Y-95796657D01*
X84233168Y-95796657D02*
X84280787Y-95749037D01*
X83042692Y-94844276D02*
X82947454Y-94844276D01*
X82947454Y-94844276D02*
X82852216Y-94891895D01*
X82852216Y-94891895D02*
X82804597Y-94939514D01*
X82804597Y-94939514D02*
X82756978Y-95034752D01*
X82756978Y-95034752D02*
X82709359Y-95225228D01*
X82709359Y-95225228D02*
X82709359Y-95463323D01*
X82709359Y-95463323D02*
X82756978Y-95653799D01*
X82756978Y-95653799D02*
X82804597Y-95749037D01*
X82804597Y-95749037D02*
X82852216Y-95796657D01*
X82852216Y-95796657D02*
X82947454Y-95844276D01*
X82947454Y-95844276D02*
X83042692Y-95844276D01*
X83042692Y-95844276D02*
X83137930Y-95796657D01*
X83137930Y-95796657D02*
X83185549Y-95749037D01*
X83185549Y-95749037D02*
X83233168Y-95653799D01*
X83233168Y-95653799D02*
X83280787Y-95463323D01*
X83280787Y-95463323D02*
X83280787Y-95225228D01*
X83280787Y-95225228D02*
X83233168Y-95034752D01*
X83233168Y-95034752D02*
X83185549Y-94939514D01*
X83185549Y-94939514D02*
X83137930Y-94891895D01*
X83137930Y-94891895D02*
X83042692Y-94844276D01*
X135947095Y-57454819D02*
X135947095Y-58169104D01*
X135947095Y-58169104D02*
X135994714Y-58311961D01*
X135994714Y-58311961D02*
X136089952Y-58407200D01*
X136089952Y-58407200D02*
X136232809Y-58454819D01*
X136232809Y-58454819D02*
X136328047Y-58454819D01*
X134994714Y-58454819D02*
X135470904Y-58454819D01*
X135470904Y-58454819D02*
X135470904Y-57454819D01*
X134137571Y-58454819D02*
X134708999Y-58454819D01*
X134423285Y-58454819D02*
X134423285Y-57454819D01*
X134423285Y-57454819D02*
X134518523Y-57597676D01*
X134518523Y-57597676D02*
X134613761Y-57692914D01*
X134613761Y-57692914D02*
X134708999Y-57740533D01*
X50672047Y-75079819D02*
X50672047Y-74079819D01*
X50672047Y-74079819D02*
X50433952Y-74079819D01*
X50433952Y-74079819D02*
X50291095Y-74127438D01*
X50291095Y-74127438D02*
X50195857Y-74222676D01*
X50195857Y-74222676D02*
X50148238Y-74317914D01*
X50148238Y-74317914D02*
X50100619Y-74508390D01*
X50100619Y-74508390D02*
X50100619Y-74651247D01*
X50100619Y-74651247D02*
X50148238Y-74841723D01*
X50148238Y-74841723D02*
X50195857Y-74936961D01*
X50195857Y-74936961D02*
X50291095Y-75032200D01*
X50291095Y-75032200D02*
X50433952Y-75079819D01*
X50433952Y-75079819D02*
X50672047Y-75079819D01*
X49195857Y-75079819D02*
X49672047Y-75079819D01*
X49672047Y-75079819D02*
X49672047Y-74079819D01*
X48910142Y-74175057D02*
X48862523Y-74127438D01*
X48862523Y-74127438D02*
X48767285Y-74079819D01*
X48767285Y-74079819D02*
X48529190Y-74079819D01*
X48529190Y-74079819D02*
X48433952Y-74127438D01*
X48433952Y-74127438D02*
X48386333Y-74175057D01*
X48386333Y-74175057D02*
X48338714Y-74270295D01*
X48338714Y-74270295D02*
X48338714Y-74365533D01*
X48338714Y-74365533D02*
X48386333Y-74508390D01*
X48386333Y-74508390D02*
X48957761Y-75079819D01*
X48957761Y-75079819D02*
X48338714Y-75079819D01*
X47957761Y-74175057D02*
X47910142Y-74127438D01*
X47910142Y-74127438D02*
X47814904Y-74079819D01*
X47814904Y-74079819D02*
X47576809Y-74079819D01*
X47576809Y-74079819D02*
X47481571Y-74127438D01*
X47481571Y-74127438D02*
X47433952Y-74175057D01*
X47433952Y-74175057D02*
X47386333Y-74270295D01*
X47386333Y-74270295D02*
X47386333Y-74365533D01*
X47386333Y-74365533D02*
X47433952Y-74508390D01*
X47433952Y-74508390D02*
X48005380Y-75079819D01*
X48005380Y-75079819D02*
X47386333Y-75079819D01*
X135645017Y-45508709D02*
X135645017Y-44508709D01*
X135645017Y-44508709D02*
X135406922Y-44508709D01*
X135406922Y-44508709D02*
X135264065Y-44556328D01*
X135264065Y-44556328D02*
X135168827Y-44651566D01*
X135168827Y-44651566D02*
X135121208Y-44746804D01*
X135121208Y-44746804D02*
X135073589Y-44937280D01*
X135073589Y-44937280D02*
X135073589Y-45080137D01*
X135073589Y-45080137D02*
X135121208Y-45270613D01*
X135121208Y-45270613D02*
X135168827Y-45365851D01*
X135168827Y-45365851D02*
X135264065Y-45461090D01*
X135264065Y-45461090D02*
X135406922Y-45508709D01*
X135406922Y-45508709D02*
X135645017Y-45508709D01*
X134168827Y-45508709D02*
X134645017Y-45508709D01*
X134645017Y-45508709D02*
X134645017Y-44508709D01*
X133311684Y-45508709D02*
X133883112Y-45508709D01*
X133597398Y-45508709D02*
X133597398Y-44508709D01*
X133597398Y-44508709D02*
X133692636Y-44651566D01*
X133692636Y-44651566D02*
X133787874Y-44746804D01*
X133787874Y-44746804D02*
X133883112Y-44794423D01*
X132454541Y-44842042D02*
X132454541Y-45508709D01*
X132692636Y-44461090D02*
X132930731Y-45175375D01*
X132930731Y-45175375D02*
X132311684Y-45175375D01*
X71721583Y-18161756D02*
X71721583Y-17161756D01*
X71721583Y-17161756D02*
X71483488Y-17161756D01*
X71483488Y-17161756D02*
X71340631Y-17209375D01*
X71340631Y-17209375D02*
X71245393Y-17304613D01*
X71245393Y-17304613D02*
X71197774Y-17399851D01*
X71197774Y-17399851D02*
X71150155Y-17590327D01*
X71150155Y-17590327D02*
X71150155Y-17733184D01*
X71150155Y-17733184D02*
X71197774Y-17923660D01*
X71197774Y-17923660D02*
X71245393Y-18018898D01*
X71245393Y-18018898D02*
X71340631Y-18114137D01*
X71340631Y-18114137D02*
X71483488Y-18161756D01*
X71483488Y-18161756D02*
X71721583Y-18161756D01*
X70245393Y-18161756D02*
X70721583Y-18161756D01*
X70721583Y-18161756D02*
X70721583Y-17161756D01*
X69483488Y-17495089D02*
X69483488Y-18161756D01*
X69721583Y-17114137D02*
X69959678Y-17828422D01*
X69959678Y-17828422D02*
X69340631Y-17828422D01*
X98052082Y-39676276D02*
X98052082Y-38676276D01*
X98052082Y-38676276D02*
X97813987Y-38676276D01*
X97813987Y-38676276D02*
X97671130Y-38723895D01*
X97671130Y-38723895D02*
X97575892Y-38819133D01*
X97575892Y-38819133D02*
X97528273Y-38914371D01*
X97528273Y-38914371D02*
X97480654Y-39104847D01*
X97480654Y-39104847D02*
X97480654Y-39247704D01*
X97480654Y-39247704D02*
X97528273Y-39438180D01*
X97528273Y-39438180D02*
X97575892Y-39533418D01*
X97575892Y-39533418D02*
X97671130Y-39628657D01*
X97671130Y-39628657D02*
X97813987Y-39676276D01*
X97813987Y-39676276D02*
X98052082Y-39676276D01*
X96575892Y-39676276D02*
X97052082Y-39676276D01*
X97052082Y-39676276D02*
X97052082Y-38676276D01*
X96099701Y-39104847D02*
X96194939Y-39057228D01*
X96194939Y-39057228D02*
X96242558Y-39009609D01*
X96242558Y-39009609D02*
X96290177Y-38914371D01*
X96290177Y-38914371D02*
X96290177Y-38866752D01*
X96290177Y-38866752D02*
X96242558Y-38771514D01*
X96242558Y-38771514D02*
X96194939Y-38723895D01*
X96194939Y-38723895D02*
X96099701Y-38676276D01*
X96099701Y-38676276D02*
X95909225Y-38676276D01*
X95909225Y-38676276D02*
X95813987Y-38723895D01*
X95813987Y-38723895D02*
X95766368Y-38771514D01*
X95766368Y-38771514D02*
X95718749Y-38866752D01*
X95718749Y-38866752D02*
X95718749Y-38914371D01*
X95718749Y-38914371D02*
X95766368Y-39009609D01*
X95766368Y-39009609D02*
X95813987Y-39057228D01*
X95813987Y-39057228D02*
X95909225Y-39104847D01*
X95909225Y-39104847D02*
X96099701Y-39104847D01*
X96099701Y-39104847D02*
X96194939Y-39152466D01*
X96194939Y-39152466D02*
X96242558Y-39200085D01*
X96242558Y-39200085D02*
X96290177Y-39295323D01*
X96290177Y-39295323D02*
X96290177Y-39485799D01*
X96290177Y-39485799D02*
X96242558Y-39581037D01*
X96242558Y-39581037D02*
X96194939Y-39628657D01*
X96194939Y-39628657D02*
X96099701Y-39676276D01*
X96099701Y-39676276D02*
X95909225Y-39676276D01*
X95909225Y-39676276D02*
X95813987Y-39628657D01*
X95813987Y-39628657D02*
X95766368Y-39581037D01*
X95766368Y-39581037D02*
X95718749Y-39485799D01*
X95718749Y-39485799D02*
X95718749Y-39295323D01*
X95718749Y-39295323D02*
X95766368Y-39200085D01*
X95766368Y-39200085D02*
X95813987Y-39152466D01*
X95813987Y-39152466D02*
X95909225Y-39104847D01*
X14952856Y-17929819D02*
X14952856Y-16929819D01*
X14952856Y-16929819D02*
X14714761Y-16929819D01*
X14714761Y-16929819D02*
X14571904Y-16977438D01*
X14571904Y-16977438D02*
X14476666Y-17072676D01*
X14476666Y-17072676D02*
X14429047Y-17167914D01*
X14429047Y-17167914D02*
X14381428Y-17358390D01*
X14381428Y-17358390D02*
X14381428Y-17501247D01*
X14381428Y-17501247D02*
X14429047Y-17691723D01*
X14429047Y-17691723D02*
X14476666Y-17786961D01*
X14476666Y-17786961D02*
X14571904Y-17882200D01*
X14571904Y-17882200D02*
X14714761Y-17929819D01*
X14714761Y-17929819D02*
X14952856Y-17929819D01*
X13476666Y-17929819D02*
X13952856Y-17929819D01*
X13952856Y-17929819D02*
X13952856Y-16929819D01*
X12619523Y-17929819D02*
X13190951Y-17929819D01*
X12905237Y-17929819D02*
X12905237Y-16929819D01*
X12905237Y-16929819D02*
X13000475Y-17072676D01*
X13000475Y-17072676D02*
X13095713Y-17167914D01*
X13095713Y-17167914D02*
X13190951Y-17215533D01*
X69151974Y-75542356D02*
X69151974Y-74542356D01*
X69151974Y-74542356D02*
X68913879Y-74542356D01*
X68913879Y-74542356D02*
X68771022Y-74589975D01*
X68771022Y-74589975D02*
X68675784Y-74685213D01*
X68675784Y-74685213D02*
X68628165Y-74780451D01*
X68628165Y-74780451D02*
X68580546Y-74970927D01*
X68580546Y-74970927D02*
X68580546Y-75113784D01*
X68580546Y-75113784D02*
X68628165Y-75304260D01*
X68628165Y-75304260D02*
X68675784Y-75399498D01*
X68675784Y-75399498D02*
X68771022Y-75494737D01*
X68771022Y-75494737D02*
X68913879Y-75542356D01*
X68913879Y-75542356D02*
X69151974Y-75542356D01*
X67675784Y-75542356D02*
X68151974Y-75542356D01*
X68151974Y-75542356D02*
X68151974Y-74542356D01*
X67390069Y-74637594D02*
X67342450Y-74589975D01*
X67342450Y-74589975D02*
X67247212Y-74542356D01*
X67247212Y-74542356D02*
X67009117Y-74542356D01*
X67009117Y-74542356D02*
X66913879Y-74589975D01*
X66913879Y-74589975D02*
X66866260Y-74637594D01*
X66866260Y-74637594D02*
X66818641Y-74732832D01*
X66818641Y-74732832D02*
X66818641Y-74828070D01*
X66818641Y-74828070D02*
X66866260Y-74970927D01*
X66866260Y-74970927D02*
X67437688Y-75542356D01*
X67437688Y-75542356D02*
X66818641Y-75542356D01*
X66485307Y-74542356D02*
X65866260Y-74542356D01*
X65866260Y-74542356D02*
X66199593Y-74923308D01*
X66199593Y-74923308D02*
X66056736Y-74923308D01*
X66056736Y-74923308D02*
X65961498Y-74970927D01*
X65961498Y-74970927D02*
X65913879Y-75018546D01*
X65913879Y-75018546D02*
X65866260Y-75113784D01*
X65866260Y-75113784D02*
X65866260Y-75351879D01*
X65866260Y-75351879D02*
X65913879Y-75447117D01*
X65913879Y-75447117D02*
X65961498Y-75494737D01*
X65961498Y-75494737D02*
X66056736Y-75542356D01*
X66056736Y-75542356D02*
X66342450Y-75542356D01*
X66342450Y-75542356D02*
X66437688Y-75494737D01*
X66437688Y-75494737D02*
X66485307Y-75447117D01*
X127810426Y-25208709D02*
X127810426Y-24208709D01*
X127810426Y-24208709D02*
X127572331Y-24208709D01*
X127572331Y-24208709D02*
X127429474Y-24256328D01*
X127429474Y-24256328D02*
X127334236Y-24351566D01*
X127334236Y-24351566D02*
X127286617Y-24446804D01*
X127286617Y-24446804D02*
X127238998Y-24637280D01*
X127238998Y-24637280D02*
X127238998Y-24780137D01*
X127238998Y-24780137D02*
X127286617Y-24970613D01*
X127286617Y-24970613D02*
X127334236Y-25065851D01*
X127334236Y-25065851D02*
X127429474Y-25161090D01*
X127429474Y-25161090D02*
X127572331Y-25208709D01*
X127572331Y-25208709D02*
X127810426Y-25208709D01*
X126334236Y-25208709D02*
X126810426Y-25208709D01*
X126810426Y-25208709D02*
X126810426Y-24208709D01*
X126096140Y-24208709D02*
X125429474Y-24208709D01*
X125429474Y-24208709D02*
X125858045Y-25208709D01*
X45910047Y-56029819D02*
X45910047Y-55029819D01*
X45910047Y-55029819D02*
X45671952Y-55029819D01*
X45671952Y-55029819D02*
X45529095Y-55077438D01*
X45529095Y-55077438D02*
X45433857Y-55172676D01*
X45433857Y-55172676D02*
X45386238Y-55267914D01*
X45386238Y-55267914D02*
X45338619Y-55458390D01*
X45338619Y-55458390D02*
X45338619Y-55601247D01*
X45338619Y-55601247D02*
X45386238Y-55791723D01*
X45386238Y-55791723D02*
X45433857Y-55886961D01*
X45433857Y-55886961D02*
X45529095Y-55982200D01*
X45529095Y-55982200D02*
X45671952Y-56029819D01*
X45671952Y-56029819D02*
X45910047Y-56029819D01*
X44433857Y-56029819D02*
X44910047Y-56029819D01*
X44910047Y-56029819D02*
X44910047Y-55029819D01*
X43576714Y-56029819D02*
X44148142Y-56029819D01*
X43862428Y-56029819D02*
X43862428Y-55029819D01*
X43862428Y-55029819D02*
X43957666Y-55172676D01*
X43957666Y-55172676D02*
X44052904Y-55267914D01*
X44052904Y-55267914D02*
X44148142Y-55315533D01*
X43100523Y-56029819D02*
X42910047Y-56029819D01*
X42910047Y-56029819D02*
X42814809Y-55982200D01*
X42814809Y-55982200D02*
X42767190Y-55934580D01*
X42767190Y-55934580D02*
X42671952Y-55791723D01*
X42671952Y-55791723D02*
X42624333Y-55601247D01*
X42624333Y-55601247D02*
X42624333Y-55220295D01*
X42624333Y-55220295D02*
X42671952Y-55125057D01*
X42671952Y-55125057D02*
X42719571Y-55077438D01*
X42719571Y-55077438D02*
X42814809Y-55029819D01*
X42814809Y-55029819D02*
X43005285Y-55029819D01*
X43005285Y-55029819D02*
X43100523Y-55077438D01*
X43100523Y-55077438D02*
X43148142Y-55125057D01*
X43148142Y-55125057D02*
X43195761Y-55220295D01*
X43195761Y-55220295D02*
X43195761Y-55458390D01*
X43195761Y-55458390D02*
X43148142Y-55553628D01*
X43148142Y-55553628D02*
X43100523Y-55601247D01*
X43100523Y-55601247D02*
X43005285Y-55648866D01*
X43005285Y-55648866D02*
X42814809Y-55648866D01*
X42814809Y-55648866D02*
X42719571Y-55601247D01*
X42719571Y-55601247D02*
X42671952Y-55553628D01*
X42671952Y-55553628D02*
X42624333Y-55458390D01*
X18287047Y-36979819D02*
X18287047Y-35979819D01*
X18287047Y-35979819D02*
X18048952Y-35979819D01*
X18048952Y-35979819D02*
X17906095Y-36027438D01*
X17906095Y-36027438D02*
X17810857Y-36122676D01*
X17810857Y-36122676D02*
X17763238Y-36217914D01*
X17763238Y-36217914D02*
X17715619Y-36408390D01*
X17715619Y-36408390D02*
X17715619Y-36551247D01*
X17715619Y-36551247D02*
X17763238Y-36741723D01*
X17763238Y-36741723D02*
X17810857Y-36836961D01*
X17810857Y-36836961D02*
X17906095Y-36932200D01*
X17906095Y-36932200D02*
X18048952Y-36979819D01*
X18048952Y-36979819D02*
X18287047Y-36979819D01*
X16810857Y-36979819D02*
X17287047Y-36979819D01*
X17287047Y-36979819D02*
X17287047Y-35979819D01*
X15953714Y-36979819D02*
X16525142Y-36979819D01*
X16239428Y-36979819D02*
X16239428Y-35979819D01*
X16239428Y-35979819D02*
X16334666Y-36122676D01*
X16334666Y-36122676D02*
X16429904Y-36217914D01*
X16429904Y-36217914D02*
X16525142Y-36265533D01*
X15572761Y-36075057D02*
X15525142Y-36027438D01*
X15525142Y-36027438D02*
X15429904Y-35979819D01*
X15429904Y-35979819D02*
X15191809Y-35979819D01*
X15191809Y-35979819D02*
X15096571Y-36027438D01*
X15096571Y-36027438D02*
X15048952Y-36075057D01*
X15048952Y-36075057D02*
X15001333Y-36170295D01*
X15001333Y-36170295D02*
X15001333Y-36265533D01*
X15001333Y-36265533D02*
X15048952Y-36408390D01*
X15048952Y-36408390D02*
X15620380Y-36979819D01*
X15620380Y-36979819D02*
X15001333Y-36979819D01*
X61149847Y-36980619D02*
X61149847Y-35980619D01*
X61149847Y-35980619D02*
X60911752Y-35980619D01*
X60911752Y-35980619D02*
X60768895Y-36028238D01*
X60768895Y-36028238D02*
X60673657Y-36123476D01*
X60673657Y-36123476D02*
X60626038Y-36218714D01*
X60626038Y-36218714D02*
X60578419Y-36409190D01*
X60578419Y-36409190D02*
X60578419Y-36552047D01*
X60578419Y-36552047D02*
X60626038Y-36742523D01*
X60626038Y-36742523D02*
X60673657Y-36837761D01*
X60673657Y-36837761D02*
X60768895Y-36933000D01*
X60768895Y-36933000D02*
X60911752Y-36980619D01*
X60911752Y-36980619D02*
X61149847Y-36980619D01*
X59673657Y-36980619D02*
X60149847Y-36980619D01*
X60149847Y-36980619D02*
X60149847Y-35980619D01*
X58816514Y-36980619D02*
X59387942Y-36980619D01*
X59102228Y-36980619D02*
X59102228Y-35980619D01*
X59102228Y-35980619D02*
X59197466Y-36123476D01*
X59197466Y-36123476D02*
X59292704Y-36218714D01*
X59292704Y-36218714D02*
X59387942Y-36266333D01*
X58197466Y-35980619D02*
X58102228Y-35980619D01*
X58102228Y-35980619D02*
X58006990Y-36028238D01*
X58006990Y-36028238D02*
X57959371Y-36075857D01*
X57959371Y-36075857D02*
X57911752Y-36171095D01*
X57911752Y-36171095D02*
X57864133Y-36361571D01*
X57864133Y-36361571D02*
X57864133Y-36599666D01*
X57864133Y-36599666D02*
X57911752Y-36790142D01*
X57911752Y-36790142D02*
X57959371Y-36885380D01*
X57959371Y-36885380D02*
X58006990Y-36933000D01*
X58006990Y-36933000D02*
X58102228Y-36980619D01*
X58102228Y-36980619D02*
X58197466Y-36980619D01*
X58197466Y-36980619D02*
X58292704Y-36933000D01*
X58292704Y-36933000D02*
X58340323Y-36885380D01*
X58340323Y-36885380D02*
X58387942Y-36790142D01*
X58387942Y-36790142D02*
X58435561Y-36599666D01*
X58435561Y-36599666D02*
X58435561Y-36361571D01*
X58435561Y-36361571D02*
X58387942Y-36171095D01*
X58387942Y-36171095D02*
X58340323Y-36075857D01*
X58340323Y-36075857D02*
X58292704Y-36028238D01*
X58292704Y-36028238D02*
X58197466Y-35980619D01*
X79109882Y-37693076D02*
X79109882Y-36693076D01*
X79109882Y-36693076D02*
X78871787Y-36693076D01*
X78871787Y-36693076D02*
X78728930Y-36740695D01*
X78728930Y-36740695D02*
X78633692Y-36835933D01*
X78633692Y-36835933D02*
X78586073Y-36931171D01*
X78586073Y-36931171D02*
X78538454Y-37121647D01*
X78538454Y-37121647D02*
X78538454Y-37264504D01*
X78538454Y-37264504D02*
X78586073Y-37454980D01*
X78586073Y-37454980D02*
X78633692Y-37550218D01*
X78633692Y-37550218D02*
X78728930Y-37645457D01*
X78728930Y-37645457D02*
X78871787Y-37693076D01*
X78871787Y-37693076D02*
X79109882Y-37693076D01*
X77633692Y-37693076D02*
X78109882Y-37693076D01*
X78109882Y-37693076D02*
X78109882Y-36693076D01*
X77252739Y-37693076D02*
X77062263Y-37693076D01*
X77062263Y-37693076D02*
X76967025Y-37645457D01*
X76967025Y-37645457D02*
X76919406Y-37597837D01*
X76919406Y-37597837D02*
X76824168Y-37454980D01*
X76824168Y-37454980D02*
X76776549Y-37264504D01*
X76776549Y-37264504D02*
X76776549Y-36883552D01*
X76776549Y-36883552D02*
X76824168Y-36788314D01*
X76824168Y-36788314D02*
X76871787Y-36740695D01*
X76871787Y-36740695D02*
X76967025Y-36693076D01*
X76967025Y-36693076D02*
X77157501Y-36693076D01*
X77157501Y-36693076D02*
X77252739Y-36740695D01*
X77252739Y-36740695D02*
X77300358Y-36788314D01*
X77300358Y-36788314D02*
X77347977Y-36883552D01*
X77347977Y-36883552D02*
X77347977Y-37121647D01*
X77347977Y-37121647D02*
X77300358Y-37216885D01*
X77300358Y-37216885D02*
X77252739Y-37264504D01*
X77252739Y-37264504D02*
X77157501Y-37312123D01*
X77157501Y-37312123D02*
X76967025Y-37312123D01*
X76967025Y-37312123D02*
X76871787Y-37264504D01*
X76871787Y-37264504D02*
X76824168Y-37216885D01*
X76824168Y-37216885D02*
X76776549Y-37121647D01*
X87986673Y-76898276D02*
X87986673Y-75898276D01*
X87986673Y-75898276D02*
X87748578Y-75898276D01*
X87748578Y-75898276D02*
X87605721Y-75945895D01*
X87605721Y-75945895D02*
X87510483Y-76041133D01*
X87510483Y-76041133D02*
X87462864Y-76136371D01*
X87462864Y-76136371D02*
X87415245Y-76326847D01*
X87415245Y-76326847D02*
X87415245Y-76469704D01*
X87415245Y-76469704D02*
X87462864Y-76660180D01*
X87462864Y-76660180D02*
X87510483Y-76755418D01*
X87510483Y-76755418D02*
X87605721Y-76850657D01*
X87605721Y-76850657D02*
X87748578Y-76898276D01*
X87748578Y-76898276D02*
X87986673Y-76898276D01*
X86510483Y-76898276D02*
X86986673Y-76898276D01*
X86986673Y-76898276D02*
X86986673Y-75898276D01*
X86224768Y-75993514D02*
X86177149Y-75945895D01*
X86177149Y-75945895D02*
X86081911Y-75898276D01*
X86081911Y-75898276D02*
X85843816Y-75898276D01*
X85843816Y-75898276D02*
X85748578Y-75945895D01*
X85748578Y-75945895D02*
X85700959Y-75993514D01*
X85700959Y-75993514D02*
X85653340Y-76088752D01*
X85653340Y-76088752D02*
X85653340Y-76183990D01*
X85653340Y-76183990D02*
X85700959Y-76326847D01*
X85700959Y-76326847D02*
X86272387Y-76898276D01*
X86272387Y-76898276D02*
X85653340Y-76898276D01*
X84796197Y-76231609D02*
X84796197Y-76898276D01*
X85034292Y-75850657D02*
X85272387Y-76564942D01*
X85272387Y-76564942D02*
X84653340Y-76564942D01*
X16169819Y-92055952D02*
X15169819Y-92055952D01*
X15169819Y-92055952D02*
X15169819Y-92294047D01*
X15169819Y-92294047D02*
X15217438Y-92436904D01*
X15217438Y-92436904D02*
X15312676Y-92532142D01*
X15312676Y-92532142D02*
X15407914Y-92579761D01*
X15407914Y-92579761D02*
X15598390Y-92627380D01*
X15598390Y-92627380D02*
X15741247Y-92627380D01*
X15741247Y-92627380D02*
X15931723Y-92579761D01*
X15931723Y-92579761D02*
X16026961Y-92532142D01*
X16026961Y-92532142D02*
X16122200Y-92436904D01*
X16122200Y-92436904D02*
X16169819Y-92294047D01*
X16169819Y-92294047D02*
X16169819Y-92055952D01*
X16169819Y-93532142D02*
X16169819Y-93055952D01*
X16169819Y-93055952D02*
X15169819Y-93055952D01*
X15265057Y-93817857D02*
X15217438Y-93865476D01*
X15217438Y-93865476D02*
X15169819Y-93960714D01*
X15169819Y-93960714D02*
X15169819Y-94198809D01*
X15169819Y-94198809D02*
X15217438Y-94294047D01*
X15217438Y-94294047D02*
X15265057Y-94341666D01*
X15265057Y-94341666D02*
X15360295Y-94389285D01*
X15360295Y-94389285D02*
X15455533Y-94389285D01*
X15455533Y-94389285D02*
X15598390Y-94341666D01*
X15598390Y-94341666D02*
X16169819Y-93770238D01*
X16169819Y-93770238D02*
X16169819Y-94389285D01*
X15169819Y-94722619D02*
X15169819Y-95389285D01*
X15169819Y-95389285D02*
X16169819Y-94960714D01*
X121445617Y-62382709D02*
X121445617Y-61382709D01*
X121445617Y-61382709D02*
X121207522Y-61382709D01*
X121207522Y-61382709D02*
X121064665Y-61430328D01*
X121064665Y-61430328D02*
X120969427Y-61525566D01*
X120969427Y-61525566D02*
X120921808Y-61620804D01*
X120921808Y-61620804D02*
X120874189Y-61811280D01*
X120874189Y-61811280D02*
X120874189Y-61954137D01*
X120874189Y-61954137D02*
X120921808Y-62144613D01*
X120921808Y-62144613D02*
X120969427Y-62239851D01*
X120969427Y-62239851D02*
X121064665Y-62335090D01*
X121064665Y-62335090D02*
X121207522Y-62382709D01*
X121207522Y-62382709D02*
X121445617Y-62382709D01*
X119969427Y-62382709D02*
X120445617Y-62382709D01*
X120445617Y-62382709D02*
X120445617Y-61382709D01*
X119112284Y-62382709D02*
X119683712Y-62382709D01*
X119397998Y-62382709D02*
X119397998Y-61382709D01*
X119397998Y-61382709D02*
X119493236Y-61525566D01*
X119493236Y-61525566D02*
X119588474Y-61620804D01*
X119588474Y-61620804D02*
X119683712Y-61668423D01*
X118207522Y-61382709D02*
X118683712Y-61382709D01*
X118683712Y-61382709D02*
X118731331Y-61858899D01*
X118731331Y-61858899D02*
X118683712Y-61811280D01*
X118683712Y-61811280D02*
X118588474Y-61763661D01*
X118588474Y-61763661D02*
X118350379Y-61763661D01*
X118350379Y-61763661D02*
X118255141Y-61811280D01*
X118255141Y-61811280D02*
X118207522Y-61858899D01*
X118207522Y-61858899D02*
X118159903Y-61954137D01*
X118159903Y-61954137D02*
X118159903Y-62192232D01*
X118159903Y-62192232D02*
X118207522Y-62287470D01*
X118207522Y-62287470D02*
X118255141Y-62335090D01*
X118255141Y-62335090D02*
X118350379Y-62382709D01*
X118350379Y-62382709D02*
X118588474Y-62382709D01*
X118588474Y-62382709D02*
X118683712Y-62335090D01*
X118683712Y-62335090D02*
X118731331Y-62287470D01*
X65757374Y-56230156D02*
X65757374Y-55230156D01*
X65757374Y-55230156D02*
X65519279Y-55230156D01*
X65519279Y-55230156D02*
X65376422Y-55277775D01*
X65376422Y-55277775D02*
X65281184Y-55373013D01*
X65281184Y-55373013D02*
X65233565Y-55468251D01*
X65233565Y-55468251D02*
X65185946Y-55658727D01*
X65185946Y-55658727D02*
X65185946Y-55801584D01*
X65185946Y-55801584D02*
X65233565Y-55992060D01*
X65233565Y-55992060D02*
X65281184Y-56087298D01*
X65281184Y-56087298D02*
X65376422Y-56182537D01*
X65376422Y-56182537D02*
X65519279Y-56230156D01*
X65519279Y-56230156D02*
X65757374Y-56230156D01*
X64281184Y-56230156D02*
X64757374Y-56230156D01*
X64757374Y-56230156D02*
X64757374Y-55230156D01*
X63424041Y-56230156D02*
X63995469Y-56230156D01*
X63709755Y-56230156D02*
X63709755Y-55230156D01*
X63709755Y-55230156D02*
X63804993Y-55373013D01*
X63804993Y-55373013D02*
X63900231Y-55468251D01*
X63900231Y-55468251D02*
X63995469Y-55515870D01*
X62852612Y-55658727D02*
X62947850Y-55611108D01*
X62947850Y-55611108D02*
X62995469Y-55563489D01*
X62995469Y-55563489D02*
X63043088Y-55468251D01*
X63043088Y-55468251D02*
X63043088Y-55420632D01*
X63043088Y-55420632D02*
X62995469Y-55325394D01*
X62995469Y-55325394D02*
X62947850Y-55277775D01*
X62947850Y-55277775D02*
X62852612Y-55230156D01*
X62852612Y-55230156D02*
X62662136Y-55230156D01*
X62662136Y-55230156D02*
X62566898Y-55277775D01*
X62566898Y-55277775D02*
X62519279Y-55325394D01*
X62519279Y-55325394D02*
X62471660Y-55420632D01*
X62471660Y-55420632D02*
X62471660Y-55468251D01*
X62471660Y-55468251D02*
X62519279Y-55563489D01*
X62519279Y-55563489D02*
X62566898Y-55611108D01*
X62566898Y-55611108D02*
X62662136Y-55658727D01*
X62662136Y-55658727D02*
X62852612Y-55658727D01*
X62852612Y-55658727D02*
X62947850Y-55706346D01*
X62947850Y-55706346D02*
X62995469Y-55753965D01*
X62995469Y-55753965D02*
X63043088Y-55849203D01*
X63043088Y-55849203D02*
X63043088Y-56039679D01*
X63043088Y-56039679D02*
X62995469Y-56134917D01*
X62995469Y-56134917D02*
X62947850Y-56182537D01*
X62947850Y-56182537D02*
X62852612Y-56230156D01*
X62852612Y-56230156D02*
X62662136Y-56230156D01*
X62662136Y-56230156D02*
X62566898Y-56182537D01*
X62566898Y-56182537D02*
X62519279Y-56134917D01*
X62519279Y-56134917D02*
X62471660Y-56039679D01*
X62471660Y-56039679D02*
X62471660Y-55849203D01*
X62471660Y-55849203D02*
X62519279Y-55753965D01*
X62519279Y-55753965D02*
X62566898Y-55706346D01*
X62566898Y-55706346D02*
X62662136Y-55658727D01*
X34002856Y-17929819D02*
X34002856Y-16929819D01*
X34002856Y-16929819D02*
X33764761Y-16929819D01*
X33764761Y-16929819D02*
X33621904Y-16977438D01*
X33621904Y-16977438D02*
X33526666Y-17072676D01*
X33526666Y-17072676D02*
X33479047Y-17167914D01*
X33479047Y-17167914D02*
X33431428Y-17358390D01*
X33431428Y-17358390D02*
X33431428Y-17501247D01*
X33431428Y-17501247D02*
X33479047Y-17691723D01*
X33479047Y-17691723D02*
X33526666Y-17786961D01*
X33526666Y-17786961D02*
X33621904Y-17882200D01*
X33621904Y-17882200D02*
X33764761Y-17929819D01*
X33764761Y-17929819D02*
X34002856Y-17929819D01*
X32526666Y-17929819D02*
X33002856Y-17929819D01*
X33002856Y-17929819D02*
X33002856Y-16929819D01*
X32240951Y-17025057D02*
X32193332Y-16977438D01*
X32193332Y-16977438D02*
X32098094Y-16929819D01*
X32098094Y-16929819D02*
X31859999Y-16929819D01*
X31859999Y-16929819D02*
X31764761Y-16977438D01*
X31764761Y-16977438D02*
X31717142Y-17025057D01*
X31717142Y-17025057D02*
X31669523Y-17120295D01*
X31669523Y-17120295D02*
X31669523Y-17215533D01*
X31669523Y-17215533D02*
X31717142Y-17358390D01*
X31717142Y-17358390D02*
X32288570Y-17929819D01*
X32288570Y-17929819D02*
X31669523Y-17929819D01*
X42099047Y-36979819D02*
X42099047Y-35979819D01*
X42099047Y-35979819D02*
X41860952Y-35979819D01*
X41860952Y-35979819D02*
X41718095Y-36027438D01*
X41718095Y-36027438D02*
X41622857Y-36122676D01*
X41622857Y-36122676D02*
X41575238Y-36217914D01*
X41575238Y-36217914D02*
X41527619Y-36408390D01*
X41527619Y-36408390D02*
X41527619Y-36551247D01*
X41527619Y-36551247D02*
X41575238Y-36741723D01*
X41575238Y-36741723D02*
X41622857Y-36836961D01*
X41622857Y-36836961D02*
X41718095Y-36932200D01*
X41718095Y-36932200D02*
X41860952Y-36979819D01*
X41860952Y-36979819D02*
X42099047Y-36979819D01*
X40622857Y-36979819D02*
X41099047Y-36979819D01*
X41099047Y-36979819D02*
X41099047Y-35979819D01*
X39765714Y-36979819D02*
X40337142Y-36979819D01*
X40051428Y-36979819D02*
X40051428Y-35979819D01*
X40051428Y-35979819D02*
X40146666Y-36122676D01*
X40146666Y-36122676D02*
X40241904Y-36217914D01*
X40241904Y-36217914D02*
X40337142Y-36265533D01*
X38813333Y-36979819D02*
X39384761Y-36979819D01*
X39099047Y-36979819D02*
X39099047Y-35979819D01*
X39099047Y-35979819D02*
X39194285Y-36122676D01*
X39194285Y-36122676D02*
X39289523Y-36217914D01*
X39289523Y-36217914D02*
X39384761Y-36265533D01*
X84546873Y-57256076D02*
X84546873Y-56256076D01*
X84546873Y-56256076D02*
X84308778Y-56256076D01*
X84308778Y-56256076D02*
X84165921Y-56303695D01*
X84165921Y-56303695D02*
X84070683Y-56398933D01*
X84070683Y-56398933D02*
X84023064Y-56494171D01*
X84023064Y-56494171D02*
X83975445Y-56684647D01*
X83975445Y-56684647D02*
X83975445Y-56827504D01*
X83975445Y-56827504D02*
X84023064Y-57017980D01*
X84023064Y-57017980D02*
X84070683Y-57113218D01*
X84070683Y-57113218D02*
X84165921Y-57208457D01*
X84165921Y-57208457D02*
X84308778Y-57256076D01*
X84308778Y-57256076D02*
X84546873Y-57256076D01*
X83070683Y-57256076D02*
X83546873Y-57256076D01*
X83546873Y-57256076D02*
X83546873Y-56256076D01*
X82213540Y-57256076D02*
X82784968Y-57256076D01*
X82499254Y-57256076D02*
X82499254Y-56256076D01*
X82499254Y-56256076D02*
X82594492Y-56398933D01*
X82594492Y-56398933D02*
X82689730Y-56494171D01*
X82689730Y-56494171D02*
X82784968Y-56541790D01*
X81880206Y-56256076D02*
X81213540Y-56256076D01*
X81213540Y-56256076D02*
X81642111Y-57256076D01*
X121937417Y-101231909D02*
X121937417Y-100231909D01*
X121937417Y-100231909D02*
X121699322Y-100231909D01*
X121699322Y-100231909D02*
X121556465Y-100279528D01*
X121556465Y-100279528D02*
X121461227Y-100374766D01*
X121461227Y-100374766D02*
X121413608Y-100470004D01*
X121413608Y-100470004D02*
X121365989Y-100660480D01*
X121365989Y-100660480D02*
X121365989Y-100803337D01*
X121365989Y-100803337D02*
X121413608Y-100993813D01*
X121413608Y-100993813D02*
X121461227Y-101089051D01*
X121461227Y-101089051D02*
X121556465Y-101184290D01*
X121556465Y-101184290D02*
X121699322Y-101231909D01*
X121699322Y-101231909D02*
X121937417Y-101231909D01*
X120461227Y-101231909D02*
X120937417Y-101231909D01*
X120937417Y-101231909D02*
X120937417Y-100231909D01*
X120223131Y-100231909D02*
X119604084Y-100231909D01*
X119604084Y-100231909D02*
X119937417Y-100612861D01*
X119937417Y-100612861D02*
X119794560Y-100612861D01*
X119794560Y-100612861D02*
X119699322Y-100660480D01*
X119699322Y-100660480D02*
X119651703Y-100708099D01*
X119651703Y-100708099D02*
X119604084Y-100803337D01*
X119604084Y-100803337D02*
X119604084Y-101041432D01*
X119604084Y-101041432D02*
X119651703Y-101136670D01*
X119651703Y-101136670D02*
X119699322Y-101184290D01*
X119699322Y-101184290D02*
X119794560Y-101231909D01*
X119794560Y-101231909D02*
X120080274Y-101231909D01*
X120080274Y-101231909D02*
X120175512Y-101184290D01*
X120175512Y-101184290D02*
X120223131Y-101136670D01*
X118651703Y-101231909D02*
X119223131Y-101231909D01*
X118937417Y-101231909D02*
X118937417Y-100231909D01*
X118937417Y-100231909D02*
X119032655Y-100374766D01*
X119032655Y-100374766D02*
X119127893Y-100470004D01*
X119127893Y-100470004D02*
X119223131Y-100517623D01*
X124919417Y-82417909D02*
X124919417Y-81417909D01*
X124919417Y-81417909D02*
X124681322Y-81417909D01*
X124681322Y-81417909D02*
X124538465Y-81465528D01*
X124538465Y-81465528D02*
X124443227Y-81560766D01*
X124443227Y-81560766D02*
X124395608Y-81656004D01*
X124395608Y-81656004D02*
X124347989Y-81846480D01*
X124347989Y-81846480D02*
X124347989Y-81989337D01*
X124347989Y-81989337D02*
X124395608Y-82179813D01*
X124395608Y-82179813D02*
X124443227Y-82275051D01*
X124443227Y-82275051D02*
X124538465Y-82370290D01*
X124538465Y-82370290D02*
X124681322Y-82417909D01*
X124681322Y-82417909D02*
X124919417Y-82417909D01*
X123443227Y-82417909D02*
X123919417Y-82417909D01*
X123919417Y-82417909D02*
X123919417Y-81417909D01*
X123157512Y-81513147D02*
X123109893Y-81465528D01*
X123109893Y-81465528D02*
X123014655Y-81417909D01*
X123014655Y-81417909D02*
X122776560Y-81417909D01*
X122776560Y-81417909D02*
X122681322Y-81465528D01*
X122681322Y-81465528D02*
X122633703Y-81513147D01*
X122633703Y-81513147D02*
X122586084Y-81608385D01*
X122586084Y-81608385D02*
X122586084Y-81703623D01*
X122586084Y-81703623D02*
X122633703Y-81846480D01*
X122633703Y-81846480D02*
X123205131Y-82417909D01*
X123205131Y-82417909D02*
X122586084Y-82417909D01*
X121728941Y-81417909D02*
X121919417Y-81417909D01*
X121919417Y-81417909D02*
X122014655Y-81465528D01*
X122014655Y-81465528D02*
X122062274Y-81513147D01*
X122062274Y-81513147D02*
X122157512Y-81656004D01*
X122157512Y-81656004D02*
X122205131Y-81846480D01*
X122205131Y-81846480D02*
X122205131Y-82227432D01*
X122205131Y-82227432D02*
X122157512Y-82322670D01*
X122157512Y-82322670D02*
X122109893Y-82370290D01*
X122109893Y-82370290D02*
X122014655Y-82417909D01*
X122014655Y-82417909D02*
X121824179Y-82417909D01*
X121824179Y-82417909D02*
X121728941Y-82370290D01*
X121728941Y-82370290D02*
X121681322Y-82322670D01*
X121681322Y-82322670D02*
X121633703Y-82227432D01*
X121633703Y-82227432D02*
X121633703Y-81989337D01*
X121633703Y-81989337D02*
X121681322Y-81894099D01*
X121681322Y-81894099D02*
X121728941Y-81846480D01*
X121728941Y-81846480D02*
X121824179Y-81798861D01*
X121824179Y-81798861D02*
X122014655Y-81798861D01*
X122014655Y-81798861D02*
X122109893Y-81846480D01*
X122109893Y-81846480D02*
X122157512Y-81894099D01*
X122157512Y-81894099D02*
X122205131Y-81989337D01*
X116832417Y-42518909D02*
X116832417Y-41518909D01*
X116832417Y-41518909D02*
X116594322Y-41518909D01*
X116594322Y-41518909D02*
X116451465Y-41566528D01*
X116451465Y-41566528D02*
X116356227Y-41661766D01*
X116356227Y-41661766D02*
X116308608Y-41757004D01*
X116308608Y-41757004D02*
X116260989Y-41947480D01*
X116260989Y-41947480D02*
X116260989Y-42090337D01*
X116260989Y-42090337D02*
X116308608Y-42280813D01*
X116308608Y-42280813D02*
X116356227Y-42376051D01*
X116356227Y-42376051D02*
X116451465Y-42471290D01*
X116451465Y-42471290D02*
X116594322Y-42518909D01*
X116594322Y-42518909D02*
X116832417Y-42518909D01*
X115356227Y-42518909D02*
X115832417Y-42518909D01*
X115832417Y-42518909D02*
X115832417Y-41518909D01*
X114499084Y-42518909D02*
X115070512Y-42518909D01*
X114784798Y-42518909D02*
X114784798Y-41518909D01*
X114784798Y-41518909D02*
X114880036Y-41661766D01*
X114880036Y-41661766D02*
X114975274Y-41757004D01*
X114975274Y-41757004D02*
X115070512Y-41804623D01*
X114165750Y-41518909D02*
X113546703Y-41518909D01*
X113546703Y-41518909D02*
X113880036Y-41899861D01*
X113880036Y-41899861D02*
X113737179Y-41899861D01*
X113737179Y-41899861D02*
X113641941Y-41947480D01*
X113641941Y-41947480D02*
X113594322Y-41995099D01*
X113594322Y-41995099D02*
X113546703Y-42090337D01*
X113546703Y-42090337D02*
X113546703Y-42328432D01*
X113546703Y-42328432D02*
X113594322Y-42423670D01*
X113594322Y-42423670D02*
X113641941Y-42471290D01*
X113641941Y-42471290D02*
X113737179Y-42518909D01*
X113737179Y-42518909D02*
X114022893Y-42518909D01*
X114022893Y-42518909D02*
X114118131Y-42471290D01*
X114118131Y-42471290D02*
X114165750Y-42423670D01*
X109008026Y-22215109D02*
X109008026Y-21215109D01*
X109008026Y-21215109D02*
X108769931Y-21215109D01*
X108769931Y-21215109D02*
X108627074Y-21262728D01*
X108627074Y-21262728D02*
X108531836Y-21357966D01*
X108531836Y-21357966D02*
X108484217Y-21453204D01*
X108484217Y-21453204D02*
X108436598Y-21643680D01*
X108436598Y-21643680D02*
X108436598Y-21786537D01*
X108436598Y-21786537D02*
X108484217Y-21977013D01*
X108484217Y-21977013D02*
X108531836Y-22072251D01*
X108531836Y-22072251D02*
X108627074Y-22167490D01*
X108627074Y-22167490D02*
X108769931Y-22215109D01*
X108769931Y-22215109D02*
X109008026Y-22215109D01*
X107531836Y-22215109D02*
X108008026Y-22215109D01*
X108008026Y-22215109D02*
X108008026Y-21215109D01*
X106769931Y-21215109D02*
X106960407Y-21215109D01*
X106960407Y-21215109D02*
X107055645Y-21262728D01*
X107055645Y-21262728D02*
X107103264Y-21310347D01*
X107103264Y-21310347D02*
X107198502Y-21453204D01*
X107198502Y-21453204D02*
X107246121Y-21643680D01*
X107246121Y-21643680D02*
X107246121Y-22024632D01*
X107246121Y-22024632D02*
X107198502Y-22119870D01*
X107198502Y-22119870D02*
X107150883Y-22167490D01*
X107150883Y-22167490D02*
X107055645Y-22215109D01*
X107055645Y-22215109D02*
X106865169Y-22215109D01*
X106865169Y-22215109D02*
X106769931Y-22167490D01*
X106769931Y-22167490D02*
X106722312Y-22119870D01*
X106722312Y-22119870D02*
X106674693Y-22024632D01*
X106674693Y-22024632D02*
X106674693Y-21786537D01*
X106674693Y-21786537D02*
X106722312Y-21691299D01*
X106722312Y-21691299D02*
X106769931Y-21643680D01*
X106769931Y-21643680D02*
X106865169Y-21596061D01*
X106865169Y-21596061D02*
X107055645Y-21596061D01*
X107055645Y-21596061D02*
X107150883Y-21643680D01*
X107150883Y-21643680D02*
X107198502Y-21691299D01*
X107198502Y-21691299D02*
X107246121Y-21786537D01*
X102642017Y-59403309D02*
X102642017Y-58403309D01*
X102642017Y-58403309D02*
X102403922Y-58403309D01*
X102403922Y-58403309D02*
X102261065Y-58450928D01*
X102261065Y-58450928D02*
X102165827Y-58546166D01*
X102165827Y-58546166D02*
X102118208Y-58641404D01*
X102118208Y-58641404D02*
X102070589Y-58831880D01*
X102070589Y-58831880D02*
X102070589Y-58974737D01*
X102070589Y-58974737D02*
X102118208Y-59165213D01*
X102118208Y-59165213D02*
X102165827Y-59260451D01*
X102165827Y-59260451D02*
X102261065Y-59355690D01*
X102261065Y-59355690D02*
X102403922Y-59403309D01*
X102403922Y-59403309D02*
X102642017Y-59403309D01*
X101165827Y-59403309D02*
X101642017Y-59403309D01*
X101642017Y-59403309D02*
X101642017Y-58403309D01*
X100308684Y-59403309D02*
X100880112Y-59403309D01*
X100594398Y-59403309D02*
X100594398Y-58403309D01*
X100594398Y-58403309D02*
X100689636Y-58546166D01*
X100689636Y-58546166D02*
X100784874Y-58641404D01*
X100784874Y-58641404D02*
X100880112Y-58689023D01*
X99451541Y-58403309D02*
X99642017Y-58403309D01*
X99642017Y-58403309D02*
X99737255Y-58450928D01*
X99737255Y-58450928D02*
X99784874Y-58498547D01*
X99784874Y-58498547D02*
X99880112Y-58641404D01*
X99880112Y-58641404D02*
X99927731Y-58831880D01*
X99927731Y-58831880D02*
X99927731Y-59212832D01*
X99927731Y-59212832D02*
X99880112Y-59308070D01*
X99880112Y-59308070D02*
X99832493Y-59355690D01*
X99832493Y-59355690D02*
X99737255Y-59403309D01*
X99737255Y-59403309D02*
X99546779Y-59403309D01*
X99546779Y-59403309D02*
X99451541Y-59355690D01*
X99451541Y-59355690D02*
X99403922Y-59308070D01*
X99403922Y-59308070D02*
X99356303Y-59212832D01*
X99356303Y-59212832D02*
X99356303Y-58974737D01*
X99356303Y-58974737D02*
X99403922Y-58879499D01*
X99403922Y-58879499D02*
X99451541Y-58831880D01*
X99451541Y-58831880D02*
X99546779Y-58784261D01*
X99546779Y-58784261D02*
X99737255Y-58784261D01*
X99737255Y-58784261D02*
X99832493Y-58831880D01*
X99832493Y-58831880D02*
X99880112Y-58879499D01*
X99880112Y-58879499D02*
X99927731Y-58974737D01*
%TO.C,AML3*%
D11*
X66332409Y-65511561D02*
X66850535Y-55625129D01*
X70227065Y-65715671D02*
X70745191Y-55829239D01*
D12*
X65789833Y-64969310D02*
G75*
G02*
X65479833Y-64969310I-155000J0D01*
G01*
X65479833Y-64969310D02*
G75*
G02*
X65789833Y-64969310I155000J0D01*
G01*
%TO.C,DL25*%
D11*
X100969523Y-77692830D02*
X108179648Y-78834801D01*
X101442737Y-74705073D02*
X100969523Y-77692830D01*
X101442737Y-74705073D02*
X102272226Y-74102414D01*
X108179648Y-78834801D02*
X108766277Y-75130970D01*
X108766277Y-75130970D02*
X102272226Y-74102414D01*
X102403279Y-74553468D02*
X102582719Y-74379395D01*
X102286413Y-74332465D01*
X102403279Y-74553468D01*
G36*
X102582719Y-74379395D02*
G01*
X102403279Y-74553468D01*
X102286413Y-74332465D01*
X102582719Y-74379395D01*
G37*
%TO.C,DL21*%
X14447000Y-70875000D02*
X14447000Y-73900000D01*
X14447000Y-70875000D02*
X15172000Y-70150000D01*
X14447000Y-73900000D02*
X21747000Y-73900000D01*
X21747000Y-70150000D02*
X15172000Y-70150000D01*
X21747000Y-73900000D02*
X21747000Y-70150000D01*
X15372000Y-70575000D02*
X15522000Y-70375000D01*
X15222003Y-70375000D01*
X15372000Y-70575000D01*
G36*
X15372000Y-70575000D02*
G01*
X15222003Y-70375000D01*
X15522000Y-70375000D01*
X15372000Y-70575000D01*
G37*
%TO.C,AML1*%
X37368000Y-46050000D02*
X27468000Y-46050000D01*
X37368000Y-49950000D02*
X27468000Y-49950000D01*
D12*
X37018000Y-50675000D02*
G75*
G02*
X36708000Y-50675000I-155000J0D01*
G01*
X36708000Y-50675000D02*
G75*
G02*
X37018000Y-50675000I155000J0D01*
G01*
%TO.C,DL20*%
D11*
X14447000Y-51825000D02*
X14447000Y-54850000D01*
X14447000Y-51825000D02*
X15172000Y-51100000D01*
X14447000Y-54850000D02*
X21747000Y-54850000D01*
X21747000Y-51100000D02*
X15172000Y-51100000D01*
X21747000Y-54850000D02*
X21747000Y-51100000D01*
X15372000Y-51525000D02*
X15522000Y-51325000D01*
X15222000Y-51325000D01*
X15372000Y-51525000D01*
G36*
X15372000Y-51525000D02*
G01*
X15222000Y-51325000D01*
X15522000Y-51325000D01*
X15372000Y-51525000D01*
G37*
%TO.C,DL5*%
X86004404Y-18281900D02*
X93264414Y-19044957D01*
X86320603Y-15273471D02*
X86004404Y-18281900D01*
X86320603Y-15273471D02*
X87117414Y-14628226D01*
X93264414Y-19044957D02*
X93656396Y-15315500D01*
X93656396Y-15315500D02*
X87117414Y-14628226D01*
X87271894Y-15071803D02*
X87441978Y-14888578D01*
X87143624Y-14857220D01*
X87271894Y-15071803D01*
G36*
X87441978Y-14888578D02*
G01*
X87271894Y-15071803D01*
X87143624Y-14857220D01*
X87441978Y-14888578D01*
G37*
%TO.C,AML2*%
X37868000Y-38050000D02*
X27968000Y-38050000D01*
X37868000Y-41950000D02*
X27968000Y-41950000D01*
D12*
X37518000Y-42675000D02*
G75*
G02*
X37208000Y-42675000I-155000J0D01*
G01*
X37208000Y-42675000D02*
G75*
G02*
X37518000Y-42675000I155000J0D01*
G01*
%TO.C,AML4*%
D11*
X70468000Y-80475000D02*
X80368000Y-80475000D01*
X70468000Y-84375000D02*
X80368000Y-84375000D01*
D12*
X71128000Y-79750000D02*
G75*
G02*
X70818000Y-79750000I-155000J0D01*
G01*
X70818000Y-79750000D02*
G75*
G02*
X71128000Y-79750000I155000J0D01*
G01*
%TO.C,DL29*%
D11*
X40641000Y-89925000D02*
X40641000Y-92950000D01*
X40641000Y-89925000D02*
X41366000Y-89200000D01*
X40641000Y-92950000D02*
X47941000Y-92950000D01*
X47941000Y-89200000D02*
X41366000Y-89200000D01*
X47941000Y-92950000D02*
X47941000Y-89200000D01*
X41566000Y-89625000D02*
X41716000Y-89425000D01*
X41416000Y-89425000D01*
X41566000Y-89625000D01*
G36*
X41566000Y-89625000D02*
G01*
X41416000Y-89425000D01*
X41716000Y-89425000D01*
X41566000Y-89625000D01*
G37*
%TO.C,AML5*%
X10868000Y-47550000D02*
X968000Y-47550000D01*
X10868000Y-51450000D02*
X968000Y-51450000D01*
D12*
X10518000Y-52175000D02*
G75*
G02*
X10208000Y-52175000I-155000J0D01*
G01*
X10208000Y-52175000D02*
G75*
G02*
X10518000Y-52175000I155000J0D01*
G01*
%TO.C,DL3*%
D11*
X48260000Y-13725000D02*
X48260000Y-16750000D01*
X48260000Y-13725000D02*
X48985000Y-13000000D01*
X48260000Y-16750000D02*
X55560000Y-16750000D01*
X55560000Y-13000000D02*
X48985000Y-13000000D01*
X55560000Y-16750000D02*
X55560000Y-13000000D01*
X49185000Y-13425000D02*
X49335000Y-13225000D01*
X49035000Y-13225000D01*
X49185000Y-13425000D01*
G36*
X49185000Y-13425000D02*
G01*
X49035000Y-13225000D01*
X49335000Y-13225000D01*
X49185000Y-13425000D01*
G37*
%TO.C,DL30*%
X80821804Y-94286900D02*
X88081814Y-95049957D01*
X81138003Y-91278471D02*
X80821804Y-94286900D01*
X81138003Y-91278471D02*
X81934814Y-90633226D01*
X88081814Y-95049957D02*
X88473796Y-91320500D01*
X88473796Y-91320500D02*
X81934814Y-90633226D01*
X82089294Y-91076803D02*
X82259378Y-90893578D01*
X81961024Y-90862220D01*
X82089294Y-91076803D01*
G36*
X82259378Y-90893578D02*
G01*
X82089294Y-91076803D01*
X81961024Y-90862220D01*
X82259378Y-90893578D01*
G37*
%TO.C,DL22*%
X45403000Y-70875000D02*
X45403000Y-73900000D01*
X45403000Y-70875000D02*
X46128000Y-70150000D01*
X45403000Y-73900000D02*
X52703000Y-73900000D01*
X52703000Y-70150000D02*
X46128000Y-70150000D01*
X52703000Y-73900000D02*
X52703000Y-70150000D01*
X46328000Y-70575000D02*
X46478000Y-70375000D01*
X46178000Y-70375000D01*
X46328000Y-70575000D01*
G36*
X46328000Y-70575000D02*
G01*
X46178000Y-70375000D01*
X46478000Y-70375000D01*
X46328000Y-70575000D01*
G37*
%TO.C,DL14*%
X130534323Y-43766830D02*
X137744448Y-44908801D01*
X131007537Y-40779073D02*
X130534323Y-43766830D01*
X131007537Y-40779073D02*
X131837026Y-40176414D01*
X137744448Y-44908801D02*
X138331077Y-41204970D01*
X138331077Y-41204970D02*
X131837026Y-40176414D01*
X131968079Y-40627468D02*
X132147519Y-40453395D01*
X131851213Y-40406465D01*
X131968079Y-40627468D01*
G36*
X132147519Y-40453395D02*
G01*
X131968079Y-40627468D01*
X131851213Y-40406465D01*
X132147519Y-40453395D01*
G37*
%TO.C,DL4*%
X66971672Y-16791904D02*
X74261668Y-17173957D01*
X67129989Y-13771050D02*
X66971672Y-16791904D01*
X67129989Y-13771050D02*
X67891939Y-13084987D01*
X74261668Y-17173957D02*
X74457928Y-13429096D01*
X74457928Y-13429096D02*
X67891939Y-13084987D01*
X68069422Y-13519872D02*
X68229683Y-13327996D01*
X67930094Y-13312295D01*
X68069422Y-13519872D01*
G36*
X68229683Y-13327996D02*
G01*
X68069422Y-13519872D01*
X67930094Y-13312295D01*
X68229683Y-13327996D01*
G37*
%TO.C,DL8*%
X93355004Y-38118900D02*
X100615014Y-38881957D01*
X93671203Y-35110471D02*
X93355004Y-38118900D01*
X93671203Y-35110471D02*
X94468014Y-34465226D01*
X100615014Y-38881957D02*
X101006996Y-35152500D01*
X101006996Y-35152500D02*
X94468014Y-34465226D01*
X94622494Y-34908803D02*
X94792578Y-34725578D01*
X94494224Y-34694220D01*
X94622494Y-34908803D01*
G36*
X94792578Y-34725578D02*
G01*
X94622494Y-34908803D01*
X94494224Y-34694220D01*
X94792578Y-34725578D01*
G37*
%TO.C,DL1*%
X10160000Y-13725000D02*
X10160000Y-16750000D01*
X10160000Y-13725000D02*
X10885000Y-13000000D01*
X10160000Y-16750000D02*
X17460000Y-16750000D01*
X17460000Y-13000000D02*
X10885000Y-13000000D01*
X17460000Y-16750000D02*
X17460000Y-13000000D01*
X11085000Y-13425000D02*
X11235000Y-13225000D01*
X10935000Y-13225000D01*
X11085000Y-13425000D01*
G36*
X11085000Y-13425000D02*
G01*
X10935000Y-13225000D01*
X11235000Y-13225000D01*
X11085000Y-13425000D01*
G37*
%TO.C,DL23*%
X63925872Y-74172504D02*
X71215868Y-74554557D01*
X64084189Y-71151650D02*
X63925872Y-74172504D01*
X64084189Y-71151650D02*
X64846139Y-70465587D01*
X71215868Y-74554557D02*
X71412128Y-70809696D01*
X71412128Y-70809696D02*
X64846139Y-70465587D01*
X65023622Y-70900472D02*
X65183883Y-70708596D01*
X64884294Y-70692895D01*
X65023622Y-70900472D01*
G36*
X65183883Y-70708596D02*
G01*
X65023622Y-70900472D01*
X64884294Y-70692895D01*
X65183883Y-70708596D01*
G37*
%TO.C,DL7*%
X123175923Y-23466830D02*
X130386048Y-24608801D01*
X123649137Y-20479073D02*
X123175923Y-23466830D01*
X123649137Y-20479073D02*
X124478626Y-19876414D01*
X130386048Y-24608801D02*
X130972677Y-20904970D01*
X130972677Y-20904970D02*
X124478626Y-19876414D01*
X124609679Y-20327468D02*
X124789119Y-20153395D01*
X124492813Y-20106465D01*
X124609679Y-20327468D01*
G36*
X124789119Y-20153395D02*
G01*
X124609679Y-20327468D01*
X124492813Y-20106465D01*
X124789119Y-20153395D01*
G37*
%TO.C,DL19*%
X40641000Y-51825000D02*
X40641000Y-54850000D01*
X40641000Y-51825000D02*
X41366000Y-51100000D01*
X40641000Y-54850000D02*
X47941000Y-54850000D01*
X47941000Y-51100000D02*
X41366000Y-51100000D01*
X47941000Y-54850000D02*
X47941000Y-51100000D01*
X41566000Y-51525000D02*
X41716000Y-51325000D01*
X41416000Y-51325000D01*
X41566000Y-51525000D01*
G36*
X41566000Y-51525000D02*
G01*
X41416000Y-51325000D01*
X41716000Y-51325000D01*
X41566000Y-51525000D01*
G37*
%TO.C,DL12*%
X13018000Y-32775000D02*
X13018000Y-35800000D01*
X13018000Y-32775000D02*
X13743000Y-32050000D01*
X13018000Y-35800000D02*
X20318000Y-35800000D01*
X20318000Y-32050000D02*
X13743000Y-32050000D01*
X20318000Y-35800000D02*
X20318000Y-32050000D01*
X13943000Y-32475000D02*
X14093000Y-32275000D01*
X13793000Y-32275000D01*
X13943000Y-32475000D01*
G36*
X13943000Y-32475000D02*
G01*
X13793000Y-32275000D01*
X14093000Y-32275000D01*
X13943000Y-32475000D01*
G37*
%TO.C,DL10*%
X55880800Y-32775800D02*
X55880800Y-35800800D01*
X55880800Y-32775800D02*
X56605800Y-32050800D01*
X55880800Y-35800800D02*
X63180800Y-35800800D01*
X63180800Y-32050800D02*
X56605800Y-32050800D01*
X63180800Y-35800800D02*
X63180800Y-32050800D01*
X56805800Y-32475800D02*
X56955800Y-32275800D01*
X56655800Y-32275800D01*
X56805800Y-32475800D01*
G36*
X56805800Y-32475800D02*
G01*
X56655800Y-32275800D01*
X56955800Y-32275800D01*
X56805800Y-32475800D01*
G37*
%TO.C,DL9*%
X74412804Y-36135700D02*
X81672814Y-36898757D01*
X74729003Y-33127271D02*
X74412804Y-36135700D01*
X74729003Y-33127271D02*
X75525814Y-32482026D01*
X81672814Y-36898757D02*
X82064796Y-33169300D01*
X82064796Y-33169300D02*
X75525814Y-32482026D01*
X75680294Y-32925603D02*
X75850378Y-32742378D01*
X75552024Y-32711020D01*
X75680294Y-32925603D01*
G36*
X75850378Y-32742378D02*
G01*
X75680294Y-32925603D01*
X75552024Y-32711020D01*
X75850378Y-32742378D01*
G37*
%TO.C,DL24*%
X82813404Y-75340900D02*
X90073414Y-76103957D01*
X83129603Y-72332471D02*
X82813404Y-75340900D01*
X83129603Y-72332471D02*
X83926414Y-71687226D01*
X90073414Y-76103957D02*
X90465396Y-72374500D01*
X90465396Y-72374500D02*
X83926414Y-71687226D01*
X84080894Y-72130803D02*
X84250978Y-71947578D01*
X83952624Y-71916220D01*
X84080894Y-72130803D01*
G36*
X84250978Y-71947578D02*
G01*
X84080894Y-72130803D01*
X83952624Y-71916220D01*
X84250978Y-71947578D01*
G37*
%TO.C,DL27*%
X12065000Y-89925000D02*
X12065000Y-92950000D01*
X12065000Y-89925000D02*
X12790000Y-89200000D01*
X12065000Y-92950000D02*
X19365000Y-92950000D01*
X19365000Y-89200000D02*
X12790000Y-89200000D01*
X19365000Y-92950000D02*
X19365000Y-89200000D01*
X12990000Y-89625000D02*
X13140000Y-89425000D01*
X12840000Y-89425000D01*
X12990000Y-89625000D01*
G36*
X12990000Y-89625000D02*
G01*
X12840000Y-89425000D01*
X13140000Y-89425000D01*
X12990000Y-89625000D01*
G37*
%TO.C,DL15*%
X116334923Y-60640830D02*
X123545048Y-61782801D01*
X116808137Y-57653073D02*
X116334923Y-60640830D01*
X116808137Y-57653073D02*
X117637626Y-57050414D01*
X123545048Y-61782801D02*
X124131677Y-58078970D01*
X124131677Y-58078970D02*
X117637626Y-57050414D01*
X117768679Y-57501468D02*
X117948119Y-57327395D01*
X117651813Y-57280465D01*
X117768679Y-57501468D01*
G36*
X117948119Y-57327395D02*
G01*
X117768679Y-57501468D01*
X117651813Y-57280465D01*
X117948119Y-57327395D01*
G37*
%TO.C,DL18*%
X60531272Y-54860304D02*
X67821268Y-55242357D01*
X60689589Y-51839450D02*
X60531272Y-54860304D01*
X60689589Y-51839450D02*
X61451539Y-51153387D01*
X67821268Y-55242357D02*
X68017528Y-51497496D01*
X68017528Y-51497496D02*
X61451539Y-51153387D01*
X61629022Y-51588272D02*
X61789283Y-51396396D01*
X61489697Y-51380696D01*
X61629022Y-51588272D01*
G36*
X61789283Y-51396396D02*
G01*
X61629022Y-51588272D01*
X61489697Y-51380696D01*
X61789283Y-51396396D01*
G37*
%TO.C,DL2*%
X29210000Y-13725000D02*
X29210000Y-16750000D01*
X29210000Y-13725000D02*
X29935000Y-13000000D01*
X29210000Y-16750000D02*
X36510000Y-16750000D01*
X36510000Y-13000000D02*
X29935000Y-13000000D01*
X36510000Y-16750000D02*
X36510000Y-13000000D01*
X30135000Y-13425000D02*
X30285000Y-13225000D01*
X29985000Y-13225000D01*
X30135000Y-13425000D01*
G36*
X30135000Y-13425000D02*
G01*
X29985000Y-13225000D01*
X30285000Y-13225000D01*
X30135000Y-13425000D01*
G37*
%TO.C,DL11*%
X36830000Y-32775000D02*
X36830000Y-35800000D01*
X36830000Y-32775000D02*
X37555000Y-32050000D01*
X36830000Y-35800000D02*
X44130000Y-35800000D01*
X44130000Y-32050000D02*
X37555000Y-32050000D01*
X44130000Y-35800000D02*
X44130000Y-32050000D01*
X37755000Y-32475000D02*
X37905000Y-32275000D01*
X37605000Y-32275000D01*
X37755000Y-32475000D01*
G36*
X37755000Y-32475000D02*
G01*
X37605000Y-32275000D01*
X37905000Y-32275000D01*
X37755000Y-32475000D01*
G37*
%TO.C,DL17*%
X79373604Y-55698700D02*
X86633614Y-56461757D01*
X79689803Y-52690271D02*
X79373604Y-55698700D01*
X79689803Y-52690271D02*
X80486614Y-52045026D01*
X86633614Y-56461757D02*
X87025596Y-52732300D01*
X87025596Y-52732300D02*
X80486614Y-52045026D01*
X80641094Y-52488603D02*
X80811178Y-52305378D01*
X80512824Y-52274020D01*
X80641094Y-52488603D01*
G36*
X80811178Y-52305378D02*
G01*
X80641094Y-52488603D01*
X80512824Y-52274020D01*
X80811178Y-52305378D01*
G37*
%TO.C,DL31*%
X116826723Y-99490030D02*
X124036848Y-100632001D01*
X117299937Y-96502273D02*
X116826723Y-99490030D01*
X117299937Y-96502273D02*
X118129426Y-95899614D01*
X124036848Y-100632001D02*
X124623477Y-96928170D01*
X124623477Y-96928170D02*
X118129426Y-95899614D01*
X118260479Y-96350668D02*
X118439919Y-96176595D01*
X118143613Y-96129665D01*
X118260479Y-96350668D01*
G36*
X118439919Y-96176595D02*
G01*
X118260479Y-96350668D01*
X118143613Y-96129665D01*
X118439919Y-96176595D01*
G37*
%TO.C,DL26*%
X119808723Y-80676030D02*
X127018848Y-81818001D01*
X120281937Y-77688273D02*
X119808723Y-80676030D01*
X120281937Y-77688273D02*
X121111426Y-77085614D01*
X127018848Y-81818001D02*
X127605477Y-78114170D01*
X127605477Y-78114170D02*
X121111426Y-77085614D01*
X121242479Y-77536668D02*
X121421919Y-77362595D01*
X121125613Y-77315665D01*
X121242479Y-77536668D01*
G36*
X121421919Y-77362595D02*
G01*
X121242479Y-77536668D01*
X121125613Y-77315665D01*
X121421919Y-77362595D01*
G37*
%TO.C,DL13*%
X111721723Y-40777030D02*
X118931848Y-41919001D01*
X112194937Y-37789273D02*
X111721723Y-40777030D01*
X112194937Y-37789273D02*
X113024426Y-37186614D01*
X118931848Y-41919001D02*
X119518477Y-38215170D01*
X119518477Y-38215170D02*
X113024426Y-37186614D01*
X113155479Y-37637668D02*
X113334919Y-37463595D01*
X113038613Y-37416665D01*
X113155479Y-37637668D01*
G36*
X113334919Y-37463595D02*
G01*
X113155479Y-37637668D01*
X113038613Y-37416665D01*
X113334919Y-37463595D01*
G37*
%TO.C,DL6*%
X104373523Y-20473230D02*
X111583648Y-21615201D01*
X104846737Y-17485473D02*
X104373523Y-20473230D01*
X104846737Y-17485473D02*
X105676226Y-16882814D01*
X111583648Y-21615201D02*
X112170277Y-17911370D01*
X112170277Y-17911370D02*
X105676226Y-16882814D01*
X105807279Y-17333868D02*
X105986719Y-17159795D01*
X105690413Y-17112865D01*
X105807279Y-17333868D01*
G36*
X105986719Y-17159795D02*
G01*
X105807279Y-17333868D01*
X105690413Y-17112865D01*
X105986719Y-17159795D01*
G37*
%TO.C,DL16*%
X97531323Y-57661430D02*
X104741448Y-58803401D01*
X98004537Y-54673673D02*
X97531323Y-57661430D01*
X98004537Y-54673673D02*
X98834026Y-54071014D01*
X104741448Y-58803401D02*
X105328077Y-55099570D01*
X105328077Y-55099570D02*
X98834026Y-54071014D01*
X98965079Y-54522068D02*
X99144519Y-54347995D01*
X98848213Y-54301065D01*
X98965079Y-54522068D01*
G36*
X99144519Y-54347995D02*
G01*
X98965079Y-54522068D01*
X98848213Y-54301065D01*
X99144519Y-54347995D01*
G37*
%TD*%
%LPC*%
D13*
%TO.C,SL2*%
X132228970Y-101686551D03*
D14*
X134613031Y-86634181D03*
D13*
X108709641Y-97961455D03*
D14*
X111093702Y-82909085D03*
%TD*%
D13*
%TO.C,SL1*%
X6190750Y-59690000D03*
D14*
X6190750Y-74930000D03*
D13*
X30003250Y-59690000D03*
D14*
X30003250Y-74930000D03*
%TD*%
D15*
%TO.C,MHL4*%
X100000000Y-92000000D03*
%TD*%
%TO.C,MHL3*%
X137000000Y-50000000D03*
%TD*%
%TO.C,MHL1*%
X28000000Y-22000000D03*
%TD*%
%TO.C,MHL2*%
X38000000Y-66000000D03*
%TD*%
D16*
%TO.C,CL30A*%
X37211000Y-78825000D03*
X38171000Y-78825000D03*
%TD*%
D17*
%TO.C,HEL16*%
X43153500Y-48575000D03*
X43153500Y-46675000D03*
X45428500Y-47625000D03*
%TD*%
D18*
%TO.C,CL24B*%
X92561592Y-76072348D03*
X93521008Y-76105852D03*
%TD*%
D19*
%TO.C,CRGBL4*%
X70047058Y-18680379D03*
X71005742Y-18730621D03*
%TD*%
D20*
%TO.C,HEL4*%
X69809140Y-10656966D03*
X69908578Y-8759570D03*
X72130741Y-9827332D03*
%TD*%
D17*
%TO.C,HEL28*%
X14577500Y-86675000D03*
X14577500Y-84775000D03*
X16852500Y-85725000D03*
%TD*%
D21*
%TO.C,CL6B*%
X114068273Y-21764077D03*
X115028127Y-21747323D03*
%TD*%
D22*
%TO.C,AML3*%
X65834559Y-64979777D03*
X65901025Y-63711517D03*
X65967492Y-62443258D03*
X66033959Y-61174998D03*
X66100425Y-59906739D03*
X66166892Y-58638479D03*
X66233359Y-57370220D03*
X66299825Y-56101960D03*
X71243041Y-56361023D03*
X71176575Y-57629283D03*
X71110108Y-58897542D03*
X71043641Y-60165802D03*
X70977175Y-61434061D03*
X70910708Y-62702321D03*
X70844241Y-63970580D03*
X70777775Y-65238840D03*
%TD*%
D23*
%TO.C,CL25B*%
X105571000Y-73913000D03*
X106531000Y-73913000D03*
%TD*%
D24*
%TO.C,CL18B*%
X89122569Y-56413417D03*
X90080231Y-56480383D03*
%TD*%
D25*
%TO.C,CRGBL19*%
X43811000Y-56574998D03*
X44771000Y-56575002D03*
%TD*%
D16*
%TO.C,CL22A*%
X41973000Y-59775000D03*
X42933000Y-59775000D03*
%TD*%
%TO.C,CRGBL15*%
X119196010Y-62840509D03*
X120144190Y-62990691D03*
%TD*%
%TO.C,CL2B*%
X38980000Y-16425000D03*
X39940000Y-16425000D03*
%TD*%
%TO.C,CL8A*%
X9588000Y-21675000D03*
X10548000Y-21675000D03*
%TD*%
D26*
%TO.C,HEL11*%
X77567429Y-30157695D03*
X77766033Y-28268103D03*
X79929269Y-29450701D03*
%TD*%
D16*
%TO.C,CL16A*%
X37211000Y-39475000D03*
X38171000Y-39475000D03*
%TD*%
D27*
%TO.C,CRGBL22*%
X54173000Y-72025000D03*
X55133000Y-72025000D03*
%TD*%
D16*
%TO.C,CL16B*%
X50411000Y-54525000D03*
X51371000Y-54525000D03*
%TD*%
%TO.C,CL28A*%
X8235000Y-78825000D03*
X9195000Y-78825000D03*
%TD*%
%TO.C,CML2*%
X38991000Y-43649000D03*
X39951000Y-43649000D03*
%TD*%
%TO.C,CRGBL10*%
X59050800Y-37525800D03*
X60010800Y-37525800D03*
%TD*%
%TO.C,CL8B*%
X22788000Y-35475000D03*
X23748000Y-35475000D03*
%TD*%
D28*
%TO.C,DL25*%
X102293775Y-75244850D03*
X102059123Y-76726382D03*
X107442025Y-77578950D03*
X107676677Y-76097418D03*
%TD*%
D29*
%TO.C,CRGBL8*%
X96327328Y-40165826D03*
X97282072Y-40266174D03*
%TD*%
D30*
%TO.C,CL13A*%
X110538358Y-26389621D03*
X111497042Y-26339379D03*
%TD*%
D16*
%TO.C,CL10B*%
X65650800Y-35475700D03*
X66610800Y-35475700D03*
%TD*%
D31*
%TO.C,DL21*%
X15372000Y-71275001D03*
X15371997Y-72775000D03*
X20822000Y-72774999D03*
X20822003Y-71275000D03*
%TD*%
D32*
%TO.C,HEL5*%
X89159029Y-12303895D03*
X89357633Y-10414303D03*
X91520869Y-11596901D03*
%TD*%
D33*
%TO.C,CRGBL21*%
X17616998Y-75625000D03*
X18577002Y-75625000D03*
%TD*%
D34*
%TO.C,CL26B*%
X129504569Y-81991983D03*
X130462231Y-81925017D03*
%TD*%
D35*
%TO.C,CL14A*%
X129351369Y-29387783D03*
X130309031Y-29320817D03*
%TD*%
D16*
%TO.C,CRGBL16*%
X100392410Y-59861109D03*
X101340590Y-60011291D03*
%TD*%
D19*
%TO.C,CL4A*%
X64285558Y-2506778D03*
X65244242Y-2557022D03*
%TD*%
D36*
%TO.C,CRGBL7*%
X126037010Y-25666509D03*
X126985190Y-25816691D03*
%TD*%
D16*
%TO.C,CL15A*%
X11017000Y-40725000D03*
X11977000Y-40725000D03*
%TD*%
D37*
%TO.C,AML1*%
X36863000Y-50475000D03*
X35593000Y-50475000D03*
X34323000Y-50475000D03*
X33053000Y-50475000D03*
X31783000Y-50475000D03*
X30513000Y-50475000D03*
X29243000Y-50475000D03*
X27973000Y-50475000D03*
X27973000Y-45525000D03*
X29243000Y-45525000D03*
X30513000Y-45525000D03*
X31783000Y-45525000D03*
X33053000Y-45525000D03*
X34323000Y-45525000D03*
X35593000Y-45525000D03*
X36863000Y-45525000D03*
%TD*%
D19*
%TO.C,CL4B*%
X76745258Y-16978578D03*
X77703942Y-17028822D03*
%TD*%
D38*
%TO.C,CRGBL6*%
X107234610Y-22672909D03*
X108182790Y-22823091D03*
%TD*%
D39*
%TO.C,DL20*%
X15372000Y-52225000D03*
X15372000Y-53725000D03*
X20822000Y-53725000D03*
X20822000Y-52225000D03*
%TD*%
D17*
%TO.C,HEL15*%
X16959500Y-48575000D03*
X16959500Y-46675000D03*
X19234500Y-47625000D03*
%TD*%
D40*
%TO.C,HEL12*%
X96509629Y-32140895D03*
X96708233Y-30251303D03*
X98871469Y-31433901D03*
%TD*%
D16*
%TO.C,CL9B*%
X46600000Y-35475000D03*
X47560000Y-35475000D03*
%TD*%
%TO.C,CL21A*%
X11017000Y-59775000D03*
X11977000Y-59775000D03*
%TD*%
%TO.C,CL1A*%
X6730000Y-2625000D03*
X7690000Y-2625000D03*
%TD*%
D30*
%TO.C,CL13B*%
X121417058Y-42084621D03*
X122375742Y-42034379D03*
%TD*%
D41*
%TO.C,CL11A*%
X72477227Y-21737965D03*
X73433573Y-21821635D03*
%TD*%
D24*
%TO.C,CL18A*%
X77437269Y-41309217D03*
X78394931Y-41376183D03*
%TD*%
D42*
%TO.C,DL5*%
X87198724Y-15767970D03*
X87041929Y-17259751D03*
X92462076Y-17829430D03*
X92618871Y-16337649D03*
%TD*%
D16*
%TO.C,CL17A*%
X57845158Y-40575179D03*
X58803842Y-40625421D03*
%TD*%
D43*
%TO.C,CL20B*%
X126030769Y-61956683D03*
X126988431Y-61889717D03*
%TD*%
D37*
%TO.C,AML2*%
X37363000Y-42475000D03*
X36093000Y-42475000D03*
X34823000Y-42475000D03*
X33553000Y-42475000D03*
X32283000Y-42475000D03*
X31013000Y-42475000D03*
X29743000Y-42475000D03*
X28473000Y-42475000D03*
X28473000Y-37525000D03*
X29743000Y-37525000D03*
X31013000Y-37525000D03*
X32283000Y-37525000D03*
X33553000Y-37525000D03*
X34823000Y-37525000D03*
X36093000Y-37525000D03*
X37363000Y-37525000D03*
%TD*%
D44*
%TO.C,CRGBL30*%
X89739728Y-93338926D03*
X90694472Y-93439274D03*
%TD*%
D16*
%TO.C,CRGBL11*%
X44700000Y-33925000D03*
X45660000Y-33925000D03*
%TD*%
D45*
%TO.C,HEL19*%
X100994492Y-51856760D03*
X101291717Y-49980152D03*
X103390094Y-51274344D03*
%TD*%
D17*
%TO.C,HEL17*%
X63368740Y-48725366D03*
X63468178Y-46827970D03*
X65690341Y-47895732D03*
%TD*%
D46*
%TO.C,HEL32*%
X83976429Y-88308895D03*
X84175029Y-86419303D03*
X86338269Y-87601901D03*
%TD*%
D47*
%TO.C,CL32A*%
X92012293Y-81293248D03*
X92971707Y-81326752D03*
%TD*%
D21*
%TO.C,CL6A*%
X103189473Y-6069077D03*
X104149327Y-6052323D03*
%TD*%
D16*
%TO.C,CL2A*%
X25780000Y-2625000D03*
X26740000Y-2625000D03*
%TD*%
D48*
%TO.C,HEL14*%
X133997492Y-37962160D03*
X134294717Y-36085552D03*
X136393094Y-37379744D03*
%TD*%
D16*
%TO.C,CL17B*%
X70304858Y-55047079D03*
X71263542Y-55097321D03*
%TD*%
%TO.C,CL9A*%
X33400000Y-21675000D03*
X34360000Y-21675000D03*
%TD*%
D36*
%TO.C,CRGBL14*%
X133395410Y-45966509D03*
X134343590Y-46116691D03*
%TD*%
D37*
%TO.C,AML4*%
X70973000Y-79950000D03*
X72243000Y-79950000D03*
X73513000Y-79950000D03*
X74783000Y-79950000D03*
X76053000Y-79950000D03*
X77323000Y-79950000D03*
X78593000Y-79950000D03*
X79863000Y-79950000D03*
X79863000Y-84900000D03*
X78593000Y-84900000D03*
X77323000Y-84900000D03*
X76053000Y-84900000D03*
X74783000Y-84900000D03*
X73513000Y-84900000D03*
X72243000Y-84900000D03*
X70973000Y-84900000D03*
%TD*%
D49*
%TO.C,DL29*%
X41566000Y-90325000D03*
X41566000Y-91825000D03*
X47016000Y-91825000D03*
X47016000Y-90325000D03*
%TD*%
D50*
%TO.C,CRGBL26*%
X122669810Y-82875709D03*
X123617990Y-83025891D03*
%TD*%
D51*
%TO.C,CL5A*%
X84067292Y-3909148D03*
X85026708Y-3942652D03*
%TD*%
D37*
%TO.C,AML5*%
X10363000Y-51975000D03*
X9093000Y-51975000D03*
X7823000Y-51975000D03*
X6553000Y-51975000D03*
X5283000Y-51975000D03*
X4013000Y-51975000D03*
X2743000Y-51975000D03*
X1473000Y-51975000D03*
X1473000Y-47025000D03*
X2743000Y-47025000D03*
X4013000Y-47025000D03*
X5283000Y-47025000D03*
X6553000Y-47025000D03*
X7823000Y-47025000D03*
X9093000Y-47025000D03*
X10363000Y-47025000D03*
%TD*%
D52*
%TO.C,DL3*%
X49185000Y-14125000D03*
X49185000Y-15625000D03*
X54635000Y-15625000D03*
X54635000Y-14125000D03*
%TD*%
D16*
%TO.C,CL1B*%
X19930000Y-16425000D03*
X20890000Y-16425000D03*
%TD*%
D43*
%TO.C,CL20A*%
X115152069Y-46261783D03*
X116109731Y-46194817D03*
%TD*%
D53*
%TO.C,CRGBL27*%
X21065000Y-81505000D03*
X21065000Y-80545000D03*
%TD*%
D54*
%TO.C,HEL23*%
X66763340Y-68037566D03*
X66862778Y-66140170D03*
X69084941Y-67207932D03*
%TD*%
D55*
%TO.C,DL30*%
X82016124Y-91772970D03*
X81859329Y-93264751D03*
X87279476Y-93834430D03*
X87436271Y-92342649D03*
%TD*%
D17*
%TO.C,HEL22*%
X47915500Y-67625000D03*
X47915500Y-65725000D03*
X50190500Y-66675000D03*
%TD*%
D35*
%TO.C,CL7B*%
X132871769Y-24782883D03*
X133829431Y-24715917D03*
%TD*%
D16*
%TO.C,CL3B*%
X58030000Y-16425000D03*
X58990000Y-16425000D03*
%TD*%
D56*
%TO.C,JL1*%
X139109000Y-52500000D03*
X139109000Y-53500000D03*
X139109000Y-54500000D03*
X139109000Y-55500000D03*
X139109000Y-56500000D03*
X139109000Y-57500000D03*
X139109000Y-58500000D03*
X139109000Y-59500000D03*
X139109000Y-60500000D03*
X139109000Y-61500000D03*
X139109000Y-62500000D03*
X139109000Y-63500000D03*
D57*
X141309000Y-50200000D03*
X141309000Y-65800000D03*
%TD*%
D17*
%TO.C,HEL2*%
X31722500Y-10475000D03*
X31722500Y-8575000D03*
X33997500Y-9525000D03*
%TD*%
D16*
%TO.C,CRGBL2*%
X37080000Y-14875000D03*
X38040000Y-14875000D03*
%TD*%
D58*
%TO.C,DL22*%
X46327997Y-71275000D03*
X46328000Y-72775000D03*
X51778003Y-72775000D03*
X51778000Y-71275000D03*
%TD*%
D59*
%TO.C,CRGBL29*%
X38941000Y-89945000D03*
X38941000Y-90905000D03*
%TD*%
D18*
%TO.C,CL24A*%
X80876292Y-60968148D03*
X81835708Y-61001652D03*
%TD*%
D60*
%TO.C,DL14*%
X131858575Y-41318850D03*
X131623923Y-42800382D03*
X137006825Y-43652950D03*
X137241477Y-42171418D03*
%TD*%
D61*
%TO.C,CML3*%
X68221758Y-57549479D03*
X69180442Y-57599721D03*
%TD*%
D62*
%TO.C,DL4*%
X68032783Y-14218912D03*
X67954283Y-15716857D03*
X73396817Y-16002088D03*
X73475317Y-14504143D03*
%TD*%
D17*
%TO.C,HEL30*%
X45428500Y-84775000D03*
X45428500Y-86675000D03*
X43153500Y-85725000D03*
%TD*%
D63*
%TO.C,DL8*%
X94549324Y-35604970D03*
X94392529Y-37096751D03*
X99812676Y-37666430D03*
X99969471Y-36174649D03*
%TD*%
D16*
%TO.C,CRGBL23*%
X67001258Y-76060979D03*
X67959942Y-76111221D03*
%TD*%
D52*
%TO.C,DL1*%
X11085000Y-14125000D03*
X11085000Y-15625000D03*
X16535000Y-15625000D03*
X16535000Y-14125000D03*
%TD*%
D16*
%TO.C,CL15B*%
X24217000Y-54525000D03*
X25177000Y-54525000D03*
%TD*%
D52*
%TO.C,DL23*%
X64986983Y-71599512D03*
X64908483Y-73097457D03*
X70351017Y-73382688D03*
X70429517Y-71884743D03*
%TD*%
D60*
%TO.C,DL7*%
X124500175Y-21018850D03*
X124265523Y-22500382D03*
X129648425Y-23352950D03*
X129883077Y-21871418D03*
%TD*%
D64*
%TO.C,DL19*%
X41566000Y-52225000D03*
X41566000Y-53725000D03*
X47016000Y-53725000D03*
X47016000Y-52225000D03*
%TD*%
D52*
%TO.C,DL12*%
X13943000Y-33175000D03*
X13943000Y-34675000D03*
X19393000Y-34675000D03*
X19393000Y-33175000D03*
%TD*%
D16*
%TO.C,CL21B*%
X24217000Y-73575000D03*
X25177000Y-73575000D03*
%TD*%
D65*
%TO.C,CRGBL5*%
X88976728Y-20328826D03*
X89931472Y-20429174D03*
%TD*%
D66*
%TO.C,HEL24*%
X85968029Y-69362895D03*
X86166633Y-67473303D03*
X88329869Y-68655901D03*
%TD*%
D67*
%TO.C,CRGBL25*%
X103830610Y-79892509D03*
X104778790Y-80042691D03*
%TD*%
D52*
%TO.C,DL10*%
X56805797Y-33175800D03*
X56805800Y-34675800D03*
X62255803Y-34675800D03*
X62255800Y-33175800D03*
%TD*%
D68*
%TO.C,DL9*%
X75607124Y-33621770D03*
X75450329Y-35113551D03*
X80870476Y-35683230D03*
X81027271Y-34191449D03*
%TD*%
D16*
%TO.C,CRGBL17*%
X82345928Y-57745626D03*
X83300672Y-57845974D03*
%TD*%
%TO.C,CL28B*%
X21835000Y-92625000D03*
X22795000Y-92625000D03*
%TD*%
D52*
%TO.C,DL24*%
X84007724Y-72826970D03*
X83850929Y-74318751D03*
X89271076Y-74888430D03*
X89427871Y-73396649D03*
%TD*%
D69*
%TO.C,CRGBL13*%
X114582810Y-42976709D03*
X115530990Y-43126891D03*
%TD*%
D70*
%TO.C,HEL26*%
X123271892Y-74871360D03*
X123569117Y-72994752D03*
X125667494Y-74288944D03*
%TD*%
D71*
%TO.C,CRGBL20*%
X17617000Y-56574998D03*
X18577000Y-56575002D03*
%TD*%
D16*
%TO.C,CML5*%
X11991000Y-53149000D03*
X12951000Y-53149000D03*
%TD*%
D72*
%TO.C,CL12B*%
X103102873Y-38875477D03*
X104062727Y-38858723D03*
%TD*%
D73*
%TO.C,DL27*%
X12990000Y-90325000D03*
X12990000Y-91825000D03*
X18440000Y-91825000D03*
X18440000Y-90325000D03*
%TD*%
D17*
%TO.C,HEL10*%
X58393300Y-29525800D03*
X58393300Y-27625800D03*
X60668300Y-28575800D03*
%TD*%
D74*
%TO.C,CL19B*%
X107226073Y-58935522D03*
X108185927Y-58952278D03*
%TD*%
D27*
%TO.C,CL23B*%
X73699458Y-74359279D03*
X74658142Y-74409521D03*
%TD*%
D75*
%TO.C,CRGBL18*%
X69387356Y-53446779D03*
X70346044Y-53497021D03*
%TD*%
D16*
%TO.C,CL10A*%
X52450800Y-21675700D03*
X53410800Y-21675700D03*
%TD*%
%TO.C,CL22B*%
X55173000Y-73575000D03*
X56133000Y-73575000D03*
%TD*%
D52*
%TO.C,DL15*%
X117659175Y-58192850D03*
X117424523Y-59674382D03*
X122807425Y-60526950D03*
X123042077Y-59045418D03*
%TD*%
D76*
%TO.C,HEL20*%
X119798092Y-54836160D03*
X120095317Y-52959552D03*
X122193694Y-54253744D03*
%TD*%
D72*
%TO.C,CL12A*%
X91417673Y-23771277D03*
X92377527Y-23754523D03*
%TD*%
D77*
%TO.C,HEL33*%
X120289892Y-93685360D03*
X120587117Y-91808752D03*
X122685494Y-93102944D03*
%TD*%
D48*
%TO.C,HEL7*%
X126639092Y-17662160D03*
X126936317Y-15785552D03*
X129034694Y-17079744D03*
%TD*%
D78*
%TO.C,DL18*%
X61592386Y-52287313D03*
X61513880Y-53785257D03*
X66956414Y-54070487D03*
X67034920Y-52572543D03*
%TD*%
D52*
%TO.C,DL2*%
X30135000Y-14125000D03*
X30135000Y-15625000D03*
X35585000Y-15625000D03*
X35585000Y-14125000D03*
%TD*%
%TO.C,DL11*%
X37755000Y-33175000D03*
X37755000Y-34675000D03*
X43205000Y-34675000D03*
X43205000Y-33175000D03*
%TD*%
D16*
%TO.C,CL30B*%
X50411000Y-92625000D03*
X51371000Y-92625000D03*
%TD*%
D79*
%TO.C,HEL18*%
X82528229Y-49720695D03*
X82726833Y-47831103D03*
X84890069Y-49013701D03*
%TD*%
D51*
%TO.C,CL5B*%
X95752492Y-19013348D03*
X96711908Y-19046852D03*
%TD*%
D17*
%TO.C,HEL1*%
X12672500Y-10475000D03*
X12672500Y-8575000D03*
X14947500Y-9525000D03*
%TD*%
D80*
%TO.C,CRGBL31*%
X125782010Y-99010109D03*
X126730190Y-99160291D03*
%TD*%
D16*
%TO.C,CRGBL1*%
X18030000Y-14875000D03*
X18990000Y-14875000D03*
%TD*%
D35*
%TO.C,CL14B*%
X140230169Y-45082883D03*
X141187831Y-45015917D03*
%TD*%
D34*
%TO.C,CL26A*%
X118625769Y-66296883D03*
X119583431Y-66229917D03*
%TD*%
D81*
%TO.C,HEL13*%
X115184892Y-34972360D03*
X115482117Y-33095752D03*
X117580494Y-34389944D03*
%TD*%
D17*
%TO.C,HEL3*%
X50772500Y-10475000D03*
X50772500Y-8575000D03*
X53047500Y-9525000D03*
%TD*%
D82*
%TO.C,CL25A*%
X99785500Y-63280300D03*
X100745500Y-63280300D03*
%TD*%
D80*
%TO.C,CL33B*%
X114846910Y-100075909D03*
X115795090Y-100226091D03*
%TD*%
D16*
%TO.C,CRGBL12*%
X20888000Y-33925000D03*
X21848000Y-33925000D03*
%TD*%
D83*
%TO.C,HEL25*%
X104432692Y-71888160D03*
X104729917Y-70011552D03*
X106828294Y-71305744D03*
%TD*%
D47*
%TO.C,CL32B*%
X77442293Y-93638248D03*
X78401707Y-93671752D03*
%TD*%
D17*
%TO.C,HEL9*%
X39342500Y-29525000D03*
X39342500Y-27625000D03*
X41617500Y-28575000D03*
%TD*%
D80*
%TO.C,CL33A*%
X127328910Y-85623909D03*
X128277090Y-85774091D03*
%TD*%
D17*
%TO.C,HEL8*%
X15530500Y-29525000D03*
X15530500Y-27625000D03*
X17805500Y-28575000D03*
%TD*%
D84*
%TO.C,HEL6*%
X107836692Y-14668560D03*
X108133917Y-12791952D03*
X110232294Y-14086144D03*
%TD*%
D27*
%TO.C,CL23A*%
X61239758Y-59887279D03*
X62198442Y-59937521D03*
%TD*%
D52*
%TO.C,DL17*%
X80567921Y-53184768D03*
X80411129Y-54676551D03*
X85831279Y-55246232D03*
X85988071Y-53754449D03*
%TD*%
D16*
%TO.C,CML1*%
X38491000Y-51649000D03*
X39451000Y-51649000D03*
%TD*%
%TO.C,CML4*%
X68385000Y-78851000D03*
X69345000Y-78851000D03*
%TD*%
D85*
%TO.C,DL31*%
X118150975Y-97042050D03*
X117916323Y-98523582D03*
X123299225Y-99376150D03*
X123533877Y-97894618D03*
%TD*%
D16*
%TO.C,CRGBL24*%
X85785728Y-77387826D03*
X86740472Y-77488174D03*
%TD*%
D74*
%TO.C,CL19A*%
X96347373Y-43240522D03*
X97307227Y-43257278D03*
%TD*%
D86*
%TO.C,DL26*%
X121132975Y-78228050D03*
X120898323Y-79709582D03*
X126281225Y-80562150D03*
X126515877Y-79080618D03*
%TD*%
D87*
%TO.C,DL13*%
X113045975Y-38329050D03*
X112811323Y-39810582D03*
X118194225Y-40663150D03*
X118428877Y-39181618D03*
%TD*%
D88*
%TO.C,RBPL29*%
X46371000Y-81500000D03*
X47391000Y-81500000D03*
%TD*%
D35*
%TO.C,CL7A*%
X121993069Y-9087783D03*
X122950731Y-9020817D03*
%TD*%
D16*
%TO.C,CRGBL3*%
X56130000Y-14875000D03*
X57090000Y-14875000D03*
%TD*%
D89*
%TO.C,CRGBL9*%
X77385128Y-38182626D03*
X78339872Y-38282974D03*
%TD*%
D17*
%TO.C,HEL21*%
X16959500Y-67625000D03*
X16959500Y-65725000D03*
X19234500Y-66675000D03*
%TD*%
D41*
%TO.C,CL11B*%
X84162427Y-36842065D03*
X85118773Y-36925735D03*
%TD*%
D90*
%TO.C,DL6*%
X105697775Y-18025250D03*
X105463123Y-19506782D03*
X110846025Y-20359350D03*
X111080677Y-18877818D03*
%TD*%
D52*
%TO.C,DL16*%
X98855575Y-55213450D03*
X98620923Y-56694982D03*
X104003825Y-57547550D03*
X104238477Y-56066018D03*
%TD*%
D16*
%TO.C,CL3A*%
X44830000Y-2625000D03*
X45790000Y-2625000D03*
%TD*%
%LPD*%
M02*
