%TF.GenerationSoftware,KiCad,Pcbnew,10.0.5*%
%TF.CreationDate,2026-09-21T10:22:43-04:00*%
%TF.ProjectId,Symm60HE-wkl-left-arrows-right-Right,53796d6d-3630-4484-952d-776b6c2d6c65,rev?*%
%TF.SameCoordinates,Original*%
%TF.FileFunction,Legend,Bot*%
%TF.FilePolarity,Positive*%
%FSLAX46Y46*%
G04 Gerber Fmt 4.6, Leading zero omitted, Abs format (unit mm)*
G04 Created by KiCad (PCBNEW 10.0.5) date 2026-09-21 10:22:43*
%MOMM*%
%LPD*%
G01*
G04 APERTURE LIST*
G04 Aperture macros list*
%AMRoundRect*
0 Rectangle with rounded corners*
0 $1 Rounding radius*
0 $2 $3 $4 $5 $6 $7 $8 $9 X,Y pos of 4 corners*
0 Add a 4 corners polygon primitive as box body*
4,1,4,$2,$3,$4,$5,$6,$7,$8,$9,$2,$3,0*
0 Add four circle primitives for the rounded corners*
1,1,$1+$1,$2,$3*
1,1,$1+$1,$4,$5*
1,1,$1+$1,$6,$7*
1,1,$1+$1,$8,$9*
0 Add four rect primitives between the rounded corners*
20,1,$1+$1,$2,$3,$4,$5,0*
20,1,$1+$1,$4,$5,$6,$7,0*
20,1,$1+$1,$6,$7,$8,$9,0*
20,1,$1+$1,$8,$9,$2,$3,0*%
G04 Aperture macros list end*
%ADD10C,0.150000*%
%ADD11C,0.120000*%
%ADD12C,0.310000*%
%ADD13C,2.200000*%
%ADD14C,3.048000*%
%ADD15C,3.987800*%
%ADD16RoundRect,0.140000X-0.140000X-0.170000X0.140000X-0.170000X0.140000X0.170000X-0.140000X0.170000X0*%
%ADD17RoundRect,0.140000X-0.158345X-0.153059X0.119856X-0.184756X0.158345X0.153059X-0.119856X0.184756X0*%
%ADD18RoundRect,0.150000X-0.150000X0.512500X-0.150000X-0.512500X0.150000X-0.512500X0.150000X0.512500X0*%
%ADD19RoundRect,0.150000X-0.207052X0.492225X-0.091019X-0.526186X0.207052X-0.492225X0.091019X0.526186X0*%
%ADD20RoundRect,0.140000X-0.141964X-0.168364X0.138018X-0.171613X0.141964X0.168364X-0.138018X0.171613X0*%
%ADD21RoundRect,0.140000X-0.145207X-0.165574X0.134658X-0.174262X0.145207X0.165574X-0.134658X0.174262X0*%
%ADD22RoundRect,0.140000X-0.134658X-0.174262X0.145207X-0.165574X0.134658X0.174262X-0.145207X0.165574X0*%
%ADD23RoundRect,0.205000X-0.446196X-0.252655X0.488732X-0.155133X0.446196X0.252655X-0.488732X0.155133X0*%
%ADD24RoundRect,0.205000X-0.470000X-0.205000X0.470000X-0.205000X0.470000X0.205000X-0.470000X0.205000X0*%
%ADD25RoundRect,0.140000X-0.158262X-0.153144X0.119955X-0.184691X0.158262X0.153144X-0.119955X0.184691X0*%
%ADD26RoundRect,0.140000X-0.146380X-0.164539X0.133417X-0.175214X0.146380X0.164539X-0.133417X0.175214X0*%
%ADD27RoundRect,0.140000X-0.119856X-0.184756X0.158345X-0.153059X0.119856X0.184756X-0.158345X0.153059X0*%
%ADD28RoundRect,0.140000X-0.124613X-0.181581X0.154317X-0.157119X0.124613X0.181581X-0.154317X0.157119X0*%
%ADD29RoundRect,0.205000X-0.465970X-0.214001X0.473856X-0.195923X0.465970X0.214001X-0.473856X0.195923X0*%
%ADD30RoundRect,0.140000X-0.157724X-0.153699X0.120603X-0.184269X0.157724X0.153699X-0.120603X0.184269X0*%
%ADD31RoundRect,0.140000X-0.156925X-0.154514X0.121556X-0.183641X0.156925X0.154514X-0.121556X0.183641X0*%
%ADD32RoundRect,0.140000X-0.121607X-0.183607X0.156882X-0.154558X0.121607X0.183607X-0.156882X0.154558X0*%
%ADD33RoundRect,0.150000X0.950000X-0.150000X0.950000X0.150000X-0.950000X0.150000X-0.950000X-0.150000X0*%
%ADD34RoundRect,0.360000X0.940000X-0.540000X0.940000X0.540000X-0.940000X0.540000X-0.940000X-0.540000X0*%
%ADD35RoundRect,0.150000X0.150000X-0.825000X0.150000X0.825000X-0.150000X0.825000X-0.150000X-0.825000X0*%
%ADD36RoundRect,0.150000X-0.150268X0.512421X-0.149732X-0.512578X0.150268X-0.512421X0.149732X0.512578X0*%
%ADD37RoundRect,0.150000X-0.179270X0.503009X-0.120232X-0.520289X0.179270X-0.503009X0.120232X0.520289X0*%
%ADD38RoundRect,0.150000X-0.169431X0.506408X-0.130351X-0.517846X0.169431X-0.506408X0.130351X0.517846X0*%
%ADD39RoundRect,0.150000X-0.190471X0.498876X-0.108570X-0.522847X0.190471X-0.498876X0.108570X0.522847X0*%
%ADD40RoundRect,0.150000X-0.202361X0.494172X-0.096020X-0.525296X0.202361X-0.494172X0.096020X0.525296X0*%
%ADD41RoundRect,0.140000X-0.136705X-0.172661X0.143244X-0.167276X0.136705X0.172661X-0.143244X0.167276X0*%
%ADD42RoundRect,0.140000X-0.133417X-0.175214X0.146380X-0.164539X0.133417X0.175214X-0.146380X0.164539X0*%
%ADD43RoundRect,0.205000X-0.452117X-0.241899X0.484877X-0.166790X0.452117X0.241899X-0.484877X0.166790X0*%
%ADD44RoundRect,0.140000X-0.145190X-0.165590X0.134676X-0.174248X0.145190X0.165590X-0.134676X0.174248X0*%
%ADD45RoundRect,0.205000X-0.444809X-0.255089X0.489572X-0.152460X0.444809X0.255089X-0.489572X0.152460X0*%
%ADD46RoundRect,0.140000X-0.138018X-0.171613X0.141964X-0.168364X0.138018X0.171613X-0.141964X0.168364X0*%
%ADD47RoundRect,0.140000X-0.121556X-0.183641X0.156925X-0.154514X0.121556X0.183641X-0.156925X0.154514X0*%
%ADD48RoundRect,0.135000X-0.135000X-0.185000X0.135000X-0.185000X0.135000X0.185000X-0.135000X0.185000X0*%
%ADD49RoundRect,0.140000X-0.149559X-0.161654X0.129976X-0.177782X0.149559X0.161654X-0.129976X0.177782X0*%
%ADD50RoundRect,0.150000X-0.165829X0.507599X-0.134026X-0.516907X0.165829X-0.507599X0.134026X0.516907X0*%
%ADD51RoundRect,0.205000X-0.469893X-0.205246X0.470107X-0.204754X0.469893X0.205246X-0.470107X0.204754X0*%
%ADD52RoundRect,0.140000X-0.140089X-0.169927X0.139911X-0.170073X0.140089X0.169927X-0.139911X0.170073X0*%
%ADD53RoundRect,0.150000X-0.205058X0.493059X-0.093149X-0.525813X0.205058X-0.493059X0.093149X0.525813X0*%
%ADD54RoundRect,0.150000X-0.151091X0.512179X-0.148908X-0.512818X0.151091X-0.512179X0.148908X0.512818X0*%
%ADD55RoundRect,0.140000X-0.143244X-0.167276X0.136705X-0.172661X0.143244X0.167276X-0.136705X0.172661X0*%
%ADD56RoundRect,0.140000X-0.153136X-0.158270X0.125969X-0.180643X0.153136X0.158270X-0.125969X0.180643X0*%
%ADD57RoundRect,0.205000X-0.455096X-0.236246X0.482761X-0.172819X0.455096X0.236246X-0.482761X0.172819X0*%
%ADD58RoundRect,0.205000X-0.463436X-0.219435X0.476114X-0.190368X0.463436X0.219435X-0.476114X0.190368X0*%
%ADD59RoundRect,0.205000X-0.463413X-0.219484X0.476134X-0.190319X0.463413X0.219484X-0.476134X0.190319X0*%
%ADD60RoundRect,0.150000X-0.184239X0.501211X-0.115077X-0.521453X0.184239X-0.501211X0.115077X0.521453X0*%
%ADD61RoundRect,0.205000X-0.450293X-0.245277X0.486113X-0.163155X0.450293X0.245277X-0.486113X0.163155X0*%
%ADD62RoundRect,0.140000X-0.129976X-0.177782X0.149559X-0.161654X0.129976X0.177782X-0.149559X0.161654X0*%
%ADD63RoundRect,0.140000X-0.140362X-0.169702X0.139638X-0.170298X0.140362X0.169702X-0.139638X0.170298X0*%
%ADD64RoundRect,0.205000X-0.469562X-0.206000X0.470435X-0.203999X0.469562X0.206000X-0.470435X0.203999X0*%
%ADD65RoundRect,0.140000X-0.125969X-0.180643X0.153136X-0.158270X0.125969X0.180643X-0.153136X0.158270X0*%
%ADD66RoundRect,0.140000X-0.154317X-0.157119X0.124613X-0.181581X0.154317X0.157119X-0.124613X0.181581X0*%
%ADD67RoundRect,0.150000X-0.159829X0.509520X-0.140116X-0.515290X0.159829X-0.509520X0.140116X0.515290X0*%
%ADD68RoundRect,0.140000X-0.139638X-0.170298X0.140362X-0.169702X0.139638X0.170298X-0.140362X0.169702X0*%
%ADD69RoundRect,0.140000X-0.128210X-0.179059X0.151152X-0.160166X0.128210X0.179059X-0.151152X0.160166X0*%
%ADD70RoundRect,0.205000X-0.467589X-0.210441X0.472348X-0.199531X0.467589X0.210441X-0.472348X0.199531X0*%
%ADD71RoundRect,0.150000X-0.165776X0.507617X-0.134081X-0.516893X0.165776X-0.507617X0.134081X0.516893X0*%
%ADD72RoundRect,0.205000X-0.443911X-0.256648X0.490104X-0.150742X0.443911X0.256648X-0.490104X0.150742X0*%
%ADD73RoundRect,0.150000X-0.206786X0.492337X-0.091304X-0.526137X0.206786X-0.492337X0.091304X0.526137X0*%
%ADD74RoundRect,0.205000X-0.461842X-0.222770X0.477474X-0.186932X0.461842X0.222770X-0.477474X0.186932X0*%
%ADD75RoundRect,0.150000X-0.194201X0.497436X-0.104652X-0.523645X0.194201X-0.497436X0.104652X0.523645X0*%
%ADD76RoundRect,0.150000X-0.202499X0.494116X-0.095873X-0.525323X0.202499X-0.494116X0.095873X0.525323X0*%
%ADD77RoundRect,0.140000X-0.119955X-0.184691X0.158262X-0.153144X0.119955X0.184691X-0.158262X0.153144X0*%
%ADD78RoundRect,0.205000X-0.443772X-0.256888X0.490185X-0.150477X0.443772X0.256888X-0.490185X0.150477X0*%
%ADD79RoundRect,0.205000X-0.457412X-0.231731X0.481027X-0.177588X0.457412X0.231731X-0.481027X0.177588X0*%
%ADD80RoundRect,0.140000X-0.134676X-0.174248X0.145190X-0.165590X0.134676X0.174248X-0.145190X0.165590X0*%
%ADD81RoundRect,0.150000X-0.155938X0.510725X-0.144042X-0.514206X0.155938X-0.510725X0.144042X0.514206X0*%
%ADD82RoundRect,0.140000X-0.120603X-0.184269X0.157724X-0.153699X0.120603X0.184269X-0.157724X0.153699X0*%
%ADD83RoundRect,0.140000X-0.139911X-0.170073X0.140089X-0.169927X0.139911X0.170073X-0.140089X0.169927X0*%
%ADD84RoundRect,0.140000X-0.151152X-0.160166X0.128210X-0.179059X0.151152X0.160166X-0.128210X0.179059X0*%
%ADD85RoundRect,0.205000X-0.446125X-0.252780X0.488775X-0.154996X0.446125X0.252780X-0.488775X0.154996X0*%
G04 APERTURE END LIST*
D10*
X182575392Y-88399572D02*
X182575392Y-87399572D01*
X182575392Y-87399572D02*
X182337297Y-87399572D01*
X182337297Y-87399572D02*
X182194440Y-87447191D01*
X182194440Y-87447191D02*
X182099202Y-87542429D01*
X182099202Y-87542429D02*
X182051583Y-87637667D01*
X182051583Y-87637667D02*
X182003964Y-87828143D01*
X182003964Y-87828143D02*
X182003964Y-87971000D01*
X182003964Y-87971000D02*
X182051583Y-88161476D01*
X182051583Y-88161476D02*
X182099202Y-88256714D01*
X182099202Y-88256714D02*
X182194440Y-88351953D01*
X182194440Y-88351953D02*
X182337297Y-88399572D01*
X182337297Y-88399572D02*
X182575392Y-88399572D01*
X181003964Y-88399572D02*
X181337297Y-87923381D01*
X181575392Y-88399572D02*
X181575392Y-87399572D01*
X181575392Y-87399572D02*
X181194440Y-87399572D01*
X181194440Y-87399572D02*
X181099202Y-87447191D01*
X181099202Y-87447191D02*
X181051583Y-87494810D01*
X181051583Y-87494810D02*
X181003964Y-87590048D01*
X181003964Y-87590048D02*
X181003964Y-87732905D01*
X181003964Y-87732905D02*
X181051583Y-87828143D01*
X181051583Y-87828143D02*
X181099202Y-87875762D01*
X181099202Y-87875762D02*
X181194440Y-87923381D01*
X181194440Y-87923381D02*
X181575392Y-87923381D01*
X180670630Y-87399572D02*
X180051583Y-87399572D01*
X180051583Y-87399572D02*
X180384916Y-87780524D01*
X180384916Y-87780524D02*
X180242059Y-87780524D01*
X180242059Y-87780524D02*
X180146821Y-87828143D01*
X180146821Y-87828143D02*
X180099202Y-87875762D01*
X180099202Y-87875762D02*
X180051583Y-87971000D01*
X180051583Y-87971000D02*
X180051583Y-88209095D01*
X180051583Y-88209095D02*
X180099202Y-88304333D01*
X180099202Y-88304333D02*
X180146821Y-88351953D01*
X180146821Y-88351953D02*
X180242059Y-88399572D01*
X180242059Y-88399572D02*
X180527773Y-88399572D01*
X180527773Y-88399572D02*
X180623011Y-88351953D01*
X180623011Y-88351953D02*
X180670630Y-88304333D01*
X179670630Y-87494810D02*
X179623011Y-87447191D01*
X179623011Y-87447191D02*
X179527773Y-87399572D01*
X179527773Y-87399572D02*
X179289678Y-87399572D01*
X179289678Y-87399572D02*
X179194440Y-87447191D01*
X179194440Y-87447191D02*
X179146821Y-87494810D01*
X179146821Y-87494810D02*
X179099202Y-87590048D01*
X179099202Y-87590048D02*
X179099202Y-87685286D01*
X179099202Y-87685286D02*
X179146821Y-87828143D01*
X179146821Y-87828143D02*
X179718249Y-88399572D01*
X179718249Y-88399572D02*
X179099202Y-88399572D01*
X255079285Y-81179819D02*
X255079285Y-80179819D01*
X255079285Y-80179819D02*
X254841190Y-80179819D01*
X254841190Y-80179819D02*
X254698333Y-80227438D01*
X254698333Y-80227438D02*
X254603095Y-80322676D01*
X254603095Y-80322676D02*
X254555476Y-80417914D01*
X254555476Y-80417914D02*
X254507857Y-80608390D01*
X254507857Y-80608390D02*
X254507857Y-80751247D01*
X254507857Y-80751247D02*
X254555476Y-80941723D01*
X254555476Y-80941723D02*
X254603095Y-81036961D01*
X254603095Y-81036961D02*
X254698333Y-81132200D01*
X254698333Y-81132200D02*
X254841190Y-81179819D01*
X254841190Y-81179819D02*
X255079285Y-81179819D01*
X253507857Y-81179819D02*
X253841190Y-80703628D01*
X254079285Y-81179819D02*
X254079285Y-80179819D01*
X254079285Y-80179819D02*
X253698333Y-80179819D01*
X253698333Y-80179819D02*
X253603095Y-80227438D01*
X253603095Y-80227438D02*
X253555476Y-80275057D01*
X253555476Y-80275057D02*
X253507857Y-80370295D01*
X253507857Y-80370295D02*
X253507857Y-80513152D01*
X253507857Y-80513152D02*
X253555476Y-80608390D01*
X253555476Y-80608390D02*
X253603095Y-80656009D01*
X253603095Y-80656009D02*
X253698333Y-80703628D01*
X253698333Y-80703628D02*
X254079285Y-80703628D01*
X253126904Y-80275057D02*
X253079285Y-80227438D01*
X253079285Y-80227438D02*
X252984047Y-80179819D01*
X252984047Y-80179819D02*
X252745952Y-80179819D01*
X252745952Y-80179819D02*
X252650714Y-80227438D01*
X252650714Y-80227438D02*
X252603095Y-80275057D01*
X252603095Y-80275057D02*
X252555476Y-80370295D01*
X252555476Y-80370295D02*
X252555476Y-80465533D01*
X252555476Y-80465533D02*
X252603095Y-80608390D01*
X252603095Y-80608390D02*
X253174523Y-81179819D01*
X253174523Y-81179819D02*
X252555476Y-81179819D01*
X252079285Y-81179819D02*
X251888809Y-81179819D01*
X251888809Y-81179819D02*
X251793571Y-81132200D01*
X251793571Y-81132200D02*
X251745952Y-81084580D01*
X251745952Y-81084580D02*
X251650714Y-80941723D01*
X251650714Y-80941723D02*
X251603095Y-80751247D01*
X251603095Y-80751247D02*
X251603095Y-80370295D01*
X251603095Y-80370295D02*
X251650714Y-80275057D01*
X251650714Y-80275057D02*
X251698333Y-80227438D01*
X251698333Y-80227438D02*
X251793571Y-80179819D01*
X251793571Y-80179819D02*
X251984047Y-80179819D01*
X251984047Y-80179819D02*
X252079285Y-80227438D01*
X252079285Y-80227438D02*
X252126904Y-80275057D01*
X252126904Y-80275057D02*
X252174523Y-80370295D01*
X252174523Y-80370295D02*
X252174523Y-80608390D01*
X252174523Y-80608390D02*
X252126904Y-80703628D01*
X252126904Y-80703628D02*
X252079285Y-80751247D01*
X252079285Y-80751247D02*
X251984047Y-80798866D01*
X251984047Y-80798866D02*
X251793571Y-80798866D01*
X251793571Y-80798866D02*
X251698333Y-80751247D01*
X251698333Y-80751247D02*
X251650714Y-80703628D01*
X251650714Y-80703628D02*
X251603095Y-80608390D01*
X239315058Y-43299456D02*
X239315058Y-42299456D01*
X239315058Y-42299456D02*
X239076963Y-42299456D01*
X239076963Y-42299456D02*
X238934106Y-42347075D01*
X238934106Y-42347075D02*
X238838868Y-42442313D01*
X238838868Y-42442313D02*
X238791249Y-42537551D01*
X238791249Y-42537551D02*
X238743630Y-42728027D01*
X238743630Y-42728027D02*
X238743630Y-42870884D01*
X238743630Y-42870884D02*
X238791249Y-43061360D01*
X238791249Y-43061360D02*
X238838868Y-43156598D01*
X238838868Y-43156598D02*
X238934106Y-43251837D01*
X238934106Y-43251837D02*
X239076963Y-43299456D01*
X239076963Y-43299456D02*
X239315058Y-43299456D01*
X237743630Y-43299456D02*
X238076963Y-42823265D01*
X238315058Y-43299456D02*
X238315058Y-42299456D01*
X238315058Y-42299456D02*
X237934106Y-42299456D01*
X237934106Y-42299456D02*
X237838868Y-42347075D01*
X237838868Y-42347075D02*
X237791249Y-42394694D01*
X237791249Y-42394694D02*
X237743630Y-42489932D01*
X237743630Y-42489932D02*
X237743630Y-42632789D01*
X237743630Y-42632789D02*
X237791249Y-42728027D01*
X237791249Y-42728027D02*
X237838868Y-42775646D01*
X237838868Y-42775646D02*
X237934106Y-42823265D01*
X237934106Y-42823265D02*
X238315058Y-42823265D01*
X236791249Y-43299456D02*
X237362677Y-43299456D01*
X237076963Y-43299456D02*
X237076963Y-42299456D01*
X237076963Y-42299456D02*
X237172201Y-42442313D01*
X237172201Y-42442313D02*
X237267439Y-42537551D01*
X237267439Y-42537551D02*
X237362677Y-42585170D01*
X235934106Y-42299456D02*
X236124582Y-42299456D01*
X236124582Y-42299456D02*
X236219820Y-42347075D01*
X236219820Y-42347075D02*
X236267439Y-42394694D01*
X236267439Y-42394694D02*
X236362677Y-42537551D01*
X236362677Y-42537551D02*
X236410296Y-42728027D01*
X236410296Y-42728027D02*
X236410296Y-43108979D01*
X236410296Y-43108979D02*
X236362677Y-43204217D01*
X236362677Y-43204217D02*
X236315058Y-43251837D01*
X236315058Y-43251837D02*
X236219820Y-43299456D01*
X236219820Y-43299456D02*
X236029344Y-43299456D01*
X236029344Y-43299456D02*
X235934106Y-43251837D01*
X235934106Y-43251837D02*
X235886487Y-43204217D01*
X235886487Y-43204217D02*
X235838868Y-43108979D01*
X235838868Y-43108979D02*
X235838868Y-42870884D01*
X235838868Y-42870884D02*
X235886487Y-42775646D01*
X235886487Y-42775646D02*
X235934106Y-42728027D01*
X235934106Y-42728027D02*
X236029344Y-42680408D01*
X236029344Y-42680408D02*
X236219820Y-42680408D01*
X236219820Y-42680408D02*
X236315058Y-42728027D01*
X236315058Y-42728027D02*
X236362677Y-42775646D01*
X236362677Y-42775646D02*
X236410296Y-42870884D01*
X219850459Y-44376776D02*
X219850459Y-43376776D01*
X219850459Y-43376776D02*
X219612364Y-43376776D01*
X219612364Y-43376776D02*
X219469507Y-43424395D01*
X219469507Y-43424395D02*
X219374269Y-43519633D01*
X219374269Y-43519633D02*
X219326650Y-43614871D01*
X219326650Y-43614871D02*
X219279031Y-43805347D01*
X219279031Y-43805347D02*
X219279031Y-43948204D01*
X219279031Y-43948204D02*
X219326650Y-44138680D01*
X219326650Y-44138680D02*
X219374269Y-44233918D01*
X219374269Y-44233918D02*
X219469507Y-44329157D01*
X219469507Y-44329157D02*
X219612364Y-44376776D01*
X219612364Y-44376776D02*
X219850459Y-44376776D01*
X218279031Y-44376776D02*
X218612364Y-43900585D01*
X218850459Y-44376776D02*
X218850459Y-43376776D01*
X218850459Y-43376776D02*
X218469507Y-43376776D01*
X218469507Y-43376776D02*
X218374269Y-43424395D01*
X218374269Y-43424395D02*
X218326650Y-43472014D01*
X218326650Y-43472014D02*
X218279031Y-43567252D01*
X218279031Y-43567252D02*
X218279031Y-43710109D01*
X218279031Y-43710109D02*
X218326650Y-43805347D01*
X218326650Y-43805347D02*
X218374269Y-43852966D01*
X218374269Y-43852966D02*
X218469507Y-43900585D01*
X218469507Y-43900585D02*
X218850459Y-43900585D01*
X217326650Y-44376776D02*
X217898078Y-44376776D01*
X217612364Y-44376776D02*
X217612364Y-43376776D01*
X217612364Y-43376776D02*
X217707602Y-43519633D01*
X217707602Y-43519633D02*
X217802840Y-43614871D01*
X217802840Y-43614871D02*
X217898078Y-43662490D01*
X216421888Y-43376776D02*
X216898078Y-43376776D01*
X216898078Y-43376776D02*
X216945697Y-43852966D01*
X216945697Y-43852966D02*
X216898078Y-43805347D01*
X216898078Y-43805347D02*
X216802840Y-43757728D01*
X216802840Y-43757728D02*
X216564745Y-43757728D01*
X216564745Y-43757728D02*
X216469507Y-43805347D01*
X216469507Y-43805347D02*
X216421888Y-43852966D01*
X216421888Y-43852966D02*
X216374269Y-43948204D01*
X216374269Y-43948204D02*
X216374269Y-44186299D01*
X216374269Y-44186299D02*
X216421888Y-44281537D01*
X216421888Y-44281537D02*
X216469507Y-44329157D01*
X216469507Y-44329157D02*
X216564745Y-44376776D01*
X216564745Y-44376776D02*
X216802840Y-44376776D01*
X216802840Y-44376776D02*
X216898078Y-44329157D01*
X216898078Y-44329157D02*
X216945697Y-44281537D01*
X170042333Y-57454819D02*
X170042333Y-58169104D01*
X170042333Y-58169104D02*
X170089952Y-58311961D01*
X170089952Y-58311961D02*
X170185190Y-58407200D01*
X170185190Y-58407200D02*
X170328047Y-58454819D01*
X170328047Y-58454819D02*
X170423285Y-58454819D01*
X168994714Y-58454819D02*
X169328047Y-57978628D01*
X169566142Y-58454819D02*
X169566142Y-57454819D01*
X169566142Y-57454819D02*
X169185190Y-57454819D01*
X169185190Y-57454819D02*
X169089952Y-57502438D01*
X169089952Y-57502438D02*
X169042333Y-57550057D01*
X169042333Y-57550057D02*
X168994714Y-57645295D01*
X168994714Y-57645295D02*
X168994714Y-57788152D01*
X168994714Y-57788152D02*
X169042333Y-57883390D01*
X169042333Y-57883390D02*
X169089952Y-57931009D01*
X169089952Y-57931009D02*
X169185190Y-57978628D01*
X169185190Y-57978628D02*
X169566142Y-57978628D01*
X168042333Y-58454819D02*
X168613761Y-58454819D01*
X168328047Y-58454819D02*
X168328047Y-57454819D01*
X168328047Y-57454819D02*
X168423285Y-57597676D01*
X168423285Y-57597676D02*
X168518523Y-57692914D01*
X168518523Y-57692914D02*
X168613761Y-57740533D01*
X235185713Y-82594104D02*
X234709523Y-82594104D01*
X235280951Y-82879819D02*
X234947618Y-81879819D01*
X234947618Y-81879819D02*
X234614285Y-82879819D01*
X234280951Y-82879819D02*
X234280951Y-81879819D01*
X234280951Y-81879819D02*
X233947618Y-82594104D01*
X233947618Y-82594104D02*
X233614285Y-81879819D01*
X233614285Y-81879819D02*
X233614285Y-82879819D01*
X232566666Y-82879819D02*
X232899999Y-82403628D01*
X233138094Y-82879819D02*
X233138094Y-81879819D01*
X233138094Y-81879819D02*
X232757142Y-81879819D01*
X232757142Y-81879819D02*
X232661904Y-81927438D01*
X232661904Y-81927438D02*
X232614285Y-81975057D01*
X232614285Y-81975057D02*
X232566666Y-82070295D01*
X232566666Y-82070295D02*
X232566666Y-82213152D01*
X232566666Y-82213152D02*
X232614285Y-82308390D01*
X232614285Y-82308390D02*
X232661904Y-82356009D01*
X232661904Y-82356009D02*
X232757142Y-82403628D01*
X232757142Y-82403628D02*
X233138094Y-82403628D01*
X231709523Y-82213152D02*
X231709523Y-82879819D01*
X231947618Y-81832200D02*
X232185713Y-82546485D01*
X232185713Y-82546485D02*
X231566666Y-82546485D01*
X264885713Y-40169104D02*
X264409523Y-40169104D01*
X264980951Y-40454819D02*
X264647618Y-39454819D01*
X264647618Y-39454819D02*
X264314285Y-40454819D01*
X263980951Y-40454819D02*
X263980951Y-39454819D01*
X263980951Y-39454819D02*
X263647618Y-40169104D01*
X263647618Y-40169104D02*
X263314285Y-39454819D01*
X263314285Y-39454819D02*
X263314285Y-40454819D01*
X262266666Y-40454819D02*
X262599999Y-39978628D01*
X262838094Y-40454819D02*
X262838094Y-39454819D01*
X262838094Y-39454819D02*
X262457142Y-39454819D01*
X262457142Y-39454819D02*
X262361904Y-39502438D01*
X262361904Y-39502438D02*
X262314285Y-39550057D01*
X262314285Y-39550057D02*
X262266666Y-39645295D01*
X262266666Y-39645295D02*
X262266666Y-39788152D01*
X262266666Y-39788152D02*
X262314285Y-39883390D01*
X262314285Y-39883390D02*
X262361904Y-39931009D01*
X262361904Y-39931009D02*
X262457142Y-39978628D01*
X262457142Y-39978628D02*
X262838094Y-39978628D01*
X261885713Y-39550057D02*
X261838094Y-39502438D01*
X261838094Y-39502438D02*
X261742856Y-39454819D01*
X261742856Y-39454819D02*
X261504761Y-39454819D01*
X261504761Y-39454819D02*
X261409523Y-39502438D01*
X261409523Y-39502438D02*
X261361904Y-39550057D01*
X261361904Y-39550057D02*
X261314285Y-39645295D01*
X261314285Y-39645295D02*
X261314285Y-39740533D01*
X261314285Y-39740533D02*
X261361904Y-39883390D01*
X261361904Y-39883390D02*
X261933332Y-40454819D01*
X261933332Y-40454819D02*
X261314285Y-40454819D01*
X293179285Y-81179819D02*
X293179285Y-80179819D01*
X293179285Y-80179819D02*
X292941190Y-80179819D01*
X292941190Y-80179819D02*
X292798333Y-80227438D01*
X292798333Y-80227438D02*
X292703095Y-80322676D01*
X292703095Y-80322676D02*
X292655476Y-80417914D01*
X292655476Y-80417914D02*
X292607857Y-80608390D01*
X292607857Y-80608390D02*
X292607857Y-80751247D01*
X292607857Y-80751247D02*
X292655476Y-80941723D01*
X292655476Y-80941723D02*
X292703095Y-81036961D01*
X292703095Y-81036961D02*
X292798333Y-81132200D01*
X292798333Y-81132200D02*
X292941190Y-81179819D01*
X292941190Y-81179819D02*
X293179285Y-81179819D01*
X291607857Y-81179819D02*
X291941190Y-80703628D01*
X292179285Y-81179819D02*
X292179285Y-80179819D01*
X292179285Y-80179819D02*
X291798333Y-80179819D01*
X291798333Y-80179819D02*
X291703095Y-80227438D01*
X291703095Y-80227438D02*
X291655476Y-80275057D01*
X291655476Y-80275057D02*
X291607857Y-80370295D01*
X291607857Y-80370295D02*
X291607857Y-80513152D01*
X291607857Y-80513152D02*
X291655476Y-80608390D01*
X291655476Y-80608390D02*
X291703095Y-80656009D01*
X291703095Y-80656009D02*
X291798333Y-80703628D01*
X291798333Y-80703628D02*
X292179285Y-80703628D01*
X291274523Y-80179819D02*
X290655476Y-80179819D01*
X290655476Y-80179819D02*
X290988809Y-80560771D01*
X290988809Y-80560771D02*
X290845952Y-80560771D01*
X290845952Y-80560771D02*
X290750714Y-80608390D01*
X290750714Y-80608390D02*
X290703095Y-80656009D01*
X290703095Y-80656009D02*
X290655476Y-80751247D01*
X290655476Y-80751247D02*
X290655476Y-80989342D01*
X290655476Y-80989342D02*
X290703095Y-81084580D01*
X290703095Y-81084580D02*
X290750714Y-81132200D01*
X290750714Y-81132200D02*
X290845952Y-81179819D01*
X290845952Y-81179819D02*
X291131666Y-81179819D01*
X291131666Y-81179819D02*
X291226904Y-81132200D01*
X291226904Y-81132200D02*
X291274523Y-81084580D01*
X289703095Y-81179819D02*
X290274523Y-81179819D01*
X289988809Y-81179819D02*
X289988809Y-80179819D01*
X289988809Y-80179819D02*
X290084047Y-80322676D01*
X290084047Y-80322676D02*
X290179285Y-80417914D01*
X290179285Y-80417914D02*
X290274523Y-80465533D01*
X197645715Y-66642809D02*
X197645715Y-65642809D01*
X197645715Y-65642809D02*
X197407620Y-65642809D01*
X197407620Y-65642809D02*
X197264763Y-65690428D01*
X197264763Y-65690428D02*
X197169525Y-65785666D01*
X197169525Y-65785666D02*
X197121906Y-65880904D01*
X197121906Y-65880904D02*
X197074287Y-66071380D01*
X197074287Y-66071380D02*
X197074287Y-66214237D01*
X197074287Y-66214237D02*
X197121906Y-66404713D01*
X197121906Y-66404713D02*
X197169525Y-66499951D01*
X197169525Y-66499951D02*
X197264763Y-66595190D01*
X197264763Y-66595190D02*
X197407620Y-66642809D01*
X197407620Y-66642809D02*
X197645715Y-66642809D01*
X196074287Y-66642809D02*
X196407620Y-66166618D01*
X196645715Y-66642809D02*
X196645715Y-65642809D01*
X196645715Y-65642809D02*
X196264763Y-65642809D01*
X196264763Y-65642809D02*
X196169525Y-65690428D01*
X196169525Y-65690428D02*
X196121906Y-65738047D01*
X196121906Y-65738047D02*
X196074287Y-65833285D01*
X196074287Y-65833285D02*
X196074287Y-65976142D01*
X196074287Y-65976142D02*
X196121906Y-66071380D01*
X196121906Y-66071380D02*
X196169525Y-66118999D01*
X196169525Y-66118999D02*
X196264763Y-66166618D01*
X196264763Y-66166618D02*
X196645715Y-66166618D01*
X195693334Y-65738047D02*
X195645715Y-65690428D01*
X195645715Y-65690428D02*
X195550477Y-65642809D01*
X195550477Y-65642809D02*
X195312382Y-65642809D01*
X195312382Y-65642809D02*
X195217144Y-65690428D01*
X195217144Y-65690428D02*
X195169525Y-65738047D01*
X195169525Y-65738047D02*
X195121906Y-65833285D01*
X195121906Y-65833285D02*
X195121906Y-65928523D01*
X195121906Y-65928523D02*
X195169525Y-66071380D01*
X195169525Y-66071380D02*
X195740953Y-66642809D01*
X195740953Y-66642809D02*
X195121906Y-66642809D01*
X194264763Y-65642809D02*
X194455239Y-65642809D01*
X194455239Y-65642809D02*
X194550477Y-65690428D01*
X194550477Y-65690428D02*
X194598096Y-65738047D01*
X194598096Y-65738047D02*
X194693334Y-65880904D01*
X194693334Y-65880904D02*
X194740953Y-66071380D01*
X194740953Y-66071380D02*
X194740953Y-66452332D01*
X194740953Y-66452332D02*
X194693334Y-66547570D01*
X194693334Y-66547570D02*
X194645715Y-66595190D01*
X194645715Y-66595190D02*
X194550477Y-66642809D01*
X194550477Y-66642809D02*
X194360001Y-66642809D01*
X194360001Y-66642809D02*
X194264763Y-66595190D01*
X194264763Y-66595190D02*
X194217144Y-66547570D01*
X194217144Y-66547570D02*
X194169525Y-66452332D01*
X194169525Y-66452332D02*
X194169525Y-66214237D01*
X194169525Y-66214237D02*
X194217144Y-66118999D01*
X194217144Y-66118999D02*
X194264763Y-66071380D01*
X194264763Y-66071380D02*
X194360001Y-66023761D01*
X194360001Y-66023761D02*
X194550477Y-66023761D01*
X194550477Y-66023761D02*
X194645715Y-66071380D01*
X194645715Y-66071380D02*
X194693334Y-66118999D01*
X194693334Y-66118999D02*
X194740953Y-66214237D01*
X274129285Y-62129819D02*
X274129285Y-61129819D01*
X274129285Y-61129819D02*
X273891190Y-61129819D01*
X273891190Y-61129819D02*
X273748333Y-61177438D01*
X273748333Y-61177438D02*
X273653095Y-61272676D01*
X273653095Y-61272676D02*
X273605476Y-61367914D01*
X273605476Y-61367914D02*
X273557857Y-61558390D01*
X273557857Y-61558390D02*
X273557857Y-61701247D01*
X273557857Y-61701247D02*
X273605476Y-61891723D01*
X273605476Y-61891723D02*
X273653095Y-61986961D01*
X273653095Y-61986961D02*
X273748333Y-62082200D01*
X273748333Y-62082200D02*
X273891190Y-62129819D01*
X273891190Y-62129819D02*
X274129285Y-62129819D01*
X272557857Y-62129819D02*
X272891190Y-61653628D01*
X273129285Y-62129819D02*
X273129285Y-61129819D01*
X273129285Y-61129819D02*
X272748333Y-61129819D01*
X272748333Y-61129819D02*
X272653095Y-61177438D01*
X272653095Y-61177438D02*
X272605476Y-61225057D01*
X272605476Y-61225057D02*
X272557857Y-61320295D01*
X272557857Y-61320295D02*
X272557857Y-61463152D01*
X272557857Y-61463152D02*
X272605476Y-61558390D01*
X272605476Y-61558390D02*
X272653095Y-61606009D01*
X272653095Y-61606009D02*
X272748333Y-61653628D01*
X272748333Y-61653628D02*
X273129285Y-61653628D01*
X272176904Y-61225057D02*
X272129285Y-61177438D01*
X272129285Y-61177438D02*
X272034047Y-61129819D01*
X272034047Y-61129819D02*
X271795952Y-61129819D01*
X271795952Y-61129819D02*
X271700714Y-61177438D01*
X271700714Y-61177438D02*
X271653095Y-61225057D01*
X271653095Y-61225057D02*
X271605476Y-61320295D01*
X271605476Y-61320295D02*
X271605476Y-61415533D01*
X271605476Y-61415533D02*
X271653095Y-61558390D01*
X271653095Y-61558390D02*
X272224523Y-62129819D01*
X272224523Y-62129819D02*
X271605476Y-62129819D01*
X271224523Y-61225057D02*
X271176904Y-61177438D01*
X271176904Y-61177438D02*
X271081666Y-61129819D01*
X271081666Y-61129819D02*
X270843571Y-61129819D01*
X270843571Y-61129819D02*
X270748333Y-61177438D01*
X270748333Y-61177438D02*
X270700714Y-61225057D01*
X270700714Y-61225057D02*
X270653095Y-61320295D01*
X270653095Y-61320295D02*
X270653095Y-61415533D01*
X270653095Y-61415533D02*
X270700714Y-61558390D01*
X270700714Y-61558390D02*
X271272142Y-62129819D01*
X271272142Y-62129819D02*
X270653095Y-62129819D01*
X255079285Y-62129819D02*
X255079285Y-61129819D01*
X255079285Y-61129819D02*
X254841190Y-61129819D01*
X254841190Y-61129819D02*
X254698333Y-61177438D01*
X254698333Y-61177438D02*
X254603095Y-61272676D01*
X254603095Y-61272676D02*
X254555476Y-61367914D01*
X254555476Y-61367914D02*
X254507857Y-61558390D01*
X254507857Y-61558390D02*
X254507857Y-61701247D01*
X254507857Y-61701247D02*
X254555476Y-61891723D01*
X254555476Y-61891723D02*
X254603095Y-61986961D01*
X254603095Y-61986961D02*
X254698333Y-62082200D01*
X254698333Y-62082200D02*
X254841190Y-62129819D01*
X254841190Y-62129819D02*
X255079285Y-62129819D01*
X253507857Y-62129819D02*
X253841190Y-61653628D01*
X254079285Y-62129819D02*
X254079285Y-61129819D01*
X254079285Y-61129819D02*
X253698333Y-61129819D01*
X253698333Y-61129819D02*
X253603095Y-61177438D01*
X253603095Y-61177438D02*
X253555476Y-61225057D01*
X253555476Y-61225057D02*
X253507857Y-61320295D01*
X253507857Y-61320295D02*
X253507857Y-61463152D01*
X253507857Y-61463152D02*
X253555476Y-61558390D01*
X253555476Y-61558390D02*
X253603095Y-61606009D01*
X253603095Y-61606009D02*
X253698333Y-61653628D01*
X253698333Y-61653628D02*
X254079285Y-61653628D01*
X253126904Y-61225057D02*
X253079285Y-61177438D01*
X253079285Y-61177438D02*
X252984047Y-61129819D01*
X252984047Y-61129819D02*
X252745952Y-61129819D01*
X252745952Y-61129819D02*
X252650714Y-61177438D01*
X252650714Y-61177438D02*
X252603095Y-61225057D01*
X252603095Y-61225057D02*
X252555476Y-61320295D01*
X252555476Y-61320295D02*
X252555476Y-61415533D01*
X252555476Y-61415533D02*
X252603095Y-61558390D01*
X252603095Y-61558390D02*
X253174523Y-62129819D01*
X253174523Y-62129819D02*
X252555476Y-62129819D01*
X252222142Y-61129819D02*
X251603095Y-61129819D01*
X251603095Y-61129819D02*
X251936428Y-61510771D01*
X251936428Y-61510771D02*
X251793571Y-61510771D01*
X251793571Y-61510771D02*
X251698333Y-61558390D01*
X251698333Y-61558390D02*
X251650714Y-61606009D01*
X251650714Y-61606009D02*
X251603095Y-61701247D01*
X251603095Y-61701247D02*
X251603095Y-61939342D01*
X251603095Y-61939342D02*
X251650714Y-62034580D01*
X251650714Y-62034580D02*
X251698333Y-62082200D01*
X251698333Y-62082200D02*
X251793571Y-62129819D01*
X251793571Y-62129819D02*
X252079285Y-62129819D01*
X252079285Y-62129819D02*
X252174523Y-62082200D01*
X252174523Y-62082200D02*
X252222142Y-62034580D01*
X182280915Y-49591409D02*
X182280915Y-48591409D01*
X182280915Y-48591409D02*
X182042820Y-48591409D01*
X182042820Y-48591409D02*
X181899963Y-48639028D01*
X181899963Y-48639028D02*
X181804725Y-48734266D01*
X181804725Y-48734266D02*
X181757106Y-48829504D01*
X181757106Y-48829504D02*
X181709487Y-49019980D01*
X181709487Y-49019980D02*
X181709487Y-49162837D01*
X181709487Y-49162837D02*
X181757106Y-49353313D01*
X181757106Y-49353313D02*
X181804725Y-49448551D01*
X181804725Y-49448551D02*
X181899963Y-49543790D01*
X181899963Y-49543790D02*
X182042820Y-49591409D01*
X182042820Y-49591409D02*
X182280915Y-49591409D01*
X180709487Y-49591409D02*
X181042820Y-49115218D01*
X181280915Y-49591409D02*
X181280915Y-48591409D01*
X181280915Y-48591409D02*
X180899963Y-48591409D01*
X180899963Y-48591409D02*
X180804725Y-48639028D01*
X180804725Y-48639028D02*
X180757106Y-48686647D01*
X180757106Y-48686647D02*
X180709487Y-48781885D01*
X180709487Y-48781885D02*
X180709487Y-48924742D01*
X180709487Y-48924742D02*
X180757106Y-49019980D01*
X180757106Y-49019980D02*
X180804725Y-49067599D01*
X180804725Y-49067599D02*
X180899963Y-49115218D01*
X180899963Y-49115218D02*
X181280915Y-49115218D01*
X180328534Y-48686647D02*
X180280915Y-48639028D01*
X180280915Y-48639028D02*
X180185677Y-48591409D01*
X180185677Y-48591409D02*
X179947582Y-48591409D01*
X179947582Y-48591409D02*
X179852344Y-48639028D01*
X179852344Y-48639028D02*
X179804725Y-48686647D01*
X179804725Y-48686647D02*
X179757106Y-48781885D01*
X179757106Y-48781885D02*
X179757106Y-48877123D01*
X179757106Y-48877123D02*
X179804725Y-49019980D01*
X179804725Y-49019980D02*
X180376153Y-49591409D01*
X180376153Y-49591409D02*
X179757106Y-49591409D01*
X179138058Y-48591409D02*
X179042820Y-48591409D01*
X179042820Y-48591409D02*
X178947582Y-48639028D01*
X178947582Y-48639028D02*
X178899963Y-48686647D01*
X178899963Y-48686647D02*
X178852344Y-48781885D01*
X178852344Y-48781885D02*
X178804725Y-48972361D01*
X178804725Y-48972361D02*
X178804725Y-49210456D01*
X178804725Y-49210456D02*
X178852344Y-49400932D01*
X178852344Y-49400932D02*
X178899963Y-49496170D01*
X178899963Y-49496170D02*
X178947582Y-49543790D01*
X178947582Y-49543790D02*
X179042820Y-49591409D01*
X179042820Y-49591409D02*
X179138058Y-49591409D01*
X179138058Y-49591409D02*
X179233296Y-49543790D01*
X179233296Y-49543790D02*
X179280915Y-49496170D01*
X179280915Y-49496170D02*
X179328534Y-49400932D01*
X179328534Y-49400932D02*
X179376153Y-49210456D01*
X179376153Y-49210456D02*
X179376153Y-48972361D01*
X179376153Y-48972361D02*
X179328534Y-48781885D01*
X179328534Y-48781885D02*
X179280915Y-48686647D01*
X179280915Y-48686647D02*
X179233296Y-48639028D01*
X179233296Y-48639028D02*
X179138058Y-48591409D01*
X265385713Y-48169104D02*
X264909523Y-48169104D01*
X265480951Y-48454819D02*
X265147618Y-47454819D01*
X265147618Y-47454819D02*
X264814285Y-48454819D01*
X264480951Y-48454819D02*
X264480951Y-47454819D01*
X264480951Y-47454819D02*
X264147618Y-48169104D01*
X264147618Y-48169104D02*
X263814285Y-47454819D01*
X263814285Y-47454819D02*
X263814285Y-48454819D01*
X262766666Y-48454819D02*
X263099999Y-47978628D01*
X263338094Y-48454819D02*
X263338094Y-47454819D01*
X263338094Y-47454819D02*
X262957142Y-47454819D01*
X262957142Y-47454819D02*
X262861904Y-47502438D01*
X262861904Y-47502438D02*
X262814285Y-47550057D01*
X262814285Y-47550057D02*
X262766666Y-47645295D01*
X262766666Y-47645295D02*
X262766666Y-47788152D01*
X262766666Y-47788152D02*
X262814285Y-47883390D01*
X262814285Y-47883390D02*
X262861904Y-47931009D01*
X262861904Y-47931009D02*
X262957142Y-47978628D01*
X262957142Y-47978628D02*
X263338094Y-47978628D01*
X261814285Y-48454819D02*
X262385713Y-48454819D01*
X262099999Y-48454819D02*
X262099999Y-47454819D01*
X262099999Y-47454819D02*
X262195237Y-47597676D01*
X262195237Y-47597676D02*
X262290475Y-47692914D01*
X262290475Y-47692914D02*
X262385713Y-47740533D01*
X295560285Y-62129819D02*
X295560285Y-61129819D01*
X295560285Y-61129819D02*
X295322190Y-61129819D01*
X295322190Y-61129819D02*
X295179333Y-61177438D01*
X295179333Y-61177438D02*
X295084095Y-61272676D01*
X295084095Y-61272676D02*
X295036476Y-61367914D01*
X295036476Y-61367914D02*
X294988857Y-61558390D01*
X294988857Y-61558390D02*
X294988857Y-61701247D01*
X294988857Y-61701247D02*
X295036476Y-61891723D01*
X295036476Y-61891723D02*
X295084095Y-61986961D01*
X295084095Y-61986961D02*
X295179333Y-62082200D01*
X295179333Y-62082200D02*
X295322190Y-62129819D01*
X295322190Y-62129819D02*
X295560285Y-62129819D01*
X293988857Y-62129819D02*
X294322190Y-61653628D01*
X294560285Y-62129819D02*
X294560285Y-61129819D01*
X294560285Y-61129819D02*
X294179333Y-61129819D01*
X294179333Y-61129819D02*
X294084095Y-61177438D01*
X294084095Y-61177438D02*
X294036476Y-61225057D01*
X294036476Y-61225057D02*
X293988857Y-61320295D01*
X293988857Y-61320295D02*
X293988857Y-61463152D01*
X293988857Y-61463152D02*
X294036476Y-61558390D01*
X294036476Y-61558390D02*
X294084095Y-61606009D01*
X294084095Y-61606009D02*
X294179333Y-61653628D01*
X294179333Y-61653628D02*
X294560285Y-61653628D01*
X293655523Y-61129819D02*
X293036476Y-61129819D01*
X293036476Y-61129819D02*
X293369809Y-61510771D01*
X293369809Y-61510771D02*
X293226952Y-61510771D01*
X293226952Y-61510771D02*
X293131714Y-61558390D01*
X293131714Y-61558390D02*
X293084095Y-61606009D01*
X293084095Y-61606009D02*
X293036476Y-61701247D01*
X293036476Y-61701247D02*
X293036476Y-61939342D01*
X293036476Y-61939342D02*
X293084095Y-62034580D01*
X293084095Y-62034580D02*
X293131714Y-62082200D01*
X293131714Y-62082200D02*
X293226952Y-62129819D01*
X293226952Y-62129819D02*
X293512666Y-62129819D01*
X293512666Y-62129819D02*
X293607904Y-62082200D01*
X293607904Y-62082200D02*
X293655523Y-62034580D01*
X292179333Y-61463152D02*
X292179333Y-62129819D01*
X292417428Y-61082200D02*
X292655523Y-61796485D01*
X292655523Y-61796485D02*
X292036476Y-61796485D01*
X259841285Y-43079819D02*
X259841285Y-42079819D01*
X259841285Y-42079819D02*
X259603190Y-42079819D01*
X259603190Y-42079819D02*
X259460333Y-42127438D01*
X259460333Y-42127438D02*
X259365095Y-42222676D01*
X259365095Y-42222676D02*
X259317476Y-42317914D01*
X259317476Y-42317914D02*
X259269857Y-42508390D01*
X259269857Y-42508390D02*
X259269857Y-42651247D01*
X259269857Y-42651247D02*
X259317476Y-42841723D01*
X259317476Y-42841723D02*
X259365095Y-42936961D01*
X259365095Y-42936961D02*
X259460333Y-43032200D01*
X259460333Y-43032200D02*
X259603190Y-43079819D01*
X259603190Y-43079819D02*
X259841285Y-43079819D01*
X258269857Y-43079819D02*
X258603190Y-42603628D01*
X258841285Y-43079819D02*
X258841285Y-42079819D01*
X258841285Y-42079819D02*
X258460333Y-42079819D01*
X258460333Y-42079819D02*
X258365095Y-42127438D01*
X258365095Y-42127438D02*
X258317476Y-42175057D01*
X258317476Y-42175057D02*
X258269857Y-42270295D01*
X258269857Y-42270295D02*
X258269857Y-42413152D01*
X258269857Y-42413152D02*
X258317476Y-42508390D01*
X258317476Y-42508390D02*
X258365095Y-42556009D01*
X258365095Y-42556009D02*
X258460333Y-42603628D01*
X258460333Y-42603628D02*
X258841285Y-42603628D01*
X257317476Y-43079819D02*
X257888904Y-43079819D01*
X257603190Y-43079819D02*
X257603190Y-42079819D01*
X257603190Y-42079819D02*
X257698428Y-42222676D01*
X257698428Y-42222676D02*
X257793666Y-42317914D01*
X257793666Y-42317914D02*
X257888904Y-42365533D01*
X256984142Y-42079819D02*
X256317476Y-42079819D01*
X256317476Y-42079819D02*
X256746047Y-43079819D01*
X235922358Y-62611656D02*
X235922358Y-61611656D01*
X235922358Y-61611656D02*
X235684263Y-61611656D01*
X235684263Y-61611656D02*
X235541406Y-61659275D01*
X235541406Y-61659275D02*
X235446168Y-61754513D01*
X235446168Y-61754513D02*
X235398549Y-61849751D01*
X235398549Y-61849751D02*
X235350930Y-62040227D01*
X235350930Y-62040227D02*
X235350930Y-62183084D01*
X235350930Y-62183084D02*
X235398549Y-62373560D01*
X235398549Y-62373560D02*
X235446168Y-62468798D01*
X235446168Y-62468798D02*
X235541406Y-62564037D01*
X235541406Y-62564037D02*
X235684263Y-62611656D01*
X235684263Y-62611656D02*
X235922358Y-62611656D01*
X234350930Y-62611656D02*
X234684263Y-62135465D01*
X234922358Y-62611656D02*
X234922358Y-61611656D01*
X234922358Y-61611656D02*
X234541406Y-61611656D01*
X234541406Y-61611656D02*
X234446168Y-61659275D01*
X234446168Y-61659275D02*
X234398549Y-61706894D01*
X234398549Y-61706894D02*
X234350930Y-61802132D01*
X234350930Y-61802132D02*
X234350930Y-61944989D01*
X234350930Y-61944989D02*
X234398549Y-62040227D01*
X234398549Y-62040227D02*
X234446168Y-62087846D01*
X234446168Y-62087846D02*
X234541406Y-62135465D01*
X234541406Y-62135465D02*
X234922358Y-62135465D01*
X233969977Y-61706894D02*
X233922358Y-61659275D01*
X233922358Y-61659275D02*
X233827120Y-61611656D01*
X233827120Y-61611656D02*
X233589025Y-61611656D01*
X233589025Y-61611656D02*
X233493787Y-61659275D01*
X233493787Y-61659275D02*
X233446168Y-61706894D01*
X233446168Y-61706894D02*
X233398549Y-61802132D01*
X233398549Y-61802132D02*
X233398549Y-61897370D01*
X233398549Y-61897370D02*
X233446168Y-62040227D01*
X233446168Y-62040227D02*
X234017596Y-62611656D01*
X234017596Y-62611656D02*
X233398549Y-62611656D01*
X232541406Y-61944989D02*
X232541406Y-62611656D01*
X232779501Y-61564037D02*
X233017596Y-62278322D01*
X233017596Y-62278322D02*
X232398549Y-62278322D01*
X286988094Y-27029819D02*
X286988094Y-26029819D01*
X286988094Y-26029819D02*
X286749999Y-26029819D01*
X286749999Y-26029819D02*
X286607142Y-26077438D01*
X286607142Y-26077438D02*
X286511904Y-26172676D01*
X286511904Y-26172676D02*
X286464285Y-26267914D01*
X286464285Y-26267914D02*
X286416666Y-26458390D01*
X286416666Y-26458390D02*
X286416666Y-26601247D01*
X286416666Y-26601247D02*
X286464285Y-26791723D01*
X286464285Y-26791723D02*
X286511904Y-26886961D01*
X286511904Y-26886961D02*
X286607142Y-26982200D01*
X286607142Y-26982200D02*
X286749999Y-27029819D01*
X286749999Y-27029819D02*
X286988094Y-27029819D01*
X285416666Y-27029819D02*
X285749999Y-26553628D01*
X285988094Y-27029819D02*
X285988094Y-26029819D01*
X285988094Y-26029819D02*
X285607142Y-26029819D01*
X285607142Y-26029819D02*
X285511904Y-26077438D01*
X285511904Y-26077438D02*
X285464285Y-26125057D01*
X285464285Y-26125057D02*
X285416666Y-26220295D01*
X285416666Y-26220295D02*
X285416666Y-26363152D01*
X285416666Y-26363152D02*
X285464285Y-26458390D01*
X285464285Y-26458390D02*
X285511904Y-26506009D01*
X285511904Y-26506009D02*
X285607142Y-26553628D01*
X285607142Y-26553628D02*
X285988094Y-26553628D01*
X284845237Y-26458390D02*
X284940475Y-26410771D01*
X284940475Y-26410771D02*
X284988094Y-26363152D01*
X284988094Y-26363152D02*
X285035713Y-26267914D01*
X285035713Y-26267914D02*
X285035713Y-26220295D01*
X285035713Y-26220295D02*
X284988094Y-26125057D01*
X284988094Y-26125057D02*
X284940475Y-26077438D01*
X284940475Y-26077438D02*
X284845237Y-26029819D01*
X284845237Y-26029819D02*
X284654761Y-26029819D01*
X284654761Y-26029819D02*
X284559523Y-26077438D01*
X284559523Y-26077438D02*
X284511904Y-26125057D01*
X284511904Y-26125057D02*
X284464285Y-26220295D01*
X284464285Y-26220295D02*
X284464285Y-26267914D01*
X284464285Y-26267914D02*
X284511904Y-26363152D01*
X284511904Y-26363152D02*
X284559523Y-26410771D01*
X284559523Y-26410771D02*
X284654761Y-26458390D01*
X284654761Y-26458390D02*
X284845237Y-26458390D01*
X284845237Y-26458390D02*
X284940475Y-26506009D01*
X284940475Y-26506009D02*
X284988094Y-26553628D01*
X284988094Y-26553628D02*
X285035713Y-26648866D01*
X285035713Y-26648866D02*
X285035713Y-26839342D01*
X285035713Y-26839342D02*
X284988094Y-26934580D01*
X284988094Y-26934580D02*
X284940475Y-26982200D01*
X284940475Y-26982200D02*
X284845237Y-27029819D01*
X284845237Y-27029819D02*
X284654761Y-27029819D01*
X284654761Y-27029819D02*
X284559523Y-26982200D01*
X284559523Y-26982200D02*
X284511904Y-26934580D01*
X284511904Y-26934580D02*
X284464285Y-26839342D01*
X284464285Y-26839342D02*
X284464285Y-26648866D01*
X284464285Y-26648866D02*
X284511904Y-26553628D01*
X284511904Y-26553628D02*
X284559523Y-26506009D01*
X284559523Y-26506009D02*
X284654761Y-26458390D01*
X251746094Y-5779819D02*
X251746094Y-4779819D01*
X251746094Y-4779819D02*
X251507999Y-4779819D01*
X251507999Y-4779819D02*
X251365142Y-4827438D01*
X251365142Y-4827438D02*
X251269904Y-4922676D01*
X251269904Y-4922676D02*
X251222285Y-5017914D01*
X251222285Y-5017914D02*
X251174666Y-5208390D01*
X251174666Y-5208390D02*
X251174666Y-5351247D01*
X251174666Y-5351247D02*
X251222285Y-5541723D01*
X251222285Y-5541723D02*
X251269904Y-5636961D01*
X251269904Y-5636961D02*
X251365142Y-5732200D01*
X251365142Y-5732200D02*
X251507999Y-5779819D01*
X251507999Y-5779819D02*
X251746094Y-5779819D01*
X250174666Y-5779819D02*
X250507999Y-5303628D01*
X250746094Y-5779819D02*
X250746094Y-4779819D01*
X250746094Y-4779819D02*
X250365142Y-4779819D01*
X250365142Y-4779819D02*
X250269904Y-4827438D01*
X250269904Y-4827438D02*
X250222285Y-4875057D01*
X250222285Y-4875057D02*
X250174666Y-4970295D01*
X250174666Y-4970295D02*
X250174666Y-5113152D01*
X250174666Y-5113152D02*
X250222285Y-5208390D01*
X250222285Y-5208390D02*
X250269904Y-5256009D01*
X250269904Y-5256009D02*
X250365142Y-5303628D01*
X250365142Y-5303628D02*
X250746094Y-5303628D01*
X249841332Y-4779819D02*
X249222285Y-4779819D01*
X249222285Y-4779819D02*
X249555618Y-5160771D01*
X249555618Y-5160771D02*
X249412761Y-5160771D01*
X249412761Y-5160771D02*
X249317523Y-5208390D01*
X249317523Y-5208390D02*
X249269904Y-5256009D01*
X249269904Y-5256009D02*
X249222285Y-5351247D01*
X249222285Y-5351247D02*
X249222285Y-5589342D01*
X249222285Y-5589342D02*
X249269904Y-5684580D01*
X249269904Y-5684580D02*
X249317523Y-5732200D01*
X249317523Y-5732200D02*
X249412761Y-5779819D01*
X249412761Y-5779819D02*
X249698475Y-5779819D01*
X249698475Y-5779819D02*
X249793713Y-5732200D01*
X249793713Y-5732200D02*
X249841332Y-5684580D01*
X201084115Y-46614109D02*
X201084115Y-45614109D01*
X201084115Y-45614109D02*
X200846020Y-45614109D01*
X200846020Y-45614109D02*
X200703163Y-45661728D01*
X200703163Y-45661728D02*
X200607925Y-45756966D01*
X200607925Y-45756966D02*
X200560306Y-45852204D01*
X200560306Y-45852204D02*
X200512687Y-46042680D01*
X200512687Y-46042680D02*
X200512687Y-46185537D01*
X200512687Y-46185537D02*
X200560306Y-46376013D01*
X200560306Y-46376013D02*
X200607925Y-46471251D01*
X200607925Y-46471251D02*
X200703163Y-46566490D01*
X200703163Y-46566490D02*
X200846020Y-46614109D01*
X200846020Y-46614109D02*
X201084115Y-46614109D01*
X199512687Y-46614109D02*
X199846020Y-46137918D01*
X200084115Y-46614109D02*
X200084115Y-45614109D01*
X200084115Y-45614109D02*
X199703163Y-45614109D01*
X199703163Y-45614109D02*
X199607925Y-45661728D01*
X199607925Y-45661728D02*
X199560306Y-45709347D01*
X199560306Y-45709347D02*
X199512687Y-45804585D01*
X199512687Y-45804585D02*
X199512687Y-45947442D01*
X199512687Y-45947442D02*
X199560306Y-46042680D01*
X199560306Y-46042680D02*
X199607925Y-46090299D01*
X199607925Y-46090299D02*
X199703163Y-46137918D01*
X199703163Y-46137918D02*
X200084115Y-46137918D01*
X198560306Y-46614109D02*
X199131734Y-46614109D01*
X198846020Y-46614109D02*
X198846020Y-45614109D01*
X198846020Y-45614109D02*
X198941258Y-45756966D01*
X198941258Y-45756966D02*
X199036496Y-45852204D01*
X199036496Y-45852204D02*
X199131734Y-45899823D01*
X198084115Y-46614109D02*
X197893639Y-46614109D01*
X197893639Y-46614109D02*
X197798401Y-46566490D01*
X197798401Y-46566490D02*
X197750782Y-46518870D01*
X197750782Y-46518870D02*
X197655544Y-46376013D01*
X197655544Y-46376013D02*
X197607925Y-46185537D01*
X197607925Y-46185537D02*
X197607925Y-45804585D01*
X197607925Y-45804585D02*
X197655544Y-45709347D01*
X197655544Y-45709347D02*
X197703163Y-45661728D01*
X197703163Y-45661728D02*
X197798401Y-45614109D01*
X197798401Y-45614109D02*
X197988877Y-45614109D01*
X197988877Y-45614109D02*
X198084115Y-45661728D01*
X198084115Y-45661728D02*
X198131734Y-45709347D01*
X198131734Y-45709347D02*
X198179353Y-45804585D01*
X198179353Y-45804585D02*
X198179353Y-46042680D01*
X198179353Y-46042680D02*
X198131734Y-46137918D01*
X198131734Y-46137918D02*
X198084115Y-46185537D01*
X198084115Y-46185537D02*
X197988877Y-46233156D01*
X197988877Y-46233156D02*
X197798401Y-46233156D01*
X197798401Y-46233156D02*
X197703163Y-46185537D01*
X197703163Y-46185537D02*
X197655544Y-46137918D01*
X197655544Y-46137918D02*
X197607925Y-46042680D01*
X291885713Y-49669104D02*
X291409523Y-49669104D01*
X291980951Y-49954819D02*
X291647618Y-48954819D01*
X291647618Y-48954819D02*
X291314285Y-49954819D01*
X290980951Y-49954819D02*
X290980951Y-48954819D01*
X290980951Y-48954819D02*
X290647618Y-49669104D01*
X290647618Y-49669104D02*
X290314285Y-48954819D01*
X290314285Y-48954819D02*
X290314285Y-49954819D01*
X289266666Y-49954819D02*
X289599999Y-49478628D01*
X289838094Y-49954819D02*
X289838094Y-48954819D01*
X289838094Y-48954819D02*
X289457142Y-48954819D01*
X289457142Y-48954819D02*
X289361904Y-49002438D01*
X289361904Y-49002438D02*
X289314285Y-49050057D01*
X289314285Y-49050057D02*
X289266666Y-49145295D01*
X289266666Y-49145295D02*
X289266666Y-49288152D01*
X289266666Y-49288152D02*
X289314285Y-49383390D01*
X289314285Y-49383390D02*
X289361904Y-49431009D01*
X289361904Y-49431009D02*
X289457142Y-49478628D01*
X289457142Y-49478628D02*
X289838094Y-49478628D01*
X288361904Y-48954819D02*
X288838094Y-48954819D01*
X288838094Y-48954819D02*
X288885713Y-49431009D01*
X288885713Y-49431009D02*
X288838094Y-49383390D01*
X288838094Y-49383390D02*
X288742856Y-49335771D01*
X288742856Y-49335771D02*
X288504761Y-49335771D01*
X288504761Y-49335771D02*
X288409523Y-49383390D01*
X288409523Y-49383390D02*
X288361904Y-49431009D01*
X288361904Y-49431009D02*
X288314285Y-49526247D01*
X288314285Y-49526247D02*
X288314285Y-49764342D01*
X288314285Y-49764342D02*
X288361904Y-49859580D01*
X288361904Y-49859580D02*
X288409523Y-49907200D01*
X288409523Y-49907200D02*
X288504761Y-49954819D01*
X288504761Y-49954819D02*
X288742856Y-49954819D01*
X288742856Y-49954819D02*
X288838094Y-49907200D01*
X288838094Y-49907200D02*
X288885713Y-49859580D01*
X216411259Y-64019776D02*
X216411259Y-63019776D01*
X216411259Y-63019776D02*
X216173164Y-63019776D01*
X216173164Y-63019776D02*
X216030307Y-63067395D01*
X216030307Y-63067395D02*
X215935069Y-63162633D01*
X215935069Y-63162633D02*
X215887450Y-63257871D01*
X215887450Y-63257871D02*
X215839831Y-63448347D01*
X215839831Y-63448347D02*
X215839831Y-63591204D01*
X215839831Y-63591204D02*
X215887450Y-63781680D01*
X215887450Y-63781680D02*
X215935069Y-63876918D01*
X215935069Y-63876918D02*
X216030307Y-63972157D01*
X216030307Y-63972157D02*
X216173164Y-64019776D01*
X216173164Y-64019776D02*
X216411259Y-64019776D01*
X214839831Y-64019776D02*
X215173164Y-63543585D01*
X215411259Y-64019776D02*
X215411259Y-63019776D01*
X215411259Y-63019776D02*
X215030307Y-63019776D01*
X215030307Y-63019776D02*
X214935069Y-63067395D01*
X214935069Y-63067395D02*
X214887450Y-63115014D01*
X214887450Y-63115014D02*
X214839831Y-63210252D01*
X214839831Y-63210252D02*
X214839831Y-63353109D01*
X214839831Y-63353109D02*
X214887450Y-63448347D01*
X214887450Y-63448347D02*
X214935069Y-63495966D01*
X214935069Y-63495966D02*
X215030307Y-63543585D01*
X215030307Y-63543585D02*
X215411259Y-63543585D01*
X214458878Y-63115014D02*
X214411259Y-63067395D01*
X214411259Y-63067395D02*
X214316021Y-63019776D01*
X214316021Y-63019776D02*
X214077926Y-63019776D01*
X214077926Y-63019776D02*
X213982688Y-63067395D01*
X213982688Y-63067395D02*
X213935069Y-63115014D01*
X213935069Y-63115014D02*
X213887450Y-63210252D01*
X213887450Y-63210252D02*
X213887450Y-63305490D01*
X213887450Y-63305490D02*
X213935069Y-63448347D01*
X213935069Y-63448347D02*
X214506497Y-64019776D01*
X214506497Y-64019776D02*
X213887450Y-64019776D01*
X212982688Y-63019776D02*
X213458878Y-63019776D01*
X213458878Y-63019776D02*
X213506497Y-63495966D01*
X213506497Y-63495966D02*
X213458878Y-63448347D01*
X213458878Y-63448347D02*
X213363640Y-63400728D01*
X213363640Y-63400728D02*
X213125545Y-63400728D01*
X213125545Y-63400728D02*
X213030307Y-63448347D01*
X213030307Y-63448347D02*
X212982688Y-63495966D01*
X212982688Y-63495966D02*
X212935069Y-63591204D01*
X212935069Y-63591204D02*
X212935069Y-63829299D01*
X212935069Y-63829299D02*
X212982688Y-63924537D01*
X212982688Y-63924537D02*
X213030307Y-63972157D01*
X213030307Y-63972157D02*
X213125545Y-64019776D01*
X213125545Y-64019776D02*
X213363640Y-64019776D01*
X213363640Y-64019776D02*
X213458878Y-63972157D01*
X213458878Y-63972157D02*
X213506497Y-63924537D01*
X218402895Y-82964932D02*
X218402895Y-81964932D01*
X218402895Y-81964932D02*
X218164800Y-81964932D01*
X218164800Y-81964932D02*
X218021943Y-82012551D01*
X218021943Y-82012551D02*
X217926705Y-82107789D01*
X217926705Y-82107789D02*
X217879086Y-82203027D01*
X217879086Y-82203027D02*
X217831467Y-82393503D01*
X217831467Y-82393503D02*
X217831467Y-82536360D01*
X217831467Y-82536360D02*
X217879086Y-82726836D01*
X217879086Y-82726836D02*
X217926705Y-82822074D01*
X217926705Y-82822074D02*
X218021943Y-82917313D01*
X218021943Y-82917313D02*
X218164800Y-82964932D01*
X218164800Y-82964932D02*
X218402895Y-82964932D01*
X216831467Y-82964932D02*
X217164800Y-82488741D01*
X217402895Y-82964932D02*
X217402895Y-81964932D01*
X217402895Y-81964932D02*
X217021943Y-81964932D01*
X217021943Y-81964932D02*
X216926705Y-82012551D01*
X216926705Y-82012551D02*
X216879086Y-82060170D01*
X216879086Y-82060170D02*
X216831467Y-82155408D01*
X216831467Y-82155408D02*
X216831467Y-82298265D01*
X216831467Y-82298265D02*
X216879086Y-82393503D01*
X216879086Y-82393503D02*
X216926705Y-82441122D01*
X216926705Y-82441122D02*
X217021943Y-82488741D01*
X217021943Y-82488741D02*
X217402895Y-82488741D01*
X216450514Y-82060170D02*
X216402895Y-82012551D01*
X216402895Y-82012551D02*
X216307657Y-81964932D01*
X216307657Y-81964932D02*
X216069562Y-81964932D01*
X216069562Y-81964932D02*
X215974324Y-82012551D01*
X215974324Y-82012551D02*
X215926705Y-82060170D01*
X215926705Y-82060170D02*
X215879086Y-82155408D01*
X215879086Y-82155408D02*
X215879086Y-82250646D01*
X215879086Y-82250646D02*
X215926705Y-82393503D01*
X215926705Y-82393503D02*
X216498133Y-82964932D01*
X216498133Y-82964932D02*
X215879086Y-82964932D01*
X215307657Y-82393503D02*
X215402895Y-82345884D01*
X215402895Y-82345884D02*
X215450514Y-82298265D01*
X215450514Y-82298265D02*
X215498133Y-82203027D01*
X215498133Y-82203027D02*
X215498133Y-82155408D01*
X215498133Y-82155408D02*
X215450514Y-82060170D01*
X215450514Y-82060170D02*
X215402895Y-82012551D01*
X215402895Y-82012551D02*
X215307657Y-81964932D01*
X215307657Y-81964932D02*
X215117181Y-81964932D01*
X215117181Y-81964932D02*
X215021943Y-82012551D01*
X215021943Y-82012551D02*
X214974324Y-82060170D01*
X214974324Y-82060170D02*
X214926705Y-82155408D01*
X214926705Y-82155408D02*
X214926705Y-82203027D01*
X214926705Y-82203027D02*
X214974324Y-82298265D01*
X214974324Y-82298265D02*
X215021943Y-82345884D01*
X215021943Y-82345884D02*
X215117181Y-82393503D01*
X215117181Y-82393503D02*
X215307657Y-82393503D01*
X215307657Y-82393503D02*
X215402895Y-82441122D01*
X215402895Y-82441122D02*
X215450514Y-82488741D01*
X215450514Y-82488741D02*
X215498133Y-82583979D01*
X215498133Y-82583979D02*
X215498133Y-82774455D01*
X215498133Y-82774455D02*
X215450514Y-82869693D01*
X215450514Y-82869693D02*
X215402895Y-82917313D01*
X215402895Y-82917313D02*
X215307657Y-82964932D01*
X215307657Y-82964932D02*
X215117181Y-82964932D01*
X215117181Y-82964932D02*
X215021943Y-82917313D01*
X215021943Y-82917313D02*
X214974324Y-82869693D01*
X214974324Y-82869693D02*
X214926705Y-82774455D01*
X214926705Y-82774455D02*
X214926705Y-82583979D01*
X214926705Y-82583979D02*
X214974324Y-82488741D01*
X214974324Y-82488741D02*
X215021943Y-82441122D01*
X215021943Y-82441122D02*
X215117181Y-82393503D01*
X286035285Y-43079819D02*
X286035285Y-42079819D01*
X286035285Y-42079819D02*
X285797190Y-42079819D01*
X285797190Y-42079819D02*
X285654333Y-42127438D01*
X285654333Y-42127438D02*
X285559095Y-42222676D01*
X285559095Y-42222676D02*
X285511476Y-42317914D01*
X285511476Y-42317914D02*
X285463857Y-42508390D01*
X285463857Y-42508390D02*
X285463857Y-42651247D01*
X285463857Y-42651247D02*
X285511476Y-42841723D01*
X285511476Y-42841723D02*
X285559095Y-42936961D01*
X285559095Y-42936961D02*
X285654333Y-43032200D01*
X285654333Y-43032200D02*
X285797190Y-43079819D01*
X285797190Y-43079819D02*
X286035285Y-43079819D01*
X284463857Y-43079819D02*
X284797190Y-42603628D01*
X285035285Y-43079819D02*
X285035285Y-42079819D01*
X285035285Y-42079819D02*
X284654333Y-42079819D01*
X284654333Y-42079819D02*
X284559095Y-42127438D01*
X284559095Y-42127438D02*
X284511476Y-42175057D01*
X284511476Y-42175057D02*
X284463857Y-42270295D01*
X284463857Y-42270295D02*
X284463857Y-42413152D01*
X284463857Y-42413152D02*
X284511476Y-42508390D01*
X284511476Y-42508390D02*
X284559095Y-42556009D01*
X284559095Y-42556009D02*
X284654333Y-42603628D01*
X284654333Y-42603628D02*
X285035285Y-42603628D01*
X283511476Y-43079819D02*
X284082904Y-43079819D01*
X283797190Y-43079819D02*
X283797190Y-42079819D01*
X283797190Y-42079819D02*
X283892428Y-42222676D01*
X283892428Y-42222676D02*
X283987666Y-42317914D01*
X283987666Y-42317914D02*
X284082904Y-42365533D01*
X282940047Y-42508390D02*
X283035285Y-42460771D01*
X283035285Y-42460771D02*
X283082904Y-42413152D01*
X283082904Y-42413152D02*
X283130523Y-42317914D01*
X283130523Y-42317914D02*
X283130523Y-42270295D01*
X283130523Y-42270295D02*
X283082904Y-42175057D01*
X283082904Y-42175057D02*
X283035285Y-42127438D01*
X283035285Y-42127438D02*
X282940047Y-42079819D01*
X282940047Y-42079819D02*
X282749571Y-42079819D01*
X282749571Y-42079819D02*
X282654333Y-42127438D01*
X282654333Y-42127438D02*
X282606714Y-42175057D01*
X282606714Y-42175057D02*
X282559095Y-42270295D01*
X282559095Y-42270295D02*
X282559095Y-42317914D01*
X282559095Y-42317914D02*
X282606714Y-42413152D01*
X282606714Y-42413152D02*
X282654333Y-42460771D01*
X282654333Y-42460771D02*
X282749571Y-42508390D01*
X282749571Y-42508390D02*
X282940047Y-42508390D01*
X282940047Y-42508390D02*
X283035285Y-42556009D01*
X283035285Y-42556009D02*
X283082904Y-42603628D01*
X283082904Y-42603628D02*
X283130523Y-42698866D01*
X283130523Y-42698866D02*
X283130523Y-42889342D01*
X283130523Y-42889342D02*
X283082904Y-42984580D01*
X283082904Y-42984580D02*
X283035285Y-43032200D01*
X283035285Y-43032200D02*
X282940047Y-43079819D01*
X282940047Y-43079819D02*
X282749571Y-43079819D01*
X282749571Y-43079819D02*
X282654333Y-43032200D01*
X282654333Y-43032200D02*
X282606714Y-42984580D01*
X282606714Y-42984580D02*
X282559095Y-42889342D01*
X282559095Y-42889342D02*
X282559095Y-42698866D01*
X282559095Y-42698866D02*
X282606714Y-42603628D01*
X282606714Y-42603628D02*
X282654333Y-42556009D01*
X282654333Y-42556009D02*
X282749571Y-42508390D01*
X193891024Y-10216209D02*
X193891024Y-9216209D01*
X193891024Y-9216209D02*
X193652929Y-9216209D01*
X193652929Y-9216209D02*
X193510072Y-9263828D01*
X193510072Y-9263828D02*
X193414834Y-9359066D01*
X193414834Y-9359066D02*
X193367215Y-9454304D01*
X193367215Y-9454304D02*
X193319596Y-9644780D01*
X193319596Y-9644780D02*
X193319596Y-9787637D01*
X193319596Y-9787637D02*
X193367215Y-9978113D01*
X193367215Y-9978113D02*
X193414834Y-10073351D01*
X193414834Y-10073351D02*
X193510072Y-10168590D01*
X193510072Y-10168590D02*
X193652929Y-10216209D01*
X193652929Y-10216209D02*
X193891024Y-10216209D01*
X192319596Y-10216209D02*
X192652929Y-9740018D01*
X192891024Y-10216209D02*
X192891024Y-9216209D01*
X192891024Y-9216209D02*
X192510072Y-9216209D01*
X192510072Y-9216209D02*
X192414834Y-9263828D01*
X192414834Y-9263828D02*
X192367215Y-9311447D01*
X192367215Y-9311447D02*
X192319596Y-9406685D01*
X192319596Y-9406685D02*
X192319596Y-9549542D01*
X192319596Y-9549542D02*
X192367215Y-9644780D01*
X192367215Y-9644780D02*
X192414834Y-9692399D01*
X192414834Y-9692399D02*
X192510072Y-9740018D01*
X192510072Y-9740018D02*
X192891024Y-9740018D01*
X191462453Y-9216209D02*
X191652929Y-9216209D01*
X191652929Y-9216209D02*
X191748167Y-9263828D01*
X191748167Y-9263828D02*
X191795786Y-9311447D01*
X191795786Y-9311447D02*
X191891024Y-9454304D01*
X191891024Y-9454304D02*
X191938643Y-9644780D01*
X191938643Y-9644780D02*
X191938643Y-10025732D01*
X191938643Y-10025732D02*
X191891024Y-10120970D01*
X191891024Y-10120970D02*
X191843405Y-10168590D01*
X191843405Y-10168590D02*
X191748167Y-10216209D01*
X191748167Y-10216209D02*
X191557691Y-10216209D01*
X191557691Y-10216209D02*
X191462453Y-10168590D01*
X191462453Y-10168590D02*
X191414834Y-10120970D01*
X191414834Y-10120970D02*
X191367215Y-10025732D01*
X191367215Y-10025732D02*
X191367215Y-9787637D01*
X191367215Y-9787637D02*
X191414834Y-9692399D01*
X191414834Y-9692399D02*
X191462453Y-9644780D01*
X191462453Y-9644780D02*
X191557691Y-9597161D01*
X191557691Y-9597161D02*
X191748167Y-9597161D01*
X191748167Y-9597161D02*
X191843405Y-9644780D01*
X191843405Y-9644780D02*
X191891024Y-9692399D01*
X191891024Y-9692399D02*
X191938643Y-9787637D01*
X270796094Y-5711819D02*
X270796094Y-4711819D01*
X270796094Y-4711819D02*
X270557999Y-4711819D01*
X270557999Y-4711819D02*
X270415142Y-4759438D01*
X270415142Y-4759438D02*
X270319904Y-4854676D01*
X270319904Y-4854676D02*
X270272285Y-4949914D01*
X270272285Y-4949914D02*
X270224666Y-5140390D01*
X270224666Y-5140390D02*
X270224666Y-5283247D01*
X270224666Y-5283247D02*
X270272285Y-5473723D01*
X270272285Y-5473723D02*
X270319904Y-5568961D01*
X270319904Y-5568961D02*
X270415142Y-5664200D01*
X270415142Y-5664200D02*
X270557999Y-5711819D01*
X270557999Y-5711819D02*
X270796094Y-5711819D01*
X269224666Y-5711819D02*
X269557999Y-5235628D01*
X269796094Y-5711819D02*
X269796094Y-4711819D01*
X269796094Y-4711819D02*
X269415142Y-4711819D01*
X269415142Y-4711819D02*
X269319904Y-4759438D01*
X269319904Y-4759438D02*
X269272285Y-4807057D01*
X269272285Y-4807057D02*
X269224666Y-4902295D01*
X269224666Y-4902295D02*
X269224666Y-5045152D01*
X269224666Y-5045152D02*
X269272285Y-5140390D01*
X269272285Y-5140390D02*
X269319904Y-5188009D01*
X269319904Y-5188009D02*
X269415142Y-5235628D01*
X269415142Y-5235628D02*
X269796094Y-5235628D01*
X268367523Y-5045152D02*
X268367523Y-5711819D01*
X268605618Y-4664200D02*
X268843713Y-5378485D01*
X268843713Y-5378485D02*
X268224666Y-5378485D01*
X232442567Y-6028756D02*
X232442567Y-5028756D01*
X232442567Y-5028756D02*
X232204472Y-5028756D01*
X232204472Y-5028756D02*
X232061615Y-5076375D01*
X232061615Y-5076375D02*
X231966377Y-5171613D01*
X231966377Y-5171613D02*
X231918758Y-5266851D01*
X231918758Y-5266851D02*
X231871139Y-5457327D01*
X231871139Y-5457327D02*
X231871139Y-5600184D01*
X231871139Y-5600184D02*
X231918758Y-5790660D01*
X231918758Y-5790660D02*
X231966377Y-5885898D01*
X231966377Y-5885898D02*
X232061615Y-5981137D01*
X232061615Y-5981137D02*
X232204472Y-6028756D01*
X232204472Y-6028756D02*
X232442567Y-6028756D01*
X230871139Y-6028756D02*
X231204472Y-5552565D01*
X231442567Y-6028756D02*
X231442567Y-5028756D01*
X231442567Y-5028756D02*
X231061615Y-5028756D01*
X231061615Y-5028756D02*
X230966377Y-5076375D01*
X230966377Y-5076375D02*
X230918758Y-5123994D01*
X230918758Y-5123994D02*
X230871139Y-5219232D01*
X230871139Y-5219232D02*
X230871139Y-5362089D01*
X230871139Y-5362089D02*
X230918758Y-5457327D01*
X230918758Y-5457327D02*
X230966377Y-5504946D01*
X230966377Y-5504946D02*
X231061615Y-5552565D01*
X231061615Y-5552565D02*
X231442567Y-5552565D01*
X230490186Y-5123994D02*
X230442567Y-5076375D01*
X230442567Y-5076375D02*
X230347329Y-5028756D01*
X230347329Y-5028756D02*
X230109234Y-5028756D01*
X230109234Y-5028756D02*
X230013996Y-5076375D01*
X230013996Y-5076375D02*
X229966377Y-5123994D01*
X229966377Y-5123994D02*
X229918758Y-5219232D01*
X229918758Y-5219232D02*
X229918758Y-5314470D01*
X229918758Y-5314470D02*
X229966377Y-5457327D01*
X229966377Y-5457327D02*
X230537805Y-6028756D01*
X230537805Y-6028756D02*
X229918758Y-6028756D01*
X263176094Y-27029819D02*
X263176094Y-26029819D01*
X263176094Y-26029819D02*
X262937999Y-26029819D01*
X262937999Y-26029819D02*
X262795142Y-26077438D01*
X262795142Y-26077438D02*
X262699904Y-26172676D01*
X262699904Y-26172676D02*
X262652285Y-26267914D01*
X262652285Y-26267914D02*
X262604666Y-26458390D01*
X262604666Y-26458390D02*
X262604666Y-26601247D01*
X262604666Y-26601247D02*
X262652285Y-26791723D01*
X262652285Y-26791723D02*
X262699904Y-26886961D01*
X262699904Y-26886961D02*
X262795142Y-26982200D01*
X262795142Y-26982200D02*
X262937999Y-27029819D01*
X262937999Y-27029819D02*
X263176094Y-27029819D01*
X261604666Y-27029819D02*
X261937999Y-26553628D01*
X262176094Y-27029819D02*
X262176094Y-26029819D01*
X262176094Y-26029819D02*
X261795142Y-26029819D01*
X261795142Y-26029819D02*
X261699904Y-26077438D01*
X261699904Y-26077438D02*
X261652285Y-26125057D01*
X261652285Y-26125057D02*
X261604666Y-26220295D01*
X261604666Y-26220295D02*
X261604666Y-26363152D01*
X261604666Y-26363152D02*
X261652285Y-26458390D01*
X261652285Y-26458390D02*
X261699904Y-26506009D01*
X261699904Y-26506009D02*
X261795142Y-26553628D01*
X261795142Y-26553628D02*
X262176094Y-26553628D01*
X261128475Y-27029819D02*
X260937999Y-27029819D01*
X260937999Y-27029819D02*
X260842761Y-26982200D01*
X260842761Y-26982200D02*
X260795142Y-26934580D01*
X260795142Y-26934580D02*
X260699904Y-26791723D01*
X260699904Y-26791723D02*
X260652285Y-26601247D01*
X260652285Y-26601247D02*
X260652285Y-26220295D01*
X260652285Y-26220295D02*
X260699904Y-26125057D01*
X260699904Y-26125057D02*
X260747523Y-26077438D01*
X260747523Y-26077438D02*
X260842761Y-26029819D01*
X260842761Y-26029819D02*
X261033237Y-26029819D01*
X261033237Y-26029819D02*
X261128475Y-26077438D01*
X261128475Y-26077438D02*
X261176094Y-26125057D01*
X261176094Y-26125057D02*
X261223713Y-26220295D01*
X261223713Y-26220295D02*
X261223713Y-26458390D01*
X261223713Y-26458390D02*
X261176094Y-26553628D01*
X261176094Y-26553628D02*
X261128475Y-26601247D01*
X261128475Y-26601247D02*
X261033237Y-26648866D01*
X261033237Y-26648866D02*
X260842761Y-26648866D01*
X260842761Y-26648866D02*
X260747523Y-26601247D01*
X260747523Y-26601247D02*
X260699904Y-26553628D01*
X260699904Y-26553628D02*
X260652285Y-26458390D01*
X224812259Y-24813976D02*
X224812259Y-23813976D01*
X224812259Y-23813976D02*
X224574164Y-23813976D01*
X224574164Y-23813976D02*
X224431307Y-23861595D01*
X224431307Y-23861595D02*
X224336069Y-23956833D01*
X224336069Y-23956833D02*
X224288450Y-24052071D01*
X224288450Y-24052071D02*
X224240831Y-24242547D01*
X224240831Y-24242547D02*
X224240831Y-24385404D01*
X224240831Y-24385404D02*
X224288450Y-24575880D01*
X224288450Y-24575880D02*
X224336069Y-24671118D01*
X224336069Y-24671118D02*
X224431307Y-24766357D01*
X224431307Y-24766357D02*
X224574164Y-24813976D01*
X224574164Y-24813976D02*
X224812259Y-24813976D01*
X223240831Y-24813976D02*
X223574164Y-24337785D01*
X223812259Y-24813976D02*
X223812259Y-23813976D01*
X223812259Y-23813976D02*
X223431307Y-23813976D01*
X223431307Y-23813976D02*
X223336069Y-23861595D01*
X223336069Y-23861595D02*
X223288450Y-23909214D01*
X223288450Y-23909214D02*
X223240831Y-24004452D01*
X223240831Y-24004452D02*
X223240831Y-24147309D01*
X223240831Y-24147309D02*
X223288450Y-24242547D01*
X223288450Y-24242547D02*
X223336069Y-24290166D01*
X223336069Y-24290166D02*
X223431307Y-24337785D01*
X223431307Y-24337785D02*
X223812259Y-24337785D01*
X222288450Y-24813976D02*
X222859878Y-24813976D01*
X222574164Y-24813976D02*
X222574164Y-23813976D01*
X222574164Y-23813976D02*
X222669402Y-23956833D01*
X222669402Y-23956833D02*
X222764640Y-24052071D01*
X222764640Y-24052071D02*
X222859878Y-24099690D01*
X221336069Y-24813976D02*
X221907497Y-24813976D01*
X221621783Y-24813976D02*
X221621783Y-23813976D01*
X221621783Y-23813976D02*
X221717021Y-23956833D01*
X221717021Y-23956833D02*
X221812259Y-24052071D01*
X221812259Y-24052071D02*
X221907497Y-24099690D01*
X178807315Y-69627409D02*
X178807315Y-68627409D01*
X178807315Y-68627409D02*
X178569220Y-68627409D01*
X178569220Y-68627409D02*
X178426363Y-68675028D01*
X178426363Y-68675028D02*
X178331125Y-68770266D01*
X178331125Y-68770266D02*
X178283506Y-68865504D01*
X178283506Y-68865504D02*
X178235887Y-69055980D01*
X178235887Y-69055980D02*
X178235887Y-69198837D01*
X178235887Y-69198837D02*
X178283506Y-69389313D01*
X178283506Y-69389313D02*
X178331125Y-69484551D01*
X178331125Y-69484551D02*
X178426363Y-69579790D01*
X178426363Y-69579790D02*
X178569220Y-69627409D01*
X178569220Y-69627409D02*
X178807315Y-69627409D01*
X177235887Y-69627409D02*
X177569220Y-69151218D01*
X177807315Y-69627409D02*
X177807315Y-68627409D01*
X177807315Y-68627409D02*
X177426363Y-68627409D01*
X177426363Y-68627409D02*
X177331125Y-68675028D01*
X177331125Y-68675028D02*
X177283506Y-68722647D01*
X177283506Y-68722647D02*
X177235887Y-68817885D01*
X177235887Y-68817885D02*
X177235887Y-68960742D01*
X177235887Y-68960742D02*
X177283506Y-69055980D01*
X177283506Y-69055980D02*
X177331125Y-69103599D01*
X177331125Y-69103599D02*
X177426363Y-69151218D01*
X177426363Y-69151218D02*
X177807315Y-69151218D01*
X176854934Y-68722647D02*
X176807315Y-68675028D01*
X176807315Y-68675028D02*
X176712077Y-68627409D01*
X176712077Y-68627409D02*
X176473982Y-68627409D01*
X176473982Y-68627409D02*
X176378744Y-68675028D01*
X176378744Y-68675028D02*
X176331125Y-68722647D01*
X176331125Y-68722647D02*
X176283506Y-68817885D01*
X176283506Y-68817885D02*
X176283506Y-68913123D01*
X176283506Y-68913123D02*
X176331125Y-69055980D01*
X176331125Y-69055980D02*
X176902553Y-69627409D01*
X176902553Y-69627409D02*
X176283506Y-69627409D01*
X175950172Y-68627409D02*
X175283506Y-68627409D01*
X175283506Y-68627409D02*
X175712077Y-69627409D01*
X212827568Y-7755376D02*
X212827568Y-6755376D01*
X212827568Y-6755376D02*
X212589473Y-6755376D01*
X212589473Y-6755376D02*
X212446616Y-6802995D01*
X212446616Y-6802995D02*
X212351378Y-6898233D01*
X212351378Y-6898233D02*
X212303759Y-6993471D01*
X212303759Y-6993471D02*
X212256140Y-7183947D01*
X212256140Y-7183947D02*
X212256140Y-7326804D01*
X212256140Y-7326804D02*
X212303759Y-7517280D01*
X212303759Y-7517280D02*
X212351378Y-7612518D01*
X212351378Y-7612518D02*
X212446616Y-7707757D01*
X212446616Y-7707757D02*
X212589473Y-7755376D01*
X212589473Y-7755376D02*
X212827568Y-7755376D01*
X211256140Y-7755376D02*
X211589473Y-7279185D01*
X211827568Y-7755376D02*
X211827568Y-6755376D01*
X211827568Y-6755376D02*
X211446616Y-6755376D01*
X211446616Y-6755376D02*
X211351378Y-6802995D01*
X211351378Y-6802995D02*
X211303759Y-6850614D01*
X211303759Y-6850614D02*
X211256140Y-6945852D01*
X211256140Y-6945852D02*
X211256140Y-7088709D01*
X211256140Y-7088709D02*
X211303759Y-7183947D01*
X211303759Y-7183947D02*
X211351378Y-7231566D01*
X211351378Y-7231566D02*
X211446616Y-7279185D01*
X211446616Y-7279185D02*
X211827568Y-7279185D01*
X210303759Y-7755376D02*
X210875187Y-7755376D01*
X210589473Y-7755376D02*
X210589473Y-6755376D01*
X210589473Y-6755376D02*
X210684711Y-6898233D01*
X210684711Y-6898233D02*
X210779949Y-6993471D01*
X210779949Y-6993471D02*
X210875187Y-7041090D01*
X168144615Y-33112109D02*
X168144615Y-32112109D01*
X168144615Y-32112109D02*
X167906520Y-32112109D01*
X167906520Y-32112109D02*
X167763663Y-32159728D01*
X167763663Y-32159728D02*
X167668425Y-32254966D01*
X167668425Y-32254966D02*
X167620806Y-32350204D01*
X167620806Y-32350204D02*
X167573187Y-32540680D01*
X167573187Y-32540680D02*
X167573187Y-32683537D01*
X167573187Y-32683537D02*
X167620806Y-32874013D01*
X167620806Y-32874013D02*
X167668425Y-32969251D01*
X167668425Y-32969251D02*
X167763663Y-33064490D01*
X167763663Y-33064490D02*
X167906520Y-33112109D01*
X167906520Y-33112109D02*
X168144615Y-33112109D01*
X166573187Y-33112109D02*
X166906520Y-32635918D01*
X167144615Y-33112109D02*
X167144615Y-32112109D01*
X167144615Y-32112109D02*
X166763663Y-32112109D01*
X166763663Y-32112109D02*
X166668425Y-32159728D01*
X166668425Y-32159728D02*
X166620806Y-32207347D01*
X166620806Y-32207347D02*
X166573187Y-32302585D01*
X166573187Y-32302585D02*
X166573187Y-32445442D01*
X166573187Y-32445442D02*
X166620806Y-32540680D01*
X166620806Y-32540680D02*
X166668425Y-32588299D01*
X166668425Y-32588299D02*
X166763663Y-32635918D01*
X166763663Y-32635918D02*
X167144615Y-32635918D01*
X165620806Y-33112109D02*
X166192234Y-33112109D01*
X165906520Y-33112109D02*
X165906520Y-32112109D01*
X165906520Y-32112109D02*
X166001758Y-32254966D01*
X166001758Y-32254966D02*
X166096996Y-32350204D01*
X166096996Y-32350204D02*
X166192234Y-32397823D01*
X164763663Y-32445442D02*
X164763663Y-33112109D01*
X165001758Y-32064490D02*
X165239853Y-32778775D01*
X165239853Y-32778775D02*
X164620806Y-32778775D01*
X205869059Y-26798376D02*
X205869059Y-25798376D01*
X205869059Y-25798376D02*
X205630964Y-25798376D01*
X205630964Y-25798376D02*
X205488107Y-25845995D01*
X205488107Y-25845995D02*
X205392869Y-25941233D01*
X205392869Y-25941233D02*
X205345250Y-26036471D01*
X205345250Y-26036471D02*
X205297631Y-26226947D01*
X205297631Y-26226947D02*
X205297631Y-26369804D01*
X205297631Y-26369804D02*
X205345250Y-26560280D01*
X205345250Y-26560280D02*
X205392869Y-26655518D01*
X205392869Y-26655518D02*
X205488107Y-26750757D01*
X205488107Y-26750757D02*
X205630964Y-26798376D01*
X205630964Y-26798376D02*
X205869059Y-26798376D01*
X204297631Y-26798376D02*
X204630964Y-26322185D01*
X204869059Y-26798376D02*
X204869059Y-25798376D01*
X204869059Y-25798376D02*
X204488107Y-25798376D01*
X204488107Y-25798376D02*
X204392869Y-25845995D01*
X204392869Y-25845995D02*
X204345250Y-25893614D01*
X204345250Y-25893614D02*
X204297631Y-25988852D01*
X204297631Y-25988852D02*
X204297631Y-26131709D01*
X204297631Y-26131709D02*
X204345250Y-26226947D01*
X204345250Y-26226947D02*
X204392869Y-26274566D01*
X204392869Y-26274566D02*
X204488107Y-26322185D01*
X204488107Y-26322185D02*
X204869059Y-26322185D01*
X203345250Y-26798376D02*
X203916678Y-26798376D01*
X203630964Y-26798376D02*
X203630964Y-25798376D01*
X203630964Y-25798376D02*
X203726202Y-25941233D01*
X203726202Y-25941233D02*
X203821440Y-26036471D01*
X203821440Y-26036471D02*
X203916678Y-26084090D01*
X202964297Y-25893614D02*
X202916678Y-25845995D01*
X202916678Y-25845995D02*
X202821440Y-25798376D01*
X202821440Y-25798376D02*
X202583345Y-25798376D01*
X202583345Y-25798376D02*
X202488107Y-25845995D01*
X202488107Y-25845995D02*
X202440488Y-25893614D01*
X202440488Y-25893614D02*
X202392869Y-25988852D01*
X202392869Y-25988852D02*
X202392869Y-26084090D01*
X202392869Y-26084090D02*
X202440488Y-26226947D01*
X202440488Y-26226947D02*
X203011916Y-26798376D01*
X203011916Y-26798376D02*
X202392869Y-26798376D01*
X274129285Y-81179819D02*
X274129285Y-80179819D01*
X274129285Y-80179819D02*
X273891190Y-80179819D01*
X273891190Y-80179819D02*
X273748333Y-80227438D01*
X273748333Y-80227438D02*
X273653095Y-80322676D01*
X273653095Y-80322676D02*
X273605476Y-80417914D01*
X273605476Y-80417914D02*
X273557857Y-80608390D01*
X273557857Y-80608390D02*
X273557857Y-80751247D01*
X273557857Y-80751247D02*
X273605476Y-80941723D01*
X273605476Y-80941723D02*
X273653095Y-81036961D01*
X273653095Y-81036961D02*
X273748333Y-81132200D01*
X273748333Y-81132200D02*
X273891190Y-81179819D01*
X273891190Y-81179819D02*
X274129285Y-81179819D01*
X272557857Y-81179819D02*
X272891190Y-80703628D01*
X273129285Y-81179819D02*
X273129285Y-80179819D01*
X273129285Y-80179819D02*
X272748333Y-80179819D01*
X272748333Y-80179819D02*
X272653095Y-80227438D01*
X272653095Y-80227438D02*
X272605476Y-80275057D01*
X272605476Y-80275057D02*
X272557857Y-80370295D01*
X272557857Y-80370295D02*
X272557857Y-80513152D01*
X272557857Y-80513152D02*
X272605476Y-80608390D01*
X272605476Y-80608390D02*
X272653095Y-80656009D01*
X272653095Y-80656009D02*
X272748333Y-80703628D01*
X272748333Y-80703628D02*
X273129285Y-80703628D01*
X272224523Y-80179819D02*
X271605476Y-80179819D01*
X271605476Y-80179819D02*
X271938809Y-80560771D01*
X271938809Y-80560771D02*
X271795952Y-80560771D01*
X271795952Y-80560771D02*
X271700714Y-80608390D01*
X271700714Y-80608390D02*
X271653095Y-80656009D01*
X271653095Y-80656009D02*
X271605476Y-80751247D01*
X271605476Y-80751247D02*
X271605476Y-80989342D01*
X271605476Y-80989342D02*
X271653095Y-81084580D01*
X271653095Y-81084580D02*
X271700714Y-81132200D01*
X271700714Y-81132200D02*
X271795952Y-81179819D01*
X271795952Y-81179819D02*
X272081666Y-81179819D01*
X272081666Y-81179819D02*
X272176904Y-81132200D01*
X272176904Y-81132200D02*
X272224523Y-81084580D01*
X270748333Y-80179819D02*
X270938809Y-80179819D01*
X270938809Y-80179819D02*
X271034047Y-80227438D01*
X271034047Y-80227438D02*
X271081666Y-80275057D01*
X271081666Y-80275057D02*
X271176904Y-80417914D01*
X271176904Y-80417914D02*
X271224523Y-80608390D01*
X271224523Y-80608390D02*
X271224523Y-80989342D01*
X271224523Y-80989342D02*
X271176904Y-81084580D01*
X271176904Y-81084580D02*
X271129285Y-81132200D01*
X271129285Y-81132200D02*
X271034047Y-81179819D01*
X271034047Y-81179819D02*
X270843571Y-81179819D01*
X270843571Y-81179819D02*
X270748333Y-81132200D01*
X270748333Y-81132200D02*
X270700714Y-81084580D01*
X270700714Y-81084580D02*
X270653095Y-80989342D01*
X270653095Y-80989342D02*
X270653095Y-80751247D01*
X270653095Y-80751247D02*
X270700714Y-80656009D01*
X270700714Y-80656009D02*
X270748333Y-80608390D01*
X270748333Y-80608390D02*
X270843571Y-80560771D01*
X270843571Y-80560771D02*
X271034047Y-80560771D01*
X271034047Y-80560771D02*
X271129285Y-80608390D01*
X271129285Y-80608390D02*
X271176904Y-80656009D01*
X271176904Y-80656009D02*
X271224523Y-80751247D01*
X175087324Y-13207809D02*
X175087324Y-12207809D01*
X175087324Y-12207809D02*
X174849229Y-12207809D01*
X174849229Y-12207809D02*
X174706372Y-12255428D01*
X174706372Y-12255428D02*
X174611134Y-12350666D01*
X174611134Y-12350666D02*
X174563515Y-12445904D01*
X174563515Y-12445904D02*
X174515896Y-12636380D01*
X174515896Y-12636380D02*
X174515896Y-12779237D01*
X174515896Y-12779237D02*
X174563515Y-12969713D01*
X174563515Y-12969713D02*
X174611134Y-13064951D01*
X174611134Y-13064951D02*
X174706372Y-13160190D01*
X174706372Y-13160190D02*
X174849229Y-13207809D01*
X174849229Y-13207809D02*
X175087324Y-13207809D01*
X173515896Y-13207809D02*
X173849229Y-12731618D01*
X174087324Y-13207809D02*
X174087324Y-12207809D01*
X174087324Y-12207809D02*
X173706372Y-12207809D01*
X173706372Y-12207809D02*
X173611134Y-12255428D01*
X173611134Y-12255428D02*
X173563515Y-12303047D01*
X173563515Y-12303047D02*
X173515896Y-12398285D01*
X173515896Y-12398285D02*
X173515896Y-12541142D01*
X173515896Y-12541142D02*
X173563515Y-12636380D01*
X173563515Y-12636380D02*
X173611134Y-12683999D01*
X173611134Y-12683999D02*
X173706372Y-12731618D01*
X173706372Y-12731618D02*
X174087324Y-12731618D01*
X173182562Y-12207809D02*
X172515896Y-12207809D01*
X172515896Y-12207809D02*
X172944467Y-13207809D01*
X186891115Y-29729109D02*
X186891115Y-28729109D01*
X186891115Y-28729109D02*
X186653020Y-28729109D01*
X186653020Y-28729109D02*
X186510163Y-28776728D01*
X186510163Y-28776728D02*
X186414925Y-28871966D01*
X186414925Y-28871966D02*
X186367306Y-28967204D01*
X186367306Y-28967204D02*
X186319687Y-29157680D01*
X186319687Y-29157680D02*
X186319687Y-29300537D01*
X186319687Y-29300537D02*
X186367306Y-29491013D01*
X186367306Y-29491013D02*
X186414925Y-29586251D01*
X186414925Y-29586251D02*
X186510163Y-29681490D01*
X186510163Y-29681490D02*
X186653020Y-29729109D01*
X186653020Y-29729109D02*
X186891115Y-29729109D01*
X185319687Y-29729109D02*
X185653020Y-29252918D01*
X185891115Y-29729109D02*
X185891115Y-28729109D01*
X185891115Y-28729109D02*
X185510163Y-28729109D01*
X185510163Y-28729109D02*
X185414925Y-28776728D01*
X185414925Y-28776728D02*
X185367306Y-28824347D01*
X185367306Y-28824347D02*
X185319687Y-28919585D01*
X185319687Y-28919585D02*
X185319687Y-29062442D01*
X185319687Y-29062442D02*
X185367306Y-29157680D01*
X185367306Y-29157680D02*
X185414925Y-29205299D01*
X185414925Y-29205299D02*
X185510163Y-29252918D01*
X185510163Y-29252918D02*
X185891115Y-29252918D01*
X184367306Y-29729109D02*
X184938734Y-29729109D01*
X184653020Y-29729109D02*
X184653020Y-28729109D01*
X184653020Y-28729109D02*
X184748258Y-28871966D01*
X184748258Y-28871966D02*
X184843496Y-28967204D01*
X184843496Y-28967204D02*
X184938734Y-29014823D01*
X184033972Y-28729109D02*
X183414925Y-28729109D01*
X183414925Y-28729109D02*
X183748258Y-29110061D01*
X183748258Y-29110061D02*
X183605401Y-29110061D01*
X183605401Y-29110061D02*
X183510163Y-29157680D01*
X183510163Y-29157680D02*
X183462544Y-29205299D01*
X183462544Y-29205299D02*
X183414925Y-29300537D01*
X183414925Y-29300537D02*
X183414925Y-29538632D01*
X183414925Y-29538632D02*
X183462544Y-29633870D01*
X183462544Y-29633870D02*
X183510163Y-29681490D01*
X183510163Y-29681490D02*
X183605401Y-29729109D01*
X183605401Y-29729109D02*
X183891115Y-29729109D01*
X183891115Y-29729109D02*
X183986353Y-29681490D01*
X183986353Y-29681490D02*
X184033972Y-29633870D01*
X242685713Y-73669104D02*
X242209523Y-73669104D01*
X242780951Y-73954819D02*
X242447618Y-72954819D01*
X242447618Y-72954819D02*
X242114285Y-73954819D01*
X241780951Y-73954819D02*
X241780951Y-72954819D01*
X241780951Y-72954819D02*
X241447618Y-73669104D01*
X241447618Y-73669104D02*
X241114285Y-72954819D01*
X241114285Y-72954819D02*
X241114285Y-73954819D01*
X240066666Y-73954819D02*
X240399999Y-73478628D01*
X240638094Y-73954819D02*
X240638094Y-72954819D01*
X240638094Y-72954819D02*
X240257142Y-72954819D01*
X240257142Y-72954819D02*
X240161904Y-73002438D01*
X240161904Y-73002438D02*
X240114285Y-73050057D01*
X240114285Y-73050057D02*
X240066666Y-73145295D01*
X240066666Y-73145295D02*
X240066666Y-73288152D01*
X240066666Y-73288152D02*
X240114285Y-73383390D01*
X240114285Y-73383390D02*
X240161904Y-73431009D01*
X240161904Y-73431009D02*
X240257142Y-73478628D01*
X240257142Y-73478628D02*
X240638094Y-73478628D01*
X239733332Y-72954819D02*
X239114285Y-72954819D01*
X239114285Y-72954819D02*
X239447618Y-73335771D01*
X239447618Y-73335771D02*
X239304761Y-73335771D01*
X239304761Y-73335771D02*
X239209523Y-73383390D01*
X239209523Y-73383390D02*
X239161904Y-73431009D01*
X239161904Y-73431009D02*
X239114285Y-73526247D01*
X239114285Y-73526247D02*
X239114285Y-73764342D01*
X239114285Y-73764342D02*
X239161904Y-73859580D01*
X239161904Y-73859580D02*
X239209523Y-73907200D01*
X239209523Y-73907200D02*
X239304761Y-73954819D01*
X239304761Y-73954819D02*
X239590475Y-73954819D01*
X239590475Y-73954819D02*
X239685713Y-73907200D01*
X239685713Y-73907200D02*
X239733332Y-73859580D01*
X244602285Y-24029819D02*
X244602285Y-23029819D01*
X244602285Y-23029819D02*
X244364190Y-23029819D01*
X244364190Y-23029819D02*
X244221333Y-23077438D01*
X244221333Y-23077438D02*
X244126095Y-23172676D01*
X244126095Y-23172676D02*
X244078476Y-23267914D01*
X244078476Y-23267914D02*
X244030857Y-23458390D01*
X244030857Y-23458390D02*
X244030857Y-23601247D01*
X244030857Y-23601247D02*
X244078476Y-23791723D01*
X244078476Y-23791723D02*
X244126095Y-23886961D01*
X244126095Y-23886961D02*
X244221333Y-23982200D01*
X244221333Y-23982200D02*
X244364190Y-24029819D01*
X244364190Y-24029819D02*
X244602285Y-24029819D01*
X243030857Y-24029819D02*
X243364190Y-23553628D01*
X243602285Y-24029819D02*
X243602285Y-23029819D01*
X243602285Y-23029819D02*
X243221333Y-23029819D01*
X243221333Y-23029819D02*
X243126095Y-23077438D01*
X243126095Y-23077438D02*
X243078476Y-23125057D01*
X243078476Y-23125057D02*
X243030857Y-23220295D01*
X243030857Y-23220295D02*
X243030857Y-23363152D01*
X243030857Y-23363152D02*
X243078476Y-23458390D01*
X243078476Y-23458390D02*
X243126095Y-23506009D01*
X243126095Y-23506009D02*
X243221333Y-23553628D01*
X243221333Y-23553628D02*
X243602285Y-23553628D01*
X242078476Y-24029819D02*
X242649904Y-24029819D01*
X242364190Y-24029819D02*
X242364190Y-23029819D01*
X242364190Y-23029819D02*
X242459428Y-23172676D01*
X242459428Y-23172676D02*
X242554666Y-23267914D01*
X242554666Y-23267914D02*
X242649904Y-23315533D01*
X241459428Y-23029819D02*
X241364190Y-23029819D01*
X241364190Y-23029819D02*
X241268952Y-23077438D01*
X241268952Y-23077438D02*
X241221333Y-23125057D01*
X241221333Y-23125057D02*
X241173714Y-23220295D01*
X241173714Y-23220295D02*
X241126095Y-23410771D01*
X241126095Y-23410771D02*
X241126095Y-23648866D01*
X241126095Y-23648866D02*
X241173714Y-23839342D01*
X241173714Y-23839342D02*
X241221333Y-23934580D01*
X241221333Y-23934580D02*
X241268952Y-23982200D01*
X241268952Y-23982200D02*
X241364190Y-24029819D01*
X241364190Y-24029819D02*
X241459428Y-24029819D01*
X241459428Y-24029819D02*
X241554666Y-23982200D01*
X241554666Y-23982200D02*
X241602285Y-23934580D01*
X241602285Y-23934580D02*
X241649904Y-23839342D01*
X241649904Y-23839342D02*
X241697523Y-23648866D01*
X241697523Y-23648866D02*
X241697523Y-23410771D01*
X241697523Y-23410771D02*
X241649904Y-23220295D01*
X241649904Y-23220295D02*
X241602285Y-23125057D01*
X241602285Y-23125057D02*
X241554666Y-23077438D01*
X241554666Y-23077438D02*
X241459428Y-23029819D01*
X289846094Y-5711819D02*
X289846094Y-4711819D01*
X289846094Y-4711819D02*
X289607999Y-4711819D01*
X289607999Y-4711819D02*
X289465142Y-4759438D01*
X289465142Y-4759438D02*
X289369904Y-4854676D01*
X289369904Y-4854676D02*
X289322285Y-4949914D01*
X289322285Y-4949914D02*
X289274666Y-5140390D01*
X289274666Y-5140390D02*
X289274666Y-5283247D01*
X289274666Y-5283247D02*
X289322285Y-5473723D01*
X289322285Y-5473723D02*
X289369904Y-5568961D01*
X289369904Y-5568961D02*
X289465142Y-5664200D01*
X289465142Y-5664200D02*
X289607999Y-5711819D01*
X289607999Y-5711819D02*
X289846094Y-5711819D01*
X288274666Y-5711819D02*
X288607999Y-5235628D01*
X288846094Y-5711819D02*
X288846094Y-4711819D01*
X288846094Y-4711819D02*
X288465142Y-4711819D01*
X288465142Y-4711819D02*
X288369904Y-4759438D01*
X288369904Y-4759438D02*
X288322285Y-4807057D01*
X288322285Y-4807057D02*
X288274666Y-4902295D01*
X288274666Y-4902295D02*
X288274666Y-5045152D01*
X288274666Y-5045152D02*
X288322285Y-5140390D01*
X288322285Y-5140390D02*
X288369904Y-5188009D01*
X288369904Y-5188009D02*
X288465142Y-5235628D01*
X288465142Y-5235628D02*
X288846094Y-5235628D01*
X287369904Y-4711819D02*
X287846094Y-4711819D01*
X287846094Y-4711819D02*
X287893713Y-5188009D01*
X287893713Y-5188009D02*
X287846094Y-5140390D01*
X287846094Y-5140390D02*
X287750856Y-5092771D01*
X287750856Y-5092771D02*
X287512761Y-5092771D01*
X287512761Y-5092771D02*
X287417523Y-5140390D01*
X287417523Y-5140390D02*
X287369904Y-5188009D01*
X287369904Y-5188009D02*
X287322285Y-5283247D01*
X287322285Y-5283247D02*
X287322285Y-5521342D01*
X287322285Y-5521342D02*
X287369904Y-5616580D01*
X287369904Y-5616580D02*
X287417523Y-5664200D01*
X287417523Y-5664200D02*
X287512761Y-5711819D01*
X287512761Y-5711819D02*
X287750856Y-5711819D01*
X287750856Y-5711819D02*
X287846094Y-5664200D01*
X287846094Y-5664200D02*
X287893713Y-5616580D01*
%TO.C,DR32*%
D11*
X176669415Y-84811907D02*
X177142629Y-87799664D01*
X176669415Y-84811907D02*
X177272074Y-83982418D01*
X177142629Y-87799664D02*
X184352754Y-86657693D01*
X183766125Y-82953862D02*
X177272074Y-83982418D01*
X184352754Y-86657693D02*
X183766125Y-82953862D01*
X177536096Y-84370899D02*
X177652963Y-84149896D01*
X177356656Y-84196826D01*
X177536096Y-84370899D01*
G36*
X177536096Y-84370899D02*
G01*
X177356656Y-84196826D01*
X177652963Y-84149896D01*
X177536096Y-84370899D01*
G37*
%TO.C,DR29*%
X249715000Y-76975000D02*
X249715000Y-80000000D01*
X249715000Y-76975000D02*
X250440000Y-76250000D01*
X249715000Y-80000000D02*
X257015000Y-80000000D01*
X257015000Y-76250000D02*
X250440000Y-76250000D01*
X257015000Y-80000000D02*
X257015000Y-76250000D01*
X250640000Y-76675000D02*
X250790000Y-76475000D01*
X250490000Y-76475000D01*
X250640000Y-76675000D01*
G36*
X250640000Y-76675000D02*
G01*
X250490000Y-76475000D01*
X250790000Y-76475000D01*
X250640000Y-76675000D01*
G37*
%TO.C,DR16*%
X233759516Y-39290802D02*
X233917832Y-42311657D01*
X233759516Y-39290802D02*
X234445579Y-38528852D01*
X233917832Y-42311657D02*
X241207828Y-41929604D01*
X241011568Y-38184743D02*
X234445579Y-38528852D01*
X241207828Y-41929604D02*
X241011568Y-38184743D01*
X234667547Y-38942803D02*
X234806875Y-38735226D01*
X234507286Y-38750927D01*
X234667547Y-38942803D01*
G36*
X234667547Y-38942803D02*
G01*
X234507286Y-38750927D01*
X234806875Y-38735226D01*
X234667547Y-38942803D01*
G37*
%TO.C,DR15*%
X214114187Y-40574029D02*
X214430386Y-43582457D01*
X214114187Y-40574029D02*
X214759433Y-39777217D01*
X214430386Y-43582457D02*
X221690396Y-42819400D01*
X221298414Y-39089943D02*
X214759433Y-39777217D01*
X221690396Y-42819400D02*
X221298414Y-39089943D01*
X215002762Y-40178983D02*
X215131034Y-39964400D01*
X214832678Y-39995758D01*
X215002762Y-40178983D01*
G36*
X215002762Y-40178983D02*
G01*
X214832678Y-39995758D01*
X215131034Y-39964400D01*
X215002762Y-40178983D01*
G37*
%TO.C,AMR4*%
X231950000Y-80475000D02*
X222050000Y-80475000D01*
X231950000Y-84375000D02*
X222050000Y-84375000D01*
D12*
X231600000Y-85100000D02*
G75*
G02*
X231290000Y-85100000I-155000J0D01*
G01*
X231290000Y-85100000D02*
G75*
G02*
X231600000Y-85100000I155000J0D01*
G01*
%TO.C,AMR2*%
D11*
X264550000Y-38050000D02*
X274450000Y-38050000D01*
X264550000Y-41950000D02*
X274450000Y-41950000D01*
D12*
X265210000Y-37325000D02*
G75*
G02*
X264900000Y-37325000I-155000J0D01*
G01*
X264900000Y-37325000D02*
G75*
G02*
X265210000Y-37325000I155000J0D01*
G01*
%TO.C,DR31*%
D11*
X287815000Y-76975000D02*
X287815000Y-80000000D01*
X287815000Y-76975000D02*
X288540000Y-76250000D01*
X287815000Y-80000000D02*
X295115000Y-80000000D01*
X295115000Y-76250000D02*
X288540000Y-76250000D01*
X295115000Y-80000000D02*
X295115000Y-76250000D01*
X288740000Y-76675000D02*
X288890000Y-76475000D01*
X288590000Y-76475000D01*
X288740000Y-76675000D01*
G36*
X288740000Y-76675000D02*
G01*
X288590000Y-76475000D01*
X288890000Y-76475000D01*
X288740000Y-76675000D01*
G37*
%TO.C,DR26*%
X191739738Y-63055144D02*
X192212952Y-66042901D01*
X191739738Y-63055144D02*
X192342397Y-62225655D01*
X192212952Y-66042901D02*
X199423077Y-64900930D01*
X198836448Y-61197099D02*
X192342397Y-62225655D01*
X199423077Y-64900930D02*
X198836448Y-61197099D01*
X192606419Y-62614136D02*
X192723286Y-62393133D01*
X192426979Y-62440063D01*
X192606419Y-62614136D01*
G36*
X192606419Y-62614136D02*
G01*
X192426979Y-62440063D01*
X192723286Y-62393133D01*
X192606419Y-62614136D01*
G37*
%TO.C,DR22*%
X268765000Y-57925000D02*
X268765000Y-60950000D01*
X268765000Y-57925000D02*
X269490000Y-57200000D01*
X268765000Y-60950000D02*
X276065000Y-60950000D01*
X276065000Y-57200000D02*
X269490000Y-57200000D01*
X276065000Y-60950000D02*
X276065000Y-57200000D01*
X269690000Y-57625000D02*
X269840000Y-57425000D01*
X269540000Y-57425000D01*
X269690000Y-57625000D01*
G36*
X269690000Y-57625000D02*
G01*
X269540000Y-57425000D01*
X269840000Y-57425000D01*
X269690000Y-57625000D01*
G37*
%TO.C,DR23*%
X249715000Y-57925000D02*
X249715000Y-60950000D01*
X249715000Y-57925000D02*
X250440000Y-57200000D01*
X249715000Y-60950000D02*
X257015000Y-60950000D01*
X257015000Y-57200000D02*
X250440000Y-57200000D01*
X257015000Y-60950000D02*
X257015000Y-57200000D01*
X250640000Y-57625000D02*
X250790000Y-57425000D01*
X250490000Y-57425000D01*
X250640000Y-57625000D01*
G36*
X250640000Y-57625000D02*
G01*
X250490000Y-57425000D01*
X250790000Y-57425000D01*
X250640000Y-57625000D01*
G37*
%TO.C,DR20*%
X176374938Y-46003744D02*
X176848152Y-48991501D01*
X176374938Y-46003744D02*
X176977597Y-45174255D01*
X176848152Y-48991501D02*
X184058277Y-47849530D01*
X183471648Y-44145699D02*
X176977597Y-45174255D01*
X184058277Y-47849530D02*
X183471648Y-44145699D01*
X177241619Y-45562736D02*
X177358486Y-45341733D01*
X177062179Y-45388663D01*
X177241619Y-45562736D01*
G36*
X177241619Y-45562736D02*
G01*
X177062179Y-45388663D01*
X177358486Y-45341733D01*
X177241619Y-45562736D01*
G37*
%TO.C,AMR1*%
X265050000Y-46050000D02*
X274950000Y-46050000D01*
X265050000Y-49950000D02*
X274950000Y-49950000D01*
D12*
X265710000Y-45325000D02*
G75*
G02*
X265400000Y-45325000I-155000J0D01*
G01*
X265400000Y-45325000D02*
G75*
G02*
X265710000Y-45325000I155000J0D01*
G01*
%TO.C,DR34*%
D11*
X290196000Y-57925000D02*
X290196000Y-60950000D01*
X290196000Y-57925000D02*
X290921000Y-57200000D01*
X290196000Y-60950000D02*
X297496000Y-60950000D01*
X297496000Y-57200000D02*
X290921000Y-57200000D01*
X297496000Y-60950000D02*
X297496000Y-57200000D01*
X291121000Y-57625000D02*
X291271000Y-57425000D01*
X290971000Y-57425000D01*
X291121000Y-57625000D01*
G36*
X291121000Y-57625000D02*
G01*
X290971000Y-57425000D01*
X291271000Y-57425000D01*
X291121000Y-57625000D01*
G37*
%TO.C,DR17*%
X254477000Y-38875000D02*
X254477000Y-41900000D01*
X254477000Y-38875000D02*
X255202000Y-38150000D01*
X254477000Y-41900000D02*
X261777000Y-41900000D01*
X261777000Y-38150000D02*
X255202000Y-38150000D01*
X261777000Y-41900000D02*
X261777000Y-38150000D01*
X255402000Y-38575000D02*
X255552000Y-38375000D01*
X255252000Y-38375000D01*
X255402000Y-38575000D01*
G36*
X255402000Y-38575000D02*
G01*
X255252000Y-38375000D01*
X255552000Y-38375000D01*
X255402000Y-38575000D01*
G37*
%TO.C,DR24*%
X230366816Y-58603002D02*
X230525132Y-61623857D01*
X230366816Y-58603002D02*
X231052879Y-57841052D01*
X230525132Y-61623857D02*
X237815128Y-61241804D01*
X237618868Y-57496943D02*
X231052879Y-57841052D01*
X237815128Y-61241804D02*
X237618868Y-57496943D01*
X231274847Y-58255003D02*
X231414175Y-58047426D01*
X231114586Y-58063127D01*
X231274847Y-58255003D01*
G36*
X231274847Y-58255003D02*
G01*
X231114586Y-58063127D01*
X231414175Y-58047426D01*
X231274847Y-58255003D01*
G37*
%TO.C,DR8*%
X282100000Y-22825000D02*
X282100000Y-25850000D01*
X282100000Y-22825000D02*
X282825000Y-22100000D01*
X282100000Y-25850000D02*
X289400000Y-25850000D01*
X289400000Y-22100000D02*
X282825000Y-22100000D01*
X289400000Y-25850000D02*
X289400000Y-22100000D01*
X283025000Y-22525000D02*
X283175000Y-22325000D01*
X282875000Y-22325000D01*
X283025000Y-22525000D01*
G36*
X283025000Y-22525000D02*
G01*
X282875000Y-22325000D01*
X283175000Y-22325000D01*
X283025000Y-22525000D01*
G37*
%TO.C,DR3*%
X246858000Y-1575000D02*
X246858000Y-4600000D01*
X246858000Y-1575000D02*
X247583000Y-850000D01*
X246858000Y-4600000D02*
X254158000Y-4600000D01*
X254158000Y-850000D02*
X247583000Y-850000D01*
X254158000Y-4600000D02*
X254158000Y-850000D01*
X247783000Y-1275000D02*
X247933000Y-1075000D01*
X247633000Y-1075000D01*
X247783000Y-1275000D01*
G36*
X247783000Y-1275000D02*
G01*
X247633000Y-1075000D01*
X247933000Y-1075000D01*
X247783000Y-1275000D01*
G37*
%TO.C,DR19*%
X195178138Y-43026444D02*
X195651352Y-46014201D01*
X195178138Y-43026444D02*
X195780797Y-42196955D01*
X195651352Y-46014201D02*
X202861477Y-44872230D01*
X202274848Y-41168399D02*
X195780797Y-42196955D01*
X202861477Y-44872230D02*
X202274848Y-41168399D01*
X196044819Y-42585436D02*
X196161686Y-42364433D01*
X195865379Y-42411363D01*
X196044819Y-42585436D01*
G36*
X196044819Y-42585436D02*
G01*
X195865379Y-42411363D01*
X196161686Y-42364433D01*
X196044819Y-42585436D01*
G37*
%TO.C,AMR5*%
X291550000Y-47550000D02*
X301450000Y-47550000D01*
X291550000Y-51450000D02*
X301450000Y-51450000D01*
D12*
X292210000Y-46825000D02*
G75*
G02*
X291900000Y-46825000I-155000J0D01*
G01*
X291900000Y-46825000D02*
G75*
G02*
X292210000Y-46825000I155000J0D01*
G01*
%TO.C,DR25*%
D11*
X210674987Y-60217029D02*
X210991186Y-63225457D01*
X210674987Y-60217029D02*
X211320233Y-59420217D01*
X210991186Y-63225457D02*
X218251196Y-62462400D01*
X217859214Y-58732943D02*
X211320233Y-59420217D01*
X218251196Y-62462400D02*
X217859214Y-58732943D01*
X211563562Y-59821983D02*
X211691834Y-59607400D01*
X211393478Y-59638758D01*
X211563562Y-59821983D01*
G36*
X211563562Y-59821983D02*
G01*
X211393478Y-59638758D01*
X211691834Y-59607400D01*
X211563562Y-59821983D01*
G37*
%TO.C,DR28*%
X212666623Y-79162185D02*
X212982822Y-82170613D01*
X212666623Y-79162185D02*
X213311868Y-78365370D01*
X212982822Y-82170613D02*
X220242832Y-81407556D01*
X219850850Y-77678099D02*
X213311868Y-78365370D01*
X220242832Y-81407556D02*
X219850850Y-77678099D01*
X213555198Y-78767139D02*
X213683470Y-78552556D01*
X213385114Y-78583914D01*
X213555198Y-78767139D01*
G36*
X213555198Y-78767139D02*
G01*
X213385114Y-78583914D01*
X213683470Y-78552556D01*
X213555198Y-78767139D01*
G37*
%TO.C,DR18*%
X280671000Y-38875000D02*
X280671000Y-41900000D01*
X280671000Y-38875000D02*
X281396000Y-38150000D01*
X280671000Y-41900000D02*
X287971000Y-41900000D01*
X287971000Y-38150000D02*
X281396000Y-38150000D01*
X287971000Y-41900000D02*
X287971000Y-38150000D01*
X281596000Y-38575000D02*
X281746000Y-38375000D01*
X281446000Y-38375000D01*
X281596000Y-38575000D01*
G36*
X281596000Y-38575000D02*
G01*
X281446000Y-38375000D01*
X281746000Y-38375000D01*
X281596000Y-38575000D01*
G37*
%TO.C,DR6*%
X188461238Y-6628544D02*
X188934452Y-9616301D01*
X188461238Y-6628544D02*
X189063897Y-5799055D01*
X188934452Y-9616301D02*
X196144577Y-8474330D01*
X195557948Y-4770499D02*
X189063897Y-5799055D01*
X196144577Y-8474330D02*
X195557948Y-4770499D01*
X189327919Y-6187536D02*
X189444786Y-5966533D01*
X189148479Y-6013463D01*
X189327919Y-6187536D01*
G36*
X189327919Y-6187536D02*
G01*
X189148479Y-6013463D01*
X189444786Y-5966533D01*
X189327919Y-6187536D01*
G37*
%TO.C,DR4*%
X265908000Y-1507000D02*
X265908000Y-4532000D01*
X265908000Y-1507000D02*
X266633000Y-782000D01*
X265908000Y-4532000D02*
X273208000Y-4532000D01*
X273208000Y-782000D02*
X266633000Y-782000D01*
X273208000Y-4532000D02*
X273208000Y-782000D01*
X266833000Y-1207000D02*
X266983000Y-1007000D01*
X266683000Y-1007000D01*
X266833000Y-1207000D01*
G36*
X266833000Y-1207000D02*
G01*
X266683000Y-1007000D01*
X266983000Y-1007000D01*
X266833000Y-1207000D01*
G37*
%TO.C,DR2*%
X227363216Y-2020102D02*
X227521532Y-5040957D01*
X227363216Y-2020102D02*
X228049279Y-1258152D01*
X227521532Y-5040957D02*
X234811528Y-4658904D01*
X234615268Y-914043D02*
X228049279Y-1258152D01*
X234811528Y-4658904D02*
X234615268Y-914043D01*
X228271247Y-1672103D02*
X228410575Y-1464526D01*
X228110986Y-1480227D01*
X228271247Y-1672103D01*
G36*
X228271247Y-1672103D02*
G01*
X228110986Y-1480227D01*
X228410575Y-1464526D01*
X228271247Y-1672103D01*
G37*
%TO.C,DR9*%
X258288000Y-22825000D02*
X258288000Y-25850000D01*
X258288000Y-22825000D02*
X259013000Y-22100000D01*
X258288000Y-25850000D02*
X265588000Y-25850000D01*
X265588000Y-22100000D02*
X259013000Y-22100000D01*
X265588000Y-25850000D02*
X265588000Y-22100000D01*
X259213000Y-22525000D02*
X259363000Y-22325000D01*
X259063000Y-22325000D01*
X259213000Y-22525000D01*
G36*
X259213000Y-22525000D02*
G01*
X259063000Y-22325000D01*
X259363000Y-22325000D01*
X259213000Y-22525000D01*
G37*
%TO.C,DR11*%
X219075987Y-21011229D02*
X219392186Y-24019657D01*
X219075987Y-21011229D02*
X219721233Y-20214417D01*
X219392186Y-24019657D02*
X226652196Y-23256600D01*
X226260214Y-19527143D02*
X219721233Y-20214417D01*
X226652196Y-23256600D02*
X226260214Y-19527143D01*
X219964562Y-20616183D02*
X220092834Y-20401600D01*
X219794478Y-20432958D01*
X219964562Y-20616183D01*
G36*
X219964562Y-20616183D02*
G01*
X219794478Y-20432958D01*
X220092834Y-20401600D01*
X219964562Y-20616183D01*
G37*
%TO.C,DR27*%
X172901338Y-66039744D02*
X173374552Y-69027501D01*
X172901338Y-66039744D02*
X173503997Y-65210255D01*
X173374552Y-69027501D02*
X180584677Y-67885530D01*
X179998048Y-64181699D02*
X173503997Y-65210255D01*
X180584677Y-67885530D02*
X179998048Y-64181699D01*
X173768019Y-65598736D02*
X173884886Y-65377733D01*
X173588579Y-65424663D01*
X173768019Y-65598736D01*
G36*
X173768019Y-65598736D02*
G01*
X173588579Y-65424663D01*
X173884886Y-65377733D01*
X173768019Y-65598736D01*
G37*
%TO.C,DR1*%
X207567487Y-3952629D02*
X207883686Y-6961057D01*
X207567487Y-3952629D02*
X208212733Y-3155817D01*
X207883686Y-6961057D02*
X215143696Y-6198000D01*
X214751714Y-2468543D02*
X208212733Y-3155817D01*
X215143696Y-6198000D02*
X214751714Y-2468543D01*
X208456062Y-3557583D02*
X208584334Y-3343000D01*
X208285978Y-3374358D01*
X208456062Y-3557583D01*
G36*
X208456062Y-3557583D02*
G01*
X208285978Y-3374358D01*
X208584334Y-3343000D01*
X208456062Y-3557583D01*
G37*
%TO.C,DR14*%
X162238638Y-29524444D02*
X162711852Y-32512201D01*
X162238638Y-29524444D02*
X162841297Y-28694955D01*
X162711852Y-32512201D02*
X169921977Y-31370230D01*
X169335348Y-27666399D02*
X162841297Y-28694955D01*
X169921977Y-31370230D02*
X169335348Y-27666399D01*
X163105319Y-29083436D02*
X163222186Y-28862433D01*
X162925879Y-28909363D01*
X163105319Y-29083436D01*
G36*
X163105319Y-29083436D02*
G01*
X162925879Y-28909363D01*
X163222186Y-28862433D01*
X163105319Y-29083436D01*
G37*
%TO.C,DR12*%
X200132787Y-22995629D02*
X200448986Y-26004057D01*
X200132787Y-22995629D02*
X200778033Y-22198817D01*
X200448986Y-26004057D02*
X207708996Y-25241000D01*
X207317014Y-21511543D02*
X200778033Y-22198817D01*
X207708996Y-25241000D02*
X207317014Y-21511543D01*
X201021362Y-22600583D02*
X201149634Y-22386000D01*
X200851278Y-22417358D01*
X201021362Y-22600583D01*
G36*
X201021362Y-22600583D02*
G01*
X200851278Y-22417358D01*
X201149634Y-22386000D01*
X201021362Y-22600583D01*
G37*
%TO.C,DR36*%
X268765000Y-76975000D02*
X268765000Y-80000000D01*
X268765000Y-76975000D02*
X269490000Y-76250000D01*
X268765000Y-80000000D02*
X276065000Y-80000000D01*
X276065000Y-76250000D02*
X269490000Y-76250000D01*
X276065000Y-80000000D02*
X276065000Y-76250000D01*
X269690000Y-76675000D02*
X269840000Y-76475000D01*
X269540000Y-76475000D01*
X269690000Y-76675000D01*
G36*
X269690000Y-76675000D02*
G01*
X269540000Y-76475000D01*
X269840000Y-76475000D01*
X269690000Y-76675000D01*
G37*
%TO.C,DR7*%
X169657538Y-9620144D02*
X170130752Y-12607901D01*
X169657538Y-9620144D02*
X170260197Y-8790655D01*
X170130752Y-12607901D02*
X177340877Y-11465930D01*
X176754248Y-7762099D02*
X170260197Y-8790655D01*
X177340877Y-11465930D02*
X176754248Y-7762099D01*
X170524219Y-9179136D02*
X170641086Y-8958133D01*
X170344779Y-9005063D01*
X170524219Y-9179136D01*
G36*
X170524219Y-9179136D02*
G01*
X170344779Y-9005063D01*
X170641086Y-8958133D01*
X170524219Y-9179136D01*
G37*
%TO.C,DR13*%
X180985138Y-26141444D02*
X181458352Y-29129201D01*
X180985138Y-26141444D02*
X181587797Y-25311955D01*
X181458352Y-29129201D02*
X188668477Y-27987230D01*
X188081848Y-24283399D02*
X181587797Y-25311955D01*
X188668477Y-27987230D02*
X188081848Y-24283399D01*
X181851819Y-25700436D02*
X181968686Y-25479433D01*
X181672379Y-25526363D01*
X181851819Y-25700436D01*
G36*
X181851819Y-25700436D02*
G01*
X181672379Y-25526363D01*
X181968686Y-25479433D01*
X181851819Y-25700436D01*
G37*
%TO.C,AMR3*%
X239450000Y-71550000D02*
X229550000Y-71550000D01*
X239450000Y-75450000D02*
X229550000Y-75450000D01*
D12*
X239100000Y-76175000D02*
G75*
G02*
X238790000Y-76175000I-155000J0D01*
G01*
X238790000Y-76175000D02*
G75*
G02*
X239100000Y-76175000I155000J0D01*
G01*
%TO.C,DR10*%
D11*
X239238000Y-19825000D02*
X239238000Y-22850000D01*
X239238000Y-19825000D02*
X239963000Y-19100000D01*
X239238000Y-22850000D02*
X246538000Y-22850000D01*
X246538000Y-19100000D02*
X239963000Y-19100000D01*
X246538000Y-22850000D02*
X246538000Y-19100000D01*
X240163000Y-19525000D02*
X240313000Y-19325000D01*
X240013000Y-19325000D01*
X240163000Y-19525000D01*
G36*
X240163000Y-19525000D02*
G01*
X240013000Y-19325000D01*
X240313000Y-19325000D01*
X240163000Y-19525000D01*
G37*
%TO.C,DR5*%
X284958000Y-1507000D02*
X284958000Y-4532000D01*
X284958000Y-1507000D02*
X285683000Y-782000D01*
X284958000Y-4532000D02*
X292258000Y-4532000D01*
X292258000Y-782000D02*
X285683000Y-782000D01*
X292258000Y-4532000D02*
X292258000Y-782000D01*
X285883000Y-1207000D02*
X286033000Y-1007000D01*
X285733000Y-1007000D01*
X285883000Y-1207000D01*
G36*
X285883000Y-1207000D02*
G01*
X285733000Y-1007000D01*
X286033000Y-1007000D01*
X285883000Y-1207000D01*
G37*
%TD*%
%LPC*%
D13*
%TO.C,MHR3*%
X273000000Y-21000000D03*
%TD*%
D14*
%TO.C,SR3*%
X193708236Y-97961518D03*
D15*
X191324175Y-82909148D03*
D14*
X170188907Y-101686614D03*
D15*
X167804846Y-86634244D03*
%TD*%
D13*
%TO.C,MHR4*%
X299000000Y-44000000D03*
%TD*%
%TO.C,MHR2*%
X204000000Y-92000000D03*
%TD*%
%TO.C,MHR1*%
X167000000Y-49000000D03*
%TD*%
D16*
%TO.C,CRGBR8*%
X289970000Y-23975000D03*
X290930000Y-23975000D03*
%TD*%
D17*
%TO.C,CR15B*%
X174269169Y-42949617D03*
X175226831Y-43016583D03*
%TD*%
D18*
%TO.C,HER10*%
X260800500Y-29525000D03*
X260800500Y-27625000D03*
X263075500Y-28575000D03*
%TD*%
D16*
%TO.C,CR11B*%
X291870000Y-35475000D03*
X292830000Y-35475000D03*
%TD*%
D19*
%TO.C,HER8*%
X173531317Y-18017448D03*
X173234092Y-16140840D03*
X175629694Y-16723256D03*
%TD*%
D20*
%TO.C,CR12A*%
X215857194Y-23198580D03*
X216814006Y-23120420D03*
%TD*%
D21*
%TO.C,CR35A*%
X209446573Y-81330814D03*
X210405699Y-81289876D03*
%TD*%
D16*
%TO.C,CRGBR9*%
X266158000Y-23975000D03*
X267118000Y-23975000D03*
%TD*%
D22*
%TO.C,CRGBR28*%
X220613701Y-79483178D03*
X221568445Y-79382830D03*
%TD*%
D23*
%TO.C,DR32*%
X177645600Y-85062281D03*
X177880252Y-86543813D03*
X183263154Y-85691245D03*
X183028502Y-84209713D03*
%TD*%
D24*
%TO.C,DR29*%
X250640000Y-77375000D03*
X250640000Y-78875000D03*
X256090000Y-78875000D03*
X256090000Y-77375000D03*
%TD*%
D25*
%TO.C,CR29A*%
X169798233Y-68295435D03*
X170755967Y-68361365D03*
%TD*%
D16*
%TO.C,CR16A*%
X230431058Y-41317721D03*
X231389742Y-41267479D03*
%TD*%
D18*
%TO.C,HER17*%
X256989500Y-48575000D03*
X256989500Y-46675000D03*
X259264500Y-47625000D03*
%TD*%
D24*
%TO.C,DR16*%
X234704183Y-39641843D03*
X234782683Y-41139788D03*
X240225217Y-40854557D03*
X240146717Y-39356612D03*
%TD*%
D16*
%TO.C,CR26A*%
X288320000Y-71500000D03*
X289280000Y-71500000D03*
%TD*%
D26*
%TO.C,CR6B*%
X218833894Y-17663554D03*
X219793506Y-17636246D03*
%TD*%
D27*
%TO.C,CRGBR7*%
X177610410Y-9524791D03*
X178558590Y-9374609D03*
%TD*%
D28*
%TO.C,CRGBR6*%
X196414310Y-6533191D03*
X197362490Y-6383009D03*
%TD*%
D29*
%TO.C,DR15*%
X215075929Y-40875149D03*
X215232724Y-42366930D03*
X220652871Y-41797251D03*
X220496076Y-40305470D03*
%TD*%
D30*
%TO.C,CR21A*%
X173271614Y-48262796D03*
X174229786Y-48322004D03*
%TD*%
D16*
%TO.C,CR34A*%
X284385000Y-77000000D03*
X285345000Y-77000000D03*
%TD*%
%TO.C,CR23A*%
X246285000Y-59775000D03*
X247245000Y-59775000D03*
%TD*%
D31*
%TO.C,CR14A*%
X177881533Y-28405564D03*
X178840267Y-28454836D03*
%TD*%
D18*
%TO.C,HER30*%
X254502500Y-84775000D03*
X254502500Y-86675000D03*
X252227500Y-85725000D03*
%TD*%
D16*
%TO.C,CR16B*%
X244335158Y-54408021D03*
X245293842Y-54357779D03*
%TD*%
D32*
%TO.C,CRGBR32*%
X184674187Y-85690454D03*
X185622367Y-85540272D03*
%TD*%
D16*
%TO.C,CR11A*%
X278670000Y-21675000D03*
X279630000Y-21675000D03*
%TD*%
D33*
%TO.C,JR1*%
X165309000Y-63500000D03*
X165309000Y-62500000D03*
X165309000Y-61500000D03*
X165309000Y-60500000D03*
X165309000Y-59500000D03*
X165309000Y-58500000D03*
X165309000Y-57500000D03*
X165309000Y-56500000D03*
X165309000Y-55500000D03*
X165309000Y-54500000D03*
X165309000Y-53500000D03*
X165309000Y-52500000D03*
D34*
X163109000Y-65800000D03*
X163109000Y-50200000D03*
%TD*%
D16*
%TO.C,CR34B*%
X297585000Y-92625000D03*
X298545000Y-92625000D03*
%TD*%
D35*
%TO.C,AMR4*%
X231445000Y-84900000D03*
X230175000Y-84900000D03*
X228905000Y-84900000D03*
X227635000Y-84900000D03*
X226365000Y-84900000D03*
X225095000Y-84900000D03*
X223825000Y-84900000D03*
X222555000Y-84900000D03*
X222555000Y-79950000D03*
X223825000Y-79950000D03*
X225095000Y-79950000D03*
X226365000Y-79950000D03*
X227635000Y-79950000D03*
X228905000Y-79950000D03*
X230175000Y-79950000D03*
X231445000Y-79950000D03*
%TD*%
D16*
%TO.C,CR10A*%
X254858000Y-21675000D03*
X255818000Y-21675000D03*
%TD*%
D35*
%TO.C,AMR2*%
X265055000Y-37525000D03*
X266325000Y-37525000D03*
X267595000Y-37525000D03*
X268865000Y-37525000D03*
X270135000Y-37525000D03*
X271405000Y-37525000D03*
X272675000Y-37525000D03*
X273945000Y-37525000D03*
X273945000Y-42475000D03*
X272675000Y-42475000D03*
X271405000Y-42475000D03*
X270135000Y-42475000D03*
X268865000Y-42475000D03*
X267595000Y-42475000D03*
X266325000Y-42475000D03*
X265055000Y-42475000D03*
%TD*%
D36*
%TO.C,HER22*%
X233383578Y-68158230D03*
X233284140Y-66260834D03*
X235605741Y-67090468D03*
%TD*%
D32*
%TO.C,CR36B*%
X186622987Y-100226354D03*
X187571167Y-100076172D03*
%TD*%
D37*
%TO.C,HER13*%
X203645433Y-32379897D03*
X203446829Y-30490305D03*
X205808669Y-31197299D03*
%TD*%
D16*
%TO.C,CR5B*%
X294728000Y-16425000D03*
X295688000Y-16425000D03*
%TD*%
D38*
%TO.C,HER6*%
X210996633Y-12541297D03*
X210798029Y-10651705D03*
X213159869Y-11358699D03*
%TD*%
D16*
%TO.C,CR17A*%
X251047000Y-40725000D03*
X252007000Y-40725000D03*
%TD*%
%TO.C,CRGBR16*%
X241678858Y-40027321D03*
X242637542Y-39977079D03*
%TD*%
D24*
%TO.C,DR31*%
X288740000Y-77375000D03*
X288740000Y-78875000D03*
X294190000Y-78875000D03*
X294190000Y-77375000D03*
%TD*%
D39*
%TO.C,HER28*%
X195738717Y-72242648D03*
X195441492Y-70366040D03*
X197837094Y-70948456D03*
%TD*%
D25*
%TO.C,CR29B*%
X184994533Y-79860635D03*
X185952267Y-79926565D03*
%TD*%
D40*
%TO.C,HER36*%
X179880994Y-94041311D03*
X179583769Y-92164703D03*
X181979371Y-92747119D03*
%TD*%
D16*
%TO.C,CR32A*%
X265335000Y-78825000D03*
X266295000Y-78825000D03*
%TD*%
D41*
%TO.C,CRGBR15*%
X222061328Y-40895074D03*
X223016072Y-40794726D03*
%TD*%
D42*
%TO.C,CRGBR1*%
X215514628Y-4273674D03*
X216469372Y-4173326D03*
%TD*%
D43*
%TO.C,DR26*%
X192715923Y-63305518D03*
X192950575Y-64787050D03*
X198333477Y-63934482D03*
X198098825Y-62452950D03*
%TD*%
D44*
%TO.C,CR27A*%
X207455041Y-62385869D03*
X208414159Y-62344731D03*
%TD*%
D24*
%TO.C,DR22*%
X269690000Y-58325000D03*
X269690000Y-59825000D03*
X275140000Y-59825000D03*
X275140000Y-58325000D03*
%TD*%
%TO.C,DR23*%
X250640000Y-58325000D03*
X250640000Y-59825000D03*
X256090000Y-59825000D03*
X256090000Y-58325000D03*
%TD*%
D45*
%TO.C,DR20*%
X177351123Y-46254118D03*
X177585775Y-47735650D03*
X182968677Y-46883082D03*
X182734025Y-45401550D03*
%TD*%
D46*
%TO.C,CRGBR11*%
X227023128Y-21332274D03*
X227977872Y-21231926D03*
%TD*%
D16*
%TO.C,CMR2*%
X262467300Y-43648600D03*
X263427300Y-43648600D03*
%TD*%
D18*
%TO.C,HER26*%
X292708500Y-67625000D03*
X292708500Y-65725000D03*
X294983500Y-66675000D03*
%TD*%
D16*
%TO.C,CRGBR17*%
X262347000Y-40025000D03*
X263307000Y-40025000D03*
%TD*%
%TO.C,CRGBR3*%
X254728000Y-2725000D03*
X255688000Y-2725000D03*
%TD*%
D47*
%TO.C,CRGBR13*%
X188938210Y-26046191D03*
X189886390Y-25896009D03*
%TD*%
D35*
%TO.C,AMR1*%
X265555000Y-45525000D03*
X266825000Y-45525000D03*
X268095000Y-45525000D03*
X269365000Y-45525000D03*
X270635000Y-45525000D03*
X271905000Y-45525000D03*
X273175000Y-45525000D03*
X274445000Y-45525000D03*
X274445000Y-50475000D03*
X273175000Y-50475000D03*
X271905000Y-50475000D03*
X270635000Y-50475000D03*
X269365000Y-50475000D03*
X268095000Y-50475000D03*
X266825000Y-50475000D03*
X265555000Y-50475000D03*
%TD*%
D16*
%TO.C,CR17B*%
X264247000Y-54525000D03*
X265207000Y-54525000D03*
%TD*%
%TO.C,CRGBR29*%
X263647000Y-81125000D03*
X264607000Y-81125000D03*
%TD*%
D24*
%TO.C,DR34*%
X291121000Y-58325000D03*
X291121000Y-59825000D03*
X296571000Y-59825000D03*
X296571000Y-58325000D03*
%TD*%
D48*
%TO.C,RBPR31*%
X271990000Y-81500000D03*
X273010000Y-81500000D03*
%TD*%
D24*
%TO.C,DR17*%
X255402000Y-39275000D03*
X255402000Y-40775000D03*
X260852000Y-40775000D03*
X260852000Y-39275000D03*
%TD*%
D49*
%TO.C,CR13A*%
X196912327Y-25138840D03*
X197872273Y-25148960D03*
%TD*%
D16*
%TO.C,CRGBR5*%
X285100700Y-7057000D03*
X286060700Y-7057000D03*
%TD*%
%TO.C,CR5A*%
X288128000Y-14000000D03*
X289088000Y-14000000D03*
%TD*%
D18*
%TO.C,HER34*%
X290327500Y-86675000D03*
X290327500Y-84775000D03*
X292602500Y-85725000D03*
%TD*%
D16*
%TO.C,CR9B*%
X249008000Y-35475000D03*
X249968000Y-35475000D03*
%TD*%
D50*
%TO.C,HER35*%
X216179296Y-88546339D03*
X215980696Y-86656747D03*
X218342536Y-87363741D03*
%TD*%
D51*
%TO.C,DR24*%
X231311483Y-58954043D03*
X231389983Y-60451988D03*
X236832517Y-60166757D03*
X236754017Y-58668812D03*
%TD*%
D18*
%TO.C,HER3*%
X268420500Y-10475000D03*
X268420500Y-8575000D03*
X270695500Y-9525000D03*
%TD*%
D19*
%TO.C,HER15*%
X166174917Y-38316848D03*
X165877692Y-36440240D03*
X168273294Y-37022656D03*
%TD*%
D24*
%TO.C,DR8*%
X283025000Y-23225000D03*
X283025000Y-24725000D03*
X288475000Y-24725000D03*
X288475000Y-23225000D03*
%TD*%
D52*
%TO.C,CR22A*%
X227038332Y-60629519D03*
X227997068Y-60580281D03*
%TD*%
D16*
%TO.C,CMR1*%
X262967300Y-51648600D03*
X263927300Y-51648600D03*
%TD*%
%TO.C,CR30B*%
X259485000Y-92625000D03*
X260445000Y-92625000D03*
%TD*%
D53*
%TO.C,HER21*%
X180373917Y-55191248D03*
X180076692Y-53314640D03*
X182472294Y-53897056D03*
%TD*%
D24*
%TO.C,DR3*%
X247783000Y-1975000D03*
X247783000Y-3475000D03*
X253233000Y-3475000D03*
X253233000Y-1975000D03*
%TD*%
D54*
%TO.C,HER1*%
X230337978Y-10776430D03*
X230238540Y-8879034D03*
X232560141Y-9708668D03*
%TD*%
D55*
%TO.C,CR19A*%
X210894753Y-42754078D03*
X211852647Y-42690522D03*
%TD*%
D16*
%TO.C,CMR3*%
X240572700Y-69851400D03*
X241532700Y-69851400D03*
%TD*%
D56*
%TO.C,CR28B*%
X203831702Y-76907609D03*
X204791698Y-76910391D03*
%TD*%
D18*
%TO.C,HER32*%
X271277500Y-86675000D03*
X271277500Y-84775000D03*
X273552500Y-85725000D03*
%TD*%
D57*
%TO.C,DR19*%
X196154323Y-43276818D03*
X196388975Y-44758350D03*
X201771877Y-43905782D03*
X201537225Y-42424250D03*
%TD*%
D35*
%TO.C,AMR5*%
X292055000Y-47025000D03*
X293325000Y-47025000D03*
X294595000Y-47025000D03*
X295865000Y-47025000D03*
X297135000Y-47025000D03*
X298405000Y-47025000D03*
X299675000Y-47025000D03*
X300945000Y-47025000D03*
X300945000Y-51975000D03*
X299675000Y-51975000D03*
X298405000Y-51975000D03*
X297135000Y-51975000D03*
X295865000Y-51975000D03*
X294595000Y-51975000D03*
X293325000Y-51975000D03*
X292055000Y-51975000D03*
%TD*%
D58*
%TO.C,DR25*%
X211636729Y-60518149D03*
X211793524Y-62009930D03*
X217213671Y-61440251D03*
X217056876Y-59948470D03*
%TD*%
D16*
%TO.C,CMR4*%
X233072700Y-78851400D03*
X234032700Y-78851400D03*
%TD*%
%TO.C,CR2B*%
X256628000Y-16425000D03*
X257588000Y-16425000D03*
%TD*%
%TO.C,CR10B*%
X268058000Y-35475000D03*
X269018000Y-35475000D03*
%TD*%
%TO.C,CRGBR36*%
X276635000Y-81125000D03*
X277595000Y-81125000D03*
%TD*%
D59*
%TO.C,DR28*%
X213628365Y-79463305D03*
X213785160Y-80955086D03*
X219205307Y-80385407D03*
X219048512Y-78893626D03*
%TD*%
D60*
%TO.C,HER20*%
X199177117Y-52214048D03*
X198879892Y-50337440D03*
X201275494Y-50919856D03*
%TD*%
D16*
%TO.C,CRGBR18*%
X288541000Y-40025000D03*
X289501000Y-40025000D03*
%TD*%
%TO.C,CRGBR10*%
X247108000Y-20975000D03*
X248068000Y-20975000D03*
%TD*%
D24*
%TO.C,DR18*%
X281596000Y-39275000D03*
X281596000Y-40775000D03*
X287046000Y-40775000D03*
X287046000Y-39275000D03*
%TD*%
D16*
%TO.C,CR32B*%
X278535000Y-92625000D03*
X279495000Y-92625000D03*
%TD*%
D61*
%TO.C,DR6*%
X189437423Y-6878918D03*
X189672075Y-8360450D03*
X195054977Y-7507882D03*
X194820325Y-6026350D03*
%TD*%
D56*
%TO.C,CR28A*%
X188635502Y-65342409D03*
X189595498Y-65345191D03*
%TD*%
D24*
%TO.C,DR4*%
X266833000Y-1907000D03*
X266833000Y-3407000D03*
X272283000Y-3407000D03*
X272283000Y-1907000D03*
%TD*%
D44*
%TO.C,CR27B*%
X222025141Y-74730469D03*
X222984259Y-74689331D03*
%TD*%
D62*
%TO.C,CRGBR12*%
X208079828Y-23316674D03*
X209034572Y-23216326D03*
%TD*%
D63*
%TO.C,CR1B*%
X237896855Y-16336380D03*
X238855745Y-16290220D03*
%TD*%
D64*
%TO.C,DR2*%
X228307883Y-2371143D03*
X228386383Y-3869088D03*
X233828917Y-3583857D03*
X233750417Y-2085912D03*
%TD*%
D16*
%TO.C,CR18B*%
X290441000Y-54525000D03*
X291401000Y-54525000D03*
%TD*%
%TO.C,CRGBR22*%
X266735000Y-62675000D03*
X267695000Y-62675000D03*
%TD*%
D31*
%TO.C,CR14B*%
X193077833Y-39970764D03*
X194036567Y-40020036D03*
%TD*%
D65*
%TO.C,CRGBR26*%
X199692810Y-62959891D03*
X200640990Y-62809709D03*
%TD*%
D16*
%TO.C,CR23B*%
X259485000Y-73575000D03*
X260445000Y-73575000D03*
%TD*%
D66*
%TO.C,CR7B*%
X200428277Y-19683622D03*
X201388123Y-19700778D03*
%TD*%
D16*
%TO.C,CR3A*%
X262478000Y-2625000D03*
X263438000Y-2625000D03*
%TD*%
%TO.C,CR9A*%
X235808000Y-21675000D03*
X236768000Y-21675000D03*
%TD*%
%TO.C,CR24A*%
X267020000Y-71500000D03*
X267980000Y-71500000D03*
%TD*%
%TO.C,CMR5*%
X289467300Y-53148600D03*
X290427300Y-53148600D03*
%TD*%
D30*
%TO.C,CR21B*%
X188467914Y-59828096D03*
X189426086Y-59887304D03*
%TD*%
D67*
%TO.C,HER19*%
X217626833Y-49958297D03*
X217428229Y-48068705D03*
X219790069Y-48775699D03*
%TD*%
D68*
%TO.C,CRGBR2*%
X235282558Y-2756621D03*
X236241242Y-2706379D03*
%TD*%
D17*
%TO.C,CR8A*%
X166429169Y-11085117D03*
X167386831Y-11152083D03*
%TD*%
D16*
%TO.C,CR26B*%
X299966000Y-73575000D03*
X300926000Y-73575000D03*
%TD*%
D27*
%TO.C,CRGBR14*%
X170191510Y-29429091D03*
X171139690Y-29278909D03*
%TD*%
D69*
%TO.C,CRGBR19*%
X203131210Y-42931191D03*
X204079390Y-42781009D03*
%TD*%
D24*
%TO.C,DR9*%
X259213000Y-23225000D03*
X259213000Y-24725000D03*
X264663000Y-24725000D03*
X264663000Y-23225000D03*
%TD*%
D18*
%TO.C,HER16*%
X236776178Y-48846030D03*
X236676740Y-46948634D03*
X238998341Y-47778268D03*
%TD*%
D16*
%TO.C,CR18A*%
X277241000Y-40725000D03*
X278201000Y-40725000D03*
%TD*%
D70*
%TO.C,DR11*%
X220037729Y-21312349D03*
X220194524Y-22804130D03*
X225614671Y-22234451D03*
X225457876Y-20742670D03*
%TD*%
D49*
%TO.C,CR13B*%
X211482527Y-37483440D03*
X212442473Y-37493560D03*
%TD*%
D71*
%TO.C,HER27*%
X214187633Y-69601297D03*
X213989029Y-67711705D03*
X216350869Y-68418699D03*
%TD*%
D16*
%TO.C,CRGBR4*%
X272105300Y-7057000D03*
X273065300Y-7057000D03*
%TD*%
D18*
%TO.C,HER2*%
X249370500Y-10475000D03*
X249370500Y-8575000D03*
X251645500Y-9525000D03*
%TD*%
D16*
%TO.C,CR30A*%
X246285000Y-78825000D03*
X247245000Y-78825000D03*
%TD*%
D55*
%TO.C,CR19B*%
X225464953Y-55098678D03*
X226422847Y-55035122D03*
%TD*%
D72*
%TO.C,DR27*%
X173877523Y-66290118D03*
X174112175Y-67771650D03*
X179495077Y-66919082D03*
X179260425Y-65437550D03*
%TD*%
D18*
%TO.C,HER24*%
X271277500Y-67625000D03*
X271277500Y-65725000D03*
X273552500Y-66675000D03*
%TD*%
D52*
%TO.C,CR22B*%
X240942432Y-73719719D03*
X241901168Y-73670481D03*
%TD*%
D18*
%TO.C,HER5*%
X287470500Y-10475000D03*
X287470500Y-8575000D03*
X289745500Y-9525000D03*
%TD*%
D73*
%TO.C,HER29*%
X176900317Y-75227248D03*
X176603092Y-73350640D03*
X178998694Y-73933056D03*
%TD*%
D74*
%TO.C,DR1*%
X208529229Y-4253749D03*
X208686024Y-5745530D03*
X214106171Y-5175851D03*
X213949376Y-3684070D03*
%TD*%
D26*
%TO.C,CR6A*%
X204263594Y-5318854D03*
X205223206Y-5291546D03*
%TD*%
D75*
%TO.C,HER7*%
X192335117Y-15025848D03*
X192037892Y-13149240D03*
X194433494Y-13731656D03*
%TD*%
D76*
%TO.C,HER14*%
X184984117Y-35329048D03*
X184686892Y-33452440D03*
X187082494Y-34034856D03*
%TD*%
D77*
%TO.C,CRGBR27*%
X180854410Y-65944491D03*
X181802590Y-65794309D03*
%TD*%
D17*
%TO.C,CR8B*%
X181625569Y-22650317D03*
X182583231Y-22717283D03*
%TD*%
D18*
%TO.C,HER23*%
X252227500Y-67625000D03*
X252227500Y-65725000D03*
X254502500Y-66675000D03*
%TD*%
D17*
%TO.C,CR15A*%
X159072869Y-31384517D03*
X160030531Y-31451483D03*
%TD*%
D16*
%TO.C,CRGBR31*%
X296985000Y-81125000D03*
X297945000Y-81125000D03*
%TD*%
D18*
%TO.C,HER11*%
X284612500Y-29525000D03*
X284612500Y-27625000D03*
X286887500Y-28575000D03*
%TD*%
D78*
%TO.C,DR14*%
X163214823Y-29774818D03*
X163449475Y-31256350D03*
X168832377Y-30403782D03*
X168597725Y-28922250D03*
%TD*%
D32*
%TO.C,CR36A*%
X174140687Y-85773954D03*
X175088867Y-85623772D03*
%TD*%
D79*
%TO.C,DR12*%
X201094529Y-23296749D03*
X201251324Y-24788530D03*
X206671471Y-24218851D03*
X206514676Y-22727070D03*
%TD*%
D80*
%TO.C,CRGBR25*%
X218622028Y-60538174D03*
X219576772Y-60437826D03*
%TD*%
D81*
%TO.C,HER12*%
X222588633Y-30395497D03*
X222390029Y-28505905D03*
X224751869Y-29212899D03*
%TD*%
D20*
%TO.C,CR12B*%
X230427294Y-35543080D03*
X231384106Y-35464920D03*
%TD*%
D82*
%TO.C,CRGBR20*%
X184327910Y-45908491D03*
X185276090Y-45758309D03*
%TD*%
D48*
%TO.C,RBPR24*%
X233490000Y-62500000D03*
X234510000Y-62500000D03*
%TD*%
D66*
%TO.C,CR7A*%
X185231977Y-8118522D03*
X186191823Y-8135678D03*
%TD*%
D16*
%TO.C,CR2A*%
X243428000Y-2625000D03*
X244388000Y-2625000D03*
%TD*%
D83*
%TO.C,CRGBR24*%
X238286258Y-59339521D03*
X239244942Y-59289279D03*
%TD*%
D18*
%TO.C,HER9*%
X241750500Y-29525000D03*
X241750500Y-27625000D03*
X244025500Y-28575000D03*
%TD*%
D24*
%TO.C,DR36*%
X269690000Y-77375000D03*
X269690000Y-78875000D03*
X275140000Y-78875000D03*
X275140000Y-77375000D03*
%TD*%
D16*
%TO.C,CR3B*%
X275678000Y-16425000D03*
X276638000Y-16425000D03*
%TD*%
%TO.C,CR24B*%
X278535000Y-73575000D03*
X279495000Y-73575000D03*
%TD*%
D18*
%TO.C,HER18*%
X283183500Y-48575000D03*
X283183500Y-46675000D03*
X285458500Y-47625000D03*
%TD*%
D84*
%TO.C,CR20B*%
X207270216Y-56890872D03*
X208229984Y-56869728D03*
%TD*%
D78*
%TO.C,DR7*%
X170633723Y-9870518D03*
X170868375Y-11352050D03*
X176251277Y-10499482D03*
X176016625Y-9017950D03*
%TD*%
D85*
%TO.C,DR13*%
X181961323Y-26391818D03*
X182195975Y-27873350D03*
X187578877Y-27020782D03*
X187344225Y-25539250D03*
%TD*%
D35*
%TO.C,AMR3*%
X238945000Y-75975000D03*
X237675000Y-75975000D03*
X236405000Y-75975000D03*
X235135000Y-75975000D03*
X233865000Y-75975000D03*
X232595000Y-75975000D03*
X231325000Y-75975000D03*
X230055000Y-75975000D03*
X230055000Y-71025000D03*
X231325000Y-71025000D03*
X232595000Y-71025000D03*
X233865000Y-71025000D03*
X235135000Y-71025000D03*
X236405000Y-71025000D03*
X237675000Y-71025000D03*
X238945000Y-71025000D03*
%TD*%
D16*
%TO.C,CRGBR34*%
X290466000Y-62675000D03*
X291426000Y-62675000D03*
%TD*%
D84*
%TO.C,CR20A*%
X192074016Y-45325772D03*
X193033784Y-45304628D03*
%TD*%
D48*
%TO.C,RBPR5*%
X274990000Y-5500000D03*
X276010000Y-5500000D03*
%TD*%
D63*
%TO.C,CR1A*%
X223992655Y-3246180D03*
X224951545Y-3200020D03*
%TD*%
D24*
%TO.C,DR10*%
X240163000Y-20225000D03*
X240163000Y-21725000D03*
X245613000Y-21725000D03*
X245613000Y-20225000D03*
%TD*%
%TO.C,DR5*%
X285883000Y-1907000D03*
X285883000Y-3407000D03*
X291333000Y-3407000D03*
X291333000Y-1907000D03*
%TD*%
D21*
%TO.C,CR35B*%
X224016835Y-93675408D03*
X224975961Y-93634470D03*
%TD*%
D16*
%TO.C,CRGBR23*%
X257585000Y-59075000D03*
X258545000Y-59075000D03*
%TD*%
%LPD*%
M02*
