M48
; DRILL file KiCad 10.0.5 date 2026-09-21T10:22:05
; FORMAT={-:-/ absolute / metric / decimal}
; #@! TF.CreationDate,2026-09-21T10:22:05-04:00
; #@! TF.GenerationSoftware,Kicad,Pcbnew,10.0.5
; #@! TF.FileFunction,Plated,1,2,PTH
FMAT,2
METRIC
; #@! TA.AperFunction,Plated,PTH,ViaDrill
T1C0.300
%
G90
G05
T1
X2.547Y-53.304
X3.429Y-75.814
X3.797Y-1.75
X4.047Y-54.054
X4.797Y-68.554
X6.547Y-54.054
X6.73Y-3.45
X7.797Y-1.804
X7.823Y-53.467
X8.873Y-46.727
X9.047Y-49.054
X9.047Y-80.304
X9.104Y-58.749
X9.147Y-41.404
X9.738Y-81.309
X9.747Y-43.204
X10.297Y-50.054
X10.547Y-23.054
X11.224Y-46.413
X11.547Y-34.804
X11.547Y-69.804
X11.74Y-10.519
X11.797Y-77.304
X12.047Y-61.054
X12.297Y-42.054
X12.797Y-6.804
X13.047Y-54.554
X13.943Y-22.691
X14.547Y-84.804
X15.297Y-58.304
X15.372Y-41.727
X16.567Y-46.862
X17.047Y-46.554
X18.047Y-76.304
X18.047Y-79.804
X18.827Y-79.641
X19.047Y-2.804
X19.443Y-19.198
X20.062Y-81.566
X20.111Y-36.05
X20.509Y-1.75
X20.719Y-22.775
X20.797Y-15.554
X20.822Y-38.315
X20.822Y-50.075
X21.797Y-80.054
X21.805Y-38.552
X21.826Y-4.327
X22.009Y-5.5
X22.788Y-38.674
X22.797Y-91.804
X23.21Y-89.378
X23.297Y-59.054
X23.547Y-36.804
X24.177Y-50.64
X24.217Y-71.22
X24.386Y-84.118
X24.662Y-81.068
X25.271Y-79.867
X25.297Y-75.054
X26.259Y-3.375
X26.5Y-45.75
X26.797Y-1.804
X27.047Y-56.054
X27.638Y-77.61
X27.97Y-84.085
X28.485Y-41.575
X29.284Y-4.327
X29.297Y-51.804
X29.743Y-41.569
X29.75Y-42.5
X30.547Y-49.054
X31.0Y-41.75
X31.025Y-46.95
X31.634Y-48.432
X32.283Y-36.036
X32.479Y-30.783
X32.728Y-79.414
X32.888Y-40.362
X32.96Y-48.004
X33.553Y-40.998
X34.086Y-47.015
X34.223Y-82.454
X34.297Y-21.554
X34.323Y-51.966
X34.823Y-40.984
X34.845Y-31.78
X34.901Y-32.682
X35.027Y-19.568
X36.093Y-44.115
X36.852Y-47.934
X36.965Y-6.026
X37.277Y-19.568
X37.453Y-81.332
X37.495Y-59.144
X37.709Y-34.412
X37.755Y-22.683
X38.047Y-2.304
X38.297Y-78.804
X38.758Y-38.717
X38.822Y-41.352
X39.297Y-27.554
X39.437Y-1.75
X39.547Y-50.804
X40.047Y-15.554
X40.587Y-46.008
X40.797Y-80.054
X41.029Y-4.327
X41.687Y-6.25
X42.072Y-42.249
X42.679Y-18.518
X42.905Y-31.78
X43.047Y-46.554
X43.047Y-61.054
X43.297Y-58.804
X43.706Y-35.014
X44.847Y-89.404
X45.297Y-58.304
X45.547Y-20.304
X45.547Y-87.804
X46.101Y-48.592
X47.547Y-36.804
X48.047Y-2.054
X48.334Y-4.327
X48.452Y-20.467
X49.547Y-39.304
X49.973Y-38.717
X50.447Y-80.504
X50.589Y-78.492
X50.797Y-6.804
X50.847Y-79.354
X51.297Y-55.804
X51.297Y-94.054
X51.873Y-77.096
X51.972Y-79.928
X52.656Y-57.507
X53.464Y-79.587
X54.195Y-4.428
X54.297Y-60.554
X54.694Y-19.341
X55.258Y-7.097
X55.501Y-74.406
X55.538Y-20.106
X55.547Y-82.554
X56.297Y-74.804
X57.047Y-4.054
X57.712Y-2.114
X58.297Y-25.804
X58.46Y-32.684
X58.797Y-15.554
X58.797Y-39.804
X58.81Y-23.832
X59.288Y-38.717
X61.797Y-69.054
X62.546Y-49.548
X62.648Y-71.222
X63.788Y-22.356
X63.821Y-43.439
X64.285Y-3.331
X64.675Y-59.387
X64.768Y-74.485
X64.797Y-20.304
X65.259Y-69.088
X65.547Y-58.554
X66.013Y-72.506
X66.043Y-2.114
X66.547Y-36.804
X66.673Y-50.197
X66.797Y-64.304
X67.206Y-69.23
X67.609Y-2.306
X67.713Y-38.698
X68.208Y-72.85
X68.288Y-37.086
X68.366Y-69.53
X68.366Y-52.373
X68.553Y-74.135
X69.297Y-80.304
X69.75Y-70.25
X69.792Y-13.691
X69.797Y-7.054
X69.797Y-70.804
X70.0Y-79.5
X70.047Y-40.554
X70.615Y-73.237
X70.935Y-26.357
X71.25Y-71.0
X71.273Y-37.086
X71.297Y-56.304
X71.297Y-68.804
X72.047Y-72.635
X72.25Y-58.0
X72.302Y-58.953
X72.679Y-83.488
X73.2Y-75.975
X73.297Y-23.054
X73.447Y-87.154
X73.5Y-59.25
X73.5Y-78.0
X73.513Y-83.488
X73.547Y-61.304
X73.997Y-84.054
X74.273Y-25.489
X74.323Y-82.455
X74.5Y-80.0
X74.64Y-70.337
X74.783Y-83.474
X75.407Y-2.373
X75.75Y-77.25
X76.053Y-81.546
X76.633Y-2.125
X76.804Y-23.171
X77.297Y-78.554
X77.297Y-90.054
X77.323Y-83.488
X77.797Y-16.304
X77.797Y-28.304
X77.922Y-1.929
X78.03Y-79.587
X78.25Y-73.25
X78.297Y-42.804
X78.457Y-83.276
X78.547Y-94.804
X78.78Y-37.086
X78.797Y-78.304
X79.055Y-34.412
X80.146Y-26.03
X80.742Y-81.774
X81.047Y-81.054
X81.764Y-42.752
X81.797Y-60.304
X82.381Y-20.364
X83.297Y-78.804
X84.297Y-86.304
X84.356Y-62.287
X84.547Y-5.804
X84.797Y-22.304
X85.047Y-35.304
X85.047Y-88.504
X86.297Y-65.804
X86.601Y-12.72
X86.808Y-70.072
X87.121Y-5.176
X87.297Y-3.554
X87.341Y-39.941
X88.5Y-73.25
X89.159Y-13.494
X89.28Y-22.727
X89.547Y-79.304
X90.047Y-11.304
X90.047Y-41.304
X90.047Y-58.054
X90.561Y-41.509
X92.0Y-76.75
X92.014Y-60.543
X93.047Y-82.804
X93.297Y-60.804
X93.826Y-6.957
X94.873Y-19.9
X95.797Y-22.804
X96.297Y-5.304
X96.433Y-4.689
X96.797Y-30.304
X97.576Y-37.086
X97.576Y-41.509
X98.121Y-66.742
X99.11Y-70.91
X99.327Y-37.671
X99.41Y-90.511
X100.047Y-9.304
X100.477Y-21.492
X100.647Y-44.865
X100.95Y-67.507
X100.995Y-61.417
X101.047Y-7.054
X101.297Y-48.304
X102.11Y-67.91
X103.225Y-63.076
X103.547Y-25.554
X103.588Y-39.633
X104.047Y-5.304
X104.047Y-37.554
X104.297Y-62.554
X104.797Y-68.304
X105.196Y-80.151
X105.297Y-7.054
X106.297Y-73.054
X106.647Y-83.404
X108.297Y-11.054
X108.297Y-60.304
X108.547Y-43.554
X109.472Y-25.649
X109.703Y-62.336
X109.772Y-77.895
X109.938Y-27.015
X110.797Y-9.554
X112.047Y-63.554
X112.523Y-27.617
X113.683Y-67.91
X115.047Y-9.304
X115.047Y-23.054
X115.547Y-31.304
X115.797Y-100.304
X116.047Y-45.554
X116.047Y-83.304
X116.797Y-82.554
X117.187Y-74.204
X117.797Y-44.554
X117.797Y-85.054
X118.626Y-61.654
X119.236Y-62.336
X119.297Y-84.304
X119.547Y-45.304
X119.676Y-65.66
X120.297Y-51.304
X120.397Y-41.064
X120.797Y-10.054
X120.797Y-90.054
X121.176Y-67.798
X121.176Y-71.954
X122.018Y-17.916
X122.058Y-92.85
X122.111Y-88.253
X122.297Y-41.304
X122.383Y-26.657
X122.428Y-74.194
X123.047Y-65.804
X123.664Y-43.896
X123.797Y-71.554
X124.047Y-10.054
X125.297Y-8.804
X125.967Y-63.859
X126.811Y-74.194
X127.047Y-14.054
X127.047Y-63.304
X127.297Y-46.554
X128.139Y-80.626
X128.449Y-65.638
X129.351Y-25.682
X130.234Y-33.072
X130.247Y-65.1
X130.54Y-58.898
X130.547Y-30.554
X130.547Y-69.054
X130.547Y-83.304
X131.519Y-67.182
X132.489Y-51.354
X132.575Y-64.498
X132.615Y-29.154
X132.758Y-32.034
X133.003Y-50.464
X133.003Y-9.871
X133.797Y-24.054
X133.797Y-28.804
X133.993Y-55.445
X134.047Y-12.304
X134.4Y-10.338
X134.547Y-34.304
X136.322Y-63.55
X136.672Y-57.039
X137.486Y-61.024
X137.491Y-54.068
X137.495Y-62.5
X137.547Y-56.554
X138.451Y-43.304
X139.047Y-30.304
X141.297Y-32.304
X141.297Y-46.304
M30
