%TF.GenerationSoftware,KiCad,Pcbnew,10.0.5*%
%TF.CreationDate,2026-09-21T10:22:05-04:00*%
%TF.ProjectId,Symm60HE-wkl-Left,53796d6d-3630-4484-952d-776b6c2d4c65,rev?*%
%TF.SameCoordinates,Original*%
%TF.FileFunction,Legend,Top*%
%TF.FilePolarity,Positive*%
%FSLAX46Y46*%
G04 Gerber Fmt 4.6, Leading zero omitted, Abs format (unit mm)*
G04 Created by KiCad (PCBNEW 10.0.5) date 2026-09-21 10:22:05*
%MOMM*%
%LPD*%
G01*
G04 APERTURE LIST*
%ADD10C,0.158750*%
%ADD11C,0.150000*%
%ADD12C,0.300000*%
%ADD13C,0.200000*%
%ADD14C,3.048000*%
%ADD15C,3.987800*%
%ADD16C,2.200000*%
G04 APERTURE END LIST*
D10*
X120080333Y-93443795D02*
X120261762Y-93504271D01*
X120261762Y-93504271D02*
X120564143Y-93504271D01*
X120564143Y-93504271D02*
X120685095Y-93443795D01*
X120685095Y-93443795D02*
X120745571Y-93383318D01*
X120745571Y-93383318D02*
X120806048Y-93262366D01*
X120806048Y-93262366D02*
X120806048Y-93141414D01*
X120806048Y-93141414D02*
X120745571Y-93020461D01*
X120745571Y-93020461D02*
X120685095Y-92959985D01*
X120685095Y-92959985D02*
X120564143Y-92899509D01*
X120564143Y-92899509D02*
X120322238Y-92839033D01*
X120322238Y-92839033D02*
X120201286Y-92778556D01*
X120201286Y-92778556D02*
X120140809Y-92718080D01*
X120140809Y-92718080D02*
X120080333Y-92597128D01*
X120080333Y-92597128D02*
X120080333Y-92476175D01*
X120080333Y-92476175D02*
X120140809Y-92355223D01*
X120140809Y-92355223D02*
X120201286Y-92294747D01*
X120201286Y-92294747D02*
X120322238Y-92234271D01*
X120322238Y-92234271D02*
X120624619Y-92234271D01*
X120624619Y-92234271D02*
X120806048Y-92294747D01*
X121955095Y-93504271D02*
X121350333Y-93504271D01*
X121350333Y-93504271D02*
X121350333Y-92234271D01*
X122317952Y-92355223D02*
X122378428Y-92294747D01*
X122378428Y-92294747D02*
X122499381Y-92234271D01*
X122499381Y-92234271D02*
X122801762Y-92234271D01*
X122801762Y-92234271D02*
X122922714Y-92294747D01*
X122922714Y-92294747D02*
X122983190Y-92355223D01*
X122983190Y-92355223D02*
X123043667Y-92476175D01*
X123043667Y-92476175D02*
X123043667Y-92597128D01*
X123043667Y-92597128D02*
X122983190Y-92778556D01*
X122983190Y-92778556D02*
X122257476Y-93504271D01*
X122257476Y-93504271D02*
X123043667Y-93504271D01*
X16615333Y-67193795D02*
X16796762Y-67254271D01*
X16796762Y-67254271D02*
X17099143Y-67254271D01*
X17099143Y-67254271D02*
X17220095Y-67193795D01*
X17220095Y-67193795D02*
X17280571Y-67133318D01*
X17280571Y-67133318D02*
X17341048Y-67012366D01*
X17341048Y-67012366D02*
X17341048Y-66891414D01*
X17341048Y-66891414D02*
X17280571Y-66770461D01*
X17280571Y-66770461D02*
X17220095Y-66709985D01*
X17220095Y-66709985D02*
X17099143Y-66649509D01*
X17099143Y-66649509D02*
X16857238Y-66589033D01*
X16857238Y-66589033D02*
X16736286Y-66528556D01*
X16736286Y-66528556D02*
X16675809Y-66468080D01*
X16675809Y-66468080D02*
X16615333Y-66347128D01*
X16615333Y-66347128D02*
X16615333Y-66226175D01*
X16615333Y-66226175D02*
X16675809Y-66105223D01*
X16675809Y-66105223D02*
X16736286Y-66044747D01*
X16736286Y-66044747D02*
X16857238Y-65984271D01*
X16857238Y-65984271D02*
X17159619Y-65984271D01*
X17159619Y-65984271D02*
X17341048Y-66044747D01*
X18490095Y-67254271D02*
X17885333Y-67254271D01*
X17885333Y-67254271D02*
X17885333Y-65984271D01*
X19578667Y-67254271D02*
X18852952Y-67254271D01*
X19215809Y-67254271D02*
X19215809Y-65984271D01*
X19215809Y-65984271D02*
X19094857Y-66165699D01*
X19094857Y-66165699D02*
X18973905Y-66286652D01*
X18973905Y-66286652D02*
X18852952Y-66347128D01*
D11*
X98261905Y-89304819D02*
X98261905Y-88304819D01*
X98261905Y-88304819D02*
X98595238Y-89019104D01*
X98595238Y-89019104D02*
X98928571Y-88304819D01*
X98928571Y-88304819D02*
X98928571Y-89304819D01*
X99404762Y-89304819D02*
X99404762Y-88304819D01*
X99404762Y-88781009D02*
X99976190Y-88781009D01*
X99976190Y-89304819D02*
X99976190Y-88304819D01*
X100928571Y-89304819D02*
X100452381Y-89304819D01*
X100452381Y-89304819D02*
X100452381Y-88304819D01*
X101690476Y-88638152D02*
X101690476Y-89304819D01*
X101452381Y-88257200D02*
X101214286Y-88971485D01*
X101214286Y-88971485D02*
X101833333Y-88971485D01*
X135261905Y-47304819D02*
X135261905Y-46304819D01*
X135261905Y-46304819D02*
X135595238Y-47019104D01*
X135595238Y-47019104D02*
X135928571Y-46304819D01*
X135928571Y-46304819D02*
X135928571Y-47304819D01*
X136404762Y-47304819D02*
X136404762Y-46304819D01*
X136404762Y-46781009D02*
X136976190Y-46781009D01*
X136976190Y-47304819D02*
X136976190Y-46304819D01*
X137928571Y-47304819D02*
X137452381Y-47304819D01*
X137452381Y-47304819D02*
X137452381Y-46304819D01*
X138166667Y-46304819D02*
X138785714Y-46304819D01*
X138785714Y-46304819D02*
X138452381Y-46685771D01*
X138452381Y-46685771D02*
X138595238Y-46685771D01*
X138595238Y-46685771D02*
X138690476Y-46733390D01*
X138690476Y-46733390D02*
X138738095Y-46781009D01*
X138738095Y-46781009D02*
X138785714Y-46876247D01*
X138785714Y-46876247D02*
X138785714Y-47114342D01*
X138785714Y-47114342D02*
X138738095Y-47209580D01*
X138738095Y-47209580D02*
X138690476Y-47257200D01*
X138690476Y-47257200D02*
X138595238Y-47304819D01*
X138595238Y-47304819D02*
X138309524Y-47304819D01*
X138309524Y-47304819D02*
X138214286Y-47257200D01*
X138214286Y-47257200D02*
X138166667Y-47209580D01*
X26261905Y-19304819D02*
X26261905Y-18304819D01*
X26261905Y-18304819D02*
X26595238Y-19019104D01*
X26595238Y-19019104D02*
X26928571Y-18304819D01*
X26928571Y-18304819D02*
X26928571Y-19304819D01*
X27404762Y-19304819D02*
X27404762Y-18304819D01*
X27404762Y-18781009D02*
X27976190Y-18781009D01*
X27976190Y-19304819D02*
X27976190Y-18304819D01*
X28928571Y-19304819D02*
X28452381Y-19304819D01*
X28452381Y-19304819D02*
X28452381Y-18304819D01*
X29785714Y-19304819D02*
X29214286Y-19304819D01*
X29500000Y-19304819D02*
X29500000Y-18304819D01*
X29500000Y-18304819D02*
X29404762Y-18447676D01*
X29404762Y-18447676D02*
X29309524Y-18542914D01*
X29309524Y-18542914D02*
X29214286Y-18590533D01*
X36261905Y-63304819D02*
X36261905Y-62304819D01*
X36261905Y-62304819D02*
X36595238Y-63019104D01*
X36595238Y-63019104D02*
X36928571Y-62304819D01*
X36928571Y-62304819D02*
X36928571Y-63304819D01*
X37404762Y-63304819D02*
X37404762Y-62304819D01*
X37404762Y-62781009D02*
X37976190Y-62781009D01*
X37976190Y-63304819D02*
X37976190Y-62304819D01*
X38928571Y-63304819D02*
X38452381Y-63304819D01*
X38452381Y-63304819D02*
X38452381Y-62304819D01*
X39214286Y-62400057D02*
X39261905Y-62352438D01*
X39261905Y-62352438D02*
X39357143Y-62304819D01*
X39357143Y-62304819D02*
X39595238Y-62304819D01*
X39595238Y-62304819D02*
X39690476Y-62352438D01*
X39690476Y-62352438D02*
X39738095Y-62400057D01*
X39738095Y-62400057D02*
X39785714Y-62495295D01*
X39785714Y-62495295D02*
X39785714Y-62590533D01*
X39785714Y-62590533D02*
X39738095Y-62733390D01*
X39738095Y-62733390D02*
X39166667Y-63304819D01*
X39166667Y-63304819D02*
X39785714Y-63304819D01*
%TO.C,MHL4*%
D12*
X102400000Y-92000000D02*
G75*
G02*
X97600000Y-92000000I-2400000J0D01*
G01*
X97600000Y-92000000D02*
G75*
G02*
X102400000Y-92000000I2400000J0D01*
G01*
%TO.C,MHL3*%
X139400000Y-50000000D02*
G75*
G02*
X134600000Y-50000000I-2400000J0D01*
G01*
X134600000Y-50000000D02*
G75*
G02*
X139400000Y-50000000I2400000J0D01*
G01*
%TO.C,MHL1*%
X30400000Y-22000000D02*
G75*
G02*
X25600000Y-22000000I-2400000J0D01*
G01*
X25600000Y-22000000D02*
G75*
G02*
X30400000Y-22000000I2400000J0D01*
G01*
%TO.C,MHL2*%
X40400000Y-66000000D02*
G75*
G02*
X35600000Y-66000000I-2400000J0D01*
G01*
X35600000Y-66000000D02*
G75*
G02*
X40400000Y-66000000I2400000J0D01*
G01*
%TO.C,JL1*%
D13*
X137209000Y-58000000D02*
X137859000Y-57300000D01*
X137209000Y-58000000D02*
X137859000Y-58700000D01*
X138059000Y-51300000D02*
X138059000Y-64700000D01*
%TD*%
%LPC*%
D14*
%TO.C,SL2*%
X132228970Y-101686551D03*
D15*
X134613031Y-86634181D03*
D14*
X108709641Y-97961455D03*
D15*
X111093702Y-82909085D03*
%TD*%
D14*
%TO.C,SL1*%
X30003250Y-73660000D03*
D15*
X30003250Y-58420000D03*
D14*
X6190750Y-73660000D03*
D15*
X6190750Y-58420000D03*
%TD*%
D16*
%TO.C,MHL4*%
X100000000Y-92000000D03*
%TD*%
%TO.C,MHL3*%
X137000000Y-50000000D03*
%TD*%
%TO.C,MHL1*%
X28000000Y-22000000D03*
%TD*%
%TO.C,MHL2*%
X38000000Y-66000000D03*
%TD*%
%LPD*%
M02*
