M48
; DRILL file KiCad 10.0.5 date 2026-09-13T13:36:46
; FORMAT={-:-/ absolute / metric / decimal}
; #@! TF.CreationDate,2026-09-13T13:36:46-04:00
; #@! TF.GenerationSoftware,Kicad,Pcbnew,10.0.5
; #@! TF.FileFunction,Plated,1,2,PTH
FMAT,2
METRIC
; #@! TA.AperFunction,Plated,PTH,ViaDrill
T1C0.300
; #@! TA.AperFunction,Plated,PTH,ComponentDrill
T2C2.200
%
G90
G05
T1
X4.009Y-160.782
X4.009Y-162.052
X4.009Y-164.592
X4.009Y-167.132
X4.009Y-168.402
X4.009Y-169.672
X4.009Y-172.212
X4.009Y-174.752
X7.747Y-165.793
X9.0Y-162.267
X9.0Y-163.267
X9.0Y-165.267
X9.0Y-167.267
X9.0Y-169.267
X9.0Y-170.267
X9.0Y-171.267
X9.0Y-173.267
X10.264Y-167.788
X10.904Y-169.655
X11.52Y-164.481
X12.065Y-5.463
X12.743Y-145.995
X12.879Y-83.548
X14.996Y-122.201
X15.107Y-163.875
X21.745Y-197.36
X24.726Y-162.971
X25.532Y-174.663
X26.45Y-69.391
X27.716Y-201.643
X28.243Y-86.021
X28.638Y-184.415
X28.825Y-175.287
X28.912Y-163.208
X30.372Y-76.406
X31.115Y-6.543
X31.305Y-83.023
X31.408Y-149.818
X32.328Y-144.144
X33.58Y-180.185
X33.67Y-172.987
X33.905Y-175.292
X34.37Y-173.555
X35.41Y-8.938
X35.7Y-119.505
X35.841Y-175.457
X36.135Y-18.866
X36.348Y-133.457
X37.708Y-174.99
X37.982Y-144.144
X39.019Y-151.98
X39.315Y-172.975
X39.555Y-66.021
X40.628Y-134.085
X40.712Y-162.705
X40.825Y-66.009
X41.989Y-176.031
X42.095Y-63.015
X42.417Y-93.81
X43.365Y-67.983
X43.557Y-62.809
X44.73Y-180.758
X45.176Y-131.419
X45.905Y-67.984
X46.034Y-136.955
X47.175Y-67.962
X48.958Y-172.366
X49.238Y-174.323
X49.253Y-68.655
X50.165Y-6.543
X50.682Y-178.184
X51.325Y-176.754
X51.365Y-171.451
X51.887Y-142.809
X53.52Y-38.111
X53.853Y-167.164
X54.215Y-141.993
X54.903Y-176.758
X55.547Y-172.109
X55.68Y-65.116
X56.072Y-117.179
X56.159Y-172.888
X56.323Y-88.533
X56.405Y-178.731
X56.565Y-64.791
X56.687Y-173.505
X57.327Y-94.013
X58.264Y-171.301
X58.271Y-178.131
X58.379Y-176.861
X59.178Y-12.331
X60.038Y-61.081
X60.25Y-168.934
X60.424Y-63.533
X60.86Y-74.404
X61.084Y-68.466
X61.595Y-63.429
X62.49Y-122.53
X62.839Y-68.005
X63.515Y-55.252
X64.206Y-44.983
X65.846Y-72.644
X66.662Y-160.978
X67.441Y-66.42
X67.945Y-68.432
X68.357Y-178.131
X68.37Y-181.962
X69.252Y-6.578
X71.015Y-50.591
X72.137Y-38.538
X73.115Y-67.213
X73.852Y-9.282
X74.555Y-119.861
X76.954Y-178.266
X77.633Y-172.262
X78.779Y-170.229
X79.267Y-169.016
X79.407Y-30.101
X81.68Y-72.637
X83.737Y-157.348
X85.175Y-48.821
X85.32Y-165.845
X85.384Y-165.043
X85.961Y-31.512
X88.555Y-175.78
X89.576Y-180.713
X89.659Y-175.784
X90.039Y-35.154
X90.697Y-7.386
X90.749Y-50.029
X90.869Y-176.222
X92.219Y-116.941
X92.365Y-180.713
X93.479Y-9.484
X93.635Y-172.789
X93.916Y-89.31
X94.27Y-172.155
X94.286Y-177.46
X95.556Y-172.964
X96.211Y-181.962
X96.891Y-157.348
X97.324Y-68.77
X97.581Y-26.907
X98.037Y-177.899
X98.148Y-189.937
X98.185Y-67.842
X98.682Y-94.1
X98.723Y-174.871
X98.816Y-75.288
X99.728Y-169.406
X100.095Y-67.007
X100.382Y-75.288
X100.811Y-166.193
X100.989Y-71.944
X101.237Y-122.093
X101.365Y-63.393
X102.635Y-64.008
X103.63Y-72.637
X104.38Y-68.682
X105.175Y-64.008
X106.193Y-32.123
X106.388Y-66.997
X106.433Y-71.975
X107.653Y-184.719
X109.28Y-62.861
X110.454Y-6.693
X111.269Y-116.3
X112.9Y-142.568
X113.471Y-189.937
X113.894Y-175.934
X115.705Y-70.819
X115.835Y-165.99
X116.229Y-146.623
X116.418Y-11.574
X117.212Y-119.159
X117.981Y-166.602
X118.85Y-13.956
X120.268Y-62.663
X121.208Y-77.602
X122.095Y-163.772
X122.667Y-175.938
X122.778Y-114.749
X123.156Y-179.255
X123.62Y-176.967
X123.988Y-164.373
X124.566Y-70.557
X124.635Y-163.769
X124.914Y-165.376
X125.061Y-69.192
X125.716Y-165.655
X125.931Y-121.148
X126.034Y-153.328
X126.735Y-170.428
X127.175Y-168.701
X127.405Y-69.014
X127.545Y-170.54
X127.847Y-60.908
X127.848Y-61.775
X127.855Y-59.713
X127.912Y-71.054
X128.675Y-69.64
X129.785Y-52.072
X129.945Y-73.965
X130.083Y-41.313
X130.533Y-131.653
X130.788Y-172.176
X131.112Y-117.016
X131.143Y-179.221
X131.414Y-168.77
X131.607Y-64.903
X132.84Y-69.014
X134.136Y-69.459
X134.249Y-160.559
X135.009Y-10.188
X135.068Y-119.148
X135.371Y-29.908
X138.566Y-100.553
X139.354Y-122.11
X139.85Y-146.928
X140.951Y-182.773
X142.197Y-198.767
X144.599Y-202.615
X146.861Y-36.384
X151.423Y-64.297
X151.715Y-62.193
X154.915Y-52.295
X154.915Y-54.835
X154.915Y-59.915
X154.915Y-61.185
X154.915Y-62.456
T2
X8.0Y-207.245
X11.0Y-94.487
X12.5Y-11.987
X45.0Y-141.767
X113.924Y-32.011
X146.0Y-133.745
X147.0Y-199.745
X148.5Y-97.987
M30
