M48
; DRILL file KiCad 10.0.5 date 2026-09-12T17:12:42
; FORMAT={-:-/ absolute / metric / decimal}
; #@! TF.CreationDate,2026-09-12T17:12:42-04:00
; #@! TF.GenerationSoftware,Kicad,Pcbnew,10.0.5
; #@! TF.FileFunction,NonPlated,1,2,NPTH
FMAT,2
METRIC
; #@! TA.AperFunction,NonPlated,NPTH,ComponentDrill
T1C0.500
; #@! TA.AperFunction,NonPlated,NPTH,ComponentDrill
T2C1.750
; #@! TA.AperFunction,NonPlated,NPTH,ComponentDrill
T3C2.000
; #@! TA.AperFunction,NonPlated,NPTH,ComponentDrill
T4C3.048
; #@! TA.AperFunction,NonPlated,NPTH,ComponentDrill
T5C3.988
%
G90
G05
T1
X0.0Y-35.137
X0.0Y-35.887
X0.0Y-36.637
X0.0Y-37.387
X0.0Y-38.137
X0.0Y-71.774
X0.0Y-72.524
X0.0Y-73.274
X0.0Y-74.024
X0.0Y-74.774
X0.0Y-144.894
X0.0Y-145.644
X0.0Y-146.394
X0.0Y-147.144
X0.0Y-147.894
X0.0Y-181.531
X0.0Y-182.281
X0.0Y-183.031
X0.0Y-183.781
X0.0Y-184.531
X33.463Y0.0
X33.463Y-217.513
X34.213Y0.0
X34.213Y-217.513
X34.963Y0.0
X34.963Y-217.513
X35.713Y0.0
X35.713Y-217.513
X36.463Y0.0
X36.463Y-217.513
X77.962Y0.0
X77.962Y-217.513
X78.712Y0.0
X78.712Y-217.513
X79.462Y0.0
X79.462Y-217.513
X80.212Y0.0
X80.212Y-217.513
X80.962Y0.0
X80.962Y-217.513
X122.461Y0.0
X122.461Y-217.513
X123.211Y0.0
X123.211Y-217.513
X123.961Y0.0
X123.961Y-217.513
X124.711Y0.0
X124.711Y-217.513
X125.461Y0.0
X125.461Y-217.513
X158.924Y-35.137
X158.924Y-35.887
X158.924Y-36.637
X158.924Y-37.387
X158.924Y-38.137
X158.924Y-71.774
X158.924Y-72.524
X158.924Y-73.274
X158.924Y-74.024
X158.924Y-74.774
X158.924Y-144.894
X158.924Y-145.644
X158.924Y-146.394
X158.924Y-147.144
X158.924Y-147.894
X158.924Y-181.531
X158.924Y-182.281
X158.924Y-183.031
X158.924Y-183.781
X158.924Y-184.531
T2
X10.24Y-150.115
X11.39Y-140.021
X16.287Y-82.655
X16.287Y-92.816
X18.144Y-130.164
X18.669Y-44.555
X18.669Y-54.715
X19.145Y-6.455
X19.145Y-16.616
X19.294Y-120.07
X21.05Y-82.655
X21.05Y-92.816
X21.242Y-186.968
X22.003Y-25.505
X22.003Y-35.666
X22.386Y-176.872
X23.431Y-44.555
X23.431Y-54.715
X23.431Y-63.605
X23.431Y-73.766
X25.258Y-205.778
X26.312Y-195.673
X26.456Y-167.363
X27.566Y-157.263
X30.669Y-147.892
X31.725Y-137.787
X35.337Y-82.655
X35.337Y-92.816
X38.195Y-6.455
X38.195Y-16.616
X39.195Y-128.06
X40.083Y-117.939
X42.408Y-184.949
X43.22Y-174.821
X45.815Y-25.505
X45.815Y-35.666
X47.755Y-165.519
X48.441Y-155.382
X49.625Y-44.555
X49.625Y-54.715
X49.625Y-82.655
X49.625Y-92.816
X51.999Y-146.212
X52.585Y-136.069
X54.388Y-63.605
X54.388Y-73.766
X54.388Y-82.655
X54.388Y-92.816
X57.245Y-6.455
X57.245Y-16.616
X60.374Y-126.777
X60.762Y-116.625
X63.475Y-183.825
X63.606Y-203.008
X63.789Y-173.67
X63.922Y-192.853
X64.865Y-25.505
X64.865Y-35.666
X68.536Y-164.652
X68.675Y-44.555
X68.675Y-54.715
X68.732Y-154.494
X72.457Y-145.532
X72.575Y-135.372
X73.442Y-63.611
X73.447Y-73.77
X76.306Y-6.476
X76.328Y-16.635
X80.216Y-126.392
X80.238Y-116.232
X83.097Y-183.527
X83.103Y-173.367
X83.97Y-25.616
X84.088Y-35.775
X87.813Y-44.737
X87.869Y-154.312
X87.869Y-164.472
X88.008Y-54.896
X91.679Y-135.262
X91.679Y-145.422
X92.622Y-83.097
X92.755Y-63.913
X92.937Y-93.252
X93.069Y-74.068
X95.784Y-6.867
X96.171Y-17.02
X99.299Y-116.212
X99.299Y-126.372
X102.156Y-173.362
X102.156Y-183.522
X102.156Y-192.412
X102.156Y-202.572
X103.96Y-26.312
X104.545Y-36.455
X106.918Y-154.312
X106.918Y-164.472
X106.918Y-192.412
X106.918Y-202.572
X108.104Y-45.624
X108.789Y-55.761
X110.729Y-135.262
X110.729Y-145.422
X113.323Y-65.065
X114.135Y-75.192
X116.46Y-8.183
X117.348Y-18.304
X118.349Y-116.212
X118.349Y-126.372
X121.206Y-173.362
X121.206Y-183.522
X121.206Y-192.412
X121.206Y-202.572
X124.818Y-28.029
X125.875Y-38.134
X127.874Y-116.212
X127.874Y-126.372
X128.979Y-47.506
X130.088Y-57.605
X130.231Y-85.914
X131.285Y-96.019
X133.112Y-154.312
X133.112Y-164.472
X133.112Y-173.362
X133.112Y-183.522
X134.159Y-67.116
X134.541Y-135.262
X134.541Y-145.422
X135.304Y-77.211
X135.494Y-192.412
X135.494Y-202.572
X137.249Y-10.313
X137.399Y-116.212
X137.399Y-126.372
X138.399Y-20.408
X140.256Y-192.412
X140.256Y-202.572
X142.637Y-173.362
X142.637Y-183.522
X145.155Y-30.264
X146.305Y-40.359
T3
X-5.7Y-61.974
X-5.7Y-155.539
X164.624Y-61.974
X164.624Y-155.539
T4
X11.525Y-61.7
X14.668Y-192.543
X35.338Y-61.7
X38.352Y-195.013
X115.968Y-114.307
X118.192Y-85.254
X121.206Y-171.457
X139.78Y-114.307
X141.876Y-82.784
X145.018Y-171.457
T5
X11.525Y-76.941
X13.087Y-207.7
X35.338Y-76.941
X36.771Y-210.171
X115.968Y-129.547
X119.773Y-100.412
X121.206Y-186.697
X139.78Y-129.547
X143.457Y-97.942
X145.018Y-186.697
M30
