%TF.GenerationSoftware,KiCad,Pcbnew,10.0.5*%
%TF.CreationDate,2026-09-13T13:36:46-04:00*%
%TF.ProjectId,Symm60HE-Neo-Hall-Family-Panel,53796d6d-3630-4484-952d-4e656f2d4861,rev?*%
%TF.SameCoordinates,Original*%
%TF.FileFunction,Soldermask,Bot*%
%TF.FilePolarity,Negative*%
%FSLAX46Y46*%
G04 Gerber Fmt 4.6, Leading zero omitted, Abs format (unit mm)*
G04 Created by KiCad (PCBNEW 10.0.5) date 2026-09-13 13:36:46*
%MOMM*%
%LPD*%
G01*
G04 APERTURE LIST*
G04 Aperture macros list*
%AMRoundRect*
0 Rectangle with rounded corners*
0 $1 Rounding radius*
0 $2 $3 $4 $5 $6 $7 $8 $9 X,Y pos of 4 corners*
0 Add a 4 corners polygon primitive as box body*
4,1,4,$2,$3,$4,$5,$6,$7,$8,$9,$2,$3,0*
0 Add four circle primitives for the rounded corners*
1,1,$1+$1,$2,$3*
1,1,$1+$1,$4,$5*
1,1,$1+$1,$6,$7*
1,1,$1+$1,$8,$9*
0 Add four rect primitives between the rounded corners*
20,1,$1+$1,$2,$3,$4,$5,0*
20,1,$1+$1,$4,$5,$6,$7,0*
20,1,$1+$1,$6,$7,$8,$9,0*
20,1,$1+$1,$8,$9,$2,$3,0*%
G04 Aperture macros list end*
%ADD10C,4.400000*%
%ADD11C,3.048000*%
%ADD12C,3.987800*%
%ADD13RoundRect,0.140000X-0.134658X-0.174262X0.145207X-0.165574X0.134658X0.174262X-0.145207X0.165574X0*%
%ADD14RoundRect,0.140000X-0.125969X-0.180643X0.153136X-0.158270X0.125969X0.180643X-0.153136X0.158270X0*%
%ADD15RoundRect,0.150000X-0.150000X0.512500X-0.150000X-0.512500X0.150000X-0.512500X0.150000X0.512500X0*%
%ADD16RoundRect,0.140000X-0.140000X-0.170000X0.140000X-0.170000X0.140000X0.170000X-0.140000X0.170000X0*%
%ADD17C,0.960000*%
%ADD18RoundRect,0.140000X-0.120603X-0.184269X0.157724X-0.153699X0.120603X0.184269X-0.157724X0.153699X0*%
%ADD19RoundRect,0.140000X-0.133417X-0.175214X0.146380X-0.164539X0.133417X0.175214X-0.146380X0.164539X0*%
%ADD20RoundRect,0.140000X-0.129976X-0.177782X0.149559X-0.161654X0.129976X0.177782X-0.149559X0.161654X0*%
%ADD21RoundRect,0.150000X0.150000X-0.825000X0.150000X0.825000X-0.150000X0.825000X-0.150000X-0.825000X0*%
%ADD22RoundRect,0.150000X-0.202499X0.494116X-0.095873X-0.525323X0.202499X-0.494116X0.095873X0.525323X0*%
%ADD23RoundRect,0.140000X-0.139911X-0.170073X0.140089X-0.169927X0.139911X0.170073X-0.140089X0.169927X0*%
%ADD24RoundRect,0.150000X-0.202361X0.494172X-0.096020X-0.525296X0.202361X-0.494172X0.096020X0.525296X0*%
%ADD25RoundRect,0.150000X-0.165776X0.507617X-0.134081X-0.516893X0.165776X-0.507617X0.134081X0.516893X0*%
%ADD26RoundRect,0.140000X-0.121556X-0.183641X0.156925X-0.154514X0.121556X0.183641X-0.156925X0.154514X0*%
%ADD27RoundRect,0.140000X-0.139638X-0.170298X0.140362X-0.169702X0.139638X0.170298X-0.140362X0.169702X0*%
%ADD28RoundRect,0.150000X-0.179270X0.503009X-0.120232X-0.520289X0.179270X-0.503009X0.120232X0.520289X0*%
%ADD29RoundRect,0.150000X-0.165829X0.507599X-0.134026X-0.516907X0.165829X-0.507599X0.134026X0.516907X0*%
%ADD30RoundRect,0.140000X-0.119856X-0.184756X0.158345X-0.153059X0.119856X0.184756X-0.158345X0.153059X0*%
%ADD31RoundRect,0.140000X-0.121607X-0.183607X0.156882X-0.154558X0.121607X0.183607X-0.156882X0.154558X0*%
%ADD32RoundRect,0.150000X-0.159829X0.509520X-0.140116X-0.515290X0.159829X-0.509520X0.140116X0.515290X0*%
%ADD33RoundRect,0.150000X-0.184239X0.501211X-0.115077X-0.521453X0.184239X-0.501211X0.115077X0.521453X0*%
%ADD34RoundRect,0.140000X-0.138018X-0.171613X0.141964X-0.168364X0.138018X0.171613X-0.141964X0.168364X0*%
%ADD35RoundRect,0.150000X-0.205058X0.493059X-0.093149X-0.525813X0.205058X-0.493059X0.093149X0.525813X0*%
%ADD36RoundRect,0.140000X-0.136705X-0.172661X0.143244X-0.167276X0.136705X0.172661X-0.143244X0.167276X0*%
%ADD37RoundRect,0.150000X-0.150268X0.512421X-0.149732X-0.512578X0.150268X-0.512421X0.149732X0.512578X0*%
%ADD38RoundRect,0.150000X-0.155938X0.510725X-0.144042X-0.514206X0.155938X-0.510725X0.144042X0.514206X0*%
%ADD39RoundRect,0.140000X-0.124613X-0.181581X0.154317X-0.157119X0.124613X0.181581X-0.154317X0.157119X0*%
%ADD40RoundRect,0.150000X-0.194201X0.497436X-0.104652X-0.523645X0.194201X-0.497436X0.104652X0.523645X0*%
%ADD41RoundRect,0.140000X-0.128210X-0.179059X0.151152X-0.160166X0.128210X0.179059X-0.151152X0.160166X0*%
%ADD42RoundRect,0.140000X-0.119955X-0.184691X0.158262X-0.153144X0.119955X0.184691X-0.158262X0.153144X0*%
%ADD43RoundRect,0.140000X-0.134676X-0.174248X0.145190X-0.165590X0.134676X0.174248X-0.145190X0.165590X0*%
%ADD44RoundRect,0.150000X-0.207052X0.492225X-0.091019X-0.526186X0.207052X-0.492225X0.091019X0.526186X0*%
%ADD45RoundRect,0.150000X-0.190471X0.498876X-0.108570X-0.522847X0.190471X-0.498876X0.108570X0.522847X0*%
%ADD46RoundRect,0.150000X-0.206786X0.492337X-0.091304X-0.526137X0.206786X-0.492337X0.091304X0.526137X0*%
%ADD47RoundRect,0.150000X-0.151091X0.512179X-0.148908X-0.512818X0.151091X-0.512179X0.148908X0.512818X0*%
%ADD48RoundRect,0.150000X-0.169431X0.506408X-0.130351X-0.517846X0.169431X-0.506408X0.130351X0.517846X0*%
%ADD49RoundRect,0.140000X-0.157724X-0.153699X0.120603X-0.184269X0.157724X0.153699X-0.120603X0.184269X0*%
%ADD50RoundRect,0.150000X-0.091019X0.526186X-0.207052X-0.492225X0.091019X-0.526186X0.207052X0.492225X0*%
%ADD51RoundRect,0.150000X-0.096020X0.525296X-0.202361X-0.494172X0.096020X-0.525296X0.202361X0.494172X0*%
%ADD52RoundRect,0.140000X-0.158345X-0.153059X0.119856X-0.184756X0.158345X0.153059X-0.119856X0.184756X0*%
%ADD53RoundRect,0.140000X-0.145190X-0.165590X0.134676X-0.174248X0.145190X0.165590X-0.134676X0.174248X0*%
%ADD54RoundRect,0.140000X-0.156882X-0.154558X0.121607X-0.183607X0.156882X0.154558X-0.121607X0.183607X0*%
%ADD55RoundRect,0.140000X-0.158262X-0.153144X0.119955X-0.184691X0.158262X0.153144X-0.119955X0.184691X0*%
%ADD56RoundRect,0.140000X-0.140362X-0.169702X0.139638X-0.170298X0.140362X0.169702X-0.139638X0.170298X0*%
%ADD57RoundRect,0.140000X-0.153136X-0.158270X0.125969X-0.180643X0.153136X0.158270X-0.125969X0.180643X0*%
%ADD58RoundRect,0.140000X-0.151152X-0.160166X0.128210X-0.179059X0.151152X0.160166X-0.128210X0.179059X0*%
%ADD59RoundRect,0.150000X-0.134081X0.516893X-0.165776X-0.507617X0.134081X-0.516893X0.165776X0.507617X0*%
%ADD60RoundRect,0.140000X-0.154317X-0.157119X0.124613X-0.181581X0.154317X0.157119X-0.124613X0.181581X0*%
%ADD61RoundRect,0.150000X-0.144042X0.514206X-0.155938X-0.510725X0.144042X-0.514206X0.155938X0.510725X0*%
%ADD62RoundRect,0.150000X-0.130351X0.517846X-0.169431X-0.506408X0.130351X-0.517846X0.169431X0.506408X0*%
%ADD63RoundRect,0.140000X-0.156925X-0.154514X0.121556X-0.183641X0.156925X0.154514X-0.121556X0.183641X0*%
%ADD64RoundRect,0.150000X-0.091304X0.526137X-0.206786X-0.492337X0.091304X-0.526137X0.206786X0.492337X0*%
%ADD65RoundRect,0.140000X-0.146380X-0.164539X0.133417X-0.175214X0.146380X0.164539X-0.133417X0.175214X0*%
%ADD66RoundRect,0.150000X-0.140116X0.515290X-0.159829X-0.509520X0.140116X-0.515290X0.159829X0.509520X0*%
%ADD67RoundRect,0.150000X-0.134026X0.516907X-0.165829X-0.507599X0.134026X-0.516907X0.165829X0.507599X0*%
%ADD68RoundRect,0.150000X-0.104652X0.523645X-0.194201X-0.497436X0.104652X-0.523645X0.194201X0.497436X0*%
%ADD69RoundRect,0.140000X-0.140089X-0.169927X0.139911X-0.170073X0.140089X0.169927X-0.139911X0.170073X0*%
%ADD70RoundRect,0.140000X-0.141964X-0.168364X0.138018X-0.171613X0.141964X0.168364X-0.138018X0.171613X0*%
%ADD71RoundRect,0.150000X-0.108570X0.522847X-0.190471X-0.498876X0.108570X-0.522847X0.190471X0.498876X0*%
%ADD72RoundRect,0.140000X-0.143244X-0.167276X0.136705X-0.172661X0.143244X0.167276X-0.136705X0.172661X0*%
%ADD73RoundRect,0.140000X-0.149559X-0.161654X0.129976X-0.177782X0.149559X0.161654X-0.129976X0.177782X0*%
%ADD74RoundRect,0.140000X-0.145207X-0.165574X0.134658X-0.174262X0.145207X0.165574X-0.134658X0.174262X0*%
%ADD75RoundRect,0.150000X-0.095873X0.525323X-0.202499X-0.494116X0.095873X-0.525323X0.202499X0.494116X0*%
%ADD76RoundRect,0.150000X-0.148908X0.512818X-0.151091X-0.512179X0.148908X-0.512818X0.151091X0.512179X0*%
%ADD77RoundRect,0.150000X-0.115077X0.521453X-0.184239X-0.501211X0.115077X-0.521453X0.184239X0.501211X0*%
%ADD78RoundRect,0.150000X-0.093149X0.525813X-0.205058X-0.493059X0.093149X-0.525813X0.205058X0.493059X0*%
%ADD79RoundRect,0.150000X-0.120232X0.520289X-0.179270X-0.503009X0.120232X-0.520289X0.179270X0.503009X0*%
%ADD80RoundRect,0.150000X-0.149732X0.512578X-0.150268X-0.512421X0.149732X-0.512578X0.150268X0.512421X0*%
%ADD81C,0.500000*%
%ADD82C,2.000000*%
G04 APERTURE END LIST*
D10*
%TO.C,LH-MHL1*%
X12500000Y-11987500D03*
%TD*%
%TO.C,LH-MHL3*%
X113924300Y-32010500D03*
%TD*%
D11*
%TO.C,LH-SL1*%
X11525050Y-61700500D03*
D12*
X11525050Y-76940500D03*
D11*
X35337550Y-61700500D03*
D12*
X35337550Y-76940500D03*
%TD*%
D10*
%TO.C,LH-MHL4*%
X148500100Y-97987500D03*
%TD*%
%TO.C,LH-MHL2*%
X11000000Y-94487500D03*
%TD*%
D11*
%TO.C,LH-SL2*%
X118191625Y-85254435D03*
D12*
X119772734Y-100412195D03*
D11*
X141875625Y-82783952D03*
D12*
X143456734Y-97941712D03*
%TD*%
D13*
%TO.C,LH-CL32A*%
X85916831Y-81087893D03*
X86876369Y-81058107D03*
%TD*%
D14*
%TO.C,LH-CL25A*%
X107223235Y-62761554D03*
X108180165Y-62684846D03*
%TD*%
D15*
%TO.C,LH-HEL1*%
X18007800Y-12485500D03*
X18007800Y-10585500D03*
X20282800Y-11535500D03*
%TD*%
%TO.C,LH-HEL30*%
X48487800Y-88685500D03*
X48487800Y-86785500D03*
X50762800Y-87735500D03*
%TD*%
D16*
%TO.C,LH-CML3*%
X109520100Y-65987500D03*
X110480100Y-65987500D03*
%TD*%
%TO.C,LH-CL9B*%
X51935300Y-37485500D03*
X52895300Y-37485500D03*
%TD*%
D15*
%TO.C,LH-HEL2*%
X37057800Y-12485500D03*
X37057800Y-10585500D03*
X39332800Y-11535500D03*
%TD*%
D17*
%TO.C,LH-PTL1*%
X155715300Y-51025500D03*
X155715300Y-52295500D03*
X155715300Y-53565500D03*
X155715300Y-54835500D03*
X155715300Y-56105500D03*
X155715300Y-57375500D03*
X155715300Y-58645500D03*
X155715300Y-59915500D03*
X155715300Y-61185500D03*
X155715300Y-62455500D03*
X155715300Y-63725500D03*
X155715300Y-64995500D03*
%TD*%
D18*
%TO.C,LH-CL20B*%
X134863369Y-60187206D03*
X135817631Y-60082394D03*
%TD*%
D19*
%TO.C,LH-CL5B*%
X101829749Y-19108401D03*
X102789051Y-19071799D03*
%TD*%
D16*
%TO.C,LH-CL17B*%
X74795300Y-56535500D03*
X75755300Y-56535500D03*
%TD*%
%TO.C,LH-CL8B*%
X28123300Y-37485500D03*
X29083300Y-37485500D03*
%TD*%
D15*
%TO.C,LH-HEL9*%
X44677800Y-31535500D03*
X44677800Y-29635500D03*
X46952800Y-30585500D03*
%TD*%
D16*
%TO.C,LH-CL3A*%
X50165300Y-4635500D03*
X51125300Y-4635500D03*
%TD*%
D20*
%TO.C,LH-CL12B*%
X109964697Y-38679847D03*
X110923103Y-38624553D03*
%TD*%
D16*
%TO.C,LH-CL27A*%
X21435300Y-89010500D03*
X22395300Y-89010500D03*
%TD*%
D15*
%TO.C,LH-HEL29*%
X34199800Y-88685500D03*
X34199800Y-86785500D03*
X36474800Y-87735500D03*
%TD*%
D16*
%TO.C,LH-CL16B*%
X55745300Y-56535500D03*
X56705300Y-56535500D03*
%TD*%
D15*
%TO.C,LH-HEL27*%
X19618800Y-88873000D03*
X17718800Y-88873000D03*
X18668800Y-86598000D03*
%TD*%
D21*
%TO.C,LH-AML1*%
X48445000Y-69462500D03*
X47175000Y-69462500D03*
X45905000Y-69462500D03*
X44635000Y-69462500D03*
X43365000Y-69462500D03*
X42095000Y-69462500D03*
X40825000Y-69462500D03*
X39555000Y-69462500D03*
X39555000Y-64512500D03*
X40825000Y-64512500D03*
X42095000Y-64512500D03*
X43365000Y-64512500D03*
X44635000Y-64512500D03*
X45905000Y-64512500D03*
X47175000Y-64512500D03*
X48445000Y-64512500D03*
%TD*%
D22*
%TO.C,LH-HEL13*%
X124313795Y-34144674D03*
X124116145Y-32254983D03*
X126477629Y-32963171D03*
%TD*%
D23*
%TO.C,LH-CL23B*%
X79560700Y-75594251D03*
X80520700Y-75593749D03*
%TD*%
D24*
%TO.C,LH-HEL33*%
X129725498Y-92029386D03*
X129528378Y-90139639D03*
X131889662Y-90848487D03*
%TD*%
D19*
%TO.C,LH-CL5A*%
X89165549Y-4815201D03*
X90124851Y-4778599D03*
%TD*%
D16*
%TO.C,LH-CL9A*%
X38735300Y-23685500D03*
X39695300Y-23685500D03*
%TD*%
D25*
%TO.C,LH-HEL24*%
X91804720Y-69975220D03*
X91745968Y-68076128D03*
X94049256Y-68955326D03*
%TD*%
D26*
%TO.C,LH-CL13B*%
X130715304Y-40680532D03*
X131670096Y-40580668D03*
%TD*%
D16*
%TO.C,LH-CL1B*%
X25265300Y-18435500D03*
X26225300Y-18435500D03*
%TD*%
%TO.C,LH-CL22A*%
X47308300Y-61785500D03*
X48268300Y-61785500D03*
%TD*%
D27*
%TO.C,LH-CL4A*%
X69252001Y-4642522D03*
X70211999Y-4640478D03*
%TD*%
D16*
%TO.C,LH-CL22B*%
X60508300Y-75585500D03*
X61468300Y-75585500D03*
%TD*%
D18*
%TO.C,LH-CL20A*%
X123248969Y-45028606D03*
X124203231Y-44923794D03*
%TD*%
D28*
%TO.C,LH-HEL12*%
X103171407Y-32397442D03*
X103061970Y-30500596D03*
X105387912Y-31317981D03*
%TD*%
D20*
%TO.C,LH-CL12A*%
X97581497Y-24142447D03*
X98539903Y-24087153D03*
%TD*%
D16*
%TO.C,LH-CL3B*%
X63365300Y-18435500D03*
X64325300Y-18435500D03*
%TD*%
D29*
%TO.C,LH-HEL32*%
X91671823Y-89159336D03*
X91612872Y-87260251D03*
X93916252Y-88139207D03*
%TD*%
D30*
%TO.C,LH-CL14A*%
X139476886Y-27763040D03*
X140430714Y-27654360D03*
%TD*%
D31*
%TO.C,LH-CL33A*%
X124432390Y-83468799D03*
X125387210Y-83369201D03*
%TD*%
D16*
%TO.C,LH-CL30A*%
X42545300Y-80835500D03*
X43505300Y-80835500D03*
%TD*%
D15*
%TO.C,LH-HEL22*%
X53250800Y-69635500D03*
X53250800Y-67735500D03*
X55525800Y-68685500D03*
%TD*%
D27*
%TO.C,LH-CL4B*%
X82422601Y-18470522D03*
X83382599Y-18468478D03*
%TD*%
D16*
%TO.C,LH-CL30B*%
X55745300Y-94635500D03*
X56705300Y-94635500D03*
%TD*%
D23*
%TO.C,LH-CL23A*%
X66367900Y-61787251D03*
X67327900Y-61786749D03*
%TD*%
D14*
%TO.C,LH-CL25B*%
X119278435Y-77572154D03*
X120235365Y-77495446D03*
%TD*%
D16*
%TO.C,LH-CL15B*%
X24235300Y-47010500D03*
X25195300Y-47010500D03*
%TD*%
D21*
%TO.C,LH-AML4*%
X129945100Y-72462500D03*
X128675100Y-72462500D03*
X127405100Y-72462500D03*
X126135100Y-72462500D03*
X124865100Y-72462500D03*
X123595100Y-72462500D03*
X122325100Y-72462500D03*
X121055100Y-72462500D03*
X121055100Y-67512500D03*
X122325100Y-67512500D03*
X123595100Y-67512500D03*
X124865100Y-67512500D03*
X126135100Y-67512500D03*
X127405100Y-67512500D03*
X128675100Y-67512500D03*
X129945100Y-67512500D03*
%TD*%
D32*
%TO.C,LH-HEL18*%
X86791281Y-50788201D03*
X86754740Y-48888554D03*
X89047590Y-49794623D03*
%TD*%
D15*
%TO.C,LH-HEL17*%
X67537800Y-50585500D03*
X67537800Y-48685500D03*
X69812800Y-49635500D03*
%TD*%
D33*
%TO.C,LH-HEL19*%
X107375494Y-51717088D03*
X107247291Y-49821418D03*
X109581208Y-50615747D03*
%TD*%
D31*
%TO.C,LH-CL33B*%
X136129390Y-98563799D03*
X137084210Y-98464201D03*
%TD*%
D34*
%TO.C,LH-CL11A*%
X77029832Y-23724971D03*
X77989768Y-23713829D03*
%TD*%
%TO.C,LH-CL11B*%
X90068832Y-37677171D03*
X91028768Y-37666029D03*
%TD*%
D35*
%TO.C,LH-HEL20*%
X128506320Y-53624012D03*
X128298880Y-51735370D03*
X130664000Y-52431309D03*
%TD*%
D36*
%TO.C,LH-CL18B*%
X93896489Y-56851432D03*
X94856311Y-56832968D03*
%TD*%
D16*
%TO.C,LH-CL21B*%
X29551300Y-75585500D03*
X30511300Y-75585500D03*
%TD*%
D37*
%TO.C,LH-HEL23*%
X72307298Y-69641095D03*
X72306303Y-67741096D03*
X74581800Y-68689904D03*
%TD*%
D16*
%TO.C,LH-CL31A*%
X47308300Y-80835500D03*
X48268300Y-80835500D03*
%TD*%
%TO.C,LH-CL29A*%
X28257300Y-80835500D03*
X29217300Y-80835500D03*
%TD*%
D13*
%TO.C,LH-CL32B*%
X98682231Y-95290893D03*
X99641769Y-95261107D03*
%TD*%
D21*
%TO.C,LH-AML2*%
X67945000Y-69962500D03*
X66675000Y-69962500D03*
X65405000Y-69962500D03*
X64135000Y-69962500D03*
X62865000Y-69962500D03*
X61595000Y-69962500D03*
X60325000Y-69962500D03*
X59055000Y-69962500D03*
X59055000Y-65012500D03*
X60325000Y-65012500D03*
X61595000Y-65012500D03*
X62865000Y-65012500D03*
X64135000Y-65012500D03*
X65405000Y-65012500D03*
X66675000Y-65012500D03*
X67945000Y-65012500D03*
%TD*%
D15*
%TO.C,LH-HEL15*%
X22000050Y-50773000D03*
X20100050Y-50773000D03*
X21050050Y-48498000D03*
%TD*%
D16*
%TO.C,LH-CL10A*%
X57785300Y-23685500D03*
X58745300Y-23685500D03*
%TD*%
D38*
%TO.C,LH-HEL11*%
X82902902Y-31658638D03*
X82880851Y-29758766D03*
X85166723Y-30682298D03*
%TD*%
D39*
%TO.C,LH-CL6A*%
X110454135Y-5835235D03*
X111410465Y-5751365D03*
%TD*%
D40*
%TO.C,LH-HEL6*%
X115854141Y-14289245D03*
X115688153Y-12396509D03*
X118037451Y-13144123D03*
%TD*%
D16*
%TO.C,LH-CML4*%
X132520100Y-63987500D03*
X133480100Y-63987500D03*
%TD*%
%TO.C,LH-CL8A*%
X14923300Y-23685500D03*
X15883300Y-23685500D03*
%TD*%
%TO.C,LH-CL15A*%
X24235300Y-51010500D03*
X25195300Y-51010500D03*
%TD*%
D41*
%TO.C,LH-CL19B*%
X114086794Y-58054488D03*
X115044606Y-57989712D03*
%TD*%
D26*
%TO.C,LH-CL13A*%
X119022504Y-25582332D03*
X119977296Y-25482468D03*
%TD*%
D16*
%TO.C,LH-CL10B*%
X70985300Y-37485500D03*
X71945300Y-37485500D03*
%TD*%
D21*
%TO.C,LH-AML3*%
X106445100Y-70462500D03*
X105175100Y-70462500D03*
X103905100Y-70462500D03*
X102635100Y-70462500D03*
X101365100Y-70462500D03*
X100095100Y-70462500D03*
X98825100Y-70462500D03*
X97555100Y-70462500D03*
X97555100Y-65512500D03*
X98825100Y-65512500D03*
X100095100Y-65512500D03*
X101365100Y-65512500D03*
X102635100Y-65512500D03*
X103905100Y-65512500D03*
X105175100Y-65512500D03*
X106445100Y-65512500D03*
%TD*%
D16*
%TO.C,LH-CML2*%
X69520000Y-61987500D03*
X70480000Y-61987500D03*
%TD*%
%TO.C,LH-CL17A*%
X61595300Y-42735500D03*
X62555300Y-42735500D03*
%TD*%
D42*
%TO.C,LH-CL26B*%
X140034956Y-79817279D03*
X140988844Y-79709121D03*
%TD*%
D16*
%TO.C,LH-CML1*%
X50520000Y-60987500D03*
X51480000Y-60987500D03*
%TD*%
D15*
%TO.C,LH-HEL8*%
X20865800Y-31535500D03*
X20865800Y-29635500D03*
X23140800Y-30585500D03*
%TD*%
D16*
%TO.C,LH-CL16A*%
X42545300Y-42735500D03*
X43505300Y-42735500D03*
%TD*%
D41*
%TO.C,LH-CL19A*%
X101847994Y-43395288D03*
X102805806Y-43330512D03*
%TD*%
D16*
%TO.C,LH-CL27B*%
X21435300Y-85010500D03*
X22395300Y-85010500D03*
%TD*%
%TO.C,LH-CL29B*%
X41457300Y-94635500D03*
X42417300Y-94635500D03*
%TD*%
D43*
%TO.C,LH-CL24A*%
X86049030Y-61904543D03*
X87008570Y-61874857D03*
%TD*%
D15*
%TO.C,LH-HEL10*%
X63727800Y-31535500D03*
X63727800Y-29635500D03*
X66002800Y-30585500D03*
%TD*%
D30*
%TO.C,LH-CL14B*%
X151029886Y-42968640D03*
X151983714Y-42859960D03*
%TD*%
%TO.C,LH-CL7A*%
X131570886Y-7812040D03*
X132524714Y-7703360D03*
%TD*%
D42*
%TO.C,LH-CL26A*%
X128473756Y-64617879D03*
X129427644Y-64509721D03*
%TD*%
D15*
%TO.C,LH-HEL16*%
X48487800Y-50585500D03*
X48487800Y-48685500D03*
X50762800Y-49635500D03*
%TD*%
D16*
%TO.C,LH-CL2B*%
X44315300Y-18435500D03*
X45275300Y-18435500D03*
%TD*%
%TO.C,LH-CL1A*%
X12065300Y-4635500D03*
X13025300Y-4635500D03*
%TD*%
D15*
%TO.C,LH-HEL21*%
X22293800Y-69635500D03*
X22293800Y-67735500D03*
X24568800Y-68685500D03*
%TD*%
D16*
%TO.C,LH-CL2A*%
X31115300Y-4635500D03*
X32075300Y-4635500D03*
%TD*%
D44*
%TO.C,LH-HEL7*%
X136801655Y-16433162D03*
X136586569Y-14545375D03*
X138954488Y-15231731D03*
%TD*%
D45*
%TO.C,LH-HEL25*%
X112671345Y-71166352D03*
X112519529Y-69272427D03*
X114863163Y-70037610D03*
%TD*%
D46*
%TO.C,LH-HEL26*%
X133708075Y-73235608D03*
X133494010Y-71347706D03*
X135861556Y-72035343D03*
%TD*%
D16*
%TO.C,LH-CL31B*%
X60508300Y-94635500D03*
X61468300Y-94635500D03*
%TD*%
D39*
%TO.C,LH-CL6B*%
X122398135Y-20735635D03*
X123354465Y-20651765D03*
%TD*%
D15*
%TO.C,LH-HEL3*%
X56107800Y-12485500D03*
X56107800Y-10585500D03*
X58382800Y-11535500D03*
%TD*%
D47*
%TO.C,LH-HEL4*%
X75181825Y-12507920D03*
X75177780Y-10607924D03*
X77454797Y-11553078D03*
%TD*%
D16*
%TO.C,LH-CL21A*%
X16351300Y-61785500D03*
X17311300Y-61785500D03*
%TD*%
D43*
%TO.C,LH-CL24B*%
X98816030Y-76106143D03*
X99775570Y-76076457D03*
%TD*%
D36*
%TO.C,LH-CL18A*%
X80964289Y-42800032D03*
X81924111Y-42781568D03*
%TD*%
D48*
%TO.C,LH-HEL5*%
X94876847Y-12936178D03*
X94804407Y-11037559D03*
X97113973Y-11900131D03*
%TD*%
D44*
%TO.C,LH-HEL14*%
X144707655Y-36384162D03*
X144492569Y-34496375D03*
X146860488Y-35182731D03*
%TD*%
D30*
%TO.C,LH-CL7B*%
X143123886Y-23017640D03*
X144077714Y-22908960D03*
%TD*%
D15*
%TO.C,LH-HEL31*%
X53250800Y-88685500D03*
X53250800Y-86785500D03*
X55525800Y-87735500D03*
%TD*%
D11*
%TO.C,RH-SR2*%
X121205750Y-171457100D03*
D12*
X121205750Y-186697100D03*
D11*
X145018250Y-171457100D03*
D12*
X145018250Y-186697100D03*
%TD*%
D10*
%TO.C,RH-MHR4*%
X147000000Y-199745100D03*
%TD*%
%TO.C,RH-MHR1*%
X45000000Y-141767100D03*
%TD*%
%TO.C,RH-MHR2*%
X8000000Y-207245100D03*
%TD*%
D11*
%TO.C,RH-SR3*%
X14667675Y-192542552D03*
D12*
X13086566Y-207700312D03*
D11*
X38351675Y-195013035D03*
D12*
X36770566Y-210170795D03*
%TD*%
D10*
%TO.C,RH-MHR3*%
X146000000Y-133745100D03*
%TD*%
D11*
%TO.C,RH-SR1*%
X115967750Y-114307100D03*
D12*
X115967750Y-129547100D03*
D11*
X139780250Y-114307100D03*
D12*
X139780250Y-129547100D03*
%TD*%
D49*
%TO.C,RH-CR21A*%
X19219969Y-156122494D03*
X20174231Y-156227306D03*
%TD*%
D50*
%TO.C,RH-HER8*%
X17481269Y-125932225D03*
X17696355Y-124044438D03*
X19849188Y-125245869D03*
%TD*%
D51*
%TO.C,RH-HER36*%
X24555078Y-201551961D03*
X24752198Y-199662214D03*
X26916362Y-200843113D03*
%TD*%
D16*
%TO.C,RH-CR30A*%
X108111000Y-198767100D03*
X109071000Y-198767100D03*
%TD*%
%TO.C,RH-CR3B*%
X124469000Y-128192100D03*
X125429000Y-128192100D03*
%TD*%
D15*
%TO.C,RH-HER18*%
X131974500Y-160342100D03*
X131974500Y-158442100D03*
X134249500Y-159392100D03*
%TD*%
D52*
%TO.C,RH-CR8A*%
X10903386Y-118954260D03*
X11857214Y-119062940D03*
%TD*%
D15*
%TO.C,RH-HER26*%
X141499500Y-179392100D03*
X141499500Y-177492100D03*
X143774500Y-178442100D03*
%TD*%
D53*
%TO.C,RH-CR27A*%
X56342030Y-172039657D03*
X57301570Y-172069343D03*
%TD*%
D54*
%TO.C,RH-CR36B*%
X32587790Y-206853301D03*
X33542610Y-206952899D03*
%TD*%
D16*
%TO.C,RH-CMR3*%
X104520000Y-174745100D03*
X105480000Y-174745100D03*
%TD*%
D15*
%TO.C,RH-HER2*%
X98161500Y-122242100D03*
X98161500Y-120342100D03*
X100436500Y-121292100D03*
%TD*%
D16*
%TO.C,RH-CR11B*%
X140661000Y-147242100D03*
X141621000Y-147242100D03*
%TD*%
D55*
%TO.C,RH-CR29A*%
X14001656Y-175753521D03*
X14955544Y-175861679D03*
%TD*%
D15*
%TO.C,RH-HER30*%
X105487000Y-198629600D03*
X103587000Y-198629600D03*
X104537000Y-196354600D03*
%TD*%
D16*
%TO.C,RH-CR34A*%
X133176000Y-190592100D03*
X134136000Y-190592100D03*
%TD*%
%TO.C,RH-CR4A*%
X120794000Y-114392100D03*
X121754000Y-114392100D03*
%TD*%
D56*
%TO.C,RH-CR1A*%
X73132301Y-114425178D03*
X74092299Y-114427222D03*
%TD*%
D49*
%TO.C,RH-CR21B*%
X33847769Y-168398894D03*
X34802031Y-168503706D03*
%TD*%
D16*
%TO.C,RH-CR18B*%
X139232000Y-166292100D03*
X140192000Y-166292100D03*
%TD*%
D57*
%TO.C,RH-CR28A*%
X35205335Y-173496146D03*
X36162265Y-173572854D03*
%TD*%
D16*
%TO.C,RH-CR33B*%
X141614000Y-204392100D03*
X142574000Y-204392100D03*
%TD*%
D58*
%TO.C,RH-CR20A*%
X40568594Y-153978812D03*
X41526406Y-154043588D03*
%TD*%
D59*
%TO.C,RH-HER27*%
X62465668Y-179661472D03*
X62524420Y-177762380D03*
X64768956Y-178782274D03*
%TD*%
D60*
%TO.C,RH-CR7A*%
X31983235Y-116660165D03*
X32939565Y-116744035D03*
%TD*%
D16*
%TO.C,RH-CR33A*%
X128414000Y-190592100D03*
X129374000Y-190592100D03*
%TD*%
%TO.C,RH-CR3A*%
X111269000Y-114392100D03*
X112229000Y-114392100D03*
%TD*%
D15*
%TO.C,RH-HER25*%
X131974500Y-179392100D03*
X131974500Y-177492100D03*
X134249500Y-178442100D03*
%TD*%
D61*
%TO.C,RH-HER12*%
X71367551Y-141388834D03*
X71389602Y-139488962D03*
X73653423Y-140465302D03*
%TD*%
D15*
%TO.C,RH-HER17*%
X105780500Y-160342100D03*
X105780500Y-158442100D03*
X108055500Y-159392100D03*
%TD*%
D52*
%TO.C,RH-CR15A*%
X2999386Y-138905260D03*
X3953214Y-139013940D03*
%TD*%
D16*
%TO.C,RH-CR23B*%
X108276000Y-185342100D03*
X109236000Y-185342100D03*
%TD*%
%TO.C,RH-CR10B*%
X116849000Y-147242100D03*
X117809000Y-147242100D03*
%TD*%
%TO.C,RH-CMR4*%
X131520000Y-167745100D03*
X132480000Y-167745100D03*
%TD*%
D62*
%TO.C,RH-HER6*%
X59395107Y-122607041D03*
X59467547Y-120708422D03*
X61704673Y-121744469D03*
%TD*%
D56*
%TO.C,RH-CR1B*%
X86361701Y-128196978D03*
X87321699Y-128199022D03*
%TD*%
D21*
%TO.C,RH-AMR1*%
X36445000Y-181720100D03*
X35175000Y-181720100D03*
X33905000Y-181720100D03*
X32635000Y-181720100D03*
X31365000Y-181720100D03*
X30095000Y-181720100D03*
X28825000Y-181720100D03*
X27555000Y-181720100D03*
X27555000Y-176770100D03*
X28825000Y-176770100D03*
X30095000Y-176770100D03*
X31365000Y-176770100D03*
X32635000Y-176770100D03*
X33905000Y-176770100D03*
X35175000Y-176770100D03*
X36445000Y-176770100D03*
%TD*%
D54*
%TO.C,RH-CR36A*%
X18027390Y-194497301D03*
X18982210Y-194596899D03*
%TD*%
D16*
%TO.C,RH-CR16A*%
X80789000Y-152492100D03*
X81749000Y-152492100D03*
%TD*%
D60*
%TO.C,RH-CR7B*%
X46338435Y-129254165D03*
X47294765Y-129338035D03*
%TD*%
D63*
%TO.C,RH-CR14A*%
X23437604Y-136613168D03*
X24392396Y-136713032D03*
%TD*%
D16*
%TO.C,RH-CR26A*%
X135557000Y-171542100D03*
X136517000Y-171542100D03*
%TD*%
%TO.C,RH-CR16B*%
X93989000Y-166292100D03*
X94949000Y-166292100D03*
%TD*%
D64*
%TO.C,RH-HER29*%
X20576710Y-182735894D03*
X20790775Y-180847992D03*
X22944256Y-182048257D03*
%TD*%
D15*
%TO.C,RH-HER11*%
X133403500Y-141292100D03*
X133403500Y-139392100D03*
X135678500Y-140342100D03*
%TD*%
D65*
%TO.C,RH-CR6A*%
X53230049Y-115039399D03*
X54189351Y-115076001D03*
%TD*%
D66*
%TO.C,RH-HER19*%
X67478440Y-160501046D03*
X67514981Y-158601399D03*
X69771290Y-159594977D03*
%TD*%
D15*
%TO.C,RH-HER3*%
X117211500Y-122242100D03*
X117211500Y-120342100D03*
X119486500Y-121292100D03*
%TD*%
D17*
%TO.C,RH-PTR1*%
X3209000Y-174752100D03*
X3209000Y-173482100D03*
X3209000Y-172212100D03*
X3209000Y-170942100D03*
X3209000Y-169672100D03*
X3209000Y-168402100D03*
X3209000Y-167132100D03*
X3209000Y-165862100D03*
X3209000Y-164592100D03*
X3209000Y-163322100D03*
X3209000Y-162052100D03*
X3209000Y-160782100D03*
%TD*%
D16*
%TO.C,RH-CR2B*%
X105419000Y-128192100D03*
X106379000Y-128192100D03*
%TD*%
D67*
%TO.C,RH-HER35*%
X62597572Y-198844349D03*
X62656523Y-196945264D03*
X64900952Y-197965393D03*
%TD*%
D16*
%TO.C,RH-CR4B*%
X133994000Y-128192100D03*
X134954000Y-128192100D03*
%TD*%
D15*
%TO.C,RH-HER10*%
X109591500Y-141292100D03*
X109591500Y-139392100D03*
X111866500Y-140342100D03*
%TD*%
D16*
%TO.C,RH-CR5B*%
X143519000Y-128192100D03*
X144479000Y-128192100D03*
%TD*%
D15*
%TO.C,RH-HER34*%
X139118500Y-198442100D03*
X139118500Y-196542100D03*
X141393500Y-197492100D03*
%TD*%
D68*
%TO.C,RH-HER7*%
X38422853Y-123846091D03*
X38588841Y-121953355D03*
X40772151Y-123098477D03*
%TD*%
D16*
%TO.C,RH-CMR2*%
X60520000Y-183745100D03*
X61480000Y-183745100D03*
%TD*%
%TO.C,RH-CR23A*%
X95076000Y-171542100D03*
X96036000Y-171542100D03*
%TD*%
%TO.C,RH-CR5A*%
X130319000Y-114392100D03*
X131279000Y-114392100D03*
%TD*%
%TO.C,RH-CR9A*%
X84599000Y-133442100D03*
X85559000Y-133442100D03*
%TD*%
D69*
%TO.C,RH-CR22B*%
X89223600Y-185343349D03*
X90183600Y-185343851D03*
%TD*%
D55*
%TO.C,RH-CR29B*%
X28672456Y-187978521D03*
X29626344Y-188086679D03*
%TD*%
D16*
%TO.C,RH-CR24A*%
X114126000Y-171542100D03*
X115086000Y-171542100D03*
%TD*%
%TO.C,RH-CR26B*%
X148757000Y-185342100D03*
X149717000Y-185342100D03*
%TD*%
D63*
%TO.C,RH-CR14B*%
X38001604Y-148965168D03*
X38956396Y-149065032D03*
%TD*%
D16*
%TO.C,RH-CR17A*%
X99838000Y-152492100D03*
X100798000Y-152492100D03*
%TD*%
D21*
%TO.C,RH-AMR3*%
X97445000Y-179220100D03*
X96175000Y-179220100D03*
X94905000Y-179220100D03*
X93635000Y-179220100D03*
X92365000Y-179220100D03*
X91095000Y-179220100D03*
X89825000Y-179220100D03*
X88555000Y-179220100D03*
X88555000Y-174270100D03*
X89825000Y-174270100D03*
X91095000Y-174270100D03*
X92365000Y-174270100D03*
X93635000Y-174270100D03*
X94905000Y-174270100D03*
X96175000Y-174270100D03*
X97445000Y-174270100D03*
%TD*%
D70*
%TO.C,RH-CR12B*%
X78715632Y-147269429D03*
X79675568Y-147280571D03*
%TD*%
D69*
%TO.C,RH-CR22A*%
X76016400Y-171550349D03*
X76976400Y-171550851D03*
%TD*%
D16*
%TO.C,RH-CR11A*%
X127461000Y-133442100D03*
X128421000Y-133442100D03*
%TD*%
D15*
%TO.C,RH-HER4*%
X126736500Y-122242100D03*
X126736500Y-120342100D03*
X129011500Y-121292100D03*
%TD*%
D71*
%TO.C,RH-HER28*%
X41604229Y-180741173D03*
X41756045Y-178847248D03*
X43947863Y-179975990D03*
%TD*%
D21*
%TO.C,RH-AMR2*%
X58945000Y-180220100D03*
X57675000Y-180220100D03*
X56405000Y-180220100D03*
X55135000Y-180220100D03*
X53865000Y-180220100D03*
X52595000Y-180220100D03*
X51325000Y-180220100D03*
X50055000Y-180220100D03*
X50055000Y-175270100D03*
X51325000Y-175270100D03*
X52595000Y-175270100D03*
X53865000Y-175270100D03*
X55135000Y-175270100D03*
X56405000Y-175270100D03*
X57675000Y-175270100D03*
X58945000Y-175270100D03*
%TD*%
D16*
%TO.C,RH-CR34B*%
X146376000Y-204392100D03*
X147336000Y-204392100D03*
%TD*%
D72*
%TO.C,RH-CR19B*%
X74885589Y-166335668D03*
X75845411Y-166354132D03*
%TD*%
D58*
%TO.C,RH-CR20B*%
X54669594Y-166856612D03*
X55627406Y-166921388D03*
%TD*%
D16*
%TO.C,RH-CR32B*%
X127326000Y-204392100D03*
X128286000Y-204392100D03*
%TD*%
D73*
%TO.C,RH-CR13B*%
X58799297Y-147620853D03*
X59757703Y-147676147D03*
%TD*%
D16*
%TO.C,RH-CR17B*%
X113038000Y-166292100D03*
X113998000Y-166292100D03*
%TD*%
D74*
%TO.C,RH-CR35A*%
X56473331Y-191223307D03*
X57432869Y-191253093D03*
%TD*%
D75*
%TO.C,RH-HER14*%
X29966845Y-143665617D03*
X30164495Y-141775926D03*
X32328329Y-142957429D03*
%TD*%
D16*
%TO.C,RH-CR25B*%
X139232000Y-185342100D03*
X140192000Y-185342100D03*
%TD*%
%TO.C,RH-CR32A*%
X114126000Y-190592100D03*
X115086000Y-190592100D03*
%TD*%
D15*
%TO.C,RH-HER16*%
X86731500Y-160342100D03*
X86731500Y-158442100D03*
X89006500Y-159392100D03*
%TD*%
D50*
%TO.C,RH-HER15*%
X9577269Y-145883225D03*
X9792355Y-143995438D03*
X11945188Y-145196869D03*
%TD*%
D16*
%TO.C,RH-CMR1*%
X39520000Y-183745100D03*
X40480000Y-183745100D03*
%TD*%
%TO.C,RH-CR18A*%
X126032000Y-152492100D03*
X126992000Y-152492100D03*
%TD*%
D15*
%TO.C,RH-HER9*%
X90541500Y-141292100D03*
X90541500Y-139392100D03*
X92816500Y-140342100D03*
%TD*%
D70*
%TO.C,RH-CR12A*%
X65356432Y-133623629D03*
X66316368Y-133634771D03*
%TD*%
D15*
%TO.C,RH-HER24*%
X120068500Y-179392100D03*
X120068500Y-177492100D03*
X122343500Y-178442100D03*
%TD*%
D65*
%TO.C,RH-CR6B*%
X66946649Y-128326199D03*
X67905951Y-128362801D03*
%TD*%
D16*
%TO.C,RH-CR30B*%
X108111000Y-194767100D03*
X109071000Y-194767100D03*
%TD*%
D52*
%TO.C,RH-CR8B*%
X25580786Y-131171260D03*
X26534614Y-131279940D03*
%TD*%
D76*
%TO.C,RH-HER1*%
X79087480Y-122259676D03*
X79091525Y-120359680D03*
X81364497Y-121314522D03*
%TD*%
D57*
%TO.C,RH-CR28B*%
X49465735Y-186197346D03*
X50422665Y-186274054D03*
%TD*%
D21*
%TO.C,RH-AMR4*%
X128445000Y-167220100D03*
X127175000Y-167220100D03*
X125905000Y-167220100D03*
X124635000Y-167220100D03*
X123365000Y-167220100D03*
X122095000Y-167220100D03*
X120825000Y-167220100D03*
X119555000Y-167220100D03*
X119555000Y-162270100D03*
X120825000Y-162270100D03*
X122095000Y-162270100D03*
X123365000Y-162270100D03*
X124635000Y-162270100D03*
X125905000Y-162270100D03*
X127175000Y-162270100D03*
X128445000Y-162270100D03*
%TD*%
D74*
%TO.C,RH-CR35B*%
X70095131Y-204607107D03*
X71054669Y-204636893D03*
%TD*%
D16*
%TO.C,RH-CR24B*%
X127326000Y-185342100D03*
X128286000Y-185342100D03*
%TD*%
D15*
%TO.C,RH-HER23*%
X101018500Y-179392100D03*
X101018500Y-177492100D03*
X103293500Y-178442100D03*
%TD*%
%TO.C,RH-HER5*%
X136261500Y-122242100D03*
X136261500Y-120342100D03*
X138536500Y-121292100D03*
%TD*%
D77*
%TO.C,RH-HER20*%
X46898991Y-161321182D03*
X47027194Y-159425512D03*
X49232908Y-160526853D03*
%TD*%
D16*
%TO.C,RH-CR10A*%
X103649000Y-133442100D03*
X104609000Y-133442100D03*
%TD*%
D78*
%TO.C,RH-HER21*%
X25776580Y-163133230D03*
X25984020Y-161244588D03*
X28141700Y-162437291D03*
%TD*%
D15*
%TO.C,RH-HER32*%
X120068500Y-198442100D03*
X120068500Y-196542100D03*
X122343500Y-197492100D03*
%TD*%
D79*
%TO.C,RH-HER13*%
X51101670Y-142023004D03*
X51211107Y-140126158D03*
X53427612Y-141205619D03*
%TD*%
D16*
%TO.C,RH-CR2A*%
X92219000Y-114392100D03*
X93179000Y-114392100D03*
%TD*%
D80*
%TO.C,RH-HER22*%
X81962003Y-179396504D03*
X81962998Y-177496505D03*
X84237500Y-178447696D03*
%TD*%
D16*
%TO.C,RH-CR9B*%
X97799000Y-147242100D03*
X98759000Y-147242100D03*
%TD*%
D15*
%TO.C,RH-HER33*%
X134356500Y-198442100D03*
X134356500Y-196542100D03*
X136631500Y-197492100D03*
%TD*%
D73*
%TO.C,RH-CR13A*%
X44826297Y-134604053D03*
X45784703Y-134659347D03*
%TD*%
D16*
%TO.C,RH-CR25A*%
X126032000Y-171542100D03*
X126992000Y-171542100D03*
%TD*%
D53*
%TO.C,RH-CR27B*%
X69962430Y-185424857D03*
X70921970Y-185454543D03*
%TD*%
D72*
%TO.C,RH-CR19A*%
X61422589Y-152792068D03*
X62382411Y-152810532D03*
%TD*%
D52*
%TO.C,RH-CR15B*%
X17676786Y-151122260D03*
X18630614Y-151230940D03*
%TD*%
D81*
%TO.C,MB1*%
X33463350Y0D03*
%TD*%
%TO.C,MB2*%
X34213350Y0D03*
%TD*%
%TO.C,MB3*%
X34963350Y0D03*
%TD*%
%TO.C,MB4*%
X35713350Y0D03*
%TD*%
%TO.C,MB5*%
X36463350Y0D03*
%TD*%
%TO.C,MB6*%
X33463350Y-217513200D03*
%TD*%
%TO.C,MB7*%
X34213350Y-217513200D03*
%TD*%
%TO.C,MB8*%
X34963350Y-217513200D03*
%TD*%
%TO.C,MB9*%
X35713350Y-217513200D03*
%TD*%
%TO.C,MB10*%
X36463350Y-217513200D03*
%TD*%
%TO.C,MB11*%
X77962150Y0D03*
%TD*%
%TO.C,MB12*%
X78712150Y0D03*
%TD*%
%TO.C,MB13*%
X79462150Y0D03*
%TD*%
%TO.C,MB14*%
X80212150Y0D03*
%TD*%
%TO.C,MB15*%
X80962150Y0D03*
%TD*%
%TO.C,MB16*%
X77962150Y-217513200D03*
%TD*%
%TO.C,MB17*%
X78712150Y-217513200D03*
%TD*%
%TO.C,MB18*%
X79462150Y-217513200D03*
%TD*%
%TO.C,MB19*%
X80212150Y-217513200D03*
%TD*%
%TO.C,MB20*%
X80962150Y-217513200D03*
%TD*%
%TO.C,MB21*%
X122460950Y0D03*
%TD*%
%TO.C,MB22*%
X123210950Y0D03*
%TD*%
%TO.C,MB23*%
X123960950Y0D03*
%TD*%
%TO.C,MB24*%
X124710950Y0D03*
%TD*%
%TO.C,MB25*%
X125460950Y0D03*
%TD*%
%TO.C,MB26*%
X122460950Y-217513200D03*
%TD*%
%TO.C,MB27*%
X123210950Y-217513200D03*
%TD*%
%TO.C,MB28*%
X123960950Y-217513200D03*
%TD*%
%TO.C,MB29*%
X124710950Y-217513200D03*
%TD*%
%TO.C,MB30*%
X125460950Y-217513200D03*
%TD*%
%TO.C,MB31*%
X0Y-35137240D03*
%TD*%
%TO.C,MB32*%
X0Y-35887240D03*
%TD*%
%TO.C,MB33*%
X0Y-36637240D03*
%TD*%
%TO.C,MB34*%
X0Y-37387240D03*
%TD*%
%TO.C,MB35*%
X0Y-38137240D03*
%TD*%
%TO.C,MB36*%
X158924300Y-35137240D03*
%TD*%
%TO.C,MB37*%
X158924300Y-35887240D03*
%TD*%
%TO.C,MB38*%
X158924300Y-36637240D03*
%TD*%
%TO.C,MB39*%
X158924300Y-37387240D03*
%TD*%
%TO.C,MB40*%
X158924300Y-38137240D03*
%TD*%
%TO.C,MB41*%
X0Y-71774490D03*
%TD*%
%TO.C,MB42*%
X0Y-72524490D03*
%TD*%
%TO.C,MB43*%
X0Y-73274490D03*
%TD*%
%TO.C,MB44*%
X0Y-74024490D03*
%TD*%
%TO.C,MB45*%
X0Y-74774490D03*
%TD*%
%TO.C,MB46*%
X158924300Y-71774490D03*
%TD*%
%TO.C,MB47*%
X158924300Y-72524490D03*
%TD*%
%TO.C,MB48*%
X158924300Y-73274490D03*
%TD*%
%TO.C,MB49*%
X158924300Y-74024490D03*
%TD*%
%TO.C,MB50*%
X158924300Y-74774490D03*
%TD*%
%TO.C,MB51*%
X0Y-144893840D03*
%TD*%
%TO.C,MB52*%
X0Y-145643840D03*
%TD*%
%TO.C,MB53*%
X0Y-146393840D03*
%TD*%
%TO.C,MB54*%
X0Y-147143840D03*
%TD*%
%TO.C,MB55*%
X0Y-147893840D03*
%TD*%
%TO.C,MB56*%
X158924300Y-144893840D03*
%TD*%
%TO.C,MB57*%
X158924300Y-145643840D03*
%TD*%
%TO.C,MB58*%
X158924300Y-146393840D03*
%TD*%
%TO.C,MB59*%
X158924300Y-147143840D03*
%TD*%
%TO.C,MB60*%
X158924300Y-147893840D03*
%TD*%
%TO.C,MB61*%
X0Y-181531090D03*
%TD*%
%TO.C,MB62*%
X0Y-182281090D03*
%TD*%
%TO.C,MB63*%
X0Y-183031090D03*
%TD*%
%TO.C,MB64*%
X0Y-183781090D03*
%TD*%
%TO.C,MB65*%
X0Y-184531090D03*
%TD*%
%TO.C,MB66*%
X158924300Y-181531090D03*
%TD*%
%TO.C,MB67*%
X158924300Y-182281090D03*
%TD*%
%TO.C,MB68*%
X158924300Y-183031090D03*
%TD*%
%TO.C,MB69*%
X158924300Y-183781090D03*
%TD*%
%TO.C,MB70*%
X158924300Y-184531090D03*
%TD*%
D82*
%TO.C,FIDB1*%
X-4350000Y4350000D03*
%TD*%
%TO.C,FIDB2*%
X163274300Y4350000D03*
%TD*%
%TO.C,FIDB3*%
X-4350000Y-221863200D03*
%TD*%
%TO.C,TH1*%
X-5700000Y-61973960D03*
%TD*%
%TO.C,TH2*%
X164624300Y-61973960D03*
%TD*%
%TO.C,TH3*%
X-5700000Y-155539240D03*
%TD*%
%TO.C,TH4*%
X164624300Y-155539240D03*
%TD*%
M02*
