%TF.GenerationSoftware,KiCad,Pcbnew,10.0.5*%
%TF.CreationDate,2026-09-12T17:12:42-04:00*%
%TF.ProjectId,Symm60HE-Neo-Hall-Family-Panel,53796d6d-3630-4484-952d-4e656f2d4861,rev?*%
%TF.SameCoordinates,Original*%
%TF.FileFunction,Soldermask,Top*%
%TF.FilePolarity,Negative*%
%FSLAX46Y46*%
G04 Gerber Fmt 4.6, Leading zero omitted, Abs format (unit mm)*
G04 Created by KiCad (PCBNEW 10.0.5) date 2026-09-12 17:12:42*
%MOMM*%
%LPD*%
G01*
G04 APERTURE LIST*
%ADD10C,4.400000*%
%ADD11C,3.048000*%
%ADD12C,3.987800*%
%ADD13C,0.500000*%
%ADD14C,2.000000*%
G04 APERTURE END LIST*
D10*
%TO.C,LH-MHL1*%
X12500000Y-11987500D03*
%TD*%
%TO.C,LH-MHL3*%
X113924300Y-32010500D03*
%TD*%
D11*
%TO.C,LH-SL1*%
X11525050Y-61700500D03*
D12*
X11525050Y-76940500D03*
D11*
X35337550Y-61700500D03*
D12*
X35337550Y-76940500D03*
%TD*%
D10*
%TO.C,LH-MHL4*%
X148500100Y-97987500D03*
%TD*%
%TO.C,LH-MHL2*%
X11000000Y-94487500D03*
%TD*%
D11*
%TO.C,LH-SL2*%
X118191625Y-85254435D03*
D12*
X119772734Y-100412195D03*
D11*
X141875625Y-82783952D03*
D12*
X143456734Y-97941712D03*
%TD*%
D11*
%TO.C,RH-SR2*%
X121205750Y-171457100D03*
D12*
X121205750Y-186697100D03*
D11*
X145018250Y-171457100D03*
D12*
X145018250Y-186697100D03*
%TD*%
D10*
%TO.C,RH-MHR4*%
X147000000Y-199745100D03*
%TD*%
%TO.C,RH-MHR1*%
X45000000Y-141767100D03*
%TD*%
%TO.C,RH-MHR2*%
X8000000Y-207245100D03*
%TD*%
D11*
%TO.C,RH-SR3*%
X14667675Y-192542552D03*
D12*
X13086566Y-207700312D03*
D11*
X38351675Y-195013035D03*
D12*
X36770566Y-210170795D03*
%TD*%
D10*
%TO.C,RH-MHR3*%
X146000000Y-133745100D03*
%TD*%
D11*
%TO.C,RH-SR1*%
X115967750Y-114307100D03*
D12*
X115967750Y-129547100D03*
D11*
X139780250Y-114307100D03*
D12*
X139780250Y-129547100D03*
%TD*%
D13*
%TO.C,MB1*%
X33463350Y0D03*
%TD*%
%TO.C,MB2*%
X34213350Y0D03*
%TD*%
%TO.C,MB3*%
X34963350Y0D03*
%TD*%
%TO.C,MB4*%
X35713350Y0D03*
%TD*%
%TO.C,MB5*%
X36463350Y0D03*
%TD*%
%TO.C,MB6*%
X33463350Y-217513200D03*
%TD*%
%TO.C,MB7*%
X34213350Y-217513200D03*
%TD*%
%TO.C,MB8*%
X34963350Y-217513200D03*
%TD*%
%TO.C,MB9*%
X35713350Y-217513200D03*
%TD*%
%TO.C,MB10*%
X36463350Y-217513200D03*
%TD*%
%TO.C,MB11*%
X77962150Y0D03*
%TD*%
%TO.C,MB12*%
X78712150Y0D03*
%TD*%
%TO.C,MB13*%
X79462150Y0D03*
%TD*%
%TO.C,MB14*%
X80212150Y0D03*
%TD*%
%TO.C,MB15*%
X80962150Y0D03*
%TD*%
%TO.C,MB16*%
X77962150Y-217513200D03*
%TD*%
%TO.C,MB17*%
X78712150Y-217513200D03*
%TD*%
%TO.C,MB18*%
X79462150Y-217513200D03*
%TD*%
%TO.C,MB19*%
X80212150Y-217513200D03*
%TD*%
%TO.C,MB20*%
X80962150Y-217513200D03*
%TD*%
%TO.C,MB21*%
X122460950Y0D03*
%TD*%
%TO.C,MB22*%
X123210950Y0D03*
%TD*%
%TO.C,MB23*%
X123960950Y0D03*
%TD*%
%TO.C,MB24*%
X124710950Y0D03*
%TD*%
%TO.C,MB25*%
X125460950Y0D03*
%TD*%
%TO.C,MB26*%
X122460950Y-217513200D03*
%TD*%
%TO.C,MB27*%
X123210950Y-217513200D03*
%TD*%
%TO.C,MB28*%
X123960950Y-217513200D03*
%TD*%
%TO.C,MB29*%
X124710950Y-217513200D03*
%TD*%
%TO.C,MB30*%
X125460950Y-217513200D03*
%TD*%
%TO.C,MB31*%
X0Y-35137240D03*
%TD*%
%TO.C,MB32*%
X0Y-35887240D03*
%TD*%
%TO.C,MB33*%
X0Y-36637240D03*
%TD*%
%TO.C,MB34*%
X0Y-37387240D03*
%TD*%
%TO.C,MB35*%
X0Y-38137240D03*
%TD*%
%TO.C,MB36*%
X158924300Y-35137240D03*
%TD*%
%TO.C,MB37*%
X158924300Y-35887240D03*
%TD*%
%TO.C,MB38*%
X158924300Y-36637240D03*
%TD*%
%TO.C,MB39*%
X158924300Y-37387240D03*
%TD*%
%TO.C,MB40*%
X158924300Y-38137240D03*
%TD*%
%TO.C,MB41*%
X0Y-71774490D03*
%TD*%
%TO.C,MB42*%
X0Y-72524490D03*
%TD*%
%TO.C,MB43*%
X0Y-73274490D03*
%TD*%
%TO.C,MB44*%
X0Y-74024490D03*
%TD*%
%TO.C,MB45*%
X0Y-74774490D03*
%TD*%
%TO.C,MB46*%
X158924300Y-71774490D03*
%TD*%
%TO.C,MB47*%
X158924300Y-72524490D03*
%TD*%
%TO.C,MB48*%
X158924300Y-73274490D03*
%TD*%
%TO.C,MB49*%
X158924300Y-74024490D03*
%TD*%
%TO.C,MB50*%
X158924300Y-74774490D03*
%TD*%
%TO.C,MB51*%
X0Y-144893840D03*
%TD*%
%TO.C,MB52*%
X0Y-145643840D03*
%TD*%
%TO.C,MB53*%
X0Y-146393840D03*
%TD*%
%TO.C,MB54*%
X0Y-147143840D03*
%TD*%
%TO.C,MB55*%
X0Y-147893840D03*
%TD*%
%TO.C,MB56*%
X158924300Y-144893840D03*
%TD*%
%TO.C,MB57*%
X158924300Y-145643840D03*
%TD*%
%TO.C,MB58*%
X158924300Y-146393840D03*
%TD*%
%TO.C,MB59*%
X158924300Y-147143840D03*
%TD*%
%TO.C,MB60*%
X158924300Y-147893840D03*
%TD*%
%TO.C,MB61*%
X0Y-181531090D03*
%TD*%
%TO.C,MB62*%
X0Y-182281090D03*
%TD*%
%TO.C,MB63*%
X0Y-183031090D03*
%TD*%
%TO.C,MB64*%
X0Y-183781090D03*
%TD*%
%TO.C,MB65*%
X0Y-184531090D03*
%TD*%
%TO.C,MB66*%
X158924300Y-181531090D03*
%TD*%
%TO.C,MB67*%
X158924300Y-182281090D03*
%TD*%
%TO.C,MB68*%
X158924300Y-183031090D03*
%TD*%
%TO.C,MB69*%
X158924300Y-183781090D03*
%TD*%
%TO.C,MB70*%
X158924300Y-184531090D03*
%TD*%
D14*
%TO.C,FIDF1*%
X-4350000Y4350000D03*
%TD*%
%TO.C,FIDF2*%
X163274300Y4350000D03*
%TD*%
%TO.C,FIDF3*%
X-4350000Y-221863200D03*
%TD*%
%TO.C,TH1*%
X-5700000Y-61973960D03*
%TD*%
%TO.C,TH2*%
X164624300Y-61973960D03*
%TD*%
%TO.C,TH3*%
X-5700000Y-155539240D03*
%TD*%
%TO.C,TH4*%
X164624300Y-155539240D03*
%TD*%
M02*
