M48
; DRILL file KiCad 10.0.5 date 2026-09-21T10:22:10
; FORMAT={-:-/ absolute / metric / decimal}
; #@! TF.CreationDate,2026-09-21T10:22:10-04:00
; #@! TF.GenerationSoftware,Kicad,Pcbnew,10.0.5
; #@! TF.FileFunction,Plated,1,2,PTH
FMAT,2
METRIC
; #@! TA.AperFunction,Plated,PTH,ViaDrill
T1C0.300
%
G90
G05
T1
X163.8Y-56.5
X163.858Y-69.045
X165.488Y-34.78
X166.967Y-61.422
X166.976Y-60.5
X167.238Y-12.53
X167.275Y-59.625
X167.458Y-62.151
X167.48Y-56.554
X167.674Y-53.821
X169.488Y-10.28
X169.842Y-28.535
X169.98Y-68.304
X170.304Y-14.626
X170.48Y-69.804
X170.756Y-66.5
X170.988Y-12.28
X171.23Y-30.804
X171.238Y-29.03
X171.48Y-70.304
X172.48Y-50.054
X173.238Y-16.03
X173.602Y-51.55
X174.238Y-47.53
X174.269Y-38.919
X174.988Y-44.28
X175.08Y-77.047
X175.318Y-68.978
X176.48Y-85.054
X177.488Y-46.53
X177.73Y-52.804
X177.881Y-29.281
X178.48Y-9.304
X178.73Y-78.304
X178.988Y-10.03
X178.988Y-27.78
X179.239Y-25.742
X179.48Y-90.554
X179.738Y-51.78
X180.095Y-41.661
X180.19Y-64.558
X180.651Y-62.3
X180.941Y-27.139
X181.218Y-14.535
X181.488Y-64.53
X181.626Y-20.169
X182.074Y-13.069
X182.238Y-26.53
X182.692Y-11.53
X182.734Y-44.387
X182.738Y-22.03
X184.48Y-84.054
X185.23Y-45.804
X185.48Y-84.304
X185.893Y-15.709
X185.98Y-78.304
X186.15Y-44.729
X186.674Y-49.376
X186.674Y-62.3
X187.73Y-100.554
X188.209Y-42.74
X188.238Y-7.03
X188.48Y-85.304
X189.48Y-58.554
X189.488Y-65.28
X189.592Y-12.304
X189.738Y-24.53
X189.9Y-46.376
X191.313Y-11.006
X191.738Y-63.53
X191.873Y-22.812
X191.892Y-14.604
X191.988Y-13.03
X192.173Y-77.047
X192.9Y-44.729
X193.386Y-14.91
X193.57Y-68.244
X193.667Y-35.51
X194.238Y-39.28
X194.762Y-22.987
X194.938Y-5.904
X194.988Y-43.53
X194.988Y-69.03
X195.48Y-70.304
X195.738Y-7.53
X196.389Y-45.764
X196.414Y-7.423
X197.238Y-5.28
X197.988Y-24.28
X198.099Y-61.449
X198.738Y-50.28
X198.98Y-48.554
X200.279Y-8.807
X200.488Y-61.53
X201.238Y-20.78
X201.27Y-52.979
X201.341Y-25.871
X202.02Y-61.55
X202.77Y-47.19
X203.724Y-29.251
X203.738Y-41.53
X204.23Y-77.804
X204.73Y-76.054
X205.238Y-6.53
X205.239Y-21.452
X205.716Y-5.562
X205.76Y-33.337
X205.77Y-57.949
X207.488Y-4.53
X208.238Y-55.53
X208.493Y-58.216
X209.238Y-24.53
X210.192Y-59.88
X210.488Y-60.78
X210.738Y-10.53
X211.48Y-80.054
X211.738Y-42.03
X211.793Y-63.01
X212.202Y-38.878
X212.48Y-79.554
X212.488Y-36.78
X212.902Y-33.807
X213.192Y-72.05
X213.738Y-66.28
X214.23Y-40.804
X214.23Y-82.054
X214.32Y-67.444
X214.838Y-2.796
X214.988Y-40.78
X215.411Y-47.375
X215.98Y-86.554
X216.488Y-5.53
X216.704Y-66.694
X216.738Y-22.28
X217.553Y-22.556
X217.818Y-32.277
X219.298Y-79.144
X219.704Y-52.979
X219.704Y-58.699
X219.738Y-18.78
X219.738Y-61.78
X219.98Y-89.804
X219.988Y-21.28
X220.331Y-24.257
X220.454Y-72.05
X221.028Y-39.027
X221.73Y-80.804
X222.48Y-92.304
X222.988Y-40.03
X223.23Y-73.304
X223.23Y-76.554
X223.993Y-4.152
X224.954Y-41.724
X224.98Y-86.804
X224.98Y-94.804
X225.785Y-2.796
X226.238Y-53.78
X226.98Y-74.804
X227.063Y-59.757
X227.238Y-2.53
X227.988Y-62.03
X228.089Y-60.949
X228.428Y-22.103
X228.48Y-82.804
X228.98Y-79.304
X229.48Y-83.554
X230.055Y-72.575
X230.238Y-7.28
X230.431Y-40.434
X230.567Y-34.51
X231.199Y-77.762
X231.238Y-59.03
X231.278Y-39.027
X231.325Y-69.478
X231.488Y-42.53
X231.839Y-41.748
X231.98Y-77.554
X231.98Y-78.554
X232.108Y-45.106
X232.571Y-79.908
X232.98Y-73.804
X233.238Y-66.53
X233.255Y-69.638
X233.612Y-64.948
X233.98Y-80.054
X233.988Y-78.78
X234.303Y-55.523
X234.642Y-1.195
X234.738Y-39.53
X235.123Y-61.793
X235.472Y-69.492
X236.23Y-2.054
X236.238Y-2.78
X236.287Y-68.085
X236.342Y-74.065
X236.562Y-69.312
X236.725Y-66.167
X236.738Y-21.03
X236.754Y-57.694
X236.754Y-61.163
X237.089Y-52.229
X237.722Y-53.722
X237.946Y-62.501
X238.945Y-74.433
X238.988Y-17.53
X239.238Y-60.53
X239.337Y-57.949
X240.837Y-51.911
X240.942Y-72.842
X241.403Y-39.158
X241.43Y-23.161
X241.488Y-71.28
X241.752Y-40.551
X242.184Y-29.883
X242.738Y-41.28
X243.428Y-3.535
X243.439Y-43.009
X243.884Y-31.482
X244.097Y-1.195
X244.462Y-37.552
X244.587Y-44.412
X244.836Y-17.762
X245.238Y-53.53
X245.5Y-80.5
X245.604Y-40.662
X246.738Y-2.03
X247.238Y-61.03
X247.238Y-78.78
X247.25Y-82.0
X247.284Y-37.682
X247.988Y-20.28
X248.649Y-75.503
X248.7Y-78.7
X249.465Y-38.495
X249.488Y-6.78
X250.104Y-37.946
X250.738Y-58.28
X250.984Y-37.558
X251.452Y-84.842
X251.48Y-80.704
X251.73Y-78.054
X251.988Y-40.03
X253.785Y-39.158
X254.052Y-41.251
X254.475Y-1.835
X254.488Y-86.78
X255.313Y-70.908
X255.488Y-39.28
X255.738Y-4.03
X255.738Y-21.03
X256.09Y-57.306
X256.628Y-17.517
X256.73Y-62.441
X256.98Y-84.804
X256.988Y-46.78
X256.992Y-87.917
X257.488Y-15.53
X257.815Y-57.675
X258.48Y-58.304
X258.712Y-25.983
X259.738Y-22.03
X260.308Y-52.086
X260.315Y-48.693
X260.488Y-75.03
X260.488Y-94.03
X260.738Y-27.53
X260.749Y-82.389
X260.964Y-83.975
X261.685Y-38.378
X262.73Y-80.054
X262.824Y-54.39
X263.041Y-42.357
X263.065Y-60.675
X263.289Y-41.185
X263.409Y-3.732
X263.488Y-43.03
X264.193Y-37.595
X264.488Y-58.53
X264.488Y-80.28
X264.501Y-70.908
X264.752Y-61.08
X264.902Y-31.603
X265.238Y-55.78
X265.238Y-94.03
X265.73Y-1.804
X265.746Y-47.056
X265.813Y-54.949
X265.849Y-35.591
X266.099Y-44.03
X266.21Y-48.947
X266.238Y-80.28
X266.326Y-40.003
X266.788Y-22.217
X267.217Y-39.074
X267.238Y-25.28
X267.366Y-26.766
X267.433Y-10.904
X267.595Y-40.929
X267.738Y-64.03
X268.251Y-38.89
X268.475Y-82.389
X268.488Y-8.53
X268.635Y-70.908
X268.98Y-5.804
X269.133Y-12.504
X269.43Y-38.93
X269.513Y-43.836
X269.533Y-5.204
X269.533Y-6.804
X270.114Y-39.47
X270.176Y-64.971
X270.784Y-43.836
X270.948Y-11.093
X271.238Y-65.78
X271.238Y-84.78
X271.287Y-87.916
X271.48Y-36.054
X271.98Y-45.554
X271.988Y-12.78
X272.039Y-40.297
X272.192Y-10.102
X272.313Y-39.067
X272.566Y-52.705
X272.566Y-44.148
X272.73Y-77.804
X272.738Y-37.53
X272.931Y-6.004
X273.21Y-48.414
X273.933Y-11.604
X274.487Y-43.993
X274.488Y-45.53
X274.631Y-7.804
X275.248Y-79.364
X275.751Y-56.029
X275.867Y-40.297
X275.926Y-7.004
X276.233Y-9.704
X276.319Y-44.53
X276.738Y-17.78
X276.799Y-1.907
X276.91Y-6.904
X277.112Y-53.808
X277.48Y-75.554
X277.488Y-82.53
X277.933Y-1.604
X277.988Y-8.53
X278.218Y-51.348
X278.238Y-61.03
X278.353Y-42.768
X278.385Y-55.437
X278.931Y-8.004
X279.041Y-10.634
X279.338Y-58.567
X279.488Y-72.78
X279.488Y-94.03
X279.521Y-52.0
X279.738Y-23.03
X280.21Y-1.604
X280.488Y-39.28
X280.488Y-58.28
X280.488Y-80.28
X281.23Y-79.804
X281.78Y-24.725
X281.895Y-6.4
X282.08Y-87.917
X282.533Y-4.104
X282.73Y-77.304
X283.038Y-2.304
X283.23Y-46.554
X283.238Y-45.28
X283.238Y-64.03
X283.48Y-76.304
X283.73Y-56.804
X284.488Y-27.53
X284.73Y-1.804
X285.459Y-67.9
X285.484Y-26.766
X285.73Y-75.554
X285.98Y-56.554
X286.038Y-7.904
X286.238Y-15.78
X286.238Y-82.53
X286.73Y-73.054
X287.73Y-88.554
X287.84Y-82.0
X287.888Y-35.053
X288.475Y-22.21
X288.7Y-87.6
X288.988Y-15.28
X289.238Y-71.53
X289.556Y-32.568
X289.589Y-54.119
X290.323Y-87.917
X290.738Y-47.03
X290.988Y-25.28
X291.23Y-4.554
X291.488Y-55.78
X291.488Y-75.03
X291.98Y-48.554
X292.738Y-36.78
X292.738Y-64.03
X293.473Y-57.104
X293.699Y-91.532
X293.738Y-94.03
X294.19Y-15.639
X294.364Y-56.675
X295.738Y-17.78
X295.98Y-45.554
X297.988Y-82.53
X298.405Y-53.512
X298.488Y-94.03
X298.564Y-50.419
X299.238Y-47.03
X299.384Y-91.532
X300.28Y-53.359
X300.399Y-54.248
X300.988Y-75.03
M30
