%TF.GenerationSoftware,KiCad,Pcbnew,10.0.5*%
%TF.CreationDate,2026-09-22T21:49:02-04:00*%
%TF.ProjectId,Symm60HE-wkl-Right,53796d6d-3630-4484-952d-776b6c2d5269,rev?*%
%TF.SameCoordinates,Original*%
%TF.FileFunction,Legend,Top*%
%TF.FilePolarity,Positive*%
%FSLAX46Y46*%
G04 Gerber Fmt 4.6, Leading zero omitted, Abs format (unit mm)*
G04 Created by KiCad (PCBNEW 10.0.5) date 2026-09-22 21:49:02*
%MOMM*%
%LPD*%
G01*
G04 APERTURE LIST*
%ADD10C,0.150000*%
%ADD11C,0.158750*%
%ADD12C,0.300000*%
%ADD13C,0.200000*%
%ADD14C,2.200000*%
%ADD15C,3.048000*%
%ADD16C,3.987800*%
G04 APERTURE END LIST*
D10*
X271166667Y-18304819D02*
X271166667Y-17304819D01*
X271166667Y-17304819D02*
X271500000Y-18019104D01*
X271500000Y-18019104D02*
X271833333Y-17304819D01*
X271833333Y-17304819D02*
X271833333Y-18304819D01*
X272309524Y-18304819D02*
X272309524Y-17304819D01*
X272309524Y-17781009D02*
X272880952Y-17781009D01*
X272880952Y-18304819D02*
X272880952Y-17304819D01*
X273928571Y-18304819D02*
X273595238Y-17828628D01*
X273357143Y-18304819D02*
X273357143Y-17304819D01*
X273357143Y-17304819D02*
X273738095Y-17304819D01*
X273738095Y-17304819D02*
X273833333Y-17352438D01*
X273833333Y-17352438D02*
X273880952Y-17400057D01*
X273880952Y-17400057D02*
X273928571Y-17495295D01*
X273928571Y-17495295D02*
X273928571Y-17638152D01*
X273928571Y-17638152D02*
X273880952Y-17733390D01*
X273880952Y-17733390D02*
X273833333Y-17781009D01*
X273833333Y-17781009D02*
X273738095Y-17828628D01*
X273738095Y-17828628D02*
X273357143Y-17828628D01*
X274261905Y-17304819D02*
X274880952Y-17304819D01*
X274880952Y-17304819D02*
X274547619Y-17685771D01*
X274547619Y-17685771D02*
X274690476Y-17685771D01*
X274690476Y-17685771D02*
X274785714Y-17733390D01*
X274785714Y-17733390D02*
X274833333Y-17781009D01*
X274833333Y-17781009D02*
X274880952Y-17876247D01*
X274880952Y-17876247D02*
X274880952Y-18114342D01*
X274880952Y-18114342D02*
X274833333Y-18209580D01*
X274833333Y-18209580D02*
X274785714Y-18257200D01*
X274785714Y-18257200D02*
X274690476Y-18304819D01*
X274690476Y-18304819D02*
X274404762Y-18304819D01*
X274404762Y-18304819D02*
X274309524Y-18257200D01*
X274309524Y-18257200D02*
X274261905Y-18209580D01*
D11*
X179253280Y-93443895D02*
X179434709Y-93504371D01*
X179434709Y-93504371D02*
X179737090Y-93504371D01*
X179737090Y-93504371D02*
X179858042Y-93443895D01*
X179858042Y-93443895D02*
X179918518Y-93383418D01*
X179918518Y-93383418D02*
X179978995Y-93262466D01*
X179978995Y-93262466D02*
X179978995Y-93141514D01*
X179978995Y-93141514D02*
X179918518Y-93020561D01*
X179918518Y-93020561D02*
X179858042Y-92960085D01*
X179858042Y-92960085D02*
X179737090Y-92899609D01*
X179737090Y-92899609D02*
X179495185Y-92839133D01*
X179495185Y-92839133D02*
X179374233Y-92778656D01*
X179374233Y-92778656D02*
X179313756Y-92718180D01*
X179313756Y-92718180D02*
X179253280Y-92597228D01*
X179253280Y-92597228D02*
X179253280Y-92476275D01*
X179253280Y-92476275D02*
X179313756Y-92355323D01*
X179313756Y-92355323D02*
X179374233Y-92294847D01*
X179374233Y-92294847D02*
X179495185Y-92234371D01*
X179495185Y-92234371D02*
X179797566Y-92234371D01*
X179797566Y-92234371D02*
X179978995Y-92294847D01*
X181248995Y-93504371D02*
X180825661Y-92899609D01*
X180523280Y-93504371D02*
X180523280Y-92234371D01*
X180523280Y-92234371D02*
X181007090Y-92234371D01*
X181007090Y-92234371D02*
X181128042Y-92294847D01*
X181128042Y-92294847D02*
X181188519Y-92355323D01*
X181188519Y-92355323D02*
X181248995Y-92476275D01*
X181248995Y-92476275D02*
X181248995Y-92657704D01*
X181248995Y-92657704D02*
X181188519Y-92778656D01*
X181188519Y-92778656D02*
X181128042Y-92839133D01*
X181128042Y-92839133D02*
X181007090Y-92899609D01*
X181007090Y-92899609D02*
X180523280Y-92899609D01*
X181672328Y-92234371D02*
X182458519Y-92234371D01*
X182458519Y-92234371D02*
X182035185Y-92718180D01*
X182035185Y-92718180D02*
X182216614Y-92718180D01*
X182216614Y-92718180D02*
X182337566Y-92778656D01*
X182337566Y-92778656D02*
X182398042Y-92839133D01*
X182398042Y-92839133D02*
X182458519Y-92960085D01*
X182458519Y-92960085D02*
X182458519Y-93262466D01*
X182458519Y-93262466D02*
X182398042Y-93383418D01*
X182398042Y-93383418D02*
X182337566Y-93443895D01*
X182337566Y-93443895D02*
X182216614Y-93504371D01*
X182216614Y-93504371D02*
X181853757Y-93504371D01*
X181853757Y-93504371D02*
X181732804Y-93443895D01*
X181732804Y-93443895D02*
X181672328Y-93383418D01*
D10*
X297166667Y-41304819D02*
X297166667Y-40304819D01*
X297166667Y-40304819D02*
X297500000Y-41019104D01*
X297500000Y-41019104D02*
X297833333Y-40304819D01*
X297833333Y-40304819D02*
X297833333Y-41304819D01*
X298309524Y-41304819D02*
X298309524Y-40304819D01*
X298309524Y-40781009D02*
X298880952Y-40781009D01*
X298880952Y-41304819D02*
X298880952Y-40304819D01*
X299928571Y-41304819D02*
X299595238Y-40828628D01*
X299357143Y-41304819D02*
X299357143Y-40304819D01*
X299357143Y-40304819D02*
X299738095Y-40304819D01*
X299738095Y-40304819D02*
X299833333Y-40352438D01*
X299833333Y-40352438D02*
X299880952Y-40400057D01*
X299880952Y-40400057D02*
X299928571Y-40495295D01*
X299928571Y-40495295D02*
X299928571Y-40638152D01*
X299928571Y-40638152D02*
X299880952Y-40733390D01*
X299880952Y-40733390D02*
X299833333Y-40781009D01*
X299833333Y-40781009D02*
X299738095Y-40828628D01*
X299738095Y-40828628D02*
X299357143Y-40828628D01*
X300785714Y-40638152D02*
X300785714Y-41304819D01*
X300547619Y-40257200D02*
X300309524Y-40971485D01*
X300309524Y-40971485D02*
X300928571Y-40971485D01*
X202166667Y-89304819D02*
X202166667Y-88304819D01*
X202166667Y-88304819D02*
X202500000Y-89019104D01*
X202500000Y-89019104D02*
X202833333Y-88304819D01*
X202833333Y-88304819D02*
X202833333Y-89304819D01*
X203309524Y-89304819D02*
X203309524Y-88304819D01*
X203309524Y-88781009D02*
X203880952Y-88781009D01*
X203880952Y-89304819D02*
X203880952Y-88304819D01*
X204928571Y-89304819D02*
X204595238Y-88828628D01*
X204357143Y-89304819D02*
X204357143Y-88304819D01*
X204357143Y-88304819D02*
X204738095Y-88304819D01*
X204738095Y-88304819D02*
X204833333Y-88352438D01*
X204833333Y-88352438D02*
X204880952Y-88400057D01*
X204880952Y-88400057D02*
X204928571Y-88495295D01*
X204928571Y-88495295D02*
X204928571Y-88638152D01*
X204928571Y-88638152D02*
X204880952Y-88733390D01*
X204880952Y-88733390D02*
X204833333Y-88781009D01*
X204833333Y-88781009D02*
X204738095Y-88828628D01*
X204738095Y-88828628D02*
X204357143Y-88828628D01*
X205309524Y-88400057D02*
X205357143Y-88352438D01*
X205357143Y-88352438D02*
X205452381Y-88304819D01*
X205452381Y-88304819D02*
X205690476Y-88304819D01*
X205690476Y-88304819D02*
X205785714Y-88352438D01*
X205785714Y-88352438D02*
X205833333Y-88400057D01*
X205833333Y-88400057D02*
X205880952Y-88495295D01*
X205880952Y-88495295D02*
X205880952Y-88590533D01*
X205880952Y-88590533D02*
X205833333Y-88733390D01*
X205833333Y-88733390D02*
X205261905Y-89304819D01*
X205261905Y-89304819D02*
X205880952Y-89304819D01*
D11*
X282718380Y-67193795D02*
X282899809Y-67254271D01*
X282899809Y-67254271D02*
X283202190Y-67254271D01*
X283202190Y-67254271D02*
X283323142Y-67193795D01*
X283323142Y-67193795D02*
X283383618Y-67133318D01*
X283383618Y-67133318D02*
X283444095Y-67012366D01*
X283444095Y-67012366D02*
X283444095Y-66891414D01*
X283444095Y-66891414D02*
X283383618Y-66770461D01*
X283383618Y-66770461D02*
X283323142Y-66709985D01*
X283323142Y-66709985D02*
X283202190Y-66649509D01*
X283202190Y-66649509D02*
X282960285Y-66589033D01*
X282960285Y-66589033D02*
X282839333Y-66528556D01*
X282839333Y-66528556D02*
X282778856Y-66468080D01*
X282778856Y-66468080D02*
X282718380Y-66347128D01*
X282718380Y-66347128D02*
X282718380Y-66226175D01*
X282718380Y-66226175D02*
X282778856Y-66105223D01*
X282778856Y-66105223D02*
X282839333Y-66044747D01*
X282839333Y-66044747D02*
X282960285Y-65984271D01*
X282960285Y-65984271D02*
X283262666Y-65984271D01*
X283262666Y-65984271D02*
X283444095Y-66044747D01*
X284714095Y-67254271D02*
X284290761Y-66649509D01*
X283988380Y-67254271D02*
X283988380Y-65984271D01*
X283988380Y-65984271D02*
X284472190Y-65984271D01*
X284472190Y-65984271D02*
X284593142Y-66044747D01*
X284593142Y-66044747D02*
X284653619Y-66105223D01*
X284653619Y-66105223D02*
X284714095Y-66226175D01*
X284714095Y-66226175D02*
X284714095Y-66407604D01*
X284714095Y-66407604D02*
X284653619Y-66528556D01*
X284653619Y-66528556D02*
X284593142Y-66589033D01*
X284593142Y-66589033D02*
X284472190Y-66649509D01*
X284472190Y-66649509D02*
X283988380Y-66649509D01*
X285197904Y-66105223D02*
X285258380Y-66044747D01*
X285258380Y-66044747D02*
X285379333Y-65984271D01*
X285379333Y-65984271D02*
X285681714Y-65984271D01*
X285681714Y-65984271D02*
X285802666Y-66044747D01*
X285802666Y-66044747D02*
X285863142Y-66105223D01*
X285863142Y-66105223D02*
X285923619Y-66226175D01*
X285923619Y-66226175D02*
X285923619Y-66347128D01*
X285923619Y-66347128D02*
X285863142Y-66528556D01*
X285863142Y-66528556D02*
X285137428Y-67254271D01*
X285137428Y-67254271D02*
X285923619Y-67254271D01*
D10*
X165166667Y-46304819D02*
X165166667Y-45304819D01*
X165166667Y-45304819D02*
X165500000Y-46019104D01*
X165500000Y-46019104D02*
X165833333Y-45304819D01*
X165833333Y-45304819D02*
X165833333Y-46304819D01*
X166309524Y-46304819D02*
X166309524Y-45304819D01*
X166309524Y-45781009D02*
X166880952Y-45781009D01*
X166880952Y-46304819D02*
X166880952Y-45304819D01*
X167928571Y-46304819D02*
X167595238Y-45828628D01*
X167357143Y-46304819D02*
X167357143Y-45304819D01*
X167357143Y-45304819D02*
X167738095Y-45304819D01*
X167738095Y-45304819D02*
X167833333Y-45352438D01*
X167833333Y-45352438D02*
X167880952Y-45400057D01*
X167880952Y-45400057D02*
X167928571Y-45495295D01*
X167928571Y-45495295D02*
X167928571Y-45638152D01*
X167928571Y-45638152D02*
X167880952Y-45733390D01*
X167880952Y-45733390D02*
X167833333Y-45781009D01*
X167833333Y-45781009D02*
X167738095Y-45828628D01*
X167738095Y-45828628D02*
X167357143Y-45828628D01*
X168880952Y-46304819D02*
X168309524Y-46304819D01*
X168595238Y-46304819D02*
X168595238Y-45304819D01*
X168595238Y-45304819D02*
X168500000Y-45447676D01*
X168500000Y-45447676D02*
X168404762Y-45542914D01*
X168404762Y-45542914D02*
X168309524Y-45590533D01*
%TO.C,MHR3*%
D12*
X275400000Y-21000000D02*
G75*
G02*
X270600000Y-21000000I-2400000J0D01*
G01*
X270600000Y-21000000D02*
G75*
G02*
X275400000Y-21000000I2400000J0D01*
G01*
%TO.C,MHR4*%
X301400000Y-44000000D02*
G75*
G02*
X296600000Y-44000000I-2400000J0D01*
G01*
X296600000Y-44000000D02*
G75*
G02*
X301400000Y-44000000I2400000J0D01*
G01*
%TO.C,MHR2*%
X206400000Y-92000000D02*
G75*
G02*
X201600000Y-92000000I-2400000J0D01*
G01*
X201600000Y-92000000D02*
G75*
G02*
X206400000Y-92000000I2400000J0D01*
G01*
%TO.C,MHR1*%
X169400000Y-49000000D02*
G75*
G02*
X164600000Y-49000000I-2400000J0D01*
G01*
X164600000Y-49000000D02*
G75*
G02*
X169400000Y-49000000I2400000J0D01*
G01*
%TO.C,JR1*%
D13*
X166359000Y-64700000D02*
X166359000Y-51300000D01*
X167209000Y-58000000D02*
X166559000Y-57300000D01*
X167209000Y-58000000D02*
X166559000Y-58700000D01*
%TD*%
%LPC*%
D14*
%TO.C,MHR3*%
X273000000Y-21000000D03*
%TD*%
D15*
%TO.C,SR3*%
X193708259Y-97961555D03*
D16*
X191324198Y-82909185D03*
D15*
X170188930Y-101686651D03*
D16*
X167804869Y-86634281D03*
%TD*%
D14*
%TO.C,MHR4*%
X299000000Y-44000000D03*
%TD*%
%TO.C,MHR2*%
X204000000Y-92000000D03*
%TD*%
D15*
%TO.C,SR2*%
X272414750Y-59690000D03*
D16*
X272414750Y-74930000D03*
D15*
X296227250Y-59690000D03*
D16*
X296227250Y-74930000D03*
%TD*%
D14*
%TO.C,MHR1*%
X167000000Y-49000000D03*
%TD*%
%LPD*%
M02*
