%TF.GenerationSoftware,KiCad,Pcbnew,10.0.5*%
%TF.CreationDate,2026-10-05T15:10:58-04:00*%
%TF.ProjectId,Symm60HE-wkl-Panel,53796d6d-3630-4484-952d-776b6c2d5061,rev?*%
%TF.SameCoordinates,Original*%
%TF.FileFunction,Soldermask,Top*%
%TF.FilePolarity,Negative*%
%FSLAX46Y46*%
G04 Gerber Fmt 4.6, Leading zero omitted, Abs format (unit mm)*
G04 Created by KiCad (PCBNEW 10.0.5) date 2026-10-05 15:10:58*
%MOMM*%
%LPD*%
G01*
G04 APERTURE LIST*
%ADD10C,0.500000*%
%ADD11C,3.048000*%
%ADD12C,3.987800*%
%ADD13C,2.200000*%
%ADD14C,2.000000*%
G04 APERTURE END LIST*
D10*
%TO.C,MB53*%
X144159760Y-52662500D03*
%TD*%
%TO.C,MB57*%
X825640Y-158628900D03*
%TD*%
%TO.C,MB18*%
X72492700Y-659140D03*
%TD*%
%TO.C,MB43*%
X111883380Y-201620570D03*
%TD*%
D11*
%TO.C,L-SL1*%
X6190750Y-59690000D03*
D12*
X6190750Y-74930000D03*
D11*
X30003250Y-59690000D03*
D12*
X30003250Y-74930000D03*
%TD*%
D10*
%TO.C,MB23*%
X72492700Y-101142440D03*
%TD*%
D13*
%TO.C,R-MHR2*%
X46567400Y-198716400D03*
%TD*%
D10*
%TO.C,MB29*%
X73242700Y-201625740D03*
%TD*%
%TO.C,MB55*%
X144159760Y-54162500D03*
%TD*%
%TO.C,MB54*%
X144159760Y-53412500D03*
%TD*%
%TO.C,MB2*%
X32352020Y-350000D03*
%TD*%
D13*
%TO.C,R-MHR1*%
X9567400Y-155716400D03*
%TD*%
D10*
%TO.C,MB13*%
X33102020Y-207791970D03*
%TD*%
%TO.C,MB45*%
X113383380Y-201620570D03*
%TD*%
%TO.C,MB12*%
X32352020Y-207791970D03*
%TD*%
%TO.C,MB40*%
X113383380Y-104070990D03*
%TD*%
D14*
%TO.C,TH4*%
X151138400Y-151587260D03*
%TD*%
D10*
%TO.C,MB1*%
X31602020Y-350000D03*
%TD*%
%TO.C,MB34*%
X112633380Y-5065300D03*
%TD*%
%TO.C,MB11*%
X31602020Y-207791970D03*
%TD*%
D13*
%TO.C,L-MHL2*%
X38000000Y-66000000D03*
%TD*%
D10*
%TO.C,MB17*%
X71742700Y-659140D03*
%TD*%
%TO.C,MB37*%
X111133380Y-104070990D03*
%TD*%
D13*
%TO.C,R-MHR4*%
X141567400Y-150716400D03*
%TD*%
D14*
%TO.C,TH2*%
X151138400Y-60454140D03*
%TD*%
D10*
%TO.C,MB7*%
X32352020Y-103342940D03*
%TD*%
%TO.C,MB6*%
X31602020Y-103342940D03*
%TD*%
%TO.C,MB8*%
X33102020Y-103342940D03*
%TD*%
%TO.C,MB4*%
X33852020Y-350000D03*
%TD*%
%TO.C,MB48*%
X-602850Y-52662500D03*
%TD*%
%TO.C,MB16*%
X70992700Y-659140D03*
%TD*%
%TO.C,MB10*%
X34602020Y-103342940D03*
%TD*%
%TO.C,MB42*%
X111133380Y-201620570D03*
%TD*%
%TO.C,MB60*%
X825640Y-160878900D03*
%TD*%
%TO.C,MB58*%
X825640Y-159378900D03*
%TD*%
%TO.C,MB26*%
X70992700Y-201625740D03*
%TD*%
%TO.C,MB21*%
X70992700Y-101142440D03*
%TD*%
%TO.C,MB46*%
X-602850Y-51162500D03*
%TD*%
%TO.C,MB56*%
X825640Y-157878900D03*
%TD*%
%TO.C,MB3*%
X33102020Y-350000D03*
%TD*%
%TO.C,MB20*%
X73992700Y-659140D03*
%TD*%
%TO.C,MB5*%
X34602020Y-350000D03*
%TD*%
%TO.C,MB38*%
X111883380Y-104070990D03*
%TD*%
%TO.C,MB51*%
X144159760Y-51162500D03*
%TD*%
D11*
%TO.C,R-SR3*%
X36275659Y-204677955D03*
D12*
X33891598Y-189625585D03*
D11*
X12756330Y-208403051D03*
D12*
X10372269Y-193350681D03*
%TD*%
D10*
%TO.C,MB31*%
X110383380Y-5065300D03*
%TD*%
D14*
%TO.C,TH3*%
X-6153000Y-151587260D03*
%TD*%
D10*
%TO.C,MB44*%
X112633380Y-201620570D03*
%TD*%
D13*
%TO.C,L-MHL4*%
X100000000Y-92000000D03*
%TD*%
D10*
%TO.C,MB50*%
X-602850Y-54162500D03*
%TD*%
%TO.C,MB9*%
X33852020Y-103342940D03*
%TD*%
%TO.C,MB22*%
X71742700Y-101142440D03*
%TD*%
%TO.C,MB27*%
X71742700Y-201625740D03*
%TD*%
%TO.C,MB28*%
X72492700Y-201625740D03*
%TD*%
D11*
%TO.C,L-SL2*%
X132228970Y-101686551D03*
D12*
X134613031Y-86634181D03*
D11*
X108709641Y-97961455D03*
D12*
X111093702Y-82909085D03*
%TD*%
D10*
%TO.C,MB25*%
X73992700Y-101142440D03*
%TD*%
%TO.C,MB32*%
X111133380Y-5065300D03*
%TD*%
%TO.C,MB64*%
X145588250Y-160128900D03*
%TD*%
%TO.C,MB59*%
X825640Y-160128900D03*
%TD*%
%TO.C,MB15*%
X34602020Y-207791970D03*
%TD*%
%TO.C,MB49*%
X-602850Y-53412500D03*
%TD*%
D13*
%TO.C,R-MHR3*%
X115567400Y-127716400D03*
%TD*%
D10*
%TO.C,MB62*%
X145588250Y-158628900D03*
%TD*%
%TO.C,MB30*%
X73992700Y-201625740D03*
%TD*%
%TO.C,MB39*%
X112633380Y-104070990D03*
%TD*%
%TO.C,MB41*%
X110383380Y-201620570D03*
%TD*%
%TO.C,MB36*%
X110383380Y-104070990D03*
%TD*%
%TO.C,MB33*%
X111883380Y-5065300D03*
%TD*%
%TO.C,MB61*%
X145588250Y-157878900D03*
%TD*%
D13*
%TO.C,L-MHL1*%
X28000000Y-22000000D03*
%TD*%
D10*
%TO.C,MB14*%
X33852020Y-207791970D03*
%TD*%
%TO.C,MB52*%
X144159760Y-51912500D03*
%TD*%
D13*
%TO.C,L-MHL3*%
X137000000Y-50000000D03*
%TD*%
D10*
%TO.C,MB35*%
X113383380Y-5065300D03*
%TD*%
%TO.C,MB19*%
X73242700Y-659140D03*
%TD*%
%TO.C,MB24*%
X73242700Y-101142440D03*
%TD*%
D14*
%TO.C,TH1*%
X-6153000Y-60454140D03*
%TD*%
D10*
%TO.C,MB47*%
X-602850Y-51912500D03*
%TD*%
%TO.C,MB63*%
X145588250Y-159378900D03*
%TD*%
D11*
%TO.C,R-SR2*%
X114982150Y-166406400D03*
D12*
X114982150Y-181646400D03*
D11*
X138794650Y-166406400D03*
D12*
X138794650Y-181646400D03*
%TD*%
D10*
%TO.C,MB65*%
X145588250Y-160878900D03*
%TD*%
M02*
