  0
SECTION
  2
HEADER
  9
$ACADVER
  1
AC1024
  9
$ACADMAINTVER
 70
6
  9
$DWGCODEPAGE
  3
ANSI_1252
  9
$LASTSAVEDBY
  1
ezdxf
  9
$INSBASE
 10
0.0
 20
0.0
 30
0.0
  9
$EXTMIN
 10
1e+20
 20
1e+20
 30
1e+20
  9
$EXTMAX
 10
-1e+20
 20
-1e+20
 30
-1e+20
  9
$LIMMIN
 10
0.0
 20
0.0
  9
$LIMMAX
 10
420.0
 20
297.0
  9
$ORTHOMODE
 70
0
  9
$REGENMODE
 70
1
  9
$FILLMODE
 70
1
  9
$QTEXTMODE
 70
0
  9
$MIRRTEXT
 70
1
  9
$LTSCALE
 40
1.0
  9
$ATTMODE
 70
1
  9
$TEXTSIZE
 40
2.5
  9
$TRACEWID
 40
1.0
  9
$TEXTSTYLE
  7
Standard
  9
$CLAYER
  8
0
  9
$CELTYPE
  6
ByLayer
  9
$CECOLOR
 62
256
  9
$CELTSCALE
 40
1.0
  9
$DISPSILH
 70
0
  9
$DIMSCALE
 40
1.0
  9
$DIMASZ
 40
2.5
  9
$DIMEXO
 40
0.625
  9
$DIMDLI
 40
3.75
  9
$DIMRND
 40
0.0
  9
$DIMDLE
 40
0.0
  9
$DIMEXE
 40
1.25
  9
$DIMTP
 40
0.0
  9
$DIMTM
 40
0.0
  9
$DIMTXT
 40
2.5
  9
$DIMCEN
 40
2.5
  9
$DIMTSZ
 40
0.0
  9
$DIMTOL
 70
0
  9
$DIMLIM
 70
0
  9
$DIMTIH
 70
0
  9
$DIMTOH
 70
0
  9
$DIMSE1
 70
0
  9
$DIMSE2
 70
0
  9
$DIMTAD
 70
1
  9
$DIMZIN
 70
8
  9
$DIMBLK
  1

  9
$DIMASO
 70
1
  9
$DIMSHO
 70
1
  9
$DIMPOST
  1

  9
$DIMAPOST
  1

  9
$DIMALT
 70
0
  9
$DIMALTD
 70
3
  9
$DIMALTF
 40
0.03937007874
  9
$DIMLFAC
 40
1.0
  9
$DIMTOFL
 70
1
  9
$DIMTVP
 40
0.0
  9
$DIMTIX
 70
0
  9
$DIMSOXD
 70
0
  9
$DIMSAH
 70
0
  9
$DIMBLK1
  1

  9
$DIMBLK2
  1

  9
$DIMSTYLE
  2
ISO-25
  9
$DIMCLRD
 70
0
  9
$DIMCLRE
 70
0
  9
$DIMCLRT
 70
0
  9
$DIMTFAC
 40
1.0
  9
$DIMGAP
 40
0.625
  9
$DIMJUST
 70
0
  9
$DIMSD1
 70
0
  9
$DIMSD2
 70
0
  9
$DIMTOLJ
 70
0
  9
$DIMTZIN
 70
8
  9
$DIMALTZ
 70
0
  9
$DIMALTTZ
 70
0
  9
$DIMUPT
 70
0
  9
$DIMDEC
 70
2
  9
$DIMTDEC
 70
2
  9
$DIMALTU
 70
2
  9
$DIMALTTD
 70
3
  9
$DIMTXSTY
  7
Standard
  9
$DIMAUNIT
 70
0
  9
$DIMADEC
 70
0
  9
$DIMALTRND
 40
0.0
  9
$DIMAZIN
 70
0
  9
$DIMDSEP
 70
44
  9
$DIMATFIT
 70
3
  9
$DIMFRAC
 70
0
  9
$DIMLDRBLK
  1

  9
$DIMLUNIT
 70
2
  9
$DIMLWD
 70
-2
  9
$DIMLWE
 70
-2
  9
$DIMTMOVE
 70
0
  9
$DIMFXL
 40
1.0
  9
$DIMFXLON
 70
0
  9
$DIMJOGANG
 40
0.785398163397
  9
$DIMTFILL
 70
0
  9
$DIMTFILLCLR
 70
0
  9
$DIMARCSYM
 70
0
  9
$DIMLTYPE
  6

  9
$DIMLTEX1
  6

  9
$DIMLTEX2
  6

  9
$DIMTXTDIRECTION
 70
0
  9
$LUNITS
 70
2
  9
$LUPREC
 70
4
  9
$SKETCHINC
 40
1.0
  9
$FILLETRAD
 40
10.0
  9
$AUNITS
 70
0
  9
$AUPREC
 70
2
  9
$MENU
  1
.
  9
$ELEVATION
 40
0.0
  9
$PELEVATION
 40
0.0
  9
$THICKNESS
 40
0.0
  9
$LIMCHECK
 70
0
  9
$CHAMFERA
 40
0.0
  9
$CHAMFERB
 40
0.0
  9
$CHAMFERC
 40
0.0
  9
$CHAMFERD
 40
0.0
  9
$SKPOLY
 70
0
  9
$TDCREATE
 40
2461294.516886574
  9
$TDUCREATE
 40
2458532.153996898
  9
$TDUPDATE
 40
2461294.516886574
  9
$TDUUPDATE
 40
2458532.1544311
  9
$TDINDWG
 40
0.0
  9
$TDUSRTIMER
 40
0.0
  9
$USRTIMER
 70
1
  9
$ANGBASE
 50
0.0
  9
$ANGDIR
 70
0
  9
$PDMODE
 70
0
  9
$PDSIZE
 40
0.0
  9
$PLINEWID
 40
0.0
  9
$SPLFRAME
 70
0
  9
$SPLINETYPE
 70
6
  9
$SPLINESEGS
 70
8
  9
$HANDSEED
  5
79
  9
$SURFTAB1
 70
6
  9
$SURFTAB2
 70
6
  9
$SURFTYPE
 70
6
  9
$SURFU
 70
6
  9
$SURFV
 70
6
  9
$UCSBASE
  2

  9
$UCSNAME
  2

  9
$UCSORG
 10
0.0
 20
0.0
 30
0.0
  9
$UCSXDIR
 10
1.0
 20
0.0
 30
0.0
  9
$UCSYDIR
 10
0.0
 20
1.0
 30
0.0
  9
$UCSORTHOREF
  2

  9
$UCSORTHOVIEW
 70
0
  9
$UCSORGTOP
 10
0.0
 20
0.0
 30
0.0
  9
$UCSORGBOTTOM
 10
0.0
 20
0.0
 30
0.0
  9
$UCSORGLEFT
 10
0.0
 20
0.0
 30
0.0
  9
$UCSORGRIGHT
 10
0.0
 20
0.0
 30
0.0
  9
$UCSORGFRONT
 10
0.0
 20
0.0
 30
0.0
  9
$UCSORGBACK
 10
0.0
 20
0.0
 30
0.0
  9
$PUCSBASE
  2

  9
$PUCSNAME
  2

  9
$PUCSORG
 10
0.0
 20
0.0
 30
0.0
  9
$PUCSXDIR
 10
1.0
 20
0.0
 30
0.0
  9
$PUCSYDIR
 10
0.0
 20
1.0
 30
0.0
  9
$PUCSORTHOREF
  2

  9
$PUCSORTHOVIEW
 70
0
  9
$PUCSORGTOP
 10
0.0
 20
0.0
 30
0.0
  9
$PUCSORGBOTTOM
 10
0.0
 20
0.0
 30
0.0
  9
$PUCSORGLEFT
 10
0.0
 20
0.0
 30
0.0
  9
$PUCSORGRIGHT
 10
0.0
 20
0.0
 30
0.0
  9
$PUCSORGFRONT
 10
0.0
 20
0.0
 30
0.0
  9
$PUCSORGBACK
 10
0.0
 20
0.0
 30
0.0
  9
$USERI1
 70
0
  9
$USERI2
 70
0
  9
$USERI3
 70
0
  9
$USERI4
 70
0
  9
$USERI5
 70
0
  9
$USERR1
 40
0.0
  9
$USERR2
 40
0.0
  9
$USERR3
 40
0.0
  9
$USERR4
 40
0.0
  9
$USERR5
 40
0.0
  9
$WORLDVIEW
 70
1
  9
$SHADEDGE
 70
3
  9
$SHADEDIF
 70
70
  9
$TILEMODE
 70
1
  9
$MAXACTVP
 70
64
  9
$PINSBASE
 10
0.0
 20
0.0
 30
0.0
  9
$PLIMCHECK
 70
0
  9
$PEXTMIN
 10
1e+20
 20
1e+20
 30
1e+20
  9
$PEXTMAX
 10
-1e+20
 20
-1e+20
 30
-1e+20
  9
$PLIMMIN
 10
0.0
 20
0.0
  9
$PLIMMAX
 10
420.0
 20
297.0
  9
$UNITMODE
 70
0
  9
$VISRETAIN
 70
1
  9
$PLINEGEN
 70
0
  9
$PSLTSCALE
 70
1
  9
$TREEDEPTH
 70
3020
  9
$CMLSTYLE
  2
Standard
  9
$CMLJUST
 70
0
  9
$CMLSCALE
 40
20.0
  9
$PROXYGRAPHICS
 70
1
  9
$MEASUREMENT
 70
1
  9
$CELWEIGHT
370
-1
  9
$ENDCAPS
280
0
  9
$JOINSTYLE
280
0
  9
$LWDISPLAY
290
0
  9
$INSUNITS
 70
4
  9
$HYPERLINKBASE
  1

  9
$STYLESHEET
  1

  9
$XEDIT
290
1
  9
$CEPSNTYPE
380
0
  9
$PSTYLEMODE
290
1
  9
$FINGERPRINTGUID
  2
{BF5DB2EB-38E3-49D3-8755-F11577EC2EDE}
  9
$VERSIONGUID
  2
{FCD3E74F-5A76-402C-B6B1-F0C864E0188B}
  9
$EXTNAMES
290
1
  9
$PSVPSCALE
 40
0.0
  9
$OLESTARTUP
290
0
  9
$SORTENTS
280
127
  9
$INDEXCTL
280
0
  9
$HIDETEXT
280
1
  9
$XCLIPFRAME
280
1
  9
$HALOGAP
280
0
  9
$OBSCOLOR
 70
257
  9
$OBSLTYPE
280
0
  9
$INTERSECTIONDISPLAY
280
0
  9
$INTERSECTIONCOLOR
 70
257
  9
$DIMASSOC
280
2
  9
$PROJECTNAME
  1

  9
$CAMERADISPLAY
290
0
  9
$LENSLENGTH
 40
50.0
  9
$CAMERAHEIGHT
 40
0.0
  9
$STEPSPERSEC
 40
24.0
  9
$STEPSIZE
 40
100.0
  9
$3DDWFPREC
 40
2.0
  9
$PSOLWIDTH
 40
0.005
  9
$PSOLHEIGHT
 40
0.08
  9
$LOFTANG1
 40
1.570796326795
  9
$LOFTANG2
 40
1.570796326795
  9
$LOFTMAG1
 40
0.0
  9
$LOFTMAG2
 40
0.0
  9
$LOFTPARAM
 70
7
  9
$LOFTNORMALS
280
1
  9
$LATITUDE
 40
37.795
  9
$LONGITUDE
 40
-122.394
  9
$NORTHDIRECTION
 40
0.0
  9
$TIMEZONE
 70
-8000
  9
$LIGHTGLYPHDISPLAY
280
1
  9
$TILEMODELIGHTSYNCH
280
1
  9
$CMATERIAL
347
20
  9
$SOLIDHIST
280
0
  9
$SHOWHIST
280
1
  9
$DWFFRAME
280
2
  9
$DGNFRAME
280
2
  9
$REALWORLDSCALE
290
1
  9
$INTERFERECOLOR
 62
256
  9
$CSHADOW
280
0
  9
$SHADOWPLANELOCATION
 40
0.0
  0
ENDSEC
  0
SECTION
  2
CLASSES
  0
CLASS
  1
ACDBDICTIONARYWDFLT
  2
AcDbDictionaryWithDefault
  3
ObjectDBX Classes
 90
0
 91
0
280
0
281
0
  0
CLASS
  1
SUN
  2
AcDbSun
  3
SCENEOE
 90
1153
 91
0
280
0
281
0
  0
CLASS
  1
VISUALSTYLE
  2
AcDbVisualStyle
  3
ObjectDBX Classes
 90
4095
 91
0
280
0
281
0
  0
CLASS
  1
MATERIAL
  2
AcDbMaterial
  3
ObjectDBX Classes
 90
1153
 91
0
280
0
281
0
  0
CLASS
  1
SCALE
  2
AcDbScale
  3
ObjectDBX Classes
 90
1153
 91
0
280
0
281
0
  0
CLASS
  1
TABLESTYLE
  2
AcDbTableStyle
  3
ObjectDBX Classes
 90
4095
 91
0
280
0
281
0
  0
CLASS
  1
MLEADERSTYLE
  2
AcDbMLeaderStyle
  3
ACDB_MLEADERSTYLE_CLASS
 90
4095
 91
0
280
0
281
0
  0
CLASS
  1
DICTIONARYVAR
  2
AcDbDictionaryVar
  3
ObjectDBX Classes
 90
0
 91
0
280
0
281
0
  0
CLASS
  1
CELLSTYLEMAP
  2
AcDbCellStyleMap
  3
ObjectDBX Classes
 90
1152
 91
0
280
0
281
0
  0
CLASS
  1
MENTALRAYRENDERSETTINGS
  2
AcDbMentalRayRenderSettings
  3
SCENEOE
 90
1024
 91
0
280
0
281
0
  0
CLASS
  1
ACDBDETAILVIEWSTYLE
  2
AcDbDetailViewStyle
  3
ObjectDBX Classes
 90
1025
 91
0
280
0
281
0
  0
CLASS
  1
ACDBSECTIONVIEWSTYLE
  2
AcDbSectionViewStyle
  3
ObjectDBX Classes
 90
1025
 91
0
280
0
281
0
  0
CLASS
  1
RASTERVARIABLES
  2
AcDbRasterVariables
  3
ISM
 90
0
 91
0
280
0
281
0
  0
CLASS
  1
LAYOUT
  2
AcDbLayout
  3
ObjectDBX Classes
 90
0
 91
0
280
0
281
0
  0
CLASS
  1
ACDBPLACEHOLDER
  2
AcDbPlaceHolder
  3
ObjectDBX Classes
 90
0
 91
0
280
0
281
0
  0
ENDSEC
  0
SECTION
  2
TABLES
  0
TABLE
  2
VPORT
  5
8
330
0
100
AcDbSymbolTable
 70
1
  0
VPORT
  5
23
330
8
100
AcDbSymbolTableRecord
100
AcDbViewportTableRecord
  2
*Active
 70
0
 10
0.0
 20
0.0
 11
1.0
 21
1.0
 12
0.0
 22
0.0
 13
0.0
 23
0.0
 14
0.5
 24
0.5
 15
0.5
 25
0.5
 16
0.0
 26
0.0
 36
1.0
 17
0.0
 27
0.0
 37
0.0
 40
1000.0
 41
1.34
 42
50.0
 43
0.0
 44
0.0
 50
0.0
 51
0.0
 71
0
 72
1000
 73
1
 74
3
 75
0
 76
0
 77
0
 78
0
281
0
 65
0
146
0.0
  0
ENDTAB
  0
TABLE
  2
LTYPE
  5
2
330
0
100
AcDbSymbolTable
 70
3
  0
LTYPE
  5
24
330
2
100
AcDbSymbolTableRecord
100
AcDbLinetypeTableRecord
  2
ByBlock
 70
0
  3

 72
65
 73
0
 40
0.0
  0
LTYPE
  5
25
330
2
100
AcDbSymbolTableRecord
100
AcDbLinetypeTableRecord
  2
ByLayer
 70
0
  3

 72
65
 73
0
 40
0.0
  0
LTYPE
  5
26
330
2
100
AcDbSymbolTableRecord
100
AcDbLinetypeTableRecord
  2
Continuous
 70
0
  3

 72
65
 73
0
 40
0.0
  0
ENDTAB
  0
TABLE
  2
LAYER
  5
1
330
0
100
AcDbSymbolTable
 70
5
  0
LAYER
  5
27
330
1
100
AcDbSymbolTableRecord
100
AcDbLayerTableRecord
  2
0
 70
0
 62
7
  6
Continuous
370
-3
390
13
347
21
  0
LAYER
  5
28
330
1
100
AcDbSymbolTableRecord
100
AcDbLayerTableRecord
  2
Defpoints
 70
0
 62
7
  6
Continuous
290
0
370
-3
390
13
347
21
  0
LAYER
  5
2F
330
1
100
AcDbSymbolTableRecord
100
AcDbLayerTableRecord
  2
PLATE_OUTLINE
 70
0
 62
7
  6
Continuous
370
-3
390
13
347
21
  0
LAYER
  5
30
330
1
100
AcDbSymbolTableRecord
100
AcDbLayerTableRecord
  2
SWITCH_CUTOUTS
 70
0
 62
3
  6
Continuous
370
-3
390
13
347
21
  0
LAYER
  5
31
330
1
100
AcDbSymbolTableRecord
100
AcDbLayerTableRecord
  2
STAB_CLEARANCE
 70
0
 62
1
  6
Continuous
370
-3
390
13
347
21
  0
ENDTAB
  0
TABLE
  2
STYLE
  5
5
330
0
100
AcDbSymbolTable
 70
1
  0
STYLE
  5
29
330
5
100
AcDbSymbolTableRecord
100
AcDbTextStyleTableRecord
  2
Standard
 70
0
 40
0.0
 41
1.0
 50
0.0
 71
0
 42
2.5
  3
txt
  4

  0
ENDTAB
  0
TABLE
  2
VIEW
  5
7
330
0
100
AcDbSymbolTable
 70
0
  0
ENDTAB
  0
TABLE
  2
UCS
  5
6
330
0
100
AcDbSymbolTable
 70
0
  0
ENDTAB
  0
TABLE
  2
APPID
  5
3
330
0
100
AcDbSymbolTable
 70
3
  0
APPID
  5
2A
330
3
100
AcDbSymbolTableRecord
100
AcDbRegAppTableRecord
  2
ACAD
 70
0
  0
APPID
  5
76
330
3
100
AcDbSymbolTableRecord
100
AcDbRegAppTableRecord
  2
HATCHBACKGROUNDCOLOR
 70
0
  0
APPID
  5
77
330
3
100
AcDbSymbolTableRecord
100
AcDbRegAppTableRecord
  2
EZDXF
 70
0
  0
ENDTAB
  0
TABLE
  2
DIMSTYLE
  5
4
330
0
100
AcDbSymbolTable
 70
1
100
AcDbDimStyleTable
  0
DIMSTYLE
105
2B
330
4
100
AcDbSymbolTableRecord
100
AcDbDimStyleTableRecord
  2
Standard
 70
0
 40
1.0
 41
2.5
 42
0.625
 43
3.75
 44
1.25
 45
0.0
 46
0.0
 47
0.0
 48
0.0
 49
2.5
140
2.5
141
2.5
142
0.0
143
0.03937007874
144
1.0
145
0.0
146
1.0
147
0.625
148
0.0
 69
0
 70
0
 71
0
 72
0
 73
0
 74
0
 75
0
 76
0
 77
1
 78
8
 79
3
170
0
171
3
172
1
173
0
174
0
175
0
176
0
177
0
178
0
179
2
271
2
272
2
273
2
274
3
275
0
276
0
277
2
278
44
279
0
280
0
281
0
282
0
283
0
284
8
285
0
286
0
288
0
289
3
290
0
371
-2
372
-2
  0
ENDTAB
  0
TABLE
  2
BLOCK_RECORD
  5
9
330
0
100
AcDbSymbolTable
 70
2
  0
BLOCK_RECORD
  5
17
330
9
100
AcDbSymbolTableRecord
100
AcDbBlockTableRecord
  2
*Model_Space
340
1A
 70
0
280
1
281
0
  0
BLOCK_RECORD
  5
1B
330
9
100
AcDbSymbolTableRecord
100
AcDbBlockTableRecord
  2
*Paper_Space
340
1E
 70
0
280
1
281
0
  0
ENDTAB
  0
ENDSEC
  0
SECTION
  2
BLOCKS
  0
BLOCK
  5
18
330
17
100
AcDbEntity
  8
0
100
AcDbBlockBegin
  2
*Model_Space
 70
0
 10
0.0
 20
0.0
 30
0.0
  3
*Model_Space
  1

  0
ENDBLK
  5
19
330
17
100
AcDbEntity
  8
0
100
AcDbBlockEnd
  0
BLOCK
  5
1C
330
1B
100
AcDbEntity
  8
0
100
AcDbBlockBegin
  2
*Paper_Space
 70
0
 10
0.0
 20
0.0
 30
0.0
  3
*Paper_Space
  1

  0
ENDBLK
  5
1D
330
1B
100
AcDbEntity
  8
0
100
AcDbBlockEnd
  0
ENDSEC
  0
SECTION
  2
ENTITIES
  0
LWPOLYLINE
  5
32
330
17
100
AcDbEntity
  8
PLATE_OUTLINE
100
AcDbPolyline
 90
95
 70
1
 10
-13.978000000000002
 20
76.15733154731811
 10
-13.962039355252543
 20
76.67837792160313
 10
-13.961314483006818
 20
76.69019879938581
 10
-13.833990821729977
 20
77.7244623485779
 10
-13.83182706712122
 20
77.73610609184715
 10
-13.720938858860348
 20
78.24546634903732
 10
-8.977159875133884
 20
97.22058228394317
 10
-8.864750425143777
 20
97.62713383578097
 10
-8.862208457762772
 20
97.63551333592594
 10
-8.581903816022825
 20
98.41774224311628
 10
-8.230896924529507
 20
99.15719024967343
 10
-7.808447589413638
 20
99.85827922515175
 10
-7.318701831909513
 20
100.5141285106465
 10
-6.76646613682214
 20
101.1183014406495
 10
-6.15716028050765
 20
101.66486851406152
 10
-5.496764139861605
 20
102.14846558776743
 10
-4.791759004341956
 20
102.56434652165103
 10
-4.049063967007079
 20
102.9084297583764
 10
-3.275968018842512
 20
103.17733838079084
 10
-2.480058512818037
 20
103.36843325381716
 10
-1.6568559531899674
 20
103.48152746784521
 10
-1.6481324765420213
 20
103.48228810969239
 10
-1.2271424094961005
 20
103.50850665655
 10
143.04838124181944
 20
108.90997924885157
 10
143.20718140953787
 20
108.91444117823573
 10
143.22384005766884
 20
108.91475372493733
 10
143.38269583642162
 20
108.91625160198727
 10
156.65231632689543
 20
108.91755387848704
 10
156.81204526003563
 20
108.91607093166871
 10
156.82879544759206
 20
108.91575823803862
 10
156.98846843769158
 20
108.91127856822989
 10
301.2647155068116
 20
103.50850422433543
 10
301.68570246478356
 20
103.48228221422619
 10
301.6944258904418
 20
103.48152150225968
 10
302.5176218971159
 20
103.36842135794363
 10
303.313524531691
 20
103.17732185061028
 10
304.0866133660814
 20
102.90840982118961
 10
304.82930122095956
 20
102.56432440208118
 10
305.53429927557266
 20
102.14844248564569
 10
306.194688601037
 20
101.66484558300927
 10
306.8039880634699
 20
101.11827976766284
 10
307.3562179305559
 20
100.51410909697076
 10
307.8459585573003
 20
99.85826296871915
 10
308.2684035750244
 20
99.15717792935064
 10
308.6194070616001
 20
98.41773450498462
 10
308.8997092547866
 20
97.63551075915225
 10
308.9022512063468
 20
97.62713130092445
 10
309.0146598177819
 20
97.22058251335137
 10
313.7584388588604
 20
78.24546634903699
 10
313.86932706712076
 20
77.73610609184962
 10
313.87149082172925
 20
77.7244623485819
 10
313.9988144830072
 20
76.69019879937935
 10
313.99953935525303
 20
76.67837792159497
 10
314.01550000000003
 20
76.1573315473182
 10
314.01550000000003
 20
0.03363713976699114
 10
314.0052457640297
 20
-0.38407412422212595
 10
314.0048352206132
 20
-0.3924309274455775
 10
313.92415512424145
 20
-1.2115896927949885
 10
313.7659694121049
 20
-2.006842970508529
 10
313.5305969552897
 20
-2.7827619751802453
 10
313.22030451922257
 20
-3.5318741826349926
 10
312.838080389686
 20
-4.246965232808351
 10
312.3876055939923
 20
-4.921148407978946
 10
311.8732184506789
 20
-5.547930955623345
 10
311.29987278912824
 20
-6.121276617173866
 10
310.6730902414831
 20
-6.635663760487611
 10
309.998907066313
 20
-7.08613855618081
 10
309.28381601613944
 20
-7.468362685717235
 10
308.53470380868447
 20
-7.778655121784247
 10
307.75878480401286
 20
-8.014027578599226
 10
306.9635315262993
 20
-8.1722132907356
 10
306.1443727609501
 20
-8.252893387107108
 10
306.136015957727
 20
-8.253303930523598
 10
305.71830469373964
 20
-8.263558166493855
 10
-5.6808046937397405
 20
-8.263558166493855
 10
-6.098515957727518
 20
-8.253303930523575
 10
-6.106872760950696
 20
-8.252893387107077
 10
-6.9260315262999885
 20
-8.172213290735504
 10
-7.721284804013459
 20
-8.014027578599084
 10
-8.497203808685331
 20
-7.778655121783962
 10
-9.246316016140097
 20
-7.468362685716951
 10
-9.961407066313587
 20
-7.086138556180476
 10
-10.635590241484122
 20
-6.635663760486923
 10
-11.262372789128769
 20
-6.121276617173409
 10
-11.835718450679526
 20
-5.547930955622656
 10
-12.35010559399304
 20
-4.921148407978014
 10
-12.800580389686594
 20
-4.246965232807492
 10
-13.182804519223073
 20
-3.531874182634003
 10
-13.493096955290097
 20
-2.7827619751792154
 10
-13.728469412105213
 20
-2.0068429705073796
 10
-13.886655124241642
 20
-1.2115896927938907
 10
-13.967335220613222
 20
-0.39243092744457503
 10
-13.96774576402972
 20
-0.38407412422142284
 10
-13.978000000000002
 20
0.03363713976641223
 10
-13.978000000000002
 20
76.15733154731811
  0
LWPOLYLINE
  5
33
330
17
100
AcDbEntity
  8
SWITCH_CUTOUTS
100
AcDbPolyline
 90
13
 70
1
 10
265.41568971438716
 20
59.675689714387154
 10
265.415
 20
59.68972917326508
 10
265.415
 20
73.66027082673492
 10
265.41568971438716
 20
73.67431028561285
 10
265.42972917326534
 20
73.675
 10
300.8315208267347
 20
73.675
 10
300.84556028561286
 20
73.67431028561285
 10
300.84625
 20
73.66027082673492
 10
300.84625
 20
59.68972917326508
 10
300.84556028561286
 20
59.675689714387154
 10
300.8315208267347
 20
59.675
 10
265.42972917326534
 20
59.675
 10
265.41568971438716
 20
59.675689714387154
  0
LWPOLYLINE
  5
34
330
17
100
AcDbEntity
  8
SWITCH_CUTOUTS
100
AcDbPolyline
 90
53
 70
1
 10
246.365
 20
92.71027082673479
 10
246.36568971438714
 20
92.72431028561286
 10
246.37972917326533
 20
92.72500000000001
 10
265.1127708267347
 20
92.72500000000001
 10
265.1274290750048
 20
92.72427988643936
 10
265.1292932134897
 20
92.72400336761629
 10
265.1832117153267
 20
92.71327831077032
 10
265.24180939540355
 20
92.70750694302608
 10
265.30069060459647
 20
92.70750694302608
 10
265.3592882846733
 20
92.71327831077032
 10
265.41320678651033
 20
92.72400336761629
 10
265.41507092499523
 20
92.72427988643936
 10
265.42972917326534
 20
92.72500000000001
 10
279.4002708267347
 20
92.72500000000001
 10
279.4149290750048
 20
92.72427988643936
 10
279.4167932134897
 20
92.72400336761629
 10
279.47071171532673
 20
92.71327831077032
 10
279.5293093954036
 20
92.70750694302608
 10
279.5881906045965
 20
92.70750694302608
 10
279.64678828467333
 20
92.71327831077032
 10
279.70070678651035
 20
92.72400336761629
 10
279.70257092499526
 20
92.72427988643936
 10
279.71722917326537
 20
92.72500000000001
 10
298.4502708267347
 20
92.72500000000001
 10
298.4643102856129
 20
92.72431028561286
 10
298.46500000000003
 20
92.71027082673493
 10
298.46500000000003
 20
78.73972917326509
 10
298.4643102856129
 20
78.72568971438716
 10
298.4502708267347
 20
78.72500000000001
 10
279.71722917326537
 20
78.72500000000001
 10
279.70257092499526
 20
78.72572011356066
 10
279.70070678651035
 20
78.72599663238373
 10
279.64678828467333
 20
78.7367216892297
 10
279.5881906045965
 20
78.74249305697394
 10
279.5293093954036
 20
78.74249305697394
 10
279.47071171532673
 20
78.7367216892297
 10
279.4167932134897
 20
78.72599663238373
 10
279.4149290750048
 20
78.72572011356066
 10
279.4002708267347
 20
78.72500000000001
 10
265.42972917326534
 20
78.72500000000001
 10
265.41507092499523
 20
78.72572011356066
 10
265.41320678651033
 20
78.72599663238373
 10
265.3592882846733
 20
78.7367216892297
 10
265.30069060459647
 20
78.74249305697394
 10
265.24180939540355
 20
78.74249305697394
 10
265.1832117153267
 20
78.7367216892297
 10
265.1292932134897
 20
78.72599663238373
 10
265.1274290750048
 20
78.72572011356066
 10
265.1127708267347
 20
78.72500000000001
 10
246.37972917326533
 20
78.72500000000001
 10
246.36568971438714
 20
78.72568971438716
 10
246.365
 20
78.73972917326523
 10
246.365
 20
92.71027082673479
  0
LWPOLYLINE
  5
35
330
17
100
AcDbEntity
  8
SWITCH_CUTOUTS
100
AcDbPolyline
 90
13
 70
1
 10
262.55818971438714
 20
2.5256897143871546
 10
262.5575
 20
2.539729173265078
 10
262.5575
 20
16.51027082673492
 10
262.55818971438714
 20
16.524310285612845
 10
262.5722291732653
 20
16.525
 10
295.5927708267347
 20
16.525
 10
295.6068102856129
 20
16.524310285612845
 10
295.6075
 20
16.51027082673492
 10
295.6075
 20
2.539729173265078
 10
295.6068102856129
 20
2.5256897143871546
 10
295.59277082673464
 20
2.5250000000000004
 10
262.5722291732654
 20
2.5250000000000004
 10
262.55818971438714
 20
2.5256897143871546
  0
LWPOLYLINE
  5
36
330
17
100
AcDbEntity
  8
SWITCH_CUTOUTS
100
AcDbPolyline
 90
13
 70
1
 10
278.75
 20
35.56027082673492
 10
278.75068971438714
 20
35.574310285612846
 10
278.7647291732653
 20
35.575
 10
292.7352708267347
 20
35.575
 10
292.74931028561286
 20
35.574310285612846
 10
292.75
 20
35.56027082673492
 10
292.75
 20
21.58972917326508
 10
292.74931028561286
 20
21.575689714387156
 10
292.7352708267347
 20
21.575000000000003
 10
278.7647291732653
 20
21.575000000000003
 10
278.75068971438714
 20
21.575689714387156
 10
278.75
 20
21.58972917326508
 10
278.75
 20
35.56027082673492
  0
LWPOLYLINE
  5
37
330
17
100
AcDbEntity
  8
SWITCH_CUTOUTS
100
AcDbPolyline
 90
13
 70
1
 10
277.32125
 20
54.61027082673492
 10
277.32193971438716
 20
54.62431028561284
 10
277.33597917326534
 20
54.625
 10
291.3065208267347
 20
54.625
 10
291.3205602856129
 20
54.62431028561284
 10
291.32125
 20
54.61027082673492
 10
291.32125
 20
40.63972917326508
 10
291.3205602856129
 20
40.62568971438716
 10
291.3065208267347
 20
40.625
 10
277.33597917326534
 20
40.625
 10
277.32193971438716
 20
40.62568971438716
 10
277.32125
 20
40.63972917326508
 10
277.32125
 20
54.61027082673492
  0
LWPOLYLINE
  5
38
330
17
100
AcDbEntity
  8
SWITCH_CUTOUTS
100
AcDbPolyline
 90
13
 70
1
 10
254.9375
 20
35.56027082673477
 10
254.93818971438714
 20
35.57431028561285
 10
254.95222917326538
 20
35.575
 10
268.9227708267347
 20
35.575
 10
268.93681028561286
 20
35.574310285612846
 10
268.9375
 20
35.56027082673492
 10
268.9375
 20
21.58972917326508
 10
268.93681028561286
 20
21.575689714387156
 10
268.9227708267347
 20
21.575000000000003
 10
254.95222917326538
 20
21.575000000000003
 10
254.93818971438714
 20
21.575689714387156
 10
254.9375
 20
21.589729173265226
 10
254.9375
 20
35.56027082673477
  0
LWPOLYLINE
  5
39
330
17
100
AcDbEntity
  8
SWITCH_CUTOUTS
100
AcDbPolyline
 90
13
 70
1
 10
251.1275
 20
54.61027082673477
 10
251.12818971438713
 20
54.62431028561285
 10
251.14222917326538
 20
54.625
 10
265.1127708267347
 20
54.625
 10
265.12681028561286
 20
54.62431028561284
 10
265.1275
 20
54.61027082673492
 10
265.1275
 20
40.63972917326508
 10
265.12681028561286
 20
40.62568971438716
 10
265.1127708267347
 20
40.625
 10
251.14222917326538
 20
40.625
 10
251.12818971438713
 20
40.62568971438715
 10
251.1275
 20
40.63972917326523
 10
251.1275
 20
54.61027082673477
  0
LWPOLYLINE
  5
3A
330
17
100
AcDbEntity
  8
SWITCH_CUTOUTS
100
AcDbPolyline
 90
13
 70
1
 10
246.36568971438714
 20
59.67568971438715
 10
246.365
 20
59.68972917326523
 10
246.365
 20
73.66027082673477
 10
246.36568971438714
 20
73.67431028561285
 10
246.37972917326533
 20
73.675
 10
260.3502708267347
 20
73.675
 10
260.3643102856129
 20
73.67431028561285
 10
260.365
 20
73.66027082673492
 10
260.365
 20
59.68972917326508
 10
260.3643102856129
 20
59.675689714387154
 10
260.3502708267347
 20
59.675
 10
246.3797291732654
 20
59.675
 10
246.36568971438714
 20
59.67568971438715
  0
LWPOLYLINE
  5
3B
330
17
100
AcDbEntity
  8
SWITCH_CUTOUTS
100
AcDbPolyline
 90
13
 70
1
 10
243.50750000000002
 20
16.510270826734775
 10
243.50818971438716
 20
16.524310285612845
 10
243.5222291732654
 20
16.525
 10
257.4927708267347
 20
16.525
 10
257.5068102856129
 20
16.524310285612845
 10
257.50750000000005
 20
16.51027082673492
 10
257.50750000000005
 20
2.539729173265078
 10
257.5068102856129
 20
2.5256897143871546
 10
257.49277082673467
 20
2.5250000000000004
 10
243.52222917326537
 20
2.5250000000000004
 10
243.50818971438716
 20
2.5256897143871546
 10
243.50750000000002
 20
2.539729173265223
 10
243.50750000000002
 20
16.510270826734775
  0
LWPOLYLINE
  5
3C
330
17
100
AcDbEntity
  8
SWITCH_CUTOUTS
100
AcDbPolyline
 90
13
 70
1
 10
235.88750000000002
 20
35.56027082673477
 10
235.88818971438715
 20
35.57431028561285
 10
235.9022291732654
 20
35.575
 10
249.87277082673464
 20
35.575
 10
249.88681028561288
 20
35.57431028561285
 10
249.88750000000002
 20
35.56027082673477
 10
249.88750000000002
 20
21.589729173265226
 10
249.88681028561288
 20
21.575689714387156
 10
249.87277082673464
 20
21.575000000000003
 10
235.9022291732654
 20
21.575000000000003
 10
235.88818971438715
 20
21.575689714387156
 10
235.88750000000002
 20
21.589729173265226
 10
235.88750000000002
 20
35.56027082673477
  0
LWPOLYLINE
  5
3D
330
17
100
AcDbEntity
  8
SWITCH_CUTOUTS
100
AcDbPolyline
 90
13
 70
1
 10
232.07750000000001
 20
54.61027082673477
 10
232.07818971438715
 20
54.62431028561285
 10
232.0922291732654
 20
54.625
 10
246.06277082673463
 20
54.625
 10
246.07681028561288
 20
54.62431028561285
 10
246.07750000000001
 20
54.61027082673477
 10
246.07750000000001
 20
40.63972917326523
 10
246.07681028561288
 20
40.62568971438715
 10
246.06277082673463
 20
40.625
 10
232.0922291732654
 20
40.625
 10
232.07818971438715
 20
40.62568971438715
 10
232.07750000000001
 20
40.63972917326523
 10
232.07750000000001
 20
54.61027082673477
  0
LWPOLYLINE
  5
3E
330
17
100
AcDbEntity
  8
SWITCH_CUTOUTS
100
AcDbPolyline
 90
13
 70
1
 10
227.30558181615265
 20
59.68389192018951
 10
227.3048994529032
 20
59.697931738276935
 10
227.31221441107314
 20
73.66847147669475
 10
227.31291147640889
 20
73.68251057251457
 10
227.32695129449638
 20
73.68319293576405
 10
241.29749103291368
 20
73.6758779775941
 10
241.31153012873398
 20
73.67518091225833
 10
241.31221249198344
 20
73.66114109417092
 10
241.3048975338135
 20
59.69060135575311
 10
241.30420046847775
 20
59.67656225993326
 10
241.29016065039045
 20
59.67587989668379
 10
227.31962091197272
 20
59.68319485485376
 10
227.30558181615265
 20
59.68389192018951
  0
LWPOLYLINE
  5
3F
330
17
100
AcDbEntity
  8
SWITCH_CUTOUTS
100
AcDbPolyline
 90
13
 70
1
 10
224.4216519400515
 20
2.56031103743769
 10
224.4209921214488
 20
2.5743519330977325
 10
224.45073959688708
 20
16.544861915880357
 10
224.45145920393156
 20
16.558899874322755
 10
224.46550009959174
 20
16.55955969292546
 10
238.43601008237428
 20
16.52981221748719
 10
238.45004804081663
 20
16.529092610442703
 10
238.45070785941934
 20
16.51505171478266
 10
238.42096038398105
 20
2.5445417320000385
 10
238.42024077693657
 20
2.5305037735576437
 10
238.40619988127636
 20
2.5298439549549347
 10
224.43568989849388
 20
2.5595914303932026
 10
224.4216519400515
 20
2.56031103743769
  0
LWPOLYLINE
  5
40
330
17
100
AcDbEntity
  8
SWITCH_CUTOUTS
100
AcDbPolyline
 90
13
 70
1
 10
216.64444820595926
 20
21.767185992391315
 10
216.64392148249914
 20
21.78123251060494
 10
216.80606608888354
 20
35.75083319272699
 10
216.8069187012877
 20
35.76486370104323
 10
216.82096521950137
 20
35.765390424503366
 10
230.79056590162327
 20
35.60324581811893
 10
230.80459640993965
 20
35.60239320571475
 10
230.80512313339977
 20
35.588346687501115
 10
230.64297852701537
 20
21.618746005379073
 10
230.6421259146112
 20
21.604715497062823
 10
230.62807939639757
 20
21.604188773602694
 10
216.65847871427565
 20
21.766333379987135
 10
216.64444820595926
 20
21.767185992391315
  0
LWPOLYLINE
  5
41
330
17
100
AcDbEntity
  8
SWITCH_CUTOUTS
100
AcDbPolyline
 90
13
 70
1
 10
212.71053749607913
 20
40.94240763660457
 10
212.7101179209428
 20
40.95645776358772
 10
212.97880416349398
 20
54.92441544516623
 10
212.97976376199475
 20
54.938439042502615
 10
212.99381388897763
 20
54.93885861763893
 10
226.96177157055666
 20
54.67017237508775
 10
226.97579516789276
 20
54.66921277658699
 10
226.9762147430291
 20
54.65516264960384
 10
226.7075285004779
 20
40.68720496802533
 10
226.70656890197714
 20
40.673181370688944
 10
226.69251877499426
 20
40.67276179555263
 10
212.72456109341522
 20
40.94144803810381
 10
212.71053749607913
 20
40.94240763660457
  0
LWPOLYLINE
  5
42
330
17
100
AcDbEntity
  8
SWITCH_CUTOUTS
100
AcDbPolyline
 90
13
 70
1
 10
207.75952030619843
 20
79.38416824354081
 10
207.75926652579878
 20
79.39822234283767
 10
208.19273015570613
 20
93.36203784480055
 10
208.19385513995144
 20
93.37604914459666
 10
208.207909239248
 20
93.37630292499631
 10
222.17172474121114
 20
92.94283929508896
 10
222.1857360410073
 20
92.94171431084365
 10
222.18598982140693
 20
92.9276602115468
 10
221.75252619149958
 20
78.96384470958391
 10
221.75140120725428
 20
78.9498334097878
 10
221.7373471079577
 20
78.94957962938815
 10
207.77353160599458
 20
79.3830432592955
 10
207.75952030619843
 20
79.38416824354081
  0
LWPOLYLINE
  5
43
330
17
100
AcDbEntity
  8
SWITCH_CUTOUTS
100
AcDbPolyline
 90
13
 70
1
 10
207.62820705326294
 20
60.20026676145009
 10
207.62795180112286
 20
60.2143208340934
 10
208.0599531413163
 20
74.17818165169706
 10
208.06107665829555
 20
74.19219306922423
 10
208.07513073093926
 20
74.19244832136431
 10
222.03899154854224
 20
73.76044698117093
 10
222.0530029660697
 20
73.75932346419167
 10
222.05325821820978
 20
73.74526939154836
 10
221.62125687801634
 20
59.78140857394468
 10
221.6201333610371
 20
59.76739715641754
 10
221.60607928839337
 20
59.76714190427745
 10
207.64221847079023
 20
60.19914324447083
 10
207.62820705326294
 20
60.20026676145009
  0
LWPOLYLINE
  5
44
330
17
100
AcDbEntity
  8
SWITCH_CUTOUTS
100
AcDbPolyline
 90
13
 70
1
 10
204.51585832100935
 20
3.2067034117862705
 10
204.5157043793275
 20
3.220758959214148
 10
205.04834806344903
 20
17.18114307989907
 10
205.04957254760308
 20
17.195146034947527
 10
205.06362809503062
 20
17.19529997662936
 10
219.024012215716
 20
16.662656292507815
 10
219.03801517076428
 20
16.66143180835377
 10
219.03816911244613
 20
16.647376260925892
 10
218.5055254283246
 20
2.686992140240964
 10
218.50430094417055
 20
2.672989185192508
 10
218.49024539674303
 20
2.6728352435106735
 10
204.52986127605763
 20
3.2054789276322206
 10
204.51585832100935
 20
3.2067034117862705
  0
LWPOLYLINE
  5
45
330
17
100
AcDbEntity
  8
SWITCH_CUTOUTS
100
AcDbPolyline
 90
13
 70
1
 10
196.11019846883343
 20
22.78809469336553
 10
196.11031855655133
 20
22.80215057080087
 10
196.91500604770545
 20
36.74949842381185
 10
196.91650327407916
 20
36.763474847700536
 10
196.9305591515142
 20
36.76335475998264
 10
210.8779070045255
 20
35.95866726882852
 10
210.89188342841416
 20
35.95717004245479
 10
210.89176334069626
 20
35.94311416501946
 10
210.08707584954215
 20
21.99576631200846
 10
210.08557862316843
 20
21.981789888119792
 10
210.0715227457334
 20
21.981909975837695
 10
196.124174892722
 20
22.786597466991818
 10
196.11019846883343
 20
22.78809469336553
  0
LWPOLYLINE
  5
46
330
17
100
AcDbEntity
  8
SWITCH_CUTOUTS
100
AcDbPolyline
 90
13
 70
1
 10
191.85114062717645
 20
42.17163136750647
 10
191.851399803944
 20
42.185685368322
 10
192.79406883013928
 20
56.12438721599691
 10
192.79570429187
 20
56.13834813919207
 10
192.80975829268584
 20
56.13808896242453
 10
206.74846014036055
 20
55.19541993622928
 10
206.76242106355562
 20
55.19378447449855
 10
206.76216188678808
 20
55.17973047368302
 10
205.8194928605928
 20
41.24102862600811
 10
205.81785739886206
 20
41.22706770281295
 10
205.80380339804623
 20
41.22732687958049
 10
191.86510155037152
 20
42.16999590577574
 10
191.85114062717645
 20
42.17163136750647
  0
LWPOLYLINE
  5
47
330
17
100
AcDbEntity
  8
SWITCH_CUTOUTS
100
AcDbPolyline
 90
13
 70
1
 10
186.4871547660887
 20
61.70036853404718
 10
186.48758905425083
 20
61.71441821394795
 10
187.6038796267509
 20
75.64029087777348
 10
187.60568893314326
 20
75.65423033694154
 10
187.61973861304432
 20
75.6537960487794
 10
201.54561127686932
 20
74.53750547627938
 10
201.55955073603766
 20
74.535696169887
 10
201.55911644787554
 20
74.52164648998621
 10
200.44282587537546
 20
60.59577382616065
 10
200.44101656898312
 20
60.581834366992624
 10
200.42696688908205
 20
60.58226865515477
 10
186.50109422525708
 20
61.69855922765479
 10
186.4871547660887
 20
61.70036853404718
  0
LWPOLYLINE
  5
48
330
17
100
AcDbEntity
  8
SWITCH_CUTOUTS
100
AcDbPolyline
 90
13
 70
1
 10
183.26401286820428
 20
4.870937219270458
 10
183.2645523396613
 20
4.884983253660229
 10
184.48508009648137
 20
18.802107456818845
 10
184.4869937223597
 20
18.816032978264456
 10
184.50103975674935
 20
18.815493506807456
 10
198.41816395990833
 20
17.59496574998733
 10
198.4320894813537
 20
17.593052124109008
 10
198.43155000989668
 20
17.579006089719233
 10
197.2110222530766
 20
3.6618818865606166
 10
197.20910862719828
 20
3.64795636511501
 10
197.1950625928086
 20
3.648495836572008
 10
183.2779383896497
 20
4.869023593392129
 10
183.26401286820428
 20
4.870937219270458
  0
LWPOLYLINE
  5
49
330
17
100
AcDbEntity
  8
SWITCH_CUTOUTS
100
AcDbPolyline
 90
13
 70
1
 10
174.7162120931485
 20
24.838741958433264
 10
174.71698657647906
 20
24.852776996270915
 10
176.17027324959562
 20
38.74752391505513
 10
176.17241967785048
 20
38.76141545770773
 10
176.18645471568806
 20
38.76064097437715
 10
190.0812016344721
 20
37.30735430126061
 10
190.09509317712497
 20
37.305207873005706
 10
190.0943186937944
 20
37.291172835168055
 10
188.64103202067784
 20
23.396425916383816
 10
188.63888559242298
 20
23.382534373731247
 10
188.62485055458546
 20
23.38330885706182
 10
174.73010363580127
 20
24.836595530178375
 10
174.7162120931485
 20
24.838741958433264
  0
LWPOLYLINE
  5
4A
330
17
100
AcDbEntity
  8
SWITCH_CUTOUTS
100
AcDbPolyline
 90
13
 70
1
 10
170.49873404778666
 20
44.352483677418576
 10
170.49958127279965
 20
44.36651451207997
 10
172.02487329599447
 20
58.253541491794266
 10
172.02709170367743
 20
58.267421721579
 10
172.04112253833924
 20
58.26657449656598
 10
185.92814951805292
 20
56.74128247337124
 10
185.9420297478379
 20
56.73906406568824
 10
185.9411825228249
 20
56.72503323102684
 10
184.41589049963008
 20
42.83800625131255
 10
184.41367209194712
 20
42.82412602152782
 10
184.3996412572853
 20
42.824973246540836
 10
170.51261427757163
 20
44.35026526973557
 10
170.49873404778666
 20
44.352483677418576
  0
LWPOLYLINE
  5
4B
330
17
100
AcDbEntity
  8
SWITCH_CUTOUTS
100
AcDbPolyline
 90
13
 70
1
 10
169.30590400090077
 20
82.72214000673753
 10
169.30667456487927
 20
82.73617526030415
 10
170.7560810360617
 20
96.6313274715116
 10
170.75822358498243
 20
96.64521961301847
 10
170.77225883854913
 20
96.64444904903998
 10
184.66741104975625
 20
95.19504257785758
 10
184.68130319126337
 20
95.19290002893683
 10
184.68053262728486
 20
95.17886477537022
 10
183.23112615610245
 20
81.28371256416277
 10
183.2289836071817
 20
81.2698204226559
 10
183.214948353615
 20
81.27059098663439
 10
169.31979614240788
 20
82.71999745781679
 10
169.30590400090077
 20
82.72214000673753
  0
LWPOLYLINE
  5
4C
330
17
100
AcDbEntity
  8
SWITCH_CUTOUTS
100
AcDbPolyline
 90
13
 70
1
 10
165.2792369500939
 20
63.98705513914862
 10
165.2801333915292
 20
64.00108291531886
 10
166.85413317220483
 20
77.88267355838822
 10
166.856400259535
 20
77.8965459203561
 10
166.8704280357052
 20
77.89564947892079
 10
180.7520186787747
 20
76.32164969824517
 10
180.76589104074247
 20
76.319382610915
 10
180.76499459930716
 20
76.30535483474473
 10
179.19099481863154
 20
62.423764191675374
 10
179.18872773130138
 20
62.40989182970752
 10
179.1746999551311
 20
62.410788271142835
 10
165.29310931206177
 20
63.98478805181844
 10
165.2792369500939
 20
63.98705513914862
  0
LWPOLYLINE
  5
4D
330
17
100
AcDbEntity
  8
SWITCH_CUTOUTS
100
AcDbPolyline
 90
13
 70
1
 10
162.18100540903612
 20
7.187968023737737
 10
162.18190944009714
 20
7.201995312833516
 10
163.76341965334825
 20
21.08273230827778
 10
163.76569424601638
 20
21.096603441602902
 10
163.7797215351119
 20
21.095699410541858
 10
177.6604585305564
 20
19.514189197290733
 10
177.6743296638815
 20
19.51191460462263
 10
177.67342563282048
 20
19.497887315526853
 10
176.09191541956937
 20
5.61715032008258
 10
176.08964082690125
 20
5.603279186757464
 10
176.07561353780574
 20
5.604183217818507
 10
162.19487654236121
 20
7.185693431069634
 10
162.18100540903612
 20
7.187968023737737
  0
LWPOLYLINE
  5
4E
330
17
100
AcDbEntity
  8
SWITCH_CUTOUTS
100
AcDbPolyline
 90
13
 70
1
 10
154.27716040903613
 20
27.139033023737742
 10
154.27806444009715
 20
27.153060312833517
 10
155.85957465334826
 20
41.03379730827777
 10
155.8618492460164
 20
41.04766844160291
 10
155.8758765351119
 20
41.04676441054186
 10
169.7566135305565
 20
39.465254197290726
 10
169.77048466388152
 20
39.46297960462263
 10
169.7695806328205
 20
39.44895231552685
 10
168.18807041956939
 20
25.568215320082587
 10
168.18579582690126
 20
25.554344186757465
 10
168.17176853780575
 20
25.55524821781851
 10
154.29103154236122
 20
27.136758431069637
 10
154.27716040903613
 20
27.139033023737742
  0
LWPOLYLINE
  5
4F
330
17
100
AcDbEntity
  8
SWITCH_CUTOUTS
100
AcDbPolyline
 90
13
 70
1
 10
130.2683841867575
 20
39.463040826901256
 10
130.2822553200825
 20
39.46531541956935
 10
144.1629923155271
 20
41.046825632820486
 10
144.17701960462261
 20
41.04772966388153
 10
144.17929419729074
 20
41.033858530556394
 10
145.76080441054185
 20
27.15312153511214
 10
145.76170844160288
 20
27.139094246016366
 10
145.74783730827778
 20
27.13681965334826
 10
131.86710031283326
 20
25.555309440097133
 10
131.85307302373775
 20
25.55440540903609
 10
131.85079843106962
 20
25.56827654236121
 10
130.2692882178185
 20
39.44901353780548
 10
130.2683841867575
 20
39.463040826901256
  0
LWPOLYLINE
  5
50
330
17
100
AcDbEntity
  8
SWITCH_CUTOUTS
100
AcDbPolyline
 90
13
 70
1
 10
122.36263418675748
 20
19.511975826901246
 10
122.37650532008264
 20
19.51425041956936
 10
136.25724231552712
 20
21.095760632820483
 10
136.27126960462263
 20
21.096664663881526
 10
136.27354419729076
 20
21.082793530556405
 10
137.85505441054187
 20
7.20205653511214
 10
137.8559584416029
 20
7.188029246016361
 10
137.8420873082778
 20
7.185754653348258
 10
123.96135031283328
 20
5.604244440097132
 10
123.94732302373775
 20
5.603340409036089
 10
123.94504843106965
 20
5.617211542361207
 10
122.3635382178185
 20
19.497948537805932
 10
122.36263418675748
 20
19.511975826901246
  0
LWPOLYLINE
  5
51
330
17
100
AcDbEntity
  8
SWITCH_CUTOUTS
100
AcDbPolyline
 90
13
 70
1
 10
119.27223682970752
 20
76.31872773130134
 10
119.28610919167541
 20
76.32099481863152
 10
133.16769983474475
 20
77.89499459930713
 10
133.181727610915
 20
77.89589104074244
 10
133.1839946982452
 20
77.88201867877456
 10
134.75799447892078
 20
64.0004280357052
 10
134.7588909203561
 20
63.98640025953496
 10
134.7450185583882
 20
63.98413317220478
 10
120.86342791531888
 20
62.41013339152917
 10
120.84940013914863
 20
62.409236950093856
 10
120.84713305181846
 20
62.42310931206171
 10
119.27313327114284
 20
76.30469995513108
 10
119.27223682970752
 20
76.31872773130134
  0
LWPOLYLINE
  5
52
330
17
100
AcDbEntity
  8
SWITCH_CUTOUTS
100
AcDbPolyline
 90
13
 70
1
 10
115.35540226079405
 20
95.1915951941769
 10
115.36929440230111
 20
95.19373774309764
 10
129.26444661350826
 20
96.64314421428004
 10
129.27848186707496
 20
96.64391477825853
 10
129.28062441599573
 20
96.63002263675119
 10
130.73003088717815
 20
82.73487042554439
 10
130.73080145115665
 20
82.7208351719776
 10
130.71690930964954
 20
82.71869262305685
 10
116.82175709844239
 20
81.26928615187445
 10
116.80772184487569
 20
81.26851558789596
 10
116.80557929595494
 20
81.28240772940302
 10
115.35617282477254
 20
95.1775599406102
 10
115.35540226079405
 20
95.1915951941769
  0
LWPOLYLINE
  5
53
330
17
100
AcDbEntity
  8
SWITCH_CUTOUTS
100
AcDbPolyline
 90
13
 70
1
 10
114.09589102152783
 20
56.738667091947086
 10
114.10977125131272
 20
56.740885499630075
 10
127.99679823102649
 20
58.26617752282482
 10
128.01082906568828
 20
58.26702474783784
 10
128.01304747337124
 20
58.253144518053105
 10
129.53833949656604
 20
44.36611753833881
 10
129.53918672157903
 20
44.352086703677415
 10
129.52530649179405
 20
44.34986829599441
 10
115.63827951208037
 20
42.824576272799675
 10
115.62424867741858
 20
42.82372904778666
 10
115.6220302697356
 20
42.83760927757143
 10
114.09673824654085
 20
56.72463625728528
 10
114.09589102152783
 20
56.738667091947086
  0
LWPOLYLINE
  5
54
330
17
100
AcDbEntity
  8
SWITCH_CUTOUTS
100
AcDbPolyline
 90
13
 70
1
 10
109.94192437373124
 20
37.30378059242294
 10
109.95581591638403
 20
37.30592702067783
 10
123.85056283516815
 20
38.75921369379438
 10
123.8645978730057
 20
38.75998817712496
 10
123.8667443012606
 20
38.74609663447214
 10
125.32003097437716
 20
24.851349715687864
 10
125.32080545770773
 20
24.837314677850497
 10
125.30691391505496
 20
24.83516824959561
 10
111.41216699627076
 20
23.381881576479053
 10
111.39813195843327
 20
23.38110709314848
 10
111.39598553017838
 20
23.394998635801276
 10
109.94269885706181
 20
37.28974555458557
 10
109.94192437373124
 20
37.30378059242294
  0
LWPOLYLINE
  5
55
330
17
100
AcDbEntity
  8
SWITCH_CUTOUTS
100
AcDbPolyline
 90
13
 70
1
 10
101.60496136511502
 20
17.594278627198253
 10
101.61888688656042
 20
17.59619225307658
 10
115.53601108971937
 20
18.816720009896702
 10
115.550057124109
 20
18.8172594813537
 10
115.55197074998733
 20
18.803333959908304
 10
116.77249850680745
 20
4.886209756749393
 10
116.77303797826444
 20
4.872163722359701
 10
116.75911245681905
 20
4.870250096481376
 10
102.84198825366012
 20
3.649722339661254
 10
102.82794221927047
 20
3.649182868204256
 10
102.82602859339212
 20
3.6631083896496497
 10
101.605500836572
 20
17.580232592808564
 10
101.60496136511502
 20
17.594278627198253
  0
LWPOLYLINE
  5
56
330
17
100
AcDbEntity
  8
SWITCH_CUTOUTS
100
AcDbPolyline
 90
13
 70
1
 10
98.47799936699263
 20
74.53575656898312
 10
98.49193882616095
 20
74.53756587537549
 10
112.41781148998592
 20
75.65385644787551
 10
112.431861169887
 20
75.65429073603765
 10
112.43367047627937
 20
75.64035127686934
 10
113.5499610487794
 20
61.71447861304436
 10
113.55039533694153
 20
61.700428933143286
 10
113.53645587777308
 20
61.6986196267509
 10
99.61058321394825
 20
60.58232905425089
 10
99.59653353404717
 20
60.58189476608874
 10
99.5947242276548
 20
60.59583422525704
 10
98.47843365515477
 20
74.52170688908204
 10
98.47799936699263
 20
74.53575656898312
  0
LWPOLYLINE
  5
57
330
17
100
AcDbEntity
  8
SWITCH_CUTOUTS
100
AcDbPolyline
 90
13
 70
1
 10
93.27547770281298
 20
55.19331739886205
 10
93.28943862600791
 20
55.194952860592764
 10
107.22814047368273
 20
56.137621886788025
 10
107.24219447449855
 20
56.13788106355556
 10
107.24382993622929
 20
56.123920140360404
 10
108.18649896242454
 20
42.185218292685796
 10
108.18675813919207
 20
42.17116429186996
 10
108.17279721599714
 20
42.16952883013924
 10
94.23409536832231
 20
41.22685980394398
 10
94.2200413675065
 20
41.226600627176445
 10
94.21840590577575
 20
41.2405615503716
 10
93.2757368795805
 20
55.17926339804621
 10
93.27547770281298
 20
55.19331739886205
  0
LWPOLYLINE
  5
58
330
17
100
AcDbEntity
  8
SWITCH_CUTOUTS
100
AcDbPolyline
 90
13
 70
1
 10
89.14637488811978
 20
35.95714862316841
 10
89.16035131200843
 20
35.95864584954213
 10
103.10769916501978
 20
36.76333334069625
 10
103.1217550424548
 20
36.763453428414145
 10
103.12325226882852
 20
36.74947700452546
 10
103.92793975998264
 20
22.802129151514187
 10
103.92805984770054
 20
22.788073274079142
 10
103.91408342381192
 20
22.78657604770542
 10
89.96673557080057
 20
21.9818885565513
 10
89.95267969336552
 20
21.9817684688334
 10
89.9511824669918
 20
21.995744892722065
 10
89.14649497583768
 20
35.94309274573336
 10
89.14637488811978
 20
35.95714862316841
  0
LWPOLYLINE
  5
59
330
17
100
AcDbEntity
  8
SWITCH_CUTOUTS
100
AcDbPolyline
 90
13
 70
1
 10
81.00072024351067
 20
16.645970396743255
 10
81.0008741851925
 20
16.660025944170552
 10
81.01487714024083
 20
16.661250428324603
 10
94.9752612609262
 20
17.193894112446152
 10
94.98931680835378
 20
17.193740170764315
 10
94.99054129250781
 20
17.179737215716113
 10
95.52318497662938
 20
3.2193530950303604
 10
95.52303103494755
 20
3.205297547603065
 10
95.50902807989924
 20
3.2040730634490133
 10
81.5486439592138
 20
2.671429379327465
 10
81.53458841178627
 20
2.6715833210092996
 10
81.53336392763224
 20
2.685586276057505
 10
81.00072024351067
 20
16.645970396743255
  0
LWPOLYLINE
  5
5A
330
17
100
AcDbEntity
  8
SWITCH_CUTOUTS
100
AcDbPolyline
 90
13
 70
1
 10
77.98491215641752
 20
73.7597483610371
 10
77.99892357394498
 20
73.76087187801636
 10
91.96278439154794
 20
74.19287321820974
 10
91.97683846419166
 20
74.19261796606966
 10
91.97796198117092
 20
74.1786065485422
 10
92.4099633213643
 20
60.21474573093925
 10
92.40970806922421
 20
60.20069165829551
 10
92.39569665169692
 20
60.19956814131626
 10
78.4318358340938
 20
59.76756680112288
 10
78.41778176145009
 20
59.76782205326297
 10
78.41665824447082
 20
59.7818334707904
 10
77.98465690427744
 20
73.74569428839338
 10
77.98491215641752
 20
73.7597483610371
  0
LWPOLYLINE
  5
5B
330
17
100
AcDbEntity
  8
SWITCH_CUTOUTS
100
AcDbPolyline
 90
13
 70
1
 10
77.851087674836
 20
92.9284309879912
 10
77.85134145523564
 20
92.94248508728779
 10
77.86535275503174
 20
92.94361007153309
 10
91.82916825699492
 20
93.37707370144044
 10
91.8432223562915
 20
93.37681992104079
 10
91.8443473405368
 20
93.3628086212447
 10
92.27781097044415
 20
79.39899311928151
 10
92.2775571900445
 20
79.38493901998493
 10
92.26354589024841
 20
79.38381403573963
 10
78.29973038828523
 20
78.95035040583228
 10
78.28567628898864
 20
78.95060418623193
 10
78.28455130474335
 20
78.96461548602802
 10
77.851087674836
 20
92.9284309879912
  0
LWPOLYLINE
  5
5C
330
17
100
AcDbEntity
  8
SWITCH_CUTOUTS
100
AcDbPolyline
 90
13
 70
1
 10
73.06157179555262
 20
54.655778774994275
 10
73.06199137068896
 20
54.66982890197716
 10
73.07601496802516
 20
54.67078850047793
 10
87.04397264960411
 20
54.9394747430291
 10
87.058022776587
 20
54.93905516789279
 10
87.05898237508775
 20
54.925031570556705
 10
87.32766861763895
 20
40.95707388897763
 10
87.32724904250261
 20
40.943023761994745
 10
87.31322544516641
 20
40.942064163493974
 10
73.34526776358746
 20
40.673377920942805
 10
73.33121763660458
 20
40.67379749607912
 10
73.33025803810382
 20
40.6878210934152
 10
73.06157179555262
 20
54.655778774994275
  0
LWPOLYLINE
  5
5D
330
17
100
AcDbEntity
  8
SWITCH_CUTOUTS
100
AcDbPolyline
 90
13
 70
1
 10
69.23299877360267
 20
35.5884643963975
 10
69.23352549706281
 20
35.60251091461112
 10
69.24755600537917
 20
35.603363527015304
 10
83.2171566875011
 20
35.76550813339975
 10
83.23120320571472
 20
35.76498140993962
 10
83.23205581811891
 20
35.750950901623085
 10
83.39420042450337
 20
21.781350219501327
 10
83.39367370104323
 20
21.7673037012877
 10
83.37964319272685
 20
21.76645108888352
 10
69.41004251060491
 20
21.60430648249908
 10
69.39599599239132
 20
21.60483320595921
 10
69.39514337998713
 20
21.61886371427575
 10
69.23299877360267
 20
35.5884643963975
  0
LWPOLYLINE
  5
5E
330
17
100
AcDbEntity
  8
SWITCH_CUTOUTS
100
AcDbPolyline
 90
13
 70
1
 10
61.58674895495494
 20
16.51560988127644
 10
61.58740877355765
 20
16.52965077693656
 10
61.60144673200001
 20
16.530370383981047
 10
75.57195671478256
 20
16.560117859419318
 10
75.58599761044272
 20
16.55945804081661
 10
75.58671721748719
 20
16.545420082374278
 10
75.61646469292546
 20
2.5749100995915866
 10
75.61580487432275
 20
2.5608692039315453
 10
75.60176691588036
 20
2.5601495968870576
 10
61.63125693309787
 20
2.5304021214487897
 10
61.6172160374377
 20
2.5310619400514973
 10
61.61649643039321
 20
2.545099898493861
 10
61.58674895495494
 20
16.51560988127644
  0
LWPOLYLINE
  5
5F
330
17
100
AcDbEntity
  8
SWITCH_CUTOUTS
100
AcDbPolyline
 90
13
 70
1
 10
58.72596725993327
 20
73.67563046847772
 10
58.74000635575355
 20
73.67632753381348
 10
72.71054609417085
 20
73.68364249198343
 10
72.72458591225835
 20
73.68296012873395
 10
72.7252829775941
 20
73.66892103291369
 10
72.73259793576406
 20
59.69838129449638
 10
72.73191557251458
 20
59.68434147640888
 10
72.71787647669453
 20
59.68364441107314
 10
58.747336738276836
 20
59.67632945290317
 10
58.73329692018952
 20
59.67701181615264
 10
58.73259985485377
 20
59.6910509119727
 10
58.725284896683796
 20
73.66159065039041
 10
58.72596725993327
 20
73.67563046847772
  0
LWPOLYLINE
  5
60
330
17
100
AcDbEntity
  8
SWITCH_CUTOUTS
100
AcDbPolyline
 90
13
 70
1
 10
53.96000000000001
 20
54.61027082673463
 10
53.960689714387165
 20
54.62431028561284
 10
53.97472917326538
 20
54.625
 10
67.94527082673464
 20
54.625
 10
67.95931028561286
 20
54.62431028561284
 10
67.96000000000001
 20
54.610270826734705
 10
67.96000000000001
 20
40.639729173265295
 10
67.95931028561286
 20
40.62568971438716
 10
67.94527082673464
 20
40.625
 10
53.97472917326538
 20
40.625
 10
53.960689714387165
 20
40.62568971438716
 10
53.96000000000001
 20
40.63972917326537
 10
53.96000000000001
 20
54.61027082673463
  0
LWPOLYLINE
  5
61
330
17
100
AcDbEntity
  8
SWITCH_CUTOUTS
100
AcDbPolyline
 90
13
 70
1
 10
50.150000000000006
 20
35.56027082673463
 10
50.15068971438716
 20
35.574310285612846
 10
50.16472917326538
 20
35.575
 10
64.13527082673464
 20
35.575
 10
64.14931028561286
 20
35.574310285612846
 10
64.15
 20
35.56027082673471
 10
64.15
 20
21.589729173265297
 10
64.14931028561286
 20
21.57568971438716
 10
64.13527082673464
 20
21.575000000000003
 10
50.16472917326538
 20
21.575000000000003
 10
50.150689714387156
 20
21.575689714387156
 10
50.150000000000006
 20
21.589729173265372
 10
50.150000000000006
 20
35.56027082673463
  0
LWPOLYLINE
  5
62
330
17
100
AcDbEntity
  8
SWITCH_CUTOUTS
100
AcDbPolyline
 90
13
 70
1
 10
42.53
 20
16.51027082673463
 10
42.53068971438716
 20
16.524310285612845
 10
42.544729173265374
 20
16.525
 10
56.51527082673463
 20
16.525
 10
56.52931028561285
 20
16.524310285612845
 10
56.53
 20
16.51027082673463
 10
56.53
 20
2.5397291732653677
 10
56.529310285612844
 20
2.525689714387154
 10
56.51527082673465
 20
2.5250000000000004
 10
42.54472917326535
 20
2.5250000000000004
 10
42.53068971438716
 20
2.525689714387154
 10
42.53
 20
2.5397291732653677
 10
42.53
 20
16.51027082673463
  0
LWPOLYLINE
  5
63
330
17
100
AcDbEntity
  8
SWITCH_CUTOUTS
100
AcDbPolyline
 90
53
 70
1
 10
1.5731897143871534
 20
78.72568971438716
 10
1.5724999999999998
 20
78.73972917326536
 10
1.5724999999999998
 20
92.71027082673464
 10
1.5731897143871545
 20
92.72431028561286
 10
1.587229173265295
 20
92.72500000000001
 10
20.320270826734706
 20
92.72500000000001
 10
20.334929075004805
 20
92.72427988643936
 10
20.336793213489553
 20
92.72400336761632
 10
20.39071171532689
 20
92.7132783107703
 10
20.449309395403578
 20
92.70750694302609
 10
20.5081906045964
 20
92.70750694302609
 10
20.566788284673088
 20
92.7132783107703
 10
20.62070678651036
 20
92.7240033676163
 10
20.622570924995195
 20
92.72427988643936
 10
20.637229173265293
 20
92.72500000000001
 10
34.60777082673471
 20
92.72500000000001
 10
34.62242907500481
 20
92.72427988643936
 10
34.624293213489544
 20
92.72400336761632
 10
34.67821171532689
 20
92.7132783107703
 10
34.736809395403576
 20
92.70750694302609
 10
34.795690604596395
 20
92.70750694302609
 10
34.854288284673075
 20
92.7132783107703
 10
34.90820678651029
 20
92.72400336761629
 10
34.910070924995196
 20
92.72427988643936
 10
34.9247291732653
 20
92.72500000000001
 10
53.65777082673471
 20
92.72500000000001
 10
53.67181028561285
 20
92.72431028561286
 10
53.67250000000001
 20
92.71027082673464
 10
53.67250000000001
 20
78.73972917326537
 10
53.67181028561285
 20
78.72568971438716
 10
53.65777082673471
 20
78.72500000000001
 10
34.9247291732653
 20
78.72500000000001
 10
34.910070924995196
 20
78.72572011356066
 10
34.90820678651029
 20
78.72599663238373
 10
34.854288284673075
 20
78.73672168922971
 10
34.795690604596395
 20
78.74249305697393
 10
34.736809395403576
 20
78.74249305697393
 10
34.67821171532689
 20
78.73672168922971
 10
34.624293213489544
 20
78.7259966323837
 10
34.62242907500481
 20
78.72572011356066
 10
34.60777082673471
 20
78.72500000000001
 10
20.637229173265293
 20
78.72500000000001
 10
20.622570924995184
 20
78.72572011356066
 10
20.620706786510464
 20
78.7259966323837
 10
20.566788284673102
 20
78.73672168922971
 10
20.50819060459641
 20
78.74249305697393
 10
20.449309395403585
 20
78.74249305697393
 10
20.390711715326894
 20
78.73672168922971
 10
20.336793213489553
 20
78.7259966323837
 10
20.334929075004805
 20
78.72572011356066
 10
20.320270826734706
 20
78.72500000000001
 10
1.587229173265295
 20
78.72500000000001
 10
1.5731897143871534
 20
78.72568971438716
  0
LWPOLYLINE
  5
64
330
17
100
AcDbEntity
  8
SWITCH_CUTOUTS
100
AcDbPolyline
 90
13
 70
1
 10
39.67250000000001
 20
73.66027082673463
 10
39.67318971438716
 20
73.67431028561285
 10
39.6872291732653
 20
73.675
 10
53.65777082673471
 20
73.675
 10
53.67181028561285
 20
73.67431028561285
 10
53.67250000000001
 20
73.66027082673463
 10
53.67250000000001
 20
59.68972917326537
 10
53.67181028561285
 20
59.675689714387154
 10
53.657770826734634
 20
59.675
 10
39.68722917326538
 20
59.675
 10
39.67318971438716
 20
59.675689714387154
 10
39.67250000000001
 20
59.68972917326537
 10
39.67250000000001
 20
73.66027082673463
  0
LWPOLYLINE
  5
65
330
17
100
AcDbEntity
  8
SWITCH_CUTOUTS
100
AcDbPolyline
 90
13
 70
1
 10
34.910000000000004
 20
54.61027082673463
 10
34.91068971438716
 20
54.62431028561284
 10
34.924729173265376
 20
54.625
 10
48.89527082673463
 20
54.625
 10
48.90931028561285
 20
54.62431028561284
 10
48.910000000000004
 20
54.61027082673463
 10
48.910000000000004
 20
40.63972917326537
 10
48.90931028561285
 20
40.62568971438716
 10
48.89527082673463
 20
40.625
 10
34.924729173265376
 20
40.625
 10
34.91068971438716
 20
40.62568971438716
 10
34.910000000000004
 20
40.63972917326537
 10
34.910000000000004
 20
54.61027082673463
  0
LWPOLYLINE
  5
66
330
17
100
AcDbEntity
  8
SWITCH_CUTOUTS
100
AcDbPolyline
 90
13
 70
1
 10
31.1
 20
35.56027082673463
 10
31.100689714387155
 20
35.57431028561285
 10
31.11472917326537
 20
35.575
 10
45.08527082673463
 20
35.575
 10
45.099310285612844
 20
35.574310285612846
 10
45.1
 20
35.56027082673463
 10
45.1
 20
21.589729173265372
 10
45.09931028561285
 20
21.575689714387156
 10
45.08527082673463
 20
21.575000000000003
 10
31.11472917326537
 20
21.575000000000003
 10
31.100689714387155
 20
21.575689714387156
 10
31.1
 20
21.589729173265372
 10
31.1
 20
35.56027082673463
  0
LWPOLYLINE
  5
67
330
17
100
AcDbEntity
  8
SWITCH_CUTOUTS
100
AcDbPolyline
 90
13
 70
1
 10
23.480000000000004
 20
16.51027082673463
 10
23.480689714387157
 20
16.524310285612845
 10
23.494729173265373
 20
16.525
 10
37.46527082673463
 20
16.525
 10
37.479310285612854
 20
16.524310285612845
 10
37.480000000000004
 20
16.51027082673463
 10
37.480000000000004
 20
2.5397291732653677
 10
37.47931028561285
 20
2.525689714387154
 10
37.46527082673465
 20
2.5250000000000004
 10
23.494729173265355
 20
2.5250000000000004
 10
23.480689714387157
 20
2.525689714387154
 10
23.480000000000004
 20
2.5397291732653677
 10
23.480000000000004
 20
16.51027082673463
  0
LWPOLYLINE
  5
68
330
17
100
AcDbEntity
  8
SWITCH_CUTOUTS
100
AcDbPolyline
 90
13
 70
1
 10
8.71625
 20
73.66027082673465
 10
8.716939714387154
 20
73.67431028561285
 10
8.730979173265295
 20
73.675
 10
22.701520826734708
 20
73.675
 10
22.715560285612845
 20
73.67431028561285
 10
22.716250000000002
 20
73.66027082673463
 10
22.716250000000002
 20
59.68972917326537
 10
22.71556028561285
 20
59.67568971438715
 10
22.701520826734633
 20
59.675
 10
8.730979173265366
 20
59.675
 10
8.716939714387156
 20
59.675689714387154
 10
8.71625
 20
59.689729173265356
 10
8.71625
 20
73.66027082673465
  0
LWPOLYLINE
  5
69
330
17
100
AcDbEntity
  8
SWITCH_CUTOUTS
100
AcDbPolyline
 90
13
 70
1
 10
8.71625
 20
54.61027082673464
 10
8.716939714387156
 20
54.62431028561284
 10
8.730979173265366
 20
54.625
 10
22.701520826734633
 20
54.625
 10
22.71556028561285
 20
54.62431028561285
 10
22.716250000000002
 20
54.61027082673463
 10
22.716250000000002
 20
40.63972917326537
 10
22.71556028561285
 20
40.62568971438715
 10
22.701520826734633
 20
40.625
 10
8.730979173265366
 20
40.625
 10
8.716939714387156
 20
40.62568971438716
 10
8.71625
 20
40.63972917326536
 10
8.71625
 20
54.61027082673464
  0
LWPOLYLINE
  5
6A
330
17
100
AcDbEntity
  8
SWITCH_CUTOUTS
100
AcDbPolyline
 90
13
 70
1
 10
7.287500000000001
 20
35.56027082673464
 10
7.288189714387156
 20
35.574310285612846
 10
7.302229173265369
 20
35.575
 10
21.272770826734632
 20
35.575
 10
21.286810285612848
 20
35.57431028561285
 10
21.2875
 20
35.56027082673463
 10
21.2875
 20
21.589729173265372
 10
21.286810285612848
 20
21.575689714387156
 10
21.272770826734632
 20
21.575000000000003
 10
7.302229173265369
 20
21.575000000000003
 10
7.288189714387156
 20
21.575689714387156
 10
7.287500000000001
 20
21.589729173265365
 10
7.287500000000001
 20
35.56027082673464
  0
LWPOLYLINE
  5
6B
330
17
100
AcDbEntity
  8
SWITCH_CUTOUTS
100
AcDbPolyline
 90
13
 70
1
 10
4.43
 20
16.510270826734647
 10
4.430689714387154
 20
16.524310285612845
 10
4.444729173265367
 20
16.525
 10
18.41527082673463
 20
16.525
 10
18.429310285612846
 20
16.524310285612845
 10
18.43
 20
16.51027082673463
 10
18.43
 20
2.5397291732653677
 10
18.429310285612846
 20
2.5256897143871546
 10
18.41527082673465
 20
2.5250000000000004
 10
4.444729173265348
 20
2.5250000000000004
 10
4.430689714387154
 20
2.525689714387154
 10
4.43
 20
2.5397291732653544
 10
4.43
 20
16.510270826734647
  0
LWPOLYLINE
  5
6C
330
17
100
AcDbEntity
  8
STAB_CLEARANCE
100
AcDbPolyline
 90
5
 70
1
 10
270.67625000000004
 20
17.96
 10
270.67625000000004
 20
2.3600000000000003
 10
263.67625000000004
 20
2.3600000000000003
 10
263.67625000000004
 20
17.96
 10
270.67625000000004
 20
17.96
  0
LWPOLYLINE
  5
6D
330
17
100
AcDbEntity
  8
STAB_CLEARANCE
100
AcDbPolyline
 90
5
 70
1
 10
294.48875000000004
 20
17.96
 10
294.48875000000004
 20
2.3600000000000003
 10
287.48875000000004
 20
2.3600000000000003
 10
287.48875000000004
 20
17.96
 10
294.48875000000004
 20
17.96
  0
LWPOLYLINE
  5
6E
330
17
100
AcDbEntity
  8
STAB_CLEARANCE
100
AcDbPolyline
 90
5
 70
1
 10
7.3100000000000005
 20
75.11
 10
7.3100000000000005
 20
59.51
 10
0.3100000000000005
 20
59.51
 10
0.3100000000000005
 20
75.11
 10
7.3100000000000005
 20
75.11
  0
LWPOLYLINE
  5
6F
330
17
100
AcDbEntity
  8
STAB_CLEARANCE
100
AcDbPolyline
 90
5
 70
1
 10
31.122500000000002
 20
59.51
 10
24.122500000000002
 20
59.51
 10
24.122500000000002
 20
75.11
 10
31.122500000000002
 20
75.11
 10
31.122500000000002
 20
59.51
  0
LWPOLYLINE
  5
70
330
17
100
AcDbEntity
  8
STAB_CLEARANCE
100
AcDbPolyline
 90
5
 70
1
 10
275.915
 20
59.51
 10
268.915
 20
59.51
 10
268.915
 20
75.11
 10
275.915
 20
75.11
 10
275.915
 20
59.51
  0
LWPOLYLINE
  5
71
330
17
100
AcDbEntity
  8
STAB_CLEARANCE
100
AcDbPolyline
 90
5
 70
1
 10
299.7275
 20
75.11
 10
299.7275
 20
59.51
 10
292.7275
 20
59.51
 10
292.7275
 20
75.11
 10
299.7275
 20
75.11
  0
LWPOLYLINE
  5
72
330
17
100
AcDbEntity
  8
STAB_CLEARANCE
100
AcDbPolyline
 90
5
 70
1
 10
113.80710585378444
 20
96.47357122825788
 10
115.42556428662772
 20
80.9577537408949
 10
108.46333849101613
 20
80.2315223928242
 10
106.84488005817285
 20
95.74733988018717
 10
113.80710585378444
 20
96.47357122825788
  0
LWPOLYLINE
  5
73
330
17
100
AcDbEntity
  8
STAB_CLEARANCE
100
AcDbPolyline
 90
5
 70
1
 10
193.19182539388456
 20
95.7486447149471
 10
191.57336696104127
 20
80.23282722758414
 10
184.61114116542967
 20
80.95905857565484
 10
186.22959959827296
 20
96.47487606301782
 10
193.19182539388456
 20
95.7486447149471
  0
LWPOLYLINE
  5
74
330
17
100
AcDbEntity
  8
STAB_CLEARANCE
100
AcDbPolyline
 90
5
 70
1
 10
139.10956453777072
 20
83.42823716602828
 10
132.14733874215912
 20
82.70200581795758
 10
130.52888030931584
 20
98.21782330532055
 10
137.49110610492744
 20
98.94405465339125
 10
139.10956453777072
 20
83.42823716602828
  0
LWPOLYLINE
  5
75
330
17
100
AcDbEntity
  8
STAB_CLEARANCE
100
AcDbPolyline
 90
5
 70
1
 10
167.8893667098983
 20
82.70331065271752
 10
160.9271409142867
 20
83.42954200078822
 10
162.54559934712998
 20
98.94535948815118
 10
169.50782514274155
 20
98.21912814008049
 10
167.8893667098983
 20
82.70331065271752
  0
ENDSEC
  0
SECTION
  2
OBJECTS
  0
DICTIONARY
  5
A
330
0
100
AcDbDictionary
281
1
  3
ACAD_COLOR
350
B
  3
ACAD_GROUP
350
C
  3
ACAD_LAYOUT
350
D
  3
ACAD_MATERIAL
350
E
  3
ACAD_MLEADERSTYLE
350
F
  3
ACAD_MLINESTYLE
350
10
  3
ACAD_PLOTSETTINGS
350
11
  3
ACAD_PLOTSTYLENAME
350
12
  3
ACAD_SCALELIST
350
14
  3
ACAD_TABLESTYLE
350
15
  3
ACAD_VISUALSTYLE
350
16
  3
EZDXF_META
350
2D
  0
DICTIONARY
  5
B
330
A
100
AcDbDictionary
281
1
  0
DICTIONARY
  5
C
330
A
100
AcDbDictionary
281
1
  0
DICTIONARY
  5
D
330
A
100
AcDbDictionary
281
1
  3
Model
350
1A
  3
Layout1
350
1E
  0
DICTIONARY
  5
E
330
A
100
AcDbDictionary
281
1
  3
ByBlock
350
1F
  3
ByLayer
350
20
  3
Global
350
21
  0
DICTIONARY
  5
F
330
A
100
AcDbDictionary
281
1
  3
Standard
350
2C
  0
DICTIONARY
  5
10
330
A
100
AcDbDictionary
281
1
  3
Standard
350
22
  0
DICTIONARY
  5
11
330
A
100
AcDbDictionary
281
1
  0
ACDBDICTIONARYWDFLT
  5
12
330
A
100
AcDbDictionary
281
1
  3
Normal
350
13
100
AcDbDictionaryWithDefault
340
13
  0
ACDBPLACEHOLDER
  5
13
330
12
  0
DICTIONARY
  5
14
330
A
100
AcDbDictionary
281
1
  0
DICTIONARY
  5
15
330
A
100
AcDbDictionary
281
1
  0
DICTIONARY
  5
16
330
A
100
AcDbDictionary
281
1
  0
LAYOUT
  5
1A
330
D
100
AcDbPlotSettings
  1

  4
A3
  6

 40
7.5
 41
20.0
 42
7.5
 43
20.0
 44
420.0
 45
297.0
 46
0.0
 47
0.0
 48
0.0
 49
0.0
140
0.0
141
0.0
142
1.0
143
1.0
 70
1024
 72
1
 73
0
 74
5
  7

 75
16
 76
0
 77
2
 78
300
147
1.0
148
0.0
149
0.0
100
AcDbLayout
  1
Model
 70
1
 71
0
 10
0.0
 20
0.0
 11
420.0
 21
297.0
 12
0.0
 22
0.0
 32
0.0
 14
1e+20
 24
1e+20
 34
1e+20
 15
-1e+20
 25
-1e+20
 35
-1e+20
146
0.0
 13
0.0
 23
0.0
 33
0.0
 16
1.0
 26
0.0
 36
0.0
 17
0.0
 27
1.0
 37
0.0
 76
1
330
17
  0
LAYOUT
  5
1E
330
D
100
AcDbPlotSettings
  1

  4
A3
  6

 40
7.5
 41
20.0
 42
7.5
 43
20.0
 44
420.0
 45
297.0
 46
0.0
 47
0.0
 48
0.0
 49
0.0
140
0.0
141
0.0
142
1.0
143
1.0
 70
0
 72
1
 73
0
 74
5
  7

 75
16
 76
0
 77
2
 78
300
147
1.0
148
0.0
149
0.0
100
AcDbLayout
  1
Layout1
 70
1
 71
1
 10
0.0
 20
0.0
 11
420.0
 21
297.0
 12
0.0
 22
0.0
 32
0.0
 14
1e+20
 24
1e+20
 34
1e+20
 15
-1e+20
 25
-1e+20
 35
-1e+20
146
0.0
 13
0.0
 23
0.0
 33
0.0
 16
1.0
 26
0.0
 36
0.0
 17
0.0
 27
1.0
 37
0.0
 76
1
330
1B
  0
MATERIAL
  5
1F
102
{ACAD_REACTORS
330
E
102
}
330
E
100
AcDbMaterial
  1
ByBlock
  2

 70
0
 40
1.0
 71
1
 41
1.0
 91
-1023410177
 42
1.0
 72
1
  3

 73
1
 74
1
 75
1
 44
0.5
 73
0
 45
1.0
 46
1.0
 77
1
  4

 78
1
 79
1
170
1
 48
1.0
171
1
  6

172
1
173
1
174
1
140
1.0
141
1.0
175
1
  7

176
1
177
1
178
1
143
1.0
179
1
  8

270
1
271
1
272
1
145
1.0
146
1.0
273
1
  9

274
1
275
1
276
1
 42
1.0
 72
1
  3

 73
1
 74
1
 75
1
 94
63
  0
MATERIAL
  5
20
102
{ACAD_REACTORS
330
E
102
}
330
E
100
AcDbMaterial
  1
ByLayer
  2

 70
0
 40
1.0
 71
1
 41
1.0
 91
-1023410177
 42
1.0
 72
1
  3

 73
1
 74
1
 75
1
 44
0.5
 73
0
 45
1.0
 46
1.0
 77
1
  4

 78
1
 79
1
170
1
 48
1.0
171
1
  6

172
1
173
1
174
1
140
1.0
141
1.0
175
1
  7

176
1
177
1
178
1
143
1.0
179
1
  8

270
1
271
1
272
1
145
1.0
146
1.0
273
1
  9

274
1
275
1
276
1
 42
1.0
 72
1
  3

 73
1
 74
1
 75
1
 94
63
  0
MATERIAL
  5
21
102
{ACAD_REACTORS
330
E
102
}
330
E
100
AcDbMaterial
  1
Global
  2

 70
0
 40
1.0
 71
1
 41
1.0
 91
-1023410177
 42
1.0
 72
1
  3

 73
1
 74
1
 75
1
 44
0.5
 73
0
 45
1.0
 46
1.0
 77
1
  4

 78
1
 79
1
170
1
 48
1.0
171
1
  6

172
1
173
1
174
1
140
1.0
141
1.0
175
1
  7

176
1
177
1
178
1
143
1.0
179
1
  8

270
1
271
1
272
1
145
1.0
146
1.0
273
1
  9

274
1
275
1
276
1
 42
1.0
 72
1
  3

 73
1
 74
1
 75
1
 94
63
  0
MLINESTYLE
  5
22
102
{ACAD_REACTORS
330
10
102
}
330
10
100
AcDbMlineStyle
  2
Standard
 70
0
  3

 62
256
 51
90.0
 52
90.0
 71
2
 49
0.5
 62
256
  6
BYLAYER
 49
-0.5
 62
256
  6
BYLAYER
  0
MLEADERSTYLE
  5
2C
102
{ACAD_REACTORS
330
F
102
}
330
F
100
AcDbMLeaderStyle
179
2
170
2
171
1
172
0
 90
2
 40
0.0
 41
0.0
173
1
 91
-1056964608
 92
-2
290
1
 42
2.0
291
1
 43
8.0
  3
Standard
 44
4.0
300

342
29
174
1
175
1
176
0
178
1
 93
-1056964608
 45
4.0
292
0
297
0
 46
4.0
 94
-1056964608
 47
1.0
 49
1.0
140
1.0
294
1
141
0.0
177
0
142
1.0
295
0
296
0
143
3.75
271
0
272
9
273
9
  0
DICTIONARY
  5
2D
330
A
100
AcDbDictionary
280
1
281
1
  3
CREATED_BY_EZDXF
350
2E
  3
WRITTEN_BY_EZDXF
350
78
  0
DICTIONARYVAR
  5
2E
330
2D
100
DictionaryVariables
280
0
  1
1.4.4 @ 2026-09-10T12:24:19.811826+00:00
  0
DICTIONARYVAR
  5
78
330
2D
100
DictionaryVariables
280
0
  1
1.4.4 @ 2026-09-10T12:24:19.832322+00:00
  0
ENDSEC
  0
EOF
