  0
SECTION
  2
HEADER
  9
$ACADVER
  1
AC1024
  9
$ACADMAINTVER
 70
6
  9
$DWGCODEPAGE
  3
ANSI_1252
  9
$LASTSAVEDBY
  1
ezdxf
  9
$INSBASE
 10
0.0
 20
0.0
 30
0.0
  9
$EXTMIN
 10
1e+20
 20
1e+20
 30
1e+20
  9
$EXTMAX
 10
-1e+20
 20
-1e+20
 30
-1e+20
  9
$LIMMIN
 10
0.0
 20
0.0
  9
$LIMMAX
 10
420.0
 20
297.0
  9
$ORTHOMODE
 70
0
  9
$REGENMODE
 70
1
  9
$FILLMODE
 70
1
  9
$QTEXTMODE
 70
0
  9
$MIRRTEXT
 70
1
  9
$LTSCALE
 40
1.0
  9
$ATTMODE
 70
1
  9
$TEXTSIZE
 40
2.5
  9
$TRACEWID
 40
1.0
  9
$TEXTSTYLE
  7
Standard
  9
$CLAYER
  8
0
  9
$CELTYPE
  6
ByLayer
  9
$CECOLOR
 62
256
  9
$CELTSCALE
 40
1.0
  9
$DISPSILH
 70
0
  9
$DIMSCALE
 40
1.0
  9
$DIMASZ
 40
2.5
  9
$DIMEXO
 40
0.625
  9
$DIMDLI
 40
3.75
  9
$DIMRND
 40
0.0
  9
$DIMDLE
 40
0.0
  9
$DIMEXE
 40
1.25
  9
$DIMTP
 40
0.0
  9
$DIMTM
 40
0.0
  9
$DIMTXT
 40
2.5
  9
$DIMCEN
 40
2.5
  9
$DIMTSZ
 40
0.0
  9
$DIMTOL
 70
0
  9
$DIMLIM
 70
0
  9
$DIMTIH
 70
0
  9
$DIMTOH
 70
0
  9
$DIMSE1
 70
0
  9
$DIMSE2
 70
0
  9
$DIMTAD
 70
1
  9
$DIMZIN
 70
8
  9
$DIMBLK
  1

  9
$DIMASO
 70
1
  9
$DIMSHO
 70
1
  9
$DIMPOST
  1

  9
$DIMAPOST
  1

  9
$DIMALT
 70
0
  9
$DIMALTD
 70
3
  9
$DIMALTF
 40
0.03937007874
  9
$DIMLFAC
 40
1.0
  9
$DIMTOFL
 70
1
  9
$DIMTVP
 40
0.0
  9
$DIMTIX
 70
0
  9
$DIMSOXD
 70
0
  9
$DIMSAH
 70
0
  9
$DIMBLK1
  1

  9
$DIMBLK2
  1

  9
$DIMSTYLE
  2
ISO-25
  9
$DIMCLRD
 70
0
  9
$DIMCLRE
 70
0
  9
$DIMCLRT
 70
0
  9
$DIMTFAC
 40
1.0
  9
$DIMGAP
 40
0.625
  9
$DIMJUST
 70
0
  9
$DIMSD1
 70
0
  9
$DIMSD2
 70
0
  9
$DIMTOLJ
 70
0
  9
$DIMTZIN
 70
8
  9
$DIMALTZ
 70
0
  9
$DIMALTTZ
 70
0
  9
$DIMUPT
 70
0
  9
$DIMDEC
 70
2
  9
$DIMTDEC
 70
2
  9
$DIMALTU
 70
2
  9
$DIMALTTD
 70
3
  9
$DIMTXSTY
  7
Standard
  9
$DIMAUNIT
 70
0
  9
$DIMADEC
 70
0
  9
$DIMALTRND
 40
0.0
  9
$DIMAZIN
 70
0
  9
$DIMDSEP
 70
44
  9
$DIMATFIT
 70
3
  9
$DIMFRAC
 70
0
  9
$DIMLDRBLK
  1

  9
$DIMLUNIT
 70
2
  9
$DIMLWD
 70
-2
  9
$DIMLWE
 70
-2
  9
$DIMTMOVE
 70
0
  9
$DIMFXL
 40
1.0
  9
$DIMFXLON
 70
0
  9
$DIMJOGANG
 40
0.785398163397
  9
$DIMTFILL
 70
0
  9
$DIMTFILLCLR
 70
0
  9
$DIMARCSYM
 70
0
  9
$DIMLTYPE
  6

  9
$DIMLTEX1
  6

  9
$DIMLTEX2
  6

  9
$DIMTXTDIRECTION
 70
0
  9
$LUNITS
 70
2
  9
$LUPREC
 70
4
  9
$SKETCHINC
 40
1.0
  9
$FILLETRAD
 40
10.0
  9
$AUNITS
 70
0
  9
$AUPREC
 70
2
  9
$MENU
  1
.
  9
$ELEVATION
 40
0.0
  9
$PELEVATION
 40
0.0
  9
$THICKNESS
 40
0.0
  9
$LIMCHECK
 70
0
  9
$CHAMFERA
 40
0.0
  9
$CHAMFERB
 40
0.0
  9
$CHAMFERC
 40
0.0
  9
$CHAMFERD
 40
0.0
  9
$SKPOLY
 70
0
  9
$TDCREATE
 40
2461305.430046296
  9
$TDUCREATE
 40
2458532.153996898
  9
$TDUPDATE
 40
2461305.430046296
  9
$TDUUPDATE
 40
2458532.1544311
  9
$TDINDWG
 40
0.0
  9
$TDUSRTIMER
 40
0.0
  9
$USRTIMER
 70
1
  9
$ANGBASE
 50
0.0
  9
$ANGDIR
 70
0
  9
$PDMODE
 70
0
  9
$PDSIZE
 40
0.0
  9
$PLINEWID
 40
0.0
  9
$SPLFRAME
 70
0
  9
$SPLINETYPE
 70
6
  9
$SPLINESEGS
 70
8
  9
$HANDSEED
  5
5D
  9
$SURFTAB1
 70
6
  9
$SURFTAB2
 70
6
  9
$SURFTYPE
 70
6
  9
$SURFU
 70
6
  9
$SURFV
 70
6
  9
$UCSBASE
  2

  9
$UCSNAME
  2

  9
$UCSORG
 10
0.0
 20
0.0
 30
0.0
  9
$UCSXDIR
 10
1.0
 20
0.0
 30
0.0
  9
$UCSYDIR
 10
0.0
 20
1.0
 30
0.0
  9
$UCSORTHOREF
  2

  9
$UCSORTHOVIEW
 70
0
  9
$UCSORGTOP
 10
0.0
 20
0.0
 30
0.0
  9
$UCSORGBOTTOM
 10
0.0
 20
0.0
 30
0.0
  9
$UCSORGLEFT
 10
0.0
 20
0.0
 30
0.0
  9
$UCSORGRIGHT
 10
0.0
 20
0.0
 30
0.0
  9
$UCSORGFRONT
 10
0.0
 20
0.0
 30
0.0
  9
$UCSORGBACK
 10
0.0
 20
0.0
 30
0.0
  9
$PUCSBASE
  2

  9
$PUCSNAME
  2

  9
$PUCSORG
 10
0.0
 20
0.0
 30
0.0
  9
$PUCSXDIR
 10
1.0
 20
0.0
 30
0.0
  9
$PUCSYDIR
 10
0.0
 20
1.0
 30
0.0
  9
$PUCSORTHOREF
  2

  9
$PUCSORTHOVIEW
 70
0
  9
$PUCSORGTOP
 10
0.0
 20
0.0
 30
0.0
  9
$PUCSORGBOTTOM
 10
0.0
 20
0.0
 30
0.0
  9
$PUCSORGLEFT
 10
0.0
 20
0.0
 30
0.0
  9
$PUCSORGRIGHT
 10
0.0
 20
0.0
 30
0.0
  9
$PUCSORGFRONT
 10
0.0
 20
0.0
 30
0.0
  9
$PUCSORGBACK
 10
0.0
 20
0.0
 30
0.0
  9
$USERI1
 70
0
  9
$USERI2
 70
0
  9
$USERI3
 70
0
  9
$USERI4
 70
0
  9
$USERI5
 70
0
  9
$USERR1
 40
0.0
  9
$USERR2
 40
0.0
  9
$USERR3
 40
0.0
  9
$USERR4
 40
0.0
  9
$USERR5
 40
0.0
  9
$WORLDVIEW
 70
1
  9
$SHADEDGE
 70
3
  9
$SHADEDIF
 70
70
  9
$TILEMODE
 70
1
  9
$MAXACTVP
 70
64
  9
$PINSBASE
 10
0.0
 20
0.0
 30
0.0
  9
$PLIMCHECK
 70
0
  9
$PEXTMIN
 10
1e+20
 20
1e+20
 30
1e+20
  9
$PEXTMAX
 10
-1e+20
 20
-1e+20
 30
-1e+20
  9
$PLIMMIN
 10
0.0
 20
0.0
  9
$PLIMMAX
 10
420.0
 20
297.0
  9
$UNITMODE
 70
0
  9
$VISRETAIN
 70
1
  9
$PLINEGEN
 70
0
  9
$PSLTSCALE
 70
1
  9
$TREEDEPTH
 70
3020
  9
$CMLSTYLE
  2
Standard
  9
$CMLJUST
 70
0
  9
$CMLSCALE
 40
20.0
  9
$PROXYGRAPHICS
 70
1
  9
$MEASUREMENT
 70
1
  9
$CELWEIGHT
370
-1
  9
$ENDCAPS
280
0
  9
$JOINSTYLE
280
0
  9
$LWDISPLAY
290
0
  9
$INSUNITS
 70
4
  9
$HYPERLINKBASE
  1

  9
$STYLESHEET
  1

  9
$XEDIT
290
1
  9
$CEPSNTYPE
380
0
  9
$PSTYLEMODE
290
1
  9
$FINGERPRINTGUID
  2
{F6DE4E1E-5B15-4634-9A24-F37F175C0684}
  9
$VERSIONGUID
  2
{D50B86B0-3DE5-4108-A3FF-574B686FC1D3}
  9
$EXTNAMES
290
1
  9
$PSVPSCALE
 40
0.0
  9
$OLESTARTUP
290
0
  9
$SORTENTS
280
127
  9
$INDEXCTL
280
0
  9
$HIDETEXT
280
1
  9
$XCLIPFRAME
280
1
  9
$HALOGAP
280
0
  9
$OBSCOLOR
 70
257
  9
$OBSLTYPE
280
0
  9
$INTERSECTIONDISPLAY
280
0
  9
$INTERSECTIONCOLOR
 70
257
  9
$DIMASSOC
280
2
  9
$PROJECTNAME
  1

  9
$CAMERADISPLAY
290
0
  9
$LENSLENGTH
 40
50.0
  9
$CAMERAHEIGHT
 40
0.0
  9
$STEPSPERSEC
 40
24.0
  9
$STEPSIZE
 40
100.0
  9
$3DDWFPREC
 40
2.0
  9
$PSOLWIDTH
 40
0.005
  9
$PSOLHEIGHT
 40
0.08
  9
$LOFTANG1
 40
1.570796326795
  9
$LOFTANG2
 40
1.570796326795
  9
$LOFTMAG1
 40
0.0
  9
$LOFTMAG2
 40
0.0
  9
$LOFTPARAM
 70
7
  9
$LOFTNORMALS
280
1
  9
$LATITUDE
 40
37.795
  9
$LONGITUDE
 40
-122.394
  9
$NORTHDIRECTION
 40
0.0
  9
$TIMEZONE
 70
-8000
  9
$LIGHTGLYPHDISPLAY
280
1
  9
$TILEMODELIGHTSYNCH
280
1
  9
$CMATERIAL
347
20
  9
$SOLIDHIST
280
0
  9
$SHOWHIST
280
1
  9
$DWFFRAME
280
2
  9
$DGNFRAME
280
2
  9
$REALWORLDSCALE
290
1
  9
$INTERFERECOLOR
 62
256
  9
$CSHADOW
280
0
  9
$SHADOWPLANELOCATION
 40
0.0
  0
ENDSEC
  0
SECTION
  2
CLASSES
  0
CLASS
  1
ACDBDICTIONARYWDFLT
  2
AcDbDictionaryWithDefault
  3
ObjectDBX Classes
 90
0
 91
0
280
0
281
0
  0
CLASS
  1
SUN
  2
AcDbSun
  3
SCENEOE
 90
1153
 91
0
280
0
281
0
  0
CLASS
  1
VISUALSTYLE
  2
AcDbVisualStyle
  3
ObjectDBX Classes
 90
4095
 91
0
280
0
281
0
  0
CLASS
  1
MATERIAL
  2
AcDbMaterial
  3
ObjectDBX Classes
 90
1153
 91
0
280
0
281
0
  0
CLASS
  1
SCALE
  2
AcDbScale
  3
ObjectDBX Classes
 90
1153
 91
0
280
0
281
0
  0
CLASS
  1
TABLESTYLE
  2
AcDbTableStyle
  3
ObjectDBX Classes
 90
4095
 91
0
280
0
281
0
  0
CLASS
  1
MLEADERSTYLE
  2
AcDbMLeaderStyle
  3
ACDB_MLEADERSTYLE_CLASS
 90
4095
 91
0
280
0
281
0
  0
CLASS
  1
DICTIONARYVAR
  2
AcDbDictionaryVar
  3
ObjectDBX Classes
 90
0
 91
0
280
0
281
0
  0
CLASS
  1
CELLSTYLEMAP
  2
AcDbCellStyleMap
  3
ObjectDBX Classes
 90
1152
 91
0
280
0
281
0
  0
CLASS
  1
MENTALRAYRENDERSETTINGS
  2
AcDbMentalRayRenderSettings
  3
SCENEOE
 90
1024
 91
0
280
0
281
0
  0
CLASS
  1
ACDBDETAILVIEWSTYLE
  2
AcDbDetailViewStyle
  3
ObjectDBX Classes
 90
1025
 91
0
280
0
281
0
  0
CLASS
  1
ACDBSECTIONVIEWSTYLE
  2
AcDbSectionViewStyle
  3
ObjectDBX Classes
 90
1025
 91
0
280
0
281
0
  0
CLASS
  1
RASTERVARIABLES
  2
AcDbRasterVariables
  3
ISM
 90
0
 91
0
280
0
281
0
  0
CLASS
  1
LAYOUT
  2
AcDbLayout
  3
ObjectDBX Classes
 90
0
 91
0
280
0
281
0
  0
CLASS
  1
ACDBPLACEHOLDER
  2
AcDbPlaceHolder
  3
ObjectDBX Classes
 90
0
 91
0
280
0
281
0
  0
ENDSEC
  0
SECTION
  2
TABLES
  0
TABLE
  2
VPORT
  5
8
330
0
100
AcDbSymbolTable
 70
1
  0
VPORT
  5
23
330
8
100
AcDbSymbolTableRecord
100
AcDbViewportTableRecord
  2
*Active
 70
0
 10
0.0
 20
0.0
 11
1.0
 21
1.0
 12
0.0
 22
0.0
 13
0.0
 23
0.0
 14
0.5
 24
0.5
 15
0.5
 25
0.5
 16
0.0
 26
0.0
 36
1.0
 17
0.0
 27
0.0
 37
0.0
 40
1000.0
 41
1.34
 42
50.0
 43
0.0
 44
0.0
 50
0.0
 51
0.0
 71
0
 72
1000
 73
1
 74
3
 75
0
 76
0
 77
0
 78
0
281
0
 65
0
146
0.0
  0
ENDTAB
  0
TABLE
  2
LTYPE
  5
2
330
0
100
AcDbSymbolTable
 70
3
  0
LTYPE
  5
24
330
2
100
AcDbSymbolTableRecord
100
AcDbLinetypeTableRecord
  2
ByBlock
 70
0
  3

 72
65
 73
0
 40
0.0
  0
LTYPE
  5
25
330
2
100
AcDbSymbolTableRecord
100
AcDbLinetypeTableRecord
  2
ByLayer
 70
0
  3

 72
65
 73
0
 40
0.0
  0
LTYPE
  5
26
330
2
100
AcDbSymbolTableRecord
100
AcDbLinetypeTableRecord
  2
Continuous
 70
0
  3

 72
65
 73
0
 40
0.0
  0
ENDTAB
  0
TABLE
  2
LAYER
  5
1
330
0
100
AcDbSymbolTable
 70
6
  0
LAYER
  5
27
330
1
100
AcDbSymbolTableRecord
100
AcDbLayerTableRecord
  2
0
 70
0
 62
7
  6
Continuous
370
-3
390
13
347
21
  0
LAYER
  5
28
330
1
100
AcDbSymbolTableRecord
100
AcDbLayerTableRecord
  2
Defpoints
 70
0
 62
7
  6
Continuous
290
0
370
-3
390
13
347
21
  0
LAYER
  5
2F
330
1
100
AcDbSymbolTableRecord
100
AcDbLayerTableRecord
  2
PLATE_OUTLINE
 70
0
 62
7
  6
Continuous
370
-3
390
13
347
21
  0
LAYER
  5
30
330
1
100
AcDbSymbolTableRecord
100
AcDbLayerTableRecord
  2
SWITCH_CUTOUTS
 70
0
 62
3
  6
Continuous
370
-3
390
13
347
21
  0
LAYER
  5
31
330
1
100
AcDbSymbolTableRecord
100
AcDbLayerTableRecord
  2
STAB_CLEARANCE
 70
0
 62
1
  6
Continuous
370
-3
390
13
347
21
  0
LAYER
  5
32
330
1
100
AcDbSymbolTableRecord
100
AcDbLayerTableRecord
  2
STANDOFF_HOLES
 70
0
 62
5
  6
Continuous
370
-3
390
13
347
21
  0
ENDTAB
  0
TABLE
  2
STYLE
  5
5
330
0
100
AcDbSymbolTable
 70
1
  0
STYLE
  5
29
330
5
100
AcDbSymbolTableRecord
100
AcDbTextStyleTableRecord
  2
Standard
 70
0
 40
0.0
 41
1.0
 50
0.0
 71
0
 42
2.5
  3
txt
  4

  0
ENDTAB
  0
TABLE
  2
VIEW
  5
7
330
0
100
AcDbSymbolTable
 70
0
  0
ENDTAB
  0
TABLE
  2
UCS
  5
6
330
0
100
AcDbSymbolTable
 70
0
  0
ENDTAB
  0
TABLE
  2
APPID
  5
3
330
0
100
AcDbSymbolTable
 70
3
  0
APPID
  5
2A
330
3
100
AcDbSymbolTableRecord
100
AcDbRegAppTableRecord
  2
ACAD
 70
0
  0
APPID
  5
5A
330
3
100
AcDbSymbolTableRecord
100
AcDbRegAppTableRecord
  2
HATCHBACKGROUNDCOLOR
 70
0
  0
APPID
  5
5B
330
3
100
AcDbSymbolTableRecord
100
AcDbRegAppTableRecord
  2
EZDXF
 70
0
  0
ENDTAB
  0
TABLE
  2
DIMSTYLE
  5
4
330
0
100
AcDbSymbolTable
 70
1
100
AcDbDimStyleTable
  0
DIMSTYLE
105
2B
330
4
100
AcDbSymbolTableRecord
100
AcDbDimStyleTableRecord
  2
Standard
 70
0
 40
1.0
 41
2.5
 42
0.625
 43
3.75
 44
1.25
 45
0.0
 46
0.0
 47
0.0
 48
0.0
 49
2.5
140
2.5
141
2.5
142
0.0
143
0.03937007874
144
1.0
145
0.0
146
1.0
147
0.625
148
0.0
 69
0
 70
0
 71
0
 72
0
 73
0
 74
0
 75
0
 76
0
 77
1
 78
8
 79
3
170
0
171
3
172
1
173
0
174
0
175
0
176
0
177
0
178
0
179
2
271
2
272
2
273
2
274
3
275
0
276
0
277
2
278
44
279
0
280
0
281
0
282
0
283
0
284
8
285
0
286
0
288
0
289
3
290
0
371
-2
372
-2
  0
ENDTAB
  0
TABLE
  2
BLOCK_RECORD
  5
9
330
0
100
AcDbSymbolTable
 70
2
  0
BLOCK_RECORD
  5
17
330
9
100
AcDbSymbolTableRecord
100
AcDbBlockTableRecord
  2
*Model_Space
340
1A
 70
0
280
1
281
0
  0
BLOCK_RECORD
  5
1B
330
9
100
AcDbSymbolTableRecord
100
AcDbBlockTableRecord
  2
*Paper_Space
340
1E
 70
0
280
1
281
0
  0
ENDTAB
  0
ENDSEC
  0
SECTION
  2
BLOCKS
  0
BLOCK
  5
18
330
17
100
AcDbEntity
  8
0
100
AcDbBlockBegin
  2
*Model_Space
 70
0
 10
0.0
 20
0.0
 30
0.0
  3
*Model_Space
  1

  0
ENDBLK
  5
19
330
17
100
AcDbEntity
  8
0
100
AcDbBlockEnd
  0
BLOCK
  5
1C
330
1B
100
AcDbEntity
  8
0
100
AcDbBlockBegin
  2
*Paper_Space
 70
0
 10
0.0
 20
0.0
 30
0.0
  3
*Paper_Space
  1

  0
ENDBLK
  5
1D
330
1B
100
AcDbEntity
  8
0
100
AcDbBlockEnd
  0
ENDSEC
  0
SECTION
  2
ENTITIES
  0
LWPOLYLINE
  5
33
330
17
100
AcDbEntity
  8
PLATE_OUTLINE
100
AcDbPolyline
 90
140
 70
1
 10
308.84931271850877
 20
13.673349686467878
 10
309.1008701849306
 20
13.804305401019782
 10
309.30554707708654
 20
14.000616195179832
 10
309.4468811183132
 20
14.246492682215358
 10
309.5135047327979
 20
14.522158879053777
 10
309.51800000000003
 20
23.783410591370338
 10
309.50005934604616
 20
23.971982701830566
 10
309.4468811183132
 20
24.153788598332564
 10
309.30554707708654
 20
24.39966508536809
 10
309.1752095569904
 20
24.53711849115676
 10
308.93718596136813
 20
24.69131098777509
 10
308.69415014457803
 20
24.78141616202519
 10
308.2637135065232
 20
24.899972437348673
 10
307.79001097273
 20
25.006018921675935
 10
305.76438893492247
 20
25.390343197473413
 10
305.3044238595435
 20
25.492181697169734
 10
304.8955498623799
 20
25.601508477828226
 10
304.51918548786074
 20
25.73507972449473
 10
304.51800000000003
 20
80.75227950667664
 10
304.5191684493104
 20
80.77563717071429
 10
304.5589526475938
 20
80.79285443175002
 10
304.85961871852373
 20
80.89843183070252
 10
305.3044238595433
 20
81.0188758039434
 10
305.76438893492224
 20
81.12071430363973
 10
307.7900109727299
 20
81.50503857943723
 10
308.26371350652335
 20
81.61108506376453
 10
308.6941501445779
 20
81.72964133908796
 10
308.9371859613681
 20
81.8197465133381
 10
309.1752095569904
 20
81.97393900995642
 10
309.30554707708654
 20
82.1113924157451
 10
309.4468811183132
 20
82.35726890278063
 10
309.50005934604616
 20
82.53907479928263
 10
309.51800000000003
 20
82.72764690974286
 10
309.51800000000003
 20
91.89418681193558
 10
309.47778472095683
 20
92.17492385868547
 10
309.40762637801794
 20
92.350875882896
 10
309.24364026391737
 20
92.58226108654691
 10
309.02129049842006
 20
92.75830409228595
 10
308.69415014457803
 20
92.89219238259044
 10
308.22078441089826
 20
93.0212689252643
 10
307.28655495012265
 20
93.21558031531153
 10
305.75211194192474
 20
93.50368079174189
 10
304.8955498623798
 20
93.71228469839352
 10
304.55706657864175
 20
93.82964157368257
 10
304.51918548786074
 20
93.84585594505997
 10
304.5131847266722
 20
94.10888335511112
 10
304.47494033573224
 20
94.30115089203602
 10
304.39992126434834
 20
94.48226295160755
 10
304.29101045336273
 20
94.64525949894521
 10
304.1523932841637
 20
94.7838766681443
 10
303.9006834323651
 20
94.93474574729285
 10
303.7130903220161
 20
94.99165149518478
 10
303.51800000000003
 20
95.01086621478156
 10
229.48683987659027
 20
95.02016520675137
 10
158.36543446131273
 20
106.28391145241999
 10
158.07847380466188
 20
106.28766797219778
 10
157.80226335462575
 20
106.20976856785373
 10
157.55955195023495
 20
106.056629075609
 10
157.37032943136944
 20
105.84086214519445
 10
157.25018026495317
 20
105.5802384553353
 10
157.209
 20
105.29622311123447
 10
157.2078315506896
 20
93.84619655096414
 10
156.86738128147636
 20
93.72340189097596
 10
156.42257614045627
 20
93.60295791773493
 10
155.96261106507785
 20
93.50111941803871
 10
153.93698902727
 20
93.11679514224117
 10
153.46328649347677
 20
93.01074865791391
 10
152.87768728149132
 20
92.83770781464534
 10
152.70570950158006
 20
92.75830409228601
 10
152.55179044300962
 20
92.64789471172206
 10
152.36662657883574
 20
92.4330810680898
 10
152.2492152790432
 20
92.1749238586855
 10
152.209
 20
91.8941868119356
 10
152.209
 20
82.72764690974284
 10
152.22694065395387
 20
82.5390747992826
 10
152.28011888168686
 20
82.3572689027806
 10
152.3666265788357
 20
82.18875265358865
 10
152.55179044300962
 20
81.9739390099564
 10
152.78981403863196
 20
81.81974651333807
 10
153.0328498554221
 20
81.72964133908795
 10
153.46328649347666
 20
81.61108506376455
 10
153.9369890272702
 20
81.50503857943721
 10
155.96261106507782
 20
81.12071430363972
 10
156.42257614045693
 20
81.01887580394336
 10
156.83145013762032
 20
80.9095490232849
 10
157.2078145121393
 20
80.77597777661845
 10
157.2078315506896
 20
42.76311438554022
 10
156.86738128147653
 20
42.640319725552075
 10
156.4225761404566
 20
42.51987575231107
 10
155.9626110650776
 20
42.41803725261473
 10
153.93698902727004
 20
42.03371297681725
 10
153.46328649347691
 20
41.92766649249002
 10
153.03284985542203
 20
41.80911021716652
 10
152.78981403863193
 20
41.719005042916415
 10
152.5517904430096
 20
41.564812546298086
 10
152.3666265788357
 20
41.34999890266583
 10
152.28011888168686
 20
41.181482653473886
 10
152.22694065395387
 20
40.99967675697189
 10
152.209
 20
40.81110464651165
 10
152.209
 20
31.6445647443189
 10
152.2492152790432
 20
31.363827697569004
 10
152.3666265788357
 20
31.105670488164723
 10
152.5517904430096
 20
30.890856844532465
 10
152.70570950158
 20
30.780447463968507
 10
152.87768728149126
 20
30.701043741609187
 10
153.46328649347677
 20
30.528002898340578
 10
153.93698902727002
 20
30.42195641401332
 10
155.96261106507743
 20
30.03763213821587
 10
156.42257614045647
 20
29.935793638519524
 10
156.83145013762012
 20
29.826466857861018
 10
157.2078145121393
 20
29.6928956111945
 10
157.209
 20
9.733836049834679
 10
157.22821471959676
 20
9.53874572781855
 10
157.32707873565164
 20
9.26243931300868
 10
157.50189321881345
 20
9.02672926864813
 10
157.6534297669804
 20
8.902366437532134
 10
157.91871532274553
 20
8.77689571410247
 10
158.209
 20
8.733836049834679
 10
166.7377305861725
 20
8.730748650430069
 10
200.75270434428506
 20
3.329519919072964
 10
221.99833004781794
 20
0.9642223399927068
 10
239.50802514356332
 20
0.04656752409926779
 10
239.93905364239973
 20
0.06669946799078208
 10
240.55050674952156
 20
0.21490541239094194
 10
240.8577664887615
 20
0.24
 10
303.51800000000003
 20
0.24
 10
303.7130903220161
 20
0.25921471959676967
 10
303.9006834323651
 20
0.3161204674887135
 10
304.0735702330196
 20
0.40853038769745476
 10
304.2251067811866
 20
0.5328932188134525
 10
304.3494696123025
 20
0.684429766980398
 10
304.4418795325113
 20
0.8573165676349104
 10
304.5131847266722
 20
1.1419828596704393
 10
304.5191684493104
 20
12.664860950149036
 10
304.85961871852373
 20
12.78765561013726
 10
305.3044238595436
 20
12.908099583378224
 10
305.76438893492264
 20
13.00993808307456
 10
307.79001097273
 20
13.39426235887199
 10
308.2637135065231
 20
13.50030884319924
 10
308.84931271850877
 20
13.673349686467878
  0
LWPOLYLINE
  5
34
330
17
100
AcDbEntity
  8
SWITCH_CUTOUTS
100
AcDbPolyline
 90
13
 70
1
 10
265.41568971438716
 20
59.675689714387154
 10
265.415
 20
59.68972917326508
 10
265.415
 20
73.66027082673492
 10
265.41568971438716
 20
73.67431028561285
 10
265.42972917326534
 20
73.675
 10
300.8312708267347
 20
73.675
 10
300.84531028561287
 20
73.67431028561285
 10
300.846
 20
73.66027082673492
 10
300.846
 20
59.68972917326508
 10
300.84531028561287
 20
59.675689714387154
 10
300.8312708267347
 20
59.675
 10
265.42972917326534
 20
59.675
 10
265.41568971438716
 20
59.675689714387154
  0
LWPOLYLINE
  5
35
330
17
100
AcDbEntity
  8
SWITCH_CUTOUTS
100
AcDbPolyline
 90
53
 70
1
 10
246.36568971438714
 20
78.72568971438713
 10
246.365
 20
78.7397291732652
 10
246.365
 20
92.71027082673476
 10
246.36568971438714
 20
92.72431028561283
 10
246.37972917326533
 20
92.72499999999998
 10
265.1122708267347
 20
92.72499999999998
 10
265.1269290750048
 20
92.72427988643933
 10
265.12853827930445
 20
92.7240411835304
 10
265.18296171532677
 20
92.71321568903025
 10
265.24155939540356
 20
92.707444321286
 10
265.3004406045965
 20
92.707444321286
 10
265.35903828467326
 20
92.71321568903025
 10
265.4134617206956
 20
92.7240411835304
 10
265.41507092499523
 20
92.72427988643933
 10
265.42972917326534
 20
92.72499999999998
 10
279.4002708267347
 20
92.72499999999998
 10
279.4149290750048
 20
92.72427988643933
 10
279.41653827930446
 20
92.72404118353039
 10
279.47096171532667
 20
92.71321568903026
 10
279.5295593954034
 20
92.70744432128602
 10
279.58844060459626
 20
92.707444321286
 10
279.647038284673
 20
92.71321568903022
 10
279.70146172069553
 20
92.72404118353039
 10
279.7030709249952
 20
92.72427988643933
 10
279.7177291732653
 20
92.72499999999998
 10
298.45027082673465
 20
92.72499999999998
 10
298.46431028561284
 20
92.72431028561283
 10
298.465
 20
92.7102708267349
 10
298.465
 20
78.73972917326506
 10
298.46431028561284
 20
78.72568971438713
 10
298.45027082673465
 20
78.72499999999998
 10
279.7177291732653
 20
78.72499999999998
 10
279.7030709249952
 20
78.72572011356063
 10
279.70146172069553
 20
78.72595881646957
 10
279.647038284673
 20
78.73678431096974
 10
279.58844060459626
 20
78.74255567871396
 10
279.5295593954034
 20
78.74255567871394
 10
279.47096171532667
 20
78.7367843109697
 10
279.41653827930446
 20
78.72595881646957
 10
279.4149290750048
 20
78.72572011356063
 10
279.4002708267347
 20
78.72499999999998
 10
265.42972917326534
 20
78.72499999999998
 10
265.41507092499523
 20
78.72572011356063
 10
265.4134617206956
 20
78.72595881646956
 10
265.35903828467326
 20
78.73678431096971
 10
265.3004406045965
 20
78.74255567871396
 10
265.24155939540356
 20
78.74255567871396
 10
265.18296171532677
 20
78.73678431096971
 10
265.12853827930445
 20
78.72595881646956
 10
265.1269290750048
 20
78.72572011356063
 10
265.1122708267347
 20
78.72499999999998
 10
246.37972917326533
 20
78.72499999999998
 10
246.36568971438714
 20
78.72568971438713
  0
LWPOLYLINE
  5
36
330
17
100
AcDbEntity
  8
SWITCH_CUTOUTS
100
AcDbPolyline
 90
13
 70
1
 10
262.5586897143871
 20
2.5256897143871546
 10
262.558
 20
2.539729173265078
 10
262.558
 20
16.51027082673492
 10
262.5586897143871
 20
16.524310285612845
 10
262.5727291732653
 20
16.525
 10
295.5932708267347
 20
16.525
 10
295.60731028561287
 20
16.524310285612845
 10
295.608
 20
16.51027082673492
 10
295.608
 20
2.539729173265078
 10
295.60731028561287
 20
2.5256897143871546
 10
295.5932708267346
 20
2.5250000000000004
 10
262.5727291732654
 20
2.5250000000000004
 10
262.5586897143871
 20
2.5256897143871546
  0
LWPOLYLINE
  5
37
330
17
100
AcDbEntity
  8
SWITCH_CUTOUTS
100
AcDbPolyline
 90
13
 70
1
 10
278.75068971438714
 20
21.575689714387156
 10
278.75
 20
21.58972917326508
 10
278.75
 20
35.56027082673492
 10
278.75068971438714
 20
35.574310285612846
 10
278.7647291732653
 20
35.575
 10
292.7352708267347
 20
35.575
 10
292.74931028561286
 20
35.574310285612846
 10
292.75
 20
35.56027082673492
 10
292.75
 20
21.58972917326508
 10
292.74931028561286
 20
21.575689714387156
 10
292.7352708267347
 20
21.575000000000003
 10
278.7647291732653
 20
21.575000000000003
 10
278.75068971438714
 20
21.575689714387156
  0
LWPOLYLINE
  5
38
330
17
100
AcDbEntity
  8
SWITCH_CUTOUTS
100
AcDbPolyline
 90
13
 70
1
 10
277.321
 20
54.61027082673492
 10
277.32168971438716
 20
54.62431028561284
 10
277.33572917326535
 20
54.625
 10
291.3062708267347
 20
54.625
 10
291.3203102856129
 20
54.62431028561284
 10
291.321
 20
54.61027082673492
 10
291.321
 20
40.63972917326508
 10
291.3203102856129
 20
40.62568971438716
 10
291.3062708267347
 20
40.625
 10
277.33572917326535
 20
40.625
 10
277.32168971438716
 20
40.62568971438716
 10
277.321
 20
40.63972917326508
 10
277.321
 20
54.61027082673492
  0
LWPOLYLINE
  5
39
330
17
100
AcDbEntity
  8
SWITCH_CUTOUTS
100
AcDbPolyline
 90
13
 70
1
 10
254.93868971438712
 20
21.575689714387156
 10
254.938
 20
21.589729173265226
 10
254.938
 20
35.56027082673477
 10
254.93868971438712
 20
35.57431028561285
 10
254.95272917326537
 20
35.575
 10
268.92327082673467
 20
35.575
 10
268.93731028561285
 20
35.574310285612846
 10
268.938
 20
35.56027082673492
 10
268.938
 20
21.58972917326508
 10
268.93731028561285
 20
21.575689714387156
 10
268.92327082673467
 20
21.575000000000003
 10
254.95272917326537
 20
21.575000000000003
 10
254.93868971438712
 20
21.575689714387156
  0
LWPOLYLINE
  5
3A
330
17
100
AcDbEntity
  8
SWITCH_CUTOUTS
100
AcDbPolyline
 90
13
 70
1
 10
251.127
 20
54.61027082673477
 10
251.12768971438715
 20
54.62431028561285
 10
251.1417291732654
 20
54.625
 10
265.1122708267347
 20
54.625
 10
265.1263102856129
 20
54.62431028561284
 10
265.127
 20
54.61027082673492
 10
265.127
 20
40.63972917326508
 10
265.1263102856129
 20
40.62568971438716
 10
265.1122708267347
 20
40.625
 10
251.1417291732654
 20
40.625
 10
251.12768971438715
 20
40.62568971438715
 10
251.127
 20
40.63972917326523
 10
251.127
 20
54.61027082673477
  0
LWPOLYLINE
  5
3B
330
17
100
AcDbEntity
  8
SWITCH_CUTOUTS
100
AcDbPolyline
 90
13
 70
1
 10
246.36568971438714
 20
59.67568971438715
 10
246.365
 20
59.68972917326523
 10
246.365
 20
73.66027082673477
 10
246.36568971438714
 20
73.67431028561285
 10
246.37972917326533
 20
73.675
 10
260.3502708267347
 20
73.675
 10
260.3643102856129
 20
73.67431028561285
 10
260.365
 20
73.66027082673492
 10
260.365
 20
59.68972917326508
 10
260.3643102856129
 20
59.675689714387154
 10
260.3502708267347
 20
59.675
 10
246.3797291732654
 20
59.675
 10
246.36568971438714
 20
59.67568971438715
  0
LWPOLYLINE
  5
3C
330
17
100
AcDbEntity
  8
SWITCH_CUTOUTS
100
AcDbPolyline
 90
13
 70
1
 10
243.50868971438712
 20
2.5256897143871546
 10
243.50799999999998
 20
2.539729173265223
 10
243.50799999999998
 20
16.510270826734775
 10
243.50868971438712
 20
16.524310285612845
 10
243.52272917326536
 20
16.525
 10
257.49327082673466
 20
16.525
 10
257.50731028561285
 20
16.524310285612845
 10
257.508
 20
16.51027082673492
 10
257.508
 20
2.539729173265078
 10
257.50731028561285
 20
2.5256897143871546
 10
257.4932708267346
 20
2.5250000000000004
 10
243.52272917326533
 20
2.5250000000000004
 10
243.50868971438712
 20
2.5256897143871546
  0
LWPOLYLINE
  5
3D
330
17
100
AcDbEntity
  8
SWITCH_CUTOUTS
100
AcDbPolyline
 90
13
 70
1
 10
235.88868971438717
 20
21.575689714387156
 10
235.88800000000003
 20
21.589729173265226
 10
235.88800000000003
 20
35.56027082673477
 10
235.88868971438717
 20
35.57431028561285
 10
235.9027291732654
 20
35.575
 10
249.87327082673465
 20
35.575
 10
249.8873102856129
 20
35.57431028561285
 10
249.88800000000003
 20
35.56027082673477
 10
249.88800000000003
 20
21.589729173265226
 10
249.8873102856129
 20
21.575689714387156
 10
249.87327082673465
 20
21.575000000000003
 10
235.9027291732654
 20
21.575000000000003
 10
235.88868971438717
 20
21.575689714387156
  0
LWPOLYLINE
  5
3E
330
17
100
AcDbEntity
  8
SWITCH_CUTOUTS
100
AcDbPolyline
 90
13
 70
1
 10
230.50696642903694
 20
41.21359762271416
 10
230.50701242838488
 20
41.227653937864225
 10
231.23817408505107
 20
55.17904944953708
 10
231.23959762271417
 20
55.19303357096308
 10
231.2536539378639
 20
55.19298757161511
 10
245.20504944953728
 20
54.461825914948925
 10
245.21903357096306
 20
54.460402377285845
 10
245.21898757161512
 20
54.44634606213578
 10
244.48782591494893
 20
40.494950550462924
 10
244.48640237728583
 20
40.480966429036926
 10
244.4723460621361
 20
40.481012428384894
 10
230.52095055046271
 20
41.21217408505108
 10
230.50696642903694
 20
41.21359762271416
  0
LWPOLYLINE
  5
3F
330
17
100
AcDbEntity
  8
SWITCH_CUTOUTS
100
AcDbPolyline
 90
13
 70
1
 10
227.11396642903694
 20
60.52559762271416
 10
227.11401242838488
 20
60.53965393786422
 10
227.84517408505107
 20
74.49104944953706
 10
227.84659762271414
 20
74.50503357096309
 10
227.86065393786365
 20
74.50498757161513
 10
241.8120494495375
 20
73.77382591494892
 10
241.82603357096306
 20
73.77240237728584
 10
241.82598757161512
 20
73.75834606213579
 10
241.09482591494893
 20
59.80695055046292
 10
241.09340237728583
 20
59.79296642903692
 10
241.0793460621361
 20
59.79301242838489
 10
227.1279505504627
 20
60.52417408505108
 10
227.11396642903694
 20
60.52559762271416
  0
LWPOLYLINE
  5
40
330
17
100
AcDbEntity
  8
SWITCH_CUTOUTS
100
AcDbPolyline
 90
13
 70
1
 10
224.06796642903694
 20
3.1445976227141617
 10
224.0680124283849
 20
3.1586539378642184
 10
224.79917408505108
 20
17.11004944953707
 10
224.80059762271415
 20
17.12403357096308
 10
224.8146539378639
 20
17.123987571615114
 10
238.76604944953732
 20
16.39282591494892
 10
238.78003357096307
 20
16.39140237728584
 10
238.77998757161512
 20
16.377346062135782
 10
238.04882591494894
 20
2.4259505504629386
 10
238.04740237728586
 20
2.4119664290369203
 10
238.03334606213613
 20
2.4120124283848874
 10
224.0819505504627
 20
3.14317408505108
 10
224.06796642903694
 20
3.1445976227141617
  0
LWPOLYLINE
  5
41
330
17
100
AcDbEntity
  8
SWITCH_CUTOUTS
100
AcDbPolyline
 90
13
 70
1
 10
215.92740552039305
 20
23.10165981657026
 10
215.92818710739513
 20
23.115694460608545
 10
217.38850635744907
 20
37.00970402513877
 10
217.39065981657023
 20
37.023594479606935
 10
217.4046944606087
 20
37.022812892604854
 10
231.2987040251385
 20
35.56249364255096
 10
231.31259447960696
 20
35.560340183429744
 10
231.31181289260488
 20
35.546305539391454
 10
229.85149364255093
 20
21.652295974861218
 10
229.84934018342977
 20
21.638405520393068
 10
229.8353055393913
 20
21.63918710739514
 10
215.94129597486153
 20
23.099506357449037
 10
215.92740552039305
 20
23.10165981657026
  0
LWPOLYLINE
  5
42
330
17
100
AcDbEntity
  8
SWITCH_CUTOUTS
100
AcDbPolyline
 90
13
 70
1
 10
210.96640552039304
 20
42.66465981657025
 10
210.96718710739512
 20
42.67869446060854
 10
212.42750635744906
 20
56.57270402513877
 10
212.42965981657022
 20
56.58659447960694
 10
212.4436944606087
 20
56.58581289260486
 10
226.3377040251385
 20
55.125493642550964
 10
226.35159447960694
 20
55.12334018342975
 10
226.35081289260486
 20
55.10930553939146
 10
224.89049364255092
 20
41.21529597486123
 10
224.88834018342976
 20
41.20140552039306
 10
224.8743055393913
 20
41.20218710739514
 10
210.9802959748615
 20
42.66250635744903
 10
210.96640552039304
 20
42.66465981657025
  0
LWPOLYLINE
  5
43
330
17
100
AcDbEntity
  8
SWITCH_CUTOUTS
100
AcDbPolyline
 90
13
 70
1
 10
209.51867252039304
 20
81.25330181657026
 10
209.51945410739512
 20
81.26733646060853
 10
210.97977335744906
 20
95.1613460251388
 10
210.98192681657022
 20
95.17523647960694
 10
210.9959614606089
 20
95.17445489260484
 10
224.88997102513844
 20
93.71413564255097
 10
224.90386147960695
 20
93.71198218342974
 10
224.90307989260486
 20
93.69794753939146
 10
223.44276064255092
 20
79.8039379748612
 10
223.44060718342976
 20
79.79004752039306
 10
223.4265725393911
 20
79.79082910739515
 10
209.53256297486155
 20
81.25114835744903
 10
209.51867252039304
 20
81.25330181657026
  0
LWPOLYLINE
  5
44
330
17
100
AcDbEntity
  8
SWITCH_CUTOUTS
100
AcDbPolyline
 90
13
 70
1
 10
207.52740552039302
 20
62.30765981657026
 10
207.5281871073951
 20
62.32169446060855
 10
208.98850635744904
 20
76.2157040251388
 10
208.9906598165702
 20
76.22959447960694
 10
209.00469446060887
 20
76.22881289260485
 10
222.89870402513841
 20
74.76849364255098
 10
222.91259447960692
 20
74.76634018342975
 10
222.91181289260484
 20
74.75230553939147
 10
221.4514936425509
 20
60.858295974861235
 10
221.44934018342974
 20
60.84440552039307
 10
221.43530553939127
 20
60.84518710739515
 10
207.54129597486147
 20
62.30550635744904
 10
207.52740552039302
 20
62.30765981657026
  0
LWPOLYLINE
  5
45
330
17
100
AcDbEntity
  8
SWITCH_CUTOUTS
100
AcDbPolyline
 90
13
 70
1
 10
204.33640552039301
 20
5.247659816570257
 10
204.3371871073951
 20
5.261694460608543
 10
205.79750635744904
 20
19.155704025138782
 10
205.7996598165702
 20
19.169594479606932
 10
205.81369446060867
 20
19.16881289260486
 10
219.70770402513844
 20
17.708493642550962
 10
219.72159447960692
 20
17.70634018342974
 10
219.72081289260484
 20
17.692305539391455
 10
218.2604936425509
 20
3.798295974861229
 10
218.25834018342974
 20
3.7844055203930713
 10
218.24430553939123
 20
3.785187107395145
 10
204.35029597486152
 20
5.245506357449034
 10
204.33640552039301
 20
5.247659816570257
  0
LWPOLYLINE
  5
46
330
17
100
AcDbEntity
  8
SWITCH_CUTOUTS
100
AcDbPolyline
 90
13
 70
1
 10
196.98440552039304
 20
25.086659816570258
 10
196.98518710739512
 20
25.100694460608544
 10
198.44550635744906
 20
38.994704025138766
 10
198.44765981657022
 20
39.008594479606934
 10
198.4616944606087
 20
39.00781289260485
 10
212.3557040251385
 20
37.54749364255096
 10
212.36959447960695
 20
37.545340183429744
 10
212.36881289260486
 20
37.531305539391454
 10
210.90849364255092
 20
23.637295974861217
 10
210.90634018342976
 20
23.623405520393067
 10
210.8923055393913
 20
23.62418710739514
 10
196.99829597486152
 20
25.084506357449037
 10
196.98440552039304
 20
25.086659816570258
  0
LWPOLYLINE
  5
47
330
17
100
AcDbEntity
  8
SWITCH_CUTOUTS
100
AcDbPolyline
 90
13
 70
1
 10
192.14292947851214
 20
45.27879619887299
 10
192.14444451089273
 20
45.29277070381687
 10
194.32991872077542
 20
59.091311806746816
 10
194.332796198873
 20
59.10507052148786
 10
194.34677070381642
 20
59.103555489107336
 10
208.1453118067469
 20
56.91808127922459
 10
208.15907052148788
 20
56.915203801127014
 10
208.1575554891073
 20
56.90122929618313
 10
205.9720812792246
 20
43.10268819325319
 10
205.969203801127
 20
43.08892947851214
 10
205.9552292961836
 20
43.09044451089267
 10
192.15668819325313
 20
45.275918720775415
 10
192.14292947851214
 20
45.27879619887299
  0
LWPOLYLINE
  5
48
330
17
100
AcDbEntity
  8
SWITCH_CUTOUTS
100
AcDbPolyline
 90
13
 70
1
 10
188.70592947851213
 20
65.30879619887298
 10
188.7074445108927
 20
65.32277070381683
 10
190.8929187207754
 20
79.12131180674677
 10
190.895796198873
 20
79.13507052148785
 10
190.90977070381655
 20
79.13355548910731
 10
204.70831180674688
 20
76.94808127922458
 10
204.72207052148786
 20
76.94520380112701
 10
204.72055548910728
 20
76.93122929618316
 10
202.53508127922458
 20
63.13268819325318
 10
202.532203801127
 20
63.118929478512136
 10
202.5182292961836
 20
63.12044451089266
 10
188.71968819325312
 20
65.30591872077541
 10
188.70592947851213
 20
65.30879619887298
  0
LWPOLYLINE
  5
49
330
17
100
AcDbEntity
  8
SWITCH_CUTOUTS
100
AcDbPolyline
 90
13
 70
1
 10
185.30192947851216
 20
8.090796198872992
 10
185.30344451089275
 20
8.104770703816873
 10
187.48891872077544
 20
21.9033118067468
 10
187.49179619887303
 20
21.91707052148787
 10
187.5057707038164
 20
21.915555489107344
 10
201.3043118067468
 20
19.730081279224603
 10
201.3180705214879
 20
19.727203801127004
 10
201.31655548910732
 20
19.713229296183126
 10
199.13108127922462
 20
5.914688193253203
 10
199.12820380112703
 20
5.900929478512139
 10
199.11422929618357
 20
5.902444510892672
 10
185.31568819325318
 20
8.087918720775413
 10
185.30192947851216
 20
8.090796198872992
  0
LWPOLYLINE
  5
4A
330
17
100
AcDbEntity
  8
SWITCH_CUTOUTS
100
AcDbPolyline
 90
13
 70
1
 10
177.95192947851214
 20
28.393796198872998
 10
177.95344451089272
 20
28.407770703816876
 10
180.13891872077542
 20
42.20631180674682
 10
180.141796198873
 20
42.22007052148786
 10
180.15577070381642
 20
42.21855548910734
 10
193.9543118067469
 20
40.03308127922459
 10
193.96807052148787
 20
40.030203801127016
 10
193.9665554891073
 20
40.016229296183134
 10
191.7810812792246
 20
26.217688193253206
 10
191.778203801127
 20
26.203929478512137
 10
191.76422929618363
 20
26.20544451089266
 10
177.96568819325324
 20
28.3909187207754
 10
177.95192947851214
 20
28.393796198872998
  0
LWPOLYLINE
  5
4B
330
17
100
AcDbEntity
  8
SWITCH_CUTOUTS
100
AcDbPolyline
 90
13
 70
1
 10
173.33992947851215
 20
48.25779619887299
 10
173.34144451089273
 20
48.27177070381687
 10
175.52691872077543
 20
62.070311806746815
 10
175.52979619887302
 20
62.08407052148786
 10
175.54377070381642
 20
62.082555489107335
 10
189.3423118067469
 20
59.89708127922459
 10
189.35607052148788
 20
59.89420380112701
 10
189.3545554891073
 20
59.88022929618313
 10
187.1690812792246
 20
46.081688193253186
 10
187.166203801127
 20
46.06792947851214
 10
187.1522292961836
 20
46.069444510892666
 10
173.35368819325313
 20
48.254918720775414
 10
173.33992947851215
 20
48.25779619887299
  0
LWPOLYLINE
  5
4C
330
17
100
AcDbEntity
  8
SWITCH_CUTOUTS
100
AcDbPolyline
 90
13
 70
1
 10
172.84700647851213
 20
87.10725919887298
 10
172.8485215108927
 20
87.12123370381683
 10
175.0339957207754
 20
100.91977480674677
 10
175.036873198873
 20
100.93353352148785
 10
175.05084770381654
 20
100.9320184891073
 10
188.84938880674687
 20
98.74654427922458
 10
188.86314752148786
 20
98.743666801127
 10
188.86163248910728
 20
98.72969229618316
 10
186.67615827922458
 20
84.93115119325321
 10
186.673280801127
 20
84.91739247851214
 10
186.65930629618344
 20
84.91890751089268
 10
172.86076519325312
 20
87.10438172077541
 10
172.84700647851213
 20
87.10725919887298
  0
LWPOLYLINE
  5
4D
330
17
100
AcDbEntity
  8
SWITCH_CUTOUTS
100
AcDbPolyline
 90
13
 70
1
 10
169.86692947851213
 20
68.29179619887299
 10
169.86844451089272
 20
68.30577070381683
 10
172.0539187207754
 20
82.10431180674678
 10
172.056796198873
 20
82.11807052148785
 10
172.07077070381655
 20
82.11655548910731
 10
185.86931180674688
 20
79.93108127922459
 10
185.88307052148787
 20
79.92820380112701
 10
185.88155548910728
 20
79.91422929618317
 10
183.6960812792246
 20
66.11568819325322
 10
183.693203801127
 20
66.10192947851215
 10
183.67922929618345
 20
66.10344451089269
 10
169.88068819325312
 20
68.28891872077541
 10
169.86692947851213
 20
68.29179619887299
  0
LWPOLYLINE
  5
4E
330
17
100
AcDbEntity
  8
SWITCH_CUTOUTS
100
AcDbPolyline
 90
13
 70
1
 10
166.4989294785121
 20
11.083796198872996
 10
166.5004445108927
 20
11.097770703816874
 10
168.6859187207754
 20
24.896311806746798
 10
168.68879619887298
 20
24.910070521487867
 10
168.70277070381636
 20
24.908555489107343
 10
182.50131180674674
 20
22.723081279224605
 10
182.51507052148784
 20
22.720203801127006
 10
182.51355548910726
 20
22.70622929618313
 10
180.32808127922456
 20
8.907688193253211
 10
180.32520380112697
 20
8.893929478512138
 10
180.31122929618354
 20
8.895444510892668
 10
166.51268819325313
 20
11.080918720775415
 10
166.4989294785121
 20
11.083796198872996
  0
LWPOLYLINE
  5
4F
330
17
100
AcDbEntity
  8
SWITCH_CUTOUTS
100
AcDbPolyline
 90
13
 70
1
 10
159.14092947851213
 20
31.382796198872995
 10
159.14244451089272
 20
31.396770703816873
 10
161.32791872077541
 20
45.195311806746815
 10
161.330796198873
 20
45.20907052148786
 10
161.3447707038164
 20
45.207555489107335
 10
175.14331180674688
 20
43.02208127922459
 10
175.15707052148787
 20
43.01920380112701
 10
175.1555554891073
 20
43.00522929618313
 10
172.9700812792246
 20
29.206688193253203
 10
172.967203801127
 20
29.192929478512134
 10
172.95322929618362
 20
29.19444451089266
 10
159.15468819325324
 20
31.379918720775397
 10
159.14092947851213
 20
31.382796198872995
  0
LWPOLYLINE
  5
50
330
17
100
AcDbEntity
  8
STAB_CLEARANCE
100
AcDbPolyline
 90
5
 70
1
 10
263.67675
 20
17.96
 10
270.67675
 20
17.96
 10
270.67675
 20
2.3600000000000003
 10
263.67675
 20
2.3600000000000003
 10
263.67675
 20
17.96
  0
LWPOLYLINE
  5
51
330
17
100
AcDbEntity
  8
STAB_CLEARANCE
100
AcDbPolyline
 90
5
 70
1
 10
294.48925
 20
17.96
 10
294.48925
 20
2.3600000000000003
 10
287.48925
 20
2.3600000000000003
 10
287.48925
 20
17.96
 10
294.48925
 20
17.96
  0
LWPOLYLINE
  5
52
330
17
100
AcDbEntity
  8
STAB_CLEARANCE
100
AcDbPolyline
 90
5
 70
1
 10
275.91475
 20
75.11
 10
275.91475
 20
59.51
 10
268.91475
 20
59.51
 10
268.91475
 20
75.11
 10
275.91475
 20
75.11
  0
LWPOLYLINE
  5
53
330
17
100
AcDbEntity
  8
STAB_CLEARANCE
100
AcDbPolyline
 90
5
 70
1
 10
292.72725
 20
75.11
 10
299.72725
 20
75.11
 10
299.72725
 20
59.51
 10
292.72725
 20
59.51
 10
292.72725
 20
75.11
  0
LWPOLYLINE
  5
54
330
17
100
AcDbEntity
  8
STAB_CLEARANCE
100
AcDbPolyline
 90
5
 70
1
 10
187.83830740051351
 20
83.27928462533556
 10
190.27868505514112
 20
98.68722273861971
 10
197.19250343930707
 20
97.5921814833381
 10
194.7521257846795
 20
82.18424337005395
 10
187.83830740051351
 20
83.27928462533556
  0
LWPOLYLINE
  5
55
330
17
100
AcDbEntity
  8
STAB_CLEARANCE
100
AcDbPolyline
 90
5
 70
1
 10
164.31897879009182
 20
87.00438032410607
 10
166.7593564447194
 20
102.41231843739021
 10
173.67317482888538
 20
101.3172771821086
 10
171.23279717425777
 20
85.90933906882445
 10
164.31897879009182
 20
87.00438032410607
  0
LWPOLYLINE
  5
56
330
17
100
AcDbEntity
  8
STANDOFF_HOLES
100
AcDbPolyline
 90
129
 70
1
 10
168.1
 20
49.0
 10
168.09867500182568
 20
48.94602555823984
 10
168.09470319933942
 20
48.89218114563749
 10
168.08809416096125
 20
48.8385964780991
 10
168.07886380844354
 20
48.78540064578226
 10
168.067034378514
 20
48.73272180210641
 10
168.05263436930542
 20
48.68068685502009
 10
168.03569847170132
 20
48.62942116126856
 10
168.01626748576243
 20
48.5790482243984
 10
167.9943882224358
 20
48.52968939722669
 10
167.97011339078318
 20
48.481463589491405
 10
167.9435014710003
 20
48.43448698138746
 10
167.9146165735328
 20
48.38887274367844
 10
167.8835282846287
 20
48.34473076505832
 10
167.850311498699
 20
48.30216738741999
 10
167.81504623789044
 20
48.26128514966828
 10
167.7778174593052
 20
48.222182540694796
 10
167.73871485033172
 20
48.184953762109544
 10
167.69783261258002
 20
48.149688501300986
 10
167.65526923494167
 20
48.11647171537129
 10
167.61112725632157
 20
48.0853834264672
 10
167.56551301861253
 20
48.056498528999704
 10
167.5185364105086
 20
48.02988660921681
 10
167.4703106027733
 20
48.00561177756421
 10
167.4209517756016
 20
47.98373251423759
 10
167.37057883873143
 20
47.96430152829868
 10
167.3193131449799
 20
47.94736563069457
 10
167.2672781978936
 20
47.932965621486005
 10
167.21459935421774
 20
47.92113619155645
 10
167.1614035219009
 20
47.91190583903874
 10
167.1078188543625
 20
47.90529680066059
 10
167.05397444176015
 20
47.90132499817431
 10
167.0
 20
47.9
 10
166.94602555823985
 20
47.90132499817431
 10
166.8921811456375
 20
47.90529680066059
 10
166.8385964780991
 20
47.91190583903874
 10
166.78540064578226
 20
47.92113619155645
 10
166.7327218021064
 20
47.932965621486005
 10
166.6806868550201
 20
47.94736563069457
 10
166.62942116126857
 20
47.96430152829868
 10
166.5790482243984
 20
47.98373251423759
 10
166.5296893972267
 20
48.00561177756421
 10
166.4814635894914
 20
48.02988660921681
 10
166.43448698138747
 20
48.056498528999704
 10
166.38887274367843
 20
48.0853834264672
 10
166.34473076505833
 20
48.11647171537129
 10
166.30216738741998
 20
48.149688501300986
 10
166.26128514966828
 20
48.184953762109544
 10
166.2221825406948
 20
48.222182540694796
 10
166.18495376210956
 20
48.26128514966828
 10
166.149688501301
 20
48.30216738741999
 10
166.1164717153713
 20
48.34473076505832
 10
166.0853834264672
 20
48.38887274367844
 10
166.0564985289997
 20
48.43448698138746
 10
166.02988660921682
 20
48.481463589491405
 10
166.0056117775642
 20
48.52968939722669
 10
165.98373251423757
 20
48.5790482243984
 10
165.96430152829868
 20
48.62942116126856
 10
165.94736563069458
 20
48.68068685502009
 10
165.932965621486
 20
48.73272180210641
 10
165.92113619155646
 20
48.78540064578226
 10
165.91190583903875
 20
48.8385964780991
 10
165.90529680066058
 20
48.89218114563748
 10
165.90132499817432
 20
48.94602555823984
 10
165.9
 20
49.0
 10
165.90132499817432
 20
49.05397444176016
 10
165.90529680066058
 20
49.10781885436251
 10
165.91190583903875
 20
49.1614035219009
 10
165.92113619155646
 20
49.21459935421774
 10
165.932965621486
 20
49.26727819789359
 10
165.94736563069458
 20
49.31931314497991
 10
165.96430152829868
 20
49.37057883873144
 10
165.98373251423757
 20
49.4209517756016
 10
166.0056117775642
 20
49.47031060277331
 10
166.02988660921682
 20
49.518536410508595
 10
166.0564985289997
 20
49.56551301861254
 10
166.0853834264672
 20
49.61112725632156
 10
166.1164717153713
 20
49.65526923494168
 10
166.149688501301
 20
49.69783261258001
 10
166.18495376210956
 20
49.73871485033172
 10
166.2221825406948
 20
49.777817459305204
 10
166.26128514966828
 20
49.815046237890456
 10
166.30216738741998
 20
49.85031149869901
 10
166.34473076505833
 20
49.88352828462871
 10
166.38887274367843
 20
49.9146165735328
 10
166.43448698138747
 20
49.943501471000296
 10
166.4814635894914
 20
49.97011339078319
 10
166.5296893972267
 20
49.99438822243579
 10
166.5790482243984
 20
50.01626748576241
 10
166.62942116126857
 20
50.03569847170132
 10
166.6806868550201
 20
50.05263436930543
 10
166.7327218021064
 20
50.067034378513995
 10
166.78540064578226
 20
50.07886380844355
 10
166.8385964780991
 20
50.08809416096126
 10
166.8921811456375
 20
50.09470319933941
 10
166.94602555823985
 20
50.09867500182569
 10
167.0
 20
50.1
 10
167.05397444176015
 20
50.09867500182569
 10
167.1078188543625
 20
50.09470319933941
 10
167.1614035219009
 20
50.08809416096126
 10
167.21459935421774
 20
50.07886380844355
 10
167.2672781978936
 20
50.067034378513995
 10
167.3193131449799
 20
50.05263436930543
 10
167.37057883873143
 20
50.03569847170132
 10
167.4209517756016
 20
50.01626748576241
 10
167.4703106027733
 20
49.99438822243579
 10
167.5185364105086
 20
49.97011339078319
 10
167.56551301861253
 20
49.9435014710003
 10
167.61112725632157
 20
49.9146165735328
 10
167.65526923494167
 20
49.88352828462871
 10
167.69783261258002
 20
49.850311498699014
 10
167.73871485033172
 20
49.815046237890456
 10
167.7778174593052
 20
49.777817459305204
 10
167.81504623789044
 20
49.73871485033172
 10
167.850311498699
 20
49.69783261258001
 10
167.8835282846287
 20
49.65526923494168
 10
167.9146165735328
 20
49.61112725632156
 10
167.9435014710003
 20
49.56551301861254
 10
167.97011339078318
 20
49.518536410508595
 10
167.9943882224358
 20
49.47031060277331
 10
168.01626748576243
 20
49.4209517756016
 10
168.03569847170132
 20
49.37057883873144
 10
168.05263436930542
 20
49.31931314497991
 10
168.067034378514
 20
49.26727819789359
 10
168.07886380844354
 20
49.21459935421774
 10
168.08809416096125
 20
49.1614035219009
 10
168.09470319933942
 20
49.10781885436251
 10
168.09867500182568
 20
49.05397444176016
 10
168.1
 20
49.0
  0
LWPOLYLINE
  5
57
330
17
100
AcDbEntity
  8
STANDOFF_HOLES
100
AcDbPolyline
 90
129
 70
1
 10
205.1
 20
92.0
 10
205.09867500182568
 20
91.94602555823984
 10
205.09470319933942
 20
91.89218114563748
 10
205.08809416096125
 20
91.8385964780991
 10
205.07886380844354
 20
91.78540064578226
 10
205.067034378514
 20
91.73272180210641
 10
205.05263436930542
 20
91.68068685502008
 10
205.03569847170132
 20
91.62942116126855
 10
205.01626748576243
 20
91.5790482243984
 10
204.9943882224358
 20
91.52968939722669
 10
204.97011339078318
 20
91.4814635894914
 10
204.9435014710003
 20
91.43448698138745
 10
204.9146165735328
 20
91.38887274367843
 10
204.8835282846287
 20
91.34473076505833
 10
204.850311498699
 20
91.30216738741998
 10
204.81504623789044
 20
91.26128514966828
 10
204.7778174593052
 20
91.2221825406948
 10
204.73871485033172
 20
91.18495376210954
 10
204.69783261258002
 20
91.14968850130099
 10
204.65526923494167
 20
91.11647171537129
 10
204.61112725632157
 20
91.0853834264672
 10
204.56551301861253
 20
91.0564985289997
 10
204.5185364105086
 20
91.0298866092168
 10
204.4703106027733
 20
91.00561177756421
 10
204.4209517756016
 20
90.98373251423759
 10
204.37057883873143
 20
90.96430152829868
 10
204.3193131449799
 20
90.94736563069458
 10
204.2672781978936
 20
90.932965621486
 10
204.21459935421774
 20
90.92113619155644
 10
204.1614035219009
 20
90.91190583903874
 10
204.1078188543625
 20
90.90529680066058
 10
204.05397444176015
 20
90.90132499817432
 10
204.0
 20
90.9
 10
203.94602555823985
 20
90.90132499817432
 10
203.8921811456375
 20
90.90529680066058
 10
203.8385964780991
 20
90.91190583903874
 10
203.78540064578226
 20
90.92113619155644
 10
203.7327218021064
 20
90.932965621486
 10
203.6806868550201
 20
90.94736563069458
 10
203.62942116126857
 20
90.96430152829868
 10
203.5790482243984
 20
90.98373251423759
 10
203.5296893972267
 20
91.00561177756421
 10
203.4814635894914
 20
91.0298866092168
 10
203.43448698138747
 20
91.0564985289997
 10
203.38887274367843
 20
91.0853834264672
 10
203.34473076505833
 20
91.11647171537129
 10
203.30216738741998
 20
91.14968850130099
 10
203.26128514966828
 20
91.18495376210954
 10
203.2221825406948
 20
91.2221825406948
 10
203.18495376210956
 20
91.26128514966828
 10
203.149688501301
 20
91.30216738741998
 10
203.1164717153713
 20
91.34473076505833
 10
203.0853834264672
 20
91.38887274367843
 10
203.0564985289997
 20
91.43448698138745
 10
203.02988660921682
 20
91.4814635894914
 10
203.0056117775642
 20
91.52968939722669
 10
202.98373251423757
 20
91.5790482243984
 10
202.96430152829868
 20
91.62942116126855
 10
202.94736563069458
 20
91.68068685502008
 10
202.932965621486
 20
91.73272180210641
 10
202.92113619155646
 20
91.78540064578226
 10
202.91190583903875
 20
91.8385964780991
 10
202.90529680066058
 20
91.89218114563748
 10
202.90132499817432
 20
91.94602555823984
 10
202.9
 20
92.0
 10
202.90132499817432
 20
92.05397444176016
 10
202.90529680066058
 20
92.10781885436252
 10
202.91190583903875
 20
92.1614035219009
 10
202.92113619155646
 20
92.21459935421774
 10
202.932965621486
 20
92.26727819789359
 10
202.94736563069458
 20
92.31931314497992
 10
202.96430152829868
 20
92.37057883873145
 10
202.98373251423757
 20
92.4209517756016
 10
203.0056117775642
 20
92.47031060277331
 10
203.02988660921682
 20
92.5185364105086
 10
203.0564985289997
 20
92.56551301861255
 10
203.0853834264672
 20
92.61112725632157
 10
203.1164717153713
 20
92.65526923494167
 10
203.149688501301
 20
92.69783261258002
 10
203.18495376210956
 20
92.73871485033172
 10
203.2221825406948
 20
92.7778174593052
 10
203.26128514966828
 20
92.81504623789046
 10
203.30216738741998
 20
92.85031149869901
 10
203.34473076505833
 20
92.88352828462871
 10
203.38887274367843
 20
92.9146165735328
 10
203.43448698138747
 20
92.9435014710003
 10
203.4814635894914
 20
92.9701133907832
 10
203.5296893972267
 20
92.99438822243579
 10
203.5790482243984
 20
93.01626748576241
 10
203.62942116126857
 20
93.03569847170132
 10
203.6806868550201
 20
93.05263436930542
 10
203.7327218021064
 20
93.067034378514
 10
203.78540064578226
 20
93.07886380844356
 10
203.8385964780991
 20
93.08809416096126
 10
203.8921811456375
 20
93.09470319933942
 10
203.94602555823985
 20
93.09867500182568
 10
204.0
 20
93.1
 10
204.05397444176015
 20
93.09867500182568
 10
204.1078188543625
 20
93.09470319933942
 10
204.1614035219009
 20
93.08809416096126
 10
204.21459935421774
 20
93.07886380844356
 10
204.2672781978936
 20
93.067034378514
 10
204.3193131449799
 20
93.05263436930542
 10
204.37057883873143
 20
93.03569847170132
 10
204.4209517756016
 20
93.01626748576241
 10
204.4703106027733
 20
92.99438822243579
 10
204.5185364105086
 20
92.9701133907832
 10
204.56551301861253
 20
92.9435014710003
 10
204.61112725632157
 20
92.9146165735328
 10
204.65526923494167
 20
92.88352828462871
 10
204.69783261258002
 20
92.85031149869901
 10
204.73871485033172
 20
92.81504623789046
 10
204.7778174593052
 20
92.7778174593052
 10
204.81504623789044
 20
92.73871485033172
 10
204.850311498699
 20
92.69783261258002
 10
204.8835282846287
 20
92.65526923494167
 10
204.9146165735328
 20
92.61112725632157
 10
204.9435014710003
 20
92.56551301861255
 10
204.97011339078318
 20
92.5185364105086
 10
204.9943882224358
 20
92.47031060277331
 10
205.01626748576243
 20
92.4209517756016
 10
205.03569847170132
 20
92.37057883873145
 10
205.05263436930542
 20
92.31931314497992
 10
205.067034378514
 20
92.26727819789359
 10
205.07886380844354
 20
92.21459935421774
 10
205.08809416096125
 20
92.1614035219009
 10
205.09470319933942
 20
92.10781885436252
 10
205.09867500182568
 20
92.05397444176016
 10
205.1
 20
92.0
  0
LWPOLYLINE
  5
58
330
17
100
AcDbEntity
  8
STANDOFF_HOLES
100
AcDbPolyline
 90
129
 70
1
 10
274.1
 20
21.0
 10
274.0986750018257
 20
20.94602555823984
 10
274.0947031993394
 20
20.892181145637483
 10
274.08809416096125
 20
20.838596478099102
 10
274.07886380844354
 20
20.78540064578226
 10
274.067034378514
 20
20.73272180210641
 10
274.05263436930545
 20
20.68068685502009
 10
274.0356984717013
 20
20.629421161268557
 10
274.0162674857624
 20
20.579048224398402
 10
273.99438822243576
 20
20.52968939722669
 10
273.9701133907832
 20
20.4814635894914
 10
273.9435014710003
 20
20.434486981387455
 10
273.9146165735328
 20
20.388872743678437
 10
273.8835282846287
 20
20.344730765058323
 10
273.850311498699
 20
20.30216738741999
 10
273.81504623789044
 20
20.26128514966828
 10
273.7778174593052
 20
20.2221825406948
 10
273.73871485033175
 20
20.184953762109544
 10
273.69783261258
 20
20.14968850130099
 10
273.65526923494167
 20
20.11647171537129
 10
273.61112725632154
 20
20.0853834264672
 10
273.56551301861253
 20
20.0564985289997
 10
273.5185364105086
 20
20.02988660921681
 10
273.47031060277334
 20
20.005611777564212
 10
273.4209517756016
 20
19.983732514237584
 10
273.37057883873143
 20
19.964301528298677
 10
273.3193131449799
 20
19.94736563069457
 10
273.2672781978936
 20
19.932965621486
 10
273.21459935421774
 20
19.921136191556446
 10
273.1614035219009
 20
19.91190583903874
 10
273.1078188543625
 20
19.905296800660583
 10
273.05397444176015
 20
19.90132499817431
 10
273.0
 20
19.9
 10
272.94602555823985
 20
19.90132499817431
 10
272.8921811456375
 20
19.905296800660583
 10
272.8385964780991
 20
19.91190583903874
 10
272.78540064578226
 20
19.921136191556446
 10
272.7327218021064
 20
19.932965621486
 10
272.6806868550201
 20
19.94736563069457
 10
272.62942116126857
 20
19.964301528298677
 10
272.5790482243984
 20
19.983732514237584
 10
272.52968939722666
 20
20.005611777564212
 10
272.4814635894914
 20
20.02988660921681
 10
272.43448698138747
 20
20.0564985289997
 10
272.38887274367846
 20
20.0853834264672
 10
272.34473076505833
 20
20.11647171537129
 10
272.30216738742
 20
20.14968850130099
 10
272.26128514966825
 20
20.184953762109544
 10
272.2221825406948
 20
20.2221825406948
 10
272.18495376210956
 20
20.26128514966828
 10
272.149688501301
 20
20.30216738741999
 10
272.1164717153713
 20
20.344730765058323
 10
272.0853834264672
 20
20.388872743678437
 10
272.0564985289997
 20
20.434486981387455
 10
272.0298866092168
 20
20.4814635894914
 10
272.00561177756424
 20
20.52968939722669
 10
271.9837325142376
 20
20.579048224398402
 10
271.9643015282987
 20
20.629421161268557
 10
271.94736563069455
 20
20.68068685502009
 10
271.932965621486
 20
20.73272180210641
 10
271.92113619155646
 20
20.785400645782257
 10
271.91190583903875
 20
20.838596478099102
 10
271.9052968006606
 20
20.892181145637483
 10
271.9013249981743
 20
20.94602555823984
 10
271.9
 20
21.0
 10
271.9013249981743
 20
21.05397444176016
 10
271.9052968006606
 20
21.107818854362517
 10
271.91190583903875
 20
21.161403521900898
 10
271.92113619155646
 20
21.214599354217743
 10
271.932965621486
 20
21.26727819789359
 10
271.94736563069455
 20
21.31931314497991
 10
271.9643015282987
 20
21.370578838731443
 10
271.9837325142376
 20
21.420951775601598
 10
272.00561177756424
 20
21.47031060277331
 10
272.0298866092168
 20
21.5185364105086
 10
272.0564985289997
 20
21.565513018612545
 10
272.0853834264672
 20
21.611127256321563
 10
272.1164717153713
 20
21.655269234941677
 10
272.149688501301
 20
21.697832612580008
 10
272.18495376210956
 20
21.73871485033172
 10
272.2221825406948
 20
21.7778174593052
 10
272.26128514966825
 20
21.815046237890456
 10
272.30216738742
 20
21.85031149869901
 10
272.34473076505833
 20
21.88352828462871
 10
272.38887274367846
 20
21.9146165735328
 10
272.43448698138747
 20
21.9435014710003
 10
272.4814635894914
 20
21.97011339078319
 10
272.52968939722666
 20
21.994388222435788
 10
272.5790482243984
 20
22.016267485762416
 10
272.62942116126857
 20
22.035698471701323
 10
272.6806868550201
 20
22.05263436930543
 10
272.7327218021064
 20
22.067034378514
 10
272.78540064578226
 20
22.078863808443554
 10
272.8385964780991
 20
22.08809416096126
 10
272.8921811456375
 20
22.094703199339417
 10
272.94602555823985
 20
22.09867500182569
 10
273.0
 20
22.1
 10
273.05397444176015
 20
22.09867500182569
 10
273.1078188543625
 20
22.094703199339417
 10
273.1614035219009
 20
22.08809416096126
 10
273.21459935421774
 20
22.078863808443554
 10
273.2672781978936
 20
22.067034378514
 10
273.3193131449799
 20
22.05263436930543
 10
273.37057883873143
 20
22.035698471701323
 10
273.4209517756016
 20
22.016267485762416
 10
273.47031060277334
 20
21.994388222435788
 10
273.5185364105086
 20
21.97011339078319
 10
273.56551301861253
 20
21.9435014710003
 10
273.61112725632154
 20
21.9146165735328
 10
273.65526923494167
 20
21.88352828462871
 10
273.69783261258
 20
21.85031149869901
 10
273.73871485033175
 20
21.815046237890456
 10
273.7778174593052
 20
21.777817459305204
 10
273.81504623789044
 20
21.73871485033172
 10
273.850311498699
 20
21.69783261258001
 10
273.8835282846287
 20
21.655269234941677
 10
273.9146165735328
 20
21.611127256321563
 10
273.9435014710003
 20
21.565513018612545
 10
273.9701133907832
 20
21.5185364105086
 10
273.99438822243576
 20
21.47031060277331
 10
274.0162674857624
 20
21.4209517756016
 10
274.0356984717013
 20
21.370578838731443
 10
274.05263436930545
 20
21.31931314497991
 10
274.067034378514
 20
21.267278197893592
 10
274.07886380844354
 20
21.214599354217743
 10
274.08809416096125
 20
21.161403521900898
 10
274.0947031993394
 20
21.107818854362517
 10
274.0986750018257
 20
21.05397444176016
 10
274.1
 20
21.0
  0
LWPOLYLINE
  5
59
330
17
100
AcDbEntity
  8
STANDOFF_HOLES
100
AcDbPolyline
 90
129
 70
1
 10
300.1
 20
44.0
 10
300.0986750018257
 20
43.94602555823984
 10
300.0947031993394
 20
43.89218114563749
 10
300.08809416096125
 20
43.8385964780991
 10
300.07886380844354
 20
43.78540064578226
 10
300.067034378514
 20
43.73272180210641
 10
300.05263436930545
 20
43.68068685502009
 10
300.0356984717013
 20
43.62942116126856
 10
300.0162674857624
 20
43.5790482243984
 10
299.99438822243576
 20
43.52968939722669
 10
299.9701133907832
 20
43.481463589491405
 10
299.9435014710003
 20
43.43448698138746
 10
299.9146165735328
 20
43.38887274367844
 10
299.8835282846287
 20
43.34473076505832
 10
299.850311498699
 20
43.30216738741999
 10
299.81504623789044
 20
43.26128514966828
 10
299.7778174593052
 20
43.222182540694796
 10
299.73871485033175
 20
43.184953762109544
 10
299.69783261258
 20
43.149688501300986
 10
299.65526923494167
 20
43.11647171537129
 10
299.61112725632154
 20
43.0853834264672
 10
299.56551301861253
 20
43.056498528999704
 10
299.5185364105086
 20
43.02988660921681
 10
299.47031060277334
 20
43.00561177756421
 10
299.4209517756016
 20
42.98373251423759
 10
299.37057883873143
 20
42.96430152829868
 10
299.3193131449799
 20
42.94736563069457
 10
299.2672781978936
 20
42.932965621486005
 10
299.21459935421774
 20
42.92113619155645
 10
299.1614035219009
 20
42.91190583903874
 10
299.1078188543625
 20
42.90529680066059
 10
299.05397444176015
 20
42.90132499817431
 10
299.0
 20
42.9
 10
298.94602555823985
 20
42.90132499817431
 10
298.8921811456375
 20
42.90529680066059
 10
298.8385964780991
 20
42.91190583903874
 10
298.78540064578226
 20
42.92113619155645
 10
298.7327218021064
 20
42.932965621486005
 10
298.6806868550201
 20
42.94736563069457
 10
298.62942116126857
 20
42.96430152829868
 10
298.5790482243984
 20
42.98373251423759
 10
298.52968939722666
 20
43.00561177756421
 10
298.4814635894914
 20
43.02988660921681
 10
298.43448698138747
 20
43.056498528999704
 10
298.38887274367846
 20
43.0853834264672
 10
298.34473076505833
 20
43.11647171537129
 10
298.30216738742
 20
43.149688501300986
 10
298.26128514966825
 20
43.184953762109544
 10
298.2221825406948
 20
43.222182540694796
 10
298.18495376210956
 20
43.26128514966828
 10
298.149688501301
 20
43.30216738741999
 10
298.1164717153713
 20
43.34473076505832
 10
298.0853834264672
 20
43.38887274367844
 10
298.0564985289997
 20
43.43448698138746
 10
298.0298866092168
 20
43.481463589491405
 10
298.00561177756424
 20
43.52968939722669
 10
297.9837325142376
 20
43.5790482243984
 10
297.9643015282987
 20
43.62942116126856
 10
297.94736563069455
 20
43.68068685502009
 10
297.932965621486
 20
43.73272180210641
 10
297.92113619155646
 20
43.78540064578226
 10
297.91190583903875
 20
43.8385964780991
 10
297.9052968006606
 20
43.89218114563748
 10
297.9013249981743
 20
43.94602555823984
 10
297.9
 20
44.0
 10
297.9013249981743
 20
44.05397444176016
 10
297.9052968006606
 20
44.10781885436251
 10
297.91190583903875
 20
44.1614035219009
 10
297.92113619155646
 20
44.21459935421774
 10
297.932965621486
 20
44.26727819789359
 10
297.94736563069455
 20
44.31931314497991
 10
297.9643015282987
 20
44.37057883873144
 10
297.9837325142376
 20
44.4209517756016
 10
298.00561177756424
 20
44.47031060277331
 10
298.0298866092168
 20
44.518536410508595
 10
298.0564985289997
 20
44.56551301861254
 10
298.0853834264672
 20
44.61112725632156
 10
298.1164717153713
 20
44.65526923494168
 10
298.149688501301
 20
44.69783261258001
 10
298.18495376210956
 20
44.73871485033172
 10
298.2221825406948
 20
44.777817459305204
 10
298.26128514966825
 20
44.815046237890456
 10
298.30216738742
 20
44.85031149869901
 10
298.34473076505833
 20
44.88352828462871
 10
298.38887274367846
 20
44.9146165735328
 10
298.43448698138747
 20
44.943501471000296
 10
298.4814635894914
 20
44.97011339078319
 10
298.52968939722666
 20
44.99438822243579
 10
298.5790482243984
 20
45.01626748576241
 10
298.62942116126857
 20
45.03569847170132
 10
298.6806868550201
 20
45.05263436930543
 10
298.7327218021064
 20
45.067034378513995
 10
298.78540064578226
 20
45.07886380844355
 10
298.8385964780991
 20
45.08809416096126
 10
298.8921811456375
 20
45.09470319933941
 10
298.94602555823985
 20
45.09867500182569
 10
299.0
 20
45.1
 10
299.05397444176015
 20
45.09867500182569
 10
299.1078188543625
 20
45.09470319933941
 10
299.1614035219009
 20
45.08809416096126
 10
299.21459935421774
 20
45.07886380844355
 10
299.2672781978936
 20
45.067034378513995
 10
299.3193131449799
 20
45.05263436930543
 10
299.37057883873143
 20
45.03569847170132
 10
299.4209517756016
 20
45.01626748576241
 10
299.47031060277334
 20
44.99438822243579
 10
299.5185364105086
 20
44.97011339078319
 10
299.56551301861253
 20
44.9435014710003
 10
299.61112725632154
 20
44.9146165735328
 10
299.65526923494167
 20
44.88352828462871
 10
299.69783261258
 20
44.850311498699014
 10
299.73871485033175
 20
44.815046237890456
 10
299.7778174593052
 20
44.777817459305204
 10
299.81504623789044
 20
44.73871485033172
 10
299.850311498699
 20
44.69783261258001
 10
299.8835282846287
 20
44.65526923494168
 10
299.9146165735328
 20
44.61112725632156
 10
299.9435014710003
 20
44.56551301861254
 10
299.9701133907832
 20
44.518536410508595
 10
299.99438822243576
 20
44.47031060277331
 10
300.0162674857624
 20
44.4209517756016
 10
300.0356984717013
 20
44.37057883873144
 10
300.05263436930545
 20
44.31931314497991
 10
300.067034378514
 20
44.26727819789359
 10
300.07886380844354
 20
44.21459935421774
 10
300.08809416096125
 20
44.1614035219009
 10
300.0947031993394
 20
44.10781885436251
 10
300.0986750018257
 20
44.05397444176016
 10
300.1
 20
44.0
  0
ENDSEC
  0
SECTION
  2
OBJECTS
  0
DICTIONARY
  5
A
330
0
100
AcDbDictionary
281
1
  3
ACAD_COLOR
350
B
  3
ACAD_GROUP
350
C
  3
ACAD_LAYOUT
350
D
  3
ACAD_MATERIAL
350
E
  3
ACAD_MLEADERSTYLE
350
F
  3
ACAD_MLINESTYLE
350
10
  3
ACAD_PLOTSETTINGS
350
11
  3
ACAD_PLOTSTYLENAME
350
12
  3
ACAD_SCALELIST
350
14
  3
ACAD_TABLESTYLE
350
15
  3
ACAD_VISUALSTYLE
350
16
  3
EZDXF_META
350
2D
  0
DICTIONARY
  5
B
330
A
100
AcDbDictionary
281
1
  0
DICTIONARY
  5
C
330
A
100
AcDbDictionary
281
1
  0
DICTIONARY
  5
D
330
A
100
AcDbDictionary
281
1
  3
Model
350
1A
  3
Layout1
350
1E
  0
DICTIONARY
  5
E
330
A
100
AcDbDictionary
281
1
  3
ByBlock
350
1F
  3
ByLayer
350
20
  3
Global
350
21
  0
DICTIONARY
  5
F
330
A
100
AcDbDictionary
281
1
  3
Standard
350
2C
  0
DICTIONARY
  5
10
330
A
100
AcDbDictionary
281
1
  3
Standard
350
22
  0
DICTIONARY
  5
11
330
A
100
AcDbDictionary
281
1
  0
ACDBDICTIONARYWDFLT
  5
12
330
A
100
AcDbDictionary
281
1
  3
Normal
350
13
100
AcDbDictionaryWithDefault
340
13
  0
ACDBPLACEHOLDER
  5
13
330
12
  0
DICTIONARY
  5
14
330
A
100
AcDbDictionary
281
1
  0
DICTIONARY
  5
15
330
A
100
AcDbDictionary
281
1
  0
DICTIONARY
  5
16
330
A
100
AcDbDictionary
281
1
  0
LAYOUT
  5
1A
330
D
100
AcDbPlotSettings
  1

  4
A3
  6

 40
7.5
 41
20.0
 42
7.5
 43
20.0
 44
420.0
 45
297.0
 46
0.0
 47
0.0
 48
0.0
 49
0.0
140
0.0
141
0.0
142
1.0
143
1.0
 70
1024
 72
1
 73
0
 74
5
  7

 75
16
 76
0
 77
2
 78
300
147
1.0
148
0.0
149
0.0
100
AcDbLayout
  1
Model
 70
1
 71
0
 10
0.0
 20
0.0
 11
420.0
 21
297.0
 12
0.0
 22
0.0
 32
0.0
 14
1e+20
 24
1e+20
 34
1e+20
 15
-1e+20
 25
-1e+20
 35
-1e+20
146
0.0
 13
0.0
 23
0.0
 33
0.0
 16
1.0
 26
0.0
 36
0.0
 17
0.0
 27
1.0
 37
0.0
 76
1
330
17
  0
LAYOUT
  5
1E
330
D
100
AcDbPlotSettings
  1

  4
A3
  6

 40
7.5
 41
20.0
 42
7.5
 43
20.0
 44
420.0
 45
297.0
 46
0.0
 47
0.0
 48
0.0
 49
0.0
140
0.0
141
0.0
142
1.0
143
1.0
 70
0
 72
1
 73
0
 74
5
  7

 75
16
 76
0
 77
2
 78
300
147
1.0
148
0.0
149
0.0
100
AcDbLayout
  1
Layout1
 70
1
 71
1
 10
0.0
 20
0.0
 11
420.0
 21
297.0
 12
0.0
 22
0.0
 32
0.0
 14
1e+20
 24
1e+20
 34
1e+20
 15
-1e+20
 25
-1e+20
 35
-1e+20
146
0.0
 13
0.0
 23
0.0
 33
0.0
 16
1.0
 26
0.0
 36
0.0
 17
0.0
 27
1.0
 37
0.0
 76
1
330
1B
  0
MATERIAL
  5
1F
102
{ACAD_REACTORS
330
E
102
}
330
E
100
AcDbMaterial
  1
ByBlock
  2

 70
0
 40
1.0
 71
1
 41
1.0
 91
-1023410177
 42
1.0
 72
1
  3

 73
1
 74
1
 75
1
 44
0.5
 73
0
 45
1.0
 46
1.0
 77
1
  4

 78
1
 79
1
170
1
 48
1.0
171
1
  6

172
1
173
1
174
1
140
1.0
141
1.0
175
1
  7

176
1
177
1
178
1
143
1.0
179
1
  8

270
1
271
1
272
1
145
1.0
146
1.0
273
1
  9

274
1
275
1
276
1
 42
1.0
 72
1
  3

 73
1
 74
1
 75
1
 94
63
  0
MATERIAL
  5
20
102
{ACAD_REACTORS
330
E
102
}
330
E
100
AcDbMaterial
  1
ByLayer
  2

 70
0
 40
1.0
 71
1
 41
1.0
 91
-1023410177
 42
1.0
 72
1
  3

 73
1
 74
1
 75
1
 44
0.5
 73
0
 45
1.0
 46
1.0
 77
1
  4

 78
1
 79
1
170
1
 48
1.0
171
1
  6

172
1
173
1
174
1
140
1.0
141
1.0
175
1
  7

176
1
177
1
178
1
143
1.0
179
1
  8

270
1
271
1
272
1
145
1.0
146
1.0
273
1
  9

274
1
275
1
276
1
 42
1.0
 72
1
  3

 73
1
 74
1
 75
1
 94
63
  0
MATERIAL
  5
21
102
{ACAD_REACTORS
330
E
102
}
330
E
100
AcDbMaterial
  1
Global
  2

 70
0
 40
1.0
 71
1
 41
1.0
 91
-1023410177
 42
1.0
 72
1
  3

 73
1
 74
1
 75
1
 44
0.5
 73
0
 45
1.0
 46
1.0
 77
1
  4

 78
1
 79
1
170
1
 48
1.0
171
1
  6

172
1
173
1
174
1
140
1.0
141
1.0
175
1
  7

176
1
177
1
178
1
143
1.0
179
1
  8

270
1
271
1
272
1
145
1.0
146
1.0
273
1
  9

274
1
275
1
276
1
 42
1.0
 72
1
  3

 73
1
 74
1
 75
1
 94
63
  0
MLINESTYLE
  5
22
102
{ACAD_REACTORS
330
10
102
}
330
10
100
AcDbMlineStyle
  2
Standard
 70
0
  3

 62
256
 51
90.0
 52
90.0
 71
2
 49
0.5
 62
256
  6
BYLAYER
 49
-0.5
 62
256
  6
BYLAYER
  0
MLEADERSTYLE
  5
2C
102
{ACAD_REACTORS
330
F
102
}
330
F
100
AcDbMLeaderStyle
179
2
170
2
171
1
172
0
 90
2
 40
0.0
 41
0.0
173
1
 91
-1056964608
 92
-2
290
1
 42
2.0
291
1
 43
8.0
  3
Standard
 44
4.0
300

342
29
174
1
175
1
176
0
178
1
 93
-1056964608
 45
4.0
292
0
297
0
 46
4.0
 94
-1056964608
 47
1.0
 49
1.0
140
1.0
294
1
141
0.0
177
0
142
1.0
295
0
296
0
143
3.75
271
0
272
9
273
9
  0
DICTIONARY
  5
2D
330
A
100
AcDbDictionary
280
1
281
1
  3
CREATED_BY_EZDXF
350
2E
  3
WRITTEN_BY_EZDXF
350
5C
  0
DICTIONARYVAR
  5
2E
330
2D
100
DictionaryVariables
280
0
  1
1.4.4 @ 2026-09-21T14:19:16.741990+00:00
  0
DICTIONARYVAR
  5
5C
330
2D
100
DictionaryVariables
280
0
  1
1.4.4 @ 2026-09-21T14:19:16.747014+00:00
  0
ENDSEC
  0
EOF
