  0
SECTION
  2
HEADER
  9
$ACADVER
  1
AC1024
  9
$ACADMAINTVER
 70
6
  9
$DWGCODEPAGE
  3
ANSI_1252
  9
$LASTSAVEDBY
  1
ezdxf
  9
$INSBASE
 10
0.0
 20
0.0
 30
0.0
  9
$EXTMIN
 10
1e+20
 20
1e+20
 30
1e+20
  9
$EXTMAX
 10
-1e+20
 20
-1e+20
 30
-1e+20
  9
$LIMMIN
 10
0.0
 20
0.0
  9
$LIMMAX
 10
420.0
 20
297.0
  9
$ORTHOMODE
 70
0
  9
$REGENMODE
 70
1
  9
$FILLMODE
 70
1
  9
$QTEXTMODE
 70
0
  9
$MIRRTEXT
 70
1
  9
$LTSCALE
 40
1.0
  9
$ATTMODE
 70
1
  9
$TEXTSIZE
 40
2.5
  9
$TRACEWID
 40
1.0
  9
$TEXTSTYLE
  7
Standard
  9
$CLAYER
  8
0
  9
$CELTYPE
  6
ByLayer
  9
$CECOLOR
 62
256
  9
$CELTSCALE
 40
1.0
  9
$DISPSILH
 70
0
  9
$DIMSCALE
 40
1.0
  9
$DIMASZ
 40
2.5
  9
$DIMEXO
 40
0.625
  9
$DIMDLI
 40
3.75
  9
$DIMRND
 40
0.0
  9
$DIMDLE
 40
0.0
  9
$DIMEXE
 40
1.25
  9
$DIMTP
 40
0.0
  9
$DIMTM
 40
0.0
  9
$DIMTXT
 40
2.5
  9
$DIMCEN
 40
2.5
  9
$DIMTSZ
 40
0.0
  9
$DIMTOL
 70
0
  9
$DIMLIM
 70
0
  9
$DIMTIH
 70
0
  9
$DIMTOH
 70
0
  9
$DIMSE1
 70
0
  9
$DIMSE2
 70
0
  9
$DIMTAD
 70
1
  9
$DIMZIN
 70
8
  9
$DIMBLK
  1

  9
$DIMASO
 70
1
  9
$DIMSHO
 70
1
  9
$DIMPOST
  1

  9
$DIMAPOST
  1

  9
$DIMALT
 70
0
  9
$DIMALTD
 70
3
  9
$DIMALTF
 40
0.03937007874
  9
$DIMLFAC
 40
1.0
  9
$DIMTOFL
 70
1
  9
$DIMTVP
 40
0.0
  9
$DIMTIX
 70
0
  9
$DIMSOXD
 70
0
  9
$DIMSAH
 70
0
  9
$DIMBLK1
  1

  9
$DIMBLK2
  1

  9
$DIMSTYLE
  2
ISO-25
  9
$DIMCLRD
 70
0
  9
$DIMCLRE
 70
0
  9
$DIMCLRT
 70
0
  9
$DIMTFAC
 40
1.0
  9
$DIMGAP
 40
0.625
  9
$DIMJUST
 70
0
  9
$DIMSD1
 70
0
  9
$DIMSD2
 70
0
  9
$DIMTOLJ
 70
0
  9
$DIMTZIN
 70
8
  9
$DIMALTZ
 70
0
  9
$DIMALTTZ
 70
0
  9
$DIMUPT
 70
0
  9
$DIMDEC
 70
2
  9
$DIMTDEC
 70
2
  9
$DIMALTU
 70
2
  9
$DIMALTTD
 70
3
  9
$DIMTXSTY
  7
Standard
  9
$DIMAUNIT
 70
0
  9
$DIMADEC
 70
0
  9
$DIMALTRND
 40
0.0
  9
$DIMAZIN
 70
0
  9
$DIMDSEP
 70
44
  9
$DIMATFIT
 70
3
  9
$DIMFRAC
 70
0
  9
$DIMLDRBLK
  1

  9
$DIMLUNIT
 70
2
  9
$DIMLWD
 70
-2
  9
$DIMLWE
 70
-2
  9
$DIMTMOVE
 70
0
  9
$DIMFXL
 40
1.0
  9
$DIMFXLON
 70
0
  9
$DIMJOGANG
 40
0.785398163397
  9
$DIMTFILL
 70
0
  9
$DIMTFILLCLR
 70
0
  9
$DIMARCSYM
 70
0
  9
$DIMLTYPE
  6

  9
$DIMLTEX1
  6

  9
$DIMLTEX2
  6

  9
$DIMTXTDIRECTION
 70
0
  9
$LUNITS
 70
2
  9
$LUPREC
 70
4
  9
$SKETCHINC
 40
1.0
  9
$FILLETRAD
 40
10.0
  9
$AUNITS
 70
0
  9
$AUPREC
 70
2
  9
$MENU
  1
.
  9
$ELEVATION
 40
0.0
  9
$PELEVATION
 40
0.0
  9
$THICKNESS
 40
0.0
  9
$LIMCHECK
 70
0
  9
$CHAMFERA
 40
0.0
  9
$CHAMFERB
 40
0.0
  9
$CHAMFERC
 40
0.0
  9
$CHAMFERD
 40
0.0
  9
$SKPOLY
 70
0
  9
$TDCREATE
 40
2461294.516886574
  9
$TDUCREATE
 40
2458532.153996898
  9
$TDUPDATE
 40
2461294.516886574
  9
$TDUUPDATE
 40
2458532.1544311
  9
$TDINDWG
 40
0.0
  9
$TDUSRTIMER
 40
0.0
  9
$USRTIMER
 70
1
  9
$ANGBASE
 50
0.0
  9
$ANGDIR
 70
0
  9
$PDMODE
 70
0
  9
$PDSIZE
 40
0.0
  9
$PLINEWID
 40
0.0
  9
$SPLFRAME
 70
0
  9
$SPLINETYPE
 70
6
  9
$SPLINESEGS
 70
8
  9
$HANDSEED
  5
7A
  9
$SURFTAB1
 70
6
  9
$SURFTAB2
 70
6
  9
$SURFTYPE
 70
6
  9
$SURFU
 70
6
  9
$SURFV
 70
6
  9
$UCSBASE
  2

  9
$UCSNAME
  2

  9
$UCSORG
 10
0.0
 20
0.0
 30
0.0
  9
$UCSXDIR
 10
1.0
 20
0.0
 30
0.0
  9
$UCSYDIR
 10
0.0
 20
1.0
 30
0.0
  9
$UCSORTHOREF
  2

  9
$UCSORTHOVIEW
 70
0
  9
$UCSORGTOP
 10
0.0
 20
0.0
 30
0.0
  9
$UCSORGBOTTOM
 10
0.0
 20
0.0
 30
0.0
  9
$UCSORGLEFT
 10
0.0
 20
0.0
 30
0.0
  9
$UCSORGRIGHT
 10
0.0
 20
0.0
 30
0.0
  9
$UCSORGFRONT
 10
0.0
 20
0.0
 30
0.0
  9
$UCSORGBACK
 10
0.0
 20
0.0
 30
0.0
  9
$PUCSBASE
  2

  9
$PUCSNAME
  2

  9
$PUCSORG
 10
0.0
 20
0.0
 30
0.0
  9
$PUCSXDIR
 10
1.0
 20
0.0
 30
0.0
  9
$PUCSYDIR
 10
0.0
 20
1.0
 30
0.0
  9
$PUCSORTHOREF
  2

  9
$PUCSORTHOVIEW
 70
0
  9
$PUCSORGTOP
 10
0.0
 20
0.0
 30
0.0
  9
$PUCSORGBOTTOM
 10
0.0
 20
0.0
 30
0.0
  9
$PUCSORGLEFT
 10
0.0
 20
0.0
 30
0.0
  9
$PUCSORGRIGHT
 10
0.0
 20
0.0
 30
0.0
  9
$PUCSORGFRONT
 10
0.0
 20
0.0
 30
0.0
  9
$PUCSORGBACK
 10
0.0
 20
0.0
 30
0.0
  9
$USERI1
 70
0
  9
$USERI2
 70
0
  9
$USERI3
 70
0
  9
$USERI4
 70
0
  9
$USERI5
 70
0
  9
$USERR1
 40
0.0
  9
$USERR2
 40
0.0
  9
$USERR3
 40
0.0
  9
$USERR4
 40
0.0
  9
$USERR5
 40
0.0
  9
$WORLDVIEW
 70
1
  9
$SHADEDGE
 70
3
  9
$SHADEDIF
 70
70
  9
$TILEMODE
 70
1
  9
$MAXACTVP
 70
64
  9
$PINSBASE
 10
0.0
 20
0.0
 30
0.0
  9
$PLIMCHECK
 70
0
  9
$PEXTMIN
 10
1e+20
 20
1e+20
 30
1e+20
  9
$PEXTMAX
 10
-1e+20
 20
-1e+20
 30
-1e+20
  9
$PLIMMIN
 10
0.0
 20
0.0
  9
$PLIMMAX
 10
420.0
 20
297.0
  9
$UNITMODE
 70
0
  9
$VISRETAIN
 70
1
  9
$PLINEGEN
 70
0
  9
$PSLTSCALE
 70
1
  9
$TREEDEPTH
 70
3020
  9
$CMLSTYLE
  2
Standard
  9
$CMLJUST
 70
0
  9
$CMLSCALE
 40
20.0
  9
$PROXYGRAPHICS
 70
1
  9
$MEASUREMENT
 70
1
  9
$CELWEIGHT
370
-1
  9
$ENDCAPS
280
0
  9
$JOINSTYLE
280
0
  9
$LWDISPLAY
290
0
  9
$INSUNITS
 70
4
  9
$HYPERLINKBASE
  1

  9
$STYLESHEET
  1

  9
$XEDIT
290
1
  9
$CEPSNTYPE
380
0
  9
$PSTYLEMODE
290
1
  9
$FINGERPRINTGUID
  2
{7776EAFA-315B-4A9C-8970-98B72459B07B}
  9
$VERSIONGUID
  2
{8D855B8F-807D-4A1C-96F4-281A9FA76F98}
  9
$EXTNAMES
290
1
  9
$PSVPSCALE
 40
0.0
  9
$OLESTARTUP
290
0
  9
$SORTENTS
280
127
  9
$INDEXCTL
280
0
  9
$HIDETEXT
280
1
  9
$XCLIPFRAME
280
1
  9
$HALOGAP
280
0
  9
$OBSCOLOR
 70
257
  9
$OBSLTYPE
280
0
  9
$INTERSECTIONDISPLAY
280
0
  9
$INTERSECTIONCOLOR
 70
257
  9
$DIMASSOC
280
2
  9
$PROJECTNAME
  1

  9
$CAMERADISPLAY
290
0
  9
$LENSLENGTH
 40
50.0
  9
$CAMERAHEIGHT
 40
0.0
  9
$STEPSPERSEC
 40
24.0
  9
$STEPSIZE
 40
100.0
  9
$3DDWFPREC
 40
2.0
  9
$PSOLWIDTH
 40
0.005
  9
$PSOLHEIGHT
 40
0.08
  9
$LOFTANG1
 40
1.570796326795
  9
$LOFTANG2
 40
1.570796326795
  9
$LOFTMAG1
 40
0.0
  9
$LOFTMAG2
 40
0.0
  9
$LOFTPARAM
 70
7
  9
$LOFTNORMALS
280
1
  9
$LATITUDE
 40
37.795
  9
$LONGITUDE
 40
-122.394
  9
$NORTHDIRECTION
 40
0.0
  9
$TIMEZONE
 70
-8000
  9
$LIGHTGLYPHDISPLAY
280
1
  9
$TILEMODELIGHTSYNCH
280
1
  9
$CMATERIAL
347
20
  9
$SOLIDHIST
280
0
  9
$SHOWHIST
280
1
  9
$DWFFRAME
280
2
  9
$DGNFRAME
280
2
  9
$REALWORLDSCALE
290
1
  9
$INTERFERECOLOR
 62
256
  9
$CSHADOW
280
0
  9
$SHADOWPLANELOCATION
 40
0.0
  0
ENDSEC
  0
SECTION
  2
CLASSES
  0
CLASS
  1
ACDBDICTIONARYWDFLT
  2
AcDbDictionaryWithDefault
  3
ObjectDBX Classes
 90
0
 91
0
280
0
281
0
  0
CLASS
  1
SUN
  2
AcDbSun
  3
SCENEOE
 90
1153
 91
0
280
0
281
0
  0
CLASS
  1
VISUALSTYLE
  2
AcDbVisualStyle
  3
ObjectDBX Classes
 90
4095
 91
0
280
0
281
0
  0
CLASS
  1
MATERIAL
  2
AcDbMaterial
  3
ObjectDBX Classes
 90
1153
 91
0
280
0
281
0
  0
CLASS
  1
SCALE
  2
AcDbScale
  3
ObjectDBX Classes
 90
1153
 91
0
280
0
281
0
  0
CLASS
  1
TABLESTYLE
  2
AcDbTableStyle
  3
ObjectDBX Classes
 90
4095
 91
0
280
0
281
0
  0
CLASS
  1
MLEADERSTYLE
  2
AcDbMLeaderStyle
  3
ACDB_MLEADERSTYLE_CLASS
 90
4095
 91
0
280
0
281
0
  0
CLASS
  1
DICTIONARYVAR
  2
AcDbDictionaryVar
  3
ObjectDBX Classes
 90
0
 91
0
280
0
281
0
  0
CLASS
  1
CELLSTYLEMAP
  2
AcDbCellStyleMap
  3
ObjectDBX Classes
 90
1152
 91
0
280
0
281
0
  0
CLASS
  1
MENTALRAYRENDERSETTINGS
  2
AcDbMentalRayRenderSettings
  3
SCENEOE
 90
1024
 91
0
280
0
281
0
  0
CLASS
  1
ACDBDETAILVIEWSTYLE
  2
AcDbDetailViewStyle
  3
ObjectDBX Classes
 90
1025
 91
0
280
0
281
0
  0
CLASS
  1
ACDBSECTIONVIEWSTYLE
  2
AcDbSectionViewStyle
  3
ObjectDBX Classes
 90
1025
 91
0
280
0
281
0
  0
CLASS
  1
RASTERVARIABLES
  2
AcDbRasterVariables
  3
ISM
 90
0
 91
0
280
0
281
0
  0
CLASS
  1
LAYOUT
  2
AcDbLayout
  3
ObjectDBX Classes
 90
0
 91
0
280
0
281
0
  0
CLASS
  1
ACDBPLACEHOLDER
  2
AcDbPlaceHolder
  3
ObjectDBX Classes
 90
0
 91
0
280
0
281
0
  0
ENDSEC
  0
SECTION
  2
TABLES
  0
TABLE
  2
VPORT
  5
8
330
0
100
AcDbSymbolTable
 70
1
  0
VPORT
  5
23
330
8
100
AcDbSymbolTableRecord
100
AcDbViewportTableRecord
  2
*Active
 70
0
 10
0.0
 20
0.0
 11
1.0
 21
1.0
 12
0.0
 22
0.0
 13
0.0
 23
0.0
 14
0.5
 24
0.5
 15
0.5
 25
0.5
 16
0.0
 26
0.0
 36
1.0
 17
0.0
 27
0.0
 37
0.0
 40
1000.0
 41
1.34
 42
50.0
 43
0.0
 44
0.0
 50
0.0
 51
0.0
 71
0
 72
1000
 73
1
 74
3
 75
0
 76
0
 77
0
 78
0
281
0
 65
0
146
0.0
  0
ENDTAB
  0
TABLE
  2
LTYPE
  5
2
330
0
100
AcDbSymbolTable
 70
3
  0
LTYPE
  5
24
330
2
100
AcDbSymbolTableRecord
100
AcDbLinetypeTableRecord
  2
ByBlock
 70
0
  3

 72
65
 73
0
 40
0.0
  0
LTYPE
  5
25
330
2
100
AcDbSymbolTableRecord
100
AcDbLinetypeTableRecord
  2
ByLayer
 70
0
  3

 72
65
 73
0
 40
0.0
  0
LTYPE
  5
26
330
2
100
AcDbSymbolTableRecord
100
AcDbLinetypeTableRecord
  2
Continuous
 70
0
  3

 72
65
 73
0
 40
0.0
  0
ENDTAB
  0
TABLE
  2
LAYER
  5
1
330
0
100
AcDbSymbolTable
 70
5
  0
LAYER
  5
27
330
1
100
AcDbSymbolTableRecord
100
AcDbLayerTableRecord
  2
0
 70
0
 62
7
  6
Continuous
370
-3
390
13
347
21
  0
LAYER
  5
28
330
1
100
AcDbSymbolTableRecord
100
AcDbLayerTableRecord
  2
Defpoints
 70
0
 62
7
  6
Continuous
290
0
370
-3
390
13
347
21
  0
LAYER
  5
2F
330
1
100
AcDbSymbolTableRecord
100
AcDbLayerTableRecord
  2
PLATE_OUTLINE
 70
0
 62
7
  6
Continuous
370
-3
390
13
347
21
  0
LAYER
  5
30
330
1
100
AcDbSymbolTableRecord
100
AcDbLayerTableRecord
  2
SWITCH_CUTOUTS
 70
0
 62
3
  6
Continuous
370
-3
390
13
347
21
  0
LAYER
  5
31
330
1
100
AcDbSymbolTableRecord
100
AcDbLayerTableRecord
  2
STAB_CLEARANCE
 70
0
 62
1
  6
Continuous
370
-3
390
13
347
21
  0
ENDTAB
  0
TABLE
  2
STYLE
  5
5
330
0
100
AcDbSymbolTable
 70
1
  0
STYLE
  5
29
330
5
100
AcDbSymbolTableRecord
100
AcDbTextStyleTableRecord
  2
Standard
 70
0
 40
0.0
 41
1.0
 50
0.0
 71
0
 42
2.5
  3
txt
  4

  0
ENDTAB
  0
TABLE
  2
VIEW
  5
7
330
0
100
AcDbSymbolTable
 70
0
  0
ENDTAB
  0
TABLE
  2
UCS
  5
6
330
0
100
AcDbSymbolTable
 70
0
  0
ENDTAB
  0
TABLE
  2
APPID
  5
3
330
0
100
AcDbSymbolTable
 70
3
  0
APPID
  5
2A
330
3
100
AcDbSymbolTableRecord
100
AcDbRegAppTableRecord
  2
ACAD
 70
0
  0
APPID
  5
77
330
3
100
AcDbSymbolTableRecord
100
AcDbRegAppTableRecord
  2
HATCHBACKGROUNDCOLOR
 70
0
  0
APPID
  5
78
330
3
100
AcDbSymbolTableRecord
100
AcDbRegAppTableRecord
  2
EZDXF
 70
0
  0
ENDTAB
  0
TABLE
  2
DIMSTYLE
  5
4
330
0
100
AcDbSymbolTable
 70
1
100
AcDbDimStyleTable
  0
DIMSTYLE
105
2B
330
4
100
AcDbSymbolTableRecord
100
AcDbDimStyleTableRecord
  2
Standard
 70
0
 40
1.0
 41
2.5
 42
0.625
 43
3.75
 44
1.25
 45
0.0
 46
0.0
 47
0.0
 48
0.0
 49
2.5
140
2.5
141
2.5
142
0.0
143
0.03937007874
144
1.0
145
0.0
146
1.0
147
0.625
148
0.0
 69
0
 70
0
 71
0
 72
0
 73
0
 74
0
 75
0
 76
0
 77
1
 78
8
 79
3
170
0
171
3
172
1
173
0
174
0
175
0
176
0
177
0
178
0
179
2
271
2
272
2
273
2
274
3
275
0
276
0
277
2
278
44
279
0
280
0
281
0
282
0
283
0
284
8
285
0
286
0
288
0
289
3
290
0
371
-2
372
-2
  0
ENDTAB
  0
TABLE
  2
BLOCK_RECORD
  5
9
330
0
100
AcDbSymbolTable
 70
2
  0
BLOCK_RECORD
  5
17
330
9
100
AcDbSymbolTableRecord
100
AcDbBlockTableRecord
  2
*Model_Space
340
1A
 70
0
280
1
281
0
  0
BLOCK_RECORD
  5
1B
330
9
100
AcDbSymbolTableRecord
100
AcDbBlockTableRecord
  2
*Paper_Space
340
1E
 70
0
280
1
281
0
  0
ENDTAB
  0
ENDSEC
  0
SECTION
  2
BLOCKS
  0
BLOCK
  5
18
330
17
100
AcDbEntity
  8
0
100
AcDbBlockBegin
  2
*Model_Space
 70
0
 10
0.0
 20
0.0
 30
0.0
  3
*Model_Space
  1

  0
ENDBLK
  5
19
330
17
100
AcDbEntity
  8
0
100
AcDbBlockEnd
  0
BLOCK
  5
1C
330
1B
100
AcDbEntity
  8
0
100
AcDbBlockBegin
  2
*Paper_Space
 70
0
 10
0.0
 20
0.0
 30
0.0
  3
*Paper_Space
  1

  0
ENDBLK
  5
1D
330
1B
100
AcDbEntity
  8
0
100
AcDbBlockEnd
  0
ENDSEC
  0
SECTION
  2
ENTITIES
  0
LWPOLYLINE
  5
32
330
17
100
AcDbEntity
  8
PLATE_OUTLINE
100
AcDbPolyline
 90
95
 70
1
 10
-13.978000000000002
 20
76.15733154731811
 10
-13.962039355252543
 20
76.67837792160313
 10
-13.961314483006818
 20
76.69019879938581
 10
-13.833990821729977
 20
77.7244623485779
 10
-13.83182706712122
 20
77.73610609184715
 10
-13.720938858860348
 20
78.24546634903732
 10
-8.977159875133884
 20
97.22058228394317
 10
-8.864750425143777
 20
97.62713383578097
 10
-8.862208457762772
 20
97.63551333592594
 10
-8.581903816022825
 20
98.41774224311628
 10
-8.230896924529507
 20
99.15719024967343
 10
-7.808447589413638
 20
99.85827922515175
 10
-7.318701831909513
 20
100.5141285106465
 10
-6.76646613682214
 20
101.1183014406495
 10
-6.15716028050765
 20
101.66486851406152
 10
-5.496764139861605
 20
102.14846558776743
 10
-4.791759004341956
 20
102.56434652165103
 10
-4.049063967007079
 20
102.9084297583764
 10
-3.275968018842512
 20
103.17733838079084
 10
-2.480058512818037
 20
103.36843325381716
 10
-1.6568559531899674
 20
103.48152746784521
 10
-1.6481324765420213
 20
103.48228810969239
 10
-1.2271424094961005
 20
103.50850665655
 10
143.04838124181944
 20
108.90997924885157
 10
143.20718140953787
 20
108.91444117823573
 10
143.22384005766884
 20
108.91475372493733
 10
143.38269583642162
 20
108.91625160198727
 10
156.65231632689543
 20
108.91755387848704
 10
156.81204526003563
 20
108.91607093166871
 10
156.82879544759206
 20
108.91575823803862
 10
156.98846843769158
 20
108.91127856822989
 10
301.2647155068116
 20
103.50850422433543
 10
301.68570246478356
 20
103.48228221422619
 10
301.6944258904418
 20
103.48152150225968
 10
302.5176218971159
 20
103.36842135794363
 10
303.313524531691
 20
103.17732185061028
 10
304.0866133660814
 20
102.90840982118961
 10
304.82930122095956
 20
102.56432440208118
 10
305.53429927557266
 20
102.14844248564569
 10
306.194688601037
 20
101.66484558300927
 10
306.8039880634699
 20
101.11827976766284
 10
307.3562179305559
 20
100.51410909697076
 10
307.8459585573003
 20
99.85826296871915
 10
308.2684035750244
 20
99.15717792935064
 10
308.6194070616001
 20
98.41773450498462
 10
308.8997092547866
 20
97.63551075915225
 10
308.9022512063468
 20
97.62713130092445
 10
309.0146598177819
 20
97.22058251335137
 10
313.7584388588604
 20
78.24546634903699
 10
313.86932706712076
 20
77.73610609184962
 10
313.87149082172925
 20
77.7244623485819
 10
313.9988144830072
 20
76.69019879937935
 10
313.99953935525303
 20
76.67837792159497
 10
314.01550000000003
 20
76.1573315473182
 10
314.01550000000003
 20
0.03363713976699114
 10
314.0052457640297
 20
-0.38407412422212595
 10
314.0048352206132
 20
-0.3924309274455775
 10
313.92415512424145
 20
-1.2115896927949885
 10
313.7659694121049
 20
-2.006842970508529
 10
313.5305969552897
 20
-2.7827619751802453
 10
313.22030451922257
 20
-3.5318741826349926
 10
312.838080389686
 20
-4.246965232808351
 10
312.3876055939923
 20
-4.921148407978946
 10
311.8732184506789
 20
-5.547930955623345
 10
311.29987278912824
 20
-6.121276617173866
 10
310.6730902414831
 20
-6.635663760487611
 10
309.998907066313
 20
-7.08613855618081
 10
309.28381601613944
 20
-7.468362685717235
 10
308.53470380868447
 20
-7.778655121784247
 10
307.75878480401286
 20
-8.014027578599226
 10
306.9635315262993
 20
-8.1722132907356
 10
306.1443727609501
 20
-8.252893387107108
 10
306.136015957727
 20
-8.253303930523598
 10
305.71830469373964
 20
-8.263558166493855
 10
-5.6808046937397405
 20
-8.263558166493855
 10
-6.098515957727518
 20
-8.253303930523575
 10
-6.106872760950696
 20
-8.252893387107077
 10
-6.9260315262999885
 20
-8.172213290735504
 10
-7.721284804013459
 20
-8.014027578599084
 10
-8.497203808685331
 20
-7.778655121783962
 10
-9.246316016140097
 20
-7.468362685716951
 10
-9.961407066313587
 20
-7.086138556180476
 10
-10.635590241484122
 20
-6.635663760486923
 10
-11.262372789128769
 20
-6.121276617173409
 10
-11.835718450679526
 20
-5.547930955622656
 10
-12.35010559399304
 20
-4.921148407978014
 10
-12.800580389686594
 20
-4.246965232807492
 10
-13.182804519223073
 20
-3.531874182634003
 10
-13.493096955290097
 20
-2.7827619751792154
 10
-13.728469412105213
 20
-2.0068429705073796
 10
-13.886655124241642
 20
-1.2115896927938907
 10
-13.967335220613222
 20
-0.39243092744457503
 10
-13.96774576402972
 20
-0.38407412422142284
 10
-13.978000000000002
 20
0.03363713976641223
 10
-13.978000000000002
 20
76.15733154731811
  0
LWPOLYLINE
  5
33
330
17
100
AcDbEntity
  8
SWITCH_CUTOUTS
100
AcDbPolyline
 90
5
 70
1
 10
18.43
 20
2.5250000000000004
 10
18.43
 20
16.525
 10
4.43
 20
16.525
 10
4.43
 20
2.5250000000000004
 10
18.43
 20
2.5250000000000004
  0
LWPOLYLINE
  5
34
330
17
100
AcDbEntity
  8
SWITCH_CUTOUTS
100
AcDbPolyline
 90
5
 70
1
 10
37.480000000000004
 20
2.5250000000000004
 10
37.480000000000004
 20
16.525
 10
23.480000000000004
 20
16.525
 10
23.480000000000004
 20
2.5250000000000004
 10
37.480000000000004
 20
2.5250000000000004
  0
LWPOLYLINE
  5
35
330
17
100
AcDbEntity
  8
SWITCH_CUTOUTS
100
AcDbPolyline
 90
5
 70
1
 10
56.53
 20
2.5250000000000004
 10
56.53
 20
16.525
 10
42.53
 20
16.525
 10
42.53
 20
2.5250000000000004
 10
56.53
 20
2.5250000000000004
  0
LWPOLYLINE
  5
36
330
17
100
AcDbEntity
  8
SWITCH_CUTOUTS
100
AcDbPolyline
 90
5
 70
1
 10
75.61649605575525
 20
2.5601809597168463
 10
75.5866858546574
 20
16.560149222249105
 10
61.58671759212515
 20
16.53033902115126
 10
61.61652779322299
 20
2.530370758619001
 10
75.61649605575525
 20
2.5601809597168463
  0
LWPOLYLINE
  5
37
330
17
100
AcDbEntity
  8
SWITCH_CUTOUTS
100
AcDbPolyline
 90
5
 70
1
 10
95.52374654405509
 20
3.2046346308747236
 10
94.98997972508211
 20
17.194455679871865
 10
81.00015867608496
 20
16.660688860898894
 10
81.53392549505794
 20
2.670867811901754
 10
95.52374654405509
 20
3.2046346308747236
  0
LWPOLYLINE
  5
38
330
17
100
AcDbEntity
  8
SWITCH_CUTOUTS
100
AcDbPolyline
 90
5
 70
1
 10
116.77378531194725
 20
4.87153690162117
 10
115.55068394484753
 20
18.818006815036494
 10
101.6042140314322
 20
17.594905447936785
 10
102.82731539853192
 20
3.648435534521461
 10
116.77378531194725
 20
4.87153690162117
  0
LWPOLYLINE
  5
39
330
17
100
AcDbEntity
  8
SWITCH_CUTOUTS
100
AcDbPolyline
 90
5
 70
1
 10
137.85672180029167
 20
7.187422043098043
 10
136.27187680754096
 20
21.097428022570266
 10
122.36187082806875
 20
19.512583029819574
 10
123.94671582081943
 20
5.602577050347349
 10
137.85672180029167
 20
7.187422043098043
  0
LWPOLYLINE
  5
3A
330
17
100
AcDbEntity
  8
SWITCH_CUTOUTS
100
AcDbPolyline
 90
5
 70
1
 10
21.2875
 20
21.575000000000003
 10
21.2875
 20
35.575
 10
7.287500000000001
 20
35.575
 10
7.287500000000001
 20
21.575000000000003
 10
21.2875
 20
21.575000000000003
  0
LWPOLYLINE
  5
3B
330
17
100
AcDbEntity
  8
SWITCH_CUTOUTS
100
AcDbPolyline
 90
5
 70
1
 10
45.1
 20
21.575000000000003
 10
45.1
 20
35.575
 10
31.1
 20
35.575
 10
31.1
 20
21.575000000000003
 10
45.1
 20
21.575000000000003
  0
LWPOLYLINE
  5
3C
330
17
100
AcDbEntity
  8
SWITCH_CUTOUTS
100
AcDbPolyline
 90
5
 70
1
 10
64.15
 20
21.575000000000003
 10
64.15
 20
35.575
 10
50.150000000000006
 20
35.575
 10
50.150000000000006
 20
21.575000000000003
 10
64.15
 20
21.575000000000003
  0
LWPOLYLINE
  5
3D
330
17
100
AcDbEntity
  8
SWITCH_CUTOUTS
100
AcDbPolyline
 90
5
 70
1
 10
83.39437137392399
 20
21.766622038304146
 10
83.23188486869829
 20
35.76567908282038
 10
69.23282782418205
 20
35.60319257759468
 10
69.39531432940775
 20
21.604135533078455
 10
83.39437137392399
 20
21.766622038304146
  0
LWPOLYLINE
  5
3E
330
17
100
AcDbEntity
  8
SWITCH_CUTOUTS
100
AcDbPolyline
 90
5
 70
1
 10
103.92878814380165
 20
22.787424431524435
 10
103.1224038850095
 20
36.76418172451526
 10
89.14564659201866
 20
35.95779746572311
 10
89.95203085081081
 20
21.981040172732285
 10
103.92878814380165
 20
22.787424431524435
  0
LWPOLYLINE
  5
3F
330
17
100
AcDbEntity
  8
SWITCH_CUTOUTS
100
AcDbPolyline
 90
5
 70
1
 10
125.32156317776221
 20
24.836700452980665
 10
123.86521209787554
 20
38.76074589717945
 10
109.94116665367676
 20
37.304394817292774
 10
111.39751773356343
 20
23.380349373093992
 10
125.32156317776221
 20
24.836700452980665
  0
LWPOLYLINE
  5
40
330
17
100
AcDbEntity
  8
SWITCH_CUTOUTS
100
AcDbPolyline
 90
5
 70
1
 10
145.76247180029165
 20
27.138487043098046
 10
144.17762680754095
 20
41.04849302257027
 10
130.26762082806871
 20
39.46364802981957
 10
131.85246582081942
 20
25.55364205034735
 10
145.76247180029165
 20
27.138487043098046
  0
LWPOLYLINE
  5
41
330
17
100
AcDbEntity
  8
SWITCH_CUTOUTS
100
AcDbPolyline
 90
5
 70
1
 10
22.716250000000002
 20
40.625
 10
22.716250000000002
 20
54.625
 10
8.71625
 20
54.625
 10
8.71625
 20
40.625
 10
22.716250000000002
 20
40.625
  0
LWPOLYLINE
  5
42
330
17
100
AcDbEntity
  8
SWITCH_CUTOUTS
100
AcDbPolyline
 90
5
 70
1
 10
48.910000000000004
 20
40.625
 10
48.910000000000004
 20
54.625
 10
34.910000000000004
 20
54.625
 10
34.910000000000004
 20
40.625
 10
48.910000000000004
 20
40.625
  0
LWPOLYLINE
  5
43
330
17
100
AcDbEntity
  8
SWITCH_CUTOUTS
100
AcDbPolyline
 90
5
 70
1
 10
67.96000000000001
 20
40.625
 10
67.96000000000001
 20
54.625
 10
53.96000000000001
 20
54.625
 10
53.96000000000001
 20
40.625
 10
67.96000000000001
 20
40.625
  0
LWPOLYLINE
  5
44
330
17
100
AcDbEntity
  8
SWITCH_CUTOUTS
100
AcDbPolyline
 90
5
 70
1
 10
87.32795189414452
 20
40.94234743999955
 10
87.05869909858218
 20
54.93975801953468
 10
73.06128851904705
 20
54.670505223972356
 10
73.33054131460939
 20
40.67309464443723
 10
87.32795189414452
 20
40.94234743999955
  0
LWPOLYLINE
  5
45
330
17
100
AcDbEntity
  8
SWITCH_CUTOUTS
100
AcDbPolyline
 90
5
 70
1
 10
108.1874928204841
 20
42.1705226881988
 10
107.24283607816972
 20
56.138615744847584
 10
93.27474302152095
 20
55.193959002533205
 10
94.21939976383533
 20
41.22586594588442
 10
108.1874928204841
 20
42.1705226881988
  0
LWPOLYLINE
  5
46
330
17
100
AcDbEntity
  8
SWITCH_CUTOUTS
100
AcDbPolyline
 90
5
 70
1
 10
129.53994761535245
 20
44.351476414780876
 10
128.0114393545848
 20
58.267785641611276
 10
114.09513012775439
 20
56.73927738084362
 10
115.62363838852205
 20
42.82296815401322
 10
129.53994761535245
 20
44.351476414780876
  0
LWPOLYLINE
  5
47
330
17
100
AcDbEntity
  8
SWITCH_CUTOUTS
100
AcDbPolyline
 90
5
 70
1
 10
22.716250000000002
 20
59.675
 10
22.716250000000002
 20
73.675
 10
8.71625
 20
73.675
 10
8.71625
 20
59.675
 10
22.716250000000002
 20
59.675
  0
LWPOLYLINE
  5
48
330
17
100
AcDbEntity
  8
SWITCH_CUTOUTS
100
AcDbPolyline
 90
5
 70
1
 10
53.67250000000001
 20
59.675
 10
53.67250000000001
 20
73.675
 10
39.67250000000001
 20
73.675
 10
39.67250000000001
 20
59.675
 10
53.67250000000001
 20
59.675
  0
LWPOLYLINE
  5
49
330
17
100
AcDbEntity
  8
SWITCH_CUTOUTS
100
AcDbPolyline
 90
5
 70
1
 10
72.7326056479408
 20
59.68365212324987
 10
72.72527526541737
 20
73.68365020416017
 10
58.725277184507064
 20
73.67631982163674
 10
58.7326075670305
 20
59.676321740726436
 10
72.7326056479408
 20
59.68365212324987
  0
LWPOLYLINE
  5
4A
330
17
100
AcDbEntity
  8
SWITCH_CUTOUTS
100
AcDbPolyline
 90
5
 70
1
 10
92.41041878134205
 20
60.200023601294006
 10
91.97750652119318
 20
74.19332867818748
 10
77.9842014442997
 20
73.76041641803862
 10
78.41711370444857
 20
59.76711134114514
 10
92.41041878134205
 20
60.200023601294006
  0
LWPOLYLINE
  5
4B
330
17
100
AcDbEntity
  8
SWITCH_CUTOUTS
100
AcDbPolyline
 90
5
 70
1
 10
113.55113795642298
 20
61.69979653439448
 10
112.4324935686358
 20
75.6550333555191
 10
98.47725674751119
 20
74.53638896773192
 10
99.59590113529836
 20
60.58115214660731
 10
113.55113795642298
 20
61.69979653439448
  0
LWPOLYLINE
  5
4C
330
17
100
AcDbEntity
  8
SWITCH_CUTOUTS
100
AcDbPolyline
 90
5
 70
1
 10
134.75965395040473
 20
63.98579264368873
 10
133.18233522676124
 20
77.89665407079107
 10
119.27147379965889
 20
76.31933534714756
 10
120.84879252330241
 20
62.408473920045225
 10
134.75965395040473
 20
63.98579264368873
  0
LWPOLYLINE
  5
4D
330
17
100
AcDbEntity
  8
SWITCH_CUTOUTS
100
AcDbPolyline
 90
5
 70
1
 10
20.335
 20
78.72500000000001
 10
20.335
 20
92.72500000000001
 10
6.334999999999999
 20
92.72500000000001
 10
6.334999999999999
 20
78.72500000000001
 10
20.335
 20
78.72500000000001
  0
LWPOLYLINE
  5
4E
330
17
100
AcDbEntity
  8
SWITCH_CUTOUTS
100
AcDbPolyline
 90
5
 70
1
 10
48.910000000000004
 20
78.72500000000001
 10
48.910000000000004
 20
92.72500000000001
 10
34.910000000000004
 20
92.72500000000001
 10
34.910000000000004
 20
78.72500000000001
 10
48.910000000000004
 20
78.72500000000001
  0
LWPOLYLINE
  5
4F
330
17
100
AcDbEntity
  8
SWITCH_CUTOUTS
100
AcDbPolyline
 90
5
 70
1
 10
92.2782679721172
 20
79.38427103741269
 10
91.84389033886374
 20
93.3775307031135
 10
77.85063067316294
 20
92.94315306986003
 10
78.2850083064164
 20
78.94989340415923
 10
92.2782679721172
 20
79.38427103741269
  0
LWPOLYLINE
  5
50
330
17
100
AcDbEntity
  8
SWITCH_CUTOUTS
100
AcDbPolyline
 90
5
 70
1
 10
130.73155899965764
 20
82.72022073553636
 10
129.2790963035162
 20
96.64467232675953
 10
115.35464471229305
 20
95.19220963061814
 10
116.80710740843445
 20
81.26775803939496
 10
130.73155899965764
 20
82.72022073553636
  0
LWPOLYLINE
  5
51
330
17
100
AcDbEntity
  8
SWITCH_CUTOUTS
100
AcDbPolyline
 90
5
 70
1
 10
295.6075
 20
2.5250000000000004
 10
295.6075
 20
16.525
 10
281.6075
 20
16.525
 10
281.6075
 20
2.5250000000000004
 10
295.6075
 20
2.5250000000000004
  0
LWPOLYLINE
  5
52
330
17
100
AcDbEntity
  8
SWITCH_CUTOUTS
100
AcDbPolyline
 90
5
 70
1
 10
276.5575
 20
2.5250000000000004
 10
276.5575
 20
16.525
 10
262.5575
 20
16.525
 10
262.5575
 20
2.5250000000000004
 10
276.5575
 20
2.5250000000000004
  0
LWPOLYLINE
  5
53
330
17
100
AcDbEntity
  8
SWITCH_CUTOUTS
100
AcDbPolyline
 90
5
 70
1
 10
257.50750000000005
 20
2.5250000000000004
 10
257.50750000000005
 20
16.525
 10
243.50750000000002
 20
16.525
 10
243.50750000000002
 20
2.5250000000000004
 10
257.50750000000005
 20
2.5250000000000004
  0
LWPOLYLINE
  5
54
330
17
100
AcDbEntity
  8
SWITCH_CUTOUTS
100
AcDbPolyline
 90
5
 70
1
 10
238.42092902115127
 20
2.529812592125146
 10
238.45073922224913
 20
16.529780854657403
 10
224.45077095971686
 20
16.55959105575525
 10
224.420960758619
 20
2.5596227932229914
 10
238.42092902115127
 20
2.529812592125146
  0
LWPOLYLINE
  5
55
330
17
100
AcDbEntity
  8
SWITCH_CUTOUTS
100
AcDbPolyline
 90
5
 70
1
 10
218.5049638608989
 20
2.672273676084963
 10
219.03873067987186
 20
16.662094725082106
 10
205.04890963087473
 20
17.195861544055074
 10
204.51514281190177
 20
3.206040495057932
 10
218.5049638608989
 20
2.672273676084963
  0
LWPOLYLINE
  5
56
330
17
100
AcDbEntity
  8
SWITCH_CUTOUTS
100
AcDbPolyline
 90
5
 70
1
 10
197.2097354479368
 20
3.647209031432215
 10
198.4328368150365
 20
17.59367894484754
 10
184.48636690162118
 20
18.816780311947248
 10
183.26326553452148
 20
4.870310398531924
 10
197.2097354479368
 20
3.647209031432215
  0
LWPOLYLINE
  5
57
330
17
100
AcDbEntity
  8
SWITCH_CUTOUTS
100
AcDbPolyline
 90
5
 70
1
 10
176.09024802981958
 20
5.602515828068724
 10
177.67509302257028
 20
19.51252180754095
 10
163.76508704309805
 20
21.097366800291642
 10
162.18024205034735
 20
7.187360820819419
 10
176.09024802981958
 20
5.602515828068724
  0
LWPOLYLINE
  5
58
330
17
100
AcDbEntity
  8
SWITCH_CUTOUTS
100
AcDbPolyline
 90
5
 70
1
 10
292.75
 20
21.575000000000003
 10
292.75
 20
35.575
 10
278.75
 20
35.575
 10
278.75
 20
21.575000000000003
 10
292.75
 20
21.575000000000003
  0
LWPOLYLINE
  5
59
330
17
100
AcDbEntity
  8
SWITCH_CUTOUTS
100
AcDbPolyline
 90
5
 70
1
 10
268.9375
 20
21.575000000000003
 10
268.9375
 20
35.575
 10
254.9375
 20
35.575
 10
254.9375
 20
21.575000000000003
 10
268.9375
 20
21.575000000000003
  0
LWPOLYLINE
  5
5A
330
17
100
AcDbEntity
  8
SWITCH_CUTOUTS
100
AcDbPolyline
 90
5
 70
1
 10
249.88750000000002
 20
21.575000000000003
 10
249.88750000000002
 20
35.575
 10
235.88750000000002
 20
35.575
 10
235.88750000000002
 20
21.575000000000003
 10
249.88750000000002
 20
21.575000000000003
  0
LWPOLYLINE
  5
5B
330
17
100
AcDbEntity
  8
SWITCH_CUTOUTS
100
AcDbPolyline
 90
5
 70
1
 10
230.64280757759474
 20
21.60401782418207
 10
230.8052940828204
 20
35.6030748686983
 10
216.80623703830418
 20
35.765561373923994
 10
216.6437505330785
 20
21.76650432940776
 10
230.64280757759474
 20
21.60401782418207
  0
LWPOLYLINE
  5
5C
330
17
100
AcDbEntity
  8
SWITCH_CUTOUTS
100
AcDbPolyline
 90
5
 70
1
 10
210.08622746572314
 20
21.98106159201868
 10
210.8926117245153
 20
35.9578188850095
 10
196.91585443152445
 20
36.76420314380165
 10
196.1094701727323
 20
22.78744585081083
 10
210.08622746572314
 20
21.98106159201868
  0
LWPOLYLINE
  5
5D
330
17
100
AcDbEntity
  8
SWITCH_CUTOUTS
100
AcDbPolyline
 90
5
 70
1
 10
188.6394998172928
 20
23.38177665367676
 10
190.09585089717947
 20
37.30582209787554
 10
176.17180545298066
 20
38.762173177762214
 10
174.715454373094
 20
24.838127733563432
 10
188.6394998172928
 20
23.38177665367676
  0
LWPOLYLINE
  5
5E
330
17
100
AcDbEntity
  8
SWITCH_CUTOUTS
100
AcDbPolyline
 90
5
 70
1
 10
168.1864030298196
 20
25.553580828068725
 10
169.7712480225703
 20
39.46358680754095
 10
155.86124204309806
 20
41.048431800291645
 10
154.27639705034736
 20
27.13842582081942
 10
168.1864030298196
 20
25.553580828068725
  0
LWPOLYLINE
  5
5F
330
17
100
AcDbEntity
  8
SWITCH_CUTOUTS
100
AcDbPolyline
 90
5
 70
1
 10
291.32125
 20
40.625
 10
291.32125
 20
54.625
 10
277.32125
 20
54.625
 10
277.32125
 20
40.625
 10
291.32125
 20
40.625
  0
LWPOLYLINE
  5
60
330
17
100
AcDbEntity
  8
SWITCH_CUTOUTS
100
AcDbPolyline
 90
5
 70
1
 10
265.1275
 20
40.625
 10
265.1275
 20
54.625
 10
251.1275
 20
54.625
 10
251.1275
 20
40.625
 10
265.1275
 20
40.625
  0
LWPOLYLINE
  5
61
330
17
100
AcDbEntity
  8
SWITCH_CUTOUTS
100
AcDbPolyline
 90
5
 70
1
 10
246.07750000000001
 20
40.625
 10
246.07750000000001
 20
54.625
 10
232.07750000000001
 20
54.625
 10
232.07750000000001
 20
40.625
 10
246.07750000000001
 20
40.625
  0
LWPOLYLINE
  5
62
330
17
100
AcDbEntity
  8
SWITCH_CUTOUTS
100
AcDbPolyline
 90
5
 70
1
 10
226.70724522397234
 20
40.672478519047054
 10
226.97649801953466
 20
54.66988909858218
 10
212.97908743999955
 20
54.939141894144505
 10
212.70983464443722
 20
40.94173131460938
 10
226.70724522397234
 20
40.672478519047054
  0
LWPOLYLINE
  5
63
330
17
100
AcDbEntity
  8
SWITCH_CUTOUTS
100
AcDbPolyline
 90
5
 70
1
 10
205.81849900253323
 20
41.22633302152093
 10
206.7631557448476
 20
55.19442607816971
 10
192.79506268819884
 20
56.13908282048409
 10
191.85040594588446
 20
42.17098976383531
 10
205.81849900253323
 20
41.22633302152093
  0
LWPOLYLINE
  5
64
330
17
100
AcDbEntity
  8
SWITCH_CUTOUTS
100
AcDbPolyline
 90
5
 70
1
 10
184.41428238084364
 20
42.82336512775438
 10
185.9427906416113
 20
56.73967435458478
 10
172.0264814147809
 20
58.26818261535244
 10
170.49797315401324
 20
44.35187338852204
 10
184.41428238084364
 20
42.82336512775438
  0
LWPOLYLINE
  5
65
330
17
100
AcDbEntity
  8
SWITCH_CUTOUTS
100
AcDbPolyline
 90
5
 70
1
 10
291.32125
 20
59.675
 10
291.32125
 20
73.675
 10
277.32125
 20
73.675
 10
277.32125
 20
59.675
 10
291.32125
 20
59.675
  0
LWPOLYLINE
  5
66
330
17
100
AcDbEntity
  8
SWITCH_CUTOUTS
100
AcDbPolyline
 90
5
 70
1
 10
260.365
 20
59.675
 10
260.365
 20
73.675
 10
246.365
 20
73.675
 10
246.365
 20
59.675
 10
260.365
 20
59.675
  0
LWPOLYLINE
  5
67
330
17
100
AcDbEntity
  8
SWITCH_CUTOUTS
100
AcDbPolyline
 90
5
 70
1
 10
241.30488982163675
 20
59.67587218450706
 10
241.31222020416018
 20
73.67587026541736
 10
227.31222212324988
 20
73.6832006479408
 10
227.30489174072645
 20
59.68320256703049
 10
241.30488982163675
 20
59.67587218450706
  0
LWPOLYLINE
  5
68
330
17
100
AcDbEntity
  8
SWITCH_CUTOUTS
100
AcDbPolyline
 90
5
 70
1
 10
221.6208014180386
 20
59.76668644429971
 10
222.0537136781875
 20
73.75999152119319
 10
208.06040860129403
 20
74.19290378134205
 10
207.62749634114513
 20
60.199598704448576
 10
221.6208014180386
 20
59.76668644429971
  0
LWPOLYLINE
  5
69
330
17
100
AcDbEntity
  8
SWITCH_CUTOUTS
100
AcDbPolyline
 90
5
 70
1
 10
200.4416489677319
 20
60.581091747511195
 10
201.5602933555191
 20
74.53632856863581
 10
187.60505653439446
 20
75.65497295642298
 10
186.48641214660728
 20
61.699736135298366
 10
200.4416489677319
 20
60.581091747511195
  0
LWPOLYLINE
  5
6A
330
17
100
AcDbEntity
  8
SWITCH_CUTOUTS
100
AcDbPolyline
 90
5
 70
1
 10
179.1893353471476
 20
62.40912879965889
 10
180.7666540707911
 20
76.31999022676122
 10
166.85579264368877
 20
77.89730895040474
 10
165.27847392004526
 20
63.986447523302395
 10
179.1893353471476
 20
62.40912879965889
  0
LWPOLYLINE
  5
6B
330
17
100
AcDbEntity
  8
SWITCH_CUTOUTS
100
AcDbPolyline
 90
5
 70
1
 10
293.70250000000004
 20
78.72500000000001
 10
293.70250000000004
 20
92.72500000000001
 10
279.70250000000004
 20
92.72500000000001
 10
279.70250000000004
 20
78.72500000000001
 10
293.70250000000004
 20
78.72500000000001
  0
LWPOLYLINE
  5
6C
330
17
100
AcDbEntity
  8
SWITCH_CUTOUTS
100
AcDbPolyline
 90
5
 70
1
 10
265.1275
 20
78.72500000000001
 10
265.1275
 20
92.72500000000001
 10
251.1275
 20
92.72500000000001
 10
251.1275
 20
78.72500000000001
 10
265.1275
 20
78.72500000000001
  0
LWPOLYLINE
  5
6D
330
17
100
AcDbEntity
  8
SWITCH_CUTOUTS
100
AcDbPolyline
 90
5
 70
1
 10
221.75206918982653
 20
78.9491226277151
 10
222.18644682308
 20
92.9423822934159
 10
208.19318715737919
 20
93.37675992666937
 10
207.75880952412572
 20
79.38350026096856
 10
221.75206918982653
 20
78.9491226277151
  0
LWPOLYLINE
  5
6E
330
17
100
AcDbEntity
  8
SWITCH_CUTOUTS
100
AcDbPolyline
 90
5
 70
1
 10
183.22959804362296
 20
81.2690628741549
 10
184.68206073976435
 20
95.19351446537807
 10
170.75760914854118
 20
96.64597716151947
 10
169.30514645239978
 20
82.7215255702963
 10
183.22959804362296
 20
81.2690628741549
  0
LWPOLYLINE
  5
6F
330
17
100
AcDbEntity
  8
STAB_CLEARANCE
100
AcDbPolyline
 90
5
 70
1
 10
7.3100000000000005
 20
75.11
 10
7.3100000000000005
 20
59.51
 10
0.3100000000000005
 20
59.51
 10
0.3100000000000005
 20
75.11
 10
7.3100000000000005
 20
75.11
  0
LWPOLYLINE
  5
70
330
17
100
AcDbEntity
  8
STAB_CLEARANCE
100
AcDbPolyline
 90
5
 70
1
 10
31.122500000000002
 20
75.11
 10
31.122500000000002
 20
59.51
 10
24.122500000000002
 20
59.51
 10
24.122500000000002
 20
75.11
 10
31.122500000000002
 20
75.11
  0
LWPOLYLINE
  5
71
330
17
100
AcDbEntity
  8
STAB_CLEARANCE
100
AcDbPolyline
 90
5
 70
1
 10
275.915
 20
75.11
 10
275.915
 20
59.51
 10
268.915
 20
59.51
 10
268.915
 20
75.11
 10
275.915
 20
75.11
  0
LWPOLYLINE
  5
72
330
17
100
AcDbEntity
  8
STAB_CLEARANCE
100
AcDbPolyline
 90
5
 70
1
 10
299.7275
 20
75.11
 10
299.7275
 20
59.51
 10
292.7275
 20
59.51
 10
292.7275
 20
75.11
 10
299.7275
 20
75.11
  0
LWPOLYLINE
  5
73
330
17
100
AcDbEntity
  8
STAB_CLEARANCE
100
AcDbPolyline
 90
5
 70
1
 10
113.80710585378444
 20
96.47357122825788
 10
115.42556428662772
 20
80.9577537408949
 10
108.46333849101613
 20
80.2315223928242
 10
106.84488005817285
 20
95.74733988018717
 10
113.80710585378444
 20
96.47357122825788
  0
LWPOLYLINE
  5
74
330
17
100
AcDbEntity
  8
STAB_CLEARANCE
100
AcDbPolyline
 90
5
 70
1
 10
193.19182539388456
 20
95.7486447149471
 10
191.57336696104127
 20
80.23282722758414
 10
184.61114116542967
 20
80.95905857565484
 10
186.22959959827296
 20
96.47487606301782
 10
193.19182539388456
 20
95.7486447149471
  0
LWPOLYLINE
  5
75
330
17
100
AcDbEntity
  8
STAB_CLEARANCE
100
AcDbPolyline
 90
5
 70
1
 10
137.49110610492744
 20
98.94405465339125
 10
139.10956453777072
 20
83.42823716602828
 10
132.14733874215912
 20
82.70200581795758
 10
130.52888030931584
 20
98.21782330532055
 10
137.49110610492744
 20
98.94405465339125
  0
LWPOLYLINE
  5
76
330
17
100
AcDbEntity
  8
STAB_CLEARANCE
100
AcDbPolyline
 90
5
 70
1
 10
169.50782514274155
 20
98.21912814008049
 10
167.8893667098983
 20
82.70331065271752
 10
160.9271409142867
 20
83.42954200078822
 10
162.54559934712998
 20
98.94535948815118
 10
169.50782514274155
 20
98.21912814008049
  0
ENDSEC
  0
SECTION
  2
OBJECTS
  0
DICTIONARY
  5
A
330
0
100
AcDbDictionary
281
1
  3
ACAD_COLOR
350
B
  3
ACAD_GROUP
350
C
  3
ACAD_LAYOUT
350
D
  3
ACAD_MATERIAL
350
E
  3
ACAD_MLEADERSTYLE
350
F
  3
ACAD_MLINESTYLE
350
10
  3
ACAD_PLOTSETTINGS
350
11
  3
ACAD_PLOTSTYLENAME
350
12
  3
ACAD_SCALELIST
350
14
  3
ACAD_TABLESTYLE
350
15
  3
ACAD_VISUALSTYLE
350
16
  3
EZDXF_META
350
2D
  0
DICTIONARY
  5
B
330
A
100
AcDbDictionary
281
1
  0
DICTIONARY
  5
C
330
A
100
AcDbDictionary
281
1
  0
DICTIONARY
  5
D
330
A
100
AcDbDictionary
281
1
  3
Model
350
1A
  3
Layout1
350
1E
  0
DICTIONARY
  5
E
330
A
100
AcDbDictionary
281
1
  3
ByBlock
350
1F
  3
ByLayer
350
20
  3
Global
350
21
  0
DICTIONARY
  5
F
330
A
100
AcDbDictionary
281
1
  3
Standard
350
2C
  0
DICTIONARY
  5
10
330
A
100
AcDbDictionary
281
1
  3
Standard
350
22
  0
DICTIONARY
  5
11
330
A
100
AcDbDictionary
281
1
  0
ACDBDICTIONARYWDFLT
  5
12
330
A
100
AcDbDictionary
281
1
  3
Normal
350
13
100
AcDbDictionaryWithDefault
340
13
  0
ACDBPLACEHOLDER
  5
13
330
12
  0
DICTIONARY
  5
14
330
A
100
AcDbDictionary
281
1
  0
DICTIONARY
  5
15
330
A
100
AcDbDictionary
281
1
  0
DICTIONARY
  5
16
330
A
100
AcDbDictionary
281
1
  0
LAYOUT
  5
1A
330
D
100
AcDbPlotSettings
  1

  4
A3
  6

 40
7.5
 41
20.0
 42
7.5
 43
20.0
 44
420.0
 45
297.0
 46
0.0
 47
0.0
 48
0.0
 49
0.0
140
0.0
141
0.0
142
1.0
143
1.0
 70
1024
 72
1
 73
0
 74
5
  7

 75
16
 76
0
 77
2
 78
300
147
1.0
148
0.0
149
0.0
100
AcDbLayout
  1
Model
 70
1
 71
0
 10
0.0
 20
0.0
 11
420.0
 21
297.0
 12
0.0
 22
0.0
 32
0.0
 14
1e+20
 24
1e+20
 34
1e+20
 15
-1e+20
 25
-1e+20
 35
-1e+20
146
0.0
 13
0.0
 23
0.0
 33
0.0
 16
1.0
 26
0.0
 36
0.0
 17
0.0
 27
1.0
 37
0.0
 76
1
330
17
  0
LAYOUT
  5
1E
330
D
100
AcDbPlotSettings
  1

  4
A3
  6

 40
7.5
 41
20.0
 42
7.5
 43
20.0
 44
420.0
 45
297.0
 46
0.0
 47
0.0
 48
0.0
 49
0.0
140
0.0
141
0.0
142
1.0
143
1.0
 70
0
 72
1
 73
0
 74
5
  7

 75
16
 76
0
 77
2
 78
300
147
1.0
148
0.0
149
0.0
100
AcDbLayout
  1
Layout1
 70
1
 71
1
 10
0.0
 20
0.0
 11
420.0
 21
297.0
 12
0.0
 22
0.0
 32
0.0
 14
1e+20
 24
1e+20
 34
1e+20
 15
-1e+20
 25
-1e+20
 35
-1e+20
146
0.0
 13
0.0
 23
0.0
 33
0.0
 16
1.0
 26
0.0
 36
0.0
 17
0.0
 27
1.0
 37
0.0
 76
1
330
1B
  0
MATERIAL
  5
1F
102
{ACAD_REACTORS
330
E
102
}
330
E
100
AcDbMaterial
  1
ByBlock
  2

 70
0
 40
1.0
 71
1
 41
1.0
 91
-1023410177
 42
1.0
 72
1
  3

 73
1
 74
1
 75
1
 44
0.5
 73
0
 45
1.0
 46
1.0
 77
1
  4

 78
1
 79
1
170
1
 48
1.0
171
1
  6

172
1
173
1
174
1
140
1.0
141
1.0
175
1
  7

176
1
177
1
178
1
143
1.0
179
1
  8

270
1
271
1
272
1
145
1.0
146
1.0
273
1
  9

274
1
275
1
276
1
 42
1.0
 72
1
  3

 73
1
 74
1
 75
1
 94
63
  0
MATERIAL
  5
20
102
{ACAD_REACTORS
330
E
102
}
330
E
100
AcDbMaterial
  1
ByLayer
  2

 70
0
 40
1.0
 71
1
 41
1.0
 91
-1023410177
 42
1.0
 72
1
  3

 73
1
 74
1
 75
1
 44
0.5
 73
0
 45
1.0
 46
1.0
 77
1
  4

 78
1
 79
1
170
1
 48
1.0
171
1
  6

172
1
173
1
174
1
140
1.0
141
1.0
175
1
  7

176
1
177
1
178
1
143
1.0
179
1
  8

270
1
271
1
272
1
145
1.0
146
1.0
273
1
  9

274
1
275
1
276
1
 42
1.0
 72
1
  3

 73
1
 74
1
 75
1
 94
63
  0
MATERIAL
  5
21
102
{ACAD_REACTORS
330
E
102
}
330
E
100
AcDbMaterial
  1
Global
  2

 70
0
 40
1.0
 71
1
 41
1.0
 91
-1023410177
 42
1.0
 72
1
  3

 73
1
 74
1
 75
1
 44
0.5
 73
0
 45
1.0
 46
1.0
 77
1
  4

 78
1
 79
1
170
1
 48
1.0
171
1
  6

172
1
173
1
174
1
140
1.0
141
1.0
175
1
  7

176
1
177
1
178
1
143
1.0
179
1
  8

270
1
271
1
272
1
145
1.0
146
1.0
273
1
  9

274
1
275
1
276
1
 42
1.0
 72
1
  3

 73
1
 74
1
 75
1
 94
63
  0
MLINESTYLE
  5
22
102
{ACAD_REACTORS
330
10
102
}
330
10
100
AcDbMlineStyle
  2
Standard
 70
0
  3

 62
256
 51
90.0
 52
90.0
 71
2
 49
0.5
 62
256
  6
BYLAYER
 49
-0.5
 62
256
  6
BYLAYER
  0
MLEADERSTYLE
  5
2C
102
{ACAD_REACTORS
330
F
102
}
330
F
100
AcDbMLeaderStyle
179
2
170
2
171
1
172
0
 90
2
 40
0.0
 41
0.0
173
1
 91
-1056964608
 92
-2
290
1
 42
2.0
291
1
 43
8.0
  3
Standard
 44
4.0
300

342
29
174
1
175
1
176
0
178
1
 93
-1056964608
 45
4.0
292
0
297
0
 46
4.0
 94
-1056964608
 47
1.0
 49
1.0
140
1.0
294
1
141
0.0
177
0
142
1.0
295
0
296
0
143
3.75
271
0
272
9
273
9
  0
DICTIONARY
  5
2D
330
A
100
AcDbDictionary
280
1
281
1
  3
CREATED_BY_EZDXF
350
2E
  3
WRITTEN_BY_EZDXF
350
79
  0
DICTIONARYVAR
  5
2E
330
2D
100
DictionaryVariables
280
0
  1
1.4.4 @ 2026-09-10T12:24:19.525195+00:00
  0
DICTIONARYVAR
  5
79
330
2D
100
DictionaryVariables
280
0
  1
1.4.4 @ 2026-09-10T12:24:19.534972+00:00
  0
ENDSEC
  0
EOF
