  0
SECTION
  2
HEADER
  9
$ACADVER
  1
AC1024
  9
$ACADMAINTVER
 70
6
  9
$DWGCODEPAGE
  3
ANSI_1252
  9
$LASTSAVEDBY
  1
ezdxf
  9
$INSBASE
 10
0.0
 20
0.0
 30
0.0
  9
$EXTMIN
 10
1e+20
 20
1e+20
 30
1e+20
  9
$EXTMAX
 10
-1e+20
 20
-1e+20
 30
-1e+20
  9
$LIMMIN
 10
0.0
 20
0.0
  9
$LIMMAX
 10
420.0
 20
297.0
  9
$ORTHOMODE
 70
0
  9
$REGENMODE
 70
1
  9
$FILLMODE
 70
1
  9
$QTEXTMODE
 70
0
  9
$MIRRTEXT
 70
1
  9
$LTSCALE
 40
1.0
  9
$ATTMODE
 70
1
  9
$TEXTSIZE
 40
2.5
  9
$TRACEWID
 40
1.0
  9
$TEXTSTYLE
  7
Standard
  9
$CLAYER
  8
0
  9
$CELTYPE
  6
ByLayer
  9
$CECOLOR
 62
256
  9
$CELTSCALE
 40
1.0
  9
$DISPSILH
 70
0
  9
$DIMSCALE
 40
1.0
  9
$DIMASZ
 40
2.5
  9
$DIMEXO
 40
0.625
  9
$DIMDLI
 40
3.75
  9
$DIMRND
 40
0.0
  9
$DIMDLE
 40
0.0
  9
$DIMEXE
 40
1.25
  9
$DIMTP
 40
0.0
  9
$DIMTM
 40
0.0
  9
$DIMTXT
 40
2.5
  9
$DIMCEN
 40
2.5
  9
$DIMTSZ
 40
0.0
  9
$DIMTOL
 70
0
  9
$DIMLIM
 70
0
  9
$DIMTIH
 70
0
  9
$DIMTOH
 70
0
  9
$DIMSE1
 70
0
  9
$DIMSE2
 70
0
  9
$DIMTAD
 70
1
  9
$DIMZIN
 70
8
  9
$DIMBLK
  1

  9
$DIMASO
 70
1
  9
$DIMSHO
 70
1
  9
$DIMPOST
  1

  9
$DIMAPOST
  1

  9
$DIMALT
 70
0
  9
$DIMALTD
 70
3
  9
$DIMALTF
 40
0.03937007874
  9
$DIMLFAC
 40
1.0
  9
$DIMTOFL
 70
1
  9
$DIMTVP
 40
0.0
  9
$DIMTIX
 70
0
  9
$DIMSOXD
 70
0
  9
$DIMSAH
 70
0
  9
$DIMBLK1
  1

  9
$DIMBLK2
  1

  9
$DIMSTYLE
  2
ISO-25
  9
$DIMCLRD
 70
0
  9
$DIMCLRE
 70
0
  9
$DIMCLRT
 70
0
  9
$DIMTFAC
 40
1.0
  9
$DIMGAP
 40
0.625
  9
$DIMJUST
 70
0
  9
$DIMSD1
 70
0
  9
$DIMSD2
 70
0
  9
$DIMTOLJ
 70
0
  9
$DIMTZIN
 70
8
  9
$DIMALTZ
 70
0
  9
$DIMALTTZ
 70
0
  9
$DIMUPT
 70
0
  9
$DIMDEC
 70
2
  9
$DIMTDEC
 70
2
  9
$DIMALTU
 70
2
  9
$DIMALTTD
 70
3
  9
$DIMTXSTY
  7
Standard
  9
$DIMAUNIT
 70
0
  9
$DIMADEC
 70
0
  9
$DIMALTRND
 40
0.0
  9
$DIMAZIN
 70
0
  9
$DIMDSEP
 70
44
  9
$DIMATFIT
 70
3
  9
$DIMFRAC
 70
0
  9
$DIMLDRBLK
  1

  9
$DIMLUNIT
 70
2
  9
$DIMLWD
 70
-2
  9
$DIMLWE
 70
-2
  9
$DIMTMOVE
 70
0
  9
$DIMFXL
 40
1.0
  9
$DIMFXLON
 70
0
  9
$DIMJOGANG
 40
0.785398163397
  9
$DIMTFILL
 70
0
  9
$DIMTFILLCLR
 70
0
  9
$DIMARCSYM
 70
0
  9
$DIMLTYPE
  6

  9
$DIMLTEX1
  6

  9
$DIMLTEX2
  6

  9
$DIMTXTDIRECTION
 70
0
  9
$LUNITS
 70
2
  9
$LUPREC
 70
4
  9
$SKETCHINC
 40
1.0
  9
$FILLETRAD
 40
10.0
  9
$AUNITS
 70
0
  9
$AUPREC
 70
2
  9
$MENU
  1
.
  9
$ELEVATION
 40
0.0
  9
$PELEVATION
 40
0.0
  9
$THICKNESS
 40
0.0
  9
$LIMCHECK
 70
0
  9
$CHAMFERA
 40
0.0
  9
$CHAMFERB
 40
0.0
  9
$CHAMFERC
 40
0.0
  9
$CHAMFERD
 40
0.0
  9
$SKPOLY
 70
0
  9
$TDCREATE
 40
2461319.695659722
  9
$TDUCREATE
 40
2458532.153996898
  9
$TDUPDATE
 40
2461319.695659722
  9
$TDUUPDATE
 40
2458532.1544311
  9
$TDINDWG
 40
0.0
  9
$TDUSRTIMER
 40
0.0
  9
$USRTIMER
 70
1
  9
$ANGBASE
 50
0.0
  9
$ANGDIR
 70
0
  9
$PDMODE
 70
0
  9
$PDSIZE
 40
0.0
  9
$PLINEWID
 40
0.0
  9
$SPLFRAME
 70
0
  9
$SPLINETYPE
 70
6
  9
$SPLINESEGS
 70
8
  9
$HANDSEED
  5
3B
  9
$SURFTAB1
 70
6
  9
$SURFTAB2
 70
6
  9
$SURFTYPE
 70
6
  9
$SURFU
 70
6
  9
$SURFV
 70
6
  9
$UCSBASE
  2

  9
$UCSNAME
  2

  9
$UCSORG
 10
0.0
 20
0.0
 30
0.0
  9
$UCSXDIR
 10
1.0
 20
0.0
 30
0.0
  9
$UCSYDIR
 10
0.0
 20
1.0
 30
0.0
  9
$UCSORTHOREF
  2

  9
$UCSORTHOVIEW
 70
0
  9
$UCSORGTOP
 10
0.0
 20
0.0
 30
0.0
  9
$UCSORGBOTTOM
 10
0.0
 20
0.0
 30
0.0
  9
$UCSORGLEFT
 10
0.0
 20
0.0
 30
0.0
  9
$UCSORGRIGHT
 10
0.0
 20
0.0
 30
0.0
  9
$UCSORGFRONT
 10
0.0
 20
0.0
 30
0.0
  9
$UCSORGBACK
 10
0.0
 20
0.0
 30
0.0
  9
$PUCSBASE
  2

  9
$PUCSNAME
  2

  9
$PUCSORG
 10
0.0
 20
0.0
 30
0.0
  9
$PUCSXDIR
 10
1.0
 20
0.0
 30
0.0
  9
$PUCSYDIR
 10
0.0
 20
1.0
 30
0.0
  9
$PUCSORTHOREF
  2

  9
$PUCSORTHOVIEW
 70
0
  9
$PUCSORGTOP
 10
0.0
 20
0.0
 30
0.0
  9
$PUCSORGBOTTOM
 10
0.0
 20
0.0
 30
0.0
  9
$PUCSORGLEFT
 10
0.0
 20
0.0
 30
0.0
  9
$PUCSORGRIGHT
 10
0.0
 20
0.0
 30
0.0
  9
$PUCSORGFRONT
 10
0.0
 20
0.0
 30
0.0
  9
$PUCSORGBACK
 10
0.0
 20
0.0
 30
0.0
  9
$USERI1
 70
0
  9
$USERI2
 70
0
  9
$USERI3
 70
0
  9
$USERI4
 70
0
  9
$USERI5
 70
0
  9
$USERR1
 40
0.0
  9
$USERR2
 40
0.0
  9
$USERR3
 40
0.0
  9
$USERR4
 40
0.0
  9
$USERR5
 40
0.0
  9
$WORLDVIEW
 70
1
  9
$SHADEDGE
 70
3
  9
$SHADEDIF
 70
70
  9
$TILEMODE
 70
1
  9
$MAXACTVP
 70
64
  9
$PINSBASE
 10
0.0
 20
0.0
 30
0.0
  9
$PLIMCHECK
 70
0
  9
$PEXTMIN
 10
1e+20
 20
1e+20
 30
1e+20
  9
$PEXTMAX
 10
-1e+20
 20
-1e+20
 30
-1e+20
  9
$PLIMMIN
 10
0.0
 20
0.0
  9
$PLIMMAX
 10
420.0
 20
297.0
  9
$UNITMODE
 70
0
  9
$VISRETAIN
 70
1
  9
$PLINEGEN
 70
0
  9
$PSLTSCALE
 70
1
  9
$TREEDEPTH
 70
3020
  9
$CMLSTYLE
  2
Standard
  9
$CMLJUST
 70
0
  9
$CMLSCALE
 40
20.0
  9
$PROXYGRAPHICS
 70
1
  9
$MEASUREMENT
 70
1
  9
$CELWEIGHT
370
-1
  9
$ENDCAPS
280
0
  9
$JOINSTYLE
280
0
  9
$LWDISPLAY
290
0
  9
$INSUNITS
 70
4
  9
$HYPERLINKBASE
  1

  9
$STYLESHEET
  1

  9
$XEDIT
290
1
  9
$CEPSNTYPE
380
0
  9
$PSTYLEMODE
290
1
  9
$FINGERPRINTGUID
  2
{4BA9E019-B24B-4E81-9FB5-65FD574FD49D}
  9
$VERSIONGUID
  2
{B6E4ADDA-2FCC-493B-9BB7-32541AA5871F}
  9
$EXTNAMES
290
1
  9
$PSVPSCALE
 40
0.0
  9
$OLESTARTUP
290
0
  9
$SORTENTS
280
127
  9
$INDEXCTL
280
0
  9
$HIDETEXT
280
1
  9
$XCLIPFRAME
280
1
  9
$HALOGAP
280
0
  9
$OBSCOLOR
 70
257
  9
$OBSLTYPE
280
0
  9
$INTERSECTIONDISPLAY
280
0
  9
$INTERSECTIONCOLOR
 70
257
  9
$DIMASSOC
280
2
  9
$PROJECTNAME
  1

  9
$CAMERADISPLAY
290
0
  9
$LENSLENGTH
 40
50.0
  9
$CAMERAHEIGHT
 40
0.0
  9
$STEPSPERSEC
 40
24.0
  9
$STEPSIZE
 40
100.0
  9
$3DDWFPREC
 40
2.0
  9
$PSOLWIDTH
 40
0.005
  9
$PSOLHEIGHT
 40
0.08
  9
$LOFTANG1
 40
1.570796326795
  9
$LOFTANG2
 40
1.570796326795
  9
$LOFTMAG1
 40
0.0
  9
$LOFTMAG2
 40
0.0
  9
$LOFTPARAM
 70
7
  9
$LOFTNORMALS
280
1
  9
$LATITUDE
 40
37.795
  9
$LONGITUDE
 40
-122.394
  9
$NORTHDIRECTION
 40
0.0
  9
$TIMEZONE
 70
-8000
  9
$LIGHTGLYPHDISPLAY
280
1
  9
$TILEMODELIGHTSYNCH
280
1
  9
$CMATERIAL
347
20
  9
$SOLIDHIST
280
0
  9
$SHOWHIST
280
1
  9
$DWFFRAME
280
2
  9
$DGNFRAME
280
2
  9
$REALWORLDSCALE
290
1
  9
$INTERFERECOLOR
 62
256
  9
$CSHADOW
280
0
  9
$SHADOWPLANELOCATION
 40
0.0
  0
ENDSEC
  0
SECTION
  2
CLASSES
  0
CLASS
  1
ACDBDICTIONARYWDFLT
  2
AcDbDictionaryWithDefault
  3
ObjectDBX Classes
 90
0
 91
0
280
0
281
0
  0
CLASS
  1
SUN
  2
AcDbSun
  3
SCENEOE
 90
1153
 91
0
280
0
281
0
  0
CLASS
  1
VISUALSTYLE
  2
AcDbVisualStyle
  3
ObjectDBX Classes
 90
4095
 91
0
280
0
281
0
  0
CLASS
  1
MATERIAL
  2
AcDbMaterial
  3
ObjectDBX Classes
 90
1153
 91
0
280
0
281
0
  0
CLASS
  1
SCALE
  2
AcDbScale
  3
ObjectDBX Classes
 90
1153
 91
0
280
0
281
0
  0
CLASS
  1
TABLESTYLE
  2
AcDbTableStyle
  3
ObjectDBX Classes
 90
4095
 91
0
280
0
281
0
  0
CLASS
  1
MLEADERSTYLE
  2
AcDbMLeaderStyle
  3
ACDB_MLEADERSTYLE_CLASS
 90
4095
 91
0
280
0
281
0
  0
CLASS
  1
DICTIONARYVAR
  2
AcDbDictionaryVar
  3
ObjectDBX Classes
 90
0
 91
0
280
0
281
0
  0
CLASS
  1
CELLSTYLEMAP
  2
AcDbCellStyleMap
  3
ObjectDBX Classes
 90
1152
 91
0
280
0
281
0
  0
CLASS
  1
MENTALRAYRENDERSETTINGS
  2
AcDbMentalRayRenderSettings
  3
SCENEOE
 90
1024
 91
0
280
0
281
0
  0
CLASS
  1
ACDBDETAILVIEWSTYLE
  2
AcDbDetailViewStyle
  3
ObjectDBX Classes
 90
1025
 91
0
280
0
281
0
  0
CLASS
  1
ACDBSECTIONVIEWSTYLE
  2
AcDbSectionViewStyle
  3
ObjectDBX Classes
 90
1025
 91
0
280
0
281
0
  0
CLASS
  1
RASTERVARIABLES
  2
AcDbRasterVariables
  3
ISM
 90
0
 91
0
280
0
281
0
  0
CLASS
  1
LAYOUT
  2
AcDbLayout
  3
ObjectDBX Classes
 90
0
 91
0
280
0
281
0
  0
CLASS
  1
ACDBPLACEHOLDER
  2
AcDbPlaceHolder
  3
ObjectDBX Classes
 90
0
 91
0
280
0
281
0
  0
ENDSEC
  0
SECTION
  2
TABLES
  0
TABLE
  2
VPORT
  5
8
330
0
100
AcDbSymbolTable
 70
1
  0
VPORT
  5
23
330
8
100
AcDbSymbolTableRecord
100
AcDbViewportTableRecord
  2
*Active
 70
0
 10
0.0
 20
0.0
 11
1.0
 21
1.0
 12
0.0
 22
0.0
 13
0.0
 23
0.0
 14
0.5
 24
0.5
 15
0.5
 25
0.5
 16
0.0
 26
0.0
 36
1.0
 17
0.0
 27
0.0
 37
0.0
 40
1000.0
 41
1.34
 42
50.0
 43
0.0
 44
0.0
 50
0.0
 51
0.0
 71
0
 72
1000
 73
1
 74
3
 75
0
 76
0
 77
0
 78
0
281
0
 65
0
146
0.0
  0
ENDTAB
  0
TABLE
  2
LTYPE
  5
2
330
0
100
AcDbSymbolTable
 70
3
  0
LTYPE
  5
24
330
2
100
AcDbSymbolTableRecord
100
AcDbLinetypeTableRecord
  2
ByBlock
 70
0
  3

 72
65
 73
0
 40
0.0
  0
LTYPE
  5
25
330
2
100
AcDbSymbolTableRecord
100
AcDbLinetypeTableRecord
  2
ByLayer
 70
0
  3

 72
65
 73
0
 40
0.0
  0
LTYPE
  5
26
330
2
100
AcDbSymbolTableRecord
100
AcDbLinetypeTableRecord
  2
Continuous
 70
0
  3

 72
65
 73
0
 40
0.0
  0
ENDTAB
  0
TABLE
  2
LAYER
  5
1
330
0
100
AcDbSymbolTable
 70
3
  0
LAYER
  5
27
330
1
100
AcDbSymbolTableRecord
100
AcDbLayerTableRecord
  2
0
 70
0
 62
7
  6
Continuous
370
-3
390
13
347
21
  0
LAYER
  5
28
330
1
100
AcDbSymbolTableRecord
100
AcDbLayerTableRecord
  2
Defpoints
 70
0
 62
7
  6
Continuous
290
0
370
-3
390
13
347
21
  0
LAYER
  5
2F
330
1
100
AcDbSymbolTableRecord
100
AcDbLayerTableRecord
  2
GASKET_PADS
 70
0
 62
1
  6
Continuous
370
-3
390
13
347
21
  0
ENDTAB
  0
TABLE
  2
STYLE
  5
5
330
0
100
AcDbSymbolTable
 70
1
  0
STYLE
  5
29
330
5
100
AcDbSymbolTableRecord
100
AcDbTextStyleTableRecord
  2
Standard
 70
0
 40
0.0
 41
1.0
 50
0.0
 71
0
 42
2.5
  3
txt
  4

  0
ENDTAB
  0
TABLE
  2
VIEW
  5
7
330
0
100
AcDbSymbolTable
 70
0
  0
ENDTAB
  0
TABLE
  2
UCS
  5
6
330
0
100
AcDbSymbolTable
 70
0
  0
ENDTAB
  0
TABLE
  2
APPID
  5
3
330
0
100
AcDbSymbolTable
 70
3
  0
APPID
  5
2A
330
3
100
AcDbSymbolTableRecord
100
AcDbRegAppTableRecord
  2
ACAD
 70
0
  0
APPID
  5
38
330
3
100
AcDbSymbolTableRecord
100
AcDbRegAppTableRecord
  2
HATCHBACKGROUNDCOLOR
 70
0
  0
APPID
  5
39
330
3
100
AcDbSymbolTableRecord
100
AcDbRegAppTableRecord
  2
EZDXF
 70
0
  0
ENDTAB
  0
TABLE
  2
DIMSTYLE
  5
4
330
0
100
AcDbSymbolTable
 70
1
100
AcDbDimStyleTable
  0
DIMSTYLE
105
2B
330
4
100
AcDbSymbolTableRecord
100
AcDbDimStyleTableRecord
  2
Standard
 70
0
 40
1.0
 41
2.5
 42
0.625
 43
3.75
 44
1.25
 45
0.0
 46
0.0
 47
0.0
 48
0.0
 49
2.5
140
2.5
141
2.5
142
0.0
143
0.03937007874
144
1.0
145
0.0
146
1.0
147
0.625
148
0.0
 69
0
 70
0
 71
0
 72
0
 73
0
 74
0
 75
0
 76
0
 77
1
 78
8
 79
3
170
0
171
3
172
1
173
0
174
0
175
0
176
0
177
0
178
0
179
2
271
2
272
2
273
2
274
3
275
0
276
0
277
2
278
44
279
0
280
0
281
0
282
0
283
0
284
8
285
0
286
0
288
0
289
3
290
0
371
-2
372
-2
  0
ENDTAB
  0
TABLE
  2
BLOCK_RECORD
  5
9
330
0
100
AcDbSymbolTable
 70
2
  0
BLOCK_RECORD
  5
17
330
9
100
AcDbSymbolTableRecord
100
AcDbBlockTableRecord
  2
*Model_Space
340
1A
 70
0
280
1
281
0
  0
BLOCK_RECORD
  5
1B
330
9
100
AcDbSymbolTableRecord
100
AcDbBlockTableRecord
  2
*Paper_Space
340
1E
 70
0
280
1
281
0
  0
ENDTAB
  0
ENDSEC
  0
SECTION
  2
BLOCKS
  0
BLOCK
  5
18
330
17
100
AcDbEntity
  8
0
100
AcDbBlockBegin
  2
*Model_Space
 70
0
 10
0.0
 20
0.0
 30
0.0
  3
*Model_Space
  1

  0
ENDBLK
  5
19
330
17
100
AcDbEntity
  8
0
100
AcDbBlockEnd
  0
BLOCK
  5
1C
330
1B
100
AcDbEntity
  8
0
100
AcDbBlockBegin
  2
*Paper_Space
 70
0
 10
0.0
 20
0.0
 30
0.0
  3
*Paper_Space
  1

  0
ENDBLK
  5
1D
330
1B
100
AcDbEntity
  8
0
100
AcDbBlockEnd
  0
ENDSEC
  0
SECTION
  2
ENTITIES
  0
LWPOLYLINE
  5
30
330
17
100
AcDbEntity
  8
GASKET_PADS
100
AcDbPolyline
 90
25
 70
1
 10
28.820287404759586
 20
0.10999999999999988
 10
40.6842125952404
 20
0.10999999999999988
 10
40.632702485472834
 20
-0.03669183433808221
 10
40.51235976283288
 20
-0.48469258128376214
 10
40.405206799357686
 20
-0.9678965848224016
 10
40.30611067110015
 20
-1.4745815622195435
 10
40.21130372725507
 20
-1.9906162487960226
 10
40.11763410860017
 20
-2.500460468469414
 10
40.02239429935764
 20
-2.9874278348225687
 10
39.92349257533288
 20
-3.433423050033763
 10
39.820202485472834
 20
-3.817941834338081
 10
39.71570835433572
 20
-4.115522946924226
 10
39.62682085474896
 20
-4.29
 10
29.877679145251037
 20
-4.29
 10
29.78879164566427
 20
-4.1155229469242025
 10
29.68429751452717
 20
-3.817941834338124
 10
29.581007424667092
 20
-3.433423050033687
 10
29.48210570064233
 20
-2.987427834822485
 10
29.386865891399825
 20
-2.5004604684694782
 10
29.29319627274492
 20
-1.9906162487960333
 10
29.198389328899808
 20
-1.474581562219365
 10
29.099293200642336
 20
-0.967896584822513
 10
28.992140237167092
 20
-0.48469258128368586
 10
28.87179751452717
 20
-0.0366918343381252
 10
28.820287404759586
 20
0.10999999999999988
  0
LWPOLYLINE
  5
31
330
17
100
AcDbEntity
  8
GASKET_PADS
100
AcDbPolyline
 90
25
 70
1
 10
98.18375828614994
 20
2.6450587974491753
 10
109.90088420772648
 20
4.505618138949602
 10
109.87301640054018
 20
4.3526633384616
 10
109.8244204383327
 20
3.891333226054322
 10
109.7943717792632
 20
3.3973039306627877
 10
109.77596266577561
 20
2.8813477178926563
 10
109.76325593168852
 20
2.356830136432858
 10
109.75070163041043
 20
1.8386047845707971
 10
109.73300890630796
 20
1.3427269723315234
 10
109.70527412333767
 20
0.8867400593391567
 10
109.66356423683077
 20
0.4907806883000903
 10
109.60703121230858
 20
0.1804944347397933
 10
109.54660592278384
 20
-0.005763488631648968
 10
99.91809603221772
 20
-1.5346720402273524
 10
99.80294603636419
 20
-1.3762936702150232
 10
99.6530767323247
 20
-1.098781988088573
 10
99.49076257621331
 20
-0.7352195410838033
 10
99.32314144861378
 20
-0.3102531417195708
 10
99.15271146969398
 20
0.15575271601594712
 10
98.98024459135702
 20
0.6445986034581501
 10
98.8056836410246
 20
1.1393799985923534
 10
98.62835284643113
 20
1.6242547228704431
 10
98.44674731083037
 20
2.084675504391812
 10
98.25763596921078
 20
2.508260136581203
 10
98.18375828614994
 20
2.6450587974491753
  0
LWPOLYLINE
  5
32
330
17
100
AcDbEntity
  8
GASKET_PADS
100
AcDbPolyline
 90
24
 70
1
 10
28.8202808965677
 20
95.14361063657918
 10
28.87177176216859
 20
95.29030922699303
 10
28.992055712931958
 20
95.73832575720708
 10
29.099145286515636
 20
96.22154381341672
 10
29.198174944606563
 20
96.72824178634922
 10
29.292914191783222
 20
97.24428890570532
 10
29.38651692587396
 20
97.75414540901184
 10
29.481692851631884
 20
98.24112526518014
 10
29.58053606705963
 20
98.6871334509461
 10
29.6837757130517
 20
99.07166578202062
 10
29.788230805202364
 20
99.36926060007679
 10
29.8770954153054
 20
99.54374931233073
 10
39.62623704091475
 20
99.54502825050619
 10
39.71514742845556
 20
99.37056285961121
 10
39.819680596780806
 20
99.07299545761637
 10
39.92302112873133
 20
98.68849022669937
 10
40.02198135965108
 20
98.24250798971823
 10
40.11728505073915
 20
97.75555312156094
 10
40.305896191228136
 20
96.72969894937857
 10
40.40505878794688
 20
96.22302697623655
 10
40.51227513946958
 20
95.73983703368445
 10
40.632676631915054
 20
95.29185207771708
 10
40.68420598496286
 20
95.14516700197922
 10
28.8202808965677
 20
95.14361063657918
  0
LWPOLYLINE
  5
33
330
17
100
AcDbEntity
  8
GASKET_PADS
100
AcDbPolyline
 90
25
 70
1
 10
98.16772798126684
 20
99.14808778029072
 10
98.19565625805383
 20
99.30103155108738
 10
98.24443460663565
 20
99.7623424146769
 10
98.27467858138588
 20
100.25635979150569
 10
98.29329168042803
 20
100.77230868577601
 10
98.30620578531399
 20
101.29682120254469
 10
98.31896496972472
 20
101.8150415504732
 10
98.33685374129793
 20
102.31091232901127
 10
98.36476879980073
 20
102.76688824122104
 10
98.40663522842824
 20
103.16283109101165
 10
98.4632909224304
 20
103.47309496958461
 10
98.52378984564004
 20
103.6593289888273
 10
108.15290344867655
 20
105.18443072041418
 10
108.2679908195049
 20
105.02600683740208
 10
108.41775039559552
 20
104.74843592505871
 10
108.57992080199766
 20
104.38480933440047
 10
108.7473739029797
 20
103.9597766980325
 10
108.91761962981768
 20
103.49370349600193
 10
109.08989322594434
 20
103.00478946074563
 10
109.26425854725657
 20
102.50993909035654
 10
109.44139762928782
 20
102.02499429496888
 10
109.62282112003346
 20
101.564501750379
 10
109.81176497964763
 20
101.1408423847674
 10
109.88558857260188
 20
101.00401452651826
 10
98.16772798126684
 20
99.14808778029072
  0
LWPOLYLINE
  5
34
330
17
100
AcDbEntity
  8
GASKET_PADS
100
AcDbPolyline
 90
25
 70
1
 10
261.7337874047596
 20
0.10999999999999988
 10
273.5977125952404
 20
0.10999999999999988
 10
273.54620248547286
 20
-0.03669183433799605
 10
273.4258597628328
 20
-0.4846925812842165
 10
273.31870679935804
 20
-0.9678965848207223
 10
273.21961067110004
 20
-1.4745815622203777
 10
273.1248037272551
 20
-1.9906162487960297
 10
273.03113410860004
 20
-2.5004604684703775
 10
272.93589429935804
 20
-2.987427834820721
 10
272.8369925753328
 20
-3.4334230500342175
 10
272.73370248547286
 20
-3.817941834337995
 10
272.6292083543357
 20
-4.11552294692436
 10
272.540320854749
 20
-4.29
 10
262.791179145251
 20
-4.29
 10
262.70229164566433
 20
-4.11552294692436
 10
262.59779751452714
 20
-3.817941834337995
 10
262.49450742466723
 20
-3.4334230500342175
 10
262.39560570064197
 20
-2.9874278348207213
 10
262.30036589139996
 20
-2.500460468470378
 10
262.2066962727449
 20
-1.9906162487960297
 10
262.11188932889996
 20
-1.4745815622203775
 10
262.01279320064197
 20
-0.9678965848207212
 10
261.90564023716723
 20
-0.484692581284217
 10
261.78529751452714
 20
-0.0366918343379961
 10
261.7337874047596
 20
0.10999999999999988
  0
LWPOLYLINE
  5
35
330
17
100
AcDbEntity
  8
GASKET_PADS
100
AcDbPolyline
 90
25
 70
1
 10
192.51711579227353
 20
4.505618138949595
 10
204.23424171385008
 20
2.6450587974491704
 10
204.16036403078917
 20
2.508260136581025
 10
203.97125268916963
 20
2.0846755043917633
 10
203.78964715356895
 20
1.6242547228705646
 10
203.61231635897516
 20
1.1393799985916602
 10
203.437755408643
 20
0.6445986034581472
 10
203.26528853030564
 20
0.15575271601484036
 10
203.09485855138635
 20
-0.31025314171928065
 10
202.9272374237868
 20
-0.7352195410835753
 10
202.76492326767536
 20
-1.0987819880884966
 10
202.61505396363577
 20
-1.3762936702151018
 10
202.49990396778233
 20
-1.5346720402273581
 10
192.87139407721617
 20
-0.005763488631650504
 10
192.81096878769145
 20
0.18049443473975615
 10
192.75443576316925
 20
0.4907806883001038
 10
192.71272587666238
 20
0.8867400593390888
 10
192.68499109369202
 20
1.34272697233212
 10
192.66729836958962
 20
1.8386047845696587
 10
192.65474406831152
 20
2.356830136432826
 10
192.64203733422437
 20
2.881347717893846
 10
192.62362822073686
 20
3.3973039306621233
 10
192.59357956166735
 20
3.89133322605435
 10
192.54498359945984
 20
4.352663338461596
 10
192.51711579227353
 20
4.505618138949595
  0
LWPOLYLINE
  5
36
330
17
100
AcDbEntity
  8
GASKET_PADS
100
AcDbPolyline
 90
25
 70
1
 10
261.7337940150372
 20
95.14516700197922
 10
261.785323368085
 20
95.29185207771714
 10
261.90572486053054
 20
95.73983703368481
 10
262.0129412120532
 20
96.2230269762366
 10
262.1121038087718
 20
96.72969894937783
 10
262.20697844765385
 20
97.24572119429479
 10
262.3007149492612
 20
97.75555312156293
 10
262.39601864034864
 20
98.24250798971661
 10
262.4949788712688
 20
98.68849022669983
 10
262.59831940321936
 20
99.07299545761681
 10
262.70285257154444
 20
99.37056285961117
 10
262.79176295908525
 20
99.54502825050619
 10
272.5409045846946
 20
99.54374931233073
 10
272.62976919479763
 20
99.36926060007684
 10
272.73422428694846
 20
99.07166578202008
 10
272.83746393294047
 20
98.68713345094609
 10
272.936307148368
 20
98.24112526518111
 10
273.03148307412647
 20
97.75414540900985
 10
273.1250858082168
 20
97.24428890570528
 10
273.2198250553937
 20
96.72824178634806
 10
273.3188547134842
 20
96.22154381341778
 10
273.4259442870681
 20
95.73832575720706
 10
273.5462282378316
 20
95.29030922699248
 10
273.5977191034323
 20
95.14361063657918
 10
261.7337940150372
 20
95.14516700197922
  0
LWPOLYLINE
  5
37
330
17
100
AcDbEntity
  8
GASKET_PADS
100
AcDbPolyline
 90
25
 70
1
 10
192.53241142739816
 20
101.00401452651826
 10
192.6062350203525
 20
101.14084238476758
 10
192.79517887996644
 20
101.56450175037867
 10
192.97660237071236
 20
102.02499429496928
 10
193.15374145274345
 20
102.50993909035654
 10
193.32810677405567
 20
103.00478946074561
 10
193.50038037018194
 20
103.49370349600079
 10
193.6706260970206
 20
103.95977669803317
 10
193.8380791980024
 20
104.38480933440047
 10
194.0002496044044
 20
104.74843592505846
 10
194.15000918049515
 20
105.02600683740214
 10
194.26509655132347
 20
105.18443072041418
 10
203.89421015435997
 20
103.6593289888273
 10
203.9547090775696
 20
103.47309496958461
 10
204.01136477157175
 20
103.16283109101167
 10
204.0532312001993
 20
102.766888241221
 10
204.08114625870206
 20
102.31091232901184
 10
204.09903503027533
 20
101.8150415504719
 10
204.111794214686
 20
101.29682120254466
 10
204.124708319572
 20
100.77230868577605
 10
204.14332141861414
 20
100.25635979150564
 10
204.17356539336438
 20
99.76234241467694
 10
204.2223437419462
 20
99.30103155108736
 10
204.25027201873317
 20
99.14808778029072
 10
192.53241142739816
 20
101.00401452651826
  0
ENDSEC
  0
SECTION
  2
OBJECTS
  0
DICTIONARY
  5
A
330
0
100
AcDbDictionary
281
1
  3
ACAD_COLOR
350
B
  3
ACAD_GROUP
350
C
  3
ACAD_LAYOUT
350
D
  3
ACAD_MATERIAL
350
E
  3
ACAD_MLEADERSTYLE
350
F
  3
ACAD_MLINESTYLE
350
10
  3
ACAD_PLOTSETTINGS
350
11
  3
ACAD_PLOTSTYLENAME
350
12
  3
ACAD_SCALELIST
350
14
  3
ACAD_TABLESTYLE
350
15
  3
ACAD_VISUALSTYLE
350
16
  3
EZDXF_META
350
2D
  0
DICTIONARY
  5
B
330
A
100
AcDbDictionary
281
1
  0
DICTIONARY
  5
C
330
A
100
AcDbDictionary
281
1
  0
DICTIONARY
  5
D
330
A
100
AcDbDictionary
281
1
  3
Model
350
1A
  3
Layout1
350
1E
  0
DICTIONARY
  5
E
330
A
100
AcDbDictionary
281
1
  3
ByBlock
350
1F
  3
ByLayer
350
20
  3
Global
350
21
  0
DICTIONARY
  5
F
330
A
100
AcDbDictionary
281
1
  3
Standard
350
2C
  0
DICTIONARY
  5
10
330
A
100
AcDbDictionary
281
1
  3
Standard
350
22
  0
DICTIONARY
  5
11
330
A
100
AcDbDictionary
281
1
  0
ACDBDICTIONARYWDFLT
  5
12
330
A
100
AcDbDictionary
281
1
  3
Normal
350
13
100
AcDbDictionaryWithDefault
340
13
  0
ACDBPLACEHOLDER
  5
13
330
12
  0
DICTIONARY
  5
14
330
A
100
AcDbDictionary
281
1
  0
DICTIONARY
  5
15
330
A
100
AcDbDictionary
281
1
  0
DICTIONARY
  5
16
330
A
100
AcDbDictionary
281
1
  0
LAYOUT
  5
1A
330
D
100
AcDbPlotSettings
  1

  4
A3
  6

 40
7.5
 41
20.0
 42
7.5
 43
20.0
 44
420.0
 45
297.0
 46
0.0
 47
0.0
 48
0.0
 49
0.0
140
0.0
141
0.0
142
1.0
143
1.0
 70
1024
 72
1
 73
0
 74
5
  7

 75
16
 76
0
 77
2
 78
300
147
1.0
148
0.0
149
0.0
100
AcDbLayout
  1
Model
 70
1
 71
0
 10
0.0
 20
0.0
 11
420.0
 21
297.0
 12
0.0
 22
0.0
 32
0.0
 14
1e+20
 24
1e+20
 34
1e+20
 15
-1e+20
 25
-1e+20
 35
-1e+20
146
0.0
 13
0.0
 23
0.0
 33
0.0
 16
1.0
 26
0.0
 36
0.0
 17
0.0
 27
1.0
 37
0.0
 76
1
330
17
  0
LAYOUT
  5
1E
330
D
100
AcDbPlotSettings
  1

  4
A3
  6

 40
7.5
 41
20.0
 42
7.5
 43
20.0
 44
420.0
 45
297.0
 46
0.0
 47
0.0
 48
0.0
 49
0.0
140
0.0
141
0.0
142
1.0
143
1.0
 70
0
 72
1
 73
0
 74
5
  7

 75
16
 76
0
 77
2
 78
300
147
1.0
148
0.0
149
0.0
100
AcDbLayout
  1
Layout1
 70
1
 71
1
 10
0.0
 20
0.0
 11
420.0
 21
297.0
 12
0.0
 22
0.0
 32
0.0
 14
1e+20
 24
1e+20
 34
1e+20
 15
-1e+20
 25
-1e+20
 35
-1e+20
146
0.0
 13
0.0
 23
0.0
 33
0.0
 16
1.0
 26
0.0
 36
0.0
 17
0.0
 27
1.0
 37
0.0
 76
1
330
1B
  0
MATERIAL
  5
1F
102
{ACAD_REACTORS
330
E
102
}
330
E
100
AcDbMaterial
  1
ByBlock
  2

 70
0
 40
1.0
 71
1
 41
1.0
 91
-1023410177
 42
1.0
 72
1
  3

 73
1
 74
1
 75
1
 44
0.5
 73
0
 45
1.0
 46
1.0
 77
1
  4

 78
1
 79
1
170
1
 48
1.0
171
1
  6

172
1
173
1
174
1
140
1.0
141
1.0
175
1
  7

176
1
177
1
178
1
143
1.0
179
1
  8

270
1
271
1
272
1
145
1.0
146
1.0
273
1
  9

274
1
275
1
276
1
 42
1.0
 72
1
  3

 73
1
 74
1
 75
1
 94
63
  0
MATERIAL
  5
20
102
{ACAD_REACTORS
330
E
102
}
330
E
100
AcDbMaterial
  1
ByLayer
  2

 70
0
 40
1.0
 71
1
 41
1.0
 91
-1023410177
 42
1.0
 72
1
  3

 73
1
 74
1
 75
1
 44
0.5
 73
0
 45
1.0
 46
1.0
 77
1
  4

 78
1
 79
1
170
1
 48
1.0
171
1
  6

172
1
173
1
174
1
140
1.0
141
1.0
175
1
  7

176
1
177
1
178
1
143
1.0
179
1
  8

270
1
271
1
272
1
145
1.0
146
1.0
273
1
  9

274
1
275
1
276
1
 42
1.0
 72
1
  3

 73
1
 74
1
 75
1
 94
63
  0
MATERIAL
  5
21
102
{ACAD_REACTORS
330
E
102
}
330
E
100
AcDbMaterial
  1
Global
  2

 70
0
 40
1.0
 71
1
 41
1.0
 91
-1023410177
 42
1.0
 72
1
  3

 73
1
 74
1
 75
1
 44
0.5
 73
0
 45
1.0
 46
1.0
 77
1
  4

 78
1
 79
1
170
1
 48
1.0
171
1
  6

172
1
173
1
174
1
140
1.0
141
1.0
175
1
  7

176
1
177
1
178
1
143
1.0
179
1
  8

270
1
271
1
272
1
145
1.0
146
1.0
273
1
  9

274
1
275
1
276
1
 42
1.0
 72
1
  3

 73
1
 74
1
 75
1
 94
63
  0
MLINESTYLE
  5
22
102
{ACAD_REACTORS
330
10
102
}
330
10
100
AcDbMlineStyle
  2
Standard
 70
0
  3

 62
256
 51
90.0
 52
90.0
 71
2
 49
0.5
 62
256
  6
BYLAYER
 49
-0.5
 62
256
  6
BYLAYER
  0
MLEADERSTYLE
  5
2C
102
{ACAD_REACTORS
330
F
102
}
330
F
100
AcDbMLeaderStyle
179
2
170
2
171
1
172
0
 90
2
 40
0.0
 41
0.0
173
1
 91
-1056964608
 92
-2
290
1
 42
2.0
291
1
 43
8.0
  3
Standard
 44
4.0
300

342
29
174
1
175
1
176
0
178
1
 93
-1056964608
 45
4.0
292
0
297
0
 46
4.0
 94
-1056964608
 47
1.0
 49
1.0
140
1.0
294
1
141
0.0
177
0
142
1.0
295
0
296
0
143
3.75
271
0
272
9
273
9
  0
DICTIONARY
  5
2D
330
A
100
AcDbDictionary
280
1
281
1
  3
CREATED_BY_EZDXF
350
2E
  3
WRITTEN_BY_EZDXF
350
3A
  0
DICTIONARYVAR
  5
2E
330
2D
100
DictionaryVariables
280
0
  1
1.4.4 @ 2026-10-05T20:41:45.200120+00:00
  0
DICTIONARYVAR
  5
3A
330
2D
100
DictionaryVariables
280
0
  1
1.4.4 @ 2026-10-05T20:41:45.203074+00:00
  0
ENDSEC
  0
EOF
