  0
SECTION
  2
HEADER
  9
$ACADVER
  1
AC1024
  9
$ACADMAINTVER
 70
6
  9
$DWGCODEPAGE
  3
ANSI_1252
  9
$LASTSAVEDBY
  1
ezdxf
  9
$INSBASE
 10
0.0
 20
0.0
 30
0.0
  9
$EXTMIN
 10
1e+20
 20
1e+20
 30
1e+20
  9
$EXTMAX
 10
-1e+20
 20
-1e+20
 30
-1e+20
  9
$LIMMIN
 10
0.0
 20
0.0
  9
$LIMMAX
 10
420.0
 20
297.0
  9
$ORTHOMODE
 70
0
  9
$REGENMODE
 70
1
  9
$FILLMODE
 70
1
  9
$QTEXTMODE
 70
0
  9
$MIRRTEXT
 70
1
  9
$LTSCALE
 40
1.0
  9
$ATTMODE
 70
1
  9
$TEXTSIZE
 40
2.5
  9
$TRACEWID
 40
1.0
  9
$TEXTSTYLE
  7
Standard
  9
$CLAYER
  8
0
  9
$CELTYPE
  6
ByLayer
  9
$CECOLOR
 62
256
  9
$CELTSCALE
 40
1.0
  9
$DISPSILH
 70
0
  9
$DIMSCALE
 40
1.0
  9
$DIMASZ
 40
2.5
  9
$DIMEXO
 40
0.625
  9
$DIMDLI
 40
3.75
  9
$DIMRND
 40
0.0
  9
$DIMDLE
 40
0.0
  9
$DIMEXE
 40
1.25
  9
$DIMTP
 40
0.0
  9
$DIMTM
 40
0.0
  9
$DIMTXT
 40
2.5
  9
$DIMCEN
 40
2.5
  9
$DIMTSZ
 40
0.0
  9
$DIMTOL
 70
0
  9
$DIMLIM
 70
0
  9
$DIMTIH
 70
0
  9
$DIMTOH
 70
0
  9
$DIMSE1
 70
0
  9
$DIMSE2
 70
0
  9
$DIMTAD
 70
1
  9
$DIMZIN
 70
8
  9
$DIMBLK
  1

  9
$DIMASO
 70
1
  9
$DIMSHO
 70
1
  9
$DIMPOST
  1

  9
$DIMAPOST
  1

  9
$DIMALT
 70
0
  9
$DIMALTD
 70
3
  9
$DIMALTF
 40
0.03937007874
  9
$DIMLFAC
 40
1.0
  9
$DIMTOFL
 70
1
  9
$DIMTVP
 40
0.0
  9
$DIMTIX
 70
0
  9
$DIMSOXD
 70
0
  9
$DIMSAH
 70
0
  9
$DIMBLK1
  1

  9
$DIMBLK2
  1

  9
$DIMSTYLE
  2
ISO-25
  9
$DIMCLRD
 70
0
  9
$DIMCLRE
 70
0
  9
$DIMCLRT
 70
0
  9
$DIMTFAC
 40
1.0
  9
$DIMGAP
 40
0.625
  9
$DIMJUST
 70
0
  9
$DIMSD1
 70
0
  9
$DIMSD2
 70
0
  9
$DIMTOLJ
 70
0
  9
$DIMTZIN
 70
8
  9
$DIMALTZ
 70
0
  9
$DIMALTTZ
 70
0
  9
$DIMUPT
 70
0
  9
$DIMDEC
 70
2
  9
$DIMTDEC
 70
2
  9
$DIMALTU
 70
2
  9
$DIMALTTD
 70
3
  9
$DIMTXSTY
  7
Standard
  9
$DIMAUNIT
 70
0
  9
$DIMADEC
 70
0
  9
$DIMALTRND
 40
0.0
  9
$DIMAZIN
 70
0
  9
$DIMDSEP
 70
44
  9
$DIMATFIT
 70
3
  9
$DIMFRAC
 70
0
  9
$DIMLDRBLK
  1

  9
$DIMLUNIT
 70
2
  9
$DIMLWD
 70
-2
  9
$DIMLWE
 70
-2
  9
$DIMTMOVE
 70
0
  9
$DIMFXL
 40
1.0
  9
$DIMFXLON
 70
0
  9
$DIMJOGANG
 40
0.785398163397
  9
$DIMTFILL
 70
0
  9
$DIMTFILLCLR
 70
0
  9
$DIMARCSYM
 70
0
  9
$DIMLTYPE
  6

  9
$DIMLTEX1
  6

  9
$DIMLTEX2
  6

  9
$DIMTXTDIRECTION
 70
0
  9
$LUNITS
 70
2
  9
$LUPREC
 70
4
  9
$SKETCHINC
 40
1.0
  9
$FILLETRAD
 40
10.0
  9
$AUNITS
 70
0
  9
$AUPREC
 70
2
  9
$MENU
  1
.
  9
$ELEVATION
 40
0.0
  9
$PELEVATION
 40
0.0
  9
$THICKNESS
 40
0.0
  9
$LIMCHECK
 70
0
  9
$CHAMFERA
 40
0.0
  9
$CHAMFERB
 40
0.0
  9
$CHAMFERC
 40
0.0
  9
$CHAMFERD
 40
0.0
  9
$SKPOLY
 70
0
  9
$TDCREATE
 40
2461296.5696875
  9
$TDUCREATE
 40
2458532.153996898
  9
$TDUPDATE
 40
2461296.5696875
  9
$TDUUPDATE
 40
2458532.1544311
  9
$TDINDWG
 40
0.0
  9
$TDUSRTIMER
 40
0.0
  9
$USRTIMER
 70
1
  9
$ANGBASE
 50
0.0
  9
$ANGDIR
 70
0
  9
$PDMODE
 70
0
  9
$PDSIZE
 40
0.0
  9
$PLINEWID
 40
0.0
  9
$SPLFRAME
 70
0
  9
$SPLINETYPE
 70
6
  9
$SPLINESEGS
 70
8
  9
$HANDSEED
  5
58
  9
$SURFTAB1
 70
6
  9
$SURFTAB2
 70
6
  9
$SURFTYPE
 70
6
  9
$SURFU
 70
6
  9
$SURFV
 70
6
  9
$UCSBASE
  2

  9
$UCSNAME
  2

  9
$UCSORG
 10
0.0
 20
0.0
 30
0.0
  9
$UCSXDIR
 10
1.0
 20
0.0
 30
0.0
  9
$UCSYDIR
 10
0.0
 20
1.0
 30
0.0
  9
$UCSORTHOREF
  2

  9
$UCSORTHOVIEW
 70
0
  9
$UCSORGTOP
 10
0.0
 20
0.0
 30
0.0
  9
$UCSORGBOTTOM
 10
0.0
 20
0.0
 30
0.0
  9
$UCSORGLEFT
 10
0.0
 20
0.0
 30
0.0
  9
$UCSORGRIGHT
 10
0.0
 20
0.0
 30
0.0
  9
$UCSORGFRONT
 10
0.0
 20
0.0
 30
0.0
  9
$UCSORGBACK
 10
0.0
 20
0.0
 30
0.0
  9
$PUCSBASE
  2

  9
$PUCSNAME
  2

  9
$PUCSORG
 10
0.0
 20
0.0
 30
0.0
  9
$PUCSXDIR
 10
1.0
 20
0.0
 30
0.0
  9
$PUCSYDIR
 10
0.0
 20
1.0
 30
0.0
  9
$PUCSORTHOREF
  2

  9
$PUCSORTHOVIEW
 70
0
  9
$PUCSORGTOP
 10
0.0
 20
0.0
 30
0.0
  9
$PUCSORGBOTTOM
 10
0.0
 20
0.0
 30
0.0
  9
$PUCSORGLEFT
 10
0.0
 20
0.0
 30
0.0
  9
$PUCSORGRIGHT
 10
0.0
 20
0.0
 30
0.0
  9
$PUCSORGFRONT
 10
0.0
 20
0.0
 30
0.0
  9
$PUCSORGBACK
 10
0.0
 20
0.0
 30
0.0
  9
$USERI1
 70
0
  9
$USERI2
 70
0
  9
$USERI3
 70
0
  9
$USERI4
 70
0
  9
$USERI5
 70
0
  9
$USERR1
 40
0.0
  9
$USERR2
 40
0.0
  9
$USERR3
 40
0.0
  9
$USERR4
 40
0.0
  9
$USERR5
 40
0.0
  9
$WORLDVIEW
 70
1
  9
$SHADEDGE
 70
3
  9
$SHADEDIF
 70
70
  9
$TILEMODE
 70
1
  9
$MAXACTVP
 70
64
  9
$PINSBASE
 10
0.0
 20
0.0
 30
0.0
  9
$PLIMCHECK
 70
0
  9
$PEXTMIN
 10
1e+20
 20
1e+20
 30
1e+20
  9
$PEXTMAX
 10
-1e+20
 20
-1e+20
 30
-1e+20
  9
$PLIMMIN
 10
0.0
 20
0.0
  9
$PLIMMAX
 10
420.0
 20
297.0
  9
$UNITMODE
 70
0
  9
$VISRETAIN
 70
1
  9
$PLINEGEN
 70
0
  9
$PSLTSCALE
 70
1
  9
$TREEDEPTH
 70
3020
  9
$CMLSTYLE
  2
Standard
  9
$CMLJUST
 70
0
  9
$CMLSCALE
 40
20.0
  9
$PROXYGRAPHICS
 70
1
  9
$MEASUREMENT
 70
1
  9
$CELWEIGHT
370
-1
  9
$ENDCAPS
280
0
  9
$JOINSTYLE
280
0
  9
$LWDISPLAY
290
0
  9
$INSUNITS
 70
4
  9
$HYPERLINKBASE
  1

  9
$STYLESHEET
  1

  9
$XEDIT
290
1
  9
$CEPSNTYPE
380
0
  9
$PSTYLEMODE
290
1
  9
$FINGERPRINTGUID
  2
{56D287AB-9AAA-460C-8CE5-C64FB3073A9A}
  9
$VERSIONGUID
  2
{613F4C53-F4B0-47B4-963E-7D475878910E}
  9
$EXTNAMES
290
1
  9
$PSVPSCALE
 40
0.0
  9
$OLESTARTUP
290
0
  9
$SORTENTS
280
127
  9
$INDEXCTL
280
0
  9
$HIDETEXT
280
1
  9
$XCLIPFRAME
280
1
  9
$HALOGAP
280
0
  9
$OBSCOLOR
 70
257
  9
$OBSLTYPE
280
0
  9
$INTERSECTIONDISPLAY
280
0
  9
$INTERSECTIONCOLOR
 70
257
  9
$DIMASSOC
280
2
  9
$PROJECTNAME
  1

  9
$CAMERADISPLAY
290
0
  9
$LENSLENGTH
 40
50.0
  9
$CAMERAHEIGHT
 40
0.0
  9
$STEPSPERSEC
 40
24.0
  9
$STEPSIZE
 40
100.0
  9
$3DDWFPREC
 40
2.0
  9
$PSOLWIDTH
 40
0.005
  9
$PSOLHEIGHT
 40
0.08
  9
$LOFTANG1
 40
1.570796326795
  9
$LOFTANG2
 40
1.570796326795
  9
$LOFTMAG1
 40
0.0
  9
$LOFTMAG2
 40
0.0
  9
$LOFTPARAM
 70
7
  9
$LOFTNORMALS
280
1
  9
$LATITUDE
 40
37.795
  9
$LONGITUDE
 40
-122.394
  9
$NORTHDIRECTION
 40
0.0
  9
$TIMEZONE
 70
-8000
  9
$LIGHTGLYPHDISPLAY
280
1
  9
$TILEMODELIGHTSYNCH
280
1
  9
$CMATERIAL
347
20
  9
$SOLIDHIST
280
0
  9
$SHOWHIST
280
1
  9
$DWFFRAME
280
2
  9
$DGNFRAME
280
2
  9
$REALWORLDSCALE
290
1
  9
$INTERFERECOLOR
 62
256
  9
$CSHADOW
280
0
  9
$SHADOWPLANELOCATION
 40
0.0
  0
ENDSEC
  0
SECTION
  2
CLASSES
  0
CLASS
  1
ACDBDICTIONARYWDFLT
  2
AcDbDictionaryWithDefault
  3
ObjectDBX Classes
 90
0
 91
0
280
0
281
0
  0
CLASS
  1
SUN
  2
AcDbSun
  3
SCENEOE
 90
1153
 91
0
280
0
281
0
  0
CLASS
  1
VISUALSTYLE
  2
AcDbVisualStyle
  3
ObjectDBX Classes
 90
4095
 91
0
280
0
281
0
  0
CLASS
  1
MATERIAL
  2
AcDbMaterial
  3
ObjectDBX Classes
 90
1153
 91
0
280
0
281
0
  0
CLASS
  1
SCALE
  2
AcDbScale
  3
ObjectDBX Classes
 90
1153
 91
0
280
0
281
0
  0
CLASS
  1
TABLESTYLE
  2
AcDbTableStyle
  3
ObjectDBX Classes
 90
4095
 91
0
280
0
281
0
  0
CLASS
  1
MLEADERSTYLE
  2
AcDbMLeaderStyle
  3
ACDB_MLEADERSTYLE_CLASS
 90
4095
 91
0
280
0
281
0
  0
CLASS
  1
DICTIONARYVAR
  2
AcDbDictionaryVar
  3
ObjectDBX Classes
 90
0
 91
0
280
0
281
0
  0
CLASS
  1
CELLSTYLEMAP
  2
AcDbCellStyleMap
  3
ObjectDBX Classes
 90
1152
 91
0
280
0
281
0
  0
CLASS
  1
MENTALRAYRENDERSETTINGS
  2
AcDbMentalRayRenderSettings
  3
SCENEOE
 90
1024
 91
0
280
0
281
0
  0
CLASS
  1
ACDBDETAILVIEWSTYLE
  2
AcDbDetailViewStyle
  3
ObjectDBX Classes
 90
1025
 91
0
280
0
281
0
  0
CLASS
  1
ACDBSECTIONVIEWSTYLE
  2
AcDbSectionViewStyle
  3
ObjectDBX Classes
 90
1025
 91
0
280
0
281
0
  0
CLASS
  1
RASTERVARIABLES
  2
AcDbRasterVariables
  3
ISM
 90
0
 91
0
280
0
281
0
  0
CLASS
  1
ACDBPLACEHOLDER
  2
AcDbPlaceHolder
  3
ObjectDBX Classes
 90
0
 91
0
280
0
281
0
  0
CLASS
  1
LAYOUT
  2
AcDbLayout
  3
ObjectDBX Classes
 90
0
 91
0
280
0
281
0
  0
ENDSEC
  0
SECTION
  2
TABLES
  0
TABLE
  2
VPORT
  5
8
330
0
100
AcDbSymbolTable
 70
1
  0
VPORT
  5
23
330
8
100
AcDbSymbolTableRecord
100
AcDbViewportTableRecord
  2
*Active
 70
0
 10
0.0
 20
0.0
 11
1.0
 21
1.0
 12
0.0
 22
0.0
 13
0.0
 23
0.0
 14
0.5
 24
0.5
 15
0.5
 25
0.5
 16
0.0
 26
0.0
 36
1.0
 17
0.0
 27
0.0
 37
0.0
 40
1000.0
 41
1.34
 42
50.0
 43
0.0
 44
0.0
 50
0.0
 51
0.0
 71
0
 72
1000
 73
1
 74
3
 75
0
 76
0
 77
0
 78
0
281
0
 65
0
146
0.0
  0
ENDTAB
  0
TABLE
  2
LTYPE
  5
2
330
0
100
AcDbSymbolTable
 70
3
  0
LTYPE
  5
24
330
2
100
AcDbSymbolTableRecord
100
AcDbLinetypeTableRecord
  2
ByBlock
 70
0
  3

 72
65
 73
0
 40
0.0
  0
LTYPE
  5
25
330
2
100
AcDbSymbolTableRecord
100
AcDbLinetypeTableRecord
  2
ByLayer
 70
0
  3

 72
65
 73
0
 40
0.0
  0
LTYPE
  5
26
330
2
100
AcDbSymbolTableRecord
100
AcDbLinetypeTableRecord
  2
Continuous
 70
0
  3

 72
65
 73
0
 40
0.0
  0
ENDTAB
  0
TABLE
  2
LAYER
  5
1
330
0
100
AcDbSymbolTable
 70
5
  0
LAYER
  5
27
330
1
100
AcDbSymbolTableRecord
100
AcDbLayerTableRecord
  2
0
 70
0
 62
7
  6
Continuous
370
-3
390
13
347
21
  0
LAYER
  5
28
330
1
100
AcDbSymbolTableRecord
100
AcDbLayerTableRecord
  2
Defpoints
 70
0
 62
7
  6
Continuous
290
0
370
-3
390
13
347
21
  0
LAYER
  5
2F
330
1
100
AcDbSymbolTableRecord
100
AcDbLayerTableRecord
  2
PLATE_OUTLINE
 70
0
 62
7
  6
Continuous
370
-3
390
13
347
21
  0
LAYER
  5
30
330
1
100
AcDbSymbolTableRecord
100
AcDbLayerTableRecord
  2
SWITCH_CUTOUTS
 70
0
 62
3
  6
Continuous
370
-3
390
13
347
21
  0
LAYER
  5
31
330
1
100
AcDbSymbolTableRecord
100
AcDbLayerTableRecord
  2
STAB_CLEARANCE
 70
0
 62
1
  6
Continuous
370
-3
390
13
347
21
  0
ENDTAB
  0
TABLE
  2
STYLE
  5
5
330
0
100
AcDbSymbolTable
 70
1
  0
STYLE
  5
29
330
5
100
AcDbSymbolTableRecord
100
AcDbTextStyleTableRecord
  2
Standard
 70
0
 40
0.0
 41
1.0
 50
0.0
 71
0
 42
2.5
  3
txt
  4

  0
ENDTAB
  0
TABLE
  2
VIEW
  5
7
330
0
100
AcDbSymbolTable
 70
0
  0
ENDTAB
  0
TABLE
  2
UCS
  5
6
330
0
100
AcDbSymbolTable
 70
0
  0
ENDTAB
  0
TABLE
  2
APPID
  5
3
330
0
100
AcDbSymbolTable
 70
3
  0
APPID
  5
2A
330
3
100
AcDbSymbolTableRecord
100
AcDbRegAppTableRecord
  2
ACAD
 70
0
  0
APPID
  5
55
330
3
100
AcDbSymbolTableRecord
100
AcDbRegAppTableRecord
  2
HATCHBACKGROUNDCOLOR
 70
0
  0
APPID
  5
56
330
3
100
AcDbSymbolTableRecord
100
AcDbRegAppTableRecord
  2
EZDXF
 70
0
  0
ENDTAB
  0
TABLE
  2
DIMSTYLE
  5
4
330
0
100
AcDbSymbolTable
 70
1
100
AcDbDimStyleTable
  0
DIMSTYLE
105
2B
330
4
100
AcDbSymbolTableRecord
100
AcDbDimStyleTableRecord
  2
Standard
 70
0
 40
1.0
 41
2.5
 42
0.625
 43
3.75
 44
1.25
 45
0.0
 46
0.0
 47
0.0
 48
0.0
 49
2.5
140
2.5
141
2.5
142
0.0
143
0.03937007874
144
1.0
145
0.0
146
1.0
147
0.625
148
0.0
 69
0
 70
0
 71
0
 72
0
 73
0
 74
0
 75
0
 76
0
 77
1
 78
8
 79
3
170
0
171
3
172
1
173
0
174
0
175
0
176
0
177
0
178
0
179
2
271
2
272
2
273
2
274
3
275
0
276
0
277
2
278
44
279
0
280
0
281
0
282
0
283
0
284
8
285
0
286
0
288
0
289
3
290
0
371
-2
372
-2
  0
ENDTAB
  0
TABLE
  2
BLOCK_RECORD
  5
9
330
0
100
AcDbSymbolTable
 70
2
  0
BLOCK_RECORD
  5
17
330
9
100
AcDbSymbolTableRecord
100
AcDbBlockTableRecord
  2
*Model_Space
340
1A
 70
0
280
1
281
0
  0
BLOCK_RECORD
  5
1B
330
9
100
AcDbSymbolTableRecord
100
AcDbBlockTableRecord
  2
*Paper_Space
340
1E
 70
0
280
1
281
0
  0
ENDTAB
  0
ENDSEC
  0
SECTION
  2
BLOCKS
  0
BLOCK
  5
18
330
17
100
AcDbEntity
  8
0
100
AcDbBlockBegin
  2
*Model_Space
 70
0
 10
0.0
 20
0.0
 30
0.0
  3
*Model_Space
  1

  0
ENDBLK
  5
19
330
17
100
AcDbEntity
  8
0
100
AcDbBlockEnd
  0
BLOCK
  5
1C
330
1B
100
AcDbEntity
  8
0
100
AcDbBlockBegin
  2
*Paper_Space
 70
0
 10
0.0
 20
0.0
 30
0.0
  3
*Paper_Space
  1

  0
ENDBLK
  5
1D
330
1B
100
AcDbEntity
  8
0
100
AcDbBlockEnd
  0
ENDSEC
  0
SECTION
  2
ENTITIES
  0
LWPOLYLINE
  5
32
330
17
100
AcDbEntity
  8
PLATE_OUTLINE
100
AcDbPolyline
 90
394
 70
1
 10
149.31461040967906
 20
25.631720864445874
 10
149.22736485206806
 20
25.674292368495532
 10
149.1446582820222
 20
25.72512290608027
 10
149.06727013620554
 20
25.783733444099997
 10
148.99592972981247
 20
25.849571629794752
 10
148.9313093834137
 20
25.92201699618353
 10
148.87401808692616
 20
26.000386809419762
 10
148.824595760419
 20
26.0839425029572
 10
148.78350816584165
 20
26.171896637889873
 10
148.75114251762753
 20
26.26342032387106
 10
148.72780383353827
 20
26.357651030675616
 10
148.71371206013995
 20
26.453700716788557
 10
148.709
 20
26.550664198415102
 10
148.709
 20
35.81657543937843
 10
148.71371206013995
 20
35.91353892100498
 10
148.72780383353827
 20
36.00958860711791
 10
148.75114251762753
 20
36.10381931392247
 10
148.78350816584165
 20
36.19534299990365
 10
148.82459576041896
 20
36.283297134836324
 10
148.87401808692616
 20
36.36685282837376
 10
148.93130938341366
 20
36.445222641609995
 10
148.99592972981245
 20
36.51766800799877
 10
149.0672701362055
 20
36.58350619369352
 10
149.1446582820222
 20
36.64211673171325
 10
149.22736485206804
 20
36.69294726929799
 10
149.31461040967903
 20
36.73551877334765
 10
149.3715844216875
 20
36.759970724218114
 10
149.45404027209125
 20
36.79113124873031
 10
149.72773036088893
 20
36.88098792304525
 10
149.7780681505356
 20
36.89606153985118
 10
150.11833045274722
 20
36.9882842062181
 10
150.1474372739106
 20
36.995705725813536
 10
150.5326351156855
 20
37.08778304775132
 10
151.37532352518085
 20
37.277104915301535
 10
151.77786771251738
 20
37.37328008891594
 10
151.79242030229756
 20
37.37699063942957
 10
152.1526175283299
 20
37.47461634873313
 10
152.1777820782778
 20
37.48215185606611
 10
152.48492755133188
 20
37.58299244865303
 10
152.5261354358939
 20
37.59856513743987
 10
152.6866845741182
 20
37.667469178102714
 10
152.70785652073886
 20
37.67780003775884
 10
152.709
 20
37.70133024048017
 10
152.709
 20
63.18933385800911
 10
152.70785652073886
 20
63.21286406073043
 10
152.68668457411835
 20
63.223194920386504
 10
152.52613543589382
 20
63.29209896104944
 10
152.48492755133196
 20
63.307671649836195
 10
152.17778207827794
 20
63.4085122424231
 10
152.1526175283299
 20
63.416047749756125
 10
151.79242030229756
 20
63.51367345905969
 10
151.77786771251692
 20
63.51738400957343
 10
151.3753235251808
 20
63.613559183187725
 10
150.53263511568565
 20
63.80288105073792
 10
150.14743727391044
 20
63.89495837267576
 10
150.11833045274693
 20
63.90237989227122
 10
149.7780681505357
 20
63.99460255863804
 10
149.72773036088904
 20
64.00967617544399
 10
149.4540402720912
 20
64.09953284975899
 10
149.3715844216874
 20
64.13069337427119
 10
149.314610409679
 20
64.15514532514163
 10
149.227364852068
 20
64.19771682919128
 10
149.14465828202216
 20
64.24854736677602
 10
149.0672701362055
 20
64.30715790479576
 10
148.99592972981245
 20
64.3729960904905
 10
148.93130938341366
 20
64.44544145687928
 10
148.87401808692613
 20
64.52381127011552
 10
148.82459576041896
 20
64.60736696365295
 10
148.78350816584165
 20
64.69532109858562
 10
148.75114251762753
 20
64.7868447845668
 10
148.72780383353827
 20
64.88107549137135
 10
148.71371206013995
 20
64.97712517748428
 10
148.709
 20
65.07408865911083
 10
148.709
 20
74.33999990007418
 10
148.71371206013995
 20
74.43696338170072
 10
148.72780383353827
 20
74.53301306781366
 10
148.75114251762753
 20
74.62724377461821
 10
148.78350816584165
 20
74.7187674605994
 10
148.82459576041896
 20
74.80672159553207
 10
148.87401808692613
 20
74.8902772890695
 10
148.93130938341366
 20
74.96864710230574
 10
148.99592972981245
 20
75.04109246869452
 10
149.0672701362055
 20
75.10693065438926
 10
149.1446582820222
 20
75.165541192409
 10
149.22736485206804
 20
75.21637172999374
 10
149.31461040967903
 20
75.25894323404339
 10
149.3715844216874
 20
75.28339518491381
 10
149.4540402720912
 20
75.31455570942602
 10
149.72773036088907
 20
75.40441238374102
 10
149.77806815053572
 20
75.41948600054695
 10
150.118330452747
 20
75.51170866691378
 10
150.1474372739104
 20
75.51913018650922
 10
150.5326351156856
 20
75.61120750844707
 10
151.37532352517988
 20
75.80052937599706
 10
151.7778677125172
 20
75.89670454961161
 10
151.79242030229796
 20
75.90041510012539
 10
152.1526175283297
 20
75.99804080942879
 10
152.17778207827797
 20
76.00557631676187
 10
152.48492755133188
 20
76.10641690934877
 10
152.52613543589385
 20
76.12198959813557
 10
152.68668457411823
 20
76.19089363879846
 10
152.70785652073886
 20
76.20122449845456
 10
152.709
 20
76.2247547011759
 10
152.709
 20
102.0410271360909
 10
152.7138152733278
 20
102.13904427642046
 10
152.72821471959676
 20
102.23611745810703
 10
152.7520596642678
 20
102.33131181334537
 10
152.78512046748872
 20
102.42371056845599
 10
152.82707873565164
 20
102.5124238729169
 10
152.87753038769745
 20
102.59659736911051
 10
152.93598954663727
 20
102.67542042025455
 10
153.00189321881345
 20
102.74813391727746
 10
153.07460671583635
 20
102.81403758945365
 10
153.1534297669804
 20
102.87249674839344
 10
153.237603263174
 20
102.92294840043925
 10
153.3263165676349
 20
102.9649066686022
 10
153.41871532274553
 20
102.99796747182312
 10
153.51390967798386
 20
103.02181241649413
 10
153.61098285967043
 20
103.0362118627631
 10
153.709
 20
103.0410271360909
 10
153.87474715377533
 20
103.0410271360909
 10
153.89826060273074
 20
103.04217775265488
 10
153.9067844810025
 20
103.07547375678898
 10
153.91127655391966
 20
103.09758964229115
 10
153.93896716678753
 20
103.18855116206056
 10
153.97517171783488
 20
103.27647157267847
 10
154.01956289011082
 20
103.36055600609947
 10
154.0717393533202
 20
103.44004427445851
 10
154.13122939215785
 20
103.51421774275315
 10
154.19749517097722
 20
103.58240582585587
 10
154.26993759623772
 20
103.64399205111881
 10
154.34790173277054
 20
103.69841963176002
 10
154.43068272489563
 20
103.74519650064356
 10
154.51753216885842
 20
103.78389975894453
 10
154.6076648789748
 20
103.81417949947912
 10
154.70026598631253
 20
103.83576197013444
 10
154.79449830573253
 20
103.84845204879787
 10
154.8895099046856
 20
103.85213500741074
 10
154.98444180533687
 20
103.84677754919828
 10
199.87774302512486
 20
99.16394714103468
 10
199.91409112541402
 20
99.16149052627527
 10
232.5962725242763
 20
98.1469728981636
 10
232.62072842670358
 20
98.1474145086321
 10
232.6327799192735
 20
98.14882159902139
 10
232.70871216522838
 20
98.16138633832368
 10
232.80930456248117
 20
98.1677473123537
 10
240.66113699344737
 20
98.2677303957441
 10
240.74108353430557
 20
98.26555005217764
 10
240.82060016173406
 20
98.25698796974066
 10
240.8596182083252
 20
98.25120018926775
 10
240.884048622109
 20
98.24999999999999
 10
307.75225
 20
98.24999999999999
 10
307.85026714032955
 20
98.24518472667218
 10
307.94734032201615
 20
98.23078528040321
 10
308.0425346772545
 20
98.2069403357322
 10
308.1349334323651
 20
98.17387953251128
 10
308.223646736826
 20
98.13192126434834
 10
308.3078202330196
 20
98.08146961230253
 10
308.38664328416365
 20
98.02301045336273
 10
308.45935678118656
 20
97.95710678118654
 10
308.52526045336276
 20
97.88439328416364
 10
308.58371961230256
 20
97.8055702330196
 10
308.63417126434837
 20
97.72139673682598
 10
308.6761295325113
 20
97.63268343236507
 10
308.7091903357322
 20
97.54028467725445
 10
308.7330352804032
 20
97.44509032201611
 10
308.7474347266722
 20
97.34801714032955
 10
308.75225
 20
97.24999999999999
 10
308.75225
 20
74.08456445335933
 10
308.75339347926115
 20
74.06103425063813
 10
308.77456542588163
 20
74.05070339098211
 10
308.9351145641062
 20
73.98179935031914
 10
308.97632244866816
 20
73.96622666153233
 10
309.28346792172226
 20
73.8653860689454
 10
309.3086324716703
 20
73.85785056161238
 10
309.6688296977012
 20
73.76022485230921
 10
309.6833822874834
 20
73.75651430179505
 10
310.08592647481936
 20
73.66033912818081
 10
310.92861488431413
 20
73.47101726063073
 10
311.3138127260901
 20
73.37893993869268
 10
311.34291954725353
 20
73.37151841909723
 10
311.6831818494643
 20
73.27929575273053
 10
311.73351963911085
 20
73.26422213592463
 10
312.0072097279087
 20
73.17436546160965
 10
312.0896655783124
 20
73.14320493709748
 10
312.1466395903209
 20
73.11875298622701
 10
312.2338851479319
 20
73.07618148217736
 10
312.31659171797776
 20
73.02535094459262
 10
312.3939798637944
 20
72.9667404065729
 10
312.46532027018753
 20
72.90090222087814
 10
312.5299406165863
 20
72.82845685448936
 10
312.5872319130738
 20
72.75008704125312
 10
312.63665423958105
 20
72.66653134771568
 10
312.6777418341583
 20
72.578577212783
 10
312.71010748237245
 20
72.48705352680182
 10
312.7334461664617
 20
72.39282281999725
 10
312.74753793986
 20
72.2967731338843
 10
312.75225
 20
72.19980965225776
 10
312.75225
 20
62.93389841129443
 10
312.74753793986
 20
62.836934929667876
 10
312.7334461664617
 20
62.740885243554935
 10
312.71010748237245
 20
62.646654536750376
 10
312.6777418341583
 20
62.55513085076918
 10
312.63665423958105
 20
62.4671767158365
 10
312.5872319130738
 20
62.38362102229907
 10
312.5299406165863
 20
62.30525120906283
 10
312.46532027018753
 20
62.232805842674054
 10
312.3939798637944
 20
62.166967656979295
 10
312.31659171797776
 20
62.10835711895957
 10
312.2338851479319
 20
62.05752658137483
 10
312.1466395903209
 20
62.01495507732519
 10
312.0896655783123
 20
61.99050312645467
 10
312.0072097279087
 20
61.95934260194251
 10
311.733519639111
 20
61.869485927627565
 10
311.6831818494643
 20
61.854412310821616
 10
311.34291954725325
 20
61.76218964445486
 10
311.31381272608985
 20
61.75476812485942
 10
310.91521923670626
 20
61.65958592553327
 10
310.0792287301706
 20
61.471816515024045
 10
309.6833822874831
 20
61.37719376175701
 10
309.668829697702
 20
61.37348321124317
 10
309.3086324716703
 20
61.27585750193977
 10
309.28346792172204
 20
61.26832199460667
 10
308.9763224486682
 20
61.16748140201982
 10
308.9351145641062
 20
61.151908713233
 10
308.7745654258816
 20
61.08300467257003
 10
308.75339347926115
 20
61.07267381291399
 10
308.75225
 20
61.049143610192814
 10
308.75225
 20
32.35085462093895
 10
308.75339347926115
 20
32.32732441821775
 10
308.77456542588135
 20
32.31699355856182
 10
308.93511456410636
 20
32.24808951789868
 10
308.97632244866793
 20
32.23251682911203
 10
309.28346792172243
 20
32.13167623652496
 10
309.30863247167014
 20
32.12414072919204
 10
309.668829697702
 20
32.026515019888606
 10
309.68338228748286
 20
32.022804469374805
 10
310.0792287301711
 20
31.928181716107588
 10
310.9152192367061
 20
31.740412305598532
 10
311.31381272608974
 20
31.645230106272386
 10
311.3429195472532
 20
31.637808586676933
 10
311.68318184946435
 20
31.545585920310128
 10
311.73351963911085
 20
31.530512303504228
 10
312.0072097279086
 20
31.440655629189287
 10
312.08966557831263
 20
31.409495104677013
 10
312.1466395903211
 20
31.385043153806528
 10
312.2338851479321
 20
31.342471649756856
 10
312.31659171797793
 20
31.291641112172112
 10
312.3939798637946
 20
31.23303057415238
 10
312.46532027018765
 20
31.16719238845763
 10
312.5299406165864
 20
31.094747022068855
 10
312.5872319130739
 20
31.01637720883263
 10
312.63665423958105
 20
30.932821515295203
 10
312.6777418341584
 20
30.84486738036254
 10
312.7101074823725
 20
30.753343694381364
 10
312.7334461664617
 20
30.65911298757682
 10
312.7475379398601
 20
30.563063301463895
 10
312.75225
 20
30.466099819837364
 10
312.75225
 20
21.20018857887402
 10
312.74753793986
 20
21.103225097247478
 10
312.7334461664617
 20
21.007175411134543
 10
312.71010748237245
 20
20.91294470432999
 10
312.6777418341583
 20
20.821421018348808
 10
312.63665423958105
 20
20.73346688341614
 10
312.5872319130739
 20
20.649911189878704
 10
312.5299406165864
 20
20.57154137664247
 10
312.4653202701876
 20
20.499096010253698
 10
312.3939798637945
 20
20.433257824558943
 10
312.3165917179779
 20
20.374647286539215
 10
312.23388514793197
 20
20.323816748954474
 10
312.146639590321
 20
20.28124524490481
 10
312.08966557831263
 20
20.25679329403438
 10
312.00720972790884
 20
20.225632769522186
 10
311.73351963911097
 20
20.135776095207174
 10
311.6831818494643
 20
20.12070247840123
 10
311.34291954725336
 20
20.0284798120345
 10
311.31381272608996
 20
20.02105829243906
 10
310.92861488431424
 20
19.928980970501076
 10
310.0859264748191
 20
19.739659102950895
 10
309.68338228748314
 20
19.64348392933665
 10
309.6688296977018
 20
19.639773378822714
 10
309.3086324716699
 20
19.542147669519277
 10
309.2834679217226
 20
19.53461216218647
 10
308.97632244866804
 20
19.433771569599365
 10
308.93511456410624
 20
19.418198880812636
 10
308.7745654258818
 20
19.34929484014974
 10
308.75339347926115
 20
19.33896398049363
 10
308.75225
 20
19.315433777772437
 10
308.75225
 20
-2.0
 10
308.7474347266722
 20
-2.0980171403295604
 10
308.7330352804032
 20
-2.1950903220161284
 10
308.7091903357322
 20
-2.2902846772544625
 10
308.6761295325113
 20
-2.3826834323650896
 10
308.63417126434837
 20
-2.4713967368259975
 10
308.58371961230256
 20
-2.555570233019602
 10
308.52526045336276
 20
-2.6343932841636457
 10
308.45935678118656
 20
-2.7071067811865475
 10
308.38664328416365
 20
-2.773010453362737
 10
308.3078202330196
 20
-2.8314696123025453
 10
308.223646736826
 20
-2.881921264348355
 10
308.1349334323651
 20
-2.923879532511287
 10
308.0425346772545
 20
-2.9569403357322086
 10
307.94734032201615
 20
-2.9807852804032304
 10
307.85026714032955
 20
-2.9951847266721967
 10
307.75225
 20
-3.0
 10
238.08977712635925
 20
-3.0
 10
238.0322623116766
 20
-2.998344652959097
 10
237.9552843345387
 20
-2.9939099378768765
 10
223.84299651824674
 20
-2.96386057420223
 10
223.8192300066689
 20
-2.9649506255308964
 10
223.79402659456358
 20
-2.973685094643064
 10
223.75840842591373
 20
-2.988025718717865
 10
223.66879295747563
 20
-3.0146930545634287
 10
223.5770785564223
 20
-3.0328740232918197
 10
223.4840669972917
 20
-3.0424096854384004
 10
223.39057139448025
 20
-3.0432166794915174
 10
221.16999644778306
 20
-2.9584929920734724
 10
221.15199945559553
 20
-2.9581306209561196
 10
219.27958338121616
 20
-2.954143676223861
 10
219.18679112897735
 20
-2.9496306989233094
 10
219.09481812273344
 20
-2.9365259226134772
 10
219.00445816025928
 20
-2.914942451592011
 10
218.91649111752136
 20
-2.8850665678123724
 10
218.8842686455198
 20
-2.872424951221508
 10
218.86056527584583
 20
-2.870379089403478
 10
202.26525835154519
 20
-2.2372027138201016
 10
202.24012705938313
 20
-2.2375188759074103
 10
202.19580415869055
 20
-2.2520532541235982
 10
202.18911961546618
 20
-2.254628451703617
 10
202.0915785203637
 20
-2.2812636976761205
 10
201.99184633317924
 20
-2.2979127937842683
 10
201.89094268603077
 20
-2.3044055246381756
 10
201.78989918769315
 20
-2.3006755104952727
 10
200.15503149284476
 20
-2.1572980877488357
 10
200.13041614813935
 20
-2.155750068505325
 10
199.14197577542205
 20
-2.118037171989926
 10
199.04132914279933
 20
-2.1090884800288427
 10
198.94209935635226
 20
-2.0900287521247365
 10
198.84529953471085
 20
-2.061052584740157
 10
198.8205795548607
 20
-2.0508352421934615
 10
198.78582988152374
 20
-2.0385018596101445
 10
198.76087055228606
 20
-2.035030577551569
 10
180.98305920017276
 20
-0.4759216773205156
 10
180.95907601198948
 20
-0.47498105221291165
 10
180.95116218584522
 20
-0.4762087231371164
 10
180.86260720580793
 20
-0.4859305331453344
 10
180.7735384064898
 20
-0.4877324952062475
 10
180.68466268224554
 20
-0.48160030805141985
 10
179.477207491697
 20
-0.34402816641928996
 10
179.464288621118
 20
-0.34272593796242573
 10
177.60631892658458
 20
-0.1797825345404822
 10
177.5161777382126
 20
-0.16772590770835483
 10
177.4275046622296
 20
-0.147529826717409
 10
177.34103309556585
 20
-0.11936132923537113
 10
177.3032074621339
 20
-0.10310565766463399
 10
177.28135087680232
 20
-0.09500764870457837
 10
177.25766243662213
 20
-0.09114295041642594
 10
162.7371868459385
 20
1.5632562688373062
 10
162.68063079270263
 20
1.5664677542754157
 10
153.709
 20
1.5664677542754157
 10
153.61098285967043
 20
1.5712830276032188
 10
153.51390967798386
 20
1.5856824738721853
 10
153.41871532274553
 20
1.609527418543207
 10
153.3263165676349
 20
1.6425882217641292
 10
153.237603263174
 20
1.6845464899270608
 10
153.1534297669804
 20
1.7349981419728704
 10
153.07460671583635
 20
1.793457300912679
 10
153.00189321881345
 20
1.8593609730888683
 10
152.93598954663727
 20
1.9320744701117705
 10
152.87753038769745
 20
2.0108975212558136
 10
152.82707873565164
 20
2.0950710174494183
 10
152.78512046748872
 20
2.183784321910326
 10
152.7520596642678
 20
2.2761830770209537
 10
152.72821471959676
 20
2.3713774322592873
 10
152.7138152733278
 20
2.4684506139458553
 10
152.709
 20
2.5664677542754157
 10
152.709
 20
24.66590939731338
 10
152.70785652073886
 20
24.689439600034703
 10
152.68668457411826
 20
24.69977045969081
 10
152.52613543589376
 20
24.76867450035372
 10
152.48492755133196
 20
24.78424718914046
 10
152.17778207827772
 20
24.885087781727453
 10
152.15261752833
 20
24.892623289060374
 10
151.79242030229778
 20
24.990248998363903
 10
151.777867712517
 20
24.993959548877683
 10
151.37532352518124
 20
25.090134722491907
 10
150.5326351156858
 20
25.279456590042148
 10
150.14743727391053
 20
25.37153391198002
 10
150.1183304527471
 20
25.378955431575466
 10
149.77806815053566
 20
25.47117809794234
 10
149.72773036088898
 20
25.486251714748274
 10
149.45404027209122
 20
25.576108389063243
 10
149.3715844216875
 20
25.607268913575425
 10
149.31461040967906
 20
25.631720864445874
  0
LWPOLYLINE
  5
33
330
17
100
AcDbEntity
  8
SWITCH_CUTOUTS
100
AcDbPolyline
 90
13
 70
1
 10
265.41568971438716
 20
59.675689714387154
 10
265.415
 20
59.68972917326508
 10
265.415
 20
73.66027082673492
 10
265.41568971438716
 20
73.67431028561285
 10
265.42972917326534
 20
73.675
 10
300.8312708267347
 20
73.675
 10
300.84531028561287
 20
73.67431028561285
 10
300.846
 20
73.66027082673492
 10
300.846
 20
59.68972917326508
 10
300.84531028561287
 20
59.675689714387154
 10
300.8312708267347
 20
59.675
 10
265.42972917326534
 20
59.675
 10
265.41568971438716
 20
59.675689714387154
  0
LWPOLYLINE
  5
34
330
17
100
AcDbEntity
  8
SWITCH_CUTOUTS
100
AcDbPolyline
 90
53
 70
1
 10
246.36568971438714
 20
78.72568971438713
 10
246.365
 20
78.7397291732652
 10
246.365
 20
92.71027082673476
 10
246.36568971438714
 20
92.72431028561283
 10
246.37972917326533
 20
92.72499999999998
 10
265.1122708267347
 20
92.72499999999998
 10
265.1269290750048
 20
92.72427988643933
 10
265.12853827930445
 20
92.7240411835304
 10
265.18296171532677
 20
92.71321568903025
 10
265.24155939540356
 20
92.707444321286
 10
265.3004406045965
 20
92.707444321286
 10
265.35903828467326
 20
92.71321568903025
 10
265.4134617206956
 20
92.7240411835304
 10
265.41507092499523
 20
92.72427988643933
 10
265.42972917326534
 20
92.72499999999998
 10
279.4002708267347
 20
92.72499999999998
 10
279.4149290750048
 20
92.72427988643933
 10
279.41653827930446
 20
92.72404118353039
 10
279.47096171532667
 20
92.71321568903026
 10
279.5295593954034
 20
92.70744432128602
 10
279.58844060459626
 20
92.707444321286
 10
279.647038284673
 20
92.71321568903022
 10
279.70146172069553
 20
92.72404118353039
 10
279.7030709249952
 20
92.72427988643933
 10
279.7177291732653
 20
92.72499999999998
 10
298.45027082673465
 20
92.72499999999998
 10
298.46431028561284
 20
92.72431028561283
 10
298.465
 20
92.7102708267349
 10
298.465
 20
78.73972917326506
 10
298.46431028561284
 20
78.72568971438713
 10
298.45027082673465
 20
78.72499999999998
 10
279.7177291732653
 20
78.72499999999998
 10
279.7030709249952
 20
78.72572011356063
 10
279.70146172069553
 20
78.72595881646957
 10
279.647038284673
 20
78.73678431096974
 10
279.58844060459626
 20
78.74255567871396
 10
279.5295593954034
 20
78.74255567871394
 10
279.47096171532667
 20
78.7367843109697
 10
279.41653827930446
 20
78.72595881646957
 10
279.4149290750048
 20
78.72572011356063
 10
279.4002708267347
 20
78.72499999999998
 10
265.42972917326534
 20
78.72499999999998
 10
265.41507092499523
 20
78.72572011356063
 10
265.4134617206956
 20
78.72595881646956
 10
265.35903828467326
 20
78.73678431096971
 10
265.3004406045965
 20
78.74255567871396
 10
265.24155939540356
 20
78.74255567871396
 10
265.18296171532677
 20
78.73678431096971
 10
265.12853827930445
 20
78.72595881646956
 10
265.1269290750048
 20
78.72572011356063
 10
265.1122708267347
 20
78.72499999999998
 10
246.37972917326533
 20
78.72499999999998
 10
246.36568971438714
 20
78.72568971438713
  0
LWPOLYLINE
  5
35
330
17
100
AcDbEntity
  8
SWITCH_CUTOUTS
100
AcDbPolyline
 90
13
 70
1
 10
262.5586897143871
 20
2.5256897143871546
 10
262.558
 20
2.539729173265078
 10
262.558
 20
16.51027082673492
 10
262.5586897143871
 20
16.524310285612845
 10
262.5727291732653
 20
16.525
 10
295.5932708267347
 20
16.525
 10
295.60731028561287
 20
16.524310285612845
 10
295.608
 20
16.51027082673492
 10
295.608
 20
2.539729173265078
 10
295.60731028561287
 20
2.5256897143871546
 10
295.5932708267346
 20
2.5250000000000004
 10
262.5727291732654
 20
2.5250000000000004
 10
262.5586897143871
 20
2.5256897143871546
  0
LWPOLYLINE
  5
36
330
17
100
AcDbEntity
  8
SWITCH_CUTOUTS
100
AcDbPolyline
 90
13
 70
1
 10
278.75068971438714
 20
21.575689714387156
 10
278.75
 20
21.58972917326508
 10
278.75
 20
35.56027082673492
 10
278.75068971438714
 20
35.574310285612846
 10
278.7647291732653
 20
35.575
 10
292.7352708267347
 20
35.575
 10
292.74931028561286
 20
35.574310285612846
 10
292.75
 20
35.56027082673492
 10
292.75
 20
21.58972917326508
 10
292.74931028561286
 20
21.575689714387156
 10
292.7352708267347
 20
21.575000000000003
 10
278.7647291732653
 20
21.575000000000003
 10
278.75068971438714
 20
21.575689714387156
  0
LWPOLYLINE
  5
37
330
17
100
AcDbEntity
  8
SWITCH_CUTOUTS
100
AcDbPolyline
 90
13
 70
1
 10
277.321
 20
54.61027082673492
 10
277.32168971438716
 20
54.62431028561284
 10
277.33572917326535
 20
54.625
 10
291.3062708267347
 20
54.625
 10
291.3203102856129
 20
54.62431028561284
 10
291.321
 20
54.61027082673492
 10
291.321
 20
40.63972917326508
 10
291.3203102856129
 20
40.62568971438716
 10
291.3062708267347
 20
40.625
 10
277.33572917326535
 20
40.625
 10
277.32168971438716
 20
40.62568971438716
 10
277.321
 20
40.63972917326508
 10
277.321
 20
54.61027082673492
  0
LWPOLYLINE
  5
38
330
17
100
AcDbEntity
  8
SWITCH_CUTOUTS
100
AcDbPolyline
 90
13
 70
1
 10
254.93868971438712
 20
21.575689714387156
 10
254.938
 20
21.589729173265226
 10
254.938
 20
35.56027082673477
 10
254.93868971438712
 20
35.57431028561285
 10
254.95272917326537
 20
35.575
 10
268.92327082673467
 20
35.575
 10
268.93731028561285
 20
35.574310285612846
 10
268.938
 20
35.56027082673492
 10
268.938
 20
21.58972917326508
 10
268.93731028561285
 20
21.575689714387156
 10
268.92327082673467
 20
21.575000000000003
 10
254.95272917326537
 20
21.575000000000003
 10
254.93868971438712
 20
21.575689714387156
  0
LWPOLYLINE
  5
39
330
17
100
AcDbEntity
  8
SWITCH_CUTOUTS
100
AcDbPolyline
 90
13
 70
1
 10
251.127
 20
54.61027082673477
 10
251.12768971438715
 20
54.62431028561285
 10
251.1417291732654
 20
54.625
 10
265.1122708267347
 20
54.625
 10
265.1263102856129
 20
54.62431028561284
 10
265.127
 20
54.61027082673492
 10
265.127
 20
40.63972917326508
 10
265.1263102856129
 20
40.62568971438716
 10
265.1122708267347
 20
40.625
 10
251.1417291732654
 20
40.625
 10
251.12768971438715
 20
40.62568971438715
 10
251.127
 20
40.63972917326523
 10
251.127
 20
54.61027082673477
  0
LWPOLYLINE
  5
3A
330
17
100
AcDbEntity
  8
SWITCH_CUTOUTS
100
AcDbPolyline
 90
13
 70
1
 10
246.36568971438714
 20
59.67568971438715
 10
246.365
 20
59.68972917326523
 10
246.365
 20
73.66027082673477
 10
246.36568971438714
 20
73.67431028561285
 10
246.37972917326533
 20
73.675
 10
260.3502708267347
 20
73.675
 10
260.3643102856129
 20
73.67431028561285
 10
260.365
 20
73.66027082673492
 10
260.365
 20
59.68972917326508
 10
260.3643102856129
 20
59.675689714387154
 10
260.3502708267347
 20
59.675
 10
246.3797291732654
 20
59.675
 10
246.36568971438714
 20
59.67568971438715
  0
LWPOLYLINE
  5
3B
330
17
100
AcDbEntity
  8
SWITCH_CUTOUTS
100
AcDbPolyline
 90
13
 70
1
 10
243.50868971438712
 20
2.5256897143871546
 10
243.50799999999998
 20
2.539729173265223
 10
243.50799999999998
 20
16.510270826734775
 10
243.50868971438712
 20
16.524310285612845
 10
243.52272917326536
 20
16.525
 10
257.49327082673466
 20
16.525
 10
257.50731028561285
 20
16.524310285612845
 10
257.508
 20
16.51027082673492
 10
257.508
 20
2.539729173265078
 10
257.50731028561285
 20
2.5256897143871546
 10
257.4932708267346
 20
2.5250000000000004
 10
243.52272917326533
 20
2.5250000000000004
 10
243.50868971438712
 20
2.5256897143871546
  0
LWPOLYLINE
  5
3C
330
17
100
AcDbEntity
  8
SWITCH_CUTOUTS
100
AcDbPolyline
 90
13
 70
1
 10
235.88868971438717
 20
21.575689714387156
 10
235.88800000000003
 20
21.589729173265226
 10
235.88800000000003
 20
35.56027082673477
 10
235.88868971438717
 20
35.57431028561285
 10
235.9027291732654
 20
35.575
 10
249.87327082673465
 20
35.575
 10
249.8873102856129
 20
35.57431028561285
 10
249.88800000000003
 20
35.56027082673477
 10
249.88800000000003
 20
21.589729173265226
 10
249.8873102856129
 20
21.575689714387156
 10
249.87327082673465
 20
21.575000000000003
 10
235.9027291732654
 20
21.575000000000003
 10
235.88868971438717
 20
21.575689714387156
  0
LWPOLYLINE
  5
3D
330
17
100
AcDbEntity
  8
SWITCH_CUTOUTS
100
AcDbPolyline
 90
13
 70
1
 10
232.078
 20
54.61027082673477
 10
232.07868971438714
 20
54.62431028561285
 10
232.09272917326538
 20
54.625
 10
246.06327082673462
 20
54.625
 10
246.07731028561287
 20
54.62431028561285
 10
246.078
 20
54.61027082673477
 10
246.078
 20
40.63972917326523
 10
246.07731028561287
 20
40.62568971438715
 10
246.06327082673462
 20
40.625
 10
232.09272917326538
 20
40.625
 10
232.07868971438714
 20
40.62568971438715
 10
232.078
 20
40.63972917326523
 10
232.078
 20
54.61027082673477
  0
LWPOLYLINE
  5
3E
330
17
100
AcDbEntity
  8
SWITCH_CUTOUTS
100
AcDbPolyline
 90
13
 70
1
 10
227.30602584370936
 20
59.68435550396559
 10
227.3053434804599
 20
59.69839532205302
 10
227.31265843862985
 20
73.66893506047083
 10
227.3133555039656
 20
73.68297415629065
 10
227.3273953220531
 20
73.68365651954014
 10
241.2979350604704
 20
73.67634156137018
 10
241.3119741562907
 20
73.67564449603441
 10
241.31265651954016
 20
73.661604677947
 10
241.3053415613702
 20
59.69106493952919
 10
241.30464449603446
 20
59.677025843709345
 10
241.29060467794716
 20
59.67634348045987
 10
227.32006493952943
 20
59.68365843862984
 10
227.30602584370936
 20
59.68435550396559
  0
LWPOLYLINE
  5
3F
330
17
100
AcDbEntity
  8
SWITCH_CUTOUTS
100
AcDbPolyline
 90
13
 70
1
 10
224.42180194961745
 20
2.560609213497494
 10
224.42114213101473
 20
2.5746501091575364
 10
224.45088960645302
 20
16.54516009194016
 10
224.4516092134975
 20
16.55919805038256
 10
224.46565010915768
 20
16.559857868985265
 10
238.43616009194022
 20
16.530110393546995
 10
238.45019805038257
 20
16.529390786502507
 10
238.45085786898528
 20
16.515349890842465
 10
238.421110393547
 20
2.5448399080598425
 10
238.4203907865025
 20
2.5308019496174476
 10
238.4063498908423
 20
2.5301421310147387
 10
224.43583990805982
 20
2.5598896064530066
 10
224.42180194961745
 20
2.560609213497494
  0
LWPOLYLINE
  5
40
330
17
100
AcDbEntity
  8
SWITCH_CUTOUTS
100
AcDbPolyline
 90
13
 70
1
 10
216.6449258980098
 20
21.767396393338284
 10
216.64439917454968
 20
21.78144291155191
 10
216.80654378093408
 20
35.751043593673955
 10
216.80739639333825
 20
35.7650741019902
 10
216.8214429115519
 20
35.765600825450335
 10
230.7910435936738
 20
35.6034562190659
 10
230.8050741019902
 20
35.60260360666172
 10
230.8056008254503
 20
35.588557088448084
 10
230.6434562190659
 20
21.618956406326042
 10
230.64260360666174
 20
21.604925898009792
 10
230.6285570884481
 20
21.604399174549663
 10
216.65895640632618
 20
21.766543780934104
 10
216.6449258980098
 20
21.767396393338284
  0
LWPOLYLINE
  5
41
330
17
100
AcDbEntity
  8
SWITCH_CUTOUTS
100
AcDbPolyline
 90
13
 70
1
 10
212.71037116409317
 20
40.94259743000879
 10
212.70995158895684
 20
40.95664755699194
 10
212.97863783150802
 20
54.92460523857045
 10
212.9795974300088
 20
54.93862883590683
 10
212.99364755699168
 20
54.939048411043146
 10
226.9616052385707
 20
54.67036216849197
 10
226.9756288359068
 20
54.669402569991206
 10
226.97604841104314
 20
54.655352443008056
 10
226.70736216849195
 20
40.687394761429545
 10
226.70640256999118
 20
40.67337116409316
 10
226.6923524430083
 20
40.67295158895685
 10
212.72439476142927
 20
40.941637831508025
 10
212.71037116409317
 20
40.94259743000879
  0
LWPOLYLINE
  5
42
330
17
100
AcDbEntity
  8
SWITCH_CUTOUTS
100
AcDbPolyline
 90
13
 70
1
 10
207.75989213259558
 20
79.38422696634858
 10
207.75963835219594
 20
79.39828106564543
 10
208.1931019821033
 20
93.36209656760832
 10
208.1942269663486
 20
93.37610786740443
 10
208.20828106564517
 20
93.37636164780407
 10
222.1720965676083
 20
92.94289801789672
 10
222.18610786740444
 20
92.94177303365142
 10
222.1863616478041
 20
92.92771893435456
 10
221.75289801789674
 20
78.96390343239167
 10
221.75177303365143
 20
78.94989213259556
 10
221.73771893435486
 20
78.94963835219592
 10
207.77390343239173
 20
79.38310198210327
 10
207.75989213259558
 20
79.38422696634858
  0
LWPOLYLINE
  5
43
330
17
100
AcDbEntity
  8
SWITCH_CUTOUTS
100
AcDbPolyline
 90
13
 70
1
 10
207.62860204359663
 20
60.20047164862921
 10
207.62834679145655
 20
60.21452572127252
 10
208.06034813165
 20
74.17838653887618
 10
208.06147164862924
 20
74.19239795640335
 10
208.07552572127295
 20
74.19265320854343
 10
222.03938653887593
 20
73.76065186835005
 10
222.0533979564034
 20
73.75952835137079
 10
222.05365320854347
 20
73.74547427872749
 10
221.62165186835003
 20
59.781613461123804
 10
221.62052835137078
 20
59.76760204359666
 10
221.60647427872706
 20
59.767346791456575
 10
207.64261346112391
 20
60.199348131649955
 10
207.62860204359663
 20
60.20047164862921
  0
LWPOLYLINE
  5
44
330
17
100
AcDbEntity
  8
SWITCH_CUTOUTS
100
AcDbPolyline
 90
13
 70
1
 10
204.51592157512252
 20
3.2066358017162515
 10
204.51576763344067
 20
3.220691349144129
 10
205.0484113175622
 20
17.18107546982905
 10
205.04963580171625
 20
17.195078424877508
 10
205.0636913491438
 20
17.195232366559342
 10
219.02407546982917
 20
16.662588682437796
 10
219.03807842487745
 20
16.66136419828375
 10
219.0382323665593
 20
16.647308650855873
 10
218.50558868243778
 20
2.6869245301709452
 10
218.50436419828372
 20
2.672921575122489
 10
218.4903086508562
 20
2.6727676334406545
 10
204.5299245301708
 20
3.2054113175622017
 10
204.51592157512252
 20
3.2066358017162515
  0
LWPOLYLINE
  5
45
330
17
100
AcDbEntity
  8
SWITCH_CUTOUTS
100
AcDbPolyline
 90
13
 70
1
 10
196.11015752020967
 20
22.788462325455363
 10
196.11027760792757
 20
22.802518202890703
 10
196.91496509908168
 20
36.749866055901684
 10
196.9164623254554
 20
36.76384247979037
 10
196.93051820289043
 20
36.763722392072474
 10
210.87786605590173
 20
35.959034900918354
 10
210.8918424797904
 20
35.957537674544625
 10
210.8917223920725
 20
35.94348179710929
 10
210.08703490091838
 20
21.996133944098293
 10
210.08553767454467
 20
21.982157520209626
 10
210.07148179710964
 20
21.98227760792753
 10
196.12413394409825
 20
22.78696509908165
 10
196.11015752020967
 20
22.788462325455363
  0
LWPOLYLINE
  5
46
330
17
100
AcDbEntity
  8
SWITCH_CUTOUTS
100
AcDbPolyline
 90
13
 70
1
 10
191.85135978181043
 20
42.17192344650396
 10
191.85161895857797
 20
42.18597744731949
 10
192.79428798477326
 20
56.1246792949944
 10
192.795923446504
 20
56.13864021818956
 10
192.80997744731982
 20
56.13838104142202
 10
206.74867929499453
 20
55.19571201522677
 10
206.7626402181896
 20
55.19407655349604
 10
206.76238104142206
 20
55.18002255268051
 10
205.81971201522677
 20
41.2413207050056
 10
205.81807655349604
 20
41.22735978181044
 10
205.8040225526802
 20
41.22761895857798
 10
191.8653207050055
 20
42.17028798477323
 10
191.85135978181043
 20
42.17192344650396
  0
LWPOLYLINE
  5
47
330
17
100
AcDbEntity
  8
SWITCH_CUTOUTS
100
AcDbPolyline
 90
13
 70
1
 10
186.48680201502552
 20
61.700336182080086
 10
186.48723630318764
 20
61.71438586198086
 10
187.60352687568772
 20
75.64025852580639
 10
187.60533618208007
 20
75.65419798497445
 10
187.61938586198113
 20
75.6537636968123
 10
201.54525852580613
 20
74.53747312431229
 10
201.55919798497447
 20
74.53566381791991
 10
201.55876369681235
 20
74.52161413801912
 10
200.44247312431227
 20
60.59574147419356
 10
200.44066381791993
 20
60.58180201502553
 10
200.42661413801886
 20
60.58223630318768
 10
186.5007414741939
 20
61.6985268756877
 10
186.48680201502552
 20
61.700336182080086
  0
LWPOLYLINE
  5
48
330
17
100
AcDbEntity
  8
SWITCH_CUTOUTS
100
AcDbPolyline
 90
13
 70
1
 10
183.2639616934253
 20
4.870942547580726
 10
183.26450116488232
 20
4.884988581970497
 10
184.4850289217024
 20
18.80211278512911
 10
184.48694254758072
 20
18.816038306574722
 10
184.50098858197038
 20
18.815498835117722
 10
198.41811278512935
 20
17.594971078297597
 10
198.43203830657473
 20
17.593057452419274
 10
198.4314988351177
 20
17.5790114180295
 10
197.21097107829763
 20
3.6618872148708843
 10
197.2090574524193
 20
3.6479616934252777
 10
197.19501141802962
 20
3.648501164882276
 10
183.27788721487073
 20
4.869028921702396
 10
183.2639616934253
 20
4.870942547580726
  0
LWPOLYLINE
  5
49
330
17
100
AcDbEntity
  8
SWITCH_CUTOUTS
100
AcDbPolyline
 90
13
 70
1
 10
174.71655945801177
 20
24.838767042713776
 10
174.71733394134233
 20
24.852802080551427
 10
176.1706206144589
 20
38.74754899933565
 10
176.17276704271376
 20
38.76144054198824
 10
176.18680208055133
 20
38.76066605865766
 10
190.08154899933538
 20
37.307379385541125
 10
190.09544054198824
 20
37.30523295728622
 10
190.09466605865768
 20
37.29119791944857
 10
188.64137938554111
 20
23.396451000664324
 10
188.63923295728625
 20
23.382559458011755
 10
188.62519791944874
 20
23.38333394134233
 10
174.73045100066454
 20
24.836620614458887
 10
174.71655945801177
 20
24.838767042713776
  0
LWPOLYLINE
  5
4A
330
17
100
AcDbEntity
  8
SWITCH_CUTOUTS
100
AcDbPolyline
 90
13
 70
1
 10
170.49835214997438
 20
44.35270980586516
 10
170.49919937498737
 20
44.36674064052656
 10
172.0244913981822
 20
58.25376762024086
 10
172.02670980586515
 20
58.26764785002559
 10
172.04074064052696
 20
58.26680062501257
 10
185.92776762024064
 20
56.74150860181784
 10
185.94164785002562
 20
56.73929019413484
 10
185.94080062501263
 20
56.72525935947344
 10
184.4155086018178
 20
42.83823237975914
 10
184.41329019413485
 20
42.82435214997441
 10
184.39925935947304
 20
42.82519937498743
 10
170.51223237975935
 20
44.35049139818216
 10
170.49835214997438
 20
44.35270980586516
  0
LWPOLYLINE
  5
4B
330
17
100
AcDbEntity
  8
SWITCH_CUTOUTS
100
AcDbPolyline
 90
13
 70
1
 10
169.3063004048187
 20
82.72261998890035
 10
169.3070709687972
 20
82.73665524246697
 10
170.75647743997962
 20
96.63180745367441
 10
170.75861998890036
 20
96.64569959518128
 10
170.77265524246707
 20
96.64492903120279
 10
184.6678074536742
 20
95.1955225600204
 10
184.6816995951813
 20
95.19338001109965
 10
184.6809290312028
 20
95.17934475753303
 10
183.23152256002038
 20
81.28419254632558
 10
183.22938001109964
 20
81.27030040481871
 10
183.21534475753293
 20
81.2710709687972
 10
169.3201925463258
 20
82.7204774399796
 10
169.3063004048187
 20
82.72261998890035
  0
LWPOLYLINE
  5
4C
330
17
100
AcDbEntity
  8
SWITCH_CUTOUTS
100
AcDbPolyline
 90
13
 70
1
 10
165.2796729546757
 20
63.98683626411682
 10
165.28056939611102
 20
64.00086404028706
 10
166.85456917678664
 20
77.88245468335641
 10
166.85683626411682
 20
77.8963270453243
 10
166.87086404028702
 20
77.89543060388898
 10
180.75245468335652
 20
76.32143082321336
 10
180.7663270453243
 20
76.3191637358832
 10
180.76543060388897
 20
76.30513595971293
 10
179.19143082321335
 20
62.42354531664357
 10
179.1891637358832
 20
62.40967295467571
 10
179.17513595971292
 20
62.41056939611103
 10
165.2935453166436
 20
63.984569176786636
 10
165.2796729546757
 20
63.98683626411682
  0
LWPOLYLINE
  5
4D
330
17
100
AcDbEntity
  8
SWITCH_CUTOUTS
100
AcDbPolyline
 90
13
 70
1
 10
162.1813378725773
 20
7.188026709557553
 10
162.18224190363833
 20
7.202053998653332
 10
163.76375211688944
 20
21.082790994097596
 10
163.76602670955756
 20
21.096662127422718
 10
163.78005399865307
 20
21.095758096361674
 10
177.6607909940976
 20
19.51424788311055
 10
177.6746621274227
 20
19.511973290442445
 10
177.67375809636167
 20
19.49794600134667
 10
176.09224788311056
 20
5.617209005902396
 10
176.08997329044243
 20
5.60333787257728
 10
176.07594600134692
 20
5.604241903638323
 10
162.1952090059024
 20
7.18575211688945
 10
162.1813378725773
 20
7.188026709557553
  0
LWPOLYLINE
  5
4E
330
17
100
AcDbEntity
  8
SWITCH_CUTOUTS
100
AcDbPolyline
 90
13
 70
1
 10
154.2773378725773
 20
27.13902670955756
 10
154.27824190363833
 20
27.153053998653334
 10
155.85975211688944
 20
41.033790994097586
 10
155.86202670955757
 20
41.047662127422726
 10
155.87605399865308
 20
41.04675809636168
 10
169.75679099409768
 20
39.46524788311054
 10
169.7706621274227
 20
39.46297329044245
 10
169.76975809636167
 20
39.44894600134667
 10
168.18824788311056
 20
25.568209005902403
 10
168.18597329044243
 20
25.554337872577282
 10
168.17194600134692
 20
25.555241903638326
 10
154.2912090059024
 20
27.136752116889454
 10
154.2773378725773
 20
27.13902670955756
  0
LWPOLYLINE
  5
4F
330
17
100
AcDbEntity
  8
STAB_CLEARANCE
100
AcDbPolyline
 90
5
 70
1
 10
263.67675
 20
17.96
 10
270.67675
 20
17.96
 10
270.67675
 20
2.3600000000000003
 10
263.67675
 20
2.3600000000000003
 10
263.67675
 20
17.96
  0
LWPOLYLINE
  5
50
330
17
100
AcDbEntity
  8
STAB_CLEARANCE
100
AcDbPolyline
 90
5
 70
1
 10
294.48925
 20
17.96
 10
294.48925
 20
2.3600000000000003
 10
287.48925
 20
2.3600000000000003
 10
287.48925
 20
17.96
 10
294.48925
 20
17.96
  0
LWPOLYLINE
  5
51
330
17
100
AcDbEntity
  8
STAB_CLEARANCE
100
AcDbPolyline
 90
5
 70
1
 10
275.91475
 20
75.11
 10
275.91475
 20
59.51
 10
268.91475
 20
59.51
 10
268.91475
 20
75.11
 10
275.91475
 20
75.11
  0
LWPOLYLINE
  5
52
330
17
100
AcDbEntity
  8
STAB_CLEARANCE
100
AcDbPolyline
 90
5
 70
1
 10
292.72725
 20
75.11
 10
299.72725
 20
75.11
 10
299.72725
 20
59.51
 10
292.72725
 20
59.51
 10
292.72725
 20
75.11
  0
LWPOLYLINE
  5
53
330
17
100
AcDbEntity
  8
STAB_CLEARANCE
100
AcDbPolyline
 90
5
 70
1
 10
193.1922217978025
 20
95.74912469710992
 10
191.5737633649592
 20
80.23330720974695
 10
184.6115375693476
 20
80.95953855781767
 10
186.2299960021909
 20
96.47535604518063
 10
193.1922217978025
 20
95.74912469710992
  0
LWPOLYLINE
  5
54
330
17
100
AcDbEntity
  8
STAB_CLEARANCE
100
AcDbPolyline
 90
5
 70
1
 10
169.50822154665948
 20
98.2196081222433
 10
167.88976311381623
 20
82.70379063488033
 10
160.92753731820463
 20
83.43002198295103
 10
162.5459957510479
 20
98.945839470314
 10
169.50822154665948
 20
98.2196081222433
  0
ENDSEC
  0
SECTION
  2
OBJECTS
  0
DICTIONARY
  5
A
330
0
100
AcDbDictionary
281
1
  3
ACAD_COLOR
350
B
  3
ACAD_GROUP
350
C
  3
ACAD_LAYOUT
350
D
  3
ACAD_MATERIAL
350
E
  3
ACAD_MLEADERSTYLE
350
F
  3
ACAD_MLINESTYLE
350
10
  3
ACAD_PLOTSETTINGS
350
11
  3
ACAD_PLOTSTYLENAME
350
12
  3
ACAD_SCALELIST
350
14
  3
ACAD_TABLESTYLE
350
15
  3
ACAD_VISUALSTYLE
350
16
  3
EZDXF_META
350
2D
  0
DICTIONARY
  5
B
330
A
100
AcDbDictionary
281
1
  0
DICTIONARY
  5
C
330
A
100
AcDbDictionary
281
1
  0
DICTIONARY
  5
D
330
A
100
AcDbDictionary
281
1
  3
Model
350
1A
  3
Layout1
350
1E
  0
DICTIONARY
  5
E
330
A
100
AcDbDictionary
281
1
  3
ByBlock
350
1F
  3
ByLayer
350
20
  3
Global
350
21
  0
DICTIONARY
  5
F
330
A
100
AcDbDictionary
281
1
  3
Standard
350
2C
  0
DICTIONARY
  5
10
330
A
100
AcDbDictionary
281
1
  3
Standard
350
22
  0
DICTIONARY
  5
11
330
A
100
AcDbDictionary
281
1
  0
ACDBDICTIONARYWDFLT
  5
12
330
A
100
AcDbDictionary
281
1
  3
Normal
350
13
100
AcDbDictionaryWithDefault
340
13
  0
ACDBPLACEHOLDER
  5
13
330
12
  0
DICTIONARY
  5
14
330
A
100
AcDbDictionary
281
1
  0
DICTIONARY
  5
15
330
A
100
AcDbDictionary
281
1
  0
DICTIONARY
  5
16
330
A
100
AcDbDictionary
281
1
  0
LAYOUT
  5
1A
330
D
100
AcDbPlotSettings
  1

  4
A3
  6

 40
7.5
 41
20.0
 42
7.5
 43
20.0
 44
420.0
 45
297.0
 46
0.0
 47
0.0
 48
0.0
 49
0.0
140
0.0
141
0.0
142
1.0
143
1.0
 70
1024
 72
1
 73
0
 74
5
  7

 75
16
 76
0
 77
2
 78
300
147
1.0
148
0.0
149
0.0
100
AcDbLayout
  1
Model
 70
1
 71
0
 10
0.0
 20
0.0
 11
420.0
 21
297.0
 12
0.0
 22
0.0
 32
0.0
 14
1e+20
 24
1e+20
 34
1e+20
 15
-1e+20
 25
-1e+20
 35
-1e+20
146
0.0
 13
0.0
 23
0.0
 33
0.0
 16
1.0
 26
0.0
 36
0.0
 17
0.0
 27
1.0
 37
0.0
 76
1
330
17
  0
LAYOUT
  5
1E
330
D
100
AcDbPlotSettings
  1

  4
A3
  6

 40
7.5
 41
20.0
 42
7.5
 43
20.0
 44
420.0
 45
297.0
 46
0.0
 47
0.0
 48
0.0
 49
0.0
140
0.0
141
0.0
142
1.0
143
1.0
 70
0
 72
1
 73
0
 74
5
  7

 75
16
 76
0
 77
2
 78
300
147
1.0
148
0.0
149
0.0
100
AcDbLayout
  1
Layout1
 70
1
 71
1
 10
0.0
 20
0.0
 11
420.0
 21
297.0
 12
0.0
 22
0.0
 32
0.0
 14
1e+20
 24
1e+20
 34
1e+20
 15
-1e+20
 25
-1e+20
 35
-1e+20
146
0.0
 13
0.0
 23
0.0
 33
0.0
 16
1.0
 26
0.0
 36
0.0
 17
0.0
 27
1.0
 37
0.0
 76
1
330
1B
  0
MATERIAL
  5
1F
102
{ACAD_REACTORS
330
E
102
}
330
E
100
AcDbMaterial
  1
ByBlock
  2

 70
0
 40
1.0
 71
1
 41
1.0
 91
-1023410177
 42
1.0
 72
1
  3

 73
1
 74
1
 75
1
 44
0.5
 73
0
 45
1.0
 46
1.0
 77
1
  4

 78
1
 79
1
170
1
 48
1.0
171
1
  6

172
1
173
1
174
1
140
1.0
141
1.0
175
1
  7

176
1
177
1
178
1
143
1.0
179
1
  8

270
1
271
1
272
1
145
1.0
146
1.0
273
1
  9

274
1
275
1
276
1
 42
1.0
 72
1
  3

 73
1
 74
1
 75
1
 94
63
  0
MATERIAL
  5
20
102
{ACAD_REACTORS
330
E
102
}
330
E
100
AcDbMaterial
  1
ByLayer
  2

 70
0
 40
1.0
 71
1
 41
1.0
 91
-1023410177
 42
1.0
 72
1
  3

 73
1
 74
1
 75
1
 44
0.5
 73
0
 45
1.0
 46
1.0
 77
1
  4

 78
1
 79
1
170
1
 48
1.0
171
1
  6

172
1
173
1
174
1
140
1.0
141
1.0
175
1
  7

176
1
177
1
178
1
143
1.0
179
1
  8

270
1
271
1
272
1
145
1.0
146
1.0
273
1
  9

274
1
275
1
276
1
 42
1.0
 72
1
  3

 73
1
 74
1
 75
1
 94
63
  0
MATERIAL
  5
21
102
{ACAD_REACTORS
330
E
102
}
330
E
100
AcDbMaterial
  1
Global
  2

 70
0
 40
1.0
 71
1
 41
1.0
 91
-1023410177
 42
1.0
 72
1
  3

 73
1
 74
1
 75
1
 44
0.5
 73
0
 45
1.0
 46
1.0
 77
1
  4

 78
1
 79
1
170
1
 48
1.0
171
1
  6

172
1
173
1
174
1
140
1.0
141
1.0
175
1
  7

176
1
177
1
178
1
143
1.0
179
1
  8

270
1
271
1
272
1
145
1.0
146
1.0
273
1
  9

274
1
275
1
276
1
 42
1.0
 72
1
  3

 73
1
 74
1
 75
1
 94
63
  0
MLINESTYLE
  5
22
102
{ACAD_REACTORS
330
10
102
}
330
10
100
AcDbMlineStyle
  2
Standard
 70
0
  3

 62
256
 51
90.0
 52
90.0
 71
2
 49
0.5
 62
256
  6
BYLAYER
 49
-0.5
 62
256
  6
BYLAYER
  0
MLEADERSTYLE
  5
2C
102
{ACAD_REACTORS
330
F
102
}
330
F
100
AcDbMLeaderStyle
179
2
170
2
171
1
172
0
 90
2
 40
0.0
 41
0.0
173
1
 91
-1056964608
 92
-2
290
1
 42
2.0
291
1
 43
8.0
  3
Standard
 44
4.0
300

342
29
174
1
175
1
176
0
178
1
 93
-1056964608
 45
4.0
292
0
297
0
 46
4.0
 94
-1056964608
 47
1.0
 49
1.0
140
1.0
294
1
141
0.0
177
0
142
1.0
295
0
296
0
143
3.75
271
0
272
9
273
9
  0
DICTIONARY
  5
2D
330
A
100
AcDbDictionary
280
1
281
1
  3
CREATED_BY_EZDXF
350
2E
  3
WRITTEN_BY_EZDXF
350
57
  0
DICTIONARYVAR
  5
2E
330
2D
100
DictionaryVariables
280
0
  1
1.4.4 @ 2026-09-12T17:40:21.449217+00:00
  0
DICTIONARYVAR
  5
57
330
2D
100
DictionaryVariables
280
0
  1
1.4.4 @ 2026-09-12T17:40:21.453469+00:00
  0
ENDSEC
  0
EOF
