  0
SECTION
  2
HEADER
  9
$ACADVER
  1
AC1024
  9
$ACADMAINTVER
 70
6
  9
$DWGCODEPAGE
  3
ANSI_1252
  9
$LASTSAVEDBY
  1
ezdxf
  9
$INSBASE
 10
0.0
 20
0.0
 30
0.0
  9
$EXTMIN
 10
1e+20
 20
1e+20
 30
1e+20
  9
$EXTMAX
 10
-1e+20
 20
-1e+20
 30
-1e+20
  9
$LIMMIN
 10
0.0
 20
0.0
  9
$LIMMAX
 10
420.0
 20
297.0
  9
$ORTHOMODE
 70
0
  9
$REGENMODE
 70
1
  9
$FILLMODE
 70
1
  9
$QTEXTMODE
 70
0
  9
$MIRRTEXT
 70
1
  9
$LTSCALE
 40
1.0
  9
$ATTMODE
 70
1
  9
$TEXTSIZE
 40
2.5
  9
$TRACEWID
 40
1.0
  9
$TEXTSTYLE
  7
Standard
  9
$CLAYER
  8
0
  9
$CELTYPE
  6
ByLayer
  9
$CECOLOR
 62
256
  9
$CELTSCALE
 40
1.0
  9
$DISPSILH
 70
0
  9
$DIMSCALE
 40
1.0
  9
$DIMASZ
 40
2.5
  9
$DIMEXO
 40
0.625
  9
$DIMDLI
 40
3.75
  9
$DIMRND
 40
0.0
  9
$DIMDLE
 40
0.0
  9
$DIMEXE
 40
1.25
  9
$DIMTP
 40
0.0
  9
$DIMTM
 40
0.0
  9
$DIMTXT
 40
2.5
  9
$DIMCEN
 40
2.5
  9
$DIMTSZ
 40
0.0
  9
$DIMTOL
 70
0
  9
$DIMLIM
 70
0
  9
$DIMTIH
 70
0
  9
$DIMTOH
 70
0
  9
$DIMSE1
 70
0
  9
$DIMSE2
 70
0
  9
$DIMTAD
 70
1
  9
$DIMZIN
 70
8
  9
$DIMBLK
  1

  9
$DIMASO
 70
1
  9
$DIMSHO
 70
1
  9
$DIMPOST
  1

  9
$DIMAPOST
  1

  9
$DIMALT
 70
0
  9
$DIMALTD
 70
3
  9
$DIMALTF
 40
0.03937007874
  9
$DIMLFAC
 40
1.0
  9
$DIMTOFL
 70
1
  9
$DIMTVP
 40
0.0
  9
$DIMTIX
 70
0
  9
$DIMSOXD
 70
0
  9
$DIMSAH
 70
0
  9
$DIMBLK1
  1

  9
$DIMBLK2
  1

  9
$DIMSTYLE
  2
ISO-25
  9
$DIMCLRD
 70
0
  9
$DIMCLRE
 70
0
  9
$DIMCLRT
 70
0
  9
$DIMTFAC
 40
1.0
  9
$DIMGAP
 40
0.625
  9
$DIMJUST
 70
0
  9
$DIMSD1
 70
0
  9
$DIMSD2
 70
0
  9
$DIMTOLJ
 70
0
  9
$DIMTZIN
 70
8
  9
$DIMALTZ
 70
0
  9
$DIMALTTZ
 70
0
  9
$DIMUPT
 70
0
  9
$DIMDEC
 70
2
  9
$DIMTDEC
 70
2
  9
$DIMALTU
 70
2
  9
$DIMALTTD
 70
3
  9
$DIMTXSTY
  7
Standard
  9
$DIMAUNIT
 70
0
  9
$DIMADEC
 70
0
  9
$DIMALTRND
 40
0.0
  9
$DIMAZIN
 70
0
  9
$DIMDSEP
 70
44
  9
$DIMATFIT
 70
3
  9
$DIMFRAC
 70
0
  9
$DIMLDRBLK
  1

  9
$DIMLUNIT
 70
2
  9
$DIMLWD
 70
-2
  9
$DIMLWE
 70
-2
  9
$DIMTMOVE
 70
0
  9
$DIMFXL
 40
1.0
  9
$DIMFXLON
 70
0
  9
$DIMJOGANG
 40
0.785398163397
  9
$DIMTFILL
 70
0
  9
$DIMTFILLCLR
 70
0
  9
$DIMARCSYM
 70
0
  9
$DIMLTYPE
  6

  9
$DIMLTEX1
  6

  9
$DIMLTEX2
  6

  9
$DIMTXTDIRECTION
 70
0
  9
$LUNITS
 70
2
  9
$LUPREC
 70
4
  9
$SKETCHINC
 40
1.0
  9
$FILLETRAD
 40
10.0
  9
$AUNITS
 70
0
  9
$AUPREC
 70
2
  9
$MENU
  1
.
  9
$ELEVATION
 40
0.0
  9
$PELEVATION
 40
0.0
  9
$THICKNESS
 40
0.0
  9
$LIMCHECK
 70
0
  9
$CHAMFERA
 40
0.0
  9
$CHAMFERB
 40
0.0
  9
$CHAMFERC
 40
0.0
  9
$CHAMFERD
 40
0.0
  9
$SKPOLY
 70
0
  9
$TDCREATE
 40
2461305.430046296
  9
$TDUCREATE
 40
2458532.153996898
  9
$TDUPDATE
 40
2461305.430046296
  9
$TDUUPDATE
 40
2458532.1544311
  9
$TDINDWG
 40
0.0
  9
$TDUSRTIMER
 40
0.0
  9
$USRTIMER
 70
1
  9
$ANGBASE
 50
0.0
  9
$ANGDIR
 70
0
  9
$PDMODE
 70
0
  9
$PDSIZE
 40
0.0
  9
$PLINEWID
 40
0.0
  9
$SPLFRAME
 70
0
  9
$SPLINETYPE
 70
6
  9
$SPLINESEGS
 70
8
  9
$HANDSEED
  5
5E
  9
$SURFTAB1
 70
6
  9
$SURFTAB2
 70
6
  9
$SURFTYPE
 70
6
  9
$SURFU
 70
6
  9
$SURFV
 70
6
  9
$UCSBASE
  2

  9
$UCSNAME
  2

  9
$UCSORG
 10
0.0
 20
0.0
 30
0.0
  9
$UCSXDIR
 10
1.0
 20
0.0
 30
0.0
  9
$UCSYDIR
 10
0.0
 20
1.0
 30
0.0
  9
$UCSORTHOREF
  2

  9
$UCSORTHOVIEW
 70
0
  9
$UCSORGTOP
 10
0.0
 20
0.0
 30
0.0
  9
$UCSORGBOTTOM
 10
0.0
 20
0.0
 30
0.0
  9
$UCSORGLEFT
 10
0.0
 20
0.0
 30
0.0
  9
$UCSORGRIGHT
 10
0.0
 20
0.0
 30
0.0
  9
$UCSORGFRONT
 10
0.0
 20
0.0
 30
0.0
  9
$UCSORGBACK
 10
0.0
 20
0.0
 30
0.0
  9
$PUCSBASE
  2

  9
$PUCSNAME
  2

  9
$PUCSORG
 10
0.0
 20
0.0
 30
0.0
  9
$PUCSXDIR
 10
1.0
 20
0.0
 30
0.0
  9
$PUCSYDIR
 10
0.0
 20
1.0
 30
0.0
  9
$PUCSORTHOREF
  2

  9
$PUCSORTHOVIEW
 70
0
  9
$PUCSORGTOP
 10
0.0
 20
0.0
 30
0.0
  9
$PUCSORGBOTTOM
 10
0.0
 20
0.0
 30
0.0
  9
$PUCSORGLEFT
 10
0.0
 20
0.0
 30
0.0
  9
$PUCSORGRIGHT
 10
0.0
 20
0.0
 30
0.0
  9
$PUCSORGFRONT
 10
0.0
 20
0.0
 30
0.0
  9
$PUCSORGBACK
 10
0.0
 20
0.0
 30
0.0
  9
$USERI1
 70
0
  9
$USERI2
 70
0
  9
$USERI3
 70
0
  9
$USERI4
 70
0
  9
$USERI5
 70
0
  9
$USERR1
 40
0.0
  9
$USERR2
 40
0.0
  9
$USERR3
 40
0.0
  9
$USERR4
 40
0.0
  9
$USERR5
 40
0.0
  9
$WORLDVIEW
 70
1
  9
$SHADEDGE
 70
3
  9
$SHADEDIF
 70
70
  9
$TILEMODE
 70
1
  9
$MAXACTVP
 70
64
  9
$PINSBASE
 10
0.0
 20
0.0
 30
0.0
  9
$PLIMCHECK
 70
0
  9
$PEXTMIN
 10
1e+20
 20
1e+20
 30
1e+20
  9
$PEXTMAX
 10
-1e+20
 20
-1e+20
 30
-1e+20
  9
$PLIMMIN
 10
0.0
 20
0.0
  9
$PLIMMAX
 10
420.0
 20
297.0
  9
$UNITMODE
 70
0
  9
$VISRETAIN
 70
1
  9
$PLINEGEN
 70
0
  9
$PSLTSCALE
 70
1
  9
$TREEDEPTH
 70
3020
  9
$CMLSTYLE
  2
Standard
  9
$CMLJUST
 70
0
  9
$CMLSCALE
 40
20.0
  9
$PROXYGRAPHICS
 70
1
  9
$MEASUREMENT
 70
1
  9
$CELWEIGHT
370
-1
  9
$ENDCAPS
280
0
  9
$JOINSTYLE
280
0
  9
$LWDISPLAY
290
0
  9
$INSUNITS
 70
4
  9
$HYPERLINKBASE
  1

  9
$STYLESHEET
  1

  9
$XEDIT
290
1
  9
$CEPSNTYPE
380
0
  9
$PSTYLEMODE
290
1
  9
$FINGERPRINTGUID
  2
{02C6C092-161D-45A3-9755-8D80A59E2651}
  9
$VERSIONGUID
  2
{3F57CD52-BEFB-46DB-9B78-252F0BAE63BE}
  9
$EXTNAMES
290
1
  9
$PSVPSCALE
 40
0.0
  9
$OLESTARTUP
290
0
  9
$SORTENTS
280
127
  9
$INDEXCTL
280
0
  9
$HIDETEXT
280
1
  9
$XCLIPFRAME
280
1
  9
$HALOGAP
280
0
  9
$OBSCOLOR
 70
257
  9
$OBSLTYPE
280
0
  9
$INTERSECTIONDISPLAY
280
0
  9
$INTERSECTIONCOLOR
 70
257
  9
$DIMASSOC
280
2
  9
$PROJECTNAME
  1

  9
$CAMERADISPLAY
290
0
  9
$LENSLENGTH
 40
50.0
  9
$CAMERAHEIGHT
 40
0.0
  9
$STEPSPERSEC
 40
24.0
  9
$STEPSIZE
 40
100.0
  9
$3DDWFPREC
 40
2.0
  9
$PSOLWIDTH
 40
0.005
  9
$PSOLHEIGHT
 40
0.08
  9
$LOFTANG1
 40
1.570796326795
  9
$LOFTANG2
 40
1.570796326795
  9
$LOFTMAG1
 40
0.0
  9
$LOFTMAG2
 40
0.0
  9
$LOFTPARAM
 70
7
  9
$LOFTNORMALS
280
1
  9
$LATITUDE
 40
37.795
  9
$LONGITUDE
 40
-122.394
  9
$NORTHDIRECTION
 40
0.0
  9
$TIMEZONE
 70
-8000
  9
$LIGHTGLYPHDISPLAY
280
1
  9
$TILEMODELIGHTSYNCH
280
1
  9
$CMATERIAL
347
20
  9
$SOLIDHIST
280
0
  9
$SHOWHIST
280
1
  9
$DWFFRAME
280
2
  9
$DGNFRAME
280
2
  9
$REALWORLDSCALE
290
1
  9
$INTERFERECOLOR
 62
256
  9
$CSHADOW
280
0
  9
$SHADOWPLANELOCATION
 40
0.0
  0
ENDSEC
  0
SECTION
  2
CLASSES
  0
CLASS
  1
ACDBDICTIONARYWDFLT
  2
AcDbDictionaryWithDefault
  3
ObjectDBX Classes
 90
0
 91
0
280
0
281
0
  0
CLASS
  1
SUN
  2
AcDbSun
  3
SCENEOE
 90
1153
 91
0
280
0
281
0
  0
CLASS
  1
VISUALSTYLE
  2
AcDbVisualStyle
  3
ObjectDBX Classes
 90
4095
 91
0
280
0
281
0
  0
CLASS
  1
MATERIAL
  2
AcDbMaterial
  3
ObjectDBX Classes
 90
1153
 91
0
280
0
281
0
  0
CLASS
  1
SCALE
  2
AcDbScale
  3
ObjectDBX Classes
 90
1153
 91
0
280
0
281
0
  0
CLASS
  1
TABLESTYLE
  2
AcDbTableStyle
  3
ObjectDBX Classes
 90
4095
 91
0
280
0
281
0
  0
CLASS
  1
MLEADERSTYLE
  2
AcDbMLeaderStyle
  3
ACDB_MLEADERSTYLE_CLASS
 90
4095
 91
0
280
0
281
0
  0
CLASS
  1
DICTIONARYVAR
  2
AcDbDictionaryVar
  3
ObjectDBX Classes
 90
0
 91
0
280
0
281
0
  0
CLASS
  1
CELLSTYLEMAP
  2
AcDbCellStyleMap
  3
ObjectDBX Classes
 90
1152
 91
0
280
0
281
0
  0
CLASS
  1
MENTALRAYRENDERSETTINGS
  2
AcDbMentalRayRenderSettings
  3
SCENEOE
 90
1024
 91
0
280
0
281
0
  0
CLASS
  1
ACDBDETAILVIEWSTYLE
  2
AcDbDetailViewStyle
  3
ObjectDBX Classes
 90
1025
 91
0
280
0
281
0
  0
CLASS
  1
ACDBSECTIONVIEWSTYLE
  2
AcDbSectionViewStyle
  3
ObjectDBX Classes
 90
1025
 91
0
280
0
281
0
  0
CLASS
  1
RASTERVARIABLES
  2
AcDbRasterVariables
  3
ISM
 90
0
 91
0
280
0
281
0
  0
CLASS
  1
LAYOUT
  2
AcDbLayout
  3
ObjectDBX Classes
 90
0
 91
0
280
0
281
0
  0
CLASS
  1
ACDBPLACEHOLDER
  2
AcDbPlaceHolder
  3
ObjectDBX Classes
 90
0
 91
0
280
0
281
0
  0
ENDSEC
  0
SECTION
  2
TABLES
  0
TABLE
  2
VPORT
  5
8
330
0
100
AcDbSymbolTable
 70
1
  0
VPORT
  5
23
330
8
100
AcDbSymbolTableRecord
100
AcDbViewportTableRecord
  2
*Active
 70
0
 10
0.0
 20
0.0
 11
1.0
 21
1.0
 12
0.0
 22
0.0
 13
0.0
 23
0.0
 14
0.5
 24
0.5
 15
0.5
 25
0.5
 16
0.0
 26
0.0
 36
1.0
 17
0.0
 27
0.0
 37
0.0
 40
1000.0
 41
1.34
 42
50.0
 43
0.0
 44
0.0
 50
0.0
 51
0.0
 71
0
 72
1000
 73
1
 74
3
 75
0
 76
0
 77
0
 78
0
281
0
 65
0
146
0.0
  0
ENDTAB
  0
TABLE
  2
LTYPE
  5
2
330
0
100
AcDbSymbolTable
 70
3
  0
LTYPE
  5
24
330
2
100
AcDbSymbolTableRecord
100
AcDbLinetypeTableRecord
  2
ByBlock
 70
0
  3

 72
65
 73
0
 40
0.0
  0
LTYPE
  5
25
330
2
100
AcDbSymbolTableRecord
100
AcDbLinetypeTableRecord
  2
ByLayer
 70
0
  3

 72
65
 73
0
 40
0.0
  0
LTYPE
  5
26
330
2
100
AcDbSymbolTableRecord
100
AcDbLinetypeTableRecord
  2
Continuous
 70
0
  3

 72
65
 73
0
 40
0.0
  0
ENDTAB
  0
TABLE
  2
LAYER
  5
1
330
0
100
AcDbSymbolTable
 70
6
  0
LAYER
  5
27
330
1
100
AcDbSymbolTableRecord
100
AcDbLayerTableRecord
  2
0
 70
0
 62
7
  6
Continuous
370
-3
390
13
347
21
  0
LAYER
  5
28
330
1
100
AcDbSymbolTableRecord
100
AcDbLayerTableRecord
  2
Defpoints
 70
0
 62
7
  6
Continuous
290
0
370
-3
390
13
347
21
  0
LAYER
  5
2F
330
1
100
AcDbSymbolTableRecord
100
AcDbLayerTableRecord
  2
PLATE_OUTLINE
 70
0
 62
7
  6
Continuous
370
-3
390
13
347
21
  0
LAYER
  5
30
330
1
100
AcDbSymbolTableRecord
100
AcDbLayerTableRecord
  2
SWITCH_CUTOUTS
 70
0
 62
3
  6
Continuous
370
-3
390
13
347
21
  0
LAYER
  5
31
330
1
100
AcDbSymbolTableRecord
100
AcDbLayerTableRecord
  2
STAB_CLEARANCE
 70
0
 62
1
  6
Continuous
370
-3
390
13
347
21
  0
LAYER
  5
32
330
1
100
AcDbSymbolTableRecord
100
AcDbLayerTableRecord
  2
STANDOFF_HOLES
 70
0
 62
5
  6
Continuous
370
-3
390
13
347
21
  0
ENDTAB
  0
TABLE
  2
STYLE
  5
5
330
0
100
AcDbSymbolTable
 70
1
  0
STYLE
  5
29
330
5
100
AcDbSymbolTableRecord
100
AcDbTextStyleTableRecord
  2
Standard
 70
0
 40
0.0
 41
1.0
 50
0.0
 71
0
 42
2.5
  3
txt
  4

  0
ENDTAB
  0
TABLE
  2
VIEW
  5
7
330
0
100
AcDbSymbolTable
 70
0
  0
ENDTAB
  0
TABLE
  2
UCS
  5
6
330
0
100
AcDbSymbolTable
 70
0
  0
ENDTAB
  0
TABLE
  2
APPID
  5
3
330
0
100
AcDbSymbolTable
 70
3
  0
APPID
  5
2A
330
3
100
AcDbSymbolTableRecord
100
AcDbRegAppTableRecord
  2
ACAD
 70
0
  0
APPID
  5
5B
330
3
100
AcDbSymbolTableRecord
100
AcDbRegAppTableRecord
  2
HATCHBACKGROUNDCOLOR
 70
0
  0
APPID
  5
5C
330
3
100
AcDbSymbolTableRecord
100
AcDbRegAppTableRecord
  2
EZDXF
 70
0
  0
ENDTAB
  0
TABLE
  2
DIMSTYLE
  5
4
330
0
100
AcDbSymbolTable
 70
1
100
AcDbDimStyleTable
  0
DIMSTYLE
105
2B
330
4
100
AcDbSymbolTableRecord
100
AcDbDimStyleTableRecord
  2
Standard
 70
0
 40
1.0
 41
2.5
 42
0.625
 43
3.75
 44
1.25
 45
0.0
 46
0.0
 47
0.0
 48
0.0
 49
2.5
140
2.5
141
2.5
142
0.0
143
0.03937007874
144
1.0
145
0.0
146
1.0
147
0.625
148
0.0
 69
0
 70
0
 71
0
 72
0
 73
0
 74
0
 75
0
 76
0
 77
1
 78
8
 79
3
170
0
171
3
172
1
173
0
174
0
175
0
176
0
177
0
178
0
179
2
271
2
272
2
273
2
274
3
275
0
276
0
277
2
278
44
279
0
280
0
281
0
282
0
283
0
284
8
285
0
286
0
288
0
289
3
290
0
371
-2
372
-2
  0
ENDTAB
  0
TABLE
  2
BLOCK_RECORD
  5
9
330
0
100
AcDbSymbolTable
 70
2
  0
BLOCK_RECORD
  5
17
330
9
100
AcDbSymbolTableRecord
100
AcDbBlockTableRecord
  2
*Model_Space
340
1A
 70
0
280
1
281
0
  0
BLOCK_RECORD
  5
1B
330
9
100
AcDbSymbolTableRecord
100
AcDbBlockTableRecord
  2
*Paper_Space
340
1E
 70
0
280
1
281
0
  0
ENDTAB
  0
ENDSEC
  0
SECTION
  2
BLOCKS
  0
BLOCK
  5
18
330
17
100
AcDbEntity
  8
0
100
AcDbBlockBegin
  2
*Model_Space
 70
0
 10
0.0
 20
0.0
 30
0.0
  3
*Model_Space
  1

  0
ENDBLK
  5
19
330
17
100
AcDbEntity
  8
0
100
AcDbBlockEnd
  0
BLOCK
  5
1C
330
1B
100
AcDbEntity
  8
0
100
AcDbBlockBegin
  2
*Paper_Space
 70
0
 10
0.0
 20
0.0
 30
0.0
  3
*Paper_Space
  1

  0
ENDBLK
  5
1D
330
1B
100
AcDbEntity
  8
0
100
AcDbBlockEnd
  0
ENDSEC
  0
SECTION
  2
ENTITIES
  0
LWPOLYLINE
  5
33
330
17
100
AcDbEntity
  8
PLATE_OUTLINE
100
AcDbPolyline
 90
140
 70
1
 10
-6.4313127185087495
 20
13.673349686467878
 10
-6.682870184930587
 20
13.804305401019782
 10
-6.887547077086549
 20
14.000616195179832
 10
-7.028881118313148
 20
14.246492682215358
 10
-7.0955047327979255
 20
14.522158879053777
 10
-7.1
 20
23.783410591370338
 10
-7.082059346046141
 20
23.971982701830566
 10
-7.0288811183131505
 20
24.153788598332564
 10
-6.8875470770865554
 20
24.39966508536809
 10
-6.757209556990417
 20
24.53711849115676
 10
-6.519185961368097
 20
24.69131098777509
 10
-6.2761501445780254
 20
24.78141616202519
 10
-5.845713506523195
 20
24.899972437348673
 10
-5.372010972729991
 20
25.006018921675935
 10
-3.3463889349224383
 20
25.390343197473413
 10
-2.8864238595434935
 20
25.492181697169734
 10
-2.477549862379873
 20
25.601508477828226
 10
-2.1011854878607243
 20
25.73507972449473
 10
-2.1
 20
80.75227950667664
 10
-2.1011684493104137
 20
80.77563717071429
 10
-2.140952647593791
 20
80.79285443175002
 10
-2.4416187185237503
 20
80.89843183070252
 10
-2.8864238595433016
 20
81.0188758039434
 10
-3.3463889349222122
 20
81.12071430363973
 10
-5.37201097272989
 20
81.50503857943723
 10
-5.845713506523323
 20
81.61108506376453
 10
-6.276150144577913
 20
81.72964133908796
 10
-6.519185961368084
 20
81.8197465133381
 10
-6.757209556990409
 20
81.97393900995642
 10
-6.88754707708655
 20
82.1113924157451
 10
-7.028881118313148
 20
82.35726890278063
 10
-7.082059346046141
 20
82.53907479928263
 10
-7.1
 20
82.72764690974286
 10
-7.1
 20
91.89418681193558
 10
-7.059784720956816
 20
92.17492385868547
 10
-6.989626378017932
 20
92.350875882896
 10
-6.825640263917386
 20
92.58226108654691
 10
-6.603290498420024
 20
92.75830409228595
 10
-6.276150144578042
 20
92.89219238259044
 10
-5.802784410898259
 20
93.0212689252643
 10
-4.868554950122671
 20
93.21558031531153
 10
-3.3341119419247143
 20
93.50368079174189
 10
-2.4775498623797914
 20
93.71228469839352
 10
-2.1390665786417693
 20
93.82964157368257
 10
-2.1011854878607243
 20
93.84585594505997
 10
-2.095184726672197
 20
94.10888335511112
 10
-2.056940335732209
 20
94.30115089203602
 10
-1.981921264348355
 20
94.48226295160755
 10
-1.873010453362737
 20
94.64525949894521
 10
-1.7343932841636454
 20
94.7838766681443
 10
-1.4826834323650897
 20
94.93474574729285
 10
-1.2950903220161283
 20
94.99165149518478
 10
-1.1
 20
95.01086621478156
 10
72.93116012340974
 20
95.02016520675137
 10
144.05256553868728
 20
106.28391145241999
 10
144.33952619533812
 20
106.28766797219778
 10
144.61573664537426
 20
106.20976856785373
 10
144.85844804976506
 20
106.056629075609
 10
145.04767056863056
 20
105.84086214519445
 10
145.16781973504683
 20
105.5802384553353
 10
145.209
 20
105.29622311123447
 10
145.2101684493104
 20
93.84619655096414
 10
145.55061871852365
 20
93.72340189097596
 10
145.99542385954373
 20
93.60295791773493
 10
146.45538893492215
 20
93.50111941803871
 10
148.48101097273002
 20
93.11679514224117
 10
148.95471350652323
 20
93.01074865791391
 10
149.5403127185087
 20
92.83770781464534
 10
149.71229049841995
 20
92.75830409228601
 10
149.86620955699038
 20
92.64789471172206
 10
150.05137342116427
 20
92.4330810680898
 10
150.1687847209568
 20
92.1749238586855
 10
150.209
 20
91.8941868119356
 10
150.209
 20
82.72764690974284
 10
150.19105934604613
 20
82.5390747992826
 10
150.13788111831315
 20
82.3572689027806
 10
150.0513734211643
 20
82.18875265358865
 10
149.86620955699038
 20
81.9739390099564
 10
149.62818596136805
 20
81.81974651333807
 10
149.3851501445779
 20
81.72964133908795
 10
148.95471350652335
 20
81.61108506376455
 10
148.48101097272982
 20
81.50503857943721
 10
146.45538893492218
 20
81.12071430363972
 10
145.99542385954308
 20
81.01887580394336
 10
145.58654986237968
 20
80.9095490232849
 10
145.2101854878607
 20
80.77597777661845
 10
145.2101684493104
 20
42.76311438554022
 10
145.55061871852348
 20
42.640319725552075
 10
145.9954238595434
 20
42.51987575231107
 10
146.4553889349224
 20
42.41803725261473
 10
148.48101097272996
 20
42.03371297681725
 10
148.9547135065231
 20
41.92766649249002
 10
149.38515014457798
 20
41.80911021716652
 10
149.62818596136808
 20
41.719005042916415
 10
149.8662095569904
 20
41.564812546298086
 10
150.0513734211643
 20
41.34999890266583
 10
150.13788111831315
 20
41.181482653473886
 10
150.19105934604613
 20
40.99967675697189
 10
150.209
 20
40.81110464651165
 10
150.209
 20
31.6445647443189
 10
150.1687847209568
 20
31.363827697569004
 10
150.0513734211643
 20
31.105670488164723
 10
149.8662095569904
 20
30.890856844532465
 10
149.71229049842
 20
30.780447463968507
 10
149.54031271850874
 20
30.701043741609187
 10
148.95471350652323
 20
30.528002898340578
 10
148.48101097273
 20
30.42195641401332
 10
146.45538893492258
 20
30.03763213821587
 10
145.99542385954354
 20
29.935793638519524
 10
145.58654986237988
 20
29.826466857861018
 10
145.2101854878607
 20
29.6928956111945
 10
145.209
 20
9.733836049834679
 10
145.18978528040324
 20
9.53874572781855
 10
145.09092126434837
 20
9.26243931300868
 10
144.91610678118656
 20
9.02672926864813
 10
144.7645702330196
 20
8.902366437532134
 10
144.49928467725448
 20
8.77689571410247
 10
144.209
 20
8.733836049834679
 10
135.68026941382752
 20
8.730748650430069
 10
101.66529565571494
 20
3.329519919072964
 10
80.41966995218205
 20
0.9642223399927068
 10
62.9099748564367
 20
0.04656752409926779
 10
62.478946357600286
 20
0.06669946799078208
 10
61.86749325047846
 20
0.21490541239094194
 10
61.5602335112385
 20
0.24
 10
-1.1
 20
0.24
 10
-1.2950903220161287
 20
0.25921471959676967
 10
-1.4826834323650904
 20
0.3161204674887135
 10
-1.6555702330196023
 20
0.40853038769745476
 10
-1.8071067811865478
 20
0.5328932188134525
 10
-1.9314696123025454
 20
0.684429766980398
 10
-2.023879532511287
 20
0.8573165676349104
 10
-2.095184726672197
 20
1.1419828596704393
 10
-2.1011684493104137
 20
12.664860950149036
 10
-2.4416187185237344
 20
12.78765561013726
 10
-2.886423859543605
 20
12.908099583378224
 10
-3.346388934922652
 20
13.00993808307456
 10
-5.3720109727299565
 20
13.39426235887199
 10
-5.845713506523134
 20
13.50030884319924
 10
-6.4313127185087495
 20
13.673349686467878
  0
LWPOLYLINE
  5
34
330
17
100
AcDbEntity
  8
SWITCH_CUTOUTS
100
AcDbPolyline
 90
5
 70
1
 10
20.81
 20
2.5250000000000004
 10
20.81
 20
16.525
 10
6.809999999999999
 20
16.525
 10
6.809999999999999
 20
2.5250000000000004
 10
20.81
 20
2.5250000000000004
  0
LWPOLYLINE
  5
35
330
17
100
AcDbEntity
  8
SWITCH_CUTOUTS
100
AcDbPolyline
 90
5
 70
1
 10
39.86
 20
2.5250000000000004
 10
39.86
 20
16.525
 10
25.86
 20
16.525
 10
25.86
 20
2.5250000000000004
 10
39.86
 20
2.5250000000000004
  0
LWPOLYLINE
  5
36
330
17
100
AcDbEntity
  8
SWITCH_CUTOUTS
100
AcDbPolyline
 90
5
 70
1
 10
58.91
 20
2.5250000000000004
 10
58.91
 20
16.525
 10
44.91
 20
16.525
 10
44.91
 20
2.5250000000000004
 10
58.91
 20
2.5250000000000004
  0
LWPOLYLINE
  5
37
330
17
100
AcDbEntity
  8
SWITCH_CUTOUTS
100
AcDbPolyline
 90
5
 70
1
 10
78.35075843698263
 20
3.1439449504185912
 10
77.61805504958141
 20
17.124758436982624
 10
63.637241563017376
 20
16.39205504958141
 10
64.36994495041858
 20
2.411241563017377
 10
78.35075843698263
 20
3.1439449504185912
  0
LWPOLYLINE
  5
38
330
17
100
AcDbEntity
  8
SWITCH_CUTOUTS
100
AcDbPolyline
 90
5
 70
1
 10
98.08235251045149
 20
5.247045975295662
 10
96.61895402470434
 20
19.170352510451487
 10
82.6956474895485
 20
17.706954024704338
 10
84.15904597529565
 20
3.783647489548513
 10
98.08235251045149
 20
5.247045975295662
  0
LWPOLYLINE
  5
39
330
17
100
AcDbEntity
  8
SWITCH_CUTOUTS
100
AcDbPolyline
 90
5
 70
1
 10
117.11685963944758
 20
8.090222871115653
 10
114.92677712888435
 20
21.91785963944758
 10
101.09914036055243
 20
19.727777128884348
 10
103.28922287111565
 20
5.90014036055242
 10
117.11685963944758
 20
8.090222871115653
  0
LWPOLYLINE
  5
3A
330
17
100
AcDbEntity
  8
SWITCH_CUTOUTS
100
AcDbPolyline
 90
5
 70
1
 10
135.9198596394476
 20
11.083222871115654
 10
133.72977712888434
 20
24.91085963944758
 10
119.90214036055242
 20
22.72077712888435
 10
122.09222287111565
 20
8.89314036055242
 10
135.9198596394476
 20
11.083222871115654
  0
LWPOLYLINE
  5
3B
330
17
100
AcDbEntity
  8
SWITCH_CUTOUTS
100
AcDbPolyline
 90
5
 70
1
 10
23.668
 20
21.575000000000003
 10
23.668
 20
35.575
 10
9.668
 20
35.575
 10
9.668
 20
21.575000000000003
 10
23.668
 20
21.575000000000003
  0
LWPOLYLINE
  5
3C
330
17
100
AcDbEntity
  8
SWITCH_CUTOUTS
100
AcDbPolyline
 90
5
 70
1
 10
47.48
 20
21.575000000000003
 10
47.48
 20
35.575
 10
33.48
 20
35.575
 10
33.48
 20
21.575000000000003
 10
47.48
 20
21.575000000000003
  0
LWPOLYLINE
  5
3D
330
17
100
AcDbEntity
  8
SWITCH_CUTOUTS
100
AcDbPolyline
 90
5
 70
1
 10
66.53
 20
21.575000000000003
 10
66.53
 20
35.575
 10
52.529999999999994
 20
35.575
 10
52.529999999999994
 20
21.575000000000003
 10
66.53
 20
21.575000000000003
  0
LWPOLYLINE
  5
3E
330
17
100
AcDbEntity
  8
SWITCH_CUTOUTS
100
AcDbPolyline
 90
5
 70
1
 10
86.49135251045149
 20
23.101045975295662
 10
85.02795402470434
 20
37.024352510451486
 10
71.10464748954851
 20
35.56095402470434
 10
72.56804597529566
 20
21.637647489548513
 10
86.49135251045149
 20
23.101045975295662
  0
LWPOLYLINE
  5
3F
330
17
100
AcDbEntity
  8
SWITCH_CUTOUTS
100
AcDbPolyline
 90
5
 70
1
 10
105.43435251045149
 20
25.08604597529566
 10
103.97095402470434
 20
39.009352510451485
 10
90.04764748954851
 20
37.545954024704336
 10
91.51104597529566
 20
23.622647489548513
 10
105.43435251045149
 20
25.08604597529566
  0
LWPOLYLINE
  5
40
330
17
100
AcDbEntity
  8
SWITCH_CUTOUTS
100
AcDbPolyline
 90
5
 70
1
 10
124.46685963944758
 20
28.393222871115654
 10
122.27677712888435
 20
42.22085963944758
 10
108.44914036055242
 20
40.03077712888435
 10
110.63922287111565
 20
26.203140360552425
 10
124.46685963944758
 20
28.393222871115654
  0
LWPOLYLINE
  5
41
330
17
100
AcDbEntity
  8
SWITCH_CUTOUTS
100
AcDbPolyline
 90
5
 70
1
 10
143.2778596394476
 20
31.38222287111565
 10
141.08777712888434
 20
45.20985963944758
 10
127.26014036055243
 20
43.01977712888435
 10
129.45022287111567
 20
29.192140360552422
 10
143.2778596394476
 20
31.38222287111565
  0
LWPOLYLINE
  5
42
330
17
100
AcDbEntity
  8
SWITCH_CUTOUTS
100
AcDbPolyline
 90
5
 70
1
 10
25.097
 20
40.625
 10
25.097
 20
54.625
 10
11.097000000000001
 20
54.625
 10
11.097000000000001
 20
40.625
 10
25.097
 20
40.625
  0
LWPOLYLINE
  5
43
330
17
100
AcDbEntity
  8
SWITCH_CUTOUTS
100
AcDbPolyline
 90
5
 70
1
 10
51.291
 20
40.625
 10
51.291
 20
54.625
 10
37.291
 20
54.625
 10
37.291
 20
40.625
 10
51.291
 20
40.625
  0
LWPOLYLINE
  5
44
330
17
100
AcDbEntity
  8
SWITCH_CUTOUTS
100
AcDbPolyline
 90
5
 70
1
 10
71.91175843698264
 20
41.212944950418596
 10
71.17905504958142
 20
55.19375843698263
 10
57.19824156301738
 20
54.46105504958141
 10
57.9309449504186
 20
40.48024156301738
 10
71.91175843698264
 20
41.212944950418596
  0
LWPOLYLINE
  5
45
330
17
100
AcDbEntity
  8
SWITCH_CUTOUTS
100
AcDbPolyline
 90
5
 70
1
 10
91.45235251045148
 20
42.66404597529566
 10
89.98895402470433
 20
56.58735251045149
 10
76.0656474895485
 20
55.12395402470434
 10
77.52904597529565
 20
41.20064748954851
 10
91.45235251045148
 20
42.66404597529566
  0
LWPOLYLINE
  5
46
330
17
100
AcDbEntity
  8
SWITCH_CUTOUTS
100
AcDbPolyline
 90
5
 70
1
 10
110.27585963944757
 20
45.27822287111565
 10
108.08577712888435
 20
59.10585963944758
 10
94.25814036055242
 20
56.91577712888435
 10
96.44822287111565
 20
43.08814036055242
 10
110.27585963944757
 20
45.27822287111565
  0
LWPOLYLINE
  5
47
330
17
100
AcDbEntity
  8
SWITCH_CUTOUTS
100
AcDbPolyline
 90
5
 70
1
 10
129.0788596394476
 20
48.25722287111565
 10
126.88877712888436
 20
62.08485963944758
 10
113.06114036055243
 20
59.89477712888435
 10
115.25122287111566
 20
46.06714036055242
 10
129.0788596394476
 20
48.25722287111565
  0
LWPOLYLINE
  5
48
330
17
100
AcDbEntity
  8
SWITCH_CUTOUTS
100
AcDbPolyline
 90
5
 70
1
 10
25.097
 20
59.675
 10
25.097
 20
73.675
 10
11.097000000000001
 20
73.675
 10
11.097000000000001
 20
59.675
 10
25.097
 20
59.675
  0
LWPOLYLINE
  5
49
330
17
100
AcDbEntity
  8
SWITCH_CUTOUTS
100
AcDbPolyline
 90
5
 70
1
 10
56.053
 20
59.675
 10
56.053
 20
73.675
 10
42.053
 20
73.675
 10
42.053
 20
59.675
 10
56.053
 20
59.675
  0
LWPOLYLINE
  5
4A
330
17
100
AcDbEntity
  8
SWITCH_CUTOUTS
100
AcDbPolyline
 90
5
 70
1
 10
75.30475843698261
 20
60.52494495041859
 10
74.57205504958141
 20
74.50575843698263
 10
60.59124156301737
 20
73.77305504958142
 10
61.323944950418586
 20
59.79224156301738
 10
75.30475843698261
 20
60.52494495041859
  0
LWPOLYLINE
  5
4B
330
17
100
AcDbEntity
  8
SWITCH_CUTOUTS
100
AcDbPolyline
 90
5
 70
1
 10
94.89135251045148
 20
62.307045975295665
 10
93.42795402470433
 20
76.2303525104515
 10
79.5046474895485
 20
74.76695402470435
 10
80.96804597529565
 20
60.843647489548516
 10
94.89135251045148
 20
62.307045975295665
  0
LWPOLYLINE
  5
4C
330
17
100
AcDbEntity
  8
SWITCH_CUTOUTS
100
AcDbPolyline
 90
5
 70
1
 10
113.71285963944757
 20
65.30822287111565
 10
111.52277712888434
 20
79.13585963944757
 10
97.69514036055241
 20
76.94577712888434
 10
99.88522287111564
 20
63.11814036055242
 10
113.71285963944757
 20
65.30822287111565
  0
LWPOLYLINE
  5
4D
330
17
100
AcDbEntity
  8
SWITCH_CUTOUTS
100
AcDbPolyline
 90
5
 70
1
 10
132.5518596394476
 20
68.29122287111565
 10
130.36177712888434
 20
82.11885963944758
 10
116.53414036055243
 20
79.92877712888435
 10
118.72422287111566
 20
66.10114036055242
 10
132.5518596394476
 20
68.29122287111565
  0
LWPOLYLINE
  5
4E
330
17
100
AcDbEntity
  8
SWITCH_CUTOUTS
100
AcDbPolyline
 90
5
 70
1
 10
22.715
 20
78.72499999999998
 10
22.715
 20
92.72499999999998
 10
8.715
 20
92.72499999999998
 10
8.715
 20
78.72499999999998
 10
22.715
 20
78.72499999999998
  0
LWPOLYLINE
  5
4F
330
17
100
AcDbEntity
  8
SWITCH_CUTOUTS
100
AcDbPolyline
 90
5
 70
1
 10
51.291
 20
78.72499999999998
 10
51.291
 20
92.72499999999998
 10
37.291
 20
92.72499999999998
 10
37.291
 20
78.72499999999998
 10
51.291
 20
78.72499999999998
  0
LWPOLYLINE
  5
50
330
17
100
AcDbEntity
  8
SWITCH_CUTOUTS
100
AcDbPolyline
 90
5
 70
1
 10
92.90008551045149
 20
81.25268797529566
 10
91.43668702470434
 20
95.17599451045149
 10
77.51338048954851
 20
93.71259602470434
 10
78.97677897529566
 20
79.78928948954851
 10
92.90008551045149
 20
81.25268797529566
  0
LWPOLYLINE
  5
51
330
17
100
AcDbEntity
  8
SWITCH_CUTOUTS
100
AcDbPolyline
 90
5
 70
1
 10
129.57178263944758
 20
87.10668587111564
 10
127.38170012888435
 20
100.93432263944757
 10
113.55406336055242
 20
98.74424012888434
 10
115.74414587111565
 20
84.91660336055241
 10
129.57178263944758
 20
87.10668587111564
  0
LWPOLYLINE
  5
52
330
17
100
AcDbEntity
  8
SWITCH_CUTOUTS
100
AcDbPolyline
 90
5
 70
1
 10
20.3345
 20
40.625
 10
20.3345
 20
54.625
 10
6.3345
 20
54.625
 10
6.3345
 20
40.625
 10
20.3345
 20
40.625
  0
LWPOLYLINE
  5
53
330
17
100
AcDbEntity
  8
STAB_CLEARANCE
100
AcDbPolyline
 90
5
 70
1
 10
2.6907500000000013
 20
75.11
 10
9.690750000000001
 20
75.11
 10
9.690750000000001
 20
59.51
 10
2.6907500000000013
 20
59.51
 10
2.6907500000000013
 20
75.11
  0
LWPOLYLINE
  5
54
330
17
100
AcDbEntity
  8
STAB_CLEARANCE
100
AcDbPolyline
 90
5
 70
1
 10
26.50325
 20
75.11
 10
33.50325
 20
75.11
 10
33.50325
 20
59.51
 10
26.50325
 20
59.51
 10
26.50325
 20
75.11
  0
LWPOLYLINE
  5
55
330
17
100
AcDbEntity
  8
STAB_CLEARANCE
100
AcDbPolyline
 90
5
 70
1
 10
114.57969259948646
 20
83.27928462533556
 10
107.6658742153205
 20
82.18424337005395
 10
105.2254965606929
 20
97.5921814833381
 10
112.13931494485887
 20
98.68722273861971
 10
114.57969259948646
 20
83.27928462533556
  0
LWPOLYLINE
  5
56
330
17
100
AcDbEntity
  8
STAB_CLEARANCE
100
AcDbPolyline
 90
5
 70
1
 10
138.0990212099082
 20
87.00438032410607
 10
131.1852028257422
 20
85.90933906882445
 10
128.74482517111463
 20
101.3172771821086
 10
135.65864355528058
 20
102.41231843739021
 10
138.0990212099082
 20
87.00438032410607
  0
LWPOLYLINE
  5
57
330
17
100
AcDbEntity
  8
STANDOFF_HOLES
100
AcDbPolyline
 90
129
 70
1
 10
29.1
 20
22.0
 10
29.09867500182569
 20
21.94602555823984
 10
29.094703199339417
 20
21.892181145637483
 10
29.08809416096126
 20
21.838596478099102
 10
29.078863808443554
 20
21.78540064578226
 10
29.067034378514
 20
21.73272180210641
 10
29.05263436930543
 20
21.68068685502009
 10
29.035698471701323
 20
21.629421161268557
 10
29.016267485762416
 20
21.579048224398402
 10
28.994388222435788
 20
21.52968939722669
 10
28.97011339078319
 20
21.4814635894914
 10
28.9435014710003
 20
21.434486981387455
 10
28.9146165735328
 20
21.388872743678437
 10
28.88352828462871
 20
21.344730765058323
 10
28.85031149869901
 20
21.30216738741999
 10
28.815046237890456
 20
21.26128514966828
 10
28.7778174593052
 20
21.2221825406948
 10
28.73871485033172
 20
21.184953762109544
 10
28.69783261258001
 20
21.14968850130099
 10
28.655269234941677
 20
21.11647171537129
 10
28.611127256321563
 20
21.0853834264672
 10
28.565513018612545
 20
21.0564985289997
 10
28.5185364105086
 20
21.02988660921681
 10
28.47031060277331
 20
21.005611777564212
 10
28.420951775601598
 20
20.983732514237584
 10
28.370578838731443
 20
20.964301528298677
 10
28.31931314497991
 20
20.94736563069457
 10
28.26727819789359
 20
20.932965621486
 10
28.214599354217743
 20
20.921136191556446
 10
28.161403521900898
 20
20.91190583903874
 10
28.107818854362517
 20
20.905296800660583
 10
28.05397444176016
 20
20.90132499817431
 10
28.0
 20
20.9
 10
27.94602555823984
 20
20.90132499817431
 10
27.892181145637483
 20
20.905296800660583
 10
27.838596478099102
 20
20.91190583903874
 10
27.78540064578226
 20
20.921136191556446
 10
27.73272180210641
 20
20.932965621486
 10
27.68068685502009
 20
20.94736563069457
 10
27.629421161268557
 20
20.964301528298677
 10
27.579048224398402
 20
20.983732514237584
 10
27.52968939722669
 20
21.005611777564212
 10
27.4814635894914
 20
21.02988660921681
 10
27.434486981387455
 20
21.0564985289997
 10
27.388872743678437
 20
21.0853834264672
 10
27.344730765058323
 20
21.11647171537129
 10
27.30216738741999
 20
21.14968850130099
 10
27.26128514966828
 20
21.184953762109544
 10
27.2221825406948
 20
21.2221825406948
 10
27.184953762109544
 20
21.26128514966828
 10
27.14968850130099
 20
21.30216738741999
 10
27.11647171537129
 20
21.344730765058323
 10
27.0853834264672
 20
21.388872743678437
 10
27.0564985289997
 20
21.434486981387455
 10
27.02988660921681
 20
21.4814635894914
 10
27.005611777564212
 20
21.52968939722669
 10
26.983732514237584
 20
21.579048224398402
 10
26.964301528298677
 20
21.629421161268557
 10
26.94736563069457
 20
21.68068685502009
 10
26.932965621486
 20
21.73272180210641
 10
26.921136191556446
 20
21.785400645782257
 10
26.91190583903874
 20
21.838596478099102
 10
26.905296800660583
 20
21.892181145637483
 10
26.90132499817431
 20
21.94602555823984
 10
26.9
 20
22.0
 10
26.90132499817431
 20
22.05397444176016
 10
26.905296800660583
 20
22.107818854362517
 10
26.91190583903874
 20
22.161403521900898
 10
26.921136191556446
 20
22.214599354217743
 10
26.932965621486
 20
22.26727819789359
 10
26.94736563069457
 20
22.31931314497991
 10
26.964301528298677
 20
22.370578838731443
 10
26.983732514237584
 20
22.420951775601598
 10
27.005611777564212
 20
22.47031060277331
 10
27.02988660921681
 20
22.5185364105086
 10
27.0564985289997
 20
22.565513018612545
 10
27.0853834264672
 20
22.611127256321563
 10
27.11647171537129
 20
22.655269234941677
 10
27.14968850130099
 20
22.697832612580008
 10
27.184953762109544
 20
22.73871485033172
 10
27.222182540694796
 20
22.7778174593052
 10
27.26128514966828
 20
22.815046237890456
 10
27.30216738741999
 20
22.85031149869901
 10
27.344730765058323
 20
22.88352828462871
 10
27.388872743678437
 20
22.9146165735328
 10
27.434486981387455
 20
22.9435014710003
 10
27.4814635894914
 20
22.97011339078319
 10
27.52968939722669
 20
22.994388222435788
 10
27.579048224398402
 20
23.016267485762416
 10
27.629421161268557
 20
23.035698471701323
 10
27.68068685502009
 20
23.05263436930543
 10
27.73272180210641
 20
23.067034378514
 10
27.785400645782257
 20
23.078863808443554
 10
27.838596478099102
 20
23.08809416096126
 10
27.892181145637483
 20
23.094703199339417
 10
27.94602555823984
 20
23.09867500182569
 10
28.0
 20
23.1
 10
28.05397444176016
 20
23.09867500182569
 10
28.107818854362517
 20
23.094703199339417
 10
28.161403521900898
 20
23.08809416096126
 10
28.214599354217743
 20
23.078863808443554
 10
28.26727819789359
 20
23.067034378514
 10
28.31931314497991
 20
23.05263436930543
 10
28.37057883873144
 20
23.035698471701323
 10
28.420951775601598
 20
23.016267485762416
 10
28.47031060277331
 20
22.994388222435788
 10
28.5185364105086
 20
22.97011339078319
 10
28.565513018612545
 20
22.9435014710003
 10
28.611127256321563
 20
22.9146165735328
 10
28.655269234941677
 20
22.88352828462871
 10
28.69783261258001
 20
22.85031149869901
 10
28.73871485033172
 20
22.815046237890456
 10
28.7778174593052
 20
22.777817459305204
 10
28.815046237890456
 20
22.73871485033172
 10
28.85031149869901
 20
22.69783261258001
 10
28.88352828462871
 20
22.655269234941677
 10
28.9146165735328
 20
22.611127256321563
 10
28.9435014710003
 20
22.565513018612545
 10
28.97011339078319
 20
22.5185364105086
 10
28.994388222435788
 20
22.47031060277331
 10
29.016267485762416
 20
22.4209517756016
 10
29.035698471701323
 20
22.370578838731443
 10
29.05263436930543
 20
22.31931314497991
 10
29.067034378514
 20
22.267278197893592
 10
29.078863808443554
 20
22.214599354217743
 10
29.08809416096126
 20
22.161403521900898
 10
29.094703199339417
 20
22.107818854362517
 10
29.09867500182569
 20
22.05397444176016
 10
29.1
 20
22.0
  0
LWPOLYLINE
  5
58
330
17
100
AcDbEntity
  8
STANDOFF_HOLES
100
AcDbPolyline
 90
129
 70
1
 10
39.1
 20
66.0
 10
39.09867500182569
 20
65.94602555823984
 10
39.09470319933941
 20
65.89218114563748
 10
39.08809416096126
 20
65.8385964780991
 10
39.07886380844355
 20
65.78540064578226
 10
39.067034378513995
 20
65.73272180210641
 10
39.05263436930543
 20
65.68068685502008
 10
39.03569847170132
 20
65.62942116126855
 10
39.01626748576241
 20
65.5790482243984
 10
38.99438822243579
 20
65.52968939722669
 10
38.97011339078319
 20
65.4814635894914
 10
38.943501471000296
 20
65.43448698138745
 10
38.9146165735328
 20
65.38887274367843
 10
38.88352828462871
 20
65.34473076505833
 10
38.850311498699014
 20
65.30216738741998
 10
38.815046237890456
 20
65.26128514966828
 10
38.777817459305204
 20
65.2221825406948
 10
38.73871485033172
 20
65.18495376210954
 10
38.69783261258001
 20
65.14968850130099
 10
38.65526923494168
 20
65.11647171537129
 10
38.61112725632156
 20
65.0853834264672
 10
38.56551301861254
 20
65.0564985289997
 10
38.518536410508595
 20
65.0298866092168
 10
38.47031060277331
 20
65.00561177756421
 10
38.4209517756016
 20
64.98373251423759
 10
38.37057883873144
 20
64.96430152829868
 10
38.31931314497991
 20
64.94736563069458
 10
38.26727819789359
 20
64.932965621486
 10
38.21459935421774
 20
64.92113619155644
 10
38.1614035219009
 20
64.91190583903874
 10
38.10781885436252
 20
64.90529680066058
 10
38.05397444176016
 20
64.90132499817432
 10
38.0
 20
64.9
 10
37.94602555823984
 20
64.90132499817432
 10
37.89218114563748
 20
64.90529680066058
 10
37.8385964780991
 20
64.91190583903874
 10
37.78540064578226
 20
64.92113619155644
 10
37.73272180210641
 20
64.932965621486
 10
37.68068685502009
 20
64.94736563069458
 10
37.62942116126856
 20
64.96430152829868
 10
37.5790482243984
 20
64.98373251423759
 10
37.52968939722669
 20
65.00561177756421
 10
37.481463589491405
 20
65.0298866092168
 10
37.43448698138746
 20
65.0564985289997
 10
37.38887274367844
 20
65.0853834264672
 10
37.34473076505832
 20
65.11647171537129
 10
37.30216738741999
 20
65.14968850130099
 10
37.26128514966828
 20
65.18495376210954
 10
37.222182540694796
 20
65.2221825406948
 10
37.184953762109544
 20
65.26128514966828
 10
37.149688501300986
 20
65.30216738741998
 10
37.11647171537129
 20
65.34473076505833
 10
37.0853834264672
 20
65.38887274367843
 10
37.056498528999704
 20
65.43448698138745
 10
37.02988660921681
 20
65.4814635894914
 10
37.00561177756421
 20
65.52968939722669
 10
36.98373251423759
 20
65.5790482243984
 10
36.96430152829868
 20
65.62942116126855
 10
36.94736563069457
 20
65.68068685502008
 10
36.932965621486005
 20
65.73272180210641
 10
36.92113619155645
 20
65.78540064578226
 10
36.91190583903874
 20
65.8385964780991
 10
36.90529680066059
 20
65.89218114563748
 10
36.90132499817431
 20
65.94602555823984
 10
36.9
 20
66.0
 10
36.90132499817431
 20
66.05397444176016
 10
36.90529680066059
 20
66.10781885436252
 10
36.91190583903874
 20
66.1614035219009
 10
36.92113619155645
 20
66.21459935421774
 10
36.932965621486005
 20
66.26727819789359
 10
36.94736563069457
 20
66.31931314497992
 10
36.96430152829868
 20
66.37057883873145
 10
36.98373251423759
 20
66.4209517756016
 10
37.00561177756421
 20
66.47031060277331
 10
37.02988660921681
 20
66.5185364105086
 10
37.0564985289997
 20
66.56551301861255
 10
37.0853834264672
 20
66.61112725632157
 10
37.11647171537129
 20
66.65526923494167
 10
37.149688501300986
 20
66.69783261258002
 10
37.184953762109544
 20
66.73871485033172
 10
37.222182540694796
 20
66.7778174593052
 10
37.26128514966828
 20
66.81504623789046
 10
37.30216738741999
 20
66.85031149869901
 10
37.34473076505832
 20
66.88352828462871
 10
37.38887274367844
 20
66.9146165735328
 10
37.43448698138746
 20
66.9435014710003
 10
37.481463589491405
 20
66.9701133907832
 10
37.52968939722669
 20
66.99438822243579
 10
37.5790482243984
 20
67.01626748576241
 10
37.62942116126856
 20
67.03569847170132
 10
37.68068685502009
 20
67.05263436930542
 10
37.73272180210641
 20
67.067034378514
 10
37.78540064578226
 20
67.07886380844356
 10
37.8385964780991
 20
67.08809416096126
 10
37.89218114563749
 20
67.09470319933942
 10
37.94602555823984
 20
67.09867500182568
 10
38.0
 20
67.1
 10
38.05397444176016
 20
67.09867500182568
 10
38.10781885436251
 20
67.09470319933942
 10
38.1614035219009
 20
67.08809416096126
 10
38.21459935421774
 20
67.07886380844356
 10
38.26727819789359
 20
67.067034378514
 10
38.31931314497991
 20
67.05263436930542
 10
38.37057883873144
 20
67.03569847170132
 10
38.4209517756016
 20
67.01626748576241
 10
38.47031060277331
 20
66.99438822243579
 10
38.518536410508595
 20
66.9701133907832
 10
38.56551301861254
 20
66.9435014710003
 10
38.61112725632156
 20
66.9146165735328
 10
38.65526923494168
 20
66.88352828462871
 10
38.69783261258001
 20
66.85031149869901
 10
38.73871485033172
 20
66.81504623789046
 10
38.777817459305204
 20
66.7778174593052
 10
38.815046237890456
 20
66.73871485033172
 10
38.85031149869901
 20
66.69783261258002
 10
38.88352828462871
 20
66.65526923494167
 10
38.9146165735328
 20
66.61112725632157
 10
38.943501471000296
 20
66.56551301861255
 10
38.97011339078319
 20
66.5185364105086
 10
38.99438822243579
 20
66.47031060277331
 10
39.01626748576241
 20
66.4209517756016
 10
39.03569847170132
 20
66.37057883873145
 10
39.05263436930543
 20
66.31931314497992
 10
39.067034378513995
 20
66.26727819789359
 10
39.07886380844355
 20
66.21459935421774
 10
39.08809416096126
 20
66.1614035219009
 10
39.09470319933941
 20
66.10781885436252
 10
39.09867500182569
 20
66.05397444176016
 10
39.1
 20
66.0
  0
LWPOLYLINE
  5
59
330
17
100
AcDbEntity
  8
STANDOFF_HOLES
100
AcDbPolyline
 90
129
 70
1
 10
138.1
 20
50.0
 10
138.09867500182568
 20
49.94602555823984
 10
138.09470319933942
 20
49.89218114563749
 10
138.08809416096125
 20
49.8385964780991
 10
138.07886380844354
 20
49.78540064578226
 10
138.067034378514
 20
49.73272180210641
 10
138.05263436930542
 20
49.68068685502009
 10
138.03569847170132
 20
49.62942116126856
 10
138.01626748576243
 20
49.5790482243984
 10
137.9943882224358
 20
49.52968939722669
 10
137.97011339078318
 20
49.481463589491405
 10
137.9435014710003
 20
49.43448698138746
 10
137.9146165735328
 20
49.38887274367844
 10
137.8835282846287
 20
49.34473076505832
 10
137.850311498699
 20
49.30216738741999
 10
137.81504623789044
 20
49.26128514966828
 10
137.7778174593052
 20
49.222182540694796
 10
137.73871485033172
 20
49.184953762109544
 10
137.69783261258002
 20
49.149688501300986
 10
137.65526923494167
 20
49.11647171537129
 10
137.61112725632157
 20
49.0853834264672
 10
137.56551301861253
 20
49.056498528999704
 10
137.5185364105086
 20
49.02988660921681
 10
137.4703106027733
 20
49.00561177756421
 10
137.4209517756016
 20
48.98373251423759
 10
137.37057883873143
 20
48.96430152829868
 10
137.3193131449799
 20
48.94736563069457
 10
137.2672781978936
 20
48.932965621486005
 10
137.21459935421774
 20
48.92113619155645
 10
137.1614035219009
 20
48.91190583903874
 10
137.1078188543625
 20
48.90529680066059
 10
137.05397444176015
 20
48.90132499817431
 10
137.0
 20
48.9
 10
136.94602555823985
 20
48.90132499817431
 10
136.8921811456375
 20
48.90529680066059
 10
136.8385964780991
 20
48.91190583903874
 10
136.78540064578226
 20
48.92113619155645
 10
136.7327218021064
 20
48.932965621486005
 10
136.6806868550201
 20
48.94736563069457
 10
136.62942116126857
 20
48.96430152829868
 10
136.5790482243984
 20
48.98373251423759
 10
136.5296893972267
 20
49.00561177756421
 10
136.4814635894914
 20
49.02988660921681
 10
136.43448698138747
 20
49.056498528999704
 10
136.38887274367843
 20
49.0853834264672
 10
136.34473076505833
 20
49.11647171537129
 10
136.30216738741998
 20
49.149688501300986
 10
136.26128514966828
 20
49.184953762109544
 10
136.2221825406948
 20
49.222182540694796
 10
136.18495376210956
 20
49.26128514966828
 10
136.149688501301
 20
49.30216738741999
 10
136.1164717153713
 20
49.34473076505832
 10
136.0853834264672
 20
49.38887274367844
 10
136.0564985289997
 20
49.43448698138746
 10
136.02988660921682
 20
49.481463589491405
 10
136.0056117775642
 20
49.52968939722669
 10
135.98373251423757
 20
49.5790482243984
 10
135.96430152829868
 20
49.62942116126856
 10
135.94736563069458
 20
49.68068685502009
 10
135.932965621486
 20
49.73272180210641
 10
135.92113619155646
 20
49.78540064578226
 10
135.91190583903875
 20
49.8385964780991
 10
135.90529680066058
 20
49.89218114563748
 10
135.90132499817432
 20
49.94602555823984
 10
135.9
 20
50.0
 10
135.90132499817432
 20
50.05397444176016
 10
135.90529680066058
 20
50.10781885436251
 10
135.91190583903875
 20
50.1614035219009
 10
135.92113619155646
 20
50.21459935421774
 10
135.932965621486
 20
50.26727819789359
 10
135.94736563069458
 20
50.31931314497991
 10
135.96430152829868
 20
50.37057883873144
 10
135.98373251423757
 20
50.4209517756016
 10
136.0056117775642
 20
50.47031060277331
 10
136.02988660921682
 20
50.518536410508595
 10
136.0564985289997
 20
50.56551301861254
 10
136.0853834264672
 20
50.61112725632156
 10
136.1164717153713
 20
50.65526923494168
 10
136.149688501301
 20
50.69783261258001
 10
136.18495376210956
 20
50.73871485033172
 10
136.2221825406948
 20
50.777817459305204
 10
136.26128514966828
 20
50.815046237890456
 10
136.30216738741998
 20
50.85031149869901
 10
136.34473076505833
 20
50.88352828462871
 10
136.38887274367843
 20
50.9146165735328
 10
136.43448698138747
 20
50.943501471000296
 10
136.4814635894914
 20
50.97011339078319
 10
136.5296893972267
 20
50.99438822243579
 10
136.5790482243984
 20
51.01626748576241
 10
136.62942116126857
 20
51.03569847170132
 10
136.6806868550201
 20
51.05263436930543
 10
136.7327218021064
 20
51.067034378513995
 10
136.78540064578226
 20
51.07886380844355
 10
136.8385964780991
 20
51.08809416096126
 10
136.8921811456375
 20
51.09470319933941
 10
136.94602555823985
 20
51.09867500182569
 10
137.0
 20
51.1
 10
137.05397444176015
 20
51.09867500182569
 10
137.1078188543625
 20
51.09470319933941
 10
137.1614035219009
 20
51.08809416096126
 10
137.21459935421774
 20
51.07886380844355
 10
137.2672781978936
 20
51.067034378513995
 10
137.3193131449799
 20
51.05263436930543
 10
137.37057883873143
 20
51.03569847170132
 10
137.4209517756016
 20
51.01626748576241
 10
137.4703106027733
 20
50.99438822243579
 10
137.5185364105086
 20
50.97011339078319
 10
137.56551301861253
 20
50.9435014710003
 10
137.61112725632157
 20
50.9146165735328
 10
137.65526923494167
 20
50.88352828462871
 10
137.69783261258002
 20
50.850311498699014
 10
137.73871485033172
 20
50.815046237890456
 10
137.7778174593052
 20
50.777817459305204
 10
137.81504623789044
 20
50.73871485033172
 10
137.850311498699
 20
50.69783261258001
 10
137.8835282846287
 20
50.65526923494168
 10
137.9146165735328
 20
50.61112725632156
 10
137.9435014710003
 20
50.56551301861254
 10
137.97011339078318
 20
50.518536410508595
 10
137.9943882224358
 20
50.47031060277331
 10
138.01626748576243
 20
50.4209517756016
 10
138.03569847170132
 20
50.37057883873144
 10
138.05263436930542
 20
50.31931314497991
 10
138.067034378514
 20
50.26727819789359
 10
138.07886380844354
 20
50.21459935421774
 10
138.08809416096125
 20
50.1614035219009
 10
138.09470319933942
 20
50.10781885436251
 10
138.09867500182568
 20
50.05397444176016
 10
138.1
 20
50.0
  0
LWPOLYLINE
  5
5A
330
17
100
AcDbEntity
  8
STANDOFF_HOLES
100
AcDbPolyline
 90
129
 70
1
 10
101.1
 20
92.0
 10
101.09867500182568
 20
91.94602555823984
 10
101.09470319933942
 20
91.89218114563748
 10
101.08809416096126
 20
91.8385964780991
 10
101.07886380844356
 20
91.78540064578226
 10
101.067034378514
 20
91.73272180210641
 10
101.05263436930542
 20
91.68068685502008
 10
101.03569847170132
 20
91.62942116126855
 10
101.01626748576241
 20
91.5790482243984
 10
100.99438822243579
 20
91.52968939722669
 10
100.9701133907832
 20
91.4814635894914
 10
100.9435014710003
 20
91.43448698138745
 10
100.9146165735328
 20
91.38887274367843
 10
100.88352828462871
 20
91.34473076505833
 10
100.85031149869901
 20
91.30216738741998
 10
100.81504623789046
 20
91.26128514966828
 10
100.7778174593052
 20
91.2221825406948
 10
100.73871485033172
 20
91.18495376210954
 10
100.69783261258002
 20
91.14968850130099
 10
100.65526923494167
 20
91.11647171537129
 10
100.61112725632157
 20
91.0853834264672
 10
100.56551301861255
 20
91.0564985289997
 10
100.5185364105086
 20
91.0298866092168
 10
100.47031060277331
 20
91.00561177756421
 10
100.4209517756016
 20
90.98373251423759
 10
100.37057883873145
 20
90.96430152829868
 10
100.31931314497992
 20
90.94736563069458
 10
100.26727819789359
 20
90.932965621486
 10
100.21459935421774
 20
90.92113619155644
 10
100.1614035219009
 20
90.91190583903874
 10
100.10781885436252
 20
90.90529680066058
 10
100.05397444176016
 20
90.90132499817432
 10
100.0
 20
90.9
 10
99.94602555823984
 20
90.90132499817432
 10
99.89218114563748
 20
90.90529680066058
 10
99.8385964780991
 20
90.91190583903874
 10
99.78540064578226
 20
90.92113619155644
 10
99.73272180210641
 20
90.932965621486
 10
99.68068685502008
 20
90.94736563069458
 10
99.62942116126855
 20
90.96430152829868
 10
99.5790482243984
 20
90.98373251423759
 10
99.52968939722669
 20
91.00561177756421
 10
99.4814635894914
 20
91.0298866092168
 10
99.43448698138745
 20
91.0564985289997
 10
99.38887274367843
 20
91.0853834264672
 10
99.34473076505833
 20
91.11647171537129
 10
99.30216738741998
 20
91.14968850130099
 10
99.26128514966828
 20
91.18495376210954
 10
99.2221825406948
 20
91.2221825406948
 10
99.18495376210954
 20
91.26128514966828
 10
99.14968850130099
 20
91.30216738741998
 10
99.11647171537129
 20
91.34473076505833
 10
99.0853834264672
 20
91.38887274367843
 10
99.0564985289997
 20
91.43448698138745
 10
99.0298866092168
 20
91.4814635894914
 10
99.00561177756421
 20
91.52968939722669
 10
98.98373251423759
 20
91.5790482243984
 10
98.96430152829868
 20
91.62942116126855
 10
98.94736563069458
 20
91.68068685502008
 10
98.932965621486
 20
91.73272180210641
 10
98.92113619155644
 20
91.78540064578226
 10
98.91190583903874
 20
91.8385964780991
 10
98.90529680066058
 20
91.89218114563748
 10
98.90132499817432
 20
91.94602555823984
 10
98.9
 20
92.0
 10
98.90132499817432
 20
92.05397444176016
 10
98.90529680066058
 20
92.10781885436252
 10
98.91190583903874
 20
92.1614035219009
 10
98.92113619155644
 20
92.21459935421774
 10
98.932965621486
 20
92.26727819789359
 10
98.94736563069458
 20
92.31931314497992
 10
98.96430152829868
 20
92.37057883873145
 10
98.98373251423759
 20
92.4209517756016
 10
99.00561177756421
 20
92.47031060277331
 10
99.0298866092168
 20
92.5185364105086
 10
99.0564985289997
 20
92.56551301861255
 10
99.0853834264672
 20
92.61112725632157
 10
99.11647171537129
 20
92.65526923494167
 10
99.14968850130099
 20
92.69783261258002
 10
99.18495376210954
 20
92.73871485033172
 10
99.2221825406948
 20
92.7778174593052
 10
99.26128514966828
 20
92.81504623789046
 10
99.30216738741998
 20
92.85031149869901
 10
99.34473076505833
 20
92.88352828462871
 10
99.38887274367843
 20
92.9146165735328
 10
99.43448698138745
 20
92.9435014710003
 10
99.4814635894914
 20
92.9701133907832
 10
99.52968939722669
 20
92.99438822243579
 10
99.5790482243984
 20
93.01626748576241
 10
99.62942116126855
 20
93.03569847170132
 10
99.68068685502008
 20
93.05263436930542
 10
99.73272180210641
 20
93.067034378514
 10
99.78540064578226
 20
93.07886380844356
 10
99.8385964780991
 20
93.08809416096126
 10
99.89218114563748
 20
93.09470319933942
 10
99.94602555823984
 20
93.09867500182568
 10
100.0
 20
93.1
 10
100.05397444176016
 20
93.09867500182568
 10
100.10781885436252
 20
93.09470319933942
 10
100.1614035219009
 20
93.08809416096126
 10
100.21459935421774
 20
93.07886380844356
 10
100.26727819789359
 20
93.067034378514
 10
100.3193131449799
 20
93.05263436930542
 10
100.37057883873145
 20
93.03569847170132
 10
100.4209517756016
 20
93.01626748576241
 10
100.47031060277331
 20
92.99438822243579
 10
100.5185364105086
 20
92.9701133907832
 10
100.56551301861255
 20
92.9435014710003
 10
100.61112725632157
 20
92.9146165735328
 10
100.65526923494167
 20
92.88352828462871
 10
100.69783261258002
 20
92.85031149869901
 10
100.73871485033172
 20
92.81504623789046
 10
100.7778174593052
 20
92.7778174593052
 10
100.81504623789046
 20
92.73871485033172
 10
100.85031149869901
 20
92.69783261258002
 10
100.88352828462871
 20
92.65526923494167
 10
100.9146165735328
 20
92.61112725632157
 10
100.9435014710003
 20
92.56551301861255
 10
100.9701133907832
 20
92.5185364105086
 10
100.99438822243579
 20
92.47031060277331
 10
101.01626748576241
 20
92.4209517756016
 10
101.03569847170132
 20
92.37057883873145
 10
101.05263436930542
 20
92.31931314497992
 10
101.067034378514
 20
92.26727819789359
 10
101.07886380844356
 20
92.21459935421774
 10
101.08809416096126
 20
92.1614035219009
 10
101.09470319933942
 20
92.10781885436252
 10
101.09867500182568
 20
92.05397444176016
 10
101.1
 20
92.0
  0
ENDSEC
  0
SECTION
  2
OBJECTS
  0
DICTIONARY
  5
A
330
0
100
AcDbDictionary
281
1
  3
ACAD_COLOR
350
B
  3
ACAD_GROUP
350
C
  3
ACAD_LAYOUT
350
D
  3
ACAD_MATERIAL
350
E
  3
ACAD_MLEADERSTYLE
350
F
  3
ACAD_MLINESTYLE
350
10
  3
ACAD_PLOTSETTINGS
350
11
  3
ACAD_PLOTSTYLENAME
350
12
  3
ACAD_SCALELIST
350
14
  3
ACAD_TABLESTYLE
350
15
  3
ACAD_VISUALSTYLE
350
16
  3
EZDXF_META
350
2D
  0
DICTIONARY
  5
B
330
A
100
AcDbDictionary
281
1
  0
DICTIONARY
  5
C
330
A
100
AcDbDictionary
281
1
  0
DICTIONARY
  5
D
330
A
100
AcDbDictionary
281
1
  3
Model
350
1A
  3
Layout1
350
1E
  0
DICTIONARY
  5
E
330
A
100
AcDbDictionary
281
1
  3
ByBlock
350
1F
  3
ByLayer
350
20
  3
Global
350
21
  0
DICTIONARY
  5
F
330
A
100
AcDbDictionary
281
1
  3
Standard
350
2C
  0
DICTIONARY
  5
10
330
A
100
AcDbDictionary
281
1
  3
Standard
350
22
  0
DICTIONARY
  5
11
330
A
100
AcDbDictionary
281
1
  0
ACDBDICTIONARYWDFLT
  5
12
330
A
100
AcDbDictionary
281
1
  3
Normal
350
13
100
AcDbDictionaryWithDefault
340
13
  0
ACDBPLACEHOLDER
  5
13
330
12
  0
DICTIONARY
  5
14
330
A
100
AcDbDictionary
281
1
  0
DICTIONARY
  5
15
330
A
100
AcDbDictionary
281
1
  0
DICTIONARY
  5
16
330
A
100
AcDbDictionary
281
1
  0
LAYOUT
  5
1A
330
D
100
AcDbPlotSettings
  1

  4
A3
  6

 40
7.5
 41
20.0
 42
7.5
 43
20.0
 44
420.0
 45
297.0
 46
0.0
 47
0.0
 48
0.0
 49
0.0
140
0.0
141
0.0
142
1.0
143
1.0
 70
1024
 72
1
 73
0
 74
5
  7

 75
16
 76
0
 77
2
 78
300
147
1.0
148
0.0
149
0.0
100
AcDbLayout
  1
Model
 70
1
 71
0
 10
0.0
 20
0.0
 11
420.0
 21
297.0
 12
0.0
 22
0.0
 32
0.0
 14
1e+20
 24
1e+20
 34
1e+20
 15
-1e+20
 25
-1e+20
 35
-1e+20
146
0.0
 13
0.0
 23
0.0
 33
0.0
 16
1.0
 26
0.0
 36
0.0
 17
0.0
 27
1.0
 37
0.0
 76
1
330
17
  0
LAYOUT
  5
1E
330
D
100
AcDbPlotSettings
  1

  4
A3
  6

 40
7.5
 41
20.0
 42
7.5
 43
20.0
 44
420.0
 45
297.0
 46
0.0
 47
0.0
 48
0.0
 49
0.0
140
0.0
141
0.0
142
1.0
143
1.0
 70
0
 72
1
 73
0
 74
5
  7

 75
16
 76
0
 77
2
 78
300
147
1.0
148
0.0
149
0.0
100
AcDbLayout
  1
Layout1
 70
1
 71
1
 10
0.0
 20
0.0
 11
420.0
 21
297.0
 12
0.0
 22
0.0
 32
0.0
 14
1e+20
 24
1e+20
 34
1e+20
 15
-1e+20
 25
-1e+20
 35
-1e+20
146
0.0
 13
0.0
 23
0.0
 33
0.0
 16
1.0
 26
0.0
 36
0.0
 17
0.0
 27
1.0
 37
0.0
 76
1
330
1B
  0
MATERIAL
  5
1F
102
{ACAD_REACTORS
330
E
102
}
330
E
100
AcDbMaterial
  1
ByBlock
  2

 70
0
 40
1.0
 71
1
 41
1.0
 91
-1023410177
 42
1.0
 72
1
  3

 73
1
 74
1
 75
1
 44
0.5
 73
0
 45
1.0
 46
1.0
 77
1
  4

 78
1
 79
1
170
1
 48
1.0
171
1
  6

172
1
173
1
174
1
140
1.0
141
1.0
175
1
  7

176
1
177
1
178
1
143
1.0
179
1
  8

270
1
271
1
272
1
145
1.0
146
1.0
273
1
  9

274
1
275
1
276
1
 42
1.0
 72
1
  3

 73
1
 74
1
 75
1
 94
63
  0
MATERIAL
  5
20
102
{ACAD_REACTORS
330
E
102
}
330
E
100
AcDbMaterial
  1
ByLayer
  2

 70
0
 40
1.0
 71
1
 41
1.0
 91
-1023410177
 42
1.0
 72
1
  3

 73
1
 74
1
 75
1
 44
0.5
 73
0
 45
1.0
 46
1.0
 77
1
  4

 78
1
 79
1
170
1
 48
1.0
171
1
  6

172
1
173
1
174
1
140
1.0
141
1.0
175
1
  7

176
1
177
1
178
1
143
1.0
179
1
  8

270
1
271
1
272
1
145
1.0
146
1.0
273
1
  9

274
1
275
1
276
1
 42
1.0
 72
1
  3

 73
1
 74
1
 75
1
 94
63
  0
MATERIAL
  5
21
102
{ACAD_REACTORS
330
E
102
}
330
E
100
AcDbMaterial
  1
Global
  2

 70
0
 40
1.0
 71
1
 41
1.0
 91
-1023410177
 42
1.0
 72
1
  3

 73
1
 74
1
 75
1
 44
0.5
 73
0
 45
1.0
 46
1.0
 77
1
  4

 78
1
 79
1
170
1
 48
1.0
171
1
  6

172
1
173
1
174
1
140
1.0
141
1.0
175
1
  7

176
1
177
1
178
1
143
1.0
179
1
  8

270
1
271
1
272
1
145
1.0
146
1.0
273
1
  9

274
1
275
1
276
1
 42
1.0
 72
1
  3

 73
1
 74
1
 75
1
 94
63
  0
MLINESTYLE
  5
22
102
{ACAD_REACTORS
330
10
102
}
330
10
100
AcDbMlineStyle
  2
Standard
 70
0
  3

 62
256
 51
90.0
 52
90.0
 71
2
 49
0.5
 62
256
  6
BYLAYER
 49
-0.5
 62
256
  6
BYLAYER
  0
MLEADERSTYLE
  5
2C
102
{ACAD_REACTORS
330
F
102
}
330
F
100
AcDbMLeaderStyle
179
2
170
2
171
1
172
0
 90
2
 40
0.0
 41
0.0
173
1
 91
-1056964608
 92
-2
290
1
 42
2.0
291
1
 43
8.0
  3
Standard
 44
4.0
300

342
29
174
1
175
1
176
0
178
1
 93
-1056964608
 45
4.0
292
0
297
0
 46
4.0
 94
-1056964608
 47
1.0
 49
1.0
140
1.0
294
1
141
0.0
177
0
142
1.0
295
0
296
0
143
3.75
271
0
272
9
273
9
  0
DICTIONARY
  5
2D
330
A
100
AcDbDictionary
280
1
281
1
  3
CREATED_BY_EZDXF
350
2E
  3
WRITTEN_BY_EZDXF
350
5D
  0
DICTIONARYVAR
  5
2E
330
2D
100
DictionaryVariables
280
0
  1
1.4.4 @ 2026-09-21T14:19:16.590963+00:00
  0
DICTIONARYVAR
  5
5D
330
2D
100
DictionaryVariables
280
0
  1
1.4.4 @ 2026-09-21T14:19:16.593657+00:00
  0
ENDSEC
  0
EOF
