  0
SECTION
  2
HEADER
  9
$ACADVER
  1
AC1024
  9
$ACADMAINTVER
 70
6
  9
$DWGCODEPAGE
  3
ANSI_1252
  9
$LASTSAVEDBY
  1
ezdxf
  9
$INSBASE
 10
0.0
 20
0.0
 30
0.0
  9
$EXTMIN
 10
1e+20
 20
1e+20
 30
1e+20
  9
$EXTMAX
 10
-1e+20
 20
-1e+20
 30
-1e+20
  9
$LIMMIN
 10
0.0
 20
0.0
  9
$LIMMAX
 10
420.0
 20
297.0
  9
$ORTHOMODE
 70
0
  9
$REGENMODE
 70
1
  9
$FILLMODE
 70
1
  9
$QTEXTMODE
 70
0
  9
$MIRRTEXT
 70
1
  9
$LTSCALE
 40
1.0
  9
$ATTMODE
 70
1
  9
$TEXTSIZE
 40
2.5
  9
$TRACEWID
 40
1.0
  9
$TEXTSTYLE
  7
Standard
  9
$CLAYER
  8
0
  9
$CELTYPE
  6
ByLayer
  9
$CECOLOR
 62
256
  9
$CELTSCALE
 40
1.0
  9
$DISPSILH
 70
0
  9
$DIMSCALE
 40
1.0
  9
$DIMASZ
 40
2.5
  9
$DIMEXO
 40
0.625
  9
$DIMDLI
 40
3.75
  9
$DIMRND
 40
0.0
  9
$DIMDLE
 40
0.0
  9
$DIMEXE
 40
1.25
  9
$DIMTP
 40
0.0
  9
$DIMTM
 40
0.0
  9
$DIMTXT
 40
2.5
  9
$DIMCEN
 40
2.5
  9
$DIMTSZ
 40
0.0
  9
$DIMTOL
 70
0
  9
$DIMLIM
 70
0
  9
$DIMTIH
 70
0
  9
$DIMTOH
 70
0
  9
$DIMSE1
 70
0
  9
$DIMSE2
 70
0
  9
$DIMTAD
 70
1
  9
$DIMZIN
 70
8
  9
$DIMBLK
  1

  9
$DIMASO
 70
1
  9
$DIMSHO
 70
1
  9
$DIMPOST
  1

  9
$DIMAPOST
  1

  9
$DIMALT
 70
0
  9
$DIMALTD
 70
3
  9
$DIMALTF
 40
0.03937007874
  9
$DIMLFAC
 40
1.0
  9
$DIMTOFL
 70
1
  9
$DIMTVP
 40
0.0
  9
$DIMTIX
 70
0
  9
$DIMSOXD
 70
0
  9
$DIMSAH
 70
0
  9
$DIMBLK1
  1

  9
$DIMBLK2
  1

  9
$DIMSTYLE
  2
ISO-25
  9
$DIMCLRD
 70
0
  9
$DIMCLRE
 70
0
  9
$DIMCLRT
 70
0
  9
$DIMTFAC
 40
1.0
  9
$DIMGAP
 40
0.625
  9
$DIMJUST
 70
0
  9
$DIMSD1
 70
0
  9
$DIMSD2
 70
0
  9
$DIMTOLJ
 70
0
  9
$DIMTZIN
 70
8
  9
$DIMALTZ
 70
0
  9
$DIMALTTZ
 70
0
  9
$DIMUPT
 70
0
  9
$DIMDEC
 70
2
  9
$DIMTDEC
 70
2
  9
$DIMALTU
 70
2
  9
$DIMALTTD
 70
3
  9
$DIMTXSTY
  7
Standard
  9
$DIMAUNIT
 70
0
  9
$DIMADEC
 70
0
  9
$DIMALTRND
 40
0.0
  9
$DIMAZIN
 70
0
  9
$DIMDSEP
 70
44
  9
$DIMATFIT
 70
3
  9
$DIMFRAC
 70
0
  9
$DIMLDRBLK
  1

  9
$DIMLUNIT
 70
2
  9
$DIMLWD
 70
-2
  9
$DIMLWE
 70
-2
  9
$DIMTMOVE
 70
0
  9
$DIMFXL
 40
1.0
  9
$DIMFXLON
 70
0
  9
$DIMJOGANG
 40
0.785398163397
  9
$DIMTFILL
 70
0
  9
$DIMTFILLCLR
 70
0
  9
$DIMARCSYM
 70
0
  9
$DIMLTYPE
  6

  9
$DIMLTEX1
  6

  9
$DIMLTEX2
  6

  9
$DIMTXTDIRECTION
 70
0
  9
$LUNITS
 70
2
  9
$LUPREC
 70
4
  9
$SKETCHINC
 40
1.0
  9
$FILLETRAD
 40
10.0
  9
$AUNITS
 70
0
  9
$AUPREC
 70
2
  9
$MENU
  1
.
  9
$ELEVATION
 40
0.0
  9
$PELEVATION
 40
0.0
  9
$THICKNESS
 40
0.0
  9
$LIMCHECK
 70
0
  9
$CHAMFERA
 40
0.0
  9
$CHAMFERB
 40
0.0
  9
$CHAMFERC
 40
0.0
  9
$CHAMFERD
 40
0.0
  9
$SKPOLY
 70
0
  9
$TDCREATE
 40
2461297.836516204
  9
$TDUCREATE
 40
2458532.153996898
  9
$TDUPDATE
 40
2461297.836516204
  9
$TDUUPDATE
 40
2458532.1544311
  9
$TDINDWG
 40
0.0
  9
$TDUSRTIMER
 40
0.0
  9
$USRTIMER
 70
1
  9
$ANGBASE
 50
0.0
  9
$ANGDIR
 70
0
  9
$PDMODE
 70
0
  9
$PDSIZE
 40
0.0
  9
$PLINEWID
 40
0.0
  9
$SPLFRAME
 70
0
  9
$SPLINETYPE
 70
6
  9
$SPLINESEGS
 70
8
  9
$HANDSEED
  5
57
  9
$SURFTAB1
 70
6
  9
$SURFTAB2
 70
6
  9
$SURFTYPE
 70
6
  9
$SURFU
 70
6
  9
$SURFV
 70
6
  9
$UCSBASE
  2

  9
$UCSNAME
  2

  9
$UCSORG
 10
0.0
 20
0.0
 30
0.0
  9
$UCSXDIR
 10
1.0
 20
0.0
 30
0.0
  9
$UCSYDIR
 10
0.0
 20
1.0
 30
0.0
  9
$UCSORTHOREF
  2

  9
$UCSORTHOVIEW
 70
0
  9
$UCSORGTOP
 10
0.0
 20
0.0
 30
0.0
  9
$UCSORGBOTTOM
 10
0.0
 20
0.0
 30
0.0
  9
$UCSORGLEFT
 10
0.0
 20
0.0
 30
0.0
  9
$UCSORGRIGHT
 10
0.0
 20
0.0
 30
0.0
  9
$UCSORGFRONT
 10
0.0
 20
0.0
 30
0.0
  9
$UCSORGBACK
 10
0.0
 20
0.0
 30
0.0
  9
$PUCSBASE
  2

  9
$PUCSNAME
  2

  9
$PUCSORG
 10
0.0
 20
0.0
 30
0.0
  9
$PUCSXDIR
 10
1.0
 20
0.0
 30
0.0
  9
$PUCSYDIR
 10
0.0
 20
1.0
 30
0.0
  9
$PUCSORTHOREF
  2

  9
$PUCSORTHOVIEW
 70
0
  9
$PUCSORGTOP
 10
0.0
 20
0.0
 30
0.0
  9
$PUCSORGBOTTOM
 10
0.0
 20
0.0
 30
0.0
  9
$PUCSORGLEFT
 10
0.0
 20
0.0
 30
0.0
  9
$PUCSORGRIGHT
 10
0.0
 20
0.0
 30
0.0
  9
$PUCSORGFRONT
 10
0.0
 20
0.0
 30
0.0
  9
$PUCSORGBACK
 10
0.0
 20
0.0
 30
0.0
  9
$USERI1
 70
0
  9
$USERI2
 70
0
  9
$USERI3
 70
0
  9
$USERI4
 70
0
  9
$USERI5
 70
0
  9
$USERR1
 40
0.0
  9
$USERR2
 40
0.0
  9
$USERR3
 40
0.0
  9
$USERR4
 40
0.0
  9
$USERR5
 40
0.0
  9
$WORLDVIEW
 70
1
  9
$SHADEDGE
 70
3
  9
$SHADEDIF
 70
70
  9
$TILEMODE
 70
1
  9
$MAXACTVP
 70
64
  9
$PINSBASE
 10
0.0
 20
0.0
 30
0.0
  9
$PLIMCHECK
 70
0
  9
$PEXTMIN
 10
1e+20
 20
1e+20
 30
1e+20
  9
$PEXTMAX
 10
-1e+20
 20
-1e+20
 30
-1e+20
  9
$PLIMMIN
 10
0.0
 20
0.0
  9
$PLIMMAX
 10
420.0
 20
297.0
  9
$UNITMODE
 70
0
  9
$VISRETAIN
 70
1
  9
$PLINEGEN
 70
0
  9
$PSLTSCALE
 70
1
  9
$TREEDEPTH
 70
3020
  9
$CMLSTYLE
  2
Standard
  9
$CMLJUST
 70
0
  9
$CMLSCALE
 40
20.0
  9
$PROXYGRAPHICS
 70
1
  9
$MEASUREMENT
 70
1
  9
$CELWEIGHT
370
-1
  9
$ENDCAPS
280
0
  9
$JOINSTYLE
280
0
  9
$LWDISPLAY
290
0
  9
$INSUNITS
 70
4
  9
$HYPERLINKBASE
  1

  9
$STYLESHEET
  1

  9
$XEDIT
290
1
  9
$CEPSNTYPE
380
0
  9
$PSTYLEMODE
290
1
  9
$FINGERPRINTGUID
  2
{E18E1326-6EF1-4727-86B5-9C77A472A1C8}
  9
$VERSIONGUID
  2
{DF056B41-8F01-4A9E-9C56-399A2826DA73}
  9
$EXTNAMES
290
1
  9
$PSVPSCALE
 40
0.0
  9
$OLESTARTUP
290
0
  9
$SORTENTS
280
127
  9
$INDEXCTL
280
0
  9
$HIDETEXT
280
1
  9
$XCLIPFRAME
280
1
  9
$HALOGAP
280
0
  9
$OBSCOLOR
 70
257
  9
$OBSLTYPE
280
0
  9
$INTERSECTIONDISPLAY
280
0
  9
$INTERSECTIONCOLOR
 70
257
  9
$DIMASSOC
280
2
  9
$PROJECTNAME
  1

  9
$CAMERADISPLAY
290
0
  9
$LENSLENGTH
 40
50.0
  9
$CAMERAHEIGHT
 40
0.0
  9
$STEPSPERSEC
 40
24.0
  9
$STEPSIZE
 40
100.0
  9
$3DDWFPREC
 40
2.0
  9
$PSOLWIDTH
 40
0.005
  9
$PSOLHEIGHT
 40
0.08
  9
$LOFTANG1
 40
1.570796326795
  9
$LOFTANG2
 40
1.570796326795
  9
$LOFTMAG1
 40
0.0
  9
$LOFTMAG2
 40
0.0
  9
$LOFTPARAM
 70
7
  9
$LOFTNORMALS
280
1
  9
$LATITUDE
 40
37.795
  9
$LONGITUDE
 40
-122.394
  9
$NORTHDIRECTION
 40
0.0
  9
$TIMEZONE
 70
-8000
  9
$LIGHTGLYPHDISPLAY
280
1
  9
$TILEMODELIGHTSYNCH
280
1
  9
$CMATERIAL
347
20
  9
$SOLIDHIST
280
0
  9
$SHOWHIST
280
1
  9
$DWFFRAME
280
2
  9
$DGNFRAME
280
2
  9
$REALWORLDSCALE
290
1
  9
$INTERFERECOLOR
 62
256
  9
$CSHADOW
280
0
  9
$SHADOWPLANELOCATION
 40
0.0
  0
ENDSEC
  0
SECTION
  2
CLASSES
  0
CLASS
  1
ACDBDICTIONARYWDFLT
  2
AcDbDictionaryWithDefault
  3
ObjectDBX Classes
 90
0
 91
0
280
0
281
0
  0
CLASS
  1
SUN
  2
AcDbSun
  3
SCENEOE
 90
1153
 91
0
280
0
281
0
  0
CLASS
  1
VISUALSTYLE
  2
AcDbVisualStyle
  3
ObjectDBX Classes
 90
4095
 91
0
280
0
281
0
  0
CLASS
  1
MATERIAL
  2
AcDbMaterial
  3
ObjectDBX Classes
 90
1153
 91
0
280
0
281
0
  0
CLASS
  1
SCALE
  2
AcDbScale
  3
ObjectDBX Classes
 90
1153
 91
0
280
0
281
0
  0
CLASS
  1
TABLESTYLE
  2
AcDbTableStyle
  3
ObjectDBX Classes
 90
4095
 91
0
280
0
281
0
  0
CLASS
  1
MLEADERSTYLE
  2
AcDbMLeaderStyle
  3
ACDB_MLEADERSTYLE_CLASS
 90
4095
 91
0
280
0
281
0
  0
CLASS
  1
DICTIONARYVAR
  2
AcDbDictionaryVar
  3
ObjectDBX Classes
 90
0
 91
0
280
0
281
0
  0
CLASS
  1
CELLSTYLEMAP
  2
AcDbCellStyleMap
  3
ObjectDBX Classes
 90
1152
 91
0
280
0
281
0
  0
CLASS
  1
MENTALRAYRENDERSETTINGS
  2
AcDbMentalRayRenderSettings
  3
SCENEOE
 90
1024
 91
0
280
0
281
0
  0
CLASS
  1
ACDBDETAILVIEWSTYLE
  2
AcDbDetailViewStyle
  3
ObjectDBX Classes
 90
1025
 91
0
280
0
281
0
  0
CLASS
  1
ACDBSECTIONVIEWSTYLE
  2
AcDbSectionViewStyle
  3
ObjectDBX Classes
 90
1025
 91
0
280
0
281
0
  0
CLASS
  1
RASTERVARIABLES
  2
AcDbRasterVariables
  3
ISM
 90
0
 91
0
280
0
281
0
  0
CLASS
  1
LAYOUT
  2
AcDbLayout
  3
ObjectDBX Classes
 90
0
 91
0
280
0
281
0
  0
CLASS
  1
ACDBPLACEHOLDER
  2
AcDbPlaceHolder
  3
ObjectDBX Classes
 90
0
 91
0
280
0
281
0
  0
ENDSEC
  0
SECTION
  2
TABLES
  0
TABLE
  2
VPORT
  5
8
330
0
100
AcDbSymbolTable
 70
1
  0
VPORT
  5
23
330
8
100
AcDbSymbolTableRecord
100
AcDbViewportTableRecord
  2
*Active
 70
0
 10
0.0
 20
0.0
 11
1.0
 21
1.0
 12
0.0
 22
0.0
 13
0.0
 23
0.0
 14
0.5
 24
0.5
 15
0.5
 25
0.5
 16
0.0
 26
0.0
 36
1.0
 17
0.0
 27
0.0
 37
0.0
 40
1000.0
 41
1.34
 42
50.0
 43
0.0
 44
0.0
 50
0.0
 51
0.0
 71
0
 72
1000
 73
1
 74
3
 75
0
 76
0
 77
0
 78
0
281
0
 65
0
146
0.0
  0
ENDTAB
  0
TABLE
  2
LTYPE
  5
2
330
0
100
AcDbSymbolTable
 70
3
  0
LTYPE
  5
24
330
2
100
AcDbSymbolTableRecord
100
AcDbLinetypeTableRecord
  2
ByBlock
 70
0
  3

 72
65
 73
0
 40
0.0
  0
LTYPE
  5
25
330
2
100
AcDbSymbolTableRecord
100
AcDbLinetypeTableRecord
  2
ByLayer
 70
0
  3

 72
65
 73
0
 40
0.0
  0
LTYPE
  5
26
330
2
100
AcDbSymbolTableRecord
100
AcDbLinetypeTableRecord
  2
Continuous
 70
0
  3

 72
65
 73
0
 40
0.0
  0
ENDTAB
  0
TABLE
  2
LAYER
  5
1
330
0
100
AcDbSymbolTable
 70
5
  0
LAYER
  5
27
330
1
100
AcDbSymbolTableRecord
100
AcDbLayerTableRecord
  2
0
 70
0
 62
7
  6
Continuous
370
-3
390
13
347
21
  0
LAYER
  5
28
330
1
100
AcDbSymbolTableRecord
100
AcDbLayerTableRecord
  2
Defpoints
 70
0
 62
7
  6
Continuous
290
0
370
-3
390
13
347
21
  0
LAYER
  5
2F
330
1
100
AcDbSymbolTableRecord
100
AcDbLayerTableRecord
  2
PLATE_OUTLINE
 70
0
 62
7
  6
Continuous
370
-3
390
13
347
21
  0
LAYER
  5
30
330
1
100
AcDbSymbolTableRecord
100
AcDbLayerTableRecord
  2
SWITCH_CUTOUTS
 70
0
 62
3
  6
Continuous
370
-3
390
13
347
21
  0
LAYER
  5
31
330
1
100
AcDbSymbolTableRecord
100
AcDbLayerTableRecord
  2
STAB_CLEARANCE
 70
0
 62
1
  6
Continuous
370
-3
390
13
347
21
  0
ENDTAB
  0
TABLE
  2
STYLE
  5
5
330
0
100
AcDbSymbolTable
 70
1
  0
STYLE
  5
29
330
5
100
AcDbSymbolTableRecord
100
AcDbTextStyleTableRecord
  2
Standard
 70
0
 40
0.0
 41
1.0
 50
0.0
 71
0
 42
2.5
  3
txt
  4

  0
ENDTAB
  0
TABLE
  2
VIEW
  5
7
330
0
100
AcDbSymbolTable
 70
0
  0
ENDTAB
  0
TABLE
  2
UCS
  5
6
330
0
100
AcDbSymbolTable
 70
0
  0
ENDTAB
  0
TABLE
  2
APPID
  5
3
330
0
100
AcDbSymbolTable
 70
3
  0
APPID
  5
2A
330
3
100
AcDbSymbolTableRecord
100
AcDbRegAppTableRecord
  2
ACAD
 70
0
  0
APPID
  5
54
330
3
100
AcDbSymbolTableRecord
100
AcDbRegAppTableRecord
  2
HATCHBACKGROUNDCOLOR
 70
0
  0
APPID
  5
55
330
3
100
AcDbSymbolTableRecord
100
AcDbRegAppTableRecord
  2
EZDXF
 70
0
  0
ENDTAB
  0
TABLE
  2
DIMSTYLE
  5
4
330
0
100
AcDbSymbolTable
 70
1
100
AcDbDimStyleTable
  0
DIMSTYLE
105
2B
330
4
100
AcDbSymbolTableRecord
100
AcDbDimStyleTableRecord
  2
Standard
 70
0
 40
1.0
 41
2.5
 42
0.625
 43
3.75
 44
1.25
 45
0.0
 46
0.0
 47
0.0
 48
0.0
 49
2.5
140
2.5
141
2.5
142
0.0
143
0.03937007874
144
1.0
145
0.0
146
1.0
147
0.625
148
0.0
 69
0
 70
0
 71
0
 72
0
 73
0
 74
0
 75
0
 76
0
 77
1
 78
8
 79
3
170
0
171
3
172
1
173
0
174
0
175
0
176
0
177
0
178
0
179
2
271
2
272
2
273
2
274
3
275
0
276
0
277
2
278
44
279
0
280
0
281
0
282
0
283
0
284
8
285
0
286
0
288
0
289
3
290
0
371
-2
372
-2
  0
ENDTAB
  0
TABLE
  2
BLOCK_RECORD
  5
9
330
0
100
AcDbSymbolTable
 70
2
  0
BLOCK_RECORD
  5
17
330
9
100
AcDbSymbolTableRecord
100
AcDbBlockTableRecord
  2
*Model_Space
340
1A
 70
0
280
1
281
0
  0
BLOCK_RECORD
  5
1B
330
9
100
AcDbSymbolTableRecord
100
AcDbBlockTableRecord
  2
*Paper_Space
340
1E
 70
0
280
1
281
0
  0
ENDTAB
  0
ENDSEC
  0
SECTION
  2
BLOCKS
  0
BLOCK
  5
18
330
17
100
AcDbEntity
  8
0
100
AcDbBlockBegin
  2
*Model_Space
 70
0
 10
0.0
 20
0.0
 30
0.0
  3
*Model_Space
  1

  0
ENDBLK
  5
19
330
17
100
AcDbEntity
  8
0
100
AcDbBlockEnd
  0
BLOCK
  5
1C
330
1B
100
AcDbEntity
  8
0
100
AcDbBlockBegin
  2
*Paper_Space
 70
0
 10
0.0
 20
0.0
 30
0.0
  3
*Paper_Space
  1

  0
ENDBLK
  5
1D
330
1B
100
AcDbEntity
  8
0
100
AcDbBlockEnd
  0
ENDSEC
  0
SECTION
  2
ENTITIES
  0
LWPOLYLINE
  5
32
330
17
100
AcDbEntity
  8
PLATE_OUTLINE
100
AcDbPolyline
 90
390
 70
1
 10
-14.852362823858838
 20
15.282570423118623
 10
-14.940521910843843
 20
15.3247638083456
 10
-15.024141054925064
 20
15.375361684961776
 10
-15.102421500419425
 20
15.433880726547793
 10
-15.1746154885284
 20
15.499761941289652
 10
-15.24003340015914
 20
15.572376011639786
 10
-15.298050343377342
 20
15.65102930575108
 10
-15.348112122566446
 20
15.734970503260783
 10
-15.389740532273965
 20
15.823397772132804
 10
-15.422537925176469
 20
15.915466428002977
 10
-15.446191010528656
 20
16.010297002862902
 10
-15.460473846812528
 20
16.106983646007805
 10
-15.46525
 20
16.204602777
 10
-15.46525
 20
35.459145622
 10
-15.460473846707512
 20
35.55676475406284
 10
-15.446191010110597
 20
35.65345139824765
 10
-15.422537924243331
 20
35.74828197408651
 10
-15.389740530633597
 20
35.840350630845386
 10
-15.348112120040348
 20
35.928777900488036
 10
-15.29805033980421
 20
36.01271909862437
 10
-15.240033395398193
 20
36.091372393194675
 10
-15.174615482462384
 20
36.163986463815306
 10
-15.102421492957296
 20
36.229867678621304
 10
-15.024141046004274
 20
36.28838672005065
 10
-14.940521900432222
 20
36.33898459627856
 10
-14.852362811956018
 20
36.381177980878746
 10
-14.786507592956019
 20
36.408827117878744
 10
-14.705187831429235
 20
36.43889276357158
 10
-14.422921651429235
 20
36.52955048557158
 10
-14.373415083057841
 20
36.544053349566965
 10
-14.024022056057841
 20
36.636692113566966
 10
-13.99543538977316
 20
36.64382262166241
 10
-13.60081769077316
 20
36.73610102566241
 10
-12.739537995248737
 20
36.925389356216414
 10
-12.327891289594392
 20
37.021603204508196
 10
-12.313598732368316
 20
37.02516826500322
 10
-11.944612649256234
 20
37.123001971556974
 10
-11.919863484813986
 20
37.130252196679045
 10
-11.604646370412253
 20
37.23149303691529
 10
-11.56400560343045
 20
37.24651879302268
 10
-11.487792385940583
 20
37.27851670861572
 10
-11.466408504139169
 20
37.288751142861
 10
-11.46525
 20
37.31242964907388
 10
-11.46525
 20
56.08463858267598
 10
-11.466408504138439
 20
56.10831708863135
 10
-11.487792381683315
 20
56.118551520596874
 10
-11.56400560343045
 20
56.15054943797732
 10
-11.604646370412253
 20
56.16557519408471
 10
-11.919863484813986
 20
56.266816034320954
 10
-11.944612649256234
 20
56.274066259443025
 10
-12.313598732368316
 20
56.37189996599678
 10
-12.327891289594392
 20
56.3754650264918
 10
-12.739537994874484
 20
56.471678874698725
 10
-13.60081769077316
 20
56.66096720533759
 10
-13.99543538977316
 20
56.75324560933759
 10
-14.024022056057841
 20
56.76037611743303
 10
-14.373415083057841
 20
56.85301488143303
 10
-14.422921651429235
 20
56.867517745428415
 10
-14.705187831429235
 20
56.95817546742842
 10
-14.786507604858839
 20
56.98824111811862
 10
-14.852362823858838
 20
57.015890256118624
 10
-14.940521910843843
 20
57.0580836413456
 10
-15.024141054925064
 20
57.10868151796178
 10
-15.102421500419426
 20
57.167200559547794
 10
-15.1746154885284
 20
57.23308177428965
 10
-15.24003340015914
 20
57.305695844639786
 10
-15.298050343377342
 20
57.38434913875108
 10
-15.348112122566446
 20
57.468290336260786
 10
-15.389740532273965
 20
57.5567176051328
 10
-15.422537925176469
 20
57.648786261002975
 10
-15.446191010528656
 20
57.7436168358629
 10
-15.460473846812528
 20
57.84030347900781
 10
-15.46525
 20
57.93792261
 10
-15.46525
 20
77.192465454
 10
-15.460473846812528
 20
77.2900845849922
 10
-15.446191010528656
 20
77.38677122813709
 10
-15.422537925176469
 20
77.48160180299702
 10
-15.389740532273965
 20
77.5736704588672
 10
-15.348112122566446
 20
77.66209772773922
 10
-15.298050343377342
 20
77.74603892524893
 10
-15.24003340015914
 20
77.82469221936022
 10
-15.1746154885284
 20
77.89730628971034
 10
-15.102421500419426
 20
77.96318750445221
 10
-15.024141054925064
 20
78.02170654603823
 10
-14.940521910843843
 20
78.0723044226544
 10
-14.852362823858838
 20
78.11449780788138
 10
-14.786507604858839
 20
78.14214694588138
 10
-14.705187828371587
 20
78.17221259755362
 10
-14.422921648371586
 20
78.26287031855362
 10
-14.373415085642652
 20
78.27737318088163
 10
-14.024022058642654
 20
78.37001194588163
 10
-13.99543538977316
 20
78.37714245466242
 10
-13.60081769077316
 20
78.46942085866242
 10
-12.739537995958305
 20
78.65870918905553
 10
-12.327891288487578
 20
78.75492303678428
 10
-12.313598732367705
 20
78.75848809700338
 10
-11.94461264925651
 20
78.8563218035569
 10
-11.91986348481408
 20
78.86357202867902
 10
-11.60464637556459
 20
78.96481286726046
 10
-11.564005608420322
 20
78.97983862392769
 10
-11.487792381683217
 20
79.01183654340316
 10
-11.466408504138439
 20
79.02207097536864
 10
-11.46525
 20
79.04574948132402
 10
-11.46525
 20
97.25
 10
-11.460434726672196
 20
97.34801714032956
 10
-11.44603528040323
 20
97.44509032201613
 10
-11.422190335732209
 20
97.54028467725446
 10
-11.389129532511285
 20
97.63268343236508
 10
-11.347171264348354
 20
97.721396736826
 10
-11.296719612302544
 20
97.80557023301961
 10
-11.238260453362736
 20
97.88439328416365
 10
-11.172356781186547
 20
97.95710678118655
 10
-11.099643284163644
 20
98.02301045336274
 10
-11.0208202330196
 20
98.08146961230254
 10
-10.936646736825997
 20
98.13192126434835
 10
-10.847933432365089
 20
98.1738795325113
 10
-10.755534677254461
 20
98.20694033573221
 10
-10.660340322016127
 20
98.23078528040323
 10
-10.56326714032956
 20
98.24518472667219
 10
-10.46525
 20
98.25
 10
56.40345137947789
 20
98.25
 10
56.427881788893785
 20
98.25120018897552
 10
56.46703390959395
 20
98.25700785778541
 10
56.546490087199864
 20
98.26556586675193
 10
56.626375913746244
 20
98.26775182059724
 10
64.47767401374625
 20
98.16872712859724
 10
64.57832709685378
 20
98.16237151612462
 10
64.65409848251767
 20
98.14983578678098
 10
64.66627157216718
 20
98.14841450336849
 10
64.69072741961857
 20
98.14797289664844
 10
97.41385426896892
 20
99.16376154957025
 10
97.45020236863445
 20
99.16621816457751
 10
142.3573579704578
 20
103.85049372707657
 10
142.45167328465902
 20
103.85584555949737
 10
142.54607277041302
 20
103.8522737682778
 10
142.63971400476402
 20
103.8398102281563
 10
142.7317613314073
 20
103.81856616402169
 10
142.82139331810353
 20
103.78873115834001
 10
142.9078100871567
 20
103.75057145931667
 10
142.99024045353926
 20
103.70442760489195
 10
143.06794880696336
 20
103.65071138377346
 10
143.14024167648196
 20
103.58990216062514
 10
143.20647391903807
 20
103.5225425982073
 10
143.2660544767345
 20
103.4492338146427
 10
143.3184516514468
 20
103.37063001902631
 10
143.36259584599605
 20
103.28855198869886
 10
143.38634608324568
 20
103.287389785
 10
145.959
 20
103.287389785
 10
146.05701714032958
 20
103.2825745116722
 10
146.15409032201615
 20
103.26817506540323
 10
146.24928467725448
 20
103.24433012073222
 10
146.3416834323651
 20
103.2112693175113
 10
146.430396736826
 20
103.16931104934835
 10
146.5145702330196
 20
103.11885939730254
 10
146.59339328416365
 20
103.06040023836275
 10
146.66610678118656
 20
102.99449656618656
 10
146.73201045336273
 20
102.92178306916365
 10
146.79046961230256
 20
102.84296001801961
 10
146.84092126434837
 20
102.758786521826
 10
146.88287953251128
 20
102.67007321736509
 10
146.91594033573222
 20
102.57767446225446
 10
146.93978528040324
 20
102.48248010701613
 10
146.9541847266722
 20
102.38540692532956
 10
146.959
 20
102.287389785
 10
146.959
 20
81.18591972932416
 10
146.96015850413846
 20
81.16224122336864
 10
146.98154238491398
 20
81.1520067898569
 10
147.0577556067896
 20
81.12000887178071
 10
147.098396370412
 20
81.10498311691538
 10
147.41361348481425
 20
81.00374227667896
 10
147.4383626492559
 20
80.99649205155707
 10
147.80734873236852
 20
80.89865834500316
 10
147.82164128959442
 20
80.89509328450819
 10
148.2332879948758
 20
80.79887943630098
 10
149.09456769311277
 20
80.60959110611532
 10
149.48918539211277
 20
80.51731270111532
 10
149.51777205605785
 20
80.51018219356698
 10
149.86716508305784
 20
80.41754342956698
 10
149.9166716483716
 20
80.40304056655363
 10
150.19893782837158
 20
80.31238284555363
 10
150.28025760485875
 20
80.28231719388141
 10
150.34611282385876
 20
80.25466805588141
 10
150.4342719108438
 20
80.21247467065444
 10
150.517891054925
 20
80.16187679403826
 10
150.5961715004194
 20
80.10335775245225
 10
150.66836548852837
 20
80.03747653771039
 10
150.73378340015913
 20
79.96486246736026
 10
150.79180034337733
 20
79.88620917324896
 10
150.84186212256643
 20
79.80226797573926
 10
150.88349053227395
 20
79.71384070686723
 10
150.91628792517648
 20
79.62177205099705
 10
150.93994101052866
 20
79.52694147613711
 10
150.95422384681254
 20
79.4302548329922
 10
150.959
 20
79.332635702
 10
150.959
 20
60.078092857
 10
150.95422384670752
 20
59.98047372493717
 10
150.9399410101106
 20
59.883787080752356
 10
150.91628792424333
 20
59.78895650491349
 10
150.8834905306336
 20
59.696887848154624
 10
150.84186212004036
 20
59.60846057851197
 10
150.7918003398042
 20
59.52451938037564
 10
150.7337833953982
 20
59.44586608580533
 10
150.6683654824624
 20
59.373252015184704
 10
150.5961714929573
 20
59.307370800378706
 10
150.51789104600428
 20
59.24885175894936
 10
150.43427190043224
 20
59.19825388272145
 10
150.34611281195603
 20
59.15606049812126
 10
150.28025759295602
 20
59.12841136112126
 10
150.19893783142922
 20
59.098345715428415
 10
149.91667165142923
 20
59.00768799342842
 10
149.86716508305784
 20
58.99318512943304
 10
149.51777205605785
 20
58.90054636543304
 10
149.48918538977316
 20
58.893415857337594
 10
149.09456769077315
 20
58.801137453337596
 10
148.23328799487535
 20
58.61184912269892
 10
147.8216412895946
 20
58.515635274491856
 10
147.80734873236824
 20
58.512070213996765
 10
147.43836264925645
 20
58.41423650744309
 10
147.41361348481416
 20
58.406986282321
 10
147.09839637041227
 20
58.30574544208472
 10
147.05775560343054
 20
58.29071968597735
 10
146.98154238594037
 20
58.25872177038419
 10
146.96015850413917
 20
58.248487336139
 10
146.959
 20
58.22480882992639
 10
146.959
 20
42.66285526832416
 10
146.96015850413846
 20
42.639176762368635
 10
146.98154238168325
 20
42.628942330403156
 10
147.05775560343054
 20
42.59694441302265
 10
147.09839637163398
 20
42.581918656463586
 10
147.41361348606355
 20
42.48067781531299
 10
147.4383626481025
 20
42.47342759089496
 10
147.8073487471187
 20
42.37559388107395
 10
147.82164130452188
 20
42.37202882003478
 10
148.23328799595873
 20
42.27581497605543
 10
149.09456769077318
 20
42.08652664566241
 10
149.48918538977318
 20
41.994248241662405
 10
149.51777205864263
 20
41.98711773288163
 10
149.86716508564263
 20
41.89447896788163
 10
149.9166716483716
 20
41.87997610555363
 10
150.19893782837158
 20
41.78931838455363
 10
150.28025760485875
 20
41.75925273288141
 10
150.34611282385876
 20
41.731603594881406
 10
150.4342719108438
 20
41.68941020965444
 10
150.517891054925
 20
41.63881233303827
 10
150.5961715004194
 20
41.58029329145225
 10
150.66836548852837
 20
41.51441207671039
 10
150.73378340015913
 20
41.44179800636025
 10
150.79180034337733
 20
41.36314471224896
 10
150.84186212256643
 20
41.27920351473925
 10
150.88349053227395
 20
41.19077624586723
 10
150.91628792517648
 20
41.09870758999705
 10
150.93994101052866
 20
41.003877015137114
 10
150.95422384681254
 20
40.9071903719922
 10
150.959
 20
40.809571241
 10
150.959
 20
21.555028397
 10
150.95422384681254
 20
21.457409266007797
 10
150.93994101052866
 20
21.360722622862887
 10
150.91628792517648
 20
21.265892048002957
 10
150.88349053227395
 20
21.17382339213278
 10
150.84186212256643
 20
21.08539612326075
 10
150.79180034337733
 20
21.001454925751045
 10
150.7337834001591
 20
20.922801631639746
 10
150.66836548852837
 20
20.85018756128961
 10
150.5961715004194
 20
20.78430634654775
 10
150.517891054925
 20
20.725787304961734
 10
150.4342719108438
 20
20.67518942834556
 10
150.34611282385876
 20
20.63299604311859
 10
150.28025760485875
 20
20.60534690511859
 10
150.19893783142922
 20
20.57528125442842
 10
149.91667165142923
 20
20.48462353242842
 10
149.86716508305784
 20
20.470120668433033
 10
149.51777205605785
 20
20.377481904433033
 10
149.48918538977316
 20
20.370351396337593
 10
149.09456769077315
 20
20.27807299233759
 10
148.2332879948753
 20
20.088784661698902
 10
147.82164128959454
 20
19.99257081349184
 10
147.80734873236867
 20
19.98900575299687
 10
147.43836264925633
 20
19.89117204644305
 10
147.41361348481382
 20
19.883921821320907
 10
147.09839637041233
 20
19.78268098108474
 10
147.05775560343045
 20
19.767655224977318
 10
146.9815423816833
 20
19.735657307596878
 10
146.96015850413843
 20
19.725422875631352
 10
146.959
 20
19.70174436967584
 10
146.959
 20
2.837748438
 10
146.9541847266722
 20
2.7397312976704398
 10
146.93978528040324
 20
2.642658115983872
 10
146.91594033573222
 20
2.5474637607455377
 10
146.88287953251128
 20
2.4550650056349106
 10
146.84092126434837
 20
2.3663517011740027
 10
146.79046961230256
 20
2.282178204980398
 10
146.73201045336273
 20
2.2033551538363545
 10
146.66610678118656
 20
2.1306416568134527
 10
146.59339328416365
 20
2.0647379846372633
 10
146.5145702330196
 20
2.006278825697455
 10
146.430396736826
 20
1.9558271736516453
 10
146.3416834323651
 20
1.9138689054887135
 10
146.24928467725448
 20
1.8808081022677914
 10
146.15409032201615
 20
1.8569631575967698
 10
146.05701714032958
 20
1.8425637113278035
 10
145.959
 20
1.8377484380000002
 10
136.9873692102205
 20
1.8377484380000002
 10
136.9308131567379
 20
1.8345369522164452
 10
120.02942439401059
 20
-0.09113305775209307
 10
120.00573595403168
 20
-0.09499775594723518
 10
119.98154657411202
 20
-0.10396008074484142
 10
119.94856652921744
 20
-0.11813334642015771
 10
119.8620949671548
 20
-0.146301841204873
 10
119.77342189610427
 20
-0.16649792039015243
 10
119.6832807128713
 20
-0.17855454634234336
 10
117.8608270804859
 20
-0.33838320234783037
 10
117.84790821031773
 20
-0.339685430428531
 10
116.60595207622136
 20
-0.48118845862492376
 10
116.51707634932272
 20
-0.4873206458849746
 10
116.42800754735616
 20
-0.48551868345588667
 10
116.33945256473955
 20
-0.4757968726098686
 10
116.3278111770039
 20
-0.47399094540232317
 10
116.30382798887928
 20
-0.47493157036187267
 10
98.52804672714309
 20
-2.0338624322710337
 10
98.50308739472685
 20
-2.0373337149274704
 10
98.47350006164451
 20
-2.0478348754747655
 10
98.43863385121324
 20
-2.062245891794981
 10
98.34183402495566
 20
-2.0912220618706074
 10
98.2426042335453
 20
-2.1102817914701246
 10
98.14195759576698
 20
-2.1192304840936673
 10
97.11467698847957
 20
-2.158425288055195
 10
97.09006164423879
 20
-2.15997330742754
 10
95.49318706670716
 20
-2.300018745356737
 10
95.39221229770226
 20
-2.3037496974162743
 10
95.29137648833552
 20
-2.2972717711878525
 10
95.19170915447137
 20
-2.280651105158012
 10
95.09422788204498
 20
-2.2540573934013257
 10
95.04705442441102
 20
-2.23858825951819
 10
95.02192313061376
 20
-2.2382720973033527
 10
78.42743693905993
 20
-2.8714171584842085
 10
78.4037335657891
 20
-2.873463020810083
 10
78.37417151387987
 20
-2.88506089387681
 10
78.28620446831886
 20
-2.9149367797272383
 10
78.19584450276945
 20
-2.936520252246524
 10
78.10387149328078
 20
-2.9496250294548876
 10
78.01107923771272
 20
-2.9541380070387975
 10
76.16481843249723
 20
-2.9580692585529516
 10
76.14682143977036
 20
-2.958431629690485
 10
73.90041272835768
 20
-3.0441409770711303
 10
73.8069171270632
 20
-3.043333983102367
 10
73.71390556942059
 20
-3.033798321322764
 10
73.62219116978682
 20
-3.015617353238061
 10
73.53257570266146
 20
-2.9889500183021096
 10
73.4929355549922
 20
-2.9729900611700946
 10
73.46973176269131
 20
-2.9649485781245466
 10
73.4459652501672
 20
-2.963858526778038
 10
53.46453345206198
 20
-3.006405087038053
 10
53.390000953923774
 20
-3.003782798307877
 10
53.376944884961105
 20
-3.0023439213298895
 10
53.32916840369218
 20
-3.0
 10
-10.46525
 20
-3.0
 10
-10.56326714032956
 20
-2.995184726672197
 10
-10.660340322016127
 20
-2.9807852804032304
 10
-10.755534677254461
 20
-2.9569403357322086
 10
-10.847933432365089
 20
-2.9238795325112865
 10
-10.936646736825997
 20
-2.881921264348355
 10
-11.020820233019602
 20
-2.8314696123025453
 10
-11.099643284163646
 20
-2.773010453362737
 10
-11.172356781186547
 20
-2.7071067811865475
 10
-11.238260453362736
 20
-2.6343932841636453
 10
-11.296719612302544
 20
-2.555570233019602
 10
-11.347171264348354
 20
-2.4713967368259975
 10
-11.389129532511285
 20
-2.3826834323650896
 10
-11.422190335732209
 20
-2.290284677254462
 10
-11.44603528040323
 20
-2.1950903220161284
 10
-11.460434726672196
 20
-2.0980171403295604
 10
-11.46525
 20
-2.0
 10
-11.46525
 20
14.351318749675977
 10
-11.466408504138439
 20
14.374997255631355
 10
-11.487792381683324
 20
14.385231687596878
 10
-11.564005608420272
 20
14.417229607072285
 10
-11.604646375564615
 20
14.432255363739536
 10
-11.919863484814087
 20
14.533496202320986
 10
-11.944612649256136
 20
14.540746427442997
 10
-12.313598732368478
 20
14.638580133996824
 10
-12.327891289594547
 20
14.642145194491844
 10
-12.739537994875118
 20
14.738359042698864
 10
-13.600817693112761
 20
14.927647372884689
 10
-13.99543539211276
 20
15.019925777884689
 10
-14.024022056057847
 20
15.027056285433034
 10
-14.373415083057846
 20
15.119695049433036
 10
-14.422921648371586
 20
15.134197912446371
 10
-14.705187828371587
 20
15.22485563344637
 10
-14.786507604858839
 20
15.254921285118622
 10
-14.852362823858838
 20
15.282570423118623
  0
LWPOLYLINE
  5
33
330
17
100
AcDbEntity
  8
SWITCH_CUTOUTS
100
AcDbPolyline
 90
13
 70
1
 10
127.51833787257726
 20
39.462973290442434
 10
127.53220900590243
 20
39.46524788311056
 10
141.4129460013469
 20
41.04675809636168
 10
141.42697329044242
 20
41.047662127422726
 10
141.42924788311055
 20
41.033790994097586
 10
143.01075809636166
 20
27.153053998653334
 10
143.01166212742268
 20
27.13902670955756
 10
142.99779099409758
 20
27.136752116889454
 10
129.11705399865306
 20
25.555241903638326
 10
129.10302670955755
 20
25.554337872577282
 10
129.10075211688942
 20
25.568209005902403
 10
127.51924190363829
 20
39.44894600134713
 10
127.51833787257726
 20
39.462973290442434
  0
LWPOLYLINE
  5
34
330
17
100
AcDbEntity
  8
SWITCH_CUTOUTS
100
AcDbPolyline
 90
13
 70
1
 10
119.61233787257729
 20
19.511973290442437
 10
119.62620900590245
 20
19.514247883110553
 10
133.50694600134693
 20
21.095758096361674
 10
133.52097329044244
 20
21.096662127422718
 10
133.52324788311057
 20
21.082790994097596
 10
135.10475809636168
 20
7.202053998653332
 10
135.1056621274227
 20
7.188026709557553
 10
135.0917909940976
 20
7.18575211688945
 10
121.21105399865309
 20
5.604241903638323
 10
121.19702670955756
 20
5.60333787257728
 10
121.19475211688946
 20
5.6172090059023985
 10
119.61324190363831
 20
19.497946001347124
 10
119.61233787257729
 20
19.511973290442437
  0
LWPOLYLINE
  5
35
330
17
100
AcDbEntity
  8
SWITCH_CUTOUTS
100
AcDbPolyline
 90
13
 70
1
 10
116.52267295467571
 20
76.3191637358832
 10
116.5365453166436
 20
76.32143082321338
 10
130.41813595971294
 20
77.89543060388898
 10
130.4321637358832
 20
77.8963270453243
 10
130.43443082321338
 20
77.88245468335641
 10
132.00843060388897
 20
64.00086404028706
 10
132.00932704532428
 20
63.98683626411682
 10
131.9954546833564
 20
63.984569176786636
 10
118.11386404028707
 20
62.41056939611103
 10
118.09983626411682
 20
62.40967295467571
 10
118.09756917678665
 20
62.42354531664357
 10
116.52356939611103
 20
76.30513595971294
 10
116.52267295467571
 20
76.3191637358832
  0
LWPOLYLINE
  5
36
330
17
100
AcDbEntity
  8
SWITCH_CUTOUTS
100
AcDbPolyline
 90
13
 70
1
 10
112.60530040481872
 20
95.19138001109965
 10
112.61919254632578
 20
95.1935225600204
 10
126.51434475753295
 20
96.6429290312028
 10
126.52838001109966
 20
96.64369959518129
 10
126.5305225600204
 20
96.62980745367423
 10
127.9799290312028
 20
82.73465524246726
 10
127.98069959518129
 20
82.72061998890035
 10
127.96680745367422
 20
82.71847743997961
 10
114.07165524246706
 20
81.26907096879721
 10
114.05761998890036
 20
81.26830040481872
 10
114.05547743997961
 20
81.28219254632577
 10
112.60607096879721
 20
95.17734475753295
 10
112.60530040481872
 20
95.19138001109965
  0
LWPOLYLINE
  5
37
330
17
100
AcDbEntity
  8
SWITCH_CUTOUTS
100
AcDbPolyline
 90
13
 70
1
 10
111.34635214997441
 20
56.73829019413484
 10
111.3602323797593
 20
56.74050860181783
 10
125.24725935947305
 20
58.265800625012574
 10
125.26129019413484
 20
58.26664785002559
 10
125.26350860181782
 20
58.25276762024082
 10
126.78880062501257
 20
44.365740640526965
 10
126.78964785002559
 20
44.35170980586516
 10
126.7757676202407
 20
44.349491398182174
 10
112.88874064052695
 20
42.82419937498743
 10
112.87470980586515
 20
42.82335214997441
 10
112.87249139818218
 20
42.837232379759186
 10
111.34719937498743
 20
56.72425935947304
 10
111.34635214997441
 20
56.73829019413484
  0
LWPOLYLINE
  5
38
330
17
100
AcDbEntity
  8
SWITCH_CUTOUTS
100
AcDbPolyline
 90
13
 70
1
 10
107.19155945801175
 20
37.30423295728622
 10
107.20545100066454
 20
37.306379385541106
 10
121.10019791944866
 20
38.759666058657665
 10
121.11423295728622
 20
38.760440541988245
 10
121.11637938554111
 20
38.746548999335424
 10
122.56966605865767
 20
24.851802080551145
 10
122.57044054198825
 20
24.83776704271378
 10
122.55654899933548
 20
24.835620614458893
 10
108.66180208055127
 20
23.38233394134233
 10
108.64776704271378
 20
23.381559458011758
 10
108.64562061445889
 20
23.395451000664554
 10
107.19233394134233
 20
37.29019791944885
 10
107.19155945801175
 20
37.30423295728622
  0
LWPOLYLINE
  5
39
330
17
100
AcDbEntity
  8
SWITCH_CUTOUTS
100
AcDbPolyline
 90
13
 70
1
 10
98.85496169342527
 20
17.59405745241928
 10
98.86888721487067
 20
17.595971078297605
 10
112.78601141802962
 20
18.816498835117727
 10
112.80005745241925
 20
18.817038306574727
 10
112.80197107829758
 20
18.80311278512933
 10
114.0224988351177
 20
4.885988581970418
 10
114.02303830657469
 20
4.871942547580726
 10
114.0091127851293
 20
4.870028921702401
 10
100.09198858197037
 20
3.649501164882279
 10
100.07794254758072
 20
3.648961693425281
 10
100.07602892170237
 20
3.6628872148706746
 10
98.85550116488226
 20
17.58001141802959
 10
98.85496169342527
 20
17.59405745241928
  0
LWPOLYLINE
  5
3A
330
17
100
AcDbEntity
  8
SWITCH_CUTOUTS
100
AcDbPolyline
 90
13
 70
1
 10
95.72780201502555
 20
74.53566381791991
 10
95.74174147419386
 20
74.53747312431229
 10
109.66761413801883
 20
75.6537636968123
 10
109.68166381791991
 20
75.65419798497445
 10
109.68347312431229
 20
75.64025852580613
 10
110.7997636968123
 20
61.71438586198116
 10
110.80019798497445
 20
61.70033618208008
 10
110.78625852580599
 20
61.69852687568769
 10
96.86038586198116
 20
60.582236303187685
 10
96.84633618208008
 20
60.58180201502553
 10
96.8445268756877
 20
60.59574147419384
 10
95.72823630318769
 20
74.52161413801883
 10
95.72780201502555
 20
74.53566381791991
  0
LWPOLYLINE
  5
3B
330
17
100
AcDbEntity
  8
SWITCH_CUTOUTS
100
AcDbPolyline
 90
13
 70
1
 10
90.52535978181042
 20
55.19307655349605
 10
90.53932070500535
 20
55.19471201522676
 10
104.4780225526802
 20
56.137381041422024
 10
104.49207655349602
 20
56.13764021818956
 10
104.49371201522676
 20
56.1236792949944
 10
105.43638104142201
 20
42.184977447319795
 10
105.43664021818954
 20
42.170923446503956
 10
105.42267929499461
 20
42.16928798477324
 10
91.48397744731976
 20
41.22661895857798
 10
91.46992344650394
 20
41.226359781810444
 10
91.4682879847732
 20
41.2403207050056
 10
90.52561895857795
 20
55.17902255268021
 10
90.52535978181042
 20
55.19307655349605
  0
LWPOLYLINE
  5
3C
330
17
100
AcDbEntity
  8
SWITCH_CUTOUTS
100
AcDbPolyline
 90
13
 70
1
 10
86.39615752020963
 20
35.95753767454463
 10
86.41013394409828
 20
35.959034900918354
 10
100.35748179710963
 20
36.763722392072474
 10
100.37153767454464
 20
36.76384247979037
 10
100.37303490091837
 20
36.749866055901684
 10
101.17772239207248
 20
22.802518202890415
 10
101.17784247979039
 20
22.78846232545537
 10
101.16386605590176
 20
22.786965099081648
 10
87.21651820289041
 20
21.98227760792753
 10
87.20246232545537
 20
21.98215752020963
 10
87.20096509908164
 20
21.996133944098304
 10
86.39627760792753
 20
35.943481797109584
 10
86.39615752020963
 20
35.95753767454463
  0
LWPOLYLINE
  5
3D
330
17
100
AcDbEntity
  8
SWITCH_CUTOUTS
100
AcDbPolyline
 90
13
 70
1
 10
78.25092157512248
 20
16.66036419828374
 10
78.2649245301708
 20
16.66158868243779
 10
92.22530865085618
 20
17.19423236655934
 10
92.23936419828375
 20
17.194078424877503
 10
92.24058868243779
 20
17.1800754698293
 10
92.77323236655936
 20
3.219691349143549
 10
92.77307842487753
 20
3.2056358017162534
 10
92.75907546982921
 20
3.2044113175622018
 10
78.79869134914378
 20
2.6717676334406533
 10
78.78463580171625
 20
2.671921575122488
 10
78.78341131756221
 20
2.6859245301706935
 10
78.25076763344065
 20
16.646308650856444
 10
78.25092157512248
 20
16.66036419828374
  0
LWPOLYLINE
  5
3E
330
17
100
AcDbEntity
  8
SWITCH_CUTOUTS
100
AcDbPolyline
 90
13
 70
1
 10
75.23460204359665
 20
73.75952835137079
 10
75.24861346112411
 20
73.76065186835005
 10
89.21247427872707
 20
74.19265320854343
 10
89.22652835137079
 20
74.19239795640335
 10
89.22765186835005
 20
74.1783865388759
 10
89.65965320854343
 20
60.21452572127294
 10
89.65939795640334
 20
60.200471648629204
 10
89.64538653887605
 20
60.199348131649955
 10
75.68152572127293
 20
59.767346791456575
 10
75.66747164862922
 20
59.76760204359666
 10
75.66634813164995
 20
59.781613461124095
 10
75.23434679145657
 20
73.74547427872707
 10
75.23460204359665
 20
73.75952835137079
  0
LWPOLYLINE
  5
3F
330
17
100
AcDbEntity
  8
SWITCH_CUTOUTS
100
AcDbPolyline
 90
13
 70
1
 10
75.10063835219592
 20
92.92871893435485
 10
75.10089213259556
 20
92.94277303365143
 10
75.11490343239166
 20
92.94389801789673
 10
89.07871893435484
 20
93.37736164780408
 10
89.09277303365143
 20
93.37710786740443
 10
89.09389801789672
 20
93.36309656760834
 10
89.52736164780407
 20
79.39928106564516
 10
89.52710786740442
 20
79.38522696634857
 10
89.51309656760833
 20
79.38410198210327
 10
75.54928106564515
 20
78.95063835219592
 10
75.53522696634856
 20
78.95089213259557
 10
75.53410198210327
 20
78.96490343239167
 10
75.10063835219592
 20
92.92871893435485
  0
LWPOLYLINE
  5
40
330
17
100
AcDbEntity
  8
SWITCH_CUTOUTS
100
AcDbPolyline
 90
13
 70
1
 10
70.31237116409316
 20
54.669402569991206
 10
70.32639476142937
 20
54.67036216849198
 10
84.29435244300832
 20
54.939048411043146
 10
84.3084025699912
 20
54.93862883590683
 10
84.30936216849196
 20
54.92460523857075
 10
84.57804841104316
 20
40.956647556991676
 10
84.57762883590682
 20
40.94259743000879
 10
84.56360523857062
 20
40.94163783150802
 10
70.59564755699166
 20
40.67295158895685
 10
70.58159743000878
 20
40.67337116409316
 10
70.58063783150803
 20
40.687394761429246
 10
70.31195158895683
 20
54.65535244300832
 10
70.31237116409316
 20
54.669402569991206
  0
LWPOLYLINE
  5
41
330
17
100
AcDbEntity
  8
SWITCH_CUTOUTS
100
AcDbPolyline
 90
13
 70
1
 10
66.48392589800979
 20
35.60260360666171
 10
66.49795640632614
 20
35.60345621906589
 10
80.46755708844807
 20
35.765600825450335
 10
80.4816036066617
 20
35.76507410199021
 10
80.48245621906588
 20
35.75104359367367
 10
80.64460082545034
 20
21.78144291155191
 10
80.6440741019902
 20
21.767396393338284
 10
80.63004359367378
 20
21.766543780934104
 10
66.66044291155188
 20
21.604399174549663
 10
66.64639639333829
 20
21.604925898009792
 10
66.6455437809341
 20
21.618956406326333
 10
66.48339917454965
 20
35.588557088448084
 10
66.48392589800979
 20
35.60260360666171
  0
LWPOLYLINE
  5
42
330
17
100
AcDbEntity
  8
SWITCH_CUTOUTS
100
AcDbPolyline
 90
13
 70
1
 10
58.83780194961744
 20
16.529390786502507
 10
58.85183990805981
 20
16.530110393546995
 10
72.82234989084236
 20
16.559857868985265
 10
72.83639078650252
 20
16.55919805038256
 10
72.837110393547
 20
16.545160091940225
 10
72.86685786898526
 20
2.5746501091575356
 10
72.86619805038255
 20
2.5606092134974943
 10
72.85216009194016
 20
2.5598896064530066
 10
58.881650109157675
 20
2.5301421310147387
 10
58.86760921349749
 20
2.5308019496174468
 10
58.86688960645301
 20
2.544839908059777
 10
58.83714213101474
 20
16.515349890842426
 10
58.83780194961744
 20
16.529390786502507
  0
LWPOLYLINE
  5
43
330
17
100
AcDbEntity
  8
SWITCH_CUTOUTS
100
AcDbPolyline
 90
13
 70
1
 10
55.97602584370934
 20
73.67564449603442
 10
55.99006493952962
 20
73.67634156137018
 10
69.96060467794692
 20
73.68365651954014
 10
69.97464449603441
 20
73.68297415629065
 10
69.97534156137017
 20
73.66893506047039
 10
69.98265651954013
 20
59.69839532205308
 10
69.98197415629065
 20
59.684355503965584
 10
69.9679350604706
 20
59.68365843862984
 10
55.9973953220529
 20
59.67634348045987
 10
55.98335550396558
 20
59.677025843709345
 10
55.982658438629834
 20
59.691064939529404
 10
55.97534348045986
 20
73.66160467794711
 10
55.97602584370934
 20
73.67564449603442
  0
LWPOLYLINE
  5
44
330
17
100
AcDbEntity
  8
SWITCH_CUTOUTS
100
AcDbPolyline
 90
13
 70
1
 10
51.21068971438715
 20
40.62568971438716
 10
51.209999999999994
 20
40.63972917326537
 10
51.209999999999994
 20
54.61027082673463
 10
51.21068971438715
 20
54.62431028561284
 10
51.22472917326537
 20
54.625
 10
65.19527082673463
 20
54.625
 10
65.20931028561284
 20
54.62431028561284
 10
65.21
 20
54.610270826734705
 10
65.21
 20
40.639729173265295
 10
65.20931028561284
 20
40.62568971438716
 10
65.19527082673463
 20
40.625
 10
51.22472917326537
 20
40.625
 10
51.21068971438715
 20
40.62568971438716
  0
LWPOLYLINE
  5
45
330
17
100
AcDbEntity
  8
SWITCH_CUTOUTS
100
AcDbPolyline
 90
13
 70
1
 10
47.400689714387156
 20
21.575689714387156
 10
47.400000000000006
 20
21.589729173265372
 10
47.400000000000006
 20
35.56027082673463
 10
47.40068971438716
 20
35.574310285612846
 10
47.41472917326538
 20
35.575
 10
61.38527082673463
 20
35.575
 10
61.39931028561285
 20
35.574310285612846
 10
61.400000000000006
 20
35.56027082673463
 10
61.400000000000006
 20
21.589729173265372
 10
61.399310285612856
 20
21.575689714387156
 10
61.38527082673463
 20
21.575000000000003
 10
47.41472917326538
 20
21.575000000000003
 10
47.400689714387156
 20
21.575689714387156
  0
LWPOLYLINE
  5
46
330
17
100
AcDbEntity
  8
SWITCH_CUTOUTS
100
AcDbPolyline
 90
13
 70
1
 10
39.78068971438716
 20
2.525689714387154
 10
39.78
 20
2.5397291732653677
 10
39.78
 20
16.51027082673463
 10
39.78068971438716
 20
16.524310285612845
 10
39.794729173265374
 20
16.525
 10
53.76527082673463
 20
16.525
 10
53.77931028561285
 20
16.524310285612845
 10
53.78
 20
16.51027082673463
 10
53.78
 20
2.5397291732653677
 10
53.779310285612844
 20
2.525689714387154
 10
53.76527082673465
 20
2.5250000000000004
 10
39.79472917326535
 20
2.5250000000000004
 10
39.78068971438716
 20
2.525689714387154
  0
LWPOLYLINE
  5
47
330
17
100
AcDbEntity
  8
SWITCH_CUTOUTS
100
AcDbPolyline
 90
13
 70
1
 10
36.92368971438716
 20
59.675689714387154
 10
36.923
 20
59.68972917326537
 10
36.923
 20
73.66027082673463
 10
36.92368971438716
 20
73.67431028561285
 10
36.937729173265296
 20
73.675
 10
50.90827082673471
 20
73.675
 10
50.922310285612845
 20
73.67431028561285
 10
50.923
 20
73.66027082673463
 10
50.923
 20
59.68972917326537
 10
50.922310285612845
 20
59.675689714387154
 10
50.90827082673463
 20
59.675
 10
36.937729173265375
 20
59.675
 10
36.92368971438716
 20
59.675689714387154
  0
LWPOLYLINE
  5
48
330
17
100
AcDbEntity
  8
SWITCH_CUTOUTS
100
AcDbPolyline
 90
53
 70
1
 10
-1.1773102856128463
 20
78.72568971438713
 10
-1.1780000000000008
 20
78.73972917326535
 10
-1.1780000000000008
 20
92.71027082673463
 10
-1.1773102856128461
 20
92.72431028561283
 10
-1.1632708267347056
 20
92.72499999999998
 10
17.570270826734706
 20
92.72499999999998
 10
17.584929075004805
 20
92.72427988643933
 10
17.58704814767517
 20
92.72396555170211
 10
17.640461715326836
 20
92.71334093251033
 10
17.699059395403566
 20
92.7075695647661
 10
17.757940604596435
 20
92.7075695647661
 10
17.816538284673168
 20
92.71334093251033
 10
17.86995185232483
 20
92.72396555170211
 10
17.872070924995196
 20
92.72427988643933
 10
17.886729173265294
 20
92.72499999999998
 10
31.857270826734705
 20
92.72499999999998
 10
31.871929075004804
 20
92.72427988643933
 10
31.873538279303972
 20
92.72404118353046
 10
31.927961715326788
 20
92.71321568903024
 10
31.98655939540355
 20
92.707444321286
 10
32.04544060459644
 20
92.707444321286
 10
32.10403828467321
 20
92.71321568903024
 10
32.15846172069602
 20
92.72404118353046
 10
32.16007092499519
 20
92.72427988643933
 10
32.17472917326529
 20
92.72499999999998
 10
50.90827082673471
 20
92.72499999999998
 10
50.922310285612845
 20
92.72431028561283
 10
50.923
 20
92.71027082673461
 10
50.923
 20
78.73972917326535
 10
50.922310285612845
 20
78.72568971438713
 10
50.90827082673471
 20
78.72499999999998
 10
32.17472917326529
 20
78.72499999999998
 10
32.16007092499519
 20
78.72572011356063
 10
32.15846172069602
 20
78.7259588164695
 10
32.10403828467321
 20
78.73678431096972
 10
32.04544060459644
 20
78.74255567871396
 10
31.98655939540355
 20
78.74255567871396
 10
31.927961715326788
 20
78.73678431096972
 10
31.873538279303972
 20
78.7259588164695
 10
31.871929075004804
 20
78.72572011356063
 10
31.857270826734705
 20
78.72499999999998
 10
17.886729173265294
 20
78.72499999999998
 10
17.872070924995185
 20
78.72572011356063
 10
17.86995185232493
 20
78.72603444829784
 10
17.81653828467318
 20
78.73665906748963
 10
17.757940604596445
 20
78.74243043523386
 10
17.699059395403573
 20
78.74243043523386
 10
17.640461715326836
 20
78.73665906748963
 10
17.58704814767517
 20
78.72603444829785
 10
17.584929075004805
 20
78.72572011356063
 10
17.570270826734706
 20
78.72499999999998
 10
-1.1632708267347056
 20
78.72499999999998
 10
-1.1773102856128463
 20
78.72568971438713
  0
LWPOLYLINE
  5
49
330
17
100
AcDbEntity
  8
SWITCH_CUTOUTS
100
AcDbPolyline
 90
13
 70
1
 10
32.16068971438715
 20
40.62568971438716
 10
32.16
 20
40.63972917326537
 10
32.16
 20
54.61027082673463
 10
32.16068971438715
 20
54.62431028561284
 10
32.17472917326537
 20
54.625
 10
46.145270826734624
 20
54.625
 10
46.15931028561284
 20
54.62431028561284
 10
46.16
 20
54.61027082673463
 10
46.16
 20
40.63972917326537
 10
46.15931028561284
 20
40.62568971438716
 10
46.145270826734624
 20
40.625
 10
32.17472917326537
 20
40.625
 10
32.16068971438715
 20
40.62568971438716
  0
LWPOLYLINE
  5
4A
330
17
100
AcDbEntity
  8
SWITCH_CUTOUTS
100
AcDbPolyline
 90
13
 70
1
 10
28.350689714387155
 20
21.575689714387156
 10
28.35
 20
21.589729173265372
 10
28.35
 20
35.56027082673463
 10
28.350689714387155
 20
35.57431028561285
 10
28.36472917326537
 20
35.575
 10
42.33527082673463
 20
35.575
 10
42.349310285612844
 20
35.574310285612846
 10
42.35
 20
35.56027082673463
 10
42.35
 20
21.589729173265372
 10
42.34931028561285
 20
21.575689714387156
 10
42.33527082673463
 20
21.575000000000003
 10
28.36472917326537
 20
21.575000000000003
 10
28.350689714387155
 20
21.575689714387156
  0
LWPOLYLINE
  5
4B
330
17
100
AcDbEntity
  8
SWITCH_CUTOUTS
100
AcDbPolyline
 90
13
 70
1
 10
20.73068971438715
 20
2.525689714387154
 10
20.729999999999997
 20
2.5397291732653677
 10
20.729999999999997
 20
16.51027082673463
 10
20.73068971438715
 20
16.524310285612845
 10
20.744729173265366
 20
16.525
 10
34.715270826734624
 20
16.525
 10
34.72931028561285
 20
16.524310285612845
 10
34.73
 20
16.51027082673463
 10
34.73
 20
2.5397291732653677
 10
34.72931028561284
 20
2.525689714387154
 10
34.715270826734645
 20
2.5250000000000004
 10
20.74472917326535
 20
2.5250000000000004
 10
20.73068971438715
 20
2.525689714387154
  0
LWPOLYLINE
  5
4C
330
17
100
AcDbEntity
  8
SWITCH_CUTOUTS
100
AcDbPolyline
 90
13
 70
1
 10
5.966689714387154
 20
59.675689714387154
 10
5.965999999999999
 20
59.68972917326536
 10
5.965999999999999
 20
73.66027082673463
 10
5.966689714387154
 20
73.67431028561285
 10
5.980729173265294
 20
73.675
 10
19.951270826734707
 20
73.675
 10
19.965310285612844
 20
73.67431028561285
 10
19.966
 20
73.66027082673463
 10
19.966
 20
59.68972917326537
 10
19.965310285612848
 20
59.67568971438715
 10
19.951270826734632
 20
59.675
 10
5.980729173265367
 20
59.675
 10
5.966689714387154
 20
59.675689714387154
  0
LWPOLYLINE
  5
4D
330
17
100
AcDbEntity
  8
SWITCH_CUTOUTS
100
AcDbPolyline
 90
13
 70
1
 10
1.204189714387154
 20
40.62568971438716
 10
1.2035
 20
40.63972917326536
 10
1.2035
 20
54.61027082673464
 10
1.204189714387154
 20
54.62431028561284
 10
1.2182291732653672
 20
54.625
 10
19.951270826734632
 20
54.625
 10
19.965310285612848
 20
54.62431028561285
 10
19.966
 20
54.61027082673463
 10
19.966
 20
40.63972917326537
 10
19.965310285612848
 20
40.62568971438715
 10
19.951270826734632
 20
40.625
 10
1.2182291732653676
 20
40.625
 10
1.204189714387154
 20
40.62568971438716
  0
LWPOLYLINE
  5
4E
330
17
100
AcDbEntity
  8
SWITCH_CUTOUTS
100
AcDbPolyline
 90
13
 70
1
 10
4.538689714387154
 20
21.575689714387156
 10
4.538
 20
21.589729173265354
 10
4.538
 20
35.56027082673465
 10
4.5386897143871545
 20
35.574310285612846
 10
4.552729173265368
 20
35.575
 10
18.52327082673463
 20
35.575
 10
18.537310285612847
 20
35.57431028561285
 10
18.538
 20
35.56027082673463
 10
18.538
 20
21.589729173265372
 10
18.537310285612847
 20
21.575689714387156
 10
18.52327082673463
 20
21.575000000000003
 10
4.552729173265368
 20
21.575000000000003
 10
4.538689714387154
 20
21.575689714387156
  0
LWPOLYLINE
  5
4F
330
17
100
AcDbEntity
  8
SWITCH_CUTOUTS
100
AcDbPolyline
 90
13
 70
1
 10
1.6806897143871535
 20
2.525689714387154
 10
1.6799999999999997
 20
2.53972917326535
 10
1.6799999999999997
 20
16.510270826734644
 10
1.6806897143871538
 20
16.524310285612845
 10
1.6947291732653669
 20
16.525
 10
15.665270826734634
 20
16.525
 10
15.679310285612846
 20
16.524310285612845
 10
15.680000000000001
 20
16.51027082673463
 10
15.680000000000001
 20
2.5397291732653677
 10
15.679310285612846
 20
2.5256897143871546
 10
15.665270826734647
 20
2.5250000000000004
 10
1.694729173265349
 20
2.5250000000000004
 10
1.6806897143871535
 20
2.525689714387154
  0
LWPOLYLINE
  5
50
330
17
100
AcDbEntity
  8
STAB_CLEARANCE
100
AcDbPolyline
 90
5
 70
1
 10
-2.4402500000000007
 20
75.11
 10
4.559749999999999
 20
75.11
 10
4.559749999999999
 20
59.51
 10
-2.4402500000000007
 20
59.51
 10
-2.4402500000000007
 20
75.11
  0
LWPOLYLINE
  5
51
330
17
100
AcDbEntity
  8
STAB_CLEARANCE
100
AcDbPolyline
 90
5
 70
1
 10
21.37225
 20
75.11
 10
28.37225
 20
75.11
 10
28.37225
 20
59.51
 10
21.37225
 20
59.51
 10
21.37225
 20
75.11
  0
LWPOLYLINE
  5
52
330
17
100
AcDbEntity
  8
STAB_CLEARANCE
100
AcDbPolyline
 90
5
 70
1
 10
104.09477820219752
 20
95.74712469710992
 10
111.0570039978091
 20
96.47335604518064
 10
112.67546243065239
 20
80.95753855781766
 10
105.7132366350408
 20
80.23130720974696
 10
104.09477820219752
 20
95.74712469710992
  0
LWPOLYLINE
  5
53
330
17
100
AcDbEntity
  8
STAB_CLEARANCE
100
AcDbPolyline
 90
5
 70
1
 10
127.77877845334051
 20
98.2176081222433
 10
134.7410042489521
 20
98.943839470314
 10
136.35946268179538
 20
83.42802198295104
 10
129.3972368861838
 20
82.70179063488034
 10
127.77877845334051
 20
98.2176081222433
  0
ENDSEC
  0
SECTION
  2
OBJECTS
  0
DICTIONARY
  5
A
330
0
100
AcDbDictionary
281
1
  3
ACAD_COLOR
350
B
  3
ACAD_GROUP
350
C
  3
ACAD_LAYOUT
350
D
  3
ACAD_MATERIAL
350
E
  3
ACAD_MLEADERSTYLE
350
F
  3
ACAD_MLINESTYLE
350
10
  3
ACAD_PLOTSETTINGS
350
11
  3
ACAD_PLOTSTYLENAME
350
12
  3
ACAD_SCALELIST
350
14
  3
ACAD_TABLESTYLE
350
15
  3
ACAD_VISUALSTYLE
350
16
  3
EZDXF_META
350
2D
  0
DICTIONARY
  5
B
330
A
100
AcDbDictionary
281
1
  0
DICTIONARY
  5
C
330
A
100
AcDbDictionary
281
1
  0
DICTIONARY
  5
D
330
A
100
AcDbDictionary
281
1
  3
Model
350
1A
  3
Layout1
350
1E
  0
DICTIONARY
  5
E
330
A
100
AcDbDictionary
281
1
  3
ByBlock
350
1F
  3
ByLayer
350
20
  3
Global
350
21
  0
DICTIONARY
  5
F
330
A
100
AcDbDictionary
281
1
  3
Standard
350
2C
  0
DICTIONARY
  5
10
330
A
100
AcDbDictionary
281
1
  3
Standard
350
22
  0
DICTIONARY
  5
11
330
A
100
AcDbDictionary
281
1
  0
ACDBDICTIONARYWDFLT
  5
12
330
A
100
AcDbDictionary
281
1
  3
Normal
350
13
100
AcDbDictionaryWithDefault
340
13
  0
ACDBPLACEHOLDER
  5
13
330
12
  0
DICTIONARY
  5
14
330
A
100
AcDbDictionary
281
1
  0
DICTIONARY
  5
15
330
A
100
AcDbDictionary
281
1
  0
DICTIONARY
  5
16
330
A
100
AcDbDictionary
281
1
  0
LAYOUT
  5
1A
330
D
100
AcDbPlotSettings
  1

  4
A3
  6

 40
7.5
 41
20.0
 42
7.5
 43
20.0
 44
420.0
 45
297.0
 46
0.0
 47
0.0
 48
0.0
 49
0.0
140
0.0
141
0.0
142
1.0
143
1.0
 70
1024
 72
1
 73
0
 74
5
  7

 75
16
 76
0
 77
2
 78
300
147
1.0
148
0.0
149
0.0
100
AcDbLayout
  1
Model
 70
1
 71
0
 10
0.0
 20
0.0
 11
420.0
 21
297.0
 12
0.0
 22
0.0
 32
0.0
 14
1e+20
 24
1e+20
 34
1e+20
 15
-1e+20
 25
-1e+20
 35
-1e+20
146
0.0
 13
0.0
 23
0.0
 33
0.0
 16
1.0
 26
0.0
 36
0.0
 17
0.0
 27
1.0
 37
0.0
 76
1
330
17
  0
LAYOUT
  5
1E
330
D
100
AcDbPlotSettings
  1

  4
A3
  6

 40
7.5
 41
20.0
 42
7.5
 43
20.0
 44
420.0
 45
297.0
 46
0.0
 47
0.0
 48
0.0
 49
0.0
140
0.0
141
0.0
142
1.0
143
1.0
 70
0
 72
1
 73
0
 74
5
  7

 75
16
 76
0
 77
2
 78
300
147
1.0
148
0.0
149
0.0
100
AcDbLayout
  1
Layout1
 70
1
 71
1
 10
0.0
 20
0.0
 11
420.0
 21
297.0
 12
0.0
 22
0.0
 32
0.0
 14
1e+20
 24
1e+20
 34
1e+20
 15
-1e+20
 25
-1e+20
 35
-1e+20
146
0.0
 13
0.0
 23
0.0
 33
0.0
 16
1.0
 26
0.0
 36
0.0
 17
0.0
 27
1.0
 37
0.0
 76
1
330
1B
  0
MATERIAL
  5
1F
102
{ACAD_REACTORS
330
E
102
}
330
E
100
AcDbMaterial
  1
ByBlock
  2

 70
0
 40
1.0
 71
1
 41
1.0
 91
-1023410177
 42
1.0
 72
1
  3

 73
1
 74
1
 75
1
 44
0.5
 73
0
 45
1.0
 46
1.0
 77
1
  4

 78
1
 79
1
170
1
 48
1.0
171
1
  6

172
1
173
1
174
1
140
1.0
141
1.0
175
1
  7

176
1
177
1
178
1
143
1.0
179
1
  8

270
1
271
1
272
1
145
1.0
146
1.0
273
1
  9

274
1
275
1
276
1
 42
1.0
 72
1
  3

 73
1
 74
1
 75
1
 94
63
  0
MATERIAL
  5
20
102
{ACAD_REACTORS
330
E
102
}
330
E
100
AcDbMaterial
  1
ByLayer
  2

 70
0
 40
1.0
 71
1
 41
1.0
 91
-1023410177
 42
1.0
 72
1
  3

 73
1
 74
1
 75
1
 44
0.5
 73
0
 45
1.0
 46
1.0
 77
1
  4

 78
1
 79
1
170
1
 48
1.0
171
1
  6

172
1
173
1
174
1
140
1.0
141
1.0
175
1
  7

176
1
177
1
178
1
143
1.0
179
1
  8

270
1
271
1
272
1
145
1.0
146
1.0
273
1
  9

274
1
275
1
276
1
 42
1.0
 72
1
  3

 73
1
 74
1
 75
1
 94
63
  0
MATERIAL
  5
21
102
{ACAD_REACTORS
330
E
102
}
330
E
100
AcDbMaterial
  1
Global
  2

 70
0
 40
1.0
 71
1
 41
1.0
 91
-1023410177
 42
1.0
 72
1
  3

 73
1
 74
1
 75
1
 44
0.5
 73
0
 45
1.0
 46
1.0
 77
1
  4

 78
1
 79
1
170
1
 48
1.0
171
1
  6

172
1
173
1
174
1
140
1.0
141
1.0
175
1
  7

176
1
177
1
178
1
143
1.0
179
1
  8

270
1
271
1
272
1
145
1.0
146
1.0
273
1
  9

274
1
275
1
276
1
 42
1.0
 72
1
  3

 73
1
 74
1
 75
1
 94
63
  0
MLINESTYLE
  5
22
102
{ACAD_REACTORS
330
10
102
}
330
10
100
AcDbMlineStyle
  2
Standard
 70
0
  3

 62
256
 51
90.0
 52
90.0
 71
2
 49
0.5
 62
256
  6
BYLAYER
 49
-0.5
 62
256
  6
BYLAYER
  0
MLEADERSTYLE
  5
2C
102
{ACAD_REACTORS
330
F
102
}
330
F
100
AcDbMLeaderStyle
179
2
170
2
171
1
172
0
 90
2
 40
0.0
 41
0.0
173
1
 91
-1056964608
 92
-2
290
1
 42
2.0
291
1
 43
8.0
  3
Standard
 44
4.0
300

342
29
174
1
175
1
176
0
178
1
 93
-1056964608
 45
4.0
292
0
297
0
 46
4.0
 94
-1056964608
 47
1.0
 49
1.0
140
1.0
294
1
141
0.0
177
0
142
1.0
295
0
296
0
143
3.75
271
0
272
9
273
9
  0
DICTIONARY
  5
2D
330
A
100
AcDbDictionary
280
1
281
1
  3
CREATED_BY_EZDXF
350
2E
  3
WRITTEN_BY_EZDXF
350
56
  0
DICTIONARYVAR
  5
2E
330
2D
100
DictionaryVariables
280
0
  1
1.4.4 @ 2026-09-14T00:04:35.431109+00:00
  0
DICTIONARYVAR
  5
56
330
2D
100
DictionaryVariables
280
0
  1
1.4.4 @ 2026-09-14T00:04:35.436857+00:00
  0
ENDSEC
  0
EOF
