  0
SECTION
  2
HEADER
  9
$ACADVER
  1
AC1024
  9
$ACADMAINTVER
 70
6
  9
$DWGCODEPAGE
  3
ANSI_1252
  9
$LASTSAVEDBY
  1
ezdxf
  9
$INSBASE
 10
0.0
 20
0.0
 30
0.0
  9
$EXTMIN
 10
1e+20
 20
1e+20
 30
1e+20
  9
$EXTMAX
 10
-1e+20
 20
-1e+20
 30
-1e+20
  9
$LIMMIN
 10
0.0
 20
0.0
  9
$LIMMAX
 10
420.0
 20
297.0
  9
$ORTHOMODE
 70
0
  9
$REGENMODE
 70
1
  9
$FILLMODE
 70
1
  9
$QTEXTMODE
 70
0
  9
$MIRRTEXT
 70
1
  9
$LTSCALE
 40
1.0
  9
$ATTMODE
 70
1
  9
$TEXTSIZE
 40
2.5
  9
$TRACEWID
 40
1.0
  9
$TEXTSTYLE
  7
Standard
  9
$CLAYER
  8
0
  9
$CELTYPE
  6
ByLayer
  9
$CECOLOR
 62
256
  9
$CELTSCALE
 40
1.0
  9
$DISPSILH
 70
0
  9
$DIMSCALE
 40
1.0
  9
$DIMASZ
 40
2.5
  9
$DIMEXO
 40
0.625
  9
$DIMDLI
 40
3.75
  9
$DIMRND
 40
0.0
  9
$DIMDLE
 40
0.0
  9
$DIMEXE
 40
1.25
  9
$DIMTP
 40
0.0
  9
$DIMTM
 40
0.0
  9
$DIMTXT
 40
2.5
  9
$DIMCEN
 40
2.5
  9
$DIMTSZ
 40
0.0
  9
$DIMTOL
 70
0
  9
$DIMLIM
 70
0
  9
$DIMTIH
 70
0
  9
$DIMTOH
 70
0
  9
$DIMSE1
 70
0
  9
$DIMSE2
 70
0
  9
$DIMTAD
 70
1
  9
$DIMZIN
 70
8
  9
$DIMBLK
  1

  9
$DIMASO
 70
1
  9
$DIMSHO
 70
1
  9
$DIMPOST
  1

  9
$DIMAPOST
  1

  9
$DIMALT
 70
0
  9
$DIMALTD
 70
3
  9
$DIMALTF
 40
0.03937007874
  9
$DIMLFAC
 40
1.0
  9
$DIMTOFL
 70
1
  9
$DIMTVP
 40
0.0
  9
$DIMTIX
 70
0
  9
$DIMSOXD
 70
0
  9
$DIMSAH
 70
0
  9
$DIMBLK1
  1

  9
$DIMBLK2
  1

  9
$DIMSTYLE
  2
ISO-25
  9
$DIMCLRD
 70
0
  9
$DIMCLRE
 70
0
  9
$DIMCLRT
 70
0
  9
$DIMTFAC
 40
1.0
  9
$DIMGAP
 40
0.625
  9
$DIMJUST
 70
0
  9
$DIMSD1
 70
0
  9
$DIMSD2
 70
0
  9
$DIMTOLJ
 70
0
  9
$DIMTZIN
 70
8
  9
$DIMALTZ
 70
0
  9
$DIMALTTZ
 70
0
  9
$DIMUPT
 70
0
  9
$DIMDEC
 70
2
  9
$DIMTDEC
 70
2
  9
$DIMALTU
 70
2
  9
$DIMALTTD
 70
3
  9
$DIMTXSTY
  7
Standard
  9
$DIMAUNIT
 70
0
  9
$DIMADEC
 70
0
  9
$DIMALTRND
 40
0.0
  9
$DIMAZIN
 70
0
  9
$DIMDSEP
 70
44
  9
$DIMATFIT
 70
3
  9
$DIMFRAC
 70
0
  9
$DIMLDRBLK
  1

  9
$DIMLUNIT
 70
2
  9
$DIMLWD
 70
-2
  9
$DIMLWE
 70
-2
  9
$DIMTMOVE
 70
0
  9
$DIMFXL
 40
1.0
  9
$DIMFXLON
 70
0
  9
$DIMJOGANG
 40
0.785398163397
  9
$DIMTFILL
 70
0
  9
$DIMTFILLCLR
 70
0
  9
$DIMARCSYM
 70
0
  9
$DIMLTYPE
  6

  9
$DIMLTEX1
  6

  9
$DIMLTEX2
  6

  9
$DIMTXTDIRECTION
 70
0
  9
$LUNITS
 70
2
  9
$LUPREC
 70
4
  9
$SKETCHINC
 40
1.0
  9
$FILLETRAD
 40
10.0
  9
$AUNITS
 70
0
  9
$AUPREC
 70
2
  9
$MENU
  1
.
  9
$ELEVATION
 40
0.0
  9
$PELEVATION
 40
0.0
  9
$THICKNESS
 40
0.0
  9
$LIMCHECK
 70
0
  9
$CHAMFERA
 40
0.0
  9
$CHAMFERB
 40
0.0
  9
$CHAMFERC
 40
0.0
  9
$CHAMFERD
 40
0.0
  9
$SKPOLY
 70
0
  9
$TDCREATE
 40
2461296.5696875
  9
$TDUCREATE
 40
2458532.153996898
  9
$TDUPDATE
 40
2461296.5696875
  9
$TDUUPDATE
 40
2458532.1544311
  9
$TDINDWG
 40
0.0
  9
$TDUSRTIMER
 40
0.0
  9
$USRTIMER
 70
1
  9
$ANGBASE
 50
0.0
  9
$ANGDIR
 70
0
  9
$PDMODE
 70
0
  9
$PDSIZE
 40
0.0
  9
$PLINEWID
 40
0.0
  9
$SPLFRAME
 70
0
  9
$SPLINETYPE
 70
6
  9
$SPLINESEGS
 70
8
  9
$HANDSEED
  5
5A
  9
$SURFTAB1
 70
6
  9
$SURFTAB2
 70
6
  9
$SURFTYPE
 70
6
  9
$SURFU
 70
6
  9
$SURFV
 70
6
  9
$UCSBASE
  2

  9
$UCSNAME
  2

  9
$UCSORG
 10
0.0
 20
0.0
 30
0.0
  9
$UCSXDIR
 10
1.0
 20
0.0
 30
0.0
  9
$UCSYDIR
 10
0.0
 20
1.0
 30
0.0
  9
$UCSORTHOREF
  2

  9
$UCSORTHOVIEW
 70
0
  9
$UCSORGTOP
 10
0.0
 20
0.0
 30
0.0
  9
$UCSORGBOTTOM
 10
0.0
 20
0.0
 30
0.0
  9
$UCSORGLEFT
 10
0.0
 20
0.0
 30
0.0
  9
$UCSORGRIGHT
 10
0.0
 20
0.0
 30
0.0
  9
$UCSORGFRONT
 10
0.0
 20
0.0
 30
0.0
  9
$UCSORGBACK
 10
0.0
 20
0.0
 30
0.0
  9
$PUCSBASE
  2

  9
$PUCSNAME
  2

  9
$PUCSORG
 10
0.0
 20
0.0
 30
0.0
  9
$PUCSXDIR
 10
1.0
 20
0.0
 30
0.0
  9
$PUCSYDIR
 10
0.0
 20
1.0
 30
0.0
  9
$PUCSORTHOREF
  2

  9
$PUCSORTHOVIEW
 70
0
  9
$PUCSORGTOP
 10
0.0
 20
0.0
 30
0.0
  9
$PUCSORGBOTTOM
 10
0.0
 20
0.0
 30
0.0
  9
$PUCSORGLEFT
 10
0.0
 20
0.0
 30
0.0
  9
$PUCSORGRIGHT
 10
0.0
 20
0.0
 30
0.0
  9
$PUCSORGFRONT
 10
0.0
 20
0.0
 30
0.0
  9
$PUCSORGBACK
 10
0.0
 20
0.0
 30
0.0
  9
$USERI1
 70
0
  9
$USERI2
 70
0
  9
$USERI3
 70
0
  9
$USERI4
 70
0
  9
$USERI5
 70
0
  9
$USERR1
 40
0.0
  9
$USERR2
 40
0.0
  9
$USERR3
 40
0.0
  9
$USERR4
 40
0.0
  9
$USERR5
 40
0.0
  9
$WORLDVIEW
 70
1
  9
$SHADEDGE
 70
3
  9
$SHADEDIF
 70
70
  9
$TILEMODE
 70
1
  9
$MAXACTVP
 70
64
  9
$PINSBASE
 10
0.0
 20
0.0
 30
0.0
  9
$PLIMCHECK
 70
0
  9
$PEXTMIN
 10
1e+20
 20
1e+20
 30
1e+20
  9
$PEXTMAX
 10
-1e+20
 20
-1e+20
 30
-1e+20
  9
$PLIMMIN
 10
0.0
 20
0.0
  9
$PLIMMAX
 10
420.0
 20
297.0
  9
$UNITMODE
 70
0
  9
$VISRETAIN
 70
1
  9
$PLINEGEN
 70
0
  9
$PSLTSCALE
 70
1
  9
$TREEDEPTH
 70
3020
  9
$CMLSTYLE
  2
Standard
  9
$CMLJUST
 70
0
  9
$CMLSCALE
 40
20.0
  9
$PROXYGRAPHICS
 70
1
  9
$MEASUREMENT
 70
1
  9
$CELWEIGHT
370
-1
  9
$ENDCAPS
280
0
  9
$JOINSTYLE
280
0
  9
$LWDISPLAY
290
0
  9
$INSUNITS
 70
4
  9
$HYPERLINKBASE
  1

  9
$STYLESHEET
  1

  9
$XEDIT
290
1
  9
$CEPSNTYPE
380
0
  9
$PSTYLEMODE
290
1
  9
$FINGERPRINTGUID
  2
{54E44B7D-0DDB-4892-8730-673657B1D202}
  9
$VERSIONGUID
  2
{DAF14F5B-85EC-43A0-B481-D97E4E495DB7}
  9
$EXTNAMES
290
1
  9
$PSVPSCALE
 40
0.0
  9
$OLESTARTUP
290
0
  9
$SORTENTS
280
127
  9
$INDEXCTL
280
0
  9
$HIDETEXT
280
1
  9
$XCLIPFRAME
280
1
  9
$HALOGAP
280
0
  9
$OBSCOLOR
 70
257
  9
$OBSLTYPE
280
0
  9
$INTERSECTIONDISPLAY
280
0
  9
$INTERSECTIONCOLOR
 70
257
  9
$DIMASSOC
280
2
  9
$PROJECTNAME
  1

  9
$CAMERADISPLAY
290
0
  9
$LENSLENGTH
 40
50.0
  9
$CAMERAHEIGHT
 40
0.0
  9
$STEPSPERSEC
 40
24.0
  9
$STEPSIZE
 40
100.0
  9
$3DDWFPREC
 40
2.0
  9
$PSOLWIDTH
 40
0.005
  9
$PSOLHEIGHT
 40
0.08
  9
$LOFTANG1
 40
1.570796326795
  9
$LOFTANG2
 40
1.570796326795
  9
$LOFTMAG1
 40
0.0
  9
$LOFTMAG2
 40
0.0
  9
$LOFTPARAM
 70
7
  9
$LOFTNORMALS
280
1
  9
$LATITUDE
 40
37.795
  9
$LONGITUDE
 40
-122.394
  9
$NORTHDIRECTION
 40
0.0
  9
$TIMEZONE
 70
-8000
  9
$LIGHTGLYPHDISPLAY
280
1
  9
$TILEMODELIGHTSYNCH
280
1
  9
$CMATERIAL
347
20
  9
$SOLIDHIST
280
0
  9
$SHOWHIST
280
1
  9
$DWFFRAME
280
2
  9
$DGNFRAME
280
2
  9
$REALWORLDSCALE
290
1
  9
$INTERFERECOLOR
 62
256
  9
$CSHADOW
280
0
  9
$SHADOWPLANELOCATION
 40
0.0
  0
ENDSEC
  0
SECTION
  2
CLASSES
  0
CLASS
  1
ACDBDICTIONARYWDFLT
  2
AcDbDictionaryWithDefault
  3
ObjectDBX Classes
 90
0
 91
0
280
0
281
0
  0
CLASS
  1
SUN
  2
AcDbSun
  3
SCENEOE
 90
1153
 91
0
280
0
281
0
  0
CLASS
  1
VISUALSTYLE
  2
AcDbVisualStyle
  3
ObjectDBX Classes
 90
4095
 91
0
280
0
281
0
  0
CLASS
  1
MATERIAL
  2
AcDbMaterial
  3
ObjectDBX Classes
 90
1153
 91
0
280
0
281
0
  0
CLASS
  1
SCALE
  2
AcDbScale
  3
ObjectDBX Classes
 90
1153
 91
0
280
0
281
0
  0
CLASS
  1
TABLESTYLE
  2
AcDbTableStyle
  3
ObjectDBX Classes
 90
4095
 91
0
280
0
281
0
  0
CLASS
  1
MLEADERSTYLE
  2
AcDbMLeaderStyle
  3
ACDB_MLEADERSTYLE_CLASS
 90
4095
 91
0
280
0
281
0
  0
CLASS
  1
DICTIONARYVAR
  2
AcDbDictionaryVar
  3
ObjectDBX Classes
 90
0
 91
0
280
0
281
0
  0
CLASS
  1
CELLSTYLEMAP
  2
AcDbCellStyleMap
  3
ObjectDBX Classes
 90
1152
 91
0
280
0
281
0
  0
CLASS
  1
MENTALRAYRENDERSETTINGS
  2
AcDbMentalRayRenderSettings
  3
SCENEOE
 90
1024
 91
0
280
0
281
0
  0
CLASS
  1
ACDBDETAILVIEWSTYLE
  2
AcDbDetailViewStyle
  3
ObjectDBX Classes
 90
1025
 91
0
280
0
281
0
  0
CLASS
  1
ACDBSECTIONVIEWSTYLE
  2
AcDbSectionViewStyle
  3
ObjectDBX Classes
 90
1025
 91
0
280
0
281
0
  0
CLASS
  1
RASTERVARIABLES
  2
AcDbRasterVariables
  3
ISM
 90
0
 91
0
280
0
281
0
  0
CLASS
  1
ACDBPLACEHOLDER
  2
AcDbPlaceHolder
  3
ObjectDBX Classes
 90
0
 91
0
280
0
281
0
  0
CLASS
  1
LAYOUT
  2
AcDbLayout
  3
ObjectDBX Classes
 90
0
 91
0
280
0
281
0
  0
ENDSEC
  0
SECTION
  2
TABLES
  0
TABLE
  2
VPORT
  5
8
330
0
100
AcDbSymbolTable
 70
1
  0
VPORT
  5
23
330
8
100
AcDbSymbolTableRecord
100
AcDbViewportTableRecord
  2
*Active
 70
0
 10
0.0
 20
0.0
 11
1.0
 21
1.0
 12
0.0
 22
0.0
 13
0.0
 23
0.0
 14
0.5
 24
0.5
 15
0.5
 25
0.5
 16
0.0
 26
0.0
 36
1.0
 17
0.0
 27
0.0
 37
0.0
 40
1000.0
 41
1.34
 42
50.0
 43
0.0
 44
0.0
 50
0.0
 51
0.0
 71
0
 72
1000
 73
1
 74
3
 75
0
 76
0
 77
0
 78
0
281
0
 65
0
146
0.0
  0
ENDTAB
  0
TABLE
  2
LTYPE
  5
2
330
0
100
AcDbSymbolTable
 70
3
  0
LTYPE
  5
24
330
2
100
AcDbSymbolTableRecord
100
AcDbLinetypeTableRecord
  2
ByBlock
 70
0
  3

 72
65
 73
0
 40
0.0
  0
LTYPE
  5
25
330
2
100
AcDbSymbolTableRecord
100
AcDbLinetypeTableRecord
  2
ByLayer
 70
0
  3

 72
65
 73
0
 40
0.0
  0
LTYPE
  5
26
330
2
100
AcDbSymbolTableRecord
100
AcDbLinetypeTableRecord
  2
Continuous
 70
0
  3

 72
65
 73
0
 40
0.0
  0
ENDTAB
  0
TABLE
  2
LAYER
  5
1
330
0
100
AcDbSymbolTable
 70
5
  0
LAYER
  5
27
330
1
100
AcDbSymbolTableRecord
100
AcDbLayerTableRecord
  2
0
 70
0
 62
7
  6
Continuous
370
-3
390
13
347
21
  0
LAYER
  5
28
330
1
100
AcDbSymbolTableRecord
100
AcDbLayerTableRecord
  2
Defpoints
 70
0
 62
7
  6
Continuous
290
0
370
-3
390
13
347
21
  0
LAYER
  5
2F
330
1
100
AcDbSymbolTableRecord
100
AcDbLayerTableRecord
  2
PLATE_OUTLINE
 70
0
 62
7
  6
Continuous
370
-3
390
13
347
21
  0
LAYER
  5
30
330
1
100
AcDbSymbolTableRecord
100
AcDbLayerTableRecord
  2
SWITCH_CUTOUTS
 70
0
 62
3
  6
Continuous
370
-3
390
13
347
21
  0
LAYER
  5
31
330
1
100
AcDbSymbolTableRecord
100
AcDbLayerTableRecord
  2
STAB_CLEARANCE
 70
0
 62
1
  6
Continuous
370
-3
390
13
347
21
  0
ENDTAB
  0
TABLE
  2
STYLE
  5
5
330
0
100
AcDbSymbolTable
 70
1
  0
STYLE
  5
29
330
5
100
AcDbSymbolTableRecord
100
AcDbTextStyleTableRecord
  2
Standard
 70
0
 40
0.0
 41
1.0
 50
0.0
 71
0
 42
2.5
  3
txt
  4

  0
ENDTAB
  0
TABLE
  2
VIEW
  5
7
330
0
100
AcDbSymbolTable
 70
0
  0
ENDTAB
  0
TABLE
  2
UCS
  5
6
330
0
100
AcDbSymbolTable
 70
0
  0
ENDTAB
  0
TABLE
  2
APPID
  5
3
330
0
100
AcDbSymbolTable
 70
3
  0
APPID
  5
2A
330
3
100
AcDbSymbolTableRecord
100
AcDbRegAppTableRecord
  2
ACAD
 70
0
  0
APPID
  5
57
330
3
100
AcDbSymbolTableRecord
100
AcDbRegAppTableRecord
  2
HATCHBACKGROUNDCOLOR
 70
0
  0
APPID
  5
58
330
3
100
AcDbSymbolTableRecord
100
AcDbRegAppTableRecord
  2
EZDXF
 70
0
  0
ENDTAB
  0
TABLE
  2
DIMSTYLE
  5
4
330
0
100
AcDbSymbolTable
 70
1
100
AcDbDimStyleTable
  0
DIMSTYLE
105
2B
330
4
100
AcDbSymbolTableRecord
100
AcDbDimStyleTableRecord
  2
Standard
 70
0
 40
1.0
 41
2.5
 42
0.625
 43
3.75
 44
1.25
 45
0.0
 46
0.0
 47
0.0
 48
0.0
 49
2.5
140
2.5
141
2.5
142
0.0
143
0.03937007874
144
1.0
145
0.0
146
1.0
147
0.625
148
0.0
 69
0
 70
0
 71
0
 72
0
 73
0
 74
0
 75
0
 76
0
 77
1
 78
8
 79
3
170
0
171
3
172
1
173
0
174
0
175
0
176
0
177
0
178
0
179
2
271
2
272
2
273
2
274
3
275
0
276
0
277
2
278
44
279
0
280
0
281
0
282
0
283
0
284
8
285
0
286
0
288
0
289
3
290
0
371
-2
372
-2
  0
ENDTAB
  0
TABLE
  2
BLOCK_RECORD
  5
9
330
0
100
AcDbSymbolTable
 70
2
  0
BLOCK_RECORD
  5
17
330
9
100
AcDbSymbolTableRecord
100
AcDbBlockTableRecord
  2
*Model_Space
340
1A
 70
0
280
1
281
0
  0
BLOCK_RECORD
  5
1B
330
9
100
AcDbSymbolTableRecord
100
AcDbBlockTableRecord
  2
*Paper_Space
340
1E
 70
0
280
1
281
0
  0
ENDTAB
  0
ENDSEC
  0
SECTION
  2
BLOCKS
  0
BLOCK
  5
18
330
17
100
AcDbEntity
  8
0
100
AcDbBlockBegin
  2
*Model_Space
 70
0
 10
0.0
 20
0.0
 30
0.0
  3
*Model_Space
  1

  0
ENDBLK
  5
19
330
17
100
AcDbEntity
  8
0
100
AcDbBlockEnd
  0
BLOCK
  5
1C
330
1B
100
AcDbEntity
  8
0
100
AcDbBlockBegin
  2
*Paper_Space
 70
0
 10
0.0
 20
0.0
 30
0.0
  3
*Paper_Space
  1

  0
ENDBLK
  5
1D
330
1B
100
AcDbEntity
  8
0
100
AcDbBlockEnd
  0
ENDSEC
  0
SECTION
  2
ENTITIES
  0
LWPOLYLINE
  5
32
330
17
100
AcDbEntity
  8
PLATE_OUTLINE
100
AcDbPolyline
 90
390
 70
1
 10
-12.109639592134707
 20
20.2799752458092
 10
-12.196885149517536
 20
20.32254674995184
 10
-12.279591719335643
 20
20.373377287593392
 10
-12.356979864929766
 20
20.43198782563486
 10
-12.428320271110053
 20
20.497826011317933
 10
-12.492940617310119
 20
20.570271377663826
 10
-12.550231913616908
 20
20.648641190828684
 10
-12.59965423996486
 20
20.732196884269428
 10
-12.640741834407535
 20
20.820151019083667
 10
-12.673107482514206
 20
20.9116747049286
 10
-12.69644616652521
 20
21.00590541158329
 10
-12.710537939875996
 20
21.10195509753716
 10
-12.71525
 20
21.198918579
 10
-12.71525
 20
30.46482982
 10
-12.710537939875996
 20
30.561793301462835
 10
-12.696446166525211
 20
30.657842987416704
 10
-12.67310748251421
 20
30.752073694071385
 10
-12.640741834407542
 20
30.843597379916314
 10
-12.59965423996487
 20
30.93155151473055
 10
-12.550231913616923
 20
31.015107208171294
 10
-12.492940617310138
 20
31.09347702133615
 10
-12.428320271110078
 20
31.16592238768204
 10
-12.356979864929796
 20
31.231760573365115
 10
-12.27959171933568
 20
31.29037111140658
 10
-12.196885149517579
 20
31.341201649048138
 10
-12.109639592134757
 20
31.383773153190777
 10
-12.052665580134757
 20
31.40822510419078
 10
-11.97020972672213
 20
31.439385629873776
 10
-11.69651963772213
 20
31.529242303873776
 10
-11.646181848452526
 20
31.544315920509057
 10
-11.305919546452527
 20
31.636538586509054
 10
-11.276812726127204
 20
31.643960105877987
 10
-10.891614884127204
 20
31.73603742787799
 10
-10.04892650027785
 20
31.925359289683882
 10
-9.646382293643954
 20
32.02153446746985
 10
-9.631829705257095
 20
32.02524501785132
 10
-9.271632473175615
 20
32.12287072906339
 10
-9.246467922159416
 20
32.1304062367604
 10
-8.939322446410634
 20
32.231246829969564
 10
-8.89811456317937
 20
32.24681951807377
 10
-8.73756542567005
 20
32.315723558635575
 10
-8.716393479180953
 20
32.3260544181694
 10
-8.715250000000001
 20
32.349584620030065
 10
-8.715250000000001
 20
61.04748361096994
 10
-8.716393479180953
 20
61.0710138128306
 10
-8.73756542567005
 20
61.08134467236442
 10
-8.89811456317937
 20
61.15024871292623
 10
-8.939322447650921
 20
61.165821401499144
 10
-9.246467914766848
 20
61.26666199277586
 10
-9.271632464376081
 20
61.27419749955163
 10
-9.631829705256946
 20
61.371823213148645
 10
-9.64638229364396
 20
61.37553376353015
 10
-10.048926500278245
 20
61.47170894131621
 10
-10.891614884127204
 20
61.66103080312201
 10
-11.276812726127204
 20
61.75310812512201
 10
-11.305919546452527
 20
61.76052964449095
 10
-11.646181848452526
 20
61.85275231049095
 10
-11.696519637722117
 20
61.867825927126226
 10
-11.970209726722118
 20
61.95768260112622
 10
-12.052665580134757
 20
61.988843126809215
 10
-12.109639592134757
 20
62.01329507780922
 10
-12.196885149517579
 20
62.05586658195186
 10
-12.27959171933568
 20
62.10669711959342
 10
-12.356979864929796
 20
62.165307657634884
 10
-12.428320271110078
 20
62.231145843317954
 10
-12.492940617310138
 20
62.30359120966385
 10
-12.550231913616923
 20
62.381961022828705
 10
-12.59965423996487
 20
62.46551671626945
 10
-12.640741834407542
 20
62.55347085108368
 10
-12.67310748251421
 20
62.644994536928614
 10
-12.696446166525211
 20
62.7392252435833
 10
-12.710537939875996
 20
62.835274929537164
 10
-12.71525
 20
62.932238411
 10
-12.71525
 20
72.198149652
 10
-12.710537939875996
 20
72.29511313346283
 10
-12.696446166525211
 20
72.3911628194167
 10
-12.67310748251421
 20
72.48539352607139
 10
-12.640741834407542
 20
72.57691721191631
 10
-12.59965423996487
 20
72.66487134673055
 10
-12.550231913616923
 20
72.7484270401713
 10
-12.492940617310138
 20
72.82679685333615
 10
-12.428320271110078
 20
72.89924221968204
 10
-12.356979864929796
 20
72.96508040536511
 10
-12.27959171933568
 20
73.02369094340658
 10
-12.196885149517577
 20
73.07452148104814
 10
-12.109639592134757
 20
73.11709298519078
 10
-12.052665580134757
 20
73.14154493619078
 10
-11.97020972672214
 20
73.17270546187378
 10
-11.69651963772214
 20
73.26256213587378
 10
-11.646181851094992
 20
73.27763575179286
 10
-11.305919549094993
 20
73.36985841879286
 10
-11.276812726127186
 20
73.377279938878
 10
-10.891614884127186
 20
73.469357260878
 10
-10.048926465713869
 20
73.6586791304452
 10
-9.646382279082955
 20
73.75485430393252
 10
-9.631829689688484
 20
73.75856485407094
 10
-9.27163247317545
 20
73.85619056106344
 10
-9.246467922159773
 20
73.86372606876029
 10
-8.93932245145434
 20
73.96456666031365
 10
-8.898114568057784
 20
73.98013934898007
 10
-8.737565425670017
 20
74.04904339163559
 10
-8.716393479180953
 20
74.0593742511694
 10
-8.715250000000001
 20
74.08290445303007
 10
-8.715250000000001
 20
97.25
 10
-8.710434726672197
 20
97.34801714032956
 10
-8.69603528040323
 20
97.44509032201613
 10
-8.672190335732209
 20
97.54028467725446
 10
-8.639129532511287
 20
97.63268343236508
 10
-8.597171264348354
 20
97.721396736826
 10
-8.546719612302546
 20
97.80557023301961
 10
-8.488260453362738
 20
97.88439328416365
 10
-8.422356781186547
 20
97.95710678118655
 10
-8.349643284163646
 20
98.02301045336274
 10
-8.270820233019602
 20
98.08146961230254
 10
-8.186646736825997
 20
98.13192126434835
 10
-8.09793343236509
 20
98.1738795325113
 10
-8.005534677254463
 20
98.20694033573221
 10
-7.910340322016128
 20
98.23078528040323
 10
-7.813267140329561
 20
98.24518472667219
 10
-7.71525
 20
98.25
 10
59.15345137947789
 20
98.25
 10
59.177881788893785
 20
98.25120018897552
 10
59.21703390959395
 20
98.25700785778541
 10
59.296490087199864
 20
98.26556586675193
 10
59.376375913746244
 20
98.26775182059724
 10
67.22767401374625
 20
98.16872712859724
 10
67.32832709685378
 20
98.16237151612462
 10
67.40409848251767
 20
98.14983578678098
 10
67.41627157216718
 20
98.14841450336849
 10
67.44072741961857
 20
98.14797289664844
 10
100.16385426896892
 20
99.16376154957025
 10
100.20020236863445
 20
99.16621816457751
 10
145.1073579704578
 20
103.85049372707657
 10
145.20167328465902
 20
103.85584555949737
 10
145.29607277041302
 20
103.8522737682778
 10
145.38971400476402
 20
103.8398102281563
 10
145.4817613314073
 20
103.81856616402169
 10
145.57139331810353
 20
103.78873115834001
 10
145.6578100871567
 20
103.75057145931667
 10
145.74024045353926
 20
103.70442760489195
 10
145.81794880696336
 20
103.65071138377346
 10
145.89024167648196
 20
103.58990216062514
 10
145.95647391903807
 20
103.5225425982073
 10
146.0160544767345
 20
103.4492338146427
 10
146.0684516514468
 20
103.37063001902631
 10
146.11259584599605
 20
103.28855198869886
 10
146.13634608324568
 20
103.287389785
 10
148.709
 20
103.287389785
 10
148.80701714032958
 20
103.2825745116722
 10
148.90409032201615
 20
103.26817506540323
 10
148.99928467725448
 20
103.24433012073222
 10
149.0916834323651
 20
103.2112693175113
 10
149.180396736826
 20
103.16931104934835
 10
149.2645702330196
 20
103.11885939730254
 10
149.34339328416365
 20
103.06040023836275
 10
149.41610678118656
 20
102.99449656618656
 10
149.48201045336273
 20
102.92178306916365
 10
149.54046961230256
 20
102.84296001801961
 10
149.59092126434837
 20
102.758786521826
 10
149.63287953251128
 20
102.67007321736509
 10
149.66594033573222
 20
102.57767446225446
 10
149.68978528040324
 20
102.48248010701613
 10
149.7041847266722
 20
102.38540692532956
 10
149.709
 20
102.287389785
 10
149.709
 20
76.2230747002801
 10
149.71014347920547
 20
76.19954449815744
 10
149.73131542380068
 20
76.18921363954775
 10
149.89186456611245
 20
76.12030959771523
 10
149.9330724514545
 20
76.10473690831358
 10
150.24021792215913
 20
76.00389631676049
 10
150.2653824731757
 20
75.99636080906338
 10
150.62557968968832
 20
75.89873510207099
 10
150.64013227908322
 20
75.89502455193247
 10
151.04267646681893
 20
75.79884937818908
 10
151.88536488412723
 20
75.60952750887799
 10
152.27056272612722
 20
75.51745018687798
 10
152.29966954909497
 20
75.51002866679285
 10
152.63993185109499
 20
75.41780599979285
 10
152.6902696377221
 20
75.40273238387377
 10
152.9639597267221
 20
75.31287570987378
 10
153.04641558013466
 20
75.28171518419082
 10
153.10338959213468
 20
75.25726323319081
 10
153.1906351495175
 20
75.21469172904818
 10
153.27334171933563
 20
75.16386119140662
 10
153.35072986492975
 20
75.10525065336516
 10
153.42207027111004
 20
75.03941246768208
 10
153.4866906173101
 20
74.9669671013362
 10
153.5439819136169
 20
74.88859728817134
 10
153.59340423996485
 20
74.80504159473058
 10
153.63449183440753
 20
74.71708745991634
 10
153.66685748251422
 20
74.62556377407141
 10
153.69019616652523
 20
74.53133306741672
 10
153.704287939876
 20
74.43528338146285
 10
153.709
 20
74.3383199
 10
153.709
 20
65.072408659
 10
153.704287939876
 20
64.97544517753715
 10
153.69019616652523
 20
64.87939549158328
 10
153.66685748251422
 20
64.7851647849286
 10
153.63449183440753
 20
64.69364109908366
 10
153.59340423996485
 20
64.60568696426942
 10
153.5439819136169
 20
64.52213127082867
 10
153.4866906173101
 20
64.44376145766381
 10
153.42207027111004
 20
64.37131609131792
 10
153.35072986492975
 20
64.30547790563485
 10
153.27334171933563
 20
64.24686736759338
 10
153.1906351495175
 20
64.19603682995182
 10
153.10338959213468
 20
64.1534653258092
 10
153.04641558013466
 20
64.12901337480919
 10
152.96395972672215
 20
64.09785284912624
 10
152.69026963772217
 20
64.00799617512624
 10
152.63993184845253
 20
63.99292255849094
 10
152.29966954645252
 20
63.90069989249094
 10
152.2705627261272
 20
63.89327837312201
 10
151.87196923740177
 20
63.79809617393171
 10
151.0359787567682
 20
63.610326768856496
 10
150.64013227908276
 20
63.515704007067434
 10
150.62557968968832
 20
63.51199345692903
 10
150.2653824731757
 20
63.41436774993663
 10
150.2402179221594
 20
63.406832242239595
 10
149.93307244641045
 20
63.30599164903037
 10
149.89186456317958
 20
63.29041896092632
 10
149.73131542567006
 20
63.221514920364434
 10
149.7101434792055
 20
63.21118406084256
 10
149.709
 20
63.18765385871992
 10
149.709
 20
37.70001024003
 10
149.71014347918094
 20
37.676480038169416
 10
149.73131542567006
 20
37.66614917863558
 10
149.89186456805797
 20
37.59724513597999
 10
149.93307245145425
 20
37.58167244731367
 10
150.2402179221594
 20
37.48083185576041
 10
150.26538247200168
 20
37.473296348414934
 10
150.6255797040697
 20
37.37567063815407
 10
150.64013229477138
 20
37.37196008718238
 10
151.03597872231407
 20
37.27733733737938
 10
151.87196923651123
 20
37.08956792526826
 10
152.2705627261272
 20
36.99438572587799
 10
152.29966954645252
 20
36.98696420650906
 10
152.63993184845253
 20
36.89474154050906
 10
152.69026964085583
 20
36.87966792284493
 10
152.96395972985582
 20
36.78981124784493
 10
153.04641558013466
 20
36.75865072319081
 10
153.10338959213468
 20
36.73419877219081
 10
153.1906351495175
 20
36.69162726804817
 10
153.27334171933563
 20
36.64079673040662
 10
153.35072986492975
 20
36.58218619236516
 10
153.42207027111004
 20
36.51634800668209
 10
153.4866906173101
 20
36.44390264033619
 10
153.5439819136169
 20
36.36553282717133
 10
153.59340423996485
 20
36.281977133730585
 10
153.63449183440753
 20
36.194022998916346
 10
153.66685748251422
 20
36.102499313071405
 10
153.69019616652523
 20
36.00826860641671
 10
153.704287939876
 20
35.91221892046284
 10
153.709
 20
35.815255439
 10
153.709
 20
26.549344199
 10
153.704287939876
 20
26.452380717537153
 10
153.6901961665252
 20
26.356331031583277
 10
153.66685748251422
 20
26.262100324928582
 10
153.63449183440753
 20
26.170576639083645
 10
153.59340423996485
 20
26.082622504269402
 10
153.5439819136169
 20
25.999066810828655
 10
153.4866906173101
 20
25.920696997663793
 10
153.42207027111002
 20
25.848251631317897
 10
153.35072986492972
 20
25.782413445634823
 10
153.2733417193356
 20
25.72380290759336
 10
153.19063514951748
 20
25.672972369951808
 10
153.10338959213465
 20
25.630400865809168
 10
153.04641558013464
 20
25.60594891480917
 10
152.96395972985582
 20
25.574788390155067
 10
152.69026964085583
 20
25.484931715155067
 10
152.63993184845253
 20
25.469858097490945
 10
152.29966954645252
 20
25.377635431490944
 10
152.2705627261272
 20
25.370213912122008
 10
151.8853648841272
 20
25.27813659012201
 10
151.04267646615278
 20
25.088814720656526
 10
150.64013229477106
 20
24.992639550817543
 10
150.62557970525714
 20
24.988929000148705
 10
150.26538246437596
 20
24.8913032865516
 10
150.24021791476727
 20
24.883767779775983
 10
149.93307244765066
 20
24.78292718849905
 10
149.89186456317958
 20
24.767354499926316
 10
149.73131542567012
 20
24.698450459364448
 10
149.71014347918094
 20
24.688119599830586
 10
149.709
 20
24.664589397970005
 10
149.709
 20
2.837748438
 10
149.7041847266722
 20
2.7397312976704398
 10
149.68978528040324
 20
2.642658115983872
 10
149.66594033573222
 20
2.5474637607455377
 10
149.63287953251128
 20
2.4550650056349106
 10
149.59092126434837
 20
2.3663517011740027
 10
149.54046961230256
 20
2.282178204980398
 10
149.48201045336273
 20
2.2033551538363545
 10
149.41610678118656
 20
2.1306416568134527
 10
149.34339328416365
 20
2.0647379846372633
 10
149.2645702330196
 20
2.006278825697455
 10
149.180396736826
 20
1.9558271736516453
 10
149.0916834323651
 20
1.9138689054887135
 10
148.99928467725448
 20
1.8808081022677914
 10
148.90409032201615
 20
1.8569631575967698
 10
148.80701714032958
 20
1.8425637113278035
 10
148.709
 20
1.8377484380000002
 10
139.7373692102205
 20
1.8377484380000002
 10
139.6808131567379
 20
1.8345369522164452
 10
122.77942439401059
 20
-0.09113305775209307
 10
122.75573595403168
 20
-0.09499775594723518
 10
122.73154657411202
 20
-0.10396008074484142
 10
122.69856652921744
 20
-0.11813334642015771
 10
122.6120949671548
 20
-0.146301841204873
 10
122.52342189610427
 20
-0.16649792039015243
 10
122.4332807128713
 20
-0.17855454634234336
 10
120.6108270804859
 20
-0.33838320234783037
 10
120.59790821031773
 20
-0.339685430428531
 10
119.35595207622136
 20
-0.48118845862492376
 10
119.26707634932272
 20
-0.4873206458849746
 10
119.17800754735616
 20
-0.48551868345588667
 10
119.08945256473955
 20
-0.4757968726098686
 10
119.0778111770039
 20
-0.47399094540232317
 10
119.05382798887928
 20
-0.47493157036187267
 10
101.27804672714309
 20
-2.0338624322710337
 10
101.25308739472685
 20
-2.0373337149274704
 10
101.22350006164451
 20
-2.0478348754747655
 10
101.18863385121324
 20
-2.062245891794981
 10
101.09183402495566
 20
-2.0912220618706074
 10
100.9926042335453
 20
-2.1102817914701246
 10
100.89195759576698
 20
-2.1192304840936673
 10
99.86467698847957
 20
-2.158425288055195
 10
99.84006164423879
 20
-2.15997330742754
 10
98.24318706670716
 20
-2.300018745356737
 10
98.14221229770226
 20
-2.3037496974162743
 10
98.04137648833552
 20
-2.2972717711878525
 10
97.94170915447137
 20
-2.280651105158012
 10
97.84422788204498
 20
-2.2540573934013257
 10
97.79705442441102
 20
-2.23858825951819
 10
97.77192313061376
 20
-2.2382720973033527
 10
81.17743693905993
 20
-2.8714171584842085
 10
81.1537335657891
 20
-2.873463020810083
 10
81.12417151387987
 20
-2.88506089387681
 10
81.03620446831886
 20
-2.9149367797272383
 10
80.94584450276945
 20
-2.936520252246524
 10
80.85387149328078
 20
-2.9496250294548876
 10
80.76107923771272
 20
-2.9541380070387975
 10
78.91481843249723
 20
-2.9580692585529516
 10
78.89682143977036
 20
-2.958431629690485
 10
76.65041272835768
 20
-3.0441409770711303
 10
76.5569171270632
 20
-3.043333983102367
 10
76.46390556942059
 20
-3.033798321322764
 10
76.37219116978682
 20
-3.015617353238061
 10
76.28257570266146
 20
-2.9889500183021096
 10
76.2429355549922
 20
-2.9729900611700946
 10
76.21973176269131
 20
-2.9649485781245466
 10
76.1959652501672
 20
-2.963858526778038
 10
56.21453345206198
 20
-3.006405087038053
 10
56.140000953923774
 20
-3.003782798307877
 10
56.126944884961105
 20
-3.0023439213298895
 10
56.07916840369218
 20
-3.0
 10
-7.71525
 20
-3.0
 10
-7.813267140329561
 20
-2.995184726672197
 10
-7.910340322016129
 20
-2.9807852804032304
 10
-8.005534677254463
 20
-2.9569403357322086
 10
-8.09793343236509
 20
-2.9238795325112865
 10
-8.186646736825999
 20
-2.881921264348355
 10
-8.270820233019602
 20
-2.8314696123025453
 10
-8.349643284163646
 20
-2.773010453362737
 10
-8.422356781186547
 20
-2.7071067811865475
 10
-8.488260453362738
 20
-2.6343932841636453
 10
-8.546719612302546
 20
-2.555570233019602
 10
-8.597171264348356
 20
-2.4713967368259975
 10
-8.639129532511287
 20
-2.3826834323650896
 10
-8.672190335732209
 20
-2.290284677254462
 10
-8.69603528040323
 20
-2.1950903220161284
 10
-8.710434726672197
 20
-2.0980171403295604
 10
-8.715250000000001
 20
-2.0
 10
-8.715250000000001
 20
19.314163778719802
 10
-8.716393479205482
 20
19.337693980842563
 10
-8.737565423800882
 20
19.34802483945236
 10
-8.898114566112353
 20
19.416928881284743
 10
-8.93932245145432
 20
19.432501570686348
 10
-9.246467922159422
 20
19.533342162239602
 10
-9.271632473175636
 20
19.540877669936613
 10
-9.631829689688187
 20
19.63850337692898
 10
-9.646382279083014
 20
19.642213927067484
 10
-10.048926466820056
 20
19.738389100811187
 10
-10.891614884127195
 20
19.92771097012201
 10
-11.276812726127195
 20
20.01978829212201
 10
-11.305919549094993
 20
20.027209812207143
 10
-11.646181851094992
 20
20.119432479207145
 10
-11.69651963772213
 20
20.134506095126227
 10
-11.97020972672213
 20
20.224362769126227
 10
-12.052665580134708
 20
20.2555232948092
 10
-12.109639592134707
 20
20.2799752458092
  0
LWPOLYLINE
  5
33
330
17
100
AcDbEntity
  8
SWITCH_CUTOUTS
100
AcDbPolyline
 90
5
 70
1
 10
18.43
 20
2.5250000000000004
 10
18.43
 20
16.525
 10
4.43
 20
16.525
 10
4.43
 20
2.5250000000000004
 10
18.43
 20
2.5250000000000004
  0
LWPOLYLINE
  5
34
330
17
100
AcDbEntity
  8
SWITCH_CUTOUTS
100
AcDbPolyline
 90
5
 70
1
 10
37.48
 20
2.5250000000000004
 10
37.48
 20
16.525
 10
23.479999999999997
 20
16.525
 10
23.479999999999997
 20
2.5250000000000004
 10
37.48
 20
2.5250000000000004
  0
LWPOLYLINE
  5
35
330
17
100
AcDbEntity
  8
SWITCH_CUTOUTS
100
AcDbPolyline
 90
5
 70
1
 10
56.53
 20
2.5250000000000004
 10
56.53
 20
16.525
 10
42.53
 20
16.525
 10
42.53
 20
2.5250000000000004
 10
56.53
 20
2.5250000000000004
  0
LWPOLYLINE
  5
36
330
17
100
AcDbEntity
  8
SWITCH_CUTOUTS
100
AcDbPolyline
 90
5
 70
1
 10
75.61688923181505
 20
2.5599209692827953
 10
75.5870790307172
 20
16.559889231815053
 10
61.58711076818495
 20
16.530079030717207
 10
61.616920969282795
 20
2.53011076818495
 10
75.61688923181505
 20
2.5599209692827953
  0
LWPOLYLINE
  5
37
330
17
100
AcDbEntity
  8
SWITCH_CUTOUTS
100
AcDbPolyline
 90
5
 70
1
 10
95.52379393398506
 20
3.204972884987912
 10
94.99002711501208
 20
17.194793933985054
 10
81.00020606601494
 20
16.661027115012082
 10
81.53397288498792
 20
2.6712060660149426
 10
95.52379393398506
 20
3.204972884987912
  0
LWPOLYLINE
  5
38
330
17
100
AcDbEntity
  8
SWITCH_CUTOUTS
100
AcDbPolyline
 90
5
 70
1
 10
116.7737856402575
 20
4.8713157268421945
 10
115.55068427315778
 20
18.81778564025752
 10
101.60421435974246
 20
17.59468427315781
 10
102.82731572684217
 20
3.648214359742486
 10
116.7737856402575
 20
4.8713157268421945
  0
LWPOLYLINE
  5
39
330
17
100
AcDbEntity
  8
SWITCH_CUTOUTS
100
AcDbPolyline
 90
5
 70
1
 10
137.85642548611148
 20
7.187419506639235
 10
136.27158049336077
 20
21.097425486111458
 10
122.36157451388856
 20
19.512580493360765
 10
123.94641950663924
 20
5.60257451388854
 10
137.85642548611148
 20
7.187419506639235
  0
LWPOLYLINE
  5
3A
330
17
100
AcDbEntity
  8
SWITCH_CUTOUTS
100
AcDbPolyline
 90
5
 70
1
 10
21.288
 20
21.575000000000003
 10
21.288
 20
35.575
 10
7.288
 20
35.575
 10
7.288
 20
21.575000000000003
 10
21.288
 20
21.575000000000003
  0
LWPOLYLINE
  5
3B
330
17
100
AcDbEntity
  8
SWITCH_CUTOUTS
100
AcDbPolyline
 90
5
 70
1
 10
45.1
 20
21.575000000000003
 10
45.1
 20
35.575
 10
31.1
 20
35.575
 10
31.1
 20
21.575000000000003
 10
45.1
 20
21.575000000000003
  0
LWPOLYLINE
  5
3C
330
17
100
AcDbEntity
  8
SWITCH_CUTOUTS
100
AcDbPolyline
 90
5
 70
1
 10
64.15
 20
21.575000000000003
 10
64.15
 20
35.575
 10
50.150000000000006
 20
35.575
 10
50.150000000000006
 20
21.575000000000003
 10
64.15
 20
21.575000000000003
  0
LWPOLYLINE
  5
3D
330
17
100
AcDbEntity
  8
SWITCH_CUTOUTS
100
AcDbPolyline
 90
5
 70
1
 10
83.39477177487096
 20
21.766714730354728
 10
83.23228526964526
 20
35.76577177487096
 10
69.23322822512903
 20
35.60328526964527
 10
69.39571473035473
 20
21.604228225129038
 10
83.39477177487096
 20
21.766714730354728
  0
LWPOLYLINE
  5
3E
330
17
100
AcDbEntity
  8
SWITCH_CUTOUTS
100
AcDbPolyline
 90
5
 70
1
 10
103.9285707758915
 20
22.787813482900663
 10
103.12218651709935
 20
36.764570775891485
 10
89.14542922410851
 20
35.958186517099335
 10
89.95181348290066
 20
21.981429224108513
 10
103.9285707758915
 20
22.787813482900663
  0
LWPOLYLINE
  5
3F
330
17
100
AcDbEntity
  8
SWITCH_CUTOUTS
100
AcDbPolyline
 90
5
 70
1
 10
125.32119826204273
 20
24.837152817843947
 10
123.86484718215605
 20
38.76119826204273
 10
109.94080173795727
 20
37.30484718215605
 10
111.39715281784395
 20
23.38080173795727
 10
125.32119826204273
 20
24.837152817843947
  0
LWPOLYLINE
  5
40
330
17
100
AcDbEntity
  8
SWITCH_CUTOUTS
100
AcDbPolyline
 90
5
 70
1
 10
145.76242548611145
 20
27.138419506639238
 10
144.17758049336075
 20
41.04842548611146
 10
130.26757451388852
 20
39.463580493360766
 10
131.85241950663922
 20
25.55357451388854
 10
145.76242548611145
 20
27.138419506639238
  0
LWPOLYLINE
  5
41
330
17
100
AcDbEntity
  8
SWITCH_CUTOUTS
100
AcDbPolyline
 90
5
 70
1
 10
22.716
 20
40.625
 10
22.716
 20
54.625
 10
8.716
 20
54.625
 10
8.716
 20
40.625
 10
22.716
 20
40.625
  0
LWPOLYLINE
  5
42
330
17
100
AcDbEntity
  8
SWITCH_CUTOUTS
100
AcDbPolyline
 90
5
 70
1
 10
48.91
 20
40.625
 10
48.91
 20
54.625
 10
34.91
 20
54.625
 10
34.91
 20
40.625
 10
48.91
 20
40.625
  0
LWPOLYLINE
  5
43
330
17
100
AcDbEntity
  8
SWITCH_CUTOUTS
100
AcDbPolyline
 90
5
 70
1
 10
67.96
 20
40.625
 10
67.96
 20
54.625
 10
53.959999999999994
 20
54.625
 10
53.959999999999994
 20
40.625
 10
67.96
 20
40.625
  0
LWPOLYLINE
  5
44
330
17
100
AcDbEntity
  8
SWITCH_CUTOUTS
100
AcDbPolyline
 90
5
 70
1
 10
87.32833168754873
 20
40.941921108013595
 10
87.05907889198639
 20
54.93933168754872
 10
73.06166831245126
 20
54.6700788919864
 10
73.3309211080136
 20
40.67266831245127
 10
87.32833168754873
 20
40.941921108013595
  0
LWPOLYLINE
  5
45
330
17
100
AcDbEntity
  8
SWITCH_CUTOUTS
100
AcDbPolyline
 90
5
 70
1
 10
108.18737489948157
 20
42.1702818428328
 10
107.24271815716719
 20
56.13837489948158
 10
93.27462510051839
 20
55.193718157167204
 10
94.21928184283277
 20
41.22562510051842
 10
108.18737489948157
 20
42.1702818428328
  0
LWPOLYLINE
  5
46
330
17
100
AcDbEntity
  8
SWITCH_CUTOUTS
100
AcDbPolyline
 90
5
 70
1
 10
129.54040874379902
 20
44.35109951696863
 10
128.01190048303138
 20
58.26740874379903
 10
114.09559125620096
 20
56.73890048303137
 10
115.62409951696863
 20
42.82259125620097
 10
129.54040874379902
 20
44.35109951696863
  0
LWPOLYLINE
  5
47
330
17
100
AcDbEntity
  8
SWITCH_CUTOUTS
100
AcDbPolyline
 90
5
 70
1
 10
22.716
 20
59.675
 10
22.716
 20
73.675
 10
8.716
 20
73.675
 10
8.716
 20
59.675
 10
22.716
 20
59.675
  0
LWPOLYLINE
  5
48
330
17
100
AcDbEntity
  8
SWITCH_CUTOUTS
100
AcDbPolyline
 90
5
 70
1
 10
53.673
 20
59.675
 10
53.673
 20
73.675
 10
39.673
 20
73.675
 10
39.673
 20
59.675
 10
53.673
 20
59.675
  0
LWPOLYLINE
  5
49
330
17
100
AcDbEntity
  8
SWITCH_CUTOUTS
100
AcDbPolyline
 90
5
 70
1
 10
72.73266423171687
 20
59.68366615080657
 10
72.72533384919343
 20
73.68366423171688
 10
58.72533576828313
 20
73.67633384919344
 10
58.732666150806565
 20
59.67633576828314
 10
72.73266423171687
 20
59.68366615080657
  0
LWPOLYLINE
  5
4A
330
17
100
AcDbEntity
  8
SWITCH_CUTOUTS
100
AcDbPolyline
 90
5
 70
1
 10
92.41010866852118
 20
60.1998035916277
 10
91.97719640837231
 20
74.19310866852118
 10
77.98389133147883
 20
73.76019640837231
 10
78.4168035916277
 20
59.76689133147883
 10
92.41010866852118
 20
60.1998035916277
  0
LWPOLYLINE
  5
4B
330
17
100
AcDbEntity
  8
SWITCH_CUTOUTS
100
AcDbPolyline
 90
5
 70
1
 10
113.55094060445589
 20
61.69970378333127
 10
112.43229621666872
 20
75.65494060445589
 10
98.4770593955441
 20
74.53629621666872
 10
99.59570378333127
 20
60.5810593955441
 10
113.55094060445589
 20
61.69970378333127
  0
LWPOLYLINE
  5
4C
330
17
100
AcDbEntity
  8
SWITCH_CUTOUTS
100
AcDbPolyline
 90
5
 70
1
 10
134.76009007537291
 20
63.98622864827059
 10
133.18277135172943
 20
77.89709007537293
 10
119.27190992462708
 20
76.31977135172941
 10
120.8492286482706
 20
62.40890992462708
 10
134.76009007537291
 20
63.98622864827059
  0
LWPOLYLINE
  5
4D
330
17
100
AcDbEntity
  8
SWITCH_CUTOUTS
100
AcDbPolyline
 90
5
 70
1
 10
15.572
 20
78.72499999999998
 10
15.572
 20
92.72499999999998
 10
1.5719999999999992
 20
92.72499999999998
 10
1.5719999999999992
 20
78.72499999999998
 10
15.572
 20
78.72499999999998
  0
LWPOLYLINE
  5
4E
330
17
100
AcDbEntity
  8
SWITCH_CUTOUTS
100
AcDbPolyline
 90
5
 70
1
 10
34.622
 20
78.72499999999998
 10
34.622
 20
92.72499999999998
 10
20.622
 20
92.72499999999998
 10
20.622
 20
78.72499999999998
 10
34.622
 20
78.72499999999998
  0
LWPOLYLINE
  5
4F
330
17
100
AcDbEntity
  8
SWITCH_CUTOUTS
100
AcDbPolyline
 90
5
 70
1
 10
53.673
 20
78.72499999999998
 10
53.673
 20
92.72499999999998
 10
39.673
 20
92.72499999999998
 10
39.673
 20
78.72499999999998
 10
53.673
 20
78.72499999999998
  0
LWPOLYLINE
  5
50
330
17
100
AcDbEntity
  8
SWITCH_CUTOUTS
100
AcDbPolyline
 90
5
 70
1
 10
92.27781864947713
 20
79.38455898377633
 10
91.84344101622366
 20
93.37781864947713
 10
77.85018135052286
 20
92.94344101622367
 10
78.28455898377632
 20
78.95018135052287
 10
92.27781864947713
 20
79.38455898377633
  0
LWPOLYLINE
  5
51
330
17
100
AcDbEntity
  8
SWITCH_CUTOUTS
100
AcDbPolyline
 90
5
 70
1
 10
130.7314571436823
 20
82.72000555245911
 10
129.2789944475409
 20
96.64445714368229
 10
115.35454285631772
 20
95.19199444754089
 10
116.80700555245912
 20
81.26754285631772
 10
130.7314571436823
 20
82.72000555245911
  0
LWPOLYLINE
  5
52
330
17
100
AcDbEntity
  8
SWITCH_CUTOUTS
100
AcDbPolyline
 90
5
 70
1
 10
17.9535
 20
40.625
 10
17.9535
 20
54.625
 10
3.9535
 20
54.625
 10
3.9535
 20
40.625
 10
17.9535
 20
40.625
  0
LWPOLYLINE
  5
53
330
17
100
AcDbEntity
  8
STAB_CLEARANCE
100
AcDbPolyline
 90
5
 70
1
 10
0.3097499999999993
 20
75.11
 10
7.309749999999999
 20
75.11
 10
7.309749999999999
 20
59.51
 10
0.3097499999999993
 20
59.51
 10
0.3097499999999993
 20
75.11
  0
LWPOLYLINE
  5
54
330
17
100
AcDbEntity
  8
STAB_CLEARANCE
100
AcDbPolyline
 90
5
 70
1
 10
24.12225
 20
75.11
 10
31.12225
 20
75.11
 10
31.12225
 20
59.51
 10
24.12225
 20
59.51
 10
24.12225
 20
75.11
  0
LWPOLYLINE
  5
55
330
17
100
AcDbEntity
  8
STAB_CLEARANCE
100
AcDbPolyline
 90
5
 70
1
 10
106.84477820219752
 20
95.74712469710992
 10
113.8070039978091
 20
96.47335604518064
 10
115.42546243065239
 20
80.95753855781766
 10
108.4632366350408
 20
80.23130720974696
 10
106.84477820219752
 20
95.74712469710992
  0
LWPOLYLINE
  5
56
330
17
100
AcDbEntity
  8
STAB_CLEARANCE
100
AcDbPolyline
 90
5
 70
1
 10
130.52877845334052
 20
98.2176081222433
 10
137.4910042489521
 20
98.943839470314
 10
139.10946268179538
 20
83.42802198295104
 10
132.1472368861838
 20
82.70179063488034
 10
130.52877845334052
 20
98.2176081222433
  0
ENDSEC
  0
SECTION
  2
OBJECTS
  0
DICTIONARY
  5
A
330
0
100
AcDbDictionary
281
1
  3
ACAD_COLOR
350
B
  3
ACAD_GROUP
350
C
  3
ACAD_LAYOUT
350
D
  3
ACAD_MATERIAL
350
E
  3
ACAD_MLEADERSTYLE
350
F
  3
ACAD_MLINESTYLE
350
10
  3
ACAD_PLOTSETTINGS
350
11
  3
ACAD_PLOTSTYLENAME
350
12
  3
ACAD_SCALELIST
350
14
  3
ACAD_TABLESTYLE
350
15
  3
ACAD_VISUALSTYLE
350
16
  3
EZDXF_META
350
2D
  0
DICTIONARY
  5
B
330
A
100
AcDbDictionary
281
1
  0
DICTIONARY
  5
C
330
A
100
AcDbDictionary
281
1
  0
DICTIONARY
  5
D
330
A
100
AcDbDictionary
281
1
  3
Model
350
1A
  3
Layout1
350
1E
  0
DICTIONARY
  5
E
330
A
100
AcDbDictionary
281
1
  3
ByBlock
350
1F
  3
ByLayer
350
20
  3
Global
350
21
  0
DICTIONARY
  5
F
330
A
100
AcDbDictionary
281
1
  3
Standard
350
2C
  0
DICTIONARY
  5
10
330
A
100
AcDbDictionary
281
1
  3
Standard
350
22
  0
DICTIONARY
  5
11
330
A
100
AcDbDictionary
281
1
  0
ACDBDICTIONARYWDFLT
  5
12
330
A
100
AcDbDictionary
281
1
  3
Normal
350
13
100
AcDbDictionaryWithDefault
340
13
  0
ACDBPLACEHOLDER
  5
13
330
12
  0
DICTIONARY
  5
14
330
A
100
AcDbDictionary
281
1
  0
DICTIONARY
  5
15
330
A
100
AcDbDictionary
281
1
  0
DICTIONARY
  5
16
330
A
100
AcDbDictionary
281
1
  0
LAYOUT
  5
1A
330
D
100
AcDbPlotSettings
  1

  4
A3
  6

 40
7.5
 41
20.0
 42
7.5
 43
20.0
 44
420.0
 45
297.0
 46
0.0
 47
0.0
 48
0.0
 49
0.0
140
0.0
141
0.0
142
1.0
143
1.0
 70
1024
 72
1
 73
0
 74
5
  7

 75
16
 76
0
 77
2
 78
300
147
1.0
148
0.0
149
0.0
100
AcDbLayout
  1
Model
 70
1
 71
0
 10
0.0
 20
0.0
 11
420.0
 21
297.0
 12
0.0
 22
0.0
 32
0.0
 14
1e+20
 24
1e+20
 34
1e+20
 15
-1e+20
 25
-1e+20
 35
-1e+20
146
0.0
 13
0.0
 23
0.0
 33
0.0
 16
1.0
 26
0.0
 36
0.0
 17
0.0
 27
1.0
 37
0.0
 76
1
330
17
  0
LAYOUT
  5
1E
330
D
100
AcDbPlotSettings
  1

  4
A3
  6

 40
7.5
 41
20.0
 42
7.5
 43
20.0
 44
420.0
 45
297.0
 46
0.0
 47
0.0
 48
0.0
 49
0.0
140
0.0
141
0.0
142
1.0
143
1.0
 70
0
 72
1
 73
0
 74
5
  7

 75
16
 76
0
 77
2
 78
300
147
1.0
148
0.0
149
0.0
100
AcDbLayout
  1
Layout1
 70
1
 71
1
 10
0.0
 20
0.0
 11
420.0
 21
297.0
 12
0.0
 22
0.0
 32
0.0
 14
1e+20
 24
1e+20
 34
1e+20
 15
-1e+20
 25
-1e+20
 35
-1e+20
146
0.0
 13
0.0
 23
0.0
 33
0.0
 16
1.0
 26
0.0
 36
0.0
 17
0.0
 27
1.0
 37
0.0
 76
1
330
1B
  0
MATERIAL
  5
1F
102
{ACAD_REACTORS
330
E
102
}
330
E
100
AcDbMaterial
  1
ByBlock
  2

 70
0
 40
1.0
 71
1
 41
1.0
 91
-1023410177
 42
1.0
 72
1
  3

 73
1
 74
1
 75
1
 44
0.5
 73
0
 45
1.0
 46
1.0
 77
1
  4

 78
1
 79
1
170
1
 48
1.0
171
1
  6

172
1
173
1
174
1
140
1.0
141
1.0
175
1
  7

176
1
177
1
178
1
143
1.0
179
1
  8

270
1
271
1
272
1
145
1.0
146
1.0
273
1
  9

274
1
275
1
276
1
 42
1.0
 72
1
  3

 73
1
 74
1
 75
1
 94
63
  0
MATERIAL
  5
20
102
{ACAD_REACTORS
330
E
102
}
330
E
100
AcDbMaterial
  1
ByLayer
  2

 70
0
 40
1.0
 71
1
 41
1.0
 91
-1023410177
 42
1.0
 72
1
  3

 73
1
 74
1
 75
1
 44
0.5
 73
0
 45
1.0
 46
1.0
 77
1
  4

 78
1
 79
1
170
1
 48
1.0
171
1
  6

172
1
173
1
174
1
140
1.0
141
1.0
175
1
  7

176
1
177
1
178
1
143
1.0
179
1
  8

270
1
271
1
272
1
145
1.0
146
1.0
273
1
  9

274
1
275
1
276
1
 42
1.0
 72
1
  3

 73
1
 74
1
 75
1
 94
63
  0
MATERIAL
  5
21
102
{ACAD_REACTORS
330
E
102
}
330
E
100
AcDbMaterial
  1
Global
  2

 70
0
 40
1.0
 71
1
 41
1.0
 91
-1023410177
 42
1.0
 72
1
  3

 73
1
 74
1
 75
1
 44
0.5
 73
0
 45
1.0
 46
1.0
 77
1
  4

 78
1
 79
1
170
1
 48
1.0
171
1
  6

172
1
173
1
174
1
140
1.0
141
1.0
175
1
  7

176
1
177
1
178
1
143
1.0
179
1
  8

270
1
271
1
272
1
145
1.0
146
1.0
273
1
  9

274
1
275
1
276
1
 42
1.0
 72
1
  3

 73
1
 74
1
 75
1
 94
63
  0
MLINESTYLE
  5
22
102
{ACAD_REACTORS
330
10
102
}
330
10
100
AcDbMlineStyle
  2
Standard
 70
0
  3

 62
256
 51
90.0
 52
90.0
 71
2
 49
0.5
 62
256
  6
BYLAYER
 49
-0.5
 62
256
  6
BYLAYER
  0
MLEADERSTYLE
  5
2C
102
{ACAD_REACTORS
330
F
102
}
330
F
100
AcDbMLeaderStyle
179
2
170
2
171
1
172
0
 90
2
 40
0.0
 41
0.0
173
1
 91
-1056964608
 92
-2
290
1
 42
2.0
291
1
 43
8.0
  3
Standard
 44
4.0
300

342
29
174
1
175
1
176
0
178
1
 93
-1056964608
 45
4.0
292
0
297
0
 46
4.0
 94
-1056964608
 47
1.0
 49
1.0
140
1.0
294
1
141
0.0
177
0
142
1.0
295
0
296
0
143
3.75
271
0
272
9
273
9
  0
DICTIONARY
  5
2D
330
A
100
AcDbDictionary
280
1
281
1
  3
CREATED_BY_EZDXF
350
2E
  3
WRITTEN_BY_EZDXF
350
59
  0
DICTIONARYVAR
  5
2E
330
2D
100
DictionaryVariables
280
0
  1
1.4.4 @ 2026-09-12T17:40:21.424035+00:00
  0
DICTIONARYVAR
  5
59
330
2D
100
DictionaryVariables
280
0
  1
1.4.4 @ 2026-09-12T17:40:21.426445+00:00
  0
ENDSEC
  0
EOF
