  0
SECTION
  2
HEADER
  9
$ACADVER
  1
AC1024
  9
$ACADMAINTVER
 70
6
  9
$DWGCODEPAGE
  3
ANSI_1252
  9
$LASTSAVEDBY
  1
ezdxf
  9
$INSBASE
 10
0.0
 20
0.0
 30
0.0
  9
$EXTMIN
 10
1e+20
 20
1e+20
 30
1e+20
  9
$EXTMAX
 10
-1e+20
 20
-1e+20
 30
-1e+20
  9
$LIMMIN
 10
0.0
 20
0.0
  9
$LIMMAX
 10
420.0
 20
297.0
  9
$ORTHOMODE
 70
0
  9
$REGENMODE
 70
1
  9
$FILLMODE
 70
1
  9
$QTEXTMODE
 70
0
  9
$MIRRTEXT
 70
1
  9
$LTSCALE
 40
1.0
  9
$ATTMODE
 70
1
  9
$TEXTSIZE
 40
2.5
  9
$TRACEWID
 40
1.0
  9
$TEXTSTYLE
  7
Standard
  9
$CLAYER
  8
0
  9
$CELTYPE
  6
ByLayer
  9
$CECOLOR
 62
256
  9
$CELTSCALE
 40
1.0
  9
$DISPSILH
 70
0
  9
$DIMSCALE
 40
1.0
  9
$DIMASZ
 40
2.5
  9
$DIMEXO
 40
0.625
  9
$DIMDLI
 40
3.75
  9
$DIMRND
 40
0.0
  9
$DIMDLE
 40
0.0
  9
$DIMEXE
 40
1.25
  9
$DIMTP
 40
0.0
  9
$DIMTM
 40
0.0
  9
$DIMTXT
 40
2.5
  9
$DIMCEN
 40
2.5
  9
$DIMTSZ
 40
0.0
  9
$DIMTOL
 70
0
  9
$DIMLIM
 70
0
  9
$DIMTIH
 70
0
  9
$DIMTOH
 70
0
  9
$DIMSE1
 70
0
  9
$DIMSE2
 70
0
  9
$DIMTAD
 70
1
  9
$DIMZIN
 70
8
  9
$DIMBLK
  1

  9
$DIMASO
 70
1
  9
$DIMSHO
 70
1
  9
$DIMPOST
  1

  9
$DIMAPOST
  1

  9
$DIMALT
 70
0
  9
$DIMALTD
 70
3
  9
$DIMALTF
 40
0.03937007874
  9
$DIMLFAC
 40
1.0
  9
$DIMTOFL
 70
1
  9
$DIMTVP
 40
0.0
  9
$DIMTIX
 70
0
  9
$DIMSOXD
 70
0
  9
$DIMSAH
 70
0
  9
$DIMBLK1
  1

  9
$DIMBLK2
  1

  9
$DIMSTYLE
  2
ISO-25
  9
$DIMCLRD
 70
0
  9
$DIMCLRE
 70
0
  9
$DIMCLRT
 70
0
  9
$DIMTFAC
 40
1.0
  9
$DIMGAP
 40
0.625
  9
$DIMJUST
 70
0
  9
$DIMSD1
 70
0
  9
$DIMSD2
 70
0
  9
$DIMTOLJ
 70
0
  9
$DIMTZIN
 70
8
  9
$DIMALTZ
 70
0
  9
$DIMALTTZ
 70
0
  9
$DIMUPT
 70
0
  9
$DIMDEC
 70
2
  9
$DIMTDEC
 70
2
  9
$DIMALTU
 70
2
  9
$DIMALTTD
 70
3
  9
$DIMTXSTY
  7
Standard
  9
$DIMAUNIT
 70
0
  9
$DIMADEC
 70
0
  9
$DIMALTRND
 40
0.0
  9
$DIMAZIN
 70
0
  9
$DIMDSEP
 70
44
  9
$DIMATFIT
 70
3
  9
$DIMFRAC
 70
0
  9
$DIMLDRBLK
  1

  9
$DIMLUNIT
 70
2
  9
$DIMLWD
 70
-2
  9
$DIMLWE
 70
-2
  9
$DIMTMOVE
 70
0
  9
$DIMFXL
 40
1.0
  9
$DIMFXLON
 70
0
  9
$DIMJOGANG
 40
0.785398163397
  9
$DIMTFILL
 70
0
  9
$DIMTFILLCLR
 70
0
  9
$DIMARCSYM
 70
0
  9
$DIMLTYPE
  6

  9
$DIMLTEX1
  6

  9
$DIMLTEX2
  6

  9
$DIMTXTDIRECTION
 70
0
  9
$LUNITS
 70
2
  9
$LUPREC
 70
4
  9
$SKETCHINC
 40
1.0
  9
$FILLETRAD
 40
10.0
  9
$AUNITS
 70
0
  9
$AUPREC
 70
2
  9
$MENU
  1
.
  9
$ELEVATION
 40
0.0
  9
$PELEVATION
 40
0.0
  9
$THICKNESS
 40
0.0
  9
$LIMCHECK
 70
0
  9
$CHAMFERA
 40
0.0
  9
$CHAMFERB
 40
0.0
  9
$CHAMFERC
 40
0.0
  9
$CHAMFERD
 40
0.0
  9
$SKPOLY
 70
0
  9
$TDCREATE
 40
2461297.5199074075
  9
$TDUCREATE
 40
2458532.153996898
  9
$TDUPDATE
 40
2461297.5199074075
  9
$TDUUPDATE
 40
2458532.1544311
  9
$TDINDWG
 40
0.0
  9
$TDUSRTIMER
 40
0.0
  9
$USRTIMER
 70
1
  9
$ANGBASE
 50
0.0
  9
$ANGDIR
 70
0
  9
$PDMODE
 70
0
  9
$PDSIZE
 40
0.0
  9
$PLINEWID
 40
0.0
  9
$SPLFRAME
 70
0
  9
$SPLINETYPE
 70
6
  9
$SPLINESEGS
 70
8
  9
$HANDSEED
  5
59
  9
$SURFTAB1
 70
6
  9
$SURFTAB2
 70
6
  9
$SURFTYPE
 70
6
  9
$SURFU
 70
6
  9
$SURFV
 70
6
  9
$UCSBASE
  2

  9
$UCSNAME
  2

  9
$UCSORG
 10
0.0
 20
0.0
 30
0.0
  9
$UCSXDIR
 10
1.0
 20
0.0
 30
0.0
  9
$UCSYDIR
 10
0.0
 20
1.0
 30
0.0
  9
$UCSORTHOREF
  2

  9
$UCSORTHOVIEW
 70
0
  9
$UCSORGTOP
 10
0.0
 20
0.0
 30
0.0
  9
$UCSORGBOTTOM
 10
0.0
 20
0.0
 30
0.0
  9
$UCSORGLEFT
 10
0.0
 20
0.0
 30
0.0
  9
$UCSORGRIGHT
 10
0.0
 20
0.0
 30
0.0
  9
$UCSORGFRONT
 10
0.0
 20
0.0
 30
0.0
  9
$UCSORGBACK
 10
0.0
 20
0.0
 30
0.0
  9
$PUCSBASE
  2

  9
$PUCSNAME
  2

  9
$PUCSORG
 10
0.0
 20
0.0
 30
0.0
  9
$PUCSXDIR
 10
1.0
 20
0.0
 30
0.0
  9
$PUCSYDIR
 10
0.0
 20
1.0
 30
0.0
  9
$PUCSORTHOREF
  2

  9
$PUCSORTHOVIEW
 70
0
  9
$PUCSORGTOP
 10
0.0
 20
0.0
 30
0.0
  9
$PUCSORGBOTTOM
 10
0.0
 20
0.0
 30
0.0
  9
$PUCSORGLEFT
 10
0.0
 20
0.0
 30
0.0
  9
$PUCSORGRIGHT
 10
0.0
 20
0.0
 30
0.0
  9
$PUCSORGFRONT
 10
0.0
 20
0.0
 30
0.0
  9
$PUCSORGBACK
 10
0.0
 20
0.0
 30
0.0
  9
$USERI1
 70
0
  9
$USERI2
 70
0
  9
$USERI3
 70
0
  9
$USERI4
 70
0
  9
$USERI5
 70
0
  9
$USERR1
 40
0.0
  9
$USERR2
 40
0.0
  9
$USERR3
 40
0.0
  9
$USERR4
 40
0.0
  9
$USERR5
 40
0.0
  9
$WORLDVIEW
 70
1
  9
$SHADEDGE
 70
3
  9
$SHADEDIF
 70
70
  9
$TILEMODE
 70
1
  9
$MAXACTVP
 70
64
  9
$PINSBASE
 10
0.0
 20
0.0
 30
0.0
  9
$PLIMCHECK
 70
0
  9
$PEXTMIN
 10
1e+20
 20
1e+20
 30
1e+20
  9
$PEXTMAX
 10
-1e+20
 20
-1e+20
 30
-1e+20
  9
$PLIMMIN
 10
0.0
 20
0.0
  9
$PLIMMAX
 10
420.0
 20
297.0
  9
$UNITMODE
 70
0
  9
$VISRETAIN
 70
1
  9
$PLINEGEN
 70
0
  9
$PSLTSCALE
 70
1
  9
$TREEDEPTH
 70
3020
  9
$CMLSTYLE
  2
Standard
  9
$CMLJUST
 70
0
  9
$CMLSCALE
 40
20.0
  9
$PROXYGRAPHICS
 70
1
  9
$MEASUREMENT
 70
1
  9
$CELWEIGHT
370
-1
  9
$ENDCAPS
280
0
  9
$JOINSTYLE
280
0
  9
$LWDISPLAY
290
0
  9
$INSUNITS
 70
4
  9
$HYPERLINKBASE
  1

  9
$STYLESHEET
  1

  9
$XEDIT
290
1
  9
$CEPSNTYPE
380
0
  9
$PSTYLEMODE
290
1
  9
$FINGERPRINTGUID
  2
{C3EB9D1E-BDF5-4637-B8E6-90F21E685AF4}
  9
$VERSIONGUID
  2
{1B67151A-DF48-490A-9143-DB30CC8686C4}
  9
$EXTNAMES
290
1
  9
$PSVPSCALE
 40
0.0
  9
$OLESTARTUP
290
0
  9
$SORTENTS
280
127
  9
$INDEXCTL
280
0
  9
$HIDETEXT
280
1
  9
$XCLIPFRAME
280
1
  9
$HALOGAP
280
0
  9
$OBSCOLOR
 70
257
  9
$OBSLTYPE
280
0
  9
$INTERSECTIONDISPLAY
280
0
  9
$INTERSECTIONCOLOR
 70
257
  9
$DIMASSOC
280
2
  9
$PROJECTNAME
  1

  9
$CAMERADISPLAY
290
0
  9
$LENSLENGTH
 40
50.0
  9
$CAMERAHEIGHT
 40
0.0
  9
$STEPSPERSEC
 40
24.0
  9
$STEPSIZE
 40
100.0
  9
$3DDWFPREC
 40
2.0
  9
$PSOLWIDTH
 40
0.005
  9
$PSOLHEIGHT
 40
0.08
  9
$LOFTANG1
 40
1.570796326795
  9
$LOFTANG2
 40
1.570796326795
  9
$LOFTMAG1
 40
0.0
  9
$LOFTMAG2
 40
0.0
  9
$LOFTPARAM
 70
7
  9
$LOFTNORMALS
280
1
  9
$LATITUDE
 40
37.795
  9
$LONGITUDE
 40
-122.394
  9
$NORTHDIRECTION
 40
0.0
  9
$TIMEZONE
 70
-8000
  9
$LIGHTGLYPHDISPLAY
280
1
  9
$TILEMODELIGHTSYNCH
280
1
  9
$CMATERIAL
347
20
  9
$SOLIDHIST
280
0
  9
$SHOWHIST
280
1
  9
$DWFFRAME
280
2
  9
$DGNFRAME
280
2
  9
$REALWORLDSCALE
290
1
  9
$INTERFERECOLOR
 62
256
  9
$CSHADOW
280
0
  9
$SHADOWPLANELOCATION
 40
0.0
  0
ENDSEC
  0
SECTION
  2
CLASSES
  0
CLASS
  1
ACDBDICTIONARYWDFLT
  2
AcDbDictionaryWithDefault
  3
ObjectDBX Classes
 90
0
 91
0
280
0
281
0
  0
CLASS
  1
SUN
  2
AcDbSun
  3
SCENEOE
 90
1153
 91
0
280
0
281
0
  0
CLASS
  1
VISUALSTYLE
  2
AcDbVisualStyle
  3
ObjectDBX Classes
 90
4095
 91
0
280
0
281
0
  0
CLASS
  1
MATERIAL
  2
AcDbMaterial
  3
ObjectDBX Classes
 90
1153
 91
0
280
0
281
0
  0
CLASS
  1
SCALE
  2
AcDbScale
  3
ObjectDBX Classes
 90
1153
 91
0
280
0
281
0
  0
CLASS
  1
TABLESTYLE
  2
AcDbTableStyle
  3
ObjectDBX Classes
 90
4095
 91
0
280
0
281
0
  0
CLASS
  1
MLEADERSTYLE
  2
AcDbMLeaderStyle
  3
ACDB_MLEADERSTYLE_CLASS
 90
4095
 91
0
280
0
281
0
  0
CLASS
  1
DICTIONARYVAR
  2
AcDbDictionaryVar
  3
ObjectDBX Classes
 90
0
 91
0
280
0
281
0
  0
CLASS
  1
CELLSTYLEMAP
  2
AcDbCellStyleMap
  3
ObjectDBX Classes
 90
1152
 91
0
280
0
281
0
  0
CLASS
  1
MENTALRAYRENDERSETTINGS
  2
AcDbMentalRayRenderSettings
  3
SCENEOE
 90
1024
 91
0
280
0
281
0
  0
CLASS
  1
ACDBDETAILVIEWSTYLE
  2
AcDbDetailViewStyle
  3
ObjectDBX Classes
 90
1025
 91
0
280
0
281
0
  0
CLASS
  1
ACDBSECTIONVIEWSTYLE
  2
AcDbSectionViewStyle
  3
ObjectDBX Classes
 90
1025
 91
0
280
0
281
0
  0
CLASS
  1
RASTERVARIABLES
  2
AcDbRasterVariables
  3
ISM
 90
0
 91
0
280
0
281
0
  0
CLASS
  1
ACDBPLACEHOLDER
  2
AcDbPlaceHolder
  3
ObjectDBX Classes
 90
0
 91
0
280
0
281
0
  0
CLASS
  1
LAYOUT
  2
AcDbLayout
  3
ObjectDBX Classes
 90
0
 91
0
280
0
281
0
  0
ENDSEC
  0
SECTION
  2
TABLES
  0
TABLE
  2
VPORT
  5
8
330
0
100
AcDbSymbolTable
 70
1
  0
VPORT
  5
23
330
8
100
AcDbSymbolTableRecord
100
AcDbViewportTableRecord
  2
*Active
 70
0
 10
0.0
 20
0.0
 11
1.0
 21
1.0
 12
0.0
 22
0.0
 13
0.0
 23
0.0
 14
0.5
 24
0.5
 15
0.5
 25
0.5
 16
0.0
 26
0.0
 36
1.0
 17
0.0
 27
0.0
 37
0.0
 40
1000.0
 41
1.34
 42
50.0
 43
0.0
 44
0.0
 50
0.0
 51
0.0
 71
0
 72
1000
 73
1
 74
3
 75
0
 76
0
 77
0
 78
0
281
0
 65
0
146
0.0
  0
ENDTAB
  0
TABLE
  2
LTYPE
  5
2
330
0
100
AcDbSymbolTable
 70
3
  0
LTYPE
  5
24
330
2
100
AcDbSymbolTableRecord
100
AcDbLinetypeTableRecord
  2
ByBlock
 70
0
  3

 72
65
 73
0
 40
0.0
  0
LTYPE
  5
25
330
2
100
AcDbSymbolTableRecord
100
AcDbLinetypeTableRecord
  2
ByLayer
 70
0
  3

 72
65
 73
0
 40
0.0
  0
LTYPE
  5
26
330
2
100
AcDbSymbolTableRecord
100
AcDbLinetypeTableRecord
  2
Continuous
 70
0
  3

 72
65
 73
0
 40
0.0
  0
ENDTAB
  0
TABLE
  2
LAYER
  5
1
330
0
100
AcDbSymbolTable
 70
5
  0
LAYER
  5
27
330
1
100
AcDbSymbolTableRecord
100
AcDbLayerTableRecord
  2
0
 70
0
 62
7
  6
Continuous
370
-3
390
13
347
21
  0
LAYER
  5
28
330
1
100
AcDbSymbolTableRecord
100
AcDbLayerTableRecord
  2
Defpoints
 70
0
 62
7
  6
Continuous
290
0
370
-3
390
13
347
21
  0
LAYER
  5
2F
330
1
100
AcDbSymbolTableRecord
100
AcDbLayerTableRecord
  2
PLATE_OUTLINE
 70
0
 62
7
  6
Continuous
370
-3
390
13
347
21
  0
LAYER
  5
30
330
1
100
AcDbSymbolTableRecord
100
AcDbLayerTableRecord
  2
SWITCH_CUTOUTS
 70
0
 62
3
  6
Continuous
370
-3
390
13
347
21
  0
LAYER
  5
31
330
1
100
AcDbSymbolTableRecord
100
AcDbLayerTableRecord
  2
STAB_CLEARANCE
 70
0
 62
1
  6
Continuous
370
-3
390
13
347
21
  0
ENDTAB
  0
TABLE
  2
STYLE
  5
5
330
0
100
AcDbSymbolTable
 70
1
  0
STYLE
  5
29
330
5
100
AcDbSymbolTableRecord
100
AcDbTextStyleTableRecord
  2
Standard
 70
0
 40
0.0
 41
1.0
 50
0.0
 71
0
 42
2.5
  3
txt
  4

  0
ENDTAB
  0
TABLE
  2
VIEW
  5
7
330
0
100
AcDbSymbolTable
 70
0
  0
ENDTAB
  0
TABLE
  2
UCS
  5
6
330
0
100
AcDbSymbolTable
 70
0
  0
ENDTAB
  0
TABLE
  2
APPID
  5
3
330
0
100
AcDbSymbolTable
 70
3
  0
APPID
  5
2A
330
3
100
AcDbSymbolTableRecord
100
AcDbRegAppTableRecord
  2
ACAD
 70
0
  0
APPID
  5
56
330
3
100
AcDbSymbolTableRecord
100
AcDbRegAppTableRecord
  2
HATCHBACKGROUNDCOLOR
 70
0
  0
APPID
  5
57
330
3
100
AcDbSymbolTableRecord
100
AcDbRegAppTableRecord
  2
EZDXF
 70
0
  0
ENDTAB
  0
TABLE
  2
DIMSTYLE
  5
4
330
0
100
AcDbSymbolTable
 70
1
100
AcDbDimStyleTable
  0
DIMSTYLE
105
2B
330
4
100
AcDbSymbolTableRecord
100
AcDbDimStyleTableRecord
  2
Standard
 70
0
 40
1.0
 41
2.5
 42
0.625
 43
3.75
 44
1.25
 45
0.0
 46
0.0
 47
0.0
 48
0.0
 49
2.5
140
2.5
141
2.5
142
0.0
143
0.03937007874
144
1.0
145
0.0
146
1.0
147
0.625
148
0.0
 69
0
 70
0
 71
0
 72
0
 73
0
 74
0
 75
0
 76
0
 77
1
 78
8
 79
3
170
0
171
3
172
1
173
0
174
0
175
0
176
0
177
0
178
0
179
2
271
2
272
2
273
2
274
3
275
0
276
0
277
2
278
44
279
0
280
0
281
0
282
0
283
0
284
8
285
0
286
0
288
0
289
3
290
0
371
-2
372
-2
  0
ENDTAB
  0
TABLE
  2
BLOCK_RECORD
  5
9
330
0
100
AcDbSymbolTable
 70
2
  0
BLOCK_RECORD
  5
17
330
9
100
AcDbSymbolTableRecord
100
AcDbBlockTableRecord
  2
*Model_Space
340
1A
 70
0
280
1
281
0
  0
BLOCK_RECORD
  5
1B
330
9
100
AcDbSymbolTableRecord
100
AcDbBlockTableRecord
  2
*Paper_Space
340
1E
 70
0
280
1
281
0
  0
ENDTAB
  0
ENDSEC
  0
SECTION
  2
BLOCKS
  0
BLOCK
  5
18
330
17
100
AcDbEntity
  8
0
100
AcDbBlockBegin
  2
*Model_Space
 70
0
 10
0.0
 20
0.0
 30
0.0
  3
*Model_Space
  1

  0
ENDBLK
  5
19
330
17
100
AcDbEntity
  8
0
100
AcDbBlockEnd
  0
BLOCK
  5
1C
330
1B
100
AcDbEntity
  8
0
100
AcDbBlockBegin
  2
*Paper_Space
 70
0
 10
0.0
 20
0.0
 30
0.0
  3
*Paper_Space
  1

  0
ENDBLK
  5
1D
330
1B
100
AcDbEntity
  8
0
100
AcDbBlockEnd
  0
ENDSEC
  0
SECTION
  2
ENTITIES
  0
LWPOLYLINE
  5
32
330
17
100
AcDbEntity
  8
PLATE_OUTLINE
100
AcDbPolyline
 90
394
 70
1
 10
152.07188717913957
 20
20.63431604139543
 10
151.98372809177891
 20
20.67650942646451
 10
151.90010894732214
 20
20.72710730298288
 10
151.82182850146035
 20
20.78562634452943
 10
151.74963451299968
 20
20.851507559287445
 10
151.6842166010402
 20
20.92412162970572
 10
151.62619965752276
 20
21.00277492393264
 10
151.5761378780699
 20
21.086716121600197
 10
151.53450946813925
 20
21.175143390666346
 10
151.5017120750586
 20
21.26721204676039
 10
151.47805898957665
 20
21.362042621866916
 10
151.46377615321393
 20
21.458729265273778
 10
151.459
 20
21.556348396535675
 10
151.459
 20
40.81089124125787
 10
151.46377615321393
 20
40.90851037251977
 10
151.47805898957665
 20
41.00519701592663
 10
151.5017120750586
 20
41.10002759103316
 10
151.53450946813925
 20
41.19209624712721
 10
151.57613787806991
 20
41.280523516193355
 10
151.62619965752276
 20
41.36446471386092
 10
151.6842166010402
 20
41.44311800808784
 10
151.74963451299968
 20
41.51573207850611
 10
151.82182850146035
 20
41.581613293264134
 10
151.90010894732217
 20
41.64013233481068
 10
151.98372809177894
 20
41.69073021132905
 10
152.0718871791396
 20
41.73292359639813
 10
152.1377423979309
 20
41.760572734058606
 10
152.21906217078936
 20
41.79063838426951
 10
152.5013283513305
 20
41.881296105649476
 10
152.55083491628133
 20
41.895798968601916
 10
152.9002279432012
 20
41.98843773296495
 10
152.92881460966265
 20
41.99556824113281
 10
153.32343230832197
 20
42.08784664540214
 10
154.18471200314954
 20
42.2771349755185
 10
154.59635870936106
 20
42.37334882378848
 10
154.61065126705722
 20
42.376913884427154
 10
154.9796373510548
 20
42.47474759104123
 10
155.00438651501963
 20
42.48199781600686
 10
155.31960362802639
 20
42.583238655948726
 10
155.36024439434695
 20
42.5982644119432
 10
155.43645761787798
 20
42.63026233021959
 10
155.45784149575385
 20
42.64049676231843
 10
155.459
 20
42.664175269478115
 10
155.459
 20
58.22648882901115
 10
155.45784149575385
 20
58.25016733617084
 10
155.43645761787798
 20
58.26040176826968
 10
155.36024439434695
 20
58.29239968654607
 10
155.31960362802639
 20
58.30742544254054
 10
155.00438651501966
 20
58.40866628248241
 10
154.97963735105483
 20
58.41591650744803
 10
154.61065126705722
 20
58.513750214062114
 10
154.59635870936106
 20
58.51731527470078
 10
154.1847120031492
 20
58.61352912297083
 10
153.32343230832245
 20
58.802817453087016
 10
152.92881460966242
 20
58.89509585735651
 10
152.900227943201
 20
58.90222636552438
 10
152.55083491628142
 20
58.99486512988733
 10
152.50132835133056
 20
59.00936799283977
 10
152.21906217078939
 20
59.10002571421975
 10
152.1377423979309
 20
59.13009136443067
 10
152.07188717913957
 20
59.15774050209116
 10
151.98372809177891
 20
59.19993388716024
 10
151.90010894732214
 20
59.25053176367861
 10
151.82182850146035
 20
59.30905080522516
 10
151.74963451299968
 20
59.37493201998318
 10
151.6842166010402
 20
59.447546090401445
 10
151.62619965752276
 20
59.52619938462837
 10
151.5761378780699
 20
59.61014058229593
 10
151.53450946813925
 20
59.69856785136208
 10
151.5017120750586
 20
59.79063650745612
 10
151.47805898957665
 20
59.88546708256264
 10
151.46377615321393
 20
59.98215372596951
 10
151.459
 20
60.079772857231404
 10
151.459
 20
79.33431570195359
 10
151.46377615321393
 20
79.4319348332155
 10
151.47805898957665
 20
79.52862147662236
 10
151.5017120750586
 20
79.62345205172889
 10
151.53450946813928
 20
79.71552070782293
 10
151.57613787806991
 20
79.80394797688909
 10
151.62619965752276
 20
79.88788917455665
 10
151.6842166010402
 20
79.96654246878357
 10
151.7496345129997
 20
80.03915653920184
 10
151.82182850146037
 20
80.10503775395986
 10
151.9001089473222
 20
80.16355679550641
 10
151.98372809177897
 20
80.21415467202478
 10
152.07188717913962
 20
80.25634805709386
 10
152.1377423979309
 20
80.28399719475432
 10
152.21906217078927
 20
80.31406284496519
 10
152.5013283513305
 20
80.4047205663452
 10
152.5508349162814
 20
80.41922342929767
 10
152.90022794320143
 20
80.51186219366075
 10
152.92881460966288
 20
80.51899270182861
 10
153.32343230832154
 20
80.61127110609779
 10
154.1847120031505
 20
80.80055943621443
 10
154.59635870936106
 20
80.8967732844842
 10
154.61065126705722
 20
80.90033834512286
 10
154.97963735105526
 20
80.99817205173707
 10
155.00438651501935
 20
81.00542227670249
 10
155.31960362802602
 20
81.10666311664431
 10
155.36024439434735
 20
81.12168887263907
 10
155.43645761787786
 20
81.15368679091524
 10
155.45784149575385
 20
81.16392122301413
 10
155.459
 20
81.18759973017383
 10
155.459
 20
102.0410271360909
 10
155.4638152733278
 20
102.13904427642046
 10
155.47821471959676
 20
102.23611745810703
 10
155.5020596642678
 20
102.33131181334537
 10
155.53512046748872
 20
102.42371056845599
 10
155.57707873565164
 20
102.5124238729169
 10
155.62753038769745
 20
102.59659736911051
 10
155.68598954663727
 20
102.67542042025455
 10
155.75189321881345
 20
102.74813391727746
 10
155.82460671583635
 20
102.81403758945365
 10
155.9034297669804
 20
102.87249674839344
 10
155.987603263174
 20
102.92294840043925
 10
156.0763165676349
 20
102.9649066686022
 10
156.16871532274553
 20
102.99796747182312
 10
156.26390967798386
 20
103.02181241649413
 10
156.36098285967043
 20
103.0362118627631
 10
156.459
 20
103.0410271360909
 10
156.62474715377533
 20
103.0410271360909
 10
156.64826060273074
 20
103.04217775265488
 10
156.6567844810025
 20
103.07547375678898
 10
156.66127655391966
 20
103.09758964229115
 10
156.68896716678753
 20
103.18855116206056
 10
156.72517171783488
 20
103.27647157267847
 10
156.76956289011082
 20
103.36055600609947
 10
156.8217393533202
 20
103.44004427445851
 10
156.88122939215785
 20
103.51421774275315
 10
156.94749517097722
 20
103.58240582585587
 10
157.01993759623772
 20
103.64399205111881
 10
157.09790173277054
 20
103.69841963176002
 10
157.18068272489563
 20
103.74519650064356
 10
157.26753216885842
 20
103.78389975894453
 10
157.3576648789748
 20
103.81417949947912
 10
157.45026598631253
 20
103.83576197013444
 10
157.54449830573253
 20
103.84845204879787
 10
157.6395099046856
 20
103.85213500741074
 10
157.73444180533687
 20
103.84677754919828
 10
202.62774302512486
 20
99.16394714103468
 10
202.66409112541402
 20
99.16149052627527
 10
235.3462725242763
 20
98.1469728981636
 10
235.37072842670358
 20
98.1474145086321
 10
235.3827799192735
 20
98.14882159902139
 10
235.45871216522838
 20
98.16138633832368
 10
235.55930456248117
 20
98.1677473123537
 10
243.41113699344737
 20
98.2677303957441
 10
243.49108353430557
 20
98.26555005217764
 10
243.57060016173406
 20
98.25698796974066
 10
243.6096182083252
 20
98.25120018926775
 10
243.634048622109
 20
98.24999999999999
 10
310.50225
 20
98.24999999999999
 10
310.60026714032955
 20
98.24518472667218
 10
310.69734032201615
 20
98.23078528040321
 10
310.7925346772545
 20
98.2069403357322
 10
310.8849334323651
 20
98.17387953251128
 10
310.973646736826
 20
98.13192126434834
 10
311.0578202330196
 20
98.08146961230253
 10
311.13664328416365
 20
98.02301045336273
 10
311.20935678118656
 20
97.95710678118654
 10
311.27526045336276
 20
97.88439328416364
 10
311.33371961230256
 20
97.8055702330196
 10
311.38417126434837
 20
97.72139673682598
 10
311.4261295325113
 20
97.63268343236507
 10
311.4591903357322
 20
97.54028467725445
 10
311.4830352804032
 20
97.44509032201611
 10
311.4974347266722
 20
97.34801714032955
 10
311.50225
 20
97.24999999999999
 10
311.50225
 20
79.0474094823574
 10
311.5034085042462
 20
79.02373097519771
 10
311.5247923821221
 20
79.01349654309885
 10
311.6010056056527
 20
78.98149862482265
 10
311.6416463719738
 20
78.96647286882795
 10
311.95686348498094
 20
78.86523202888598
 10
311.9816126489444
 20
78.85798180392074
 10
312.35059873294233
 20
78.76014809730657
 10
312.3648912906394
 20
78.75658303666768
 10
312.77653799685186
 20
78.6603691883975
 10
313.63781769167764
 20
78.47108085828154
 10
314.0324353903376
 20
78.37880245401205
 10
314.06102205679895
 20
78.3716719458442
 10
314.4104150837186
 20
78.27903318148124
 10
314.4599216486694
 20
78.2645303185288
 10
314.74218782921065
 20
78.17387259714882
 10
314.8235076020691
 20
78.14380694693791
 10
314.8893628208604
 20
78.11615780927745
 10
314.97752190822104
 20
78.07396442420836
 10
315.06114105267784
 20
78.02336654768999
 10
315.13942149853966
 20
77.96484750614344
 10
315.2116154870003
 20
77.89896629138542
 10
315.2770333989598
 20
77.82635222096715
 10
315.33505034247725
 20
77.74769892674023
 10
315.3851121219301
 20
77.66375772907267
 10
315.42674053186073
 20
77.57533046000651
 10
315.4595379249414
 20
77.48326180391247
 10
315.48319101042335
 20
77.38843122880594
 10
315.4974738467861
 20
77.29174458539907
 10
315.50225
 20
77.19412545413718
 10
315.50225
 20
57.93958260941498
 10
315.4974738467861
 20
57.841963478153076
 10
315.48319101042335
 20
57.745276834746214
 10
315.4595379249414
 20
57.650446259639686
 10
315.42674053186073
 20
57.55837760354564
 10
315.3851121219301
 20
57.46995033447949
 10
315.33505034247725
 20
57.386009136811936
 10
315.2770333989598
 20
57.30735584258501
 10
315.2116154870003
 20
57.234741772166736
 10
315.13942149853966
 20
57.16886055740872
 10
315.06114105267784
 20
57.11034151586217
 10
314.9775219082211
 20
57.0597436393438
 10
314.8893628208604
 20
57.017550254274724
 10
314.8235076020692
 20
56.989901116614284
 10
314.74218782921076
 20
56.959835466403376
 10
314.4599216486695
 20
56.86917774502336
 10
314.41041508371853
 20
56.854674882070896
 10
314.06102205679866
 20
56.762036117707886
 10
314.03243539033735
 20
56.754905609540046
 10
313.63781769167764
 20
56.6626272052706
 10
312.7765379968499
 20
56.4733388751542
 10
312.3648912906396
 20
56.37712502688452
 10
312.35059873294256
 20
56.373559966245644
 10
311.98161264894514
 20
56.275726259631604
 10
311.95686348498026
 20
56.26847603466595
 10
311.64164637197376
 20
56.167235194724164
 10
311.60100560565286
 20
56.15220943872955
 10
311.52479238212186
 20
56.120211520453175
 10
311.5034085042462
 20
56.10997708835443
 10
311.50225
 20
56.08629858119473
 10
311.50225
 20
37.31369964993701
 10
311.5034085042462
 20
37.290021142777306
 10
311.524792382122
 20
37.279786710678515
 10
311.6010056056527
 20
37.24778879240227
 10
311.6416463719738
 20
37.23276303640756
 10
311.95686348498066
 20
37.131522196465674
 10
311.98161264894463
 20
37.124271971500285
 10
312.3505987329427
 20
37.026438264886096
 10
312.3648912906393
 20
37.02287320424732
 10
312.77653799685186
 20
36.926659355977115
 10
313.6378176916776
 20
36.737371025861165
 10
314.0324353903376
 20
36.645092621591665
 10
314.061022056799
 20
36.63796211342382
 10
314.4104150837186
 20
36.54532334906088
 10
314.4599216486695
 20
36.53082048610842
 10
314.7421878292107
 20
36.44016276472842
 10
314.8235076020692
 20
36.41009711451749
 10
314.88936282086047
 20
36.38244797685702
 10
314.9775219082211
 20
36.34025459178794
 10
315.0611410526779
 20
36.28965671526957
 10
315.13942149853966
 20
36.23113767372302
 10
315.21161548700036
 20
36.165256458965004
 10
315.2770333989598
 20
36.09264238854673
 10
315.33505034247725
 20
36.01398909431981
 10
315.3851121219301
 20
35.930047896652255
 10
315.42674053186073
 20
35.84162062758611
 10
315.4595379249414
 20
35.74955197149207
 10
315.48319101042335
 20
35.65472139638555
 10
315.4974738467861
 20
35.558034752978685
 10
315.50225
 20
35.46041562171679
 10
315.50225
 20
16.205872776994592
 10
315.4974738467861
 20
16.108253645732688
 10
315.48319101042335
 20
16.011567002325815
 10
315.4595379249414
 20
15.916736427219284
 10
315.42674053186073
 20
15.824667771125235
 10
315.3851121219301
 20
15.736240502059081
 10
315.33505034247725
 20
15.652299304391521
 10
315.2770333989598
 20
15.573646010164595
 10
315.2116154870003
 20
15.50103193974632
 10
315.1394214985396
 20
15.435150724988302
 10
315.0611410526778
 20
15.376631683441753
 10
314.97752190822104
 20
15.326033806923387
 10
314.88936282086036
 20
15.283840421854306
 10
314.82350760206907
 20
15.256191284193848
 10
314.74218782921076
 20
15.22612563398299
 10
314.4599216486697
 20
15.135467912603028
 10
314.4104150837187
 20
15.120965049650547
 10
314.0610220567986
 20
15.028326285287482
 10
314.0324353903373
 20
15.021195777119644
 10
313.63781769167764
 20
14.928917372850218
 10
312.7765379968496
 20
14.73962904273374
 10
312.3648912906391
 20
14.643415194464012
 10
312.35059873294273
 20
14.639850133825297
 10
311.98161264894475
 20
14.542016427211104
 10
311.95686348498066
 20
14.534766202245692
 10
311.64164637197365
 20
14.433525362303733
 10
311.601005605653
 20
14.418499606309217
 10
311.5247923821219
 20
14.386501688032817
 10
311.5034085042462
 20
14.376267255934058
 10
311.50225
 20
14.352588748774345
 10
311.50225
 20
-2.0
 10
311.4974347266722
 20
-2.0980171403295604
 10
311.4830352804032
 20
-2.1950903220161284
 10
311.4591903357322
 20
-2.2902846772544625
 10
311.4261295325113
 20
-2.3826834323650896
 10
311.38417126434837
 20
-2.4713967368259975
 10
311.33371961230256
 20
-2.555570233019602
 10
311.27526045336276
 20
-2.6343932841636457
 10
311.20935678118656
 20
-2.7071067811865475
 10
311.13664328416365
 20
-2.773010453362737
 10
311.0578202330196
 20
-2.8314696123025453
 10
310.973646736826
 20
-2.881921264348355
 10
310.8849334323651
 20
-2.923879532511287
 10
310.7925346772545
 20
-2.9569403357322086
 10
310.69734032201615
 20
-2.9807852804032304
 10
310.60026714032955
 20
-2.9951847266721967
 10
310.50225
 20
-3.0
 10
240.83977712635925
 20
-3.0
 10
240.7822623116766
 20
-2.998344652959097
 10
240.7052843345387
 20
-2.9939099378768765
 10
226.59299651824674
 20
-2.96386057420223
 10
226.5692300066689
 20
-2.9649506255308964
 10
226.54402659456358
 20
-2.973685094643064
 10
226.50840842591373
 20
-2.988025718717865
 10
226.41879295747563
 20
-3.0146930545634287
 10
226.3270785564223
 20
-3.0328740232918197
 10
226.2340669972917
 20
-3.0424096854384004
 10
226.14057139448025
 20
-3.0432166794915174
 10
223.91999644778306
 20
-2.9584929920734724
 10
223.90199945559553
 20
-2.9581306209561196
 10
222.02958338121616
 20
-2.954143676223861
 10
221.93679112897735
 20
-2.9496306989233094
 10
221.84481812273344
 20
-2.9365259226134772
 10
221.75445816025928
 20
-2.914942451592011
 10
221.66649111752136
 20
-2.8850665678123724
 10
221.6342686455198
 20
-2.872424951221508
 10
221.61056527584583
 20
-2.870379089403478
 10
205.01525835154519
 20
-2.2372027138201016
 10
204.99012705938313
 20
-2.2375188759074103
 10
204.94580415869055
 20
-2.2520532541235982
 10
204.93911961546618
 20
-2.254628451703617
 10
204.8415785203637
 20
-2.2812636976761205
 10
204.74184633317924
 20
-2.2979127937842683
 10
204.64094268603077
 20
-2.3044055246381756
 10
204.53989918769315
 20
-2.3006755104952727
 10
202.90503149284476
 20
-2.1572980877488357
 10
202.88041614813935
 20
-2.155750068505325
 10
201.89197577542205
 20
-2.118037171989926
 10
201.79132914279933
 20
-2.1090884800288427
 10
201.69209935635226
 20
-2.0900287521247365
 10
201.59529953471085
 20
-2.061052584740157
 10
201.5705795548607
 20
-2.0508352421934615
 10
201.53582988152374
 20
-2.0385018596101445
 10
201.51087055228606
 20
-2.035030577551569
 10
183.73305920017276
 20
-0.4759216773205156
 10
183.70907601198948
 20
-0.47498105221291165
 10
183.70116218584522
 20
-0.4762087231371164
 10
183.61260720580793
 20
-0.4859305331453344
 10
183.5235384064898
 20
-0.4877324952062475
 10
183.43466268224554
 20
-0.48160030805141985
 10
182.227207491697
 20
-0.34402816641928996
 10
182.214288621118
 20
-0.34272593796242573
 10
180.35631892658458
 20
-0.1797825345404822
 10
180.2661777382126
 20
-0.16772590770835483
 10
180.1775046622296
 20
-0.147529826717409
 10
180.09103309556585
 20
-0.11936132923537113
 10
180.0532074621339
 20
-0.10310565766463399
 10
180.03135087680232
 20
-0.09500764870457837
 10
180.00766243662213
 20
-0.09114295041642594
 10
165.4871868459385
 20
1.5632562688373062
 10
165.43063079270263
 20
1.5664677542754157
 10
156.459
 20
1.5664677542754157
 10
156.36098285967043
 20
1.5712830276032188
 10
156.26390967798386
 20
1.5856824738721853
 10
156.16871532274553
 20
1.609527418543207
 10
156.0763165676349
 20
1.6425882217641292
 10
155.987603263174
 20
1.6845464899270608
 10
155.9034297669804
 20
1.7349981419728704
 10
155.82460671583635
 20
1.793457300912679
 10
155.75189321881345
 20
1.8593609730888683
 10
155.68598954663727
 20
1.9320744701117705
 10
155.62753038769745
 20
2.0108975212558136
 10
155.57707873565164
 20
2.0950710174494183
 10
155.53512046748872
 20
2.183784321910326
 10
155.5020596642678
 20
2.2761830770209537
 10
155.47821471959676
 20
2.3713774322592873
 10
155.4638152733278
 20
2.4684506139458553
 10
155.459
 20
2.5664677542754157
 10
155.459
 20
19.703064368315424
 10
155.45784149575388
 20
19.72674287547511
 10
155.43645761787795
 20
19.736977307573966
 10
155.36024439434712
 20
19.768975225850266
 10
155.3196036280262
 20
19.784000981844876
 10
155.00438651501952
 20
19.88524182178672
 10
154.97963735105512
 20
19.892492046752228
 10
154.6106512670573
 20
19.99032575336637
 10
154.59635870936089
 20
19.99389081400509
 10
154.1847120031492
 20
20.090104662275102
 10
153.32343230832214
 20
20.27939299239135
 10
152.92881460966254
 20
20.37167139666075
 10
152.90022794320112
 20
20.378801904828613
 10
152.55083491628147
 20
20.47144066919158
 10
152.5013283513306
 20
20.485943532144024
 10
152.21906217078939
 20
20.57660125352402
 10
152.1377423979309
 20
20.60666690373494
 10
152.07188717913957
 20
20.63431604139543
  0
LWPOLYLINE
  5
33
330
17
100
AcDbEntity
  8
SWITCH_CUTOUTS
100
AcDbPolyline
 90
5
 70
1
 10
241.1710790307172
 20
2.53011076818495
 10
241.20088923181507
 20
16.530079030717207
 10
227.2009209692828
 20
16.559889231815053
 10
227.17111076818495
 20
2.5599209692827953
 10
241.1710790307172
 20
2.53011076818495
  0
LWPOLYLINE
  5
34
330
17
100
AcDbEntity
  8
SWITCH_CUTOUTS
100
AcDbPolyline
 90
5
 70
1
 10
260.258
 20
2.5250000000000004
 10
260.258
 20
16.525
 10
246.25799999999998
 20
16.525
 10
246.25799999999998
 20
2.5250000000000004
 10
260.258
 20
2.5250000000000004
  0
LWPOLYLINE
  5
35
330
17
100
AcDbEntity
  8
SWITCH_CUTOUTS
100
AcDbPolyline
 90
5
 70
1
 10
288.833
 20
2.5250000000000004
 10
288.833
 20
16.525
 10
274.833
 20
16.525
 10
274.833
 20
2.5250000000000004
 10
288.833
 20
2.5250000000000004
  0
LWPOLYLINE
  5
36
330
17
100
AcDbEntity
  8
SWITCH_CUTOUTS
100
AcDbPolyline
 90
5
 70
1
 10
221.25502711501207
 20
2.672206066014944
 10
221.78879393398503
 20
16.662027115012087
 10
207.7989728849879
 20
17.195793933985055
 10
207.26520606601494
 20
3.205972884987913
 10
221.25502711501207
 20
2.672206066014944
  0
LWPOLYLINE
  5
37
330
17
100
AcDbEntity
  8
SWITCH_CUTOUTS
100
AcDbPolyline
 90
5
 70
1
 10
199.95968427315782
 20
3.647214359742483
 10
201.18278564025752
 20
17.593684273157805
 10
187.2363157268422
 20
18.816785640257514
 10
186.0132143597425
 20
4.8703157268421915
 10
199.95968427315782
 20
3.647214359742483
  0
LWPOLYLINE
  5
38
330
17
100
AcDbEntity
  8
SWITCH_CUTOUTS
100
AcDbPolyline
 90
5
 70
1
 10
178.84058049336076
 20
5.60257451388854
 10
180.42542548611146
 20
19.512580493360765
 10
166.51541950663923
 20
21.097425486111458
 10
164.93057451388853
 20
7.187419506639235
 10
178.84058049336076
 20
5.60257451388854
  0
LWPOLYLINE
  5
39
330
17
100
AcDbEntity
  8
SWITCH_CUTOUTS
100
AcDbPolyline
 90
5
 70
1
 10
252.63800000000003
 20
21.575000000000003
 10
252.63800000000003
 20
35.575
 10
238.63800000000003
 20
35.575
 10
238.63800000000003
 20
21.575000000000003
 10
252.63800000000003
 20
21.575000000000003
  0
LWPOLYLINE
  5
3A
330
17
100
AcDbEntity
  8
SWITCH_CUTOUTS
100
AcDbPolyline
 90
5
 70
1
 10
271.688
 20
21.575000000000003
 10
271.688
 20
35.575
 10
257.688
 20
35.575
 10
257.688
 20
21.575000000000003
 10
271.688
 20
21.575000000000003
  0
LWPOLYLINE
  5
3B
330
17
100
AcDbEntity
  8
SWITCH_CUTOUTS
100
AcDbPolyline
 90
5
 70
1
 10
295.5
 20
21.575000000000003
 10
295.5
 20
35.575
 10
281.5
 20
35.575
 10
281.5
 20
21.575000000000003
 10
295.5
 20
21.575000000000003
  0
LWPOLYLINE
  5
3C
330
17
100
AcDbEntity
  8
SWITCH_CUTOUTS
100
AcDbPolyline
 90
5
 70
1
 10
233.39328526964528
 20
21.604228225129038
 10
233.55577177487095
 20
35.60328526964527
 10
219.5567147303547
 20
35.76577177487096
 10
219.39422822512904
 20
21.766714730354728
 10
233.39328526964528
 20
21.604228225129038
  0
LWPOLYLINE
  5
3D
330
17
100
AcDbEntity
  8
SWITCH_CUTOUTS
100
AcDbPolyline
 90
5
 70
1
 10
212.83618651709938
 20
21.981429224108513
 10
213.64257077589153
 20
35.958186517099335
 10
199.6658134829007
 20
36.764570775891485
 10
198.85942922410854
 20
22.787813482900663
 10
212.83618651709938
 20
21.981429224108513
  0
LWPOLYLINE
  5
3E
330
17
100
AcDbEntity
  8
SWITCH_CUTOUTS
100
AcDbPolyline
 90
5
 70
1
 10
191.38984718215607
 20
23.381801737957268
 10
192.84619826204275
 20
37.30584718215606
 10
178.92215281784394
 20
38.76219826204273
 10
177.46580173795726
 20
24.838152817843945
 10
191.38984718215607
 20
23.381801737957268
  0
LWPOLYLINE
  5
3F
330
17
100
AcDbEntity
  8
SWITCH_CUTOUTS
100
AcDbPolyline
 90
5
 70
1
 10
170.93658049336076
 20
25.55357451388854
 10
172.52142548611147
 20
39.463580493360766
 10
158.61141950663924
 20
41.04842548611146
 10
157.02657451388853
 20
27.138419506639238
 10
170.93658049336076
 20
25.55357451388854
  0
LWPOLYLINE
  5
40
330
17
100
AcDbEntity
  8
SWITCH_CUTOUTS
100
AcDbPolyline
 90
5
 70
1
 10
248.828
 20
40.625
 10
248.828
 20
54.625
 10
234.828
 20
54.625
 10
234.828
 20
40.625
 10
248.828
 20
40.625
  0
LWPOLYLINE
  5
41
330
17
100
AcDbEntity
  8
SWITCH_CUTOUTS
100
AcDbPolyline
 90
5
 70
1
 10
267.877
 20
40.625
 10
267.877
 20
54.625
 10
253.877
 20
54.625
 10
253.877
 20
40.625
 10
267.877
 20
40.625
  0
LWPOLYLINE
  5
42
330
17
100
AcDbEntity
  8
SWITCH_CUTOUTS
100
AcDbPolyline
 90
5
 70
1
 10
294.071
 20
40.625
 10
294.071
 20
54.625
 10
280.071
 20
54.625
 10
280.071
 20
40.625
 10
294.071
 20
40.625
  0
LWPOLYLINE
  5
43
330
17
100
AcDbEntity
  8
SWITCH_CUTOUTS
100
AcDbPolyline
 90
5
 70
1
 10
229.45707889198638
 20
40.67266831245127
 10
229.7263316875487
 20
54.6700788919864
 10
215.7289211080136
 20
54.93933168754872
 10
215.45966831245127
 20
40.941921108013595
 10
229.45707889198638
 20
40.67266831245127
  0
LWPOLYLINE
  5
44
330
17
100
AcDbEntity
  8
SWITCH_CUTOUTS
100
AcDbPolyline
 90
5
 70
1
 10
208.5687181571672
 20
41.22662510051842
 10
209.5133748994816
 20
55.1947181571672
 10
195.54528184283282
 20
56.13937489948158
 10
194.60062510051844
 20
42.1712818428328
 10
208.5687181571672
 20
41.22662510051842
  0
LWPOLYLINE
  5
45
330
17
100
AcDbEntity
  8
SWITCH_CUTOUTS
100
AcDbPolyline
 90
5
 70
1
 10
187.16390048303137
 20
42.82359125620097
 10
188.69240874379904
 20
56.73990048303138
 10
174.77609951696863
 20
58.26840874379903
 10
173.24759125620096
 20
44.35209951696862
 10
187.16390048303137
 20
42.82359125620097
  0
LWPOLYLINE
  5
46
330
17
100
AcDbEntity
  8
SWITCH_CUTOUTS
100
AcDbPolyline
 90
5
 70
1
 10
244.05533384919346
 20
59.67633576828314
 10
244.0626642317169
 20
73.67633384919344
 10
230.0626661508066
 20
73.68366423171688
 10
230.05533576828316
 20
59.68366615080657
 10
244.05533384919346
 20
59.67633576828314
  0
LWPOLYLINE
  5
47
330
17
100
AcDbEntity
  8
SWITCH_CUTOUTS
100
AcDbPolyline
 90
5
 70
1
 10
263.115
 20
59.675
 10
263.115
 20
73.675
 10
249.115
 20
73.675
 10
249.115
 20
59.675
 10
263.115
 20
59.675
  0
LWPOLYLINE
  5
48
330
17
100
AcDbEntity
  8
SWITCH_CUTOUTS
100
AcDbPolyline
 90
5
 70
1
 10
294.071
 20
59.675
 10
294.071
 20
73.675
 10
280.071
 20
73.675
 10
280.071
 20
59.675
 10
294.071
 20
59.675
  0
LWPOLYLINE
  5
49
330
17
100
AcDbEntity
  8
SWITCH_CUTOUTS
100
AcDbPolyline
 90
5
 70
1
 10
224.3711964083723
 20
59.76689133147883
 10
224.8041086685212
 20
73.76019640837231
 10
210.81080359162772
 20
74.19310866852118
 10
210.37789133147882
 20
60.1998035916277
 10
224.3711964083723
 20
59.76689133147883
  0
LWPOLYLINE
  5
4A
330
17
100
AcDbEntity
  8
SWITCH_CUTOUTS
100
AcDbPolyline
 90
5
 70
1
 10
203.19129621666872
 20
60.5810593955441
 10
204.3099406044559
 20
74.53629621666872
 10
190.35470378333127
 20
75.65494060445589
 10
189.2360593955441
 20
61.69970378333127
 10
203.19129621666872
 20
60.5810593955441
  0
LWPOLYLINE
  5
4B
330
17
100
AcDbEntity
  8
SWITCH_CUTOUTS
100
AcDbPolyline
 90
5
 70
1
 10
181.9397713517294
 20
62.40890992462708
 10
183.51709007537292
 20
76.31977135172941
 10
169.6062286482706
 20
77.89709007537293
 10
168.02890992462707
 20
63.98622864827059
 10
181.9397713517294
 20
62.40890992462708
  0
LWPOLYLINE
  5
4C
330
17
100
AcDbEntity
  8
SWITCH_CUTOUTS
100
AcDbPolyline
 90
5
 70
1
 10
267.877
 20
78.72499999999998
 10
267.877
 20
92.72499999999998
 10
253.877
 20
92.72499999999998
 10
253.877
 20
78.72499999999998
 10
267.877
 20
78.72499999999998
  0
LWPOLYLINE
  5
4D
330
17
100
AcDbEntity
  8
SWITCH_CUTOUTS
100
AcDbPolyline
 90
5
 70
1
 10
296.453
 20
78.72499999999998
 10
296.453
 20
92.72499999999998
 10
282.453
 20
92.72499999999998
 10
282.453
 20
78.72499999999998
 10
296.453
 20
78.72499999999998
  0
LWPOLYLINE
  5
4E
330
17
100
AcDbEntity
  8
SWITCH_CUTOUTS
100
AcDbPolyline
 90
5
 70
1
 10
224.50244101622368
 20
78.94918135052286
 10
224.93681864947715
 20
92.94244101622367
 10
210.94355898377634
 20
93.37681864947713
 10
210.50918135052288
 20
79.38355898377633
 10
224.50244101622368
 20
78.94918135052286
  0
LWPOLYLINE
  5
4F
330
17
100
AcDbEntity
  8
SWITCH_CUTOUTS
100
AcDbPolyline
 90
5
 70
1
 10
185.9799944475409
 20
81.26954285631771
 10
187.43245714368229
 20
95.19399444754089
 10
173.5080055524591
 20
96.64645714368228
 10
172.05554285631771
 20
82.72200555245911
 10
185.9799944475409
 20
81.26954285631771
  0
LWPOLYLINE
  5
50
330
17
100
AcDbEntity
  8
STAB_CLEARANCE
100
AcDbPolyline
 90
5
 70
1
 10
266.42675
 20
17.96
 10
273.42675
 20
17.96
 10
273.42675
 20
2.3600000000000003
 10
266.42675
 20
2.3600000000000003
 10
266.42675
 20
17.96
  0
LWPOLYLINE
  5
51
330
17
100
AcDbEntity
  8
STAB_CLEARANCE
100
AcDbPolyline
 90
5
 70
1
 10
297.23925
 20
17.96
 10
297.23925
 20
2.3600000000000003
 10
290.23925
 20
2.3600000000000003
 10
290.23925
 20
17.96
 10
297.23925
 20
17.96
  0
LWPOLYLINE
  5
52
330
17
100
AcDbEntity
  8
STAB_CLEARANCE
100
AcDbPolyline
 90
5
 70
1
 10
278.66475
 20
75.11
 10
278.66475
 20
59.51
 10
271.66475
 20
59.51
 10
271.66475
 20
75.11
 10
278.66475
 20
75.11
  0
LWPOLYLINE
  5
53
330
17
100
AcDbEntity
  8
STAB_CLEARANCE
100
AcDbPolyline
 90
5
 70
1
 10
295.47725
 20
75.11
 10
302.47725
 20
75.11
 10
302.47725
 20
59.51
 10
295.47725
 20
59.51
 10
295.47725
 20
75.11
  0
LWPOLYLINE
  5
54
330
17
100
AcDbEntity
  8
STAB_CLEARANCE
100
AcDbPolyline
 90
5
 70
1
 10
195.9422217978025
 20
95.74912469710992
 10
194.3237633649592
 20
80.23330720974695
 10
187.3615375693476
 20
80.95953855781767
 10
188.9799960021909
 20
96.47535604518063
 10
195.9422217978025
 20
95.74912469710992
  0
LWPOLYLINE
  5
55
330
17
100
AcDbEntity
  8
STAB_CLEARANCE
100
AcDbPolyline
 90
5
 70
1
 10
172.25822154665948
 20
98.2196081222433
 10
170.63976311381623
 20
82.70379063488033
 10
163.67753731820463
 20
83.43002198295103
 10
165.2959957510479
 20
98.945839470314
 10
172.25822154665948
 20
98.2196081222433
  0
ENDSEC
  0
SECTION
  2
OBJECTS
  0
DICTIONARY
  5
A
330
0
100
AcDbDictionary
281
1
  3
ACAD_COLOR
350
B
  3
ACAD_GROUP
350
C
  3
ACAD_LAYOUT
350
D
  3
ACAD_MATERIAL
350
E
  3
ACAD_MLEADERSTYLE
350
F
  3
ACAD_MLINESTYLE
350
10
  3
ACAD_PLOTSETTINGS
350
11
  3
ACAD_PLOTSTYLENAME
350
12
  3
ACAD_SCALELIST
350
14
  3
ACAD_TABLESTYLE
350
15
  3
ACAD_VISUALSTYLE
350
16
  3
EZDXF_META
350
2D
  0
DICTIONARY
  5
B
330
A
100
AcDbDictionary
281
1
  0
DICTIONARY
  5
C
330
A
100
AcDbDictionary
281
1
  0
DICTIONARY
  5
D
330
A
100
AcDbDictionary
281
1
  3
Model
350
1A
  3
Layout1
350
1E
  0
DICTIONARY
  5
E
330
A
100
AcDbDictionary
281
1
  3
ByBlock
350
1F
  3
ByLayer
350
20
  3
Global
350
21
  0
DICTIONARY
  5
F
330
A
100
AcDbDictionary
281
1
  3
Standard
350
2C
  0
DICTIONARY
  5
10
330
A
100
AcDbDictionary
281
1
  3
Standard
350
22
  0
DICTIONARY
  5
11
330
A
100
AcDbDictionary
281
1
  0
ACDBDICTIONARYWDFLT
  5
12
330
A
100
AcDbDictionary
281
1
  3
Normal
350
13
100
AcDbDictionaryWithDefault
340
13
  0
ACDBPLACEHOLDER
  5
13
330
12
  0
DICTIONARY
  5
14
330
A
100
AcDbDictionary
281
1
  0
DICTIONARY
  5
15
330
A
100
AcDbDictionary
281
1
  0
DICTIONARY
  5
16
330
A
100
AcDbDictionary
281
1
  0
LAYOUT
  5
1A
330
D
100
AcDbPlotSettings
  1

  4
A3
  6

 40
7.5
 41
20.0
 42
7.5
 43
20.0
 44
420.0
 45
297.0
 46
0.0
 47
0.0
 48
0.0
 49
0.0
140
0.0
141
0.0
142
1.0
143
1.0
 70
1024
 72
1
 73
0
 74
5
  7

 75
16
 76
0
 77
2
 78
300
147
1.0
148
0.0
149
0.0
100
AcDbLayout
  1
Model
 70
1
 71
0
 10
0.0
 20
0.0
 11
420.0
 21
297.0
 12
0.0
 22
0.0
 32
0.0
 14
1e+20
 24
1e+20
 34
1e+20
 15
-1e+20
 25
-1e+20
 35
-1e+20
146
0.0
 13
0.0
 23
0.0
 33
0.0
 16
1.0
 26
0.0
 36
0.0
 17
0.0
 27
1.0
 37
0.0
 76
1
330
17
  0
LAYOUT
  5
1E
330
D
100
AcDbPlotSettings
  1

  4
A3
  6

 40
7.5
 41
20.0
 42
7.5
 43
20.0
 44
420.0
 45
297.0
 46
0.0
 47
0.0
 48
0.0
 49
0.0
140
0.0
141
0.0
142
1.0
143
1.0
 70
0
 72
1
 73
0
 74
5
  7

 75
16
 76
0
 77
2
 78
300
147
1.0
148
0.0
149
0.0
100
AcDbLayout
  1
Layout1
 70
1
 71
1
 10
0.0
 20
0.0
 11
420.0
 21
297.0
 12
0.0
 22
0.0
 32
0.0
 14
1e+20
 24
1e+20
 34
1e+20
 15
-1e+20
 25
-1e+20
 35
-1e+20
146
0.0
 13
0.0
 23
0.0
 33
0.0
 16
1.0
 26
0.0
 36
0.0
 17
0.0
 27
1.0
 37
0.0
 76
1
330
1B
  0
MATERIAL
  5
1F
102
{ACAD_REACTORS
330
E
102
}
330
E
100
AcDbMaterial
  1
ByBlock
  2

 70
0
 40
1.0
 71
1
 41
1.0
 91
-1023410177
 42
1.0
 72
1
  3

 73
1
 74
1
 75
1
 44
0.5
 73
0
 45
1.0
 46
1.0
 77
1
  4

 78
1
 79
1
170
1
 48
1.0
171
1
  6

172
1
173
1
174
1
140
1.0
141
1.0
175
1
  7

176
1
177
1
178
1
143
1.0
179
1
  8

270
1
271
1
272
1
145
1.0
146
1.0
273
1
  9

274
1
275
1
276
1
 42
1.0
 72
1
  3

 73
1
 74
1
 75
1
 94
63
  0
MATERIAL
  5
20
102
{ACAD_REACTORS
330
E
102
}
330
E
100
AcDbMaterial
  1
ByLayer
  2

 70
0
 40
1.0
 71
1
 41
1.0
 91
-1023410177
 42
1.0
 72
1
  3

 73
1
 74
1
 75
1
 44
0.5
 73
0
 45
1.0
 46
1.0
 77
1
  4

 78
1
 79
1
170
1
 48
1.0
171
1
  6

172
1
173
1
174
1
140
1.0
141
1.0
175
1
  7

176
1
177
1
178
1
143
1.0
179
1
  8

270
1
271
1
272
1
145
1.0
146
1.0
273
1
  9

274
1
275
1
276
1
 42
1.0
 72
1
  3

 73
1
 74
1
 75
1
 94
63
  0
MATERIAL
  5
21
102
{ACAD_REACTORS
330
E
102
}
330
E
100
AcDbMaterial
  1
Global
  2

 70
0
 40
1.0
 71
1
 41
1.0
 91
-1023410177
 42
1.0
 72
1
  3

 73
1
 74
1
 75
1
 44
0.5
 73
0
 45
1.0
 46
1.0
 77
1
  4

 78
1
 79
1
170
1
 48
1.0
171
1
  6

172
1
173
1
174
1
140
1.0
141
1.0
175
1
  7

176
1
177
1
178
1
143
1.0
179
1
  8

270
1
271
1
272
1
145
1.0
146
1.0
273
1
  9

274
1
275
1
276
1
 42
1.0
 72
1
  3

 73
1
 74
1
 75
1
 94
63
  0
MLINESTYLE
  5
22
102
{ACAD_REACTORS
330
10
102
}
330
10
100
AcDbMlineStyle
  2
Standard
 70
0
  3

 62
256
 51
90.0
 52
90.0
 71
2
 49
0.5
 62
256
  6
BYLAYER
 49
-0.5
 62
256
  6
BYLAYER
  0
MLEADERSTYLE
  5
2C
102
{ACAD_REACTORS
330
F
102
}
330
F
100
AcDbMLeaderStyle
179
2
170
2
171
1
172
0
 90
2
 40
0.0
 41
0.0
173
1
 91
-1056964608
 92
-2
290
1
 42
2.0
291
1
 43
8.0
  3
Standard
 44
4.0
300

342
29
174
1
175
1
176
0
178
1
 93
-1056964608
 45
4.0
292
0
297
0
 46
4.0
 94
-1056964608
 47
1.0
 49
1.0
140
1.0
294
1
141
0.0
177
0
142
1.0
295
0
296
0
143
3.75
271
0
272
9
273
9
  0
DICTIONARY
  5
2D
330
A
100
AcDbDictionary
280
1
281
1
  3
CREATED_BY_EZDXF
350
2E
  3
WRITTEN_BY_EZDXF
350
58
  0
DICTIONARYVAR
  5
2E
330
2D
100
DictionaryVariables
280
0
  1
1.4.4 @ 2026-09-13T16:28:40.803328+00:00
  0
DICTIONARYVAR
  5
58
330
2D
100
DictionaryVariables
280
0
  1
1.4.4 @ 2026-09-13T16:28:40.806246+00:00
  0
ENDSEC
  0
EOF
