%TF.GenerationSoftware,KiCad,Pcbnew,10.0.5*%
%TF.CreationDate,2026-09-13T13:35:47-04:00*%
%TF.ProjectId,Symm60HE-Neo-Controller,53796d6d-3630-4484-952d-4e656f2d436f,rev?*%
%TF.SameCoordinates,Original*%
%TF.FileFunction,Copper,L1,Top*%
%TF.FilePolarity,Positive*%
%FSLAX46Y46*%
G04 Gerber Fmt 4.6, Leading zero omitted, Abs format (unit mm)*
G04 Created by KiCad (PCBNEW 10.0.5) date 2026-09-13 13:35:47*
%MOMM*%
%LPD*%
G01*
G04 APERTURE LIST*
G04 Aperture macros list*
%AMRoundRect*
0 Rectangle with rounded corners*
0 $1 Rounding radius*
0 $2 $3 $4 $5 $6 $7 $8 $9 X,Y pos of 4 corners*
0 Add a 4 corners polygon primitive as box body*
4,1,4,$2,$3,$4,$5,$6,$7,$8,$9,$2,$3,0*
0 Add four circle primitives for the rounded corners*
1,1,$1+$1,$2,$3*
1,1,$1+$1,$4,$5*
1,1,$1+$1,$6,$7*
1,1,$1+$1,$8,$9*
0 Add four rect primitives between the rounded corners*
20,1,$1+$1,$2,$3,$4,$5,0*
20,1,$1+$1,$4,$5,$6,$7,0*
20,1,$1+$1,$6,$7,$8,$9,0*
20,1,$1+$1,$8,$9,$2,$3,0*%
G04 Aperture macros list end*
%TA.AperFunction,SMDPad,CuDef*%
%ADD10C,1.000000*%
%TD*%
%TA.AperFunction,SMDPad,CuDef*%
%ADD11RoundRect,0.225000X-0.225000X-0.250000X0.225000X-0.250000X0.225000X0.250000X-0.225000X0.250000X0*%
%TD*%
%TA.AperFunction,SMDPad,CuDef*%
%ADD12RoundRect,0.135000X-0.135000X-0.185000X0.135000X-0.185000X0.135000X0.185000X-0.135000X0.185000X0*%
%TD*%
%TA.AperFunction,SMDPad,CuDef*%
%ADD13RoundRect,0.150000X-0.512500X-0.150000X0.512500X-0.150000X0.512500X0.150000X-0.512500X0.150000X0*%
%TD*%
%TA.AperFunction,SMDPad,CuDef*%
%ADD14RoundRect,0.150000X0.150000X0.575000X-0.150000X0.575000X-0.150000X-0.575000X0.150000X-0.575000X0*%
%TD*%
%TA.AperFunction,SMDPad,CuDef*%
%ADD15RoundRect,0.075000X0.075000X0.650000X-0.075000X0.650000X-0.075000X-0.650000X0.075000X-0.650000X0*%
%TD*%
%TA.AperFunction,ComponentPad*%
%ADD16O,1.000000X2.100000*%
%TD*%
%TA.AperFunction,ComponentPad*%
%ADD17O,1.000000X1.600000*%
%TD*%
%TA.AperFunction,SMDPad,CuDef*%
%ADD18RoundRect,0.150000X0.950000X-0.150000X0.950000X0.150000X-0.950000X0.150000X-0.950000X-0.150000X0*%
%TD*%
%TA.AperFunction,SMDPad,CuDef*%
%ADD19RoundRect,0.360000X0.940000X-0.540000X0.940000X0.540000X-0.940000X0.540000X-0.940000X-0.540000X0*%
%TD*%
%TA.AperFunction,SMDPad,CuDef*%
%ADD20RoundRect,0.243750X-0.243750X-0.456250X0.243750X-0.456250X0.243750X0.456250X-0.243750X0.456250X0*%
%TD*%
%TA.AperFunction,SMDPad,CuDef*%
%ADD21RoundRect,0.250000X-0.450000X-0.350000X0.450000X-0.350000X0.450000X0.350000X-0.450000X0.350000X0*%
%TD*%
%TA.AperFunction,SMDPad,CuDef*%
%ADD22R,1.000000X0.750000*%
%TD*%
%TA.AperFunction,SMDPad,CuDef*%
%ADD23RoundRect,0.150000X-0.950000X0.150000X-0.950000X-0.150000X0.950000X-0.150000X0.950000X0.150000X0*%
%TD*%
%TA.AperFunction,SMDPad,CuDef*%
%ADD24RoundRect,0.360000X-0.940000X0.540000X-0.940000X-0.540000X0.940000X-0.540000X0.940000X0.540000X0*%
%TD*%
%TA.AperFunction,SMDPad,CuDef*%
%ADD25RoundRect,0.075000X-0.700000X-0.075000X0.700000X-0.075000X0.700000X0.075000X-0.700000X0.075000X0*%
%TD*%
%TA.AperFunction,SMDPad,CuDef*%
%ADD26RoundRect,0.075000X-0.075000X-0.700000X0.075000X-0.700000X0.075000X0.700000X-0.075000X0.700000X0*%
%TD*%
%TA.AperFunction,ViaPad*%
%ADD27C,0.600000*%
%TD*%
%TA.AperFunction,Conductor*%
%ADD28C,0.200000*%
%TD*%
%TA.AperFunction,Conductor*%
%ADD29C,0.150000*%
%TD*%
G04 APERTURE END LIST*
D10*
%TO.P,FIDF3,*%
%TO.N,*%
X209000000Y-19200000D03*
%TD*%
D11*
%TO.P,C1,1*%
%TO.N,VBUS*%
X201434000Y-736700D03*
%TO.P,C1,2*%
%TO.N,GND*%
X202984000Y-736700D03*
%TD*%
D12*
%TO.P,R3,1*%
%TO.N,CC2*%
X193699000Y-15236700D03*
%TO.P,R3,2*%
%TO.N,GND*%
X194719000Y-15236700D03*
%TD*%
%TO.P,R1,1*%
%TO.N,USB_R*%
X190699000Y-7236700D03*
%TO.P,R1,2*%
%TO.N,GND*%
X191719000Y-7236700D03*
%TD*%
%TO.P,R2,1*%
%TO.N,CC1*%
X186699000Y-3236700D03*
%TO.P,R2,2*%
%TO.N,GND*%
X187719000Y-3236700D03*
%TD*%
D13*
%TO.P,U2,1*%
%TO.N,USB_DP*%
X191571500Y-2786700D03*
%TO.P,U2,2*%
%TO.N,GND*%
X191571500Y-3736700D03*
%TO.P,U2,3*%
%TO.N,USB_DM*%
X191571500Y-4686700D03*
%TO.P,U2,4*%
X193846500Y-4686700D03*
%TO.P,U2,5*%
%TO.N,VBUS*%
X193846500Y-3736700D03*
%TO.P,U2,6*%
%TO.N,USB_DP*%
X193846500Y-2786700D03*
%TD*%
D14*
%TO.P,J1,A1*%
%TO.N,GND*%
X195459000Y68300D03*
%TO.P,J1,A4*%
%TO.N,VBUS_IN*%
X194659000Y68300D03*
D15*
%TO.P,J1,A5*%
%TO.N,CC1*%
X193459000Y68300D03*
%TO.P,J1,A6*%
%TO.N,USB_DP*%
X192459000Y68300D03*
%TO.P,J1,A7*%
%TO.N,USB_DM*%
X191959000Y68300D03*
%TO.P,J1,A8*%
%TO.N,N/C*%
X190959000Y68300D03*
D14*
%TO.P,J1,A9*%
%TO.N,VBUS_IN*%
X189759000Y68300D03*
%TO.P,J1,A12*%
%TO.N,GND*%
X188959000Y68300D03*
%TO.P,J1,B1*%
X188959000Y68300D03*
%TO.P,J1,B4*%
%TO.N,VBUS_IN*%
X189759000Y68300D03*
D15*
%TO.P,J1,B5*%
%TO.N,CC2*%
X190459000Y68300D03*
%TO.P,J1,B6*%
%TO.N,USB_DP*%
X191459000Y68300D03*
%TO.P,J1,B7*%
%TO.N,USB_DM*%
X192959000Y68300D03*
%TO.P,J1,B8*%
%TO.N,N/C*%
X193959000Y68300D03*
D14*
%TO.P,J1,B9*%
%TO.N,VBUS_IN*%
X194659000Y68300D03*
%TO.P,J1,B12*%
%TO.N,GND*%
X195459000Y68300D03*
D16*
%TO.P,J1,SH*%
X196529000Y983300D03*
D17*
X196529000Y5163300D03*
D16*
X187889000Y983300D03*
D17*
X187889000Y5163300D03*
%TD*%
D11*
%TO.P,C2,1*%
%TO.N,+3V3D*%
X200434000Y-13236700D03*
%TO.P,C2,2*%
%TO.N,GND*%
X201984000Y-13236700D03*
%TD*%
D18*
%TO.P,J3,1*%
%TO.N,ADC_R4*%
X207809000Y-14736700D03*
%TO.P,J3,2*%
%TO.N,ADC_R3*%
X207809000Y-13736700D03*
%TO.P,J3,3*%
%TO.N,GND*%
X207809000Y-12736700D03*
%TO.P,J3,4*%
%TO.N,ADC_R2*%
X207809000Y-11736700D03*
%TO.P,J3,5*%
%TO.N,GND*%
X207809000Y-10736700D03*
%TO.P,J3,6*%
%TO.N,ADC_R1*%
X207809000Y-9736700D03*
%TO.P,J3,7*%
%TO.N,GND*%
X207809000Y-8736700D03*
%TO.P,J3,8*%
%TO.N,MUX_A2*%
X207809000Y-7736700D03*
%TO.P,J3,9*%
%TO.N,MUX_A1*%
X207809000Y-6736700D03*
%TO.P,J3,10*%
%TO.N,MUX_A0*%
X207809000Y-5736700D03*
%TO.P,J3,11*%
%TO.N,GND*%
X207809000Y-4736700D03*
%TO.P,J3,12*%
%TO.N,+3V3A*%
X207809000Y-3736700D03*
D19*
%TO.P,J3,MP*%
%TO.N,N/C*%
X210009000Y-17036700D03*
X210009000Y-1436700D03*
%TD*%
D20*
%TO.P,F1,1*%
%TO.N,VBUS_IN*%
X199271500Y2763300D03*
%TO.P,F1,2*%
%TO.N,VBUS*%
X201146500Y2763300D03*
%TD*%
D21*
%TO.P,Y1,1*%
%TO.N,XTAL_IN*%
X169609000Y-9086700D03*
%TO.P,Y1,2*%
%TO.N,GND*%
X171809000Y-9086700D03*
%TO.P,Y1,3*%
%TO.N,XTAL_OUT*%
X171809000Y-7386700D03*
%TO.P,Y1,4*%
%TO.N,GND*%
X169609000Y-7386700D03*
%TD*%
D13*
%TO.P,U4,1*%
%TO.N,GND*%
X169571500Y-12286700D03*
%TO.P,U4,2*%
%TO.N,+3V3A*%
X169571500Y-14186700D03*
%TO.P,U4,3*%
%TO.N,+3V3D*%
X171846500Y-13236700D03*
%TD*%
D10*
%TO.P,FIDF2,*%
%TO.N,*%
X180000000Y5000000D03*
%TD*%
D22*
%TO.P,SW1,1*%
%TO.N,BOOT0*%
X167709000Y4638300D03*
X173709000Y4638300D03*
%TO.P,SW1,2*%
%TO.N,GND*%
X167709000Y888300D03*
X173709000Y888300D03*
%TD*%
D23*
%TO.P,J2,1*%
%TO.N,ADC_L4*%
X158609000Y-3736700D03*
%TO.P,J2,2*%
%TO.N,ADC_L3*%
X158609000Y-4736700D03*
%TO.P,J2,3*%
%TO.N,GND*%
X158609000Y-5736700D03*
%TO.P,J2,4*%
%TO.N,ADC_L2*%
X158609000Y-6736700D03*
%TO.P,J2,5*%
%TO.N,GND*%
X158609000Y-7736700D03*
%TO.P,J2,6*%
%TO.N,ADC_L1*%
X158609000Y-8736700D03*
%TO.P,J2,7*%
%TO.N,GND*%
X158609000Y-9736700D03*
%TO.P,J2,8*%
%TO.N,MUX_A2*%
X158609000Y-10736700D03*
%TO.P,J2,9*%
%TO.N,MUX_A1*%
X158609000Y-11736700D03*
%TO.P,J2,10*%
%TO.N,MUX_A0*%
X158609000Y-12736700D03*
%TO.P,J2,11*%
%TO.N,GND*%
X158609000Y-13736700D03*
%TO.P,J2,12*%
%TO.N,+3V3A*%
X158609000Y-14736700D03*
D24*
%TO.P,J2,MP*%
%TO.N,N/C*%
X156409000Y-1436700D03*
X156409000Y-17036700D03*
%TD*%
D13*
%TO.P,U3,1*%
%TO.N,VBUS*%
X197571500Y-2786700D03*
%TO.P,U3,2*%
%TO.N,GND*%
X197571500Y-3736700D03*
%TO.P,U3,3*%
%TO.N,N/C*%
X197571500Y-4686700D03*
%TO.P,U3,4*%
X199846500Y-4686700D03*
%TO.P,U3,5*%
%TO.N,+3V3D*%
X199846500Y-2786700D03*
%TD*%
D25*
%TO.P,U1,1*%
%TO.N,+3V3D*%
X176034000Y-5486700D03*
%TO.P,U1,2*%
%TO.N,N/C*%
X176034000Y-5986700D03*
%TO.P,U1,3*%
X176034000Y-6486700D03*
%TO.P,U1,4*%
X176034000Y-6986700D03*
%TO.P,U1,5*%
%TO.N,XTAL_IN*%
X176034000Y-7486700D03*
%TO.P,U1,6*%
%TO.N,XTAL_OUT*%
X176034000Y-7986700D03*
%TO.P,U1,7*%
%TO.N,NRST*%
X176034000Y-8486700D03*
%TO.P,U1,8*%
%TO.N,N/C*%
X176034000Y-8986700D03*
%TO.P,U1,9*%
%TO.N,MUX_A0*%
X176034000Y-9486700D03*
%TO.P,U1,10*%
%TO.N,MUX_A1*%
X176034000Y-9986700D03*
%TO.P,U1,11*%
%TO.N,MUX_A2*%
X176034000Y-10486700D03*
%TO.P,U1,12*%
%TO.N,GND*%
X176034000Y-10986700D03*
%TO.P,U1,13*%
%TO.N,+3V3A*%
X176034000Y-11486700D03*
%TO.P,U1,14*%
%TO.N,N/C*%
X176034000Y-11986700D03*
%TO.P,U1,15*%
X176034000Y-12486700D03*
%TO.P,U1,16*%
X176034000Y-12986700D03*
D26*
%TO.P,U1,17*%
%TO.N,ADC_L1*%
X177959000Y-14911700D03*
%TO.P,U1,18*%
%TO.N,N/C*%
X178459000Y-14911700D03*
%TO.P,U1,19*%
X178959000Y-14911700D03*
%TO.P,U1,20*%
%TO.N,ADC_L2*%
X179459000Y-14911700D03*
%TO.P,U1,21*%
%TO.N,ADC_L3*%
X179959000Y-14911700D03*
%TO.P,U1,22*%
%TO.N,ADC_L4*%
X180459000Y-14911700D03*
%TO.P,U1,23*%
%TO.N,ADC_R1*%
X180959000Y-14911700D03*
%TO.P,U1,24*%
%TO.N,ADC_R2*%
X181459000Y-14911700D03*
%TO.P,U1,25*%
%TO.N,ADC_R3*%
X181959000Y-14911700D03*
%TO.P,U1,26*%
%TO.N,ADC_R4*%
X182459000Y-14911700D03*
%TO.P,U1,27*%
%TO.N,N/C*%
X182959000Y-14911700D03*
%TO.P,U1,28*%
X183459000Y-14911700D03*
%TO.P,U1,29*%
X183959000Y-14911700D03*
%TO.P,U1,30*%
X184459000Y-14911700D03*
%TO.P,U1,31*%
%TO.N,GND*%
X184959000Y-14911700D03*
%TO.P,U1,32*%
%TO.N,N/C*%
X185459000Y-14911700D03*
D25*
%TO.P,U1,33*%
%TO.N,USB_R*%
X187384000Y-12986700D03*
%TO.P,U1,34*%
%TO.N,USB_DM*%
X187384000Y-12486700D03*
%TO.P,U1,35*%
%TO.N,USB_DP*%
X187384000Y-11986700D03*
%TO.P,U1,36*%
%TO.N,+3V3D*%
X187384000Y-11486700D03*
%TO.P,U1,37*%
%TO.N,N/C*%
X187384000Y-10986700D03*
%TO.P,U1,38*%
X187384000Y-10486700D03*
%TO.P,U1,39*%
X187384000Y-9986700D03*
%TO.P,U1,40*%
X187384000Y-9486700D03*
%TO.P,U1,41*%
X187384000Y-8986700D03*
%TO.P,U1,42*%
X187384000Y-8486700D03*
%TO.P,U1,43*%
X187384000Y-7986700D03*
%TO.P,U1,44*%
X187384000Y-7486700D03*
%TO.P,U1,45*%
X187384000Y-6986700D03*
%TO.P,U1,46*%
%TO.N,SWDIO*%
X187384000Y-6486700D03*
%TO.P,U1,47*%
%TO.N,N/C*%
X187384000Y-5986700D03*
%TO.P,U1,48*%
X187384000Y-5486700D03*
D26*
%TO.P,U1,49*%
%TO.N,SWCLK*%
X185459000Y-3561700D03*
%TO.P,U1,50*%
%TO.N,N/C*%
X184959000Y-3561700D03*
%TO.P,U1,51*%
X184459000Y-3561700D03*
%TO.P,U1,52*%
X183959000Y-3561700D03*
%TO.P,U1,53*%
X183459000Y-3561700D03*
%TO.P,U1,54*%
X182959000Y-3561700D03*
%TO.P,U1,55*%
%TO.N,SWO*%
X182459000Y-3561700D03*
%TO.P,U1,56*%
%TO.N,N/C*%
X181959000Y-3561700D03*
%TO.P,U1,57*%
X181459000Y-3561700D03*
%TO.P,U1,58*%
X180959000Y-3561700D03*
%TO.P,U1,59*%
X180459000Y-3561700D03*
%TO.P,U1,60*%
%TO.N,BOOT0*%
X179959000Y-3561700D03*
%TO.P,U1,61*%
%TO.N,N/C*%
X179459000Y-3561700D03*
%TO.P,U1,62*%
X178959000Y-3561700D03*
%TO.P,U1,63*%
%TO.N,GND*%
X178459000Y-3561700D03*
%TO.P,U1,64*%
%TO.N,+3V3D*%
X177959000Y-3561700D03*
%TD*%
D22*
%TO.P,SW2,1*%
%TO.N,NRST*%
X163709000Y-1361700D03*
X169709000Y-1361700D03*
%TO.P,SW2,2*%
%TO.N,GND*%
X163709000Y-5111700D03*
X169709000Y-5111700D03*
%TD*%
D10*
%TO.P,FIDF1,*%
%TO.N,*%
X164000000Y3000000D03*
%TD*%
D27*
%TO.N,VBUS*%
X200872700Y-1685500D03*
%TO.N,GND*%
X196037900Y-3736700D03*
X184521700Y-16196700D03*
%TO.N,CC2*%
X190806600Y-1119000D03*
X192438400Y-14152200D03*
%TO.N,CC1*%
X188249800Y-1973400D03*
X193250600Y1245800D03*
%TO.N,USB_DP*%
X190656900Y-2168200D03*
X189321600Y-7198900D03*
%TO.N,USB_DM*%
X192709000Y-4557800D03*
X192420200Y-6606000D03*
X192959000Y-1144100D03*
%TO.N,+3V3D*%
X188622400Y-10741400D03*
X199088000Y-3540500D03*
X194987000Y-12673800D03*
X173481900Y-13279700D03*
%TO.N,MUX_A2*%
X164452500Y-10736700D03*
X174020100Y-10426400D03*
%TO.N,MUX_A1*%
X164905800Y-11367500D03*
X203124200Y-6419300D03*
X181715100Y-9901900D03*
%TO.N,MUX_A0*%
X173034500Y-9486700D03*
X166064900Y-12314500D03*
%TO.N,+3V3A*%
X181689800Y-11486700D03*
X206863600Y-3736700D03*
%TO.N,XTAL_IN*%
X174801000Y-7484100D03*
%TO.N,XTAL_OUT*%
X178013200Y-7932100D03*
%TO.N,BOOT0*%
X179736500Y-2312800D03*
X174104500Y3805400D03*
%TO.N,ADC_L4*%
X180307800Y-13684100D03*
X171836000Y-3736700D03*
%TO.N,ADC_L3*%
X159848900Y-4736700D03*
X170713700Y-14186200D03*
%TO.N,ADC_L1*%
X168819600Y-10358100D03*
X171944000Y-14611800D03*
%TO.N,NRST*%
X177985500Y-7125800D03*
X172353500Y-1643700D03*
%TD*%
%TO.N,VBUS*%
D28*
X197571500Y-2786700D02*
X195988500Y-2786700D01*
X201434000Y-736700D02*
X201434000Y2475800D01*
X201434000Y-1124200D02*
X201434000Y-736700D01*
X195988500Y-2786700D02*
X195038500Y-3736700D01*
X200872700Y-1685500D02*
X201434000Y-1124200D01*
X201434000Y2475800D02*
X201146500Y2763300D01*
X195038500Y-3736700D02*
X193846500Y-3736700D01*
X198672700Y-1685500D02*
X200872700Y-1685500D01*
X197571500Y-2786700D02*
X198672700Y-1685500D01*
%TO.N,GND*%
X187889000Y572900D02*
X188454400Y572900D01*
X201984000Y-13236700D02*
X199984000Y-15236700D01*
X208709000Y-4736700D02*
X206265600Y-4736700D01*
X163709000Y-5111700D02*
X162907300Y-5111700D01*
X209832000Y-8166200D02*
X209261500Y-8736700D01*
X208709000Y-8736700D02*
X193219000Y-8736700D01*
X194719000Y-15236700D02*
X194791800Y-15309500D01*
X173709000Y888300D02*
X173709000Y211600D01*
X162907300Y-5111700D02*
X162282300Y-5736700D01*
X176015700Y-2484700D02*
X178218200Y-2484700D01*
X164303400Y-9736700D02*
X165624600Y-11057900D01*
X187889000Y307500D02*
X181492000Y307500D01*
X163709000Y-5111700D02*
X169709000Y-5111700D01*
X156606700Y-8399300D02*
X156606700Y-9081500D01*
X194791800Y-15309500D02*
X196150700Y-15309500D01*
X195895700Y-368400D02*
X195459000Y68300D01*
X209823500Y-9298700D02*
X209261500Y-8736700D01*
X169709000Y-5111700D02*
X173388700Y-5111700D01*
X165624600Y-11057900D02*
X169571500Y-11057900D01*
X175986000Y-11034700D02*
X176034000Y-10986700D01*
X188959000Y-2115100D02*
X188959000Y68300D01*
X184959000Y-15759400D02*
X184521700Y-16196700D01*
X187837400Y-3236700D02*
X188959000Y-2115100D01*
X208709000Y-4736700D02*
X209259400Y-4736700D01*
X169571500Y-12286700D02*
X168121500Y-13736700D01*
X169571500Y-11057900D02*
X169571500Y-12286700D01*
X178218200Y-2484700D02*
X178459000Y-2725500D01*
X157709000Y-9736700D02*
X164303400Y-9736700D01*
X193219000Y-8736700D02*
X192219500Y-7737100D01*
X196529000Y-368400D02*
X195895700Y-368400D01*
X188454400Y572900D02*
X188959000Y68300D01*
X168121500Y-13736700D02*
X157709000Y-13736700D01*
X171809000Y-11034700D02*
X171809000Y-9086700D01*
X196529000Y5163300D02*
X196529000Y4061600D01*
X176015700Y-2484700D02*
X176015700Y-2095100D01*
X202484000Y-12736700D02*
X201984000Y-13236700D01*
X187889000Y5163300D02*
X187889000Y4061600D01*
X169571500Y-11057900D02*
X169594700Y-11034700D01*
X191674900Y-8281700D02*
X192219500Y-7737100D01*
X169609000Y-7386700D02*
X169709000Y-7286700D01*
X173709000Y888300D02*
X167709000Y888300D01*
X187719000Y-3236700D02*
X188219000Y-3736700D01*
X192219500Y-7737100D02*
X191719000Y-7236700D01*
X187719000Y-3236700D02*
X187837400Y-3236700D01*
X173388700Y-5111700D02*
X176015700Y-2484700D01*
X169709000Y-7286700D02*
X169709000Y-5111700D01*
X209261500Y-8736700D02*
X208709000Y-8736700D01*
X178459000Y-2725500D02*
X178459000Y-3561700D01*
X196529000Y983300D02*
X196529000Y-368400D01*
X209169100Y-10736700D02*
X209823500Y-10082300D01*
X156606700Y-9081500D02*
X157261900Y-9736700D01*
X169594700Y-11034700D02*
X171809000Y-11034700D01*
X202984000Y-1455100D02*
X202984000Y-736700D01*
X184959000Y-14911700D02*
X184959000Y-15759400D01*
X209259400Y-4736700D02*
X209832000Y-5309300D01*
X187889000Y983300D02*
X187889000Y572900D01*
X181492000Y307500D02*
X178459000Y-2725500D01*
X176015700Y-2095100D02*
X173709000Y211600D01*
X157261900Y-9736700D02*
X157709000Y-9736700D01*
X188219000Y-3736700D02*
X191571500Y-3736700D01*
X171809000Y-11034700D02*
X175986000Y-11034700D01*
X196037900Y-3736700D02*
X197571500Y-3736700D01*
X206265600Y-4736700D02*
X202984000Y-1455100D01*
X209832000Y-5309300D02*
X209832000Y-8166200D01*
X187889000Y572900D02*
X187889000Y307500D01*
X157269300Y-7736700D02*
X156606700Y-8399300D01*
X199984000Y-15236700D02*
X194719000Y-15236700D01*
X196529000Y4061600D02*
X187889000Y4061600D01*
X209823500Y-10082300D02*
X209823500Y-9298700D01*
%TO.N,CC2*%
X192614500Y-14152200D02*
X192438400Y-14152200D01*
X193699000Y-15236700D02*
X192614500Y-14152200D01*
X190459000Y-771400D02*
X190806600Y-1119000D01*
X190459000Y68300D02*
X190459000Y-771400D01*
%TO.N,USB_R*%
X190699000Y-7236700D02*
X190699000Y-10823100D01*
X190699000Y-10823100D02*
X188633300Y-12888800D01*
D29*
X187481900Y-12888800D02*
X188633300Y-12888800D01*
X187384000Y-12986700D02*
X187481900Y-12888800D01*
%TO.N,CC1*%
D28*
X188249800Y-1973400D02*
X187962300Y-1973400D01*
X193459000Y1037400D02*
X193250600Y1245800D01*
X187962300Y-1973400D02*
X186699000Y-3236700D01*
X193459000Y68300D02*
X193459000Y1037400D01*
%TO.N,USB_DP*%
X189321600Y-10843400D02*
X188178300Y-11986700D01*
X191571500Y-2611100D02*
X191571500Y-2786700D01*
X191128600Y-2168200D02*
X191459000Y-1837800D01*
X189321600Y-7198900D02*
X189321600Y-10843400D01*
X191571500Y-2786700D02*
X193846500Y-2786700D01*
X191459000Y68300D02*
X191459000Y-975300D01*
X192459000Y-701900D02*
X192185600Y-975300D01*
X191128600Y-2168200D02*
X191571500Y-2611100D01*
X192185600Y-975300D02*
X191459000Y-975300D01*
X192459000Y68300D02*
X192459000Y-701900D01*
X191459000Y-1837800D02*
X191459000Y-975300D01*
X188178300Y-11986700D02*
X187384000Y-11986700D01*
X190656900Y-2168200D02*
X191128600Y-2168200D01*
%TO.N,USB_DM*%
X190134200Y-6932900D02*
X190461100Y-6606000D01*
X191959000Y68300D02*
X191959000Y786500D01*
X192245600Y1073100D02*
X192643200Y1073100D01*
X193846500Y-4686700D02*
X191571500Y-4686700D01*
X187384000Y-12486700D02*
X188279300Y-12486700D01*
X192709000Y-4557800D02*
X191700400Y-4557800D01*
X190461100Y-6606000D02*
X192420200Y-6606000D01*
X192643200Y1073100D02*
X192959000Y757300D01*
X188279300Y-12486700D02*
X190134200Y-10631800D01*
X192959000Y757300D02*
X192959000Y68300D01*
X191959000Y786500D02*
X192245600Y1073100D01*
X191700400Y-4557800D02*
X191571500Y-4686700D01*
X192959000Y68300D02*
X192959000Y-1144100D01*
X190134200Y-10631800D02*
X190134200Y-6932900D01*
%TO.N,VBUS_IN*%
X194272300Y1170900D02*
X194272300Y1824200D01*
X191008400Y1824200D02*
X189759000Y574800D01*
X195131100Y2763300D02*
X199271500Y2763300D01*
X194272300Y1824200D02*
X191008400Y1824200D01*
X189759000Y574800D02*
X189759000Y68300D01*
X194659000Y784200D02*
X194272300Y1170900D01*
X194272300Y1904500D02*
X195131100Y2763300D01*
X194272300Y1824200D02*
X194272300Y1904500D01*
X194659000Y68300D02*
X194659000Y784200D01*
%TO.N,+3V3D*%
X199088000Y-3540500D02*
X198761200Y-3867300D01*
X171889500Y-13279700D02*
X171846500Y-13236700D01*
X188622400Y-10995200D02*
X188622400Y-10741400D01*
X190642000Y-5239700D02*
X189776500Y-4374200D01*
X185937200Y-4683800D02*
X177959000Y-4683800D01*
X178590200Y-13038900D02*
X178189100Y-13440000D01*
X198761200Y-4788100D02*
X198309600Y-5239700D01*
X199871100Y-12673800D02*
X200434000Y-13236700D01*
X177959000Y-4683800D02*
X177959000Y-3561700D01*
X176836900Y-4683800D02*
X177959000Y-4683800D01*
X176034000Y-5486700D02*
X176836900Y-4683800D01*
X181379200Y-13038900D02*
X178590200Y-13038900D01*
X173481900Y-13279700D02*
X171889500Y-13279700D01*
X178189100Y-13440000D02*
X173642200Y-13440000D01*
X182931400Y-11486700D02*
X181379200Y-13038900D01*
X198761200Y-3867300D02*
X198761200Y-4788100D01*
X199092700Y-3540500D02*
X199088000Y-3540500D01*
X186246800Y-4374200D02*
X185937200Y-4683800D01*
X199846500Y-2786700D02*
X199092700Y-3540500D01*
X194987000Y-12673800D02*
X199871100Y-12673800D01*
X187384000Y-11486700D02*
X182931400Y-11486700D01*
X187384000Y-11486700D02*
X188130900Y-11486700D01*
X188130900Y-11486700D02*
X188622400Y-10995200D01*
X189776500Y-4374200D02*
X186246800Y-4374200D01*
X173642200Y-13440000D02*
X173481900Y-13279700D01*
X198309600Y-5239700D02*
X190642000Y-5239700D01*
%TO.N,ADC_R4*%
X182459000Y-15670600D02*
X182459000Y-14911700D01*
X200480500Y-16829900D02*
X183618300Y-16829900D01*
X208709000Y-14736700D02*
X202573700Y-14736700D01*
X183618300Y-16829900D02*
X182459000Y-15670600D01*
X202573700Y-14736700D02*
X200480500Y-16829900D01*
%TO.N,ADC_R3*%
X200562700Y-15913400D02*
X188621200Y-15913400D01*
X182308200Y-13813500D02*
X181959000Y-14162700D01*
X208709000Y-13736700D02*
X202739400Y-13736700D01*
X186521300Y-13813500D02*
X182308200Y-13813500D01*
X202739400Y-13736700D02*
X200562700Y-15913400D01*
X188621200Y-15913400D02*
X186521300Y-13813500D01*
X181959000Y-14162700D02*
X181959000Y-14911700D01*
%TO.N,ADC_R2*%
X209123700Y-15726000D02*
X209816200Y-15033500D01*
X181459000Y-14911700D02*
X181459000Y-15711000D01*
X203258700Y-15726000D02*
X209123700Y-15726000D01*
X209235400Y-11736700D02*
X208709000Y-11736700D01*
X181459000Y-15711000D02*
X182946500Y-17198500D01*
X201786200Y-17198500D02*
X203258700Y-15726000D01*
X209816200Y-15033500D02*
X209816200Y-12317500D01*
X209816200Y-12317500D02*
X209235400Y-11736700D01*
X182946500Y-17198500D02*
X201786200Y-17198500D01*
%TO.N,ADC_R1*%
X180959000Y-14111200D02*
X180959000Y-14911700D01*
X181681100Y-13389100D02*
X180959000Y-14111200D01*
X208709000Y-9736700D02*
X192789000Y-9736700D01*
X192789000Y-9736700D02*
X189136600Y-13389100D01*
X189136600Y-13389100D02*
X181681100Y-13389100D01*
%TO.N,MUX_A2*%
X186542400Y-5084100D02*
X188460400Y-5084100D01*
X189413200Y-6036900D02*
X193572300Y-6036900D01*
X188460400Y-5084100D02*
X189413200Y-6036900D01*
X176034000Y-10486700D02*
X181962600Y-10486700D01*
X184809100Y-6817400D02*
X186542400Y-5084100D01*
X181962600Y-10486700D02*
X184809100Y-7640200D01*
X184809100Y-7640200D02*
X184809100Y-6817400D01*
X195272100Y-7736700D02*
X208709000Y-7736700D01*
X174020100Y-10426400D02*
X174080400Y-10486700D01*
X157709000Y-10736700D02*
X164452500Y-10736700D01*
X193572300Y-6036900D02*
X195272100Y-7736700D01*
X174080400Y-10486700D02*
X176034000Y-10486700D01*
%TO.N,MUX_A1*%
X208391600Y-6419300D02*
X203124200Y-6419300D01*
X157709000Y-11736700D02*
X158078200Y-11367500D01*
X208709000Y-6736700D02*
X208391600Y-6419300D01*
X158078200Y-11367500D02*
X164905800Y-11367500D01*
X176034000Y-9986700D02*
X181630300Y-9986700D01*
X181630300Y-9986700D02*
X181715100Y-9901900D01*
%TO.N,MUX_A0*%
X158131200Y-12314500D02*
X157709000Y-12736700D01*
X166064900Y-12314500D02*
X158131200Y-12314500D01*
X189759400Y-5638300D02*
X188850200Y-4729100D01*
X208709000Y-5736700D02*
X208610600Y-5638300D01*
X181077400Y-6463700D02*
X178054400Y-9486700D01*
X208610600Y-5638300D02*
X189759400Y-5638300D01*
X186400100Y-4729100D02*
X184665500Y-6463700D01*
X176034000Y-9486700D02*
X173034500Y-9486700D01*
X184665500Y-6463700D02*
X181077400Y-6463700D01*
X178054400Y-9486700D02*
X176034000Y-9486700D01*
X188850200Y-4729100D02*
X186400100Y-4729100D01*
%TO.N,+3V3A*%
X169021500Y-14736700D02*
X157709000Y-14736700D01*
X176034000Y-11486700D02*
X181689800Y-11486700D01*
X172271500Y-11486700D02*
X169571500Y-14186700D01*
X176034000Y-11486700D02*
X172271500Y-11486700D01*
X169571500Y-14186700D02*
X169021500Y-14736700D01*
X208709000Y-3736700D02*
X206863600Y-3736700D01*
%TO.N,XTAL_IN*%
X176034000Y-7486700D02*
X174803600Y-7486700D01*
X170744300Y-7951400D02*
X170744300Y-6873600D01*
X171109500Y-6508400D02*
X173825300Y-6508400D01*
X170744300Y-6873600D02*
X171109500Y-6508400D01*
X169609000Y-9086700D02*
X170744300Y-7951400D01*
X173825300Y-6508400D02*
X174801000Y-7484100D01*
X174803600Y-7486700D02*
X174801000Y-7484100D01*
%TO.N,XTAL_OUT*%
X176034000Y-7986700D02*
X175983800Y-8036900D01*
X172459200Y-8036900D02*
X171809000Y-7386700D01*
X176034000Y-7986700D02*
X177958600Y-7986700D01*
X175983800Y-8036900D02*
X172459200Y-8036900D01*
X177958600Y-7986700D02*
X178013200Y-7932100D01*
%TO.N,BOOT0*%
X173898300Y4011600D02*
X174104500Y3805400D01*
X173709000Y4638300D02*
X167709000Y4638300D01*
X173709000Y4011600D02*
X173898300Y4011600D01*
X179959000Y-2535300D02*
X179959000Y-3561700D01*
X179736500Y-2312800D02*
X179959000Y-2535300D01*
X173709000Y4638300D02*
X173709000Y4011600D01*
%TO.N,ADC_L4*%
X180459000Y-13835300D02*
X180307800Y-13684100D01*
X180459000Y-14911700D02*
X180459000Y-13835300D01*
X157709000Y-3736700D02*
X171836000Y-3736700D01*
%TO.N,ADC_L3*%
X157709000Y-4736700D02*
X159848900Y-4736700D01*
X179959000Y-14169700D02*
X179959000Y-14911700D01*
X170713700Y-14186200D02*
X171056800Y-13843100D01*
X179632400Y-13843100D02*
X179959000Y-14169700D01*
X171056800Y-13843100D02*
X179632400Y-13843100D01*
%TO.N,ADC_L2*%
X156194200Y-10308600D02*
X156194200Y-14623800D01*
X157330700Y-15760300D02*
X172222900Y-15760300D01*
X179459000Y-15691800D02*
X179459000Y-14911700D01*
D29*
X156194200Y-7135900D02*
X157309800Y-7135900D01*
X157309800Y-7135900D02*
X157709000Y-6736700D01*
D28*
X156194200Y-14623800D02*
X157330700Y-15760300D01*
X156194200Y-8436700D02*
X156194200Y-7135900D01*
D29*
X156194200Y-8436700D02*
X156194200Y-10308600D01*
D28*
X172222900Y-15760300D02*
X172444300Y-15981700D01*
X179169100Y-15981700D02*
X179459000Y-15691800D01*
X172444300Y-15981700D02*
X179169100Y-15981700D01*
%TO.N,ADC_L1*%
X177659100Y-14611800D02*
X177959000Y-14911700D01*
X167198200Y-8736700D02*
X168819600Y-10358100D01*
X157709000Y-8736700D02*
X167198200Y-8736700D01*
X171944000Y-14611800D02*
X177659100Y-14611800D01*
%TO.N,NRST*%
X169709000Y-1361700D02*
X169709000Y-1518300D01*
X177985500Y-7125800D02*
X178096000Y-7125800D01*
X178637000Y-8152000D02*
X178302300Y-8486700D01*
X169709000Y-1518300D02*
X172228100Y-1518300D01*
X169709000Y-1518300D02*
X169709000Y-1675000D01*
X169709000Y-1675000D02*
X164774000Y-1675000D01*
X178302300Y-8486700D02*
X176034000Y-8486700D01*
X164774000Y-1675000D02*
X164460700Y-1361700D01*
X163709000Y-1361700D02*
X164460700Y-1361700D01*
X178637000Y-7666800D02*
X178637000Y-8152000D01*
X172228100Y-1518300D02*
X172353500Y-1643700D01*
X178096000Y-7125800D02*
X178637000Y-7666800D01*
%TD*%
%TA.AperFunction,Conductor*%
%TO.N,GND*%
G36*
X186372590Y-14232907D02*
G01*
X186384403Y-14242996D01*
X188375287Y-16233880D01*
X188375289Y-16233881D01*
X188375290Y-16233882D01*
X188375291Y-16233883D01*
X188393964Y-16244664D01*
X188434905Y-16290133D01*
X188441301Y-16350984D01*
X188410708Y-16403972D01*
X188354812Y-16428858D01*
X188344464Y-16429400D01*
X183825200Y-16429400D01*
X183767009Y-16410493D01*
X183755196Y-16400404D01*
X183510462Y-16155670D01*
X183482685Y-16101153D01*
X183492256Y-16040721D01*
X183535521Y-15997456D01*
X183566194Y-15987700D01*
X183569626Y-15987200D01*
X183569636Y-15987200D01*
X183642625Y-15976566D01*
X183665520Y-15965372D01*
X183726102Y-15956802D01*
X183752478Y-15965372D01*
X183775375Y-15976566D01*
X183848364Y-15987200D01*
X183848367Y-15987200D01*
X184069632Y-15987200D01*
X184069636Y-15987200D01*
X184142625Y-15976566D01*
X184165520Y-15965372D01*
X184226102Y-15956802D01*
X184252478Y-15965372D01*
X184275375Y-15976566D01*
X184348364Y-15987200D01*
X184348367Y-15987200D01*
X184569632Y-15987200D01*
X184569636Y-15987200D01*
X184642625Y-15976566D01*
X184755211Y-15921526D01*
X184843826Y-15832911D01*
X184870059Y-15779249D01*
X184912602Y-15735276D01*
X184972868Y-15724706D01*
X185027836Y-15751578D01*
X185047940Y-15779248D01*
X185074174Y-15832911D01*
X185162789Y-15921526D01*
X185275375Y-15976566D01*
X185348364Y-15987200D01*
X185348367Y-15987200D01*
X185569632Y-15987200D01*
X185569636Y-15987200D01*
X185642625Y-15976566D01*
X185755211Y-15921526D01*
X185843826Y-15832911D01*
X185898866Y-15720325D01*
X185909500Y-15647336D01*
X185909500Y-14313000D01*
X185928407Y-14254809D01*
X185977907Y-14218845D01*
X186008500Y-14214000D01*
X186314399Y-14214000D01*
X186372590Y-14232907D01*
G37*
%TD.AperFunction*%
%TA.AperFunction,Conductor*%
G36*
X185171922Y7444393D02*
G01*
X185183735Y7434304D01*
X185429504Y7188535D01*
X185457281Y7134018D01*
X185458500Y7118531D01*
X185458500Y6713471D01*
X185496634Y6621405D01*
X185567105Y6550934D01*
X185659171Y6512800D01*
X185659172Y6512800D01*
X198758829Y6512800D01*
X198850894Y6550934D01*
X198850895Y6550935D01*
X198850897Y6550936D01*
X198921364Y6621403D01*
X198959500Y6713472D01*
X198959500Y7118532D01*
X198978407Y7176723D01*
X198988496Y7188535D01*
X199106937Y7306976D01*
X199234263Y7434303D01*
X199288780Y7462081D01*
X199304267Y7463300D01*
X209699189Y7463300D01*
X209704002Y7463183D01*
X209707688Y7463003D01*
X209772698Y7459838D01*
X209782449Y7458878D01*
X209840702Y7450213D01*
X209850215Y7448317D01*
X209907406Y7433976D01*
X209916661Y7431169D01*
X209972089Y7411349D01*
X209981117Y7407608D01*
X210034424Y7382371D01*
X210042955Y7377809D01*
X210093510Y7347510D01*
X210101624Y7342086D01*
X210148924Y7306976D01*
X210156375Y7300861D01*
X210200068Y7261288D01*
X210206988Y7254368D01*
X210246561Y7210675D01*
X210252676Y7203224D01*
X210287786Y7155924D01*
X210293210Y7147810D01*
X210323509Y7097255D01*
X210328071Y7088724D01*
X210353308Y7035417D01*
X210357049Y7026389D01*
X210376869Y6970961D01*
X210379676Y6961706D01*
X210394017Y6904515D01*
X210395913Y6895002D01*
X210404578Y6836749D01*
X210405538Y6826998D01*
X210408883Y6758304D01*
X210409000Y6753489D01*
X210409000Y-137200D01*
X210390093Y-195391D01*
X210340593Y-231355D01*
X210310000Y-236200D01*
X209015627Y-236200D01*
X209015612Y-236201D01*
X208949068Y-242247D01*
X208949062Y-242249D01*
X208795936Y-289964D01*
X208795925Y-289969D01*
X208658668Y-372944D01*
X208545244Y-486368D01*
X208462269Y-623625D01*
X208462264Y-623637D01*
X208414548Y-776764D01*
X208408500Y-843314D01*
X208408500Y-2030072D01*
X208408501Y-2030087D01*
X208414547Y-2096631D01*
X208414549Y-2096637D01*
X208462264Y-2249763D01*
X208462269Y-2249774D01*
X208545244Y-2387031D01*
X208545245Y-2387032D01*
X208545247Y-2387035D01*
X208658665Y-2500453D01*
X208658667Y-2500454D01*
X208658668Y-2500455D01*
X208795925Y-2583430D01*
X208795928Y-2583431D01*
X208795931Y-2583433D01*
X208795935Y-2583434D01*
X208795937Y-2583435D01*
X208897172Y-2614981D01*
X208949067Y-2631152D01*
X209015619Y-2637200D01*
X210310001Y-2637199D01*
X210368191Y-2656106D01*
X210404155Y-2705606D01*
X210409000Y-2736199D01*
X210409000Y-12230466D01*
X210390093Y-12288657D01*
X210340593Y-12324621D01*
X210279407Y-12324621D01*
X210229907Y-12288657D01*
X210214373Y-12256088D01*
X210208083Y-12232613D01*
X210197528Y-12193221D01*
X210189407Y-12162912D01*
X210189405Y-12162909D01*
X210189405Y-12162907D01*
X210136683Y-12071591D01*
X210136681Y-12071589D01*
X210136680Y-12071587D01*
X209481313Y-11416220D01*
X209481310Y-11416218D01*
X209481308Y-11416216D01*
X209389991Y-11363494D01*
X209389993Y-11363494D01*
X209350470Y-11352904D01*
X209288127Y-11336200D01*
X209288125Y-11336200D01*
X209184008Y-11336200D01*
X209125817Y-11317293D01*
X209104352Y-11295988D01*
X209103099Y-11294290D01*
X209081150Y-11264550D01*
X209081149Y-11264549D01*
X208971883Y-11183907D01*
X208843703Y-11139055D01*
X208843694Y-11139053D01*
X208813274Y-11136200D01*
X208813266Y-11136200D01*
X206804734Y-11136200D01*
X206804725Y-11136200D01*
X206774305Y-11139053D01*
X206774296Y-11139055D01*
X206646116Y-11183907D01*
X206536855Y-11264545D01*
X206536845Y-11264555D01*
X206456207Y-11373816D01*
X206411355Y-11501996D01*
X206411353Y-11502005D01*
X206408500Y-11532425D01*
X206408500Y-11940974D01*
X206411353Y-11971394D01*
X206411355Y-11971403D01*
X206456207Y-12099583D01*
X206536845Y-12208844D01*
X206536847Y-12208846D01*
X206536850Y-12208850D01*
X206536853Y-12208852D01*
X206536855Y-12208854D01*
X206646116Y-12289492D01*
X206646117Y-12289492D01*
X206646118Y-12289493D01*
X206774301Y-12334346D01*
X206804725Y-12337199D01*
X206804727Y-12337200D01*
X206804734Y-12337200D01*
X208813273Y-12337200D01*
X208813273Y-12337199D01*
X208843699Y-12334346D01*
X208971882Y-12289493D01*
X209047128Y-12233958D01*
X209105173Y-12214618D01*
X209163503Y-12233089D01*
X209175918Y-12243611D01*
X209386704Y-12454397D01*
X209414481Y-12508914D01*
X209415700Y-12524401D01*
X209415700Y-14826599D01*
X209396793Y-14884790D01*
X209386704Y-14896603D01*
X209378504Y-14904803D01*
X209323987Y-14932580D01*
X209263555Y-14923009D01*
X209220290Y-14879744D01*
X209209500Y-14834799D01*
X209209500Y-14532427D01*
X209209499Y-14532425D01*
X209206646Y-14502005D01*
X209206646Y-14502001D01*
X209161793Y-14373818D01*
X209134030Y-14336200D01*
X209103984Y-14295488D01*
X209084642Y-14237440D01*
X209103114Y-14179110D01*
X209103984Y-14177912D01*
X209161792Y-14099583D01*
X209161791Y-14099583D01*
X209161793Y-14099582D01*
X209206646Y-13971399D01*
X209209499Y-13940973D01*
X209209500Y-13940973D01*
X209209500Y-13532427D01*
X209209499Y-13532425D01*
X209209070Y-13527848D01*
X209206646Y-13502001D01*
X209161793Y-13373818D01*
X209154172Y-13363492D01*
X209081154Y-13264555D01*
X209081152Y-13264553D01*
X209081150Y-13264550D01*
X209081146Y-13264547D01*
X209081144Y-13264545D01*
X208971883Y-13183907D01*
X208843703Y-13139055D01*
X208843694Y-13139053D01*
X208813274Y-13136200D01*
X208813266Y-13136200D01*
X206804734Y-13136200D01*
X206804725Y-13136200D01*
X206774305Y-13139053D01*
X206774296Y-13139055D01*
X206646116Y-13183907D01*
X206536850Y-13264549D01*
X206513648Y-13295988D01*
X206463880Y-13331581D01*
X206433992Y-13336200D01*
X202798206Y-13336200D01*
X202798190Y-13336199D01*
X202792127Y-13336199D01*
X202686673Y-13336199D01*
X202686670Y-13336199D01*
X202584813Y-13363492D01*
X202584809Y-13363494D01*
X202493487Y-13416219D01*
X202418919Y-13490786D01*
X202418920Y-13490787D01*
X200425803Y-15483904D01*
X200371286Y-15511681D01*
X200355799Y-15512900D01*
X194368500Y-15512900D01*
X194310309Y-15493993D01*
X194274345Y-15444493D01*
X194269500Y-15413900D01*
X194269499Y-14999242D01*
X194268395Y-14987474D01*
X194266741Y-14969821D01*
X194223381Y-14845906D01*
X194223380Y-14845904D01*
X194145427Y-14740281D01*
X194145418Y-14740272D01*
X194039795Y-14662319D01*
X193915883Y-14618960D01*
X193915874Y-14618958D01*
X193886467Y-14616200D01*
X193886457Y-14616200D01*
X193685900Y-14616200D01*
X193627709Y-14597293D01*
X193615896Y-14587204D01*
X193034620Y-14005928D01*
X193008997Y-13961545D01*
X192997979Y-13920421D01*
X192997978Y-13920419D01*
X192997977Y-13920418D01*
X192997977Y-13920416D01*
X192918920Y-13783484D01*
X192807116Y-13671680D01*
X192670184Y-13592623D01*
X192517457Y-13551700D01*
X192359343Y-13551700D01*
X192206616Y-13592623D01*
X192069684Y-13671680D01*
X191957880Y-13783484D01*
X191878823Y-13920416D01*
X191837900Y-14073143D01*
X191837900Y-14231257D01*
X191878823Y-14383984D01*
X191957880Y-14520916D01*
X192069684Y-14632720D01*
X192206616Y-14711777D01*
X192359343Y-14752700D01*
X192359345Y-14752700D01*
X192517457Y-14752700D01*
X192565680Y-14739778D01*
X192626781Y-14742979D01*
X192661308Y-14765400D01*
X193099504Y-15203596D01*
X193127281Y-15258113D01*
X193128500Y-15273599D01*
X193128500Y-15352794D01*
X193128501Y-15413899D01*
X193109594Y-15472090D01*
X193060094Y-15508054D01*
X193029501Y-15512900D01*
X188828101Y-15512900D01*
X188769910Y-15493993D01*
X188758097Y-15483904D01*
X187232797Y-13958604D01*
X187205020Y-13904087D01*
X187214591Y-13843655D01*
X187257856Y-13800390D01*
X187302801Y-13789600D01*
X189189325Y-13789600D01*
X189189327Y-13789600D01*
X189291188Y-13762307D01*
X189291190Y-13762305D01*
X189291192Y-13762305D01*
X189382508Y-13709583D01*
X189382508Y-13709582D01*
X189382513Y-13709580D01*
X190497349Y-12594743D01*
X194386500Y-12594743D01*
X194386500Y-12752857D01*
X194427423Y-12905584D01*
X194506480Y-13042516D01*
X194618284Y-13154320D01*
X194755216Y-13233377D01*
X194907943Y-13274300D01*
X194907945Y-13274300D01*
X195066055Y-13274300D01*
X195066057Y-13274300D01*
X195218784Y-13233377D01*
X195355716Y-13154320D01*
X195381229Y-13128806D01*
X195406741Y-13103296D01*
X195461258Y-13075519D01*
X195476744Y-13074300D01*
X199584500Y-13074300D01*
X199642691Y-13093207D01*
X199678655Y-13142707D01*
X199683500Y-13173300D01*
X199683500Y-13527848D01*
X199693641Y-13612291D01*
X199746634Y-13746672D01*
X199746635Y-13746674D01*
X199746636Y-13746675D01*
X199833922Y-13861778D01*
X199949025Y-13949064D01*
X199949026Y-13949064D01*
X199949027Y-13949065D01*
X200005662Y-13971399D01*
X200083410Y-14002059D01*
X200167856Y-14012200D01*
X200167858Y-14012200D01*
X200700142Y-14012200D01*
X200700144Y-14012200D01*
X200784590Y-14002059D01*
X200918975Y-13949064D01*
X201034078Y-13861778D01*
X201121364Y-13746675D01*
X201174359Y-13612290D01*
X201184500Y-13527844D01*
X201184500Y-12945556D01*
X201174359Y-12861110D01*
X201131669Y-12752857D01*
X201121365Y-12726727D01*
X201121364Y-12726726D01*
X201121364Y-12726725D01*
X201034078Y-12611622D01*
X200918975Y-12524336D01*
X200918974Y-12524335D01*
X200918972Y-12524334D01*
X200784591Y-12471341D01*
X200700148Y-12461200D01*
X200700144Y-12461200D01*
X200265901Y-12461200D01*
X200207710Y-12442293D01*
X200195898Y-12432204D01*
X200117013Y-12353320D01*
X200117008Y-12353316D01*
X200025691Y-12300594D01*
X200025693Y-12300594D01*
X199981141Y-12288657D01*
X199923827Y-12273300D01*
X199923825Y-12273300D01*
X195476744Y-12273300D01*
X195418553Y-12254393D01*
X195406741Y-12244304D01*
X195355718Y-12193282D01*
X195355716Y-12193280D01*
X195218784Y-12114223D01*
X195066057Y-12073300D01*
X194907943Y-12073300D01*
X194755216Y-12114223D01*
X194618284Y-12193280D01*
X194506480Y-12305084D01*
X194427423Y-12442016D01*
X194386500Y-12594743D01*
X190497349Y-12594743D01*
X192925896Y-10166195D01*
X192980413Y-10138419D01*
X192995900Y-10137200D01*
X206433992Y-10137200D01*
X206492183Y-10156107D01*
X206513648Y-10177412D01*
X206536850Y-10208850D01*
X206646116Y-10289492D01*
X206646117Y-10289492D01*
X206646118Y-10289493D01*
X206774301Y-10334346D01*
X206804725Y-10337199D01*
X206804727Y-10337200D01*
X206804734Y-10337200D01*
X208813273Y-10337200D01*
X208813273Y-10337199D01*
X208843699Y-10334346D01*
X208971882Y-10289493D01*
X209081150Y-10208850D01*
X209161793Y-10099582D01*
X209206646Y-9971399D01*
X209209499Y-9940973D01*
X209209500Y-9940973D01*
X209209500Y-9532427D01*
X209209499Y-9532425D01*
X209206646Y-9502005D01*
X209206646Y-9502001D01*
X209161793Y-9373818D01*
X209154172Y-9363492D01*
X209081154Y-9264555D01*
X209081152Y-9264553D01*
X209081150Y-9264550D01*
X209081146Y-9264547D01*
X209081144Y-9264545D01*
X208971883Y-9183907D01*
X208843703Y-9139055D01*
X208843694Y-9139053D01*
X208813274Y-9136200D01*
X208813266Y-9136200D01*
X206804734Y-9136200D01*
X206804725Y-9136200D01*
X206774305Y-9139053D01*
X206774296Y-9139055D01*
X206646116Y-9183907D01*
X206536850Y-9264549D01*
X206513648Y-9295988D01*
X206463880Y-9331581D01*
X206433992Y-9336200D01*
X192847806Y-9336200D01*
X192847790Y-9336199D01*
X192841727Y-9336199D01*
X192736273Y-9336199D01*
X192736270Y-9336199D01*
X192634413Y-9363492D01*
X192634409Y-9363494D01*
X192543087Y-9416219D01*
X192468519Y-9490786D01*
X192468520Y-9490787D01*
X191268504Y-10690803D01*
X191213987Y-10718580D01*
X191153555Y-10709009D01*
X191110290Y-10665744D01*
X191099500Y-10620799D01*
X191099500Y-7816993D01*
X191118407Y-7758802D01*
X191139713Y-7737337D01*
X191140576Y-7736700D01*
X191145423Y-7733123D01*
X191223381Y-7627494D01*
X191266741Y-7503579D01*
X191269500Y-7474157D01*
X191269499Y-7105499D01*
X191288406Y-7047309D01*
X191337906Y-7011345D01*
X191368499Y-7006500D01*
X191930456Y-7006500D01*
X191988647Y-7025407D01*
X192000459Y-7035496D01*
X192034102Y-7069138D01*
X192051484Y-7086520D01*
X192188416Y-7165577D01*
X192341143Y-7206500D01*
X192341145Y-7206500D01*
X192499255Y-7206500D01*
X192499257Y-7206500D01*
X192651984Y-7165577D01*
X192788916Y-7086520D01*
X192900720Y-6974716D01*
X192979777Y-6837784D01*
X193020700Y-6685057D01*
X193020700Y-6536400D01*
X193039607Y-6478209D01*
X193089107Y-6442245D01*
X193119700Y-6437400D01*
X193365399Y-6437400D01*
X193423590Y-6456307D01*
X193435403Y-6466396D01*
X195026187Y-8057180D01*
X195026189Y-8057181D01*
X195026190Y-8057182D01*
X195026191Y-8057183D01*
X195117508Y-8109905D01*
X195117506Y-8109905D01*
X195117510Y-8109906D01*
X195117512Y-8109907D01*
X195219373Y-8137200D01*
X195324827Y-8137200D01*
X206433992Y-8137200D01*
X206492183Y-8156107D01*
X206513648Y-8177412D01*
X206536850Y-8208850D01*
X206646116Y-8289492D01*
X206646117Y-8289492D01*
X206646118Y-8289493D01*
X206774301Y-8334346D01*
X206804725Y-8337199D01*
X206804727Y-8337200D01*
X206804734Y-8337200D01*
X208813273Y-8337200D01*
X208813273Y-8337199D01*
X208843699Y-8334346D01*
X208971882Y-8289493D01*
X209081150Y-8208850D01*
X209161793Y-8099582D01*
X209206646Y-7971399D01*
X209209499Y-7940973D01*
X209209500Y-7940973D01*
X209209500Y-7532427D01*
X209209499Y-7532425D01*
X209206646Y-7502000D01*
X209206644Y-7501996D01*
X209204027Y-7494516D01*
X209161793Y-7373818D01*
X209161792Y-7373816D01*
X209103984Y-7295488D01*
X209084642Y-7237440D01*
X209103114Y-7179110D01*
X209103984Y-7177912D01*
X209161792Y-7099583D01*
X209161791Y-7099583D01*
X209161793Y-7099582D01*
X209206646Y-6971399D01*
X209209499Y-6940973D01*
X209209500Y-6940973D01*
X209209500Y-6532427D01*
X209209499Y-6532425D01*
X209206646Y-6502005D01*
X209206646Y-6502001D01*
X209161793Y-6373818D01*
X209161792Y-6373816D01*
X209103984Y-6295488D01*
X209084642Y-6237440D01*
X209103114Y-6179110D01*
X209103984Y-6177912D01*
X209155654Y-6107900D01*
X209161793Y-6099582D01*
X209206646Y-5971399D01*
X209209499Y-5940973D01*
X209209500Y-5940973D01*
X209209500Y-5532427D01*
X209209499Y-5532425D01*
X209206646Y-5502005D01*
X209206646Y-5502001D01*
X209161793Y-5373818D01*
X209134767Y-5337199D01*
X209081154Y-5264555D01*
X209081152Y-5264553D01*
X209081150Y-5264550D01*
X209081146Y-5264547D01*
X209081144Y-5264545D01*
X208971883Y-5183907D01*
X208843703Y-5139055D01*
X208843694Y-5139053D01*
X208813274Y-5136200D01*
X208813266Y-5136200D01*
X206804734Y-5136200D01*
X206804725Y-5136200D01*
X206774305Y-5139053D01*
X206774296Y-5139055D01*
X206646116Y-5183907D01*
X206599306Y-5218455D01*
X206541258Y-5237797D01*
X206540518Y-5237800D01*
X200818990Y-5237800D01*
X200760799Y-5218893D01*
X200724835Y-5169393D01*
X200724835Y-5108207D01*
X200739333Y-5080013D01*
X200761793Y-5049582D01*
X200806646Y-4921399D01*
X200809499Y-4890973D01*
X200809500Y-4890973D01*
X200809500Y-4482427D01*
X200809499Y-4482425D01*
X200806646Y-4452005D01*
X200806646Y-4452001D01*
X200761793Y-4323818D01*
X200752033Y-4310594D01*
X200681154Y-4214555D01*
X200681152Y-4214553D01*
X200681150Y-4214550D01*
X200681146Y-4214547D01*
X200681144Y-4214545D01*
X200571883Y-4133907D01*
X200443703Y-4089055D01*
X200443694Y-4089053D01*
X200413274Y-4086200D01*
X200413266Y-4086200D01*
X199630543Y-4086200D01*
X199572352Y-4067293D01*
X199536388Y-4017793D01*
X199536388Y-3956607D01*
X199560537Y-3917198D01*
X199568520Y-3909216D01*
X199647577Y-3772284D01*
X199678295Y-3657643D01*
X206263100Y-3657643D01*
X206263100Y-3815757D01*
X206304023Y-3968484D01*
X206383080Y-4105416D01*
X206494884Y-4217220D01*
X206631816Y-4296277D01*
X206784543Y-4337200D01*
X206784545Y-4337200D01*
X208813273Y-4337200D01*
X208813273Y-4337199D01*
X208843699Y-4334346D01*
X208971882Y-4289493D01*
X209081150Y-4208850D01*
X209161793Y-4099582D01*
X209206646Y-3971399D01*
X209209499Y-3940973D01*
X209209500Y-3940973D01*
X209209500Y-3532427D01*
X209209499Y-3532425D01*
X209208406Y-3520771D01*
X209206646Y-3502001D01*
X209161793Y-3373818D01*
X209157487Y-3367984D01*
X209081154Y-3264555D01*
X209081152Y-3264553D01*
X209081150Y-3264550D01*
X209081146Y-3264547D01*
X209081144Y-3264545D01*
X208971883Y-3183907D01*
X208843703Y-3139055D01*
X208843694Y-3139053D01*
X208813274Y-3136200D01*
X208813266Y-3136200D01*
X206942657Y-3136200D01*
X206784543Y-3136200D01*
X206631816Y-3177123D01*
X206494884Y-3256180D01*
X206383080Y-3367984D01*
X206304023Y-3504916D01*
X206263100Y-3657643D01*
X199678295Y-3657643D01*
X199688500Y-3619557D01*
X199688500Y-3549624D01*
X199688625Y-3547136D01*
X199698679Y-3520771D01*
X199707407Y-3493910D01*
X199710146Y-3490702D01*
X199710427Y-3489967D01*
X199711212Y-3489454D01*
X199717496Y-3482097D01*
X199783397Y-3416196D01*
X199837914Y-3388419D01*
X199853401Y-3387200D01*
X200413273Y-3387200D01*
X200413273Y-3387199D01*
X200443699Y-3384346D01*
X200571882Y-3339493D01*
X200681150Y-3258850D01*
X200761793Y-3149582D01*
X200806646Y-3021399D01*
X200809499Y-2990973D01*
X200809500Y-2990973D01*
X200809500Y-2582427D01*
X200809499Y-2582425D01*
X200806646Y-2552001D01*
X200761793Y-2423818D01*
X200761792Y-2423816D01*
X200759651Y-2417697D01*
X200758279Y-2356528D01*
X200793123Y-2306233D01*
X200850875Y-2286025D01*
X200853096Y-2286000D01*
X200951755Y-2286000D01*
X200951757Y-2286000D01*
X201104484Y-2245077D01*
X201241416Y-2166020D01*
X201353220Y-2054216D01*
X201432277Y-1917284D01*
X201473200Y-1764557D01*
X201473200Y-1692401D01*
X201492107Y-1634210D01*
X201502196Y-1622397D01*
X201583397Y-1541196D01*
X201637914Y-1513419D01*
X201653401Y-1512200D01*
X201700142Y-1512200D01*
X201700144Y-1512200D01*
X201784590Y-1502059D01*
X201918975Y-1449064D01*
X202034078Y-1361778D01*
X202121364Y-1246675D01*
X202174359Y-1112290D01*
X202184500Y-1027844D01*
X202184500Y-445556D01*
X202174359Y-361110D01*
X202125101Y-236201D01*
X202121365Y-226727D01*
X202121364Y-226726D01*
X202121364Y-226725D01*
X202034078Y-111622D01*
X201918975Y-24336D01*
X201918973Y-24335D01*
X201912411Y-21747D01*
X201897181Y-15742D01*
X201849985Y23193D01*
X201834500Y76355D01*
X201834500Y1958866D01*
X201853407Y2017057D01*
X201854616Y2018685D01*
X201869110Y2037799D01*
X201869111Y2037800D01*
X201923997Y2176979D01*
X201934500Y2264440D01*
X201934500Y3262160D01*
X201923997Y3349621D01*
X201869111Y3488800D01*
X201778711Y3608011D01*
X201659500Y3698411D01*
X201659498Y3698411D01*
X201659498Y3698412D01*
X201623501Y3712607D01*
X201520321Y3753297D01*
X201432860Y3763800D01*
X200860140Y3763800D01*
X200772679Y3753297D01*
X200736680Y3739100D01*
X200633501Y3698412D01*
X200633501Y3698411D01*
X200633500Y3698411D01*
X200514289Y3608011D01*
X200423889Y3488800D01*
X200423888Y3488798D01*
X200423887Y3488798D01*
X200369003Y3349622D01*
X200358500Y3262164D01*
X200358500Y2264435D01*
X200369003Y2176979D01*
X200423887Y2037801D01*
X200514286Y1918592D01*
X200514292Y1918586D01*
X200633501Y1828188D01*
X200633501Y1828187D01*
X200772677Y1773303D01*
X200860135Y1762800D01*
X200860140Y1762800D01*
X200934500Y1762800D01*
X200992691Y1743893D01*
X201028655Y1694393D01*
X201033500Y1663800D01*
X201033500Y76355D01*
X201014593Y18164D01*
X200970818Y-15742D01*
X200961066Y-19587D01*
X200949026Y-24335D01*
X200833922Y-111622D01*
X200746634Y-226727D01*
X200693641Y-361108D01*
X200683500Y-445551D01*
X200683500Y-1027842D01*
X200683501Y-1027864D01*
X200683963Y-1031713D01*
X200672121Y-1091741D01*
X200635168Y-1129240D01*
X200503984Y-1204979D01*
X200452959Y-1256004D01*
X200398442Y-1283781D01*
X200382956Y-1285000D01*
X198725427Y-1285000D01*
X198619973Y-1285000D01*
X198557629Y-1301704D01*
X198518107Y-1312294D01*
X198426791Y-1365016D01*
X197634603Y-2157204D01*
X197580086Y-2184981D01*
X197564599Y-2186200D01*
X197004725Y-2186200D01*
X196974305Y-2189053D01*
X196974296Y-2189055D01*
X196846116Y-2233907D01*
X196736850Y-2314549D01*
X196736846Y-2314555D01*
X196716506Y-2342116D01*
X196713648Y-2345988D01*
X196663880Y-2381581D01*
X196633992Y-2386200D01*
X196041227Y-2386200D01*
X195935773Y-2386200D01*
X195873429Y-2402904D01*
X195833907Y-2413494D01*
X195742591Y-2466216D01*
X194901603Y-3307204D01*
X194847086Y-3334981D01*
X194831599Y-3336200D01*
X194820171Y-3336200D01*
X194761980Y-3317293D01*
X194726016Y-3267793D01*
X194726016Y-3206607D01*
X194740516Y-3178412D01*
X194761792Y-3149583D01*
X194761791Y-3149583D01*
X194761793Y-3149582D01*
X194806646Y-3021399D01*
X194809499Y-2990973D01*
X194809500Y-2990973D01*
X194809500Y-2582427D01*
X194809499Y-2582425D01*
X194806646Y-2552001D01*
X194761793Y-2423818D01*
X194757346Y-2417793D01*
X194681154Y-2314555D01*
X194681152Y-2314553D01*
X194681150Y-2314550D01*
X194681146Y-2314547D01*
X194681144Y-2314545D01*
X194571883Y-2233907D01*
X194443703Y-2189055D01*
X194443694Y-2189053D01*
X194413274Y-2186200D01*
X194413266Y-2186200D01*
X193279734Y-2186200D01*
X193279725Y-2186200D01*
X193249305Y-2189053D01*
X193249296Y-2189055D01*
X193121116Y-2233907D01*
X193011850Y-2314549D01*
X193011846Y-2314555D01*
X192991506Y-2342116D01*
X192988648Y-2345988D01*
X192938880Y-2381581D01*
X192908992Y-2386200D01*
X192509008Y-2386200D01*
X192450817Y-2367293D01*
X192429352Y-2345988D01*
X192406150Y-2314550D01*
X192406149Y-2314549D01*
X192296883Y-2233907D01*
X192168703Y-2189055D01*
X192168694Y-2189053D01*
X192138274Y-2186200D01*
X192138266Y-2186200D01*
X191891783Y-2186200D01*
X191833592Y-2167293D01*
X191797628Y-2117793D01*
X191797628Y-2056607D01*
X191806046Y-2037700D01*
X191830420Y-1995483D01*
X191832207Y-1992388D01*
X191859500Y-1890527D01*
X191859500Y-1785073D01*
X191859500Y-1474800D01*
X191878407Y-1416609D01*
X191927907Y-1380645D01*
X191958500Y-1375800D01*
X192238326Y-1375800D01*
X192238327Y-1375800D01*
X192304422Y-1358090D01*
X192365522Y-1361291D01*
X192413072Y-1399796D01*
X192415769Y-1404197D01*
X192478480Y-1512816D01*
X192590284Y-1624620D01*
X192727216Y-1703677D01*
X192879943Y-1744600D01*
X192879945Y-1744600D01*
X193038055Y-1744600D01*
X193038057Y-1744600D01*
X193190784Y-1703677D01*
X193327716Y-1624620D01*
X193439520Y-1512816D01*
X193518577Y-1375884D01*
X193559500Y-1223157D01*
X193559500Y-1065043D01*
X193559499Y-1065042D01*
X193558653Y-1058611D01*
X193561511Y-1058234D01*
X193564087Y-1009108D01*
X193602593Y-961558D01*
X193635391Y-949202D01*
X193635278Y-948836D01*
X193641329Y-946966D01*
X193642243Y-946621D01*
X193642625Y-946566D01*
X193665520Y-935372D01*
X193726102Y-926802D01*
X193752478Y-935372D01*
X193775375Y-946566D01*
X193848364Y-957200D01*
X193848367Y-957200D01*
X194069632Y-957200D01*
X194069636Y-957200D01*
X194142625Y-946566D01*
X194213708Y-911815D01*
X194274287Y-903244D01*
X194289885Y-907312D01*
X194296118Y-909493D01*
X194424301Y-954346D01*
X194454725Y-957199D01*
X194454727Y-957200D01*
X194454734Y-957200D01*
X194863273Y-957200D01*
X194863273Y-957199D01*
X194893699Y-954346D01*
X195021882Y-909493D01*
X195131150Y-828850D01*
X195211793Y-719582D01*
X195256646Y-591399D01*
X195259499Y-560973D01*
X195259500Y-560973D01*
X195259500Y697573D01*
X195259499Y697574D01*
X195256646Y727994D01*
X195256646Y727999D01*
X195217746Y839166D01*
X195216373Y900334D01*
X195251217Y950628D01*
X195285567Y967488D01*
X195321134Y977018D01*
X195321138Y977020D01*
X195452360Y1052781D01*
X195452362Y1052783D01*
X195452365Y1052785D01*
X195559515Y1159935D01*
X195559516Y1159937D01*
X195559518Y1159939D01*
X195635279Y1291160D01*
X195635279Y1291162D01*
X195635281Y1291165D01*
X195674500Y1437534D01*
X195674500Y1589066D01*
X195635281Y1735435D01*
X195581730Y1828187D01*
X195559518Y1866660D01*
X195559517Y1866660D01*
X195559515Y1866665D01*
X195452365Y1973815D01*
X195321135Y2049581D01*
X195220694Y2076493D01*
X195169382Y2109816D01*
X195147455Y2166937D01*
X195163290Y2226037D01*
X195176315Y2242122D01*
X195267995Y2333803D01*
X195322511Y2361581D01*
X195337999Y2362800D01*
X198384500Y2362800D01*
X198442691Y2343893D01*
X198478655Y2294393D01*
X198482935Y2267363D01*
X198483120Y2267374D01*
X198483147Y2267378D01*
X198483147Y2267376D01*
X198483324Y2267387D01*
X198483500Y2264435D01*
X198494003Y2176979D01*
X198548887Y2037801D01*
X198639286Y1918592D01*
X198639292Y1918586D01*
X198758501Y1828188D01*
X198758501Y1828187D01*
X198897677Y1773303D01*
X198985135Y1762800D01*
X198985140Y1762800D01*
X199557864Y1762800D01*
X199645322Y1773303D01*
X199784498Y1828187D01*
X199784498Y1828188D01*
X199784500Y1828189D01*
X199903711Y1918589D01*
X199994111Y2037800D01*
X199994111Y2037801D01*
X199994112Y2037801D01*
X200048997Y2176979D01*
X200051450Y2197407D01*
X200059500Y2264440D01*
X200059500Y3262160D01*
X200048997Y3349621D01*
X199994111Y3488800D01*
X199903711Y3608011D01*
X199784500Y3698411D01*
X199784498Y3698411D01*
X199784498Y3698412D01*
X199748501Y3712607D01*
X199645321Y3753297D01*
X199557860Y3763800D01*
X198985140Y3763800D01*
X198897679Y3753297D01*
X198861680Y3739100D01*
X198758501Y3698412D01*
X198758501Y3698411D01*
X198758500Y3698411D01*
X198639289Y3608011D01*
X198548889Y3488800D01*
X198548888Y3488798D01*
X198548887Y3488798D01*
X198494003Y3349622D01*
X198483500Y3262164D01*
X198483324Y3259213D01*
X198483147Y3259223D01*
X198483147Y3259222D01*
X198483120Y3259225D01*
X198482353Y3259271D01*
X198464593Y3204609D01*
X198415093Y3168645D01*
X198384500Y3163800D01*
X195189906Y3163800D01*
X195189890Y3163801D01*
X195183827Y3163801D01*
X195078373Y3163801D01*
X194987239Y3139381D01*
X194976513Y3136507D01*
X194976509Y3136505D01*
X194915629Y3101355D01*
X194885187Y3083780D01*
X194810620Y3009213D01*
X194810618Y3009210D01*
X194055103Y2253696D01*
X194000586Y2225919D01*
X193985099Y2224700D01*
X190955673Y2224700D01*
X190853813Y2197407D01*
X190818431Y2176979D01*
X190818429Y2176978D01*
X190818428Y2176978D01*
X190787153Y2158921D01*
X190762487Y2144680D01*
X190063501Y1445694D01*
X190008987Y1417919D01*
X189948555Y1427490D01*
X189905290Y1470755D01*
X189894500Y1515700D01*
X189894500Y1589064D01*
X189894500Y1589066D01*
X189855281Y1735435D01*
X189801730Y1828187D01*
X189779518Y1866660D01*
X189779517Y1866660D01*
X189779515Y1866665D01*
X189672365Y1973815D01*
X189541138Y2049579D01*
X189541137Y2049579D01*
X189541135Y2049581D01*
X189394766Y2088800D01*
X189243234Y2088800D01*
X189096865Y2049581D01*
X189096862Y2049579D01*
X189096860Y2049579D01*
X188965639Y1973818D01*
X188965637Y1973816D01*
X188965635Y1973815D01*
X188858485Y1866665D01*
X188858483Y1866662D01*
X188858481Y1866660D01*
X188782720Y1735439D01*
X188782719Y1735435D01*
X188743500Y1589066D01*
X188743500Y1437534D01*
X188748756Y1417919D01*
X188782720Y1291160D01*
X188858481Y1159939D01*
X188965639Y1052781D01*
X189096861Y977020D01*
X189096865Y977018D01*
X189132432Y967488D01*
X189183746Y934164D01*
X189205672Y877042D01*
X189200252Y839164D01*
X189161355Y728003D01*
X189161353Y727994D01*
X189158500Y697574D01*
X189158500Y-560974D01*
X189161353Y-591394D01*
X189161355Y-591403D01*
X189206207Y-719583D01*
X189286845Y-828844D01*
X189286847Y-828846D01*
X189286850Y-828850D01*
X189286853Y-828852D01*
X189286855Y-828854D01*
X189396116Y-909492D01*
X189396117Y-909492D01*
X189396118Y-909493D01*
X189524301Y-954346D01*
X189554725Y-957199D01*
X189554727Y-957200D01*
X189554734Y-957200D01*
X189963273Y-957200D01*
X189963273Y-957199D01*
X189993699Y-954346D01*
X190006513Y-949861D01*
X190067681Y-948488D01*
X190117976Y-983331D01*
X190124947Y-993805D01*
X190138518Y-1017311D01*
X190138519Y-1017312D01*
X190138520Y-1017313D01*
X190170600Y-1049393D01*
X190177103Y-1055895D01*
X190204881Y-1110411D01*
X190206100Y-1125899D01*
X190206100Y-1198057D01*
X190247023Y-1350784D01*
X190326080Y-1487716D01*
X190347752Y-1509388D01*
X190375528Y-1563903D01*
X190365957Y-1624335D01*
X190327248Y-1665126D01*
X190288185Y-1687679D01*
X190288184Y-1687680D01*
X190176380Y-1799484D01*
X190097323Y-1936416D01*
X190056400Y-2089143D01*
X190056400Y-2247257D01*
X190097323Y-2399984D01*
X190176380Y-2536916D01*
X190288184Y-2648720D01*
X190425116Y-2727777D01*
X190535124Y-2757253D01*
X190586437Y-2790576D01*
X190608364Y-2847697D01*
X190608500Y-2852879D01*
X190608500Y-2990974D01*
X190611353Y-3021394D01*
X190611355Y-3021403D01*
X190656207Y-3149583D01*
X190736845Y-3258844D01*
X190736847Y-3258846D01*
X190736850Y-3258850D01*
X190736853Y-3258852D01*
X190736855Y-3258854D01*
X190846116Y-3339492D01*
X190846117Y-3339492D01*
X190846118Y-3339493D01*
X190974301Y-3384346D01*
X191004725Y-3387199D01*
X191004727Y-3387200D01*
X191004734Y-3387200D01*
X192138273Y-3387200D01*
X192138273Y-3387199D01*
X192168699Y-3384346D01*
X192296882Y-3339493D01*
X192406150Y-3258850D01*
X192429352Y-3227411D01*
X192479120Y-3191819D01*
X192509008Y-3187200D01*
X192872829Y-3187200D01*
X192931020Y-3206107D01*
X192966984Y-3255607D01*
X192966984Y-3316793D01*
X192952484Y-3344988D01*
X192931207Y-3373816D01*
X192886355Y-3501996D01*
X192886353Y-3502005D01*
X192883500Y-3532425D01*
X192883500Y-3858300D01*
X192864593Y-3916491D01*
X192815093Y-3952455D01*
X192784500Y-3957300D01*
X192629943Y-3957300D01*
X192477216Y-3998223D01*
X192340284Y-4077280D01*
X192340282Y-4077281D01*
X192340280Y-4077283D01*
X192331065Y-4086497D01*
X192276547Y-4114270D01*
X192228371Y-4109933D01*
X192192431Y-4097358D01*
X192168699Y-4089054D01*
X192168697Y-4089053D01*
X192168698Y-4089053D01*
X192138274Y-4086200D01*
X192138266Y-4086200D01*
X191004734Y-4086200D01*
X191004725Y-4086200D01*
X190974305Y-4089053D01*
X190974296Y-4089055D01*
X190846116Y-4133907D01*
X190736855Y-4214545D01*
X190736845Y-4214555D01*
X190656207Y-4323816D01*
X190613970Y-4444523D01*
X190576905Y-4493203D01*
X190518304Y-4510800D01*
X190460553Y-4490592D01*
X190450523Y-4481829D01*
X190022413Y-4053720D01*
X190022408Y-4053716D01*
X189931091Y-4000994D01*
X189931093Y-4000994D01*
X189891570Y-3990404D01*
X189829227Y-3973700D01*
X189829225Y-3973700D01*
X187120311Y-3973700D01*
X187062120Y-3954793D01*
X187026156Y-3905293D01*
X187026156Y-3844107D01*
X187061523Y-3795045D01*
X187145418Y-3733127D01*
X187145419Y-3733125D01*
X187145423Y-3733123D01*
X187157850Y-3716286D01*
X187223380Y-3627495D01*
X187223379Y-3627495D01*
X187223381Y-3627494D01*
X187266741Y-3503579D01*
X187269500Y-3474157D01*
X187269499Y-3273599D01*
X187288406Y-3215410D01*
X187298489Y-3203602D01*
X187939034Y-2563057D01*
X187993549Y-2535282D01*
X188034656Y-2537435D01*
X188170743Y-2573900D01*
X188170745Y-2573900D01*
X188328855Y-2573900D01*
X188328857Y-2573900D01*
X188481584Y-2532977D01*
X188618516Y-2453920D01*
X188730320Y-2342116D01*
X188809377Y-2205184D01*
X188850300Y-2052457D01*
X188850300Y-1894343D01*
X188809377Y-1741616D01*
X188730320Y-1604684D01*
X188618516Y-1492880D01*
X188481584Y-1413823D01*
X188328857Y-1372900D01*
X188170743Y-1372900D01*
X188018016Y-1413823D01*
X187890029Y-1487716D01*
X187881081Y-1492882D01*
X187769279Y-1604683D01*
X187767210Y-1608267D01*
X187730982Y-1644493D01*
X187716388Y-1652919D01*
X187716385Y-1652921D01*
X186782100Y-2587204D01*
X186727584Y-2614981D01*
X186712097Y-2616200D01*
X186511542Y-2616200D01*
X186482124Y-2618958D01*
X186482119Y-2618959D01*
X186358204Y-2662319D01*
X186252581Y-2740272D01*
X186252572Y-2740281D01*
X186174619Y-2845904D01*
X186131260Y-2969816D01*
X186131258Y-2969825D01*
X186128500Y-2999232D01*
X186128500Y-3474157D01*
X186131258Y-3503575D01*
X186131259Y-3503580D01*
X186174619Y-3627495D01*
X186252572Y-3733118D01*
X186252580Y-3733126D01*
X186336476Y-3795044D01*
X186372069Y-3844811D01*
X186371611Y-3905995D01*
X186335278Y-3955225D01*
X186277688Y-3973699D01*
X186194074Y-3973699D01*
X186152257Y-3984904D01*
X186102550Y-3998223D01*
X186102549Y-3998222D01*
X186092215Y-4000991D01*
X186092212Y-4000993D01*
X186057999Y-4020746D01*
X185998151Y-4033467D01*
X185942255Y-4008580D01*
X185911663Y-3955591D01*
X185909500Y-3935009D01*
X185909500Y-2826067D01*
X185909500Y-2826064D01*
X185898866Y-2753075D01*
X185843826Y-2640489D01*
X185755211Y-2551874D01*
X185642625Y-2496834D01*
X185642626Y-2496834D01*
X185615554Y-2492890D01*
X185569636Y-2486200D01*
X185348364Y-2486200D01*
X185302446Y-2492890D01*
X185275374Y-2496834D01*
X185252479Y-2508027D01*
X185191896Y-2516596D01*
X185165521Y-2508027D01*
X185142625Y-2496834D01*
X185069636Y-2486200D01*
X184848364Y-2486200D01*
X184802446Y-2492890D01*
X184775374Y-2496834D01*
X184752479Y-2508027D01*
X184691896Y-2516596D01*
X184665521Y-2508027D01*
X184642625Y-2496834D01*
X184569636Y-2486200D01*
X184348364Y-2486200D01*
X184302446Y-2492890D01*
X184275374Y-2496834D01*
X184252479Y-2508027D01*
X184191896Y-2516596D01*
X184165521Y-2508027D01*
X184142625Y-2496834D01*
X184069636Y-2486200D01*
X183848364Y-2486200D01*
X183802446Y-2492890D01*
X183775374Y-2496834D01*
X183752479Y-2508027D01*
X183691896Y-2516596D01*
X183665521Y-2508027D01*
X183642625Y-2496834D01*
X183569636Y-2486200D01*
X183348364Y-2486200D01*
X183302446Y-2492890D01*
X183275374Y-2496834D01*
X183252479Y-2508027D01*
X183191896Y-2516596D01*
X183165521Y-2508027D01*
X183142625Y-2496834D01*
X183069636Y-2486200D01*
X182848364Y-2486200D01*
X182802446Y-2492890D01*
X182775374Y-2496834D01*
X182752479Y-2508027D01*
X182691896Y-2516596D01*
X182665521Y-2508027D01*
X182642625Y-2496834D01*
X182569636Y-2486200D01*
X182348364Y-2486200D01*
X182302446Y-2492890D01*
X182275374Y-2496834D01*
X182252479Y-2508027D01*
X182191896Y-2516596D01*
X182165521Y-2508027D01*
X182142625Y-2496834D01*
X182069636Y-2486200D01*
X181848364Y-2486200D01*
X181802446Y-2492890D01*
X181775374Y-2496834D01*
X181752479Y-2508027D01*
X181691896Y-2516596D01*
X181665521Y-2508027D01*
X181642625Y-2496834D01*
X181569636Y-2486200D01*
X181348364Y-2486200D01*
X181302446Y-2492890D01*
X181275374Y-2496834D01*
X181252479Y-2508027D01*
X181191896Y-2516596D01*
X181165521Y-2508027D01*
X181142625Y-2496834D01*
X181069636Y-2486200D01*
X180848364Y-2486200D01*
X180802446Y-2492890D01*
X180775374Y-2496834D01*
X180752479Y-2508027D01*
X180691896Y-2516596D01*
X180665521Y-2508027D01*
X180642625Y-2496834D01*
X180569636Y-2486200D01*
X180569633Y-2486200D01*
X180436437Y-2486200D01*
X180378246Y-2467293D01*
X180342282Y-2417793D01*
X180340806Y-2412807D01*
X180340369Y-2411175D01*
X180337000Y-2385568D01*
X180337000Y-2233744D01*
X180337000Y-2233743D01*
X180296077Y-2081016D01*
X180217020Y-1944084D01*
X180105216Y-1832280D01*
X179968284Y-1753223D01*
X179815557Y-1712300D01*
X179657443Y-1712300D01*
X179504716Y-1753223D01*
X179367784Y-1832280D01*
X179255980Y-1944084D01*
X179176923Y-2081016D01*
X179140864Y-2215593D01*
X179136000Y-2233744D01*
X179136000Y-2387200D01*
X179117093Y-2445391D01*
X179067593Y-2481355D01*
X179037000Y-2486200D01*
X178848364Y-2486200D01*
X178804570Y-2492580D01*
X178775373Y-2496834D01*
X178662790Y-2551873D01*
X178574173Y-2640490D01*
X178547941Y-2694150D01*
X178505397Y-2738124D01*
X178445131Y-2748693D01*
X178390163Y-2721820D01*
X178370059Y-2694150D01*
X178354498Y-2662319D01*
X178343826Y-2640489D01*
X178255211Y-2551874D01*
X178142625Y-2496834D01*
X178142626Y-2496834D01*
X178115554Y-2492890D01*
X178069636Y-2486200D01*
X177848364Y-2486200D01*
X177804570Y-2492580D01*
X177775373Y-2496834D01*
X177662790Y-2551873D01*
X177574173Y-2640490D01*
X177519134Y-2753073D01*
X177508500Y-2826067D01*
X177508500Y-4184300D01*
X177489593Y-4242491D01*
X177440093Y-4278455D01*
X177409500Y-4283300D01*
X176889627Y-4283300D01*
X176784173Y-4283300D01*
X176721829Y-4300004D01*
X176682307Y-4310594D01*
X176590991Y-4363316D01*
X175947103Y-5007204D01*
X175892586Y-5034981D01*
X175877099Y-5036200D01*
X175298364Y-5036200D01*
X175254570Y-5042580D01*
X175225373Y-5046834D01*
X175112790Y-5101873D01*
X175024173Y-5190490D01*
X174969134Y-5303073D01*
X174969134Y-5303075D01*
X174958500Y-5376064D01*
X174958500Y-5597336D01*
X174969134Y-5670325D01*
X174980326Y-5693220D01*
X174980327Y-5693221D01*
X174988896Y-5753804D01*
X174980327Y-5780178D01*
X174969134Y-5803075D01*
X174958500Y-5876064D01*
X174958500Y-6097336D01*
X174969134Y-6170325D01*
X174980326Y-6193220D01*
X174980327Y-6193221D01*
X174988896Y-6253804D01*
X174980327Y-6280178D01*
X174969134Y-6303075D01*
X174958500Y-6376064D01*
X174958500Y-6597336D01*
X174969134Y-6670325D01*
X174980326Y-6693220D01*
X174980327Y-6693221D01*
X174988896Y-6753804D01*
X174980327Y-6780178D01*
X174977097Y-6786786D01*
X174969134Y-6803075D01*
X174966865Y-6810418D01*
X174964415Y-6809661D01*
X174942652Y-6853725D01*
X174888486Y-6882180D01*
X174871781Y-6883600D01*
X174807901Y-6883600D01*
X174749710Y-6864693D01*
X174737897Y-6854604D01*
X174408593Y-6525300D01*
X174071213Y-6187920D01*
X174071210Y-6187918D01*
X174071209Y-6187917D01*
X174071208Y-6187916D01*
X173979891Y-6135194D01*
X173979893Y-6135194D01*
X173940370Y-6124604D01*
X173878027Y-6107900D01*
X171162227Y-6107900D01*
X171056773Y-6107900D01*
X170994429Y-6124604D01*
X170954907Y-6135194D01*
X170863591Y-6187916D01*
X170423816Y-6627691D01*
X170371095Y-6719006D01*
X170371093Y-6719010D01*
X170371093Y-6719012D01*
X170359389Y-6762693D01*
X170348569Y-6803075D01*
X170343800Y-6820872D01*
X170343800Y-7744500D01*
X170324893Y-7802691D01*
X170314804Y-7814503D01*
X169972105Y-8157203D01*
X169917588Y-8184981D01*
X169902101Y-8186200D01*
X169115893Y-8186200D01*
X169027434Y-8196823D01*
X168886660Y-8252337D01*
X168886656Y-8252340D01*
X168766081Y-8343775D01*
X168766075Y-8343781D01*
X168674640Y-8464356D01*
X168674637Y-8464360D01*
X168619123Y-8605134D01*
X168608500Y-8693593D01*
X168608500Y-9341599D01*
X168589593Y-9399790D01*
X168540093Y-9435754D01*
X168478907Y-9435754D01*
X168439496Y-9411603D01*
X167955016Y-8927123D01*
X167444113Y-8416220D01*
X167444110Y-8416218D01*
X167444109Y-8416217D01*
X167444108Y-8416216D01*
X167352791Y-8363494D01*
X167352793Y-8363494D01*
X167313270Y-8352904D01*
X167250927Y-8336200D01*
X167250925Y-8336200D01*
X159984008Y-8336200D01*
X159925817Y-8317293D01*
X159904352Y-8295988D01*
X159881150Y-8264550D01*
X159881149Y-8264549D01*
X159771883Y-8183907D01*
X159643703Y-8139055D01*
X159643694Y-8139053D01*
X159613274Y-8136200D01*
X159613266Y-8136200D01*
X157604734Y-8136200D01*
X157604725Y-8136200D01*
X157574305Y-8139053D01*
X157574296Y-8139055D01*
X157446116Y-8183907D01*
X157336855Y-8264545D01*
X157336845Y-8264555D01*
X157256207Y-8373816D01*
X157211355Y-8501996D01*
X157211353Y-8502005D01*
X157208500Y-8532425D01*
X157208500Y-8940974D01*
X157211353Y-8971394D01*
X157211355Y-8971403D01*
X157256207Y-9099583D01*
X157336845Y-9208844D01*
X157336847Y-9208846D01*
X157336850Y-9208850D01*
X157336853Y-9208852D01*
X157336855Y-9208854D01*
X157446116Y-9289492D01*
X157446117Y-9289492D01*
X157446118Y-9289493D01*
X157574301Y-9334346D01*
X157604725Y-9337199D01*
X157604727Y-9337200D01*
X157604734Y-9337200D01*
X159613273Y-9337200D01*
X159613273Y-9337199D01*
X159643699Y-9334346D01*
X159771882Y-9289493D01*
X159881150Y-9208850D01*
X159904352Y-9177411D01*
X159954120Y-9141819D01*
X159984008Y-9137200D01*
X166991299Y-9137200D01*
X167049490Y-9156107D01*
X167061303Y-9166196D01*
X168190104Y-10294997D01*
X168217881Y-10349514D01*
X168219100Y-10365001D01*
X168219100Y-10437157D01*
X168260023Y-10589884D01*
X168339080Y-10726816D01*
X168450884Y-10838620D01*
X168587816Y-10917677D01*
X168740543Y-10958600D01*
X168740545Y-10958600D01*
X168898655Y-10958600D01*
X168898657Y-10958600D01*
X169051384Y-10917677D01*
X169188316Y-10838620D01*
X169300120Y-10726816D01*
X169379177Y-10589884D01*
X169420100Y-10437157D01*
X169420100Y-10279043D01*
X169379177Y-10126316D01*
X169379172Y-10126307D01*
X169378253Y-10124087D01*
X169378117Y-10122363D01*
X169377497Y-10120048D01*
X169377926Y-10119933D01*
X169373452Y-10063090D01*
X169405421Y-10010920D01*
X169461949Y-9987505D01*
X169469717Y-9987200D01*
X170102100Y-9987200D01*
X170102102Y-9987200D01*
X170190564Y-9976577D01*
X170331342Y-9921061D01*
X170451922Y-9829622D01*
X170543361Y-9709042D01*
X170598877Y-9568264D01*
X170609500Y-9479802D01*
X170609500Y-8693598D01*
X170628407Y-8635408D01*
X170638496Y-8623596D01*
X170982059Y-8280032D01*
X170982064Y-8280028D01*
X170990211Y-8271880D01*
X170990213Y-8271880D01*
X171008020Y-8254072D01*
X171062532Y-8226294D01*
X171114341Y-8231977D01*
X171227436Y-8276577D01*
X171315898Y-8287200D01*
X172102099Y-8287200D01*
X172160290Y-8306107D01*
X172172102Y-8316196D01*
X172213287Y-8357380D01*
X172304609Y-8410105D01*
X172304613Y-8410107D01*
X172406470Y-8437400D01*
X172406472Y-8437401D01*
X172406473Y-8437401D01*
X172517990Y-8437401D01*
X172518006Y-8437400D01*
X174859500Y-8437400D01*
X174917691Y-8456307D01*
X174953655Y-8505807D01*
X174958500Y-8536400D01*
X174958500Y-8597336D01*
X174969134Y-8670325D01*
X174980326Y-8693220D01*
X174980327Y-8693221D01*
X174988896Y-8753804D01*
X174980327Y-8780178D01*
X174978588Y-8783735D01*
X174969134Y-8803074D01*
X174958500Y-8876067D01*
X174958500Y-8987200D01*
X174939593Y-9045391D01*
X174890093Y-9081355D01*
X174859500Y-9086200D01*
X173524244Y-9086200D01*
X173466053Y-9067293D01*
X173454241Y-9057204D01*
X173403218Y-9006182D01*
X173403216Y-9006180D01*
X173266284Y-8927123D01*
X173113557Y-8886200D01*
X172955443Y-8886200D01*
X172802716Y-8927123D01*
X172665784Y-9006180D01*
X172553980Y-9117984D01*
X172474923Y-9254916D01*
X172434000Y-9407643D01*
X172434000Y-9565757D01*
X172474923Y-9718484D01*
X172553980Y-9855416D01*
X172665784Y-9967220D01*
X172802716Y-10046277D01*
X172955443Y-10087200D01*
X172955445Y-10087200D01*
X173113555Y-10087200D01*
X173113557Y-10087200D01*
X173266284Y-10046277D01*
X173366137Y-9988627D01*
X173425982Y-9975906D01*
X173481877Y-10000792D01*
X173512470Y-10053780D01*
X173506075Y-10114630D01*
X173501371Y-10123863D01*
X173460523Y-10194614D01*
X173435101Y-10289492D01*
X173419600Y-10347343D01*
X173419600Y-10505457D01*
X173460523Y-10658184D01*
X173539580Y-10795116D01*
X173651384Y-10906920D01*
X173651386Y-10906921D01*
X173651387Y-10906922D01*
X173653648Y-10908657D01*
X173654804Y-10910339D01*
X173655973Y-10911508D01*
X173655756Y-10911724D01*
X173688305Y-10959081D01*
X173686704Y-11020245D01*
X173649458Y-11068788D01*
X173593382Y-11086200D01*
X172330306Y-11086200D01*
X172330290Y-11086199D01*
X172324227Y-11086199D01*
X172218773Y-11086199D01*
X172130296Y-11109907D01*
X172130295Y-11109906D01*
X172116912Y-11113493D01*
X172116909Y-11113494D01*
X172025587Y-11166219D01*
X171951019Y-11240786D01*
X171951020Y-11240787D01*
X169634603Y-13557204D01*
X169580086Y-13584981D01*
X169564599Y-13586200D01*
X169004725Y-13586200D01*
X168974305Y-13589053D01*
X168974296Y-13589055D01*
X168846116Y-13633907D01*
X168736855Y-13714545D01*
X168736845Y-13714555D01*
X168656207Y-13823816D01*
X168611355Y-13951996D01*
X168611353Y-13952005D01*
X168608500Y-13982425D01*
X168608500Y-14237200D01*
X168589593Y-14295391D01*
X168540093Y-14331355D01*
X168509500Y-14336200D01*
X159984008Y-14336200D01*
X159925817Y-14317293D01*
X159904352Y-14295988D01*
X159903983Y-14295488D01*
X159881150Y-14264550D01*
X159881149Y-14264549D01*
X159771883Y-14183907D01*
X159643703Y-14139055D01*
X159643694Y-14139053D01*
X159613274Y-14136200D01*
X159613266Y-14136200D01*
X157604734Y-14136200D01*
X157604725Y-14136200D01*
X157574305Y-14139053D01*
X157574296Y-14139055D01*
X157446116Y-14183907D01*
X157336855Y-14264545D01*
X157336845Y-14264555D01*
X157256207Y-14373816D01*
X157211355Y-14501996D01*
X157211353Y-14502005D01*
X157208500Y-14532425D01*
X157208500Y-14832699D01*
X157189593Y-14890890D01*
X157140093Y-14926854D01*
X157078907Y-14926854D01*
X157039496Y-14902703D01*
X156623696Y-14486903D01*
X156595919Y-14432386D01*
X156594700Y-14416899D01*
X156594700Y-10532425D01*
X157208500Y-10532425D01*
X157208500Y-10940974D01*
X157211353Y-10971394D01*
X157211355Y-10971403D01*
X157256207Y-11099583D01*
X157314016Y-11177912D01*
X157333358Y-11235960D01*
X157314886Y-11294290D01*
X157314016Y-11295488D01*
X157256207Y-11373816D01*
X157211355Y-11501996D01*
X157211353Y-11502005D01*
X157208500Y-11532425D01*
X157208500Y-11940974D01*
X157211353Y-11971394D01*
X157211355Y-11971403D01*
X157256207Y-12099583D01*
X157314016Y-12177912D01*
X157333358Y-12235960D01*
X157314886Y-12294290D01*
X157314016Y-12295488D01*
X157256207Y-12373816D01*
X157211355Y-12501996D01*
X157211353Y-12502005D01*
X157208500Y-12532425D01*
X157208500Y-12940974D01*
X157211353Y-12971394D01*
X157211355Y-12971403D01*
X157256207Y-13099583D01*
X157336845Y-13208844D01*
X157336847Y-13208846D01*
X157336850Y-13208850D01*
X157336853Y-13208852D01*
X157336855Y-13208854D01*
X157446116Y-13289492D01*
X157446117Y-13289492D01*
X157446118Y-13289493D01*
X157574301Y-13334346D01*
X157604725Y-13337199D01*
X157604727Y-13337200D01*
X157604734Y-13337200D01*
X159613273Y-13337200D01*
X159613273Y-13337199D01*
X159643699Y-13334346D01*
X159771882Y-13289493D01*
X159881150Y-13208850D01*
X159961793Y-13099582D01*
X160006646Y-12971399D01*
X160009499Y-12940973D01*
X160009500Y-12940973D01*
X160009500Y-12814000D01*
X160028407Y-12755809D01*
X160077907Y-12719845D01*
X160108500Y-12715000D01*
X165575156Y-12715000D01*
X165633347Y-12733907D01*
X165645159Y-12743996D01*
X165681343Y-12780179D01*
X165696184Y-12795020D01*
X165833116Y-12874077D01*
X165985843Y-12915000D01*
X165985845Y-12915000D01*
X166143955Y-12915000D01*
X166143957Y-12915000D01*
X166296684Y-12874077D01*
X166433616Y-12795020D01*
X166545420Y-12683216D01*
X166624477Y-12546284D01*
X166665400Y-12393557D01*
X166665400Y-12235443D01*
X166624477Y-12082716D01*
X166545420Y-11945784D01*
X166433616Y-11833980D01*
X166296684Y-11754923D01*
X166143957Y-11714000D01*
X165985843Y-11714000D01*
X165833116Y-11754923D01*
X165696181Y-11833982D01*
X165645159Y-11885004D01*
X165590642Y-11912781D01*
X165575156Y-11914000D01*
X165447543Y-11914000D01*
X165389352Y-11895093D01*
X165353388Y-11845593D01*
X165353388Y-11784407D01*
X165377537Y-11744998D01*
X165386320Y-11736216D01*
X165465377Y-11599284D01*
X165506300Y-11446557D01*
X165506300Y-11288443D01*
X165465377Y-11135716D01*
X165386320Y-10998784D01*
X165274516Y-10886980D01*
X165137584Y-10807923D01*
X165137583Y-10807922D01*
X165137582Y-10807922D01*
X165126374Y-10804919D01*
X165075061Y-10771593D01*
X165053136Y-10714471D01*
X165053000Y-10709293D01*
X165053000Y-10657644D01*
X165053000Y-10657643D01*
X165012077Y-10504916D01*
X164933020Y-10367984D01*
X164821216Y-10256180D01*
X164684284Y-10177123D01*
X164531557Y-10136200D01*
X164373443Y-10136200D01*
X164220716Y-10177123D01*
X164087900Y-10253804D01*
X164083781Y-10256182D01*
X164032759Y-10307204D01*
X163978242Y-10334981D01*
X163962756Y-10336200D01*
X159984008Y-10336200D01*
X159925817Y-10317293D01*
X159904352Y-10295988D01*
X159903621Y-10294997D01*
X159881150Y-10264550D01*
X159881149Y-10264549D01*
X159771883Y-10183907D01*
X159643703Y-10139055D01*
X159643694Y-10139053D01*
X159613274Y-10136200D01*
X159613266Y-10136200D01*
X157604734Y-10136200D01*
X157604725Y-10136200D01*
X157574305Y-10139053D01*
X157574296Y-10139055D01*
X157446116Y-10183907D01*
X157336855Y-10264545D01*
X157336845Y-10264555D01*
X157256207Y-10373816D01*
X157211355Y-10501996D01*
X157211353Y-10502005D01*
X157208500Y-10532425D01*
X156594700Y-10532425D01*
X156594700Y-10255874D01*
X156594700Y-10255873D01*
X156573677Y-10177412D01*
X156573073Y-10175157D01*
X156569700Y-10149535D01*
X156569700Y-8595763D01*
X156573073Y-8570140D01*
X156594700Y-8489427D01*
X156594700Y-7610400D01*
X156613607Y-7552209D01*
X156663107Y-7516245D01*
X156693700Y-7511400D01*
X157359235Y-7511400D01*
X157359236Y-7511400D01*
X157422247Y-7494516D01*
X157454738Y-7485810D01*
X157540362Y-7436375D01*
X157610275Y-7366462D01*
X157610541Y-7366196D01*
X157665058Y-7338419D01*
X157680545Y-7337200D01*
X159613273Y-7337200D01*
X159613273Y-7337199D01*
X159643699Y-7334346D01*
X159771882Y-7289493D01*
X159881150Y-7208850D01*
X159961793Y-7099582D01*
X160006646Y-6971399D01*
X160009499Y-6940973D01*
X160009500Y-6940973D01*
X160009500Y-6532427D01*
X160009499Y-6532425D01*
X160006646Y-6502005D01*
X160006646Y-6502001D01*
X159961793Y-6373818D01*
X159949661Y-6357380D01*
X159881154Y-6264555D01*
X159881152Y-6264553D01*
X159881150Y-6264550D01*
X159881146Y-6264547D01*
X159881144Y-6264545D01*
X159771883Y-6183907D01*
X159643703Y-6139055D01*
X159643694Y-6139053D01*
X159613274Y-6136200D01*
X159613266Y-6136200D01*
X157604734Y-6136200D01*
X157604725Y-6136200D01*
X157574305Y-6139053D01*
X157574296Y-6139055D01*
X157446116Y-6183907D01*
X157336855Y-6264545D01*
X157336845Y-6264555D01*
X157256207Y-6373816D01*
X157211355Y-6501996D01*
X157211353Y-6502005D01*
X157208500Y-6532425D01*
X157208500Y-6661400D01*
X157189593Y-6719591D01*
X157140093Y-6755555D01*
X157109500Y-6760400D01*
X156353263Y-6760400D01*
X156327641Y-6757027D01*
X156246927Y-6735400D01*
X156141473Y-6735400D01*
X156141468Y-6735400D01*
X156133617Y-6737504D01*
X156072516Y-6734298D01*
X156024968Y-6695790D01*
X156009000Y-6641876D01*
X156009000Y-3532425D01*
X157208500Y-3532425D01*
X157208500Y-3940974D01*
X157211353Y-3971394D01*
X157211355Y-3971403D01*
X157256207Y-4099583D01*
X157314016Y-4177912D01*
X157333358Y-4235960D01*
X157314886Y-4294290D01*
X157314016Y-4295488D01*
X157256207Y-4373816D01*
X157211355Y-4501996D01*
X157211353Y-4502005D01*
X157208500Y-4532425D01*
X157208500Y-4940974D01*
X157211353Y-4971394D01*
X157211355Y-4971403D01*
X157256207Y-5099583D01*
X157336845Y-5208844D01*
X157336847Y-5208846D01*
X157336850Y-5208850D01*
X157336853Y-5208852D01*
X157336855Y-5208854D01*
X157446116Y-5289492D01*
X157446117Y-5289492D01*
X157446118Y-5289493D01*
X157574301Y-5334346D01*
X157604725Y-5337199D01*
X157604727Y-5337200D01*
X157604734Y-5337200D01*
X159613273Y-5337200D01*
X159613273Y-5337199D01*
X159643699Y-5334346D01*
X159664958Y-5326906D01*
X159723278Y-5324723D01*
X159769843Y-5337200D01*
X159769845Y-5337200D01*
X159927955Y-5337200D01*
X159927957Y-5337200D01*
X160080684Y-5296277D01*
X160217616Y-5217220D01*
X160329420Y-5105416D01*
X160408477Y-4968484D01*
X160449400Y-4815757D01*
X160449400Y-4657643D01*
X160408477Y-4504916D01*
X160329420Y-4367984D01*
X160267637Y-4306201D01*
X160239862Y-4251687D01*
X160249433Y-4191255D01*
X160292698Y-4147990D01*
X160337643Y-4137200D01*
X171346256Y-4137200D01*
X171404447Y-4156107D01*
X171416259Y-4166196D01*
X171458908Y-4208844D01*
X171467284Y-4217220D01*
X171604216Y-4296277D01*
X171756943Y-4337200D01*
X171756945Y-4337200D01*
X171915055Y-4337200D01*
X171915057Y-4337200D01*
X172067784Y-4296277D01*
X172204716Y-4217220D01*
X172316520Y-4105416D01*
X172395577Y-3968484D01*
X172436500Y-3815757D01*
X172436500Y-3657643D01*
X172395577Y-3504916D01*
X172316520Y-3367984D01*
X172204716Y-3256180D01*
X172067784Y-3177123D01*
X171915057Y-3136200D01*
X171756943Y-3136200D01*
X171604216Y-3177123D01*
X171468277Y-3255607D01*
X171467281Y-3256182D01*
X171416259Y-3307204D01*
X171361742Y-3334981D01*
X171346256Y-3336200D01*
X159984008Y-3336200D01*
X159925817Y-3317293D01*
X159904352Y-3295988D01*
X159883543Y-3267793D01*
X159881150Y-3264550D01*
X159881149Y-3264549D01*
X159771883Y-3183907D01*
X159643703Y-3139055D01*
X159643694Y-3139053D01*
X159613274Y-3136200D01*
X159613266Y-3136200D01*
X157604734Y-3136200D01*
X157604725Y-3136200D01*
X157574305Y-3139053D01*
X157574296Y-3139055D01*
X157446116Y-3183907D01*
X157336855Y-3264545D01*
X157336845Y-3264555D01*
X157256207Y-3373816D01*
X157211355Y-3501996D01*
X157211353Y-3502005D01*
X157208500Y-3532425D01*
X156009000Y-3532425D01*
X156009000Y-2736199D01*
X156027907Y-2678008D01*
X156077407Y-2642044D01*
X156107995Y-2637199D01*
X157402380Y-2637199D01*
X157468933Y-2631152D01*
X157599484Y-2590470D01*
X157622063Y-2583435D01*
X157622063Y-2583434D01*
X157622069Y-2583433D01*
X157759335Y-2500453D01*
X157872753Y-2387035D01*
X157955733Y-2249769D01*
X158003452Y-2096633D01*
X158009500Y-2030081D01*
X158009499Y-941830D01*
X162908500Y-941830D01*
X162908500Y-1781560D01*
X162908501Y-1781563D01*
X162911414Y-1806690D01*
X162936756Y-1864085D01*
X162956794Y-1909465D01*
X163036235Y-1988906D01*
X163139009Y-2034285D01*
X163164135Y-2037200D01*
X164253864Y-2037199D01*
X164278991Y-2034285D01*
X164381765Y-1988906D01*
X164381769Y-1988901D01*
X164389334Y-1983721D01*
X164390041Y-1984753D01*
X164436143Y-1961259D01*
X164496576Y-1970826D01*
X164521638Y-1989032D01*
X164528084Y-1995477D01*
X164528091Y-1995483D01*
X164619408Y-2048205D01*
X164619406Y-2048205D01*
X164619410Y-2048206D01*
X164619412Y-2048207D01*
X164721273Y-2075500D01*
X164721275Y-2075500D01*
X169761725Y-2075500D01*
X169761727Y-2075500D01*
X169863587Y-2048207D01*
X169863590Y-2048204D01*
X169869586Y-2045722D01*
X169870364Y-2047601D01*
X169909181Y-2037199D01*
X170253861Y-2037199D01*
X170253864Y-2037199D01*
X170278991Y-2034285D01*
X170381765Y-1988906D01*
X170409412Y-1961259D01*
X170422876Y-1947796D01*
X170477393Y-1920019D01*
X170492879Y-1918800D01*
X171761773Y-1918800D01*
X171819964Y-1937707D01*
X171847509Y-1968299D01*
X171872980Y-2012416D01*
X171984784Y-2124220D01*
X172121716Y-2203277D01*
X172274443Y-2244200D01*
X172274445Y-2244200D01*
X172432555Y-2244200D01*
X172432557Y-2244200D01*
X172585284Y-2203277D01*
X172722216Y-2124220D01*
X172834020Y-2012416D01*
X172913077Y-1875484D01*
X172954000Y-1722757D01*
X172954000Y-1564643D01*
X172913077Y-1411916D01*
X172834020Y-1274984D01*
X172722216Y-1163180D01*
X172585284Y-1084123D01*
X172432557Y-1043200D01*
X172274443Y-1043200D01*
X172198079Y-1063661D01*
X172121714Y-1084123D01*
X172086357Y-1104537D01*
X172036858Y-1117800D01*
X170608499Y-1117800D01*
X170550308Y-1098893D01*
X170514344Y-1049393D01*
X170509499Y-1018800D01*
X170509499Y-941839D01*
X170509499Y-941836D01*
X170506585Y-916709D01*
X170461206Y-813935D01*
X170381765Y-734494D01*
X170278991Y-689115D01*
X170278990Y-689114D01*
X170278988Y-689114D01*
X170253868Y-686200D01*
X169164139Y-686200D01*
X169164136Y-686201D01*
X169139009Y-689114D01*
X169036235Y-734494D01*
X168956794Y-813935D01*
X168911414Y-916711D01*
X168908500Y-941830D01*
X168908500Y-1175500D01*
X168889593Y-1233691D01*
X168840093Y-1269655D01*
X168809500Y-1274500D01*
X164980901Y-1274500D01*
X164922710Y-1255593D01*
X164910898Y-1245504D01*
X164706613Y-1041220D01*
X164706608Y-1041216D01*
X164615291Y-988494D01*
X164615293Y-988494D01*
X164596023Y-983331D01*
X164573738Y-977360D01*
X164522426Y-944037D01*
X164508798Y-921722D01*
X164506585Y-916709D01*
X164461206Y-813935D01*
X164381765Y-734494D01*
X164278991Y-689115D01*
X164278990Y-689114D01*
X164278988Y-689114D01*
X164253868Y-686200D01*
X163164139Y-686200D01*
X163164136Y-686201D01*
X163139009Y-689114D01*
X163036235Y-734494D01*
X162956794Y-813935D01*
X162911414Y-916711D01*
X162908500Y-941830D01*
X158009499Y-941830D01*
X158009499Y-843320D01*
X158003452Y-776767D01*
X157955733Y-623631D01*
X157955731Y-623629D01*
X157955730Y-623625D01*
X157872755Y-486368D01*
X157872754Y-486367D01*
X157872753Y-486365D01*
X157759335Y-372947D01*
X157759332Y-372945D01*
X157759331Y-372944D01*
X157622074Y-289969D01*
X157622062Y-289964D01*
X157468935Y-242248D01*
X157402385Y-236200D01*
X156108000Y-236200D01*
X156049809Y-217293D01*
X156013845Y-167793D01*
X156009000Y-137200D01*
X156009000Y3869590D01*
X157858500Y3869590D01*
X157858500Y3657009D01*
X157891752Y3447061D01*
X157957443Y3244887D01*
X158053948Y3055484D01*
X158053950Y3055480D01*
X158178891Y2883513D01*
X158329213Y2733191D01*
X158501180Y2608250D01*
X158501184Y2608248D01*
X158690587Y2511743D01*
X158892761Y2446052D01*
X159102710Y2412800D01*
X159102713Y2412800D01*
X159315290Y2412800D01*
X159525238Y2446052D01*
X159727412Y2511743D01*
X159916815Y2608248D01*
X159916819Y2608250D01*
X160088786Y2733191D01*
X160088788Y2733193D01*
X160088792Y2733196D01*
X160239104Y2883508D01*
X160257955Y2909454D01*
X160364049Y3055480D01*
X160364051Y3055484D01*
X160381918Y3090549D01*
X162849500Y3090549D01*
X162849500Y2909450D01*
X162877828Y2730593D01*
X162933788Y2558362D01*
X163016002Y2397008D01*
X163061923Y2333803D01*
X163122447Y2250499D01*
X163250499Y2122447D01*
X163296933Y2088711D01*
X163397008Y2016002D01*
X163558362Y1933788D01*
X163730593Y1877828D01*
X163909451Y1849500D01*
X163909454Y1849500D01*
X164090549Y1849500D01*
X164269406Y1877828D01*
X164441637Y1933788D01*
X164602991Y2016002D01*
X164632992Y2037799D01*
X164749501Y2122447D01*
X164877553Y2250499D01*
X164983996Y2397006D01*
X165066211Y2558361D01*
X165122171Y2730591D01*
X165146391Y2883508D01*
X165150500Y2909450D01*
X165150500Y3090549D01*
X165126055Y3244887D01*
X165122171Y3269409D01*
X165066211Y3441639D01*
X164983996Y3602994D01*
X164877553Y3749501D01*
X164749501Y3877553D01*
X164602994Y3983996D01*
X164441639Y4066211D01*
X164269409Y4122171D01*
X164179977Y4136335D01*
X164090549Y4150500D01*
X164090546Y4150500D01*
X163909454Y4150500D01*
X163909451Y4150500D01*
X163802136Y4133502D01*
X163730591Y4122171D01*
X163558361Y4066211D01*
X163397006Y3983996D01*
X163250499Y3877553D01*
X163122447Y3749501D01*
X163019649Y3608011D01*
X163016002Y3602991D01*
X162933788Y3441637D01*
X162877828Y3269406D01*
X162849500Y3090549D01*
X160381918Y3090549D01*
X160406799Y3139381D01*
X160460556Y3244887D01*
X160460557Y3244888D01*
X160526246Y3447057D01*
X160526247Y3447061D01*
X160559500Y3657009D01*
X160559500Y3869590D01*
X160526247Y4079538D01*
X160526246Y4079539D01*
X160526246Y4079543D01*
X160460557Y4281712D01*
X160364051Y4471116D01*
X160239104Y4643092D01*
X160088792Y4793404D01*
X159916816Y4918351D01*
X159727412Y5014857D01*
X159594112Y5058169D01*
X166908500Y5058169D01*
X166908500Y4218439D01*
X166908501Y4218436D01*
X166911414Y4193309D01*
X166956794Y4090535D01*
X167036235Y4011094D01*
X167139011Y3965714D01*
X167164131Y3962800D01*
X167164135Y3962800D01*
X168253860Y3962800D01*
X168253862Y3962800D01*
X168253864Y3962801D01*
X168256777Y3963138D01*
X168278990Y3965714D01*
X168336385Y3991056D01*
X168381765Y4011094D01*
X168461206Y4090535D01*
X168500173Y4178788D01*
X168540974Y4224384D01*
X168590738Y4237800D01*
X172827262Y4237800D01*
X172885453Y4218893D01*
X172917826Y4178789D01*
X172956794Y4090535D01*
X173036235Y4011094D01*
X173139011Y3965714D01*
X173164130Y3962800D01*
X173164135Y3962800D01*
X173231482Y3962800D01*
X173289673Y3943893D01*
X173325637Y3894393D01*
X173327108Y3889424D01*
X173335791Y3857016D01*
X173335794Y3857009D01*
X173388519Y3765687D01*
X173463086Y3691119D01*
X173487141Y3677231D01*
X173528081Y3631761D01*
X173533265Y3617121D01*
X173537051Y3602991D01*
X173544923Y3573616D01*
X173623980Y3436684D01*
X173735784Y3324880D01*
X173872716Y3245823D01*
X174025443Y3204900D01*
X174025445Y3204900D01*
X174183555Y3204900D01*
X174183557Y3204900D01*
X174336284Y3245823D01*
X174473216Y3324880D01*
X174585020Y3436684D01*
X174664077Y3573616D01*
X174705000Y3726343D01*
X174705000Y3884457D01*
X174664077Y4037184D01*
X174585020Y4174116D01*
X174538496Y4220638D01*
X174510718Y4275154D01*
X174509499Y4290643D01*
X174509499Y5058160D01*
X174509499Y5058164D01*
X174506585Y5083291D01*
X174503380Y5090549D01*
X178849500Y5090549D01*
X178849500Y4909450D01*
X178877828Y4730593D01*
X178933788Y4558362D01*
X179016002Y4397008D01*
X179069225Y4323752D01*
X179122447Y4250499D01*
X179250499Y4122447D01*
X179323752Y4069225D01*
X179397008Y4016002D01*
X179558362Y3933788D01*
X179730593Y3877828D01*
X179909451Y3849500D01*
X179909454Y3849500D01*
X180090549Y3849500D01*
X180217393Y3869590D01*
X205858500Y3869590D01*
X205858500Y3657009D01*
X205891752Y3447061D01*
X205957443Y3244887D01*
X206053948Y3055484D01*
X206053950Y3055480D01*
X206178891Y2883513D01*
X206329213Y2733191D01*
X206501180Y2608250D01*
X206501184Y2608248D01*
X206690587Y2511743D01*
X206892761Y2446052D01*
X207102710Y2412800D01*
X207102713Y2412800D01*
X207315290Y2412800D01*
X207525238Y2446052D01*
X207727412Y2511743D01*
X207916815Y2608248D01*
X207916819Y2608250D01*
X208088786Y2733191D01*
X208088788Y2733193D01*
X208088792Y2733196D01*
X208239104Y2883508D01*
X208257955Y2909454D01*
X208364049Y3055480D01*
X208364051Y3055484D01*
X208460557Y3244888D01*
X208526246Y3447057D01*
X208526247Y3447061D01*
X208559500Y3657009D01*
X208559500Y3869590D01*
X208526247Y4079538D01*
X208526246Y4079539D01*
X208526246Y4079543D01*
X208460557Y4281712D01*
X208364051Y4471116D01*
X208239104Y4643092D01*
X208088792Y4793404D01*
X207916816Y4918351D01*
X207727412Y5014857D01*
X207525243Y5080546D01*
X207525239Y5080546D01*
X207525238Y5080547D01*
X207315290Y5113800D01*
X207315287Y5113800D01*
X207102713Y5113800D01*
X207102710Y5113800D01*
X206892761Y5080547D01*
X206892758Y5080546D01*
X206892757Y5080546D01*
X206690588Y5014857D01*
X206608074Y4972814D01*
X206501184Y4918351D01*
X206501180Y4918349D01*
X206329213Y4793408D01*
X206329211Y4793406D01*
X206329208Y4793404D01*
X206178896Y4643092D01*
X206178893Y4643088D01*
X206178891Y4643086D01*
X206053950Y4471119D01*
X206053948Y4471115D01*
X205957443Y4281712D01*
X205891752Y4079538D01*
X205858500Y3869590D01*
X180217393Y3869590D01*
X180269406Y3877828D01*
X180441637Y3933788D01*
X180496392Y3961687D01*
X180496395Y3961687D01*
X180602983Y4015997D01*
X180602990Y4016001D01*
X180613045Y4023307D01*
X180749501Y4122447D01*
X180877553Y4250499D01*
X180983996Y4397006D01*
X181066211Y4558361D01*
X181122171Y4730591D01*
X181132120Y4793408D01*
X181150500Y4909450D01*
X181150500Y5090549D01*
X181122171Y5269406D01*
X181122171Y5269409D01*
X181066211Y5441639D01*
X180983996Y5602994D01*
X180877553Y5749501D01*
X180749501Y5877553D01*
X180602994Y5983996D01*
X180441639Y6066211D01*
X180269409Y6122171D01*
X180179977Y6136335D01*
X180090549Y6150500D01*
X180090546Y6150500D01*
X179909454Y6150500D01*
X179909451Y6150500D01*
X179802136Y6133502D01*
X179730591Y6122171D01*
X179558361Y6066211D01*
X179397006Y5983996D01*
X179250499Y5877553D01*
X179122447Y5749501D01*
X179016004Y5602994D01*
X179016002Y5602991D01*
X178933788Y5441637D01*
X178877828Y5269406D01*
X178849500Y5090549D01*
X174503380Y5090549D01*
X174461206Y5186065D01*
X174381765Y5265506D01*
X174278991Y5310885D01*
X174253865Y5313800D01*
X173164136Y5313799D01*
X173139009Y5310885D01*
X173036235Y5265506D01*
X172956794Y5186065D01*
X172956794Y5186064D01*
X172917827Y5097812D01*
X172877026Y5052216D01*
X172827262Y5038800D01*
X168590738Y5038800D01*
X168532547Y5057707D01*
X168500173Y5097812D01*
X168461206Y5186065D01*
X168381765Y5265506D01*
X168278991Y5310885D01*
X168253865Y5313800D01*
X167164136Y5313799D01*
X167139009Y5310885D01*
X167036235Y5265506D01*
X166956794Y5186065D01*
X166911415Y5083291D01*
X166911414Y5083288D01*
X166908500Y5058169D01*
X159594112Y5058169D01*
X159525243Y5080546D01*
X159525239Y5080546D01*
X159525238Y5080547D01*
X159315290Y5113800D01*
X159315287Y5113800D01*
X159102713Y5113800D01*
X159102710Y5113800D01*
X158892761Y5080547D01*
X158892758Y5080546D01*
X158892757Y5080546D01*
X158690588Y5014857D01*
X158608074Y4972814D01*
X158501184Y4918351D01*
X158501180Y4918349D01*
X158329213Y4793408D01*
X158329211Y4793406D01*
X158329208Y4793404D01*
X158178896Y4643092D01*
X158178893Y4643088D01*
X158178891Y4643086D01*
X158053950Y4471119D01*
X158053948Y4471115D01*
X157957443Y4281712D01*
X157891752Y4079538D01*
X157858500Y3869590D01*
X156009000Y3869590D01*
X156009000Y6753489D01*
X156009117Y6758303D01*
X156012461Y6826997D01*
X156013421Y6836749D01*
X156022086Y6895002D01*
X156023982Y6904515D01*
X156038323Y6961706D01*
X156041124Y6970943D01*
X156060958Y7026409D01*
X156064691Y7035417D01*
X156089928Y7088724D01*
X156094490Y7097255D01*
X156124789Y7147810D01*
X156130213Y7155924D01*
X156165323Y7203224D01*
X156171438Y7210675D01*
X156211011Y7254368D01*
X156217931Y7261288D01*
X156261624Y7300861D01*
X156269075Y7306976D01*
X156316375Y7342086D01*
X156324489Y7347510D01*
X156375044Y7377809D01*
X156383575Y7382371D01*
X156436882Y7407608D01*
X156445900Y7411345D01*
X156501343Y7431170D01*
X156510593Y7433976D01*
X156567784Y7448317D01*
X156577297Y7450213D01*
X156635550Y7458878D01*
X156645301Y7459838D01*
X156710030Y7462989D01*
X156713997Y7463183D01*
X156718811Y7463300D01*
X185113731Y7463300D01*
X185171922Y7444393D01*
G37*
%TD.AperFunction*%
%TA.AperFunction,Conductor*%
G36*
X175165418Y-10897255D02*
G01*
X175166441Y-10897755D01*
X175210419Y-10940295D01*
X175220994Y-11000559D01*
X175194127Y-11055530D01*
X175166441Y-11075645D01*
X175165418Y-11076145D01*
X175121946Y-11086200D01*
X174446818Y-11086200D01*
X174388627Y-11067293D01*
X174352663Y-11017793D01*
X174352663Y-10956607D01*
X174386544Y-10908663D01*
X174387847Y-10907663D01*
X174445521Y-10887234D01*
X174448121Y-10887200D01*
X175121946Y-10887200D01*
X175165418Y-10897255D01*
G37*
%TD.AperFunction*%
%TA.AperFunction,Conductor*%
G36*
X196692183Y-3206107D02*
G01*
X196713647Y-3227411D01*
X196734457Y-3255607D01*
X196736850Y-3258850D01*
X196846116Y-3339492D01*
X196846117Y-3339492D01*
X196846118Y-3339493D01*
X196974301Y-3384346D01*
X197004725Y-3387199D01*
X197004727Y-3387200D01*
X197004734Y-3387200D01*
X198138273Y-3387200D01*
X198138273Y-3387199D01*
X198168699Y-3384346D01*
X198296882Y-3339493D01*
X198296883Y-3339492D01*
X198296884Y-3339492D01*
X198327640Y-3316793D01*
X198347576Y-3302078D01*
X198405623Y-3282736D01*
X198463954Y-3301207D01*
X198500288Y-3350436D01*
X198501992Y-3407354D01*
X198487500Y-3461440D01*
X198487500Y-3533599D01*
X198468593Y-3591790D01*
X198458505Y-3603601D01*
X198440721Y-3621385D01*
X198440716Y-3621391D01*
X198387994Y-3712707D01*
X198387993Y-3712712D01*
X198387035Y-3716287D01*
X198361636Y-3811081D01*
X198360700Y-3814574D01*
X198360700Y-4016710D01*
X198341793Y-4074901D01*
X198292293Y-4110865D01*
X198231107Y-4110865D01*
X198229003Y-4110155D01*
X198198786Y-4099582D01*
X198168699Y-4089054D01*
X198168697Y-4089053D01*
X198168694Y-4089053D01*
X198138274Y-4086200D01*
X198138266Y-4086200D01*
X197004734Y-4086200D01*
X197004725Y-4086200D01*
X196974305Y-4089053D01*
X196974296Y-4089055D01*
X196846116Y-4133907D01*
X196736855Y-4214545D01*
X196736845Y-4214555D01*
X196656207Y-4323816D01*
X196611355Y-4451996D01*
X196611353Y-4452005D01*
X196608500Y-4482425D01*
X196608500Y-4740200D01*
X196589593Y-4798391D01*
X196540093Y-4834355D01*
X196509500Y-4839200D01*
X194908500Y-4839200D01*
X194850309Y-4820293D01*
X194814345Y-4770793D01*
X194809500Y-4740200D01*
X194809500Y-4482427D01*
X194809499Y-4482425D01*
X194806646Y-4452005D01*
X194806646Y-4452001D01*
X194761793Y-4323818D01*
X194752033Y-4310594D01*
X194740516Y-4294988D01*
X194721174Y-4236941D01*
X194739645Y-4178610D01*
X194788875Y-4142277D01*
X194820171Y-4137200D01*
X195091225Y-4137200D01*
X195091227Y-4137200D01*
X195193088Y-4109907D01*
X195193090Y-4109905D01*
X195193092Y-4109905D01*
X195284408Y-4057183D01*
X195284408Y-4057182D01*
X195284413Y-4057180D01*
X196125397Y-3216196D01*
X196179914Y-3188419D01*
X196195401Y-3187200D01*
X196633992Y-3187200D01*
X196692183Y-3206107D01*
G37*
%TD.AperFunction*%
%TD*%
M02*
