%TF.GenerationSoftware,KiCad,Pcbnew,10.0.5*%
%TF.CreationDate,2026-09-13T13:35:48-04:00*%
%TF.ProjectId,Symm60HE-Neo-Controller,53796d6d-3630-4484-952d-4e656f2d436f,rev?*%
%TF.SameCoordinates,Original*%
%TF.FileFunction,Copper,L2,Bot*%
%TF.FilePolarity,Positive*%
%FSLAX46Y46*%
G04 Gerber Fmt 4.6, Leading zero omitted, Abs format (unit mm)*
G04 Created by KiCad (PCBNEW 10.0.5) date 2026-09-13 13:35:48*
%MOMM*%
%LPD*%
G01*
G04 APERTURE LIST*
G04 Aperture macros list*
%AMRoundRect*
0 Rectangle with rounded corners*
0 $1 Rounding radius*
0 $2 $3 $4 $5 $6 $7 $8 $9 X,Y pos of 4 corners*
0 Add a 4 corners polygon primitive as box body*
4,1,4,$2,$3,$4,$5,$6,$7,$8,$9,$2,$3,0*
0 Add four circle primitives for the rounded corners*
1,1,$1+$1,$2,$3*
1,1,$1+$1,$4,$5*
1,1,$1+$1,$6,$7*
1,1,$1+$1,$8,$9*
0 Add four rect primitives between the rounded corners*
20,1,$1+$1,$2,$3,$4,$5,0*
20,1,$1+$1,$4,$5,$6,$7,0*
20,1,$1+$1,$6,$7,$8,$9,0*
20,1,$1+$1,$8,$9,$2,$3,0*%
G04 Aperture macros list end*
%TA.AperFunction,ComponentPad*%
%ADD10O,1.000000X2.100000*%
%TD*%
%TA.AperFunction,ComponentPad*%
%ADD11O,1.000000X1.600000*%
%TD*%
%TA.AperFunction,SMDPad,CuDef*%
%ADD12RoundRect,0.140000X-0.140000X-0.170000X0.140000X-0.170000X0.140000X0.170000X-0.140000X0.170000X0*%
%TD*%
%TA.AperFunction,SMDPad,CuDef*%
%ADD13C,1.000000*%
%TD*%
%TA.AperFunction,SMDPad,CuDef*%
%ADD14RoundRect,0.225000X-0.225000X-0.250000X0.225000X-0.250000X0.225000X0.250000X-0.225000X0.250000X0*%
%TD*%
%TA.AperFunction,SMDPad,CuDef*%
%ADD15RoundRect,0.135000X0.185000X-0.135000X0.185000X0.135000X-0.185000X0.135000X-0.185000X-0.135000X0*%
%TD*%
%TA.AperFunction,ViaPad*%
%ADD16C,0.600000*%
%TD*%
%TA.AperFunction,Conductor*%
%ADD17C,0.200000*%
%TD*%
G04 APERTURE END LIST*
D10*
%TO.P,J1,SH*%
%TO.N,GND*%
X196529000Y983300D03*
D11*
X196529000Y5163300D03*
D10*
X187889000Y983300D03*
D11*
X187889000Y5163300D03*
%TD*%
D12*
%TO.P,C4,1*%
%TO.N,XTAL_OUT*%
X181529000Y-19036700D03*
%TO.P,C4,2*%
%TO.N,GND*%
X182489000Y-19036700D03*
%TD*%
D13*
%TO.P,FIDB1,*%
%TO.N,*%
X164000000Y3000000D03*
%TD*%
D12*
%TO.P,C11,1*%
%TO.N,NRST*%
X183529000Y-19036700D03*
%TO.P,C11,2*%
%TO.N,GND*%
X184489000Y-19036700D03*
%TD*%
D14*
%TO.P,C12,1*%
%TO.N,VBUS*%
X202234000Y-3036700D03*
%TO.P,C12,2*%
%TO.N,GND*%
X203784000Y-3036700D03*
%TD*%
%TO.P,C14,1*%
%TO.N,+3V3D*%
X173234000Y-18036700D03*
%TO.P,C14,2*%
%TO.N,GND*%
X174784000Y-18036700D03*
%TD*%
D12*
%TO.P,C7,1*%
%TO.N,+3V3D*%
X176329000Y-2636700D03*
%TO.P,C7,2*%
%TO.N,GND*%
X177289000Y-2636700D03*
%TD*%
D14*
%TO.P,C15,1*%
%TO.N,+3V3A*%
X193234000Y-19036700D03*
%TO.P,C15,2*%
%TO.N,GND*%
X194784000Y-19036700D03*
%TD*%
D13*
%TO.P,FIDB3,*%
%TO.N,*%
X209000000Y-19200000D03*
%TD*%
D14*
%TO.P,C13,1*%
%TO.N,+3V3D*%
X200434000Y-736700D03*
%TO.P,C13,2*%
%TO.N,GND*%
X201984000Y-736700D03*
%TD*%
D13*
%TO.P,FIDB2,*%
%TO.N,*%
X180000000Y5000000D03*
%TD*%
D12*
%TO.P,C5,1*%
%TO.N,+3V3D*%
X176529000Y-4636700D03*
%TO.P,C5,2*%
%TO.N,GND*%
X177489000Y-4636700D03*
%TD*%
%TO.P,C3,1*%
%TO.N,XTAL_IN*%
X179529000Y-19036700D03*
%TO.P,C3,2*%
%TO.N,GND*%
X180489000Y-19036700D03*
%TD*%
D14*
%TO.P,C8,1*%
%TO.N,+3V3D*%
X188734000Y-9036700D03*
%TO.P,C8,2*%
%TO.N,GND*%
X190284000Y-9036700D03*
%TD*%
D12*
%TO.P,C6,1*%
%TO.N,+3V3D*%
X188329000Y-11536700D03*
%TO.P,C6,2*%
%TO.N,GND*%
X189289000Y-11536700D03*
%TD*%
D14*
%TO.P,C10,1*%
%TO.N,+3V3A*%
X187734000Y-19036700D03*
%TO.P,C10,2*%
%TO.N,GND*%
X189284000Y-19036700D03*
%TD*%
D12*
%TO.P,C9,1*%
%TO.N,+3V3A*%
X185529000Y-19036700D03*
%TO.P,C9,2*%
%TO.N,GND*%
X186489000Y-19036700D03*
%TD*%
D15*
%TO.P,R4,1*%
%TO.N,BOOT0*%
X176809000Y-1746700D03*
%TO.P,R4,2*%
%TO.N,GND*%
X176809000Y-726700D03*
%TD*%
D16*
%TO.N,VBUS*%
X200872700Y-1685500D03*
%TO.N,GND*%
X196037900Y-3736700D03*
X184521700Y-16196700D03*
%TO.N,CC2*%
X190806600Y-1119000D03*
X192438400Y-14152200D03*
%TO.N,CC1*%
X188249800Y-1973400D03*
X193250600Y1245800D03*
%TO.N,USB_DP*%
X190656900Y-2168200D03*
X189321600Y-7198900D03*
%TO.N,USB_DM*%
X192709000Y-4557800D03*
X192420200Y-6606000D03*
X192959000Y-1144100D03*
%TO.N,+3V3D*%
X188622400Y-10741400D03*
X199088000Y-3540500D03*
X194987000Y-12673800D03*
X173481900Y-13279700D03*
%TO.N,MUX_A2*%
X164452500Y-10736700D03*
X174020100Y-10426400D03*
%TO.N,MUX_A1*%
X164905800Y-11367500D03*
X203124200Y-6419300D03*
X181715100Y-9901900D03*
%TO.N,MUX_A0*%
X173034500Y-9486700D03*
X166064900Y-12314500D03*
%TO.N,+3V3A*%
X181689800Y-11486700D03*
X206863600Y-3736700D03*
%TO.N,XTAL_IN*%
X174801000Y-7484100D03*
%TO.N,XTAL_OUT*%
X178013200Y-7932100D03*
%TO.N,BOOT0*%
X179736500Y-2312800D03*
X174104500Y3805400D03*
%TO.N,ADC_L4*%
X180307800Y-13684100D03*
X171836000Y-3736700D03*
%TO.N,ADC_L3*%
X159848900Y-4736700D03*
X170713700Y-14186200D03*
%TO.N,ADC_L1*%
X168819600Y-10358100D03*
X171944000Y-14611800D03*
%TO.N,NRST*%
X177985500Y-7125800D03*
X172353500Y-1643700D03*
%TD*%
%TO.N,VBUS*%
D17*
X202234000Y-3036700D02*
X202223900Y-3036700D01*
X202223900Y-3036700D02*
X200872700Y-1685500D01*
%TO.N,GND*%
X201204800Y42500D02*
X197272000Y42500D01*
X184489000Y-19036700D02*
X185149900Y-19697600D01*
X184489000Y-16229400D02*
X184521700Y-16196700D01*
X177453000Y-1370700D02*
X176809000Y-726700D01*
X197272000Y42500D02*
X196861100Y-368400D01*
X190284000Y-9036700D02*
X190919900Y-9036700D01*
X190077700Y-19830400D02*
X189284000Y-19036700D01*
X196529000Y235000D02*
X196529000Y-368400D01*
X186911500Y-5664200D02*
X190284000Y-9036700D01*
X196529000Y983300D02*
X196529000Y5163300D01*
X190284000Y-10541700D02*
X190284000Y-9036700D01*
X182489000Y-19036700D02*
X181876800Y-19648900D01*
X189289000Y-11536700D02*
X190284000Y-10541700D01*
X187889000Y983300D02*
X187889000Y-368400D01*
X185149900Y-19697600D02*
X185828100Y-19697600D01*
X196861100Y-368400D02*
X196529000Y-368400D01*
X186911500Y-1345900D02*
X186911500Y-4636700D01*
X183863200Y-19662500D02*
X183114800Y-19662500D01*
X196150700Y-17670000D02*
X196150700Y-15309500D01*
X177289000Y-4436700D02*
X177489000Y-4636700D01*
X187309300Y-19857000D02*
X186489000Y-19036700D01*
X184489000Y-19036700D02*
X183863200Y-19662500D01*
X181876800Y-19648900D02*
X181101200Y-19648900D01*
X201984000Y-736700D02*
X201204800Y42500D01*
X177289000Y-2636700D02*
X177453000Y-2472700D01*
X185828100Y-19697600D02*
X186489000Y-19036700D01*
X196037900Y-256100D02*
X196037900Y-3736700D01*
X187889000Y-368400D02*
X186911500Y-1345900D01*
X183114800Y-19662500D02*
X182489000Y-19036700D01*
X196529000Y235000D02*
X196037900Y-256100D01*
X187889000Y5163300D02*
X187889000Y983300D01*
X193990300Y-19830400D02*
X190077700Y-19830400D01*
X177489000Y-4636700D02*
X186911500Y-4636700D01*
X188463700Y-19857000D02*
X187309300Y-19857000D01*
X174784000Y-18036700D02*
X176431200Y-19683900D01*
X179841800Y-19683900D02*
X180489000Y-19036700D01*
X189284000Y-19036700D02*
X188463700Y-19857000D01*
X203784000Y-2536700D02*
X203784000Y-3036700D01*
X196529000Y983300D02*
X196529000Y235000D01*
X194784000Y-19036700D02*
X196150700Y-17670000D01*
X194784000Y-19036700D02*
X193990300Y-19830400D01*
X201984000Y-736700D02*
X203784000Y-2536700D01*
X177289000Y-2636700D02*
X177289000Y-4436700D01*
X176431200Y-19683900D02*
X179841800Y-19683900D01*
X184489000Y-19036700D02*
X184489000Y-16229400D01*
X186911500Y-4636700D02*
X186911500Y-5664200D01*
X190919900Y-9036700D02*
X191674900Y-8281700D01*
X177453000Y-2472700D02*
X177453000Y-1370700D01*
X181101200Y-19648900D02*
X180489000Y-19036700D01*
%TO.N,CC2*%
X192438400Y-8194300D02*
X192438400Y-14152200D01*
X191868400Y-7624300D02*
X192438400Y-8194300D01*
X190806600Y-1119000D02*
X191868400Y-2180800D01*
X191868400Y-2180800D02*
X191868400Y-7624300D01*
%TO.N,CC1*%
X188249800Y-1973400D02*
X191469000Y1245800D01*
X191469000Y1245800D02*
X193250600Y1245800D01*
%TO.N,USB_DP*%
X190656900Y-5863600D02*
X190656900Y-2168200D01*
X189321600Y-7198900D02*
X190656900Y-5863600D01*
%TO.N,USB_DM*%
X192709000Y-4557800D02*
X192709000Y-6317200D01*
X192959000Y-1144100D02*
X192959000Y-4307800D01*
X192959000Y-4307800D02*
X192709000Y-4557800D01*
X192709000Y-6317200D02*
X192420200Y-6606000D01*
%TO.N,+3V3D*%
X188627600Y-10736200D02*
X188627600Y-9143100D01*
X176329000Y-2636700D02*
X176329000Y-4436700D01*
X188622400Y-11243300D02*
X188622400Y-10741400D01*
X194987000Y-12673800D02*
X192956700Y-14704100D01*
X192956700Y-14704100D02*
X191496400Y-14704100D01*
X199088000Y-8572800D02*
X194987000Y-12673800D01*
X173481900Y-17788800D02*
X173481900Y-13279700D01*
X188622400Y-10741400D02*
X188627600Y-10736200D01*
X188734000Y-9036700D02*
X188627600Y-9143100D01*
X191496400Y-14704100D02*
X188329000Y-11536700D01*
X199088000Y-3540500D02*
X199088000Y-8572800D01*
X177270600Y-5378300D02*
X184862800Y-5378300D01*
X176329000Y-4436700D02*
X176529000Y-4636700D01*
X188329000Y-11536700D02*
X188622400Y-11243300D01*
X184862800Y-5378300D02*
X188627600Y-9143100D01*
X176529000Y-4636700D02*
X177270600Y-5378300D01*
X199088000Y-3540500D02*
X199088000Y-2082700D01*
X173234000Y-18036700D02*
X173481900Y-17788800D01*
X199088000Y-2082700D02*
X200434000Y-736700D01*
%TO.N,MUX_A2*%
X174020100Y-9610900D02*
X173313500Y-8904300D01*
X174020100Y-10426400D02*
X174020100Y-9610900D01*
X173313500Y-8904300D02*
X166284900Y-8904300D01*
X166284900Y-8904300D02*
X164452500Y-10736700D01*
%TO.N,MUX_A1*%
X203124200Y-6419300D02*
X194457300Y-15086200D01*
X177819600Y-6006400D02*
X181715100Y-9901900D01*
X175478300Y-4471100D02*
X177013600Y-6006400D01*
X175478300Y-3975800D02*
X175478300Y-4471100D01*
X186899400Y-15086200D02*
X181715100Y-9901900D01*
X163898400Y-11031700D02*
X163898400Y-9317900D01*
X164905800Y-11367500D02*
X164905800Y-11367400D01*
X194457300Y-15086200D02*
X186899400Y-15086200D01*
X172583500Y-1081000D02*
X175478300Y-3975800D01*
X177013600Y-6006400D02*
X177819600Y-6006400D01*
X164905800Y-11367400D02*
X164234100Y-11367400D01*
X164234100Y-11367400D02*
X163898400Y-11031700D01*
X163898400Y-9317900D02*
X172135300Y-1081000D01*
X172135300Y-1081000D02*
X172583500Y-1081000D01*
%TO.N,MUX_A0*%
X168892700Y-9486700D02*
X173034500Y-9486700D01*
X166064900Y-12314500D02*
X168892700Y-9486700D01*
%TO.N,+3V3A*%
X193234000Y-17366300D02*
X206863600Y-3736700D01*
X187079500Y-18382200D02*
X186183500Y-18382200D01*
X188524800Y-18245900D02*
X187734000Y-19036700D01*
X187734000Y-19036700D02*
X187079500Y-18382200D01*
X193234000Y-18245900D02*
X193234000Y-17366300D01*
X186183500Y-18382200D02*
X186183500Y-15980400D01*
X193234000Y-18245900D02*
X188524800Y-18245900D01*
X193234000Y-19036700D02*
X193234000Y-18245900D01*
X186183500Y-15980400D02*
X181689800Y-11486700D01*
X186183500Y-18382200D02*
X185529000Y-19036700D01*
%TO.N,XTAL_IN*%
X174801000Y-7484100D02*
X174801000Y-14308700D01*
X174801000Y-14308700D02*
X179529000Y-19036700D01*
%TO.N,XTAL_OUT*%
X178013200Y-10209900D02*
X178013200Y-7932100D01*
X181529000Y-13725700D02*
X178013200Y-10209900D01*
X181529000Y-19036700D02*
X181529000Y-13725700D01*
%TO.N,BOOT0*%
X176178200Y-104000D02*
X177527700Y-104000D01*
X176178200Y-104000D02*
X176178200Y1731700D01*
X176178200Y-1115900D02*
X176178200Y-104000D01*
X176178200Y1731700D02*
X174104500Y3805400D01*
X176809000Y-1746700D02*
X176178200Y-1115900D01*
X177527700Y-104000D02*
X179736500Y-2312800D01*
%TO.N,ADC_L4*%
X175407900Y-7308600D02*
X175407900Y-8784200D01*
X175407900Y-8784200D02*
X180307800Y-13684100D01*
X171836000Y-3736700D02*
X175407900Y-7308600D01*
%TO.N,ADC_L3*%
X159848900Y-7479500D02*
X166555600Y-14186200D01*
X159848900Y-4736700D02*
X159848900Y-7479500D01*
X166555600Y-14186200D02*
X170713700Y-14186200D01*
%TO.N,ADC_L1*%
X171944000Y-14611800D02*
X168819600Y-11487400D01*
X168819600Y-11487400D02*
X168819600Y-10358100D01*
%TO.N,NRST*%
X177625800Y-7125800D02*
X172353500Y-1853500D01*
X172353500Y-1853500D02*
X172353500Y-1643700D01*
X183529000Y-15228400D02*
X178619300Y-10318700D01*
X178018300Y-7125800D02*
X177985500Y-7125800D01*
X183529000Y-19036700D02*
X183529000Y-15228400D01*
X177985500Y-7125800D02*
X177625800Y-7125800D01*
X178619300Y-10318700D02*
X178619300Y-7726800D01*
X178619300Y-7726800D02*
X178018300Y-7125800D01*
%TD*%
%TA.AperFunction,Conductor*%
%TO.N,GND*%
G36*
X185171922Y7444393D02*
G01*
X185183735Y7434304D01*
X185429504Y7188535D01*
X185457281Y7134018D01*
X185458500Y7118531D01*
X185458500Y6713471D01*
X185496634Y6621405D01*
X185567105Y6550934D01*
X185659171Y6512800D01*
X185659172Y6512800D01*
X198758829Y6512800D01*
X198850894Y6550934D01*
X198850895Y6550935D01*
X198850897Y6550936D01*
X198921364Y6621403D01*
X198959500Y6713472D01*
X198959500Y7118532D01*
X198978407Y7176723D01*
X198988496Y7188535D01*
X199106937Y7306976D01*
X199234263Y7434303D01*
X199288780Y7462081D01*
X199304267Y7463300D01*
X209699189Y7463300D01*
X209704002Y7463183D01*
X209707688Y7463003D01*
X209772698Y7459838D01*
X209782449Y7458878D01*
X209840702Y7450213D01*
X209850215Y7448317D01*
X209907406Y7433976D01*
X209916661Y7431169D01*
X209972089Y7411349D01*
X209981117Y7407608D01*
X210034424Y7382371D01*
X210042955Y7377809D01*
X210093510Y7347510D01*
X210101624Y7342086D01*
X210148924Y7306976D01*
X210156375Y7300861D01*
X210200068Y7261288D01*
X210206988Y7254368D01*
X210246561Y7210675D01*
X210252676Y7203224D01*
X210287786Y7155924D01*
X210293210Y7147810D01*
X210323509Y7097255D01*
X210328071Y7088724D01*
X210353308Y7035417D01*
X210357049Y7026389D01*
X210376869Y6970961D01*
X210379676Y6961706D01*
X210394017Y6904515D01*
X210395913Y6895002D01*
X210404578Y6836749D01*
X210405538Y6826998D01*
X210408883Y6758304D01*
X210409000Y6753489D01*
X210409000Y-19226889D01*
X210408883Y-19231704D01*
X210405538Y-19300398D01*
X210404578Y-19310149D01*
X210395913Y-19368402D01*
X210394017Y-19377915D01*
X210379676Y-19435106D01*
X210376869Y-19444361D01*
X210357049Y-19499789D01*
X210353308Y-19508817D01*
X210328071Y-19562124D01*
X210323509Y-19570655D01*
X210293210Y-19621210D01*
X210287787Y-19629323D01*
X210261440Y-19664818D01*
X210211575Y-19700274D01*
X210150393Y-19699649D01*
X210101263Y-19663181D01*
X210082951Y-19604800D01*
X210087790Y-19575224D01*
X210122171Y-19469409D01*
X210131218Y-19412290D01*
X210150500Y-19290549D01*
X210150500Y-19109450D01*
X210122171Y-18930593D01*
X210122171Y-18930591D01*
X210066211Y-18758361D01*
X209983996Y-18597006D01*
X209877553Y-18450499D01*
X209749501Y-18322447D01*
X209602994Y-18216004D01*
X209602993Y-18216003D01*
X209602991Y-18216002D01*
X209441637Y-18133788D01*
X209269406Y-18077828D01*
X209090549Y-18049500D01*
X209090546Y-18049500D01*
X208909454Y-18049500D01*
X208909451Y-18049500D01*
X208730593Y-18077828D01*
X208558362Y-18133788D01*
X208397008Y-18216002D01*
X208334799Y-18261200D01*
X208250499Y-18322447D01*
X208122447Y-18450499D01*
X208078143Y-18511478D01*
X208016002Y-18597008D01*
X207933788Y-18758362D01*
X207877828Y-18930593D01*
X207849500Y-19109450D01*
X207849500Y-19290549D01*
X207877828Y-19469406D01*
X207929787Y-19629324D01*
X207933789Y-19641639D01*
X208004479Y-19780376D01*
X208010787Y-19792755D01*
X208020358Y-19853187D01*
X207992581Y-19907703D01*
X207938064Y-19935481D01*
X207922577Y-19936700D01*
X193763331Y-19936700D01*
X193705140Y-19917793D01*
X193669176Y-19868293D01*
X193669176Y-19807107D01*
X193705140Y-19757607D01*
X193714810Y-19751406D01*
X193718969Y-19749067D01*
X193718970Y-19749065D01*
X193718975Y-19749064D01*
X193834078Y-19661778D01*
X193921364Y-19546675D01*
X193974359Y-19412290D01*
X193984500Y-19327844D01*
X193984500Y-18745556D01*
X193974359Y-18661110D01*
X193921364Y-18526725D01*
X193834078Y-18411622D01*
X193718975Y-18324336D01*
X193718972Y-18324334D01*
X193718971Y-18324334D01*
X193697181Y-18315741D01*
X193649984Y-18276805D01*
X193634500Y-18223644D01*
X193634500Y-17573201D01*
X193653407Y-17515010D01*
X193663496Y-17503197D01*
X206800497Y-4366196D01*
X206855014Y-4338419D01*
X206870501Y-4337200D01*
X206942655Y-4337200D01*
X206942657Y-4337200D01*
X207095384Y-4296277D01*
X207232316Y-4217220D01*
X207344120Y-4105416D01*
X207423177Y-3968484D01*
X207464100Y-3815757D01*
X207464100Y-3657643D01*
X207423177Y-3504916D01*
X207344120Y-3367984D01*
X207232316Y-3256180D01*
X207095384Y-3177123D01*
X206942657Y-3136200D01*
X206784543Y-3136200D01*
X206631816Y-3177123D01*
X206494884Y-3256180D01*
X206383080Y-3367984D01*
X206304023Y-3504916D01*
X206263723Y-3655320D01*
X206263100Y-3657644D01*
X206263100Y-3729798D01*
X206244193Y-3787989D01*
X206234104Y-3799802D01*
X203834527Y-6199378D01*
X203780010Y-6227155D01*
X203719578Y-6217584D01*
X203678788Y-6178875D01*
X203604720Y-6050584D01*
X203492916Y-5938780D01*
X203355984Y-5859723D01*
X203203257Y-5818800D01*
X203045143Y-5818800D01*
X202892416Y-5859723D01*
X202755484Y-5938780D01*
X202643680Y-6050584D01*
X202564623Y-6187516D01*
X202544003Y-6264473D01*
X202523700Y-6340244D01*
X202523700Y-6412399D01*
X202504793Y-6470590D01*
X202494704Y-6482403D01*
X194320403Y-14656704D01*
X194265886Y-14684481D01*
X194250399Y-14685700D01*
X193780501Y-14685700D01*
X193722310Y-14666793D01*
X193686346Y-14617293D01*
X193686346Y-14556107D01*
X193710497Y-14516696D01*
X194923897Y-13303296D01*
X194978414Y-13275519D01*
X194993901Y-13274300D01*
X195066055Y-13274300D01*
X195066057Y-13274300D01*
X195218784Y-13233377D01*
X195355716Y-13154320D01*
X195467520Y-13042516D01*
X195546577Y-12905584D01*
X195587500Y-12752857D01*
X195587500Y-12680700D01*
X195606407Y-12622509D01*
X195616490Y-12610702D01*
X199408480Y-8818713D01*
X199450718Y-8745556D01*
X199461205Y-8727392D01*
X199461205Y-8727390D01*
X199461207Y-8727388D01*
X199488500Y-8625527D01*
X199488500Y-8520073D01*
X199488500Y-4030243D01*
X199507407Y-3972052D01*
X199517490Y-3960245D01*
X199568520Y-3909216D01*
X199647577Y-3772284D01*
X199688500Y-3619557D01*
X199688500Y-3461443D01*
X199647577Y-3308716D01*
X199568520Y-3171784D01*
X199550443Y-3153707D01*
X199517496Y-3120759D01*
X199489719Y-3066242D01*
X199488500Y-3050756D01*
X199488500Y-2289601D01*
X199507407Y-2231410D01*
X199517496Y-2219597D01*
X200103196Y-1633897D01*
X200157713Y-1606120D01*
X200218145Y-1615691D01*
X200261410Y-1658956D01*
X200272200Y-1703901D01*
X200272200Y-1764557D01*
X200313123Y-1917284D01*
X200392180Y-2054216D01*
X200503984Y-2166020D01*
X200640916Y-2245077D01*
X200793643Y-2286000D01*
X200865799Y-2286000D01*
X200923990Y-2304907D01*
X200935803Y-2314996D01*
X201454504Y-2833697D01*
X201482281Y-2888214D01*
X201483500Y-2903701D01*
X201483500Y-3327848D01*
X201493641Y-3412291D01*
X201546634Y-3546672D01*
X201546635Y-3546674D01*
X201546636Y-3546675D01*
X201633922Y-3661778D01*
X201749025Y-3749064D01*
X201749026Y-3749064D01*
X201749027Y-3749065D01*
X201804161Y-3770807D01*
X201883410Y-3802059D01*
X201967856Y-3812200D01*
X201967858Y-3812200D01*
X202500142Y-3812200D01*
X202500144Y-3812200D01*
X202584590Y-3802059D01*
X202718975Y-3749064D01*
X202834078Y-3661778D01*
X202921364Y-3546675D01*
X202974359Y-3412290D01*
X202984500Y-3327844D01*
X202984500Y-2745556D01*
X202974359Y-2661110D01*
X202925383Y-2536916D01*
X202921365Y-2526727D01*
X202921364Y-2526726D01*
X202921364Y-2526725D01*
X202834078Y-2411622D01*
X202718975Y-2324336D01*
X202718974Y-2324335D01*
X202718972Y-2324334D01*
X202584591Y-2271341D01*
X202500148Y-2261200D01*
X202500144Y-2261200D01*
X202055801Y-2261200D01*
X201997610Y-2242293D01*
X201985797Y-2232204D01*
X201502196Y-1748603D01*
X201474419Y-1694086D01*
X201473200Y-1678599D01*
X201473200Y-1606444D01*
X201473113Y-1606120D01*
X201432277Y-1453716D01*
X201353220Y-1316784D01*
X201241416Y-1204980D01*
X201224880Y-1195433D01*
X201183939Y-1149963D01*
X201176087Y-1097895D01*
X201184500Y-1027844D01*
X201184500Y-445556D01*
X201174359Y-361110D01*
X201121364Y-226725D01*
X201034078Y-111622D01*
X200918975Y-24336D01*
X200918974Y-24335D01*
X200918972Y-24334D01*
X200841801Y6097D01*
X200784590Y28659D01*
X200700144Y38800D01*
X200167856Y38800D01*
X200083410Y28659D01*
X200063448Y20787D01*
X199949027Y-24334D01*
X199833922Y-111622D01*
X199746634Y-226727D01*
X199693641Y-361108D01*
X199683500Y-445551D01*
X199683500Y-879799D01*
X199664593Y-937990D01*
X199654504Y-949803D01*
X198767516Y-1836791D01*
X198714794Y-1928108D01*
X198714792Y-1928112D01*
X198708308Y-1952309D01*
X198708309Y-1952310D01*
X198687500Y-2029973D01*
X198687500Y-3050756D01*
X198668593Y-3108947D01*
X198658504Y-3120759D01*
X198607482Y-3171781D01*
X198607480Y-3171783D01*
X198607480Y-3171784D01*
X198528423Y-3308716D01*
X198487500Y-3461443D01*
X198487500Y-3619557D01*
X198528423Y-3772284D01*
X198607480Y-3909216D01*
X198658505Y-3960241D01*
X198686281Y-4014756D01*
X198687500Y-4030243D01*
X198687500Y-8365899D01*
X198668593Y-8424090D01*
X198658504Y-8435903D01*
X195050103Y-12044304D01*
X194995586Y-12072081D01*
X194980099Y-12073300D01*
X194907943Y-12073300D01*
X194784487Y-12106380D01*
X194755216Y-12114223D01*
X194618284Y-12193280D01*
X194506480Y-12305084D01*
X194427423Y-12442016D01*
X194386500Y-12594744D01*
X194386500Y-12666898D01*
X194367593Y-12725089D01*
X194357504Y-12736902D01*
X193153632Y-13940773D01*
X193099115Y-13968550D01*
X193038683Y-13958979D01*
X192997893Y-13920271D01*
X192918920Y-13783484D01*
X192898591Y-13763155D01*
X192867896Y-13732459D01*
X192840119Y-13677942D01*
X192838900Y-13662456D01*
X192838900Y-8255014D01*
X192838901Y-8255001D01*
X192838901Y-8141572D01*
X192838900Y-8141570D01*
X192811607Y-8039713D01*
X192787239Y-7997507D01*
X192787238Y-7997506D01*
X192758880Y-7948387D01*
X192684313Y-7873820D01*
X192684310Y-7873818D01*
X192680855Y-7870362D01*
X192680849Y-7870357D01*
X192297896Y-7487403D01*
X192270119Y-7432887D01*
X192268900Y-7417400D01*
X192268900Y-7305500D01*
X192287807Y-7247309D01*
X192337307Y-7211345D01*
X192367900Y-7206500D01*
X192499255Y-7206500D01*
X192499257Y-7206500D01*
X192651984Y-7165577D01*
X192788916Y-7086520D01*
X192900720Y-6974716D01*
X192979777Y-6837784D01*
X193020700Y-6685057D01*
X193020700Y-6604847D01*
X193033964Y-6555346D01*
X193082207Y-6471788D01*
X193109500Y-6369927D01*
X193109500Y-6264473D01*
X193109500Y-5047543D01*
X193128407Y-4989352D01*
X193138490Y-4977545D01*
X193189520Y-4926516D01*
X193268577Y-4789584D01*
X193309500Y-4636857D01*
X193309500Y-4528243D01*
X193322765Y-4478741D01*
X193332205Y-4462390D01*
X193332204Y-4462390D01*
X193332207Y-4462387D01*
X193359500Y-4360527D01*
X193359500Y-1633843D01*
X193378407Y-1575652D01*
X193388490Y-1563845D01*
X193439520Y-1512816D01*
X193518577Y-1375884D01*
X193559500Y-1223157D01*
X193559500Y-1065043D01*
X193518577Y-912316D01*
X193439520Y-775384D01*
X193327716Y-663580D01*
X193190784Y-584523D01*
X193038057Y-543600D01*
X192879943Y-543600D01*
X192727216Y-584523D01*
X192590284Y-663580D01*
X192478480Y-775384D01*
X192399423Y-912316D01*
X192358500Y-1065043D01*
X192358500Y-1223157D01*
X192399423Y-1375884D01*
X192478480Y-1512816D01*
X192529505Y-1563841D01*
X192557281Y-1618356D01*
X192558500Y-1633843D01*
X192558500Y-3900477D01*
X192539593Y-3958668D01*
X192490093Y-3994632D01*
X192485128Y-3996102D01*
X192477221Y-3998221D01*
X192477218Y-3998222D01*
X192477216Y-3998222D01*
X192477216Y-3998223D01*
X192417398Y-4032758D01*
X192357551Y-4045479D01*
X192301656Y-4020592D01*
X192271063Y-3967604D01*
X192268900Y-3947021D01*
X192268900Y-2128074D01*
X192268900Y-2128073D01*
X192252584Y-2067180D01*
X192252584Y-2067179D01*
X192252584Y-2067178D01*
X192242908Y-2031067D01*
X192241607Y-2026212D01*
X192241600Y-2026200D01*
X192188883Y-1934891D01*
X192188882Y-1934890D01*
X192188881Y-1934889D01*
X192188880Y-1934887D01*
X191436096Y-1182103D01*
X191408319Y-1127586D01*
X191407100Y-1112099D01*
X191407100Y-1039944D01*
X191407100Y-1039943D01*
X191366177Y-887216D01*
X191287120Y-750284D01*
X191175316Y-638480D01*
X191038384Y-559423D01*
X190885657Y-518500D01*
X190727543Y-518500D01*
X190574816Y-559423D01*
X190437884Y-638480D01*
X190326080Y-750284D01*
X190247023Y-887216D01*
X190206100Y-1039943D01*
X190206100Y-1198057D01*
X190247023Y-1350784D01*
X190326080Y-1487716D01*
X190347752Y-1509388D01*
X190375528Y-1563903D01*
X190365957Y-1624335D01*
X190327248Y-1665126D01*
X190288185Y-1687679D01*
X190288184Y-1687680D01*
X190176380Y-1799484D01*
X190097323Y-1936416D01*
X190056400Y-2089143D01*
X190056400Y-2247257D01*
X190097323Y-2399984D01*
X190176380Y-2536916D01*
X190227405Y-2587941D01*
X190255181Y-2642456D01*
X190256400Y-2657943D01*
X190256400Y-5656699D01*
X190237493Y-5714890D01*
X190227404Y-5726703D01*
X189384703Y-6569404D01*
X189330186Y-6597181D01*
X189314699Y-6598400D01*
X189242543Y-6598400D01*
X189089816Y-6639323D01*
X188952884Y-6718380D01*
X188841080Y-6830184D01*
X188762023Y-6967116D01*
X188721100Y-7119843D01*
X188721100Y-7277957D01*
X188762023Y-7430684D01*
X188841080Y-7567616D01*
X188952884Y-7679420D01*
X189089816Y-7758477D01*
X189242543Y-7799400D01*
X189242545Y-7799400D01*
X189400655Y-7799400D01*
X189400657Y-7799400D01*
X189553384Y-7758477D01*
X189690316Y-7679420D01*
X189802120Y-7567616D01*
X189881177Y-7430684D01*
X189922100Y-7277957D01*
X189922100Y-7205800D01*
X189941007Y-7147609D01*
X189951090Y-7135802D01*
X190977380Y-6109513D01*
X191006653Y-6058811D01*
X191030107Y-6018187D01*
X191057400Y-5916327D01*
X191057400Y-2657943D01*
X191076307Y-2599752D01*
X191086390Y-2587945D01*
X191137420Y-2536916D01*
X191216477Y-2399984D01*
X191236490Y-2325292D01*
X191269813Y-2273980D01*
X191326934Y-2252053D01*
X191386035Y-2267888D01*
X191402120Y-2280913D01*
X191438904Y-2317697D01*
X191466681Y-2372214D01*
X191467900Y-2387701D01*
X191467900Y-7571573D01*
X191467900Y-7677027D01*
X191480865Y-7725413D01*
X191495194Y-7778892D01*
X191547916Y-7870208D01*
X191547920Y-7870213D01*
X192008903Y-8331195D01*
X192036681Y-8385712D01*
X192037900Y-8401199D01*
X192037900Y-13662456D01*
X192018993Y-13720647D01*
X192008904Y-13732459D01*
X191957882Y-13783481D01*
X191957880Y-13783483D01*
X191957880Y-13783484D01*
X191878823Y-13920416D01*
X191843506Y-14052223D01*
X191837900Y-14073144D01*
X191837900Y-14204600D01*
X191818993Y-14262791D01*
X191769493Y-14298755D01*
X191738900Y-14303600D01*
X191703301Y-14303600D01*
X191645110Y-14284693D01*
X191633297Y-14274604D01*
X188961832Y-11603139D01*
X188934055Y-11548622D01*
X188943626Y-11488190D01*
X188946083Y-11483665D01*
X188995607Y-11397888D01*
X189022900Y-11296027D01*
X189022900Y-11231143D01*
X189041807Y-11172952D01*
X189051890Y-11161145D01*
X189102920Y-11110116D01*
X189181977Y-10973184D01*
X189222900Y-10820457D01*
X189222900Y-10662343D01*
X189181977Y-10509616D01*
X189102920Y-10372684D01*
X189094724Y-10364488D01*
X189057096Y-10326859D01*
X189029319Y-10272342D01*
X189028100Y-10256856D01*
X189028100Y-9891714D01*
X189047007Y-9833523D01*
X189090778Y-9799618D01*
X189218975Y-9749064D01*
X189334078Y-9661778D01*
X189421364Y-9546675D01*
X189474359Y-9412290D01*
X189484500Y-9327844D01*
X189484500Y-8745556D01*
X189474359Y-8661110D01*
X189421364Y-8526725D01*
X189334078Y-8411622D01*
X189218975Y-8324336D01*
X189218974Y-8324335D01*
X189218972Y-8324334D01*
X189084591Y-8271341D01*
X189000148Y-8261200D01*
X189000144Y-8261200D01*
X188467856Y-8261200D01*
X188467851Y-8261200D01*
X188401896Y-8269121D01*
X188383410Y-8271341D01*
X188383409Y-8271341D01*
X188377108Y-8272098D01*
X188376750Y-8269121D01*
X188327842Y-8265757D01*
X188294821Y-8243928D01*
X186735948Y-6685055D01*
X185108713Y-5057820D01*
X185108710Y-5057818D01*
X185108709Y-5057817D01*
X185108708Y-5057816D01*
X185017391Y-5005094D01*
X185017393Y-5005094D01*
X184977870Y-4994504D01*
X184915527Y-4977800D01*
X184915525Y-4977800D01*
X177477499Y-4977800D01*
X177419308Y-4958893D01*
X177407495Y-4948803D01*
X177138496Y-4679803D01*
X177110719Y-4625287D01*
X177109500Y-4609800D01*
X177109500Y-4413628D01*
X177109499Y-4413623D01*
X177106710Y-4383885D01*
X177106710Y-4383881D01*
X177062852Y-4258543D01*
X177062851Y-4258541D01*
X176984002Y-4151704D01*
X176983995Y-4151697D01*
X176877158Y-4072848D01*
X176795802Y-4044380D01*
X176747121Y-4007315D01*
X176729500Y-3950936D01*
X176729500Y-3211898D01*
X176748407Y-3153707D01*
X176769711Y-3132243D01*
X176783999Y-3121699D01*
X176783999Y-3121697D01*
X176784001Y-3121697D01*
X176784001Y-3121696D01*
X176862851Y-3014858D01*
X176862850Y-3014858D01*
X176862852Y-3014857D01*
X176906710Y-2889519D01*
X176909500Y-2859766D01*
X176909500Y-2416199D01*
X176928407Y-2358008D01*
X176977907Y-2322044D01*
X177008500Y-2317199D01*
X177046457Y-2317199D01*
X177052340Y-2316647D01*
X177075879Y-2314441D01*
X177199794Y-2271081D01*
X177284144Y-2208828D01*
X177305418Y-2193127D01*
X177305419Y-2193125D01*
X177305423Y-2193123D01*
X177383381Y-2087494D01*
X177426741Y-1963579D01*
X177429500Y-1934157D01*
X177429499Y-1559244D01*
X177426741Y-1529821D01*
X177383381Y-1405906D01*
X177361224Y-1375884D01*
X177305427Y-1300281D01*
X177305418Y-1300272D01*
X177199795Y-1222319D01*
X177075883Y-1178960D01*
X177075874Y-1178958D01*
X177046467Y-1176200D01*
X177046457Y-1176200D01*
X176845901Y-1176200D01*
X176787710Y-1157293D01*
X176775897Y-1147204D01*
X176607696Y-979003D01*
X176579919Y-924486D01*
X176578700Y-908999D01*
X176578700Y-603500D01*
X176597607Y-545309D01*
X176647107Y-509345D01*
X176677700Y-504500D01*
X177320799Y-504500D01*
X177378990Y-523407D01*
X177390803Y-533496D01*
X179107004Y-2249697D01*
X179134781Y-2304214D01*
X179136000Y-2319701D01*
X179136000Y-2391857D01*
X179176923Y-2544584D01*
X179255980Y-2681516D01*
X179367784Y-2793320D01*
X179504716Y-2872377D01*
X179657443Y-2913300D01*
X179657445Y-2913300D01*
X179815555Y-2913300D01*
X179815557Y-2913300D01*
X179968284Y-2872377D01*
X180105216Y-2793320D01*
X180217020Y-2681516D01*
X180296077Y-2544584D01*
X180337000Y-2391857D01*
X180337000Y-2233743D01*
X180296077Y-2081016D01*
X180217020Y-1944084D01*
X180167279Y-1894343D01*
X187649300Y-1894343D01*
X187649300Y-2052457D01*
X187690223Y-2205184D01*
X187769280Y-2342116D01*
X187881084Y-2453920D01*
X188018016Y-2532977D01*
X188170743Y-2573900D01*
X188170745Y-2573900D01*
X188328855Y-2573900D01*
X188328857Y-2573900D01*
X188481584Y-2532977D01*
X188618516Y-2453920D01*
X188730320Y-2342116D01*
X188809377Y-2205184D01*
X188850300Y-2052457D01*
X188850300Y-1980301D01*
X188869207Y-1922110D01*
X188879296Y-1910297D01*
X191605897Y816304D01*
X191660414Y844081D01*
X191675901Y845300D01*
X192760856Y845300D01*
X192819047Y826393D01*
X192830859Y816304D01*
X192881881Y765282D01*
X192881883Y765280D01*
X192881884Y765280D01*
X193018816Y686223D01*
X193171543Y645300D01*
X193171545Y645300D01*
X193329655Y645300D01*
X193329657Y645300D01*
X193482384Y686223D01*
X193619316Y765280D01*
X193731120Y877084D01*
X193810177Y1014016D01*
X193851100Y1166743D01*
X193851100Y1324857D01*
X193810177Y1477584D01*
X193745813Y1589066D01*
X194523500Y1589066D01*
X194523500Y1589064D01*
X194523500Y1437535D01*
X194562720Y1291160D01*
X194638481Y1159939D01*
X194745639Y1052781D01*
X194876861Y977020D01*
X194876859Y977020D01*
X194954641Y956179D01*
X195023234Y937800D01*
X195023236Y937800D01*
X195174764Y937800D01*
X195174766Y937800D01*
X195321135Y977019D01*
X195321139Y977020D01*
X195452360Y1052781D01*
X195452362Y1052783D01*
X195452365Y1052785D01*
X195559515Y1159935D01*
X195559516Y1159937D01*
X195559518Y1159939D01*
X195635279Y1291160D01*
X195635279Y1291162D01*
X195635281Y1291165D01*
X195674500Y1437534D01*
X195674500Y1589066D01*
X195635281Y1735435D01*
X195606995Y1784427D01*
X195559518Y1866660D01*
X195559517Y1866660D01*
X195559515Y1866665D01*
X195452365Y1973815D01*
X195321138Y2049579D01*
X195321137Y2049579D01*
X195321135Y2049581D01*
X195174766Y2088800D01*
X195023234Y2088800D01*
X194876865Y2049581D01*
X194876862Y2049579D01*
X194876860Y2049579D01*
X194745639Y1973818D01*
X194745637Y1973816D01*
X194745635Y1973815D01*
X194638485Y1866665D01*
X194638483Y1866662D01*
X194638481Y1866660D01*
X194562720Y1735439D01*
X194562719Y1735435D01*
X194523500Y1589066D01*
X193745813Y1589066D01*
X193731120Y1614516D01*
X193619316Y1726320D01*
X193482384Y1805377D01*
X193329657Y1846300D01*
X193171543Y1846300D01*
X193018816Y1805377D01*
X192881884Y1726320D01*
X192881881Y1726317D01*
X192830859Y1675296D01*
X192776342Y1647519D01*
X192760856Y1646300D01*
X191521727Y1646300D01*
X191416273Y1646300D01*
X191314412Y1619007D01*
X191314409Y1619005D01*
X191314407Y1619005D01*
X191223091Y1566283D01*
X191223090Y1566282D01*
X191223087Y1566280D01*
X189695607Y38800D01*
X188312903Y-1343904D01*
X188258386Y-1371681D01*
X188242899Y-1372900D01*
X188170743Y-1372900D01*
X188018016Y-1413823D01*
X187881084Y-1492880D01*
X187769280Y-1604684D01*
X187690223Y-1741616D01*
X187649300Y-1894343D01*
X180167279Y-1894343D01*
X180105216Y-1832280D01*
X179968284Y-1753223D01*
X179815557Y-1712300D01*
X179815555Y-1712300D01*
X179743401Y-1712300D01*
X179685210Y-1693393D01*
X179673397Y-1683304D01*
X179212412Y-1222319D01*
X177773613Y216480D01*
X177682291Y269205D01*
X177682290Y269205D01*
X177682288Y269207D01*
X177580427Y296500D01*
X177580425Y296500D01*
X176677700Y296500D01*
X176619509Y315407D01*
X176583545Y364907D01*
X176578700Y395500D01*
X176578700Y1589066D01*
X188743500Y1589066D01*
X188743500Y1589064D01*
X188743500Y1437535D01*
X188782720Y1291160D01*
X188858481Y1159939D01*
X188965639Y1052781D01*
X189096861Y977020D01*
X189096859Y977020D01*
X189174641Y956179D01*
X189243234Y937800D01*
X189243236Y937800D01*
X189394764Y937800D01*
X189394766Y937800D01*
X189541135Y977019D01*
X189541139Y977020D01*
X189672360Y1052781D01*
X189672362Y1052783D01*
X189672365Y1052785D01*
X189779515Y1159935D01*
X189779516Y1159937D01*
X189779518Y1159939D01*
X189855279Y1291160D01*
X189855279Y1291162D01*
X189855281Y1291165D01*
X189894500Y1437534D01*
X189894500Y1589066D01*
X189855281Y1735435D01*
X189826995Y1784427D01*
X189779518Y1866660D01*
X189779517Y1866660D01*
X189779515Y1866665D01*
X189672365Y1973815D01*
X189541138Y2049579D01*
X189541137Y2049579D01*
X189541135Y2049581D01*
X189394766Y2088800D01*
X189243234Y2088800D01*
X189096865Y2049581D01*
X189096862Y2049579D01*
X189096860Y2049579D01*
X188965639Y1973818D01*
X188965637Y1973816D01*
X188965635Y1973815D01*
X188858485Y1866665D01*
X188858483Y1866662D01*
X188858481Y1866660D01*
X188782720Y1735439D01*
X188782719Y1735435D01*
X188743500Y1589066D01*
X176578700Y1589066D01*
X176578700Y1672893D01*
X176578701Y1672911D01*
X176578701Y1784427D01*
X176578700Y1784429D01*
X176573087Y1805376D01*
X176551407Y1886287D01*
X176498680Y1977613D01*
X176424113Y2052180D01*
X176424110Y2052181D01*
X174733994Y3742297D01*
X174706219Y3796812D01*
X174705000Y3812299D01*
X174705000Y3884455D01*
X174705000Y3884457D01*
X174664077Y4037184D01*
X174585020Y4174116D01*
X174473216Y4285920D01*
X174336284Y4364977D01*
X174183557Y4405900D01*
X174025443Y4405900D01*
X173872716Y4364977D01*
X173735784Y4285920D01*
X173623980Y4174116D01*
X173544923Y4037184D01*
X173504000Y3884457D01*
X173504000Y3726343D01*
X173544923Y3573616D01*
X173623980Y3436684D01*
X173735784Y3324880D01*
X173872716Y3245823D01*
X174025443Y3204900D01*
X174097599Y3204900D01*
X174155790Y3185993D01*
X174167603Y3175904D01*
X175748704Y1594803D01*
X175776481Y1540286D01*
X175777700Y1524799D01*
X175777700Y-51273D01*
X175777700Y-1063173D01*
X175777700Y-1168627D01*
X175792311Y-1223157D01*
X175804994Y-1270492D01*
X175857716Y-1361808D01*
X175857720Y-1361813D01*
X176159504Y-1663598D01*
X176187281Y-1718114D01*
X176188500Y-1733601D01*
X176188500Y-1931299D01*
X176169593Y-1989490D01*
X176120093Y-2025454D01*
X176110630Y-2028018D01*
X176106178Y-2028990D01*
X175980841Y-2072848D01*
X175874004Y-2151697D01*
X175873997Y-2151704D01*
X175795148Y-2258541D01*
X175751291Y-2383876D01*
X175751289Y-2383885D01*
X175748500Y-2413623D01*
X175748500Y-2859776D01*
X175751289Y-2889514D01*
X175751291Y-2889523D01*
X175795148Y-3014858D01*
X175873998Y-3121696D01*
X175873998Y-3121697D01*
X175874001Y-3121699D01*
X175888287Y-3132243D01*
X175923880Y-3182009D01*
X175928500Y-3211898D01*
X175928500Y-3620599D01*
X175909593Y-3678790D01*
X175860093Y-3714754D01*
X175798907Y-3714754D01*
X175759496Y-3690603D01*
X175724213Y-3655320D01*
X174277721Y-2208828D01*
X172829413Y-760520D01*
X172829410Y-760518D01*
X172829409Y-760517D01*
X172829408Y-760516D01*
X172738091Y-707794D01*
X172738093Y-707794D01*
X172698570Y-697204D01*
X172636227Y-680500D01*
X172636225Y-680500D01*
X172194106Y-680500D01*
X172194090Y-680499D01*
X172188027Y-680499D01*
X172082573Y-680499D01*
X172082570Y-680499D01*
X171980713Y-707792D01*
X171980709Y-707794D01*
X171889387Y-760519D01*
X171814819Y-835086D01*
X171814820Y-835087D01*
X163577916Y-9071991D01*
X163525193Y-9163311D01*
X163525192Y-9163311D01*
X163525193Y-9163312D01*
X163497900Y-9265173D01*
X163497900Y-10323099D01*
X163478993Y-10381290D01*
X163429493Y-10417254D01*
X163368307Y-10417254D01*
X163328896Y-10393103D01*
X160278396Y-7342603D01*
X160250619Y-7288086D01*
X160249400Y-7272599D01*
X160249400Y-5226443D01*
X160268307Y-5168252D01*
X160278390Y-5156445D01*
X160329420Y-5105416D01*
X160408477Y-4968484D01*
X160449400Y-4815757D01*
X160449400Y-4657643D01*
X160408477Y-4504916D01*
X160329420Y-4367984D01*
X160217616Y-4256180D01*
X160080684Y-4177123D01*
X159927957Y-4136200D01*
X159769843Y-4136200D01*
X159617116Y-4177123D01*
X159480184Y-4256180D01*
X159368380Y-4367984D01*
X159289323Y-4504916D01*
X159248400Y-4657643D01*
X159248400Y-4815757D01*
X159289323Y-4968484D01*
X159368380Y-5105416D01*
X159419405Y-5156441D01*
X159447181Y-5210956D01*
X159448400Y-5226443D01*
X159448400Y-7426773D01*
X159448400Y-7532227D01*
X159458943Y-7571573D01*
X159475694Y-7634092D01*
X159528416Y-7725408D01*
X159528418Y-7725410D01*
X159528420Y-7725413D01*
X166309687Y-14506680D01*
X166309689Y-14506681D01*
X166309691Y-14506683D01*
X166401008Y-14559405D01*
X166401006Y-14559405D01*
X166401010Y-14559406D01*
X166401012Y-14559407D01*
X166502873Y-14586700D01*
X170223956Y-14586700D01*
X170282147Y-14605607D01*
X170293959Y-14615696D01*
X170322907Y-14644643D01*
X170344984Y-14666720D01*
X170481916Y-14745777D01*
X170634643Y-14786700D01*
X170634645Y-14786700D01*
X170792755Y-14786700D01*
X170792757Y-14786700D01*
X170945484Y-14745777D01*
X171082416Y-14666720D01*
X171174498Y-14574637D01*
X171229013Y-14546862D01*
X171289445Y-14556433D01*
X171332710Y-14599698D01*
X171343500Y-14644643D01*
X171343500Y-14690857D01*
X171384423Y-14843584D01*
X171463480Y-14980516D01*
X171575284Y-15092320D01*
X171712216Y-15171377D01*
X171864943Y-15212300D01*
X171864945Y-15212300D01*
X172023055Y-15212300D01*
X172023057Y-15212300D01*
X172175784Y-15171377D01*
X172312716Y-15092320D01*
X172424520Y-14980516D01*
X172503577Y-14843584D01*
X172544500Y-14690857D01*
X172544500Y-14532743D01*
X172503577Y-14380016D01*
X172424520Y-14243084D01*
X172312716Y-14131280D01*
X172175784Y-14052223D01*
X172023057Y-14011300D01*
X172023055Y-14011300D01*
X171950901Y-14011300D01*
X171892710Y-13992393D01*
X171880897Y-13982304D01*
X169249096Y-11350503D01*
X169221319Y-11295986D01*
X169220100Y-11280499D01*
X169220100Y-10847843D01*
X169239007Y-10789652D01*
X169249090Y-10777845D01*
X169300120Y-10726816D01*
X169379177Y-10589884D01*
X169420100Y-10437157D01*
X169420100Y-10279043D01*
X169379177Y-10126316D01*
X169326859Y-10035699D01*
X169314138Y-9975852D01*
X169339025Y-9919956D01*
X169392013Y-9889363D01*
X169412596Y-9887200D01*
X172544756Y-9887200D01*
X172602947Y-9906107D01*
X172614759Y-9916196D01*
X172663567Y-9965003D01*
X172665784Y-9967220D01*
X172802716Y-10046277D01*
X172955443Y-10087200D01*
X172955445Y-10087200D01*
X173113555Y-10087200D01*
X173113557Y-10087200D01*
X173266284Y-10046277D01*
X173366137Y-9988627D01*
X173425982Y-9975906D01*
X173481877Y-10000792D01*
X173512470Y-10053780D01*
X173506075Y-10114630D01*
X173501371Y-10123863D01*
X173460523Y-10194614D01*
X173440159Y-10270615D01*
X173419600Y-10347343D01*
X173419600Y-10505457D01*
X173460523Y-10658184D01*
X173539580Y-10795116D01*
X173651384Y-10906920D01*
X173788316Y-10985977D01*
X173941043Y-11026900D01*
X173941045Y-11026900D01*
X174099155Y-11026900D01*
X174099157Y-11026900D01*
X174251884Y-10985977D01*
X174251996Y-10985911D01*
X174252087Y-10985892D01*
X174257878Y-10983494D01*
X174258322Y-10984566D01*
X174311844Y-10973188D01*
X174367741Y-10998072D01*
X174398336Y-11051059D01*
X174400500Y-11071646D01*
X174400500Y-14255973D01*
X174400500Y-14361427D01*
X174405481Y-14380016D01*
X174427794Y-14463292D01*
X174480516Y-14554608D01*
X174480518Y-14554610D01*
X174480520Y-14554613D01*
X177046295Y-17120387D01*
X178919504Y-18993596D01*
X178947281Y-19048113D01*
X178948500Y-19063600D01*
X178948500Y-19259776D01*
X178951289Y-19289514D01*
X178951291Y-19289523D01*
X178995148Y-19414858D01*
X179073997Y-19521695D01*
X179074004Y-19521702D01*
X179180841Y-19600551D01*
X179180842Y-19600551D01*
X179180843Y-19600552D01*
X179306181Y-19644410D01*
X179333619Y-19646982D01*
X179335923Y-19647199D01*
X179335928Y-19647200D01*
X179335934Y-19647200D01*
X179722072Y-19647200D01*
X179722075Y-19647199D01*
X179751819Y-19644410D01*
X179877157Y-19600552D01*
X179983999Y-19521699D01*
X180062852Y-19414857D01*
X180106710Y-19289519D01*
X180109500Y-19259766D01*
X180109500Y-18813634D01*
X180109500Y-18813628D01*
X180109499Y-18813623D01*
X180109282Y-18811319D01*
X180106710Y-18783881D01*
X180062852Y-18658543D01*
X180054790Y-18647619D01*
X179984002Y-18551704D01*
X179983995Y-18551697D01*
X179877158Y-18472848D01*
X179751823Y-18428991D01*
X179751814Y-18428989D01*
X179722076Y-18426200D01*
X179722066Y-18426200D01*
X179525900Y-18426200D01*
X179467709Y-18407293D01*
X179455896Y-18397204D01*
X175230496Y-14171803D01*
X175202719Y-14117286D01*
X175201500Y-14101799D01*
X175201500Y-9383201D01*
X175220407Y-9325010D01*
X175269907Y-9289046D01*
X175331093Y-9289046D01*
X175370504Y-9313197D01*
X179678304Y-13620997D01*
X179706081Y-13675514D01*
X179707300Y-13691001D01*
X179707300Y-13763157D01*
X179748223Y-13915884D01*
X179827280Y-14052816D01*
X179939084Y-14164620D01*
X180076016Y-14243677D01*
X180228743Y-14284600D01*
X180228745Y-14284600D01*
X180386855Y-14284600D01*
X180386857Y-14284600D01*
X180539584Y-14243677D01*
X180676516Y-14164620D01*
X180788320Y-14052816D01*
X180867377Y-13915884D01*
X180883311Y-13856414D01*
X180916633Y-13805102D01*
X180973754Y-13783174D01*
X181032855Y-13799009D01*
X181048941Y-13812034D01*
X181099504Y-13862597D01*
X181127281Y-13917114D01*
X181128500Y-13932601D01*
X181128500Y-18461501D01*
X181109593Y-18519692D01*
X181088290Y-18541155D01*
X181074003Y-18551699D01*
X181073996Y-18551706D01*
X180995148Y-18658541D01*
X180951291Y-18783876D01*
X180951289Y-18783885D01*
X180948500Y-18813623D01*
X180948500Y-19259776D01*
X180951289Y-19289514D01*
X180951291Y-19289523D01*
X180995148Y-19414858D01*
X181073997Y-19521695D01*
X181074004Y-19521702D01*
X181180841Y-19600551D01*
X181180842Y-19600551D01*
X181180843Y-19600552D01*
X181306181Y-19644410D01*
X181333619Y-19646982D01*
X181335923Y-19647199D01*
X181335928Y-19647200D01*
X181335934Y-19647200D01*
X181722072Y-19647200D01*
X181722075Y-19647199D01*
X181751819Y-19644410D01*
X181877157Y-19600552D01*
X181983999Y-19521699D01*
X182062852Y-19414857D01*
X182106710Y-19289519D01*
X182109500Y-19259766D01*
X182109500Y-18813634D01*
X182109500Y-18813628D01*
X182109499Y-18813623D01*
X182109282Y-18811319D01*
X182106710Y-18783881D01*
X182062852Y-18658543D01*
X182053890Y-18646400D01*
X181984003Y-18551706D01*
X181984001Y-18551704D01*
X181983999Y-18551701D01*
X181969710Y-18541155D01*
X181934119Y-18491387D01*
X181929500Y-18461501D01*
X181929500Y-14434301D01*
X181948407Y-14376110D01*
X181997907Y-14340146D01*
X182059093Y-14340146D01*
X182098504Y-14364297D01*
X183099504Y-15365297D01*
X183127281Y-15419814D01*
X183128500Y-15435301D01*
X183128500Y-18461501D01*
X183109593Y-18519692D01*
X183088290Y-18541155D01*
X183074003Y-18551699D01*
X183073996Y-18551706D01*
X182995148Y-18658541D01*
X182951291Y-18783876D01*
X182951289Y-18783885D01*
X182948500Y-18813623D01*
X182948500Y-19259776D01*
X182951289Y-19289514D01*
X182951291Y-19289523D01*
X182995148Y-19414858D01*
X183073997Y-19521695D01*
X183074004Y-19521702D01*
X183180841Y-19600551D01*
X183180842Y-19600551D01*
X183180843Y-19600552D01*
X183306181Y-19644410D01*
X183333619Y-19646982D01*
X183335923Y-19647199D01*
X183335928Y-19647200D01*
X183335934Y-19647200D01*
X183722072Y-19647200D01*
X183722075Y-19647199D01*
X183751819Y-19644410D01*
X183877157Y-19600552D01*
X183983999Y-19521699D01*
X184062852Y-19414857D01*
X184106710Y-19289519D01*
X184109500Y-19259766D01*
X184109500Y-18813634D01*
X184109500Y-18813628D01*
X184109499Y-18813623D01*
X184109282Y-18811319D01*
X184106710Y-18783881D01*
X184062852Y-18658543D01*
X184053890Y-18646400D01*
X183984003Y-18551706D01*
X183984001Y-18551704D01*
X183983999Y-18551701D01*
X183969710Y-18541155D01*
X183934119Y-18491387D01*
X183929500Y-18461501D01*
X183929500Y-15175674D01*
X183928349Y-15171377D01*
X183902207Y-15073813D01*
X183849480Y-14982487D01*
X183847508Y-14980515D01*
X183774913Y-14907919D01*
X183774913Y-14907920D01*
X179048796Y-10181803D01*
X179021019Y-10127286D01*
X179019800Y-10111799D01*
X179019800Y-8012001D01*
X179038707Y-7953810D01*
X179088207Y-7917846D01*
X179149393Y-7917846D01*
X179188804Y-7941997D01*
X181085604Y-9838797D01*
X181113381Y-9893314D01*
X181114600Y-9908801D01*
X181114600Y-9980957D01*
X181155523Y-10133684D01*
X181234580Y-10270616D01*
X181346384Y-10382420D01*
X181483316Y-10461477D01*
X181636043Y-10502400D01*
X181708199Y-10502400D01*
X181766390Y-10521307D01*
X181778203Y-10531396D01*
X182005037Y-10758230D01*
X182032814Y-10812747D01*
X182023243Y-10873179D01*
X181979978Y-10916444D01*
X181919546Y-10926015D01*
X181909410Y-10923861D01*
X181881729Y-10916444D01*
X181768857Y-10886200D01*
X181610743Y-10886200D01*
X181458016Y-10927123D01*
X181321084Y-11006180D01*
X181209280Y-11117984D01*
X181130223Y-11254916D01*
X181089300Y-11407643D01*
X181089300Y-11565757D01*
X181130223Y-11718484D01*
X181209280Y-11855416D01*
X181321084Y-11967220D01*
X181458016Y-12046277D01*
X181610743Y-12087200D01*
X181682899Y-12087200D01*
X181741090Y-12106107D01*
X181752903Y-12116196D01*
X185754004Y-16117297D01*
X185781781Y-16171814D01*
X185783000Y-16187301D01*
X185783000Y-18175300D01*
X185764093Y-18233491D01*
X185754004Y-18245303D01*
X185602105Y-18397203D01*
X185547588Y-18424981D01*
X185532101Y-18426200D01*
X185335923Y-18426200D01*
X185306185Y-18428989D01*
X185306176Y-18428991D01*
X185180841Y-18472848D01*
X185074004Y-18551697D01*
X185073997Y-18551704D01*
X184995148Y-18658541D01*
X184951291Y-18783876D01*
X184951289Y-18783885D01*
X184948500Y-18813623D01*
X184948500Y-19259776D01*
X184951289Y-19289514D01*
X184951291Y-19289523D01*
X184995148Y-19414858D01*
X185073997Y-19521695D01*
X185074004Y-19521702D01*
X185180841Y-19600551D01*
X185180842Y-19600551D01*
X185180843Y-19600552D01*
X185306181Y-19644410D01*
X185333619Y-19646982D01*
X185335923Y-19647199D01*
X185335928Y-19647200D01*
X185335934Y-19647200D01*
X185722072Y-19647200D01*
X185722075Y-19647199D01*
X185751819Y-19644410D01*
X185877157Y-19600552D01*
X185983999Y-19521699D01*
X186062852Y-19414857D01*
X186106710Y-19289519D01*
X186109500Y-19259766D01*
X186109500Y-19063600D01*
X186128407Y-19005409D01*
X186138496Y-18993596D01*
X186320396Y-18811696D01*
X186374913Y-18783919D01*
X186390400Y-18782700D01*
X186872600Y-18782700D01*
X186930791Y-18801607D01*
X186942596Y-18811689D01*
X186954502Y-18823594D01*
X186982280Y-18878108D01*
X186983500Y-18893599D01*
X186983500Y-19327848D01*
X186993641Y-19412291D01*
X187046634Y-19546672D01*
X187046635Y-19546674D01*
X187046636Y-19546675D01*
X187133922Y-19661778D01*
X187249025Y-19749064D01*
X187249027Y-19749064D01*
X187249030Y-19749067D01*
X187253190Y-19751406D01*
X187294646Y-19796407D01*
X187301734Y-19857180D01*
X187271746Y-19910513D01*
X187216137Y-19936034D01*
X187204669Y-19936700D01*
X156718811Y-19936700D01*
X156713997Y-19936583D01*
X156710030Y-19936389D01*
X156645301Y-19933238D01*
X156635550Y-19932278D01*
X156577297Y-19923613D01*
X156567784Y-19921717D01*
X156510593Y-19907376D01*
X156501343Y-19904570D01*
X156445900Y-19884745D01*
X156436882Y-19881008D01*
X156383575Y-19855771D01*
X156375044Y-19851209D01*
X156324489Y-19820910D01*
X156316375Y-19815486D01*
X156269075Y-19780376D01*
X156261624Y-19774261D01*
X156217931Y-19734688D01*
X156211011Y-19727768D01*
X156171438Y-19684075D01*
X156165323Y-19676624D01*
X156130213Y-19629324D01*
X156124789Y-19621210D01*
X156094490Y-19570655D01*
X156089928Y-19562124D01*
X156064691Y-19508817D01*
X156060958Y-19499809D01*
X156041124Y-19444343D01*
X156038323Y-19435106D01*
X156023982Y-19377915D01*
X156022086Y-19368402D01*
X156013421Y-19310149D01*
X156012461Y-19300397D01*
X156009117Y-19231703D01*
X156009000Y-19226889D01*
X156009000Y-17745551D01*
X172483500Y-17745551D01*
X172483500Y-18327848D01*
X172493641Y-18412291D01*
X172546634Y-18546672D01*
X172546635Y-18546674D01*
X172546636Y-18546675D01*
X172633922Y-18661778D01*
X172749025Y-18749064D01*
X172749026Y-18749064D01*
X172749027Y-18749065D01*
X172772600Y-18758361D01*
X172883410Y-18802059D01*
X172967856Y-18812200D01*
X172967858Y-18812200D01*
X173500142Y-18812200D01*
X173500144Y-18812200D01*
X173584590Y-18802059D01*
X173718975Y-18749064D01*
X173834078Y-18661778D01*
X173921364Y-18546675D01*
X173974359Y-18412290D01*
X173984500Y-18327844D01*
X173984500Y-17745556D01*
X173974359Y-17661110D01*
X173921364Y-17526725D01*
X173921363Y-17526722D01*
X173902516Y-17501869D01*
X173882421Y-17444078D01*
X173882400Y-17442050D01*
X173882400Y-13769443D01*
X173901307Y-13711252D01*
X173911390Y-13699445D01*
X173962420Y-13648416D01*
X174041477Y-13511484D01*
X174082400Y-13358757D01*
X174082400Y-13200643D01*
X174041477Y-13047916D01*
X173962420Y-12910984D01*
X173850616Y-12799180D01*
X173713684Y-12720123D01*
X173560957Y-12679200D01*
X173402843Y-12679200D01*
X173250116Y-12720123D01*
X173113184Y-12799180D01*
X173001380Y-12910984D01*
X172922323Y-13047916D01*
X172881400Y-13200643D01*
X172881400Y-13358757D01*
X172922323Y-13511484D01*
X173001380Y-13648416D01*
X173052405Y-13699441D01*
X173080181Y-13753956D01*
X173081400Y-13769443D01*
X173081400Y-17162200D01*
X173062493Y-17220391D01*
X173012993Y-17256355D01*
X172982400Y-17261200D01*
X172967851Y-17261200D01*
X172883408Y-17271341D01*
X172749027Y-17324334D01*
X172633922Y-17411622D01*
X172546634Y-17526727D01*
X172493641Y-17661108D01*
X172483500Y-17745551D01*
X156009000Y-17745551D01*
X156009000Y3869590D01*
X157858500Y3869590D01*
X157858500Y3657009D01*
X157891752Y3447061D01*
X157957443Y3244887D01*
X158053948Y3055484D01*
X158053950Y3055480D01*
X158178891Y2883513D01*
X158329213Y2733191D01*
X158501180Y2608250D01*
X158501184Y2608248D01*
X158690587Y2511743D01*
X158892761Y2446052D01*
X159102710Y2412800D01*
X159102713Y2412800D01*
X159315290Y2412800D01*
X159525238Y2446052D01*
X159727412Y2511743D01*
X159916815Y2608248D01*
X159916819Y2608250D01*
X160088786Y2733191D01*
X160088788Y2733193D01*
X160088792Y2733196D01*
X160239104Y2883508D01*
X160257955Y2909454D01*
X160364049Y3055480D01*
X160364051Y3055484D01*
X160381918Y3090549D01*
X162849500Y3090549D01*
X162849500Y2909450D01*
X162877828Y2730593D01*
X162933788Y2558362D01*
X163016002Y2397008D01*
X163069225Y2323752D01*
X163122447Y2250499D01*
X163250499Y2122447D01*
X163323752Y2069225D01*
X163397008Y2016002D01*
X163558362Y1933788D01*
X163730593Y1877828D01*
X163909451Y1849500D01*
X163909454Y1849500D01*
X164090549Y1849500D01*
X164269406Y1877828D01*
X164441637Y1933788D01*
X164602991Y2016002D01*
X164649206Y2049579D01*
X164749501Y2122447D01*
X164877553Y2250499D01*
X164983996Y2397006D01*
X165066211Y2558361D01*
X165122171Y2730591D01*
X165146391Y2883508D01*
X165150500Y2909450D01*
X165150500Y3090549D01*
X165126055Y3244887D01*
X165122171Y3269409D01*
X165066211Y3441639D01*
X164983996Y3602994D01*
X164877553Y3749501D01*
X164749501Y3877553D01*
X164602994Y3983996D01*
X164441639Y4066211D01*
X164269409Y4122171D01*
X164179977Y4136335D01*
X164090549Y4150500D01*
X164090546Y4150500D01*
X163909454Y4150500D01*
X163909451Y4150500D01*
X163802136Y4133502D01*
X163730591Y4122171D01*
X163558361Y4066211D01*
X163397006Y3983996D01*
X163250499Y3877553D01*
X163122447Y3749501D01*
X163016004Y3602994D01*
X163016002Y3602991D01*
X162933788Y3441637D01*
X162877828Y3269406D01*
X162849500Y3090549D01*
X160381918Y3090549D01*
X160406799Y3139381D01*
X160460556Y3244887D01*
X160460557Y3244888D01*
X160526246Y3447057D01*
X160526247Y3447061D01*
X160559500Y3657009D01*
X160559500Y3869590D01*
X160526247Y4079538D01*
X160526246Y4079539D01*
X160526246Y4079543D01*
X160460557Y4281712D01*
X160364051Y4471116D01*
X160239104Y4643092D01*
X160088792Y4793404D01*
X159916816Y4918351D01*
X159744350Y5006226D01*
X159744350Y5006227D01*
X159737402Y5009766D01*
X159727412Y5014857D01*
X159525243Y5080546D01*
X159525239Y5080546D01*
X159525238Y5080547D01*
X159462089Y5090549D01*
X178849500Y5090549D01*
X178849500Y4909450D01*
X178877828Y4730593D01*
X178933788Y4558362D01*
X179016002Y4397008D01*
X179039274Y4364977D01*
X179122447Y4250499D01*
X179250499Y4122447D01*
X179323752Y4069225D01*
X179397008Y4016002D01*
X179558362Y3933788D01*
X179730593Y3877828D01*
X179909451Y3849500D01*
X179909454Y3849500D01*
X180090549Y3849500D01*
X180217393Y3869590D01*
X205858500Y3869590D01*
X205858500Y3657009D01*
X205891752Y3447061D01*
X205957443Y3244887D01*
X206053948Y3055484D01*
X206053950Y3055480D01*
X206178891Y2883513D01*
X206329213Y2733191D01*
X206501180Y2608250D01*
X206501184Y2608248D01*
X206690587Y2511743D01*
X206892761Y2446052D01*
X207102710Y2412800D01*
X207102713Y2412800D01*
X207315290Y2412800D01*
X207525238Y2446052D01*
X207727412Y2511743D01*
X207916815Y2608248D01*
X207916819Y2608250D01*
X208088786Y2733191D01*
X208088788Y2733193D01*
X208088792Y2733196D01*
X208239104Y2883508D01*
X208257955Y2909454D01*
X208364049Y3055480D01*
X208364051Y3055484D01*
X208381917Y3090549D01*
X208460557Y3244888D01*
X208526246Y3447057D01*
X208526247Y3447061D01*
X208559500Y3657009D01*
X208559500Y3869590D01*
X208526247Y4079538D01*
X208526246Y4079539D01*
X208526246Y4079543D01*
X208460557Y4281712D01*
X208364051Y4471116D01*
X208239104Y4643092D01*
X208088792Y4793404D01*
X207916816Y4918351D01*
X207727412Y5014857D01*
X207525243Y5080546D01*
X207525239Y5080546D01*
X207525238Y5080547D01*
X207315290Y5113800D01*
X207315287Y5113800D01*
X207102713Y5113800D01*
X207102710Y5113800D01*
X206892761Y5080547D01*
X206892758Y5080546D01*
X206892757Y5080546D01*
X206690588Y5014857D01*
X206501184Y4918351D01*
X206501180Y4918349D01*
X206329213Y4793408D01*
X206329211Y4793406D01*
X206329208Y4793404D01*
X206178896Y4643092D01*
X206178893Y4643088D01*
X206178891Y4643086D01*
X206053950Y4471119D01*
X206053948Y4471115D01*
X205957443Y4281712D01*
X205891752Y4079538D01*
X205858500Y3869590D01*
X180217393Y3869590D01*
X180269406Y3877828D01*
X180441637Y3933788D01*
X180496392Y3961687D01*
X180496395Y3961687D01*
X180602983Y4015997D01*
X180602990Y4016001D01*
X180613045Y4023307D01*
X180749501Y4122447D01*
X180877553Y4250499D01*
X180983996Y4397006D01*
X181066211Y4558361D01*
X181122171Y4730591D01*
X181132120Y4793408D01*
X181150500Y4909450D01*
X181150500Y5090549D01*
X181122171Y5269406D01*
X181122171Y5269409D01*
X181066211Y5441639D01*
X180983996Y5602994D01*
X180877553Y5749501D01*
X180749501Y5877553D01*
X180602994Y5983996D01*
X180441639Y6066211D01*
X180269409Y6122171D01*
X180179977Y6136335D01*
X180090549Y6150500D01*
X180090546Y6150500D01*
X179909454Y6150500D01*
X179909451Y6150500D01*
X179802136Y6133502D01*
X179730591Y6122171D01*
X179558361Y6066211D01*
X179397006Y5983996D01*
X179250499Y5877553D01*
X179122447Y5749501D01*
X179016004Y5602994D01*
X179016002Y5602991D01*
X178933788Y5441637D01*
X178877828Y5269406D01*
X178849500Y5090549D01*
X159462089Y5090549D01*
X159315290Y5113800D01*
X159315287Y5113800D01*
X159102713Y5113800D01*
X159102710Y5113800D01*
X158892761Y5080547D01*
X158892758Y5080546D01*
X158892757Y5080546D01*
X158690588Y5014857D01*
X158501184Y4918351D01*
X158501180Y4918349D01*
X158329213Y4793408D01*
X158329211Y4793406D01*
X158329208Y4793404D01*
X158178896Y4643092D01*
X158178893Y4643088D01*
X158178891Y4643086D01*
X158053950Y4471119D01*
X158053948Y4471115D01*
X157957443Y4281712D01*
X157891752Y4079538D01*
X157858500Y3869590D01*
X156009000Y3869590D01*
X156009000Y6753489D01*
X156009117Y6758303D01*
X156012461Y6826997D01*
X156013421Y6836749D01*
X156022086Y6895002D01*
X156023982Y6904515D01*
X156038323Y6961706D01*
X156041124Y6970943D01*
X156060958Y7026409D01*
X156064691Y7035417D01*
X156089928Y7088724D01*
X156094490Y7097255D01*
X156124789Y7147810D01*
X156130213Y7155924D01*
X156165323Y7203224D01*
X156171438Y7210675D01*
X156211011Y7254368D01*
X156217931Y7261288D01*
X156261624Y7300861D01*
X156269075Y7306976D01*
X156316375Y7342086D01*
X156324489Y7347510D01*
X156375044Y7377809D01*
X156383575Y7382371D01*
X156436882Y7407608D01*
X156445900Y7411345D01*
X156501343Y7431170D01*
X156510593Y7433976D01*
X156567784Y7448317D01*
X156577297Y7450213D01*
X156635550Y7458878D01*
X156645301Y7459838D01*
X156710030Y7462989D01*
X156713997Y7463183D01*
X156718811Y7463300D01*
X185113731Y7463300D01*
X185171922Y7444393D01*
G37*
%TD.AperFunction*%
%TA.AperFunction,Conductor*%
G36*
X192442691Y-18665307D02*
G01*
X192478655Y-18714807D01*
X192483500Y-18745400D01*
X192483500Y-19327848D01*
X192493641Y-19412291D01*
X192546634Y-19546672D01*
X192546635Y-19546674D01*
X192546636Y-19546675D01*
X192633922Y-19661778D01*
X192749025Y-19749064D01*
X192749027Y-19749064D01*
X192749030Y-19749067D01*
X192753190Y-19751406D01*
X192794646Y-19796407D01*
X192801734Y-19857180D01*
X192771746Y-19910513D01*
X192716137Y-19936034D01*
X192704669Y-19936700D01*
X188263331Y-19936700D01*
X188205140Y-19917793D01*
X188169176Y-19868293D01*
X188169176Y-19807107D01*
X188205140Y-19757607D01*
X188214810Y-19751406D01*
X188218969Y-19749067D01*
X188218970Y-19749065D01*
X188218975Y-19749064D01*
X188334078Y-19661778D01*
X188421364Y-19546675D01*
X188474359Y-19412290D01*
X188484500Y-19327844D01*
X188484500Y-18893601D01*
X188503407Y-18835410D01*
X188513496Y-18823597D01*
X188661697Y-18675396D01*
X188716214Y-18647619D01*
X188731701Y-18646400D01*
X192384500Y-18646400D01*
X192442691Y-18665307D01*
G37*
%TD.AperFunction*%
%TD*%
M02*
