M48
; DRILL file KiCad 10.0.5 date 2026-09-13T13:35:49
; FORMAT={-:-/ absolute / metric / decimal}
; #@! TF.CreationDate,2026-09-13T13:35:49-04:00
; #@! TF.GenerationSoftware,Kicad,Pcbnew,10.0.5
; #@! TF.FileFunction,Plated,1,2,PTH
FMAT,2
METRIC
; #@! TA.AperFunction,Plated,PTH,ViaDrill
T1C0.300
; #@! TA.AperFunction,Plated,PTH,ComponentDrill
T2C0.600
%
G90
G05
T1
X159.849Y-4.737
X164.452Y-10.737
X164.906Y-11.367
X166.065Y-12.314
X168.82Y-10.358
X170.714Y-14.186
X171.836Y-3.737
X171.944Y-14.612
X172.353Y-1.644
X173.034Y-9.487
X173.482Y-13.28
X174.02Y-10.426
X174.105Y3.805
X174.801Y-7.484
X177.986Y-7.126
X178.013Y-7.932
X179.736Y-2.313
X180.308Y-13.684
X181.69Y-11.487
X181.715Y-9.902
X184.522Y-16.197
X188.25Y-1.973
X188.622Y-10.741
X189.322Y-7.199
X190.657Y-2.168
X190.807Y-1.119
X192.42Y-6.606
X192.438Y-14.152
X192.709Y-4.558
X192.959Y-1.144
X193.251Y1.246
X194.987Y-12.674
X196.038Y-3.737
X199.088Y-3.54
X200.873Y-1.685
X203.124Y-6.419
X206.864Y-3.737
T2
X187.889Y4.863G85X187.889Y5.463
G05
X187.889Y0.433G85X187.889Y1.533
G05
X196.529Y4.863G85X196.529Y5.463
G05
X196.529Y0.433G85X196.529Y1.533
G05
M30
