%TF.GenerationSoftware,KiCad,Pcbnew,10.0.5*%
%TF.CreationDate,2026-09-13T13:36:56-04:00*%
%TF.ProjectId,Symm60HE-Neo-Centre-Family-Panel,53796d6d-3630-4484-952d-4e656f2d4365,rev?*%
%TF.SameCoordinates,Original*%
%TF.FileFunction,Copper,L1,Top*%
%TF.FilePolarity,Positive*%
%FSLAX46Y46*%
G04 Gerber Fmt 4.6, Leading zero omitted, Abs format (unit mm)*
G04 Created by KiCad (PCBNEW 10.0.5) date 2026-09-13 13:36:56*
%MOMM*%
%LPD*%
G01*
G04 APERTURE LIST*
G04 Aperture macros list*
%AMRoundRect*
0 Rectangle with rounded corners*
0 $1 Rounding radius*
0 $2 $3 $4 $5 $6 $7 $8 $9 X,Y pos of 4 corners*
0 Add a 4 corners polygon primitive as box body*
4,1,4,$2,$3,$4,$5,$6,$7,$8,$9,$2,$3,0*
0 Add four circle primitives for the rounded corners*
1,1,$1+$1,$2,$3*
1,1,$1+$1,$4,$5*
1,1,$1+$1,$6,$7*
1,1,$1+$1,$8,$9*
0 Add four rect primitives between the rounded corners*
20,1,$1+$1,$2,$3,$4,$5,0*
20,1,$1+$1,$4,$5,$6,$7,0*
20,1,$1+$1,$6,$7,$8,$9,0*
20,1,$1+$1,$8,$9,$2,$3,0*%
G04 Aperture macros list end*
%TA.AperFunction,SMDPad,CuDef*%
%ADD10C,1.000000*%
%TD*%
%TA.AperFunction,SMDPad,CuDef*%
%ADD11RoundRect,0.225000X-0.225000X-0.250000X0.225000X-0.250000X0.225000X0.250000X-0.225000X0.250000X0*%
%TD*%
%TA.AperFunction,SMDPad,CuDef*%
%ADD12RoundRect,0.135000X-0.135000X-0.185000X0.135000X-0.185000X0.135000X0.185000X-0.135000X0.185000X0*%
%TD*%
%TA.AperFunction,SMDPad,CuDef*%
%ADD13RoundRect,0.150000X-0.512500X-0.150000X0.512500X-0.150000X0.512500X0.150000X-0.512500X0.150000X0*%
%TD*%
%TA.AperFunction,SMDPad,CuDef*%
%ADD14RoundRect,0.150000X0.150000X0.575000X-0.150000X0.575000X-0.150000X-0.575000X0.150000X-0.575000X0*%
%TD*%
%TA.AperFunction,SMDPad,CuDef*%
%ADD15RoundRect,0.075000X0.075000X0.650000X-0.075000X0.650000X-0.075000X-0.650000X0.075000X-0.650000X0*%
%TD*%
%TA.AperFunction,ComponentPad*%
%ADD16O,1.000000X2.100000*%
%TD*%
%TA.AperFunction,ComponentPad*%
%ADD17O,1.000000X1.600000*%
%TD*%
%TA.AperFunction,SMDPad,CuDef*%
%ADD18RoundRect,0.150000X0.950000X-0.150000X0.950000X0.150000X-0.950000X0.150000X-0.950000X-0.150000X0*%
%TD*%
%TA.AperFunction,SMDPad,CuDef*%
%ADD19RoundRect,0.360000X0.940000X-0.540000X0.940000X0.540000X-0.940000X0.540000X-0.940000X-0.540000X0*%
%TD*%
%TA.AperFunction,SMDPad,CuDef*%
%ADD20RoundRect,0.243750X-0.243750X-0.456250X0.243750X-0.456250X0.243750X0.456250X-0.243750X0.456250X0*%
%TD*%
%TA.AperFunction,SMDPad,CuDef*%
%ADD21RoundRect,0.250000X-0.450000X-0.350000X0.450000X-0.350000X0.450000X0.350000X-0.450000X0.350000X0*%
%TD*%
%TA.AperFunction,SMDPad,CuDef*%
%ADD22R,1.000000X0.750000*%
%TD*%
%TA.AperFunction,SMDPad,CuDef*%
%ADD23RoundRect,0.150000X-0.950000X0.150000X-0.950000X-0.150000X0.950000X-0.150000X0.950000X0.150000X0*%
%TD*%
%TA.AperFunction,SMDPad,CuDef*%
%ADD24RoundRect,0.360000X-0.940000X0.540000X-0.940000X-0.540000X0.940000X-0.540000X0.940000X0.540000X0*%
%TD*%
%TA.AperFunction,SMDPad,CuDef*%
%ADD25RoundRect,0.075000X-0.700000X-0.075000X0.700000X-0.075000X0.700000X0.075000X-0.700000X0.075000X0*%
%TD*%
%TA.AperFunction,SMDPad,CuDef*%
%ADD26RoundRect,0.075000X-0.075000X-0.700000X0.075000X-0.700000X0.075000X0.700000X-0.075000X0.700000X0*%
%TD*%
%TA.AperFunction,SMDPad,CuDef*%
%ADD27C,0.960000*%
%TD*%
%TA.AperFunction,ViaPad*%
%ADD28C,0.600000*%
%TD*%
%TA.AperFunction,Conductor*%
%ADD29C,0.200000*%
%TD*%
%TA.AperFunction,Conductor*%
%ADD30C,0.150000*%
%TD*%
G04 APERTURE END LIST*
D10*
%TO.P,CTL-FIDF3,*%
%TO.N,*%
X54291000Y-26963300D03*
%TD*%
D11*
%TO.P,CTL-C1,1*%
%TO.N,/CTL/VBUS*%
X46725000Y-8500000D03*
%TO.P,CTL-C1,2*%
%TO.N,/CTL/GND*%
X48275000Y-8500000D03*
%TD*%
D12*
%TO.P,CTL-R3,1*%
%TO.N,/CTL/CC2*%
X38990000Y-23000000D03*
%TO.P,CTL-R3,2*%
%TO.N,/CTL/GND*%
X40010000Y-23000000D03*
%TD*%
%TO.P,CTL-R1,1*%
%TO.N,/CTL/USB_R*%
X35990000Y-15000000D03*
%TO.P,CTL-R1,2*%
%TO.N,/CTL/GND*%
X37010000Y-15000000D03*
%TD*%
%TO.P,CTL-R2,1*%
%TO.N,/CTL/CC1*%
X31990000Y-11000000D03*
%TO.P,CTL-R2,2*%
%TO.N,/CTL/GND*%
X33010000Y-11000000D03*
%TD*%
D13*
%TO.P,CTL-U2,1*%
%TO.N,/CTL/USB_DP*%
X36862500Y-10550000D03*
%TO.P,CTL-U2,2*%
%TO.N,/CTL/GND*%
X36862500Y-11500000D03*
%TO.P,CTL-U2,3*%
%TO.N,/CTL/USB_DM*%
X36862500Y-12450000D03*
%TO.P,CTL-U2,4*%
X39137500Y-12450000D03*
%TO.P,CTL-U2,5*%
%TO.N,/CTL/VBUS*%
X39137500Y-11500000D03*
%TO.P,CTL-U2,6*%
%TO.N,/CTL/USB_DP*%
X39137500Y-10550000D03*
%TD*%
D14*
%TO.P,CTL-J1,A1*%
%TO.N,/CTL/GND*%
X40750000Y-7695000D03*
%TO.P,CTL-J1,A4*%
%TO.N,/CTL/VBUS_IN*%
X39950000Y-7695000D03*
D15*
%TO.P,CTL-J1,A5*%
%TO.N,/CTL/CC1*%
X38750000Y-7695000D03*
%TO.P,CTL-J1,A6*%
%TO.N,/CTL/USB_DP*%
X37750000Y-7695000D03*
%TO.P,CTL-J1,A7*%
%TO.N,/CTL/USB_DM*%
X37250000Y-7695000D03*
%TO.P,CTL-J1,A8*%
%TO.N,N/C*%
X36250000Y-7695000D03*
D14*
%TO.P,CTL-J1,A9*%
%TO.N,/CTL/VBUS_IN*%
X35050000Y-7695000D03*
%TO.P,CTL-J1,A12*%
%TO.N,/CTL/GND*%
X34250000Y-7695000D03*
%TO.P,CTL-J1,B1*%
X34250000Y-7695000D03*
%TO.P,CTL-J1,B4*%
%TO.N,/CTL/VBUS_IN*%
X35050000Y-7695000D03*
D15*
%TO.P,CTL-J1,B5*%
%TO.N,/CTL/CC2*%
X35750000Y-7695000D03*
%TO.P,CTL-J1,B6*%
%TO.N,/CTL/USB_DP*%
X36750000Y-7695000D03*
%TO.P,CTL-J1,B7*%
%TO.N,/CTL/USB_DM*%
X38250000Y-7695000D03*
%TO.P,CTL-J1,B8*%
%TO.N,N/C*%
X39250000Y-7695000D03*
D14*
%TO.P,CTL-J1,B9*%
%TO.N,/CTL/VBUS_IN*%
X39950000Y-7695000D03*
%TO.P,CTL-J1,B12*%
%TO.N,/CTL/GND*%
X40750000Y-7695000D03*
D16*
%TO.P,CTL-J1,SH*%
X41820000Y-6780000D03*
D17*
X41820000Y-2600000D03*
D16*
X33180000Y-6780000D03*
D17*
X33180000Y-2600000D03*
%TD*%
D11*
%TO.P,CTL-C2,1*%
%TO.N,/CTL/+3V3D*%
X45725000Y-21000000D03*
%TO.P,CTL-C2,2*%
%TO.N,/CTL/GND*%
X47275000Y-21000000D03*
%TD*%
D18*
%TO.P,CTL-J3,1*%
%TO.N,/CTL/ADC_R4*%
X53100000Y-22500000D03*
%TO.P,CTL-J3,2*%
%TO.N,/CTL/ADC_R3*%
X53100000Y-21500000D03*
%TO.P,CTL-J3,3*%
%TO.N,/CTL/GND*%
X53100000Y-20500000D03*
%TO.P,CTL-J3,4*%
%TO.N,/CTL/ADC_R2*%
X53100000Y-19500000D03*
%TO.P,CTL-J3,5*%
%TO.N,/CTL/GND*%
X53100000Y-18500000D03*
%TO.P,CTL-J3,6*%
%TO.N,/CTL/ADC_R1*%
X53100000Y-17500000D03*
%TO.P,CTL-J3,7*%
%TO.N,/CTL/GND*%
X53100000Y-16500000D03*
%TO.P,CTL-J3,8*%
%TO.N,/CTL/MUX_A2*%
X53100000Y-15500000D03*
%TO.P,CTL-J3,9*%
%TO.N,/CTL/MUX_A1*%
X53100000Y-14500000D03*
%TO.P,CTL-J3,10*%
%TO.N,/CTL/MUX_A0*%
X53100000Y-13500000D03*
%TO.P,CTL-J3,11*%
%TO.N,/CTL/GND*%
X53100000Y-12500000D03*
%TO.P,CTL-J3,12*%
%TO.N,/CTL/+3V3A*%
X53100000Y-11500000D03*
D19*
%TO.P,CTL-J3,MP*%
%TO.N,N/C*%
X55300000Y-24800000D03*
X55300000Y-9200000D03*
%TD*%
D20*
%TO.P,CTL-F1,1*%
%TO.N,/CTL/VBUS_IN*%
X44562500Y-5000000D03*
%TO.P,CTL-F1,2*%
%TO.N,/CTL/VBUS*%
X46437500Y-5000000D03*
%TD*%
D21*
%TO.P,CTL-Y1,1*%
%TO.N,/CTL/XTAL_IN*%
X14900000Y-16850000D03*
%TO.P,CTL-Y1,2*%
%TO.N,/CTL/GND*%
X17100000Y-16850000D03*
%TO.P,CTL-Y1,3*%
%TO.N,/CTL/XTAL_OUT*%
X17100000Y-15150000D03*
%TO.P,CTL-Y1,4*%
%TO.N,/CTL/GND*%
X14900000Y-15150000D03*
%TD*%
D13*
%TO.P,CTL-U4,1*%
%TO.N,/CTL/GND*%
X14862500Y-20050000D03*
%TO.P,CTL-U4,2*%
%TO.N,/CTL/+3V3A*%
X14862500Y-21950000D03*
%TO.P,CTL-U4,3*%
%TO.N,/CTL/+3V3D*%
X17137500Y-21000000D03*
%TD*%
D10*
%TO.P,CTL-FIDF2,*%
%TO.N,*%
X25291000Y-2763300D03*
%TD*%
D22*
%TO.P,CTL-SW1,1*%
%TO.N,/CTL/BOOT0*%
X13000000Y-3125000D03*
X19000000Y-3125000D03*
%TO.P,CTL-SW1,2*%
%TO.N,/CTL/GND*%
X13000000Y-6875000D03*
X19000000Y-6875000D03*
%TD*%
D23*
%TO.P,CTL-J2,1*%
%TO.N,/CTL/ADC_L4*%
X3900000Y-11500000D03*
%TO.P,CTL-J2,2*%
%TO.N,/CTL/ADC_L3*%
X3900000Y-12500000D03*
%TO.P,CTL-J2,3*%
%TO.N,/CTL/GND*%
X3900000Y-13500000D03*
%TO.P,CTL-J2,4*%
%TO.N,/CTL/ADC_L2*%
X3900000Y-14500000D03*
%TO.P,CTL-J2,5*%
%TO.N,/CTL/GND*%
X3900000Y-15500000D03*
%TO.P,CTL-J2,6*%
%TO.N,/CTL/ADC_L1*%
X3900000Y-16500000D03*
%TO.P,CTL-J2,7*%
%TO.N,/CTL/GND*%
X3900000Y-17500000D03*
%TO.P,CTL-J2,8*%
%TO.N,/CTL/MUX_A2*%
X3900000Y-18500000D03*
%TO.P,CTL-J2,9*%
%TO.N,/CTL/MUX_A1*%
X3900000Y-19500000D03*
%TO.P,CTL-J2,10*%
%TO.N,/CTL/MUX_A0*%
X3900000Y-20500000D03*
%TO.P,CTL-J2,11*%
%TO.N,/CTL/GND*%
X3900000Y-21500000D03*
%TO.P,CTL-J2,12*%
%TO.N,/CTL/+3V3A*%
X3900000Y-22500000D03*
D24*
%TO.P,CTL-J2,MP*%
%TO.N,N/C*%
X1700000Y-9200000D03*
X1700000Y-24800000D03*
%TD*%
D13*
%TO.P,CTL-U3,1*%
%TO.N,/CTL/VBUS*%
X42862500Y-10550000D03*
%TO.P,CTL-U3,2*%
%TO.N,/CTL/GND*%
X42862500Y-11500000D03*
%TO.P,CTL-U3,3*%
%TO.N,N/C*%
X42862500Y-12450000D03*
%TO.P,CTL-U3,4*%
X45137500Y-12450000D03*
%TO.P,CTL-U3,5*%
%TO.N,/CTL/+3V3D*%
X45137500Y-10550000D03*
%TD*%
D25*
%TO.P,CTL-U1,1*%
%TO.N,/CTL/+3V3D*%
X21325000Y-13250000D03*
%TO.P,CTL-U1,2*%
%TO.N,N/C*%
X21325000Y-13750000D03*
%TO.P,CTL-U1,3*%
X21325000Y-14250000D03*
%TO.P,CTL-U1,4*%
X21325000Y-14750000D03*
%TO.P,CTL-U1,5*%
%TO.N,/CTL/XTAL_IN*%
X21325000Y-15250000D03*
%TO.P,CTL-U1,6*%
%TO.N,/CTL/XTAL_OUT*%
X21325000Y-15750000D03*
%TO.P,CTL-U1,7*%
%TO.N,/CTL/NRST*%
X21325000Y-16250000D03*
%TO.P,CTL-U1,8*%
%TO.N,N/C*%
X21325000Y-16750000D03*
%TO.P,CTL-U1,9*%
%TO.N,/CTL/MUX_A0*%
X21325000Y-17250000D03*
%TO.P,CTL-U1,10*%
%TO.N,/CTL/MUX_A1*%
X21325000Y-17750000D03*
%TO.P,CTL-U1,11*%
%TO.N,/CTL/MUX_A2*%
X21325000Y-18250000D03*
%TO.P,CTL-U1,12*%
%TO.N,/CTL/GND*%
X21325000Y-18750000D03*
%TO.P,CTL-U1,13*%
%TO.N,/CTL/+3V3A*%
X21325000Y-19250000D03*
%TO.P,CTL-U1,14*%
%TO.N,N/C*%
X21325000Y-19750000D03*
%TO.P,CTL-U1,15*%
X21325000Y-20250000D03*
%TO.P,CTL-U1,16*%
X21325000Y-20750000D03*
D26*
%TO.P,CTL-U1,17*%
%TO.N,/CTL/ADC_L1*%
X23250000Y-22675000D03*
%TO.P,CTL-U1,18*%
%TO.N,N/C*%
X23750000Y-22675000D03*
%TO.P,CTL-U1,19*%
X24250000Y-22675000D03*
%TO.P,CTL-U1,20*%
%TO.N,/CTL/ADC_L2*%
X24750000Y-22675000D03*
%TO.P,CTL-U1,21*%
%TO.N,/CTL/ADC_L3*%
X25250000Y-22675000D03*
%TO.P,CTL-U1,22*%
%TO.N,/CTL/ADC_L4*%
X25750000Y-22675000D03*
%TO.P,CTL-U1,23*%
%TO.N,/CTL/ADC_R1*%
X26250000Y-22675000D03*
%TO.P,CTL-U1,24*%
%TO.N,/CTL/ADC_R2*%
X26750000Y-22675000D03*
%TO.P,CTL-U1,25*%
%TO.N,/CTL/ADC_R3*%
X27250000Y-22675000D03*
%TO.P,CTL-U1,26*%
%TO.N,/CTL/ADC_R4*%
X27750000Y-22675000D03*
%TO.P,CTL-U1,27*%
%TO.N,N/C*%
X28250000Y-22675000D03*
%TO.P,CTL-U1,28*%
X28750000Y-22675000D03*
%TO.P,CTL-U1,29*%
X29250000Y-22675000D03*
%TO.P,CTL-U1,30*%
X29750000Y-22675000D03*
%TO.P,CTL-U1,31*%
%TO.N,/CTL/GND*%
X30250000Y-22675000D03*
%TO.P,CTL-U1,32*%
%TO.N,N/C*%
X30750000Y-22675000D03*
D25*
%TO.P,CTL-U1,33*%
%TO.N,/CTL/USB_R*%
X32675000Y-20750000D03*
%TO.P,CTL-U1,34*%
%TO.N,/CTL/USB_DM*%
X32675000Y-20250000D03*
%TO.P,CTL-U1,35*%
%TO.N,/CTL/USB_DP*%
X32675000Y-19750000D03*
%TO.P,CTL-U1,36*%
%TO.N,/CTL/+3V3D*%
X32675000Y-19250000D03*
%TO.P,CTL-U1,37*%
%TO.N,N/C*%
X32675000Y-18750000D03*
%TO.P,CTL-U1,38*%
X32675000Y-18250000D03*
%TO.P,CTL-U1,39*%
X32675000Y-17750000D03*
%TO.P,CTL-U1,40*%
X32675000Y-17250000D03*
%TO.P,CTL-U1,41*%
X32675000Y-16750000D03*
%TO.P,CTL-U1,42*%
X32675000Y-16250000D03*
%TO.P,CTL-U1,43*%
X32675000Y-15750000D03*
%TO.P,CTL-U1,44*%
X32675000Y-15250000D03*
%TO.P,CTL-U1,45*%
X32675000Y-14750000D03*
%TO.P,CTL-U1,46*%
%TO.N,/CTL/SWDIO*%
X32675000Y-14250000D03*
%TO.P,CTL-U1,47*%
%TO.N,N/C*%
X32675000Y-13750000D03*
%TO.P,CTL-U1,48*%
X32675000Y-13250000D03*
D26*
%TO.P,CTL-U1,49*%
%TO.N,/CTL/SWCLK*%
X30750000Y-11325000D03*
%TO.P,CTL-U1,50*%
%TO.N,N/C*%
X30250000Y-11325000D03*
%TO.P,CTL-U1,51*%
X29750000Y-11325000D03*
%TO.P,CTL-U1,52*%
X29250000Y-11325000D03*
%TO.P,CTL-U1,53*%
X28750000Y-11325000D03*
%TO.P,CTL-U1,54*%
X28250000Y-11325000D03*
%TO.P,CTL-U1,55*%
%TO.N,/CTL/SWO*%
X27750000Y-11325000D03*
%TO.P,CTL-U1,56*%
%TO.N,N/C*%
X27250000Y-11325000D03*
%TO.P,CTL-U1,57*%
X26750000Y-11325000D03*
%TO.P,CTL-U1,58*%
X26250000Y-11325000D03*
%TO.P,CTL-U1,59*%
X25750000Y-11325000D03*
%TO.P,CTL-U1,60*%
%TO.N,/CTL/BOOT0*%
X25250000Y-11325000D03*
%TO.P,CTL-U1,61*%
%TO.N,N/C*%
X24750000Y-11325000D03*
%TO.P,CTL-U1,62*%
X24250000Y-11325000D03*
%TO.P,CTL-U1,63*%
%TO.N,/CTL/GND*%
X23750000Y-11325000D03*
%TO.P,CTL-U1,64*%
%TO.N,/CTL/+3V3D*%
X23250000Y-11325000D03*
%TD*%
D22*
%TO.P,CTL-SW2,1*%
%TO.N,/CTL/NRST*%
X9000000Y-9125000D03*
X15000000Y-9125000D03*
%TO.P,CTL-SW2,2*%
%TO.N,/CTL/GND*%
X9000000Y-12875000D03*
X15000000Y-12875000D03*
%TD*%
D10*
%TO.P,CTL-FIDF1,*%
%TO.N,*%
X9291000Y-4763300D03*
%TD*%
D27*
%TO.P,LS-PS1,1*%
%TO.N,/LS/ADC_L4*%
X16985000Y-33000000D03*
%TO.P,LS-PS1,2*%
%TO.N,/LS/ADC_L3*%
X15715000Y-33000000D03*
%TO.P,LS-PS1,3*%
%TO.N,/LS/GND*%
X14445000Y-33000000D03*
%TO.P,LS-PS1,4*%
%TO.N,/LS/ADC_L2*%
X13175000Y-33000000D03*
%TO.P,LS-PS1,5*%
%TO.N,/LS/GND*%
X11905000Y-33000000D03*
%TO.P,LS-PS1,6*%
%TO.N,/LS/ADC_L1*%
X10635000Y-33000000D03*
%TO.P,LS-PS1,7*%
%TO.N,/LS/GND*%
X9365000Y-33000000D03*
%TO.P,LS-PS1,8*%
%TO.N,/LS/MUX_A2*%
X8095000Y-33000000D03*
%TO.P,LS-PS1,9*%
%TO.N,/LS/MUX_A1*%
X6825000Y-33000000D03*
%TO.P,LS-PS1,10*%
%TO.N,/LS/MUX_A0*%
X5555000Y-33000000D03*
%TO.P,LS-PS1,11*%
%TO.N,/LS/GND*%
X4285000Y-33000000D03*
%TO.P,LS-PS1,12*%
%TO.N,/LS/+3V3A*%
X3015000Y-33000000D03*
%TD*%
%TO.P,RS-PS1,1*%
%TO.N,/RS/+3V3A*%
X40015000Y-33000000D03*
%TO.P,RS-PS1,2*%
%TO.N,/RS/GND*%
X41285000Y-33000000D03*
%TO.P,RS-PS1,3*%
%TO.N,/RS/MUX_A0*%
X42555000Y-33000000D03*
%TO.P,RS-PS1,4*%
%TO.N,/RS/GND*%
X43825000Y-33000000D03*
%TO.P,RS-PS1,5*%
%TO.N,/RS/MUX_A1*%
X45095000Y-33000000D03*
%TO.P,RS-PS1,6*%
%TO.N,/RS/MUX_A2*%
X46365000Y-33000000D03*
%TO.P,RS-PS1,7*%
%TO.N,/RS/ADC_R1*%
X47635000Y-33000000D03*
%TO.P,RS-PS1,8*%
%TO.N,/RS/GND*%
X48905000Y-33000000D03*
%TO.P,RS-PS1,9*%
%TO.N,/RS/ADC_R2*%
X50175000Y-33000000D03*
%TO.P,RS-PS1,10*%
%TO.N,/RS/GND*%
X51445000Y-33000000D03*
%TO.P,RS-PS1,11*%
%TO.N,/RS/ADC_R3*%
X52715000Y-33000000D03*
%TO.P,RS-PS1,12*%
%TO.N,/RS/ADC_R4*%
X53985000Y-33000000D03*
%TD*%
D10*
%TO.P,FIDF1,*%
%TO.N,*%
X-4350000Y4350000D03*
%TD*%
%TO.P,FIDF2,*%
%TO.N,*%
X61350000Y4350000D03*
%TD*%
%TO.P,FIDF3,*%
%TO.N,*%
X-4350000Y-40350000D03*
%TD*%
D28*
%TO.N,/CTL/VBUS*%
X46163700Y-9448800D03*
%TO.N,/CTL/GND*%
X41328900Y-11500000D03*
X29812700Y-23960000D03*
%TO.N,/CTL/CC2*%
X36097600Y-8882300D03*
X37729400Y-21915500D03*
%TO.N,/CTL/CC1*%
X33540800Y-9736700D03*
X38541600Y-6517500D03*
%TO.N,/CTL/USB_DP*%
X35947900Y-9931500D03*
X34612600Y-14962200D03*
%TO.N,/CTL/USB_DM*%
X38000000Y-12321100D03*
X37711200Y-14369300D03*
X38250000Y-8907400D03*
%TO.N,/CTL/+3V3D*%
X33913400Y-18504700D03*
X44379000Y-11303800D03*
X40278000Y-20437100D03*
X18772900Y-21043000D03*
%TO.N,/CTL/MUX_A2*%
X9743500Y-18500000D03*
X19311100Y-18189700D03*
%TO.N,/CTL/MUX_A1*%
X10196800Y-19130800D03*
X48415200Y-14182600D03*
X27006100Y-17665200D03*
%TO.N,/CTL/MUX_A0*%
X18325500Y-17250000D03*
X11355900Y-20077800D03*
%TO.N,/CTL/+3V3A*%
X26980800Y-19250000D03*
X52154600Y-11500000D03*
%TO.N,/CTL/XTAL_IN*%
X20092000Y-15247400D03*
%TO.N,/CTL/XTAL_OUT*%
X23304200Y-15695400D03*
%TO.N,/CTL/BOOT0*%
X25027500Y-10076100D03*
X19395500Y-3957900D03*
%TO.N,/CTL/ADC_L4*%
X25598800Y-21447400D03*
X17127000Y-11500000D03*
%TO.N,/CTL/ADC_L3*%
X5139900Y-12500000D03*
X16004700Y-21949500D03*
%TO.N,/CTL/ADC_L1*%
X14110600Y-18121400D03*
X17235000Y-22375100D03*
%TO.N,/CTL/NRST*%
X23276500Y-14889100D03*
X17644500Y-9407000D03*
%TO.N,/LS/ADC_L4*%
X15500000Y-30800000D03*
%TO.N,/LS/ADC_L3*%
X14500000Y-30800000D03*
%TO.N,/LS/GND*%
X11500000Y-34400000D03*
X5500000Y-34400000D03*
X9500000Y-34400000D03*
X13500000Y-34400000D03*
%TO.N,/LS/ADC_L2*%
X12500000Y-30800000D03*
%TO.N,/LS/ADC_L1*%
X10500000Y-30800000D03*
%TO.N,/LS/MUX_A2*%
X8500000Y-30800000D03*
%TO.N,/LS/MUX_A1*%
X7500000Y-30800000D03*
%TO.N,/LS/MUX_A0*%
X6500000Y-30800000D03*
%TO.N,/LS/+3V3A*%
X4500000Y-30800000D03*
%TO.N,/RS/+3V3A*%
X41500000Y-30800000D03*
%TO.N,/RS/GND*%
X48500000Y-34400000D03*
X50500000Y-34400000D03*
X42500000Y-34400000D03*
X46500000Y-34400000D03*
%TO.N,/RS/MUX_A0*%
X43500000Y-30800000D03*
%TO.N,/RS/MUX_A1*%
X44500000Y-30800000D03*
%TO.N,/RS/MUX_A2*%
X45500000Y-30800000D03*
%TO.N,/RS/ADC_R1*%
X47500000Y-30800000D03*
%TO.N,/RS/ADC_R2*%
X49500000Y-30800000D03*
%TO.N,/RS/ADC_R3*%
X51500000Y-30800000D03*
%TO.N,/RS/ADC_R4*%
X52500000Y-30800000D03*
%TD*%
%TO.N,/CTL/VBUS*%
D29*
X42862500Y-10550000D02*
X41279500Y-10550000D01*
X46725000Y-8500000D02*
X46725000Y-5287500D01*
X46725000Y-8887500D02*
X46725000Y-8500000D01*
X41279500Y-10550000D02*
X40329500Y-11500000D01*
X46163700Y-9448800D02*
X46725000Y-8887500D01*
X46725000Y-5287500D02*
X46437500Y-5000000D01*
X40329500Y-11500000D02*
X39137500Y-11500000D01*
X43963700Y-9448800D02*
X46163700Y-9448800D01*
X42862500Y-10550000D02*
X43963700Y-9448800D01*
%TO.N,/CTL/GND*%
X33180000Y-7190400D02*
X33745400Y-7190400D01*
X47275000Y-21000000D02*
X45275000Y-23000000D01*
X54000000Y-12500000D02*
X51556600Y-12500000D01*
X9000000Y-12875000D02*
X8198300Y-12875000D01*
X55123000Y-15929500D02*
X54552500Y-16500000D01*
X54000000Y-16500000D02*
X38510000Y-16500000D01*
X40010000Y-23000000D02*
X40082800Y-23072800D01*
X19000000Y-6875000D02*
X19000000Y-7551700D01*
X8198300Y-12875000D02*
X7573300Y-13500000D01*
X21306700Y-10248000D02*
X23509200Y-10248000D01*
X9594400Y-17500000D02*
X10915600Y-18821200D01*
X33180000Y-7455800D02*
X26783000Y-7455800D01*
X9000000Y-12875000D02*
X15000000Y-12875000D01*
X1897700Y-16162600D02*
X1897700Y-16844800D01*
X40082800Y-23072800D02*
X41441700Y-23072800D01*
X41186700Y-8131700D02*
X40750000Y-7695000D01*
X55114500Y-17062000D02*
X54552500Y-16500000D01*
X15000000Y-12875000D02*
X18679700Y-12875000D01*
X10915600Y-18821200D02*
X14862500Y-18821200D01*
X21277000Y-18798000D02*
X21325000Y-18750000D01*
X34250000Y-9878400D02*
X34250000Y-7695000D01*
X30250000Y-23522700D02*
X29812700Y-23960000D01*
X33128400Y-11000000D02*
X34250000Y-9878400D01*
X54000000Y-12500000D02*
X54550400Y-12500000D01*
X14862500Y-20050000D02*
X13412500Y-21500000D01*
X14862500Y-18821200D02*
X14862500Y-20050000D01*
X23509200Y-10248000D02*
X23750000Y-10488800D01*
X3000000Y-17500000D02*
X9594400Y-17500000D01*
X38510000Y-16500000D02*
X37510500Y-15500400D01*
X41820000Y-8131700D02*
X41186700Y-8131700D01*
X33745400Y-7190400D02*
X34250000Y-7695000D01*
X13412500Y-21500000D02*
X3000000Y-21500000D01*
X17100000Y-18798000D02*
X17100000Y-16850000D01*
X41820000Y-2600000D02*
X41820000Y-3701700D01*
X21306700Y-10248000D02*
X21306700Y-9858400D01*
X47775000Y-20500000D02*
X47275000Y-21000000D01*
X33180000Y-2600000D02*
X33180000Y-3701700D01*
X14862500Y-18821200D02*
X14885700Y-18798000D01*
X36965900Y-16045000D02*
X37510500Y-15500400D01*
X14900000Y-15150000D02*
X15000000Y-15050000D01*
X19000000Y-6875000D02*
X13000000Y-6875000D01*
X33010000Y-11000000D02*
X33510000Y-11500000D01*
X37510500Y-15500400D02*
X37010000Y-15000000D01*
X33010000Y-11000000D02*
X33128400Y-11000000D01*
X18679700Y-12875000D02*
X21306700Y-10248000D01*
X15000000Y-15050000D02*
X15000000Y-12875000D01*
X54552500Y-16500000D02*
X54000000Y-16500000D01*
X23750000Y-10488800D02*
X23750000Y-11325000D01*
X41820000Y-6780000D02*
X41820000Y-8131700D01*
X54460100Y-18500000D02*
X55114500Y-17845600D01*
X1897700Y-16844800D02*
X2552900Y-17500000D01*
X14885700Y-18798000D02*
X17100000Y-18798000D01*
X48275000Y-9218400D02*
X48275000Y-8500000D01*
X30250000Y-22675000D02*
X30250000Y-23522700D01*
X54550400Y-12500000D02*
X55123000Y-13072600D01*
X33180000Y-6780000D02*
X33180000Y-7190400D01*
X26783000Y-7455800D02*
X23750000Y-10488800D01*
X21306700Y-9858400D02*
X19000000Y-7551700D01*
X2552900Y-17500000D02*
X3000000Y-17500000D01*
X33510000Y-11500000D02*
X36862500Y-11500000D01*
X17100000Y-18798000D02*
X21277000Y-18798000D01*
X41328900Y-11500000D02*
X42862500Y-11500000D01*
X51556600Y-12500000D02*
X48275000Y-9218400D01*
X55123000Y-13072600D02*
X55123000Y-15929500D01*
X33180000Y-7190400D02*
X33180000Y-7455800D01*
X2560300Y-15500000D02*
X1897700Y-16162600D01*
X45275000Y-23000000D02*
X40010000Y-23000000D01*
X41820000Y-3701700D02*
X33180000Y-3701700D01*
X55114500Y-17845600D02*
X55114500Y-17062000D01*
%TO.N,/CTL/CC2*%
X37905500Y-21915500D02*
X37729400Y-21915500D01*
X38990000Y-23000000D02*
X37905500Y-21915500D01*
X35750000Y-8534700D02*
X36097600Y-8882300D01*
X35750000Y-7695000D02*
X35750000Y-8534700D01*
%TO.N,/CTL/USB_R*%
X35990000Y-15000000D02*
X35990000Y-18586400D01*
X35990000Y-18586400D02*
X33924300Y-20652100D01*
D30*
X32772900Y-20652100D02*
X33924300Y-20652100D01*
X32675000Y-20750000D02*
X32772900Y-20652100D01*
%TO.N,/CTL/CC1*%
D29*
X33540800Y-9736700D02*
X33253300Y-9736700D01*
X38750000Y-6725900D02*
X38541600Y-6517500D01*
X33253300Y-9736700D02*
X31990000Y-11000000D01*
X38750000Y-7695000D02*
X38750000Y-6725900D01*
%TO.N,/CTL/USB_DP*%
X34612600Y-18606700D02*
X33469300Y-19750000D01*
X36862500Y-10374400D02*
X36862500Y-10550000D01*
X36419600Y-9931500D02*
X36750000Y-9601100D01*
X34612600Y-14962200D02*
X34612600Y-18606700D01*
X36862500Y-10550000D02*
X39137500Y-10550000D01*
X36750000Y-7695000D02*
X36750000Y-8738600D01*
X37750000Y-8465200D02*
X37476600Y-8738600D01*
X36419600Y-9931500D02*
X36862500Y-10374400D01*
X37476600Y-8738600D02*
X36750000Y-8738600D01*
X37750000Y-7695000D02*
X37750000Y-8465200D01*
X36750000Y-9601100D02*
X36750000Y-8738600D01*
X33469300Y-19750000D02*
X32675000Y-19750000D01*
X35947900Y-9931500D02*
X36419600Y-9931500D01*
%TO.N,/CTL/USB_DM*%
X35425200Y-14696200D02*
X35752100Y-14369300D01*
X37250000Y-7695000D02*
X37250000Y-6976800D01*
X37536600Y-6690200D02*
X37934200Y-6690200D01*
X39137500Y-12450000D02*
X36862500Y-12450000D01*
X32675000Y-20250000D02*
X33570300Y-20250000D01*
X38000000Y-12321100D02*
X36991400Y-12321100D01*
X35752100Y-14369300D02*
X37711200Y-14369300D01*
X37934200Y-6690200D02*
X38250000Y-7006000D01*
X33570300Y-20250000D02*
X35425200Y-18395100D01*
X38250000Y-7006000D02*
X38250000Y-7695000D01*
X37250000Y-6976800D02*
X37536600Y-6690200D01*
X36991400Y-12321100D02*
X36862500Y-12450000D01*
X38250000Y-7695000D02*
X38250000Y-8907400D01*
X35425200Y-18395100D02*
X35425200Y-14696200D01*
%TO.N,/CTL/VBUS_IN*%
X39563300Y-6592400D02*
X39563300Y-5939100D01*
X36299400Y-5939100D02*
X35050000Y-7188500D01*
X40422100Y-5000000D02*
X44562500Y-5000000D01*
X39563300Y-5939100D02*
X36299400Y-5939100D01*
X35050000Y-7188500D02*
X35050000Y-7695000D01*
X39950000Y-6979100D02*
X39563300Y-6592400D01*
X39563300Y-5858800D02*
X40422100Y-5000000D01*
X39563300Y-5939100D02*
X39563300Y-5858800D01*
X39950000Y-7695000D02*
X39950000Y-6979100D01*
%TO.N,/CTL/+3V3D*%
X44379000Y-11303800D02*
X44052200Y-11630600D01*
X17180500Y-21043000D02*
X17137500Y-21000000D01*
X33913400Y-18758500D02*
X33913400Y-18504700D01*
X35933000Y-13003000D02*
X35067500Y-12137500D01*
X31228200Y-12447100D02*
X23250000Y-12447100D01*
X23881200Y-20802200D02*
X23480100Y-21203300D01*
X44052200Y-12551400D02*
X43600600Y-13003000D01*
X45162100Y-20437100D02*
X45725000Y-21000000D01*
X23250000Y-12447100D02*
X23250000Y-11325000D01*
X22127900Y-12447100D02*
X23250000Y-12447100D01*
X21325000Y-13250000D02*
X22127900Y-12447100D01*
X26670200Y-20802200D02*
X23881200Y-20802200D01*
X18772900Y-21043000D02*
X17180500Y-21043000D01*
X23480100Y-21203300D02*
X18933200Y-21203300D01*
X28222400Y-19250000D02*
X26670200Y-20802200D01*
X44052200Y-11630600D02*
X44052200Y-12551400D01*
X44383700Y-11303800D02*
X44379000Y-11303800D01*
X31537800Y-12137500D02*
X31228200Y-12447100D01*
X45137500Y-10550000D02*
X44383700Y-11303800D01*
X40278000Y-20437100D02*
X45162100Y-20437100D01*
X32675000Y-19250000D02*
X28222400Y-19250000D01*
X32675000Y-19250000D02*
X33421900Y-19250000D01*
X33421900Y-19250000D02*
X33913400Y-18758500D01*
X35067500Y-12137500D02*
X31537800Y-12137500D01*
X18933200Y-21203300D02*
X18772900Y-21043000D01*
X43600600Y-13003000D02*
X35933000Y-13003000D01*
%TO.N,/CTL/ADC_R4*%
X27750000Y-23433900D02*
X27750000Y-22675000D01*
X45771500Y-24593200D02*
X28909300Y-24593200D01*
X54000000Y-22500000D02*
X47864700Y-22500000D01*
X28909300Y-24593200D02*
X27750000Y-23433900D01*
X47864700Y-22500000D02*
X45771500Y-24593200D01*
%TO.N,/CTL/ADC_R3*%
X45853700Y-23676700D02*
X33912200Y-23676700D01*
X27599200Y-21576800D02*
X27250000Y-21926000D01*
X54000000Y-21500000D02*
X48030400Y-21500000D01*
X31812300Y-21576800D02*
X27599200Y-21576800D01*
X48030400Y-21500000D02*
X45853700Y-23676700D01*
X33912200Y-23676700D02*
X31812300Y-21576800D01*
X27250000Y-21926000D02*
X27250000Y-22675000D01*
%TO.N,/CTL/ADC_R2*%
X54414700Y-23489300D02*
X55107200Y-22796800D01*
X26750000Y-22675000D02*
X26750000Y-23474300D01*
X48549700Y-23489300D02*
X54414700Y-23489300D01*
X54526400Y-19500000D02*
X54000000Y-19500000D01*
X26750000Y-23474300D02*
X28237500Y-24961800D01*
X47077200Y-24961800D02*
X48549700Y-23489300D01*
X55107200Y-22796800D02*
X55107200Y-20080800D01*
X55107200Y-20080800D02*
X54526400Y-19500000D01*
X28237500Y-24961800D02*
X47077200Y-24961800D01*
%TO.N,/CTL/ADC_R1*%
X26250000Y-21874500D02*
X26250000Y-22675000D01*
X26972100Y-21152400D02*
X26250000Y-21874500D01*
X54000000Y-17500000D02*
X38080000Y-17500000D01*
X38080000Y-17500000D02*
X34427600Y-21152400D01*
X34427600Y-21152400D02*
X26972100Y-21152400D01*
%TO.N,/CTL/MUX_A2*%
X31833400Y-12847400D02*
X33751400Y-12847400D01*
X34704200Y-13800200D02*
X38863300Y-13800200D01*
X33751400Y-12847400D02*
X34704200Y-13800200D01*
X21325000Y-18250000D02*
X27253600Y-18250000D01*
X30100100Y-14580700D02*
X31833400Y-12847400D01*
X27253600Y-18250000D02*
X30100100Y-15403500D01*
X30100100Y-15403500D02*
X30100100Y-14580700D01*
X40563100Y-15500000D02*
X54000000Y-15500000D01*
X19311100Y-18189700D02*
X19371400Y-18250000D01*
X3000000Y-18500000D02*
X9743500Y-18500000D01*
X38863300Y-13800200D02*
X40563100Y-15500000D01*
X19371400Y-18250000D02*
X21325000Y-18250000D01*
%TO.N,/CTL/MUX_A1*%
X53682600Y-14182600D02*
X48415200Y-14182600D01*
X3000000Y-19500000D02*
X3369200Y-19130800D01*
X54000000Y-14500000D02*
X53682600Y-14182600D01*
X3369200Y-19130800D02*
X10196800Y-19130800D01*
X21325000Y-17750000D02*
X26921300Y-17750000D01*
X26921300Y-17750000D02*
X27006100Y-17665200D01*
%TO.N,/CTL/MUX_A0*%
X3422200Y-20077800D02*
X3000000Y-20500000D01*
X11355900Y-20077800D02*
X3422200Y-20077800D01*
X35050400Y-13401600D02*
X34141200Y-12492400D01*
X54000000Y-13500000D02*
X53901600Y-13401600D01*
X26368400Y-14227000D02*
X23345400Y-17250000D01*
X53901600Y-13401600D02*
X35050400Y-13401600D01*
X31691100Y-12492400D02*
X29956500Y-14227000D01*
X21325000Y-17250000D02*
X18325500Y-17250000D01*
X29956500Y-14227000D02*
X26368400Y-14227000D01*
X23345400Y-17250000D02*
X21325000Y-17250000D01*
X34141200Y-12492400D02*
X31691100Y-12492400D01*
%TO.N,/CTL/+3V3A*%
X14312500Y-22500000D02*
X3000000Y-22500000D01*
X21325000Y-19250000D02*
X26980800Y-19250000D01*
X17562500Y-19250000D02*
X14862500Y-21950000D01*
X21325000Y-19250000D02*
X17562500Y-19250000D01*
X14862500Y-21950000D02*
X14312500Y-22500000D01*
X54000000Y-11500000D02*
X52154600Y-11500000D01*
%TO.N,/CTL/XTAL_IN*%
X21325000Y-15250000D02*
X20094600Y-15250000D01*
X16035300Y-15714700D02*
X16035300Y-14636900D01*
X16400500Y-14271700D02*
X19116300Y-14271700D01*
X16035300Y-14636900D02*
X16400500Y-14271700D01*
X14900000Y-16850000D02*
X16035300Y-15714700D01*
X19116300Y-14271700D02*
X20092000Y-15247400D01*
X20094600Y-15250000D02*
X20092000Y-15247400D01*
%TO.N,/CTL/XTAL_OUT*%
X21325000Y-15750000D02*
X21274800Y-15800200D01*
X17750200Y-15800200D02*
X17100000Y-15150000D01*
X21325000Y-15750000D02*
X23249600Y-15750000D01*
X21274800Y-15800200D02*
X17750200Y-15800200D01*
X23249600Y-15750000D02*
X23304200Y-15695400D01*
%TO.N,/CTL/BOOT0*%
X19189300Y-3751700D02*
X19395500Y-3957900D01*
X19000000Y-3125000D02*
X13000000Y-3125000D01*
X19000000Y-3751700D02*
X19189300Y-3751700D01*
X25250000Y-10298600D02*
X25250000Y-11325000D01*
X25027500Y-10076100D02*
X25250000Y-10298600D01*
X19000000Y-3125000D02*
X19000000Y-3751700D01*
%TO.N,/CTL/ADC_L4*%
X25750000Y-21598600D02*
X25598800Y-21447400D01*
X25750000Y-22675000D02*
X25750000Y-21598600D01*
X3000000Y-11500000D02*
X17127000Y-11500000D01*
%TO.N,/CTL/ADC_L3*%
X3000000Y-12500000D02*
X5139900Y-12500000D01*
X25250000Y-21933000D02*
X25250000Y-22675000D01*
X16004700Y-21949500D02*
X16347800Y-21606400D01*
X24923400Y-21606400D02*
X25250000Y-21933000D01*
X16347800Y-21606400D02*
X24923400Y-21606400D01*
%TO.N,/CTL/ADC_L2*%
X1485200Y-18071900D02*
X1485200Y-22387100D01*
X2621700Y-23523600D02*
X17513900Y-23523600D01*
X24750000Y-23455100D02*
X24750000Y-22675000D01*
D30*
X1485200Y-14899200D02*
X2600800Y-14899200D01*
X2600800Y-14899200D02*
X3000000Y-14500000D01*
D29*
X1485200Y-22387100D02*
X2621700Y-23523600D01*
X1485200Y-16200000D02*
X1485200Y-14899200D01*
D30*
X1485200Y-16200000D02*
X1485200Y-18071900D01*
D29*
X17513900Y-23523600D02*
X17735300Y-23745000D01*
X24460100Y-23745000D02*
X24750000Y-23455100D01*
X17735300Y-23745000D02*
X24460100Y-23745000D01*
%TO.N,/CTL/ADC_L1*%
X22950100Y-22375100D02*
X23250000Y-22675000D01*
X12489200Y-16500000D02*
X14110600Y-18121400D01*
X3000000Y-16500000D02*
X12489200Y-16500000D01*
X17235000Y-22375100D02*
X22950100Y-22375100D01*
%TO.N,/CTL/NRST*%
X15000000Y-9125000D02*
X15000000Y-9281600D01*
X23276500Y-14889100D02*
X23387000Y-14889100D01*
X23928000Y-15915300D02*
X23593300Y-16250000D01*
X15000000Y-9281600D02*
X17519100Y-9281600D01*
X15000000Y-9281600D02*
X15000000Y-9438300D01*
X15000000Y-9438300D02*
X10065000Y-9438300D01*
X23593300Y-16250000D02*
X21325000Y-16250000D01*
X10065000Y-9438300D02*
X9751700Y-9125000D01*
X9000000Y-9125000D02*
X9751700Y-9125000D01*
X23928000Y-15430100D02*
X23928000Y-15915300D01*
X17519100Y-9281600D02*
X17644500Y-9407000D01*
X23387000Y-14889100D02*
X23928000Y-15430100D01*
%TO.N,/LS/ADC_L4*%
X16985000Y-33000000D02*
X15500000Y-30800000D01*
%TO.N,/LS/ADC_L3*%
X15715000Y-33000000D02*
X14500000Y-30800000D01*
%TO.N,/LS/GND*%
X11500000Y-34400000D02*
X11500000Y-35400000D01*
X5500000Y-35400000D02*
X9365000Y-35400000D01*
X9500000Y-34400000D02*
X9500000Y-35400000D01*
X13500000Y-35400000D02*
X14445000Y-35400000D01*
X14445000Y-33000000D02*
X14445000Y-35400000D01*
X9500000Y-35400000D02*
X11500000Y-35400000D01*
X9365000Y-33000000D02*
X9365000Y-35400000D01*
X11500000Y-35400000D02*
X11905000Y-35400000D01*
X13500000Y-34400000D02*
X13500000Y-35400000D01*
X11905000Y-35400000D02*
X13500000Y-35400000D01*
X11905000Y-33000000D02*
X11905000Y-35400000D01*
X4285000Y-33000000D02*
X4285000Y-35400000D01*
X5500000Y-34400000D02*
X5500000Y-35400000D01*
X4285000Y-35400000D02*
X5500000Y-35400000D01*
X9365000Y-35400000D02*
X9500000Y-35400000D01*
%TO.N,/LS/ADC_L2*%
X13175000Y-33000000D02*
X12500000Y-30800000D01*
%TO.N,/LS/ADC_L1*%
X10635000Y-33000000D02*
X10500000Y-30800000D01*
%TO.N,/LS/MUX_A2*%
X8095000Y-33000000D02*
X8500000Y-30800000D01*
%TO.N,/LS/MUX_A1*%
X6825000Y-33000000D02*
X7500000Y-30800000D01*
%TO.N,/LS/MUX_A0*%
X5555000Y-33000000D02*
X6500000Y-30800000D01*
%TO.N,/LS/+3V3A*%
X3015000Y-33000000D02*
X4500000Y-30800000D01*
%TO.N,/RS/+3V3A*%
X40015000Y-33000000D02*
X41500000Y-30800000D01*
%TO.N,/RS/GND*%
X50500000Y-34400000D02*
X50500000Y-35400000D01*
X41285000Y-35400000D02*
X42500000Y-35400000D01*
X50500000Y-35400000D02*
X51445000Y-35400000D01*
X48500000Y-35400000D02*
X48905000Y-35400000D01*
X43825000Y-33000000D02*
X43825000Y-35400000D01*
X48500000Y-34400000D02*
X48500000Y-35400000D01*
X46500000Y-35400000D02*
X48500000Y-35400000D01*
X51445000Y-33000000D02*
X51445000Y-35400000D01*
X42500000Y-35400000D02*
X43825000Y-35400000D01*
X46500000Y-34400000D02*
X46500000Y-35400000D01*
X48905000Y-33000000D02*
X48905000Y-35400000D01*
X43825000Y-35400000D02*
X46500000Y-35400000D01*
X41285000Y-33000000D02*
X41285000Y-35400000D01*
X42500000Y-34400000D02*
X42500000Y-35400000D01*
X48905000Y-35400000D02*
X50500000Y-35400000D01*
%TO.N,/RS/MUX_A0*%
X42555000Y-33000000D02*
X43500000Y-30800000D01*
%TO.N,/RS/MUX_A1*%
X45095000Y-33000000D02*
X44500000Y-30800000D01*
%TO.N,/RS/MUX_A2*%
X46365000Y-33000000D02*
X45500000Y-30800000D01*
%TO.N,/RS/ADC_R1*%
X47635000Y-33000000D02*
X47500000Y-30800000D01*
%TO.N,/RS/ADC_R2*%
X50175000Y-33000000D02*
X49500000Y-30800000D01*
%TO.N,/RS/ADC_R3*%
X52715000Y-33000000D02*
X51500000Y-30800000D01*
%TO.N,/RS/ADC_R4*%
X53985000Y-33000000D02*
X52500000Y-30800000D01*
%TD*%
%TA.AperFunction,Conductor*%
%TO.N,/CTL/GND*%
G36*
X31663590Y-21996207D02*
G01*
X31675403Y-22006296D01*
X33666287Y-23997180D01*
X33666289Y-23997181D01*
X33666290Y-23997182D01*
X33666291Y-23997183D01*
X33684964Y-24007964D01*
X33725905Y-24053433D01*
X33732301Y-24114284D01*
X33701708Y-24167272D01*
X33645812Y-24192158D01*
X33635464Y-24192700D01*
X29116200Y-24192700D01*
X29058009Y-24173793D01*
X29046196Y-24163704D01*
X28801462Y-23918970D01*
X28773685Y-23864453D01*
X28783256Y-23804021D01*
X28826521Y-23760756D01*
X28857194Y-23751000D01*
X28860626Y-23750500D01*
X28860636Y-23750500D01*
X28933625Y-23739866D01*
X28956520Y-23728672D01*
X29017102Y-23720102D01*
X29043478Y-23728672D01*
X29066375Y-23739866D01*
X29139364Y-23750500D01*
X29139367Y-23750500D01*
X29360632Y-23750500D01*
X29360636Y-23750500D01*
X29433625Y-23739866D01*
X29456520Y-23728672D01*
X29517102Y-23720102D01*
X29543478Y-23728672D01*
X29566375Y-23739866D01*
X29639364Y-23750500D01*
X29639367Y-23750500D01*
X29860632Y-23750500D01*
X29860636Y-23750500D01*
X29933625Y-23739866D01*
X30046211Y-23684826D01*
X30134826Y-23596211D01*
X30161059Y-23542549D01*
X30203602Y-23498576D01*
X30263868Y-23488006D01*
X30318836Y-23514878D01*
X30338940Y-23542548D01*
X30365174Y-23596211D01*
X30453789Y-23684826D01*
X30566375Y-23739866D01*
X30639364Y-23750500D01*
X30639367Y-23750500D01*
X30860632Y-23750500D01*
X30860636Y-23750500D01*
X30933625Y-23739866D01*
X31046211Y-23684826D01*
X31134826Y-23596211D01*
X31189866Y-23483625D01*
X31200500Y-23410636D01*
X31200500Y-22076300D01*
X31219407Y-22018109D01*
X31268907Y-21982145D01*
X31299500Y-21977300D01*
X31605399Y-21977300D01*
X31663590Y-21996207D01*
G37*
%TD.AperFunction*%
%TA.AperFunction,Conductor*%
G36*
X13499370Y-318907D02*
G01*
X13511176Y-328990D01*
X13582686Y-400500D01*
X13582688Y-400501D01*
X13582690Y-400503D01*
X13696810Y-466390D01*
X13696808Y-466390D01*
X13696812Y-466391D01*
X13696814Y-466392D01*
X13824108Y-500500D01*
X13824110Y-500500D01*
X13955890Y-500500D01*
X13955892Y-500500D01*
X14083186Y-466392D01*
X14083188Y-466390D01*
X14083190Y-466390D01*
X14197309Y-400503D01*
X14197309Y-400502D01*
X14197314Y-400500D01*
X14197317Y-400496D01*
X14202460Y-396551D01*
X14203818Y-398321D01*
X14249513Y-375040D01*
X14309945Y-384611D01*
X14327124Y-397092D01*
X14327540Y-396551D01*
X14332690Y-400503D01*
X14446810Y-466390D01*
X14446808Y-466390D01*
X14446812Y-466391D01*
X14446814Y-466392D01*
X14574108Y-500500D01*
X14574110Y-500500D01*
X14705890Y-500500D01*
X14705892Y-500500D01*
X14833186Y-466392D01*
X14833188Y-466390D01*
X14833190Y-466390D01*
X14947309Y-400503D01*
X14947309Y-400502D01*
X14947314Y-400500D01*
X14947317Y-400496D01*
X14952460Y-396551D01*
X14953818Y-398321D01*
X14999513Y-375040D01*
X15059945Y-384611D01*
X15077124Y-397092D01*
X15077540Y-396551D01*
X15082690Y-400503D01*
X15196810Y-466390D01*
X15196808Y-466390D01*
X15196812Y-466391D01*
X15196814Y-466392D01*
X15324108Y-500500D01*
X15324110Y-500500D01*
X15455890Y-500500D01*
X15455892Y-500500D01*
X15583186Y-466392D01*
X15583188Y-466390D01*
X15583190Y-466390D01*
X15697309Y-400503D01*
X15697309Y-400502D01*
X15697314Y-400500D01*
X15697317Y-400496D01*
X15702460Y-396551D01*
X15703818Y-398321D01*
X15749513Y-375040D01*
X15809945Y-384611D01*
X15827124Y-397092D01*
X15827540Y-396551D01*
X15832690Y-400503D01*
X15946810Y-466390D01*
X15946808Y-466390D01*
X15946812Y-466391D01*
X15946814Y-466392D01*
X16074108Y-500500D01*
X16074110Y-500500D01*
X16205890Y-500500D01*
X16205892Y-500500D01*
X16333186Y-466392D01*
X16333188Y-466390D01*
X16333190Y-466390D01*
X16447309Y-400503D01*
X16447309Y-400502D01*
X16447314Y-400500D01*
X16447317Y-400496D01*
X16452460Y-396551D01*
X16453818Y-398321D01*
X16499513Y-375040D01*
X16559945Y-384611D01*
X16577124Y-397092D01*
X16577540Y-396551D01*
X16582690Y-400503D01*
X16696810Y-466390D01*
X16696808Y-466390D01*
X16696812Y-466391D01*
X16696814Y-466392D01*
X16824108Y-500500D01*
X16824110Y-500500D01*
X16955890Y-500500D01*
X16955892Y-500500D01*
X17083186Y-466392D01*
X17083188Y-466390D01*
X17083190Y-466390D01*
X17197309Y-400503D01*
X17197309Y-400502D01*
X17197314Y-400500D01*
X17268819Y-328994D01*
X17323334Y-301219D01*
X17338821Y-300000D01*
X30404732Y-300000D01*
X30462923Y-318907D01*
X30474735Y-328996D01*
X30720503Y-574763D01*
X30748281Y-629280D01*
X30749500Y-644767D01*
X30749500Y-1049828D01*
X30787634Y-1141894D01*
X30787635Y-1141895D01*
X30787636Y-1141897D01*
X30858103Y-1212364D01*
X30858104Y-1212364D01*
X30858105Y-1212365D01*
X30950171Y-1250500D01*
X30950172Y-1250500D01*
X44049829Y-1250500D01*
X44107885Y-1226451D01*
X44141897Y-1212364D01*
X44212364Y-1141897D01*
X44250500Y-1049828D01*
X44250500Y-644767D01*
X44269407Y-586577D01*
X44279496Y-574764D01*
X44525264Y-328996D01*
X44579781Y-301219D01*
X44595268Y-300000D01*
X54990189Y-300000D01*
X54995003Y-300117D01*
X55063703Y-303461D01*
X55073443Y-304420D01*
X55131708Y-313087D01*
X55141209Y-314980D01*
X55194027Y-328225D01*
X55198406Y-329323D01*
X55207643Y-332124D01*
X55263109Y-351958D01*
X55272114Y-355690D01*
X55325428Y-380930D01*
X55333955Y-385490D01*
X55384510Y-415789D01*
X55392624Y-421213D01*
X55439924Y-456323D01*
X55447375Y-462438D01*
X55491068Y-502011D01*
X55497988Y-508931D01*
X55537561Y-552624D01*
X55543676Y-560075D01*
X55578786Y-607375D01*
X55584210Y-615489D01*
X55614509Y-666044D01*
X55619071Y-674575D01*
X55644308Y-727882D01*
X55648045Y-736900D01*
X55667869Y-792338D01*
X55670676Y-801593D01*
X55685017Y-858784D01*
X55686913Y-868297D01*
X55695578Y-926550D01*
X55696538Y-936301D01*
X55699883Y-1004995D01*
X55700000Y-1009810D01*
X55700000Y-7900500D01*
X55681093Y-7958691D01*
X55631593Y-7994655D01*
X55601000Y-7999500D01*
X54306627Y-7999500D01*
X54306612Y-7999501D01*
X54240068Y-8005547D01*
X54240062Y-8005549D01*
X54086936Y-8053264D01*
X54086925Y-8053269D01*
X53949668Y-8136244D01*
X53836244Y-8249668D01*
X53753269Y-8386925D01*
X53753264Y-8386937D01*
X53705548Y-8540064D01*
X53699500Y-8606614D01*
X53699500Y-9793372D01*
X53699501Y-9793387D01*
X53705547Y-9859931D01*
X53705549Y-9859937D01*
X53753264Y-10013063D01*
X53753269Y-10013074D01*
X53836244Y-10150331D01*
X53836245Y-10150332D01*
X53836247Y-10150335D01*
X53949665Y-10263753D01*
X53949667Y-10263754D01*
X53949668Y-10263755D01*
X54086925Y-10346730D01*
X54086928Y-10346731D01*
X54086931Y-10346733D01*
X54086935Y-10346734D01*
X54086937Y-10346735D01*
X54188172Y-10378281D01*
X54240067Y-10394452D01*
X54306619Y-10400500D01*
X55601001Y-10400499D01*
X55659191Y-10419406D01*
X55695155Y-10468906D01*
X55700000Y-10499499D01*
X55700000Y-19993766D01*
X55681093Y-20051957D01*
X55631593Y-20087921D01*
X55570407Y-20087921D01*
X55520907Y-20051957D01*
X55505373Y-20019388D01*
X55499083Y-19995913D01*
X55488528Y-19956521D01*
X55480407Y-19926212D01*
X55480405Y-19926209D01*
X55480405Y-19926207D01*
X55427683Y-19834891D01*
X55427681Y-19834889D01*
X55427680Y-19834887D01*
X54772313Y-19179520D01*
X54772310Y-19179518D01*
X54772308Y-19179516D01*
X54680991Y-19126794D01*
X54680993Y-19126794D01*
X54641470Y-19116204D01*
X54579127Y-19099500D01*
X54579125Y-19099500D01*
X54475008Y-19099500D01*
X54416817Y-19080593D01*
X54395352Y-19059288D01*
X54394099Y-19057590D01*
X54372150Y-19027850D01*
X54372149Y-19027849D01*
X54262883Y-18947207D01*
X54134703Y-18902355D01*
X54134694Y-18902353D01*
X54104274Y-18899500D01*
X54104266Y-18899500D01*
X52095734Y-18899500D01*
X52095725Y-18899500D01*
X52065305Y-18902353D01*
X52065296Y-18902355D01*
X51937116Y-18947207D01*
X51827855Y-19027845D01*
X51827845Y-19027855D01*
X51747207Y-19137116D01*
X51702355Y-19265296D01*
X51702353Y-19265305D01*
X51699500Y-19295725D01*
X51699500Y-19704274D01*
X51702353Y-19734694D01*
X51702355Y-19734703D01*
X51747207Y-19862883D01*
X51827845Y-19972144D01*
X51827847Y-19972146D01*
X51827850Y-19972150D01*
X51827853Y-19972152D01*
X51827855Y-19972154D01*
X51937116Y-20052792D01*
X51937117Y-20052792D01*
X51937118Y-20052793D01*
X52065301Y-20097646D01*
X52095725Y-20100499D01*
X52095727Y-20100500D01*
X52095734Y-20100500D01*
X54104273Y-20100500D01*
X54104273Y-20100499D01*
X54134699Y-20097646D01*
X54262882Y-20052793D01*
X54338128Y-19997258D01*
X54396173Y-19977918D01*
X54454503Y-19996389D01*
X54466918Y-20006911D01*
X54677704Y-20217697D01*
X54705481Y-20272214D01*
X54706700Y-20287701D01*
X54706700Y-22589899D01*
X54687793Y-22648090D01*
X54677704Y-22659903D01*
X54669504Y-22668103D01*
X54614987Y-22695880D01*
X54554555Y-22686309D01*
X54511290Y-22643044D01*
X54500500Y-22598099D01*
X54500500Y-22295727D01*
X54500499Y-22295725D01*
X54497646Y-22265305D01*
X54497646Y-22265301D01*
X54452793Y-22137118D01*
X54425030Y-22099500D01*
X54394984Y-22058788D01*
X54375642Y-22000740D01*
X54394114Y-21942410D01*
X54394984Y-21941212D01*
X54452792Y-21862883D01*
X54452791Y-21862883D01*
X54452793Y-21862882D01*
X54497646Y-21734699D01*
X54500499Y-21704273D01*
X54500500Y-21704273D01*
X54500500Y-21295727D01*
X54500499Y-21295725D01*
X54500070Y-21291148D01*
X54497646Y-21265301D01*
X54452793Y-21137118D01*
X54445172Y-21126792D01*
X54372154Y-21027855D01*
X54372152Y-21027853D01*
X54372150Y-21027850D01*
X54372146Y-21027847D01*
X54372144Y-21027845D01*
X54262883Y-20947207D01*
X54134703Y-20902355D01*
X54134694Y-20902353D01*
X54104274Y-20899500D01*
X54104266Y-20899500D01*
X52095734Y-20899500D01*
X52095725Y-20899500D01*
X52065305Y-20902353D01*
X52065296Y-20902355D01*
X51937116Y-20947207D01*
X51827850Y-21027849D01*
X51804648Y-21059288D01*
X51754880Y-21094881D01*
X51724992Y-21099500D01*
X48089206Y-21099500D01*
X48089190Y-21099499D01*
X48083127Y-21099499D01*
X47977673Y-21099499D01*
X47977670Y-21099499D01*
X47875813Y-21126792D01*
X47875809Y-21126794D01*
X47784487Y-21179519D01*
X47709919Y-21254086D01*
X47709920Y-21254087D01*
X45716803Y-23247204D01*
X45662286Y-23274981D01*
X45646799Y-23276200D01*
X39659500Y-23276200D01*
X39601309Y-23257293D01*
X39565345Y-23207793D01*
X39560500Y-23177200D01*
X39560499Y-22762542D01*
X39559395Y-22750774D01*
X39557741Y-22733121D01*
X39514381Y-22609206D01*
X39514380Y-22609204D01*
X39436427Y-22503581D01*
X39436418Y-22503572D01*
X39330795Y-22425619D01*
X39206883Y-22382260D01*
X39206874Y-22382258D01*
X39177467Y-22379500D01*
X39177457Y-22379500D01*
X38976900Y-22379500D01*
X38918709Y-22360593D01*
X38906896Y-22350504D01*
X38325620Y-21769228D01*
X38299997Y-21724845D01*
X38288979Y-21683721D01*
X38288978Y-21683719D01*
X38288977Y-21683718D01*
X38288977Y-21683716D01*
X38209920Y-21546784D01*
X38098116Y-21434980D01*
X37961184Y-21355923D01*
X37808457Y-21315000D01*
X37650343Y-21315000D01*
X37497616Y-21355923D01*
X37360684Y-21434980D01*
X37248880Y-21546784D01*
X37169823Y-21683716D01*
X37128900Y-21836443D01*
X37128900Y-21994557D01*
X37169823Y-22147284D01*
X37248880Y-22284216D01*
X37360684Y-22396020D01*
X37497616Y-22475077D01*
X37650343Y-22516000D01*
X37650345Y-22516000D01*
X37808457Y-22516000D01*
X37856680Y-22503078D01*
X37917781Y-22506279D01*
X37952308Y-22528700D01*
X38390504Y-22966896D01*
X38418281Y-23021413D01*
X38419500Y-23036899D01*
X38419500Y-23116094D01*
X38419501Y-23177199D01*
X38400594Y-23235390D01*
X38351094Y-23271354D01*
X38320501Y-23276200D01*
X34119101Y-23276200D01*
X34060910Y-23257293D01*
X34049097Y-23247204D01*
X32523797Y-21721904D01*
X32496020Y-21667387D01*
X32505591Y-21606955D01*
X32548856Y-21563690D01*
X32593801Y-21552900D01*
X34480325Y-21552900D01*
X34480327Y-21552900D01*
X34582188Y-21525607D01*
X34582190Y-21525605D01*
X34582192Y-21525605D01*
X34673508Y-21472883D01*
X34673508Y-21472882D01*
X34673513Y-21472880D01*
X35788349Y-20358043D01*
X39677500Y-20358043D01*
X39677500Y-20516157D01*
X39718423Y-20668884D01*
X39797480Y-20805816D01*
X39909284Y-20917620D01*
X40046216Y-20996677D01*
X40198943Y-21037600D01*
X40198945Y-21037600D01*
X40357055Y-21037600D01*
X40357057Y-21037600D01*
X40509784Y-20996677D01*
X40646716Y-20917620D01*
X40672229Y-20892106D01*
X40697741Y-20866596D01*
X40752258Y-20838819D01*
X40767744Y-20837600D01*
X44875500Y-20837600D01*
X44933691Y-20856507D01*
X44969655Y-20906007D01*
X44974500Y-20936600D01*
X44974500Y-21291148D01*
X44984641Y-21375591D01*
X45037634Y-21509972D01*
X45037635Y-21509974D01*
X45037636Y-21509975D01*
X45124922Y-21625078D01*
X45240025Y-21712364D01*
X45240026Y-21712364D01*
X45240027Y-21712365D01*
X45296662Y-21734699D01*
X45374410Y-21765359D01*
X45458856Y-21775500D01*
X45458858Y-21775500D01*
X45991142Y-21775500D01*
X45991144Y-21775500D01*
X46075590Y-21765359D01*
X46209975Y-21712364D01*
X46325078Y-21625078D01*
X46412364Y-21509975D01*
X46465359Y-21375590D01*
X46475500Y-21291144D01*
X46475500Y-20708856D01*
X46465359Y-20624410D01*
X46422669Y-20516157D01*
X46412365Y-20490027D01*
X46412364Y-20490026D01*
X46412364Y-20490025D01*
X46325078Y-20374922D01*
X46209975Y-20287636D01*
X46209974Y-20287635D01*
X46209972Y-20287634D01*
X46075591Y-20234641D01*
X45991148Y-20224500D01*
X45991144Y-20224500D01*
X45556901Y-20224500D01*
X45498710Y-20205593D01*
X45486898Y-20195504D01*
X45408013Y-20116620D01*
X45408008Y-20116616D01*
X45316691Y-20063894D01*
X45316693Y-20063894D01*
X45272141Y-20051957D01*
X45214827Y-20036600D01*
X45214825Y-20036600D01*
X40767744Y-20036600D01*
X40709553Y-20017693D01*
X40697741Y-20007604D01*
X40646718Y-19956582D01*
X40646716Y-19956580D01*
X40509784Y-19877523D01*
X40357057Y-19836600D01*
X40198943Y-19836600D01*
X40046216Y-19877523D01*
X39909284Y-19956580D01*
X39797480Y-20068384D01*
X39718423Y-20205316D01*
X39677500Y-20358043D01*
X35788349Y-20358043D01*
X38216896Y-17929495D01*
X38271413Y-17901719D01*
X38286900Y-17900500D01*
X51724992Y-17900500D01*
X51783183Y-17919407D01*
X51804648Y-17940712D01*
X51827850Y-17972150D01*
X51937116Y-18052792D01*
X51937117Y-18052792D01*
X51937118Y-18052793D01*
X52065301Y-18097646D01*
X52095725Y-18100499D01*
X52095727Y-18100500D01*
X52095734Y-18100500D01*
X54104273Y-18100500D01*
X54104273Y-18100499D01*
X54134699Y-18097646D01*
X54262882Y-18052793D01*
X54372150Y-17972150D01*
X54452793Y-17862882D01*
X54497646Y-17734699D01*
X54500499Y-17704273D01*
X54500500Y-17704273D01*
X54500500Y-17295727D01*
X54500499Y-17295725D01*
X54497646Y-17265305D01*
X54497646Y-17265301D01*
X54452793Y-17137118D01*
X54445172Y-17126792D01*
X54372154Y-17027855D01*
X54372152Y-17027853D01*
X54372150Y-17027850D01*
X54372146Y-17027847D01*
X54372144Y-17027845D01*
X54262883Y-16947207D01*
X54134703Y-16902355D01*
X54134694Y-16902353D01*
X54104274Y-16899500D01*
X54104266Y-16899500D01*
X52095734Y-16899500D01*
X52095725Y-16899500D01*
X52065305Y-16902353D01*
X52065296Y-16902355D01*
X51937116Y-16947207D01*
X51827850Y-17027849D01*
X51804648Y-17059288D01*
X51754880Y-17094881D01*
X51724992Y-17099500D01*
X38138806Y-17099500D01*
X38138790Y-17099499D01*
X38132727Y-17099499D01*
X38027273Y-17099499D01*
X38027270Y-17099499D01*
X37925413Y-17126792D01*
X37925409Y-17126794D01*
X37834087Y-17179519D01*
X37759519Y-17254086D01*
X37759520Y-17254087D01*
X36559504Y-18454103D01*
X36504987Y-18481880D01*
X36444555Y-18472309D01*
X36401290Y-18429044D01*
X36390500Y-18384099D01*
X36390500Y-15580293D01*
X36409407Y-15522102D01*
X36430713Y-15500637D01*
X36431576Y-15500000D01*
X36436423Y-15496423D01*
X36514381Y-15390794D01*
X36557741Y-15266879D01*
X36560500Y-15237457D01*
X36560499Y-14868799D01*
X36579406Y-14810609D01*
X36628906Y-14774645D01*
X36659499Y-14769800D01*
X37221456Y-14769800D01*
X37279647Y-14788707D01*
X37291459Y-14798796D01*
X37325102Y-14832438D01*
X37342484Y-14849820D01*
X37479416Y-14928877D01*
X37632143Y-14969800D01*
X37632145Y-14969800D01*
X37790255Y-14969800D01*
X37790257Y-14969800D01*
X37942984Y-14928877D01*
X38079916Y-14849820D01*
X38191720Y-14738016D01*
X38270777Y-14601084D01*
X38311700Y-14448357D01*
X38311700Y-14299700D01*
X38330607Y-14241509D01*
X38380107Y-14205545D01*
X38410700Y-14200700D01*
X38656399Y-14200700D01*
X38714590Y-14219607D01*
X38726403Y-14229696D01*
X40317187Y-15820480D01*
X40317189Y-15820481D01*
X40317190Y-15820482D01*
X40317191Y-15820483D01*
X40408508Y-15873205D01*
X40408506Y-15873205D01*
X40408510Y-15873206D01*
X40408512Y-15873207D01*
X40510373Y-15900500D01*
X40615827Y-15900500D01*
X51724992Y-15900500D01*
X51783183Y-15919407D01*
X51804648Y-15940712D01*
X51827850Y-15972150D01*
X51937116Y-16052792D01*
X51937117Y-16052792D01*
X51937118Y-16052793D01*
X52065301Y-16097646D01*
X52095725Y-16100499D01*
X52095727Y-16100500D01*
X52095734Y-16100500D01*
X54104273Y-16100500D01*
X54104273Y-16100499D01*
X54134699Y-16097646D01*
X54262882Y-16052793D01*
X54372150Y-15972150D01*
X54452793Y-15862882D01*
X54497646Y-15734699D01*
X54500499Y-15704273D01*
X54500500Y-15704273D01*
X54500500Y-15295727D01*
X54500499Y-15295725D01*
X54497646Y-15265300D01*
X54497644Y-15265296D01*
X54495027Y-15257816D01*
X54452793Y-15137118D01*
X54452792Y-15137116D01*
X54394984Y-15058788D01*
X54375642Y-15000740D01*
X54394114Y-14942410D01*
X54394984Y-14941212D01*
X54452792Y-14862883D01*
X54452791Y-14862883D01*
X54452793Y-14862882D01*
X54497646Y-14734699D01*
X54500499Y-14704273D01*
X54500500Y-14704273D01*
X54500500Y-14295727D01*
X54500499Y-14295725D01*
X54497646Y-14265305D01*
X54497646Y-14265301D01*
X54452793Y-14137118D01*
X54452792Y-14137116D01*
X54394984Y-14058788D01*
X54375642Y-14000740D01*
X54394114Y-13942410D01*
X54394984Y-13941212D01*
X54446654Y-13871200D01*
X54452793Y-13862882D01*
X54497646Y-13734699D01*
X54500499Y-13704273D01*
X54500500Y-13704273D01*
X54500500Y-13295727D01*
X54500499Y-13295725D01*
X54497646Y-13265305D01*
X54497646Y-13265301D01*
X54452793Y-13137118D01*
X54425767Y-13100499D01*
X54372154Y-13027855D01*
X54372152Y-13027853D01*
X54372150Y-13027850D01*
X54372146Y-13027847D01*
X54372144Y-13027845D01*
X54262883Y-12947207D01*
X54134703Y-12902355D01*
X54134694Y-12902353D01*
X54104274Y-12899500D01*
X54104266Y-12899500D01*
X52095734Y-12899500D01*
X52095725Y-12899500D01*
X52065305Y-12902353D01*
X52065296Y-12902355D01*
X51937116Y-12947207D01*
X51890306Y-12981755D01*
X51832258Y-13001097D01*
X51831518Y-13001100D01*
X46109990Y-13001100D01*
X46051799Y-12982193D01*
X46015835Y-12932693D01*
X46015835Y-12871507D01*
X46030333Y-12843313D01*
X46052793Y-12812882D01*
X46097646Y-12684699D01*
X46100499Y-12654273D01*
X46100500Y-12654273D01*
X46100500Y-12245727D01*
X46100499Y-12245725D01*
X46097646Y-12215305D01*
X46097646Y-12215301D01*
X46052793Y-12087118D01*
X46043033Y-12073894D01*
X45972154Y-11977855D01*
X45972152Y-11977853D01*
X45972150Y-11977850D01*
X45972146Y-11977847D01*
X45972144Y-11977845D01*
X45862883Y-11897207D01*
X45734703Y-11852355D01*
X45734694Y-11852353D01*
X45704274Y-11849500D01*
X45704266Y-11849500D01*
X44921543Y-11849500D01*
X44863352Y-11830593D01*
X44827388Y-11781093D01*
X44827388Y-11719907D01*
X44851537Y-11680498D01*
X44859520Y-11672516D01*
X44938577Y-11535584D01*
X44969295Y-11420943D01*
X51554100Y-11420943D01*
X51554100Y-11579057D01*
X51595023Y-11731784D01*
X51674080Y-11868716D01*
X51785884Y-11980520D01*
X51922816Y-12059577D01*
X52075543Y-12100500D01*
X52075545Y-12100500D01*
X54104273Y-12100500D01*
X54104273Y-12100499D01*
X54134699Y-12097646D01*
X54262882Y-12052793D01*
X54372150Y-11972150D01*
X54452793Y-11862882D01*
X54497646Y-11734699D01*
X54500499Y-11704273D01*
X54500500Y-11704273D01*
X54500500Y-11295727D01*
X54500499Y-11295725D01*
X54499406Y-11284071D01*
X54497646Y-11265301D01*
X54452793Y-11137118D01*
X54448487Y-11131284D01*
X54372154Y-11027855D01*
X54372152Y-11027853D01*
X54372150Y-11027850D01*
X54372146Y-11027847D01*
X54372144Y-11027845D01*
X54262883Y-10947207D01*
X54134703Y-10902355D01*
X54134694Y-10902353D01*
X54104274Y-10899500D01*
X54104266Y-10899500D01*
X52233657Y-10899500D01*
X52075543Y-10899500D01*
X51922816Y-10940423D01*
X51785884Y-11019480D01*
X51674080Y-11131284D01*
X51595023Y-11268216D01*
X51554100Y-11420943D01*
X44969295Y-11420943D01*
X44979500Y-11382857D01*
X44979500Y-11312924D01*
X44979625Y-11310436D01*
X44989679Y-11284071D01*
X44998407Y-11257210D01*
X45001146Y-11254002D01*
X45001427Y-11253267D01*
X45002212Y-11252754D01*
X45008496Y-11245397D01*
X45074397Y-11179496D01*
X45128914Y-11151719D01*
X45144401Y-11150500D01*
X45704273Y-11150500D01*
X45704273Y-11150499D01*
X45734699Y-11147646D01*
X45862882Y-11102793D01*
X45972150Y-11022150D01*
X46052793Y-10912882D01*
X46097646Y-10784699D01*
X46100499Y-10754273D01*
X46100500Y-10754273D01*
X46100500Y-10345727D01*
X46100499Y-10345725D01*
X46097646Y-10315301D01*
X46052793Y-10187118D01*
X46052792Y-10187116D01*
X46050651Y-10180997D01*
X46049279Y-10119828D01*
X46084123Y-10069533D01*
X46141875Y-10049325D01*
X46144096Y-10049300D01*
X46242755Y-10049300D01*
X46242757Y-10049300D01*
X46395484Y-10008377D01*
X46532416Y-9929320D01*
X46644220Y-9817516D01*
X46723277Y-9680584D01*
X46764200Y-9527857D01*
X46764200Y-9455701D01*
X46783107Y-9397510D01*
X46793196Y-9385697D01*
X46874397Y-9304496D01*
X46928914Y-9276719D01*
X46944401Y-9275500D01*
X46991142Y-9275500D01*
X46991144Y-9275500D01*
X47075590Y-9265359D01*
X47209975Y-9212364D01*
X47325078Y-9125078D01*
X47412364Y-9009975D01*
X47465359Y-8875590D01*
X47475500Y-8791144D01*
X47475500Y-8208856D01*
X47465359Y-8124410D01*
X47416101Y-7999501D01*
X47412365Y-7990027D01*
X47412364Y-7990026D01*
X47412364Y-7990025D01*
X47325078Y-7874922D01*
X47209975Y-7787636D01*
X47209972Y-7787634D01*
X47209971Y-7787634D01*
X47188181Y-7779041D01*
X47140984Y-7740105D01*
X47125500Y-7686944D01*
X47125500Y-5804433D01*
X47144407Y-5746242D01*
X47145617Y-5744613D01*
X47160111Y-5725500D01*
X47214997Y-5586321D01*
X47225500Y-5498860D01*
X47225500Y-4501140D01*
X47214997Y-4413679D01*
X47200800Y-4377680D01*
X47160112Y-4274501D01*
X47069713Y-4155292D01*
X47069711Y-4155289D01*
X46950500Y-4064889D01*
X46950498Y-4064888D01*
X46950498Y-4064887D01*
X46811322Y-4010003D01*
X46723864Y-3999500D01*
X46723860Y-3999500D01*
X46151140Y-3999500D01*
X46151135Y-3999500D01*
X46063677Y-4010003D01*
X45924501Y-4064887D01*
X45924501Y-4064888D01*
X45805292Y-4155286D01*
X45805286Y-4155292D01*
X45714888Y-4274501D01*
X45714887Y-4274501D01*
X45660003Y-4413677D01*
X45649500Y-4501135D01*
X45649500Y-5498864D01*
X45660003Y-5586322D01*
X45714887Y-5725498D01*
X45730618Y-5746242D01*
X45805289Y-5844711D01*
X45924500Y-5935111D01*
X45924501Y-5935111D01*
X45924501Y-5935112D01*
X46027680Y-5975800D01*
X46063679Y-5989997D01*
X46151140Y-6000500D01*
X46225500Y-6000500D01*
X46283691Y-6019407D01*
X46319655Y-6068907D01*
X46324500Y-6099500D01*
X46324500Y-7686944D01*
X46305593Y-7745135D01*
X46261819Y-7779041D01*
X46240028Y-7787634D01*
X46124922Y-7874922D01*
X46037634Y-7990027D01*
X45984641Y-8124408D01*
X45974500Y-8208851D01*
X45974500Y-8791142D01*
X45974501Y-8791164D01*
X45974963Y-8795013D01*
X45963121Y-8855041D01*
X45926168Y-8892540D01*
X45794984Y-8968279D01*
X45743959Y-9019304D01*
X45689442Y-9047081D01*
X45673956Y-9048300D01*
X44016427Y-9048300D01*
X43910973Y-9048300D01*
X43848629Y-9065004D01*
X43809107Y-9075594D01*
X43717791Y-9128316D01*
X42925603Y-9920504D01*
X42871086Y-9948281D01*
X42855599Y-9949500D01*
X42295725Y-9949500D01*
X42265305Y-9952353D01*
X42265296Y-9952355D01*
X42137116Y-9997207D01*
X42027850Y-10077849D01*
X42027846Y-10077855D01*
X42007506Y-10105416D01*
X42004648Y-10109288D01*
X41954880Y-10144881D01*
X41924992Y-10149500D01*
X41332227Y-10149500D01*
X41226773Y-10149500D01*
X41164429Y-10166204D01*
X41124907Y-10176794D01*
X41033591Y-10229516D01*
X40192603Y-11070504D01*
X40138086Y-11098281D01*
X40122599Y-11099500D01*
X40111171Y-11099500D01*
X40052980Y-11080593D01*
X40017016Y-11031093D01*
X40017016Y-10969907D01*
X40031516Y-10941712D01*
X40052792Y-10912883D01*
X40052791Y-10912883D01*
X40052793Y-10912882D01*
X40097646Y-10784699D01*
X40100499Y-10754273D01*
X40100500Y-10754273D01*
X40100500Y-10345727D01*
X40100499Y-10345725D01*
X40097646Y-10315301D01*
X40052793Y-10187118D01*
X40048346Y-10181093D01*
X39972154Y-10077855D01*
X39972152Y-10077853D01*
X39972150Y-10077850D01*
X39972146Y-10077847D01*
X39972144Y-10077845D01*
X39862883Y-9997207D01*
X39734703Y-9952355D01*
X39734694Y-9952353D01*
X39704274Y-9949500D01*
X39704266Y-9949500D01*
X38570734Y-9949500D01*
X38570725Y-9949500D01*
X38540305Y-9952353D01*
X38540296Y-9952355D01*
X38412116Y-9997207D01*
X38302850Y-10077849D01*
X38302846Y-10077855D01*
X38282506Y-10105416D01*
X38279648Y-10109288D01*
X38229880Y-10144881D01*
X38199992Y-10149500D01*
X37800008Y-10149500D01*
X37741817Y-10130593D01*
X37720352Y-10109288D01*
X37697150Y-10077850D01*
X37697149Y-10077849D01*
X37587883Y-9997207D01*
X37459703Y-9952355D01*
X37459694Y-9952353D01*
X37429274Y-9949500D01*
X37429266Y-9949500D01*
X37182783Y-9949500D01*
X37124592Y-9930593D01*
X37088628Y-9881093D01*
X37088628Y-9819907D01*
X37097046Y-9801000D01*
X37121420Y-9758783D01*
X37123207Y-9755688D01*
X37150500Y-9653827D01*
X37150500Y-9548373D01*
X37150500Y-9238100D01*
X37169407Y-9179909D01*
X37218907Y-9143945D01*
X37249500Y-9139100D01*
X37529326Y-9139100D01*
X37529327Y-9139100D01*
X37595422Y-9121390D01*
X37656522Y-9124591D01*
X37704072Y-9163096D01*
X37706769Y-9167497D01*
X37769480Y-9276116D01*
X37881284Y-9387920D01*
X38018216Y-9466977D01*
X38170943Y-9507900D01*
X38170945Y-9507900D01*
X38329055Y-9507900D01*
X38329057Y-9507900D01*
X38481784Y-9466977D01*
X38618716Y-9387920D01*
X38730520Y-9276116D01*
X38809577Y-9139184D01*
X38850500Y-8986457D01*
X38850500Y-8828343D01*
X38850499Y-8828342D01*
X38849653Y-8821911D01*
X38852511Y-8821534D01*
X38855087Y-8772408D01*
X38893593Y-8724858D01*
X38926391Y-8712502D01*
X38926278Y-8712136D01*
X38932329Y-8710266D01*
X38933243Y-8709921D01*
X38933625Y-8709866D01*
X38956520Y-8698672D01*
X39017102Y-8690102D01*
X39043478Y-8698672D01*
X39066375Y-8709866D01*
X39139364Y-8720500D01*
X39139367Y-8720500D01*
X39360632Y-8720500D01*
X39360636Y-8720500D01*
X39433625Y-8709866D01*
X39504708Y-8675115D01*
X39565287Y-8666544D01*
X39580885Y-8670612D01*
X39587118Y-8672793D01*
X39715301Y-8717646D01*
X39745725Y-8720499D01*
X39745727Y-8720500D01*
X39745734Y-8720500D01*
X40154273Y-8720500D01*
X40154273Y-8720499D01*
X40184699Y-8717646D01*
X40312882Y-8672793D01*
X40422150Y-8592150D01*
X40502793Y-8482882D01*
X40547646Y-8354699D01*
X40550499Y-8324273D01*
X40550500Y-8324273D01*
X40550500Y-7065727D01*
X40550499Y-7065725D01*
X40547646Y-7035305D01*
X40547646Y-7035301D01*
X40508746Y-6924133D01*
X40507374Y-6862965D01*
X40542217Y-6812670D01*
X40576565Y-6795811D01*
X40612135Y-6786281D01*
X40743365Y-6710515D01*
X40850515Y-6603365D01*
X40926281Y-6472135D01*
X40965500Y-6325766D01*
X40965500Y-6174234D01*
X40926281Y-6027865D01*
X40926279Y-6027862D01*
X40926279Y-6027860D01*
X40850518Y-5896639D01*
X40850516Y-5896637D01*
X40850515Y-5896635D01*
X40743365Y-5789485D01*
X40743362Y-5789483D01*
X40743360Y-5789481D01*
X40612138Y-5713720D01*
X40612140Y-5713720D01*
X40552918Y-5697852D01*
X40511695Y-5686806D01*
X40460382Y-5653483D01*
X40438455Y-5596361D01*
X40454291Y-5537261D01*
X40467316Y-5521176D01*
X40558997Y-5429496D01*
X40613514Y-5401719D01*
X40629000Y-5400500D01*
X43675500Y-5400500D01*
X43733691Y-5419407D01*
X43769655Y-5468907D01*
X43773935Y-5495936D01*
X43774120Y-5495925D01*
X43774147Y-5495922D01*
X43774147Y-5495923D01*
X43774324Y-5495913D01*
X43774500Y-5498864D01*
X43785003Y-5586322D01*
X43839887Y-5725498D01*
X43855618Y-5746242D01*
X43930289Y-5844711D01*
X44049500Y-5935111D01*
X44049501Y-5935111D01*
X44049501Y-5935112D01*
X44152680Y-5975800D01*
X44188679Y-5989997D01*
X44276140Y-6000500D01*
X44276142Y-6000500D01*
X44848858Y-6000500D01*
X44848860Y-6000500D01*
X44936321Y-5989997D01*
X45039501Y-5949307D01*
X45075498Y-5935112D01*
X45075498Y-5935111D01*
X45075500Y-5935111D01*
X45194711Y-5844711D01*
X45285111Y-5725500D01*
X45339997Y-5586321D01*
X45350500Y-5498860D01*
X45350500Y-4501140D01*
X45339997Y-4413679D01*
X45325800Y-4377680D01*
X45285112Y-4274501D01*
X45194713Y-4155292D01*
X45194711Y-4155289D01*
X45075500Y-4064889D01*
X45075498Y-4064888D01*
X45075498Y-4064887D01*
X44936322Y-4010003D01*
X44848864Y-3999500D01*
X44848860Y-3999500D01*
X44276140Y-3999500D01*
X44276135Y-3999500D01*
X44188677Y-4010003D01*
X44049501Y-4064887D01*
X44049501Y-4064888D01*
X43930292Y-4155286D01*
X43930286Y-4155292D01*
X43839888Y-4274501D01*
X43839887Y-4274501D01*
X43785003Y-4413677D01*
X43774500Y-4501135D01*
X43774324Y-4504087D01*
X43774147Y-4504076D01*
X43774147Y-4504078D01*
X43774120Y-4504074D01*
X43773353Y-4504028D01*
X43755593Y-4558691D01*
X43706093Y-4594655D01*
X43675500Y-4599500D01*
X40480906Y-4599500D01*
X40480890Y-4599499D01*
X40474827Y-4599499D01*
X40369373Y-4599499D01*
X40369370Y-4599499D01*
X40267513Y-4626792D01*
X40267509Y-4626794D01*
X40176187Y-4679519D01*
X40101619Y-4754086D01*
X40101620Y-4754087D01*
X39346103Y-5509604D01*
X39291586Y-5537381D01*
X39276099Y-5538600D01*
X36246673Y-5538600D01*
X36184331Y-5555304D01*
X36144808Y-5565894D01*
X36109431Y-5586319D01*
X36109432Y-5586320D01*
X36053486Y-5618620D01*
X35354503Y-6317602D01*
X35299987Y-6345379D01*
X35239555Y-6335808D01*
X35196290Y-6292543D01*
X35185500Y-6247598D01*
X35185500Y-6174235D01*
X35165475Y-6099500D01*
X35146281Y-6027865D01*
X35146279Y-6027862D01*
X35146279Y-6027860D01*
X35070518Y-5896639D01*
X35070516Y-5896637D01*
X35070515Y-5896635D01*
X34963365Y-5789485D01*
X34963362Y-5789483D01*
X34963360Y-5789481D01*
X34832138Y-5713720D01*
X34832140Y-5713720D01*
X34775347Y-5698503D01*
X34685766Y-5674500D01*
X34534234Y-5674500D01*
X34444652Y-5698503D01*
X34387860Y-5713720D01*
X34256639Y-5789481D01*
X34149481Y-5896639D01*
X34073720Y-6027860D01*
X34073719Y-6027865D01*
X34034500Y-6174234D01*
X34034500Y-6325766D01*
X34056536Y-6408007D01*
X34073720Y-6472139D01*
X34149481Y-6603360D01*
X34149483Y-6603362D01*
X34149485Y-6603365D01*
X34256635Y-6710515D01*
X34256637Y-6710516D01*
X34256639Y-6710518D01*
X34387861Y-6786279D01*
X34387862Y-6786279D01*
X34387865Y-6786281D01*
X34423431Y-6795810D01*
X34474745Y-6829134D01*
X34496672Y-6886255D01*
X34491253Y-6924134D01*
X34452354Y-7035301D01*
X34452353Y-7035305D01*
X34449500Y-7065725D01*
X34449500Y-8324274D01*
X34452353Y-8354694D01*
X34452355Y-8354703D01*
X34497207Y-8482883D01*
X34577845Y-8592144D01*
X34577847Y-8592146D01*
X34577850Y-8592150D01*
X34577853Y-8592152D01*
X34577855Y-8592154D01*
X34687116Y-8672792D01*
X34687117Y-8672792D01*
X34687118Y-8672793D01*
X34815301Y-8717646D01*
X34845725Y-8720499D01*
X34845727Y-8720500D01*
X34845734Y-8720500D01*
X35254273Y-8720500D01*
X35254273Y-8720499D01*
X35284699Y-8717646D01*
X35297513Y-8713161D01*
X35358681Y-8711788D01*
X35408976Y-8746631D01*
X35415947Y-8757105D01*
X35429518Y-8780611D01*
X35429519Y-8780612D01*
X35429520Y-8780613D01*
X35461600Y-8812693D01*
X35468103Y-8819195D01*
X35495881Y-8873711D01*
X35497100Y-8889199D01*
X35497100Y-8961357D01*
X35538023Y-9114084D01*
X35617080Y-9251016D01*
X35638752Y-9272688D01*
X35666528Y-9327203D01*
X35656957Y-9387635D01*
X35618248Y-9428426D01*
X35579185Y-9450979D01*
X35579184Y-9450980D01*
X35467380Y-9562784D01*
X35388323Y-9699716D01*
X35347400Y-9852443D01*
X35347400Y-10010557D01*
X35388323Y-10163284D01*
X35467380Y-10300216D01*
X35579184Y-10412020D01*
X35716116Y-10491077D01*
X35826124Y-10520553D01*
X35877437Y-10553876D01*
X35899364Y-10610997D01*
X35899500Y-10616179D01*
X35899500Y-10754274D01*
X35902353Y-10784694D01*
X35902355Y-10784703D01*
X35947207Y-10912883D01*
X36027845Y-11022144D01*
X36027847Y-11022146D01*
X36027850Y-11022150D01*
X36027853Y-11022152D01*
X36027855Y-11022154D01*
X36137116Y-11102792D01*
X36137117Y-11102792D01*
X36137118Y-11102793D01*
X36265301Y-11147646D01*
X36295725Y-11150499D01*
X36295727Y-11150500D01*
X36295734Y-11150500D01*
X37429273Y-11150500D01*
X37429273Y-11150499D01*
X37459699Y-11147646D01*
X37587882Y-11102793D01*
X37697150Y-11022150D01*
X37720352Y-10990711D01*
X37770120Y-10955119D01*
X37800008Y-10950500D01*
X38163829Y-10950500D01*
X38222020Y-10969407D01*
X38257984Y-11018907D01*
X38257984Y-11080093D01*
X38243484Y-11108288D01*
X38222207Y-11137116D01*
X38177355Y-11265296D01*
X38177353Y-11265305D01*
X38174500Y-11295725D01*
X38174500Y-11621600D01*
X38155593Y-11679791D01*
X38106093Y-11715755D01*
X38075500Y-11720600D01*
X37920943Y-11720600D01*
X37768216Y-11761523D01*
X37631284Y-11840580D01*
X37631282Y-11840581D01*
X37631280Y-11840583D01*
X37622065Y-11849797D01*
X37567547Y-11877570D01*
X37519371Y-11873233D01*
X37483431Y-11860658D01*
X37459699Y-11852354D01*
X37459697Y-11852353D01*
X37459698Y-11852353D01*
X37429274Y-11849500D01*
X37429266Y-11849500D01*
X36295734Y-11849500D01*
X36295725Y-11849500D01*
X36265305Y-11852353D01*
X36265296Y-11852355D01*
X36137116Y-11897207D01*
X36027855Y-11977845D01*
X36027845Y-11977855D01*
X35947207Y-12087116D01*
X35904970Y-12207823D01*
X35867905Y-12256503D01*
X35809304Y-12274100D01*
X35751553Y-12253892D01*
X35741523Y-12245129D01*
X35313413Y-11817020D01*
X35313408Y-11817016D01*
X35222091Y-11764294D01*
X35222093Y-11764294D01*
X35182570Y-11753704D01*
X35120227Y-11737000D01*
X35120225Y-11737000D01*
X32411311Y-11737000D01*
X32353120Y-11718093D01*
X32317156Y-11668593D01*
X32317156Y-11607407D01*
X32352523Y-11558345D01*
X32436418Y-11496427D01*
X32436419Y-11496425D01*
X32436423Y-11496423D01*
X32448850Y-11479586D01*
X32514380Y-11390795D01*
X32514379Y-11390795D01*
X32514381Y-11390794D01*
X32557741Y-11266879D01*
X32560500Y-11237457D01*
X32560499Y-11036899D01*
X32579406Y-10978710D01*
X32589489Y-10966902D01*
X33230034Y-10326357D01*
X33284549Y-10298582D01*
X33325656Y-10300735D01*
X33461743Y-10337200D01*
X33461745Y-10337200D01*
X33619855Y-10337200D01*
X33619857Y-10337200D01*
X33772584Y-10296277D01*
X33909516Y-10217220D01*
X34021320Y-10105416D01*
X34100377Y-9968484D01*
X34141300Y-9815757D01*
X34141300Y-9657643D01*
X34100377Y-9504916D01*
X34021320Y-9367984D01*
X33909516Y-9256180D01*
X33772584Y-9177123D01*
X33619857Y-9136200D01*
X33461743Y-9136200D01*
X33309016Y-9177123D01*
X33181029Y-9251016D01*
X33172081Y-9256182D01*
X33060279Y-9367983D01*
X33058210Y-9371567D01*
X33021982Y-9407793D01*
X33007388Y-9416219D01*
X33007385Y-9416221D01*
X32073100Y-10350504D01*
X32018584Y-10378281D01*
X32003097Y-10379500D01*
X31802542Y-10379500D01*
X31773124Y-10382258D01*
X31773119Y-10382259D01*
X31649204Y-10425619D01*
X31543581Y-10503572D01*
X31543572Y-10503581D01*
X31465619Y-10609204D01*
X31422260Y-10733116D01*
X31422258Y-10733125D01*
X31419500Y-10762532D01*
X31419500Y-11237457D01*
X31422258Y-11266875D01*
X31422259Y-11266880D01*
X31465619Y-11390795D01*
X31543572Y-11496418D01*
X31543580Y-11496426D01*
X31627476Y-11558344D01*
X31663069Y-11608111D01*
X31662611Y-11669295D01*
X31626278Y-11718525D01*
X31568688Y-11736999D01*
X31485074Y-11736999D01*
X31443257Y-11748204D01*
X31393550Y-11761523D01*
X31393549Y-11761522D01*
X31383215Y-11764291D01*
X31383212Y-11764293D01*
X31348999Y-11784046D01*
X31289151Y-11796767D01*
X31233255Y-11771880D01*
X31202663Y-11718891D01*
X31200500Y-11698309D01*
X31200500Y-10589367D01*
X31200500Y-10589364D01*
X31189866Y-10516375D01*
X31134826Y-10403789D01*
X31046211Y-10315174D01*
X30933625Y-10260134D01*
X30933626Y-10260134D01*
X30906554Y-10256190D01*
X30860636Y-10249500D01*
X30639364Y-10249500D01*
X30593446Y-10256190D01*
X30566374Y-10260134D01*
X30543479Y-10271327D01*
X30482896Y-10279896D01*
X30456521Y-10271327D01*
X30433625Y-10260134D01*
X30360636Y-10249500D01*
X30139364Y-10249500D01*
X30093446Y-10256190D01*
X30066374Y-10260134D01*
X30043479Y-10271327D01*
X29982896Y-10279896D01*
X29956521Y-10271327D01*
X29933625Y-10260134D01*
X29860636Y-10249500D01*
X29639364Y-10249500D01*
X29593446Y-10256190D01*
X29566374Y-10260134D01*
X29543479Y-10271327D01*
X29482896Y-10279896D01*
X29456521Y-10271327D01*
X29433625Y-10260134D01*
X29360636Y-10249500D01*
X29139364Y-10249500D01*
X29093446Y-10256190D01*
X29066374Y-10260134D01*
X29043479Y-10271327D01*
X28982896Y-10279896D01*
X28956521Y-10271327D01*
X28933625Y-10260134D01*
X28860636Y-10249500D01*
X28639364Y-10249500D01*
X28593446Y-10256190D01*
X28566374Y-10260134D01*
X28543479Y-10271327D01*
X28482896Y-10279896D01*
X28456521Y-10271327D01*
X28433625Y-10260134D01*
X28360636Y-10249500D01*
X28139364Y-10249500D01*
X28093446Y-10256190D01*
X28066374Y-10260134D01*
X28043479Y-10271327D01*
X27982896Y-10279896D01*
X27956521Y-10271327D01*
X27933625Y-10260134D01*
X27860636Y-10249500D01*
X27639364Y-10249500D01*
X27593446Y-10256190D01*
X27566374Y-10260134D01*
X27543479Y-10271327D01*
X27482896Y-10279896D01*
X27456521Y-10271327D01*
X27433625Y-10260134D01*
X27360636Y-10249500D01*
X27139364Y-10249500D01*
X27093446Y-10256190D01*
X27066374Y-10260134D01*
X27043479Y-10271327D01*
X26982896Y-10279896D01*
X26956521Y-10271327D01*
X26933625Y-10260134D01*
X26860636Y-10249500D01*
X26639364Y-10249500D01*
X26593446Y-10256190D01*
X26566374Y-10260134D01*
X26543479Y-10271327D01*
X26482896Y-10279896D01*
X26456521Y-10271327D01*
X26433625Y-10260134D01*
X26360636Y-10249500D01*
X26139364Y-10249500D01*
X26093446Y-10256190D01*
X26066374Y-10260134D01*
X26043479Y-10271327D01*
X25982896Y-10279896D01*
X25956521Y-10271327D01*
X25933625Y-10260134D01*
X25860636Y-10249500D01*
X25860633Y-10249500D01*
X25727437Y-10249500D01*
X25669246Y-10230593D01*
X25633282Y-10181093D01*
X25631806Y-10176107D01*
X25631369Y-10174475D01*
X25628000Y-10148868D01*
X25628000Y-9997044D01*
X25628000Y-9997043D01*
X25587077Y-9844316D01*
X25508020Y-9707384D01*
X25396216Y-9595580D01*
X25259284Y-9516523D01*
X25106557Y-9475600D01*
X24948443Y-9475600D01*
X24795716Y-9516523D01*
X24658784Y-9595580D01*
X24546980Y-9707384D01*
X24467923Y-9844316D01*
X24431864Y-9978893D01*
X24427000Y-9997044D01*
X24427000Y-10150500D01*
X24408093Y-10208691D01*
X24358593Y-10244655D01*
X24328000Y-10249500D01*
X24139364Y-10249500D01*
X24095570Y-10255880D01*
X24066373Y-10260134D01*
X23953790Y-10315173D01*
X23865173Y-10403790D01*
X23838941Y-10457450D01*
X23796397Y-10501424D01*
X23736131Y-10511993D01*
X23681163Y-10485120D01*
X23661059Y-10457450D01*
X23645498Y-10425619D01*
X23634826Y-10403789D01*
X23546211Y-10315174D01*
X23433625Y-10260134D01*
X23433626Y-10260134D01*
X23406554Y-10256190D01*
X23360636Y-10249500D01*
X23139364Y-10249500D01*
X23095570Y-10255880D01*
X23066373Y-10260134D01*
X22953790Y-10315173D01*
X22865173Y-10403790D01*
X22810134Y-10516373D01*
X22799500Y-10589367D01*
X22799500Y-11947600D01*
X22780593Y-12005791D01*
X22731093Y-12041755D01*
X22700500Y-12046600D01*
X22180627Y-12046600D01*
X22075173Y-12046600D01*
X22012829Y-12063304D01*
X21973307Y-12073894D01*
X21881991Y-12126616D01*
X21238103Y-12770504D01*
X21183586Y-12798281D01*
X21168099Y-12799500D01*
X20589364Y-12799500D01*
X20545570Y-12805880D01*
X20516373Y-12810134D01*
X20403790Y-12865173D01*
X20315173Y-12953790D01*
X20260134Y-13066373D01*
X20260134Y-13066375D01*
X20249500Y-13139364D01*
X20249500Y-13360636D01*
X20260134Y-13433625D01*
X20271326Y-13456520D01*
X20271327Y-13456521D01*
X20279896Y-13517104D01*
X20271327Y-13543478D01*
X20260134Y-13566375D01*
X20249500Y-13639364D01*
X20249500Y-13860636D01*
X20260134Y-13933625D01*
X20271326Y-13956520D01*
X20271327Y-13956521D01*
X20279896Y-14017104D01*
X20271327Y-14043478D01*
X20260134Y-14066375D01*
X20249500Y-14139364D01*
X20249500Y-14360636D01*
X20260134Y-14433625D01*
X20271326Y-14456520D01*
X20271327Y-14456521D01*
X20279896Y-14517104D01*
X20271327Y-14543478D01*
X20268097Y-14550086D01*
X20260134Y-14566375D01*
X20257865Y-14573718D01*
X20255415Y-14572961D01*
X20233652Y-14617025D01*
X20179486Y-14645480D01*
X20162781Y-14646900D01*
X20098901Y-14646900D01*
X20040710Y-14627993D01*
X20028897Y-14617904D01*
X19699593Y-14288600D01*
X19362213Y-13951220D01*
X19362210Y-13951218D01*
X19362209Y-13951217D01*
X19362208Y-13951216D01*
X19270891Y-13898494D01*
X19270893Y-13898494D01*
X19231370Y-13887904D01*
X19169027Y-13871200D01*
X16453227Y-13871200D01*
X16347773Y-13871200D01*
X16285429Y-13887904D01*
X16245907Y-13898494D01*
X16154591Y-13951216D01*
X15714816Y-14390991D01*
X15662095Y-14482306D01*
X15662093Y-14482310D01*
X15662093Y-14482312D01*
X15650389Y-14525993D01*
X15639569Y-14566375D01*
X15634800Y-14584172D01*
X15634800Y-15507800D01*
X15615893Y-15565991D01*
X15605804Y-15577803D01*
X15263105Y-15920503D01*
X15208588Y-15948281D01*
X15193101Y-15949500D01*
X14406893Y-15949500D01*
X14318434Y-15960123D01*
X14177660Y-16015637D01*
X14177656Y-16015640D01*
X14057081Y-16107075D01*
X14057075Y-16107081D01*
X13965640Y-16227656D01*
X13965637Y-16227660D01*
X13910123Y-16368434D01*
X13899500Y-16456893D01*
X13899500Y-17104899D01*
X13880593Y-17163090D01*
X13831093Y-17199054D01*
X13769907Y-17199054D01*
X13730496Y-17174903D01*
X13246016Y-16690423D01*
X12735113Y-16179520D01*
X12735110Y-16179518D01*
X12735109Y-16179517D01*
X12735108Y-16179516D01*
X12643791Y-16126794D01*
X12643793Y-16126794D01*
X12604270Y-16116204D01*
X12541927Y-16099500D01*
X12541925Y-16099500D01*
X5275008Y-16099500D01*
X5216817Y-16080593D01*
X5195352Y-16059288D01*
X5172150Y-16027850D01*
X5172149Y-16027849D01*
X5062883Y-15947207D01*
X4934703Y-15902355D01*
X4934694Y-15902353D01*
X4904274Y-15899500D01*
X4904266Y-15899500D01*
X2895734Y-15899500D01*
X2895725Y-15899500D01*
X2865305Y-15902353D01*
X2865296Y-15902355D01*
X2737116Y-15947207D01*
X2627855Y-16027845D01*
X2627845Y-16027855D01*
X2547207Y-16137116D01*
X2502355Y-16265296D01*
X2502353Y-16265305D01*
X2499500Y-16295725D01*
X2499500Y-16704274D01*
X2502353Y-16734694D01*
X2502355Y-16734703D01*
X2547207Y-16862883D01*
X2627845Y-16972144D01*
X2627847Y-16972146D01*
X2627850Y-16972150D01*
X2627853Y-16972152D01*
X2627855Y-16972154D01*
X2737116Y-17052792D01*
X2737117Y-17052792D01*
X2737118Y-17052793D01*
X2865301Y-17097646D01*
X2895725Y-17100499D01*
X2895727Y-17100500D01*
X2895734Y-17100500D01*
X4904273Y-17100500D01*
X4904273Y-17100499D01*
X4934699Y-17097646D01*
X5062882Y-17052793D01*
X5172150Y-16972150D01*
X5195352Y-16940711D01*
X5245120Y-16905119D01*
X5275008Y-16900500D01*
X12282299Y-16900500D01*
X12340490Y-16919407D01*
X12352303Y-16929496D01*
X13481104Y-18058297D01*
X13508881Y-18112814D01*
X13510100Y-18128301D01*
X13510100Y-18200457D01*
X13551023Y-18353184D01*
X13630080Y-18490116D01*
X13741884Y-18601920D01*
X13878816Y-18680977D01*
X14031543Y-18721900D01*
X14031545Y-18721900D01*
X14189655Y-18721900D01*
X14189657Y-18721900D01*
X14342384Y-18680977D01*
X14479316Y-18601920D01*
X14591120Y-18490116D01*
X14670177Y-18353184D01*
X14711100Y-18200457D01*
X14711100Y-18042343D01*
X14670177Y-17889616D01*
X14670172Y-17889607D01*
X14669253Y-17887387D01*
X14669117Y-17885663D01*
X14668497Y-17883348D01*
X14668926Y-17883233D01*
X14664452Y-17826390D01*
X14696421Y-17774220D01*
X14752949Y-17750805D01*
X14760717Y-17750500D01*
X15393100Y-17750500D01*
X15393102Y-17750500D01*
X15481564Y-17739877D01*
X15622342Y-17684361D01*
X15742922Y-17592922D01*
X15834361Y-17472342D01*
X15889877Y-17331564D01*
X15900500Y-17243102D01*
X15900500Y-16456898D01*
X15919407Y-16398708D01*
X15929496Y-16386896D01*
X16273059Y-16043332D01*
X16273064Y-16043328D01*
X16281211Y-16035180D01*
X16281213Y-16035180D01*
X16299020Y-16017372D01*
X16353532Y-15989594D01*
X16405341Y-15995277D01*
X16518436Y-16039877D01*
X16606898Y-16050500D01*
X17393099Y-16050500D01*
X17451290Y-16069407D01*
X17463102Y-16079496D01*
X17504287Y-16120680D01*
X17595609Y-16173405D01*
X17595613Y-16173407D01*
X17697470Y-16200700D01*
X17697472Y-16200701D01*
X17697473Y-16200701D01*
X17808990Y-16200701D01*
X17809006Y-16200700D01*
X20150500Y-16200700D01*
X20208691Y-16219607D01*
X20244655Y-16269107D01*
X20249500Y-16299700D01*
X20249500Y-16360636D01*
X20260134Y-16433625D01*
X20271326Y-16456520D01*
X20271327Y-16456521D01*
X20279896Y-16517104D01*
X20271327Y-16543478D01*
X20269588Y-16547035D01*
X20260134Y-16566374D01*
X20249500Y-16639367D01*
X20249500Y-16750500D01*
X20230593Y-16808691D01*
X20181093Y-16844655D01*
X20150500Y-16849500D01*
X18815244Y-16849500D01*
X18757053Y-16830593D01*
X18745241Y-16820504D01*
X18694218Y-16769482D01*
X18694216Y-16769480D01*
X18557284Y-16690423D01*
X18404557Y-16649500D01*
X18246443Y-16649500D01*
X18093716Y-16690423D01*
X17956784Y-16769480D01*
X17844980Y-16881284D01*
X17765923Y-17018216D01*
X17725000Y-17170943D01*
X17725000Y-17329057D01*
X17765923Y-17481784D01*
X17844980Y-17618716D01*
X17956784Y-17730520D01*
X18093716Y-17809577D01*
X18246443Y-17850500D01*
X18246445Y-17850500D01*
X18404555Y-17850500D01*
X18404557Y-17850500D01*
X18557284Y-17809577D01*
X18657137Y-17751927D01*
X18716982Y-17739206D01*
X18772877Y-17764092D01*
X18803470Y-17817080D01*
X18797075Y-17877930D01*
X18792371Y-17887163D01*
X18751523Y-17957914D01*
X18726101Y-18052792D01*
X18710600Y-18110643D01*
X18710600Y-18268757D01*
X18751523Y-18421484D01*
X18830580Y-18558416D01*
X18942384Y-18670220D01*
X18942386Y-18670221D01*
X18942387Y-18670222D01*
X18944648Y-18671957D01*
X18945804Y-18673639D01*
X18946973Y-18674808D01*
X18946756Y-18675024D01*
X18979305Y-18722381D01*
X18977704Y-18783545D01*
X18940458Y-18832088D01*
X18884382Y-18849500D01*
X17621306Y-18849500D01*
X17621290Y-18849499D01*
X17615227Y-18849499D01*
X17509773Y-18849499D01*
X17421296Y-18873207D01*
X17421295Y-18873206D01*
X17407912Y-18876793D01*
X17407909Y-18876794D01*
X17316587Y-18929519D01*
X17242019Y-19004086D01*
X17242020Y-19004087D01*
X14925603Y-21320504D01*
X14871086Y-21348281D01*
X14855599Y-21349500D01*
X14295725Y-21349500D01*
X14265305Y-21352353D01*
X14265296Y-21352355D01*
X14137116Y-21397207D01*
X14027855Y-21477845D01*
X14027845Y-21477855D01*
X13947207Y-21587116D01*
X13902355Y-21715296D01*
X13902353Y-21715305D01*
X13899500Y-21745725D01*
X13899500Y-22000500D01*
X13880593Y-22058691D01*
X13831093Y-22094655D01*
X13800500Y-22099500D01*
X5275008Y-22099500D01*
X5216817Y-22080593D01*
X5195352Y-22059288D01*
X5194983Y-22058788D01*
X5172150Y-22027850D01*
X5172149Y-22027849D01*
X5062883Y-21947207D01*
X4934703Y-21902355D01*
X4934694Y-21902353D01*
X4904274Y-21899500D01*
X4904266Y-21899500D01*
X2895734Y-21899500D01*
X2895725Y-21899500D01*
X2865305Y-21902353D01*
X2865296Y-21902355D01*
X2737116Y-21947207D01*
X2627855Y-22027845D01*
X2627845Y-22027855D01*
X2547207Y-22137116D01*
X2502355Y-22265296D01*
X2502353Y-22265305D01*
X2499500Y-22295725D01*
X2499500Y-22595999D01*
X2480593Y-22654190D01*
X2431093Y-22690154D01*
X2369907Y-22690154D01*
X2330496Y-22666003D01*
X1914696Y-22250203D01*
X1886919Y-22195686D01*
X1885700Y-22180199D01*
X1885700Y-18295725D01*
X2499500Y-18295725D01*
X2499500Y-18704274D01*
X2502353Y-18734694D01*
X2502355Y-18734703D01*
X2547207Y-18862883D01*
X2605016Y-18941212D01*
X2624358Y-18999260D01*
X2605886Y-19057590D01*
X2605016Y-19058788D01*
X2547207Y-19137116D01*
X2502355Y-19265296D01*
X2502353Y-19265305D01*
X2499500Y-19295725D01*
X2499500Y-19704274D01*
X2502353Y-19734694D01*
X2502355Y-19734703D01*
X2547207Y-19862883D01*
X2605016Y-19941212D01*
X2624358Y-19999260D01*
X2605886Y-20057590D01*
X2605016Y-20058788D01*
X2547207Y-20137116D01*
X2502355Y-20265296D01*
X2502353Y-20265305D01*
X2499500Y-20295725D01*
X2499500Y-20704274D01*
X2502353Y-20734694D01*
X2502355Y-20734703D01*
X2547207Y-20862883D01*
X2627845Y-20972144D01*
X2627847Y-20972146D01*
X2627850Y-20972150D01*
X2627853Y-20972152D01*
X2627855Y-20972154D01*
X2737116Y-21052792D01*
X2737117Y-21052792D01*
X2737118Y-21052793D01*
X2865301Y-21097646D01*
X2895725Y-21100499D01*
X2895727Y-21100500D01*
X2895734Y-21100500D01*
X4904273Y-21100500D01*
X4904273Y-21100499D01*
X4934699Y-21097646D01*
X5062882Y-21052793D01*
X5172150Y-20972150D01*
X5252793Y-20862882D01*
X5297646Y-20734699D01*
X5300499Y-20704273D01*
X5300500Y-20704273D01*
X5300500Y-20577300D01*
X5319407Y-20519109D01*
X5368907Y-20483145D01*
X5399500Y-20478300D01*
X10866156Y-20478300D01*
X10924347Y-20497207D01*
X10936159Y-20507296D01*
X10972343Y-20543479D01*
X10987184Y-20558320D01*
X11124116Y-20637377D01*
X11276843Y-20678300D01*
X11276845Y-20678300D01*
X11434955Y-20678300D01*
X11434957Y-20678300D01*
X11587684Y-20637377D01*
X11724616Y-20558320D01*
X11836420Y-20446516D01*
X11915477Y-20309584D01*
X11956400Y-20156857D01*
X11956400Y-19998743D01*
X11915477Y-19846016D01*
X11836420Y-19709084D01*
X11724616Y-19597280D01*
X11587684Y-19518223D01*
X11434957Y-19477300D01*
X11276843Y-19477300D01*
X11124116Y-19518223D01*
X10987181Y-19597282D01*
X10936159Y-19648304D01*
X10881642Y-19676081D01*
X10866156Y-19677300D01*
X10738543Y-19677300D01*
X10680352Y-19658393D01*
X10644388Y-19608893D01*
X10644388Y-19547707D01*
X10668537Y-19508298D01*
X10677320Y-19499516D01*
X10756377Y-19362584D01*
X10797300Y-19209857D01*
X10797300Y-19051743D01*
X10756377Y-18899016D01*
X10677320Y-18762084D01*
X10565516Y-18650280D01*
X10428584Y-18571223D01*
X10428583Y-18571222D01*
X10428582Y-18571222D01*
X10417374Y-18568219D01*
X10366061Y-18534893D01*
X10344136Y-18477771D01*
X10344000Y-18472593D01*
X10344000Y-18420944D01*
X10344000Y-18420943D01*
X10303077Y-18268216D01*
X10224020Y-18131284D01*
X10112216Y-18019480D01*
X9975284Y-17940423D01*
X9822557Y-17899500D01*
X9664443Y-17899500D01*
X9511716Y-17940423D01*
X9378900Y-18017104D01*
X9374781Y-18019482D01*
X9323759Y-18070504D01*
X9269242Y-18098281D01*
X9253756Y-18099500D01*
X5275008Y-18099500D01*
X5216817Y-18080593D01*
X5195352Y-18059288D01*
X5194621Y-18058297D01*
X5172150Y-18027850D01*
X5172149Y-18027849D01*
X5062883Y-17947207D01*
X4934703Y-17902355D01*
X4934694Y-17902353D01*
X4904274Y-17899500D01*
X4904266Y-17899500D01*
X2895734Y-17899500D01*
X2895725Y-17899500D01*
X2865305Y-17902353D01*
X2865296Y-17902355D01*
X2737116Y-17947207D01*
X2627855Y-18027845D01*
X2627845Y-18027855D01*
X2547207Y-18137116D01*
X2502355Y-18265296D01*
X2502353Y-18265305D01*
X2499500Y-18295725D01*
X1885700Y-18295725D01*
X1885700Y-18019174D01*
X1885700Y-18019173D01*
X1864677Y-17940712D01*
X1864073Y-17938457D01*
X1860700Y-17912835D01*
X1860700Y-16359063D01*
X1864073Y-16333440D01*
X1885700Y-16252727D01*
X1885700Y-15373700D01*
X1904607Y-15315509D01*
X1954107Y-15279545D01*
X1984700Y-15274700D01*
X2650235Y-15274700D01*
X2650236Y-15274700D01*
X2713247Y-15257816D01*
X2745738Y-15249110D01*
X2831362Y-15199675D01*
X2901275Y-15129762D01*
X2901541Y-15129496D01*
X2956058Y-15101719D01*
X2971545Y-15100500D01*
X4904273Y-15100500D01*
X4904273Y-15100499D01*
X4934699Y-15097646D01*
X5062882Y-15052793D01*
X5172150Y-14972150D01*
X5252793Y-14862882D01*
X5297646Y-14734699D01*
X5300499Y-14704273D01*
X5300500Y-14704273D01*
X5300500Y-14295727D01*
X5300499Y-14295725D01*
X5297646Y-14265305D01*
X5297646Y-14265301D01*
X5252793Y-14137118D01*
X5240661Y-14120680D01*
X5172154Y-14027855D01*
X5172152Y-14027853D01*
X5172150Y-14027850D01*
X5172146Y-14027847D01*
X5172144Y-14027845D01*
X5062883Y-13947207D01*
X4934703Y-13902355D01*
X4934694Y-13902353D01*
X4904274Y-13899500D01*
X4904266Y-13899500D01*
X2895734Y-13899500D01*
X2895725Y-13899500D01*
X2865305Y-13902353D01*
X2865296Y-13902355D01*
X2737116Y-13947207D01*
X2627855Y-14027845D01*
X2627845Y-14027855D01*
X2547207Y-14137116D01*
X2502355Y-14265296D01*
X2502353Y-14265305D01*
X2499500Y-14295725D01*
X2499500Y-14424700D01*
X2480593Y-14482891D01*
X2431093Y-14518855D01*
X2400500Y-14523700D01*
X1644263Y-14523700D01*
X1618641Y-14520327D01*
X1537927Y-14498700D01*
X1432473Y-14498700D01*
X1432468Y-14498700D01*
X1424617Y-14500804D01*
X1363516Y-14497598D01*
X1315968Y-14459090D01*
X1300000Y-14405176D01*
X1300000Y-11295725D01*
X2499500Y-11295725D01*
X2499500Y-11704274D01*
X2502353Y-11734694D01*
X2502355Y-11734703D01*
X2547207Y-11862883D01*
X2605016Y-11941212D01*
X2624358Y-11999260D01*
X2605886Y-12057590D01*
X2605016Y-12058788D01*
X2547207Y-12137116D01*
X2502355Y-12265296D01*
X2502353Y-12265305D01*
X2499500Y-12295725D01*
X2499500Y-12704274D01*
X2502353Y-12734694D01*
X2502355Y-12734703D01*
X2547207Y-12862883D01*
X2627845Y-12972144D01*
X2627847Y-12972146D01*
X2627850Y-12972150D01*
X2627853Y-12972152D01*
X2627855Y-12972154D01*
X2737116Y-13052792D01*
X2737117Y-13052792D01*
X2737118Y-13052793D01*
X2865301Y-13097646D01*
X2895725Y-13100499D01*
X2895727Y-13100500D01*
X2895734Y-13100500D01*
X4904273Y-13100500D01*
X4904273Y-13100499D01*
X4934699Y-13097646D01*
X4955958Y-13090206D01*
X5014278Y-13088023D01*
X5060843Y-13100500D01*
X5060845Y-13100500D01*
X5218955Y-13100500D01*
X5218957Y-13100500D01*
X5371684Y-13059577D01*
X5508616Y-12980520D01*
X5620420Y-12868716D01*
X5699477Y-12731784D01*
X5740400Y-12579057D01*
X5740400Y-12420943D01*
X5699477Y-12268216D01*
X5620420Y-12131284D01*
X5558637Y-12069501D01*
X5530862Y-12014987D01*
X5540433Y-11954555D01*
X5583698Y-11911290D01*
X5628643Y-11900500D01*
X16637256Y-11900500D01*
X16695447Y-11919407D01*
X16707259Y-11929496D01*
X16749908Y-11972144D01*
X16758284Y-11980520D01*
X16895216Y-12059577D01*
X17047943Y-12100500D01*
X17047945Y-12100500D01*
X17206055Y-12100500D01*
X17206057Y-12100500D01*
X17358784Y-12059577D01*
X17495716Y-11980520D01*
X17607520Y-11868716D01*
X17686577Y-11731784D01*
X17727500Y-11579057D01*
X17727500Y-11420943D01*
X17686577Y-11268216D01*
X17607520Y-11131284D01*
X17495716Y-11019480D01*
X17358784Y-10940423D01*
X17206057Y-10899500D01*
X17047943Y-10899500D01*
X16895216Y-10940423D01*
X16759277Y-11018907D01*
X16758281Y-11019482D01*
X16707259Y-11070504D01*
X16652742Y-11098281D01*
X16637256Y-11099500D01*
X5275008Y-11099500D01*
X5216817Y-11080593D01*
X5195352Y-11059288D01*
X5174543Y-11031093D01*
X5172150Y-11027850D01*
X5172149Y-11027849D01*
X5062883Y-10947207D01*
X4934703Y-10902355D01*
X4934694Y-10902353D01*
X4904274Y-10899500D01*
X4904266Y-10899500D01*
X2895734Y-10899500D01*
X2895725Y-10899500D01*
X2865305Y-10902353D01*
X2865296Y-10902355D01*
X2737116Y-10947207D01*
X2627855Y-11027845D01*
X2627845Y-11027855D01*
X2547207Y-11137116D01*
X2502355Y-11265296D01*
X2502353Y-11265305D01*
X2499500Y-11295725D01*
X1300000Y-11295725D01*
X1300000Y-10499499D01*
X1318907Y-10441308D01*
X1368407Y-10405344D01*
X1398995Y-10400499D01*
X2693380Y-10400499D01*
X2759933Y-10394452D01*
X2890484Y-10353770D01*
X2913063Y-10346735D01*
X2913063Y-10346734D01*
X2913069Y-10346733D01*
X3050335Y-10263753D01*
X3163753Y-10150335D01*
X3246733Y-10013069D01*
X3294452Y-9859933D01*
X3300500Y-9793381D01*
X3300499Y-8705130D01*
X8199500Y-8705130D01*
X8199500Y-9544860D01*
X8199501Y-9544863D01*
X8202414Y-9569990D01*
X8227756Y-9627385D01*
X8247794Y-9672765D01*
X8327235Y-9752206D01*
X8430009Y-9797585D01*
X8455135Y-9800500D01*
X9544864Y-9800499D01*
X9569991Y-9797585D01*
X9672765Y-9752206D01*
X9672769Y-9752201D01*
X9680334Y-9747021D01*
X9681041Y-9748053D01*
X9727143Y-9724559D01*
X9787576Y-9734126D01*
X9812638Y-9752332D01*
X9819084Y-9758777D01*
X9819091Y-9758783D01*
X9910408Y-9811505D01*
X9910406Y-9811505D01*
X9910410Y-9811506D01*
X9910412Y-9811507D01*
X10012273Y-9838800D01*
X10012275Y-9838800D01*
X15052725Y-9838800D01*
X15052727Y-9838800D01*
X15154587Y-9811507D01*
X15154590Y-9811504D01*
X15160586Y-9809022D01*
X15161364Y-9810901D01*
X15200181Y-9800499D01*
X15544861Y-9800499D01*
X15544864Y-9800499D01*
X15569991Y-9797585D01*
X15672765Y-9752206D01*
X15700412Y-9724559D01*
X15713876Y-9711096D01*
X15768393Y-9683319D01*
X15783879Y-9682100D01*
X17052773Y-9682100D01*
X17110964Y-9701007D01*
X17138509Y-9731599D01*
X17163980Y-9775716D01*
X17275784Y-9887520D01*
X17412716Y-9966577D01*
X17565443Y-10007500D01*
X17565445Y-10007500D01*
X17723555Y-10007500D01*
X17723557Y-10007500D01*
X17876284Y-9966577D01*
X18013216Y-9887520D01*
X18125020Y-9775716D01*
X18204077Y-9638784D01*
X18245000Y-9486057D01*
X18245000Y-9327943D01*
X18204077Y-9175216D01*
X18125020Y-9038284D01*
X18013216Y-8926480D01*
X17876284Y-8847423D01*
X17723557Y-8806500D01*
X17565443Y-8806500D01*
X17489079Y-8826961D01*
X17412714Y-8847423D01*
X17377357Y-8867837D01*
X17327858Y-8881100D01*
X15899499Y-8881100D01*
X15841308Y-8862193D01*
X15805344Y-8812693D01*
X15800499Y-8782100D01*
X15800499Y-8705139D01*
X15800499Y-8705136D01*
X15797585Y-8680009D01*
X15752206Y-8577235D01*
X15672765Y-8497794D01*
X15569991Y-8452415D01*
X15569990Y-8452414D01*
X15569988Y-8452414D01*
X15544868Y-8449500D01*
X14455139Y-8449500D01*
X14455136Y-8449501D01*
X14430009Y-8452414D01*
X14327235Y-8497794D01*
X14247794Y-8577235D01*
X14202414Y-8680011D01*
X14199500Y-8705130D01*
X14199500Y-8938800D01*
X14180593Y-8996991D01*
X14131093Y-9032955D01*
X14100500Y-9037800D01*
X10271901Y-9037800D01*
X10213710Y-9018893D01*
X10201898Y-9008804D01*
X9997613Y-8804520D01*
X9997608Y-8804516D01*
X9906291Y-8751794D01*
X9906293Y-8751794D01*
X9887023Y-8746631D01*
X9864738Y-8740660D01*
X9813426Y-8707337D01*
X9799798Y-8685022D01*
X9797585Y-8680009D01*
X9752206Y-8577235D01*
X9672765Y-8497794D01*
X9569991Y-8452415D01*
X9569990Y-8452414D01*
X9569988Y-8452414D01*
X9544868Y-8449500D01*
X8455139Y-8449500D01*
X8455136Y-8449501D01*
X8430009Y-8452414D01*
X8327235Y-8497794D01*
X8247794Y-8577235D01*
X8202414Y-8680011D01*
X8199500Y-8705130D01*
X3300499Y-8705130D01*
X3300499Y-8606620D01*
X3294452Y-8540067D01*
X3246733Y-8386931D01*
X3246731Y-8386929D01*
X3246730Y-8386925D01*
X3163755Y-8249668D01*
X3163754Y-8249667D01*
X3163753Y-8249665D01*
X3050335Y-8136247D01*
X3050332Y-8136245D01*
X3050331Y-8136244D01*
X2913074Y-8053269D01*
X2913062Y-8053264D01*
X2759935Y-8005548D01*
X2693385Y-7999500D01*
X1399000Y-7999500D01*
X1340809Y-7980593D01*
X1304845Y-7931093D01*
X1300000Y-7900500D01*
X1300000Y-3893709D01*
X3149500Y-3893709D01*
X3149500Y-4106290D01*
X3182752Y-4316238D01*
X3248443Y-4518412D01*
X3344948Y-4707815D01*
X3344950Y-4707819D01*
X3469891Y-4879786D01*
X3469893Y-4879788D01*
X3469896Y-4879792D01*
X3620208Y-5030104D01*
X3620211Y-5030106D01*
X3620213Y-5030108D01*
X3792180Y-5155049D01*
X3792184Y-5155051D01*
X3981588Y-5251557D01*
X4183757Y-5317246D01*
X4183758Y-5317246D01*
X4183761Y-5317247D01*
X4393710Y-5350500D01*
X4393713Y-5350500D01*
X4606290Y-5350500D01*
X4816238Y-5317247D01*
X4816239Y-5317246D01*
X4816243Y-5317246D01*
X5018412Y-5251557D01*
X5207816Y-5155051D01*
X5379792Y-5030104D01*
X5530104Y-4879792D01*
X5655051Y-4707816D01*
X5672918Y-4672750D01*
X8140500Y-4672750D01*
X8140500Y-4853849D01*
X8168828Y-5032706D01*
X8224788Y-5204937D01*
X8298956Y-5350500D01*
X8307004Y-5366294D01*
X8413447Y-5512801D01*
X8541499Y-5640853D01*
X8688006Y-5747296D01*
X8849361Y-5829511D01*
X9021591Y-5885471D01*
X9092078Y-5896635D01*
X9200451Y-5913800D01*
X9200454Y-5913800D01*
X9381549Y-5913800D01*
X9470977Y-5899635D01*
X9560409Y-5885471D01*
X9732639Y-5829511D01*
X9893994Y-5747296D01*
X10040501Y-5640853D01*
X10168553Y-5512801D01*
X10274996Y-5366294D01*
X10357211Y-5204939D01*
X10413171Y-5032709D01*
X10441500Y-4853846D01*
X10441500Y-4672754D01*
X10441500Y-4672750D01*
X10417055Y-4518412D01*
X10413171Y-4493891D01*
X10357211Y-4321661D01*
X10274996Y-4160306D01*
X10168553Y-4013799D01*
X10040501Y-3885747D01*
X9893994Y-3779304D01*
X9893993Y-3779303D01*
X9893991Y-3779302D01*
X9732637Y-3697088D01*
X9560406Y-3641128D01*
X9381549Y-3612800D01*
X9381546Y-3612800D01*
X9200454Y-3612800D01*
X9200451Y-3612800D01*
X9021593Y-3641128D01*
X8849362Y-3697088D01*
X8688008Y-3779302D01*
X8657300Y-3801613D01*
X8541499Y-3885747D01*
X8413447Y-4013799D01*
X8396622Y-4036957D01*
X8307002Y-4160308D01*
X8224788Y-4321662D01*
X8168828Y-4493893D01*
X8140500Y-4672750D01*
X5672918Y-4672750D01*
X5696334Y-4626794D01*
X5697799Y-4623919D01*
X5713523Y-4593056D01*
X5751557Y-4518412D01*
X5817246Y-4316243D01*
X5817247Y-4316238D01*
X5850500Y-4106290D01*
X5850500Y-3893709D01*
X5817247Y-3683761D01*
X5803395Y-3641128D01*
X5751557Y-3481588D01*
X5655051Y-3292184D01*
X5655049Y-3292180D01*
X5530108Y-3120213D01*
X5530106Y-3120211D01*
X5530104Y-3120208D01*
X5379792Y-2969896D01*
X5379788Y-2969893D01*
X5379786Y-2969891D01*
X5207819Y-2844950D01*
X5207815Y-2844948D01*
X5100926Y-2790486D01*
X5018412Y-2748443D01*
X4885110Y-2705130D01*
X12199500Y-2705130D01*
X12199500Y-3544860D01*
X12199501Y-3544863D01*
X12202414Y-3569990D01*
X12221317Y-3612800D01*
X12247794Y-3672765D01*
X12327235Y-3752206D01*
X12430009Y-3797585D01*
X12455135Y-3800500D01*
X13544864Y-3800499D01*
X13569991Y-3797585D01*
X13672765Y-3752206D01*
X13752206Y-3672765D01*
X13791173Y-3584511D01*
X13831974Y-3538916D01*
X13881738Y-3525500D01*
X18118262Y-3525500D01*
X18176453Y-3544407D01*
X18208826Y-3584510D01*
X18247794Y-3672765D01*
X18327235Y-3752206D01*
X18430009Y-3797585D01*
X18455135Y-3800500D01*
X18522482Y-3800499D01*
X18580672Y-3819405D01*
X18616636Y-3868905D01*
X18618104Y-3873861D01*
X18626793Y-3906287D01*
X18626794Y-3906288D01*
X18626794Y-3906290D01*
X18679518Y-3997610D01*
X18679520Y-3997613D01*
X18754087Y-4072180D01*
X18778139Y-4086067D01*
X18819080Y-4131536D01*
X18824265Y-4146179D01*
X18835921Y-4189680D01*
X18835921Y-4189681D01*
X18835923Y-4189684D01*
X18914980Y-4326616D01*
X19026784Y-4438420D01*
X19163716Y-4517477D01*
X19316443Y-4558400D01*
X19316445Y-4558400D01*
X19474555Y-4558400D01*
X19474557Y-4558400D01*
X19627284Y-4517477D01*
X19764216Y-4438420D01*
X19876020Y-4326616D01*
X19955077Y-4189684D01*
X19996000Y-4036957D01*
X19996000Y-3878843D01*
X19955077Y-3726116D01*
X19876020Y-3589184D01*
X19856826Y-3569990D01*
X19829495Y-3542658D01*
X19801718Y-3488141D01*
X19800499Y-3472655D01*
X19800499Y-2705139D01*
X19800499Y-2705136D01*
X19797585Y-2680009D01*
X19794380Y-2672750D01*
X24140500Y-2672750D01*
X24140500Y-2853849D01*
X24168828Y-3032706D01*
X24197258Y-3120208D01*
X24224789Y-3204939D01*
X24307004Y-3366294D01*
X24413447Y-3512801D01*
X24541499Y-3640853D01*
X24688006Y-3747296D01*
X24849361Y-3829511D01*
X25021591Y-3885471D01*
X25093136Y-3896802D01*
X25200451Y-3913800D01*
X25200454Y-3913800D01*
X25381549Y-3913800D01*
X25470977Y-3899635D01*
X25508394Y-3893709D01*
X51149500Y-3893709D01*
X51149500Y-4106290D01*
X51182752Y-4316238D01*
X51248443Y-4518412D01*
X51344948Y-4707815D01*
X51344950Y-4707819D01*
X51469891Y-4879786D01*
X51469893Y-4879788D01*
X51469896Y-4879792D01*
X51620208Y-5030104D01*
X51620211Y-5030106D01*
X51620213Y-5030108D01*
X51792180Y-5155049D01*
X51792184Y-5155051D01*
X51981588Y-5251557D01*
X52183757Y-5317246D01*
X52183758Y-5317246D01*
X52183761Y-5317247D01*
X52393710Y-5350500D01*
X52393713Y-5350500D01*
X52606290Y-5350500D01*
X52816238Y-5317247D01*
X52816239Y-5317246D01*
X52816243Y-5317246D01*
X53018412Y-5251557D01*
X53207816Y-5155051D01*
X53379792Y-5030104D01*
X53530104Y-4879792D01*
X53655051Y-4707816D01*
X53751557Y-4518412D01*
X53817246Y-4316243D01*
X53817247Y-4316238D01*
X53850500Y-4106290D01*
X53850500Y-3893709D01*
X53817247Y-3683761D01*
X53803395Y-3641128D01*
X53751557Y-3481588D01*
X53655051Y-3292184D01*
X53655049Y-3292180D01*
X53530108Y-3120213D01*
X53530106Y-3120211D01*
X53530104Y-3120208D01*
X53379792Y-2969896D01*
X53379788Y-2969893D01*
X53379786Y-2969891D01*
X53207819Y-2844950D01*
X53207815Y-2844948D01*
X53018412Y-2748443D01*
X52816238Y-2682752D01*
X52606290Y-2649500D01*
X52606287Y-2649500D01*
X52393713Y-2649500D01*
X52393710Y-2649500D01*
X52183761Y-2682752D01*
X51981587Y-2748443D01*
X51792184Y-2844948D01*
X51792180Y-2844950D01*
X51620213Y-2969891D01*
X51469891Y-3120213D01*
X51344950Y-3292180D01*
X51344948Y-3292184D01*
X51248443Y-3481587D01*
X51182752Y-3683761D01*
X51149500Y-3893709D01*
X25508394Y-3893709D01*
X25560409Y-3885471D01*
X25732639Y-3829511D01*
X25787392Y-3801613D01*
X25787395Y-3801612D01*
X25893983Y-3747302D01*
X25893990Y-3747298D01*
X25893989Y-3747298D01*
X25893994Y-3747296D01*
X26040501Y-3640853D01*
X26168553Y-3512801D01*
X26274996Y-3366294D01*
X26357211Y-3204939D01*
X26413171Y-3032709D01*
X26441500Y-2853846D01*
X26441500Y-2672754D01*
X26441500Y-2672750D01*
X26413171Y-2493893D01*
X26413171Y-2493891D01*
X26357211Y-2321661D01*
X26274996Y-2160306D01*
X26168553Y-2013799D01*
X26040501Y-1885747D01*
X25893994Y-1779304D01*
X25893993Y-1779303D01*
X25893991Y-1779302D01*
X25732637Y-1697088D01*
X25560406Y-1641128D01*
X25381549Y-1612800D01*
X25381546Y-1612800D01*
X25200454Y-1612800D01*
X25200451Y-1612800D01*
X25021593Y-1641128D01*
X24849362Y-1697088D01*
X24688008Y-1779302D01*
X24614752Y-1832525D01*
X24541499Y-1885747D01*
X24413447Y-2013799D01*
X24360225Y-2087052D01*
X24307002Y-2160308D01*
X24224788Y-2321662D01*
X24168828Y-2493893D01*
X24140500Y-2672750D01*
X19794380Y-2672750D01*
X19752206Y-2577235D01*
X19672765Y-2497794D01*
X19569991Y-2452415D01*
X19569990Y-2452414D01*
X19569988Y-2452414D01*
X19544868Y-2449500D01*
X18455139Y-2449500D01*
X18455136Y-2449501D01*
X18430009Y-2452414D01*
X18327235Y-2497794D01*
X18247794Y-2577235D01*
X18208827Y-2665488D01*
X18168026Y-2711084D01*
X18118262Y-2724500D01*
X13881738Y-2724500D01*
X13823547Y-2705593D01*
X13791173Y-2665488D01*
X13784114Y-2649500D01*
X13752206Y-2577235D01*
X13672765Y-2497794D01*
X13569991Y-2452415D01*
X13569990Y-2452414D01*
X13569988Y-2452414D01*
X13544868Y-2449500D01*
X12455139Y-2449500D01*
X12455136Y-2449501D01*
X12430009Y-2452414D01*
X12327235Y-2497794D01*
X12247794Y-2577235D01*
X12202414Y-2680011D01*
X12199500Y-2705130D01*
X4885110Y-2705130D01*
X4816238Y-2682752D01*
X4606290Y-2649500D01*
X4606287Y-2649500D01*
X4393713Y-2649500D01*
X4393710Y-2649500D01*
X4183761Y-2682752D01*
X3981587Y-2748443D01*
X3792184Y-2844948D01*
X3792180Y-2844950D01*
X3620213Y-2969891D01*
X3469891Y-3120213D01*
X3344950Y-3292180D01*
X3344948Y-3292184D01*
X3248443Y-3481587D01*
X3182752Y-3683761D01*
X3149500Y-3893709D01*
X1300000Y-3893709D01*
X1300000Y-1009810D01*
X1300117Y-1004996D01*
X1303461Y-936302D01*
X1304421Y-926550D01*
X1313086Y-868297D01*
X1314979Y-858794D01*
X1329324Y-801588D01*
X1332122Y-792362D01*
X1351961Y-736883D01*
X1355686Y-727892D01*
X1380934Y-674562D01*
X1385483Y-666056D01*
X1415793Y-615482D01*
X1421213Y-607375D01*
X1456329Y-560066D01*
X1462430Y-552633D01*
X1502015Y-508926D01*
X1508931Y-502011D01*
X1552633Y-462430D01*
X1560066Y-456329D01*
X1607381Y-421208D01*
X1615482Y-415793D01*
X1666056Y-385483D01*
X1674562Y-380934D01*
X1727892Y-355686D01*
X1736883Y-351961D01*
X1792362Y-332122D01*
X1801588Y-329324D01*
X1858794Y-314979D01*
X1868287Y-313087D01*
X1926558Y-304420D01*
X1936294Y-303461D01*
X2004997Y-300117D01*
X2009811Y-300000D01*
X13441179Y-300000D01*
X13499370Y-318907D01*
G37*
%TD.AperFunction*%
%TA.AperFunction,Conductor*%
G36*
X20456418Y-18660555D02*
G01*
X20457441Y-18661055D01*
X20501419Y-18703595D01*
X20511994Y-18763859D01*
X20485127Y-18818830D01*
X20457441Y-18838945D01*
X20456418Y-18839445D01*
X20412946Y-18849500D01*
X19737818Y-18849500D01*
X19679627Y-18830593D01*
X19643663Y-18781093D01*
X19643663Y-18719907D01*
X19677544Y-18671963D01*
X19678847Y-18670963D01*
X19736521Y-18650534D01*
X19739121Y-18650500D01*
X20412946Y-18650500D01*
X20456418Y-18660555D01*
G37*
%TD.AperFunction*%
%TA.AperFunction,Conductor*%
G36*
X41983183Y-10969407D02*
G01*
X42004647Y-10990711D01*
X42025457Y-11018907D01*
X42027850Y-11022150D01*
X42137116Y-11102792D01*
X42137117Y-11102792D01*
X42137118Y-11102793D01*
X42265301Y-11147646D01*
X42295725Y-11150499D01*
X42295727Y-11150500D01*
X42295734Y-11150500D01*
X43429273Y-11150500D01*
X43429273Y-11150499D01*
X43459699Y-11147646D01*
X43587882Y-11102793D01*
X43587883Y-11102792D01*
X43587884Y-11102792D01*
X43618640Y-11080093D01*
X43638576Y-11065378D01*
X43696623Y-11046036D01*
X43754954Y-11064507D01*
X43791288Y-11113736D01*
X43792992Y-11170654D01*
X43778500Y-11224740D01*
X43778500Y-11296899D01*
X43759593Y-11355090D01*
X43749505Y-11366901D01*
X43731721Y-11384685D01*
X43731716Y-11384691D01*
X43678994Y-11476007D01*
X43678993Y-11476012D01*
X43678035Y-11479587D01*
X43652636Y-11574381D01*
X43651700Y-11577874D01*
X43651700Y-11780010D01*
X43632793Y-11838201D01*
X43583293Y-11874165D01*
X43522107Y-11874165D01*
X43520003Y-11873455D01*
X43489786Y-11862882D01*
X43459699Y-11852354D01*
X43459697Y-11852353D01*
X43459694Y-11852353D01*
X43429274Y-11849500D01*
X43429266Y-11849500D01*
X42295734Y-11849500D01*
X42295725Y-11849500D01*
X42265305Y-11852353D01*
X42265296Y-11852355D01*
X42137116Y-11897207D01*
X42027855Y-11977845D01*
X42027845Y-11977855D01*
X41947207Y-12087116D01*
X41902355Y-12215296D01*
X41902353Y-12215305D01*
X41899500Y-12245725D01*
X41899500Y-12503500D01*
X41880593Y-12561691D01*
X41831093Y-12597655D01*
X41800500Y-12602500D01*
X40199500Y-12602500D01*
X40141309Y-12583593D01*
X40105345Y-12534093D01*
X40100500Y-12503500D01*
X40100500Y-12245727D01*
X40100499Y-12245725D01*
X40097646Y-12215305D01*
X40097646Y-12215301D01*
X40052793Y-12087118D01*
X40043033Y-12073894D01*
X40031516Y-12058288D01*
X40012174Y-12000241D01*
X40030645Y-11941910D01*
X40079875Y-11905577D01*
X40111171Y-11900500D01*
X40382225Y-11900500D01*
X40382227Y-11900500D01*
X40484088Y-11873207D01*
X40484090Y-11873205D01*
X40484092Y-11873205D01*
X40575408Y-11820483D01*
X40575408Y-11820482D01*
X40575413Y-11820480D01*
X41416397Y-10979496D01*
X41470914Y-10951719D01*
X41486401Y-10950500D01*
X41924992Y-10950500D01*
X41983183Y-10969407D01*
G37*
%TD.AperFunction*%
%TD*%
M02*
