%TF.GenerationSoftware,KiCad,Pcbnew,10.0.5*%
%TF.CreationDate,2026-09-13T20:07:39-04:00*%
%TF.ProjectId,Symm60HE-Neo-Centre-Family-Panel,53796d6d-3630-4484-952d-4e656f2d4365,rev?*%
%TF.SameCoordinates,Original*%
%TF.FileFunction,Profile,NP*%
%FSLAX46Y46*%
G04 Gerber Fmt 4.6, Leading zero omitted, Abs format (unit mm)*
G04 Created by KiCad (PCBNEW 10.0.5) date 2026-09-13 20:07:39*
%MOMM*%
%LPD*%
G01*
G04 APERTURE LIST*
%TA.AperFunction,Profile*%
%ADD10C,0.050000*%
%TD*%
G04 APERTURE END LIST*
D10*
X-8200000Y8200000D02*
X-8200000Y-44200000D01*
X-8200000Y-44200000D02*
X65200000Y-44200000D01*
X65200000Y-44200000D02*
X65200000Y8200000D01*
X65200000Y8200000D02*
X-8200000Y8200000D01*
X60200000Y3200000D02*
X60200000Y-11000000D01*
X60200000Y-11000000D02*
X57000000Y-11000000D01*
X57000000Y-11000000D02*
X57000000Y-1000000D01*
X57000000Y-1000000D02*
X56995200Y-902000D01*
X56995200Y-902000D02*
X56980800Y-804900D01*
X56980800Y-804900D02*
X56956900Y-709800D01*
X56956900Y-709800D02*
X56923900Y-617400D01*
X56923900Y-617400D02*
X56881900Y-528600D01*
X56881900Y-528600D02*
X56831500Y-444500D01*
X56831500Y-444500D02*
X56773000Y-365600D01*
X56773000Y-365600D02*
X56707100Y-292900D01*
X56707100Y-292900D02*
X56634400Y-227000D01*
X56634400Y-227000D02*
X56555600Y-168600D01*
X56555600Y-168600D02*
X56471400Y-118100D01*
X56471400Y-118100D02*
X56382700Y-76200D01*
X56382700Y-76200D02*
X56290300Y-43100D01*
X56290300Y-43100D02*
X56195100Y-19300D01*
X56195100Y-19300D02*
X56098000Y-4900D01*
X56098000Y-4900D02*
X56000000Y0D01*
X56000000Y0D02*
X44110000Y0D01*
X44110000Y0D02*
X44110000Y3200000D01*
X44110000Y3200000D02*
X60200000Y3200000D01*
X60200000Y-30500000D02*
X57000000Y-30500000D01*
X57000000Y-30500000D02*
X57000000Y-30000000D01*
X57000000Y-30000000D02*
X37000000Y-30000000D01*
X37000000Y-30000000D02*
X37000000Y-36000000D01*
X37000000Y-36000000D02*
X40100000Y-36000000D01*
X40100000Y-36000000D02*
X40100000Y-39200000D01*
X40100000Y-39200000D02*
X16900000Y-39200000D01*
X16900000Y-39200000D02*
X16900000Y-36000000D01*
X16900000Y-36000000D02*
X20000000Y-36000000D01*
X20000000Y-36000000D02*
X20000000Y-30000000D01*
X20000000Y-30000000D02*
X0Y-30000000D01*
X0Y-30000000D02*
X0Y-30500000D01*
X0Y-30500000D02*
X-3200000Y-30500000D01*
X-3200000Y-30500000D02*
X-3200000Y-16000000D01*
X-3200000Y-16000000D02*
X0Y-16000000D01*
X0Y-16000000D02*
X0Y-26000000D01*
X0Y-26000000D02*
X4800Y-26098100D01*
X4800Y-26098100D02*
X19200Y-26195100D01*
X19200Y-26195100D02*
X43100Y-26290300D01*
X43100Y-26290300D02*
X76100Y-26382700D01*
X76100Y-26382700D02*
X118100Y-26471400D01*
X118100Y-26471400D02*
X168500Y-26555600D01*
X168500Y-26555600D02*
X227000Y-26634400D01*
X227000Y-26634400D02*
X292900Y-26707100D01*
X292900Y-26707100D02*
X365600Y-26773100D01*
X365600Y-26773100D02*
X444400Y-26831500D01*
X444400Y-26831500D02*
X528600Y-26882000D01*
X528600Y-26882000D02*
X617300Y-26923900D01*
X617300Y-26923900D02*
X709700Y-26957000D01*
X709700Y-26957000D02*
X804900Y-26980800D01*
X804900Y-26980800D02*
X902000Y-26995200D01*
X902000Y-26995200D02*
X1000000Y-27000000D01*
X1000000Y-27000000D02*
X56000000Y-27000000D01*
X56000000Y-27000000D02*
X56098000Y-26995200D01*
X56098000Y-26995200D02*
X56195100Y-26980800D01*
X56195100Y-26980800D02*
X56290300Y-26957000D01*
X56290300Y-26957000D02*
X56382700Y-26923900D01*
X56382700Y-26923900D02*
X56471400Y-26882000D01*
X56471400Y-26882000D02*
X56555600Y-26831500D01*
X56555600Y-26831500D02*
X56634400Y-26773100D01*
X56634400Y-26773100D02*
X56707100Y-26707100D01*
X56707100Y-26707100D02*
X56773000Y-26634400D01*
X56773000Y-26634400D02*
X56831500Y-26555600D01*
X56831500Y-26555600D02*
X56881900Y-26471400D01*
X56881900Y-26471400D02*
X56923900Y-26382700D01*
X56923900Y-26382700D02*
X56956900Y-26290300D01*
X56956900Y-26290300D02*
X56980800Y-26195100D01*
X56980800Y-26195100D02*
X56995200Y-26098100D01*
X56995200Y-26098100D02*
X57000000Y-26000000D01*
X57000000Y-26000000D02*
X57000000Y-16000000D01*
X57000000Y-16000000D02*
X60200000Y-16000000D01*
X60200000Y-16000000D02*
X60200000Y-30500000D01*
X60200000Y-39200000D02*
X53900000Y-39200000D01*
X53900000Y-39200000D02*
X53900000Y-36000000D01*
X53900000Y-36000000D02*
X57000000Y-36000000D01*
X57000000Y-36000000D02*
X57000000Y-35500000D01*
X57000000Y-35500000D02*
X60200000Y-35500000D01*
X60200000Y-35500000D02*
X60200000Y-39200000D01*
X45100000Y-39200000D02*
X45100000Y-36000000D01*
X45100000Y-36000000D02*
X48900000Y-36000000D01*
X48900000Y-36000000D02*
X48900000Y-39200000D01*
X48900000Y-39200000D02*
X45100000Y-39200000D01*
X17890000Y3200000D02*
X39110000Y3200000D01*
X39110000Y3200000D02*
X39110000Y0D01*
X39110000Y0D02*
X17890000Y0D01*
X17890000Y0D02*
X17890000Y3200000D01*
X-3200000Y-11000000D02*
X-3200000Y3200000D01*
X-3200000Y3200000D02*
X12890000Y3200000D01*
X12890000Y3200000D02*
X12890000Y0D01*
X12890000Y0D02*
X1000000Y0D01*
X1000000Y0D02*
X902000Y-4900D01*
X902000Y-4900D02*
X804900Y-19300D01*
X804900Y-19300D02*
X709700Y-43100D01*
X709700Y-43100D02*
X617300Y-76200D01*
X617300Y-76200D02*
X528600Y-118100D01*
X528600Y-118100D02*
X444400Y-168600D01*
X444400Y-168600D02*
X365600Y-227000D01*
X365600Y-227000D02*
X292900Y-292900D01*
X292900Y-292900D02*
X227000Y-365600D01*
X227000Y-365600D02*
X168500Y-444500D01*
X168500Y-444500D02*
X118100Y-528600D01*
X118100Y-528600D02*
X76100Y-617400D01*
X76100Y-617400D02*
X43100Y-709800D01*
X43100Y-709800D02*
X19200Y-804900D01*
X19200Y-804900D02*
X4800Y-902000D01*
X4800Y-902000D02*
X0Y-1000000D01*
X0Y-1000000D02*
X0Y-11000000D01*
X0Y-11000000D02*
X-3200000Y-11000000D01*
X8100000Y-36000000D02*
X11900000Y-36000000D01*
X11900000Y-36000000D02*
X11900000Y-39200000D01*
X11900000Y-39200000D02*
X8100000Y-39200000D01*
X8100000Y-39200000D02*
X8100000Y-36000000D01*
X-3200000Y-35500000D02*
X0Y-35500000D01*
X0Y-35500000D02*
X0Y-36000000D01*
X0Y-36000000D02*
X3100000Y-36000000D01*
X3100000Y-36000000D02*
X3100000Y-39200000D01*
X3100000Y-39200000D02*
X-3200000Y-39200000D01*
X-3200000Y-39200000D02*
X-3200000Y-35500000D01*
M02*
