%TF.GenerationSoftware,KiCad,Pcbnew,10.0.5*%
%TF.CreationDate,2026-09-12T13:41:43-04:00*%
%TF.ProjectId,Symm60HE-Neo-Centre-Family-Panel,53796d6d-3630-4484-952d-4e656f2d4365,rev?*%
%TF.SameCoordinates,Original*%
%TF.FileFunction,Legend,Top*%
%TF.FilePolarity,Positive*%
%FSLAX46Y46*%
G04 Gerber Fmt 4.6, Leading zero omitted, Abs format (unit mm)*
G04 Created by KiCad (PCBNEW 10.0.5) date 2026-09-12 13:41:43*
%MOMM*%
%LPD*%
G01*
G04 APERTURE LIST*
G04 Aperture macros list*
%AMRoundRect*
0 Rectangle with rounded corners*
0 $1 Rounding radius*
0 $2 $3 $4 $5 $6 $7 $8 $9 X,Y pos of 4 corners*
0 Add a 4 corners polygon primitive as box body*
4,1,4,$2,$3,$4,$5,$6,$7,$8,$9,$2,$3,0*
0 Add four circle primitives for the rounded corners*
1,1,$1+$1,$2,$3*
1,1,$1+$1,$4,$5*
1,1,$1+$1,$6,$7*
1,1,$1+$1,$8,$9*
0 Add four rect primitives between the rounded corners*
20,1,$1+$1,$2,$3,$4,$5,0*
20,1,$1+$1,$4,$5,$6,$7,0*
20,1,$1+$1,$6,$7,$8,$9,0*
20,1,$1+$1,$8,$9,$2,$3,0*%
G04 Aperture macros list end*
%ADD10C,0.120000*%
%ADD11C,0.150000*%
%ADD12C,0.200000*%
%ADD13C,2.000000*%
%ADD14RoundRect,0.225000X-0.225000X-0.250000X0.225000X-0.250000X0.225000X0.250000X-0.225000X0.250000X0*%
%ADD15RoundRect,0.135000X-0.135000X-0.185000X0.135000X-0.185000X0.135000X0.185000X-0.135000X0.185000X0*%
%ADD16RoundRect,0.150000X-0.512500X-0.150000X0.512500X-0.150000X0.512500X0.150000X-0.512500X0.150000X0*%
%ADD17C,0.650000*%
%ADD18RoundRect,0.150000X0.150000X0.575000X-0.150000X0.575000X-0.150000X-0.575000X0.150000X-0.575000X0*%
%ADD19RoundRect,0.075000X0.075000X0.650000X-0.075000X0.650000X-0.075000X-0.650000X0.075000X-0.650000X0*%
%ADD20O,1.000000X2.100000*%
%ADD21O,1.000000X1.600000*%
%ADD22RoundRect,0.150000X0.950000X-0.150000X0.950000X0.150000X-0.950000X0.150000X-0.950000X-0.150000X0*%
%ADD23RoundRect,0.360000X0.940000X-0.540000X0.940000X0.540000X-0.940000X0.540000X-0.940000X-0.540000X0*%
%ADD24C,2.200000*%
%ADD25RoundRect,0.243750X-0.243750X-0.456250X0.243750X-0.456250X0.243750X0.456250X-0.243750X0.456250X0*%
%ADD26RoundRect,0.250000X-0.450000X-0.350000X0.450000X-0.350000X0.450000X0.350000X-0.450000X0.350000X0*%
%ADD27R,1.000000X0.750000*%
%ADD28RoundRect,0.150000X-0.950000X0.150000X-0.950000X-0.150000X0.950000X-0.150000X0.950000X0.150000X0*%
%ADD29RoundRect,0.360000X-0.940000X0.540000X-0.940000X-0.540000X0.940000X-0.540000X0.940000X0.540000X0*%
%ADD30RoundRect,0.075000X-0.700000X-0.075000X0.700000X-0.075000X0.700000X0.075000X-0.700000X0.075000X0*%
%ADD31RoundRect,0.075000X-0.075000X-0.700000X0.075000X-0.700000X0.075000X0.700000X-0.075000X0.700000X0*%
%ADD32RoundRect,0.150000X-0.150000X-0.950000X0.150000X-0.950000X0.150000X0.950000X-0.150000X0.950000X0*%
%ADD33RoundRect,0.360000X-0.540000X-0.940000X0.540000X-0.940000X0.540000X0.940000X-0.540000X0.940000X0*%
%ADD34C,0.960000*%
%ADD35C,0.500000*%
G04 APERTURE END LIST*
D10*
X1742857Y-31363855D02*
X1361905Y-31363855D01*
X1361905Y-31363855D02*
X1361905Y-30563855D01*
X2009524Y-30944807D02*
X2276190Y-30944807D01*
X2390476Y-31363855D02*
X2009524Y-31363855D01*
X2009524Y-31363855D02*
X2009524Y-30563855D01*
X2009524Y-30563855D02*
X2390476Y-30563855D01*
X3000000Y-30944807D02*
X2733334Y-30944807D01*
X2733334Y-31363855D02*
X2733334Y-30563855D01*
X2733334Y-30563855D02*
X3114286Y-30563855D01*
X3304762Y-30563855D02*
X3761905Y-30563855D01*
X3533333Y-31363855D02*
X3533333Y-30563855D01*
X4600000Y-31325760D02*
X4714286Y-31363855D01*
X4714286Y-31363855D02*
X4904762Y-31363855D01*
X4904762Y-31363855D02*
X4980953Y-31325760D01*
X4980953Y-31325760D02*
X5019048Y-31287664D01*
X5019048Y-31287664D02*
X5057143Y-31211474D01*
X5057143Y-31211474D02*
X5057143Y-31135283D01*
X5057143Y-31135283D02*
X5019048Y-31059093D01*
X5019048Y-31059093D02*
X4980953Y-31020998D01*
X4980953Y-31020998D02*
X4904762Y-30982902D01*
X4904762Y-30982902D02*
X4752381Y-30944807D01*
X4752381Y-30944807D02*
X4676191Y-30906712D01*
X4676191Y-30906712D02*
X4638096Y-30868617D01*
X4638096Y-30868617D02*
X4600000Y-30792426D01*
X4600000Y-30792426D02*
X4600000Y-30716236D01*
X4600000Y-30716236D02*
X4638096Y-30640045D01*
X4638096Y-30640045D02*
X4676191Y-30601950D01*
X4676191Y-30601950D02*
X4752381Y-30563855D01*
X4752381Y-30563855D02*
X4942858Y-30563855D01*
X4942858Y-30563855D02*
X5057143Y-30601950D01*
X5400001Y-31363855D02*
X5400001Y-30563855D01*
X5400001Y-30563855D02*
X5704763Y-30563855D01*
X5704763Y-30563855D02*
X5780953Y-30601950D01*
X5780953Y-30601950D02*
X5819048Y-30640045D01*
X5819048Y-30640045D02*
X5857144Y-30716236D01*
X5857144Y-30716236D02*
X5857144Y-30830521D01*
X5857144Y-30830521D02*
X5819048Y-30906712D01*
X5819048Y-30906712D02*
X5780953Y-30944807D01*
X5780953Y-30944807D02*
X5704763Y-30982902D01*
X5704763Y-30982902D02*
X5400001Y-30982902D01*
X6657144Y-31363855D02*
X6390477Y-30982902D01*
X6200001Y-31363855D02*
X6200001Y-30563855D01*
X6200001Y-30563855D02*
X6504763Y-30563855D01*
X6504763Y-30563855D02*
X6580953Y-30601950D01*
X6580953Y-30601950D02*
X6619048Y-30640045D01*
X6619048Y-30640045D02*
X6657144Y-30716236D01*
X6657144Y-30716236D02*
X6657144Y-30830521D01*
X6657144Y-30830521D02*
X6619048Y-30906712D01*
X6619048Y-30906712D02*
X6580953Y-30944807D01*
X6580953Y-30944807D02*
X6504763Y-30982902D01*
X6504763Y-30982902D02*
X6200001Y-30982902D01*
X7000001Y-31363855D02*
X7000001Y-30563855D01*
X7380953Y-31363855D02*
X7380953Y-30563855D01*
X7380953Y-30563855D02*
X7838096Y-31363855D01*
X7838096Y-31363855D02*
X7838096Y-30563855D01*
X8638095Y-30601950D02*
X8561905Y-30563855D01*
X8561905Y-30563855D02*
X8447619Y-30563855D01*
X8447619Y-30563855D02*
X8333333Y-30601950D01*
X8333333Y-30601950D02*
X8257143Y-30678140D01*
X8257143Y-30678140D02*
X8219048Y-30754331D01*
X8219048Y-30754331D02*
X8180952Y-30906712D01*
X8180952Y-30906712D02*
X8180952Y-31020998D01*
X8180952Y-31020998D02*
X8219048Y-31173379D01*
X8219048Y-31173379D02*
X8257143Y-31249569D01*
X8257143Y-31249569D02*
X8333333Y-31325760D01*
X8333333Y-31325760D02*
X8447619Y-31363855D01*
X8447619Y-31363855D02*
X8523810Y-31363855D01*
X8523810Y-31363855D02*
X8638095Y-31325760D01*
X8638095Y-31325760D02*
X8676191Y-31287664D01*
X8676191Y-31287664D02*
X8676191Y-31020998D01*
X8676191Y-31020998D02*
X8523810Y-31020998D01*
X38438096Y-31363855D02*
X38171429Y-30982902D01*
X37980953Y-31363855D02*
X37980953Y-30563855D01*
X37980953Y-30563855D02*
X38285715Y-30563855D01*
X38285715Y-30563855D02*
X38361905Y-30601950D01*
X38361905Y-30601950D02*
X38400000Y-30640045D01*
X38400000Y-30640045D02*
X38438096Y-30716236D01*
X38438096Y-30716236D02*
X38438096Y-30830521D01*
X38438096Y-30830521D02*
X38400000Y-30906712D01*
X38400000Y-30906712D02*
X38361905Y-30944807D01*
X38361905Y-30944807D02*
X38285715Y-30982902D01*
X38285715Y-30982902D02*
X37980953Y-30982902D01*
X38780953Y-31363855D02*
X38780953Y-30563855D01*
X39580952Y-30601950D02*
X39504762Y-30563855D01*
X39504762Y-30563855D02*
X39390476Y-30563855D01*
X39390476Y-30563855D02*
X39276190Y-30601950D01*
X39276190Y-30601950D02*
X39200000Y-30678140D01*
X39200000Y-30678140D02*
X39161905Y-30754331D01*
X39161905Y-30754331D02*
X39123809Y-30906712D01*
X39123809Y-30906712D02*
X39123809Y-31020998D01*
X39123809Y-31020998D02*
X39161905Y-31173379D01*
X39161905Y-31173379D02*
X39200000Y-31249569D01*
X39200000Y-31249569D02*
X39276190Y-31325760D01*
X39276190Y-31325760D02*
X39390476Y-31363855D01*
X39390476Y-31363855D02*
X39466667Y-31363855D01*
X39466667Y-31363855D02*
X39580952Y-31325760D01*
X39580952Y-31325760D02*
X39619048Y-31287664D01*
X39619048Y-31287664D02*
X39619048Y-31020998D01*
X39619048Y-31020998D02*
X39466667Y-31020998D01*
X39961905Y-31363855D02*
X39961905Y-30563855D01*
X39961905Y-30944807D02*
X40419048Y-30944807D01*
X40419048Y-31363855D02*
X40419048Y-30563855D01*
X40685714Y-30563855D02*
X41142857Y-30563855D01*
X40914285Y-31363855D02*
X40914285Y-30563855D01*
X41980952Y-31325760D02*
X42095238Y-31363855D01*
X42095238Y-31363855D02*
X42285714Y-31363855D01*
X42285714Y-31363855D02*
X42361905Y-31325760D01*
X42361905Y-31325760D02*
X42400000Y-31287664D01*
X42400000Y-31287664D02*
X42438095Y-31211474D01*
X42438095Y-31211474D02*
X42438095Y-31135283D01*
X42438095Y-31135283D02*
X42400000Y-31059093D01*
X42400000Y-31059093D02*
X42361905Y-31020998D01*
X42361905Y-31020998D02*
X42285714Y-30982902D01*
X42285714Y-30982902D02*
X42133333Y-30944807D01*
X42133333Y-30944807D02*
X42057143Y-30906712D01*
X42057143Y-30906712D02*
X42019048Y-30868617D01*
X42019048Y-30868617D02*
X41980952Y-30792426D01*
X41980952Y-30792426D02*
X41980952Y-30716236D01*
X41980952Y-30716236D02*
X42019048Y-30640045D01*
X42019048Y-30640045D02*
X42057143Y-30601950D01*
X42057143Y-30601950D02*
X42133333Y-30563855D01*
X42133333Y-30563855D02*
X42323810Y-30563855D01*
X42323810Y-30563855D02*
X42438095Y-30601950D01*
X42780953Y-31363855D02*
X42780953Y-30563855D01*
X42780953Y-30563855D02*
X43085715Y-30563855D01*
X43085715Y-30563855D02*
X43161905Y-30601950D01*
X43161905Y-30601950D02*
X43200000Y-30640045D01*
X43200000Y-30640045D02*
X43238096Y-30716236D01*
X43238096Y-30716236D02*
X43238096Y-30830521D01*
X43238096Y-30830521D02*
X43200000Y-30906712D01*
X43200000Y-30906712D02*
X43161905Y-30944807D01*
X43161905Y-30944807D02*
X43085715Y-30982902D01*
X43085715Y-30982902D02*
X42780953Y-30982902D01*
X44038096Y-31363855D02*
X43771429Y-30982902D01*
X43580953Y-31363855D02*
X43580953Y-30563855D01*
X43580953Y-30563855D02*
X43885715Y-30563855D01*
X43885715Y-30563855D02*
X43961905Y-30601950D01*
X43961905Y-30601950D02*
X44000000Y-30640045D01*
X44000000Y-30640045D02*
X44038096Y-30716236D01*
X44038096Y-30716236D02*
X44038096Y-30830521D01*
X44038096Y-30830521D02*
X44000000Y-30906712D01*
X44000000Y-30906712D02*
X43961905Y-30944807D01*
X43961905Y-30944807D02*
X43885715Y-30982902D01*
X43885715Y-30982902D02*
X43580953Y-30982902D01*
X44380953Y-31363855D02*
X44380953Y-30563855D01*
X44761905Y-31363855D02*
X44761905Y-30563855D01*
X44761905Y-30563855D02*
X45219048Y-31363855D01*
X45219048Y-31363855D02*
X45219048Y-30563855D01*
X46019047Y-30601950D02*
X45942857Y-30563855D01*
X45942857Y-30563855D02*
X45828571Y-30563855D01*
X45828571Y-30563855D02*
X45714285Y-30601950D01*
X45714285Y-30601950D02*
X45638095Y-30678140D01*
X45638095Y-30678140D02*
X45600000Y-30754331D01*
X45600000Y-30754331D02*
X45561904Y-30906712D01*
X45561904Y-30906712D02*
X45561904Y-31020998D01*
X45561904Y-31020998D02*
X45600000Y-31173379D01*
X45600000Y-31173379D02*
X45638095Y-31249569D01*
X45638095Y-31249569D02*
X45714285Y-31325760D01*
X45714285Y-31325760D02*
X45828571Y-31363855D01*
X45828571Y-31363855D02*
X45904762Y-31363855D01*
X45904762Y-31363855D02*
X46019047Y-31325760D01*
X46019047Y-31325760D02*
X46057143Y-31287664D01*
X46057143Y-31287664D02*
X46057143Y-31020998D01*
X46057143Y-31020998D02*
X45904762Y-31020998D01*
D11*
X35547618Y-9654580D02*
X35499999Y-9702200D01*
X35499999Y-9702200D02*
X35357142Y-9749819D01*
X35357142Y-9749819D02*
X35261904Y-9749819D01*
X35261904Y-9749819D02*
X35119047Y-9702200D01*
X35119047Y-9702200D02*
X35023809Y-9606961D01*
X35023809Y-9606961D02*
X34976190Y-9511723D01*
X34976190Y-9511723D02*
X34928571Y-9321247D01*
X34928571Y-9321247D02*
X34928571Y-9178390D01*
X34928571Y-9178390D02*
X34976190Y-8987914D01*
X34976190Y-8987914D02*
X35023809Y-8892676D01*
X35023809Y-8892676D02*
X35119047Y-8797438D01*
X35119047Y-8797438D02*
X35261904Y-8749819D01*
X35261904Y-8749819D02*
X35357142Y-8749819D01*
X35357142Y-8749819D02*
X35499999Y-8797438D01*
X35499999Y-8797438D02*
X35547618Y-8845057D01*
X35833333Y-8749819D02*
X36404761Y-8749819D01*
X36119047Y-9749819D02*
X36119047Y-8749819D01*
X37214285Y-9749819D02*
X36738095Y-9749819D01*
X36738095Y-9749819D02*
X36738095Y-8749819D01*
X37547619Y-9368866D02*
X38309524Y-9368866D01*
X39071428Y-8749819D02*
X39071428Y-9464104D01*
X39071428Y-9464104D02*
X39023809Y-9606961D01*
X39023809Y-9606961D02*
X38928571Y-9702200D01*
X38928571Y-9702200D02*
X38785714Y-9749819D01*
X38785714Y-9749819D02*
X38690476Y-9749819D01*
X40071428Y-9749819D02*
X39500000Y-9749819D01*
X39785714Y-9749819D02*
X39785714Y-8749819D01*
X39785714Y-8749819D02*
X39690476Y-8892676D01*
X39690476Y-8892676D02*
X39595238Y-8987914D01*
X39595238Y-8987914D02*
X39500000Y-9035533D01*
X47247618Y-17359580D02*
X47199999Y-17407200D01*
X47199999Y-17407200D02*
X47057142Y-17454819D01*
X47057142Y-17454819D02*
X46961904Y-17454819D01*
X46961904Y-17454819D02*
X46819047Y-17407200D01*
X46819047Y-17407200D02*
X46723809Y-17311961D01*
X46723809Y-17311961D02*
X46676190Y-17216723D01*
X46676190Y-17216723D02*
X46628571Y-17026247D01*
X46628571Y-17026247D02*
X46628571Y-16883390D01*
X46628571Y-16883390D02*
X46676190Y-16692914D01*
X46676190Y-16692914D02*
X46723809Y-16597676D01*
X46723809Y-16597676D02*
X46819047Y-16502438D01*
X46819047Y-16502438D02*
X46961904Y-16454819D01*
X46961904Y-16454819D02*
X47057142Y-16454819D01*
X47057142Y-16454819D02*
X47199999Y-16502438D01*
X47199999Y-16502438D02*
X47247618Y-16550057D01*
X47533333Y-16454819D02*
X48104761Y-16454819D01*
X47819047Y-17454819D02*
X47819047Y-16454819D01*
X48914285Y-17454819D02*
X48438095Y-17454819D01*
X48438095Y-17454819D02*
X48438095Y-16454819D01*
X49247619Y-17073866D02*
X50009524Y-17073866D01*
X50771428Y-16454819D02*
X50771428Y-17169104D01*
X50771428Y-17169104D02*
X50723809Y-17311961D01*
X50723809Y-17311961D02*
X50628571Y-17407200D01*
X50628571Y-17407200D02*
X50485714Y-17454819D01*
X50485714Y-17454819D02*
X50390476Y-17454819D01*
X51152381Y-16454819D02*
X51771428Y-16454819D01*
X51771428Y-16454819D02*
X51438095Y-16835771D01*
X51438095Y-16835771D02*
X51580952Y-16835771D01*
X51580952Y-16835771D02*
X51676190Y-16883390D01*
X51676190Y-16883390D02*
X51723809Y-16931009D01*
X51723809Y-16931009D02*
X51771428Y-17026247D01*
X51771428Y-17026247D02*
X51771428Y-17264342D01*
X51771428Y-17264342D02*
X51723809Y-17359580D01*
X51723809Y-17359580D02*
X51676190Y-17407200D01*
X51676190Y-17407200D02*
X51580952Y-17454819D01*
X51580952Y-17454819D02*
X51295238Y-17454819D01*
X51295238Y-17454819D02*
X51200000Y-17407200D01*
X51200000Y-17407200D02*
X51152381Y-17359580D01*
X5847618Y-17359580D02*
X5799999Y-17407200D01*
X5799999Y-17407200D02*
X5657142Y-17454819D01*
X5657142Y-17454819D02*
X5561904Y-17454819D01*
X5561904Y-17454819D02*
X5419047Y-17407200D01*
X5419047Y-17407200D02*
X5323809Y-17311961D01*
X5323809Y-17311961D02*
X5276190Y-17216723D01*
X5276190Y-17216723D02*
X5228571Y-17026247D01*
X5228571Y-17026247D02*
X5228571Y-16883390D01*
X5228571Y-16883390D02*
X5276190Y-16692914D01*
X5276190Y-16692914D02*
X5323809Y-16597676D01*
X5323809Y-16597676D02*
X5419047Y-16502438D01*
X5419047Y-16502438D02*
X5561904Y-16454819D01*
X5561904Y-16454819D02*
X5657142Y-16454819D01*
X5657142Y-16454819D02*
X5799999Y-16502438D01*
X5799999Y-16502438D02*
X5847618Y-16550057D01*
X6133333Y-16454819D02*
X6704761Y-16454819D01*
X6419047Y-17454819D02*
X6419047Y-16454819D01*
X7514285Y-17454819D02*
X7038095Y-17454819D01*
X7038095Y-17454819D02*
X7038095Y-16454819D01*
X7847619Y-17073866D02*
X8609524Y-17073866D01*
X9371428Y-16454819D02*
X9371428Y-17169104D01*
X9371428Y-17169104D02*
X9323809Y-17311961D01*
X9323809Y-17311961D02*
X9228571Y-17407200D01*
X9228571Y-17407200D02*
X9085714Y-17454819D01*
X9085714Y-17454819D02*
X8990476Y-17454819D01*
X9800000Y-16550057D02*
X9847619Y-16502438D01*
X9847619Y-16502438D02*
X9942857Y-16454819D01*
X9942857Y-16454819D02*
X10180952Y-16454819D01*
X10180952Y-16454819D02*
X10276190Y-16502438D01*
X10276190Y-16502438D02*
X10323809Y-16550057D01*
X10323809Y-16550057D02*
X10371428Y-16645295D01*
X10371428Y-16645295D02*
X10371428Y-16740533D01*
X10371428Y-16740533D02*
X10323809Y-16883390D01*
X10323809Y-16883390D02*
X9752381Y-17454819D01*
X9752381Y-17454819D02*
X10371428Y-17454819D01*
D10*
X8209523Y-37563855D02*
X7828571Y-37563855D01*
X7828571Y-37563855D02*
X7828571Y-36763855D01*
X8438094Y-37525760D02*
X8552380Y-37563855D01*
X8552380Y-37563855D02*
X8742856Y-37563855D01*
X8742856Y-37563855D02*
X8819047Y-37525760D01*
X8819047Y-37525760D02*
X8857142Y-37487664D01*
X8857142Y-37487664D02*
X8895237Y-37411474D01*
X8895237Y-37411474D02*
X8895237Y-37335283D01*
X8895237Y-37335283D02*
X8857142Y-37259093D01*
X8857142Y-37259093D02*
X8819047Y-37220998D01*
X8819047Y-37220998D02*
X8742856Y-37182902D01*
X8742856Y-37182902D02*
X8590475Y-37144807D01*
X8590475Y-37144807D02*
X8514285Y-37106712D01*
X8514285Y-37106712D02*
X8476190Y-37068617D01*
X8476190Y-37068617D02*
X8438094Y-36992426D01*
X8438094Y-36992426D02*
X8438094Y-36916236D01*
X8438094Y-36916236D02*
X8476190Y-36840045D01*
X8476190Y-36840045D02*
X8514285Y-36801950D01*
X8514285Y-36801950D02*
X8590475Y-36763855D01*
X8590475Y-36763855D02*
X8780952Y-36763855D01*
X8780952Y-36763855D02*
X8895237Y-36801950D01*
X9238095Y-37259093D02*
X9847619Y-37259093D01*
X10228571Y-37563855D02*
X10228571Y-36763855D01*
X10228571Y-36763855D02*
X10533333Y-36763855D01*
X10533333Y-36763855D02*
X10609523Y-36801950D01*
X10609523Y-36801950D02*
X10647618Y-36840045D01*
X10647618Y-36840045D02*
X10685714Y-36916236D01*
X10685714Y-36916236D02*
X10685714Y-37030521D01*
X10685714Y-37030521D02*
X10647618Y-37106712D01*
X10647618Y-37106712D02*
X10609523Y-37144807D01*
X10609523Y-37144807D02*
X10533333Y-37182902D01*
X10533333Y-37182902D02*
X10228571Y-37182902D01*
X10990475Y-37525760D02*
X11104761Y-37563855D01*
X11104761Y-37563855D02*
X11295237Y-37563855D01*
X11295237Y-37563855D02*
X11371428Y-37525760D01*
X11371428Y-37525760D02*
X11409523Y-37487664D01*
X11409523Y-37487664D02*
X11447618Y-37411474D01*
X11447618Y-37411474D02*
X11447618Y-37335283D01*
X11447618Y-37335283D02*
X11409523Y-37259093D01*
X11409523Y-37259093D02*
X11371428Y-37220998D01*
X11371428Y-37220998D02*
X11295237Y-37182902D01*
X11295237Y-37182902D02*
X11142856Y-37144807D01*
X11142856Y-37144807D02*
X11066666Y-37106712D01*
X11066666Y-37106712D02*
X11028571Y-37068617D01*
X11028571Y-37068617D02*
X10990475Y-36992426D01*
X10990475Y-36992426D02*
X10990475Y-36916236D01*
X10990475Y-36916236D02*
X11028571Y-36840045D01*
X11028571Y-36840045D02*
X11066666Y-36801950D01*
X11066666Y-36801950D02*
X11142856Y-36763855D01*
X11142856Y-36763855D02*
X11333333Y-36763855D01*
X11333333Y-36763855D02*
X11447618Y-36801950D01*
X12209523Y-37563855D02*
X11752380Y-37563855D01*
X11980952Y-37563855D02*
X11980952Y-36763855D01*
X11980952Y-36763855D02*
X11904761Y-36878140D01*
X11904761Y-36878140D02*
X11828571Y-36954331D01*
X11828571Y-36954331D02*
X11752380Y-36992426D01*
X45209524Y-33163855D02*
X44942857Y-32782902D01*
X44752381Y-33163855D02*
X44752381Y-32363855D01*
X44752381Y-32363855D02*
X45057143Y-32363855D01*
X45057143Y-32363855D02*
X45133333Y-32401950D01*
X45133333Y-32401950D02*
X45171428Y-32440045D01*
X45171428Y-32440045D02*
X45209524Y-32516236D01*
X45209524Y-32516236D02*
X45209524Y-32630521D01*
X45209524Y-32630521D02*
X45171428Y-32706712D01*
X45171428Y-32706712D02*
X45133333Y-32744807D01*
X45133333Y-32744807D02*
X45057143Y-32782902D01*
X45057143Y-32782902D02*
X44752381Y-32782902D01*
X45514285Y-33125760D02*
X45628571Y-33163855D01*
X45628571Y-33163855D02*
X45819047Y-33163855D01*
X45819047Y-33163855D02*
X45895238Y-33125760D01*
X45895238Y-33125760D02*
X45933333Y-33087664D01*
X45933333Y-33087664D02*
X45971428Y-33011474D01*
X45971428Y-33011474D02*
X45971428Y-32935283D01*
X45971428Y-32935283D02*
X45933333Y-32859093D01*
X45933333Y-32859093D02*
X45895238Y-32820998D01*
X45895238Y-32820998D02*
X45819047Y-32782902D01*
X45819047Y-32782902D02*
X45666666Y-32744807D01*
X45666666Y-32744807D02*
X45590476Y-32706712D01*
X45590476Y-32706712D02*
X45552381Y-32668617D01*
X45552381Y-32668617D02*
X45514285Y-32592426D01*
X45514285Y-32592426D02*
X45514285Y-32516236D01*
X45514285Y-32516236D02*
X45552381Y-32440045D01*
X45552381Y-32440045D02*
X45590476Y-32401950D01*
X45590476Y-32401950D02*
X45666666Y-32363855D01*
X45666666Y-32363855D02*
X45857143Y-32363855D01*
X45857143Y-32363855D02*
X45971428Y-32401950D01*
X46314286Y-32859093D02*
X46923810Y-32859093D01*
X47304762Y-33163855D02*
X47304762Y-32363855D01*
X47304762Y-32363855D02*
X47609524Y-32363855D01*
X47609524Y-32363855D02*
X47685714Y-32401950D01*
X47685714Y-32401950D02*
X47723809Y-32440045D01*
X47723809Y-32440045D02*
X47761905Y-32516236D01*
X47761905Y-32516236D02*
X47761905Y-32630521D01*
X47761905Y-32630521D02*
X47723809Y-32706712D01*
X47723809Y-32706712D02*
X47685714Y-32744807D01*
X47685714Y-32744807D02*
X47609524Y-32782902D01*
X47609524Y-32782902D02*
X47304762Y-32782902D01*
X48066666Y-33125760D02*
X48180952Y-33163855D01*
X48180952Y-33163855D02*
X48371428Y-33163855D01*
X48371428Y-33163855D02*
X48447619Y-33125760D01*
X48447619Y-33125760D02*
X48485714Y-33087664D01*
X48485714Y-33087664D02*
X48523809Y-33011474D01*
X48523809Y-33011474D02*
X48523809Y-32935283D01*
X48523809Y-32935283D02*
X48485714Y-32859093D01*
X48485714Y-32859093D02*
X48447619Y-32820998D01*
X48447619Y-32820998D02*
X48371428Y-32782902D01*
X48371428Y-32782902D02*
X48219047Y-32744807D01*
X48219047Y-32744807D02*
X48142857Y-32706712D01*
X48142857Y-32706712D02*
X48104762Y-32668617D01*
X48104762Y-32668617D02*
X48066666Y-32592426D01*
X48066666Y-32592426D02*
X48066666Y-32516236D01*
X48066666Y-32516236D02*
X48104762Y-32440045D01*
X48104762Y-32440045D02*
X48142857Y-32401950D01*
X48142857Y-32401950D02*
X48219047Y-32363855D01*
X48219047Y-32363855D02*
X48409524Y-32363855D01*
X48409524Y-32363855D02*
X48523809Y-32401950D01*
X49285714Y-33163855D02*
X48828571Y-33163855D01*
X49057143Y-33163855D02*
X49057143Y-32363855D01*
X49057143Y-32363855D02*
X48980952Y-32478140D01*
X48980952Y-32478140D02*
X48904762Y-32554331D01*
X48904762Y-32554331D02*
X48828571Y-32592426D01*
%TO.C,CTL-J1*%
X32800000Y250000D02*
X42200000Y250000D01*
X42200000Y-7550000D01*
X32800000Y-7550000D01*
X32800000Y250000D01*
%TO.C,CTL-J3*%
D12*
X56350000Y-23700000D02*
X56350000Y-10300000D01*
X57200000Y-17000000D02*
X56550000Y-16300000D01*
X57200000Y-17000000D02*
X56550000Y-17700000D01*
%TO.C,CTL-J2*%
X-200000Y-17000000D02*
X450000Y-16300000D01*
X-200000Y-17000000D02*
X450000Y-17700000D01*
X650000Y-10300000D02*
X650000Y-23700000D01*
%TO.C,LS-JF1*%
X3300000Y-47150000D02*
X16700000Y-47150000D01*
X10000000Y-48000000D02*
X9300000Y-47350000D01*
X10000000Y-48000000D02*
X10700000Y-47350000D01*
%TO.C,LS-PS1*%
D11*
X17175000Y-35950000D02*
X2825000Y-35950000D01*
X17280000Y-36450000D02*
G75*
G02*
X16690000Y-36450000I-295000J0D01*
G01*
X16690000Y-36450000D02*
G75*
G02*
X17280000Y-36450000I295000J0D01*
G01*
%TO.C,RS-PS1*%
X39825000Y-34050000D02*
X54175000Y-34050000D01*
X40310000Y-33550000D02*
G75*
G02*
X39720000Y-33550000I-295000J0D01*
G01*
X39720000Y-33550000D02*
G75*
G02*
X40310000Y-33550000I295000J0D01*
G01*
%TO.C,RS-JF1*%
D12*
X40300000Y-47150000D02*
X53700000Y-47150000D01*
X47000000Y-48000000D02*
X46300000Y-47350000D01*
X47000000Y-48000000D02*
X47700000Y-47350000D01*
%TD*%
%LPC*%
D13*
%TO.C,CTL-FIDF3*%
X54291000Y-26963300D03*
%TD*%
D14*
%TO.C,CTL-C1*%
X46725000Y-8500000D03*
X48275000Y-8500000D03*
%TD*%
D15*
%TO.C,CTL-R3*%
X38990000Y-23000000D03*
X40010000Y-23000000D03*
%TD*%
%TO.C,CTL-R1*%
X35990000Y-15000000D03*
X37010000Y-15000000D03*
%TD*%
%TO.C,CTL-R2*%
X31990000Y-11000000D03*
X33010000Y-11000000D03*
%TD*%
D16*
%TO.C,CTL-U2*%
X36862500Y-10550000D03*
X36862500Y-11500000D03*
X36862500Y-12450000D03*
X39137500Y-12450000D03*
X39137500Y-11500000D03*
X39137500Y-10550000D03*
%TD*%
D17*
%TO.C,CTL-J1*%
X40390000Y-6250000D03*
X34610000Y-6250000D03*
D18*
X40750000Y-7695000D03*
X39950000Y-7695000D03*
D19*
X38750000Y-7695000D03*
X37750000Y-7695000D03*
X37250000Y-7695000D03*
X36250000Y-7695000D03*
D18*
X35050000Y-7695000D03*
X34250000Y-7695000D03*
X34250000Y-7695000D03*
X35050000Y-7695000D03*
D19*
X35750000Y-7695000D03*
X36750000Y-7695000D03*
X38250000Y-7695000D03*
X39250000Y-7695000D03*
D18*
X39950000Y-7695000D03*
X40750000Y-7695000D03*
D20*
X41820000Y-6780000D03*
D21*
X41820000Y-2600000D03*
D20*
X33180000Y-6780000D03*
D21*
X33180000Y-2600000D03*
%TD*%
D14*
%TO.C,CTL-C2*%
X45725000Y-21000000D03*
X47275000Y-21000000D03*
%TD*%
D22*
%TO.C,CTL-J3*%
X53100000Y-22500000D03*
X53100000Y-21500000D03*
X53100000Y-20500000D03*
X53100000Y-19500000D03*
X53100000Y-18500000D03*
X53100000Y-17500000D03*
X53100000Y-16500000D03*
X53100000Y-15500000D03*
X53100000Y-14500000D03*
X53100000Y-13500000D03*
X53100000Y-12500000D03*
X53100000Y-11500000D03*
D23*
X55300000Y-24800000D03*
X55300000Y-9200000D03*
%TD*%
D24*
%TO.C,CTL-MHD1*%
X4500000Y-4000000D03*
%TD*%
D25*
%TO.C,CTL-F1*%
X44562500Y-5000000D03*
X46437500Y-5000000D03*
%TD*%
D26*
%TO.C,CTL-Y1*%
X14900000Y-16850000D03*
X17100000Y-16850000D03*
X17100000Y-15150000D03*
X14900000Y-15150000D03*
%TD*%
D24*
%TO.C,CTL-MHD2*%
X52500000Y-4000000D03*
%TD*%
D16*
%TO.C,CTL-U4*%
X14862500Y-20050000D03*
X14862500Y-21950000D03*
X17137500Y-21000000D03*
%TD*%
D13*
%TO.C,CTL-FIDF2*%
X25291000Y-2763300D03*
%TD*%
D27*
%TO.C,CTL-SW1*%
X13000000Y-3125000D03*
X19000000Y-3125000D03*
X13000000Y-6875000D03*
X19000000Y-6875000D03*
%TD*%
D28*
%TO.C,CTL-J2*%
X3900000Y-11500000D03*
X3900000Y-12500000D03*
X3900000Y-13500000D03*
X3900000Y-14500000D03*
X3900000Y-15500000D03*
X3900000Y-16500000D03*
X3900000Y-17500000D03*
X3900000Y-18500000D03*
X3900000Y-19500000D03*
X3900000Y-20500000D03*
X3900000Y-21500000D03*
X3900000Y-22500000D03*
D29*
X1700000Y-9200000D03*
X1700000Y-24800000D03*
%TD*%
D16*
%TO.C,CTL-U3*%
X42862500Y-10550000D03*
X42862500Y-11500000D03*
X42862500Y-12450000D03*
X45137500Y-12450000D03*
X45137500Y-10550000D03*
%TD*%
D30*
%TO.C,CTL-U1*%
X21325000Y-13250000D03*
X21325000Y-13750000D03*
X21325000Y-14250000D03*
X21325000Y-14750000D03*
X21325000Y-15250000D03*
X21325000Y-15750000D03*
X21325000Y-16250000D03*
X21325000Y-16750000D03*
X21325000Y-17250000D03*
X21325000Y-17750000D03*
X21325000Y-18250000D03*
X21325000Y-18750000D03*
X21325000Y-19250000D03*
X21325000Y-19750000D03*
X21325000Y-20250000D03*
X21325000Y-20750000D03*
D31*
X23250000Y-22675000D03*
X23750000Y-22675000D03*
X24250000Y-22675000D03*
X24750000Y-22675000D03*
X25250000Y-22675000D03*
X25750000Y-22675000D03*
X26250000Y-22675000D03*
X26750000Y-22675000D03*
X27250000Y-22675000D03*
X27750000Y-22675000D03*
X28250000Y-22675000D03*
X28750000Y-22675000D03*
X29250000Y-22675000D03*
X29750000Y-22675000D03*
X30250000Y-22675000D03*
X30750000Y-22675000D03*
D30*
X32675000Y-20750000D03*
X32675000Y-20250000D03*
X32675000Y-19750000D03*
X32675000Y-19250000D03*
X32675000Y-18750000D03*
X32675000Y-18250000D03*
X32675000Y-17750000D03*
X32675000Y-17250000D03*
X32675000Y-16750000D03*
X32675000Y-16250000D03*
X32675000Y-15750000D03*
X32675000Y-15250000D03*
X32675000Y-14750000D03*
X32675000Y-14250000D03*
X32675000Y-13750000D03*
X32675000Y-13250000D03*
D31*
X30750000Y-11325000D03*
X30250000Y-11325000D03*
X29750000Y-11325000D03*
X29250000Y-11325000D03*
X28750000Y-11325000D03*
X28250000Y-11325000D03*
X27750000Y-11325000D03*
X27250000Y-11325000D03*
X26750000Y-11325000D03*
X26250000Y-11325000D03*
X25750000Y-11325000D03*
X25250000Y-11325000D03*
X24750000Y-11325000D03*
X24250000Y-11325000D03*
X23750000Y-11325000D03*
X23250000Y-11325000D03*
%TD*%
D27*
%TO.C,CTL-SW2*%
X9000000Y-9125000D03*
X15000000Y-9125000D03*
X9000000Y-12875000D03*
X15000000Y-12875000D03*
%TD*%
D13*
%TO.C,CTL-FIDF1*%
X9291000Y-4763300D03*
%TD*%
D32*
%TO.C,LS-JF1*%
X4500000Y-43900000D03*
X5500000Y-43900000D03*
X6500000Y-43900000D03*
X7500000Y-43900000D03*
X8500000Y-43900000D03*
X9500000Y-43900000D03*
X10500000Y-43900000D03*
X11500000Y-43900000D03*
X12500000Y-43900000D03*
X13500000Y-43900000D03*
X14500000Y-43900000D03*
X15500000Y-43900000D03*
D33*
X2200000Y-46100000D03*
X17800000Y-46100000D03*
%TD*%
D34*
%TO.C,LS-PS1*%
X16985000Y-35000000D03*
X15715000Y-35000000D03*
X14445000Y-35000000D03*
X13175000Y-35000000D03*
X11905000Y-35000000D03*
X10635000Y-35000000D03*
X9365000Y-35000000D03*
X8095000Y-35000000D03*
X6825000Y-35000000D03*
X5555000Y-35000000D03*
X4285000Y-35000000D03*
X3015000Y-35000000D03*
%TD*%
%TO.C,RS-PS1*%
X40015000Y-35000000D03*
X41285000Y-35000000D03*
X42555000Y-35000000D03*
X43825000Y-35000000D03*
X45095000Y-35000000D03*
X46365000Y-35000000D03*
X47635000Y-35000000D03*
X48905000Y-35000000D03*
X50175000Y-35000000D03*
X51445000Y-35000000D03*
X52715000Y-35000000D03*
X53985000Y-35000000D03*
%TD*%
D32*
%TO.C,RS-JF1*%
X41500000Y-43900000D03*
X42500000Y-43900000D03*
X43500000Y-43900000D03*
X44500000Y-43900000D03*
X45500000Y-43900000D03*
X46500000Y-43900000D03*
X47500000Y-43900000D03*
X48500000Y-43900000D03*
X49500000Y-43900000D03*
X50500000Y-43900000D03*
X51500000Y-43900000D03*
X52500000Y-43900000D03*
D33*
X39200000Y-46100000D03*
X54800000Y-46100000D03*
%TD*%
D35*
%TO.C,MB1*%
X13890000Y0D03*
%TD*%
%TO.C,MB2*%
X14640000Y0D03*
%TD*%
%TO.C,MB3*%
X15390000Y0D03*
%TD*%
%TO.C,MB4*%
X16140000Y0D03*
%TD*%
%TO.C,MB5*%
X16890000Y0D03*
%TD*%
%TO.C,MB6*%
X40110000Y0D03*
%TD*%
%TO.C,MB7*%
X40860000Y0D03*
%TD*%
%TO.C,MB8*%
X41610000Y0D03*
%TD*%
%TO.C,MB9*%
X42360000Y0D03*
%TD*%
%TO.C,MB10*%
X43110000Y0D03*
%TD*%
%TO.C,MB11*%
X0Y-12500000D03*
%TD*%
%TO.C,MB12*%
X0Y-13250000D03*
%TD*%
%TO.C,MB13*%
X0Y-14000000D03*
%TD*%
%TO.C,MB14*%
X0Y-14750000D03*
%TD*%
%TO.C,MB15*%
X0Y-15500000D03*
%TD*%
%TO.C,MB16*%
X57000000Y-12500000D03*
%TD*%
%TO.C,MB17*%
X57000000Y-13250000D03*
%TD*%
%TO.C,MB18*%
X57000000Y-14000000D03*
%TD*%
%TO.C,MB19*%
X57000000Y-14750000D03*
%TD*%
%TO.C,MB20*%
X57000000Y-15500000D03*
%TD*%
%TO.C,MB21*%
X4100000Y-50000000D03*
%TD*%
%TO.C,MB22*%
X4850000Y-50000000D03*
%TD*%
%TO.C,MB23*%
X5600000Y-50000000D03*
%TD*%
%TO.C,MB24*%
X6350000Y-50000000D03*
%TD*%
%TO.C,MB25*%
X7100000Y-50000000D03*
%TD*%
%TO.C,MB26*%
X12900000Y-50000000D03*
%TD*%
%TO.C,MB27*%
X13650000Y-50000000D03*
%TD*%
%TO.C,MB28*%
X14400000Y-50000000D03*
%TD*%
%TO.C,MB29*%
X15150000Y-50000000D03*
%TD*%
%TO.C,MB30*%
X15900000Y-50000000D03*
%TD*%
%TO.C,MB31*%
X0Y-38500000D03*
%TD*%
%TO.C,MB32*%
X0Y-39250000D03*
%TD*%
%TO.C,MB33*%
X0Y-40000000D03*
%TD*%
%TO.C,MB34*%
X0Y-40750000D03*
%TD*%
%TO.C,MB35*%
X0Y-41500000D03*
%TD*%
%TO.C,MB36*%
X41100000Y-50000000D03*
%TD*%
%TO.C,MB37*%
X41850000Y-50000000D03*
%TD*%
%TO.C,MB38*%
X42600000Y-50000000D03*
%TD*%
%TO.C,MB39*%
X43350000Y-50000000D03*
%TD*%
%TO.C,MB40*%
X44100000Y-50000000D03*
%TD*%
%TO.C,MB41*%
X49900000Y-50000000D03*
%TD*%
%TO.C,MB42*%
X50650000Y-50000000D03*
%TD*%
%TO.C,MB43*%
X51400000Y-50000000D03*
%TD*%
%TO.C,MB44*%
X52150000Y-50000000D03*
%TD*%
%TO.C,MB45*%
X52900000Y-50000000D03*
%TD*%
%TO.C,MB46*%
X57000000Y-38500000D03*
%TD*%
%TO.C,MB47*%
X57000000Y-39250000D03*
%TD*%
%TO.C,MB48*%
X57000000Y-40000000D03*
%TD*%
%TO.C,MB49*%
X57000000Y-40750000D03*
%TD*%
%TO.C,MB50*%
X57000000Y-41500000D03*
%TD*%
D13*
%TO.C,FIDF1*%
X-4350000Y4350000D03*
%TD*%
%TO.C,FIDF2*%
X61350000Y4350000D03*
%TD*%
%TO.C,FIDF3*%
X-4350000Y-54350000D03*
%TD*%
%TO.C,TH1*%
X-5700000Y-11720000D03*
%TD*%
%TO.C,TH2*%
X62700000Y-11720000D03*
%TD*%
%TO.C,TH3*%
X-5700000Y-38280000D03*
%TD*%
%TO.C,TH4*%
X62700000Y-38280000D03*
%TD*%
%LPD*%
M02*
