M48
; DRILL file KiCad 10.0.5 date 2026-09-12T17:12:49
; FORMAT={-:-/ absolute / metric / decimal}
; #@! TF.CreationDate,2026-09-12T17:12:49-04:00
; #@! TF.GenerationSoftware,Kicad,Pcbnew,10.0.5
; #@! TF.FileFunction,Plated,1,2,PTH
FMAT,2
METRIC
; #@! TA.AperFunction,Plated,PTH,ViaDrill
T1C0.300
; #@! TA.AperFunction,Plated,PTH,ComponentDrill
T2C0.600
%
G90
G05
T1
X4.5Y-30.8
X5.14Y-12.5
X5.5Y-34.4
X6.5Y-30.8
X7.5Y-30.8
X8.5Y-30.8
X9.5Y-34.4
X9.743Y-18.5
X10.197Y-19.131
X10.5Y-30.8
X11.356Y-20.078
X11.5Y-34.4
X12.5Y-30.8
X13.5Y-34.4
X14.111Y-18.121
X14.5Y-30.8
X15.5Y-30.8
X16.005Y-21.95
X17.127Y-11.5
X17.235Y-22.375
X17.645Y-9.407
X18.325Y-17.25
X18.773Y-21.043
X19.311Y-18.19
X19.395Y-3.958
X20.092Y-15.247
X23.276Y-14.889
X23.304Y-15.695
X25.027Y-10.076
X25.599Y-21.447
X26.981Y-19.25
X27.006Y-17.665
X29.813Y-23.96
X33.541Y-9.737
X33.913Y-18.505
X34.613Y-14.962
X35.948Y-9.931
X36.098Y-8.882
X37.711Y-14.369
X37.729Y-21.915
X38.0Y-12.321
X38.25Y-8.907
X38.542Y-6.518
X40.278Y-20.437
X41.329Y-11.5
X41.5Y-30.8
X42.5Y-34.4
X43.5Y-30.8
X44.379Y-11.304
X44.5Y-30.8
X45.5Y-30.8
X46.164Y-9.449
X46.5Y-34.4
X47.5Y-30.8
X48.415Y-14.183
X48.5Y-34.4
X49.5Y-30.8
X50.5Y-34.4
X51.5Y-30.8
X52.155Y-11.5
X52.5Y-30.8
T2
X33.18Y-2.9G85X33.18Y-2.3
G05
X33.18Y-7.33G85X33.18Y-6.23
G05
X41.82Y-2.9G85X41.82Y-2.3
G05
X41.82Y-7.33G85X41.82Y-6.23
G05
M30
