%TF.GenerationSoftware,KiCad,Pcbnew,10.0.5*%
%TF.CreationDate,2026-09-13T20:07:39-04:00*%
%TF.ProjectId,Symm60HE-Neo-Centre-Family-Panel,53796d6d-3630-4484-952d-4e656f2d4365,rev?*%
%TF.SameCoordinates,Original*%
%TF.FileFunction,Paste,Top*%
%TF.FilePolarity,Positive*%
%FSLAX46Y46*%
G04 Gerber Fmt 4.6, Leading zero omitted, Abs format (unit mm)*
G04 Created by KiCad (PCBNEW 10.0.5) date 2026-09-13 20:07:39*
%MOMM*%
%LPD*%
G01*
G04 APERTURE LIST*
G04 Aperture macros list*
%AMRoundRect*
0 Rectangle with rounded corners*
0 $1 Rounding radius*
0 $2 $3 $4 $5 $6 $7 $8 $9 X,Y pos of 4 corners*
0 Add a 4 corners polygon primitive as box body*
4,1,4,$2,$3,$4,$5,$6,$7,$8,$9,$2,$3,0*
0 Add four circle primitives for the rounded corners*
1,1,$1+$1,$2,$3*
1,1,$1+$1,$4,$5*
1,1,$1+$1,$6,$7*
1,1,$1+$1,$8,$9*
0 Add four rect primitives between the rounded corners*
20,1,$1+$1,$2,$3,$4,$5,0*
20,1,$1+$1,$4,$5,$6,$7,0*
20,1,$1+$1,$6,$7,$8,$9,0*
20,1,$1+$1,$8,$9,$2,$3,0*%
G04 Aperture macros list end*
%ADD10RoundRect,0.225000X-0.225000X-0.250000X0.225000X-0.250000X0.225000X0.250000X-0.225000X0.250000X0*%
%ADD11RoundRect,0.135000X-0.135000X-0.185000X0.135000X-0.185000X0.135000X0.185000X-0.135000X0.185000X0*%
%ADD12RoundRect,0.150000X-0.512500X-0.150000X0.512500X-0.150000X0.512500X0.150000X-0.512500X0.150000X0*%
%ADD13RoundRect,0.150000X0.150000X0.575000X-0.150000X0.575000X-0.150000X-0.575000X0.150000X-0.575000X0*%
%ADD14RoundRect,0.075000X0.075000X0.650000X-0.075000X0.650000X-0.075000X-0.650000X0.075000X-0.650000X0*%
%ADD15RoundRect,0.150000X0.950000X-0.150000X0.950000X0.150000X-0.950000X0.150000X-0.950000X-0.150000X0*%
%ADD16RoundRect,0.360000X0.940000X-0.540000X0.940000X0.540000X-0.940000X0.540000X-0.940000X-0.540000X0*%
%ADD17RoundRect,0.243750X-0.243750X-0.456250X0.243750X-0.456250X0.243750X0.456250X-0.243750X0.456250X0*%
%ADD18RoundRect,0.250000X-0.450000X-0.350000X0.450000X-0.350000X0.450000X0.350000X-0.450000X0.350000X0*%
%ADD19R,1.000000X0.750000*%
%ADD20RoundRect,0.150000X-0.950000X0.150000X-0.950000X-0.150000X0.950000X-0.150000X0.950000X0.150000X0*%
%ADD21RoundRect,0.360000X-0.940000X0.540000X-0.940000X-0.540000X0.940000X-0.540000X0.940000X0.540000X0*%
%ADD22RoundRect,0.075000X-0.700000X-0.075000X0.700000X-0.075000X0.700000X0.075000X-0.700000X0.075000X0*%
%ADD23RoundRect,0.075000X-0.075000X-0.700000X0.075000X-0.700000X0.075000X0.700000X-0.075000X0.700000X0*%
%ADD24C,0.960000*%
G04 APERTURE END LIST*
D10*
%TO.C,CTL-C1*%
X46725000Y-7500000D03*
X48275000Y-7500000D03*
%TD*%
D11*
%TO.C,CTL-R3*%
X38990000Y-22000000D03*
X40010000Y-22000000D03*
%TD*%
%TO.C,CTL-R1*%
X35990000Y-14000000D03*
X37010000Y-14000000D03*
%TD*%
%TO.C,CTL-R2*%
X31990000Y-10000000D03*
X33010000Y-10000000D03*
%TD*%
D12*
%TO.C,CTL-U2*%
X36862500Y-9550000D03*
X36862500Y-10500000D03*
X36862500Y-11450000D03*
X39137500Y-11450000D03*
X39137500Y-10500000D03*
X39137500Y-9550000D03*
%TD*%
D13*
%TO.C,CTL-J1*%
X40750000Y-6695000D03*
X39950000Y-6695000D03*
D14*
X38750000Y-6695000D03*
X37750000Y-6695000D03*
X37250000Y-6695000D03*
X36250000Y-6695000D03*
D13*
X35050000Y-6695000D03*
X34250000Y-6695000D03*
X34250000Y-6695000D03*
X35050000Y-6695000D03*
D14*
X35750000Y-6695000D03*
X36750000Y-6695000D03*
X38250000Y-6695000D03*
X39250000Y-6695000D03*
D13*
X39950000Y-6695000D03*
X40750000Y-6695000D03*
%TD*%
D10*
%TO.C,CTL-C2*%
X45725000Y-20000000D03*
X47275000Y-20000000D03*
%TD*%
D15*
%TO.C,CTL-J3*%
X53100000Y-21500000D03*
X53100000Y-20500000D03*
X53100000Y-19500000D03*
X53100000Y-18500000D03*
X53100000Y-17500000D03*
X53100000Y-16500000D03*
X53100000Y-15500000D03*
X53100000Y-14500000D03*
X53100000Y-13500000D03*
X53100000Y-12500000D03*
X53100000Y-11500000D03*
X53100000Y-10500000D03*
D16*
X55300000Y-23800000D03*
X55300000Y-8200000D03*
%TD*%
D17*
%TO.C,CTL-F1*%
X44562500Y-4000000D03*
X46437500Y-4000000D03*
%TD*%
D18*
%TO.C,CTL-Y1*%
X14900000Y-15850000D03*
X17100000Y-15850000D03*
X17100000Y-14150000D03*
X14900000Y-14150000D03*
%TD*%
D12*
%TO.C,CTL-U4*%
X14862500Y-19050000D03*
X14862500Y-20950000D03*
X17137500Y-20000000D03*
%TD*%
D19*
%TO.C,CTL-SW1*%
X13000000Y-2125000D03*
X19000000Y-2125000D03*
X13000000Y-5875000D03*
X19000000Y-5875000D03*
%TD*%
D20*
%TO.C,CTL-J2*%
X3900000Y-10500000D03*
X3900000Y-11500000D03*
X3900000Y-12500000D03*
X3900000Y-13500000D03*
X3900000Y-14500000D03*
X3900000Y-15500000D03*
X3900000Y-16500000D03*
X3900000Y-17500000D03*
X3900000Y-18500000D03*
X3900000Y-19500000D03*
X3900000Y-20500000D03*
X3900000Y-21500000D03*
D21*
X1700000Y-8200000D03*
X1700000Y-23800000D03*
%TD*%
D12*
%TO.C,CTL-U3*%
X42862500Y-9550000D03*
X42862500Y-10500000D03*
X42862500Y-11450000D03*
X45137500Y-11450000D03*
X45137500Y-9550000D03*
%TD*%
D22*
%TO.C,CTL-U1*%
X21325000Y-12250000D03*
X21325000Y-12750000D03*
X21325000Y-13250000D03*
X21325000Y-13750000D03*
X21325000Y-14250000D03*
X21325000Y-14750000D03*
X21325000Y-15250000D03*
X21325000Y-15750000D03*
X21325000Y-16250000D03*
X21325000Y-16750000D03*
X21325000Y-17250000D03*
X21325000Y-17750000D03*
X21325000Y-18250000D03*
X21325000Y-18750000D03*
X21325000Y-19250000D03*
X21325000Y-19750000D03*
D23*
X23250000Y-21675000D03*
X23750000Y-21675000D03*
X24250000Y-21675000D03*
X24750000Y-21675000D03*
X25250000Y-21675000D03*
X25750000Y-21675000D03*
X26250000Y-21675000D03*
X26750000Y-21675000D03*
X27250000Y-21675000D03*
X27750000Y-21675000D03*
X28250000Y-21675000D03*
X28750000Y-21675000D03*
X29250000Y-21675000D03*
X29750000Y-21675000D03*
X30250000Y-21675000D03*
X30750000Y-21675000D03*
D22*
X32675000Y-19750000D03*
X32675000Y-19250000D03*
X32675000Y-18750000D03*
X32675000Y-18250000D03*
X32675000Y-17750000D03*
X32675000Y-17250000D03*
X32675000Y-16750000D03*
X32675000Y-16250000D03*
X32675000Y-15750000D03*
X32675000Y-15250000D03*
X32675000Y-14750000D03*
X32675000Y-14250000D03*
X32675000Y-13750000D03*
X32675000Y-13250000D03*
X32675000Y-12750000D03*
X32675000Y-12250000D03*
D23*
X30750000Y-10325000D03*
X30250000Y-10325000D03*
X29750000Y-10325000D03*
X29250000Y-10325000D03*
X28750000Y-10325000D03*
X28250000Y-10325000D03*
X27750000Y-10325000D03*
X27250000Y-10325000D03*
X26750000Y-10325000D03*
X26250000Y-10325000D03*
X25750000Y-10325000D03*
X25250000Y-10325000D03*
X24750000Y-10325000D03*
X24250000Y-10325000D03*
X23750000Y-10325000D03*
X23250000Y-10325000D03*
%TD*%
D19*
%TO.C,CTL-SW2*%
X9000000Y-8125000D03*
X15000000Y-8125000D03*
X9000000Y-11875000D03*
X15000000Y-11875000D03*
%TD*%
D24*
%TO.C,LS-PS1*%
X16985000Y-33000000D03*
X15715000Y-33000000D03*
X14445000Y-33000000D03*
X13175000Y-33000000D03*
X11905000Y-33000000D03*
X10635000Y-33000000D03*
X9365000Y-33000000D03*
X8095000Y-33000000D03*
X6825000Y-33000000D03*
X5555000Y-33000000D03*
X4285000Y-33000000D03*
X3015000Y-33000000D03*
%TD*%
%TO.C,RS-PS1*%
X40015000Y-33000000D03*
X41285000Y-33000000D03*
X42555000Y-33000000D03*
X43825000Y-33000000D03*
X45095000Y-33000000D03*
X46365000Y-33000000D03*
X47635000Y-33000000D03*
X48905000Y-33000000D03*
X50175000Y-33000000D03*
X51445000Y-33000000D03*
X52715000Y-33000000D03*
X53985000Y-33000000D03*
%TD*%
M02*
