M48
; DRILL file KiCad 10.0.5 date 2026-09-13T13:36:57
; FORMAT={-:-/ absolute / metric / decimal}
; #@! TF.CreationDate,2026-09-13T13:36:57-04:00
; #@! TF.GenerationSoftware,Kicad,Pcbnew,10.0.5
; #@! TF.FileFunction,NonPlated,1,2,NPTH
FMAT,2
METRIC
; #@! TA.AperFunction,NonPlated,NPTH,ComponentDrill
T1C0.500
; #@! TA.AperFunction,NonPlated,NPTH,ComponentDrill
T2C0.650
; #@! TA.AperFunction,NonPlated,NPTH,ComponentDrill
T3C2.000
; #@! TA.AperFunction,NonPlated,NPTH,ComponentDrill
T4C2.200
%
G90
G05
T1
X0.0Y-12.5
X0.0Y-13.25
X0.0Y-14.0
X0.0Y-14.75
X0.0Y-15.5
X0.0Y-31.5
X0.0Y-32.25
X0.0Y-33.0
X0.0Y-33.75
X0.0Y-34.5
X4.1Y-36.0
X4.85Y-36.0
X5.6Y-36.0
X6.35Y-36.0
X7.1Y-36.0
X12.9Y-36.0
X13.65Y-36.0
X13.89Y0.0
X14.4Y-36.0
X14.64Y0.0
X15.15Y-36.0
X15.39Y0.0
X15.9Y-36.0
X16.14Y0.0
X16.89Y0.0
X40.11Y0.0
X40.86Y0.0
X41.1Y-36.0
X41.61Y0.0
X41.85Y-36.0
X42.36Y0.0
X42.6Y-36.0
X43.11Y0.0
X43.35Y-36.0
X44.1Y-36.0
X49.9Y-36.0
X50.65Y-36.0
X51.4Y-36.0
X52.15Y-36.0
X52.9Y-36.0
X57.0Y-12.5
X57.0Y-13.25
X57.0Y-14.0
X57.0Y-14.75
X57.0Y-15.5
X57.0Y-31.5
X57.0Y-32.25
X57.0Y-33.0
X57.0Y-33.75
X57.0Y-34.5
T2
X34.61Y-6.25
X40.39Y-6.25
T3
X-5.7Y-7.52
X-5.7Y-28.48
X62.7Y-7.52
X62.7Y-28.48
T4
X4.5Y-4.0
X52.5Y-4.0
M30
