%TF.GenerationSoftware,KiCad,Pcbnew,10.0.5*%
%TF.CreationDate,2026-09-13T20:07:39-04:00*%
%TF.ProjectId,Symm60HE-Neo-Centre-Family-Panel,53796d6d-3630-4484-952d-4e656f2d4365,rev?*%
%TF.SameCoordinates,Original*%
%TF.FileFunction,Copper,L2,Bot*%
%TF.FilePolarity,Positive*%
%FSLAX46Y46*%
G04 Gerber Fmt 4.6, Leading zero omitted, Abs format (unit mm)*
G04 Created by KiCad (PCBNEW 10.0.5) date 2026-09-13 20:07:39*
%MOMM*%
%LPD*%
G01*
G04 APERTURE LIST*
G04 Aperture macros list*
%AMRoundRect*
0 Rectangle with rounded corners*
0 $1 Rounding radius*
0 $2 $3 $4 $5 $6 $7 $8 $9 X,Y pos of 4 corners*
0 Add a 4 corners polygon primitive as box body*
4,1,4,$2,$3,$4,$5,$6,$7,$8,$9,$2,$3,0*
0 Add four circle primitives for the rounded corners*
1,1,$1+$1,$2,$3*
1,1,$1+$1,$4,$5*
1,1,$1+$1,$6,$7*
1,1,$1+$1,$8,$9*
0 Add four rect primitives between the rounded corners*
20,1,$1+$1,$2,$3,$4,$5,0*
20,1,$1+$1,$4,$5,$6,$7,0*
20,1,$1+$1,$6,$7,$8,$9,0*
20,1,$1+$1,$8,$9,$2,$3,0*%
G04 Aperture macros list end*
%TA.AperFunction,ComponentPad*%
%ADD10O,1.000000X2.100000*%
%TD*%
%TA.AperFunction,ComponentPad*%
%ADD11O,1.000000X1.600000*%
%TD*%
%TA.AperFunction,SMDPad,CuDef*%
%ADD12RoundRect,0.140000X-0.140000X-0.170000X0.140000X-0.170000X0.140000X0.170000X-0.140000X0.170000X0*%
%TD*%
%TA.AperFunction,SMDPad,CuDef*%
%ADD13C,1.000000*%
%TD*%
%TA.AperFunction,SMDPad,CuDef*%
%ADD14RoundRect,0.225000X-0.225000X-0.250000X0.225000X-0.250000X0.225000X0.250000X-0.225000X0.250000X0*%
%TD*%
%TA.AperFunction,SMDPad,CuDef*%
%ADD15RoundRect,0.135000X0.185000X-0.135000X0.185000X0.135000X-0.185000X0.135000X-0.185000X-0.135000X0*%
%TD*%
%TA.AperFunction,SMDPad,CuDef*%
%ADD16RoundRect,0.150000X-0.150000X-0.950000X0.150000X-0.950000X0.150000X0.950000X-0.150000X0.950000X0*%
%TD*%
%TA.AperFunction,SMDPad,CuDef*%
%ADD17RoundRect,0.360000X-0.540000X-0.940000X0.540000X-0.940000X0.540000X0.940000X-0.540000X0.940000X0*%
%TD*%
%TA.AperFunction,ViaPad*%
%ADD18C,0.600000*%
%TD*%
%TA.AperFunction,Conductor*%
%ADD19C,0.200000*%
%TD*%
G04 APERTURE END LIST*
D10*
%TO.P,CTL-J1,SH*%
%TO.N,/CTL/GND*%
X41820000Y-5780000D03*
D11*
X41820000Y-1600000D03*
D10*
X33180000Y-5780000D03*
D11*
X33180000Y-1600000D03*
%TD*%
D12*
%TO.P,CTL-C4,1*%
%TO.N,/CTL/XTAL_OUT*%
X26820000Y-25800000D03*
%TO.P,CTL-C4,2*%
%TO.N,/CTL/GND*%
X27780000Y-25800000D03*
%TD*%
D13*
%TO.P,CTL-FIDB1,*%
%TO.N,*%
X9291000Y-3763300D03*
%TD*%
D12*
%TO.P,CTL-C11,1*%
%TO.N,/CTL/NRST*%
X28820000Y-25800000D03*
%TO.P,CTL-C11,2*%
%TO.N,/CTL/GND*%
X29780000Y-25800000D03*
%TD*%
D14*
%TO.P,CTL-C12,1*%
%TO.N,/CTL/VBUS*%
X47525000Y-9800000D03*
%TO.P,CTL-C12,2*%
%TO.N,/CTL/GND*%
X49075000Y-9800000D03*
%TD*%
%TO.P,CTL-C14,1*%
%TO.N,/CTL/+3V3D*%
X18525000Y-24800000D03*
%TO.P,CTL-C14,2*%
%TO.N,/CTL/GND*%
X20075000Y-24800000D03*
%TD*%
D12*
%TO.P,CTL-C7,1*%
%TO.N,/CTL/+3V3D*%
X21620000Y-9400000D03*
%TO.P,CTL-C7,2*%
%TO.N,/CTL/GND*%
X22580000Y-9400000D03*
%TD*%
D14*
%TO.P,CTL-C15,1*%
%TO.N,/CTL/+3V3A*%
X38525000Y-25800000D03*
%TO.P,CTL-C15,2*%
%TO.N,/CTL/GND*%
X40075000Y-25800000D03*
%TD*%
D13*
%TO.P,CTL-FIDB3,*%
%TO.N,*%
X54291000Y-25963300D03*
%TD*%
D14*
%TO.P,CTL-C13,1*%
%TO.N,/CTL/+3V3D*%
X45725000Y-7500000D03*
%TO.P,CTL-C13,2*%
%TO.N,/CTL/GND*%
X47275000Y-7500000D03*
%TD*%
D13*
%TO.P,CTL-FIDB2,*%
%TO.N,*%
X25291000Y-1763300D03*
%TD*%
D12*
%TO.P,CTL-C5,1*%
%TO.N,/CTL/+3V3D*%
X21820000Y-11400000D03*
%TO.P,CTL-C5,2*%
%TO.N,/CTL/GND*%
X22780000Y-11400000D03*
%TD*%
%TO.P,CTL-C3,1*%
%TO.N,/CTL/XTAL_IN*%
X24820000Y-25800000D03*
%TO.P,CTL-C3,2*%
%TO.N,/CTL/GND*%
X25780000Y-25800000D03*
%TD*%
D14*
%TO.P,CTL-C8,1*%
%TO.N,/CTL/+3V3D*%
X34025000Y-15800000D03*
%TO.P,CTL-C8,2*%
%TO.N,/CTL/GND*%
X35575000Y-15800000D03*
%TD*%
D12*
%TO.P,CTL-C6,1*%
%TO.N,/CTL/+3V3D*%
X33620000Y-18300000D03*
%TO.P,CTL-C6,2*%
%TO.N,/CTL/GND*%
X34580000Y-18300000D03*
%TD*%
D14*
%TO.P,CTL-C10,1*%
%TO.N,/CTL/+3V3A*%
X33025000Y-25800000D03*
%TO.P,CTL-C10,2*%
%TO.N,/CTL/GND*%
X34575000Y-25800000D03*
%TD*%
D12*
%TO.P,CTL-C9,1*%
%TO.N,/CTL/+3V3A*%
X30820000Y-25800000D03*
%TO.P,CTL-C9,2*%
%TO.N,/CTL/GND*%
X31780000Y-25800000D03*
%TD*%
D15*
%TO.P,CTL-R4,1*%
%TO.N,/CTL/BOOT0*%
X22100000Y-8510000D03*
%TO.P,CTL-R4,2*%
%TO.N,/CTL/GND*%
X22100000Y-7490000D03*
%TD*%
D16*
%TO.P,LS-JF1,1*%
%TO.N,/LS/+3V3A*%
X4500000Y-31900000D03*
%TO.P,LS-JF1,2*%
%TO.N,/LS/GND*%
X5500000Y-31900000D03*
%TO.P,LS-JF1,3*%
%TO.N,/LS/MUX_A0*%
X6500000Y-31900000D03*
%TO.P,LS-JF1,4*%
%TO.N,/LS/MUX_A1*%
X7500000Y-31900000D03*
%TO.P,LS-JF1,5*%
%TO.N,/LS/MUX_A2*%
X8500000Y-31900000D03*
%TO.P,LS-JF1,6*%
%TO.N,/LS/GND*%
X9500000Y-31900000D03*
%TO.P,LS-JF1,7*%
%TO.N,/LS/ADC_L1*%
X10500000Y-31900000D03*
%TO.P,LS-JF1,8*%
%TO.N,/LS/GND*%
X11500000Y-31900000D03*
%TO.P,LS-JF1,9*%
%TO.N,/LS/ADC_L2*%
X12500000Y-31900000D03*
%TO.P,LS-JF1,10*%
%TO.N,/LS/GND*%
X13500000Y-31900000D03*
%TO.P,LS-JF1,11*%
%TO.N,/LS/ADC_L3*%
X14500000Y-31900000D03*
%TO.P,LS-JF1,12*%
%TO.N,/LS/ADC_L4*%
X15500000Y-31900000D03*
D17*
%TO.P,LS-JF1,MP*%
%TO.N,N/C*%
X2200000Y-34100000D03*
X17800000Y-34100000D03*
%TD*%
D16*
%TO.P,RS-JF1,1*%
%TO.N,/RS/+3V3A*%
X41500000Y-31900000D03*
%TO.P,RS-JF1,2*%
%TO.N,/RS/GND*%
X42500000Y-31900000D03*
%TO.P,RS-JF1,3*%
%TO.N,/RS/MUX_A0*%
X43500000Y-31900000D03*
%TO.P,RS-JF1,4*%
%TO.N,/RS/MUX_A1*%
X44500000Y-31900000D03*
%TO.P,RS-JF1,5*%
%TO.N,/RS/MUX_A2*%
X45500000Y-31900000D03*
%TO.P,RS-JF1,6*%
%TO.N,/RS/GND*%
X46500000Y-31900000D03*
%TO.P,RS-JF1,7*%
%TO.N,/RS/ADC_R1*%
X47500000Y-31900000D03*
%TO.P,RS-JF1,8*%
%TO.N,/RS/GND*%
X48500000Y-31900000D03*
%TO.P,RS-JF1,9*%
%TO.N,/RS/ADC_R2*%
X49500000Y-31900000D03*
%TO.P,RS-JF1,10*%
%TO.N,/RS/GND*%
X50500000Y-31900000D03*
%TO.P,RS-JF1,11*%
%TO.N,/RS/ADC_R3*%
X51500000Y-31900000D03*
%TO.P,RS-JF1,12*%
%TO.N,/RS/ADC_R4*%
X52500000Y-31900000D03*
D17*
%TO.P,RS-JF1,MP*%
%TO.N,N/C*%
X39200000Y-34100000D03*
X54800000Y-34100000D03*
%TD*%
D13*
%TO.P,FIDB1,*%
%TO.N,*%
X-4350000Y4350000D03*
%TD*%
%TO.P,FIDB2,*%
%TO.N,*%
X61350000Y4350000D03*
%TD*%
%TO.P,FIDB3,*%
%TO.N,*%
X-4350000Y-40350000D03*
%TD*%
D18*
%TO.N,/CTL/VBUS*%
X46163700Y-8448800D03*
%TO.N,/CTL/GND*%
X41328900Y-10500000D03*
X29812700Y-22960000D03*
%TO.N,/CTL/CC2*%
X36097600Y-7882300D03*
X37729400Y-20915500D03*
%TO.N,/CTL/CC1*%
X33540800Y-8736700D03*
X38541600Y-5517500D03*
%TO.N,/CTL/USB_DP*%
X35947900Y-8931500D03*
X34612600Y-13962200D03*
%TO.N,/CTL/USB_DM*%
X38000000Y-11321100D03*
X37711200Y-13369300D03*
X38250000Y-7907400D03*
%TO.N,/CTL/+3V3D*%
X33913400Y-17504700D03*
X44379000Y-10303800D03*
X40278000Y-19437100D03*
X18772900Y-20043000D03*
%TO.N,/CTL/MUX_A2*%
X9743500Y-17500000D03*
X19311100Y-17189700D03*
%TO.N,/CTL/MUX_A1*%
X10196800Y-18130800D03*
X48415200Y-13182600D03*
X27006100Y-16665200D03*
%TO.N,/CTL/MUX_A0*%
X18325500Y-16250000D03*
X11355900Y-19077800D03*
%TO.N,/CTL/+3V3A*%
X26980800Y-18250000D03*
X52154600Y-10500000D03*
%TO.N,/CTL/XTAL_IN*%
X20092000Y-14247400D03*
%TO.N,/CTL/XTAL_OUT*%
X23304200Y-14695400D03*
%TO.N,/CTL/BOOT0*%
X25027500Y-9076100D03*
X19395500Y-2957900D03*
%TO.N,/CTL/ADC_L4*%
X25598800Y-20447400D03*
X17127000Y-10500000D03*
%TO.N,/CTL/ADC_L3*%
X5139900Y-11500000D03*
X16004700Y-20949500D03*
%TO.N,/CTL/ADC_L1*%
X14110600Y-17121400D03*
X17235000Y-21375100D03*
%TO.N,/CTL/NRST*%
X23276500Y-13889100D03*
X17644500Y-8407000D03*
%TO.N,/LS/+3V3A*%
X4500000Y-30800000D03*
%TO.N,/LS/GND*%
X5500000Y-34400000D03*
X11500000Y-34400000D03*
X9500000Y-34400000D03*
X13500000Y-34400000D03*
%TO.N,/LS/MUX_A0*%
X6500000Y-30800000D03*
%TO.N,/LS/MUX_A1*%
X7500000Y-30800000D03*
%TO.N,/LS/MUX_A2*%
X8500000Y-30800000D03*
%TO.N,/LS/ADC_L1*%
X10500000Y-30800000D03*
%TO.N,/LS/ADC_L2*%
X12500000Y-30800000D03*
%TO.N,/LS/ADC_L3*%
X14500000Y-30800000D03*
%TO.N,/LS/ADC_L4*%
X15500000Y-30800000D03*
%TO.N,/RS/+3V3A*%
X41500000Y-30800000D03*
%TO.N,/RS/GND*%
X46500000Y-34400000D03*
X48500000Y-34400000D03*
X50500000Y-34400000D03*
X42500000Y-34400000D03*
%TO.N,/RS/MUX_A0*%
X43500000Y-30800000D03*
%TO.N,/RS/MUX_A1*%
X44500000Y-30800000D03*
%TO.N,/RS/MUX_A2*%
X45500000Y-30800000D03*
%TO.N,/RS/ADC_R1*%
X47500000Y-30800000D03*
%TO.N,/RS/ADC_R2*%
X49500000Y-30800000D03*
%TO.N,/RS/ADC_R3*%
X51500000Y-30800000D03*
%TO.N,/RS/ADC_R4*%
X52500000Y-30800000D03*
%TD*%
%TO.N,/CTL/VBUS*%
D19*
X47525000Y-9800000D02*
X47514900Y-9800000D01*
X47514900Y-9800000D02*
X46163700Y-8448800D01*
%TO.N,/CTL/GND*%
X46495800Y-6720800D02*
X42563000Y-6720800D01*
X29780000Y-25800000D02*
X30440900Y-26460900D01*
X29780000Y-22992700D02*
X29812700Y-22960000D01*
X22744000Y-8134000D02*
X22100000Y-7490000D01*
X42563000Y-6720800D02*
X42152100Y-7131700D01*
X35575000Y-15800000D02*
X36210900Y-15800000D01*
X35368700Y-26593700D02*
X34575000Y-25800000D01*
X41820000Y-6528300D02*
X41820000Y-7131700D01*
X32202500Y-12427500D02*
X35575000Y-15800000D01*
X41820000Y-5780000D02*
X41820000Y-1600000D01*
X35575000Y-17305000D02*
X35575000Y-15800000D01*
X27780000Y-25800000D02*
X27167800Y-26412200D01*
X34580000Y-18300000D02*
X35575000Y-17305000D01*
X33180000Y-5780000D02*
X33180000Y-7131700D01*
X30440900Y-26460900D02*
X31119100Y-26460900D01*
X42152100Y-7131700D02*
X41820000Y-7131700D01*
X32202500Y-8109200D02*
X32202500Y-11400000D01*
X29154200Y-26425800D02*
X28405800Y-26425800D01*
X41441700Y-24433300D02*
X41441700Y-22072800D01*
X22580000Y-11200000D02*
X22780000Y-11400000D01*
X32600300Y-26620300D02*
X31780000Y-25800000D01*
X29780000Y-25800000D02*
X29154200Y-26425800D01*
X27167800Y-26412200D02*
X26392200Y-26412200D01*
X47275000Y-7500000D02*
X46495800Y-6720800D01*
X22580000Y-9400000D02*
X22744000Y-9236000D01*
X31119100Y-26460900D02*
X31780000Y-25800000D01*
X41328900Y-7019400D02*
X41328900Y-10500000D01*
X33180000Y-7131700D02*
X32202500Y-8109200D01*
X28405800Y-26425800D02*
X27780000Y-25800000D01*
X41820000Y-6528300D02*
X41328900Y-7019400D01*
X33180000Y-1600000D02*
X33180000Y-5780000D01*
X39281300Y-26593700D02*
X35368700Y-26593700D01*
X22780000Y-11400000D02*
X32202500Y-11400000D01*
X33754700Y-26620300D02*
X32600300Y-26620300D01*
X20075000Y-24800000D02*
X21722200Y-26447200D01*
X25132800Y-26447200D02*
X25780000Y-25800000D01*
X34575000Y-25800000D02*
X33754700Y-26620300D01*
X49075000Y-9300000D02*
X49075000Y-9800000D01*
X41820000Y-5780000D02*
X41820000Y-6528300D01*
X40075000Y-25800000D02*
X41441700Y-24433300D01*
X40075000Y-25800000D02*
X39281300Y-26593700D01*
X47275000Y-7500000D02*
X49075000Y-9300000D01*
X22580000Y-9400000D02*
X22580000Y-11200000D01*
X21722200Y-26447200D02*
X25132800Y-26447200D01*
X29780000Y-25800000D02*
X29780000Y-22992700D01*
X32202500Y-11400000D02*
X32202500Y-12427500D01*
X36210900Y-15800000D02*
X36965900Y-15045000D01*
X22744000Y-9236000D02*
X22744000Y-8134000D01*
X26392200Y-26412200D02*
X25780000Y-25800000D01*
%TO.N,/CTL/CC2*%
X37729400Y-14957600D02*
X37729400Y-20915500D01*
X37159400Y-14387600D02*
X37729400Y-14957600D01*
X36097600Y-7882300D02*
X37159400Y-8944100D01*
X37159400Y-8944100D02*
X37159400Y-14387600D01*
%TO.N,/CTL/CC1*%
X33540800Y-8736700D02*
X36760000Y-5517500D01*
X36760000Y-5517500D02*
X38541600Y-5517500D01*
%TO.N,/CTL/USB_DP*%
X35947900Y-12626900D02*
X35947900Y-8931500D01*
X34612600Y-13962200D02*
X35947900Y-12626900D01*
%TO.N,/CTL/USB_DM*%
X38000000Y-11321100D02*
X38000000Y-13080500D01*
X38250000Y-7907400D02*
X38250000Y-11071100D01*
X38250000Y-11071100D02*
X38000000Y-11321100D01*
X38000000Y-13080500D02*
X37711200Y-13369300D01*
%TO.N,/CTL/+3V3D*%
X33918600Y-17499500D02*
X33918600Y-15906400D01*
X21620000Y-9400000D02*
X21620000Y-11200000D01*
X33913400Y-18006600D02*
X33913400Y-17504700D01*
X40278000Y-19437100D02*
X38247700Y-21467400D01*
X38247700Y-21467400D02*
X36787400Y-21467400D01*
X44379000Y-15336100D02*
X40278000Y-19437100D01*
X18772900Y-24552100D02*
X18772900Y-20043000D01*
X33913400Y-17504700D02*
X33918600Y-17499500D01*
X34025000Y-15800000D02*
X33918600Y-15906400D01*
X36787400Y-21467400D02*
X33620000Y-18300000D01*
X44379000Y-10303800D02*
X44379000Y-15336100D01*
X22561600Y-12141600D02*
X30153800Y-12141600D01*
X21620000Y-11200000D02*
X21820000Y-11400000D01*
X33620000Y-18300000D02*
X33913400Y-18006600D01*
X30153800Y-12141600D02*
X33918600Y-15906400D01*
X21820000Y-11400000D02*
X22561600Y-12141600D01*
X44379000Y-10303800D02*
X44379000Y-8846000D01*
X18525000Y-24800000D02*
X18772900Y-24552100D01*
X44379000Y-8846000D02*
X45725000Y-7500000D01*
%TO.N,/CTL/MUX_A2*%
X19311100Y-16374200D02*
X18604500Y-15667600D01*
X19311100Y-17189700D02*
X19311100Y-16374200D01*
X18604500Y-15667600D02*
X11575900Y-15667600D01*
X11575900Y-15667600D02*
X9743500Y-17500000D01*
%TO.N,/CTL/MUX_A1*%
X48415200Y-13182600D02*
X39748300Y-21849500D01*
X23110600Y-12769700D02*
X27006100Y-16665200D01*
X20769300Y-11234400D02*
X22304600Y-12769700D01*
X20769300Y-10739100D02*
X20769300Y-11234400D01*
X32190400Y-21849500D02*
X27006100Y-16665200D01*
X9189400Y-17795000D02*
X9189400Y-16081200D01*
X10196800Y-18130800D02*
X10196800Y-18130700D01*
X39748300Y-21849500D02*
X32190400Y-21849500D01*
X17874500Y-7844300D02*
X20769300Y-10739100D01*
X22304600Y-12769700D02*
X23110600Y-12769700D01*
X10196800Y-18130700D02*
X9525100Y-18130700D01*
X9525100Y-18130700D02*
X9189400Y-17795000D01*
X9189400Y-16081200D02*
X17426300Y-7844300D01*
X17426300Y-7844300D02*
X17874500Y-7844300D01*
%TO.N,/CTL/MUX_A0*%
X14183700Y-16250000D02*
X18325500Y-16250000D01*
X11355900Y-19077800D02*
X14183700Y-16250000D01*
%TO.N,/CTL/+3V3A*%
X38525000Y-24129600D02*
X52154600Y-10500000D01*
X32370500Y-25145500D02*
X31474500Y-25145500D01*
X33815800Y-25009200D02*
X33025000Y-25800000D01*
X33025000Y-25800000D02*
X32370500Y-25145500D01*
X38525000Y-25009200D02*
X38525000Y-24129600D01*
X31474500Y-25145500D02*
X31474500Y-22743700D01*
X38525000Y-25009200D02*
X33815800Y-25009200D01*
X38525000Y-25800000D02*
X38525000Y-25009200D01*
X31474500Y-22743700D02*
X26980800Y-18250000D01*
X31474500Y-25145500D02*
X30820000Y-25800000D01*
%TO.N,/CTL/XTAL_IN*%
X20092000Y-14247400D02*
X20092000Y-21072000D01*
X20092000Y-21072000D02*
X24820000Y-25800000D01*
%TO.N,/CTL/XTAL_OUT*%
X23304200Y-16973200D02*
X23304200Y-14695400D01*
X26820000Y-20489000D02*
X23304200Y-16973200D01*
X26820000Y-25800000D02*
X26820000Y-20489000D01*
%TO.N,/CTL/BOOT0*%
X21469200Y-6867300D02*
X22818700Y-6867300D01*
X21469200Y-6867300D02*
X21469200Y-5031600D01*
X21469200Y-7879200D02*
X21469200Y-6867300D01*
X21469200Y-5031600D02*
X19395500Y-2957900D01*
X22100000Y-8510000D02*
X21469200Y-7879200D01*
X22818700Y-6867300D02*
X25027500Y-9076100D01*
%TO.N,/CTL/ADC_L4*%
X20698900Y-14071900D02*
X20698900Y-15547500D01*
X20698900Y-15547500D02*
X25598800Y-20447400D01*
X17127000Y-10500000D02*
X20698900Y-14071900D01*
%TO.N,/CTL/ADC_L3*%
X5139900Y-14242800D02*
X11846600Y-20949500D01*
X5139900Y-11500000D02*
X5139900Y-14242800D01*
X11846600Y-20949500D02*
X16004700Y-20949500D01*
%TO.N,/CTL/ADC_L1*%
X17235000Y-21375100D02*
X14110600Y-18250700D01*
X14110600Y-18250700D02*
X14110600Y-17121400D01*
%TO.N,/CTL/NRST*%
X22916800Y-13889100D02*
X17644500Y-8616800D01*
X17644500Y-8616800D02*
X17644500Y-8407000D01*
X28820000Y-21991700D02*
X23910300Y-17082000D01*
X23309300Y-13889100D02*
X23276500Y-13889100D01*
X28820000Y-25800000D02*
X28820000Y-21991700D01*
X23276500Y-13889100D02*
X22916800Y-13889100D01*
X23910300Y-17082000D02*
X23910300Y-14490100D01*
X23910300Y-14490100D02*
X23309300Y-13889100D01*
%TO.N,/LS/+3V3A*%
X4500000Y-30800000D02*
X4500000Y-31900000D01*
%TO.N,/LS/GND*%
X11500000Y-34400000D02*
X11500000Y-31900000D01*
X5500000Y-34400000D02*
X5500000Y-31900000D01*
X13500000Y-34400000D02*
X13500000Y-31900000D01*
X9500000Y-34400000D02*
X9500000Y-31900000D01*
%TO.N,/LS/MUX_A0*%
X6500000Y-30800000D02*
X6500000Y-31900000D01*
%TO.N,/LS/MUX_A1*%
X7500000Y-30800000D02*
X7500000Y-31900000D01*
%TO.N,/LS/MUX_A2*%
X8500000Y-30800000D02*
X8500000Y-31900000D01*
%TO.N,/LS/ADC_L1*%
X10500000Y-30800000D02*
X10500000Y-31900000D01*
%TO.N,/LS/ADC_L2*%
X12500000Y-30800000D02*
X12500000Y-31900000D01*
%TO.N,/LS/ADC_L3*%
X14500000Y-30800000D02*
X14500000Y-31900000D01*
%TO.N,/LS/ADC_L4*%
X15500000Y-30800000D02*
X15500000Y-31900000D01*
%TO.N,/RS/+3V3A*%
X41500000Y-30800000D02*
X41500000Y-31900000D01*
%TO.N,/RS/GND*%
X48500000Y-34400000D02*
X48500000Y-31900000D01*
X46500000Y-34400000D02*
X46500000Y-31900000D01*
X42500000Y-34400000D02*
X42500000Y-31900000D01*
X50500000Y-34400000D02*
X50500000Y-31900000D01*
%TO.N,/RS/MUX_A0*%
X43500000Y-30800000D02*
X43500000Y-31900000D01*
%TO.N,/RS/MUX_A1*%
X44500000Y-30800000D02*
X44500000Y-31900000D01*
%TO.N,/RS/MUX_A2*%
X45500000Y-30800000D02*
X45500000Y-31900000D01*
%TO.N,/RS/ADC_R1*%
X47500000Y-30800000D02*
X47500000Y-31900000D01*
%TO.N,/RS/ADC_R2*%
X49500000Y-30800000D02*
X49500000Y-31900000D01*
%TO.N,/RS/ADC_R3*%
X51500000Y-30800000D02*
X51500000Y-31900000D01*
%TO.N,/RS/ADC_R4*%
X52500000Y-30800000D02*
X52500000Y-31900000D01*
%TD*%
%TA.AperFunction,Conductor*%
%TO.N,/CTL/GND*%
G36*
X17598691Y681093D02*
G01*
X17634655Y631593D01*
X17639500Y601000D01*
X17639500Y-49828D01*
X17677634Y-141894D01*
X17677635Y-141895D01*
X17677636Y-141897D01*
X17748103Y-212364D01*
X17748104Y-212364D01*
X17748105Y-212365D01*
X17840171Y-250500D01*
X17840172Y-250500D01*
X39159829Y-250500D01*
X39217885Y-226451D01*
X39251897Y-212364D01*
X39322364Y-141897D01*
X39360500Y-49828D01*
X39360500Y65892D01*
X39609500Y65892D01*
X39609500Y-65892D01*
X39629865Y-141897D01*
X39643609Y-193190D01*
X39709496Y-307309D01*
X39709498Y-307311D01*
X39709500Y-307314D01*
X39802686Y-400500D01*
X39802688Y-400501D01*
X39802690Y-400503D01*
X39916810Y-466390D01*
X39916808Y-466390D01*
X39916812Y-466391D01*
X39916814Y-466392D01*
X40044108Y-500500D01*
X40044110Y-500500D01*
X40175890Y-500500D01*
X40175892Y-500500D01*
X40303186Y-466392D01*
X40303188Y-466390D01*
X40303190Y-466390D01*
X40417309Y-400503D01*
X40417309Y-400502D01*
X40417314Y-400500D01*
X40417317Y-400496D01*
X40422460Y-396551D01*
X40423818Y-398321D01*
X40469513Y-375040D01*
X40529945Y-384611D01*
X40547124Y-397092D01*
X40547540Y-396551D01*
X40552690Y-400503D01*
X40666810Y-466390D01*
X40666808Y-466390D01*
X40666812Y-466391D01*
X40666814Y-466392D01*
X40794108Y-500500D01*
X40794110Y-500500D01*
X40925890Y-500500D01*
X40925892Y-500500D01*
X41053186Y-466392D01*
X41053188Y-466390D01*
X41053190Y-466390D01*
X41167309Y-400503D01*
X41167309Y-400502D01*
X41167314Y-400500D01*
X41167317Y-400496D01*
X41172460Y-396551D01*
X41173818Y-398321D01*
X41219513Y-375040D01*
X41279945Y-384611D01*
X41297124Y-397092D01*
X41297540Y-396551D01*
X41302690Y-400503D01*
X41416810Y-466390D01*
X41416808Y-466390D01*
X41416812Y-466391D01*
X41416814Y-466392D01*
X41544108Y-500500D01*
X41544110Y-500500D01*
X41675890Y-500500D01*
X41675892Y-500500D01*
X41803186Y-466392D01*
X41803188Y-466390D01*
X41803190Y-466390D01*
X41917309Y-400503D01*
X41917309Y-400502D01*
X41917314Y-400500D01*
X41917317Y-400496D01*
X41922460Y-396551D01*
X41923818Y-398321D01*
X41969513Y-375040D01*
X42029945Y-384611D01*
X42047124Y-397092D01*
X42047540Y-396551D01*
X42052690Y-400503D01*
X42166810Y-466390D01*
X42166808Y-466390D01*
X42166812Y-466391D01*
X42166814Y-466392D01*
X42294108Y-500500D01*
X42294110Y-500500D01*
X42425890Y-500500D01*
X42425892Y-500500D01*
X42553186Y-466392D01*
X42553188Y-466390D01*
X42553190Y-466390D01*
X42667309Y-400503D01*
X42667309Y-400502D01*
X42667314Y-400500D01*
X42667317Y-400496D01*
X42672460Y-396551D01*
X42673818Y-398321D01*
X42719513Y-375040D01*
X42779945Y-384611D01*
X42797124Y-397092D01*
X42797540Y-396551D01*
X42802690Y-400503D01*
X42916810Y-466390D01*
X42916808Y-466390D01*
X42916812Y-466391D01*
X42916814Y-466392D01*
X43044108Y-500500D01*
X43044110Y-500500D01*
X43175890Y-500500D01*
X43175892Y-500500D01*
X43303186Y-466392D01*
X43303188Y-466390D01*
X43303190Y-466390D01*
X43417309Y-400503D01*
X43417309Y-400502D01*
X43417314Y-400500D01*
X43510500Y-307314D01*
X43532386Y-269407D01*
X43576390Y-193190D01*
X43576390Y-193188D01*
X43576392Y-193186D01*
X43610500Y-65892D01*
X43610500Y65892D01*
X43576392Y193186D01*
X43567315Y208907D01*
X43510503Y307309D01*
X43510502Y307309D01*
X43510500Y307314D01*
X43417314Y400500D01*
X43303189Y466390D01*
X43303188Y466390D01*
X43303186Y466392D01*
X43175892Y500500D01*
X43044108Y500500D01*
X42916814Y466392D01*
X42916811Y466390D01*
X42916809Y466390D01*
X42802690Y400503D01*
X42797540Y396551D01*
X42796181Y398321D01*
X42750487Y375040D01*
X42690055Y384611D01*
X42672875Y397092D01*
X42672460Y396551D01*
X42667317Y400496D01*
X42667314Y400500D01*
X42553189Y466390D01*
X42553188Y466390D01*
X42553186Y466392D01*
X42425892Y500500D01*
X42294108Y500500D01*
X42166814Y466392D01*
X42166811Y466390D01*
X42166809Y466390D01*
X42052690Y400503D01*
X42047540Y396551D01*
X42046181Y398321D01*
X42000487Y375040D01*
X41940055Y384611D01*
X41922875Y397092D01*
X41922460Y396551D01*
X41917317Y400496D01*
X41917314Y400500D01*
X41803189Y466390D01*
X41803188Y466390D01*
X41803186Y466392D01*
X41675892Y500500D01*
X41544108Y500500D01*
X41416814Y466392D01*
X41416811Y466390D01*
X41416809Y466390D01*
X41302690Y400503D01*
X41297540Y396551D01*
X41296181Y398321D01*
X41250487Y375040D01*
X41190055Y384611D01*
X41172875Y397092D01*
X41172460Y396551D01*
X41167317Y400496D01*
X41167314Y400500D01*
X41053189Y466390D01*
X41053188Y466390D01*
X41053186Y466392D01*
X40925892Y500500D01*
X40794108Y500500D01*
X40666814Y466392D01*
X40666811Y466390D01*
X40666809Y466390D01*
X40552690Y400503D01*
X40547540Y396551D01*
X40546181Y398321D01*
X40500487Y375040D01*
X40440055Y384611D01*
X40422875Y397092D01*
X40422460Y396551D01*
X40417317Y400496D01*
X40417314Y400500D01*
X40303189Y466390D01*
X40303188Y466390D01*
X40303186Y466392D01*
X40175892Y500500D01*
X40044108Y500500D01*
X39916814Y466392D01*
X39916811Y466390D01*
X39916809Y466390D01*
X39802690Y400503D01*
X39802688Y400501D01*
X39802686Y400500D01*
X39709500Y307314D01*
X39709498Y307311D01*
X39709496Y307309D01*
X39643609Y193190D01*
X39643608Y193186D01*
X39609500Y65892D01*
X39360500Y65892D01*
X39360500Y601000D01*
X39379407Y659191D01*
X39428907Y695155D01*
X39459500Y700000D01*
X43760500Y700000D01*
X43818691Y681093D01*
X43854655Y631593D01*
X43859500Y601000D01*
X43859500Y-49828D01*
X43897634Y-141894D01*
X43897635Y-141895D01*
X43897636Y-141897D01*
X43968103Y-212364D01*
X43968104Y-212364D01*
X43968105Y-212365D01*
X44060171Y-250500D01*
X44060172Y-250500D01*
X44159828Y-250500D01*
X55601000Y-250500D01*
X55659191Y-269407D01*
X55695155Y-318907D01*
X55700000Y-349500D01*
X55700000Y-25990189D01*
X55699883Y-25995004D01*
X55696538Y-26063698D01*
X55695578Y-26073449D01*
X55686913Y-26131702D01*
X55685017Y-26141215D01*
X55670676Y-26198406D01*
X55667869Y-26207661D01*
X55648049Y-26263089D01*
X55644308Y-26272117D01*
X55619071Y-26325424D01*
X55614509Y-26333955D01*
X55584210Y-26384510D01*
X55578787Y-26392623D01*
X55552440Y-26428118D01*
X55502575Y-26463574D01*
X55441393Y-26462949D01*
X55392263Y-26426481D01*
X55373951Y-26368100D01*
X55378790Y-26338524D01*
X55413171Y-26232709D01*
X55422218Y-26175590D01*
X55441500Y-26053849D01*
X55441500Y-25872750D01*
X55413171Y-25693893D01*
X55413171Y-25693891D01*
X55357211Y-25521661D01*
X55274996Y-25360306D01*
X55168553Y-25213799D01*
X55040501Y-25085747D01*
X54893994Y-24979304D01*
X54893993Y-24979303D01*
X54893991Y-24979302D01*
X54732637Y-24897088D01*
X54560406Y-24841128D01*
X54381549Y-24812800D01*
X54381546Y-24812800D01*
X54200454Y-24812800D01*
X54200451Y-24812800D01*
X54021593Y-24841128D01*
X53849362Y-24897088D01*
X53688008Y-24979302D01*
X53625799Y-25024500D01*
X53541499Y-25085747D01*
X53413447Y-25213799D01*
X53369143Y-25274778D01*
X53307002Y-25360308D01*
X53224788Y-25521662D01*
X53168828Y-25693893D01*
X53140500Y-25872750D01*
X53140500Y-26053849D01*
X53168828Y-26232706D01*
X53220787Y-26392624D01*
X53224789Y-26404939D01*
X53295479Y-26543676D01*
X53301787Y-26556055D01*
X53311358Y-26616487D01*
X53283581Y-26671003D01*
X53229064Y-26698781D01*
X53213577Y-26700000D01*
X39054331Y-26700000D01*
X38996140Y-26681093D01*
X38960176Y-26631593D01*
X38960176Y-26570407D01*
X38996140Y-26520907D01*
X39005810Y-26514706D01*
X39009969Y-26512367D01*
X39009970Y-26512365D01*
X39009975Y-26512364D01*
X39125078Y-26425078D01*
X39212364Y-26309975D01*
X39265359Y-26175590D01*
X39275500Y-26091144D01*
X39275500Y-25508856D01*
X39265359Y-25424410D01*
X39212364Y-25290025D01*
X39125078Y-25174922D01*
X39009975Y-25087636D01*
X39009972Y-25087634D01*
X39009971Y-25087634D01*
X38988181Y-25079041D01*
X38940984Y-25040105D01*
X38925500Y-24986944D01*
X38925500Y-24336501D01*
X38944407Y-24278310D01*
X38954496Y-24266497D01*
X52091497Y-11129496D01*
X52146014Y-11101719D01*
X52161501Y-11100500D01*
X52233655Y-11100500D01*
X52233657Y-11100500D01*
X52386384Y-11059577D01*
X52523316Y-10980520D01*
X52635120Y-10868716D01*
X52714177Y-10731784D01*
X52755100Y-10579057D01*
X52755100Y-10420943D01*
X52714177Y-10268216D01*
X52635120Y-10131284D01*
X52523316Y-10019480D01*
X52386384Y-9940423D01*
X52233657Y-9899500D01*
X52075543Y-9899500D01*
X51922816Y-9940423D01*
X51785884Y-10019480D01*
X51674080Y-10131284D01*
X51595023Y-10268216D01*
X51554723Y-10418620D01*
X51554100Y-10420944D01*
X51554100Y-10493098D01*
X51535193Y-10551289D01*
X51525104Y-10563102D01*
X49125527Y-12962678D01*
X49071010Y-12990455D01*
X49010578Y-12980884D01*
X48969788Y-12942175D01*
X48895720Y-12813884D01*
X48783916Y-12702080D01*
X48646984Y-12623023D01*
X48494257Y-12582100D01*
X48336143Y-12582100D01*
X48183416Y-12623023D01*
X48046484Y-12702080D01*
X47934680Y-12813884D01*
X47855623Y-12950816D01*
X47835003Y-13027773D01*
X47814700Y-13103544D01*
X47814700Y-13175699D01*
X47795793Y-13233890D01*
X47785704Y-13245703D01*
X39611403Y-21420004D01*
X39556886Y-21447781D01*
X39541399Y-21449000D01*
X39071501Y-21449000D01*
X39013310Y-21430093D01*
X38977346Y-21380593D01*
X38977346Y-21319407D01*
X39001497Y-21279996D01*
X40214897Y-20066596D01*
X40269414Y-20038819D01*
X40284901Y-20037600D01*
X40357055Y-20037600D01*
X40357057Y-20037600D01*
X40509784Y-19996677D01*
X40646716Y-19917620D01*
X40758520Y-19805816D01*
X40837577Y-19668884D01*
X40878500Y-19516157D01*
X40878500Y-19444000D01*
X40897407Y-19385809D01*
X40907490Y-19374002D01*
X44699480Y-15582013D01*
X44741718Y-15508856D01*
X44752205Y-15490692D01*
X44752205Y-15490690D01*
X44752207Y-15490688D01*
X44779500Y-15388827D01*
X44779500Y-15283373D01*
X44779500Y-10793543D01*
X44798407Y-10735352D01*
X44808490Y-10723545D01*
X44859520Y-10672516D01*
X44938577Y-10535584D01*
X44979500Y-10382857D01*
X44979500Y-10224743D01*
X44938577Y-10072016D01*
X44859520Y-9935084D01*
X44841443Y-9917007D01*
X44808496Y-9884059D01*
X44780719Y-9829542D01*
X44779500Y-9814056D01*
X44779500Y-9052901D01*
X44798407Y-8994710D01*
X44808496Y-8982897D01*
X45394196Y-8397197D01*
X45448713Y-8369420D01*
X45509145Y-8378991D01*
X45552410Y-8422256D01*
X45563200Y-8467201D01*
X45563200Y-8527857D01*
X45604123Y-8680584D01*
X45683180Y-8817516D01*
X45794984Y-8929320D01*
X45931916Y-9008377D01*
X46084643Y-9049300D01*
X46156799Y-9049300D01*
X46214990Y-9068207D01*
X46226803Y-9078296D01*
X46745504Y-9596997D01*
X46773281Y-9651514D01*
X46774500Y-9667001D01*
X46774500Y-10091148D01*
X46784641Y-10175591D01*
X46837634Y-10309972D01*
X46837635Y-10309974D01*
X46837636Y-10309975D01*
X46924922Y-10425078D01*
X47040025Y-10512364D01*
X47040026Y-10512364D01*
X47040027Y-10512365D01*
X47095161Y-10534107D01*
X47174410Y-10565359D01*
X47258856Y-10575500D01*
X47258858Y-10575500D01*
X47791142Y-10575500D01*
X47791144Y-10575500D01*
X47875590Y-10565359D01*
X48009975Y-10512364D01*
X48125078Y-10425078D01*
X48212364Y-10309975D01*
X48265359Y-10175590D01*
X48275500Y-10091144D01*
X48275500Y-9508856D01*
X48265359Y-9424410D01*
X48216383Y-9300216D01*
X48212365Y-9290027D01*
X48212364Y-9290026D01*
X48212364Y-9290025D01*
X48125078Y-9174922D01*
X48009975Y-9087636D01*
X48009974Y-9087635D01*
X48009972Y-9087634D01*
X47875591Y-9034641D01*
X47791148Y-9024500D01*
X47791144Y-9024500D01*
X47346801Y-9024500D01*
X47288610Y-9005593D01*
X47276797Y-8995504D01*
X46793196Y-8511903D01*
X46765419Y-8457386D01*
X46764200Y-8441899D01*
X46764200Y-8369744D01*
X46764113Y-8369420D01*
X46723277Y-8217016D01*
X46644220Y-8080084D01*
X46532416Y-7968280D01*
X46515880Y-7958733D01*
X46474939Y-7913263D01*
X46467087Y-7861195D01*
X46475500Y-7791144D01*
X46475500Y-7208856D01*
X46465359Y-7124410D01*
X46412364Y-6990025D01*
X46325078Y-6874922D01*
X46209975Y-6787636D01*
X46209974Y-6787635D01*
X46209972Y-6787634D01*
X46075591Y-6734641D01*
X45991148Y-6724500D01*
X45991144Y-6724500D01*
X45458856Y-6724500D01*
X45458851Y-6724500D01*
X45374408Y-6734641D01*
X45240027Y-6787634D01*
X45124922Y-6874922D01*
X45037634Y-6990027D01*
X44984641Y-7124408D01*
X44974500Y-7208851D01*
X44974500Y-7643099D01*
X44955593Y-7701290D01*
X44945504Y-7713103D01*
X44058516Y-8600091D01*
X44005794Y-8691408D01*
X44005792Y-8691412D01*
X43999308Y-8715609D01*
X43999309Y-8715610D01*
X43978500Y-8793273D01*
X43978500Y-9814056D01*
X43959593Y-9872247D01*
X43949504Y-9884059D01*
X43898482Y-9935081D01*
X43898480Y-9935083D01*
X43898480Y-9935084D01*
X43819423Y-10072016D01*
X43778500Y-10224743D01*
X43778500Y-10382857D01*
X43819423Y-10535584D01*
X43898480Y-10672516D01*
X43949505Y-10723541D01*
X43977281Y-10778056D01*
X43978500Y-10793543D01*
X43978500Y-15129199D01*
X43959593Y-15187390D01*
X43949504Y-15199203D01*
X40341103Y-18807604D01*
X40286586Y-18835381D01*
X40271099Y-18836600D01*
X40198943Y-18836600D01*
X40075487Y-18869680D01*
X40046216Y-18877523D01*
X39909284Y-18956580D01*
X39797480Y-19068384D01*
X39718423Y-19205316D01*
X39677500Y-19358044D01*
X39677500Y-19430198D01*
X39658593Y-19488389D01*
X39648504Y-19500202D01*
X38444632Y-20704073D01*
X38390115Y-20731850D01*
X38329683Y-20722279D01*
X38288893Y-20683571D01*
X38209920Y-20546784D01*
X38189591Y-20526455D01*
X38158896Y-20495759D01*
X38131119Y-20441242D01*
X38129900Y-20425756D01*
X38129900Y-15018314D01*
X38129901Y-15018301D01*
X38129901Y-14904872D01*
X38129900Y-14904870D01*
X38102607Y-14803013D01*
X38078239Y-14760807D01*
X38078238Y-14760806D01*
X38049880Y-14711687D01*
X37975313Y-14637120D01*
X37975310Y-14637118D01*
X37971855Y-14633662D01*
X37971849Y-14633657D01*
X37588896Y-14250703D01*
X37561119Y-14196187D01*
X37559900Y-14180700D01*
X37559900Y-14068800D01*
X37578807Y-14010609D01*
X37628307Y-13974645D01*
X37658900Y-13969800D01*
X37790255Y-13969800D01*
X37790257Y-13969800D01*
X37942984Y-13928877D01*
X38079916Y-13849820D01*
X38191720Y-13738016D01*
X38270777Y-13601084D01*
X38311700Y-13448357D01*
X38311700Y-13368147D01*
X38324964Y-13318646D01*
X38373207Y-13235088D01*
X38400500Y-13133227D01*
X38400500Y-13027773D01*
X38400500Y-11810843D01*
X38419407Y-11752652D01*
X38429490Y-11740845D01*
X38480520Y-11689816D01*
X38559577Y-11552884D01*
X38600500Y-11400157D01*
X38600500Y-11291543D01*
X38613765Y-11242041D01*
X38623205Y-11225690D01*
X38623204Y-11225690D01*
X38623207Y-11225687D01*
X38650500Y-11123827D01*
X38650500Y-8397143D01*
X38669407Y-8338952D01*
X38679490Y-8327145D01*
X38730520Y-8276116D01*
X38809577Y-8139184D01*
X38850500Y-7986457D01*
X38850500Y-7828343D01*
X38809577Y-7675616D01*
X38730520Y-7538684D01*
X38618716Y-7426880D01*
X38481784Y-7347823D01*
X38329057Y-7306900D01*
X38170943Y-7306900D01*
X38018216Y-7347823D01*
X37881284Y-7426880D01*
X37769480Y-7538684D01*
X37690423Y-7675616D01*
X37649500Y-7828343D01*
X37649500Y-7986457D01*
X37690423Y-8139184D01*
X37769480Y-8276116D01*
X37820505Y-8327141D01*
X37848281Y-8381656D01*
X37849500Y-8397143D01*
X37849500Y-10663777D01*
X37830593Y-10721968D01*
X37781093Y-10757932D01*
X37776128Y-10759402D01*
X37768221Y-10761521D01*
X37768218Y-10761522D01*
X37768216Y-10761522D01*
X37768216Y-10761523D01*
X37708398Y-10796058D01*
X37648551Y-10808779D01*
X37592656Y-10783892D01*
X37562063Y-10730904D01*
X37559900Y-10710321D01*
X37559900Y-8891374D01*
X37559900Y-8891373D01*
X37543584Y-8830480D01*
X37543584Y-8830479D01*
X37543584Y-8830478D01*
X37533908Y-8794367D01*
X37532607Y-8789512D01*
X37532600Y-8789500D01*
X37479883Y-8698191D01*
X37479882Y-8698190D01*
X37479881Y-8698189D01*
X37479880Y-8698187D01*
X36727096Y-7945403D01*
X36699319Y-7890886D01*
X36698100Y-7875399D01*
X36698100Y-7803244D01*
X36698100Y-7803243D01*
X36657177Y-7650516D01*
X36578120Y-7513584D01*
X36466316Y-7401780D01*
X36329384Y-7322723D01*
X36176657Y-7281800D01*
X36018543Y-7281800D01*
X35865816Y-7322723D01*
X35728884Y-7401780D01*
X35617080Y-7513584D01*
X35538023Y-7650516D01*
X35497100Y-7803243D01*
X35497100Y-7961357D01*
X35538023Y-8114084D01*
X35617080Y-8251016D01*
X35638752Y-8272688D01*
X35666528Y-8327203D01*
X35656957Y-8387635D01*
X35618248Y-8428426D01*
X35579185Y-8450979D01*
X35579184Y-8450980D01*
X35467380Y-8562784D01*
X35388323Y-8699716D01*
X35347400Y-8852443D01*
X35347400Y-9010557D01*
X35388323Y-9163284D01*
X35467380Y-9300216D01*
X35518405Y-9351241D01*
X35546181Y-9405756D01*
X35547400Y-9421243D01*
X35547400Y-12419999D01*
X35528493Y-12478190D01*
X35518404Y-12490003D01*
X34675703Y-13332704D01*
X34621186Y-13360481D01*
X34605699Y-13361700D01*
X34533543Y-13361700D01*
X34380816Y-13402623D01*
X34243884Y-13481680D01*
X34132080Y-13593484D01*
X34053023Y-13730416D01*
X34012100Y-13883143D01*
X34012100Y-14041257D01*
X34053023Y-14193984D01*
X34132080Y-14330916D01*
X34243884Y-14442720D01*
X34380816Y-14521777D01*
X34533543Y-14562700D01*
X34533545Y-14562700D01*
X34691655Y-14562700D01*
X34691657Y-14562700D01*
X34844384Y-14521777D01*
X34981316Y-14442720D01*
X35093120Y-14330916D01*
X35172177Y-14193984D01*
X35213100Y-14041257D01*
X35213100Y-13969100D01*
X35232007Y-13910909D01*
X35242090Y-13899102D01*
X36268380Y-12872813D01*
X36297653Y-12822111D01*
X36321107Y-12781487D01*
X36348400Y-12679627D01*
X36348400Y-9421243D01*
X36367307Y-9363052D01*
X36377390Y-9351245D01*
X36428420Y-9300216D01*
X36507477Y-9163284D01*
X36527490Y-9088592D01*
X36560813Y-9037280D01*
X36617934Y-9015353D01*
X36677035Y-9031188D01*
X36693120Y-9044213D01*
X36729904Y-9080997D01*
X36757681Y-9135514D01*
X36758900Y-9151001D01*
X36758900Y-14334873D01*
X36758900Y-14440327D01*
X36771865Y-14488713D01*
X36786194Y-14542192D01*
X36838916Y-14633508D01*
X36838920Y-14633513D01*
X37299903Y-15094495D01*
X37327681Y-15149012D01*
X37328900Y-15164499D01*
X37328900Y-20425756D01*
X37309993Y-20483947D01*
X37299904Y-20495759D01*
X37248882Y-20546781D01*
X37248880Y-20546783D01*
X37248880Y-20546784D01*
X37169823Y-20683716D01*
X37134506Y-20815523D01*
X37128900Y-20836444D01*
X37128900Y-20967900D01*
X37109993Y-21026091D01*
X37060493Y-21062055D01*
X37029900Y-21066900D01*
X36994301Y-21066900D01*
X36936110Y-21047993D01*
X36924297Y-21037904D01*
X34252832Y-18366439D01*
X34225055Y-18311922D01*
X34234626Y-18251490D01*
X34237083Y-18246965D01*
X34286607Y-18161188D01*
X34313900Y-18059327D01*
X34313900Y-17994443D01*
X34332807Y-17936252D01*
X34342890Y-17924445D01*
X34393920Y-17873416D01*
X34472977Y-17736484D01*
X34513900Y-17583757D01*
X34513900Y-17425643D01*
X34472977Y-17272916D01*
X34393920Y-17135984D01*
X34385724Y-17127788D01*
X34348096Y-17090159D01*
X34320319Y-17035642D01*
X34319100Y-17020156D01*
X34319100Y-16655014D01*
X34338007Y-16596823D01*
X34381778Y-16562918D01*
X34509975Y-16512364D01*
X34625078Y-16425078D01*
X34712364Y-16309975D01*
X34765359Y-16175590D01*
X34775500Y-16091144D01*
X34775500Y-15508856D01*
X34765359Y-15424410D01*
X34712364Y-15290025D01*
X34625078Y-15174922D01*
X34509975Y-15087636D01*
X34509974Y-15087635D01*
X34509972Y-15087634D01*
X34375591Y-15034641D01*
X34291148Y-15024500D01*
X34291144Y-15024500D01*
X33758856Y-15024500D01*
X33758851Y-15024500D01*
X33692896Y-15032421D01*
X33674410Y-15034641D01*
X33674409Y-15034641D01*
X33668108Y-15035398D01*
X33667750Y-15032421D01*
X33618842Y-15029057D01*
X33585821Y-15007228D01*
X32026948Y-13448355D01*
X30399713Y-11821120D01*
X30399710Y-11821118D01*
X30399709Y-11821117D01*
X30399708Y-11821116D01*
X30308391Y-11768394D01*
X30308393Y-11768394D01*
X30268870Y-11757804D01*
X30206527Y-11741100D01*
X30206525Y-11741100D01*
X22768499Y-11741100D01*
X22710308Y-11722193D01*
X22698495Y-11712103D01*
X22429496Y-11443103D01*
X22401719Y-11388587D01*
X22400500Y-11373100D01*
X22400500Y-11176928D01*
X22400499Y-11176923D01*
X22397710Y-11147185D01*
X22397710Y-11147181D01*
X22353852Y-11021843D01*
X22353851Y-11021841D01*
X22275002Y-10915004D01*
X22274995Y-10914997D01*
X22168158Y-10836148D01*
X22086802Y-10807680D01*
X22038121Y-10770615D01*
X22020500Y-10714236D01*
X22020500Y-9975198D01*
X22039407Y-9917007D01*
X22060711Y-9895543D01*
X22074999Y-9884999D01*
X22074999Y-9884997D01*
X22075001Y-9884997D01*
X22075001Y-9884996D01*
X22153851Y-9778158D01*
X22153850Y-9778158D01*
X22153852Y-9778157D01*
X22197710Y-9652819D01*
X22200500Y-9623066D01*
X22200500Y-9179499D01*
X22219407Y-9121308D01*
X22268907Y-9085344D01*
X22299500Y-9080499D01*
X22337457Y-9080499D01*
X22343340Y-9079947D01*
X22366879Y-9077741D01*
X22490794Y-9034381D01*
X22575144Y-8972128D01*
X22596418Y-8956427D01*
X22596419Y-8956425D01*
X22596423Y-8956423D01*
X22674381Y-8850794D01*
X22717741Y-8726879D01*
X22720500Y-8697457D01*
X22720499Y-8322544D01*
X22717741Y-8293121D01*
X22674381Y-8169206D01*
X22652224Y-8139184D01*
X22596427Y-8063581D01*
X22596418Y-8063572D01*
X22490795Y-7985619D01*
X22366883Y-7942260D01*
X22366874Y-7942258D01*
X22337467Y-7939500D01*
X22337457Y-7939500D01*
X22136901Y-7939500D01*
X22078710Y-7920593D01*
X22066897Y-7910504D01*
X21898696Y-7742303D01*
X21870919Y-7687786D01*
X21869700Y-7672299D01*
X21869700Y-7366800D01*
X21888607Y-7308609D01*
X21938107Y-7272645D01*
X21968700Y-7267800D01*
X22611799Y-7267800D01*
X22669990Y-7286707D01*
X22681803Y-7296796D01*
X24398004Y-9012997D01*
X24425781Y-9067514D01*
X24427000Y-9083001D01*
X24427000Y-9155157D01*
X24467923Y-9307884D01*
X24546980Y-9444816D01*
X24658784Y-9556620D01*
X24795716Y-9635677D01*
X24948443Y-9676600D01*
X24948445Y-9676600D01*
X25106555Y-9676600D01*
X25106557Y-9676600D01*
X25259284Y-9635677D01*
X25396216Y-9556620D01*
X25508020Y-9444816D01*
X25587077Y-9307884D01*
X25628000Y-9155157D01*
X25628000Y-8997043D01*
X25587077Y-8844316D01*
X25508020Y-8707384D01*
X25458279Y-8657643D01*
X32940300Y-8657643D01*
X32940300Y-8815757D01*
X32981223Y-8968484D01*
X33060280Y-9105416D01*
X33172084Y-9217220D01*
X33309016Y-9296277D01*
X33461743Y-9337200D01*
X33461745Y-9337200D01*
X33619855Y-9337200D01*
X33619857Y-9337200D01*
X33772584Y-9296277D01*
X33909516Y-9217220D01*
X34021320Y-9105416D01*
X34100377Y-8968484D01*
X34141300Y-8815757D01*
X34141300Y-8743601D01*
X34160207Y-8685410D01*
X34170296Y-8673597D01*
X36896897Y-5946996D01*
X36951414Y-5919219D01*
X36966901Y-5918000D01*
X38051856Y-5918000D01*
X38110047Y-5936907D01*
X38121859Y-5946996D01*
X38172881Y-5998017D01*
X38172884Y-5998020D01*
X38309816Y-6077077D01*
X38462543Y-6118000D01*
X38462545Y-6118000D01*
X38620655Y-6118000D01*
X38620657Y-6118000D01*
X38773384Y-6077077D01*
X38910316Y-5998020D01*
X39022120Y-5886216D01*
X39101177Y-5749284D01*
X39142100Y-5596557D01*
X39142100Y-5438443D01*
X39101177Y-5285716D01*
X39036813Y-5174234D01*
X39814500Y-5174234D01*
X39814500Y-5325766D01*
X39844691Y-5438443D01*
X39853720Y-5472139D01*
X39929481Y-5603360D01*
X39929483Y-5603362D01*
X39929485Y-5603365D01*
X40036635Y-5710515D01*
X40036637Y-5710516D01*
X40036639Y-5710518D01*
X40167861Y-5786279D01*
X40167859Y-5786279D01*
X40167863Y-5786280D01*
X40167865Y-5786281D01*
X40314234Y-5825500D01*
X40314236Y-5825500D01*
X40465764Y-5825500D01*
X40465766Y-5825500D01*
X40612135Y-5786281D01*
X40612137Y-5786279D01*
X40612139Y-5786279D01*
X40743360Y-5710518D01*
X40743360Y-5710517D01*
X40743365Y-5710515D01*
X40850515Y-5603365D01*
X40926281Y-5472135D01*
X40965500Y-5325766D01*
X40965500Y-5174234D01*
X40926281Y-5027865D01*
X40926279Y-5027862D01*
X40926279Y-5027860D01*
X40850518Y-4896639D01*
X40850516Y-4896637D01*
X40850515Y-4896635D01*
X40743365Y-4789485D01*
X40743362Y-4789483D01*
X40743360Y-4789481D01*
X40612138Y-4713720D01*
X40612140Y-4713720D01*
X40555347Y-4698503D01*
X40465766Y-4674500D01*
X40314234Y-4674500D01*
X40224652Y-4698503D01*
X40167860Y-4713720D01*
X40036639Y-4789481D01*
X39929481Y-4896639D01*
X39853720Y-5027860D01*
X39851276Y-5036982D01*
X39814500Y-5174234D01*
X39036813Y-5174234D01*
X39022120Y-5148784D01*
X38910316Y-5036980D01*
X38773384Y-4957923D01*
X38620657Y-4917000D01*
X38462543Y-4917000D01*
X38309816Y-4957923D01*
X38188681Y-5027860D01*
X38172881Y-5036982D01*
X38121859Y-5088004D01*
X38067342Y-5115781D01*
X38051856Y-5117000D01*
X36812727Y-5117000D01*
X36707273Y-5117000D01*
X36644929Y-5133704D01*
X36605407Y-5144294D01*
X36514091Y-5197016D01*
X33603903Y-8107204D01*
X33549386Y-8134981D01*
X33533899Y-8136200D01*
X33461743Y-8136200D01*
X33309016Y-8177123D01*
X33172084Y-8256180D01*
X33060280Y-8367984D01*
X32981223Y-8504916D01*
X32940300Y-8657643D01*
X25458279Y-8657643D01*
X25396216Y-8595580D01*
X25259284Y-8516523D01*
X25106557Y-8475600D01*
X25106555Y-8475600D01*
X25034401Y-8475600D01*
X24976210Y-8456693D01*
X24964397Y-8446604D01*
X24031377Y-7513584D01*
X23064613Y-6546820D01*
X23064610Y-6546818D01*
X23064609Y-6546817D01*
X23064608Y-6546816D01*
X22973291Y-6494094D01*
X22973293Y-6494094D01*
X22933770Y-6483504D01*
X22871427Y-6466800D01*
X22871425Y-6466800D01*
X21968700Y-6466800D01*
X21910509Y-6447893D01*
X21874545Y-6398393D01*
X21869700Y-6367800D01*
X21869700Y-5174234D01*
X34034500Y-5174234D01*
X34034500Y-5325766D01*
X34064691Y-5438443D01*
X34073720Y-5472139D01*
X34149481Y-5603360D01*
X34149483Y-5603362D01*
X34149485Y-5603365D01*
X34256635Y-5710515D01*
X34256637Y-5710516D01*
X34256639Y-5710518D01*
X34387861Y-5786279D01*
X34387859Y-5786279D01*
X34387863Y-5786280D01*
X34387865Y-5786281D01*
X34534234Y-5825500D01*
X34534236Y-5825500D01*
X34685764Y-5825500D01*
X34685766Y-5825500D01*
X34832135Y-5786281D01*
X34832137Y-5786279D01*
X34832139Y-5786279D01*
X34963360Y-5710518D01*
X34963360Y-5710517D01*
X34963365Y-5710515D01*
X35070515Y-5603365D01*
X35146281Y-5472135D01*
X35185500Y-5325766D01*
X35185500Y-5174234D01*
X35146281Y-5027865D01*
X35146279Y-5027862D01*
X35146279Y-5027860D01*
X35070518Y-4896639D01*
X35070516Y-4896637D01*
X35070515Y-4896635D01*
X34963365Y-4789485D01*
X34963362Y-4789483D01*
X34963360Y-4789481D01*
X34832138Y-4713720D01*
X34832140Y-4713720D01*
X34775347Y-4698503D01*
X34685766Y-4674500D01*
X34534234Y-4674500D01*
X34444652Y-4698503D01*
X34387860Y-4713720D01*
X34256639Y-4789481D01*
X34149481Y-4896639D01*
X34073720Y-5027860D01*
X34071276Y-5036982D01*
X34034500Y-5174234D01*
X21869700Y-5174234D01*
X21869700Y-5092314D01*
X21869701Y-5092301D01*
X21869701Y-4978872D01*
X21869700Y-4978870D01*
X21842407Y-4877013D01*
X21842405Y-4877009D01*
X21789681Y-4785689D01*
X21789680Y-4785687D01*
X21715113Y-4711120D01*
X21715110Y-4711118D01*
X20883778Y-3879786D01*
X20024996Y-3021003D01*
X19997219Y-2966486D01*
X19996000Y-2950999D01*
X19996000Y-2878844D01*
X19996000Y-2878843D01*
X19955077Y-2726116D01*
X19876020Y-2589184D01*
X19764216Y-2477380D01*
X19627284Y-2398323D01*
X19474557Y-2357400D01*
X19316443Y-2357400D01*
X19163716Y-2398323D01*
X19026784Y-2477380D01*
X18914980Y-2589184D01*
X18835923Y-2726116D01*
X18795000Y-2878843D01*
X18795000Y-3036957D01*
X18835923Y-3189684D01*
X18914980Y-3326616D01*
X19026784Y-3438420D01*
X19163716Y-3517477D01*
X19316443Y-3558400D01*
X19388599Y-3558400D01*
X19446790Y-3577307D01*
X19458603Y-3587396D01*
X21039704Y-5168496D01*
X21067481Y-5223013D01*
X21068700Y-5238500D01*
X21068700Y-6814573D01*
X21068700Y-7826473D01*
X21068700Y-7931927D01*
X21083311Y-7986457D01*
X21095994Y-8033792D01*
X21148716Y-8125108D01*
X21148720Y-8125113D01*
X21450504Y-8426898D01*
X21478281Y-8481414D01*
X21479500Y-8496901D01*
X21479500Y-8694599D01*
X21460593Y-8752790D01*
X21411093Y-8788754D01*
X21401630Y-8791318D01*
X21397178Y-8792290D01*
X21271841Y-8836148D01*
X21165004Y-8914997D01*
X21164997Y-8915004D01*
X21086148Y-9021841D01*
X21042291Y-9147176D01*
X21042289Y-9147185D01*
X21039500Y-9176923D01*
X21039500Y-9623076D01*
X21042289Y-9652814D01*
X21042291Y-9652823D01*
X21086148Y-9778158D01*
X21164998Y-9884996D01*
X21164998Y-9884997D01*
X21165001Y-9884999D01*
X21179287Y-9895543D01*
X21214880Y-9945309D01*
X21219500Y-9975198D01*
X21219500Y-10383899D01*
X21200593Y-10442090D01*
X21151093Y-10478054D01*
X21089907Y-10478054D01*
X21050496Y-10453903D01*
X21015213Y-10418620D01*
X19568721Y-8972128D01*
X18120413Y-7523820D01*
X18120410Y-7523818D01*
X18120409Y-7523817D01*
X18120408Y-7523816D01*
X18029091Y-7471094D01*
X18029093Y-7471094D01*
X17989570Y-7460504D01*
X17927227Y-7443800D01*
X17927225Y-7443800D01*
X17485106Y-7443800D01*
X17485090Y-7443799D01*
X17479027Y-7443799D01*
X17373573Y-7443799D01*
X17373570Y-7443799D01*
X17271713Y-7471092D01*
X17271709Y-7471094D01*
X17180387Y-7523819D01*
X17105819Y-7598386D01*
X17105820Y-7598387D01*
X8868916Y-15835291D01*
X8816193Y-15926611D01*
X8816192Y-15926611D01*
X8816193Y-15926612D01*
X8788900Y-16028473D01*
X8788900Y-17086399D01*
X8769993Y-17144590D01*
X8720493Y-17180554D01*
X8659307Y-17180554D01*
X8619896Y-17156403D01*
X5569396Y-14105903D01*
X5541619Y-14051386D01*
X5540400Y-14035899D01*
X5540400Y-11989743D01*
X5559307Y-11931552D01*
X5569390Y-11919745D01*
X5620420Y-11868716D01*
X5699477Y-11731784D01*
X5740400Y-11579057D01*
X5740400Y-11420943D01*
X5699477Y-11268216D01*
X5620420Y-11131284D01*
X5508616Y-11019480D01*
X5371684Y-10940423D01*
X5218957Y-10899500D01*
X5060843Y-10899500D01*
X4908116Y-10940423D01*
X4771184Y-11019480D01*
X4659380Y-11131284D01*
X4580323Y-11268216D01*
X4539400Y-11420943D01*
X4539400Y-11579057D01*
X4580323Y-11731784D01*
X4659380Y-11868716D01*
X4710405Y-11919741D01*
X4738181Y-11974256D01*
X4739400Y-11989743D01*
X4739400Y-14190073D01*
X4739400Y-14295527D01*
X4749943Y-14334873D01*
X4766694Y-14397392D01*
X4819416Y-14488708D01*
X4819418Y-14488710D01*
X4819420Y-14488713D01*
X11600687Y-21269980D01*
X11600689Y-21269981D01*
X11600691Y-21269983D01*
X11692008Y-21322705D01*
X11692006Y-21322705D01*
X11692010Y-21322706D01*
X11692012Y-21322707D01*
X11793873Y-21350000D01*
X15514956Y-21350000D01*
X15573147Y-21368907D01*
X15584959Y-21378996D01*
X15613907Y-21407943D01*
X15635984Y-21430020D01*
X15772916Y-21509077D01*
X15925643Y-21550000D01*
X15925645Y-21550000D01*
X16083755Y-21550000D01*
X16083757Y-21550000D01*
X16236484Y-21509077D01*
X16373416Y-21430020D01*
X16465498Y-21337937D01*
X16520013Y-21310162D01*
X16580445Y-21319733D01*
X16623710Y-21362998D01*
X16634500Y-21407943D01*
X16634500Y-21454157D01*
X16675423Y-21606884D01*
X16754480Y-21743816D01*
X16866284Y-21855620D01*
X17003216Y-21934677D01*
X17155943Y-21975600D01*
X17155945Y-21975600D01*
X17314055Y-21975600D01*
X17314057Y-21975600D01*
X17466784Y-21934677D01*
X17603716Y-21855620D01*
X17715520Y-21743816D01*
X17794577Y-21606884D01*
X17835500Y-21454157D01*
X17835500Y-21296043D01*
X17794577Y-21143316D01*
X17715520Y-21006384D01*
X17603716Y-20894580D01*
X17466784Y-20815523D01*
X17314057Y-20774600D01*
X17314055Y-20774600D01*
X17241901Y-20774600D01*
X17183710Y-20755693D01*
X17171897Y-20745604D01*
X14540096Y-18113803D01*
X14512319Y-18059286D01*
X14511100Y-18043799D01*
X14511100Y-17611143D01*
X14530007Y-17552952D01*
X14540090Y-17541145D01*
X14591120Y-17490116D01*
X14670177Y-17353184D01*
X14711100Y-17200457D01*
X14711100Y-17042343D01*
X14670177Y-16889616D01*
X14617859Y-16798999D01*
X14605138Y-16739152D01*
X14630025Y-16683256D01*
X14683013Y-16652663D01*
X14703596Y-16650500D01*
X17835756Y-16650500D01*
X17893947Y-16669407D01*
X17905759Y-16679496D01*
X17954567Y-16728303D01*
X17956784Y-16730520D01*
X18093716Y-16809577D01*
X18246443Y-16850500D01*
X18246445Y-16850500D01*
X18404555Y-16850500D01*
X18404557Y-16850500D01*
X18557284Y-16809577D01*
X18657137Y-16751927D01*
X18716982Y-16739206D01*
X18772877Y-16764092D01*
X18803470Y-16817080D01*
X18797075Y-16877930D01*
X18792371Y-16887163D01*
X18751523Y-16957914D01*
X18731159Y-17033915D01*
X18710600Y-17110643D01*
X18710600Y-17268757D01*
X18751523Y-17421484D01*
X18830580Y-17558416D01*
X18942384Y-17670220D01*
X19079316Y-17749277D01*
X19232043Y-17790200D01*
X19232045Y-17790200D01*
X19390155Y-17790200D01*
X19390157Y-17790200D01*
X19542884Y-17749277D01*
X19542996Y-17749211D01*
X19543087Y-17749192D01*
X19548878Y-17746794D01*
X19549322Y-17747866D01*
X19602844Y-17736488D01*
X19658741Y-17761372D01*
X19689336Y-17814359D01*
X19691500Y-17834946D01*
X19691500Y-21019273D01*
X19691500Y-21124727D01*
X19696481Y-21143316D01*
X19718794Y-21226592D01*
X19771516Y-21317908D01*
X19771518Y-21317910D01*
X19771520Y-21317913D01*
X22337295Y-23883687D01*
X24210504Y-25756896D01*
X24238281Y-25811413D01*
X24239500Y-25826900D01*
X24239500Y-26023076D01*
X24242289Y-26052814D01*
X24242291Y-26052823D01*
X24286148Y-26178158D01*
X24364997Y-26284995D01*
X24365004Y-26285002D01*
X24471841Y-26363851D01*
X24471842Y-26363851D01*
X24471843Y-26363852D01*
X24597181Y-26407710D01*
X24624619Y-26410282D01*
X24626923Y-26410499D01*
X24626928Y-26410500D01*
X24626934Y-26410500D01*
X25013072Y-26410500D01*
X25013075Y-26410499D01*
X25042819Y-26407710D01*
X25168157Y-26363852D01*
X25274999Y-26284999D01*
X25353852Y-26178157D01*
X25397710Y-26052819D01*
X25400500Y-26023066D01*
X25400500Y-25576934D01*
X25400500Y-25576928D01*
X25400499Y-25576923D01*
X25400282Y-25574619D01*
X25397710Y-25547181D01*
X25353852Y-25421843D01*
X25345790Y-25410919D01*
X25275002Y-25315004D01*
X25274995Y-25314997D01*
X25168158Y-25236148D01*
X25042823Y-25192291D01*
X25042814Y-25192289D01*
X25013076Y-25189500D01*
X25013066Y-25189500D01*
X24816900Y-25189500D01*
X24758709Y-25170593D01*
X24746896Y-25160504D01*
X20521496Y-20935103D01*
X20493719Y-20880586D01*
X20492500Y-20865099D01*
X20492500Y-16146501D01*
X20511407Y-16088310D01*
X20560907Y-16052346D01*
X20622093Y-16052346D01*
X20661504Y-16076497D01*
X24969304Y-20384297D01*
X24997081Y-20438814D01*
X24998300Y-20454301D01*
X24998300Y-20526457D01*
X25039223Y-20679184D01*
X25118280Y-20816116D01*
X25230084Y-20927920D01*
X25367016Y-21006977D01*
X25519743Y-21047900D01*
X25519745Y-21047900D01*
X25677855Y-21047900D01*
X25677857Y-21047900D01*
X25830584Y-21006977D01*
X25967516Y-20927920D01*
X26079320Y-20816116D01*
X26158377Y-20679184D01*
X26174311Y-20619714D01*
X26207633Y-20568402D01*
X26264754Y-20546474D01*
X26323855Y-20562309D01*
X26339941Y-20575334D01*
X26390504Y-20625897D01*
X26418281Y-20680414D01*
X26419500Y-20695901D01*
X26419500Y-25224801D01*
X26400593Y-25282992D01*
X26379290Y-25304455D01*
X26365003Y-25314999D01*
X26364996Y-25315006D01*
X26286148Y-25421841D01*
X26242291Y-25547176D01*
X26242289Y-25547185D01*
X26239500Y-25576923D01*
X26239500Y-26023076D01*
X26242289Y-26052814D01*
X26242291Y-26052823D01*
X26286148Y-26178158D01*
X26364997Y-26284995D01*
X26365004Y-26285002D01*
X26471841Y-26363851D01*
X26471842Y-26363851D01*
X26471843Y-26363852D01*
X26597181Y-26407710D01*
X26624619Y-26410282D01*
X26626923Y-26410499D01*
X26626928Y-26410500D01*
X26626934Y-26410500D01*
X27013072Y-26410500D01*
X27013075Y-26410499D01*
X27042819Y-26407710D01*
X27168157Y-26363852D01*
X27274999Y-26284999D01*
X27353852Y-26178157D01*
X27397710Y-26052819D01*
X27400500Y-26023066D01*
X27400500Y-25576934D01*
X27400500Y-25576928D01*
X27400499Y-25576923D01*
X27400282Y-25574619D01*
X27397710Y-25547181D01*
X27353852Y-25421843D01*
X27344890Y-25409700D01*
X27275003Y-25315006D01*
X27275001Y-25315004D01*
X27274999Y-25315001D01*
X27260710Y-25304455D01*
X27225119Y-25254687D01*
X27220500Y-25224801D01*
X27220500Y-21197601D01*
X27239407Y-21139410D01*
X27288907Y-21103446D01*
X27350093Y-21103446D01*
X27389504Y-21127597D01*
X28390504Y-22128597D01*
X28418281Y-22183114D01*
X28419500Y-22198601D01*
X28419500Y-25224801D01*
X28400593Y-25282992D01*
X28379290Y-25304455D01*
X28365003Y-25314999D01*
X28364996Y-25315006D01*
X28286148Y-25421841D01*
X28242291Y-25547176D01*
X28242289Y-25547185D01*
X28239500Y-25576923D01*
X28239500Y-26023076D01*
X28242289Y-26052814D01*
X28242291Y-26052823D01*
X28286148Y-26178158D01*
X28364997Y-26284995D01*
X28365004Y-26285002D01*
X28471841Y-26363851D01*
X28471842Y-26363851D01*
X28471843Y-26363852D01*
X28597181Y-26407710D01*
X28624619Y-26410282D01*
X28626923Y-26410499D01*
X28626928Y-26410500D01*
X28626934Y-26410500D01*
X29013072Y-26410500D01*
X29013075Y-26410499D01*
X29042819Y-26407710D01*
X29168157Y-26363852D01*
X29274999Y-26284999D01*
X29353852Y-26178157D01*
X29397710Y-26052819D01*
X29400500Y-26023066D01*
X29400500Y-25576934D01*
X29400500Y-25576928D01*
X29400499Y-25576923D01*
X29400282Y-25574619D01*
X29397710Y-25547181D01*
X29353852Y-25421843D01*
X29344890Y-25409700D01*
X29275003Y-25315006D01*
X29275001Y-25315004D01*
X29274999Y-25315001D01*
X29260710Y-25304455D01*
X29225119Y-25254687D01*
X29220500Y-25224801D01*
X29220500Y-21938974D01*
X29219349Y-21934677D01*
X29193207Y-21837113D01*
X29140480Y-21745787D01*
X29138508Y-21743815D01*
X29065913Y-21671219D01*
X29065913Y-21671220D01*
X24339796Y-16945103D01*
X24312019Y-16890586D01*
X24310800Y-16875099D01*
X24310800Y-14775301D01*
X24329707Y-14717110D01*
X24379207Y-14681146D01*
X24440393Y-14681146D01*
X24479804Y-14705297D01*
X26376604Y-16602097D01*
X26404381Y-16656614D01*
X26405600Y-16672101D01*
X26405600Y-16744257D01*
X26446523Y-16896984D01*
X26525580Y-17033916D01*
X26637384Y-17145720D01*
X26774316Y-17224777D01*
X26927043Y-17265700D01*
X26999199Y-17265700D01*
X27057390Y-17284607D01*
X27069203Y-17294696D01*
X27296037Y-17521530D01*
X27323814Y-17576047D01*
X27314243Y-17636479D01*
X27270978Y-17679744D01*
X27210546Y-17689315D01*
X27200410Y-17687161D01*
X27172729Y-17679744D01*
X27059857Y-17649500D01*
X26901743Y-17649500D01*
X26749016Y-17690423D01*
X26612084Y-17769480D01*
X26500280Y-17881284D01*
X26421223Y-18018216D01*
X26380300Y-18170943D01*
X26380300Y-18329057D01*
X26421223Y-18481784D01*
X26500280Y-18618716D01*
X26612084Y-18730520D01*
X26749016Y-18809577D01*
X26901743Y-18850500D01*
X26973899Y-18850500D01*
X27032090Y-18869407D01*
X27043903Y-18879496D01*
X31045004Y-22880597D01*
X31072781Y-22935114D01*
X31074000Y-22950601D01*
X31074000Y-24938600D01*
X31055093Y-24996791D01*
X31045004Y-25008603D01*
X30893105Y-25160503D01*
X30838588Y-25188281D01*
X30823101Y-25189500D01*
X30626923Y-25189500D01*
X30597185Y-25192289D01*
X30597176Y-25192291D01*
X30471841Y-25236148D01*
X30365004Y-25314997D01*
X30364997Y-25315004D01*
X30286148Y-25421841D01*
X30242291Y-25547176D01*
X30242289Y-25547185D01*
X30239500Y-25576923D01*
X30239500Y-26023076D01*
X30242289Y-26052814D01*
X30242291Y-26052823D01*
X30286148Y-26178158D01*
X30364997Y-26284995D01*
X30365004Y-26285002D01*
X30471841Y-26363851D01*
X30471842Y-26363851D01*
X30471843Y-26363852D01*
X30597181Y-26407710D01*
X30624619Y-26410282D01*
X30626923Y-26410499D01*
X30626928Y-26410500D01*
X30626934Y-26410500D01*
X31013072Y-26410500D01*
X31013075Y-26410499D01*
X31042819Y-26407710D01*
X31168157Y-26363852D01*
X31274999Y-26284999D01*
X31353852Y-26178157D01*
X31397710Y-26052819D01*
X31400500Y-26023066D01*
X31400500Y-25826900D01*
X31419407Y-25768709D01*
X31429496Y-25756896D01*
X31611396Y-25574996D01*
X31665913Y-25547219D01*
X31681400Y-25546000D01*
X32163600Y-25546000D01*
X32221791Y-25564907D01*
X32233596Y-25574989D01*
X32245502Y-25586894D01*
X32273280Y-25641408D01*
X32274500Y-25656899D01*
X32274500Y-26091148D01*
X32284641Y-26175591D01*
X32337634Y-26309972D01*
X32337635Y-26309974D01*
X32337636Y-26309975D01*
X32424922Y-26425078D01*
X32540025Y-26512364D01*
X32540027Y-26512364D01*
X32540030Y-26512367D01*
X32544190Y-26514706D01*
X32585646Y-26559707D01*
X32592734Y-26620480D01*
X32562746Y-26673813D01*
X32507137Y-26699334D01*
X32495669Y-26700000D01*
X2009811Y-26700000D01*
X2004997Y-26699883D01*
X2001030Y-26699689D01*
X1936301Y-26696538D01*
X1926550Y-26695578D01*
X1868297Y-26686913D01*
X1858784Y-26685017D01*
X1801593Y-26670676D01*
X1792343Y-26667870D01*
X1736900Y-26648045D01*
X1727882Y-26644308D01*
X1674575Y-26619071D01*
X1666044Y-26614509D01*
X1615489Y-26584210D01*
X1607375Y-26578786D01*
X1560075Y-26543676D01*
X1552624Y-26537561D01*
X1508931Y-26497988D01*
X1502011Y-26491068D01*
X1462438Y-26447375D01*
X1456323Y-26439924D01*
X1421213Y-26392624D01*
X1415789Y-26384510D01*
X1385490Y-26333955D01*
X1380928Y-26325424D01*
X1355691Y-26272117D01*
X1351958Y-26263109D01*
X1332124Y-26207643D01*
X1329323Y-26198406D01*
X1314982Y-26141215D01*
X1313086Y-26131702D01*
X1304421Y-26073449D01*
X1303461Y-26063697D01*
X1300117Y-25995003D01*
X1300000Y-25990189D01*
X1300000Y-24508851D01*
X17774500Y-24508851D01*
X17774500Y-25091148D01*
X17784641Y-25175591D01*
X17837634Y-25309972D01*
X17837635Y-25309974D01*
X17837636Y-25309975D01*
X17924922Y-25425078D01*
X18040025Y-25512364D01*
X18040026Y-25512364D01*
X18040027Y-25512365D01*
X18063600Y-25521661D01*
X18174410Y-25565359D01*
X18258856Y-25575500D01*
X18258858Y-25575500D01*
X18791142Y-25575500D01*
X18791144Y-25575500D01*
X18875590Y-25565359D01*
X19009975Y-25512364D01*
X19125078Y-25425078D01*
X19212364Y-25309975D01*
X19265359Y-25175590D01*
X19275500Y-25091144D01*
X19275500Y-24508856D01*
X19265359Y-24424410D01*
X19212364Y-24290025D01*
X19212363Y-24290022D01*
X19193516Y-24265169D01*
X19173421Y-24207378D01*
X19173400Y-24205350D01*
X19173400Y-20532743D01*
X19192307Y-20474552D01*
X19202390Y-20462745D01*
X19253420Y-20411716D01*
X19332477Y-20274784D01*
X19373400Y-20122057D01*
X19373400Y-19963943D01*
X19332477Y-19811216D01*
X19253420Y-19674284D01*
X19141616Y-19562480D01*
X19004684Y-19483423D01*
X18851957Y-19442500D01*
X18693843Y-19442500D01*
X18541116Y-19483423D01*
X18404184Y-19562480D01*
X18292380Y-19674284D01*
X18213323Y-19811216D01*
X18172400Y-19963943D01*
X18172400Y-20122057D01*
X18213323Y-20274784D01*
X18292380Y-20411716D01*
X18343405Y-20462741D01*
X18371181Y-20517256D01*
X18372400Y-20532743D01*
X18372400Y-23925500D01*
X18353493Y-23983691D01*
X18303993Y-24019655D01*
X18273400Y-24024500D01*
X18258851Y-24024500D01*
X18174408Y-24034641D01*
X18040027Y-24087634D01*
X17924922Y-24174922D01*
X17837634Y-24290027D01*
X17784641Y-24424408D01*
X17774500Y-24508851D01*
X1300000Y-24508851D01*
X1300000Y-2893709D01*
X3149500Y-2893709D01*
X3149500Y-3106290D01*
X3182752Y-3316238D01*
X3248443Y-3518412D01*
X3344948Y-3707815D01*
X3344950Y-3707819D01*
X3469891Y-3879786D01*
X3469893Y-3879788D01*
X3469896Y-3879792D01*
X3620208Y-4030104D01*
X3620211Y-4030106D01*
X3620213Y-4030108D01*
X3792180Y-4155049D01*
X3792184Y-4155051D01*
X3981588Y-4251557D01*
X4183757Y-4317246D01*
X4183758Y-4317246D01*
X4183761Y-4317247D01*
X4393710Y-4350500D01*
X4393713Y-4350500D01*
X4606290Y-4350500D01*
X4816238Y-4317247D01*
X4816239Y-4317246D01*
X4816243Y-4317246D01*
X5018412Y-4251557D01*
X5207816Y-4155051D01*
X5379792Y-4030104D01*
X5530104Y-3879792D01*
X5655051Y-3707816D01*
X5672918Y-3672750D01*
X8140500Y-3672750D01*
X8140500Y-3853849D01*
X8168828Y-4032706D01*
X8224788Y-4204937D01*
X8298956Y-4350500D01*
X8307004Y-4366294D01*
X8413447Y-4512801D01*
X8541499Y-4640853D01*
X8688006Y-4747296D01*
X8849361Y-4829511D01*
X9021591Y-4885471D01*
X9092078Y-4896635D01*
X9200451Y-4913800D01*
X9200454Y-4913800D01*
X9381549Y-4913800D01*
X9470977Y-4899635D01*
X9560409Y-4885471D01*
X9732639Y-4829511D01*
X9893994Y-4747296D01*
X10040501Y-4640853D01*
X10168553Y-4512801D01*
X10274996Y-4366294D01*
X10357211Y-4204939D01*
X10413171Y-4032709D01*
X10441500Y-3853846D01*
X10441500Y-3672754D01*
X10441500Y-3672750D01*
X10417055Y-3518412D01*
X10413171Y-3493891D01*
X10357211Y-3321661D01*
X10274996Y-3160306D01*
X10168553Y-3013799D01*
X10040501Y-2885747D01*
X9893994Y-2779304D01*
X9893993Y-2779303D01*
X9893991Y-2779302D01*
X9732637Y-2697088D01*
X9560406Y-2641128D01*
X9381549Y-2612800D01*
X9381546Y-2612800D01*
X9200454Y-2612800D01*
X9200451Y-2612800D01*
X9021593Y-2641128D01*
X8849362Y-2697088D01*
X8688008Y-2779302D01*
X8657300Y-2801613D01*
X8541499Y-2885747D01*
X8413447Y-3013799D01*
X8396622Y-3036957D01*
X8307002Y-3160308D01*
X8224788Y-3321662D01*
X8168828Y-3493893D01*
X8140500Y-3672750D01*
X5672918Y-3672750D01*
X5751557Y-3518412D01*
X5817246Y-3316243D01*
X5837291Y-3189684D01*
X5850500Y-3106290D01*
X5850500Y-2893709D01*
X5817247Y-2683761D01*
X5803395Y-2641128D01*
X5751557Y-2481588D01*
X5655051Y-2292184D01*
X5655049Y-2292180D01*
X5530108Y-2120213D01*
X5530106Y-2120211D01*
X5530104Y-2120208D01*
X5379792Y-1969896D01*
X5379788Y-1969893D01*
X5379786Y-1969891D01*
X5207819Y-1844950D01*
X5207815Y-1844948D01*
X5035351Y-1757074D01*
X5035350Y-1757073D01*
X5018415Y-1748444D01*
X4816238Y-1682752D01*
X4753087Y-1672750D01*
X24140500Y-1672750D01*
X24140500Y-1853849D01*
X24168828Y-2032706D01*
X24197258Y-2120208D01*
X24224789Y-2204939D01*
X24307004Y-2366294D01*
X24413447Y-2512801D01*
X24541499Y-2640853D01*
X24688006Y-2747296D01*
X24849361Y-2829511D01*
X25021591Y-2885471D01*
X25093136Y-2896802D01*
X25200451Y-2913800D01*
X25200454Y-2913800D01*
X25381549Y-2913800D01*
X25470977Y-2899635D01*
X25508394Y-2893709D01*
X51149500Y-2893709D01*
X51149500Y-3106290D01*
X51182752Y-3316238D01*
X51248443Y-3518412D01*
X51344948Y-3707815D01*
X51344950Y-3707819D01*
X51469891Y-3879786D01*
X51469893Y-3879788D01*
X51469896Y-3879792D01*
X51620208Y-4030104D01*
X51620211Y-4030106D01*
X51620213Y-4030108D01*
X51792180Y-4155049D01*
X51792184Y-4155051D01*
X51981588Y-4251557D01*
X52183757Y-4317246D01*
X52183758Y-4317246D01*
X52183761Y-4317247D01*
X52393710Y-4350500D01*
X52393713Y-4350500D01*
X52606290Y-4350500D01*
X52816238Y-4317247D01*
X52816239Y-4317246D01*
X52816243Y-4317246D01*
X53018412Y-4251557D01*
X53207816Y-4155051D01*
X53379792Y-4030104D01*
X53530104Y-3879792D01*
X53655051Y-3707816D01*
X53751557Y-3518412D01*
X53817246Y-3316243D01*
X53837291Y-3189684D01*
X53850500Y-3106290D01*
X53850500Y-2893709D01*
X53817247Y-2683761D01*
X53803395Y-2641128D01*
X53751557Y-2481588D01*
X53655051Y-2292184D01*
X53655049Y-2292180D01*
X53530108Y-2120213D01*
X53530106Y-2120211D01*
X53530104Y-2120208D01*
X53379792Y-1969896D01*
X53379788Y-1969893D01*
X53379786Y-1969891D01*
X53207819Y-1844950D01*
X53207815Y-1844948D01*
X53018412Y-1748443D01*
X52816238Y-1682752D01*
X52606290Y-1649500D01*
X52606287Y-1649500D01*
X52393713Y-1649500D01*
X52393710Y-1649500D01*
X52183761Y-1682752D01*
X51981587Y-1748443D01*
X51792184Y-1844948D01*
X51792180Y-1844950D01*
X51620213Y-1969891D01*
X51469891Y-2120213D01*
X51344950Y-2292180D01*
X51344948Y-2292184D01*
X51248443Y-2481587D01*
X51182752Y-2683761D01*
X51149500Y-2893709D01*
X25508394Y-2893709D01*
X25560409Y-2885471D01*
X25732639Y-2829511D01*
X25787392Y-2801613D01*
X25787395Y-2801612D01*
X25893983Y-2747302D01*
X25893990Y-2747298D01*
X25893989Y-2747298D01*
X25893994Y-2747296D01*
X26040501Y-2640853D01*
X26168553Y-2512801D01*
X26274996Y-2366294D01*
X26357211Y-2204939D01*
X26413171Y-2032709D01*
X26441500Y-1853846D01*
X26441500Y-1672754D01*
X26441500Y-1672750D01*
X26413171Y-1493893D01*
X26413171Y-1493891D01*
X26357211Y-1321661D01*
X26274996Y-1160306D01*
X26168553Y-1013799D01*
X26040501Y-885747D01*
X25893994Y-779304D01*
X25893993Y-779303D01*
X25893991Y-779302D01*
X25732637Y-697088D01*
X25560406Y-641128D01*
X25381549Y-612800D01*
X25381546Y-612800D01*
X25200454Y-612800D01*
X25200451Y-612800D01*
X25021593Y-641128D01*
X24849362Y-697088D01*
X24688008Y-779302D01*
X24614752Y-832525D01*
X24541499Y-885747D01*
X24413447Y-1013799D01*
X24360225Y-1087052D01*
X24307002Y-1160308D01*
X24224788Y-1321662D01*
X24168828Y-1493893D01*
X24140500Y-1672750D01*
X4753087Y-1672750D01*
X4606290Y-1649500D01*
X4606287Y-1649500D01*
X4393713Y-1649500D01*
X4393710Y-1649500D01*
X4183761Y-1682752D01*
X3981587Y-1748443D01*
X3792184Y-1844948D01*
X3792180Y-1844950D01*
X3620213Y-1969891D01*
X3469891Y-2120213D01*
X3344950Y-2292180D01*
X3344948Y-2292184D01*
X3248443Y-2481587D01*
X3182752Y-2683761D01*
X3149500Y-2893709D01*
X1300000Y-2893709D01*
X1300000Y-349500D01*
X1318907Y-291309D01*
X1368407Y-255345D01*
X1399000Y-250500D01*
X12939829Y-250500D01*
X12997885Y-226451D01*
X13031897Y-212364D01*
X13102364Y-141897D01*
X13140500Y-49828D01*
X13140500Y65892D01*
X13389500Y65892D01*
X13389500Y-65892D01*
X13409865Y-141897D01*
X13423609Y-193190D01*
X13489496Y-307309D01*
X13489498Y-307311D01*
X13489500Y-307314D01*
X13582686Y-400500D01*
X13582688Y-400501D01*
X13582690Y-400503D01*
X13696810Y-466390D01*
X13696808Y-466390D01*
X13696812Y-466391D01*
X13696814Y-466392D01*
X13824108Y-500500D01*
X13824110Y-500500D01*
X13955890Y-500500D01*
X13955892Y-500500D01*
X14083186Y-466392D01*
X14083188Y-466390D01*
X14083190Y-466390D01*
X14197309Y-400503D01*
X14197309Y-400502D01*
X14197314Y-400500D01*
X14197317Y-400496D01*
X14202460Y-396551D01*
X14203818Y-398321D01*
X14249513Y-375040D01*
X14309945Y-384611D01*
X14327124Y-397092D01*
X14327540Y-396551D01*
X14332690Y-400503D01*
X14446810Y-466390D01*
X14446808Y-466390D01*
X14446812Y-466391D01*
X14446814Y-466392D01*
X14574108Y-500500D01*
X14574110Y-500500D01*
X14705890Y-500500D01*
X14705892Y-500500D01*
X14833186Y-466392D01*
X14833188Y-466390D01*
X14833190Y-466390D01*
X14947309Y-400503D01*
X14947309Y-400502D01*
X14947314Y-400500D01*
X14947317Y-400496D01*
X14952460Y-396551D01*
X14953818Y-398321D01*
X14999513Y-375040D01*
X15059945Y-384611D01*
X15077124Y-397092D01*
X15077540Y-396551D01*
X15082690Y-400503D01*
X15196810Y-466390D01*
X15196808Y-466390D01*
X15196812Y-466391D01*
X15196814Y-466392D01*
X15324108Y-500500D01*
X15324110Y-500500D01*
X15455890Y-500500D01*
X15455892Y-500500D01*
X15583186Y-466392D01*
X15583188Y-466390D01*
X15583190Y-466390D01*
X15697309Y-400503D01*
X15697309Y-400502D01*
X15697314Y-400500D01*
X15697317Y-400496D01*
X15702460Y-396551D01*
X15703818Y-398321D01*
X15749513Y-375040D01*
X15809945Y-384611D01*
X15827124Y-397092D01*
X15827540Y-396551D01*
X15832690Y-400503D01*
X15946810Y-466390D01*
X15946808Y-466390D01*
X15946812Y-466391D01*
X15946814Y-466392D01*
X16074108Y-500500D01*
X16074110Y-500500D01*
X16205890Y-500500D01*
X16205892Y-500500D01*
X16333186Y-466392D01*
X16333188Y-466390D01*
X16333190Y-466390D01*
X16447309Y-400503D01*
X16447309Y-400502D01*
X16447314Y-400500D01*
X16447317Y-400496D01*
X16452460Y-396551D01*
X16453818Y-398321D01*
X16499513Y-375040D01*
X16559945Y-384611D01*
X16577124Y-397092D01*
X16577540Y-396551D01*
X16582690Y-400503D01*
X16696810Y-466390D01*
X16696808Y-466390D01*
X16696812Y-466391D01*
X16696814Y-466392D01*
X16824108Y-500500D01*
X16824110Y-500500D01*
X16955890Y-500500D01*
X16955892Y-500500D01*
X17083186Y-466392D01*
X17083188Y-466390D01*
X17083190Y-466390D01*
X17197309Y-400503D01*
X17197309Y-400502D01*
X17197314Y-400500D01*
X17290500Y-307314D01*
X17312386Y-269407D01*
X17356390Y-193190D01*
X17356390Y-193188D01*
X17356392Y-193186D01*
X17390500Y-65892D01*
X17390500Y65892D01*
X17356392Y193186D01*
X17347315Y208907D01*
X17290503Y307309D01*
X17290502Y307309D01*
X17290500Y307314D01*
X17197314Y400500D01*
X17083189Y466390D01*
X17083188Y466390D01*
X17083186Y466392D01*
X16955892Y500500D01*
X16824108Y500500D01*
X16696814Y466392D01*
X16696811Y466390D01*
X16696809Y466390D01*
X16582690Y400503D01*
X16577540Y396551D01*
X16576181Y398321D01*
X16530487Y375040D01*
X16470055Y384611D01*
X16452875Y397092D01*
X16452460Y396551D01*
X16447317Y400496D01*
X16447314Y400500D01*
X16333189Y466390D01*
X16333188Y466390D01*
X16333186Y466392D01*
X16205892Y500500D01*
X16074108Y500500D01*
X15946814Y466392D01*
X15946811Y466390D01*
X15946809Y466390D01*
X15832690Y400503D01*
X15827540Y396551D01*
X15826181Y398321D01*
X15780487Y375040D01*
X15720055Y384611D01*
X15702875Y397092D01*
X15702460Y396551D01*
X15697317Y400496D01*
X15697314Y400500D01*
X15583189Y466390D01*
X15583188Y466390D01*
X15583186Y466392D01*
X15455892Y500500D01*
X15324108Y500500D01*
X15196814Y466392D01*
X15196811Y466390D01*
X15196809Y466390D01*
X15082690Y400503D01*
X15077540Y396551D01*
X15076181Y398321D01*
X15030487Y375040D01*
X14970055Y384611D01*
X14952875Y397092D01*
X14952460Y396551D01*
X14947317Y400496D01*
X14947314Y400500D01*
X14833189Y466390D01*
X14833188Y466390D01*
X14833186Y466392D01*
X14705892Y500500D01*
X14574108Y500500D01*
X14446814Y466392D01*
X14446811Y466390D01*
X14446809Y466390D01*
X14332690Y400503D01*
X14327540Y396551D01*
X14326181Y398321D01*
X14280487Y375040D01*
X14220055Y384611D01*
X14202875Y397092D01*
X14202460Y396551D01*
X14197317Y400496D01*
X14197314Y400500D01*
X14083189Y466390D01*
X14083188Y466390D01*
X14083186Y466392D01*
X13955892Y500500D01*
X13824108Y500500D01*
X13696814Y466392D01*
X13696811Y466390D01*
X13696809Y466390D01*
X13582690Y400503D01*
X13582688Y400501D01*
X13582686Y400500D01*
X13489500Y307314D01*
X13489498Y307311D01*
X13489496Y307309D01*
X13423609Y193190D01*
X13423608Y193186D01*
X13389500Y65892D01*
X13140500Y65892D01*
X13140500Y601000D01*
X13159407Y659191D01*
X13208907Y695155D01*
X13239500Y700000D01*
X17540500Y700000D01*
X17598691Y681093D01*
G37*
%TD.AperFunction*%
%TA.AperFunction,Conductor*%
G36*
X37733691Y-25428607D02*
G01*
X37769655Y-25478107D01*
X37774500Y-25508700D01*
X37774500Y-26091148D01*
X37784641Y-26175591D01*
X37837634Y-26309972D01*
X37837635Y-26309974D01*
X37837636Y-26309975D01*
X37924922Y-26425078D01*
X38040025Y-26512364D01*
X38040027Y-26512364D01*
X38040030Y-26512367D01*
X38044190Y-26514706D01*
X38085646Y-26559707D01*
X38092734Y-26620480D01*
X38062746Y-26673813D01*
X38007137Y-26699334D01*
X37995669Y-26700000D01*
X33554331Y-26700000D01*
X33496140Y-26681093D01*
X33460176Y-26631593D01*
X33460176Y-26570407D01*
X33496140Y-26520907D01*
X33505810Y-26514706D01*
X33509969Y-26512367D01*
X33509970Y-26512365D01*
X33509975Y-26512364D01*
X33625078Y-26425078D01*
X33712364Y-26309975D01*
X33765359Y-26175590D01*
X33775500Y-26091144D01*
X33775500Y-25656901D01*
X33794407Y-25598710D01*
X33804496Y-25586897D01*
X33952697Y-25438696D01*
X34007214Y-25410919D01*
X34022701Y-25409700D01*
X37675500Y-25409700D01*
X37733691Y-25428607D01*
G37*
%TD.AperFunction*%
%TD*%
M02*
