%TF.GenerationSoftware,KiCad,Pcbnew,10.0.5*%
%TF.CreationDate,2026-09-12T13:41:43-04:00*%
%TF.ProjectId,Symm60HE-Neo-Centre-Family-Panel,53796d6d-3630-4484-952d-4e656f2d4365,rev?*%
%TF.SameCoordinates,Original*%
%TF.FileFunction,Soldermask,Top*%
%TF.FilePolarity,Negative*%
%FSLAX46Y46*%
G04 Gerber Fmt 4.6, Leading zero omitted, Abs format (unit mm)*
G04 Created by KiCad (PCBNEW 10.0.5) date 2026-09-12 13:41:43*
%MOMM*%
%LPD*%
G01*
G04 APERTURE LIST*
G04 Aperture macros list*
%AMRoundRect*
0 Rectangle with rounded corners*
0 $1 Rounding radius*
0 $2 $3 $4 $5 $6 $7 $8 $9 X,Y pos of 4 corners*
0 Add a 4 corners polygon primitive as box body*
4,1,4,$2,$3,$4,$5,$6,$7,$8,$9,$2,$3,0*
0 Add four circle primitives for the rounded corners*
1,1,$1+$1,$2,$3*
1,1,$1+$1,$4,$5*
1,1,$1+$1,$6,$7*
1,1,$1+$1,$8,$9*
0 Add four rect primitives between the rounded corners*
20,1,$1+$1,$2,$3,$4,$5,0*
20,1,$1+$1,$4,$5,$6,$7,0*
20,1,$1+$1,$6,$7,$8,$9,0*
20,1,$1+$1,$8,$9,$2,$3,0*%
G04 Aperture macros list end*
%ADD10C,2.000000*%
%ADD11RoundRect,0.225000X-0.225000X-0.250000X0.225000X-0.250000X0.225000X0.250000X-0.225000X0.250000X0*%
%ADD12RoundRect,0.135000X-0.135000X-0.185000X0.135000X-0.185000X0.135000X0.185000X-0.135000X0.185000X0*%
%ADD13RoundRect,0.150000X-0.512500X-0.150000X0.512500X-0.150000X0.512500X0.150000X-0.512500X0.150000X0*%
%ADD14C,0.650000*%
%ADD15RoundRect,0.150000X0.150000X0.575000X-0.150000X0.575000X-0.150000X-0.575000X0.150000X-0.575000X0*%
%ADD16RoundRect,0.075000X0.075000X0.650000X-0.075000X0.650000X-0.075000X-0.650000X0.075000X-0.650000X0*%
%ADD17O,1.000000X2.100000*%
%ADD18O,1.000000X1.600000*%
%ADD19RoundRect,0.150000X0.950000X-0.150000X0.950000X0.150000X-0.950000X0.150000X-0.950000X-0.150000X0*%
%ADD20RoundRect,0.360000X0.940000X-0.540000X0.940000X0.540000X-0.940000X0.540000X-0.940000X-0.540000X0*%
%ADD21C,2.200000*%
%ADD22RoundRect,0.243750X-0.243750X-0.456250X0.243750X-0.456250X0.243750X0.456250X-0.243750X0.456250X0*%
%ADD23RoundRect,0.250000X-0.450000X-0.350000X0.450000X-0.350000X0.450000X0.350000X-0.450000X0.350000X0*%
%ADD24R,1.000000X0.750000*%
%ADD25RoundRect,0.150000X-0.950000X0.150000X-0.950000X-0.150000X0.950000X-0.150000X0.950000X0.150000X0*%
%ADD26RoundRect,0.360000X-0.940000X0.540000X-0.940000X-0.540000X0.940000X-0.540000X0.940000X0.540000X0*%
%ADD27RoundRect,0.075000X-0.700000X-0.075000X0.700000X-0.075000X0.700000X0.075000X-0.700000X0.075000X0*%
%ADD28RoundRect,0.075000X-0.075000X-0.700000X0.075000X-0.700000X0.075000X0.700000X-0.075000X0.700000X0*%
%ADD29RoundRect,0.150000X-0.150000X-0.950000X0.150000X-0.950000X0.150000X0.950000X-0.150000X0.950000X0*%
%ADD30RoundRect,0.360000X-0.540000X-0.940000X0.540000X-0.940000X0.540000X0.940000X-0.540000X0.940000X0*%
%ADD31C,0.960000*%
%ADD32C,0.500000*%
G04 APERTURE END LIST*
D10*
%TO.C,CTL-FIDF3*%
X54291000Y-26963300D03*
%TD*%
D11*
%TO.C,CTL-C1*%
X46725000Y-8500000D03*
X48275000Y-8500000D03*
%TD*%
D12*
%TO.C,CTL-R3*%
X38990000Y-23000000D03*
X40010000Y-23000000D03*
%TD*%
%TO.C,CTL-R1*%
X35990000Y-15000000D03*
X37010000Y-15000000D03*
%TD*%
%TO.C,CTL-R2*%
X31990000Y-11000000D03*
X33010000Y-11000000D03*
%TD*%
D13*
%TO.C,CTL-U2*%
X36862500Y-10550000D03*
X36862500Y-11500000D03*
X36862500Y-12450000D03*
X39137500Y-12450000D03*
X39137500Y-11500000D03*
X39137500Y-10550000D03*
%TD*%
D14*
%TO.C,CTL-J1*%
X40390000Y-6250000D03*
X34610000Y-6250000D03*
D15*
X40750000Y-7695000D03*
X39950000Y-7695000D03*
D16*
X38750000Y-7695000D03*
X37750000Y-7695000D03*
X37250000Y-7695000D03*
X36250000Y-7695000D03*
D15*
X35050000Y-7695000D03*
X34250000Y-7695000D03*
X34250000Y-7695000D03*
X35050000Y-7695000D03*
D16*
X35750000Y-7695000D03*
X36750000Y-7695000D03*
X38250000Y-7695000D03*
X39250000Y-7695000D03*
D15*
X39950000Y-7695000D03*
X40750000Y-7695000D03*
D17*
X41820000Y-6780000D03*
D18*
X41820000Y-2600000D03*
D17*
X33180000Y-6780000D03*
D18*
X33180000Y-2600000D03*
%TD*%
D11*
%TO.C,CTL-C2*%
X45725000Y-21000000D03*
X47275000Y-21000000D03*
%TD*%
D19*
%TO.C,CTL-J3*%
X53100000Y-22500000D03*
X53100000Y-21500000D03*
X53100000Y-20500000D03*
X53100000Y-19500000D03*
X53100000Y-18500000D03*
X53100000Y-17500000D03*
X53100000Y-16500000D03*
X53100000Y-15500000D03*
X53100000Y-14500000D03*
X53100000Y-13500000D03*
X53100000Y-12500000D03*
X53100000Y-11500000D03*
D20*
X55300000Y-24800000D03*
X55300000Y-9200000D03*
%TD*%
D21*
%TO.C,CTL-MHD1*%
X4500000Y-4000000D03*
%TD*%
D22*
%TO.C,CTL-F1*%
X44562500Y-5000000D03*
X46437500Y-5000000D03*
%TD*%
D23*
%TO.C,CTL-Y1*%
X14900000Y-16850000D03*
X17100000Y-16850000D03*
X17100000Y-15150000D03*
X14900000Y-15150000D03*
%TD*%
D21*
%TO.C,CTL-MHD2*%
X52500000Y-4000000D03*
%TD*%
D13*
%TO.C,CTL-U4*%
X14862500Y-20050000D03*
X14862500Y-21950000D03*
X17137500Y-21000000D03*
%TD*%
D10*
%TO.C,CTL-FIDF2*%
X25291000Y-2763300D03*
%TD*%
D24*
%TO.C,CTL-SW1*%
X13000000Y-3125000D03*
X19000000Y-3125000D03*
X13000000Y-6875000D03*
X19000000Y-6875000D03*
%TD*%
D25*
%TO.C,CTL-J2*%
X3900000Y-11500000D03*
X3900000Y-12500000D03*
X3900000Y-13500000D03*
X3900000Y-14500000D03*
X3900000Y-15500000D03*
X3900000Y-16500000D03*
X3900000Y-17500000D03*
X3900000Y-18500000D03*
X3900000Y-19500000D03*
X3900000Y-20500000D03*
X3900000Y-21500000D03*
X3900000Y-22500000D03*
D26*
X1700000Y-9200000D03*
X1700000Y-24800000D03*
%TD*%
D13*
%TO.C,CTL-U3*%
X42862500Y-10550000D03*
X42862500Y-11500000D03*
X42862500Y-12450000D03*
X45137500Y-12450000D03*
X45137500Y-10550000D03*
%TD*%
D27*
%TO.C,CTL-U1*%
X21325000Y-13250000D03*
X21325000Y-13750000D03*
X21325000Y-14250000D03*
X21325000Y-14750000D03*
X21325000Y-15250000D03*
X21325000Y-15750000D03*
X21325000Y-16250000D03*
X21325000Y-16750000D03*
X21325000Y-17250000D03*
X21325000Y-17750000D03*
X21325000Y-18250000D03*
X21325000Y-18750000D03*
X21325000Y-19250000D03*
X21325000Y-19750000D03*
X21325000Y-20250000D03*
X21325000Y-20750000D03*
D28*
X23250000Y-22675000D03*
X23750000Y-22675000D03*
X24250000Y-22675000D03*
X24750000Y-22675000D03*
X25250000Y-22675000D03*
X25750000Y-22675000D03*
X26250000Y-22675000D03*
X26750000Y-22675000D03*
X27250000Y-22675000D03*
X27750000Y-22675000D03*
X28250000Y-22675000D03*
X28750000Y-22675000D03*
X29250000Y-22675000D03*
X29750000Y-22675000D03*
X30250000Y-22675000D03*
X30750000Y-22675000D03*
D27*
X32675000Y-20750000D03*
X32675000Y-20250000D03*
X32675000Y-19750000D03*
X32675000Y-19250000D03*
X32675000Y-18750000D03*
X32675000Y-18250000D03*
X32675000Y-17750000D03*
X32675000Y-17250000D03*
X32675000Y-16750000D03*
X32675000Y-16250000D03*
X32675000Y-15750000D03*
X32675000Y-15250000D03*
X32675000Y-14750000D03*
X32675000Y-14250000D03*
X32675000Y-13750000D03*
X32675000Y-13250000D03*
D28*
X30750000Y-11325000D03*
X30250000Y-11325000D03*
X29750000Y-11325000D03*
X29250000Y-11325000D03*
X28750000Y-11325000D03*
X28250000Y-11325000D03*
X27750000Y-11325000D03*
X27250000Y-11325000D03*
X26750000Y-11325000D03*
X26250000Y-11325000D03*
X25750000Y-11325000D03*
X25250000Y-11325000D03*
X24750000Y-11325000D03*
X24250000Y-11325000D03*
X23750000Y-11325000D03*
X23250000Y-11325000D03*
%TD*%
D24*
%TO.C,CTL-SW2*%
X9000000Y-9125000D03*
X15000000Y-9125000D03*
X9000000Y-12875000D03*
X15000000Y-12875000D03*
%TD*%
D10*
%TO.C,CTL-FIDF1*%
X9291000Y-4763300D03*
%TD*%
D29*
%TO.C,LS-JF1*%
X4500000Y-43900000D03*
X5500000Y-43900000D03*
X6500000Y-43900000D03*
X7500000Y-43900000D03*
X8500000Y-43900000D03*
X9500000Y-43900000D03*
X10500000Y-43900000D03*
X11500000Y-43900000D03*
X12500000Y-43900000D03*
X13500000Y-43900000D03*
X14500000Y-43900000D03*
X15500000Y-43900000D03*
D30*
X2200000Y-46100000D03*
X17800000Y-46100000D03*
%TD*%
D31*
%TO.C,LS-PS1*%
X16985000Y-35000000D03*
X15715000Y-35000000D03*
X14445000Y-35000000D03*
X13175000Y-35000000D03*
X11905000Y-35000000D03*
X10635000Y-35000000D03*
X9365000Y-35000000D03*
X8095000Y-35000000D03*
X6825000Y-35000000D03*
X5555000Y-35000000D03*
X4285000Y-35000000D03*
X3015000Y-35000000D03*
%TD*%
%TO.C,RS-PS1*%
X40015000Y-35000000D03*
X41285000Y-35000000D03*
X42555000Y-35000000D03*
X43825000Y-35000000D03*
X45095000Y-35000000D03*
X46365000Y-35000000D03*
X47635000Y-35000000D03*
X48905000Y-35000000D03*
X50175000Y-35000000D03*
X51445000Y-35000000D03*
X52715000Y-35000000D03*
X53985000Y-35000000D03*
%TD*%
D29*
%TO.C,RS-JF1*%
X41500000Y-43900000D03*
X42500000Y-43900000D03*
X43500000Y-43900000D03*
X44500000Y-43900000D03*
X45500000Y-43900000D03*
X46500000Y-43900000D03*
X47500000Y-43900000D03*
X48500000Y-43900000D03*
X49500000Y-43900000D03*
X50500000Y-43900000D03*
X51500000Y-43900000D03*
X52500000Y-43900000D03*
D30*
X39200000Y-46100000D03*
X54800000Y-46100000D03*
%TD*%
D32*
%TO.C,MB1*%
X13890000Y0D03*
%TD*%
%TO.C,MB2*%
X14640000Y0D03*
%TD*%
%TO.C,MB3*%
X15390000Y0D03*
%TD*%
%TO.C,MB4*%
X16140000Y0D03*
%TD*%
%TO.C,MB5*%
X16890000Y0D03*
%TD*%
%TO.C,MB6*%
X40110000Y0D03*
%TD*%
%TO.C,MB7*%
X40860000Y0D03*
%TD*%
%TO.C,MB8*%
X41610000Y0D03*
%TD*%
%TO.C,MB9*%
X42360000Y0D03*
%TD*%
%TO.C,MB10*%
X43110000Y0D03*
%TD*%
%TO.C,MB11*%
X0Y-12500000D03*
%TD*%
%TO.C,MB12*%
X0Y-13250000D03*
%TD*%
%TO.C,MB13*%
X0Y-14000000D03*
%TD*%
%TO.C,MB14*%
X0Y-14750000D03*
%TD*%
%TO.C,MB15*%
X0Y-15500000D03*
%TD*%
%TO.C,MB16*%
X57000000Y-12500000D03*
%TD*%
%TO.C,MB17*%
X57000000Y-13250000D03*
%TD*%
%TO.C,MB18*%
X57000000Y-14000000D03*
%TD*%
%TO.C,MB19*%
X57000000Y-14750000D03*
%TD*%
%TO.C,MB20*%
X57000000Y-15500000D03*
%TD*%
%TO.C,MB21*%
X4100000Y-50000000D03*
%TD*%
%TO.C,MB22*%
X4850000Y-50000000D03*
%TD*%
%TO.C,MB23*%
X5600000Y-50000000D03*
%TD*%
%TO.C,MB24*%
X6350000Y-50000000D03*
%TD*%
%TO.C,MB25*%
X7100000Y-50000000D03*
%TD*%
%TO.C,MB26*%
X12900000Y-50000000D03*
%TD*%
%TO.C,MB27*%
X13650000Y-50000000D03*
%TD*%
%TO.C,MB28*%
X14400000Y-50000000D03*
%TD*%
%TO.C,MB29*%
X15150000Y-50000000D03*
%TD*%
%TO.C,MB30*%
X15900000Y-50000000D03*
%TD*%
%TO.C,MB31*%
X0Y-38500000D03*
%TD*%
%TO.C,MB32*%
X0Y-39250000D03*
%TD*%
%TO.C,MB33*%
X0Y-40000000D03*
%TD*%
%TO.C,MB34*%
X0Y-40750000D03*
%TD*%
%TO.C,MB35*%
X0Y-41500000D03*
%TD*%
%TO.C,MB36*%
X41100000Y-50000000D03*
%TD*%
%TO.C,MB37*%
X41850000Y-50000000D03*
%TD*%
%TO.C,MB38*%
X42600000Y-50000000D03*
%TD*%
%TO.C,MB39*%
X43350000Y-50000000D03*
%TD*%
%TO.C,MB40*%
X44100000Y-50000000D03*
%TD*%
%TO.C,MB41*%
X49900000Y-50000000D03*
%TD*%
%TO.C,MB42*%
X50650000Y-50000000D03*
%TD*%
%TO.C,MB43*%
X51400000Y-50000000D03*
%TD*%
%TO.C,MB44*%
X52150000Y-50000000D03*
%TD*%
%TO.C,MB45*%
X52900000Y-50000000D03*
%TD*%
%TO.C,MB46*%
X57000000Y-38500000D03*
%TD*%
%TO.C,MB47*%
X57000000Y-39250000D03*
%TD*%
%TO.C,MB48*%
X57000000Y-40000000D03*
%TD*%
%TO.C,MB49*%
X57000000Y-40750000D03*
%TD*%
%TO.C,MB50*%
X57000000Y-41500000D03*
%TD*%
D10*
%TO.C,FIDF1*%
X-4350000Y4350000D03*
%TD*%
%TO.C,FIDF2*%
X61350000Y4350000D03*
%TD*%
%TO.C,FIDF3*%
X-4350000Y-54350000D03*
%TD*%
%TO.C,TH1*%
X-5700000Y-11720000D03*
%TD*%
%TO.C,TH2*%
X62700000Y-11720000D03*
%TD*%
%TO.C,TH3*%
X-5700000Y-38280000D03*
%TD*%
%TO.C,TH4*%
X62700000Y-38280000D03*
%TD*%
M02*
