%TF.GenerationSoftware,KiCad,Pcbnew,10.0.5*%
%TF.CreationDate,2026-09-13T13:36:56-04:00*%
%TF.ProjectId,Symm60HE-Neo-Centre-Family-Panel,53796d6d-3630-4484-952d-4e656f2d4365,rev?*%
%TF.SameCoordinates,Original*%
%TF.FileFunction,Legend,Bot*%
%TF.FilePolarity,Positive*%
%FSLAX46Y46*%
G04 Gerber Fmt 4.6, Leading zero omitted, Abs format (unit mm)*
G04 Created by KiCad (PCBNEW 10.0.5) date 2026-09-13 13:36:56*
%MOMM*%
%LPD*%
G01*
G04 APERTURE LIST*
G04 Aperture macros list*
%AMRoundRect*
0 Rectangle with rounded corners*
0 $1 Rounding radius*
0 $2 $3 $4 $5 $6 $7 $8 $9 X,Y pos of 4 corners*
0 Add a 4 corners polygon primitive as box body*
4,1,4,$2,$3,$4,$5,$6,$7,$8,$9,$2,$3,0*
0 Add four circle primitives for the rounded corners*
1,1,$1+$1,$2,$3*
1,1,$1+$1,$4,$5*
1,1,$1+$1,$6,$7*
1,1,$1+$1,$8,$9*
0 Add four rect primitives between the rounded corners*
20,1,$1+$1,$2,$3,$4,$5,0*
20,1,$1+$1,$4,$5,$6,$7,0*
20,1,$1+$1,$6,$7,$8,$9,0*
20,1,$1+$1,$8,$9,$2,$3,0*%
G04 Aperture macros list end*
%ADD10C,0.650000*%
%ADD11O,1.000000X2.100000*%
%ADD12O,1.000000X1.600000*%
%ADD13C,2.200000*%
%ADD14RoundRect,0.140000X-0.140000X-0.170000X0.140000X-0.170000X0.140000X0.170000X-0.140000X0.170000X0*%
%ADD15C,2.000000*%
%ADD16RoundRect,0.225000X-0.225000X-0.250000X0.225000X-0.250000X0.225000X0.250000X-0.225000X0.250000X0*%
%ADD17RoundRect,0.135000X0.185000X-0.135000X0.185000X0.135000X-0.185000X0.135000X-0.185000X-0.135000X0*%
%ADD18RoundRect,0.150000X-0.150000X-0.950000X0.150000X-0.950000X0.150000X0.950000X-0.150000X0.950000X0*%
%ADD19RoundRect,0.360000X-0.540000X-0.940000X0.540000X-0.940000X0.540000X0.940000X-0.540000X0.940000X0*%
%ADD20C,0.500000*%
G04 APERTURE END LIST*
%LPC*%
D10*
%TO.C,CTL-J1*%
X40390000Y-6250000D03*
X34610000Y-6250000D03*
D11*
X41820000Y-6780000D03*
D12*
X41820000Y-2600000D03*
D11*
X33180000Y-6780000D03*
D12*
X33180000Y-2600000D03*
%TD*%
D13*
%TO.C,CTL-MHD1*%
X4500000Y-4000000D03*
%TD*%
%TO.C,CTL-MHD2*%
X52500000Y-4000000D03*
%TD*%
D14*
%TO.C,CTL-C4*%
X26820000Y-26800000D03*
X27780000Y-26800000D03*
%TD*%
D15*
%TO.C,CTL-FIDB1*%
X9291000Y-4763300D03*
%TD*%
D14*
%TO.C,CTL-C11*%
X28820000Y-26800000D03*
X29780000Y-26800000D03*
%TD*%
D16*
%TO.C,CTL-C12*%
X47525000Y-10800000D03*
X49075000Y-10800000D03*
%TD*%
%TO.C,CTL-C14*%
X18525000Y-25800000D03*
X20075000Y-25800000D03*
%TD*%
D14*
%TO.C,CTL-C7*%
X21620000Y-10400000D03*
X22580000Y-10400000D03*
%TD*%
D16*
%TO.C,CTL-C15*%
X38525000Y-26800000D03*
X40075000Y-26800000D03*
%TD*%
D15*
%TO.C,CTL-FIDB3*%
X54291000Y-26963300D03*
%TD*%
D16*
%TO.C,CTL-C13*%
X45725000Y-8500000D03*
X47275000Y-8500000D03*
%TD*%
D15*
%TO.C,CTL-FIDB2*%
X25291000Y-2763300D03*
%TD*%
D14*
%TO.C,CTL-C5*%
X21820000Y-12400000D03*
X22780000Y-12400000D03*
%TD*%
%TO.C,CTL-C3*%
X24820000Y-26800000D03*
X25780000Y-26800000D03*
%TD*%
D16*
%TO.C,CTL-C8*%
X34025000Y-16800000D03*
X35575000Y-16800000D03*
%TD*%
D14*
%TO.C,CTL-C6*%
X33620000Y-19300000D03*
X34580000Y-19300000D03*
%TD*%
D16*
%TO.C,CTL-C10*%
X33025000Y-26800000D03*
X34575000Y-26800000D03*
%TD*%
D14*
%TO.C,CTL-C9*%
X30820000Y-26800000D03*
X31780000Y-26800000D03*
%TD*%
D17*
%TO.C,CTL-R4*%
X22100000Y-9510000D03*
X22100000Y-8490000D03*
%TD*%
D18*
%TO.C,LS-JF1*%
X4500000Y-31900000D03*
X5500000Y-31900000D03*
X6500000Y-31900000D03*
X7500000Y-31900000D03*
X8500000Y-31900000D03*
X9500000Y-31900000D03*
X10500000Y-31900000D03*
X11500000Y-31900000D03*
X12500000Y-31900000D03*
X13500000Y-31900000D03*
X14500000Y-31900000D03*
X15500000Y-31900000D03*
D19*
X2200000Y-34100000D03*
X17800000Y-34100000D03*
%TD*%
D18*
%TO.C,RS-JF1*%
X41500000Y-31900000D03*
X42500000Y-31900000D03*
X43500000Y-31900000D03*
X44500000Y-31900000D03*
X45500000Y-31900000D03*
X46500000Y-31900000D03*
X47500000Y-31900000D03*
X48500000Y-31900000D03*
X49500000Y-31900000D03*
X50500000Y-31900000D03*
X51500000Y-31900000D03*
X52500000Y-31900000D03*
D19*
X39200000Y-34100000D03*
X54800000Y-34100000D03*
%TD*%
D20*
%TO.C,MB1*%
X13890000Y0D03*
%TD*%
%TO.C,MB2*%
X14640000Y0D03*
%TD*%
%TO.C,MB3*%
X15390000Y0D03*
%TD*%
%TO.C,MB4*%
X16140000Y0D03*
%TD*%
%TO.C,MB5*%
X16890000Y0D03*
%TD*%
%TO.C,MB6*%
X40110000Y0D03*
%TD*%
%TO.C,MB7*%
X40860000Y0D03*
%TD*%
%TO.C,MB8*%
X41610000Y0D03*
%TD*%
%TO.C,MB9*%
X42360000Y0D03*
%TD*%
%TO.C,MB10*%
X43110000Y0D03*
%TD*%
%TO.C,MB11*%
X0Y-12500000D03*
%TD*%
%TO.C,MB12*%
X0Y-13250000D03*
%TD*%
%TO.C,MB13*%
X0Y-14000000D03*
%TD*%
%TO.C,MB14*%
X0Y-14750000D03*
%TD*%
%TO.C,MB15*%
X0Y-15500000D03*
%TD*%
%TO.C,MB16*%
X57000000Y-12500000D03*
%TD*%
%TO.C,MB17*%
X57000000Y-13250000D03*
%TD*%
%TO.C,MB18*%
X57000000Y-14000000D03*
%TD*%
%TO.C,MB19*%
X57000000Y-14750000D03*
%TD*%
%TO.C,MB20*%
X57000000Y-15500000D03*
%TD*%
%TO.C,MB21*%
X4100000Y-36000000D03*
%TD*%
%TO.C,MB22*%
X4850000Y-36000000D03*
%TD*%
%TO.C,MB23*%
X5600000Y-36000000D03*
%TD*%
%TO.C,MB24*%
X6350000Y-36000000D03*
%TD*%
%TO.C,MB25*%
X7100000Y-36000000D03*
%TD*%
%TO.C,MB26*%
X12900000Y-36000000D03*
%TD*%
%TO.C,MB27*%
X13650000Y-36000000D03*
%TD*%
%TO.C,MB28*%
X14400000Y-36000000D03*
%TD*%
%TO.C,MB29*%
X15150000Y-36000000D03*
%TD*%
%TO.C,MB30*%
X15900000Y-36000000D03*
%TD*%
%TO.C,MB31*%
X0Y-31500000D03*
%TD*%
%TO.C,MB32*%
X0Y-32250000D03*
%TD*%
%TO.C,MB33*%
X0Y-33000000D03*
%TD*%
%TO.C,MB34*%
X0Y-33750000D03*
%TD*%
%TO.C,MB35*%
X0Y-34500000D03*
%TD*%
%TO.C,MB36*%
X41100000Y-36000000D03*
%TD*%
%TO.C,MB37*%
X41850000Y-36000000D03*
%TD*%
%TO.C,MB38*%
X42600000Y-36000000D03*
%TD*%
%TO.C,MB39*%
X43350000Y-36000000D03*
%TD*%
%TO.C,MB40*%
X44100000Y-36000000D03*
%TD*%
%TO.C,MB41*%
X49900000Y-36000000D03*
%TD*%
%TO.C,MB42*%
X50650000Y-36000000D03*
%TD*%
%TO.C,MB43*%
X51400000Y-36000000D03*
%TD*%
%TO.C,MB44*%
X52150000Y-36000000D03*
%TD*%
%TO.C,MB45*%
X52900000Y-36000000D03*
%TD*%
%TO.C,MB46*%
X57000000Y-31500000D03*
%TD*%
%TO.C,MB47*%
X57000000Y-32250000D03*
%TD*%
%TO.C,MB48*%
X57000000Y-33000000D03*
%TD*%
%TO.C,MB49*%
X57000000Y-33750000D03*
%TD*%
%TO.C,MB50*%
X57000000Y-34500000D03*
%TD*%
D15*
%TO.C,FIDB1*%
X-4350000Y4350000D03*
%TD*%
%TO.C,FIDB2*%
X61350000Y4350000D03*
%TD*%
%TO.C,FIDB3*%
X-4350000Y-40350000D03*
%TD*%
%TO.C,TH1*%
X-5700000Y-7520000D03*
%TD*%
%TO.C,TH2*%
X62700000Y-7520000D03*
%TD*%
%TO.C,TH3*%
X-5700000Y-28480000D03*
%TD*%
%TO.C,TH4*%
X62700000Y-28480000D03*
%TD*%
%LPD*%
M02*
