%TF.GenerationSoftware,KiCad,Pcbnew,10.0.5*%
%TF.CreationDate,2026-09-13T13:36:56-04:00*%
%TF.ProjectId,Symm60HE-Neo-Centre-Family-Panel,53796d6d-3630-4484-952d-4e656f2d4365,rev?*%
%TF.SameCoordinates,Original*%
%TF.FileFunction,Paste,Bot*%
%TF.FilePolarity,Positive*%
%FSLAX46Y46*%
G04 Gerber Fmt 4.6, Leading zero omitted, Abs format (unit mm)*
G04 Created by KiCad (PCBNEW 10.0.5) date 2026-09-13 13:36:56*
%MOMM*%
%LPD*%
G01*
G04 APERTURE LIST*
G04 Aperture macros list*
%AMRoundRect*
0 Rectangle with rounded corners*
0 $1 Rounding radius*
0 $2 $3 $4 $5 $6 $7 $8 $9 X,Y pos of 4 corners*
0 Add a 4 corners polygon primitive as box body*
4,1,4,$2,$3,$4,$5,$6,$7,$8,$9,$2,$3,0*
0 Add four circle primitives for the rounded corners*
1,1,$1+$1,$2,$3*
1,1,$1+$1,$4,$5*
1,1,$1+$1,$6,$7*
1,1,$1+$1,$8,$9*
0 Add four rect primitives between the rounded corners*
20,1,$1+$1,$2,$3,$4,$5,0*
20,1,$1+$1,$4,$5,$6,$7,0*
20,1,$1+$1,$6,$7,$8,$9,0*
20,1,$1+$1,$8,$9,$2,$3,0*%
G04 Aperture macros list end*
%ADD10RoundRect,0.140000X-0.140000X-0.170000X0.140000X-0.170000X0.140000X0.170000X-0.140000X0.170000X0*%
%ADD11RoundRect,0.225000X-0.225000X-0.250000X0.225000X-0.250000X0.225000X0.250000X-0.225000X0.250000X0*%
%ADD12RoundRect,0.135000X0.185000X-0.135000X0.185000X0.135000X-0.185000X0.135000X-0.185000X-0.135000X0*%
%ADD13RoundRect,0.150000X-0.150000X-0.950000X0.150000X-0.950000X0.150000X0.950000X-0.150000X0.950000X0*%
%ADD14RoundRect,0.360000X-0.540000X-0.940000X0.540000X-0.940000X0.540000X0.940000X-0.540000X0.940000X0*%
G04 APERTURE END LIST*
D10*
%TO.C,CTL-C4*%
X26820000Y-26800000D03*
X27780000Y-26800000D03*
%TD*%
%TO.C,CTL-C11*%
X28820000Y-26800000D03*
X29780000Y-26800000D03*
%TD*%
D11*
%TO.C,CTL-C12*%
X47525000Y-10800000D03*
X49075000Y-10800000D03*
%TD*%
%TO.C,CTL-C14*%
X18525000Y-25800000D03*
X20075000Y-25800000D03*
%TD*%
D10*
%TO.C,CTL-C7*%
X21620000Y-10400000D03*
X22580000Y-10400000D03*
%TD*%
D11*
%TO.C,CTL-C15*%
X38525000Y-26800000D03*
X40075000Y-26800000D03*
%TD*%
%TO.C,CTL-C13*%
X45725000Y-8500000D03*
X47275000Y-8500000D03*
%TD*%
D10*
%TO.C,CTL-C5*%
X21820000Y-12400000D03*
X22780000Y-12400000D03*
%TD*%
%TO.C,CTL-C3*%
X24820000Y-26800000D03*
X25780000Y-26800000D03*
%TD*%
D11*
%TO.C,CTL-C8*%
X34025000Y-16800000D03*
X35575000Y-16800000D03*
%TD*%
D10*
%TO.C,CTL-C6*%
X33620000Y-19300000D03*
X34580000Y-19300000D03*
%TD*%
D11*
%TO.C,CTL-C10*%
X33025000Y-26800000D03*
X34575000Y-26800000D03*
%TD*%
D10*
%TO.C,CTL-C9*%
X30820000Y-26800000D03*
X31780000Y-26800000D03*
%TD*%
D12*
%TO.C,CTL-R4*%
X22100000Y-9510000D03*
X22100000Y-8490000D03*
%TD*%
D13*
%TO.C,LS-JF1*%
X4500000Y-31900000D03*
X5500000Y-31900000D03*
X6500000Y-31900000D03*
X7500000Y-31900000D03*
X8500000Y-31900000D03*
X9500000Y-31900000D03*
X10500000Y-31900000D03*
X11500000Y-31900000D03*
X12500000Y-31900000D03*
X13500000Y-31900000D03*
X14500000Y-31900000D03*
X15500000Y-31900000D03*
D14*
X2200000Y-34100000D03*
X17800000Y-34100000D03*
%TD*%
D13*
%TO.C,RS-JF1*%
X41500000Y-31900000D03*
X42500000Y-31900000D03*
X43500000Y-31900000D03*
X44500000Y-31900000D03*
X45500000Y-31900000D03*
X46500000Y-31900000D03*
X47500000Y-31900000D03*
X48500000Y-31900000D03*
X49500000Y-31900000D03*
X50500000Y-31900000D03*
X51500000Y-31900000D03*
X52500000Y-31900000D03*
D14*
X39200000Y-34100000D03*
X54800000Y-34100000D03*
%TD*%
M02*
