%TF.GenerationSoftware,KiCad,Pcbnew,10.0.5*%
%TF.CreationDate,2026-09-13T13:36:56-04:00*%
%TF.ProjectId,Symm60HE-Neo-Centre-Family-Panel,53796d6d-3630-4484-952d-4e656f2d4365,rev?*%
%TF.SameCoordinates,Original*%
%TF.FileFunction,Copper,L2,Bot*%
%TF.FilePolarity,Positive*%
%FSLAX46Y46*%
G04 Gerber Fmt 4.6, Leading zero omitted, Abs format (unit mm)*
G04 Created by KiCad (PCBNEW 10.0.5) date 2026-09-13 13:36:56*
%MOMM*%
%LPD*%
G01*
G04 APERTURE LIST*
G04 Aperture macros list*
%AMRoundRect*
0 Rectangle with rounded corners*
0 $1 Rounding radius*
0 $2 $3 $4 $5 $6 $7 $8 $9 X,Y pos of 4 corners*
0 Add a 4 corners polygon primitive as box body*
4,1,4,$2,$3,$4,$5,$6,$7,$8,$9,$2,$3,0*
0 Add four circle primitives for the rounded corners*
1,1,$1+$1,$2,$3*
1,1,$1+$1,$4,$5*
1,1,$1+$1,$6,$7*
1,1,$1+$1,$8,$9*
0 Add four rect primitives between the rounded corners*
20,1,$1+$1,$2,$3,$4,$5,0*
20,1,$1+$1,$4,$5,$6,$7,0*
20,1,$1+$1,$6,$7,$8,$9,0*
20,1,$1+$1,$8,$9,$2,$3,0*%
G04 Aperture macros list end*
%TA.AperFunction,ComponentPad*%
%ADD10O,1.000000X2.100000*%
%TD*%
%TA.AperFunction,ComponentPad*%
%ADD11O,1.000000X1.600000*%
%TD*%
%TA.AperFunction,SMDPad,CuDef*%
%ADD12RoundRect,0.140000X-0.140000X-0.170000X0.140000X-0.170000X0.140000X0.170000X-0.140000X0.170000X0*%
%TD*%
%TA.AperFunction,SMDPad,CuDef*%
%ADD13C,1.000000*%
%TD*%
%TA.AperFunction,SMDPad,CuDef*%
%ADD14RoundRect,0.225000X-0.225000X-0.250000X0.225000X-0.250000X0.225000X0.250000X-0.225000X0.250000X0*%
%TD*%
%TA.AperFunction,SMDPad,CuDef*%
%ADD15RoundRect,0.135000X0.185000X-0.135000X0.185000X0.135000X-0.185000X0.135000X-0.185000X-0.135000X0*%
%TD*%
%TA.AperFunction,SMDPad,CuDef*%
%ADD16RoundRect,0.150000X-0.150000X-0.950000X0.150000X-0.950000X0.150000X0.950000X-0.150000X0.950000X0*%
%TD*%
%TA.AperFunction,SMDPad,CuDef*%
%ADD17RoundRect,0.360000X-0.540000X-0.940000X0.540000X-0.940000X0.540000X0.940000X-0.540000X0.940000X0*%
%TD*%
%TA.AperFunction,ViaPad*%
%ADD18C,0.600000*%
%TD*%
%TA.AperFunction,Conductor*%
%ADD19C,0.200000*%
%TD*%
G04 APERTURE END LIST*
D10*
%TO.P,CTL-J1,SH*%
%TO.N,/CTL/GND*%
X41820000Y-6780000D03*
D11*
X41820000Y-2600000D03*
D10*
X33180000Y-6780000D03*
D11*
X33180000Y-2600000D03*
%TD*%
D12*
%TO.P,CTL-C4,1*%
%TO.N,/CTL/XTAL_OUT*%
X26820000Y-26800000D03*
%TO.P,CTL-C4,2*%
%TO.N,/CTL/GND*%
X27780000Y-26800000D03*
%TD*%
D13*
%TO.P,CTL-FIDB1,*%
%TO.N,*%
X9291000Y-4763300D03*
%TD*%
D12*
%TO.P,CTL-C11,1*%
%TO.N,/CTL/NRST*%
X28820000Y-26800000D03*
%TO.P,CTL-C11,2*%
%TO.N,/CTL/GND*%
X29780000Y-26800000D03*
%TD*%
D14*
%TO.P,CTL-C12,1*%
%TO.N,/CTL/VBUS*%
X47525000Y-10800000D03*
%TO.P,CTL-C12,2*%
%TO.N,/CTL/GND*%
X49075000Y-10800000D03*
%TD*%
%TO.P,CTL-C14,1*%
%TO.N,/CTL/+3V3D*%
X18525000Y-25800000D03*
%TO.P,CTL-C14,2*%
%TO.N,/CTL/GND*%
X20075000Y-25800000D03*
%TD*%
D12*
%TO.P,CTL-C7,1*%
%TO.N,/CTL/+3V3D*%
X21620000Y-10400000D03*
%TO.P,CTL-C7,2*%
%TO.N,/CTL/GND*%
X22580000Y-10400000D03*
%TD*%
D14*
%TO.P,CTL-C15,1*%
%TO.N,/CTL/+3V3A*%
X38525000Y-26800000D03*
%TO.P,CTL-C15,2*%
%TO.N,/CTL/GND*%
X40075000Y-26800000D03*
%TD*%
D13*
%TO.P,CTL-FIDB3,*%
%TO.N,*%
X54291000Y-26963300D03*
%TD*%
D14*
%TO.P,CTL-C13,1*%
%TO.N,/CTL/+3V3D*%
X45725000Y-8500000D03*
%TO.P,CTL-C13,2*%
%TO.N,/CTL/GND*%
X47275000Y-8500000D03*
%TD*%
D13*
%TO.P,CTL-FIDB2,*%
%TO.N,*%
X25291000Y-2763300D03*
%TD*%
D12*
%TO.P,CTL-C5,1*%
%TO.N,/CTL/+3V3D*%
X21820000Y-12400000D03*
%TO.P,CTL-C5,2*%
%TO.N,/CTL/GND*%
X22780000Y-12400000D03*
%TD*%
%TO.P,CTL-C3,1*%
%TO.N,/CTL/XTAL_IN*%
X24820000Y-26800000D03*
%TO.P,CTL-C3,2*%
%TO.N,/CTL/GND*%
X25780000Y-26800000D03*
%TD*%
D14*
%TO.P,CTL-C8,1*%
%TO.N,/CTL/+3V3D*%
X34025000Y-16800000D03*
%TO.P,CTL-C8,2*%
%TO.N,/CTL/GND*%
X35575000Y-16800000D03*
%TD*%
D12*
%TO.P,CTL-C6,1*%
%TO.N,/CTL/+3V3D*%
X33620000Y-19300000D03*
%TO.P,CTL-C6,2*%
%TO.N,/CTL/GND*%
X34580000Y-19300000D03*
%TD*%
D14*
%TO.P,CTL-C10,1*%
%TO.N,/CTL/+3V3A*%
X33025000Y-26800000D03*
%TO.P,CTL-C10,2*%
%TO.N,/CTL/GND*%
X34575000Y-26800000D03*
%TD*%
D12*
%TO.P,CTL-C9,1*%
%TO.N,/CTL/+3V3A*%
X30820000Y-26800000D03*
%TO.P,CTL-C9,2*%
%TO.N,/CTL/GND*%
X31780000Y-26800000D03*
%TD*%
D15*
%TO.P,CTL-R4,1*%
%TO.N,/CTL/BOOT0*%
X22100000Y-9510000D03*
%TO.P,CTL-R4,2*%
%TO.N,/CTL/GND*%
X22100000Y-8490000D03*
%TD*%
D16*
%TO.P,LS-JF1,1*%
%TO.N,/LS/+3V3A*%
X4500000Y-31900000D03*
%TO.P,LS-JF1,2*%
%TO.N,/LS/GND*%
X5500000Y-31900000D03*
%TO.P,LS-JF1,3*%
%TO.N,/LS/MUX_A0*%
X6500000Y-31900000D03*
%TO.P,LS-JF1,4*%
%TO.N,/LS/MUX_A1*%
X7500000Y-31900000D03*
%TO.P,LS-JF1,5*%
%TO.N,/LS/MUX_A2*%
X8500000Y-31900000D03*
%TO.P,LS-JF1,6*%
%TO.N,/LS/GND*%
X9500000Y-31900000D03*
%TO.P,LS-JF1,7*%
%TO.N,/LS/ADC_L1*%
X10500000Y-31900000D03*
%TO.P,LS-JF1,8*%
%TO.N,/LS/GND*%
X11500000Y-31900000D03*
%TO.P,LS-JF1,9*%
%TO.N,/LS/ADC_L2*%
X12500000Y-31900000D03*
%TO.P,LS-JF1,10*%
%TO.N,/LS/GND*%
X13500000Y-31900000D03*
%TO.P,LS-JF1,11*%
%TO.N,/LS/ADC_L3*%
X14500000Y-31900000D03*
%TO.P,LS-JF1,12*%
%TO.N,/LS/ADC_L4*%
X15500000Y-31900000D03*
D17*
%TO.P,LS-JF1,MP*%
%TO.N,N/C*%
X2200000Y-34100000D03*
X17800000Y-34100000D03*
%TD*%
D16*
%TO.P,RS-JF1,1*%
%TO.N,/RS/+3V3A*%
X41500000Y-31900000D03*
%TO.P,RS-JF1,2*%
%TO.N,/RS/GND*%
X42500000Y-31900000D03*
%TO.P,RS-JF1,3*%
%TO.N,/RS/MUX_A0*%
X43500000Y-31900000D03*
%TO.P,RS-JF1,4*%
%TO.N,/RS/MUX_A1*%
X44500000Y-31900000D03*
%TO.P,RS-JF1,5*%
%TO.N,/RS/MUX_A2*%
X45500000Y-31900000D03*
%TO.P,RS-JF1,6*%
%TO.N,/RS/GND*%
X46500000Y-31900000D03*
%TO.P,RS-JF1,7*%
%TO.N,/RS/ADC_R1*%
X47500000Y-31900000D03*
%TO.P,RS-JF1,8*%
%TO.N,/RS/GND*%
X48500000Y-31900000D03*
%TO.P,RS-JF1,9*%
%TO.N,/RS/ADC_R2*%
X49500000Y-31900000D03*
%TO.P,RS-JF1,10*%
%TO.N,/RS/GND*%
X50500000Y-31900000D03*
%TO.P,RS-JF1,11*%
%TO.N,/RS/ADC_R3*%
X51500000Y-31900000D03*
%TO.P,RS-JF1,12*%
%TO.N,/RS/ADC_R4*%
X52500000Y-31900000D03*
D17*
%TO.P,RS-JF1,MP*%
%TO.N,N/C*%
X39200000Y-34100000D03*
X54800000Y-34100000D03*
%TD*%
D13*
%TO.P,FIDB1,*%
%TO.N,*%
X-4350000Y4350000D03*
%TD*%
%TO.P,FIDB2,*%
%TO.N,*%
X61350000Y4350000D03*
%TD*%
%TO.P,FIDB3,*%
%TO.N,*%
X-4350000Y-40350000D03*
%TD*%
D18*
%TO.N,/CTL/VBUS*%
X46163700Y-9448800D03*
%TO.N,/CTL/GND*%
X41328900Y-11500000D03*
X29812700Y-23960000D03*
%TO.N,/CTL/CC2*%
X36097600Y-8882300D03*
X37729400Y-21915500D03*
%TO.N,/CTL/CC1*%
X33540800Y-9736700D03*
X38541600Y-6517500D03*
%TO.N,/CTL/USB_DP*%
X35947900Y-9931500D03*
X34612600Y-14962200D03*
%TO.N,/CTL/USB_DM*%
X38000000Y-12321100D03*
X37711200Y-14369300D03*
X38250000Y-8907400D03*
%TO.N,/CTL/+3V3D*%
X33913400Y-18504700D03*
X44379000Y-11303800D03*
X40278000Y-20437100D03*
X18772900Y-21043000D03*
%TO.N,/CTL/MUX_A2*%
X9743500Y-18500000D03*
X19311100Y-18189700D03*
%TO.N,/CTL/MUX_A1*%
X10196800Y-19130800D03*
X48415200Y-14182600D03*
X27006100Y-17665200D03*
%TO.N,/CTL/MUX_A0*%
X18325500Y-17250000D03*
X11355900Y-20077800D03*
%TO.N,/CTL/+3V3A*%
X26980800Y-19250000D03*
X52154600Y-11500000D03*
%TO.N,/CTL/XTAL_IN*%
X20092000Y-15247400D03*
%TO.N,/CTL/XTAL_OUT*%
X23304200Y-15695400D03*
%TO.N,/CTL/BOOT0*%
X25027500Y-10076100D03*
X19395500Y-3957900D03*
%TO.N,/CTL/ADC_L4*%
X25598800Y-21447400D03*
X17127000Y-11500000D03*
%TO.N,/CTL/ADC_L3*%
X5139900Y-12500000D03*
X16004700Y-21949500D03*
%TO.N,/CTL/ADC_L1*%
X14110600Y-18121400D03*
X17235000Y-22375100D03*
%TO.N,/CTL/NRST*%
X23276500Y-14889100D03*
X17644500Y-9407000D03*
%TO.N,/LS/ADC_L4*%
X15500000Y-30800000D03*
%TO.N,/LS/ADC_L3*%
X14500000Y-30800000D03*
%TO.N,/LS/GND*%
X11500000Y-34400000D03*
X5500000Y-34400000D03*
X9500000Y-34400000D03*
X13500000Y-34400000D03*
%TO.N,/LS/ADC_L2*%
X12500000Y-30800000D03*
%TO.N,/LS/ADC_L1*%
X10500000Y-30800000D03*
%TO.N,/LS/MUX_A2*%
X8500000Y-30800000D03*
%TO.N,/LS/MUX_A1*%
X7500000Y-30800000D03*
%TO.N,/LS/MUX_A0*%
X6500000Y-30800000D03*
%TO.N,/LS/+3V3A*%
X4500000Y-30800000D03*
%TO.N,/RS/+3V3A*%
X41500000Y-30800000D03*
%TO.N,/RS/GND*%
X48500000Y-34400000D03*
X50500000Y-34400000D03*
X42500000Y-34400000D03*
X46500000Y-34400000D03*
%TO.N,/RS/MUX_A0*%
X43500000Y-30800000D03*
%TO.N,/RS/MUX_A1*%
X44500000Y-30800000D03*
%TO.N,/RS/MUX_A2*%
X45500000Y-30800000D03*
%TO.N,/RS/ADC_R1*%
X47500000Y-30800000D03*
%TO.N,/RS/ADC_R2*%
X49500000Y-30800000D03*
%TO.N,/RS/ADC_R3*%
X51500000Y-30800000D03*
%TO.N,/RS/ADC_R4*%
X52500000Y-30800000D03*
%TD*%
%TO.N,/CTL/VBUS*%
D19*
X47525000Y-10800000D02*
X47514900Y-10800000D01*
X47514900Y-10800000D02*
X46163700Y-9448800D01*
%TO.N,/CTL/GND*%
X46495800Y-7720800D02*
X42563000Y-7720800D01*
X29780000Y-26800000D02*
X30440900Y-27460900D01*
X29780000Y-23992700D02*
X29812700Y-23960000D01*
X22744000Y-9134000D02*
X22100000Y-8490000D01*
X42563000Y-7720800D02*
X42152100Y-8131700D01*
X35575000Y-16800000D02*
X36210900Y-16800000D01*
X35368700Y-27593700D02*
X34575000Y-26800000D01*
X41820000Y-7528300D02*
X41820000Y-8131700D01*
X32202500Y-13427500D02*
X35575000Y-16800000D01*
X41820000Y-6780000D02*
X41820000Y-2600000D01*
X35575000Y-18305000D02*
X35575000Y-16800000D01*
X27780000Y-26800000D02*
X27167800Y-27412200D01*
X34580000Y-19300000D02*
X35575000Y-18305000D01*
X33180000Y-6780000D02*
X33180000Y-8131700D01*
X30440900Y-27460900D02*
X31119100Y-27460900D01*
X42152100Y-8131700D02*
X41820000Y-8131700D01*
X32202500Y-9109200D02*
X32202500Y-12400000D01*
X29154200Y-27425800D02*
X28405800Y-27425800D01*
X41441700Y-25433300D02*
X41441700Y-23072800D01*
X22580000Y-12200000D02*
X22780000Y-12400000D01*
X32600300Y-27620300D02*
X31780000Y-26800000D01*
X29780000Y-26800000D02*
X29154200Y-27425800D01*
X27167800Y-27412200D02*
X26392200Y-27412200D01*
X47275000Y-8500000D02*
X46495800Y-7720800D01*
X22580000Y-10400000D02*
X22744000Y-10236000D01*
X31119100Y-27460900D02*
X31780000Y-26800000D01*
X41328900Y-8019400D02*
X41328900Y-11500000D01*
X33180000Y-8131700D02*
X32202500Y-9109200D01*
X28405800Y-27425800D02*
X27780000Y-26800000D01*
X41820000Y-7528300D02*
X41328900Y-8019400D01*
X33180000Y-2600000D02*
X33180000Y-6780000D01*
X39281300Y-27593700D02*
X35368700Y-27593700D01*
X22780000Y-12400000D02*
X32202500Y-12400000D01*
X33754700Y-27620300D02*
X32600300Y-27620300D01*
X20075000Y-25800000D02*
X21722200Y-27447200D01*
X25132800Y-27447200D02*
X25780000Y-26800000D01*
X34575000Y-26800000D02*
X33754700Y-27620300D01*
X49075000Y-10300000D02*
X49075000Y-10800000D01*
X41820000Y-6780000D02*
X41820000Y-7528300D01*
X40075000Y-26800000D02*
X41441700Y-25433300D01*
X40075000Y-26800000D02*
X39281300Y-27593700D01*
X47275000Y-8500000D02*
X49075000Y-10300000D01*
X22580000Y-10400000D02*
X22580000Y-12200000D01*
X21722200Y-27447200D02*
X25132800Y-27447200D01*
X29780000Y-26800000D02*
X29780000Y-23992700D01*
X32202500Y-12400000D02*
X32202500Y-13427500D01*
X36210900Y-16800000D02*
X36965900Y-16045000D01*
X22744000Y-10236000D02*
X22744000Y-9134000D01*
X26392200Y-27412200D02*
X25780000Y-26800000D01*
%TO.N,/CTL/CC2*%
X37729400Y-15957600D02*
X37729400Y-21915500D01*
X37159400Y-15387600D02*
X37729400Y-15957600D01*
X36097600Y-8882300D02*
X37159400Y-9944100D01*
X37159400Y-9944100D02*
X37159400Y-15387600D01*
%TO.N,/CTL/CC1*%
X33540800Y-9736700D02*
X36760000Y-6517500D01*
X36760000Y-6517500D02*
X38541600Y-6517500D01*
%TO.N,/CTL/USB_DP*%
X35947900Y-13626900D02*
X35947900Y-9931500D01*
X34612600Y-14962200D02*
X35947900Y-13626900D01*
%TO.N,/CTL/USB_DM*%
X38000000Y-12321100D02*
X38000000Y-14080500D01*
X38250000Y-8907400D02*
X38250000Y-12071100D01*
X38250000Y-12071100D02*
X38000000Y-12321100D01*
X38000000Y-14080500D02*
X37711200Y-14369300D01*
%TO.N,/CTL/+3V3D*%
X33918600Y-18499500D02*
X33918600Y-16906400D01*
X21620000Y-10400000D02*
X21620000Y-12200000D01*
X33913400Y-19006600D02*
X33913400Y-18504700D01*
X40278000Y-20437100D02*
X38247700Y-22467400D01*
X38247700Y-22467400D02*
X36787400Y-22467400D01*
X44379000Y-16336100D02*
X40278000Y-20437100D01*
X18772900Y-25552100D02*
X18772900Y-21043000D01*
X33913400Y-18504700D02*
X33918600Y-18499500D01*
X34025000Y-16800000D02*
X33918600Y-16906400D01*
X36787400Y-22467400D02*
X33620000Y-19300000D01*
X44379000Y-11303800D02*
X44379000Y-16336100D01*
X22561600Y-13141600D02*
X30153800Y-13141600D01*
X21620000Y-12200000D02*
X21820000Y-12400000D01*
X33620000Y-19300000D02*
X33913400Y-19006600D01*
X30153800Y-13141600D02*
X33918600Y-16906400D01*
X21820000Y-12400000D02*
X22561600Y-13141600D01*
X44379000Y-11303800D02*
X44379000Y-9846000D01*
X18525000Y-25800000D02*
X18772900Y-25552100D01*
X44379000Y-9846000D02*
X45725000Y-8500000D01*
%TO.N,/CTL/MUX_A2*%
X19311100Y-17374200D02*
X18604500Y-16667600D01*
X19311100Y-18189700D02*
X19311100Y-17374200D01*
X18604500Y-16667600D02*
X11575900Y-16667600D01*
X11575900Y-16667600D02*
X9743500Y-18500000D01*
%TO.N,/CTL/MUX_A1*%
X48415200Y-14182600D02*
X39748300Y-22849500D01*
X23110600Y-13769700D02*
X27006100Y-17665200D01*
X20769300Y-12234400D02*
X22304600Y-13769700D01*
X20769300Y-11739100D02*
X20769300Y-12234400D01*
X32190400Y-22849500D02*
X27006100Y-17665200D01*
X9189400Y-18795000D02*
X9189400Y-17081200D01*
X10196800Y-19130800D02*
X10196800Y-19130700D01*
X39748300Y-22849500D02*
X32190400Y-22849500D01*
X17874500Y-8844300D02*
X20769300Y-11739100D01*
X22304600Y-13769700D02*
X23110600Y-13769700D01*
X10196800Y-19130700D02*
X9525100Y-19130700D01*
X9525100Y-19130700D02*
X9189400Y-18795000D01*
X9189400Y-17081200D02*
X17426300Y-8844300D01*
X17426300Y-8844300D02*
X17874500Y-8844300D01*
%TO.N,/CTL/MUX_A0*%
X14183700Y-17250000D02*
X18325500Y-17250000D01*
X11355900Y-20077800D02*
X14183700Y-17250000D01*
%TO.N,/CTL/+3V3A*%
X38525000Y-25129600D02*
X52154600Y-11500000D01*
X32370500Y-26145500D02*
X31474500Y-26145500D01*
X33815800Y-26009200D02*
X33025000Y-26800000D01*
X33025000Y-26800000D02*
X32370500Y-26145500D01*
X38525000Y-26009200D02*
X38525000Y-25129600D01*
X31474500Y-26145500D02*
X31474500Y-23743700D01*
X38525000Y-26009200D02*
X33815800Y-26009200D01*
X38525000Y-26800000D02*
X38525000Y-26009200D01*
X31474500Y-23743700D02*
X26980800Y-19250000D01*
X31474500Y-26145500D02*
X30820000Y-26800000D01*
%TO.N,/CTL/XTAL_IN*%
X20092000Y-15247400D02*
X20092000Y-22072000D01*
X20092000Y-22072000D02*
X24820000Y-26800000D01*
%TO.N,/CTL/XTAL_OUT*%
X23304200Y-17973200D02*
X23304200Y-15695400D01*
X26820000Y-21489000D02*
X23304200Y-17973200D01*
X26820000Y-26800000D02*
X26820000Y-21489000D01*
%TO.N,/CTL/BOOT0*%
X21469200Y-7867300D02*
X22818700Y-7867300D01*
X21469200Y-7867300D02*
X21469200Y-6031600D01*
X21469200Y-8879200D02*
X21469200Y-7867300D01*
X21469200Y-6031600D02*
X19395500Y-3957900D01*
X22100000Y-9510000D02*
X21469200Y-8879200D01*
X22818700Y-7867300D02*
X25027500Y-10076100D01*
%TO.N,/CTL/ADC_L4*%
X20698900Y-15071900D02*
X20698900Y-16547500D01*
X20698900Y-16547500D02*
X25598800Y-21447400D01*
X17127000Y-11500000D02*
X20698900Y-15071900D01*
%TO.N,/CTL/ADC_L3*%
X5139900Y-15242800D02*
X11846600Y-21949500D01*
X5139900Y-12500000D02*
X5139900Y-15242800D01*
X11846600Y-21949500D02*
X16004700Y-21949500D01*
%TO.N,/CTL/ADC_L1*%
X17235000Y-22375100D02*
X14110600Y-19250700D01*
X14110600Y-19250700D02*
X14110600Y-18121400D01*
%TO.N,/CTL/NRST*%
X22916800Y-14889100D02*
X17644500Y-9616800D01*
X17644500Y-9616800D02*
X17644500Y-9407000D01*
X28820000Y-22991700D02*
X23910300Y-18082000D01*
X23309300Y-14889100D02*
X23276500Y-14889100D01*
X28820000Y-26800000D02*
X28820000Y-22991700D01*
X23276500Y-14889100D02*
X22916800Y-14889100D01*
X23910300Y-18082000D02*
X23910300Y-15490100D01*
X23910300Y-15490100D02*
X23309300Y-14889100D01*
%TO.N,/LS/ADC_L4*%
X15500000Y-30800000D02*
X15500000Y-31900000D01*
%TO.N,/LS/ADC_L3*%
X14500000Y-30800000D02*
X14500000Y-31900000D01*
%TO.N,/LS/GND*%
X9500000Y-34400000D02*
X9500000Y-31900000D01*
X11500000Y-34400000D02*
X11500000Y-31900000D01*
X13500000Y-34400000D02*
X13500000Y-31900000D01*
X5500000Y-34400000D02*
X5500000Y-31900000D01*
%TO.N,/LS/ADC_L2*%
X12500000Y-30800000D02*
X12500000Y-31900000D01*
%TO.N,/LS/ADC_L1*%
X10500000Y-30800000D02*
X10500000Y-31900000D01*
%TO.N,/LS/MUX_A2*%
X8500000Y-30800000D02*
X8500000Y-31900000D01*
%TO.N,/LS/MUX_A1*%
X7500000Y-30800000D02*
X7500000Y-31900000D01*
%TO.N,/LS/MUX_A0*%
X6500000Y-30800000D02*
X6500000Y-31900000D01*
%TO.N,/LS/+3V3A*%
X4500000Y-30800000D02*
X4500000Y-31900000D01*
%TO.N,/RS/+3V3A*%
X41500000Y-30800000D02*
X41500000Y-31900000D01*
%TO.N,/RS/GND*%
X48500000Y-34400000D02*
X48500000Y-31900000D01*
X46500000Y-34400000D02*
X46500000Y-31900000D01*
X42500000Y-34400000D02*
X42500000Y-31900000D01*
X50500000Y-34400000D02*
X50500000Y-31900000D01*
%TO.N,/RS/MUX_A0*%
X43500000Y-30800000D02*
X43500000Y-31900000D01*
%TO.N,/RS/MUX_A1*%
X44500000Y-30800000D02*
X44500000Y-31900000D01*
%TO.N,/RS/MUX_A2*%
X45500000Y-30800000D02*
X45500000Y-31900000D01*
%TO.N,/RS/ADC_R1*%
X47500000Y-30800000D02*
X47500000Y-31900000D01*
%TO.N,/RS/ADC_R2*%
X49500000Y-30800000D02*
X49500000Y-31900000D01*
%TO.N,/RS/ADC_R3*%
X51500000Y-30800000D02*
X51500000Y-31900000D01*
%TO.N,/RS/ADC_R4*%
X52500000Y-30800000D02*
X52500000Y-31900000D01*
%TD*%
%TA.AperFunction,Conductor*%
%TO.N,/CTL/GND*%
G36*
X13499370Y-318907D02*
G01*
X13511176Y-328990D01*
X13582686Y-400500D01*
X13582688Y-400501D01*
X13582690Y-400503D01*
X13696810Y-466390D01*
X13696808Y-466390D01*
X13696812Y-466391D01*
X13696814Y-466392D01*
X13824108Y-500500D01*
X13824110Y-500500D01*
X13955890Y-500500D01*
X13955892Y-500500D01*
X14083186Y-466392D01*
X14083188Y-466390D01*
X14083190Y-466390D01*
X14197309Y-400503D01*
X14197309Y-400502D01*
X14197314Y-400500D01*
X14197317Y-400496D01*
X14202460Y-396551D01*
X14203818Y-398321D01*
X14249513Y-375040D01*
X14309945Y-384611D01*
X14327124Y-397092D01*
X14327540Y-396551D01*
X14332690Y-400503D01*
X14446810Y-466390D01*
X14446808Y-466390D01*
X14446812Y-466391D01*
X14446814Y-466392D01*
X14574108Y-500500D01*
X14574110Y-500500D01*
X14705890Y-500500D01*
X14705892Y-500500D01*
X14833186Y-466392D01*
X14833188Y-466390D01*
X14833190Y-466390D01*
X14947309Y-400503D01*
X14947309Y-400502D01*
X14947314Y-400500D01*
X14947317Y-400496D01*
X14952460Y-396551D01*
X14953818Y-398321D01*
X14999513Y-375040D01*
X15059945Y-384611D01*
X15077124Y-397092D01*
X15077540Y-396551D01*
X15082690Y-400503D01*
X15196810Y-466390D01*
X15196808Y-466390D01*
X15196812Y-466391D01*
X15196814Y-466392D01*
X15324108Y-500500D01*
X15324110Y-500500D01*
X15455890Y-500500D01*
X15455892Y-500500D01*
X15583186Y-466392D01*
X15583188Y-466390D01*
X15583190Y-466390D01*
X15697309Y-400503D01*
X15697309Y-400502D01*
X15697314Y-400500D01*
X15697317Y-400496D01*
X15702460Y-396551D01*
X15703818Y-398321D01*
X15749513Y-375040D01*
X15809945Y-384611D01*
X15827124Y-397092D01*
X15827540Y-396551D01*
X15832690Y-400503D01*
X15946810Y-466390D01*
X15946808Y-466390D01*
X15946812Y-466391D01*
X15946814Y-466392D01*
X16074108Y-500500D01*
X16074110Y-500500D01*
X16205890Y-500500D01*
X16205892Y-500500D01*
X16333186Y-466392D01*
X16333188Y-466390D01*
X16333190Y-466390D01*
X16447309Y-400503D01*
X16447309Y-400502D01*
X16447314Y-400500D01*
X16447317Y-400496D01*
X16452460Y-396551D01*
X16453818Y-398321D01*
X16499513Y-375040D01*
X16559945Y-384611D01*
X16577124Y-397092D01*
X16577540Y-396551D01*
X16582690Y-400503D01*
X16696810Y-466390D01*
X16696808Y-466390D01*
X16696812Y-466391D01*
X16696814Y-466392D01*
X16824108Y-500500D01*
X16824110Y-500500D01*
X16955890Y-500500D01*
X16955892Y-500500D01*
X17083186Y-466392D01*
X17083188Y-466390D01*
X17083190Y-466390D01*
X17197309Y-400503D01*
X17197309Y-400502D01*
X17197314Y-400500D01*
X17268819Y-328994D01*
X17323334Y-301219D01*
X17338821Y-300000D01*
X30404732Y-300000D01*
X30462923Y-318907D01*
X30474735Y-328996D01*
X30720503Y-574763D01*
X30748281Y-629280D01*
X30749500Y-644767D01*
X30749500Y-1049828D01*
X30787634Y-1141894D01*
X30787635Y-1141895D01*
X30787636Y-1141897D01*
X30858103Y-1212364D01*
X30858104Y-1212364D01*
X30858105Y-1212365D01*
X30950171Y-1250500D01*
X30950172Y-1250500D01*
X44049829Y-1250500D01*
X44107885Y-1226451D01*
X44141897Y-1212364D01*
X44212364Y-1141897D01*
X44250500Y-1049828D01*
X44250500Y-644767D01*
X44269407Y-586577D01*
X44279496Y-574764D01*
X44525264Y-328996D01*
X44579781Y-301219D01*
X44595268Y-300000D01*
X54990189Y-300000D01*
X54995003Y-300117D01*
X55063703Y-303461D01*
X55073443Y-304420D01*
X55131708Y-313087D01*
X55141209Y-314980D01*
X55194027Y-328225D01*
X55198406Y-329323D01*
X55207643Y-332124D01*
X55263109Y-351958D01*
X55272114Y-355690D01*
X55325428Y-380930D01*
X55333955Y-385490D01*
X55384510Y-415789D01*
X55392624Y-421213D01*
X55439924Y-456323D01*
X55447375Y-462438D01*
X55491068Y-502011D01*
X55497988Y-508931D01*
X55537561Y-552624D01*
X55543676Y-560075D01*
X55578786Y-607375D01*
X55584210Y-615489D01*
X55614509Y-666044D01*
X55619071Y-674575D01*
X55644308Y-727882D01*
X55648045Y-736900D01*
X55667869Y-792338D01*
X55670676Y-801593D01*
X55685017Y-858784D01*
X55686913Y-868297D01*
X55695578Y-926550D01*
X55696538Y-936301D01*
X55699883Y-1004995D01*
X55700000Y-1009810D01*
X55700000Y-26990189D01*
X55699883Y-26995004D01*
X55696538Y-27063698D01*
X55695578Y-27073449D01*
X55686913Y-27131702D01*
X55685017Y-27141215D01*
X55670676Y-27198406D01*
X55667869Y-27207661D01*
X55648049Y-27263089D01*
X55644308Y-27272117D01*
X55619071Y-27325424D01*
X55614509Y-27333955D01*
X55584210Y-27384510D01*
X55578787Y-27392623D01*
X55552440Y-27428118D01*
X55502575Y-27463574D01*
X55441393Y-27462949D01*
X55392263Y-27426481D01*
X55373951Y-27368100D01*
X55378790Y-27338524D01*
X55413171Y-27232709D01*
X55422218Y-27175590D01*
X55441500Y-27053849D01*
X55441500Y-26872750D01*
X55413171Y-26693893D01*
X55413171Y-26693891D01*
X55357211Y-26521661D01*
X55274996Y-26360306D01*
X55168553Y-26213799D01*
X55040501Y-26085747D01*
X54893994Y-25979304D01*
X54893993Y-25979303D01*
X54893991Y-25979302D01*
X54732637Y-25897088D01*
X54560406Y-25841128D01*
X54381549Y-25812800D01*
X54381546Y-25812800D01*
X54200454Y-25812800D01*
X54200451Y-25812800D01*
X54021593Y-25841128D01*
X53849362Y-25897088D01*
X53688008Y-25979302D01*
X53625799Y-26024500D01*
X53541499Y-26085747D01*
X53413447Y-26213799D01*
X53369143Y-26274778D01*
X53307002Y-26360308D01*
X53224788Y-26521662D01*
X53168828Y-26693893D01*
X53140500Y-26872750D01*
X53140500Y-27053849D01*
X53168828Y-27232706D01*
X53220787Y-27392624D01*
X53224789Y-27404939D01*
X53295479Y-27543676D01*
X53301787Y-27556055D01*
X53311358Y-27616487D01*
X53283581Y-27671003D01*
X53229064Y-27698781D01*
X53213577Y-27700000D01*
X39054331Y-27700000D01*
X38996140Y-27681093D01*
X38960176Y-27631593D01*
X38960176Y-27570407D01*
X38996140Y-27520907D01*
X39005810Y-27514706D01*
X39009969Y-27512367D01*
X39009970Y-27512365D01*
X39009975Y-27512364D01*
X39125078Y-27425078D01*
X39212364Y-27309975D01*
X39265359Y-27175590D01*
X39275500Y-27091144D01*
X39275500Y-26508856D01*
X39265359Y-26424410D01*
X39212364Y-26290025D01*
X39125078Y-26174922D01*
X39009975Y-26087636D01*
X39009972Y-26087634D01*
X39009971Y-26087634D01*
X38988181Y-26079041D01*
X38940984Y-26040105D01*
X38925500Y-25986944D01*
X38925500Y-25336501D01*
X38944407Y-25278310D01*
X38954496Y-25266497D01*
X52091497Y-12129496D01*
X52146014Y-12101719D01*
X52161501Y-12100500D01*
X52233655Y-12100500D01*
X52233657Y-12100500D01*
X52386384Y-12059577D01*
X52523316Y-11980520D01*
X52635120Y-11868716D01*
X52714177Y-11731784D01*
X52755100Y-11579057D01*
X52755100Y-11420943D01*
X52714177Y-11268216D01*
X52635120Y-11131284D01*
X52523316Y-11019480D01*
X52386384Y-10940423D01*
X52233657Y-10899500D01*
X52075543Y-10899500D01*
X51922816Y-10940423D01*
X51785884Y-11019480D01*
X51674080Y-11131284D01*
X51595023Y-11268216D01*
X51554723Y-11418620D01*
X51554100Y-11420944D01*
X51554100Y-11493098D01*
X51535193Y-11551289D01*
X51525104Y-11563102D01*
X49125527Y-13962678D01*
X49071010Y-13990455D01*
X49010578Y-13980884D01*
X48969788Y-13942175D01*
X48895720Y-13813884D01*
X48783916Y-13702080D01*
X48646984Y-13623023D01*
X48494257Y-13582100D01*
X48336143Y-13582100D01*
X48183416Y-13623023D01*
X48046484Y-13702080D01*
X47934680Y-13813884D01*
X47855623Y-13950816D01*
X47835003Y-14027773D01*
X47814700Y-14103544D01*
X47814700Y-14175699D01*
X47795793Y-14233890D01*
X47785704Y-14245703D01*
X39611403Y-22420004D01*
X39556886Y-22447781D01*
X39541399Y-22449000D01*
X39071501Y-22449000D01*
X39013310Y-22430093D01*
X38977346Y-22380593D01*
X38977346Y-22319407D01*
X39001497Y-22279996D01*
X40214897Y-21066596D01*
X40269414Y-21038819D01*
X40284901Y-21037600D01*
X40357055Y-21037600D01*
X40357057Y-21037600D01*
X40509784Y-20996677D01*
X40646716Y-20917620D01*
X40758520Y-20805816D01*
X40837577Y-20668884D01*
X40878500Y-20516157D01*
X40878500Y-20444000D01*
X40897407Y-20385809D01*
X40907490Y-20374002D01*
X44699480Y-16582013D01*
X44741718Y-16508856D01*
X44752205Y-16490692D01*
X44752205Y-16490690D01*
X44752207Y-16490688D01*
X44779500Y-16388827D01*
X44779500Y-16283373D01*
X44779500Y-11793543D01*
X44798407Y-11735352D01*
X44808490Y-11723545D01*
X44859520Y-11672516D01*
X44938577Y-11535584D01*
X44979500Y-11382857D01*
X44979500Y-11224743D01*
X44938577Y-11072016D01*
X44859520Y-10935084D01*
X44841443Y-10917007D01*
X44808496Y-10884059D01*
X44780719Y-10829542D01*
X44779500Y-10814056D01*
X44779500Y-10052901D01*
X44798407Y-9994710D01*
X44808496Y-9982897D01*
X45394196Y-9397197D01*
X45448713Y-9369420D01*
X45509145Y-9378991D01*
X45552410Y-9422256D01*
X45563200Y-9467201D01*
X45563200Y-9527857D01*
X45604123Y-9680584D01*
X45683180Y-9817516D01*
X45794984Y-9929320D01*
X45931916Y-10008377D01*
X46084643Y-10049300D01*
X46156799Y-10049300D01*
X46214990Y-10068207D01*
X46226803Y-10078296D01*
X46745504Y-10596997D01*
X46773281Y-10651514D01*
X46774500Y-10667001D01*
X46774500Y-11091148D01*
X46784641Y-11175591D01*
X46837634Y-11309972D01*
X46837635Y-11309974D01*
X46837636Y-11309975D01*
X46924922Y-11425078D01*
X47040025Y-11512364D01*
X47040026Y-11512364D01*
X47040027Y-11512365D01*
X47095161Y-11534107D01*
X47174410Y-11565359D01*
X47258856Y-11575500D01*
X47258858Y-11575500D01*
X47791142Y-11575500D01*
X47791144Y-11575500D01*
X47875590Y-11565359D01*
X48009975Y-11512364D01*
X48125078Y-11425078D01*
X48212364Y-11309975D01*
X48265359Y-11175590D01*
X48275500Y-11091144D01*
X48275500Y-10508856D01*
X48265359Y-10424410D01*
X48216383Y-10300216D01*
X48212365Y-10290027D01*
X48212364Y-10290026D01*
X48212364Y-10290025D01*
X48125078Y-10174922D01*
X48009975Y-10087636D01*
X48009974Y-10087635D01*
X48009972Y-10087634D01*
X47875591Y-10034641D01*
X47791148Y-10024500D01*
X47791144Y-10024500D01*
X47346801Y-10024500D01*
X47288610Y-10005593D01*
X47276797Y-9995504D01*
X46793196Y-9511903D01*
X46765419Y-9457386D01*
X46764200Y-9441899D01*
X46764200Y-9369744D01*
X46764113Y-9369420D01*
X46723277Y-9217016D01*
X46644220Y-9080084D01*
X46532416Y-8968280D01*
X46515880Y-8958733D01*
X46474939Y-8913263D01*
X46467087Y-8861195D01*
X46475500Y-8791144D01*
X46475500Y-8208856D01*
X46465359Y-8124410D01*
X46412364Y-7990025D01*
X46325078Y-7874922D01*
X46209975Y-7787636D01*
X46209974Y-7787635D01*
X46209972Y-7787634D01*
X46075591Y-7734641D01*
X45991148Y-7724500D01*
X45991144Y-7724500D01*
X45458856Y-7724500D01*
X45458851Y-7724500D01*
X45374408Y-7734641D01*
X45240027Y-7787634D01*
X45124922Y-7874922D01*
X45037634Y-7990027D01*
X44984641Y-8124408D01*
X44974500Y-8208851D01*
X44974500Y-8643099D01*
X44955593Y-8701290D01*
X44945504Y-8713103D01*
X44058516Y-9600091D01*
X44005794Y-9691408D01*
X44005792Y-9691412D01*
X43999308Y-9715609D01*
X43999309Y-9715610D01*
X43978500Y-9793273D01*
X43978500Y-10814056D01*
X43959593Y-10872247D01*
X43949504Y-10884059D01*
X43898482Y-10935081D01*
X43898480Y-10935083D01*
X43898480Y-10935084D01*
X43819423Y-11072016D01*
X43778500Y-11224743D01*
X43778500Y-11382857D01*
X43819423Y-11535584D01*
X43898480Y-11672516D01*
X43949505Y-11723541D01*
X43977281Y-11778056D01*
X43978500Y-11793543D01*
X43978500Y-16129199D01*
X43959593Y-16187390D01*
X43949504Y-16199203D01*
X40341103Y-19807604D01*
X40286586Y-19835381D01*
X40271099Y-19836600D01*
X40198943Y-19836600D01*
X40075487Y-19869680D01*
X40046216Y-19877523D01*
X39909284Y-19956580D01*
X39797480Y-20068384D01*
X39718423Y-20205316D01*
X39677500Y-20358044D01*
X39677500Y-20430198D01*
X39658593Y-20488389D01*
X39648504Y-20500202D01*
X38444632Y-21704073D01*
X38390115Y-21731850D01*
X38329683Y-21722279D01*
X38288893Y-21683571D01*
X38209920Y-21546784D01*
X38189591Y-21526455D01*
X38158896Y-21495759D01*
X38131119Y-21441242D01*
X38129900Y-21425756D01*
X38129900Y-16018314D01*
X38129901Y-16018301D01*
X38129901Y-15904872D01*
X38129900Y-15904870D01*
X38102607Y-15803013D01*
X38078239Y-15760807D01*
X38078238Y-15760806D01*
X38049880Y-15711687D01*
X37975313Y-15637120D01*
X37975310Y-15637118D01*
X37971855Y-15633662D01*
X37971849Y-15633657D01*
X37588896Y-15250703D01*
X37561119Y-15196187D01*
X37559900Y-15180700D01*
X37559900Y-15068800D01*
X37578807Y-15010609D01*
X37628307Y-14974645D01*
X37658900Y-14969800D01*
X37790255Y-14969800D01*
X37790257Y-14969800D01*
X37942984Y-14928877D01*
X38079916Y-14849820D01*
X38191720Y-14738016D01*
X38270777Y-14601084D01*
X38311700Y-14448357D01*
X38311700Y-14368147D01*
X38324964Y-14318646D01*
X38373207Y-14235088D01*
X38400500Y-14133227D01*
X38400500Y-14027773D01*
X38400500Y-12810843D01*
X38419407Y-12752652D01*
X38429490Y-12740845D01*
X38480520Y-12689816D01*
X38559577Y-12552884D01*
X38600500Y-12400157D01*
X38600500Y-12291543D01*
X38613765Y-12242041D01*
X38623205Y-12225690D01*
X38623204Y-12225690D01*
X38623207Y-12225687D01*
X38650500Y-12123827D01*
X38650500Y-9397143D01*
X38669407Y-9338952D01*
X38679490Y-9327145D01*
X38730520Y-9276116D01*
X38809577Y-9139184D01*
X38850500Y-8986457D01*
X38850500Y-8828343D01*
X38809577Y-8675616D01*
X38730520Y-8538684D01*
X38618716Y-8426880D01*
X38481784Y-8347823D01*
X38329057Y-8306900D01*
X38170943Y-8306900D01*
X38018216Y-8347823D01*
X37881284Y-8426880D01*
X37769480Y-8538684D01*
X37690423Y-8675616D01*
X37649500Y-8828343D01*
X37649500Y-8986457D01*
X37690423Y-9139184D01*
X37769480Y-9276116D01*
X37820505Y-9327141D01*
X37848281Y-9381656D01*
X37849500Y-9397143D01*
X37849500Y-11663777D01*
X37830593Y-11721968D01*
X37781093Y-11757932D01*
X37776128Y-11759402D01*
X37768221Y-11761521D01*
X37768218Y-11761522D01*
X37768216Y-11761522D01*
X37768216Y-11761523D01*
X37708398Y-11796058D01*
X37648551Y-11808779D01*
X37592656Y-11783892D01*
X37562063Y-11730904D01*
X37559900Y-11710321D01*
X37559900Y-9891374D01*
X37559900Y-9891373D01*
X37543584Y-9830480D01*
X37543584Y-9830479D01*
X37543584Y-9830478D01*
X37533908Y-9794367D01*
X37532607Y-9789512D01*
X37532600Y-9789500D01*
X37479883Y-9698191D01*
X37479882Y-9698190D01*
X37479881Y-9698189D01*
X37479880Y-9698187D01*
X36727096Y-8945403D01*
X36699319Y-8890886D01*
X36698100Y-8875399D01*
X36698100Y-8803244D01*
X36698100Y-8803243D01*
X36657177Y-8650516D01*
X36578120Y-8513584D01*
X36466316Y-8401780D01*
X36329384Y-8322723D01*
X36176657Y-8281800D01*
X36018543Y-8281800D01*
X35865816Y-8322723D01*
X35728884Y-8401780D01*
X35617080Y-8513584D01*
X35538023Y-8650516D01*
X35497100Y-8803243D01*
X35497100Y-8961357D01*
X35538023Y-9114084D01*
X35617080Y-9251016D01*
X35638752Y-9272688D01*
X35666528Y-9327203D01*
X35656957Y-9387635D01*
X35618248Y-9428426D01*
X35579185Y-9450979D01*
X35579184Y-9450980D01*
X35467380Y-9562784D01*
X35388323Y-9699716D01*
X35347400Y-9852443D01*
X35347400Y-10010557D01*
X35388323Y-10163284D01*
X35467380Y-10300216D01*
X35518405Y-10351241D01*
X35546181Y-10405756D01*
X35547400Y-10421243D01*
X35547400Y-13419999D01*
X35528493Y-13478190D01*
X35518404Y-13490003D01*
X34675703Y-14332704D01*
X34621186Y-14360481D01*
X34605699Y-14361700D01*
X34533543Y-14361700D01*
X34380816Y-14402623D01*
X34243884Y-14481680D01*
X34132080Y-14593484D01*
X34053023Y-14730416D01*
X34012100Y-14883143D01*
X34012100Y-15041257D01*
X34053023Y-15193984D01*
X34132080Y-15330916D01*
X34243884Y-15442720D01*
X34380816Y-15521777D01*
X34533543Y-15562700D01*
X34533545Y-15562700D01*
X34691655Y-15562700D01*
X34691657Y-15562700D01*
X34844384Y-15521777D01*
X34981316Y-15442720D01*
X35093120Y-15330916D01*
X35172177Y-15193984D01*
X35213100Y-15041257D01*
X35213100Y-14969100D01*
X35232007Y-14910909D01*
X35242090Y-14899102D01*
X36268380Y-13872813D01*
X36297653Y-13822111D01*
X36321107Y-13781487D01*
X36348400Y-13679627D01*
X36348400Y-10421243D01*
X36367307Y-10363052D01*
X36377390Y-10351245D01*
X36428420Y-10300216D01*
X36507477Y-10163284D01*
X36527490Y-10088592D01*
X36560813Y-10037280D01*
X36617934Y-10015353D01*
X36677035Y-10031188D01*
X36693120Y-10044213D01*
X36729904Y-10080997D01*
X36757681Y-10135514D01*
X36758900Y-10151001D01*
X36758900Y-15334873D01*
X36758900Y-15440327D01*
X36771865Y-15488713D01*
X36786194Y-15542192D01*
X36838916Y-15633508D01*
X36838920Y-15633513D01*
X37299903Y-16094495D01*
X37327681Y-16149012D01*
X37328900Y-16164499D01*
X37328900Y-21425756D01*
X37309993Y-21483947D01*
X37299904Y-21495759D01*
X37248882Y-21546781D01*
X37248880Y-21546783D01*
X37248880Y-21546784D01*
X37169823Y-21683716D01*
X37134506Y-21815523D01*
X37128900Y-21836444D01*
X37128900Y-21967900D01*
X37109993Y-22026091D01*
X37060493Y-22062055D01*
X37029900Y-22066900D01*
X36994301Y-22066900D01*
X36936110Y-22047993D01*
X36924297Y-22037904D01*
X34252832Y-19366439D01*
X34225055Y-19311922D01*
X34234626Y-19251490D01*
X34237083Y-19246965D01*
X34286607Y-19161188D01*
X34313900Y-19059327D01*
X34313900Y-18994443D01*
X34332807Y-18936252D01*
X34342890Y-18924445D01*
X34393920Y-18873416D01*
X34472977Y-18736484D01*
X34513900Y-18583757D01*
X34513900Y-18425643D01*
X34472977Y-18272916D01*
X34393920Y-18135984D01*
X34385724Y-18127788D01*
X34348096Y-18090159D01*
X34320319Y-18035642D01*
X34319100Y-18020156D01*
X34319100Y-17655014D01*
X34338007Y-17596823D01*
X34381778Y-17562918D01*
X34509975Y-17512364D01*
X34625078Y-17425078D01*
X34712364Y-17309975D01*
X34765359Y-17175590D01*
X34775500Y-17091144D01*
X34775500Y-16508856D01*
X34765359Y-16424410D01*
X34712364Y-16290025D01*
X34625078Y-16174922D01*
X34509975Y-16087636D01*
X34509974Y-16087635D01*
X34509972Y-16087634D01*
X34375591Y-16034641D01*
X34291148Y-16024500D01*
X34291144Y-16024500D01*
X33758856Y-16024500D01*
X33758851Y-16024500D01*
X33692896Y-16032421D01*
X33674410Y-16034641D01*
X33674409Y-16034641D01*
X33668108Y-16035398D01*
X33667750Y-16032421D01*
X33618842Y-16029057D01*
X33585821Y-16007228D01*
X32026948Y-14448355D01*
X30399713Y-12821120D01*
X30399710Y-12821118D01*
X30399709Y-12821117D01*
X30399708Y-12821116D01*
X30308391Y-12768394D01*
X30308393Y-12768394D01*
X30268870Y-12757804D01*
X30206527Y-12741100D01*
X30206525Y-12741100D01*
X22768499Y-12741100D01*
X22710308Y-12722193D01*
X22698495Y-12712103D01*
X22429496Y-12443103D01*
X22401719Y-12388587D01*
X22400500Y-12373100D01*
X22400500Y-12176928D01*
X22400499Y-12176923D01*
X22397710Y-12147185D01*
X22397710Y-12147181D01*
X22353852Y-12021843D01*
X22353851Y-12021841D01*
X22275002Y-11915004D01*
X22274995Y-11914997D01*
X22168158Y-11836148D01*
X22086802Y-11807680D01*
X22038121Y-11770615D01*
X22020500Y-11714236D01*
X22020500Y-10975198D01*
X22039407Y-10917007D01*
X22060711Y-10895543D01*
X22074999Y-10884999D01*
X22074999Y-10884997D01*
X22075001Y-10884997D01*
X22075001Y-10884996D01*
X22153851Y-10778158D01*
X22153850Y-10778158D01*
X22153852Y-10778157D01*
X22197710Y-10652819D01*
X22200500Y-10623066D01*
X22200500Y-10179499D01*
X22219407Y-10121308D01*
X22268907Y-10085344D01*
X22299500Y-10080499D01*
X22337457Y-10080499D01*
X22343340Y-10079947D01*
X22366879Y-10077741D01*
X22490794Y-10034381D01*
X22575144Y-9972128D01*
X22596418Y-9956427D01*
X22596419Y-9956425D01*
X22596423Y-9956423D01*
X22674381Y-9850794D01*
X22717741Y-9726879D01*
X22720500Y-9697457D01*
X22720499Y-9322544D01*
X22717741Y-9293121D01*
X22674381Y-9169206D01*
X22652224Y-9139184D01*
X22596427Y-9063581D01*
X22596418Y-9063572D01*
X22490795Y-8985619D01*
X22366883Y-8942260D01*
X22366874Y-8942258D01*
X22337467Y-8939500D01*
X22337457Y-8939500D01*
X22136901Y-8939500D01*
X22078710Y-8920593D01*
X22066897Y-8910504D01*
X21898696Y-8742303D01*
X21870919Y-8687786D01*
X21869700Y-8672299D01*
X21869700Y-8366800D01*
X21888607Y-8308609D01*
X21938107Y-8272645D01*
X21968700Y-8267800D01*
X22611799Y-8267800D01*
X22669990Y-8286707D01*
X22681803Y-8296796D01*
X24398004Y-10012997D01*
X24425781Y-10067514D01*
X24427000Y-10083001D01*
X24427000Y-10155157D01*
X24467923Y-10307884D01*
X24546980Y-10444816D01*
X24658784Y-10556620D01*
X24795716Y-10635677D01*
X24948443Y-10676600D01*
X24948445Y-10676600D01*
X25106555Y-10676600D01*
X25106557Y-10676600D01*
X25259284Y-10635677D01*
X25396216Y-10556620D01*
X25508020Y-10444816D01*
X25587077Y-10307884D01*
X25628000Y-10155157D01*
X25628000Y-9997043D01*
X25587077Y-9844316D01*
X25508020Y-9707384D01*
X25458279Y-9657643D01*
X32940300Y-9657643D01*
X32940300Y-9815757D01*
X32981223Y-9968484D01*
X33060280Y-10105416D01*
X33172084Y-10217220D01*
X33309016Y-10296277D01*
X33461743Y-10337200D01*
X33461745Y-10337200D01*
X33619855Y-10337200D01*
X33619857Y-10337200D01*
X33772584Y-10296277D01*
X33909516Y-10217220D01*
X34021320Y-10105416D01*
X34100377Y-9968484D01*
X34141300Y-9815757D01*
X34141300Y-9743601D01*
X34160207Y-9685410D01*
X34170296Y-9673597D01*
X36896897Y-6946996D01*
X36951414Y-6919219D01*
X36966901Y-6918000D01*
X38051856Y-6918000D01*
X38110047Y-6936907D01*
X38121859Y-6946996D01*
X38172881Y-6998017D01*
X38172884Y-6998020D01*
X38309816Y-7077077D01*
X38462543Y-7118000D01*
X38462545Y-7118000D01*
X38620655Y-7118000D01*
X38620657Y-7118000D01*
X38773384Y-7077077D01*
X38910316Y-6998020D01*
X39022120Y-6886216D01*
X39101177Y-6749284D01*
X39142100Y-6596557D01*
X39142100Y-6438443D01*
X39101177Y-6285716D01*
X39036813Y-6174234D01*
X39814500Y-6174234D01*
X39814500Y-6325766D01*
X39844691Y-6438443D01*
X39853720Y-6472139D01*
X39929481Y-6603360D01*
X39929483Y-6603362D01*
X39929485Y-6603365D01*
X40036635Y-6710515D01*
X40036637Y-6710516D01*
X40036639Y-6710518D01*
X40167861Y-6786279D01*
X40167859Y-6786279D01*
X40167863Y-6786280D01*
X40167865Y-6786281D01*
X40314234Y-6825500D01*
X40314236Y-6825500D01*
X40465764Y-6825500D01*
X40465766Y-6825500D01*
X40612135Y-6786281D01*
X40612137Y-6786279D01*
X40612139Y-6786279D01*
X40743360Y-6710518D01*
X40743360Y-6710517D01*
X40743365Y-6710515D01*
X40850515Y-6603365D01*
X40926281Y-6472135D01*
X40965500Y-6325766D01*
X40965500Y-6174234D01*
X40926281Y-6027865D01*
X40926279Y-6027862D01*
X40926279Y-6027860D01*
X40850518Y-5896639D01*
X40850516Y-5896637D01*
X40850515Y-5896635D01*
X40743365Y-5789485D01*
X40743362Y-5789483D01*
X40743360Y-5789481D01*
X40612138Y-5713720D01*
X40612140Y-5713720D01*
X40555347Y-5698503D01*
X40465766Y-5674500D01*
X40314234Y-5674500D01*
X40224652Y-5698503D01*
X40167860Y-5713720D01*
X40036639Y-5789481D01*
X39929481Y-5896639D01*
X39853720Y-6027860D01*
X39851276Y-6036982D01*
X39814500Y-6174234D01*
X39036813Y-6174234D01*
X39022120Y-6148784D01*
X38910316Y-6036980D01*
X38773384Y-5957923D01*
X38620657Y-5917000D01*
X38462543Y-5917000D01*
X38309816Y-5957923D01*
X38188681Y-6027860D01*
X38172881Y-6036982D01*
X38121859Y-6088004D01*
X38067342Y-6115781D01*
X38051856Y-6117000D01*
X36812727Y-6117000D01*
X36707273Y-6117000D01*
X36644929Y-6133704D01*
X36605407Y-6144294D01*
X36514091Y-6197016D01*
X33603903Y-9107204D01*
X33549386Y-9134981D01*
X33533899Y-9136200D01*
X33461743Y-9136200D01*
X33309016Y-9177123D01*
X33172084Y-9256180D01*
X33060280Y-9367984D01*
X32981223Y-9504916D01*
X32940300Y-9657643D01*
X25458279Y-9657643D01*
X25396216Y-9595580D01*
X25259284Y-9516523D01*
X25106557Y-9475600D01*
X25106555Y-9475600D01*
X25034401Y-9475600D01*
X24976210Y-9456693D01*
X24964397Y-9446604D01*
X24031377Y-8513584D01*
X23064613Y-7546820D01*
X23064610Y-7546818D01*
X23064609Y-7546817D01*
X23064608Y-7546816D01*
X22973291Y-7494094D01*
X22973293Y-7494094D01*
X22933770Y-7483504D01*
X22871427Y-7466800D01*
X22871425Y-7466800D01*
X21968700Y-7466800D01*
X21910509Y-7447893D01*
X21874545Y-7398393D01*
X21869700Y-7367800D01*
X21869700Y-6174234D01*
X34034500Y-6174234D01*
X34034500Y-6325766D01*
X34064691Y-6438443D01*
X34073720Y-6472139D01*
X34149481Y-6603360D01*
X34149483Y-6603362D01*
X34149485Y-6603365D01*
X34256635Y-6710515D01*
X34256637Y-6710516D01*
X34256639Y-6710518D01*
X34387861Y-6786279D01*
X34387859Y-6786279D01*
X34387863Y-6786280D01*
X34387865Y-6786281D01*
X34534234Y-6825500D01*
X34534236Y-6825500D01*
X34685764Y-6825500D01*
X34685766Y-6825500D01*
X34832135Y-6786281D01*
X34832137Y-6786279D01*
X34832139Y-6786279D01*
X34963360Y-6710518D01*
X34963360Y-6710517D01*
X34963365Y-6710515D01*
X35070515Y-6603365D01*
X35146281Y-6472135D01*
X35185500Y-6325766D01*
X35185500Y-6174234D01*
X35146281Y-6027865D01*
X35146279Y-6027862D01*
X35146279Y-6027860D01*
X35070518Y-5896639D01*
X35070516Y-5896637D01*
X35070515Y-5896635D01*
X34963365Y-5789485D01*
X34963362Y-5789483D01*
X34963360Y-5789481D01*
X34832138Y-5713720D01*
X34832140Y-5713720D01*
X34775347Y-5698503D01*
X34685766Y-5674500D01*
X34534234Y-5674500D01*
X34444652Y-5698503D01*
X34387860Y-5713720D01*
X34256639Y-5789481D01*
X34149481Y-5896639D01*
X34073720Y-6027860D01*
X34071276Y-6036982D01*
X34034500Y-6174234D01*
X21869700Y-6174234D01*
X21869700Y-6092314D01*
X21869701Y-6092301D01*
X21869701Y-5978872D01*
X21869700Y-5978870D01*
X21842407Y-5877013D01*
X21842405Y-5877009D01*
X21789681Y-5785689D01*
X21789680Y-5785687D01*
X21715113Y-5711120D01*
X21715110Y-5711118D01*
X20883778Y-4879786D01*
X20024996Y-4021003D01*
X19997219Y-3966486D01*
X19996000Y-3950999D01*
X19996000Y-3878844D01*
X19996000Y-3878843D01*
X19955077Y-3726116D01*
X19876020Y-3589184D01*
X19764216Y-3477380D01*
X19627284Y-3398323D01*
X19474557Y-3357400D01*
X19316443Y-3357400D01*
X19163716Y-3398323D01*
X19026784Y-3477380D01*
X18914980Y-3589184D01*
X18835923Y-3726116D01*
X18795000Y-3878843D01*
X18795000Y-4036957D01*
X18835923Y-4189684D01*
X18914980Y-4326616D01*
X19026784Y-4438420D01*
X19163716Y-4517477D01*
X19316443Y-4558400D01*
X19388599Y-4558400D01*
X19446790Y-4577307D01*
X19458603Y-4587396D01*
X21039704Y-6168496D01*
X21067481Y-6223013D01*
X21068700Y-6238500D01*
X21068700Y-7814573D01*
X21068700Y-8826473D01*
X21068700Y-8931927D01*
X21083311Y-8986457D01*
X21095994Y-9033792D01*
X21148716Y-9125108D01*
X21148720Y-9125113D01*
X21450504Y-9426898D01*
X21478281Y-9481414D01*
X21479500Y-9496901D01*
X21479500Y-9694599D01*
X21460593Y-9752790D01*
X21411093Y-9788754D01*
X21401630Y-9791318D01*
X21397178Y-9792290D01*
X21271841Y-9836148D01*
X21165004Y-9914997D01*
X21164997Y-9915004D01*
X21086148Y-10021841D01*
X21042291Y-10147176D01*
X21042289Y-10147185D01*
X21039500Y-10176923D01*
X21039500Y-10623076D01*
X21042289Y-10652814D01*
X21042291Y-10652823D01*
X21086148Y-10778158D01*
X21164998Y-10884996D01*
X21164998Y-10884997D01*
X21165001Y-10884999D01*
X21179287Y-10895543D01*
X21214880Y-10945309D01*
X21219500Y-10975198D01*
X21219500Y-11383899D01*
X21200593Y-11442090D01*
X21151093Y-11478054D01*
X21089907Y-11478054D01*
X21050496Y-11453903D01*
X21015213Y-11418620D01*
X19568721Y-9972128D01*
X18120413Y-8523820D01*
X18120410Y-8523818D01*
X18120409Y-8523817D01*
X18120408Y-8523816D01*
X18029091Y-8471094D01*
X18029093Y-8471094D01*
X17989570Y-8460504D01*
X17927227Y-8443800D01*
X17927225Y-8443800D01*
X17485106Y-8443800D01*
X17485090Y-8443799D01*
X17479027Y-8443799D01*
X17373573Y-8443799D01*
X17373570Y-8443799D01*
X17271713Y-8471092D01*
X17271709Y-8471094D01*
X17180387Y-8523819D01*
X17105819Y-8598386D01*
X17105820Y-8598387D01*
X8868916Y-16835291D01*
X8816193Y-16926611D01*
X8816192Y-16926611D01*
X8816193Y-16926612D01*
X8788900Y-17028473D01*
X8788900Y-18086399D01*
X8769993Y-18144590D01*
X8720493Y-18180554D01*
X8659307Y-18180554D01*
X8619896Y-18156403D01*
X5569396Y-15105903D01*
X5541619Y-15051386D01*
X5540400Y-15035899D01*
X5540400Y-12989743D01*
X5559307Y-12931552D01*
X5569390Y-12919745D01*
X5620420Y-12868716D01*
X5699477Y-12731784D01*
X5740400Y-12579057D01*
X5740400Y-12420943D01*
X5699477Y-12268216D01*
X5620420Y-12131284D01*
X5508616Y-12019480D01*
X5371684Y-11940423D01*
X5218957Y-11899500D01*
X5060843Y-11899500D01*
X4908116Y-11940423D01*
X4771184Y-12019480D01*
X4659380Y-12131284D01*
X4580323Y-12268216D01*
X4539400Y-12420943D01*
X4539400Y-12579057D01*
X4580323Y-12731784D01*
X4659380Y-12868716D01*
X4710405Y-12919741D01*
X4738181Y-12974256D01*
X4739400Y-12989743D01*
X4739400Y-15190073D01*
X4739400Y-15295527D01*
X4749943Y-15334873D01*
X4766694Y-15397392D01*
X4819416Y-15488708D01*
X4819418Y-15488710D01*
X4819420Y-15488713D01*
X11600687Y-22269980D01*
X11600689Y-22269981D01*
X11600691Y-22269983D01*
X11692008Y-22322705D01*
X11692006Y-22322705D01*
X11692010Y-22322706D01*
X11692012Y-22322707D01*
X11793873Y-22350000D01*
X15514956Y-22350000D01*
X15573147Y-22368907D01*
X15584959Y-22378996D01*
X15613907Y-22407943D01*
X15635984Y-22430020D01*
X15772916Y-22509077D01*
X15925643Y-22550000D01*
X15925645Y-22550000D01*
X16083755Y-22550000D01*
X16083757Y-22550000D01*
X16236484Y-22509077D01*
X16373416Y-22430020D01*
X16465498Y-22337937D01*
X16520013Y-22310162D01*
X16580445Y-22319733D01*
X16623710Y-22362998D01*
X16634500Y-22407943D01*
X16634500Y-22454157D01*
X16675423Y-22606884D01*
X16754480Y-22743816D01*
X16866284Y-22855620D01*
X17003216Y-22934677D01*
X17155943Y-22975600D01*
X17155945Y-22975600D01*
X17314055Y-22975600D01*
X17314057Y-22975600D01*
X17466784Y-22934677D01*
X17603716Y-22855620D01*
X17715520Y-22743816D01*
X17794577Y-22606884D01*
X17835500Y-22454157D01*
X17835500Y-22296043D01*
X17794577Y-22143316D01*
X17715520Y-22006384D01*
X17603716Y-21894580D01*
X17466784Y-21815523D01*
X17314057Y-21774600D01*
X17314055Y-21774600D01*
X17241901Y-21774600D01*
X17183710Y-21755693D01*
X17171897Y-21745604D01*
X14540096Y-19113803D01*
X14512319Y-19059286D01*
X14511100Y-19043799D01*
X14511100Y-18611143D01*
X14530007Y-18552952D01*
X14540090Y-18541145D01*
X14591120Y-18490116D01*
X14670177Y-18353184D01*
X14711100Y-18200457D01*
X14711100Y-18042343D01*
X14670177Y-17889616D01*
X14617859Y-17798999D01*
X14605138Y-17739152D01*
X14630025Y-17683256D01*
X14683013Y-17652663D01*
X14703596Y-17650500D01*
X17835756Y-17650500D01*
X17893947Y-17669407D01*
X17905759Y-17679496D01*
X17954567Y-17728303D01*
X17956784Y-17730520D01*
X18093716Y-17809577D01*
X18246443Y-17850500D01*
X18246445Y-17850500D01*
X18404555Y-17850500D01*
X18404557Y-17850500D01*
X18557284Y-17809577D01*
X18657137Y-17751927D01*
X18716982Y-17739206D01*
X18772877Y-17764092D01*
X18803470Y-17817080D01*
X18797075Y-17877930D01*
X18792371Y-17887163D01*
X18751523Y-17957914D01*
X18731159Y-18033915D01*
X18710600Y-18110643D01*
X18710600Y-18268757D01*
X18751523Y-18421484D01*
X18830580Y-18558416D01*
X18942384Y-18670220D01*
X19079316Y-18749277D01*
X19232043Y-18790200D01*
X19232045Y-18790200D01*
X19390155Y-18790200D01*
X19390157Y-18790200D01*
X19542884Y-18749277D01*
X19542996Y-18749211D01*
X19543087Y-18749192D01*
X19548878Y-18746794D01*
X19549322Y-18747866D01*
X19602844Y-18736488D01*
X19658741Y-18761372D01*
X19689336Y-18814359D01*
X19691500Y-18834946D01*
X19691500Y-22019273D01*
X19691500Y-22124727D01*
X19696481Y-22143316D01*
X19718794Y-22226592D01*
X19771516Y-22317908D01*
X19771518Y-22317910D01*
X19771520Y-22317913D01*
X22337295Y-24883687D01*
X24210504Y-26756896D01*
X24238281Y-26811413D01*
X24239500Y-26826900D01*
X24239500Y-27023076D01*
X24242289Y-27052814D01*
X24242291Y-27052823D01*
X24286148Y-27178158D01*
X24364997Y-27284995D01*
X24365004Y-27285002D01*
X24471841Y-27363851D01*
X24471842Y-27363851D01*
X24471843Y-27363852D01*
X24597181Y-27407710D01*
X24624619Y-27410282D01*
X24626923Y-27410499D01*
X24626928Y-27410500D01*
X24626934Y-27410500D01*
X25013072Y-27410500D01*
X25013075Y-27410499D01*
X25042819Y-27407710D01*
X25168157Y-27363852D01*
X25274999Y-27284999D01*
X25353852Y-27178157D01*
X25397710Y-27052819D01*
X25400500Y-27023066D01*
X25400500Y-26576934D01*
X25400500Y-26576928D01*
X25400499Y-26576923D01*
X25400282Y-26574619D01*
X25397710Y-26547181D01*
X25353852Y-26421843D01*
X25345790Y-26410919D01*
X25275002Y-26315004D01*
X25274995Y-26314997D01*
X25168158Y-26236148D01*
X25042823Y-26192291D01*
X25042814Y-26192289D01*
X25013076Y-26189500D01*
X25013066Y-26189500D01*
X24816900Y-26189500D01*
X24758709Y-26170593D01*
X24746896Y-26160504D01*
X20521496Y-21935103D01*
X20493719Y-21880586D01*
X20492500Y-21865099D01*
X20492500Y-17146501D01*
X20511407Y-17088310D01*
X20560907Y-17052346D01*
X20622093Y-17052346D01*
X20661504Y-17076497D01*
X24969304Y-21384297D01*
X24997081Y-21438814D01*
X24998300Y-21454301D01*
X24998300Y-21526457D01*
X25039223Y-21679184D01*
X25118280Y-21816116D01*
X25230084Y-21927920D01*
X25367016Y-22006977D01*
X25519743Y-22047900D01*
X25519745Y-22047900D01*
X25677855Y-22047900D01*
X25677857Y-22047900D01*
X25830584Y-22006977D01*
X25967516Y-21927920D01*
X26079320Y-21816116D01*
X26158377Y-21679184D01*
X26174311Y-21619714D01*
X26207633Y-21568402D01*
X26264754Y-21546474D01*
X26323855Y-21562309D01*
X26339941Y-21575334D01*
X26390504Y-21625897D01*
X26418281Y-21680414D01*
X26419500Y-21695901D01*
X26419500Y-26224801D01*
X26400593Y-26282992D01*
X26379290Y-26304455D01*
X26365003Y-26314999D01*
X26364996Y-26315006D01*
X26286148Y-26421841D01*
X26242291Y-26547176D01*
X26242289Y-26547185D01*
X26239500Y-26576923D01*
X26239500Y-27023076D01*
X26242289Y-27052814D01*
X26242291Y-27052823D01*
X26286148Y-27178158D01*
X26364997Y-27284995D01*
X26365004Y-27285002D01*
X26471841Y-27363851D01*
X26471842Y-27363851D01*
X26471843Y-27363852D01*
X26597181Y-27407710D01*
X26624619Y-27410282D01*
X26626923Y-27410499D01*
X26626928Y-27410500D01*
X26626934Y-27410500D01*
X27013072Y-27410500D01*
X27013075Y-27410499D01*
X27042819Y-27407710D01*
X27168157Y-27363852D01*
X27274999Y-27284999D01*
X27353852Y-27178157D01*
X27397710Y-27052819D01*
X27400500Y-27023066D01*
X27400500Y-26576934D01*
X27400500Y-26576928D01*
X27400499Y-26576923D01*
X27400282Y-26574619D01*
X27397710Y-26547181D01*
X27353852Y-26421843D01*
X27344890Y-26409700D01*
X27275003Y-26315006D01*
X27275001Y-26315004D01*
X27274999Y-26315001D01*
X27260710Y-26304455D01*
X27225119Y-26254687D01*
X27220500Y-26224801D01*
X27220500Y-22197601D01*
X27239407Y-22139410D01*
X27288907Y-22103446D01*
X27350093Y-22103446D01*
X27389504Y-22127597D01*
X28390504Y-23128597D01*
X28418281Y-23183114D01*
X28419500Y-23198601D01*
X28419500Y-26224801D01*
X28400593Y-26282992D01*
X28379290Y-26304455D01*
X28365003Y-26314999D01*
X28364996Y-26315006D01*
X28286148Y-26421841D01*
X28242291Y-26547176D01*
X28242289Y-26547185D01*
X28239500Y-26576923D01*
X28239500Y-27023076D01*
X28242289Y-27052814D01*
X28242291Y-27052823D01*
X28286148Y-27178158D01*
X28364997Y-27284995D01*
X28365004Y-27285002D01*
X28471841Y-27363851D01*
X28471842Y-27363851D01*
X28471843Y-27363852D01*
X28597181Y-27407710D01*
X28624619Y-27410282D01*
X28626923Y-27410499D01*
X28626928Y-27410500D01*
X28626934Y-27410500D01*
X29013072Y-27410500D01*
X29013075Y-27410499D01*
X29042819Y-27407710D01*
X29168157Y-27363852D01*
X29274999Y-27284999D01*
X29353852Y-27178157D01*
X29397710Y-27052819D01*
X29400500Y-27023066D01*
X29400500Y-26576934D01*
X29400500Y-26576928D01*
X29400499Y-26576923D01*
X29400282Y-26574619D01*
X29397710Y-26547181D01*
X29353852Y-26421843D01*
X29344890Y-26409700D01*
X29275003Y-26315006D01*
X29275001Y-26315004D01*
X29274999Y-26315001D01*
X29260710Y-26304455D01*
X29225119Y-26254687D01*
X29220500Y-26224801D01*
X29220500Y-22938974D01*
X29219349Y-22934677D01*
X29193207Y-22837113D01*
X29140480Y-22745787D01*
X29138508Y-22743815D01*
X29065913Y-22671219D01*
X29065913Y-22671220D01*
X24339796Y-17945103D01*
X24312019Y-17890586D01*
X24310800Y-17875099D01*
X24310800Y-15775301D01*
X24329707Y-15717110D01*
X24379207Y-15681146D01*
X24440393Y-15681146D01*
X24479804Y-15705297D01*
X26376604Y-17602097D01*
X26404381Y-17656614D01*
X26405600Y-17672101D01*
X26405600Y-17744257D01*
X26446523Y-17896984D01*
X26525580Y-18033916D01*
X26637384Y-18145720D01*
X26774316Y-18224777D01*
X26927043Y-18265700D01*
X26999199Y-18265700D01*
X27057390Y-18284607D01*
X27069203Y-18294696D01*
X27296037Y-18521530D01*
X27323814Y-18576047D01*
X27314243Y-18636479D01*
X27270978Y-18679744D01*
X27210546Y-18689315D01*
X27200410Y-18687161D01*
X27172729Y-18679744D01*
X27059857Y-18649500D01*
X26901743Y-18649500D01*
X26749016Y-18690423D01*
X26612084Y-18769480D01*
X26500280Y-18881284D01*
X26421223Y-19018216D01*
X26380300Y-19170943D01*
X26380300Y-19329057D01*
X26421223Y-19481784D01*
X26500280Y-19618716D01*
X26612084Y-19730520D01*
X26749016Y-19809577D01*
X26901743Y-19850500D01*
X26973899Y-19850500D01*
X27032090Y-19869407D01*
X27043903Y-19879496D01*
X31045004Y-23880597D01*
X31072781Y-23935114D01*
X31074000Y-23950601D01*
X31074000Y-25938600D01*
X31055093Y-25996791D01*
X31045004Y-26008603D01*
X30893105Y-26160503D01*
X30838588Y-26188281D01*
X30823101Y-26189500D01*
X30626923Y-26189500D01*
X30597185Y-26192289D01*
X30597176Y-26192291D01*
X30471841Y-26236148D01*
X30365004Y-26314997D01*
X30364997Y-26315004D01*
X30286148Y-26421841D01*
X30242291Y-26547176D01*
X30242289Y-26547185D01*
X30239500Y-26576923D01*
X30239500Y-27023076D01*
X30242289Y-27052814D01*
X30242291Y-27052823D01*
X30286148Y-27178158D01*
X30364997Y-27284995D01*
X30365004Y-27285002D01*
X30471841Y-27363851D01*
X30471842Y-27363851D01*
X30471843Y-27363852D01*
X30597181Y-27407710D01*
X30624619Y-27410282D01*
X30626923Y-27410499D01*
X30626928Y-27410500D01*
X30626934Y-27410500D01*
X31013072Y-27410500D01*
X31013075Y-27410499D01*
X31042819Y-27407710D01*
X31168157Y-27363852D01*
X31274999Y-27284999D01*
X31353852Y-27178157D01*
X31397710Y-27052819D01*
X31400500Y-27023066D01*
X31400500Y-26826900D01*
X31419407Y-26768709D01*
X31429496Y-26756896D01*
X31611396Y-26574996D01*
X31665913Y-26547219D01*
X31681400Y-26546000D01*
X32163600Y-26546000D01*
X32221791Y-26564907D01*
X32233596Y-26574989D01*
X32245502Y-26586894D01*
X32273280Y-26641408D01*
X32274500Y-26656899D01*
X32274500Y-27091148D01*
X32284641Y-27175591D01*
X32337634Y-27309972D01*
X32337635Y-27309974D01*
X32337636Y-27309975D01*
X32424922Y-27425078D01*
X32540025Y-27512364D01*
X32540027Y-27512364D01*
X32540030Y-27512367D01*
X32544190Y-27514706D01*
X32585646Y-27559707D01*
X32592734Y-27620480D01*
X32562746Y-27673813D01*
X32507137Y-27699334D01*
X32495669Y-27700000D01*
X2009811Y-27700000D01*
X2004997Y-27699883D01*
X2001030Y-27699689D01*
X1936301Y-27696538D01*
X1926550Y-27695578D01*
X1868297Y-27686913D01*
X1858784Y-27685017D01*
X1801593Y-27670676D01*
X1792343Y-27667870D01*
X1736900Y-27648045D01*
X1727882Y-27644308D01*
X1674575Y-27619071D01*
X1666044Y-27614509D01*
X1615489Y-27584210D01*
X1607375Y-27578786D01*
X1560075Y-27543676D01*
X1552624Y-27537561D01*
X1508931Y-27497988D01*
X1502011Y-27491068D01*
X1462438Y-27447375D01*
X1456323Y-27439924D01*
X1421213Y-27392624D01*
X1415789Y-27384510D01*
X1385490Y-27333955D01*
X1380928Y-27325424D01*
X1355691Y-27272117D01*
X1351958Y-27263109D01*
X1332124Y-27207643D01*
X1329323Y-27198406D01*
X1314982Y-27141215D01*
X1313086Y-27131702D01*
X1304421Y-27073449D01*
X1303461Y-27063697D01*
X1300117Y-26995003D01*
X1300000Y-26990189D01*
X1300000Y-25508851D01*
X17774500Y-25508851D01*
X17774500Y-26091148D01*
X17784641Y-26175591D01*
X17837634Y-26309972D01*
X17837635Y-26309974D01*
X17837636Y-26309975D01*
X17924922Y-26425078D01*
X18040025Y-26512364D01*
X18040026Y-26512364D01*
X18040027Y-26512365D01*
X18063600Y-26521661D01*
X18174410Y-26565359D01*
X18258856Y-26575500D01*
X18258858Y-26575500D01*
X18791142Y-26575500D01*
X18791144Y-26575500D01*
X18875590Y-26565359D01*
X19009975Y-26512364D01*
X19125078Y-26425078D01*
X19212364Y-26309975D01*
X19265359Y-26175590D01*
X19275500Y-26091144D01*
X19275500Y-25508856D01*
X19265359Y-25424410D01*
X19212364Y-25290025D01*
X19212363Y-25290022D01*
X19193516Y-25265169D01*
X19173421Y-25207378D01*
X19173400Y-25205350D01*
X19173400Y-21532743D01*
X19192307Y-21474552D01*
X19202390Y-21462745D01*
X19253420Y-21411716D01*
X19332477Y-21274784D01*
X19373400Y-21122057D01*
X19373400Y-20963943D01*
X19332477Y-20811216D01*
X19253420Y-20674284D01*
X19141616Y-20562480D01*
X19004684Y-20483423D01*
X18851957Y-20442500D01*
X18693843Y-20442500D01*
X18541116Y-20483423D01*
X18404184Y-20562480D01*
X18292380Y-20674284D01*
X18213323Y-20811216D01*
X18172400Y-20963943D01*
X18172400Y-21122057D01*
X18213323Y-21274784D01*
X18292380Y-21411716D01*
X18343405Y-21462741D01*
X18371181Y-21517256D01*
X18372400Y-21532743D01*
X18372400Y-24925500D01*
X18353493Y-24983691D01*
X18303993Y-25019655D01*
X18273400Y-25024500D01*
X18258851Y-25024500D01*
X18174408Y-25034641D01*
X18040027Y-25087634D01*
X17924922Y-25174922D01*
X17837634Y-25290027D01*
X17784641Y-25424408D01*
X17774500Y-25508851D01*
X1300000Y-25508851D01*
X1300000Y-3893709D01*
X3149500Y-3893709D01*
X3149500Y-4106290D01*
X3182752Y-4316238D01*
X3248443Y-4518412D01*
X3344948Y-4707815D01*
X3344950Y-4707819D01*
X3469891Y-4879786D01*
X3469893Y-4879788D01*
X3469896Y-4879792D01*
X3620208Y-5030104D01*
X3620211Y-5030106D01*
X3620213Y-5030108D01*
X3792180Y-5155049D01*
X3792184Y-5155051D01*
X3981588Y-5251557D01*
X4183757Y-5317246D01*
X4183758Y-5317246D01*
X4183761Y-5317247D01*
X4393710Y-5350500D01*
X4393713Y-5350500D01*
X4606290Y-5350500D01*
X4816238Y-5317247D01*
X4816239Y-5317246D01*
X4816243Y-5317246D01*
X5018412Y-5251557D01*
X5207816Y-5155051D01*
X5379792Y-5030104D01*
X5530104Y-4879792D01*
X5655051Y-4707816D01*
X5672918Y-4672750D01*
X8140500Y-4672750D01*
X8140500Y-4853849D01*
X8168828Y-5032706D01*
X8224788Y-5204937D01*
X8298956Y-5350500D01*
X8307004Y-5366294D01*
X8413447Y-5512801D01*
X8541499Y-5640853D01*
X8688006Y-5747296D01*
X8849361Y-5829511D01*
X9021591Y-5885471D01*
X9092078Y-5896635D01*
X9200451Y-5913800D01*
X9200454Y-5913800D01*
X9381549Y-5913800D01*
X9470977Y-5899635D01*
X9560409Y-5885471D01*
X9732639Y-5829511D01*
X9893994Y-5747296D01*
X10040501Y-5640853D01*
X10168553Y-5512801D01*
X10274996Y-5366294D01*
X10357211Y-5204939D01*
X10413171Y-5032709D01*
X10441500Y-4853846D01*
X10441500Y-4672754D01*
X10441500Y-4672750D01*
X10417055Y-4518412D01*
X10413171Y-4493891D01*
X10357211Y-4321661D01*
X10274996Y-4160306D01*
X10168553Y-4013799D01*
X10040501Y-3885747D01*
X9893994Y-3779304D01*
X9893993Y-3779303D01*
X9893991Y-3779302D01*
X9732637Y-3697088D01*
X9560406Y-3641128D01*
X9381549Y-3612800D01*
X9381546Y-3612800D01*
X9200454Y-3612800D01*
X9200451Y-3612800D01*
X9021593Y-3641128D01*
X8849362Y-3697088D01*
X8688008Y-3779302D01*
X8657300Y-3801613D01*
X8541499Y-3885747D01*
X8413447Y-4013799D01*
X8396622Y-4036957D01*
X8307002Y-4160308D01*
X8224788Y-4321662D01*
X8168828Y-4493893D01*
X8140500Y-4672750D01*
X5672918Y-4672750D01*
X5751557Y-4518412D01*
X5817246Y-4316243D01*
X5837291Y-4189684D01*
X5850500Y-4106290D01*
X5850500Y-3893709D01*
X5817247Y-3683761D01*
X5803395Y-3641128D01*
X5751557Y-3481588D01*
X5655051Y-3292184D01*
X5655049Y-3292180D01*
X5530108Y-3120213D01*
X5530106Y-3120211D01*
X5530104Y-3120208D01*
X5379792Y-2969896D01*
X5379788Y-2969893D01*
X5379786Y-2969891D01*
X5207819Y-2844950D01*
X5207815Y-2844948D01*
X5035351Y-2757074D01*
X5035350Y-2757073D01*
X5018415Y-2748444D01*
X4816238Y-2682752D01*
X4753087Y-2672750D01*
X24140500Y-2672750D01*
X24140500Y-2853849D01*
X24168828Y-3032706D01*
X24197258Y-3120208D01*
X24224789Y-3204939D01*
X24307004Y-3366294D01*
X24413447Y-3512801D01*
X24541499Y-3640853D01*
X24688006Y-3747296D01*
X24849361Y-3829511D01*
X25021591Y-3885471D01*
X25093136Y-3896802D01*
X25200451Y-3913800D01*
X25200454Y-3913800D01*
X25381549Y-3913800D01*
X25470977Y-3899635D01*
X25508394Y-3893709D01*
X51149500Y-3893709D01*
X51149500Y-4106290D01*
X51182752Y-4316238D01*
X51248443Y-4518412D01*
X51344948Y-4707815D01*
X51344950Y-4707819D01*
X51469891Y-4879786D01*
X51469893Y-4879788D01*
X51469896Y-4879792D01*
X51620208Y-5030104D01*
X51620211Y-5030106D01*
X51620213Y-5030108D01*
X51792180Y-5155049D01*
X51792184Y-5155051D01*
X51981588Y-5251557D01*
X52183757Y-5317246D01*
X52183758Y-5317246D01*
X52183761Y-5317247D01*
X52393710Y-5350500D01*
X52393713Y-5350500D01*
X52606290Y-5350500D01*
X52816238Y-5317247D01*
X52816239Y-5317246D01*
X52816243Y-5317246D01*
X53018412Y-5251557D01*
X53207816Y-5155051D01*
X53379792Y-5030104D01*
X53530104Y-4879792D01*
X53655051Y-4707816D01*
X53751557Y-4518412D01*
X53817246Y-4316243D01*
X53837291Y-4189684D01*
X53850500Y-4106290D01*
X53850500Y-3893709D01*
X53817247Y-3683761D01*
X53803395Y-3641128D01*
X53751557Y-3481588D01*
X53655051Y-3292184D01*
X53655049Y-3292180D01*
X53530108Y-3120213D01*
X53530106Y-3120211D01*
X53530104Y-3120208D01*
X53379792Y-2969896D01*
X53379788Y-2969893D01*
X53379786Y-2969891D01*
X53207819Y-2844950D01*
X53207815Y-2844948D01*
X53018412Y-2748443D01*
X52816238Y-2682752D01*
X52606290Y-2649500D01*
X52606287Y-2649500D01*
X52393713Y-2649500D01*
X52393710Y-2649500D01*
X52183761Y-2682752D01*
X51981587Y-2748443D01*
X51792184Y-2844948D01*
X51792180Y-2844950D01*
X51620213Y-2969891D01*
X51469891Y-3120213D01*
X51344950Y-3292180D01*
X51344948Y-3292184D01*
X51248443Y-3481587D01*
X51182752Y-3683761D01*
X51149500Y-3893709D01*
X25508394Y-3893709D01*
X25560409Y-3885471D01*
X25732639Y-3829511D01*
X25787392Y-3801613D01*
X25787395Y-3801612D01*
X25893983Y-3747302D01*
X25893990Y-3747298D01*
X25893989Y-3747298D01*
X25893994Y-3747296D01*
X26040501Y-3640853D01*
X26168553Y-3512801D01*
X26274996Y-3366294D01*
X26357211Y-3204939D01*
X26413171Y-3032709D01*
X26441500Y-2853846D01*
X26441500Y-2672754D01*
X26441500Y-2672750D01*
X26413171Y-2493893D01*
X26413171Y-2493891D01*
X26357211Y-2321661D01*
X26274996Y-2160306D01*
X26168553Y-2013799D01*
X26040501Y-1885747D01*
X25893994Y-1779304D01*
X25893993Y-1779303D01*
X25893991Y-1779302D01*
X25732637Y-1697088D01*
X25560406Y-1641128D01*
X25381549Y-1612800D01*
X25381546Y-1612800D01*
X25200454Y-1612800D01*
X25200451Y-1612800D01*
X25021593Y-1641128D01*
X24849362Y-1697088D01*
X24688008Y-1779302D01*
X24614752Y-1832525D01*
X24541499Y-1885747D01*
X24413447Y-2013799D01*
X24360225Y-2087052D01*
X24307002Y-2160308D01*
X24224788Y-2321662D01*
X24168828Y-2493893D01*
X24140500Y-2672750D01*
X4753087Y-2672750D01*
X4606290Y-2649500D01*
X4606287Y-2649500D01*
X4393713Y-2649500D01*
X4393710Y-2649500D01*
X4183761Y-2682752D01*
X3981587Y-2748443D01*
X3792184Y-2844948D01*
X3792180Y-2844950D01*
X3620213Y-2969891D01*
X3469891Y-3120213D01*
X3344950Y-3292180D01*
X3344948Y-3292184D01*
X3248443Y-3481587D01*
X3182752Y-3683761D01*
X3149500Y-3893709D01*
X1300000Y-3893709D01*
X1300000Y-1009810D01*
X1300117Y-1004996D01*
X1303461Y-936302D01*
X1304421Y-926550D01*
X1313086Y-868297D01*
X1314979Y-858794D01*
X1329324Y-801588D01*
X1332122Y-792362D01*
X1351961Y-736883D01*
X1355686Y-727892D01*
X1380934Y-674562D01*
X1385483Y-666056D01*
X1415793Y-615482D01*
X1421213Y-607375D01*
X1456329Y-560066D01*
X1462430Y-552633D01*
X1502015Y-508926D01*
X1508931Y-502011D01*
X1552633Y-462430D01*
X1560066Y-456329D01*
X1607381Y-421208D01*
X1615482Y-415793D01*
X1666056Y-385483D01*
X1674562Y-380934D01*
X1727892Y-355686D01*
X1736883Y-351961D01*
X1792362Y-332122D01*
X1801588Y-329324D01*
X1858794Y-314979D01*
X1868287Y-313087D01*
X1926558Y-304420D01*
X1936294Y-303461D01*
X2004997Y-300117D01*
X2009811Y-300000D01*
X13441179Y-300000D01*
X13499370Y-318907D01*
G37*
%TD.AperFunction*%
%TA.AperFunction,Conductor*%
G36*
X37733691Y-26428607D02*
G01*
X37769655Y-26478107D01*
X37774500Y-26508700D01*
X37774500Y-27091148D01*
X37784641Y-27175591D01*
X37837634Y-27309972D01*
X37837635Y-27309974D01*
X37837636Y-27309975D01*
X37924922Y-27425078D01*
X38040025Y-27512364D01*
X38040027Y-27512364D01*
X38040030Y-27512367D01*
X38044190Y-27514706D01*
X38085646Y-27559707D01*
X38092734Y-27620480D01*
X38062746Y-27673813D01*
X38007137Y-27699334D01*
X37995669Y-27700000D01*
X33554331Y-27700000D01*
X33496140Y-27681093D01*
X33460176Y-27631593D01*
X33460176Y-27570407D01*
X33496140Y-27520907D01*
X33505810Y-27514706D01*
X33509969Y-27512367D01*
X33509970Y-27512365D01*
X33509975Y-27512364D01*
X33625078Y-27425078D01*
X33712364Y-27309975D01*
X33765359Y-27175590D01*
X33775500Y-27091144D01*
X33775500Y-26656901D01*
X33794407Y-26598710D01*
X33804496Y-26586897D01*
X33952697Y-26438696D01*
X34007214Y-26410919D01*
X34022701Y-26409700D01*
X37675500Y-26409700D01*
X37733691Y-26428607D01*
G37*
%TD.AperFunction*%
%TD*%
M02*
