M48
; DRILL file KiCad 10.0.5 date 2026-09-13T20:07:39
; FORMAT={-:-/ absolute / metric / decimal}
; #@! TF.CreationDate,2026-09-13T20:07:39-04:00
; #@! TF.GenerationSoftware,Kicad,Pcbnew,10.0.5
; #@! TF.FileFunction,Plated,1,2,PTH
FMAT,2
METRIC
; #@! TA.AperFunction,Plated,PTH,ViaDrill
T1C0.300
; #@! TA.AperFunction,Plated,PTH,ComponentDrill
T2C0.600
%
G90
G05
T1
X4.5Y-30.8
X5.14Y-11.5
X5.5Y-34.4
X6.5Y-30.8
X7.5Y-30.8
X8.5Y-30.8
X9.5Y-34.4
X9.743Y-17.5
X10.197Y-18.131
X10.5Y-30.8
X11.356Y-19.078
X11.5Y-34.4
X12.5Y-30.8
X13.5Y-34.4
X14.111Y-17.121
X14.5Y-30.8
X15.5Y-30.8
X16.005Y-20.95
X17.127Y-10.5
X17.235Y-21.375
X17.645Y-8.407
X18.325Y-16.25
X18.773Y-20.043
X19.311Y-17.19
X19.395Y-2.958
X20.092Y-14.247
X23.276Y-13.889
X23.304Y-14.695
X25.027Y-9.076
X25.599Y-20.447
X26.981Y-18.25
X27.006Y-16.665
X29.813Y-22.96
X33.541Y-8.737
X33.913Y-17.505
X34.613Y-13.962
X35.948Y-8.931
X36.098Y-7.882
X37.711Y-13.369
X37.729Y-20.915
X38.0Y-11.321
X38.25Y-7.907
X38.542Y-5.518
X40.278Y-19.437
X41.329Y-10.5
X41.5Y-30.8
X42.5Y-34.4
X43.5Y-30.8
X44.379Y-10.304
X44.5Y-30.8
X45.5Y-30.8
X46.164Y-8.449
X46.5Y-34.4
X47.5Y-30.8
X48.415Y-13.183
X48.5Y-34.4
X49.5Y-30.8
X50.5Y-34.4
X51.5Y-30.8
X52.155Y-10.5
X52.5Y-30.8
T2
X33.18Y-1.9G85X33.18Y-1.3
G05
X33.18Y-6.33G85X33.18Y-5.23
G05
X41.82Y-1.9G85X41.82Y-1.3
G05
X41.82Y-6.33G85X41.82Y-5.23
G05
M30
