%TF.GenerationSoftware,KiCad,Pcbnew,10.0.5*%
%TF.CreationDate,2026-09-22T21:49:55-04:00*%
%TF.ProjectId,Symm60HE-three-key-left-wkl-right-bs2-Right,53796d6d-3630-4484-952d-74687265652d,rev?*%
%TF.SameCoordinates,Original*%
%TF.FileFunction,Legend,Bot*%
%TF.FilePolarity,Positive*%
%FSLAX46Y46*%
G04 Gerber Fmt 4.6, Leading zero omitted, Abs format (unit mm)*
G04 Created by KiCad (PCBNEW 10.0.5) date 2026-09-22 21:49:55*
%MOMM*%
%LPD*%
G01*
G04 APERTURE LIST*
G04 Aperture macros list*
%AMRoundRect*
0 Rectangle with rounded corners*
0 $1 Rounding radius*
0 $2 $3 $4 $5 $6 $7 $8 $9 X,Y pos of 4 corners*
0 Add a 4 corners polygon primitive as box body*
4,1,4,$2,$3,$4,$5,$6,$7,$8,$9,$2,$3,0*
0 Add four circle primitives for the rounded corners*
1,1,$1+$1,$2,$3*
1,1,$1+$1,$4,$5*
1,1,$1+$1,$6,$7*
1,1,$1+$1,$8,$9*
0 Add four rect primitives between the rounded corners*
20,1,$1+$1,$2,$3,$4,$5,0*
20,1,$1+$1,$4,$5,$6,$7,0*
20,1,$1+$1,$6,$7,$8,$9,0*
20,1,$1+$1,$8,$9,$2,$3,0*%
G04 Aperture macros list end*
%ADD10C,0.150000*%
%ADD11C,0.120000*%
%ADD12C,0.310000*%
%ADD13C,0.310001*%
%ADD14C,2.200000*%
%ADD15C,3.048000*%
%ADD16C,3.987800*%
%ADD17RoundRect,0.140000X-0.140000X-0.170000X0.140000X-0.170000X0.140000X0.170000X-0.140000X0.170000X0*%
%ADD18RoundRect,0.140000X-0.158345X-0.153059X0.119856X-0.184756X0.158345X0.153059X-0.119856X0.184756X0*%
%ADD19RoundRect,0.150000X-0.150000X0.512500X-0.150000X-0.512500X0.150000X-0.512500X0.150000X0.512500X0*%
%ADD20RoundRect,0.150000X-0.207052X0.492225X-0.091019X-0.526186X0.207052X-0.492225X0.091019X0.526186X0*%
%ADD21RoundRect,0.140000X-0.140992X-0.169179X0.139004X-0.170816X0.140992X0.169179X-0.139004X0.170816X0*%
%ADD22RoundRect,0.140000X-0.146486X-0.164444X0.133304X-0.175300X0.146486X0.164444X-0.133304X0.175300X0*%
%ADD23RoundRect,0.140000X-0.134658X-0.174262X0.145207X-0.165574X0.134658X0.174262X-0.145207X0.165574X0*%
%ADD24RoundRect,0.205000X-0.446196X-0.252655X0.488732X-0.155133X0.446196X0.252655X-0.488732X0.155133X0*%
%ADD25RoundRect,0.205000X0.205000X-0.470000X0.205000X0.470000X-0.205000X0.470000X-0.205000X-0.470000X0*%
%ADD26RoundRect,0.140000X-0.158427X-0.152973X0.119756X-0.184820X0.158427X0.152973X-0.119756X0.184820X0*%
%ADD27RoundRect,0.205000X-0.470000X-0.205000X0.470000X-0.205000X0.470000X0.205000X-0.470000X0.205000X0*%
%ADD28RoundRect,0.140000X-0.145314X-0.165481X0.134545X-0.174349X0.145314X0.165481X-0.134545X0.174349X0*%
%ADD29RoundRect,0.140000X-0.119856X-0.184756X0.158345X-0.153059X0.119856X0.184756X-0.158345X0.153059X0*%
%ADD30RoundRect,0.140000X-0.124613X-0.181581X0.154317X-0.157119X0.124613X0.181581X-0.154317X0.157119X0*%
%ADD31RoundRect,0.205000X-0.465970X-0.214001X0.473856X-0.195923X0.465970X0.214001X-0.473856X0.195923X0*%
%ADD32RoundRect,0.140000X-0.158963X-0.152416X0.119106X-0.185239X0.158963X0.152416X-0.119106X0.185239X0*%
%ADD33RoundRect,0.140000X-0.157081X-0.154355X0.121370X-0.183764X0.157081X0.154355X-0.121370X0.183764X0*%
%ADD34RoundRect,0.140000X-0.121607X-0.183607X0.156882X-0.154558X0.121607X0.183607X-0.156882X0.154558X0*%
%ADD35RoundRect,0.150000X0.950000X-0.150000X0.950000X0.150000X-0.950000X0.150000X-0.950000X-0.150000X0*%
%ADD36RoundRect,0.360000X0.940000X-0.540000X0.940000X0.540000X-0.940000X0.540000X-0.940000X-0.540000X0*%
%ADD37RoundRect,0.150000X0.150000X-0.825000X0.150000X0.825000X-0.150000X0.825000X-0.150000X-0.825000X0*%
%ADD38RoundRect,0.150000X-0.150268X0.512421X-0.149732X-0.512578X0.150268X-0.512421X0.149732X0.512578X0*%
%ADD39RoundRect,0.150000X-0.179270X0.503009X-0.120232X-0.520289X0.179270X-0.503009X0.120232X0.520289X0*%
%ADD40RoundRect,0.150000X-0.169431X0.506408X-0.130351X-0.517846X0.169431X-0.506408X0.130351X0.517846X0*%
%ADD41RoundRect,0.205000X-0.205000X0.470000X-0.205000X-0.470000X0.205000X-0.470000X0.205000X0.470000X0*%
%ADD42RoundRect,0.150000X-0.190471X0.498876X-0.108570X-0.522847X0.190471X-0.498876X0.108570X0.522847X0*%
%ADD43RoundRect,0.150000X-0.202361X0.494172X-0.096020X-0.525296X0.202361X-0.494172X0.096020X0.525296X0*%
%ADD44RoundRect,0.140000X-0.136705X-0.172661X0.143244X-0.167276X0.136705X0.172661X-0.143244X0.167276X0*%
%ADD45RoundRect,0.140000X-0.133417X-0.175214X0.146380X-0.164539X0.133417X0.175214X-0.146380X0.164539X0*%
%ADD46RoundRect,0.205000X-0.452117X-0.241899X0.484877X-0.166790X0.452117X0.241899X-0.484877X0.166790X0*%
%ADD47RoundRect,0.140000X-0.146503X-0.164429X0.133285X-0.175314X0.146503X0.164429X-0.133285X0.175314X0*%
%ADD48RoundRect,0.205000X-0.444809X-0.255089X0.489572X-0.152460X0.444809X0.255089X-0.489572X0.152460X0*%
%ADD49RoundRect,0.140000X-0.138018X-0.171613X0.141964X-0.168364X0.138018X0.171613X-0.141964X0.168364X0*%
%ADD50RoundRect,0.140000X-0.121556X-0.183641X0.156925X-0.154514X0.121556X0.183641X-0.156925X0.154514X0*%
%ADD51RoundRect,0.140000X0.170000X-0.140000X0.170000X0.140000X-0.170000X0.140000X-0.170000X-0.140000X0*%
%ADD52RoundRect,0.135000X-0.135000X-0.185000X0.135000X-0.185000X0.135000X0.185000X-0.135000X0.185000X0*%
%ADD53RoundRect,0.140000X-0.150673X-0.160616X0.128744X-0.178676X0.150673X0.160616X-0.128744X0.178676X0*%
%ADD54RoundRect,0.150000X-0.165829X0.507599X-0.134026X-0.516907X0.165829X-0.507599X0.134026X0.516907X0*%
%ADD55RoundRect,0.205000X-0.469893X-0.205246X0.470107X-0.204754X0.469893X0.205246X-0.470107X0.204754X0*%
%ADD56RoundRect,0.140000X-0.139911X-0.170073X0.140089X-0.169927X0.139911X0.170073X-0.140089X0.169927X0*%
%ADD57RoundRect,0.150000X-0.205058X0.493059X-0.093149X-0.525813X0.205058X-0.493059X0.093149X0.525813X0*%
%ADD58RoundRect,0.150000X-0.151091X0.512179X-0.148908X-0.512818X0.151091X-0.512179X0.148908X0.512818X0*%
%ADD59RoundRect,0.140000X-0.142647X-0.167785X0.137318X-0.172173X0.142647X0.167785X-0.137318X0.172173X0*%
%ADD60RoundRect,0.140000X-0.130911X-0.177094X0.148705X-0.162440X0.130911X0.177094X-0.148705X0.162440X0*%
%ADD61RoundRect,0.140000X-0.152677X-0.158713X0.126492X-0.180277X0.152677X0.158713X-0.126492X0.180277X0*%
%ADD62RoundRect,0.205000X-0.455096X-0.236246X0.482761X-0.172819X0.455096X0.236246X-0.482761X0.172819X0*%
%ADD63RoundRect,0.205000X-0.463436X-0.219435X0.476114X-0.190368X0.463436X0.219435X-0.476114X0.190368X0*%
%ADD64RoundRect,0.205000X-0.463413X-0.219484X0.476134X-0.190319X0.463413X0.219484X-0.476134X0.190319X0*%
%ADD65RoundRect,0.150000X-0.184239X0.501211X-0.115077X-0.521453X0.184239X-0.501211X0.115077X0.521453X0*%
%ADD66RoundRect,0.205000X-0.450293X-0.245277X0.486113X-0.163155X0.450293X0.245277X-0.486113X0.163155X0*%
%ADD67RoundRect,0.140000X-0.129976X-0.177782X0.149559X-0.161654X0.129976X0.177782X-0.149559X0.161654X0*%
%ADD68RoundRect,0.140000X-0.139638X-0.170298X0.140362X-0.169702X0.139638X0.170298X-0.140362X0.169702X0*%
%ADD69RoundRect,0.205000X-0.469562X-0.206000X0.470435X-0.203999X0.469562X0.206000X-0.470435X0.203999X0*%
%ADD70RoundRect,0.140000X-0.125969X-0.180643X0.153136X-0.158270X0.125969X0.180643X-0.153136X0.158270X0*%
%ADD71RoundRect,0.140000X-0.154251X-0.157184X0.124689X-0.181529X0.154251X0.157184X-0.124689X0.181529X0*%
%ADD72RoundRect,0.150000X-0.159829X0.509520X-0.140116X-0.515290X0.159829X-0.509520X0.140116X0.515290X0*%
%ADD73RoundRect,0.140000X-0.128210X-0.179059X0.151152X-0.160166X0.128210X0.179059X-0.151152X0.160166X0*%
%ADD74RoundRect,0.205000X-0.467589X-0.210441X0.472348X-0.199531X0.467589X0.210441X-0.472348X0.199531X0*%
%ADD75RoundRect,0.150000X-0.165776X0.507617X-0.134081X-0.516893X0.165776X-0.507617X0.134081X0.516893X0*%
%ADD76RoundRect,0.205000X-0.443911X-0.256648X0.490104X-0.150742X0.443911X0.256648X-0.490104X0.150742X0*%
%ADD77RoundRect,0.150000X-0.206786X0.492337X-0.091304X-0.526137X0.206786X-0.492337X0.091304X0.526137X0*%
%ADD78RoundRect,0.205000X-0.461842X-0.222770X0.477474X-0.186932X0.461842X0.222770X-0.477474X0.186932X0*%
%ADD79RoundRect,0.150000X-0.194201X0.497436X-0.104652X-0.523645X0.194201X-0.497436X0.104652X0.523645X0*%
%ADD80RoundRect,0.150000X-0.202499X0.494116X-0.095873X-0.525323X0.202499X-0.494116X0.095873X0.525323X0*%
%ADD81RoundRect,0.140000X-0.119955X-0.184691X0.158262X-0.153144X0.119955X0.184691X-0.158262X0.153144X0*%
%ADD82RoundRect,0.140000X-0.170000X0.140000X-0.170000X-0.140000X0.170000X-0.140000X0.170000X0.140000X0*%
%ADD83RoundRect,0.205000X-0.443772X-0.256888X0.490185X-0.150477X0.443772X0.256888X-0.490185X0.150477X0*%
%ADD84RoundRect,0.205000X-0.457412X-0.231731X0.481027X-0.177588X0.457412X0.231731X-0.481027X0.177588X0*%
%ADD85RoundRect,0.140000X-0.134676X-0.174248X0.145190X-0.165590X0.134676X0.174248X-0.145190X0.165590X0*%
%ADD86RoundRect,0.150000X-0.155938X0.510725X-0.144042X-0.514206X0.155938X-0.510725X0.144042X0.514206X0*%
%ADD87RoundRect,0.140000X-0.120603X-0.184269X0.157724X-0.153699X0.120603X0.184269X-0.157724X0.153699X0*%
%ADD88RoundRect,0.140000X-0.151883X-0.159473X0.127390X-0.179644X0.151883X0.159473X-0.127390X0.179644X0*%
%ADD89RoundRect,0.205000X-0.446125X-0.252780X0.488775X-0.154996X0.446125X0.252780X-0.488775X0.154996X0*%
%ADD90RoundRect,0.150000X-0.816019X-0.192972X0.831720X-0.106617X0.816019X0.192972X-0.831720X0.106617X0*%
G04 APERTURE END LIST*
D10*
X183813815Y-101232009D02*
X183813815Y-100232009D01*
X183813815Y-100232009D02*
X183575720Y-100232009D01*
X183575720Y-100232009D02*
X183432863Y-100279628D01*
X183432863Y-100279628D02*
X183337625Y-100374866D01*
X183337625Y-100374866D02*
X183290006Y-100470104D01*
X183290006Y-100470104D02*
X183242387Y-100660580D01*
X183242387Y-100660580D02*
X183242387Y-100803437D01*
X183242387Y-100803437D02*
X183290006Y-100993913D01*
X183290006Y-100993913D02*
X183337625Y-101089151D01*
X183337625Y-101089151D02*
X183432863Y-101184390D01*
X183432863Y-101184390D02*
X183575720Y-101232009D01*
X183575720Y-101232009D02*
X183813815Y-101232009D01*
X182242387Y-101232009D02*
X182575720Y-100755818D01*
X182813815Y-101232009D02*
X182813815Y-100232009D01*
X182813815Y-100232009D02*
X182432863Y-100232009D01*
X182432863Y-100232009D02*
X182337625Y-100279628D01*
X182337625Y-100279628D02*
X182290006Y-100327247D01*
X182290006Y-100327247D02*
X182242387Y-100422485D01*
X182242387Y-100422485D02*
X182242387Y-100565342D01*
X182242387Y-100565342D02*
X182290006Y-100660580D01*
X182290006Y-100660580D02*
X182337625Y-100708199D01*
X182337625Y-100708199D02*
X182432863Y-100755818D01*
X182432863Y-100755818D02*
X182813815Y-100755818D01*
X181909053Y-100232009D02*
X181290006Y-100232009D01*
X181290006Y-100232009D02*
X181623339Y-100612961D01*
X181623339Y-100612961D02*
X181480482Y-100612961D01*
X181480482Y-100612961D02*
X181385244Y-100660580D01*
X181385244Y-100660580D02*
X181337625Y-100708199D01*
X181337625Y-100708199D02*
X181290006Y-100803437D01*
X181290006Y-100803437D02*
X181290006Y-101041532D01*
X181290006Y-101041532D02*
X181337625Y-101136770D01*
X181337625Y-101136770D02*
X181385244Y-101184390D01*
X181385244Y-101184390D02*
X181480482Y-101232009D01*
X181480482Y-101232009D02*
X181766196Y-101232009D01*
X181766196Y-101232009D02*
X181861434Y-101184390D01*
X181861434Y-101184390D02*
X181909053Y-101136770D01*
X180909053Y-100327247D02*
X180861434Y-100279628D01*
X180861434Y-100279628D02*
X180766196Y-100232009D01*
X180766196Y-100232009D02*
X180528101Y-100232009D01*
X180528101Y-100232009D02*
X180432863Y-100279628D01*
X180432863Y-100279628D02*
X180385244Y-100327247D01*
X180385244Y-100327247D02*
X180337625Y-100422485D01*
X180337625Y-100422485D02*
X180337625Y-100517723D01*
X180337625Y-100517723D02*
X180385244Y-100660580D01*
X180385244Y-100660580D02*
X180956672Y-101232009D01*
X180956672Y-101232009D02*
X180337625Y-101232009D01*
X258581819Y-91960714D02*
X257581819Y-91960714D01*
X257581819Y-91960714D02*
X257581819Y-92198809D01*
X257581819Y-92198809D02*
X257629438Y-92341666D01*
X257629438Y-92341666D02*
X257724676Y-92436904D01*
X257724676Y-92436904D02*
X257819914Y-92484523D01*
X257819914Y-92484523D02*
X258010390Y-92532142D01*
X258010390Y-92532142D02*
X258153247Y-92532142D01*
X258153247Y-92532142D02*
X258343723Y-92484523D01*
X258343723Y-92484523D02*
X258438961Y-92436904D01*
X258438961Y-92436904D02*
X258534200Y-92341666D01*
X258534200Y-92341666D02*
X258581819Y-92198809D01*
X258581819Y-92198809D02*
X258581819Y-91960714D01*
X258581819Y-93532142D02*
X258105628Y-93198809D01*
X258581819Y-92960714D02*
X257581819Y-92960714D01*
X257581819Y-92960714D02*
X257581819Y-93341666D01*
X257581819Y-93341666D02*
X257629438Y-93436904D01*
X257629438Y-93436904D02*
X257677057Y-93484523D01*
X257677057Y-93484523D02*
X257772295Y-93532142D01*
X257772295Y-93532142D02*
X257915152Y-93532142D01*
X257915152Y-93532142D02*
X258010390Y-93484523D01*
X258010390Y-93484523D02*
X258058009Y-93436904D01*
X258058009Y-93436904D02*
X258105628Y-93341666D01*
X258105628Y-93341666D02*
X258105628Y-92960714D01*
X257677057Y-93913095D02*
X257629438Y-93960714D01*
X257629438Y-93960714D02*
X257581819Y-94055952D01*
X257581819Y-94055952D02*
X257581819Y-94294047D01*
X257581819Y-94294047D02*
X257629438Y-94389285D01*
X257629438Y-94389285D02*
X257677057Y-94436904D01*
X257677057Y-94436904D02*
X257772295Y-94484523D01*
X257772295Y-94484523D02*
X257867533Y-94484523D01*
X257867533Y-94484523D02*
X258010390Y-94436904D01*
X258010390Y-94436904D02*
X258581819Y-93865476D01*
X258581819Y-93865476D02*
X258581819Y-94484523D01*
X258581819Y-94960714D02*
X258581819Y-95151190D01*
X258581819Y-95151190D02*
X258534200Y-95246428D01*
X258534200Y-95246428D02*
X258486580Y-95294047D01*
X258486580Y-95294047D02*
X258343723Y-95389285D01*
X258343723Y-95389285D02*
X258153247Y-95436904D01*
X258153247Y-95436904D02*
X257772295Y-95436904D01*
X257772295Y-95436904D02*
X257677057Y-95389285D01*
X257677057Y-95389285D02*
X257629438Y-95341666D01*
X257629438Y-95341666D02*
X257581819Y-95246428D01*
X257581819Y-95246428D02*
X257581819Y-95055952D01*
X257581819Y-95055952D02*
X257629438Y-94960714D01*
X257629438Y-94960714D02*
X257677057Y-94913095D01*
X257677057Y-94913095D02*
X257772295Y-94865476D01*
X257772295Y-94865476D02*
X258010390Y-94865476D01*
X258010390Y-94865476D02*
X258105628Y-94913095D01*
X258105628Y-94913095D02*
X258153247Y-94960714D01*
X258153247Y-94960714D02*
X258200866Y-95055952D01*
X258200866Y-95055952D02*
X258200866Y-95246428D01*
X258200866Y-95246428D02*
X258153247Y-95341666D01*
X258153247Y-95341666D02*
X258105628Y-95389285D01*
X258105628Y-95389285D02*
X258010390Y-95436904D01*
X239992758Y-56231756D02*
X239992758Y-55231756D01*
X239992758Y-55231756D02*
X239754663Y-55231756D01*
X239754663Y-55231756D02*
X239611806Y-55279375D01*
X239611806Y-55279375D02*
X239516568Y-55374613D01*
X239516568Y-55374613D02*
X239468949Y-55469851D01*
X239468949Y-55469851D02*
X239421330Y-55660327D01*
X239421330Y-55660327D02*
X239421330Y-55803184D01*
X239421330Y-55803184D02*
X239468949Y-55993660D01*
X239468949Y-55993660D02*
X239516568Y-56088898D01*
X239516568Y-56088898D02*
X239611806Y-56184137D01*
X239611806Y-56184137D02*
X239754663Y-56231756D01*
X239754663Y-56231756D02*
X239992758Y-56231756D01*
X238421330Y-56231756D02*
X238754663Y-55755565D01*
X238992758Y-56231756D02*
X238992758Y-55231756D01*
X238992758Y-55231756D02*
X238611806Y-55231756D01*
X238611806Y-55231756D02*
X238516568Y-55279375D01*
X238516568Y-55279375D02*
X238468949Y-55326994D01*
X238468949Y-55326994D02*
X238421330Y-55422232D01*
X238421330Y-55422232D02*
X238421330Y-55565089D01*
X238421330Y-55565089D02*
X238468949Y-55660327D01*
X238468949Y-55660327D02*
X238516568Y-55707946D01*
X238516568Y-55707946D02*
X238611806Y-55755565D01*
X238611806Y-55755565D02*
X238992758Y-55755565D01*
X237468949Y-56231756D02*
X238040377Y-56231756D01*
X237754663Y-56231756D02*
X237754663Y-55231756D01*
X237754663Y-55231756D02*
X237849901Y-55374613D01*
X237849901Y-55374613D02*
X237945139Y-55469851D01*
X237945139Y-55469851D02*
X238040377Y-55517470D01*
X236611806Y-55231756D02*
X236802282Y-55231756D01*
X236802282Y-55231756D02*
X236897520Y-55279375D01*
X236897520Y-55279375D02*
X236945139Y-55326994D01*
X236945139Y-55326994D02*
X237040377Y-55469851D01*
X237040377Y-55469851D02*
X237087996Y-55660327D01*
X237087996Y-55660327D02*
X237087996Y-56041279D01*
X237087996Y-56041279D02*
X237040377Y-56136517D01*
X237040377Y-56136517D02*
X236992758Y-56184137D01*
X236992758Y-56184137D02*
X236897520Y-56231756D01*
X236897520Y-56231756D02*
X236707044Y-56231756D01*
X236707044Y-56231756D02*
X236611806Y-56184137D01*
X236611806Y-56184137D02*
X236564187Y-56136517D01*
X236564187Y-56136517D02*
X236516568Y-56041279D01*
X236516568Y-56041279D02*
X236516568Y-55803184D01*
X236516568Y-55803184D02*
X236564187Y-55707946D01*
X236564187Y-55707946D02*
X236611806Y-55660327D01*
X236611806Y-55660327D02*
X236707044Y-55612708D01*
X236707044Y-55612708D02*
X236897520Y-55612708D01*
X236897520Y-55612708D02*
X236992758Y-55660327D01*
X236992758Y-55660327D02*
X237040377Y-55707946D01*
X237040377Y-55707946D02*
X237087996Y-55803184D01*
X221204059Y-57255876D02*
X221204059Y-56255876D01*
X221204059Y-56255876D02*
X220965964Y-56255876D01*
X220965964Y-56255876D02*
X220823107Y-56303495D01*
X220823107Y-56303495D02*
X220727869Y-56398733D01*
X220727869Y-56398733D02*
X220680250Y-56493971D01*
X220680250Y-56493971D02*
X220632631Y-56684447D01*
X220632631Y-56684447D02*
X220632631Y-56827304D01*
X220632631Y-56827304D02*
X220680250Y-57017780D01*
X220680250Y-57017780D02*
X220727869Y-57113018D01*
X220727869Y-57113018D02*
X220823107Y-57208257D01*
X220823107Y-57208257D02*
X220965964Y-57255876D01*
X220965964Y-57255876D02*
X221204059Y-57255876D01*
X219632631Y-57255876D02*
X219965964Y-56779685D01*
X220204059Y-57255876D02*
X220204059Y-56255876D01*
X220204059Y-56255876D02*
X219823107Y-56255876D01*
X219823107Y-56255876D02*
X219727869Y-56303495D01*
X219727869Y-56303495D02*
X219680250Y-56351114D01*
X219680250Y-56351114D02*
X219632631Y-56446352D01*
X219632631Y-56446352D02*
X219632631Y-56589209D01*
X219632631Y-56589209D02*
X219680250Y-56684447D01*
X219680250Y-56684447D02*
X219727869Y-56732066D01*
X219727869Y-56732066D02*
X219823107Y-56779685D01*
X219823107Y-56779685D02*
X220204059Y-56779685D01*
X218680250Y-57255876D02*
X219251678Y-57255876D01*
X218965964Y-57255876D02*
X218965964Y-56255876D01*
X218965964Y-56255876D02*
X219061202Y-56398733D01*
X219061202Y-56398733D02*
X219156440Y-56493971D01*
X219156440Y-56493971D02*
X219251678Y-56541590D01*
X217775488Y-56255876D02*
X218251678Y-56255876D01*
X218251678Y-56255876D02*
X218299297Y-56732066D01*
X218299297Y-56732066D02*
X218251678Y-56684447D01*
X218251678Y-56684447D02*
X218156440Y-56636828D01*
X218156440Y-56636828D02*
X217918345Y-56636828D01*
X217918345Y-56636828D02*
X217823107Y-56684447D01*
X217823107Y-56684447D02*
X217775488Y-56732066D01*
X217775488Y-56732066D02*
X217727869Y-56827304D01*
X217727869Y-56827304D02*
X217727869Y-57065399D01*
X217727869Y-57065399D02*
X217775488Y-57160637D01*
X217775488Y-57160637D02*
X217823107Y-57208257D01*
X217823107Y-57208257D02*
X217918345Y-57255876D01*
X217918345Y-57255876D02*
X218156440Y-57255876D01*
X218156440Y-57255876D02*
X218251678Y-57208257D01*
X218251678Y-57208257D02*
X218299297Y-57160637D01*
X170042333Y-57454819D02*
X170042333Y-58169104D01*
X170042333Y-58169104D02*
X170089952Y-58311961D01*
X170089952Y-58311961D02*
X170185190Y-58407200D01*
X170185190Y-58407200D02*
X170328047Y-58454819D01*
X170328047Y-58454819D02*
X170423285Y-58454819D01*
X168994714Y-58454819D02*
X169328047Y-57978628D01*
X169566142Y-58454819D02*
X169566142Y-57454819D01*
X169566142Y-57454819D02*
X169185190Y-57454819D01*
X169185190Y-57454819D02*
X169089952Y-57502438D01*
X169089952Y-57502438D02*
X169042333Y-57550057D01*
X169042333Y-57550057D02*
X168994714Y-57645295D01*
X168994714Y-57645295D02*
X168994714Y-57788152D01*
X168994714Y-57788152D02*
X169042333Y-57883390D01*
X169042333Y-57883390D02*
X169089952Y-57931009D01*
X169089952Y-57931009D02*
X169185190Y-57978628D01*
X169185190Y-57978628D02*
X169566142Y-57978628D01*
X168042333Y-58454819D02*
X168613761Y-58454819D01*
X168328047Y-58454819D02*
X168328047Y-57454819D01*
X168328047Y-57454819D02*
X168423285Y-57597676D01*
X168423285Y-57597676D02*
X168518523Y-57692914D01*
X168518523Y-57692914D02*
X168613761Y-57740533D01*
X235185713Y-82594104D02*
X234709523Y-82594104D01*
X235280951Y-82879819D02*
X234947618Y-81879819D01*
X234947618Y-81879819D02*
X234614285Y-82879819D01*
X234280951Y-82879819D02*
X234280951Y-81879819D01*
X234280951Y-81879819D02*
X233947618Y-82594104D01*
X233947618Y-82594104D02*
X233614285Y-81879819D01*
X233614285Y-81879819D02*
X233614285Y-82879819D01*
X232566666Y-82879819D02*
X232899999Y-82403628D01*
X233138094Y-82879819D02*
X233138094Y-81879819D01*
X233138094Y-81879819D02*
X232757142Y-81879819D01*
X232757142Y-81879819D02*
X232661904Y-81927438D01*
X232661904Y-81927438D02*
X232614285Y-81975057D01*
X232614285Y-81975057D02*
X232566666Y-82070295D01*
X232566666Y-82070295D02*
X232566666Y-82213152D01*
X232566666Y-82213152D02*
X232614285Y-82308390D01*
X232614285Y-82308390D02*
X232661904Y-82356009D01*
X232661904Y-82356009D02*
X232757142Y-82403628D01*
X232757142Y-82403628D02*
X233138094Y-82403628D01*
X231709523Y-82213152D02*
X231709523Y-82879819D01*
X231947618Y-81832200D02*
X232185713Y-82546485D01*
X232185713Y-82546485D02*
X231566666Y-82546485D01*
X264885713Y-40169104D02*
X264409523Y-40169104D01*
X264980951Y-40454819D02*
X264647618Y-39454819D01*
X264647618Y-39454819D02*
X264314285Y-40454819D01*
X263980951Y-40454819D02*
X263980951Y-39454819D01*
X263980951Y-39454819D02*
X263647618Y-40169104D01*
X263647618Y-40169104D02*
X263314285Y-39454819D01*
X263314285Y-39454819D02*
X263314285Y-40454819D01*
X262266666Y-40454819D02*
X262599999Y-39978628D01*
X262838094Y-40454819D02*
X262838094Y-39454819D01*
X262838094Y-39454819D02*
X262457142Y-39454819D01*
X262457142Y-39454819D02*
X262361904Y-39502438D01*
X262361904Y-39502438D02*
X262314285Y-39550057D01*
X262314285Y-39550057D02*
X262266666Y-39645295D01*
X262266666Y-39645295D02*
X262266666Y-39788152D01*
X262266666Y-39788152D02*
X262314285Y-39883390D01*
X262314285Y-39883390D02*
X262361904Y-39931009D01*
X262361904Y-39931009D02*
X262457142Y-39978628D01*
X262457142Y-39978628D02*
X262838094Y-39978628D01*
X261885713Y-39550057D02*
X261838094Y-39502438D01*
X261838094Y-39502438D02*
X261742856Y-39454819D01*
X261742856Y-39454819D02*
X261504761Y-39454819D01*
X261504761Y-39454819D02*
X261409523Y-39502438D01*
X261409523Y-39502438D02*
X261361904Y-39550057D01*
X261361904Y-39550057D02*
X261314285Y-39645295D01*
X261314285Y-39645295D02*
X261314285Y-39740533D01*
X261314285Y-39740533D02*
X261361904Y-39883390D01*
X261361904Y-39883390D02*
X261933332Y-40454819D01*
X261933332Y-40454819D02*
X261314285Y-40454819D01*
X286248180Y-95389285D02*
X287248180Y-95389285D01*
X287248180Y-95389285D02*
X287248180Y-95151190D01*
X287248180Y-95151190D02*
X287200561Y-95008333D01*
X287200561Y-95008333D02*
X287105323Y-94913095D01*
X287105323Y-94913095D02*
X287010085Y-94865476D01*
X287010085Y-94865476D02*
X286819609Y-94817857D01*
X286819609Y-94817857D02*
X286676752Y-94817857D01*
X286676752Y-94817857D02*
X286486276Y-94865476D01*
X286486276Y-94865476D02*
X286391038Y-94913095D01*
X286391038Y-94913095D02*
X286295800Y-95008333D01*
X286295800Y-95008333D02*
X286248180Y-95151190D01*
X286248180Y-95151190D02*
X286248180Y-95389285D01*
X286248180Y-93817857D02*
X286724371Y-94151190D01*
X286248180Y-94389285D02*
X287248180Y-94389285D01*
X287248180Y-94389285D02*
X287248180Y-94008333D01*
X287248180Y-94008333D02*
X287200561Y-93913095D01*
X287200561Y-93913095D02*
X287152942Y-93865476D01*
X287152942Y-93865476D02*
X287057704Y-93817857D01*
X287057704Y-93817857D02*
X286914847Y-93817857D01*
X286914847Y-93817857D02*
X286819609Y-93865476D01*
X286819609Y-93865476D02*
X286771990Y-93913095D01*
X286771990Y-93913095D02*
X286724371Y-94008333D01*
X286724371Y-94008333D02*
X286724371Y-94389285D01*
X287248180Y-93484523D02*
X287248180Y-92865476D01*
X287248180Y-92865476D02*
X286867228Y-93198809D01*
X286867228Y-93198809D02*
X286867228Y-93055952D01*
X286867228Y-93055952D02*
X286819609Y-92960714D01*
X286819609Y-92960714D02*
X286771990Y-92913095D01*
X286771990Y-92913095D02*
X286676752Y-92865476D01*
X286676752Y-92865476D02*
X286438657Y-92865476D01*
X286438657Y-92865476D02*
X286343419Y-92913095D01*
X286343419Y-92913095D02*
X286295800Y-92960714D01*
X286295800Y-92960714D02*
X286248180Y-93055952D01*
X286248180Y-93055952D02*
X286248180Y-93341666D01*
X286248180Y-93341666D02*
X286295800Y-93436904D01*
X286295800Y-93436904D02*
X286343419Y-93484523D01*
X286248180Y-91913095D02*
X286248180Y-92484523D01*
X286248180Y-92198809D02*
X287248180Y-92198809D01*
X287248180Y-92198809D02*
X287105323Y-92294047D01*
X287105323Y-92294047D02*
X287010085Y-92389285D01*
X287010085Y-92389285D02*
X286962466Y-92484523D01*
X286035285Y-75079819D02*
X286035285Y-74079819D01*
X286035285Y-74079819D02*
X285797190Y-74079819D01*
X285797190Y-74079819D02*
X285654333Y-74127438D01*
X285654333Y-74127438D02*
X285559095Y-74222676D01*
X285559095Y-74222676D02*
X285511476Y-74317914D01*
X285511476Y-74317914D02*
X285463857Y-74508390D01*
X285463857Y-74508390D02*
X285463857Y-74651247D01*
X285463857Y-74651247D02*
X285511476Y-74841723D01*
X285511476Y-74841723D02*
X285559095Y-74936961D01*
X285559095Y-74936961D02*
X285654333Y-75032200D01*
X285654333Y-75032200D02*
X285797190Y-75079819D01*
X285797190Y-75079819D02*
X286035285Y-75079819D01*
X284463857Y-75079819D02*
X284797190Y-74603628D01*
X285035285Y-75079819D02*
X285035285Y-74079819D01*
X285035285Y-74079819D02*
X284654333Y-74079819D01*
X284654333Y-74079819D02*
X284559095Y-74127438D01*
X284559095Y-74127438D02*
X284511476Y-74175057D01*
X284511476Y-74175057D02*
X284463857Y-74270295D01*
X284463857Y-74270295D02*
X284463857Y-74413152D01*
X284463857Y-74413152D02*
X284511476Y-74508390D01*
X284511476Y-74508390D02*
X284559095Y-74556009D01*
X284559095Y-74556009D02*
X284654333Y-74603628D01*
X284654333Y-74603628D02*
X285035285Y-74603628D01*
X284082904Y-74175057D02*
X284035285Y-74127438D01*
X284035285Y-74127438D02*
X283940047Y-74079819D01*
X283940047Y-74079819D02*
X283701952Y-74079819D01*
X283701952Y-74079819D02*
X283606714Y-74127438D01*
X283606714Y-74127438D02*
X283559095Y-74175057D01*
X283559095Y-74175057D02*
X283511476Y-74270295D01*
X283511476Y-74270295D02*
X283511476Y-74365533D01*
X283511476Y-74365533D02*
X283559095Y-74508390D01*
X283559095Y-74508390D02*
X284130523Y-75079819D01*
X284130523Y-75079819D02*
X283511476Y-75079819D01*
X282559095Y-75079819D02*
X283130523Y-75079819D01*
X282844809Y-75079819D02*
X282844809Y-74079819D01*
X282844809Y-74079819D02*
X282940047Y-74222676D01*
X282940047Y-74222676D02*
X283035285Y-74317914D01*
X283035285Y-74317914D02*
X283130523Y-74365533D01*
X199671515Y-79433309D02*
X199671515Y-78433309D01*
X199671515Y-78433309D02*
X199433420Y-78433309D01*
X199433420Y-78433309D02*
X199290563Y-78480928D01*
X199290563Y-78480928D02*
X199195325Y-78576166D01*
X199195325Y-78576166D02*
X199147706Y-78671404D01*
X199147706Y-78671404D02*
X199100087Y-78861880D01*
X199100087Y-78861880D02*
X199100087Y-79004737D01*
X199100087Y-79004737D02*
X199147706Y-79195213D01*
X199147706Y-79195213D02*
X199195325Y-79290451D01*
X199195325Y-79290451D02*
X199290563Y-79385690D01*
X199290563Y-79385690D02*
X199433420Y-79433309D01*
X199433420Y-79433309D02*
X199671515Y-79433309D01*
X198100087Y-79433309D02*
X198433420Y-78957118D01*
X198671515Y-79433309D02*
X198671515Y-78433309D01*
X198671515Y-78433309D02*
X198290563Y-78433309D01*
X198290563Y-78433309D02*
X198195325Y-78480928D01*
X198195325Y-78480928D02*
X198147706Y-78528547D01*
X198147706Y-78528547D02*
X198100087Y-78623785D01*
X198100087Y-78623785D02*
X198100087Y-78766642D01*
X198100087Y-78766642D02*
X198147706Y-78861880D01*
X198147706Y-78861880D02*
X198195325Y-78909499D01*
X198195325Y-78909499D02*
X198290563Y-78957118D01*
X198290563Y-78957118D02*
X198671515Y-78957118D01*
X197719134Y-78528547D02*
X197671515Y-78480928D01*
X197671515Y-78480928D02*
X197576277Y-78433309D01*
X197576277Y-78433309D02*
X197338182Y-78433309D01*
X197338182Y-78433309D02*
X197242944Y-78480928D01*
X197242944Y-78480928D02*
X197195325Y-78528547D01*
X197195325Y-78528547D02*
X197147706Y-78623785D01*
X197147706Y-78623785D02*
X197147706Y-78719023D01*
X197147706Y-78719023D02*
X197195325Y-78861880D01*
X197195325Y-78861880D02*
X197766753Y-79433309D01*
X197766753Y-79433309D02*
X197147706Y-79433309D01*
X196290563Y-78433309D02*
X196481039Y-78433309D01*
X196481039Y-78433309D02*
X196576277Y-78480928D01*
X196576277Y-78480928D02*
X196623896Y-78528547D01*
X196623896Y-78528547D02*
X196719134Y-78671404D01*
X196719134Y-78671404D02*
X196766753Y-78861880D01*
X196766753Y-78861880D02*
X196766753Y-79242832D01*
X196766753Y-79242832D02*
X196719134Y-79338070D01*
X196719134Y-79338070D02*
X196671515Y-79385690D01*
X196671515Y-79385690D02*
X196576277Y-79433309D01*
X196576277Y-79433309D02*
X196385801Y-79433309D01*
X196385801Y-79433309D02*
X196290563Y-79385690D01*
X196290563Y-79385690D02*
X196242944Y-79338070D01*
X196242944Y-79338070D02*
X196195325Y-79242832D01*
X196195325Y-79242832D02*
X196195325Y-79004737D01*
X196195325Y-79004737D02*
X196242944Y-78909499D01*
X196242944Y-78909499D02*
X196290563Y-78861880D01*
X196290563Y-78861880D02*
X196385801Y-78814261D01*
X196385801Y-78814261D02*
X196576277Y-78814261D01*
X196576277Y-78814261D02*
X196671515Y-78861880D01*
X196671515Y-78861880D02*
X196719134Y-78909499D01*
X196719134Y-78909499D02*
X196766753Y-79004737D01*
X255079285Y-75079819D02*
X255079285Y-74079819D01*
X255079285Y-74079819D02*
X254841190Y-74079819D01*
X254841190Y-74079819D02*
X254698333Y-74127438D01*
X254698333Y-74127438D02*
X254603095Y-74222676D01*
X254603095Y-74222676D02*
X254555476Y-74317914D01*
X254555476Y-74317914D02*
X254507857Y-74508390D01*
X254507857Y-74508390D02*
X254507857Y-74651247D01*
X254507857Y-74651247D02*
X254555476Y-74841723D01*
X254555476Y-74841723D02*
X254603095Y-74936961D01*
X254603095Y-74936961D02*
X254698333Y-75032200D01*
X254698333Y-75032200D02*
X254841190Y-75079819D01*
X254841190Y-75079819D02*
X255079285Y-75079819D01*
X253507857Y-75079819D02*
X253841190Y-74603628D01*
X254079285Y-75079819D02*
X254079285Y-74079819D01*
X254079285Y-74079819D02*
X253698333Y-74079819D01*
X253698333Y-74079819D02*
X253603095Y-74127438D01*
X253603095Y-74127438D02*
X253555476Y-74175057D01*
X253555476Y-74175057D02*
X253507857Y-74270295D01*
X253507857Y-74270295D02*
X253507857Y-74413152D01*
X253507857Y-74413152D02*
X253555476Y-74508390D01*
X253555476Y-74508390D02*
X253603095Y-74556009D01*
X253603095Y-74556009D02*
X253698333Y-74603628D01*
X253698333Y-74603628D02*
X254079285Y-74603628D01*
X253126904Y-74175057D02*
X253079285Y-74127438D01*
X253079285Y-74127438D02*
X252984047Y-74079819D01*
X252984047Y-74079819D02*
X252745952Y-74079819D01*
X252745952Y-74079819D02*
X252650714Y-74127438D01*
X252650714Y-74127438D02*
X252603095Y-74175057D01*
X252603095Y-74175057D02*
X252555476Y-74270295D01*
X252555476Y-74270295D02*
X252555476Y-74365533D01*
X252555476Y-74365533D02*
X252603095Y-74508390D01*
X252603095Y-74508390D02*
X253174523Y-75079819D01*
X253174523Y-75079819D02*
X252555476Y-75079819D01*
X252222142Y-74079819D02*
X251603095Y-74079819D01*
X251603095Y-74079819D02*
X251936428Y-74460771D01*
X251936428Y-74460771D02*
X251793571Y-74460771D01*
X251793571Y-74460771D02*
X251698333Y-74508390D01*
X251698333Y-74508390D02*
X251650714Y-74556009D01*
X251650714Y-74556009D02*
X251603095Y-74651247D01*
X251603095Y-74651247D02*
X251603095Y-74889342D01*
X251603095Y-74889342D02*
X251650714Y-74984580D01*
X251650714Y-74984580D02*
X251698333Y-75032200D01*
X251698333Y-75032200D02*
X251793571Y-75079819D01*
X251793571Y-75079819D02*
X252079285Y-75079819D01*
X252079285Y-75079819D02*
X252174523Y-75032200D01*
X252174523Y-75032200D02*
X252222142Y-74984580D01*
X184306715Y-62381909D02*
X184306715Y-61381909D01*
X184306715Y-61381909D02*
X184068620Y-61381909D01*
X184068620Y-61381909D02*
X183925763Y-61429528D01*
X183925763Y-61429528D02*
X183830525Y-61524766D01*
X183830525Y-61524766D02*
X183782906Y-61620004D01*
X183782906Y-61620004D02*
X183735287Y-61810480D01*
X183735287Y-61810480D02*
X183735287Y-61953337D01*
X183735287Y-61953337D02*
X183782906Y-62143813D01*
X183782906Y-62143813D02*
X183830525Y-62239051D01*
X183830525Y-62239051D02*
X183925763Y-62334290D01*
X183925763Y-62334290D02*
X184068620Y-62381909D01*
X184068620Y-62381909D02*
X184306715Y-62381909D01*
X182735287Y-62381909D02*
X183068620Y-61905718D01*
X183306715Y-62381909D02*
X183306715Y-61381909D01*
X183306715Y-61381909D02*
X182925763Y-61381909D01*
X182925763Y-61381909D02*
X182830525Y-61429528D01*
X182830525Y-61429528D02*
X182782906Y-61477147D01*
X182782906Y-61477147D02*
X182735287Y-61572385D01*
X182735287Y-61572385D02*
X182735287Y-61715242D01*
X182735287Y-61715242D02*
X182782906Y-61810480D01*
X182782906Y-61810480D02*
X182830525Y-61858099D01*
X182830525Y-61858099D02*
X182925763Y-61905718D01*
X182925763Y-61905718D02*
X183306715Y-61905718D01*
X182354334Y-61477147D02*
X182306715Y-61429528D01*
X182306715Y-61429528D02*
X182211477Y-61381909D01*
X182211477Y-61381909D02*
X181973382Y-61381909D01*
X181973382Y-61381909D02*
X181878144Y-61429528D01*
X181878144Y-61429528D02*
X181830525Y-61477147D01*
X181830525Y-61477147D02*
X181782906Y-61572385D01*
X181782906Y-61572385D02*
X181782906Y-61667623D01*
X181782906Y-61667623D02*
X181830525Y-61810480D01*
X181830525Y-61810480D02*
X182401953Y-62381909D01*
X182401953Y-62381909D02*
X181782906Y-62381909D01*
X181163858Y-61381909D02*
X181068620Y-61381909D01*
X181068620Y-61381909D02*
X180973382Y-61429528D01*
X180973382Y-61429528D02*
X180925763Y-61477147D01*
X180925763Y-61477147D02*
X180878144Y-61572385D01*
X180878144Y-61572385D02*
X180830525Y-61762861D01*
X180830525Y-61762861D02*
X180830525Y-62000956D01*
X180830525Y-62000956D02*
X180878144Y-62191432D01*
X180878144Y-62191432D02*
X180925763Y-62286670D01*
X180925763Y-62286670D02*
X180973382Y-62334290D01*
X180973382Y-62334290D02*
X181068620Y-62381909D01*
X181068620Y-62381909D02*
X181163858Y-62381909D01*
X181163858Y-62381909D02*
X181259096Y-62334290D01*
X181259096Y-62334290D02*
X181306715Y-62286670D01*
X181306715Y-62286670D02*
X181354334Y-62191432D01*
X181354334Y-62191432D02*
X181401953Y-62000956D01*
X181401953Y-62000956D02*
X181401953Y-61762861D01*
X181401953Y-61762861D02*
X181354334Y-61572385D01*
X181354334Y-61572385D02*
X181306715Y-61477147D01*
X181306715Y-61477147D02*
X181259096Y-61429528D01*
X181259096Y-61429528D02*
X181163858Y-61381909D01*
X265385713Y-48169104D02*
X264909523Y-48169104D01*
X265480951Y-48454819D02*
X265147618Y-47454819D01*
X265147618Y-47454819D02*
X264814285Y-48454819D01*
X264480951Y-48454819D02*
X264480951Y-47454819D01*
X264480951Y-47454819D02*
X264147618Y-48169104D01*
X264147618Y-48169104D02*
X263814285Y-47454819D01*
X263814285Y-47454819D02*
X263814285Y-48454819D01*
X262766666Y-48454819D02*
X263099999Y-47978628D01*
X263338094Y-48454819D02*
X263338094Y-47454819D01*
X263338094Y-47454819D02*
X262957142Y-47454819D01*
X262957142Y-47454819D02*
X262861904Y-47502438D01*
X262861904Y-47502438D02*
X262814285Y-47550057D01*
X262814285Y-47550057D02*
X262766666Y-47645295D01*
X262766666Y-47645295D02*
X262766666Y-47788152D01*
X262766666Y-47788152D02*
X262814285Y-47883390D01*
X262814285Y-47883390D02*
X262861904Y-47931009D01*
X262861904Y-47931009D02*
X262957142Y-47978628D01*
X262957142Y-47978628D02*
X263338094Y-47978628D01*
X261814285Y-48454819D02*
X262385713Y-48454819D01*
X262099999Y-48454819D02*
X262099999Y-47454819D01*
X262099999Y-47454819D02*
X262195237Y-47597676D01*
X262195237Y-47597676D02*
X262290475Y-47692914D01*
X262290475Y-47692914D02*
X262385713Y-47740533D01*
X259841285Y-56029819D02*
X259841285Y-55029819D01*
X259841285Y-55029819D02*
X259603190Y-55029819D01*
X259603190Y-55029819D02*
X259460333Y-55077438D01*
X259460333Y-55077438D02*
X259365095Y-55172676D01*
X259365095Y-55172676D02*
X259317476Y-55267914D01*
X259317476Y-55267914D02*
X259269857Y-55458390D01*
X259269857Y-55458390D02*
X259269857Y-55601247D01*
X259269857Y-55601247D02*
X259317476Y-55791723D01*
X259317476Y-55791723D02*
X259365095Y-55886961D01*
X259365095Y-55886961D02*
X259460333Y-55982200D01*
X259460333Y-55982200D02*
X259603190Y-56029819D01*
X259603190Y-56029819D02*
X259841285Y-56029819D01*
X258269857Y-56029819D02*
X258603190Y-55553628D01*
X258841285Y-56029819D02*
X258841285Y-55029819D01*
X258841285Y-55029819D02*
X258460333Y-55029819D01*
X258460333Y-55029819D02*
X258365095Y-55077438D01*
X258365095Y-55077438D02*
X258317476Y-55125057D01*
X258317476Y-55125057D02*
X258269857Y-55220295D01*
X258269857Y-55220295D02*
X258269857Y-55363152D01*
X258269857Y-55363152D02*
X258317476Y-55458390D01*
X258317476Y-55458390D02*
X258365095Y-55506009D01*
X258365095Y-55506009D02*
X258460333Y-55553628D01*
X258460333Y-55553628D02*
X258841285Y-55553628D01*
X257317476Y-56029819D02*
X257888904Y-56029819D01*
X257603190Y-56029819D02*
X257603190Y-55029819D01*
X257603190Y-55029819D02*
X257698428Y-55172676D01*
X257698428Y-55172676D02*
X257793666Y-55267914D01*
X257793666Y-55267914D02*
X257888904Y-55315533D01*
X256984142Y-55029819D02*
X256317476Y-55029819D01*
X256317476Y-55029819D02*
X256746047Y-56029819D01*
X236600158Y-75543956D02*
X236600158Y-74543956D01*
X236600158Y-74543956D02*
X236362063Y-74543956D01*
X236362063Y-74543956D02*
X236219206Y-74591575D01*
X236219206Y-74591575D02*
X236123968Y-74686813D01*
X236123968Y-74686813D02*
X236076349Y-74782051D01*
X236076349Y-74782051D02*
X236028730Y-74972527D01*
X236028730Y-74972527D02*
X236028730Y-75115384D01*
X236028730Y-75115384D02*
X236076349Y-75305860D01*
X236076349Y-75305860D02*
X236123968Y-75401098D01*
X236123968Y-75401098D02*
X236219206Y-75496337D01*
X236219206Y-75496337D02*
X236362063Y-75543956D01*
X236362063Y-75543956D02*
X236600158Y-75543956D01*
X235028730Y-75543956D02*
X235362063Y-75067765D01*
X235600158Y-75543956D02*
X235600158Y-74543956D01*
X235600158Y-74543956D02*
X235219206Y-74543956D01*
X235219206Y-74543956D02*
X235123968Y-74591575D01*
X235123968Y-74591575D02*
X235076349Y-74639194D01*
X235076349Y-74639194D02*
X235028730Y-74734432D01*
X235028730Y-74734432D02*
X235028730Y-74877289D01*
X235028730Y-74877289D02*
X235076349Y-74972527D01*
X235076349Y-74972527D02*
X235123968Y-75020146D01*
X235123968Y-75020146D02*
X235219206Y-75067765D01*
X235219206Y-75067765D02*
X235600158Y-75067765D01*
X234647777Y-74639194D02*
X234600158Y-74591575D01*
X234600158Y-74591575D02*
X234504920Y-74543956D01*
X234504920Y-74543956D02*
X234266825Y-74543956D01*
X234266825Y-74543956D02*
X234171587Y-74591575D01*
X234171587Y-74591575D02*
X234123968Y-74639194D01*
X234123968Y-74639194D02*
X234076349Y-74734432D01*
X234076349Y-74734432D02*
X234076349Y-74829670D01*
X234076349Y-74829670D02*
X234123968Y-74972527D01*
X234123968Y-74972527D02*
X234695396Y-75543956D01*
X234695396Y-75543956D02*
X234076349Y-75543956D01*
X233219206Y-74877289D02*
X233219206Y-75543956D01*
X233457301Y-74496337D02*
X233695396Y-75210622D01*
X233695396Y-75210622D02*
X233076349Y-75210622D01*
X286988094Y-36979819D02*
X286988094Y-35979819D01*
X286988094Y-35979819D02*
X286749999Y-35979819D01*
X286749999Y-35979819D02*
X286607142Y-36027438D01*
X286607142Y-36027438D02*
X286511904Y-36122676D01*
X286511904Y-36122676D02*
X286464285Y-36217914D01*
X286464285Y-36217914D02*
X286416666Y-36408390D01*
X286416666Y-36408390D02*
X286416666Y-36551247D01*
X286416666Y-36551247D02*
X286464285Y-36741723D01*
X286464285Y-36741723D02*
X286511904Y-36836961D01*
X286511904Y-36836961D02*
X286607142Y-36932200D01*
X286607142Y-36932200D02*
X286749999Y-36979819D01*
X286749999Y-36979819D02*
X286988094Y-36979819D01*
X285416666Y-36979819D02*
X285749999Y-36503628D01*
X285988094Y-36979819D02*
X285988094Y-35979819D01*
X285988094Y-35979819D02*
X285607142Y-35979819D01*
X285607142Y-35979819D02*
X285511904Y-36027438D01*
X285511904Y-36027438D02*
X285464285Y-36075057D01*
X285464285Y-36075057D02*
X285416666Y-36170295D01*
X285416666Y-36170295D02*
X285416666Y-36313152D01*
X285416666Y-36313152D02*
X285464285Y-36408390D01*
X285464285Y-36408390D02*
X285511904Y-36456009D01*
X285511904Y-36456009D02*
X285607142Y-36503628D01*
X285607142Y-36503628D02*
X285988094Y-36503628D01*
X284845237Y-36408390D02*
X284940475Y-36360771D01*
X284940475Y-36360771D02*
X284988094Y-36313152D01*
X284988094Y-36313152D02*
X285035713Y-36217914D01*
X285035713Y-36217914D02*
X285035713Y-36170295D01*
X285035713Y-36170295D02*
X284988094Y-36075057D01*
X284988094Y-36075057D02*
X284940475Y-36027438D01*
X284940475Y-36027438D02*
X284845237Y-35979819D01*
X284845237Y-35979819D02*
X284654761Y-35979819D01*
X284654761Y-35979819D02*
X284559523Y-36027438D01*
X284559523Y-36027438D02*
X284511904Y-36075057D01*
X284511904Y-36075057D02*
X284464285Y-36170295D01*
X284464285Y-36170295D02*
X284464285Y-36217914D01*
X284464285Y-36217914D02*
X284511904Y-36313152D01*
X284511904Y-36313152D02*
X284559523Y-36360771D01*
X284559523Y-36360771D02*
X284654761Y-36408390D01*
X284654761Y-36408390D02*
X284845237Y-36408390D01*
X284845237Y-36408390D02*
X284940475Y-36456009D01*
X284940475Y-36456009D02*
X284988094Y-36503628D01*
X284988094Y-36503628D02*
X285035713Y-36598866D01*
X285035713Y-36598866D02*
X285035713Y-36789342D01*
X285035713Y-36789342D02*
X284988094Y-36884580D01*
X284988094Y-36884580D02*
X284940475Y-36932200D01*
X284940475Y-36932200D02*
X284845237Y-36979819D01*
X284845237Y-36979819D02*
X284654761Y-36979819D01*
X284654761Y-36979819D02*
X284559523Y-36932200D01*
X284559523Y-36932200D02*
X284511904Y-36884580D01*
X284511904Y-36884580D02*
X284464285Y-36789342D01*
X284464285Y-36789342D02*
X284464285Y-36598866D01*
X284464285Y-36598866D02*
X284511904Y-36503628D01*
X284511904Y-36503628D02*
X284559523Y-36456009D01*
X284559523Y-36456009D02*
X284654761Y-36408390D01*
X251746094Y-17929819D02*
X251746094Y-16929819D01*
X251746094Y-16929819D02*
X251507999Y-16929819D01*
X251507999Y-16929819D02*
X251365142Y-16977438D01*
X251365142Y-16977438D02*
X251269904Y-17072676D01*
X251269904Y-17072676D02*
X251222285Y-17167914D01*
X251222285Y-17167914D02*
X251174666Y-17358390D01*
X251174666Y-17358390D02*
X251174666Y-17501247D01*
X251174666Y-17501247D02*
X251222285Y-17691723D01*
X251222285Y-17691723D02*
X251269904Y-17786961D01*
X251269904Y-17786961D02*
X251365142Y-17882200D01*
X251365142Y-17882200D02*
X251507999Y-17929819D01*
X251507999Y-17929819D02*
X251746094Y-17929819D01*
X250174666Y-17929819D02*
X250507999Y-17453628D01*
X250746094Y-17929819D02*
X250746094Y-16929819D01*
X250746094Y-16929819D02*
X250365142Y-16929819D01*
X250365142Y-16929819D02*
X250269904Y-16977438D01*
X250269904Y-16977438D02*
X250222285Y-17025057D01*
X250222285Y-17025057D02*
X250174666Y-17120295D01*
X250174666Y-17120295D02*
X250174666Y-17263152D01*
X250174666Y-17263152D02*
X250222285Y-17358390D01*
X250222285Y-17358390D02*
X250269904Y-17406009D01*
X250269904Y-17406009D02*
X250365142Y-17453628D01*
X250365142Y-17453628D02*
X250746094Y-17453628D01*
X249841332Y-16929819D02*
X249222285Y-16929819D01*
X249222285Y-16929819D02*
X249555618Y-17310771D01*
X249555618Y-17310771D02*
X249412761Y-17310771D01*
X249412761Y-17310771D02*
X249317523Y-17358390D01*
X249317523Y-17358390D02*
X249269904Y-17406009D01*
X249269904Y-17406009D02*
X249222285Y-17501247D01*
X249222285Y-17501247D02*
X249222285Y-17739342D01*
X249222285Y-17739342D02*
X249269904Y-17834580D01*
X249269904Y-17834580D02*
X249317523Y-17882200D01*
X249317523Y-17882200D02*
X249412761Y-17929819D01*
X249412761Y-17929819D02*
X249698475Y-17929819D01*
X249698475Y-17929819D02*
X249793713Y-17882200D01*
X249793713Y-17882200D02*
X249841332Y-17834580D01*
X203109915Y-59404709D02*
X203109915Y-58404709D01*
X203109915Y-58404709D02*
X202871820Y-58404709D01*
X202871820Y-58404709D02*
X202728963Y-58452328D01*
X202728963Y-58452328D02*
X202633725Y-58547566D01*
X202633725Y-58547566D02*
X202586106Y-58642804D01*
X202586106Y-58642804D02*
X202538487Y-58833280D01*
X202538487Y-58833280D02*
X202538487Y-58976137D01*
X202538487Y-58976137D02*
X202586106Y-59166613D01*
X202586106Y-59166613D02*
X202633725Y-59261851D01*
X202633725Y-59261851D02*
X202728963Y-59357090D01*
X202728963Y-59357090D02*
X202871820Y-59404709D01*
X202871820Y-59404709D02*
X203109915Y-59404709D01*
X201538487Y-59404709D02*
X201871820Y-58928518D01*
X202109915Y-59404709D02*
X202109915Y-58404709D01*
X202109915Y-58404709D02*
X201728963Y-58404709D01*
X201728963Y-58404709D02*
X201633725Y-58452328D01*
X201633725Y-58452328D02*
X201586106Y-58499947D01*
X201586106Y-58499947D02*
X201538487Y-58595185D01*
X201538487Y-58595185D02*
X201538487Y-58738042D01*
X201538487Y-58738042D02*
X201586106Y-58833280D01*
X201586106Y-58833280D02*
X201633725Y-58880899D01*
X201633725Y-58880899D02*
X201728963Y-58928518D01*
X201728963Y-58928518D02*
X202109915Y-58928518D01*
X200586106Y-59404709D02*
X201157534Y-59404709D01*
X200871820Y-59404709D02*
X200871820Y-58404709D01*
X200871820Y-58404709D02*
X200967058Y-58547566D01*
X200967058Y-58547566D02*
X201062296Y-58642804D01*
X201062296Y-58642804D02*
X201157534Y-58690423D01*
X200109915Y-59404709D02*
X199919439Y-59404709D01*
X199919439Y-59404709D02*
X199824201Y-59357090D01*
X199824201Y-59357090D02*
X199776582Y-59309470D01*
X199776582Y-59309470D02*
X199681344Y-59166613D01*
X199681344Y-59166613D02*
X199633725Y-58976137D01*
X199633725Y-58976137D02*
X199633725Y-58595185D01*
X199633725Y-58595185D02*
X199681344Y-58499947D01*
X199681344Y-58499947D02*
X199728963Y-58452328D01*
X199728963Y-58452328D02*
X199824201Y-58404709D01*
X199824201Y-58404709D02*
X200014677Y-58404709D01*
X200014677Y-58404709D02*
X200109915Y-58452328D01*
X200109915Y-58452328D02*
X200157534Y-58499947D01*
X200157534Y-58499947D02*
X200205153Y-58595185D01*
X200205153Y-58595185D02*
X200205153Y-58833280D01*
X200205153Y-58833280D02*
X200157534Y-58928518D01*
X200157534Y-58928518D02*
X200109915Y-58976137D01*
X200109915Y-58976137D02*
X200014677Y-59023756D01*
X200014677Y-59023756D02*
X199824201Y-59023756D01*
X199824201Y-59023756D02*
X199728963Y-58976137D01*
X199728963Y-58976137D02*
X199681344Y-58928518D01*
X199681344Y-58928518D02*
X199633725Y-58833280D01*
X291885713Y-49669104D02*
X291409523Y-49669104D01*
X291980951Y-49954819D02*
X291647618Y-48954819D01*
X291647618Y-48954819D02*
X291314285Y-49954819D01*
X290980951Y-49954819D02*
X290980951Y-48954819D01*
X290980951Y-48954819D02*
X290647618Y-49669104D01*
X290647618Y-49669104D02*
X290314285Y-48954819D01*
X290314285Y-48954819D02*
X290314285Y-49954819D01*
X289266666Y-49954819D02*
X289599999Y-49478628D01*
X289838094Y-49954819D02*
X289838094Y-48954819D01*
X289838094Y-48954819D02*
X289457142Y-48954819D01*
X289457142Y-48954819D02*
X289361904Y-49002438D01*
X289361904Y-49002438D02*
X289314285Y-49050057D01*
X289314285Y-49050057D02*
X289266666Y-49145295D01*
X289266666Y-49145295D02*
X289266666Y-49288152D01*
X289266666Y-49288152D02*
X289314285Y-49383390D01*
X289314285Y-49383390D02*
X289361904Y-49431009D01*
X289361904Y-49431009D02*
X289457142Y-49478628D01*
X289457142Y-49478628D02*
X289838094Y-49478628D01*
X288361904Y-48954819D02*
X288838094Y-48954819D01*
X288838094Y-48954819D02*
X288885713Y-49431009D01*
X288885713Y-49431009D02*
X288838094Y-49383390D01*
X288838094Y-49383390D02*
X288742856Y-49335771D01*
X288742856Y-49335771D02*
X288504761Y-49335771D01*
X288504761Y-49335771D02*
X288409523Y-49383390D01*
X288409523Y-49383390D02*
X288361904Y-49431009D01*
X288361904Y-49431009D02*
X288314285Y-49526247D01*
X288314285Y-49526247D02*
X288314285Y-49764342D01*
X288314285Y-49764342D02*
X288361904Y-49859580D01*
X288361904Y-49859580D02*
X288409523Y-49907200D01*
X288409523Y-49907200D02*
X288504761Y-49954819D01*
X288504761Y-49954819D02*
X288742856Y-49954819D01*
X288742856Y-49954819D02*
X288838094Y-49907200D01*
X288838094Y-49907200D02*
X288885713Y-49859580D01*
X217764859Y-76898876D02*
X217764859Y-75898876D01*
X217764859Y-75898876D02*
X217526764Y-75898876D01*
X217526764Y-75898876D02*
X217383907Y-75946495D01*
X217383907Y-75946495D02*
X217288669Y-76041733D01*
X217288669Y-76041733D02*
X217241050Y-76136971D01*
X217241050Y-76136971D02*
X217193431Y-76327447D01*
X217193431Y-76327447D02*
X217193431Y-76470304D01*
X217193431Y-76470304D02*
X217241050Y-76660780D01*
X217241050Y-76660780D02*
X217288669Y-76756018D01*
X217288669Y-76756018D02*
X217383907Y-76851257D01*
X217383907Y-76851257D02*
X217526764Y-76898876D01*
X217526764Y-76898876D02*
X217764859Y-76898876D01*
X216193431Y-76898876D02*
X216526764Y-76422685D01*
X216764859Y-76898876D02*
X216764859Y-75898876D01*
X216764859Y-75898876D02*
X216383907Y-75898876D01*
X216383907Y-75898876D02*
X216288669Y-75946495D01*
X216288669Y-75946495D02*
X216241050Y-75994114D01*
X216241050Y-75994114D02*
X216193431Y-76089352D01*
X216193431Y-76089352D02*
X216193431Y-76232209D01*
X216193431Y-76232209D02*
X216241050Y-76327447D01*
X216241050Y-76327447D02*
X216288669Y-76375066D01*
X216288669Y-76375066D02*
X216383907Y-76422685D01*
X216383907Y-76422685D02*
X216764859Y-76422685D01*
X215812478Y-75994114D02*
X215764859Y-75946495D01*
X215764859Y-75946495D02*
X215669621Y-75898876D01*
X215669621Y-75898876D02*
X215431526Y-75898876D01*
X215431526Y-75898876D02*
X215336288Y-75946495D01*
X215336288Y-75946495D02*
X215288669Y-75994114D01*
X215288669Y-75994114D02*
X215241050Y-76089352D01*
X215241050Y-76089352D02*
X215241050Y-76184590D01*
X215241050Y-76184590D02*
X215288669Y-76327447D01*
X215288669Y-76327447D02*
X215860097Y-76898876D01*
X215860097Y-76898876D02*
X215241050Y-76898876D01*
X214336288Y-75898876D02*
X214812478Y-75898876D01*
X214812478Y-75898876D02*
X214860097Y-76375066D01*
X214860097Y-76375066D02*
X214812478Y-76327447D01*
X214812478Y-76327447D02*
X214717240Y-76279828D01*
X214717240Y-76279828D02*
X214479145Y-76279828D01*
X214479145Y-76279828D02*
X214383907Y-76327447D01*
X214383907Y-76327447D02*
X214336288Y-76375066D01*
X214336288Y-76375066D02*
X214288669Y-76470304D01*
X214288669Y-76470304D02*
X214288669Y-76708399D01*
X214288669Y-76708399D02*
X214336288Y-76803637D01*
X214336288Y-76803637D02*
X214383907Y-76851257D01*
X214383907Y-76851257D02*
X214479145Y-76898876D01*
X214479145Y-76898876D02*
X214717240Y-76898876D01*
X214717240Y-76898876D02*
X214812478Y-76851257D01*
X214812478Y-76851257D02*
X214860097Y-76803637D01*
X219756559Y-95843876D02*
X219756559Y-94843876D01*
X219756559Y-94843876D02*
X219518464Y-94843876D01*
X219518464Y-94843876D02*
X219375607Y-94891495D01*
X219375607Y-94891495D02*
X219280369Y-94986733D01*
X219280369Y-94986733D02*
X219232750Y-95081971D01*
X219232750Y-95081971D02*
X219185131Y-95272447D01*
X219185131Y-95272447D02*
X219185131Y-95415304D01*
X219185131Y-95415304D02*
X219232750Y-95605780D01*
X219232750Y-95605780D02*
X219280369Y-95701018D01*
X219280369Y-95701018D02*
X219375607Y-95796257D01*
X219375607Y-95796257D02*
X219518464Y-95843876D01*
X219518464Y-95843876D02*
X219756559Y-95843876D01*
X218185131Y-95843876D02*
X218518464Y-95367685D01*
X218756559Y-95843876D02*
X218756559Y-94843876D01*
X218756559Y-94843876D02*
X218375607Y-94843876D01*
X218375607Y-94843876D02*
X218280369Y-94891495D01*
X218280369Y-94891495D02*
X218232750Y-94939114D01*
X218232750Y-94939114D02*
X218185131Y-95034352D01*
X218185131Y-95034352D02*
X218185131Y-95177209D01*
X218185131Y-95177209D02*
X218232750Y-95272447D01*
X218232750Y-95272447D02*
X218280369Y-95320066D01*
X218280369Y-95320066D02*
X218375607Y-95367685D01*
X218375607Y-95367685D02*
X218756559Y-95367685D01*
X217804178Y-94939114D02*
X217756559Y-94891495D01*
X217756559Y-94891495D02*
X217661321Y-94843876D01*
X217661321Y-94843876D02*
X217423226Y-94843876D01*
X217423226Y-94843876D02*
X217327988Y-94891495D01*
X217327988Y-94891495D02*
X217280369Y-94939114D01*
X217280369Y-94939114D02*
X217232750Y-95034352D01*
X217232750Y-95034352D02*
X217232750Y-95129590D01*
X217232750Y-95129590D02*
X217280369Y-95272447D01*
X217280369Y-95272447D02*
X217851797Y-95843876D01*
X217851797Y-95843876D02*
X217232750Y-95843876D01*
X216661321Y-95272447D02*
X216756559Y-95224828D01*
X216756559Y-95224828D02*
X216804178Y-95177209D01*
X216804178Y-95177209D02*
X216851797Y-95081971D01*
X216851797Y-95081971D02*
X216851797Y-95034352D01*
X216851797Y-95034352D02*
X216804178Y-94939114D01*
X216804178Y-94939114D02*
X216756559Y-94891495D01*
X216756559Y-94891495D02*
X216661321Y-94843876D01*
X216661321Y-94843876D02*
X216470845Y-94843876D01*
X216470845Y-94843876D02*
X216375607Y-94891495D01*
X216375607Y-94891495D02*
X216327988Y-94939114D01*
X216327988Y-94939114D02*
X216280369Y-95034352D01*
X216280369Y-95034352D02*
X216280369Y-95081971D01*
X216280369Y-95081971D02*
X216327988Y-95177209D01*
X216327988Y-95177209D02*
X216375607Y-95224828D01*
X216375607Y-95224828D02*
X216470845Y-95272447D01*
X216470845Y-95272447D02*
X216661321Y-95272447D01*
X216661321Y-95272447D02*
X216756559Y-95320066D01*
X216756559Y-95320066D02*
X216804178Y-95367685D01*
X216804178Y-95367685D02*
X216851797Y-95462923D01*
X216851797Y-95462923D02*
X216851797Y-95653399D01*
X216851797Y-95653399D02*
X216804178Y-95748637D01*
X216804178Y-95748637D02*
X216756559Y-95796257D01*
X216756559Y-95796257D02*
X216661321Y-95843876D01*
X216661321Y-95843876D02*
X216470845Y-95843876D01*
X216470845Y-95843876D02*
X216375607Y-95796257D01*
X216375607Y-95796257D02*
X216327988Y-95748637D01*
X216327988Y-95748637D02*
X216280369Y-95653399D01*
X216280369Y-95653399D02*
X216280369Y-95462923D01*
X216280369Y-95462923D02*
X216327988Y-95367685D01*
X216327988Y-95367685D02*
X216375607Y-95320066D01*
X216375607Y-95320066D02*
X216470845Y-95272447D01*
X286035285Y-56029819D02*
X286035285Y-55029819D01*
X286035285Y-55029819D02*
X285797190Y-55029819D01*
X285797190Y-55029819D02*
X285654333Y-55077438D01*
X285654333Y-55077438D02*
X285559095Y-55172676D01*
X285559095Y-55172676D02*
X285511476Y-55267914D01*
X285511476Y-55267914D02*
X285463857Y-55458390D01*
X285463857Y-55458390D02*
X285463857Y-55601247D01*
X285463857Y-55601247D02*
X285511476Y-55791723D01*
X285511476Y-55791723D02*
X285559095Y-55886961D01*
X285559095Y-55886961D02*
X285654333Y-55982200D01*
X285654333Y-55982200D02*
X285797190Y-56029819D01*
X285797190Y-56029819D02*
X286035285Y-56029819D01*
X284463857Y-56029819D02*
X284797190Y-55553628D01*
X285035285Y-56029819D02*
X285035285Y-55029819D01*
X285035285Y-55029819D02*
X284654333Y-55029819D01*
X284654333Y-55029819D02*
X284559095Y-55077438D01*
X284559095Y-55077438D02*
X284511476Y-55125057D01*
X284511476Y-55125057D02*
X284463857Y-55220295D01*
X284463857Y-55220295D02*
X284463857Y-55363152D01*
X284463857Y-55363152D02*
X284511476Y-55458390D01*
X284511476Y-55458390D02*
X284559095Y-55506009D01*
X284559095Y-55506009D02*
X284654333Y-55553628D01*
X284654333Y-55553628D02*
X285035285Y-55553628D01*
X283511476Y-56029819D02*
X284082904Y-56029819D01*
X283797190Y-56029819D02*
X283797190Y-55029819D01*
X283797190Y-55029819D02*
X283892428Y-55172676D01*
X283892428Y-55172676D02*
X283987666Y-55267914D01*
X283987666Y-55267914D02*
X284082904Y-55315533D01*
X282940047Y-55458390D02*
X283035285Y-55410771D01*
X283035285Y-55410771D02*
X283082904Y-55363152D01*
X283082904Y-55363152D02*
X283130523Y-55267914D01*
X283130523Y-55267914D02*
X283130523Y-55220295D01*
X283130523Y-55220295D02*
X283082904Y-55125057D01*
X283082904Y-55125057D02*
X283035285Y-55077438D01*
X283035285Y-55077438D02*
X282940047Y-55029819D01*
X282940047Y-55029819D02*
X282749571Y-55029819D01*
X282749571Y-55029819D02*
X282654333Y-55077438D01*
X282654333Y-55077438D02*
X282606714Y-55125057D01*
X282606714Y-55125057D02*
X282559095Y-55220295D01*
X282559095Y-55220295D02*
X282559095Y-55267914D01*
X282559095Y-55267914D02*
X282606714Y-55363152D01*
X282606714Y-55363152D02*
X282654333Y-55410771D01*
X282654333Y-55410771D02*
X282749571Y-55458390D01*
X282749571Y-55458390D02*
X282940047Y-55458390D01*
X282940047Y-55458390D02*
X283035285Y-55506009D01*
X283035285Y-55506009D02*
X283082904Y-55553628D01*
X283082904Y-55553628D02*
X283130523Y-55648866D01*
X283130523Y-55648866D02*
X283130523Y-55839342D01*
X283130523Y-55839342D02*
X283082904Y-55934580D01*
X283082904Y-55934580D02*
X283035285Y-55982200D01*
X283035285Y-55982200D02*
X282940047Y-56029819D01*
X282940047Y-56029819D02*
X282749571Y-56029819D01*
X282749571Y-56029819D02*
X282654333Y-55982200D01*
X282654333Y-55982200D02*
X282606714Y-55934580D01*
X282606714Y-55934580D02*
X282559095Y-55839342D01*
X282559095Y-55839342D02*
X282559095Y-55648866D01*
X282559095Y-55648866D02*
X282606714Y-55553628D01*
X282606714Y-55553628D02*
X282654333Y-55506009D01*
X282654333Y-55506009D02*
X282749571Y-55458390D01*
X195791724Y-22216509D02*
X195791724Y-21216509D01*
X195791724Y-21216509D02*
X195553629Y-21216509D01*
X195553629Y-21216509D02*
X195410772Y-21264128D01*
X195410772Y-21264128D02*
X195315534Y-21359366D01*
X195315534Y-21359366D02*
X195267915Y-21454604D01*
X195267915Y-21454604D02*
X195220296Y-21645080D01*
X195220296Y-21645080D02*
X195220296Y-21787937D01*
X195220296Y-21787937D02*
X195267915Y-21978413D01*
X195267915Y-21978413D02*
X195315534Y-22073651D01*
X195315534Y-22073651D02*
X195410772Y-22168890D01*
X195410772Y-22168890D02*
X195553629Y-22216509D01*
X195553629Y-22216509D02*
X195791724Y-22216509D01*
X194220296Y-22216509D02*
X194553629Y-21740318D01*
X194791724Y-22216509D02*
X194791724Y-21216509D01*
X194791724Y-21216509D02*
X194410772Y-21216509D01*
X194410772Y-21216509D02*
X194315534Y-21264128D01*
X194315534Y-21264128D02*
X194267915Y-21311747D01*
X194267915Y-21311747D02*
X194220296Y-21406985D01*
X194220296Y-21406985D02*
X194220296Y-21549842D01*
X194220296Y-21549842D02*
X194267915Y-21645080D01*
X194267915Y-21645080D02*
X194315534Y-21692699D01*
X194315534Y-21692699D02*
X194410772Y-21740318D01*
X194410772Y-21740318D02*
X194791724Y-21740318D01*
X193363153Y-21216509D02*
X193553629Y-21216509D01*
X193553629Y-21216509D02*
X193648867Y-21264128D01*
X193648867Y-21264128D02*
X193696486Y-21311747D01*
X193696486Y-21311747D02*
X193791724Y-21454604D01*
X193791724Y-21454604D02*
X193839343Y-21645080D01*
X193839343Y-21645080D02*
X193839343Y-22026032D01*
X193839343Y-22026032D02*
X193791724Y-22121270D01*
X193791724Y-22121270D02*
X193744105Y-22168890D01*
X193744105Y-22168890D02*
X193648867Y-22216509D01*
X193648867Y-22216509D02*
X193458391Y-22216509D01*
X193458391Y-22216509D02*
X193363153Y-22168890D01*
X193363153Y-22168890D02*
X193315534Y-22121270D01*
X193315534Y-22121270D02*
X193267915Y-22026032D01*
X193267915Y-22026032D02*
X193267915Y-21787937D01*
X193267915Y-21787937D02*
X193315534Y-21692699D01*
X193315534Y-21692699D02*
X193363153Y-21645080D01*
X193363153Y-21645080D02*
X193458391Y-21597461D01*
X193458391Y-21597461D02*
X193648867Y-21597461D01*
X193648867Y-21597461D02*
X193744105Y-21645080D01*
X193744105Y-21645080D02*
X193791724Y-21692699D01*
X193791724Y-21692699D02*
X193839343Y-21787937D01*
X233078367Y-18162156D02*
X233078367Y-17162156D01*
X233078367Y-17162156D02*
X232840272Y-17162156D01*
X232840272Y-17162156D02*
X232697415Y-17209775D01*
X232697415Y-17209775D02*
X232602177Y-17305013D01*
X232602177Y-17305013D02*
X232554558Y-17400251D01*
X232554558Y-17400251D02*
X232506939Y-17590727D01*
X232506939Y-17590727D02*
X232506939Y-17733584D01*
X232506939Y-17733584D02*
X232554558Y-17924060D01*
X232554558Y-17924060D02*
X232602177Y-18019298D01*
X232602177Y-18019298D02*
X232697415Y-18114537D01*
X232697415Y-18114537D02*
X232840272Y-18162156D01*
X232840272Y-18162156D02*
X233078367Y-18162156D01*
X231506939Y-18162156D02*
X231840272Y-17685965D01*
X232078367Y-18162156D02*
X232078367Y-17162156D01*
X232078367Y-17162156D02*
X231697415Y-17162156D01*
X231697415Y-17162156D02*
X231602177Y-17209775D01*
X231602177Y-17209775D02*
X231554558Y-17257394D01*
X231554558Y-17257394D02*
X231506939Y-17352632D01*
X231506939Y-17352632D02*
X231506939Y-17495489D01*
X231506939Y-17495489D02*
X231554558Y-17590727D01*
X231554558Y-17590727D02*
X231602177Y-17638346D01*
X231602177Y-17638346D02*
X231697415Y-17685965D01*
X231697415Y-17685965D02*
X232078367Y-17685965D01*
X231125986Y-17257394D02*
X231078367Y-17209775D01*
X231078367Y-17209775D02*
X230983129Y-17162156D01*
X230983129Y-17162156D02*
X230745034Y-17162156D01*
X230745034Y-17162156D02*
X230649796Y-17209775D01*
X230649796Y-17209775D02*
X230602177Y-17257394D01*
X230602177Y-17257394D02*
X230554558Y-17352632D01*
X230554558Y-17352632D02*
X230554558Y-17447870D01*
X230554558Y-17447870D02*
X230602177Y-17590727D01*
X230602177Y-17590727D02*
X231173605Y-18162156D01*
X231173605Y-18162156D02*
X230554558Y-18162156D01*
X263176094Y-36979819D02*
X263176094Y-35979819D01*
X263176094Y-35979819D02*
X262937999Y-35979819D01*
X262937999Y-35979819D02*
X262795142Y-36027438D01*
X262795142Y-36027438D02*
X262699904Y-36122676D01*
X262699904Y-36122676D02*
X262652285Y-36217914D01*
X262652285Y-36217914D02*
X262604666Y-36408390D01*
X262604666Y-36408390D02*
X262604666Y-36551247D01*
X262604666Y-36551247D02*
X262652285Y-36741723D01*
X262652285Y-36741723D02*
X262699904Y-36836961D01*
X262699904Y-36836961D02*
X262795142Y-36932200D01*
X262795142Y-36932200D02*
X262937999Y-36979819D01*
X262937999Y-36979819D02*
X263176094Y-36979819D01*
X261604666Y-36979819D02*
X261937999Y-36503628D01*
X262176094Y-36979819D02*
X262176094Y-35979819D01*
X262176094Y-35979819D02*
X261795142Y-35979819D01*
X261795142Y-35979819D02*
X261699904Y-36027438D01*
X261699904Y-36027438D02*
X261652285Y-36075057D01*
X261652285Y-36075057D02*
X261604666Y-36170295D01*
X261604666Y-36170295D02*
X261604666Y-36313152D01*
X261604666Y-36313152D02*
X261652285Y-36408390D01*
X261652285Y-36408390D02*
X261699904Y-36456009D01*
X261699904Y-36456009D02*
X261795142Y-36503628D01*
X261795142Y-36503628D02*
X262176094Y-36503628D01*
X261128475Y-36979819D02*
X260937999Y-36979819D01*
X260937999Y-36979819D02*
X260842761Y-36932200D01*
X260842761Y-36932200D02*
X260795142Y-36884580D01*
X260795142Y-36884580D02*
X260699904Y-36741723D01*
X260699904Y-36741723D02*
X260652285Y-36551247D01*
X260652285Y-36551247D02*
X260652285Y-36170295D01*
X260652285Y-36170295D02*
X260699904Y-36075057D01*
X260699904Y-36075057D02*
X260747523Y-36027438D01*
X260747523Y-36027438D02*
X260842761Y-35979819D01*
X260842761Y-35979819D02*
X261033237Y-35979819D01*
X261033237Y-35979819D02*
X261128475Y-36027438D01*
X261128475Y-36027438D02*
X261176094Y-36075057D01*
X261176094Y-36075057D02*
X261223713Y-36170295D01*
X261223713Y-36170295D02*
X261223713Y-36408390D01*
X261223713Y-36408390D02*
X261176094Y-36503628D01*
X261176094Y-36503628D02*
X261128475Y-36551247D01*
X261128475Y-36551247D02*
X261033237Y-36598866D01*
X261033237Y-36598866D02*
X260842761Y-36598866D01*
X260842761Y-36598866D02*
X260747523Y-36551247D01*
X260747523Y-36551247D02*
X260699904Y-36503628D01*
X260699904Y-36503628D02*
X260652285Y-36408390D01*
X226165859Y-37693076D02*
X226165859Y-36693076D01*
X226165859Y-36693076D02*
X225927764Y-36693076D01*
X225927764Y-36693076D02*
X225784907Y-36740695D01*
X225784907Y-36740695D02*
X225689669Y-36835933D01*
X225689669Y-36835933D02*
X225642050Y-36931171D01*
X225642050Y-36931171D02*
X225594431Y-37121647D01*
X225594431Y-37121647D02*
X225594431Y-37264504D01*
X225594431Y-37264504D02*
X225642050Y-37454980D01*
X225642050Y-37454980D02*
X225689669Y-37550218D01*
X225689669Y-37550218D02*
X225784907Y-37645457D01*
X225784907Y-37645457D02*
X225927764Y-37693076D01*
X225927764Y-37693076D02*
X226165859Y-37693076D01*
X224594431Y-37693076D02*
X224927764Y-37216885D01*
X225165859Y-37693076D02*
X225165859Y-36693076D01*
X225165859Y-36693076D02*
X224784907Y-36693076D01*
X224784907Y-36693076D02*
X224689669Y-36740695D01*
X224689669Y-36740695D02*
X224642050Y-36788314D01*
X224642050Y-36788314D02*
X224594431Y-36883552D01*
X224594431Y-36883552D02*
X224594431Y-37026409D01*
X224594431Y-37026409D02*
X224642050Y-37121647D01*
X224642050Y-37121647D02*
X224689669Y-37169266D01*
X224689669Y-37169266D02*
X224784907Y-37216885D01*
X224784907Y-37216885D02*
X225165859Y-37216885D01*
X223642050Y-37693076D02*
X224213478Y-37693076D01*
X223927764Y-37693076D02*
X223927764Y-36693076D01*
X223927764Y-36693076D02*
X224023002Y-36835933D01*
X224023002Y-36835933D02*
X224118240Y-36931171D01*
X224118240Y-36931171D02*
X224213478Y-36978790D01*
X222689669Y-37693076D02*
X223261097Y-37693076D01*
X222975383Y-37693076D02*
X222975383Y-36693076D01*
X222975383Y-36693076D02*
X223070621Y-36835933D01*
X223070621Y-36835933D02*
X223165859Y-36931171D01*
X223165859Y-36931171D02*
X223261097Y-36978790D01*
X180833115Y-82417909D02*
X180833115Y-81417909D01*
X180833115Y-81417909D02*
X180595020Y-81417909D01*
X180595020Y-81417909D02*
X180452163Y-81465528D01*
X180452163Y-81465528D02*
X180356925Y-81560766D01*
X180356925Y-81560766D02*
X180309306Y-81656004D01*
X180309306Y-81656004D02*
X180261687Y-81846480D01*
X180261687Y-81846480D02*
X180261687Y-81989337D01*
X180261687Y-81989337D02*
X180309306Y-82179813D01*
X180309306Y-82179813D02*
X180356925Y-82275051D01*
X180356925Y-82275051D02*
X180452163Y-82370290D01*
X180452163Y-82370290D02*
X180595020Y-82417909D01*
X180595020Y-82417909D02*
X180833115Y-82417909D01*
X179261687Y-82417909D02*
X179595020Y-81941718D01*
X179833115Y-82417909D02*
X179833115Y-81417909D01*
X179833115Y-81417909D02*
X179452163Y-81417909D01*
X179452163Y-81417909D02*
X179356925Y-81465528D01*
X179356925Y-81465528D02*
X179309306Y-81513147D01*
X179309306Y-81513147D02*
X179261687Y-81608385D01*
X179261687Y-81608385D02*
X179261687Y-81751242D01*
X179261687Y-81751242D02*
X179309306Y-81846480D01*
X179309306Y-81846480D02*
X179356925Y-81894099D01*
X179356925Y-81894099D02*
X179452163Y-81941718D01*
X179452163Y-81941718D02*
X179833115Y-81941718D01*
X178880734Y-81513147D02*
X178833115Y-81465528D01*
X178833115Y-81465528D02*
X178737877Y-81417909D01*
X178737877Y-81417909D02*
X178499782Y-81417909D01*
X178499782Y-81417909D02*
X178404544Y-81465528D01*
X178404544Y-81465528D02*
X178356925Y-81513147D01*
X178356925Y-81513147D02*
X178309306Y-81608385D01*
X178309306Y-81608385D02*
X178309306Y-81703623D01*
X178309306Y-81703623D02*
X178356925Y-81846480D01*
X178356925Y-81846480D02*
X178928353Y-82417909D01*
X178928353Y-82417909D02*
X178309306Y-82417909D01*
X177975972Y-81417909D02*
X177309306Y-81417909D01*
X177309306Y-81417909D02*
X177737877Y-82417909D01*
X214097668Y-19838876D02*
X214097668Y-18838876D01*
X214097668Y-18838876D02*
X213859573Y-18838876D01*
X213859573Y-18838876D02*
X213716716Y-18886495D01*
X213716716Y-18886495D02*
X213621478Y-18981733D01*
X213621478Y-18981733D02*
X213573859Y-19076971D01*
X213573859Y-19076971D02*
X213526240Y-19267447D01*
X213526240Y-19267447D02*
X213526240Y-19410304D01*
X213526240Y-19410304D02*
X213573859Y-19600780D01*
X213573859Y-19600780D02*
X213621478Y-19696018D01*
X213621478Y-19696018D02*
X213716716Y-19791257D01*
X213716716Y-19791257D02*
X213859573Y-19838876D01*
X213859573Y-19838876D02*
X214097668Y-19838876D01*
X212526240Y-19838876D02*
X212859573Y-19362685D01*
X213097668Y-19838876D02*
X213097668Y-18838876D01*
X213097668Y-18838876D02*
X212716716Y-18838876D01*
X212716716Y-18838876D02*
X212621478Y-18886495D01*
X212621478Y-18886495D02*
X212573859Y-18934114D01*
X212573859Y-18934114D02*
X212526240Y-19029352D01*
X212526240Y-19029352D02*
X212526240Y-19172209D01*
X212526240Y-19172209D02*
X212573859Y-19267447D01*
X212573859Y-19267447D02*
X212621478Y-19315066D01*
X212621478Y-19315066D02*
X212716716Y-19362685D01*
X212716716Y-19362685D02*
X213097668Y-19362685D01*
X211573859Y-19838876D02*
X212145287Y-19838876D01*
X211859573Y-19838876D02*
X211859573Y-18838876D01*
X211859573Y-18838876D02*
X211954811Y-18981733D01*
X211954811Y-18981733D02*
X212050049Y-19076971D01*
X212050049Y-19076971D02*
X212145287Y-19124590D01*
X170107715Y-45507509D02*
X170107715Y-44507509D01*
X170107715Y-44507509D02*
X169869620Y-44507509D01*
X169869620Y-44507509D02*
X169726763Y-44555128D01*
X169726763Y-44555128D02*
X169631525Y-44650366D01*
X169631525Y-44650366D02*
X169583906Y-44745604D01*
X169583906Y-44745604D02*
X169536287Y-44936080D01*
X169536287Y-44936080D02*
X169536287Y-45078937D01*
X169536287Y-45078937D02*
X169583906Y-45269413D01*
X169583906Y-45269413D02*
X169631525Y-45364651D01*
X169631525Y-45364651D02*
X169726763Y-45459890D01*
X169726763Y-45459890D02*
X169869620Y-45507509D01*
X169869620Y-45507509D02*
X170107715Y-45507509D01*
X168536287Y-45507509D02*
X168869620Y-45031318D01*
X169107715Y-45507509D02*
X169107715Y-44507509D01*
X169107715Y-44507509D02*
X168726763Y-44507509D01*
X168726763Y-44507509D02*
X168631525Y-44555128D01*
X168631525Y-44555128D02*
X168583906Y-44602747D01*
X168583906Y-44602747D02*
X168536287Y-44697985D01*
X168536287Y-44697985D02*
X168536287Y-44840842D01*
X168536287Y-44840842D02*
X168583906Y-44936080D01*
X168583906Y-44936080D02*
X168631525Y-44983699D01*
X168631525Y-44983699D02*
X168726763Y-45031318D01*
X168726763Y-45031318D02*
X169107715Y-45031318D01*
X167583906Y-45507509D02*
X168155334Y-45507509D01*
X167869620Y-45507509D02*
X167869620Y-44507509D01*
X167869620Y-44507509D02*
X167964858Y-44650366D01*
X167964858Y-44650366D02*
X168060096Y-44745604D01*
X168060096Y-44745604D02*
X168155334Y-44793223D01*
X166726763Y-44840842D02*
X166726763Y-45507509D01*
X166964858Y-44459890D02*
X167202953Y-45174175D01*
X167202953Y-45174175D02*
X166583906Y-45174175D01*
X207222659Y-39677476D02*
X207222659Y-38677476D01*
X207222659Y-38677476D02*
X206984564Y-38677476D01*
X206984564Y-38677476D02*
X206841707Y-38725095D01*
X206841707Y-38725095D02*
X206746469Y-38820333D01*
X206746469Y-38820333D02*
X206698850Y-38915571D01*
X206698850Y-38915571D02*
X206651231Y-39106047D01*
X206651231Y-39106047D02*
X206651231Y-39248904D01*
X206651231Y-39248904D02*
X206698850Y-39439380D01*
X206698850Y-39439380D02*
X206746469Y-39534618D01*
X206746469Y-39534618D02*
X206841707Y-39629857D01*
X206841707Y-39629857D02*
X206984564Y-39677476D01*
X206984564Y-39677476D02*
X207222659Y-39677476D01*
X205651231Y-39677476D02*
X205984564Y-39201285D01*
X206222659Y-39677476D02*
X206222659Y-38677476D01*
X206222659Y-38677476D02*
X205841707Y-38677476D01*
X205841707Y-38677476D02*
X205746469Y-38725095D01*
X205746469Y-38725095D02*
X205698850Y-38772714D01*
X205698850Y-38772714D02*
X205651231Y-38867952D01*
X205651231Y-38867952D02*
X205651231Y-39010809D01*
X205651231Y-39010809D02*
X205698850Y-39106047D01*
X205698850Y-39106047D02*
X205746469Y-39153666D01*
X205746469Y-39153666D02*
X205841707Y-39201285D01*
X205841707Y-39201285D02*
X206222659Y-39201285D01*
X204698850Y-39677476D02*
X205270278Y-39677476D01*
X204984564Y-39677476D02*
X204984564Y-38677476D01*
X204984564Y-38677476D02*
X205079802Y-38820333D01*
X205079802Y-38820333D02*
X205175040Y-38915571D01*
X205175040Y-38915571D02*
X205270278Y-38963190D01*
X204317897Y-38772714D02*
X204270278Y-38725095D01*
X204270278Y-38725095D02*
X204175040Y-38677476D01*
X204175040Y-38677476D02*
X203936945Y-38677476D01*
X203936945Y-38677476D02*
X203841707Y-38725095D01*
X203841707Y-38725095D02*
X203794088Y-38772714D01*
X203794088Y-38772714D02*
X203746469Y-38867952D01*
X203746469Y-38867952D02*
X203746469Y-38963190D01*
X203746469Y-38963190D02*
X203794088Y-39106047D01*
X203794088Y-39106047D02*
X204365516Y-39677476D01*
X204365516Y-39677476D02*
X203746469Y-39677476D01*
X278628180Y-19189285D02*
X279628180Y-19189285D01*
X279628180Y-19189285D02*
X279628180Y-18951190D01*
X279628180Y-18951190D02*
X279580561Y-18808333D01*
X279580561Y-18808333D02*
X279485323Y-18713095D01*
X279485323Y-18713095D02*
X279390085Y-18665476D01*
X279390085Y-18665476D02*
X279199609Y-18617857D01*
X279199609Y-18617857D02*
X279056752Y-18617857D01*
X279056752Y-18617857D02*
X278866276Y-18665476D01*
X278866276Y-18665476D02*
X278771038Y-18713095D01*
X278771038Y-18713095D02*
X278675800Y-18808333D01*
X278675800Y-18808333D02*
X278628180Y-18951190D01*
X278628180Y-18951190D02*
X278628180Y-19189285D01*
X278628180Y-17617857D02*
X279104371Y-17951190D01*
X278628180Y-18189285D02*
X279628180Y-18189285D01*
X279628180Y-18189285D02*
X279628180Y-17808333D01*
X279628180Y-17808333D02*
X279580561Y-17713095D01*
X279580561Y-17713095D02*
X279532942Y-17665476D01*
X279532942Y-17665476D02*
X279437704Y-17617857D01*
X279437704Y-17617857D02*
X279294847Y-17617857D01*
X279294847Y-17617857D02*
X279199609Y-17665476D01*
X279199609Y-17665476D02*
X279151990Y-17713095D01*
X279151990Y-17713095D02*
X279104371Y-17808333D01*
X279104371Y-17808333D02*
X279104371Y-18189285D01*
X279628180Y-17284523D02*
X279628180Y-16665476D01*
X279628180Y-16665476D02*
X279247228Y-16998809D01*
X279247228Y-16998809D02*
X279247228Y-16855952D01*
X279247228Y-16855952D02*
X279199609Y-16760714D01*
X279199609Y-16760714D02*
X279151990Y-16713095D01*
X279151990Y-16713095D02*
X279056752Y-16665476D01*
X279056752Y-16665476D02*
X278818657Y-16665476D01*
X278818657Y-16665476D02*
X278723419Y-16713095D01*
X278723419Y-16713095D02*
X278675800Y-16760714D01*
X278675800Y-16760714D02*
X278628180Y-16855952D01*
X278628180Y-16855952D02*
X278628180Y-17141666D01*
X278628180Y-17141666D02*
X278675800Y-17236904D01*
X278675800Y-17236904D02*
X278723419Y-17284523D01*
X279628180Y-16332142D02*
X279628180Y-15713095D01*
X279628180Y-15713095D02*
X279247228Y-16046428D01*
X279247228Y-16046428D02*
X279247228Y-15903571D01*
X279247228Y-15903571D02*
X279199609Y-15808333D01*
X279199609Y-15808333D02*
X279151990Y-15760714D01*
X279151990Y-15760714D02*
X279056752Y-15713095D01*
X279056752Y-15713095D02*
X278818657Y-15713095D01*
X278818657Y-15713095D02*
X278723419Y-15760714D01*
X278723419Y-15760714D02*
X278675800Y-15808333D01*
X278675800Y-15808333D02*
X278628180Y-15903571D01*
X278628180Y-15903571D02*
X278628180Y-16189285D01*
X278628180Y-16189285D02*
X278675800Y-16284523D01*
X278675800Y-16284523D02*
X278723419Y-16332142D01*
X176987924Y-25208109D02*
X176987924Y-24208109D01*
X176987924Y-24208109D02*
X176749829Y-24208109D01*
X176749829Y-24208109D02*
X176606972Y-24255728D01*
X176606972Y-24255728D02*
X176511734Y-24350966D01*
X176511734Y-24350966D02*
X176464115Y-24446204D01*
X176464115Y-24446204D02*
X176416496Y-24636680D01*
X176416496Y-24636680D02*
X176416496Y-24779537D01*
X176416496Y-24779537D02*
X176464115Y-24970013D01*
X176464115Y-24970013D02*
X176511734Y-25065251D01*
X176511734Y-25065251D02*
X176606972Y-25160490D01*
X176606972Y-25160490D02*
X176749829Y-25208109D01*
X176749829Y-25208109D02*
X176987924Y-25208109D01*
X175416496Y-25208109D02*
X175749829Y-24731918D01*
X175987924Y-25208109D02*
X175987924Y-24208109D01*
X175987924Y-24208109D02*
X175606972Y-24208109D01*
X175606972Y-24208109D02*
X175511734Y-24255728D01*
X175511734Y-24255728D02*
X175464115Y-24303347D01*
X175464115Y-24303347D02*
X175416496Y-24398585D01*
X175416496Y-24398585D02*
X175416496Y-24541442D01*
X175416496Y-24541442D02*
X175464115Y-24636680D01*
X175464115Y-24636680D02*
X175511734Y-24684299D01*
X175511734Y-24684299D02*
X175606972Y-24731918D01*
X175606972Y-24731918D02*
X175987924Y-24731918D01*
X175083162Y-24208109D02*
X174416496Y-24208109D01*
X174416496Y-24208109D02*
X174845067Y-25208109D01*
X188916915Y-42519709D02*
X188916915Y-41519709D01*
X188916915Y-41519709D02*
X188678820Y-41519709D01*
X188678820Y-41519709D02*
X188535963Y-41567328D01*
X188535963Y-41567328D02*
X188440725Y-41662566D01*
X188440725Y-41662566D02*
X188393106Y-41757804D01*
X188393106Y-41757804D02*
X188345487Y-41948280D01*
X188345487Y-41948280D02*
X188345487Y-42091137D01*
X188345487Y-42091137D02*
X188393106Y-42281613D01*
X188393106Y-42281613D02*
X188440725Y-42376851D01*
X188440725Y-42376851D02*
X188535963Y-42472090D01*
X188535963Y-42472090D02*
X188678820Y-42519709D01*
X188678820Y-42519709D02*
X188916915Y-42519709D01*
X187345487Y-42519709D02*
X187678820Y-42043518D01*
X187916915Y-42519709D02*
X187916915Y-41519709D01*
X187916915Y-41519709D02*
X187535963Y-41519709D01*
X187535963Y-41519709D02*
X187440725Y-41567328D01*
X187440725Y-41567328D02*
X187393106Y-41614947D01*
X187393106Y-41614947D02*
X187345487Y-41710185D01*
X187345487Y-41710185D02*
X187345487Y-41853042D01*
X187345487Y-41853042D02*
X187393106Y-41948280D01*
X187393106Y-41948280D02*
X187440725Y-41995899D01*
X187440725Y-41995899D02*
X187535963Y-42043518D01*
X187535963Y-42043518D02*
X187916915Y-42043518D01*
X186393106Y-42519709D02*
X186964534Y-42519709D01*
X186678820Y-42519709D02*
X186678820Y-41519709D01*
X186678820Y-41519709D02*
X186774058Y-41662566D01*
X186774058Y-41662566D02*
X186869296Y-41757804D01*
X186869296Y-41757804D02*
X186964534Y-41805423D01*
X186059772Y-41519709D02*
X185440725Y-41519709D01*
X185440725Y-41519709D02*
X185774058Y-41900661D01*
X185774058Y-41900661D02*
X185631201Y-41900661D01*
X185631201Y-41900661D02*
X185535963Y-41948280D01*
X185535963Y-41948280D02*
X185488344Y-41995899D01*
X185488344Y-41995899D02*
X185440725Y-42091137D01*
X185440725Y-42091137D02*
X185440725Y-42329232D01*
X185440725Y-42329232D02*
X185488344Y-42424470D01*
X185488344Y-42424470D02*
X185535963Y-42472090D01*
X185535963Y-42472090D02*
X185631201Y-42519709D01*
X185631201Y-42519709D02*
X185916915Y-42519709D01*
X185916915Y-42519709D02*
X186012153Y-42472090D01*
X186012153Y-42472090D02*
X186059772Y-42424470D01*
X234139534Y-68855345D02*
X234114612Y-68379807D01*
X233859195Y-68965406D02*
X234840379Y-68580194D01*
X234840379Y-68580194D02*
X233824305Y-68299653D01*
X233806859Y-67966776D02*
X234805489Y-67914440D01*
X234805489Y-67914440D02*
X234074737Y-67618947D01*
X234074737Y-67618947D02*
X234770598Y-67248687D01*
X234770598Y-67248687D02*
X233771969Y-67301023D01*
X233717140Y-66254840D02*
X234210124Y-66562795D01*
X233747047Y-66825486D02*
X234745676Y-66773150D01*
X234745676Y-66773150D02*
X234725739Y-66392719D01*
X234725739Y-66392719D02*
X234673201Y-66300104D01*
X234673201Y-66300104D02*
X234623155Y-66255042D01*
X234623155Y-66255042D02*
X234525555Y-66212473D01*
X234525555Y-66212473D02*
X234382893Y-66219949D01*
X234382893Y-66219949D02*
X234290278Y-66272488D01*
X234290278Y-66272488D02*
X234245216Y-66322534D01*
X234245216Y-66322534D02*
X234202647Y-66420133D01*
X234202647Y-66420133D02*
X234222585Y-66800564D01*
X234698325Y-65869628D02*
X234665926Y-65251428D01*
X234665926Y-65251428D02*
X234302941Y-65604242D01*
X234302941Y-65604242D02*
X234295465Y-65461581D01*
X234295465Y-65461581D02*
X234242927Y-65368966D01*
X234242927Y-65368966D02*
X234192881Y-65323904D01*
X234192881Y-65323904D02*
X234095281Y-65281335D01*
X234095281Y-65281335D02*
X233857512Y-65293796D01*
X233857512Y-65293796D02*
X233764896Y-65346334D01*
X233764896Y-65346334D02*
X233719835Y-65396380D01*
X233719835Y-65396380D02*
X233677265Y-65493980D01*
X233677265Y-65493980D02*
X233692219Y-65779302D01*
X233692219Y-65779302D02*
X233744757Y-65871918D01*
X233744757Y-65871918D02*
X233794803Y-65916979D01*
X244602285Y-36979819D02*
X244602285Y-35979819D01*
X244602285Y-35979819D02*
X244364190Y-35979819D01*
X244364190Y-35979819D02*
X244221333Y-36027438D01*
X244221333Y-36027438D02*
X244126095Y-36122676D01*
X244126095Y-36122676D02*
X244078476Y-36217914D01*
X244078476Y-36217914D02*
X244030857Y-36408390D01*
X244030857Y-36408390D02*
X244030857Y-36551247D01*
X244030857Y-36551247D02*
X244078476Y-36741723D01*
X244078476Y-36741723D02*
X244126095Y-36836961D01*
X244126095Y-36836961D02*
X244221333Y-36932200D01*
X244221333Y-36932200D02*
X244364190Y-36979819D01*
X244364190Y-36979819D02*
X244602285Y-36979819D01*
X243030857Y-36979819D02*
X243364190Y-36503628D01*
X243602285Y-36979819D02*
X243602285Y-35979819D01*
X243602285Y-35979819D02*
X243221333Y-35979819D01*
X243221333Y-35979819D02*
X243126095Y-36027438D01*
X243126095Y-36027438D02*
X243078476Y-36075057D01*
X243078476Y-36075057D02*
X243030857Y-36170295D01*
X243030857Y-36170295D02*
X243030857Y-36313152D01*
X243030857Y-36313152D02*
X243078476Y-36408390D01*
X243078476Y-36408390D02*
X243126095Y-36456009D01*
X243126095Y-36456009D02*
X243221333Y-36503628D01*
X243221333Y-36503628D02*
X243602285Y-36503628D01*
X242078476Y-36979819D02*
X242649904Y-36979819D01*
X242364190Y-36979819D02*
X242364190Y-35979819D01*
X242364190Y-35979819D02*
X242459428Y-36122676D01*
X242459428Y-36122676D02*
X242554666Y-36217914D01*
X242554666Y-36217914D02*
X242649904Y-36265533D01*
X241459428Y-35979819D02*
X241364190Y-35979819D01*
X241364190Y-35979819D02*
X241268952Y-36027438D01*
X241268952Y-36027438D02*
X241221333Y-36075057D01*
X241221333Y-36075057D02*
X241173714Y-36170295D01*
X241173714Y-36170295D02*
X241126095Y-36360771D01*
X241126095Y-36360771D02*
X241126095Y-36598866D01*
X241126095Y-36598866D02*
X241173714Y-36789342D01*
X241173714Y-36789342D02*
X241221333Y-36884580D01*
X241221333Y-36884580D02*
X241268952Y-36932200D01*
X241268952Y-36932200D02*
X241364190Y-36979819D01*
X241364190Y-36979819D02*
X241459428Y-36979819D01*
X241459428Y-36979819D02*
X241554666Y-36932200D01*
X241554666Y-36932200D02*
X241602285Y-36884580D01*
X241602285Y-36884580D02*
X241649904Y-36789342D01*
X241649904Y-36789342D02*
X241697523Y-36598866D01*
X241697523Y-36598866D02*
X241697523Y-36360771D01*
X241697523Y-36360771D02*
X241649904Y-36170295D01*
X241649904Y-36170295D02*
X241602285Y-36075057D01*
X241602285Y-36075057D02*
X241554666Y-36027438D01*
X241554666Y-36027438D02*
X241459428Y-35979819D01*
%TO.C,DR32*%
D11*
X177907838Y-97644344D02*
X178381052Y-100632101D01*
X177907838Y-97644344D02*
X178510497Y-96814855D01*
X178381052Y-100632101D02*
X185591177Y-99490130D01*
X185004548Y-95786299D02*
X178510497Y-96814855D01*
X185591177Y-99490130D02*
X185004548Y-95786299D01*
X178774519Y-97203336D02*
X178891386Y-96982333D01*
X178595079Y-97029263D01*
X178774519Y-97203336D01*
G36*
X178774519Y-97203336D02*
G01*
X178595079Y-97029263D01*
X178891386Y-96982333D01*
X178774519Y-97203336D01*
G37*
%TO.C,DR29*%
X254477000Y-89925000D02*
X254477000Y-92950000D01*
X254477000Y-89925000D02*
X255202000Y-89200000D01*
X254477000Y-92950000D02*
X261777000Y-92950000D01*
X261777000Y-89200000D02*
X255202000Y-89200000D01*
X261777000Y-92950000D02*
X261777000Y-89200000D01*
X255402000Y-89625000D02*
X255552000Y-89425000D01*
X255252000Y-89425000D01*
X255402000Y-89625000D01*
G36*
X255402000Y-89625000D02*
G01*
X255252000Y-89425000D01*
X255552000Y-89425000D01*
X255402000Y-89625000D01*
G37*
%TO.C,DR16*%
X234437216Y-52223102D02*
X234595532Y-55243957D01*
X234437216Y-52223102D02*
X235123279Y-51461152D01*
X234595532Y-55243957D02*
X241885528Y-54861904D01*
X241689268Y-51117043D02*
X235123279Y-51461152D01*
X241885528Y-54861904D02*
X241689268Y-51117043D01*
X235345247Y-51875103D02*
X235484575Y-51667526D01*
X235184986Y-51683227D01*
X235345247Y-51875103D01*
G36*
X235345247Y-51875103D02*
G01*
X235184986Y-51683227D01*
X235484575Y-51667526D01*
X235345247Y-51875103D01*
G37*
%TO.C,DR15*%
X215467787Y-53453129D02*
X215783986Y-56461557D01*
X215467787Y-53453129D02*
X216113033Y-52656317D01*
X215783986Y-56461557D02*
X223043996Y-55698500D01*
X222652014Y-51969043D02*
X216113033Y-52656317D01*
X223043996Y-55698500D02*
X222652014Y-51969043D01*
X216356362Y-53058083D02*
X216484634Y-52843500D01*
X216186278Y-52874858D01*
X216356362Y-53058083D01*
G36*
X216356362Y-53058083D02*
G01*
X216186278Y-52874858D01*
X216484634Y-52843500D01*
X216356362Y-53058083D01*
G37*
%TO.C,AMR4*%
X231950000Y-80475000D02*
X222050000Y-80475000D01*
X231950000Y-84375000D02*
X222050000Y-84375000D01*
D12*
X231600000Y-85100000D02*
G75*
G02*
X231290000Y-85100000I-155000J0D01*
G01*
X231290000Y-85100000D02*
G75*
G02*
X231600000Y-85100000I155000J0D01*
G01*
%TO.C,AMR2*%
D11*
X264550000Y-38050000D02*
X274450000Y-38050000D01*
X264550000Y-41950000D02*
X274450000Y-41950000D01*
D12*
X265210000Y-37325000D02*
G75*
G02*
X264900000Y-37325000I-155000J0D01*
G01*
X264900000Y-37325000D02*
G75*
G02*
X265210000Y-37325000I155000J0D01*
G01*
%TO.C,DR31*%
D11*
X283053000Y-89925000D02*
X283053000Y-92950000D01*
X283053000Y-89925000D02*
X283778000Y-89200000D01*
X283053000Y-92950000D02*
X290353000Y-92950000D01*
X290353000Y-89200000D02*
X283778000Y-89200000D01*
X290353000Y-92950000D02*
X290353000Y-89200000D01*
X283978000Y-89625000D02*
X284128000Y-89425000D01*
X283828000Y-89425000D01*
X283978000Y-89625000D01*
G36*
X283978000Y-89625000D02*
G01*
X283828000Y-89425000D01*
X284128000Y-89425000D01*
X283978000Y-89625000D01*
G37*
%TO.C,DR21*%
X280671000Y-70875000D02*
X280671000Y-73900000D01*
X280671000Y-70875000D02*
X281396000Y-70150000D01*
X280671000Y-73900000D02*
X287971000Y-73900000D01*
X287971000Y-70150000D02*
X281396000Y-70150000D01*
X287971000Y-73900000D02*
X287971000Y-70150000D01*
X281596000Y-70575000D02*
X281746000Y-70375000D01*
X281446000Y-70375000D01*
X281596000Y-70575000D01*
G36*
X281596000Y-70575000D02*
G01*
X281446000Y-70375000D01*
X281746000Y-70375000D01*
X281596000Y-70575000D01*
G37*
%TO.C,DR26*%
X193765538Y-75845644D02*
X194238752Y-78833401D01*
X193765538Y-75845644D02*
X194368197Y-75016155D01*
X194238752Y-78833401D02*
X201448877Y-77691430D01*
X200862248Y-73987599D02*
X194368197Y-75016155D01*
X201448877Y-77691430D02*
X200862248Y-73987599D01*
X194632219Y-75404636D02*
X194749086Y-75183633D01*
X194452779Y-75230563D01*
X194632219Y-75404636D01*
G36*
X194632219Y-75404636D02*
G01*
X194452779Y-75230563D01*
X194749086Y-75183633D01*
X194632219Y-75404636D01*
G37*
%TO.C,DR23*%
X249715000Y-70875000D02*
X249715000Y-73900000D01*
X249715000Y-70875000D02*
X250440000Y-70150000D01*
X249715000Y-73900000D02*
X257015000Y-73900000D01*
X257015000Y-70150000D02*
X250440000Y-70150000D01*
X257015000Y-73900000D02*
X257015000Y-70150000D01*
X250640000Y-70575000D02*
X250790000Y-70375000D01*
X250490000Y-70375000D01*
X250640000Y-70575000D01*
G36*
X250640000Y-70575000D02*
G01*
X250490000Y-70375000D01*
X250790000Y-70375000D01*
X250640000Y-70575000D01*
G37*
%TO.C,DR20*%
X178400738Y-58794244D02*
X178873952Y-61782001D01*
X178400738Y-58794244D02*
X179003397Y-57964755D01*
X178873952Y-61782001D02*
X186084077Y-60640030D01*
X185497448Y-56936199D02*
X179003397Y-57964755D01*
X186084077Y-60640030D02*
X185497448Y-56936199D01*
X179267419Y-58353236D02*
X179384286Y-58132233D01*
X179087979Y-58179163D01*
X179267419Y-58353236D01*
G36*
X179267419Y-58353236D02*
G01*
X179087979Y-58179163D01*
X179384286Y-58132233D01*
X179267419Y-58353236D01*
G37*
%TO.C,AMR1*%
X265050000Y-46050000D02*
X274950000Y-46050000D01*
X265050000Y-49950000D02*
X274950000Y-49950000D01*
D12*
X265710000Y-45325000D02*
G75*
G02*
X265400000Y-45325000I-155000J0D01*
G01*
X265400000Y-45325000D02*
G75*
G02*
X265710000Y-45325000I155000J0D01*
G01*
%TO.C,DR17*%
D11*
X254477000Y-51825000D02*
X254477000Y-54850000D01*
X254477000Y-51825000D02*
X255202000Y-51100000D01*
X254477000Y-54850000D02*
X261777000Y-54850000D01*
X261777000Y-51100000D02*
X255202000Y-51100000D01*
X261777000Y-54850000D02*
X261777000Y-51100000D01*
X255402000Y-51525000D02*
X255552000Y-51325000D01*
X255252000Y-51325000D01*
X255402000Y-51525000D01*
G36*
X255402000Y-51525000D02*
G01*
X255252000Y-51325000D01*
X255552000Y-51325000D01*
X255402000Y-51525000D01*
G37*
%TO.C,DR24*%
X231044616Y-71535302D02*
X231202932Y-74556157D01*
X231044616Y-71535302D02*
X231730679Y-70773352D01*
X231202932Y-74556157D02*
X238492928Y-74174104D01*
X238296668Y-70429243D02*
X231730679Y-70773352D01*
X238492928Y-74174104D02*
X238296668Y-70429243D01*
X231952647Y-71187303D02*
X232091975Y-70979726D01*
X231792386Y-70995427D01*
X231952647Y-71187303D01*
G36*
X231952647Y-71187303D02*
G01*
X231792386Y-70995427D01*
X232091975Y-70979726D01*
X231952647Y-71187303D01*
G37*
%TO.C,DR8*%
X282100000Y-32775000D02*
X282100000Y-35800000D01*
X282100000Y-32775000D02*
X282825000Y-32050000D01*
X282100000Y-35800000D02*
X289400000Y-35800000D01*
X289400000Y-32050000D02*
X282825000Y-32050000D01*
X289400000Y-35800000D02*
X289400000Y-32050000D01*
X283025000Y-32475000D02*
X283175000Y-32275000D01*
X282875000Y-32275000D01*
X283025000Y-32475000D01*
G36*
X283025000Y-32475000D02*
G01*
X282875000Y-32275000D01*
X283175000Y-32275000D01*
X283025000Y-32475000D01*
G37*
%TO.C,DR3*%
X246858000Y-13725000D02*
X246858000Y-16750000D01*
X246858000Y-13725000D02*
X247583000Y-13000000D01*
X246858000Y-16750000D02*
X254158000Y-16750000D01*
X254158000Y-13000000D02*
X247583000Y-13000000D01*
X254158000Y-16750000D02*
X254158000Y-13000000D01*
X247783000Y-13425000D02*
X247933000Y-13225000D01*
X247633000Y-13225000D01*
X247783000Y-13425000D01*
G36*
X247783000Y-13425000D02*
G01*
X247633000Y-13225000D01*
X247933000Y-13225000D01*
X247783000Y-13425000D01*
G37*
%TO.C,DR19*%
X197203938Y-55817044D02*
X197677152Y-58804801D01*
X197203938Y-55817044D02*
X197806597Y-54987555D01*
X197677152Y-58804801D02*
X204887277Y-57662830D01*
X204300648Y-53958999D02*
X197806597Y-54987555D01*
X204887277Y-57662830D02*
X204300648Y-53958999D01*
X198070619Y-55376036D02*
X198187486Y-55155033D01*
X197891179Y-55201963D01*
X198070619Y-55376036D01*
G36*
X198070619Y-55376036D02*
G01*
X197891179Y-55201963D01*
X198187486Y-55155033D01*
X198070619Y-55376036D01*
G37*
%TO.C,AMR5*%
X291550000Y-47550000D02*
X301450000Y-47550000D01*
X291550000Y-51450000D02*
X301450000Y-51450000D01*
D12*
X292210000Y-46825000D02*
G75*
G02*
X291900000Y-46825000I-155000J0D01*
G01*
X291900000Y-46825000D02*
G75*
G02*
X292210000Y-46825000I155000J0D01*
G01*
%TO.C,DR25*%
D11*
X212028587Y-73096129D02*
X212344786Y-76104557D01*
X212028587Y-73096129D02*
X212673833Y-72299317D01*
X212344786Y-76104557D02*
X219604796Y-75341500D01*
X219212814Y-71612043D02*
X212673833Y-72299317D01*
X219604796Y-75341500D02*
X219212814Y-71612043D01*
X212917162Y-72701083D02*
X213045434Y-72486500D01*
X212747078Y-72517858D01*
X212917162Y-72701083D01*
G36*
X212917162Y-72701083D02*
G01*
X212747078Y-72517858D01*
X213045434Y-72486500D01*
X212917162Y-72701083D01*
G37*
%TO.C,DR28*%
X214020287Y-92041129D02*
X214336486Y-95049557D01*
X214020287Y-92041129D02*
X214665532Y-91244314D01*
X214336486Y-95049557D02*
X221596496Y-94286500D01*
X221204514Y-90557043D02*
X214665532Y-91244314D01*
X221596496Y-94286500D02*
X221204514Y-90557043D01*
X214908862Y-91646083D02*
X215037134Y-91431500D01*
X214738778Y-91462858D01*
X214908862Y-91646083D01*
G36*
X214908862Y-91646083D02*
G01*
X214738778Y-91462858D01*
X215037134Y-91431500D01*
X214908862Y-91646083D01*
G37*
%TO.C,DR18*%
X280671000Y-51825000D02*
X280671000Y-54850000D01*
X280671000Y-51825000D02*
X281396000Y-51100000D01*
X280671000Y-54850000D02*
X287971000Y-54850000D01*
X287971000Y-51100000D02*
X281396000Y-51100000D01*
X287971000Y-54850000D02*
X287971000Y-51100000D01*
X281596000Y-51525000D02*
X281746000Y-51325000D01*
X281446000Y-51325000D01*
X281596000Y-51525000D01*
G36*
X281596000Y-51525000D02*
G01*
X281446000Y-51325000D01*
X281746000Y-51325000D01*
X281596000Y-51525000D01*
G37*
%TO.C,DR6*%
X190361938Y-18628844D02*
X190835152Y-21616601D01*
X190361938Y-18628844D02*
X190964597Y-17799355D01*
X190835152Y-21616601D02*
X198045277Y-20474630D01*
X197458648Y-16770799D02*
X190964597Y-17799355D01*
X198045277Y-20474630D02*
X197458648Y-16770799D01*
X191228619Y-18187836D02*
X191345486Y-17966833D01*
X191049179Y-18013763D01*
X191228619Y-18187836D01*
G36*
X191228619Y-18187836D02*
G01*
X191049179Y-18013763D01*
X191345486Y-17966833D01*
X191228619Y-18187836D01*
G37*
%TO.C,DR2*%
X227999016Y-14153502D02*
X228157332Y-17174357D01*
X227999016Y-14153502D02*
X228685079Y-13391552D01*
X228157332Y-17174357D02*
X235447328Y-16792304D01*
X235251068Y-13047443D02*
X228685079Y-13391552D01*
X235447328Y-16792304D02*
X235251068Y-13047443D01*
X228907047Y-13805503D02*
X229046375Y-13597926D01*
X228746786Y-13613627D01*
X228907047Y-13805503D01*
G36*
X228907047Y-13805503D02*
G01*
X228746786Y-13613627D01*
X229046375Y-13597926D01*
X228907047Y-13805503D01*
G37*
%TO.C,DR9*%
X258288000Y-32775000D02*
X258288000Y-35800000D01*
X258288000Y-32775000D02*
X259013000Y-32050000D01*
X258288000Y-35800000D02*
X265588000Y-35800000D01*
X265588000Y-32050000D02*
X259013000Y-32050000D01*
X265588000Y-35800000D02*
X265588000Y-32050000D01*
X259213000Y-32475000D02*
X259363000Y-32275000D01*
X259063000Y-32275000D01*
X259213000Y-32475000D01*
G36*
X259213000Y-32475000D02*
G01*
X259063000Y-32275000D01*
X259363000Y-32275000D01*
X259213000Y-32475000D01*
G37*
%TO.C,DR11*%
X220429587Y-33890329D02*
X220745786Y-36898757D01*
X220429587Y-33890329D02*
X221074833Y-33093517D01*
X220745786Y-36898757D02*
X228005796Y-36135700D01*
X227613814Y-32406243D02*
X221074833Y-33093517D01*
X228005796Y-36135700D02*
X227613814Y-32406243D01*
X221318162Y-33495283D02*
X221446434Y-33280700D01*
X221148078Y-33312058D01*
X221318162Y-33495283D01*
G36*
X221318162Y-33495283D02*
G01*
X221148078Y-33312058D01*
X221446434Y-33280700D01*
X221318162Y-33495283D01*
G37*
%TO.C,DR27*%
X174927138Y-78830244D02*
X175400352Y-81818001D01*
X174927138Y-78830244D02*
X175529797Y-78000755D01*
X175400352Y-81818001D02*
X182610477Y-80676030D01*
X182023848Y-76972199D02*
X175529797Y-78000755D01*
X182610477Y-80676030D02*
X182023848Y-76972199D01*
X175793819Y-78389236D02*
X175910686Y-78168233D01*
X175614379Y-78215163D01*
X175793819Y-78389236D01*
G36*
X175793819Y-78389236D02*
G01*
X175614379Y-78215163D01*
X175910686Y-78168233D01*
X175793819Y-78389236D01*
G37*
%TO.C,DR1*%
X208837587Y-16036129D02*
X209153786Y-19044557D01*
X208837587Y-16036129D02*
X209482833Y-15239317D01*
X209153786Y-19044557D02*
X216413796Y-18281500D01*
X216021814Y-14552043D02*
X209482833Y-15239317D01*
X216413796Y-18281500D02*
X216021814Y-14552043D01*
X209726162Y-15641083D02*
X209854434Y-15426500D01*
X209556078Y-15457858D01*
X209726162Y-15641083D01*
G36*
X209726162Y-15641083D02*
G01*
X209556078Y-15457858D01*
X209854434Y-15426500D01*
X209726162Y-15641083D01*
G37*
%TO.C,DR14*%
X164201738Y-41919844D02*
X164674952Y-44907601D01*
X164201738Y-41919844D02*
X164804397Y-41090355D01*
X164674952Y-44907601D02*
X171885077Y-43765630D01*
X171298448Y-40061799D02*
X164804397Y-41090355D01*
X171885077Y-43765630D02*
X171298448Y-40061799D01*
X165068419Y-41478836D02*
X165185286Y-41257833D01*
X164888979Y-41304763D01*
X165068419Y-41478836D01*
G36*
X165068419Y-41478836D02*
G01*
X164888979Y-41304763D01*
X165185286Y-41257833D01*
X165068419Y-41478836D01*
G37*
%TO.C,DR12*%
X201486387Y-35874729D02*
X201802586Y-38883157D01*
X201486387Y-35874729D02*
X202131633Y-35077917D01*
X201802586Y-38883157D02*
X209062596Y-38120100D01*
X208670614Y-34390643D02*
X202131633Y-35077917D01*
X209062596Y-38120100D02*
X208670614Y-34390643D01*
X202374962Y-35479683D02*
X202503234Y-35265100D01*
X202204878Y-35296458D01*
X202374962Y-35479683D01*
G36*
X202374962Y-35479683D02*
G01*
X202204878Y-35296458D01*
X202503234Y-35265100D01*
X202374962Y-35479683D01*
G37*
%TO.C,DR33*%
X275433000Y-13725000D02*
X275433000Y-16750000D01*
X275433000Y-13725000D02*
X276158000Y-13000000D01*
X275433000Y-16750000D02*
X282733000Y-16750000D01*
X282733000Y-13000000D02*
X276158000Y-13000000D01*
X282733000Y-16750000D02*
X282733000Y-13000000D01*
X276358000Y-13425000D02*
X276508000Y-13225000D01*
X276208000Y-13225000D01*
X276358000Y-13425000D01*
G36*
X276358000Y-13425000D02*
G01*
X276208000Y-13225000D01*
X276508000Y-13225000D01*
X276358000Y-13425000D01*
G37*
%TO.C,DR7*%
X171558138Y-21620444D02*
X172031352Y-24608201D01*
X171558138Y-21620444D02*
X172160797Y-20790955D01*
X172031352Y-24608201D02*
X179241477Y-23466230D01*
X178654848Y-19762399D02*
X172160797Y-20790955D01*
X179241477Y-23466230D02*
X178654848Y-19762399D01*
X172424819Y-21179436D02*
X172541686Y-20958433D01*
X172245379Y-21005363D01*
X172424819Y-21179436D01*
G36*
X172424819Y-21179436D02*
G01*
X172245379Y-21005363D01*
X172541686Y-20958433D01*
X172424819Y-21179436D01*
G37*
%TO.C,DR13*%
X183010938Y-38932044D02*
X183484152Y-41919801D01*
X183010938Y-38932044D02*
X183613597Y-38102555D01*
X183484152Y-41919801D02*
X190694277Y-40777830D01*
X190107648Y-37073999D02*
X183613597Y-38102555D01*
X190694277Y-40777830D02*
X190107648Y-37073999D01*
X183877619Y-38491036D02*
X183994486Y-38270033D01*
X183698179Y-38316963D01*
X183877619Y-38491036D01*
G36*
X183877619Y-38491036D02*
G01*
X183698179Y-38316963D01*
X183994486Y-38270033D01*
X183877619Y-38491036D01*
G37*
%TO.C,AMR3*%
X232191735Y-65717271D02*
X231673609Y-55830839D01*
X236086391Y-65513161D02*
X235568265Y-55626729D01*
D13*
X231596299Y-65250907D02*
G75*
G02*
X231286299Y-65250907I-155000J0D01*
G01*
X231286299Y-65250907D02*
G75*
G02*
X231596299Y-65250907I155000J0D01*
G01*
%TO.C,DR10*%
D11*
X239238000Y-32775000D02*
X239238000Y-35800000D01*
X239238000Y-32775000D02*
X239963000Y-32050000D01*
X239238000Y-35800000D02*
X246538000Y-35800000D01*
X246538000Y-32050000D02*
X239963000Y-32050000D01*
X246538000Y-35800000D02*
X246538000Y-32050000D01*
X240163000Y-32475000D02*
X240313000Y-32275000D01*
X240013000Y-32275000D01*
X240163000Y-32475000D01*
G36*
X240163000Y-32475000D02*
G01*
X240013000Y-32275000D01*
X240313000Y-32275000D01*
X240163000Y-32475000D01*
G37*
%TD*%
%LPC*%
D14*
%TO.C,MHR3*%
X273000000Y-21000000D03*
%TD*%
D15*
%TO.C,SR3*%
X193708259Y-97961555D03*
D16*
X191324198Y-82909185D03*
D15*
X170188930Y-101686651D03*
D16*
X167804869Y-86634281D03*
%TD*%
D14*
%TO.C,MHR4*%
X299000000Y-44000000D03*
%TD*%
%TO.C,MHR2*%
X204000000Y-92000000D03*
%TD*%
D15*
%TO.C,SR2*%
X272414750Y-59690000D03*
D16*
X272414750Y-74930000D03*
D15*
X296227250Y-59690000D03*
D16*
X296227250Y-74930000D03*
%TD*%
D14*
%TO.C,MHR1*%
X167000000Y-49000000D03*
%TD*%
D15*
%TO.C,SR1*%
X267176750Y-2540000D03*
D16*
X267176750Y-17780000D03*
D15*
X290989250Y-2540000D03*
D16*
X290989250Y-17780000D03*
%TD*%
D17*
%TO.C,CRGBR8*%
X289970000Y-33925000D03*
X290930000Y-33925000D03*
%TD*%
D18*
%TO.C,CR15B*%
X174269169Y-42949617D03*
X175226831Y-43016583D03*
%TD*%
D19*
%TO.C,HER10*%
X260800500Y-29525000D03*
X260800500Y-27625000D03*
X263075500Y-28575000D03*
%TD*%
D17*
%TO.C,CR11B*%
X291870000Y-35475000D03*
X292830000Y-35475000D03*
%TD*%
D20*
%TO.C,HER8*%
X173531317Y-18017448D03*
X173234092Y-16140840D03*
X175629694Y-16723256D03*
%TD*%
D21*
%TO.C,CR12A*%
X215857427Y-23201335D03*
X216813773Y-23117665D03*
%TD*%
D22*
%TO.C,CR35A*%
X209446393Y-81327052D03*
X210405807Y-81293548D03*
%TD*%
D17*
%TO.C,CRGBR9*%
X266158000Y-33925000D03*
X267118000Y-33925000D03*
%TD*%
%TO.C,CR31A*%
X250647000Y-78825000D03*
X251607000Y-78825000D03*
%TD*%
D23*
%TO.C,CRGBR28*%
X222862428Y-92268174D03*
X223817172Y-92167826D03*
%TD*%
D24*
%TO.C,DR32*%
X178884023Y-97894718D03*
X179118675Y-99376250D03*
X184501577Y-98523682D03*
X184266925Y-97042150D03*
%TD*%
D25*
%TO.C,DR29*%
X255402000Y-90325000D03*
X255402000Y-91825000D03*
X260852000Y-91825000D03*
X260852000Y-90325000D03*
%TD*%
D26*
%TO.C,CR29A*%
X169798269Y-68294917D03*
X170755931Y-68361883D03*
%TD*%
D17*
%TO.C,CR16A*%
X230431058Y-41317721D03*
X231389742Y-41267479D03*
%TD*%
D19*
%TO.C,HER17*%
X256989500Y-48575000D03*
X256989500Y-46675000D03*
X259264500Y-47625000D03*
%TD*%
D27*
%TO.C,DR16*%
X235381883Y-52574143D03*
X235460383Y-54072088D03*
X240902917Y-53786857D03*
X240824417Y-52288912D03*
%TD*%
D19*
%TO.C,HER25*%
X283183500Y-67625000D03*
X283183500Y-65725000D03*
X285458500Y-66675000D03*
%TD*%
D28*
%TO.C,CR6B*%
X218833992Y-17666652D03*
X219793408Y-17633148D03*
%TD*%
D29*
%TO.C,CRGBR7*%
X175432210Y-25816091D03*
X176380390Y-25665909D03*
%TD*%
D30*
%TO.C,CRGBR6*%
X194236010Y-22824491D03*
X195184190Y-22674309D03*
%TD*%
D31*
%TO.C,DR15*%
X216429529Y-53754249D03*
X216586324Y-55246030D03*
X222006471Y-54676351D03*
X221849676Y-53184570D03*
%TD*%
D32*
%TO.C,CR21A*%
X173271869Y-48258917D03*
X174229531Y-48325883D03*
%TD*%
D17*
%TO.C,CR23A*%
X246285000Y-59775000D03*
X247245000Y-59775000D03*
%TD*%
D33*
%TO.C,CR14A*%
X177881558Y-28405079D03*
X178840242Y-28455321D03*
%TD*%
D17*
%TO.C,CR16B*%
X244335158Y-54408021D03*
X245293842Y-54357779D03*
%TD*%
D34*
%TO.C,CRGBR32*%
X186749810Y-97408291D03*
X187697990Y-97258109D03*
%TD*%
D17*
%TO.C,CR11A*%
X278670000Y-21675000D03*
X279630000Y-21675000D03*
%TD*%
D35*
%TO.C,JR1*%
X165309000Y-63500000D03*
X165309000Y-62500000D03*
X165309000Y-61500000D03*
X165309000Y-60500000D03*
X165309000Y-59500000D03*
X165309000Y-58500000D03*
X165309000Y-57500000D03*
X165309000Y-56500000D03*
X165309000Y-55500000D03*
X165309000Y-54500000D03*
X165309000Y-53500000D03*
X165309000Y-52500000D03*
D36*
X163109000Y-65800000D03*
X163109000Y-50200000D03*
%TD*%
D37*
%TO.C,AMR4*%
X231445000Y-84900000D03*
X230175000Y-84900000D03*
X228905000Y-84900000D03*
X227635000Y-84900000D03*
X226365000Y-84900000D03*
X225095000Y-84900000D03*
X223825000Y-84900000D03*
X222555000Y-84900000D03*
X222555000Y-79950000D03*
X223825000Y-79950000D03*
X225095000Y-79950000D03*
X226365000Y-79950000D03*
X227635000Y-79950000D03*
X228905000Y-79950000D03*
X230175000Y-79950000D03*
X231445000Y-79950000D03*
%TD*%
D17*
%TO.C,CR10A*%
X254858000Y-21675000D03*
X255818000Y-21675000D03*
%TD*%
D37*
%TO.C,AMR2*%
X265055000Y-37525000D03*
X266325000Y-37525000D03*
X267595000Y-37525000D03*
X268865000Y-37525000D03*
X270135000Y-37525000D03*
X271405000Y-37525000D03*
X272675000Y-37525000D03*
X273945000Y-37525000D03*
X273945000Y-42475000D03*
X272675000Y-42475000D03*
X271405000Y-42475000D03*
X270135000Y-42475000D03*
X268865000Y-42475000D03*
X267595000Y-42475000D03*
X266325000Y-42475000D03*
X265055000Y-42475000D03*
%TD*%
D38*
%TO.C,HER22*%
X233383578Y-68158230D03*
X233284140Y-66260834D03*
X235605741Y-67090468D03*
%TD*%
D34*
%TO.C,CR36B*%
X186623010Y-100226391D03*
X187571190Y-100076209D03*
%TD*%
D39*
%TO.C,HER13*%
X203645433Y-32379897D03*
X203446829Y-30490305D03*
X205808669Y-31197299D03*
%TD*%
D40*
%TO.C,HER6*%
X210996633Y-12541297D03*
X210798029Y-10651705D03*
X213159869Y-11358699D03*
%TD*%
D17*
%TO.C,CR17A*%
X251047000Y-40725000D03*
X252007000Y-40725000D03*
%TD*%
%TO.C,CRGBR16*%
X243255358Y-52912521D03*
X244214042Y-52862279D03*
%TD*%
D41*
%TO.C,DR31*%
X283978000Y-90325000D03*
X283978000Y-91825000D03*
X289428000Y-91825000D03*
X289428000Y-90325000D03*
%TD*%
D42*
%TO.C,HER28*%
X195738717Y-72242648D03*
X195441492Y-70366040D03*
X197837094Y-70948456D03*
%TD*%
D27*
%TO.C,DR21*%
X281596000Y-71275000D03*
X281596000Y-72775000D03*
X287046000Y-72775000D03*
X287046000Y-71275000D03*
%TD*%
D26*
%TO.C,CR29B*%
X184994569Y-79860117D03*
X185952231Y-79927083D03*
%TD*%
D19*
%TO.C,HER33*%
X287840500Y-84775000D03*
X287840500Y-86675000D03*
X285565500Y-85725000D03*
%TD*%
D43*
%TO.C,HER36*%
X179881017Y-94041348D03*
X179583792Y-92164740D03*
X181979394Y-92747156D03*
%TD*%
D44*
%TO.C,CRGBR15*%
X219116928Y-57845774D03*
X220071672Y-57745426D03*
%TD*%
D45*
%TO.C,CRGBR1*%
X212486728Y-20428774D03*
X213441472Y-20328426D03*
%TD*%
D46*
%TO.C,DR26*%
X194741723Y-76096018D03*
X194976375Y-77577550D03*
X200359277Y-76724982D03*
X200124625Y-75243450D03*
%TD*%
D47*
%TO.C,CR27A*%
X207454892Y-62382052D03*
X208414308Y-62348548D03*
%TD*%
D27*
%TO.C,DR23*%
X250640000Y-71275000D03*
X250640000Y-72775000D03*
X256090000Y-72775000D03*
X256090000Y-71275000D03*
%TD*%
D48*
%TO.C,DR20*%
X179376923Y-59044618D03*
X179611575Y-60526150D03*
X184994477Y-59673582D03*
X184759825Y-58192050D03*
%TD*%
D49*
%TO.C,CRGBR11*%
X224078728Y-38282974D03*
X225033472Y-38182626D03*
%TD*%
D17*
%TO.C,CMR2*%
X262467300Y-43648600D03*
X263427300Y-43648600D03*
%TD*%
%TO.C,CRGBR17*%
X262347000Y-52975000D03*
X263307000Y-52975000D03*
%TD*%
%TO.C,CRGBR3*%
X254728000Y-14875000D03*
X255688000Y-14875000D03*
%TD*%
D50*
%TO.C,CRGBR13*%
X186885010Y-43127691D03*
X187833190Y-42977509D03*
%TD*%
D37*
%TO.C,AMR1*%
X265555000Y-45525000D03*
X266825000Y-45525000D03*
X268095000Y-45525000D03*
X269365000Y-45525000D03*
X270635000Y-45525000D03*
X271905000Y-45525000D03*
X273175000Y-45525000D03*
X274445000Y-45525000D03*
X274445000Y-50475000D03*
X273175000Y-50475000D03*
X271905000Y-50475000D03*
X270635000Y-50475000D03*
X269365000Y-50475000D03*
X268095000Y-50475000D03*
X266825000Y-50475000D03*
X265555000Y-50475000D03*
%TD*%
D17*
%TO.C,CR17B*%
X264247000Y-54525000D03*
X265207000Y-54525000D03*
%TD*%
D51*
%TO.C,CRGBR29*%
X263477000Y-81505000D03*
X263477000Y-80545000D03*
%TD*%
D52*
%TO.C,RBPR31*%
X271990000Y-78000000D03*
X273010000Y-78000000D03*
%TD*%
D27*
%TO.C,DR17*%
X255402000Y-52225000D03*
X255402000Y-53725000D03*
X260852000Y-53725000D03*
X260852000Y-52225000D03*
%TD*%
D53*
%TO.C,CR13A*%
X196912373Y-25135523D03*
X197872227Y-25152277D03*
%TD*%
D17*
%TO.C,CR9B*%
X249008000Y-35475000D03*
X249968000Y-35475000D03*
%TD*%
D54*
%TO.C,HER35*%
X216179329Y-88546297D03*
X215980729Y-86656705D03*
X218342569Y-87363699D03*
%TD*%
D55*
%TO.C,DR24*%
X231989283Y-71886343D03*
X232067783Y-73384288D03*
X237510317Y-73099057D03*
X237431817Y-71601112D03*
%TD*%
D17*
%TO.C,CR33A*%
X279623000Y-78825000D03*
X280583000Y-78825000D03*
%TD*%
D20*
%TO.C,HER15*%
X166174917Y-38316848D03*
X165877692Y-36440240D03*
X168273294Y-37022656D03*
%TD*%
D27*
%TO.C,DR8*%
X283025000Y-33175000D03*
X283025000Y-34675000D03*
X288475000Y-34675000D03*
X288475000Y-33175000D03*
%TD*%
D56*
%TO.C,CR22A*%
X227038358Y-60630021D03*
X227997042Y-60579779D03*
%TD*%
D17*
%TO.C,CMR1*%
X262967300Y-51648600D03*
X263927300Y-51648600D03*
%TD*%
%TO.C,CR33B*%
X292823000Y-92625000D03*
X293783000Y-92625000D03*
%TD*%
D57*
%TO.C,HER21*%
X180373917Y-55191248D03*
X180076692Y-53314640D03*
X182472294Y-53897056D03*
%TD*%
D27*
%TO.C,DR3*%
X247783000Y-14125000D03*
X247783000Y-15625000D03*
X253233000Y-15625000D03*
X253233000Y-14125000D03*
%TD*%
D58*
%TO.C,HER1*%
X230337978Y-10776430D03*
X230238540Y-8879034D03*
X232560141Y-9708668D03*
%TD*%
D59*
%TO.C,CR19A*%
X210894869Y-42755783D03*
X211852531Y-42688817D03*
%TD*%
D60*
%TO.C,CMR3*%
X233238358Y-57601321D03*
X234197042Y-57551079D03*
%TD*%
D19*
%TO.C,HER4*%
X277945500Y-10475000D03*
X277945500Y-8575000D03*
X280220500Y-9525000D03*
%TD*%
D61*
%TO.C,CR28B*%
X203831700Y-76909000D03*
X204791700Y-76909000D03*
%TD*%
D62*
%TO.C,DR19*%
X198180123Y-56067418D03*
X198414775Y-57548950D03*
X203797677Y-56696382D03*
X203563025Y-55214850D03*
%TD*%
D37*
%TO.C,AMR5*%
X292055000Y-47025000D03*
X293325000Y-47025000D03*
X294595000Y-47025000D03*
X295865000Y-47025000D03*
X297135000Y-47025000D03*
X298405000Y-47025000D03*
X299675000Y-47025000D03*
X300945000Y-47025000D03*
X300945000Y-51975000D03*
X299675000Y-51975000D03*
X298405000Y-51975000D03*
X297135000Y-51975000D03*
X295865000Y-51975000D03*
X294595000Y-51975000D03*
X293325000Y-51975000D03*
X292055000Y-51975000D03*
%TD*%
D63*
%TO.C,DR25*%
X212990329Y-73397249D03*
X213147124Y-74889030D03*
X218567271Y-74319351D03*
X218410476Y-72827570D03*
%TD*%
D17*
%TO.C,CRGBR33*%
X278603000Y-18475000D03*
X279563000Y-18475000D03*
%TD*%
%TO.C,CMR4*%
X233072700Y-78851400D03*
X234032700Y-78851400D03*
%TD*%
%TO.C,CR2B*%
X256628000Y-16425000D03*
X257588000Y-16425000D03*
%TD*%
%TO.C,CR10B*%
X268058000Y-35475000D03*
X269018000Y-35475000D03*
%TD*%
D64*
%TO.C,DR28*%
X214982029Y-92342249D03*
X215138824Y-93834030D03*
X220558971Y-93264351D03*
X220402176Y-91772570D03*
%TD*%
D65*
%TO.C,HER20*%
X199177117Y-52214048D03*
X198879892Y-50337440D03*
X201275494Y-50919856D03*
%TD*%
D17*
%TO.C,CRGBR21*%
X279141000Y-72025000D03*
X280101000Y-72025000D03*
%TD*%
%TO.C,CRGBR18*%
X279141000Y-52975000D03*
X280101000Y-52975000D03*
%TD*%
%TO.C,CRGBR10*%
X247108000Y-33925000D03*
X248068000Y-33925000D03*
%TD*%
D27*
%TO.C,DR18*%
X281596000Y-52225000D03*
X281596000Y-53725000D03*
X287046000Y-53725000D03*
X287046000Y-52225000D03*
%TD*%
D66*
%TO.C,DR6*%
X191338123Y-18879218D03*
X191572775Y-20360750D03*
X196955677Y-19508182D03*
X196721025Y-18026650D03*
%TD*%
D61*
%TO.C,CR28A*%
X188635500Y-65343800D03*
X189595500Y-65343800D03*
%TD*%
D47*
%TO.C,CR27B*%
X222024992Y-74726652D03*
X222984408Y-74693148D03*
%TD*%
D67*
%TO.C,CRGBR12*%
X205135528Y-40267374D03*
X206090272Y-40167026D03*
%TD*%
D68*
%TO.C,CR1B*%
X237896958Y-16338422D03*
X238855642Y-16288178D03*
%TD*%
D69*
%TO.C,DR2*%
X228943683Y-14504543D03*
X229022183Y-16002488D03*
X234464717Y-15717257D03*
X234386217Y-14219312D03*
%TD*%
D17*
%TO.C,CR18B*%
X290441000Y-54525000D03*
X291401000Y-54525000D03*
%TD*%
%TO.C,CR25B*%
X288441000Y-64075000D03*
X289401000Y-64075000D03*
%TD*%
D33*
%TO.C,CR14B*%
X193077858Y-39970279D03*
X194036542Y-40020521D03*
%TD*%
D70*
%TO.C,CRGBR26*%
X197639610Y-80041291D03*
X198587790Y-79891109D03*
%TD*%
D17*
%TO.C,CR23B*%
X259485000Y-73575000D03*
X260445000Y-73575000D03*
%TD*%
D71*
%TO.C,CR7B*%
X200428273Y-19683823D03*
X201388127Y-19700577D03*
%TD*%
D17*
%TO.C,CR9A*%
X235808000Y-21675000D03*
X236768000Y-21675000D03*
%TD*%
%TO.C,CMR5*%
X289467300Y-53148600D03*
X290427300Y-53148600D03*
%TD*%
D32*
%TO.C,CR21B*%
X188468169Y-59824217D03*
X189425831Y-59891183D03*
%TD*%
D72*
%TO.C,HER19*%
X217626833Y-49958297D03*
X217428229Y-48068705D03*
X219790069Y-48775699D03*
%TD*%
D68*
%TO.C,CRGBR2*%
X231413258Y-18731021D03*
X232371942Y-18680779D03*
%TD*%
D18*
%TO.C,CR8A*%
X166429169Y-11085117D03*
X167386831Y-11152083D03*
%TD*%
D17*
%TO.C,CR4A*%
X274003000Y-6925000D03*
X274963000Y-6925000D03*
%TD*%
D29*
%TO.C,CRGBR14*%
X168075810Y-46115491D03*
X169023990Y-45965309D03*
%TD*%
D73*
%TO.C,CRGBR19*%
X201078010Y-60012691D03*
X202026190Y-59862509D03*
%TD*%
D27*
%TO.C,DR9*%
X259213000Y-33175000D03*
X259213000Y-34675000D03*
X264663000Y-34675000D03*
X264663000Y-33175000D03*
%TD*%
D19*
%TO.C,HER16*%
X236776178Y-48846030D03*
X236676740Y-46948634D03*
X238998341Y-47778268D03*
%TD*%
D17*
%TO.C,CR18A*%
X277241000Y-40725000D03*
X278201000Y-40725000D03*
%TD*%
D74*
%TO.C,DR11*%
X221391329Y-34191449D03*
X221548124Y-35683230D03*
X226968271Y-35113551D03*
X226811476Y-33621770D03*
%TD*%
D53*
%TO.C,CR13B*%
X211482573Y-37480123D03*
X212442427Y-37496877D03*
%TD*%
D75*
%TO.C,HER27*%
X214187633Y-69601297D03*
X213989029Y-67711705D03*
X216350869Y-68418699D03*
%TD*%
D19*
%TO.C,HER2*%
X249370500Y-10475000D03*
X249370500Y-8575000D03*
X251645500Y-9525000D03*
%TD*%
D59*
%TO.C,CR19B*%
X225465069Y-55100383D03*
X226422731Y-55033417D03*
%TD*%
D76*
%TO.C,DR27*%
X175903323Y-79080618D03*
X176137975Y-80562150D03*
X181520877Y-79709582D03*
X181286225Y-78228050D03*
%TD*%
D56*
%TO.C,CR22B*%
X240942458Y-73720221D03*
X241901142Y-73669979D03*
%TD*%
D77*
%TO.C,HER29*%
X176900317Y-75227248D03*
X176603092Y-73350640D03*
X178998694Y-73933056D03*
%TD*%
D78*
%TO.C,DR1*%
X209799329Y-16337249D03*
X209956124Y-17829030D03*
X215376271Y-17259351D03*
X215219476Y-15767570D03*
%TD*%
D28*
%TO.C,CR6A*%
X204263692Y-5321952D03*
X205223108Y-5288448D03*
%TD*%
D79*
%TO.C,HER7*%
X192335117Y-15025848D03*
X192037892Y-13149240D03*
X194433494Y-13731656D03*
%TD*%
D17*
%TO.C,CR4B*%
X285103000Y-11525000D03*
X286063000Y-11525000D03*
%TD*%
D80*
%TO.C,HER14*%
X184984117Y-35329048D03*
X184686892Y-33452440D03*
X187082494Y-34034856D03*
%TD*%
D81*
%TO.C,CRGBR27*%
X178801210Y-83025891D03*
X179749390Y-82875709D03*
%TD*%
D18*
%TO.C,CR8B*%
X181625569Y-22650317D03*
X182583231Y-22717283D03*
%TD*%
D19*
%TO.C,HER23*%
X252227500Y-67625000D03*
X252227500Y-65725000D03*
X254502500Y-66675000D03*
%TD*%
D18*
%TO.C,CR15A*%
X159072869Y-31384517D03*
X160030531Y-31451483D03*
%TD*%
D82*
%TO.C,CRGBR31*%
X281353000Y-89945000D03*
X281353000Y-90905000D03*
%TD*%
D19*
%TO.C,HER11*%
X284612500Y-29525000D03*
X284612500Y-27625000D03*
X286887500Y-28575000D03*
%TD*%
D83*
%TO.C,DR14*%
X165177923Y-42170218D03*
X165412575Y-43651750D03*
X170795477Y-42799182D03*
X170560825Y-41317650D03*
%TD*%
D34*
%TO.C,CR36A*%
X174140710Y-85773991D03*
X175088890Y-85623809D03*
%TD*%
D84*
%TO.C,DR12*%
X202448129Y-36175849D03*
X202604924Y-37667630D03*
X208025071Y-37097951D03*
X207868276Y-35606170D03*
%TD*%
D17*
%TO.C,CR31B*%
X264247000Y-92625000D03*
X265207000Y-92625000D03*
%TD*%
D85*
%TO.C,CRGBR25*%
X215677728Y-77488774D03*
X216632472Y-77388426D03*
%TD*%
D86*
%TO.C,HER12*%
X222588633Y-30395497D03*
X222390029Y-28505905D03*
X224751869Y-29212899D03*
%TD*%
D21*
%TO.C,CR12B*%
X230427527Y-35545835D03*
X231383873Y-35462165D03*
%TD*%
D87*
%TO.C,CRGBR20*%
X182274810Y-62989891D03*
X183222990Y-62839709D03*
%TD*%
D52*
%TO.C,RBPR24*%
X233490000Y-62500000D03*
X234510000Y-62500000D03*
%TD*%
D71*
%TO.C,CR7A*%
X185231973Y-8118723D03*
X186191827Y-8135477D03*
%TD*%
D27*
%TO.C,DR33*%
X276358000Y-14125000D03*
X276358000Y-15625000D03*
X281808000Y-15625000D03*
X281808000Y-14125000D03*
%TD*%
D17*
%TO.C,CR2A*%
X243428000Y-2625000D03*
X244388000Y-2625000D03*
%TD*%
D56*
%TO.C,CRGBR24*%
X234458858Y-76112821D03*
X235417542Y-76062579D03*
%TD*%
D19*
%TO.C,HER9*%
X241750500Y-29525000D03*
X241750500Y-27625000D03*
X244025500Y-28575000D03*
%TD*%
%TO.C,HER18*%
X283183500Y-48575000D03*
X283183500Y-46675000D03*
X285458500Y-47625000D03*
%TD*%
D88*
%TO.C,CR20B*%
X207270173Y-56888678D03*
X208230027Y-56871922D03*
%TD*%
D83*
%TO.C,DR7*%
X172534323Y-21870818D03*
X172768975Y-23352350D03*
X178151877Y-22499782D03*
X177917225Y-21018250D03*
%TD*%
D89*
%TO.C,DR13*%
X183987123Y-39182418D03*
X184221775Y-40663950D03*
X189604677Y-39811382D03*
X189370025Y-38329850D03*
%TD*%
D90*
%TO.C,AMR3*%
X231641025Y-65240440D03*
X231574559Y-63972180D03*
X231508092Y-62703921D03*
X231441625Y-61435661D03*
X231375159Y-60167402D03*
X231308692Y-58899142D03*
X231242225Y-57630883D03*
X231175759Y-56362623D03*
X236118975Y-56103560D03*
X236185441Y-57371820D03*
X236251908Y-58640079D03*
X236318375Y-59908339D03*
X236384841Y-61176598D03*
X236451308Y-62444858D03*
X236517775Y-63713117D03*
X236584241Y-64981377D03*
%TD*%
D88*
%TO.C,CR20A*%
X192073973Y-45323578D03*
X193033827Y-45306822D03*
%TD*%
D52*
%TO.C,RBPR5*%
X274990000Y-5500000D03*
X276010000Y-5500000D03*
%TD*%
D68*
%TO.C,CR1A*%
X223992758Y-3248222D03*
X224951442Y-3197978D03*
%TD*%
D27*
%TO.C,DR10*%
X240163000Y-33175000D03*
X240163000Y-34675000D03*
X245613000Y-34675000D03*
X245613000Y-33175000D03*
%TD*%
D22*
%TO.C,CR35B*%
X224016693Y-93671652D03*
X224976107Y-93638148D03*
%TD*%
D19*
%TO.C,HER31*%
X256989500Y-86675000D03*
X256989500Y-84775000D03*
X259264500Y-85725000D03*
%TD*%
D17*
%TO.C,CR25A*%
X277241000Y-59775000D03*
X278201000Y-59775000D03*
%TD*%
%TO.C,CRGBR23*%
X257585000Y-72025000D03*
X258545000Y-72025000D03*
%TD*%
%LPD*%
M02*
