%TF.GenerationSoftware,KiCad,Pcbnew,10.0.5*%
%TF.CreationDate,2026-09-21T10:24:53-04:00*%
%TF.ProjectId,Symm60HE-Pogo16-Target-Coupon,53796d6d-3630-4484-952d-506f676f3136,rev?*%
%TF.SameCoordinates,Original*%
%TF.FileFunction,Legend,Top*%
%TF.FilePolarity,Positive*%
%FSLAX46Y46*%
G04 Gerber Fmt 4.6, Leading zero omitted, Abs format (unit mm)*
G04 Created by KiCad (PCBNEW 10.0.5) date 2026-09-21 10:24:53*
%MOMM*%
%LPD*%
G01*
G04 APERTURE LIST*
%ADD10C,0.120000*%
%ADD11C,0.090000*%
%ADD12C,0.150000*%
G04 APERTURE END LIST*
D10*
X392857Y-27340724D02*
X392857Y-26590724D01*
X392857Y-26590724D02*
X678571Y-26590724D01*
X678571Y-26590724D02*
X750000Y-26626438D01*
X750000Y-26626438D02*
X785714Y-26662152D01*
X785714Y-26662152D02*
X821428Y-26733581D01*
X821428Y-26733581D02*
X821428Y-26840724D01*
X821428Y-26840724D02*
X785714Y-26912152D01*
X785714Y-26912152D02*
X750000Y-26947867D01*
X750000Y-26947867D02*
X678571Y-26983581D01*
X678571Y-26983581D02*
X392857Y-26983581D01*
X1285714Y-26590724D02*
X1428571Y-26590724D01*
X1428571Y-26590724D02*
X1500000Y-26626438D01*
X1500000Y-26626438D02*
X1571428Y-26697867D01*
X1571428Y-26697867D02*
X1607143Y-26840724D01*
X1607143Y-26840724D02*
X1607143Y-27090724D01*
X1607143Y-27090724D02*
X1571428Y-27233581D01*
X1571428Y-27233581D02*
X1500000Y-27305010D01*
X1500000Y-27305010D02*
X1428571Y-27340724D01*
X1428571Y-27340724D02*
X1285714Y-27340724D01*
X1285714Y-27340724D02*
X1214286Y-27305010D01*
X1214286Y-27305010D02*
X1142857Y-27233581D01*
X1142857Y-27233581D02*
X1107143Y-27090724D01*
X1107143Y-27090724D02*
X1107143Y-26840724D01*
X1107143Y-26840724D02*
X1142857Y-26697867D01*
X1142857Y-26697867D02*
X1214286Y-26626438D01*
X1214286Y-26626438D02*
X1285714Y-26590724D01*
X2321428Y-26626438D02*
X2250000Y-26590724D01*
X2250000Y-26590724D02*
X2142857Y-26590724D01*
X2142857Y-26590724D02*
X2035714Y-26626438D01*
X2035714Y-26626438D02*
X1964285Y-26697867D01*
X1964285Y-26697867D02*
X1928571Y-26769295D01*
X1928571Y-26769295D02*
X1892857Y-26912152D01*
X1892857Y-26912152D02*
X1892857Y-27019295D01*
X1892857Y-27019295D02*
X1928571Y-27162152D01*
X1928571Y-27162152D02*
X1964285Y-27233581D01*
X1964285Y-27233581D02*
X2035714Y-27305010D01*
X2035714Y-27305010D02*
X2142857Y-27340724D01*
X2142857Y-27340724D02*
X2214285Y-27340724D01*
X2214285Y-27340724D02*
X2321428Y-27305010D01*
X2321428Y-27305010D02*
X2357142Y-27269295D01*
X2357142Y-27269295D02*
X2357142Y-27019295D01*
X2357142Y-27019295D02*
X2214285Y-27019295D01*
X2821428Y-26590724D02*
X2964285Y-26590724D01*
X2964285Y-26590724D02*
X3035714Y-26626438D01*
X3035714Y-26626438D02*
X3107142Y-26697867D01*
X3107142Y-26697867D02*
X3142857Y-26840724D01*
X3142857Y-26840724D02*
X3142857Y-27090724D01*
X3142857Y-27090724D02*
X3107142Y-27233581D01*
X3107142Y-27233581D02*
X3035714Y-27305010D01*
X3035714Y-27305010D02*
X2964285Y-27340724D01*
X2964285Y-27340724D02*
X2821428Y-27340724D01*
X2821428Y-27340724D02*
X2750000Y-27305010D01*
X2750000Y-27305010D02*
X2678571Y-27233581D01*
X2678571Y-27233581D02*
X2642857Y-27090724D01*
X2642857Y-27090724D02*
X2642857Y-26840724D01*
X2642857Y-26840724D02*
X2678571Y-26697867D01*
X2678571Y-26697867D02*
X2750000Y-26626438D01*
X2750000Y-26626438D02*
X2821428Y-26590724D01*
X3857142Y-27340724D02*
X3428571Y-27340724D01*
X3642856Y-27340724D02*
X3642856Y-26590724D01*
X3642856Y-26590724D02*
X3571428Y-26697867D01*
X3571428Y-26697867D02*
X3499999Y-26769295D01*
X3499999Y-26769295D02*
X3428571Y-26805010D01*
X4500000Y-26590724D02*
X4357142Y-26590724D01*
X4357142Y-26590724D02*
X4285714Y-26626438D01*
X4285714Y-26626438D02*
X4250000Y-26662152D01*
X4250000Y-26662152D02*
X4178571Y-26769295D01*
X4178571Y-26769295D02*
X4142857Y-26912152D01*
X4142857Y-26912152D02*
X4142857Y-27197867D01*
X4142857Y-27197867D02*
X4178571Y-27269295D01*
X4178571Y-27269295D02*
X4214285Y-27305010D01*
X4214285Y-27305010D02*
X4285714Y-27340724D01*
X4285714Y-27340724D02*
X4428571Y-27340724D01*
X4428571Y-27340724D02*
X4500000Y-27305010D01*
X4500000Y-27305010D02*
X4535714Y-27269295D01*
X4535714Y-27269295D02*
X4571428Y-27197867D01*
X4571428Y-27197867D02*
X4571428Y-27019295D01*
X4571428Y-27019295D02*
X4535714Y-26947867D01*
X4535714Y-26947867D02*
X4500000Y-26912152D01*
X4500000Y-26912152D02*
X4428571Y-26876438D01*
X4428571Y-26876438D02*
X4285714Y-26876438D01*
X4285714Y-26876438D02*
X4214285Y-26912152D01*
X4214285Y-26912152D02*
X4178571Y-26947867D01*
X4178571Y-26947867D02*
X4142857Y-27019295D01*
X5357143Y-26590724D02*
X5785715Y-26590724D01*
X5571429Y-27340724D02*
X5571429Y-26590724D01*
X6000001Y-27126438D02*
X6357144Y-27126438D01*
X5928572Y-27340724D02*
X6178572Y-26590724D01*
X6178572Y-26590724D02*
X6428572Y-27340724D01*
X7107143Y-27340724D02*
X6857143Y-26983581D01*
X6678572Y-27340724D02*
X6678572Y-26590724D01*
X6678572Y-26590724D02*
X6964286Y-26590724D01*
X6964286Y-26590724D02*
X7035715Y-26626438D01*
X7035715Y-26626438D02*
X7071429Y-26662152D01*
X7071429Y-26662152D02*
X7107143Y-26733581D01*
X7107143Y-26733581D02*
X7107143Y-26840724D01*
X7107143Y-26840724D02*
X7071429Y-26912152D01*
X7071429Y-26912152D02*
X7035715Y-26947867D01*
X7035715Y-26947867D02*
X6964286Y-26983581D01*
X6964286Y-26983581D02*
X6678572Y-26983581D01*
X7821429Y-26626438D02*
X7750001Y-26590724D01*
X7750001Y-26590724D02*
X7642858Y-26590724D01*
X7642858Y-26590724D02*
X7535715Y-26626438D01*
X7535715Y-26626438D02*
X7464286Y-26697867D01*
X7464286Y-26697867D02*
X7428572Y-26769295D01*
X7428572Y-26769295D02*
X7392858Y-26912152D01*
X7392858Y-26912152D02*
X7392858Y-27019295D01*
X7392858Y-27019295D02*
X7428572Y-27162152D01*
X7428572Y-27162152D02*
X7464286Y-27233581D01*
X7464286Y-27233581D02*
X7535715Y-27305010D01*
X7535715Y-27305010D02*
X7642858Y-27340724D01*
X7642858Y-27340724D02*
X7714286Y-27340724D01*
X7714286Y-27340724D02*
X7821429Y-27305010D01*
X7821429Y-27305010D02*
X7857143Y-27269295D01*
X7857143Y-27269295D02*
X7857143Y-27019295D01*
X7857143Y-27019295D02*
X7714286Y-27019295D01*
X8178572Y-26947867D02*
X8428572Y-26947867D01*
X8535715Y-27340724D02*
X8178572Y-27340724D01*
X8178572Y-27340724D02*
X8178572Y-26590724D01*
X8178572Y-26590724D02*
X8535715Y-26590724D01*
X8750000Y-26590724D02*
X9178572Y-26590724D01*
X8964286Y-27340724D02*
X8964286Y-26590724D01*
X10000001Y-27055010D02*
X10571430Y-27055010D01*
X11500001Y-27340724D02*
X11500001Y-26590724D01*
X11500001Y-26590724D02*
X11785715Y-26590724D01*
X11785715Y-26590724D02*
X11857144Y-26626438D01*
X11857144Y-26626438D02*
X11892858Y-26662152D01*
X11892858Y-26662152D02*
X11928572Y-26733581D01*
X11928572Y-26733581D02*
X11928572Y-26840724D01*
X11928572Y-26840724D02*
X11892858Y-26912152D01*
X11892858Y-26912152D02*
X11857144Y-26947867D01*
X11857144Y-26947867D02*
X11785715Y-26983581D01*
X11785715Y-26983581D02*
X11500001Y-26983581D01*
X12392858Y-26590724D02*
X12535715Y-26590724D01*
X12535715Y-26590724D02*
X12607144Y-26626438D01*
X12607144Y-26626438D02*
X12678572Y-26697867D01*
X12678572Y-26697867D02*
X12714287Y-26840724D01*
X12714287Y-26840724D02*
X12714287Y-27090724D01*
X12714287Y-27090724D02*
X12678572Y-27233581D01*
X12678572Y-27233581D02*
X12607144Y-27305010D01*
X12607144Y-27305010D02*
X12535715Y-27340724D01*
X12535715Y-27340724D02*
X12392858Y-27340724D01*
X12392858Y-27340724D02*
X12321430Y-27305010D01*
X12321430Y-27305010D02*
X12250001Y-27233581D01*
X12250001Y-27233581D02*
X12214287Y-27090724D01*
X12214287Y-27090724D02*
X12214287Y-26840724D01*
X12214287Y-26840724D02*
X12250001Y-26697867D01*
X12250001Y-26697867D02*
X12321430Y-26626438D01*
X12321430Y-26626438D02*
X12392858Y-26590724D01*
X12964286Y-26590724D02*
X13142858Y-27340724D01*
X13142858Y-27340724D02*
X13285715Y-26805010D01*
X13285715Y-26805010D02*
X13428572Y-27340724D01*
X13428572Y-27340724D02*
X13607144Y-26590724D01*
X13892858Y-26947867D02*
X14142858Y-26947867D01*
X14250001Y-27340724D02*
X13892858Y-27340724D01*
X13892858Y-27340724D02*
X13892858Y-26590724D01*
X13892858Y-26590724D02*
X14250001Y-26590724D01*
X15000000Y-27340724D02*
X14750000Y-26983581D01*
X14571429Y-27340724D02*
X14571429Y-26590724D01*
X14571429Y-26590724D02*
X14857143Y-26590724D01*
X14857143Y-26590724D02*
X14928572Y-26626438D01*
X14928572Y-26626438D02*
X14964286Y-26662152D01*
X14964286Y-26662152D02*
X15000000Y-26733581D01*
X15000000Y-26733581D02*
X15000000Y-26840724D01*
X15000000Y-26840724D02*
X14964286Y-26912152D01*
X14964286Y-26912152D02*
X14928572Y-26947867D01*
X14928572Y-26947867D02*
X14857143Y-26983581D01*
X14857143Y-26983581D02*
X14571429Y-26983581D01*
X16035715Y-26590724D02*
X16178572Y-26590724D01*
X16178572Y-26590724D02*
X16250001Y-26626438D01*
X16250001Y-26626438D02*
X16321429Y-26697867D01*
X16321429Y-26697867D02*
X16357144Y-26840724D01*
X16357144Y-26840724D02*
X16357144Y-27090724D01*
X16357144Y-27090724D02*
X16321429Y-27233581D01*
X16321429Y-27233581D02*
X16250001Y-27305010D01*
X16250001Y-27305010D02*
X16178572Y-27340724D01*
X16178572Y-27340724D02*
X16035715Y-27340724D01*
X16035715Y-27340724D02*
X15964287Y-27305010D01*
X15964287Y-27305010D02*
X15892858Y-27233581D01*
X15892858Y-27233581D02*
X15857144Y-27090724D01*
X15857144Y-27090724D02*
X15857144Y-26840724D01*
X15857144Y-26840724D02*
X15892858Y-26697867D01*
X15892858Y-26697867D02*
X15964287Y-26626438D01*
X15964287Y-26626438D02*
X16035715Y-26590724D01*
X16928572Y-26947867D02*
X16678572Y-26947867D01*
X16678572Y-27340724D02*
X16678572Y-26590724D01*
X16678572Y-26590724D02*
X17035715Y-26590724D01*
X17571429Y-26947867D02*
X17321429Y-26947867D01*
X17321429Y-27340724D02*
X17321429Y-26590724D01*
X17321429Y-26590724D02*
X17678572Y-26590724D01*
X8104762Y-11363855D02*
X8104762Y-10563855D01*
X8104762Y-10563855D02*
X8409524Y-10563855D01*
X8409524Y-10563855D02*
X8485714Y-10601950D01*
X8485714Y-10601950D02*
X8523809Y-10640045D01*
X8523809Y-10640045D02*
X8561905Y-10716236D01*
X8561905Y-10716236D02*
X8561905Y-10830521D01*
X8561905Y-10830521D02*
X8523809Y-10906712D01*
X8523809Y-10906712D02*
X8485714Y-10944807D01*
X8485714Y-10944807D02*
X8409524Y-10982902D01*
X8409524Y-10982902D02*
X8104762Y-10982902D01*
X8790476Y-10563855D02*
X9247619Y-10563855D01*
X9019047Y-11363855D02*
X9019047Y-10563855D01*
X9933333Y-11363855D02*
X9476190Y-11363855D01*
X9704762Y-11363855D02*
X9704762Y-10563855D01*
X9704762Y-10563855D02*
X9628571Y-10678140D01*
X9628571Y-10678140D02*
X9552381Y-10754331D01*
X9552381Y-10754331D02*
X9476190Y-10792426D01*
D11*
X3860951Y-2299760D02*
X4175237Y-2299760D01*
X4018094Y-2849760D02*
X4018094Y-2299760D01*
X4358571Y-2849760D02*
X4358571Y-2299760D01*
X4358571Y-2299760D02*
X4568095Y-2299760D01*
X4568095Y-2299760D02*
X4620476Y-2325950D01*
X4620476Y-2325950D02*
X4646666Y-2352141D01*
X4646666Y-2352141D02*
X4672857Y-2404522D01*
X4672857Y-2404522D02*
X4672857Y-2483093D01*
X4672857Y-2483093D02*
X4646666Y-2535474D01*
X4646666Y-2535474D02*
X4620476Y-2561665D01*
X4620476Y-2561665D02*
X4568095Y-2587855D01*
X4568095Y-2587855D02*
X4358571Y-2587855D01*
X5196666Y-2849760D02*
X4882380Y-2849760D01*
X5039523Y-2849760D02*
X5039523Y-2299760D01*
X5039523Y-2299760D02*
X4987142Y-2378331D01*
X4987142Y-2378331D02*
X4934761Y-2430712D01*
X4934761Y-2430712D02*
X4882380Y-2456903D01*
X3860951Y-22299760D02*
X4175237Y-22299760D01*
X4018094Y-22849760D02*
X4018094Y-22299760D01*
X4358571Y-22849760D02*
X4358571Y-22299760D01*
X4358571Y-22299760D02*
X4568095Y-22299760D01*
X4568095Y-22299760D02*
X4620476Y-22325950D01*
X4620476Y-22325950D02*
X4646666Y-22352141D01*
X4646666Y-22352141D02*
X4672857Y-22404522D01*
X4672857Y-22404522D02*
X4672857Y-22483093D01*
X4672857Y-22483093D02*
X4646666Y-22535474D01*
X4646666Y-22535474D02*
X4620476Y-22561665D01*
X4620476Y-22561665D02*
X4568095Y-22587855D01*
X4568095Y-22587855D02*
X4358571Y-22587855D01*
X4882380Y-22352141D02*
X4908571Y-22325950D01*
X4908571Y-22325950D02*
X4960952Y-22299760D01*
X4960952Y-22299760D02*
X5091904Y-22299760D01*
X5091904Y-22299760D02*
X5144285Y-22325950D01*
X5144285Y-22325950D02*
X5170476Y-22352141D01*
X5170476Y-22352141D02*
X5196666Y-22404522D01*
X5196666Y-22404522D02*
X5196666Y-22456903D01*
X5196666Y-22456903D02*
X5170476Y-22535474D01*
X5170476Y-22535474D02*
X4856190Y-22849760D01*
X4856190Y-22849760D02*
X5196666Y-22849760D01*
X5130951Y-2299760D02*
X5445237Y-2299760D01*
X5288094Y-2849760D02*
X5288094Y-2299760D01*
X5628571Y-2849760D02*
X5628571Y-2299760D01*
X5628571Y-2299760D02*
X5838095Y-2299760D01*
X5838095Y-2299760D02*
X5890476Y-2325950D01*
X5890476Y-2325950D02*
X5916666Y-2352141D01*
X5916666Y-2352141D02*
X5942857Y-2404522D01*
X5942857Y-2404522D02*
X5942857Y-2483093D01*
X5942857Y-2483093D02*
X5916666Y-2535474D01*
X5916666Y-2535474D02*
X5890476Y-2561665D01*
X5890476Y-2561665D02*
X5838095Y-2587855D01*
X5838095Y-2587855D02*
X5628571Y-2587855D01*
X6126190Y-2299760D02*
X6466666Y-2299760D01*
X6466666Y-2299760D02*
X6283333Y-2509284D01*
X6283333Y-2509284D02*
X6361904Y-2509284D01*
X6361904Y-2509284D02*
X6414285Y-2535474D01*
X6414285Y-2535474D02*
X6440476Y-2561665D01*
X6440476Y-2561665D02*
X6466666Y-2614046D01*
X6466666Y-2614046D02*
X6466666Y-2744998D01*
X6466666Y-2744998D02*
X6440476Y-2797379D01*
X6440476Y-2797379D02*
X6414285Y-2823570D01*
X6414285Y-2823570D02*
X6361904Y-2849760D01*
X6361904Y-2849760D02*
X6204761Y-2849760D01*
X6204761Y-2849760D02*
X6152380Y-2823570D01*
X6152380Y-2823570D02*
X6126190Y-2797379D01*
X5130951Y-22299760D02*
X5445237Y-22299760D01*
X5288094Y-22849760D02*
X5288094Y-22299760D01*
X5628571Y-22849760D02*
X5628571Y-22299760D01*
X5628571Y-22299760D02*
X5838095Y-22299760D01*
X5838095Y-22299760D02*
X5890476Y-22325950D01*
X5890476Y-22325950D02*
X5916666Y-22352141D01*
X5916666Y-22352141D02*
X5942857Y-22404522D01*
X5942857Y-22404522D02*
X5942857Y-22483093D01*
X5942857Y-22483093D02*
X5916666Y-22535474D01*
X5916666Y-22535474D02*
X5890476Y-22561665D01*
X5890476Y-22561665D02*
X5838095Y-22587855D01*
X5838095Y-22587855D02*
X5628571Y-22587855D01*
X6414285Y-22483093D02*
X6414285Y-22849760D01*
X6283333Y-22273570D02*
X6152380Y-22666427D01*
X6152380Y-22666427D02*
X6492857Y-22666427D01*
X6400951Y-2299760D02*
X6715237Y-2299760D01*
X6558094Y-2849760D02*
X6558094Y-2299760D01*
X6898571Y-2849760D02*
X6898571Y-2299760D01*
X6898571Y-2299760D02*
X7108095Y-2299760D01*
X7108095Y-2299760D02*
X7160476Y-2325950D01*
X7160476Y-2325950D02*
X7186666Y-2352141D01*
X7186666Y-2352141D02*
X7212857Y-2404522D01*
X7212857Y-2404522D02*
X7212857Y-2483093D01*
X7212857Y-2483093D02*
X7186666Y-2535474D01*
X7186666Y-2535474D02*
X7160476Y-2561665D01*
X7160476Y-2561665D02*
X7108095Y-2587855D01*
X7108095Y-2587855D02*
X6898571Y-2587855D01*
X7710476Y-2299760D02*
X7448571Y-2299760D01*
X7448571Y-2299760D02*
X7422380Y-2561665D01*
X7422380Y-2561665D02*
X7448571Y-2535474D01*
X7448571Y-2535474D02*
X7500952Y-2509284D01*
X7500952Y-2509284D02*
X7631904Y-2509284D01*
X7631904Y-2509284D02*
X7684285Y-2535474D01*
X7684285Y-2535474D02*
X7710476Y-2561665D01*
X7710476Y-2561665D02*
X7736666Y-2614046D01*
X7736666Y-2614046D02*
X7736666Y-2744998D01*
X7736666Y-2744998D02*
X7710476Y-2797379D01*
X7710476Y-2797379D02*
X7684285Y-2823570D01*
X7684285Y-2823570D02*
X7631904Y-2849760D01*
X7631904Y-2849760D02*
X7500952Y-2849760D01*
X7500952Y-2849760D02*
X7448571Y-2823570D01*
X7448571Y-2823570D02*
X7422380Y-2797379D01*
X6400951Y-22299760D02*
X6715237Y-22299760D01*
X6558094Y-22849760D02*
X6558094Y-22299760D01*
X6898571Y-22849760D02*
X6898571Y-22299760D01*
X6898571Y-22299760D02*
X7108095Y-22299760D01*
X7108095Y-22299760D02*
X7160476Y-22325950D01*
X7160476Y-22325950D02*
X7186666Y-22352141D01*
X7186666Y-22352141D02*
X7212857Y-22404522D01*
X7212857Y-22404522D02*
X7212857Y-22483093D01*
X7212857Y-22483093D02*
X7186666Y-22535474D01*
X7186666Y-22535474D02*
X7160476Y-22561665D01*
X7160476Y-22561665D02*
X7108095Y-22587855D01*
X7108095Y-22587855D02*
X6898571Y-22587855D01*
X7684285Y-22299760D02*
X7579523Y-22299760D01*
X7579523Y-22299760D02*
X7527142Y-22325950D01*
X7527142Y-22325950D02*
X7500952Y-22352141D01*
X7500952Y-22352141D02*
X7448571Y-22430712D01*
X7448571Y-22430712D02*
X7422380Y-22535474D01*
X7422380Y-22535474D02*
X7422380Y-22744998D01*
X7422380Y-22744998D02*
X7448571Y-22797379D01*
X7448571Y-22797379D02*
X7474761Y-22823570D01*
X7474761Y-22823570D02*
X7527142Y-22849760D01*
X7527142Y-22849760D02*
X7631904Y-22849760D01*
X7631904Y-22849760D02*
X7684285Y-22823570D01*
X7684285Y-22823570D02*
X7710476Y-22797379D01*
X7710476Y-22797379D02*
X7736666Y-22744998D01*
X7736666Y-22744998D02*
X7736666Y-22614046D01*
X7736666Y-22614046D02*
X7710476Y-22561665D01*
X7710476Y-22561665D02*
X7684285Y-22535474D01*
X7684285Y-22535474D02*
X7631904Y-22509284D01*
X7631904Y-22509284D02*
X7527142Y-22509284D01*
X7527142Y-22509284D02*
X7474761Y-22535474D01*
X7474761Y-22535474D02*
X7448571Y-22561665D01*
X7448571Y-22561665D02*
X7422380Y-22614046D01*
X7670951Y-2299760D02*
X7985237Y-2299760D01*
X7828094Y-2849760D02*
X7828094Y-2299760D01*
X8168571Y-2849760D02*
X8168571Y-2299760D01*
X8168571Y-2299760D02*
X8378095Y-2299760D01*
X8378095Y-2299760D02*
X8430476Y-2325950D01*
X8430476Y-2325950D02*
X8456666Y-2352141D01*
X8456666Y-2352141D02*
X8482857Y-2404522D01*
X8482857Y-2404522D02*
X8482857Y-2483093D01*
X8482857Y-2483093D02*
X8456666Y-2535474D01*
X8456666Y-2535474D02*
X8430476Y-2561665D01*
X8430476Y-2561665D02*
X8378095Y-2587855D01*
X8378095Y-2587855D02*
X8168571Y-2587855D01*
X8666190Y-2299760D02*
X9032857Y-2299760D01*
X9032857Y-2299760D02*
X8797142Y-2849760D01*
X7670951Y-22299760D02*
X7985237Y-22299760D01*
X7828094Y-22849760D02*
X7828094Y-22299760D01*
X8168571Y-22849760D02*
X8168571Y-22299760D01*
X8168571Y-22299760D02*
X8378095Y-22299760D01*
X8378095Y-22299760D02*
X8430476Y-22325950D01*
X8430476Y-22325950D02*
X8456666Y-22352141D01*
X8456666Y-22352141D02*
X8482857Y-22404522D01*
X8482857Y-22404522D02*
X8482857Y-22483093D01*
X8482857Y-22483093D02*
X8456666Y-22535474D01*
X8456666Y-22535474D02*
X8430476Y-22561665D01*
X8430476Y-22561665D02*
X8378095Y-22587855D01*
X8378095Y-22587855D02*
X8168571Y-22587855D01*
X8797142Y-22535474D02*
X8744761Y-22509284D01*
X8744761Y-22509284D02*
X8718571Y-22483093D01*
X8718571Y-22483093D02*
X8692380Y-22430712D01*
X8692380Y-22430712D02*
X8692380Y-22404522D01*
X8692380Y-22404522D02*
X8718571Y-22352141D01*
X8718571Y-22352141D02*
X8744761Y-22325950D01*
X8744761Y-22325950D02*
X8797142Y-22299760D01*
X8797142Y-22299760D02*
X8901904Y-22299760D01*
X8901904Y-22299760D02*
X8954285Y-22325950D01*
X8954285Y-22325950D02*
X8980476Y-22352141D01*
X8980476Y-22352141D02*
X9006666Y-22404522D01*
X9006666Y-22404522D02*
X9006666Y-22430712D01*
X9006666Y-22430712D02*
X8980476Y-22483093D01*
X8980476Y-22483093D02*
X8954285Y-22509284D01*
X8954285Y-22509284D02*
X8901904Y-22535474D01*
X8901904Y-22535474D02*
X8797142Y-22535474D01*
X8797142Y-22535474D02*
X8744761Y-22561665D01*
X8744761Y-22561665D02*
X8718571Y-22587855D01*
X8718571Y-22587855D02*
X8692380Y-22640236D01*
X8692380Y-22640236D02*
X8692380Y-22744998D01*
X8692380Y-22744998D02*
X8718571Y-22797379D01*
X8718571Y-22797379D02*
X8744761Y-22823570D01*
X8744761Y-22823570D02*
X8797142Y-22849760D01*
X8797142Y-22849760D02*
X8901904Y-22849760D01*
X8901904Y-22849760D02*
X8954285Y-22823570D01*
X8954285Y-22823570D02*
X8980476Y-22797379D01*
X8980476Y-22797379D02*
X9006666Y-22744998D01*
X9006666Y-22744998D02*
X9006666Y-22640236D01*
X9006666Y-22640236D02*
X8980476Y-22587855D01*
X8980476Y-22587855D02*
X8954285Y-22561665D01*
X8954285Y-22561665D02*
X8901904Y-22535474D01*
X8940951Y-2299760D02*
X9255237Y-2299760D01*
X9098094Y-2849760D02*
X9098094Y-2299760D01*
X9438571Y-2849760D02*
X9438571Y-2299760D01*
X9438571Y-2299760D02*
X9648095Y-2299760D01*
X9648095Y-2299760D02*
X9700476Y-2325950D01*
X9700476Y-2325950D02*
X9726666Y-2352141D01*
X9726666Y-2352141D02*
X9752857Y-2404522D01*
X9752857Y-2404522D02*
X9752857Y-2483093D01*
X9752857Y-2483093D02*
X9726666Y-2535474D01*
X9726666Y-2535474D02*
X9700476Y-2561665D01*
X9700476Y-2561665D02*
X9648095Y-2587855D01*
X9648095Y-2587855D02*
X9438571Y-2587855D01*
X10014761Y-2849760D02*
X10119523Y-2849760D01*
X10119523Y-2849760D02*
X10171904Y-2823570D01*
X10171904Y-2823570D02*
X10198095Y-2797379D01*
X10198095Y-2797379D02*
X10250476Y-2718808D01*
X10250476Y-2718808D02*
X10276666Y-2614046D01*
X10276666Y-2614046D02*
X10276666Y-2404522D01*
X10276666Y-2404522D02*
X10250476Y-2352141D01*
X10250476Y-2352141D02*
X10224285Y-2325950D01*
X10224285Y-2325950D02*
X10171904Y-2299760D01*
X10171904Y-2299760D02*
X10067142Y-2299760D01*
X10067142Y-2299760D02*
X10014761Y-2325950D01*
X10014761Y-2325950D02*
X9988571Y-2352141D01*
X9988571Y-2352141D02*
X9962380Y-2404522D01*
X9962380Y-2404522D02*
X9962380Y-2535474D01*
X9962380Y-2535474D02*
X9988571Y-2587855D01*
X9988571Y-2587855D02*
X10014761Y-2614046D01*
X10014761Y-2614046D02*
X10067142Y-2640236D01*
X10067142Y-2640236D02*
X10171904Y-2640236D01*
X10171904Y-2640236D02*
X10224285Y-2614046D01*
X10224285Y-2614046D02*
X10250476Y-2587855D01*
X10250476Y-2587855D02*
X10276666Y-2535474D01*
X8679046Y-22299760D02*
X8993332Y-22299760D01*
X8836189Y-22849760D02*
X8836189Y-22299760D01*
X9176666Y-22849760D02*
X9176666Y-22299760D01*
X9176666Y-22299760D02*
X9386190Y-22299760D01*
X9386190Y-22299760D02*
X9438571Y-22325950D01*
X9438571Y-22325950D02*
X9464761Y-22352141D01*
X9464761Y-22352141D02*
X9490952Y-22404522D01*
X9490952Y-22404522D02*
X9490952Y-22483093D01*
X9490952Y-22483093D02*
X9464761Y-22535474D01*
X9464761Y-22535474D02*
X9438571Y-22561665D01*
X9438571Y-22561665D02*
X9386190Y-22587855D01*
X9386190Y-22587855D02*
X9176666Y-22587855D01*
X10014761Y-22849760D02*
X9700475Y-22849760D01*
X9857618Y-22849760D02*
X9857618Y-22299760D01*
X9857618Y-22299760D02*
X9805237Y-22378331D01*
X9805237Y-22378331D02*
X9752856Y-22430712D01*
X9752856Y-22430712D02*
X9700475Y-22456903D01*
X10355238Y-22299760D02*
X10407619Y-22299760D01*
X10407619Y-22299760D02*
X10460000Y-22325950D01*
X10460000Y-22325950D02*
X10486190Y-22352141D01*
X10486190Y-22352141D02*
X10512381Y-22404522D01*
X10512381Y-22404522D02*
X10538571Y-22509284D01*
X10538571Y-22509284D02*
X10538571Y-22640236D01*
X10538571Y-22640236D02*
X10512381Y-22744998D01*
X10512381Y-22744998D02*
X10486190Y-22797379D01*
X10486190Y-22797379D02*
X10460000Y-22823570D01*
X10460000Y-22823570D02*
X10407619Y-22849760D01*
X10407619Y-22849760D02*
X10355238Y-22849760D01*
X10355238Y-22849760D02*
X10302857Y-22823570D01*
X10302857Y-22823570D02*
X10276666Y-22797379D01*
X10276666Y-22797379D02*
X10250476Y-22744998D01*
X10250476Y-22744998D02*
X10224285Y-22640236D01*
X10224285Y-22640236D02*
X10224285Y-22509284D01*
X10224285Y-22509284D02*
X10250476Y-22404522D01*
X10250476Y-22404522D02*
X10276666Y-22352141D01*
X10276666Y-22352141D02*
X10302857Y-22325950D01*
X10302857Y-22325950D02*
X10355238Y-22299760D01*
X9949046Y-2299760D02*
X10263332Y-2299760D01*
X10106189Y-2849760D02*
X10106189Y-2299760D01*
X10446666Y-2849760D02*
X10446666Y-2299760D01*
X10446666Y-2299760D02*
X10656190Y-2299760D01*
X10656190Y-2299760D02*
X10708571Y-2325950D01*
X10708571Y-2325950D02*
X10734761Y-2352141D01*
X10734761Y-2352141D02*
X10760952Y-2404522D01*
X10760952Y-2404522D02*
X10760952Y-2483093D01*
X10760952Y-2483093D02*
X10734761Y-2535474D01*
X10734761Y-2535474D02*
X10708571Y-2561665D01*
X10708571Y-2561665D02*
X10656190Y-2587855D01*
X10656190Y-2587855D02*
X10446666Y-2587855D01*
X11284761Y-2849760D02*
X10970475Y-2849760D01*
X11127618Y-2849760D02*
X11127618Y-2299760D01*
X11127618Y-2299760D02*
X11075237Y-2378331D01*
X11075237Y-2378331D02*
X11022856Y-2430712D01*
X11022856Y-2430712D02*
X10970475Y-2456903D01*
X11808571Y-2849760D02*
X11494285Y-2849760D01*
X11651428Y-2849760D02*
X11651428Y-2299760D01*
X11651428Y-2299760D02*
X11599047Y-2378331D01*
X11599047Y-2378331D02*
X11546666Y-2430712D01*
X11546666Y-2430712D02*
X11494285Y-2456903D01*
X9949046Y-22299760D02*
X10263332Y-22299760D01*
X10106189Y-22849760D02*
X10106189Y-22299760D01*
X10446666Y-22849760D02*
X10446666Y-22299760D01*
X10446666Y-22299760D02*
X10656190Y-22299760D01*
X10656190Y-22299760D02*
X10708571Y-22325950D01*
X10708571Y-22325950D02*
X10734761Y-22352141D01*
X10734761Y-22352141D02*
X10760952Y-22404522D01*
X10760952Y-22404522D02*
X10760952Y-22483093D01*
X10760952Y-22483093D02*
X10734761Y-22535474D01*
X10734761Y-22535474D02*
X10708571Y-22561665D01*
X10708571Y-22561665D02*
X10656190Y-22587855D01*
X10656190Y-22587855D02*
X10446666Y-22587855D01*
X11284761Y-22849760D02*
X10970475Y-22849760D01*
X11127618Y-22849760D02*
X11127618Y-22299760D01*
X11127618Y-22299760D02*
X11075237Y-22378331D01*
X11075237Y-22378331D02*
X11022856Y-22430712D01*
X11022856Y-22430712D02*
X10970475Y-22456903D01*
X11494285Y-22352141D02*
X11520476Y-22325950D01*
X11520476Y-22325950D02*
X11572857Y-22299760D01*
X11572857Y-22299760D02*
X11703809Y-22299760D01*
X11703809Y-22299760D02*
X11756190Y-22325950D01*
X11756190Y-22325950D02*
X11782381Y-22352141D01*
X11782381Y-22352141D02*
X11808571Y-22404522D01*
X11808571Y-22404522D02*
X11808571Y-22456903D01*
X11808571Y-22456903D02*
X11782381Y-22535474D01*
X11782381Y-22535474D02*
X11468095Y-22849760D01*
X11468095Y-22849760D02*
X11808571Y-22849760D01*
X11219046Y-2299760D02*
X11533332Y-2299760D01*
X11376189Y-2849760D02*
X11376189Y-2299760D01*
X11716666Y-2849760D02*
X11716666Y-2299760D01*
X11716666Y-2299760D02*
X11926190Y-2299760D01*
X11926190Y-2299760D02*
X11978571Y-2325950D01*
X11978571Y-2325950D02*
X12004761Y-2352141D01*
X12004761Y-2352141D02*
X12030952Y-2404522D01*
X12030952Y-2404522D02*
X12030952Y-2483093D01*
X12030952Y-2483093D02*
X12004761Y-2535474D01*
X12004761Y-2535474D02*
X11978571Y-2561665D01*
X11978571Y-2561665D02*
X11926190Y-2587855D01*
X11926190Y-2587855D02*
X11716666Y-2587855D01*
X12554761Y-2849760D02*
X12240475Y-2849760D01*
X12397618Y-2849760D02*
X12397618Y-2299760D01*
X12397618Y-2299760D02*
X12345237Y-2378331D01*
X12345237Y-2378331D02*
X12292856Y-2430712D01*
X12292856Y-2430712D02*
X12240475Y-2456903D01*
X12738095Y-2299760D02*
X13078571Y-2299760D01*
X13078571Y-2299760D02*
X12895238Y-2509284D01*
X12895238Y-2509284D02*
X12973809Y-2509284D01*
X12973809Y-2509284D02*
X13026190Y-2535474D01*
X13026190Y-2535474D02*
X13052381Y-2561665D01*
X13052381Y-2561665D02*
X13078571Y-2614046D01*
X13078571Y-2614046D02*
X13078571Y-2744998D01*
X13078571Y-2744998D02*
X13052381Y-2797379D01*
X13052381Y-2797379D02*
X13026190Y-2823570D01*
X13026190Y-2823570D02*
X12973809Y-2849760D01*
X12973809Y-2849760D02*
X12816666Y-2849760D01*
X12816666Y-2849760D02*
X12764285Y-2823570D01*
X12764285Y-2823570D02*
X12738095Y-2797379D01*
X11219046Y-22299760D02*
X11533332Y-22299760D01*
X11376189Y-22849760D02*
X11376189Y-22299760D01*
X11716666Y-22849760D02*
X11716666Y-22299760D01*
X11716666Y-22299760D02*
X11926190Y-22299760D01*
X11926190Y-22299760D02*
X11978571Y-22325950D01*
X11978571Y-22325950D02*
X12004761Y-22352141D01*
X12004761Y-22352141D02*
X12030952Y-22404522D01*
X12030952Y-22404522D02*
X12030952Y-22483093D01*
X12030952Y-22483093D02*
X12004761Y-22535474D01*
X12004761Y-22535474D02*
X11978571Y-22561665D01*
X11978571Y-22561665D02*
X11926190Y-22587855D01*
X11926190Y-22587855D02*
X11716666Y-22587855D01*
X12554761Y-22849760D02*
X12240475Y-22849760D01*
X12397618Y-22849760D02*
X12397618Y-22299760D01*
X12397618Y-22299760D02*
X12345237Y-22378331D01*
X12345237Y-22378331D02*
X12292856Y-22430712D01*
X12292856Y-22430712D02*
X12240475Y-22456903D01*
X13026190Y-22483093D02*
X13026190Y-22849760D01*
X12895238Y-22273570D02*
X12764285Y-22666427D01*
X12764285Y-22666427D02*
X13104762Y-22666427D01*
X12489046Y-2299760D02*
X12803332Y-2299760D01*
X12646189Y-2849760D02*
X12646189Y-2299760D01*
X12986666Y-2849760D02*
X12986666Y-2299760D01*
X12986666Y-2299760D02*
X13196190Y-2299760D01*
X13196190Y-2299760D02*
X13248571Y-2325950D01*
X13248571Y-2325950D02*
X13274761Y-2352141D01*
X13274761Y-2352141D02*
X13300952Y-2404522D01*
X13300952Y-2404522D02*
X13300952Y-2483093D01*
X13300952Y-2483093D02*
X13274761Y-2535474D01*
X13274761Y-2535474D02*
X13248571Y-2561665D01*
X13248571Y-2561665D02*
X13196190Y-2587855D01*
X13196190Y-2587855D02*
X12986666Y-2587855D01*
X13824761Y-2849760D02*
X13510475Y-2849760D01*
X13667618Y-2849760D02*
X13667618Y-2299760D01*
X13667618Y-2299760D02*
X13615237Y-2378331D01*
X13615237Y-2378331D02*
X13562856Y-2430712D01*
X13562856Y-2430712D02*
X13510475Y-2456903D01*
X14322381Y-2299760D02*
X14060476Y-2299760D01*
X14060476Y-2299760D02*
X14034285Y-2561665D01*
X14034285Y-2561665D02*
X14060476Y-2535474D01*
X14060476Y-2535474D02*
X14112857Y-2509284D01*
X14112857Y-2509284D02*
X14243809Y-2509284D01*
X14243809Y-2509284D02*
X14296190Y-2535474D01*
X14296190Y-2535474D02*
X14322381Y-2561665D01*
X14322381Y-2561665D02*
X14348571Y-2614046D01*
X14348571Y-2614046D02*
X14348571Y-2744998D01*
X14348571Y-2744998D02*
X14322381Y-2797379D01*
X14322381Y-2797379D02*
X14296190Y-2823570D01*
X14296190Y-2823570D02*
X14243809Y-2849760D01*
X14243809Y-2849760D02*
X14112857Y-2849760D01*
X14112857Y-2849760D02*
X14060476Y-2823570D01*
X14060476Y-2823570D02*
X14034285Y-2797379D01*
X12489046Y-22299760D02*
X12803332Y-22299760D01*
X12646189Y-22849760D02*
X12646189Y-22299760D01*
X12986666Y-22849760D02*
X12986666Y-22299760D01*
X12986666Y-22299760D02*
X13196190Y-22299760D01*
X13196190Y-22299760D02*
X13248571Y-22325950D01*
X13248571Y-22325950D02*
X13274761Y-22352141D01*
X13274761Y-22352141D02*
X13300952Y-22404522D01*
X13300952Y-22404522D02*
X13300952Y-22483093D01*
X13300952Y-22483093D02*
X13274761Y-22535474D01*
X13274761Y-22535474D02*
X13248571Y-22561665D01*
X13248571Y-22561665D02*
X13196190Y-22587855D01*
X13196190Y-22587855D02*
X12986666Y-22587855D01*
X13824761Y-22849760D02*
X13510475Y-22849760D01*
X13667618Y-22849760D02*
X13667618Y-22299760D01*
X13667618Y-22299760D02*
X13615237Y-22378331D01*
X13615237Y-22378331D02*
X13562856Y-22430712D01*
X13562856Y-22430712D02*
X13510475Y-22456903D01*
X14296190Y-22299760D02*
X14191428Y-22299760D01*
X14191428Y-22299760D02*
X14139047Y-22325950D01*
X14139047Y-22325950D02*
X14112857Y-22352141D01*
X14112857Y-22352141D02*
X14060476Y-22430712D01*
X14060476Y-22430712D02*
X14034285Y-22535474D01*
X14034285Y-22535474D02*
X14034285Y-22744998D01*
X14034285Y-22744998D02*
X14060476Y-22797379D01*
X14060476Y-22797379D02*
X14086666Y-22823570D01*
X14086666Y-22823570D02*
X14139047Y-22849760D01*
X14139047Y-22849760D02*
X14243809Y-22849760D01*
X14243809Y-22849760D02*
X14296190Y-22823570D01*
X14296190Y-22823570D02*
X14322381Y-22797379D01*
X14322381Y-22797379D02*
X14348571Y-22744998D01*
X14348571Y-22744998D02*
X14348571Y-22614046D01*
X14348571Y-22614046D02*
X14322381Y-22561665D01*
X14322381Y-22561665D02*
X14296190Y-22535474D01*
X14296190Y-22535474D02*
X14243809Y-22509284D01*
X14243809Y-22509284D02*
X14139047Y-22509284D01*
X14139047Y-22509284D02*
X14086666Y-22535474D01*
X14086666Y-22535474D02*
X14060476Y-22561665D01*
X14060476Y-22561665D02*
X14034285Y-22614046D01*
X1439285Y-11725950D02*
X1386904Y-11699760D01*
X1386904Y-11699760D02*
X1308333Y-11699760D01*
X1308333Y-11699760D02*
X1229761Y-11725950D01*
X1229761Y-11725950D02*
X1177380Y-11778331D01*
X1177380Y-11778331D02*
X1151190Y-11830712D01*
X1151190Y-11830712D02*
X1124999Y-11935474D01*
X1124999Y-11935474D02*
X1124999Y-12014046D01*
X1124999Y-12014046D02*
X1151190Y-12118808D01*
X1151190Y-12118808D02*
X1177380Y-12171189D01*
X1177380Y-12171189D02*
X1229761Y-12223570D01*
X1229761Y-12223570D02*
X1308333Y-12249760D01*
X1308333Y-12249760D02*
X1360714Y-12249760D01*
X1360714Y-12249760D02*
X1439285Y-12223570D01*
X1439285Y-12223570D02*
X1465476Y-12197379D01*
X1465476Y-12197379D02*
X1465476Y-12014046D01*
X1465476Y-12014046D02*
X1360714Y-12014046D01*
X1701190Y-11699760D02*
X1701190Y-12144998D01*
X1701190Y-12144998D02*
X1727380Y-12197379D01*
X1727380Y-12197379D02*
X1753571Y-12223570D01*
X1753571Y-12223570D02*
X1805952Y-12249760D01*
X1805952Y-12249760D02*
X1910714Y-12249760D01*
X1910714Y-12249760D02*
X1963095Y-12223570D01*
X1963095Y-12223570D02*
X1989285Y-12197379D01*
X1989285Y-12197379D02*
X2015476Y-12144998D01*
X2015476Y-12144998D02*
X2015476Y-11699760D01*
X2277380Y-12249760D02*
X2277380Y-11699760D01*
X2539285Y-12249760D02*
X2539285Y-11699760D01*
X2539285Y-11699760D02*
X2670237Y-11699760D01*
X2670237Y-11699760D02*
X2748809Y-11725950D01*
X2748809Y-11725950D02*
X2801190Y-11778331D01*
X2801190Y-11778331D02*
X2827380Y-11830712D01*
X2827380Y-11830712D02*
X2853571Y-11935474D01*
X2853571Y-11935474D02*
X2853571Y-12014046D01*
X2853571Y-12014046D02*
X2827380Y-12118808D01*
X2827380Y-12118808D02*
X2801190Y-12171189D01*
X2801190Y-12171189D02*
X2748809Y-12223570D01*
X2748809Y-12223570D02*
X2670237Y-12249760D01*
X2670237Y-12249760D02*
X2539285Y-12249760D01*
X3089285Y-11961665D02*
X3272618Y-11961665D01*
X3351190Y-12249760D02*
X3089285Y-12249760D01*
X3089285Y-12249760D02*
X3089285Y-11699760D01*
X3089285Y-11699760D02*
X3351190Y-11699760D01*
X3874999Y-12249760D02*
X3560713Y-12249760D01*
X3717856Y-12249760D02*
X3717856Y-11699760D01*
X3717856Y-11699760D02*
X3665475Y-11778331D01*
X3665475Y-11778331D02*
X3613094Y-11830712D01*
X3613094Y-11830712D02*
X3560713Y-11856903D01*
X14439285Y-11725950D02*
X14386904Y-11699760D01*
X14386904Y-11699760D02*
X14308333Y-11699760D01*
X14308333Y-11699760D02*
X14229761Y-11725950D01*
X14229761Y-11725950D02*
X14177380Y-11778331D01*
X14177380Y-11778331D02*
X14151190Y-11830712D01*
X14151190Y-11830712D02*
X14124999Y-11935474D01*
X14124999Y-11935474D02*
X14124999Y-12014046D01*
X14124999Y-12014046D02*
X14151190Y-12118808D01*
X14151190Y-12118808D02*
X14177380Y-12171189D01*
X14177380Y-12171189D02*
X14229761Y-12223570D01*
X14229761Y-12223570D02*
X14308333Y-12249760D01*
X14308333Y-12249760D02*
X14360714Y-12249760D01*
X14360714Y-12249760D02*
X14439285Y-12223570D01*
X14439285Y-12223570D02*
X14465476Y-12197379D01*
X14465476Y-12197379D02*
X14465476Y-12014046D01*
X14465476Y-12014046D02*
X14360714Y-12014046D01*
X14701190Y-11699760D02*
X14701190Y-12144998D01*
X14701190Y-12144998D02*
X14727380Y-12197379D01*
X14727380Y-12197379D02*
X14753571Y-12223570D01*
X14753571Y-12223570D02*
X14805952Y-12249760D01*
X14805952Y-12249760D02*
X14910714Y-12249760D01*
X14910714Y-12249760D02*
X14963095Y-12223570D01*
X14963095Y-12223570D02*
X14989285Y-12197379D01*
X14989285Y-12197379D02*
X15015476Y-12144998D01*
X15015476Y-12144998D02*
X15015476Y-11699760D01*
X15277380Y-12249760D02*
X15277380Y-11699760D01*
X15539285Y-12249760D02*
X15539285Y-11699760D01*
X15539285Y-11699760D02*
X15670237Y-11699760D01*
X15670237Y-11699760D02*
X15748809Y-11725950D01*
X15748809Y-11725950D02*
X15801190Y-11778331D01*
X15801190Y-11778331D02*
X15827380Y-11830712D01*
X15827380Y-11830712D02*
X15853571Y-11935474D01*
X15853571Y-11935474D02*
X15853571Y-12014046D01*
X15853571Y-12014046D02*
X15827380Y-12118808D01*
X15827380Y-12118808D02*
X15801190Y-12171189D01*
X15801190Y-12171189D02*
X15748809Y-12223570D01*
X15748809Y-12223570D02*
X15670237Y-12249760D01*
X15670237Y-12249760D02*
X15539285Y-12249760D01*
X16089285Y-11961665D02*
X16272618Y-11961665D01*
X16351190Y-12249760D02*
X16089285Y-12249760D01*
X16089285Y-12249760D02*
X16089285Y-11699760D01*
X16089285Y-11699760D02*
X16351190Y-11699760D01*
X16560713Y-11752141D02*
X16586904Y-11725950D01*
X16586904Y-11725950D02*
X16639285Y-11699760D01*
X16639285Y-11699760D02*
X16770237Y-11699760D01*
X16770237Y-11699760D02*
X16822618Y-11725950D01*
X16822618Y-11725950D02*
X16848809Y-11752141D01*
X16848809Y-11752141D02*
X16874999Y-11804522D01*
X16874999Y-11804522D02*
X16874999Y-11856903D01*
X16874999Y-11856903D02*
X16848809Y-11935474D01*
X16848809Y-11935474D02*
X16534523Y-12249760D01*
X16534523Y-12249760D02*
X16874999Y-12249760D01*
X14871428Y-18749760D02*
X14871428Y-18199760D01*
X15185714Y-18749760D02*
X14949999Y-18435474D01*
X15185714Y-18199760D02*
X14871428Y-18514046D01*
X15421428Y-18461665D02*
X15604761Y-18461665D01*
X15683333Y-18749760D02*
X15421428Y-18749760D01*
X15421428Y-18749760D02*
X15421428Y-18199760D01*
X15421428Y-18199760D02*
X15683333Y-18199760D01*
X16023809Y-18487855D02*
X16023809Y-18749760D01*
X15840475Y-18199760D02*
X16023809Y-18487855D01*
X16023809Y-18487855D02*
X16207142Y-18199760D01*
%TO.C,PT1*%
D12*
X3730000Y-12730000D02*
X14270000Y-12730000D01*
X4850000Y-12150000D02*
G75*
G02*
X4260000Y-12150000I-295000J0D01*
G01*
X4260000Y-12150000D02*
G75*
G02*
X4850000Y-12150000I295000J0D01*
G01*
%TD*%
M02*
