%TF.GenerationSoftware,KiCad,Pcbnew,10.0.5*%
%TF.CreationDate,2026-09-13T20:07:19-04:00*%
%TF.ProjectId,Symm60HE-Neo-Left-Half,53796d6d-3630-4484-952d-4e656f2d4c65,rev?*%
%TF.SameCoordinates,Original*%
%TF.FileFunction,Legend,Top*%
%TF.FilePolarity,Positive*%
%FSLAX46Y46*%
G04 Gerber Fmt 4.6, Leading zero omitted, Abs format (unit mm)*
G04 Created by KiCad (PCBNEW 10.0.5) date 2026-09-13 20:07:19*
%MOMM*%
%LPD*%
G01*
G04 APERTURE LIST*
%ADD10C,0.150000*%
%ADD11C,0.158750*%
%ADD12C,4.400000*%
%ADD13C,3.048000*%
%ADD14C,3.987800*%
G04 APERTURE END LIST*
D10*
X3046605Y-7281819D02*
X3046605Y-6281819D01*
X3046605Y-6281819D02*
X3379938Y-6996104D01*
X3379938Y-6996104D02*
X3713271Y-6281819D01*
X3713271Y-6281819D02*
X3713271Y-7281819D01*
X4189462Y-7281819D02*
X4189462Y-6281819D01*
X4189462Y-6758009D02*
X4760890Y-6758009D01*
X4760890Y-7281819D02*
X4760890Y-6281819D01*
X5713271Y-7281819D02*
X5237081Y-7281819D01*
X5237081Y-7281819D02*
X5237081Y-6281819D01*
X6570414Y-7281819D02*
X5998986Y-7281819D01*
X6284700Y-7281819D02*
X6284700Y-6281819D01*
X6284700Y-6281819D02*
X6189462Y-6424676D01*
X6189462Y-6424676D02*
X6094224Y-6519914D01*
X6094224Y-6519914D02*
X5998986Y-6567533D01*
X104470905Y-27304819D02*
X104470905Y-26304819D01*
X104470905Y-26304819D02*
X104804238Y-27019104D01*
X104804238Y-27019104D02*
X105137571Y-26304819D01*
X105137571Y-26304819D02*
X105137571Y-27304819D01*
X105613762Y-27304819D02*
X105613762Y-26304819D01*
X105613762Y-26781009D02*
X106185190Y-26781009D01*
X106185190Y-27304819D02*
X106185190Y-26304819D01*
X107137571Y-27304819D02*
X106661381Y-27304819D01*
X106661381Y-27304819D02*
X106661381Y-26304819D01*
X107375667Y-26304819D02*
X107994714Y-26304819D01*
X107994714Y-26304819D02*
X107661381Y-26685771D01*
X107661381Y-26685771D02*
X107804238Y-26685771D01*
X107804238Y-26685771D02*
X107899476Y-26733390D01*
X107899476Y-26733390D02*
X107947095Y-26781009D01*
X107947095Y-26781009D02*
X107994714Y-26876247D01*
X107994714Y-26876247D02*
X107994714Y-27114342D01*
X107994714Y-27114342D02*
X107947095Y-27209580D01*
X107947095Y-27209580D02*
X107899476Y-27257200D01*
X107899476Y-27257200D02*
X107804238Y-27304819D01*
X107804238Y-27304819D02*
X107518524Y-27304819D01*
X107518524Y-27304819D02*
X107423286Y-27257200D01*
X107423286Y-27257200D02*
X107375667Y-27209580D01*
D11*
X14234333Y-67193795D02*
X14415762Y-67254271D01*
X14415762Y-67254271D02*
X14718143Y-67254271D01*
X14718143Y-67254271D02*
X14839095Y-67193795D01*
X14839095Y-67193795D02*
X14899571Y-67133318D01*
X14899571Y-67133318D02*
X14960048Y-67012366D01*
X14960048Y-67012366D02*
X14960048Y-66891414D01*
X14960048Y-66891414D02*
X14899571Y-66770461D01*
X14899571Y-66770461D02*
X14839095Y-66709985D01*
X14839095Y-66709985D02*
X14718143Y-66649509D01*
X14718143Y-66649509D02*
X14476238Y-66589033D01*
X14476238Y-66589033D02*
X14355286Y-66528556D01*
X14355286Y-66528556D02*
X14294809Y-66468080D01*
X14294809Y-66468080D02*
X14234333Y-66347128D01*
X14234333Y-66347128D02*
X14234333Y-66226175D01*
X14234333Y-66226175D02*
X14294809Y-66105223D01*
X14294809Y-66105223D02*
X14355286Y-66044747D01*
X14355286Y-66044747D02*
X14476238Y-65984271D01*
X14476238Y-65984271D02*
X14778619Y-65984271D01*
X14778619Y-65984271D02*
X14960048Y-66044747D01*
X16109095Y-67254271D02*
X15504333Y-67254271D01*
X15504333Y-67254271D02*
X15504333Y-65984271D01*
X17197667Y-67254271D02*
X16471952Y-67254271D01*
X16834809Y-67254271D02*
X16834809Y-65984271D01*
X16834809Y-65984271D02*
X16713857Y-66165699D01*
X16713857Y-66165699D02*
X16592905Y-66286652D01*
X16592905Y-66286652D02*
X16471952Y-66347128D01*
D10*
X139046705Y-93281819D02*
X139046705Y-92281819D01*
X139046705Y-92281819D02*
X139380038Y-92996104D01*
X139380038Y-92996104D02*
X139713371Y-92281819D01*
X139713371Y-92281819D02*
X139713371Y-93281819D01*
X140189562Y-93281819D02*
X140189562Y-92281819D01*
X140189562Y-92758009D02*
X140760990Y-92758009D01*
X140760990Y-93281819D02*
X140760990Y-92281819D01*
X141713371Y-93281819D02*
X141237181Y-93281819D01*
X141237181Y-93281819D02*
X141237181Y-92281819D01*
X142475276Y-92615152D02*
X142475276Y-93281819D01*
X142237181Y-92234200D02*
X141999086Y-92948485D01*
X141999086Y-92948485D02*
X142618133Y-92948485D01*
X1546605Y-89781819D02*
X1546605Y-88781819D01*
X1546605Y-88781819D02*
X1879938Y-89496104D01*
X1879938Y-89496104D02*
X2213271Y-88781819D01*
X2213271Y-88781819D02*
X2213271Y-89781819D01*
X2689462Y-89781819D02*
X2689462Y-88781819D01*
X2689462Y-89258009D02*
X3260890Y-89258009D01*
X3260890Y-89781819D02*
X3260890Y-88781819D01*
X4213271Y-89781819D02*
X3737081Y-89781819D01*
X3737081Y-89781819D02*
X3737081Y-88781819D01*
X4498986Y-88877057D02*
X4546605Y-88829438D01*
X4546605Y-88829438D02*
X4641843Y-88781819D01*
X4641843Y-88781819D02*
X4879938Y-88781819D01*
X4879938Y-88781819D02*
X4975176Y-88829438D01*
X4975176Y-88829438D02*
X5022795Y-88877057D01*
X5022795Y-88877057D02*
X5070414Y-88972295D01*
X5070414Y-88972295D02*
X5070414Y-89067533D01*
X5070414Y-89067533D02*
X5022795Y-89210390D01*
X5022795Y-89210390D02*
X4451367Y-89781819D01*
X4451367Y-89781819D02*
X5070414Y-89781819D01*
D11*
X121561333Y-89474795D02*
X121742762Y-89535271D01*
X121742762Y-89535271D02*
X122045143Y-89535271D01*
X122045143Y-89535271D02*
X122166095Y-89474795D01*
X122166095Y-89474795D02*
X122226571Y-89414318D01*
X122226571Y-89414318D02*
X122287048Y-89293366D01*
X122287048Y-89293366D02*
X122287048Y-89172414D01*
X122287048Y-89172414D02*
X122226571Y-89051461D01*
X122226571Y-89051461D02*
X122166095Y-88990985D01*
X122166095Y-88990985D02*
X122045143Y-88930509D01*
X122045143Y-88930509D02*
X121803238Y-88870033D01*
X121803238Y-88870033D02*
X121682286Y-88809556D01*
X121682286Y-88809556D02*
X121621809Y-88749080D01*
X121621809Y-88749080D02*
X121561333Y-88628128D01*
X121561333Y-88628128D02*
X121561333Y-88507175D01*
X121561333Y-88507175D02*
X121621809Y-88386223D01*
X121621809Y-88386223D02*
X121682286Y-88325747D01*
X121682286Y-88325747D02*
X121803238Y-88265271D01*
X121803238Y-88265271D02*
X122105619Y-88265271D01*
X122105619Y-88265271D02*
X122287048Y-88325747D01*
X123436095Y-89535271D02*
X122831333Y-89535271D01*
X122831333Y-89535271D02*
X122831333Y-88265271D01*
X123798952Y-88386223D02*
X123859428Y-88325747D01*
X123859428Y-88325747D02*
X123980381Y-88265271D01*
X123980381Y-88265271D02*
X124282762Y-88265271D01*
X124282762Y-88265271D02*
X124403714Y-88325747D01*
X124403714Y-88325747D02*
X124464190Y-88386223D01*
X124464190Y-88386223D02*
X124524667Y-88507175D01*
X124524667Y-88507175D02*
X124524667Y-88628128D01*
X124524667Y-88628128D02*
X124464190Y-88809556D01*
X124464190Y-88809556D02*
X123738476Y-89535271D01*
X123738476Y-89535271D02*
X124524667Y-89535271D01*
%LPC*%
D12*
%TO.C,MHL1*%
X4784700Y-9977000D03*
%TD*%
%TO.C,MHL3*%
X106209000Y-30000000D03*
%TD*%
D13*
%TO.C,SL1*%
X3809750Y-59690000D03*
D14*
X3809750Y-74930000D03*
D13*
X27622250Y-59690000D03*
D14*
X27622250Y-74930000D03*
%TD*%
D12*
%TO.C,MHL4*%
X140784800Y-95977000D03*
%TD*%
%TO.C,MHL2*%
X3284700Y-92477000D03*
%TD*%
D13*
%TO.C,SL2*%
X110476325Y-83243935D03*
D14*
X112057434Y-98401695D03*
D13*
X134160325Y-80773452D03*
D14*
X135741434Y-95931212D03*
%TD*%
%LPD*%
M02*
