%TF.GenerationSoftware,KiCad,Pcbnew,10.0.5*%
%TF.CreationDate,2026-09-13T20:07:19-04:00*%
%TF.ProjectId,Symm60HE-Neo-Left-Half,53796d6d-3630-4484-952d-4e656f2d4c65,rev?*%
%TF.SameCoordinates,Original*%
%TF.FileFunction,Paste,Bot*%
%TF.FilePolarity,Positive*%
%FSLAX46Y46*%
G04 Gerber Fmt 4.6, Leading zero omitted, Abs format (unit mm)*
G04 Created by KiCad (PCBNEW 10.0.5) date 2026-09-13 20:07:19*
%MOMM*%
%LPD*%
G01*
G04 APERTURE LIST*
G04 Aperture macros list*
%AMRoundRect*
0 Rectangle with rounded corners*
0 $1 Rounding radius*
0 $2 $3 $4 $5 $6 $7 $8 $9 X,Y pos of 4 corners*
0 Add a 4 corners polygon primitive as box body*
4,1,4,$2,$3,$4,$5,$6,$7,$8,$9,$2,$3,0*
0 Add four circle primitives for the rounded corners*
1,1,$1+$1,$2,$3*
1,1,$1+$1,$4,$5*
1,1,$1+$1,$6,$7*
1,1,$1+$1,$8,$9*
0 Add four rect primitives between the rounded corners*
20,1,$1+$1,$2,$3,$4,$5,0*
20,1,$1+$1,$4,$5,$6,$7,0*
20,1,$1+$1,$6,$7,$8,$9,0*
20,1,$1+$1,$8,$9,$2,$3,0*%
G04 Aperture macros list end*
%ADD10RoundRect,0.140000X-0.134658X-0.174262X0.145207X-0.165574X0.134658X0.174262X-0.145207X0.165574X0*%
%ADD11RoundRect,0.140000X-0.125969X-0.180643X0.153136X-0.158270X0.125969X0.180643X-0.153136X0.158270X0*%
%ADD12RoundRect,0.150000X-0.150000X0.512500X-0.150000X-0.512500X0.150000X-0.512500X0.150000X0.512500X0*%
%ADD13RoundRect,0.140000X-0.140000X-0.170000X0.140000X-0.170000X0.140000X0.170000X-0.140000X0.170000X0*%
%ADD14RoundRect,0.140000X-0.120603X-0.184269X0.157724X-0.153699X0.120603X0.184269X-0.157724X0.153699X0*%
%ADD15RoundRect,0.140000X-0.133417X-0.175214X0.146380X-0.164539X0.133417X0.175214X-0.146380X0.164539X0*%
%ADD16RoundRect,0.140000X-0.129976X-0.177782X0.149559X-0.161654X0.129976X0.177782X-0.149559X0.161654X0*%
%ADD17RoundRect,0.150000X0.150000X-0.825000X0.150000X0.825000X-0.150000X0.825000X-0.150000X-0.825000X0*%
%ADD18RoundRect,0.150000X-0.202499X0.494116X-0.095873X-0.525323X0.202499X-0.494116X0.095873X0.525323X0*%
%ADD19RoundRect,0.140000X-0.139911X-0.170073X0.140089X-0.169927X0.139911X0.170073X-0.140089X0.169927X0*%
%ADD20RoundRect,0.150000X-0.202361X0.494172X-0.096020X-0.525296X0.202361X-0.494172X0.096020X0.525296X0*%
%ADD21RoundRect,0.150000X-0.165776X0.507617X-0.134081X-0.516893X0.165776X-0.507617X0.134081X0.516893X0*%
%ADD22RoundRect,0.140000X-0.121556X-0.183641X0.156925X-0.154514X0.121556X0.183641X-0.156925X0.154514X0*%
%ADD23RoundRect,0.140000X-0.139638X-0.170298X0.140362X-0.169702X0.139638X0.170298X-0.140362X0.169702X0*%
%ADD24RoundRect,0.150000X-0.179270X0.503009X-0.120232X-0.520289X0.179270X-0.503009X0.120232X0.520289X0*%
%ADD25RoundRect,0.150000X-0.165829X0.507599X-0.134026X-0.516907X0.165829X-0.507599X0.134026X0.516907X0*%
%ADD26RoundRect,0.140000X-0.119856X-0.184756X0.158345X-0.153059X0.119856X0.184756X-0.158345X0.153059X0*%
%ADD27RoundRect,0.140000X-0.121607X-0.183607X0.156882X-0.154558X0.121607X0.183607X-0.156882X0.154558X0*%
%ADD28RoundRect,0.150000X-0.159829X0.509520X-0.140116X-0.515290X0.159829X-0.509520X0.140116X0.515290X0*%
%ADD29RoundRect,0.150000X-0.184239X0.501211X-0.115077X-0.521453X0.184239X-0.501211X0.115077X0.521453X0*%
%ADD30RoundRect,0.140000X-0.138018X-0.171613X0.141964X-0.168364X0.138018X0.171613X-0.141964X0.168364X0*%
%ADD31RoundRect,0.150000X-0.205058X0.493059X-0.093149X-0.525813X0.205058X-0.493059X0.093149X0.525813X0*%
%ADD32RoundRect,0.140000X-0.136705X-0.172661X0.143244X-0.167276X0.136705X0.172661X-0.143244X0.167276X0*%
%ADD33RoundRect,0.150000X-0.150268X0.512421X-0.149732X-0.512578X0.150268X-0.512421X0.149732X0.512578X0*%
%ADD34C,0.960000*%
%ADD35RoundRect,0.150000X-0.155938X0.510725X-0.144042X-0.514206X0.155938X-0.510725X0.144042X0.514206X0*%
%ADD36RoundRect,0.140000X-0.124613X-0.181581X0.154317X-0.157119X0.124613X0.181581X-0.154317X0.157119X0*%
%ADD37RoundRect,0.150000X-0.194201X0.497436X-0.104652X-0.523645X0.194201X-0.497436X0.104652X0.523645X0*%
%ADD38RoundRect,0.140000X-0.128210X-0.179059X0.151152X-0.160166X0.128210X0.179059X-0.151152X0.160166X0*%
%ADD39RoundRect,0.140000X-0.119955X-0.184691X0.158262X-0.153144X0.119955X0.184691X-0.158262X0.153144X0*%
%ADD40RoundRect,0.140000X-0.134676X-0.174248X0.145190X-0.165590X0.134676X0.174248X-0.145190X0.165590X0*%
%ADD41RoundRect,0.150000X-0.207052X0.492225X-0.091019X-0.526186X0.207052X-0.492225X0.091019X0.526186X0*%
%ADD42RoundRect,0.150000X-0.190471X0.498876X-0.108570X-0.522847X0.190471X-0.498876X0.108570X0.522847X0*%
%ADD43RoundRect,0.150000X-0.206786X0.492337X-0.091304X-0.526137X0.206786X-0.492337X0.091304X0.526137X0*%
%ADD44RoundRect,0.150000X-0.151091X0.512179X-0.148908X-0.512818X0.151091X-0.512179X0.148908X0.512818X0*%
%ADD45RoundRect,0.150000X-0.169431X0.506408X-0.130351X-0.517846X0.169431X-0.506408X0.130351X0.517846X0*%
G04 APERTURE END LIST*
D10*
%TO.C,CL32A*%
X78201531Y-79077393D03*
X79161069Y-79047607D03*
%TD*%
D11*
%TO.C,CL25A*%
X99507935Y-60751054D03*
X100464865Y-60674346D03*
%TD*%
D12*
%TO.C,HEL1*%
X10292500Y-10475000D03*
X10292500Y-8575000D03*
X12567500Y-9525000D03*
%TD*%
%TO.C,HEL30*%
X40772500Y-86675000D03*
X40772500Y-84775000D03*
X43047500Y-85725000D03*
%TD*%
D13*
%TO.C,CML3*%
X101804800Y-63977000D03*
X102764800Y-63977000D03*
%TD*%
%TO.C,CL9B*%
X44220000Y-35475000D03*
X45180000Y-35475000D03*
%TD*%
D12*
%TO.C,HEL2*%
X29342500Y-10475000D03*
X29342500Y-8575000D03*
X31617500Y-9525000D03*
%TD*%
D14*
%TO.C,CL20B*%
X127148069Y-58176706D03*
X128102331Y-58071894D03*
%TD*%
D15*
%TO.C,CL5B*%
X94114449Y-17097901D03*
X95073751Y-17061299D03*
%TD*%
D13*
%TO.C,CL17B*%
X67080000Y-54525000D03*
X68040000Y-54525000D03*
%TD*%
%TO.C,CL8B*%
X20408000Y-35475000D03*
X21368000Y-35475000D03*
%TD*%
D12*
%TO.C,HEL9*%
X36962500Y-29525000D03*
X36962500Y-27625000D03*
X39237500Y-28575000D03*
%TD*%
D13*
%TO.C,CL3A*%
X42450000Y-2625000D03*
X43410000Y-2625000D03*
%TD*%
D16*
%TO.C,CL12B*%
X102249397Y-36669347D03*
X103207803Y-36614053D03*
%TD*%
D13*
%TO.C,CL27A*%
X13720000Y-87000000D03*
X14680000Y-87000000D03*
%TD*%
D12*
%TO.C,HEL29*%
X26484500Y-86675000D03*
X26484500Y-84775000D03*
X28759500Y-85725000D03*
%TD*%
D13*
%TO.C,CL16B*%
X48030000Y-54525000D03*
X48990000Y-54525000D03*
%TD*%
D12*
%TO.C,HEL27*%
X11903500Y-86862500D03*
X10003500Y-86862500D03*
X10953500Y-84587500D03*
%TD*%
D17*
%TO.C,AML1*%
X40729700Y-67452000D03*
X39459700Y-67452000D03*
X38189700Y-67452000D03*
X36919700Y-67452000D03*
X35649700Y-67452000D03*
X34379700Y-67452000D03*
X33109700Y-67452000D03*
X31839700Y-67452000D03*
X31839700Y-62502000D03*
X33109700Y-62502000D03*
X34379700Y-62502000D03*
X35649700Y-62502000D03*
X36919700Y-62502000D03*
X38189700Y-62502000D03*
X39459700Y-62502000D03*
X40729700Y-62502000D03*
%TD*%
D18*
%TO.C,HEL13*%
X116598495Y-32134174D03*
X116400845Y-30244483D03*
X118762329Y-30952671D03*
%TD*%
D19*
%TO.C,CL23B*%
X71845400Y-73583751D03*
X72805400Y-73583249D03*
%TD*%
D20*
%TO.C,HEL33*%
X122010198Y-90018886D03*
X121813078Y-88129139D03*
X124174362Y-88837987D03*
%TD*%
D15*
%TO.C,CL5A*%
X81450249Y-2804701D03*
X82409551Y-2768099D03*
%TD*%
D13*
%TO.C,CL9A*%
X31020000Y-21675000D03*
X31980000Y-21675000D03*
%TD*%
D21*
%TO.C,HEL24*%
X84089420Y-67964720D03*
X84030668Y-66065628D03*
X86333956Y-66944826D03*
%TD*%
D22*
%TO.C,CL13B*%
X123000004Y-38670032D03*
X123954796Y-38570168D03*
%TD*%
D13*
%TO.C,CL1B*%
X17550000Y-16425000D03*
X18510000Y-16425000D03*
%TD*%
%TO.C,CL22A*%
X39593000Y-59775000D03*
X40553000Y-59775000D03*
%TD*%
D23*
%TO.C,CL4A*%
X61536701Y-2632022D03*
X62496699Y-2629978D03*
%TD*%
D13*
%TO.C,CL22B*%
X52793000Y-73575000D03*
X53753000Y-73575000D03*
%TD*%
D14*
%TO.C,CL20A*%
X115533669Y-43018106D03*
X116487931Y-42913294D03*
%TD*%
D24*
%TO.C,HEL12*%
X95456107Y-30386942D03*
X95346670Y-28490096D03*
X97672612Y-29307481D03*
%TD*%
D16*
%TO.C,CL12A*%
X89866197Y-22131947D03*
X90824603Y-22076653D03*
%TD*%
D13*
%TO.C,CL3B*%
X55650000Y-16425000D03*
X56610000Y-16425000D03*
%TD*%
D25*
%TO.C,HEL32*%
X83956523Y-87148836D03*
X83897572Y-85249751D03*
X86200952Y-86128707D03*
%TD*%
D26*
%TO.C,CL14A*%
X131761586Y-25752540D03*
X132715414Y-25643860D03*
%TD*%
D27*
%TO.C,CL33A*%
X116717090Y-81458299D03*
X117671910Y-81358701D03*
%TD*%
D13*
%TO.C,CL30A*%
X34830000Y-78825000D03*
X35790000Y-78825000D03*
%TD*%
D12*
%TO.C,HEL22*%
X45535500Y-67625000D03*
X45535500Y-65725000D03*
X47810500Y-66675000D03*
%TD*%
D23*
%TO.C,CL4B*%
X74707301Y-16460022D03*
X75667299Y-16457978D03*
%TD*%
D13*
%TO.C,CL30B*%
X48030000Y-92625000D03*
X48990000Y-92625000D03*
%TD*%
D19*
%TO.C,CL23A*%
X58652600Y-59776751D03*
X59612600Y-59776249D03*
%TD*%
D11*
%TO.C,CL25B*%
X111563135Y-75561654D03*
X112520065Y-75484946D03*
%TD*%
D13*
%TO.C,CL15B*%
X16520000Y-45000000D03*
X17480000Y-45000000D03*
%TD*%
D17*
%TO.C,AML4*%
X122229800Y-70452000D03*
X120959800Y-70452000D03*
X119689800Y-70452000D03*
X118419800Y-70452000D03*
X117149800Y-70452000D03*
X115879800Y-70452000D03*
X114609800Y-70452000D03*
X113339800Y-70452000D03*
X113339800Y-65502000D03*
X114609800Y-65502000D03*
X115879800Y-65502000D03*
X117149800Y-65502000D03*
X118419800Y-65502000D03*
X119689800Y-65502000D03*
X120959800Y-65502000D03*
X122229800Y-65502000D03*
%TD*%
D28*
%TO.C,HEL18*%
X79075981Y-48777701D03*
X79039440Y-46878054D03*
X81332290Y-47784123D03*
%TD*%
D12*
%TO.C,HEL17*%
X59822500Y-48575000D03*
X59822500Y-46675000D03*
X62097500Y-47625000D03*
%TD*%
D29*
%TO.C,HEL19*%
X99660194Y-49706588D03*
X99531991Y-47810918D03*
X101865908Y-48605247D03*
%TD*%
D27*
%TO.C,CL33B*%
X128414090Y-96553299D03*
X129368910Y-96453701D03*
%TD*%
D30*
%TO.C,CL11A*%
X69314532Y-21714471D03*
X70274468Y-21703329D03*
%TD*%
%TO.C,CL11B*%
X82353532Y-35666671D03*
X83313468Y-35655529D03*
%TD*%
D31*
%TO.C,HEL20*%
X120791020Y-51613512D03*
X120583580Y-49724870D03*
X122948700Y-50420809D03*
%TD*%
D32*
%TO.C,CL18B*%
X86181189Y-54840932D03*
X87141011Y-54822468D03*
%TD*%
D13*
%TO.C,CL21B*%
X21836000Y-73575000D03*
X22796000Y-73575000D03*
%TD*%
D33*
%TO.C,HEL23*%
X64591998Y-67630595D03*
X64591003Y-65730596D03*
X66866500Y-66679404D03*
%TD*%
D13*
%TO.C,CL31A*%
X39593000Y-78825000D03*
X40553000Y-78825000D03*
%TD*%
%TO.C,CL29A*%
X20542000Y-78825000D03*
X21502000Y-78825000D03*
%TD*%
D10*
%TO.C,CL32B*%
X90966931Y-93280393D03*
X91926469Y-93250607D03*
%TD*%
D34*
%TO.C,PTL1*%
X148000000Y-49015000D03*
X148000000Y-50285000D03*
X148000000Y-51555000D03*
X148000000Y-52825000D03*
X148000000Y-54095000D03*
X148000000Y-55365000D03*
X148000000Y-56635000D03*
X148000000Y-57905000D03*
X148000000Y-59175000D03*
X148000000Y-60445000D03*
X148000000Y-61715000D03*
X148000000Y-62985000D03*
%TD*%
D17*
%TO.C,AML2*%
X60229700Y-67952000D03*
X58959700Y-67952000D03*
X57689700Y-67952000D03*
X56419700Y-67952000D03*
X55149700Y-67952000D03*
X53879700Y-67952000D03*
X52609700Y-67952000D03*
X51339700Y-67952000D03*
X51339700Y-63002000D03*
X52609700Y-63002000D03*
X53879700Y-63002000D03*
X55149700Y-63002000D03*
X56419700Y-63002000D03*
X57689700Y-63002000D03*
X58959700Y-63002000D03*
X60229700Y-63002000D03*
%TD*%
D12*
%TO.C,HEL15*%
X14284750Y-48762500D03*
X12384750Y-48762500D03*
X13334750Y-46487500D03*
%TD*%
D13*
%TO.C,CL10A*%
X50070000Y-21675000D03*
X51030000Y-21675000D03*
%TD*%
D35*
%TO.C,HEL11*%
X75187602Y-29648138D03*
X75165551Y-27748266D03*
X77451423Y-28671798D03*
%TD*%
D36*
%TO.C,CL6A*%
X102738835Y-3824735D03*
X103695165Y-3740865D03*
%TD*%
D37*
%TO.C,HEL6*%
X108138841Y-12278745D03*
X107972853Y-10386009D03*
X110322151Y-11133623D03*
%TD*%
D13*
%TO.C,CML4*%
X124804800Y-61977000D03*
X125764800Y-61977000D03*
%TD*%
%TO.C,CL8A*%
X7208000Y-21675000D03*
X8168000Y-21675000D03*
%TD*%
%TO.C,CL15A*%
X16520000Y-49000000D03*
X17480000Y-49000000D03*
%TD*%
D38*
%TO.C,CL19B*%
X106371494Y-56043988D03*
X107329306Y-55979212D03*
%TD*%
D22*
%TO.C,CL13A*%
X111307204Y-23571832D03*
X112261996Y-23471968D03*
%TD*%
D13*
%TO.C,CL10B*%
X63270000Y-35475000D03*
X64230000Y-35475000D03*
%TD*%
D17*
%TO.C,AML3*%
X98729800Y-68452000D03*
X97459800Y-68452000D03*
X96189800Y-68452000D03*
X94919800Y-68452000D03*
X93649800Y-68452000D03*
X92379800Y-68452000D03*
X91109800Y-68452000D03*
X89839800Y-68452000D03*
X89839800Y-63502000D03*
X91109800Y-63502000D03*
X92379800Y-63502000D03*
X93649800Y-63502000D03*
X94919800Y-63502000D03*
X96189800Y-63502000D03*
X97459800Y-63502000D03*
X98729800Y-63502000D03*
%TD*%
D13*
%TO.C,CML2*%
X61804700Y-59977000D03*
X62764700Y-59977000D03*
%TD*%
%TO.C,CL17A*%
X53880000Y-40725000D03*
X54840000Y-40725000D03*
%TD*%
D39*
%TO.C,CL26B*%
X132319656Y-77806779D03*
X133273544Y-77698621D03*
%TD*%
D13*
%TO.C,CML1*%
X42804700Y-58977000D03*
X43764700Y-58977000D03*
%TD*%
D12*
%TO.C,HEL8*%
X13150500Y-29525000D03*
X13150500Y-27625000D03*
X15425500Y-28575000D03*
%TD*%
D13*
%TO.C,CL16A*%
X34830000Y-40725000D03*
X35790000Y-40725000D03*
%TD*%
D38*
%TO.C,CL19A*%
X94132694Y-41384788D03*
X95090506Y-41320012D03*
%TD*%
D13*
%TO.C,CL27B*%
X13720000Y-83000000D03*
X14680000Y-83000000D03*
%TD*%
%TO.C,CL29B*%
X33742000Y-92625000D03*
X34702000Y-92625000D03*
%TD*%
D40*
%TO.C,CL24A*%
X78333730Y-59894043D03*
X79293270Y-59864357D03*
%TD*%
D12*
%TO.C,HEL10*%
X56012500Y-29525000D03*
X56012500Y-27625000D03*
X58287500Y-28575000D03*
%TD*%
D26*
%TO.C,CL14B*%
X143314586Y-40958140D03*
X144268414Y-40849460D03*
%TD*%
%TO.C,CL7A*%
X123855586Y-5801540D03*
X124809414Y-5692860D03*
%TD*%
D39*
%TO.C,CL26A*%
X120758456Y-62607379D03*
X121712344Y-62499221D03*
%TD*%
D12*
%TO.C,HEL16*%
X40772500Y-48575000D03*
X40772500Y-46675000D03*
X43047500Y-47625000D03*
%TD*%
D13*
%TO.C,CL2B*%
X36600000Y-16425000D03*
X37560000Y-16425000D03*
%TD*%
%TO.C,CL1A*%
X4350000Y-2625000D03*
X5310000Y-2625000D03*
%TD*%
D12*
%TO.C,HEL21*%
X14578500Y-67625000D03*
X14578500Y-65725000D03*
X16853500Y-66675000D03*
%TD*%
D13*
%TO.C,CL2A*%
X23400000Y-2625000D03*
X24360000Y-2625000D03*
%TD*%
D41*
%TO.C,HEL7*%
X129086355Y-14422662D03*
X128871269Y-12534875D03*
X131239188Y-13221231D03*
%TD*%
D42*
%TO.C,HEL25*%
X104956045Y-69155852D03*
X104804229Y-67261927D03*
X107147863Y-68027110D03*
%TD*%
D43*
%TO.C,HEL26*%
X125992775Y-71225108D03*
X125778710Y-69337206D03*
X128146256Y-70024843D03*
%TD*%
D13*
%TO.C,CL31B*%
X52793000Y-92625000D03*
X53753000Y-92625000D03*
%TD*%
D36*
%TO.C,CL6B*%
X114682835Y-18725135D03*
X115639165Y-18641265D03*
%TD*%
D12*
%TO.C,HEL3*%
X48392500Y-10475000D03*
X48392500Y-8575000D03*
X50667500Y-9525000D03*
%TD*%
D44*
%TO.C,HEL4*%
X67466525Y-10497420D03*
X67462480Y-8597424D03*
X69739497Y-9542578D03*
%TD*%
D13*
%TO.C,CL21A*%
X8636000Y-59775000D03*
X9596000Y-59775000D03*
%TD*%
D40*
%TO.C,CL24B*%
X91100730Y-74095643D03*
X92060270Y-74065957D03*
%TD*%
D32*
%TO.C,CL18A*%
X73248989Y-40789532D03*
X74208811Y-40771068D03*
%TD*%
D45*
%TO.C,HEL5*%
X87161547Y-10925678D03*
X87089107Y-9027059D03*
X89398673Y-9889631D03*
%TD*%
D41*
%TO.C,HEL14*%
X136992355Y-34373662D03*
X136777269Y-32485875D03*
X139145188Y-33172231D03*
%TD*%
D26*
%TO.C,CL7B*%
X135408586Y-21007140D03*
X136362414Y-20898460D03*
%TD*%
D12*
%TO.C,HEL31*%
X45535500Y-86675000D03*
X45535500Y-84775000D03*
X47810500Y-85725000D03*
%TD*%
M02*
