%TF.GenerationSoftware,KiCad,Pcbnew,10.0.5*%
%TF.CreationDate,2026-09-12T13:41:25-04:00*%
%TF.ProjectId,Symm60HE-Neo-Left-Half,53796d6d-3630-4484-952d-4e656f2d4c65,rev?*%
%TF.SameCoordinates,Original*%
%TF.FileFunction,Copper,L1,Top*%
%TF.FilePolarity,Positive*%
%FSLAX46Y46*%
G04 Gerber Fmt 4.6, Leading zero omitted, Abs format (unit mm)*
G04 Created by KiCad (PCBNEW 10.0.5) date 2026-09-12 13:41:25*
%MOMM*%
%LPD*%
G01*
G04 APERTURE LIST*
%TA.AperFunction,ComponentPad*%
%ADD10C,4.400000*%
%TD*%
%TA.AperFunction,ViaPad*%
%ADD11C,0.600000*%
%TD*%
%TA.AperFunction,Conductor*%
%ADD12C,0.200000*%
%TD*%
G04 APERTURE END LIST*
D10*
%TO.P,MHL1,1*%
%TO.N,GND*%
X4784700Y-9977000D03*
%TD*%
%TO.P,MHL3,1*%
%TO.N,GND*%
X106209000Y-30000000D03*
%TD*%
%TO.P,MHL4,1*%
%TO.N,GND*%
X140784800Y-95977000D03*
%TD*%
%TO.P,MHL2,1*%
%TO.N,GND*%
X3284700Y-92477000D03*
%TD*%
D11*
%TO.N,GND*%
X34702000Y-91799700D03*
X23589400Y-81012800D03*
X130850400Y-98542400D03*
X108702800Y-9564000D03*
X127293900Y-8177400D03*
X56490600Y-42972600D03*
X27695000Y-6927500D03*
X85763300Y-7473800D03*
X49612100Y-92002900D03*
X66136600Y-7271400D03*
X45805200Y-36100200D03*
X5164100Y-81537100D03*
%TO.N,+3V3A*%
X123891700Y-62892500D03*
X23400000Y-4532500D03*
X61536700Y-4567600D03*
X71691400Y-28090400D03*
X4350000Y-3452900D03*
X42450000Y-4532500D03*
X82981600Y-5375700D03*
X143707500Y-62286500D03*
X102738800Y-4682600D03*
X89866200Y-24896800D03*
%TO.N,HE_L28*%
X58130700Y-70633300D03*
X117345900Y-67181200D03*
%TO.N,HE_L20*%
X93649800Y-61382900D03*
X122069500Y-50061600D03*
%TO.N,HE_L05*%
X41537500Y-66644200D03*
X83033300Y-48018400D03*
%TO.N,HE_L17*%
X94919800Y-61997300D03*
X63299300Y-48581000D03*
%TO.N,HE_L12*%
X55800100Y-53241200D03*
X98477600Y-30112500D03*
%TO.N,HE_L27*%
X20528000Y-84010500D03*
X120959800Y-67629200D03*
%TO.N,HE_L07*%
X39459700Y-65951400D03*
X127656200Y-27897100D03*
%TO.N,ADC_L1*%
X144000000Y-60182800D03*
X38189700Y-65973600D03*
%TO.N,HE_L06*%
X35649700Y-65972600D03*
X111134400Y-11945800D03*
%TO.N,MUX_A2*%
X31839700Y-64010800D03*
X90469600Y-65831200D03*
X147200000Y-57905000D03*
X53368600Y-66455400D03*
X120140000Y-57702500D03*
X47965200Y-63105800D03*
%TO.N,MUX_A1*%
X147200000Y-59175000D03*
X120132200Y-58898000D03*
X112553200Y-60652100D03*
X52709000Y-61522600D03*
X89609100Y-66759600D03*
X48850100Y-62780900D03*
X33109700Y-63998100D03*
%TO.N,MUX_A0*%
X53879700Y-61418400D03*
X34379800Y-61004300D03*
X147200000Y-60445000D03*
X52322900Y-59070500D03*
X120133000Y-59764400D03*
X92379800Y-64996700D03*
X96665200Y-66672000D03*
%TO.N,HE_L04*%
X82323700Y-33143800D03*
X35841300Y-60798700D03*
%TO.N,HE_L03*%
X51462800Y-10320300D03*
X28419500Y-16855100D03*
%TO.N,HE_L13*%
X122367900Y-39302100D03*
X60229700Y-66421500D03*
X77460100Y-46810500D03*
X65399900Y-65202700D03*
%TO.N,HE_L23*%
X95914500Y-70626300D03*
X73965100Y-70626300D03*
%TO.N,HE_L24*%
X91100700Y-73277700D03*
X92666500Y-73277700D03*
%TO.N,HE_L22*%
X93273900Y-69933300D03*
X53145200Y-72394000D03*
%TO.N,HE_L30*%
X86201000Y-87299400D03*
X90966900Y-92089200D03*
X113492500Y-75591800D03*
%TO.N,HE_L25*%
X116850700Y-68547000D03*
X107989800Y-68808000D03*
%TO.N,HE_L29*%
X122229800Y-71954500D03*
X48608200Y-86522700D03*
%TO.N,ADC_L4*%
X120196600Y-69043500D03*
X126421200Y-67448200D03*
%TO.N,HE_L26*%
X119689800Y-67003200D03*
X125124700Y-67003200D03*
%TO.N,HE_L19*%
X101565200Y-60850300D03*
X97459800Y-61997600D03*
%TO.N,HE_L11*%
X64421300Y-36527600D03*
X78245300Y-29501400D03*
%TO.N,HE_L21*%
X18734300Y-67380100D03*
X98717600Y-69964100D03*
X22656800Y-74395800D03*
%TO.N,ADC_L2*%
X147200000Y-52825000D03*
X59726200Y-64409900D03*
%TO.N,HE_L14*%
X55123800Y-65994500D03*
X139145200Y-34373300D03*
%TO.N,ADC_L3*%
X147200000Y-50285000D03*
X98672300Y-64986300D03*
%TD*%
%TO.N,GND*%
D12*
X22460800Y-82141400D02*
X23589400Y-81012800D01*
X7834200Y-6927500D02*
X4784700Y-9977000D01*
X108702800Y-9564000D02*
X125907300Y-9564000D01*
X27695000Y-6927500D02*
X7834200Y-6927500D01*
X140784800Y-95977000D02*
X138219400Y-98542400D01*
X85763300Y-7473800D02*
X66339000Y-7473800D01*
X45805200Y-36100200D02*
X49618200Y-36100200D01*
X49307400Y-92307600D02*
X49612100Y-92002900D01*
X138219400Y-98542400D02*
X130850400Y-98542400D01*
X35209900Y-92307600D02*
X49307400Y-92307600D01*
X34702000Y-91799700D02*
X35209900Y-92307600D01*
X5768400Y-82141400D02*
X22460800Y-82141400D01*
X125907300Y-9564000D02*
X127293900Y-8177400D01*
X66339000Y-7473800D02*
X66136600Y-7271400D01*
X49618200Y-36100200D02*
X56490600Y-42972600D01*
X5164100Y-81537100D02*
X5768400Y-82141400D01*
%TO.N,+3V3A*%
X83906600Y-6300700D02*
X82981600Y-5375700D01*
X4350000Y-3452900D02*
X4812200Y-2990700D01*
X101120700Y-6300700D02*
X83906600Y-6300700D01*
X62875400Y-5906300D02*
X61536700Y-4567600D01*
X61536700Y-4567600D02*
X59958400Y-2989300D01*
X102738800Y-4682600D02*
X101120700Y-6300700D01*
X71691400Y-28090400D02*
X86672600Y-28090400D01*
X40908200Y-2990700D02*
X42450000Y-4532500D01*
X4812200Y-2990700D02*
X23400000Y-2990700D01*
X82451000Y-5906300D02*
X62875400Y-5906300D01*
X43993200Y-2989300D02*
X42450000Y-4532500D01*
X86672600Y-28090400D02*
X89866200Y-24896800D01*
X82981600Y-5375700D02*
X82451000Y-5906300D01*
X143101500Y-62892500D02*
X143707500Y-62286500D01*
X23400000Y-2990700D02*
X23400000Y-4532500D01*
X123891700Y-62892500D02*
X143101500Y-62892500D01*
X23400000Y-2990700D02*
X40908200Y-2990700D01*
X59958400Y-2989300D02*
X43993200Y-2989300D01*
%TO.N,HE_L28*%
X67789800Y-70321800D02*
X64456600Y-70321800D01*
X64456600Y-70321800D02*
X64145100Y-70633300D01*
X70968700Y-73500700D02*
X67789800Y-70321800D01*
X116041000Y-70207900D02*
X100276000Y-70207900D01*
X117508500Y-68740400D02*
X116041000Y-70207900D01*
X88348200Y-72675900D02*
X87523400Y-73500700D01*
X117345900Y-67181200D02*
X117508500Y-67343800D01*
X87523400Y-73500700D02*
X70968700Y-73500700D01*
X64145100Y-70633300D02*
X58130700Y-70633300D01*
X97808000Y-72675900D02*
X88348200Y-72675900D01*
X100276000Y-70207900D02*
X97808000Y-72675900D01*
X117508500Y-67343800D02*
X117508500Y-68740400D01*
%TO.N,HE_L20*%
X98586200Y-61382900D02*
X109907500Y-50061600D01*
X109907500Y-50061600D02*
X122069500Y-50061600D01*
X93649800Y-61382900D02*
X98586200Y-61382900D01*
%TO.N,HE_L05*%
X52101400Y-61279100D02*
X59533300Y-53847200D01*
X54818900Y-66596200D02*
X55420600Y-66596200D01*
X55732000Y-65707300D02*
X52101400Y-62076700D01*
X76684900Y-47654700D02*
X76767500Y-47654700D01*
X41537500Y-66644200D02*
X51311400Y-66644200D01*
X54050200Y-65827500D02*
X54818900Y-66596200D01*
X76767500Y-47654700D02*
X77131200Y-48018400D01*
X55420600Y-66596200D02*
X55732000Y-66284800D01*
X52128100Y-65827500D02*
X54050200Y-65827500D01*
X55732000Y-66284800D02*
X55732000Y-65707300D01*
X77131200Y-48018400D02*
X83033300Y-48018400D01*
X59533300Y-53847200D02*
X59533300Y-51496100D01*
X59533300Y-51496100D02*
X63216000Y-47813400D01*
X51311400Y-66644200D02*
X52128100Y-65827500D01*
X52101400Y-62076700D02*
X52101400Y-61279100D01*
X76526200Y-47813400D02*
X76684900Y-47654700D01*
X63216000Y-47813400D02*
X76526200Y-47813400D01*
%TO.N,HE_L17*%
X92818900Y-61997300D02*
X94919800Y-61997300D01*
X79402600Y-48581000D02*
X92818900Y-61997300D01*
X63299300Y-48581000D02*
X79402600Y-48581000D01*
%TO.N,HE_L12*%
X82783000Y-45807100D02*
X98477600Y-30112500D01*
X62098200Y-47227100D02*
X63518200Y-45807100D01*
X61814200Y-47227100D02*
X62098200Y-47227100D01*
X63518200Y-45807100D02*
X82783000Y-45807100D01*
X55800100Y-53241200D02*
X61814200Y-47227100D01*
%TO.N,HE_L27*%
X120959800Y-67629200D02*
X119344700Y-67629200D01*
X100604900Y-70609600D02*
X97031600Y-74182900D01*
X29265900Y-84010500D02*
X20528000Y-84010500D01*
X97031600Y-74182900D02*
X39093500Y-74182900D01*
X119344700Y-67629200D02*
X116364300Y-70609600D01*
X39093500Y-74182900D02*
X29265900Y-84010500D01*
X116364300Y-70609600D02*
X100604900Y-70609600D01*
%TO.N,HE_L07*%
X58729900Y-51092400D02*
X62193500Y-47628800D01*
X76524600Y-46679000D02*
X76740900Y-46679000D01*
X64199400Y-47010000D02*
X76193600Y-47010000D01*
X76193600Y-47010000D02*
X76524600Y-46679000D01*
X58729900Y-53514600D02*
X58729900Y-51092400D01*
X90942700Y-46208800D02*
X102563400Y-34588100D01*
X51298000Y-60946500D02*
X58729900Y-53514600D01*
X77211000Y-46208800D02*
X90942700Y-46208800D01*
X120965200Y-34588100D02*
X127656200Y-27897100D01*
X39459700Y-65951400D02*
X46598600Y-65951400D01*
X62264500Y-47628800D02*
X63283500Y-46609800D01*
X76740900Y-46679000D02*
X76740900Y-46678900D01*
X76740900Y-46678900D02*
X77211000Y-46208800D01*
X46598600Y-65951400D02*
X51298000Y-61252000D01*
X62193500Y-47628800D02*
X62264500Y-47628800D01*
X63799200Y-46609800D02*
X64199400Y-47010000D01*
X51298000Y-61252000D02*
X51298000Y-60946500D01*
X63283500Y-46609800D02*
X63799200Y-46609800D01*
X102563400Y-34588100D02*
X120965200Y-34588100D01*
%TO.N,ADC_L1*%
X47982000Y-67077900D02*
X47812000Y-67247900D01*
X122235100Y-60182800D02*
X144000000Y-60182800D01*
X39464000Y-67247900D02*
X38189700Y-65973600D01*
X115431100Y-66986800D02*
X107985900Y-66986800D01*
X106281200Y-68691500D02*
X54791000Y-68691500D01*
X122235100Y-60182800D02*
X115431100Y-66986800D01*
X54791000Y-68691500D02*
X53177400Y-67077900D01*
X47812000Y-67247900D02*
X39464000Y-67247900D01*
X53177400Y-67077900D02*
X47982000Y-67077900D01*
X107985900Y-66986800D02*
X106281200Y-68691500D01*
%TO.N,HE_L06*%
X37460200Y-57024700D02*
X39615300Y-57024700D01*
X65564700Y-37953400D02*
X73297000Y-30221100D01*
X52689400Y-43879800D02*
X57090800Y-43879800D01*
X57090800Y-43879800D02*
X63017200Y-37953400D01*
X92859100Y-30221100D02*
X111134400Y-11945800D01*
X32915800Y-65972600D02*
X31193100Y-64249900D01*
X63017200Y-37953400D02*
X65564700Y-37953400D01*
X35649700Y-65972600D02*
X32915800Y-65972600D01*
X49932000Y-46637200D02*
X52689400Y-43879800D01*
X73297000Y-30221100D02*
X92859100Y-30221100D01*
X31193100Y-63291800D02*
X37460200Y-57024700D01*
X49932000Y-46708000D02*
X49932000Y-46637200D01*
X39615300Y-57024700D02*
X49932000Y-46708000D01*
X31193100Y-64249900D02*
X31193100Y-63291800D01*
%TO.N,MUX_A2*%
X100189000Y-66414000D02*
X97258100Y-66414000D01*
X66224000Y-67503400D02*
X54416600Y-67503400D01*
X120140000Y-57702500D02*
X111830200Y-66012300D01*
X90944900Y-66306500D02*
X90469600Y-65831200D01*
X87954700Y-67211000D02*
X66516400Y-67211000D01*
X90944900Y-66306500D02*
X89869600Y-67381800D01*
X111830200Y-66012300D02*
X100590700Y-66012300D01*
X120141600Y-57700900D02*
X120140000Y-57702500D01*
X120141600Y-57700900D02*
X144000000Y-57700900D01*
X147200000Y-57905000D02*
X144000000Y-57700900D01*
X100590700Y-66012300D02*
X100189000Y-66414000D01*
X97258100Y-66414000D02*
X96914400Y-66070300D01*
X66516400Y-67211000D02*
X66224000Y-67503400D01*
X54416600Y-67503400D02*
X53368600Y-66455400D01*
X96914400Y-66070300D02*
X91181100Y-66070300D01*
X89869600Y-67381800D02*
X88125500Y-67381800D01*
X91181100Y-66070300D02*
X90944900Y-66306500D01*
X88125500Y-67381800D02*
X87954700Y-67211000D01*
X47965200Y-63105800D02*
X32744700Y-63105800D01*
X32744700Y-63105800D02*
X31839700Y-64010800D01*
%TO.N,MUX_A1*%
X105172500Y-60652100D02*
X112553200Y-60652100D01*
X120132200Y-58898000D02*
X144000000Y-58898000D01*
X90178100Y-65191600D02*
X90735000Y-65191600D01*
X47924100Y-63998100D02*
X33109700Y-63998100D01*
X48850100Y-62780900D02*
X48850100Y-63072100D01*
X89609100Y-66759600D02*
X89609100Y-65760600D01*
X89609100Y-65760600D02*
X90178100Y-65191600D01*
X97080700Y-65668600D02*
X97424400Y-66012300D01*
X58247300Y-67060900D02*
X52709000Y-61522600D01*
X147200000Y-59175000D02*
X144000000Y-58898000D01*
X65898300Y-67060900D02*
X58247300Y-67060900D01*
X99812300Y-66012300D02*
X105172500Y-60652100D01*
X48850100Y-63072100D02*
X47924100Y-63998100D01*
X90735000Y-65191600D02*
X91212000Y-65668600D01*
X91212000Y-65668600D02*
X97080700Y-65668600D01*
X89609100Y-66759600D02*
X66199600Y-66759600D01*
X66199600Y-66759600D02*
X65898300Y-67060900D01*
X97424400Y-66012300D02*
X99812300Y-66012300D01*
%TO.N,MUX_A0*%
X120133000Y-59764400D02*
X113312300Y-66585100D01*
X52322900Y-59070500D02*
X46834700Y-59070500D01*
X44266000Y-61639200D02*
X35014700Y-61639200D01*
X120397400Y-59500000D02*
X144000000Y-59500000D01*
X120397400Y-59500000D02*
X120133000Y-59764400D01*
X65151400Y-64600400D02*
X64732700Y-65019100D01*
X147200000Y-60445000D02*
X144000000Y-59500000D01*
X96835500Y-66842300D02*
X96665200Y-66672000D01*
X64732700Y-65019100D02*
X57480400Y-65019100D01*
X106996500Y-66842300D02*
X96835500Y-66842300D01*
X57480400Y-65019100D02*
X53879700Y-61418400D01*
X46834700Y-59070500D02*
X44266000Y-61639200D01*
X113312300Y-66585100D02*
X107253700Y-66585100D01*
X91983500Y-64600400D02*
X65151400Y-64600400D01*
X92379800Y-64996700D02*
X91983500Y-64600400D01*
X107253700Y-66585100D02*
X106996500Y-66842300D01*
X35014700Y-61639200D02*
X34379800Y-61004300D01*
%TO.N,HE_L04*%
X73288300Y-35398200D02*
X80069300Y-35398200D01*
X61861100Y-46825400D02*
X73288300Y-35398200D01*
X50382600Y-46825400D02*
X61861100Y-46825400D01*
X39740300Y-57467700D02*
X50382600Y-46825400D01*
X39172300Y-57467700D02*
X39740300Y-57467700D01*
X35841300Y-60798700D02*
X39172300Y-57467700D01*
X80069300Y-35398200D02*
X82323700Y-33143800D01*
%TO.N,HE_L03*%
X28419500Y-16855100D02*
X44928000Y-16855100D01*
X44928000Y-16855100D02*
X51462800Y-10320300D01*
%TO.N,HE_L13*%
X122367900Y-39302100D02*
X114859500Y-46810500D01*
X114859500Y-46810500D02*
X77460100Y-46810500D01*
X60229700Y-66421500D02*
X64181100Y-66421500D01*
X64181100Y-66421500D02*
X65399900Y-65202700D01*
%TO.N,HE_L23*%
X95914500Y-70626300D02*
X73965100Y-70626300D01*
%TO.N,HE_L24*%
X91100700Y-73277700D02*
X92666500Y-73277700D01*
%TO.N,HE_L22*%
X63940000Y-70070200D02*
X58418500Y-70070200D01*
X64340200Y-69670000D02*
X63940000Y-70070200D01*
X93010600Y-69670000D02*
X64340200Y-69670000D01*
X58418500Y-70070200D02*
X58379900Y-70031600D01*
X55507600Y-70031600D02*
X53145200Y-72394000D01*
X58379900Y-70031600D02*
X55507600Y-70031600D01*
X93273900Y-69933300D02*
X93010600Y-69670000D01*
%TO.N,HE_L30*%
X113492500Y-75591800D02*
X101784900Y-87299400D01*
X101784900Y-87299400D02*
X90966900Y-87299400D01*
X90966900Y-87299400D02*
X86201000Y-87299400D01*
X90966900Y-92089200D02*
X90966900Y-87299400D01*
%TO.N,HE_L25*%
X107989800Y-68808000D02*
X116589700Y-68808000D01*
X116589700Y-68808000D02*
X116850700Y-68547000D01*
%TO.N,HE_L29*%
X121606000Y-71330700D02*
X100534700Y-71330700D01*
X100534700Y-71330700D02*
X95399200Y-76466200D01*
X58664700Y-76466200D02*
X48608200Y-86522700D01*
X122229800Y-71954500D02*
X121606000Y-71330700D01*
X95399200Y-76466200D02*
X58664700Y-76466200D01*
%TO.N,ADC_L4*%
X124825900Y-69043500D02*
X120196600Y-69043500D01*
X126421200Y-67448200D02*
X124825900Y-69043500D01*
%TO.N,HE_L26*%
X119689800Y-67003200D02*
X125124700Y-67003200D01*
%TO.N,HE_L19*%
X100417900Y-61997600D02*
X101565200Y-60850300D01*
X97459800Y-61997600D02*
X100417900Y-61997600D01*
%TO.N,HE_L11*%
X78245300Y-29501400D02*
X71447500Y-29501400D01*
X71447500Y-29501400D02*
X64421300Y-36527600D01*
%TO.N,HE_L21*%
X98717600Y-69964100D02*
X98021800Y-69268300D01*
X18734300Y-67380100D02*
X24203400Y-72849200D01*
X64173900Y-69268300D02*
X63773700Y-69668500D01*
X27422700Y-69629900D02*
X24203400Y-72849200D01*
X98021800Y-69268300D02*
X64173900Y-69268300D01*
X58546200Y-69629900D02*
X27422700Y-69629900D01*
X63773700Y-69668500D02*
X58584800Y-69668500D01*
X58584800Y-69668500D02*
X58546200Y-69629900D01*
X22656800Y-74395800D02*
X24203400Y-72849200D01*
%TO.N,ADC_L2*%
X96868100Y-64148100D02*
X98321700Y-65601700D01*
X59988000Y-64148100D02*
X96868100Y-64148100D01*
X98321700Y-65601700D02*
X99192900Y-65601700D01*
X147200000Y-52825000D02*
X144000000Y-53899200D01*
X59726200Y-64409900D02*
X59988000Y-64148100D01*
X110895400Y-53899200D02*
X144000000Y-53899200D01*
X99192900Y-65601700D02*
X110895400Y-53899200D01*
%TO.N,HE_L14*%
X63449800Y-47011500D02*
X63632900Y-47011500D01*
X51699700Y-62570400D02*
X51699700Y-61112800D01*
X76559900Y-47211700D02*
X76892500Y-47211700D01*
X51699700Y-61112800D02*
X59131600Y-53680900D01*
X77093100Y-47412300D02*
X126106200Y-47412300D01*
X55123800Y-65994500D02*
X51699700Y-62570400D01*
X59131600Y-53680900D02*
X59131600Y-51329700D01*
X59131600Y-51329700D02*
X63449800Y-47011500D01*
X63632900Y-47011500D02*
X64033100Y-47411700D01*
X126106200Y-47412300D02*
X139145200Y-34373300D01*
X76892500Y-47211700D02*
X77093100Y-47412300D01*
X76359900Y-47411700D02*
X76559900Y-47211700D01*
X64033100Y-47411700D02*
X76359900Y-47411700D01*
%TO.N,ADC_L3*%
X98672300Y-64986300D02*
X111759400Y-51899200D01*
X147200000Y-50285000D02*
X144000000Y-51899200D01*
X111759400Y-51899200D02*
X144000000Y-51899200D01*
%TD*%
%TA.AperFunction,Conductor*%
%TO.N,GND*%
G36*
X78874301Y1658299D02*
G01*
X78885083Y1658100D01*
X79966341Y1655756D01*
X80010809Y1645099D01*
X80028606Y1636097D01*
X80028612Y1636094D01*
X80055295Y1625601D01*
X80055302Y1625599D01*
X80082994Y1617701D01*
X80083009Y1617698D01*
X80111300Y1612500D01*
X80140011Y1609999D01*
X98698885Y901900D01*
X98698896Y901900D01*
X98698900Y901900D01*
X98722650Y902150D01*
X98727403Y902200D01*
X98727415Y902201D01*
X98755790Y905198D01*
X98755798Y905199D01*
X98755800Y905200D01*
X98761418Y906327D01*
X98783694Y910798D01*
X98783721Y910805D01*
X98811092Y919096D01*
X98811097Y919098D01*
X98839489Y930866D01*
X98839780Y930163D01*
X98887217Y938580D01*
X99763394Y861700D01*
X99778081Y860801D01*
X99778088Y860800D01*
X99778100Y860800D01*
X99858039Y857739D01*
X100079513Y849261D01*
X100108689Y843684D01*
X100131293Y835702D01*
X100131299Y835700D01*
X100160893Y828401D01*
X100160905Y828399D01*
X100190980Y824202D01*
X100191044Y824195D01*
X114610437Y-440428D01*
X119934900Y-907400D01*
X119963700Y-908500D01*
X119992500Y-906900D01*
X119992513Y-906898D01*
X120005989Y-904821D01*
X120032279Y-904302D01*
X120470100Y-954200D01*
X120477900Y-955000D01*
X121498367Y-1044421D01*
X121532761Y-1053888D01*
X121556400Y-1065300D01*
X121583500Y-1075400D01*
X121611500Y-1082800D01*
X121640100Y-1087500D01*
X142434237Y-3456692D01*
X142489911Y-3482066D01*
X142520041Y-3535319D01*
X142521392Y-3566264D01*
X140423799Y-21975805D01*
X140421899Y-22005203D01*
X140422899Y-22034592D01*
X140426800Y-22063801D01*
X140426802Y-22063809D01*
X140433497Y-22092493D01*
X140443001Y-22120403D01*
X140455192Y-22147184D01*
X140455203Y-22147205D01*
X140469900Y-22172600D01*
X140487103Y-22196604D01*
X140487102Y-22196604D01*
X140506593Y-22218693D01*
X140506597Y-22218697D01*
X140506600Y-22218700D01*
X140528100Y-22238800D01*
X140551400Y-22256700D01*
X140576500Y-22272200D01*
X140576505Y-22272202D01*
X140576506Y-22272203D01*
X140602889Y-22285195D01*
X140602892Y-22285196D01*
X140602900Y-22285200D01*
X140630400Y-22295500D01*
X140658900Y-22303100D01*
X140668706Y-22304723D01*
X140687880Y-22307897D01*
X140687893Y-22307899D01*
X140687896Y-22307899D01*
X140687900Y-22307900D01*
X149812492Y-23347603D01*
X149868165Y-23372976D01*
X149890978Y-23404070D01*
X149899699Y-23422742D01*
X149909000Y-23464634D01*
X149909000Y-28061073D01*
X149908364Y-28072281D01*
X149786604Y-29140910D01*
X148154400Y-43466000D01*
X148154399Y-43466014D01*
X148154398Y-43466024D01*
X148152499Y-43495699D01*
X148153600Y-43525401D01*
X148157600Y-43554800D01*
X148157602Y-43554814D01*
X148164398Y-43583693D01*
X148164402Y-43583709D01*
X148174097Y-43611794D01*
X148186501Y-43638802D01*
X148201599Y-43664398D01*
X148219100Y-43688401D01*
X148219104Y-43688405D01*
X148238785Y-43710584D01*
X148238806Y-43710606D01*
X148260692Y-43730693D01*
X148260700Y-43730700D01*
X148284500Y-43748500D01*
X148309900Y-43763900D01*
X148336700Y-43776700D01*
X148364600Y-43786800D01*
X148364610Y-43786802D01*
X148364621Y-43786806D01*
X148393395Y-43794099D01*
X148393397Y-43794099D01*
X148393400Y-43794100D01*
X148422800Y-43798500D01*
X148452500Y-43800000D01*
X149810000Y-43800000D01*
X149868191Y-43818907D01*
X149904155Y-43868407D01*
X149909000Y-43899000D01*
X149909000Y-68101000D01*
X149890093Y-68159191D01*
X149840593Y-68195155D01*
X149810000Y-68200000D01*
X138802293Y-68200000D01*
X138773210Y-68201399D01*
X138773200Y-68201400D01*
X138744397Y-68205600D01*
X138723018Y-68210964D01*
X138716100Y-68212700D01*
X138716097Y-68212700D01*
X138716093Y-68212702D01*
X138716078Y-68212706D01*
X138688605Y-68222397D01*
X138662206Y-68234697D01*
X138662200Y-68234700D01*
X138650328Y-68241747D01*
X138637104Y-68249597D01*
X138637099Y-68249601D01*
X138613601Y-68266798D01*
X138591802Y-68286197D01*
X138591800Y-68286199D01*
X138572103Y-68307596D01*
X138572093Y-68307607D01*
X138554500Y-68330899D01*
X138554493Y-68330910D01*
X138539307Y-68355686D01*
X138539295Y-68355709D01*
X138526502Y-68381893D01*
X138516401Y-68409293D01*
X138516399Y-68409301D01*
X138508900Y-68437398D01*
X138507986Y-68443000D01*
X138504200Y-68466200D01*
X137645747Y-76036704D01*
X137326098Y-78855617D01*
X137324200Y-78885091D01*
X137324200Y-78885094D01*
X137325299Y-78914696D01*
X137325300Y-78914710D01*
X137329198Y-78944091D01*
X137329200Y-78944100D01*
X137336100Y-78972900D01*
X137345700Y-79000900D01*
X137358000Y-79027800D01*
X137373000Y-79053400D01*
X137373006Y-79053408D01*
X137390395Y-79077295D01*
X137390396Y-79077296D01*
X137409999Y-79099499D01*
X137410003Y-79099503D01*
X137431800Y-79119600D01*
X137431804Y-79119604D01*
X137445156Y-79129673D01*
X137455400Y-79137400D01*
X137480700Y-79152800D01*
X137507300Y-79165700D01*
X137535100Y-79175900D01*
X137563800Y-79183300D01*
X137593100Y-79187800D01*
X147115534Y-80181128D01*
X147171448Y-80205971D01*
X147202083Y-80258935D01*
X147203728Y-80289865D01*
X144586867Y-105376926D01*
X144562024Y-105432841D01*
X144518643Y-105460923D01*
X144509591Y-105463827D01*
X144469078Y-105468025D01*
X99013296Y-100726429D01*
X98980632Y-100717169D01*
X98979616Y-100716680D01*
X98971201Y-100712115D01*
X98916536Y-100678951D01*
X98908470Y-100673498D01*
X98871948Y-100646095D01*
X98857511Y-100635262D01*
X98850017Y-100629040D01*
X98803037Y-100585958D01*
X98796217Y-100579059D01*
X98753669Y-100531575D01*
X98747527Y-100524001D01*
X98709746Y-100472410D01*
X98704444Y-100464378D01*
X98677534Y-100418956D01*
X98671979Y-100409579D01*
X98667392Y-100400876D01*
X98640477Y-100343013D01*
X98636859Y-100334135D01*
X98615619Y-100273805D01*
X98612841Y-100264472D01*
X98612616Y-100263553D01*
X98610310Y-100229745D01*
X98786425Y-98541233D01*
X98816324Y-98254587D01*
X109813034Y-98254587D01*
X109813034Y-98548802D01*
X109851435Y-98840487D01*
X109851435Y-98840492D01*
X109927582Y-99124674D01*
X109927586Y-99124687D01*
X110040171Y-99396494D01*
X110040173Y-99396499D01*
X110187277Y-99651289D01*
X110366378Y-99884699D01*
X110366380Y-99884701D01*
X110366384Y-99884706D01*
X110574423Y-100092745D01*
X110574427Y-100092748D01*
X110574429Y-100092750D01*
X110616688Y-100125176D01*
X110807837Y-100271850D01*
X110908460Y-100329945D01*
X111050953Y-100412214D01*
X111062631Y-100418956D01*
X111334447Y-100531545D01*
X111618634Y-100607693D01*
X111910328Y-100646095D01*
X111910329Y-100646095D01*
X112204539Y-100646095D01*
X112204540Y-100646095D01*
X112496234Y-100607693D01*
X112780421Y-100531545D01*
X113052237Y-100418956D01*
X113307031Y-100271850D01*
X113540445Y-100092745D01*
X113748484Y-99884706D01*
X113927589Y-99651292D01*
X114074695Y-99396498D01*
X114187284Y-99124682D01*
X114263432Y-98840495D01*
X114301834Y-98548801D01*
X114301834Y-98254589D01*
X114263432Y-97962895D01*
X114187284Y-97678708D01*
X114074695Y-97406892D01*
X114055855Y-97374261D01*
X113927590Y-97152100D01*
X113927589Y-97152098D01*
X113799097Y-96984644D01*
X113748489Y-96918690D01*
X113748487Y-96918688D01*
X113748484Y-96918684D01*
X113540445Y-96710645D01*
X113540440Y-96710641D01*
X113540438Y-96710639D01*
X113313797Y-96536732D01*
X113307031Y-96531540D01*
X113307028Y-96531538D01*
X113052238Y-96384434D01*
X113052233Y-96384432D01*
X112780426Y-96271847D01*
X112780425Y-96271846D01*
X112780421Y-96271845D01*
X112496234Y-96195697D01*
X112496231Y-96195696D01*
X112496229Y-96195696D01*
X112204541Y-96157295D01*
X112204540Y-96157295D01*
X111910328Y-96157295D01*
X111910326Y-96157295D01*
X111618641Y-96195696D01*
X111618636Y-96195696D01*
X111334454Y-96271843D01*
X111334441Y-96271847D01*
X111062634Y-96384432D01*
X111062629Y-96384434D01*
X110807839Y-96531538D01*
X110574429Y-96710639D01*
X110366378Y-96918690D01*
X110187277Y-97152100D01*
X110040173Y-97406890D01*
X110040171Y-97406895D01*
X109927586Y-97678702D01*
X109927582Y-97678715D01*
X109851435Y-97962897D01*
X109851435Y-97962902D01*
X109813034Y-98254587D01*
X98816324Y-98254587D01*
X98817733Y-98241078D01*
X98824561Y-98175611D01*
X98827900Y-98143600D01*
X98829500Y-98114700D01*
X98828300Y-98085700D01*
X98824300Y-98057000D01*
X98817600Y-98028800D01*
X98808200Y-98001400D01*
X98796100Y-97975000D01*
X98781600Y-97949900D01*
X98764700Y-97926300D01*
X98764697Y-97926295D01*
X98745704Y-97904504D01*
X98724601Y-97884601D01*
X98701600Y-97866800D01*
X98677110Y-97851305D01*
X98677097Y-97851298D01*
X98664297Y-97844873D01*
X98651200Y-97838300D01*
X98641077Y-97834363D01*
X98624211Y-97827804D01*
X98624191Y-97827797D01*
X98596301Y-97820000D01*
X98596294Y-97819998D01*
X98567701Y-97814900D01*
X98538815Y-97812601D01*
X98538809Y-97812600D01*
X98538800Y-97812600D01*
X98538780Y-97812599D01*
X98538772Y-97812599D01*
X72341357Y-96999500D01*
X69515700Y-96911799D01*
X69515699Y-96911799D01*
X69496317Y-96930589D01*
X69441376Y-96957517D01*
X69424338Y-96958459D01*
X68921306Y-96942846D01*
X68909714Y-96941461D01*
X68897136Y-96941330D01*
X68887120Y-96940326D01*
X68850781Y-96940585D01*
X68847008Y-96940540D01*
X68810112Y-96939395D01*
X68798481Y-96940297D01*
X68793562Y-96940245D01*
X68788398Y-96940192D01*
X68788397Y-96940192D01*
X68784923Y-96940156D01*
X68774894Y-96941126D01*
X60574427Y-96999497D01*
X60573722Y-96999500D01*
X57788507Y-96999500D01*
X57730316Y-96980593D01*
X57718503Y-96970504D01*
X57698000Y-96950001D01*
X57698000Y-96950000D01*
X57697999Y-96950000D01*
X-2200680Y-96950000D01*
X-2234051Y-96944206D01*
X-2235171Y-96943805D01*
X-2244166Y-96940076D01*
X-2301845Y-96912766D01*
X-2310327Y-96908233D01*
X-2365051Y-96875475D01*
X-2373214Y-96870021D01*
X-2424352Y-96832058D01*
X-2431831Y-96825917D01*
X-2479161Y-96783013D01*
X-2486020Y-96776154D01*
X-2528919Y-96728829D01*
X-2535060Y-96721351D01*
X-2573018Y-96670221D01*
X-2578473Y-96662055D01*
X-2611239Y-96607315D01*
X-2615771Y-96598835D01*
X-2643073Y-96541174D01*
X-2646799Y-96532189D01*
X-2647176Y-96531136D01*
X-2647203Y-96531058D01*
X-2653000Y-96497680D01*
X-2653000Y-95784104D01*
X133497034Y-95784104D01*
X133497034Y-96078319D01*
X133535435Y-96370004D01*
X133535435Y-96370009D01*
X133535436Y-96370012D01*
X133599021Y-96607315D01*
X133611582Y-96654191D01*
X133611586Y-96654204D01*
X133724171Y-96926011D01*
X133724173Y-96926016D01*
X133860567Y-97162256D01*
X133871279Y-97180809D01*
X133918280Y-97242062D01*
X134050378Y-97414216D01*
X134050380Y-97414218D01*
X134050384Y-97414223D01*
X134258423Y-97622262D01*
X134258427Y-97622265D01*
X134258429Y-97622267D01*
X134331977Y-97678702D01*
X134491837Y-97801367D01*
X134746631Y-97948473D01*
X135018447Y-98061062D01*
X135302634Y-98137210D01*
X135594328Y-98175612D01*
X135594329Y-98175612D01*
X135888539Y-98175612D01*
X135888540Y-98175612D01*
X136180234Y-98137210D01*
X136464421Y-98061062D01*
X136736237Y-97948473D01*
X136991031Y-97801367D01*
X137224445Y-97622262D01*
X137432484Y-97414223D01*
X137611589Y-97180809D01*
X137758695Y-96926015D01*
X137871284Y-96654199D01*
X137947432Y-96370012D01*
X137985834Y-96078318D01*
X137985834Y-95784106D01*
X137947432Y-95492412D01*
X137871284Y-95208225D01*
X137758695Y-94936409D01*
X137611589Y-94681615D01*
X137432484Y-94448201D01*
X137224445Y-94240162D01*
X137224440Y-94240158D01*
X137224438Y-94240156D01*
X136991028Y-94061055D01*
X136736238Y-93913951D01*
X136736233Y-93913949D01*
X136464426Y-93801364D01*
X136464425Y-93801363D01*
X136464421Y-93801362D01*
X136180234Y-93725214D01*
X136180231Y-93725213D01*
X136180229Y-93725213D01*
X135888541Y-93686812D01*
X135888540Y-93686812D01*
X135594328Y-93686812D01*
X135594326Y-93686812D01*
X135302641Y-93725213D01*
X135302636Y-93725213D01*
X135018454Y-93801360D01*
X135018441Y-93801364D01*
X134746634Y-93913949D01*
X134746629Y-93913951D01*
X134491839Y-94061055D01*
X134258429Y-94240156D01*
X134050378Y-94448207D01*
X133871277Y-94681617D01*
X133724173Y-94936407D01*
X133724171Y-94936412D01*
X133611586Y-95208219D01*
X133611582Y-95208232D01*
X133535435Y-95492414D01*
X133535435Y-95492419D01*
X133497034Y-95784104D01*
X-2653000Y-95784104D01*
X-2653000Y-93920004D01*
X122444536Y-93920004D01*
X122444536Y-94097169D01*
X122472249Y-94272139D01*
X122472250Y-94272142D01*
X122526994Y-94440629D01*
X122607422Y-94598477D01*
X122711553Y-94741801D01*
X122836822Y-94867070D01*
X122980146Y-94971201D01*
X123137994Y-95051629D01*
X123306481Y-95106373D01*
X123376471Y-95117458D01*
X123481454Y-95134087D01*
X123481457Y-95134087D01*
X123658618Y-95134087D01*
X123746103Y-95120230D01*
X123833591Y-95106373D01*
X124002078Y-95051629D01*
X124159926Y-94971201D01*
X124303250Y-94867070D01*
X124428519Y-94741801D01*
X124532650Y-94598477D01*
X124613078Y-94440629D01*
X124667822Y-94272142D01*
X124695536Y-94097166D01*
X124695536Y-93920008D01*
X124695536Y-93920004D01*
X124667822Y-93745034D01*
X124667822Y-93745032D01*
X124613078Y-93576545D01*
X124532650Y-93418697D01*
X124428519Y-93275373D01*
X124303250Y-93150104D01*
X124159926Y-93045973D01*
X124159925Y-93045972D01*
X124159923Y-93045971D01*
X124002076Y-92965544D01*
X123833588Y-92910800D01*
X123658618Y-92883087D01*
X123658615Y-92883087D01*
X123481457Y-92883087D01*
X123481454Y-92883087D01*
X123306483Y-92910800D01*
X123137995Y-92965544D01*
X122980148Y-93045971D01*
X122836823Y-93150103D01*
X122711552Y-93275374D01*
X122607420Y-93418699D01*
X122526993Y-93576546D01*
X122472249Y-93745034D01*
X122444536Y-93920004D01*
X-2653000Y-93920004D01*
X-2653000Y-90716417D01*
X7446500Y-90716417D01*
X7446500Y-90893582D01*
X7474213Y-91068552D01*
X7474214Y-91068555D01*
X7528958Y-91237042D01*
X7609386Y-91394890D01*
X7713517Y-91538214D01*
X7838786Y-91663483D01*
X7982110Y-91767614D01*
X8139958Y-91848042D01*
X8308445Y-91902786D01*
X8378435Y-91913871D01*
X8483418Y-91930500D01*
X8483421Y-91930500D01*
X8660582Y-91930500D01*
X8748067Y-91916643D01*
X8835555Y-91902786D01*
X9004042Y-91848042D01*
X9161890Y-91767614D01*
X9305214Y-91663483D01*
X9430483Y-91538214D01*
X9534614Y-91394890D01*
X9615042Y-91237042D01*
X9669786Y-91068555D01*
X9697500Y-90893579D01*
X9697500Y-90716421D01*
X9697500Y-90716417D01*
X12209500Y-90716417D01*
X12209500Y-90893582D01*
X12237213Y-91068552D01*
X12237214Y-91068555D01*
X12291958Y-91237042D01*
X12372386Y-91394890D01*
X12476517Y-91538214D01*
X12601786Y-91663483D01*
X12745110Y-91767614D01*
X12902958Y-91848042D01*
X13071445Y-91902786D01*
X13141435Y-91913871D01*
X13246418Y-91930500D01*
X13246421Y-91930500D01*
X13423582Y-91930500D01*
X13511067Y-91916643D01*
X13598555Y-91902786D01*
X13767042Y-91848042D01*
X13924890Y-91767614D01*
X14068214Y-91663483D01*
X14193483Y-91538214D01*
X14297614Y-91394890D01*
X14378042Y-91237042D01*
X14432786Y-91068555D01*
X14460500Y-90893579D01*
X14460500Y-90716421D01*
X14460500Y-90716417D01*
X26496500Y-90716417D01*
X26496500Y-90893582D01*
X26524213Y-91068552D01*
X26524214Y-91068555D01*
X26578958Y-91237042D01*
X26659386Y-91394890D01*
X26763517Y-91538214D01*
X26888786Y-91663483D01*
X27032110Y-91767614D01*
X27189958Y-91848042D01*
X27358445Y-91902786D01*
X27428435Y-91913871D01*
X27533418Y-91930500D01*
X27533421Y-91930500D01*
X27710582Y-91930500D01*
X27798067Y-91916643D01*
X27885555Y-91902786D01*
X28054042Y-91848042D01*
X28211890Y-91767614D01*
X28355214Y-91663483D01*
X28480483Y-91538214D01*
X28584614Y-91394890D01*
X28665042Y-91237042D01*
X28719786Y-91068555D01*
X28747500Y-90893579D01*
X28747500Y-90716421D01*
X28747500Y-90716417D01*
X40784500Y-90716417D01*
X40784500Y-90893582D01*
X40812213Y-91068552D01*
X40812214Y-91068555D01*
X40866958Y-91237042D01*
X40947386Y-91394890D01*
X41051517Y-91538214D01*
X41176786Y-91663483D01*
X41320110Y-91767614D01*
X41477958Y-91848042D01*
X41646445Y-91902786D01*
X41716435Y-91913871D01*
X41821418Y-91930500D01*
X41821421Y-91930500D01*
X41998582Y-91930500D01*
X42086067Y-91916643D01*
X42173555Y-91902786D01*
X42342042Y-91848042D01*
X42499890Y-91767614D01*
X42643214Y-91663483D01*
X42768483Y-91538214D01*
X42872614Y-91394890D01*
X42953042Y-91237042D01*
X43007786Y-91068555D01*
X43035500Y-90893579D01*
X43035500Y-90716421D01*
X43035500Y-90716417D01*
X45547500Y-90716417D01*
X45547500Y-90893582D01*
X45575213Y-91068552D01*
X45575214Y-91068555D01*
X45629958Y-91237042D01*
X45710386Y-91394890D01*
X45814517Y-91538214D01*
X45939786Y-91663483D01*
X46083110Y-91767614D01*
X46240958Y-91848042D01*
X46409445Y-91902786D01*
X46479435Y-91913871D01*
X46584418Y-91930500D01*
X46584421Y-91930500D01*
X46761582Y-91930500D01*
X46849067Y-91916643D01*
X46936555Y-91902786D01*
X47105042Y-91848042D01*
X47262890Y-91767614D01*
X47406214Y-91663483D01*
X47531483Y-91538214D01*
X47635614Y-91394890D01*
X47716042Y-91237042D01*
X47743358Y-91152971D01*
X84096117Y-91152971D01*
X84096117Y-91330136D01*
X84123830Y-91505106D01*
X84177230Y-91669459D01*
X84178575Y-91673596D01*
X84259003Y-91831444D01*
X84363134Y-91974768D01*
X84488403Y-92100037D01*
X84631727Y-92204168D01*
X84789575Y-92284596D01*
X84958062Y-92339340D01*
X85028052Y-92350425D01*
X85133035Y-92367054D01*
X85133038Y-92367054D01*
X85310199Y-92367054D01*
X85397684Y-92353197D01*
X85485172Y-92339340D01*
X85653659Y-92284596D01*
X85811507Y-92204168D01*
X85954831Y-92100037D01*
X86080100Y-91974768D01*
X86184231Y-91831444D01*
X86264659Y-91673596D01*
X86319403Y-91505109D01*
X86347117Y-91330133D01*
X86347117Y-91152975D01*
X86347117Y-91152971D01*
X86319403Y-90978001D01*
X86319403Y-90977999D01*
X86264659Y-90809512D01*
X86184231Y-90651664D01*
X86080100Y-90508340D01*
X85954831Y-90383071D01*
X85811507Y-90278940D01*
X85811506Y-90278939D01*
X85811504Y-90278938D01*
X85653657Y-90198511D01*
X85485169Y-90143767D01*
X85310199Y-90116054D01*
X85310196Y-90116054D01*
X85133038Y-90116054D01*
X85133035Y-90116054D01*
X84958064Y-90143767D01*
X84789576Y-90198511D01*
X84631729Y-90278938D01*
X84488404Y-90383070D01*
X84363133Y-90508341D01*
X84259001Y-90651666D01*
X84178574Y-90809513D01*
X84123830Y-90978001D01*
X84096117Y-91152971D01*
X47743358Y-91152971D01*
X47770786Y-91068555D01*
X47798500Y-90893579D01*
X47798500Y-90716421D01*
X47798500Y-90716417D01*
X47770786Y-90541447D01*
X47770786Y-90541445D01*
X47716042Y-90372958D01*
X47635614Y-90215110D01*
X47531483Y-90071786D01*
X47406214Y-89946517D01*
X47262890Y-89842386D01*
X47262889Y-89842385D01*
X47262887Y-89842384D01*
X47105040Y-89761957D01*
X46936552Y-89707213D01*
X46761582Y-89679500D01*
X46761579Y-89679500D01*
X46584421Y-89679500D01*
X46584418Y-89679500D01*
X46409447Y-89707213D01*
X46240959Y-89761957D01*
X46083112Y-89842384D01*
X45939787Y-89946516D01*
X45814516Y-90071787D01*
X45710384Y-90215112D01*
X45629957Y-90372959D01*
X45575213Y-90541447D01*
X45547500Y-90716417D01*
X43035500Y-90716417D01*
X43007786Y-90541447D01*
X43007786Y-90541445D01*
X42953042Y-90372958D01*
X42872614Y-90215110D01*
X42768483Y-90071786D01*
X42643214Y-89946517D01*
X42499890Y-89842386D01*
X42499889Y-89842385D01*
X42499887Y-89842384D01*
X42342040Y-89761957D01*
X42173552Y-89707213D01*
X41998582Y-89679500D01*
X41998579Y-89679500D01*
X41821421Y-89679500D01*
X41821418Y-89679500D01*
X41646447Y-89707213D01*
X41477959Y-89761957D01*
X41320112Y-89842384D01*
X41176787Y-89946516D01*
X41051516Y-90071787D01*
X40947384Y-90215112D01*
X40866957Y-90372959D01*
X40812213Y-90541447D01*
X40784500Y-90716417D01*
X28747500Y-90716417D01*
X28719786Y-90541447D01*
X28719786Y-90541445D01*
X28665042Y-90372958D01*
X28584614Y-90215110D01*
X28480483Y-90071786D01*
X28355214Y-89946517D01*
X28211890Y-89842386D01*
X28211889Y-89842385D01*
X28211887Y-89842384D01*
X28054040Y-89761957D01*
X27885552Y-89707213D01*
X27710582Y-89679500D01*
X27710579Y-89679500D01*
X27533421Y-89679500D01*
X27533418Y-89679500D01*
X27358447Y-89707213D01*
X27189959Y-89761957D01*
X27032112Y-89842384D01*
X26888787Y-89946516D01*
X26763516Y-90071787D01*
X26659384Y-90215112D01*
X26578957Y-90372959D01*
X26524213Y-90541447D01*
X26496500Y-90716417D01*
X14460500Y-90716417D01*
X14432786Y-90541447D01*
X14432786Y-90541445D01*
X14378042Y-90372958D01*
X14297614Y-90215110D01*
X14193483Y-90071786D01*
X14068214Y-89946517D01*
X13924890Y-89842386D01*
X13924889Y-89842385D01*
X13924887Y-89842384D01*
X13767040Y-89761957D01*
X13598552Y-89707213D01*
X13423582Y-89679500D01*
X13423579Y-89679500D01*
X13246421Y-89679500D01*
X13246418Y-89679500D01*
X13071447Y-89707213D01*
X12902959Y-89761957D01*
X12745112Y-89842384D01*
X12601787Y-89946516D01*
X12476516Y-90071787D01*
X12372384Y-90215112D01*
X12291957Y-90372959D01*
X12237213Y-90541447D01*
X12209500Y-90716417D01*
X9697500Y-90716417D01*
X9669786Y-90541447D01*
X9669786Y-90541445D01*
X9615042Y-90372958D01*
X9534614Y-90215110D01*
X9430483Y-90071786D01*
X9305214Y-89946517D01*
X9161890Y-89842386D01*
X9161889Y-89842385D01*
X9161887Y-89842384D01*
X9004040Y-89761957D01*
X8835552Y-89707213D01*
X8660582Y-89679500D01*
X8660579Y-89679500D01*
X8483421Y-89679500D01*
X8483418Y-89679500D01*
X8308447Y-89707213D01*
X8139959Y-89761957D01*
X7982112Y-89842384D01*
X7838787Y-89946516D01*
X7713516Y-90071787D01*
X7609384Y-90215112D01*
X7528957Y-90372959D01*
X7474213Y-90541447D01*
X7446500Y-90716417D01*
X-2653000Y-90716417D01*
X-2653000Y-87220343D01*
X85600500Y-87220343D01*
X85600500Y-87378457D01*
X85641423Y-87531184D01*
X85720480Y-87668116D01*
X85832284Y-87779920D01*
X85969216Y-87858977D01*
X86121943Y-87899900D01*
X86121945Y-87899900D01*
X86280055Y-87899900D01*
X86280057Y-87899900D01*
X86432784Y-87858977D01*
X86569716Y-87779920D01*
X86595229Y-87754406D01*
X86620741Y-87728896D01*
X86675258Y-87701119D01*
X86690744Y-87699900D01*
X90467400Y-87699900D01*
X90525591Y-87718807D01*
X90561555Y-87768307D01*
X90566400Y-87798900D01*
X90566400Y-91599456D01*
X90547493Y-91657647D01*
X90537404Y-91669459D01*
X90486382Y-91720481D01*
X90486380Y-91720483D01*
X90486380Y-91720484D01*
X90407323Y-91857416D01*
X90366400Y-92010143D01*
X90366400Y-92168257D01*
X90407323Y-92320984D01*
X90486380Y-92457916D01*
X90598184Y-92569720D01*
X90735116Y-92648777D01*
X90887843Y-92689700D01*
X90887845Y-92689700D01*
X91045955Y-92689700D01*
X91045957Y-92689700D01*
X91198684Y-92648777D01*
X91335616Y-92569720D01*
X91447420Y-92457916D01*
X91526477Y-92320984D01*
X91567400Y-92168257D01*
X91567400Y-92010143D01*
X91526477Y-91857416D01*
X91447420Y-91720484D01*
X91447417Y-91720481D01*
X91396396Y-91669459D01*
X91368619Y-91614942D01*
X91367400Y-91599456D01*
X91367400Y-87798900D01*
X91386307Y-87740709D01*
X91435807Y-87704745D01*
X91466400Y-87699900D01*
X101837625Y-87699900D01*
X101837627Y-87699900D01*
X101939488Y-87672607D01*
X101939490Y-87672605D01*
X101939492Y-87672605D01*
X102030808Y-87619883D01*
X102030808Y-87619882D01*
X102030813Y-87619880D01*
X106523064Y-83127628D01*
X108701825Y-83127628D01*
X108701825Y-83360242D01*
X108732188Y-83590865D01*
X108784293Y-83785323D01*
X108792391Y-83815545D01*
X108792395Y-83815558D01*
X108881408Y-84030456D01*
X108881410Y-84030461D01*
X108997715Y-84231906D01*
X109139317Y-84416447D01*
X109139319Y-84416449D01*
X109139323Y-84416454D01*
X109303806Y-84580937D01*
X109303810Y-84580940D01*
X109303812Y-84580942D01*
X109342985Y-84611000D01*
X109488351Y-84722543D01*
X109689800Y-84838850D01*
X109904707Y-84927867D01*
X110129395Y-84988072D01*
X110360018Y-85018435D01*
X110360019Y-85018435D01*
X110592631Y-85018435D01*
X110592632Y-85018435D01*
X110823255Y-84988072D01*
X111047943Y-84927867D01*
X111262850Y-84838850D01*
X111464299Y-84722543D01*
X111648844Y-84580937D01*
X111813327Y-84416454D01*
X111954933Y-84231909D01*
X112071240Y-84030460D01*
X112160257Y-83815553D01*
X112160451Y-83814830D01*
X121390464Y-83814830D01*
X121390464Y-83991995D01*
X121418177Y-84166965D01*
X121472921Y-84335453D01*
X121552186Y-84491020D01*
X121553350Y-84493303D01*
X121657481Y-84636627D01*
X121782750Y-84761896D01*
X121926074Y-84866027D01*
X122083922Y-84946455D01*
X122252409Y-85001199D01*
X122322399Y-85012284D01*
X122427382Y-85028913D01*
X122427385Y-85028913D01*
X122604546Y-85028913D01*
X122692031Y-85015056D01*
X122779519Y-85001199D01*
X122948006Y-84946455D01*
X123105854Y-84866027D01*
X123249178Y-84761896D01*
X123374447Y-84636627D01*
X123478578Y-84493303D01*
X123559006Y-84335455D01*
X123613750Y-84166968D01*
X123641464Y-83991992D01*
X123641464Y-83814834D01*
X123641464Y-83814830D01*
X123613750Y-83639860D01*
X123613750Y-83639858D01*
X123559006Y-83471371D01*
X123478578Y-83313523D01*
X123374447Y-83170199D01*
X123249178Y-83044930D01*
X123105854Y-82940799D01*
X123105853Y-82940798D01*
X123105851Y-82940797D01*
X122948004Y-82860370D01*
X122779516Y-82805626D01*
X122604546Y-82777913D01*
X122604543Y-82777913D01*
X122427385Y-82777913D01*
X122427382Y-82777913D01*
X122252411Y-82805626D01*
X122083923Y-82860370D01*
X121926076Y-82940797D01*
X121782751Y-83044929D01*
X121657480Y-83170200D01*
X121553348Y-83313525D01*
X121472921Y-83471372D01*
X121418177Y-83639860D01*
X121390464Y-83814830D01*
X112160451Y-83814830D01*
X112168358Y-83785323D01*
X112168358Y-83785321D01*
X112177798Y-83750088D01*
X112220462Y-83590865D01*
X112250825Y-83360242D01*
X112250825Y-83127628D01*
X112220462Y-82897005D01*
X112160257Y-82672317D01*
X112071240Y-82457410D01*
X111954933Y-82255961D01*
X111813327Y-82071416D01*
X111648844Y-81906933D01*
X111648839Y-81906929D01*
X111648837Y-81906927D01*
X111524172Y-81811269D01*
X111464299Y-81765327D01*
X111464296Y-81765325D01*
X111262851Y-81649020D01*
X111262846Y-81649018D01*
X111047948Y-81560005D01*
X111047947Y-81560004D01*
X111047943Y-81560003D01*
X110823255Y-81499798D01*
X110823250Y-81499797D01*
X110823249Y-81499797D01*
X110592632Y-81469435D01*
X110360018Y-81469435D01*
X110360017Y-81469435D01*
X110129400Y-81499797D01*
X110129397Y-81499797D01*
X110129395Y-81499798D01*
X109964917Y-81543869D01*
X109904714Y-81560001D01*
X109904701Y-81560005D01*
X109689803Y-81649018D01*
X109689798Y-81649020D01*
X109488353Y-81765325D01*
X109303812Y-81906927D01*
X109139317Y-82071422D01*
X108997715Y-82255963D01*
X108881410Y-82457408D01*
X108881408Y-82457413D01*
X108843906Y-82547952D01*
X108792393Y-82672317D01*
X108742005Y-82860370D01*
X108732187Y-82897010D01*
X108726422Y-82940799D01*
X108701825Y-83127628D01*
X106523064Y-83127628D01*
X108993548Y-80657144D01*
X132385825Y-80657144D01*
X132385825Y-80889759D01*
X132400057Y-80997863D01*
X132416188Y-81120382D01*
X132451639Y-81252685D01*
X132476391Y-81345062D01*
X132476395Y-81345075D01*
X132565405Y-81559967D01*
X132565410Y-81559978D01*
X132670955Y-81742786D01*
X132681717Y-81761426D01*
X132688680Y-81770500D01*
X132823317Y-81945964D01*
X132823319Y-81945966D01*
X132823323Y-81945971D01*
X132987806Y-82110454D01*
X132987810Y-82110457D01*
X132987812Y-82110459D01*
X133066341Y-82170716D01*
X133172351Y-82252060D01*
X133373800Y-82368367D01*
X133588707Y-82457384D01*
X133813395Y-82517589D01*
X134044018Y-82547952D01*
X134044019Y-82547952D01*
X134276631Y-82547952D01*
X134276632Y-82547952D01*
X134507255Y-82517589D01*
X134731943Y-82457384D01*
X134946850Y-82368367D01*
X135148299Y-82252060D01*
X135332844Y-82110454D01*
X135497327Y-81945971D01*
X135638933Y-81761426D01*
X135755240Y-81559977D01*
X135755241Y-81559973D01*
X135755245Y-81559967D01*
X135811025Y-81425300D01*
X135844257Y-81345070D01*
X135904462Y-81120382D01*
X135934825Y-80889759D01*
X135934825Y-80657145D01*
X135904462Y-80426522D01*
X135844257Y-80201834D01*
X135755240Y-79986927D01*
X135638933Y-79785478D01*
X135497327Y-79600933D01*
X135332844Y-79436450D01*
X135332839Y-79436446D01*
X135332837Y-79436444D01*
X135148296Y-79294842D01*
X134946851Y-79178537D01*
X134946846Y-79178535D01*
X134731948Y-79089522D01*
X134731947Y-79089521D01*
X134731943Y-79089520D01*
X134507255Y-79029315D01*
X134507250Y-79029314D01*
X134507249Y-79029314D01*
X134276632Y-78998952D01*
X134044018Y-78998952D01*
X134044017Y-78998952D01*
X133813400Y-79029314D01*
X133813397Y-79029314D01*
X133813395Y-79029315D01*
X133723509Y-79053400D01*
X133588714Y-79089518D01*
X133588701Y-79089522D01*
X133373803Y-79178535D01*
X133373798Y-79178537D01*
X133172353Y-79294842D01*
X132987812Y-79436444D01*
X132823317Y-79600939D01*
X132681715Y-79785480D01*
X132565410Y-79986925D01*
X132565408Y-79986930D01*
X132477249Y-80199767D01*
X132476393Y-80201834D01*
X132417218Y-80422680D01*
X132416187Y-80426527D01*
X132385825Y-80657144D01*
X108993548Y-80657144D01*
X113429396Y-76221295D01*
X113483913Y-76193519D01*
X113499400Y-76192300D01*
X113571555Y-76192300D01*
X113571557Y-76192300D01*
X113724284Y-76151377D01*
X113861216Y-76072320D01*
X113973020Y-75960516D01*
X114052077Y-75823584D01*
X114093000Y-75670857D01*
X114093000Y-75512743D01*
X114052077Y-75360016D01*
X113973020Y-75223084D01*
X113862008Y-75112072D01*
X126462841Y-75112072D01*
X126462841Y-75289237D01*
X126490554Y-75464207D01*
X126545298Y-75632695D01*
X126564742Y-75670857D01*
X126625727Y-75790545D01*
X126729858Y-75933869D01*
X126855127Y-76059138D01*
X126998451Y-76163269D01*
X127156299Y-76243697D01*
X127324786Y-76298441D01*
X127394776Y-76309526D01*
X127499759Y-76326155D01*
X127499762Y-76326155D01*
X127676923Y-76326155D01*
X127764408Y-76312298D01*
X127851896Y-76298441D01*
X128020383Y-76243697D01*
X128178231Y-76163269D01*
X128321555Y-76059138D01*
X128446824Y-75933869D01*
X128550955Y-75790545D01*
X128631383Y-75632697D01*
X128686127Y-75464210D01*
X128713841Y-75289234D01*
X128713841Y-75112076D01*
X128713841Y-75112072D01*
X128689022Y-74955377D01*
X128686127Y-74937100D01*
X128631383Y-74768613D01*
X128550955Y-74610765D01*
X128446824Y-74467441D01*
X128321555Y-74342172D01*
X128178231Y-74238041D01*
X128178230Y-74238040D01*
X128178228Y-74238039D01*
X128020381Y-74157612D01*
X127851893Y-74102868D01*
X127676923Y-74075155D01*
X127676920Y-74075155D01*
X127499762Y-74075155D01*
X127499759Y-74075155D01*
X127324788Y-74102868D01*
X127156300Y-74157612D01*
X126998453Y-74238039D01*
X126855128Y-74342171D01*
X126729857Y-74467442D01*
X126625725Y-74610767D01*
X126545298Y-74768614D01*
X126490554Y-74937102D01*
X126462841Y-75112072D01*
X113862008Y-75112072D01*
X113861216Y-75111280D01*
X113724284Y-75032223D01*
X113571557Y-74991300D01*
X113413443Y-74991300D01*
X113260716Y-75032223D01*
X113123784Y-75111280D01*
X113011980Y-75223084D01*
X112932923Y-75360016D01*
X112905005Y-75464210D01*
X112892000Y-75512744D01*
X112892000Y-75584899D01*
X112873093Y-75643090D01*
X112863004Y-75654903D01*
X101648003Y-86869904D01*
X101593486Y-86897681D01*
X101577999Y-86898900D01*
X86690744Y-86898900D01*
X86632553Y-86879993D01*
X86620741Y-86869904D01*
X86569718Y-86818882D01*
X86569716Y-86818880D01*
X86432784Y-86739823D01*
X86280057Y-86698900D01*
X86121943Y-86698900D01*
X85969216Y-86739823D01*
X85832284Y-86818880D01*
X85720480Y-86930684D01*
X85641423Y-87067616D01*
X85600500Y-87220343D01*
X-2653000Y-87220343D01*
X-2653000Y-81175001D01*
X-2654400Y-81145592D01*
X-2658799Y-81116501D01*
X-2665898Y-81087906D01*
X-2665898Y-81087904D01*
X-2675798Y-81060204D01*
X-2688402Y-81033594D01*
X-2703599Y-81008301D01*
X-2721097Y-80984704D01*
X-2721104Y-80984694D01*
X-2740886Y-80962914D01*
X-2740914Y-80962886D01*
X-2762694Y-80943104D01*
X-2762704Y-80943097D01*
X-2786301Y-80925599D01*
X-2811594Y-80910402D01*
X-2838204Y-80897798D01*
X-2865905Y-80887898D01*
X-2894501Y-80880799D01*
X-2923594Y-80876400D01*
X-2923590Y-80876400D01*
X-2950327Y-80875127D01*
X-2953000Y-80875000D01*
X-2953001Y-80875000D01*
X-6962980Y-80875000D01*
X-6996351Y-80869206D01*
X-6997471Y-80868805D01*
X-7006466Y-80865076D01*
X-7064145Y-80837766D01*
X-7072627Y-80833233D01*
X-7127351Y-80800475D01*
X-7135514Y-80795021D01*
X-7186652Y-80757058D01*
X-7192710Y-80751630D01*
X-7194131Y-80750917D01*
X-7241461Y-80708013D01*
X-7248320Y-80701154D01*
X-7291219Y-80653829D01*
X-7297360Y-80646351D01*
X-7323201Y-80611543D01*
X-7323201Y-80611541D01*
X-7335318Y-80595220D01*
X-7340773Y-80587055D01*
X-7359112Y-80556417D01*
X7446500Y-80556417D01*
X7446500Y-80733582D01*
X7474213Y-80908552D01*
X7528957Y-81077040D01*
X7584252Y-81185563D01*
X7609386Y-81234890D01*
X7713517Y-81378214D01*
X7838786Y-81503483D01*
X7982110Y-81607614D01*
X8139958Y-81688042D01*
X8308445Y-81742786D01*
X8378435Y-81753871D01*
X8483418Y-81770500D01*
X8483421Y-81770500D01*
X8660582Y-81770500D01*
X8748067Y-81756643D01*
X8835555Y-81742786D01*
X9004042Y-81688042D01*
X9161890Y-81607614D01*
X9305214Y-81503483D01*
X9430483Y-81378214D01*
X9534614Y-81234890D01*
X9615042Y-81077042D01*
X9669786Y-80908555D01*
X9687304Y-80797952D01*
X9697500Y-80733582D01*
X9697500Y-80556417D01*
X12209500Y-80556417D01*
X12209500Y-80733582D01*
X12237213Y-80908552D01*
X12291957Y-81077040D01*
X12347252Y-81185563D01*
X12372386Y-81234890D01*
X12476517Y-81378214D01*
X12601786Y-81503483D01*
X12745110Y-81607614D01*
X12902958Y-81688042D01*
X13071445Y-81742786D01*
X13141435Y-81753871D01*
X13246418Y-81770500D01*
X13246421Y-81770500D01*
X13423582Y-81770500D01*
X13511067Y-81756643D01*
X13598555Y-81742786D01*
X13767042Y-81688042D01*
X13924890Y-81607614D01*
X14068214Y-81503483D01*
X14193483Y-81378214D01*
X14297614Y-81234890D01*
X14378042Y-81077042D01*
X14432786Y-80908555D01*
X14450304Y-80797952D01*
X14460500Y-80733582D01*
X14460500Y-80556417D01*
X26496500Y-80556417D01*
X26496500Y-80733582D01*
X26524213Y-80908552D01*
X26578957Y-81077040D01*
X26634252Y-81185563D01*
X26659386Y-81234890D01*
X26763517Y-81378214D01*
X26888786Y-81503483D01*
X27032110Y-81607614D01*
X27189958Y-81688042D01*
X27358445Y-81742786D01*
X27428435Y-81753871D01*
X27533418Y-81770500D01*
X27533421Y-81770500D01*
X27710582Y-81770500D01*
X27798067Y-81756643D01*
X27885555Y-81742786D01*
X28054042Y-81688042D01*
X28211890Y-81607614D01*
X28355214Y-81503483D01*
X28480483Y-81378214D01*
X28584614Y-81234890D01*
X28665042Y-81077042D01*
X28719786Y-80908555D01*
X28737304Y-80797952D01*
X28747500Y-80733582D01*
X28747500Y-80556417D01*
X28725748Y-80419090D01*
X28719786Y-80381445D01*
X28665042Y-80212958D01*
X28584614Y-80055110D01*
X28480483Y-79911786D01*
X28355214Y-79786517D01*
X28211890Y-79682386D01*
X28211889Y-79682385D01*
X28211887Y-79682384D01*
X28054040Y-79601957D01*
X27885552Y-79547213D01*
X27710582Y-79519500D01*
X27710579Y-79519500D01*
X27533421Y-79519500D01*
X27533418Y-79519500D01*
X27358447Y-79547213D01*
X27189959Y-79601957D01*
X27032112Y-79682384D01*
X26888787Y-79786516D01*
X26763516Y-79911787D01*
X26659384Y-80055112D01*
X26578957Y-80212959D01*
X26524213Y-80381447D01*
X26496500Y-80556417D01*
X14460500Y-80556417D01*
X14438748Y-80419090D01*
X14432786Y-80381445D01*
X14378042Y-80212958D01*
X14297614Y-80055110D01*
X14193483Y-79911786D01*
X14068214Y-79786517D01*
X13924890Y-79682386D01*
X13924889Y-79682385D01*
X13924887Y-79682384D01*
X13767040Y-79601957D01*
X13598552Y-79547213D01*
X13423582Y-79519500D01*
X13423579Y-79519500D01*
X13246421Y-79519500D01*
X13246418Y-79519500D01*
X13071447Y-79547213D01*
X12902959Y-79601957D01*
X12745112Y-79682384D01*
X12601787Y-79786516D01*
X12476516Y-79911787D01*
X12372384Y-80055112D01*
X12291957Y-80212959D01*
X12237213Y-80381447D01*
X12209500Y-80556417D01*
X9697500Y-80556417D01*
X9675748Y-80419090D01*
X9669786Y-80381445D01*
X9615042Y-80212958D01*
X9534614Y-80055110D01*
X9430483Y-79911786D01*
X9305214Y-79786517D01*
X9161890Y-79682386D01*
X9161889Y-79682385D01*
X9161887Y-79682384D01*
X9004040Y-79601957D01*
X8835552Y-79547213D01*
X8660582Y-79519500D01*
X8660579Y-79519500D01*
X8483421Y-79519500D01*
X8483418Y-79519500D01*
X8308447Y-79547213D01*
X8139959Y-79601957D01*
X7982112Y-79682384D01*
X7838787Y-79786516D01*
X7713516Y-79911787D01*
X7609384Y-80055112D01*
X7528957Y-80212959D01*
X7474213Y-80381447D01*
X7446500Y-80556417D01*
X-7359112Y-80556417D01*
X-7373539Y-80532315D01*
X-7378071Y-80523835D01*
X-7405373Y-80466174D01*
X-7409099Y-80457189D01*
X-7409476Y-80456136D01*
X-7409503Y-80456058D01*
X-7415300Y-80422680D01*
X-7415300Y-74782892D01*
X1565350Y-74782892D01*
X1565350Y-75077107D01*
X1603751Y-75368792D01*
X1603751Y-75368797D01*
X1679898Y-75652979D01*
X1679902Y-75652992D01*
X1792487Y-75924799D01*
X1792489Y-75924804D01*
X1939593Y-76179594D01*
X1939595Y-76179597D01*
X1950278Y-76193519D01*
X2118694Y-76413004D01*
X2118696Y-76413006D01*
X2118700Y-76413011D01*
X2326739Y-76621050D01*
X2326743Y-76621053D01*
X2326745Y-76621055D01*
X2426067Y-76697267D01*
X2560153Y-76800155D01*
X2814947Y-76947261D01*
X3086763Y-77059850D01*
X3370950Y-77135998D01*
X3662644Y-77174400D01*
X3662645Y-77174400D01*
X3956855Y-77174400D01*
X3956856Y-77174400D01*
X4248550Y-77135998D01*
X4532737Y-77059850D01*
X4804553Y-76947261D01*
X5059347Y-76800155D01*
X5292761Y-76621050D01*
X5500800Y-76413011D01*
X5679905Y-76179597D01*
X5827011Y-75924803D01*
X5939600Y-75652987D01*
X6015748Y-75368800D01*
X6054150Y-75077106D01*
X6054150Y-74782894D01*
X6015748Y-74491200D01*
X5939600Y-74207013D01*
X5827011Y-73935197D01*
X5815333Y-73914971D01*
X5719881Y-73749644D01*
X5679905Y-73680403D01*
X5548754Y-73509484D01*
X5500805Y-73446995D01*
X5500803Y-73446993D01*
X5500800Y-73446989D01*
X5292761Y-73238950D01*
X5292756Y-73238946D01*
X5292754Y-73238944D01*
X5118710Y-73105396D01*
X5059347Y-73059845D01*
X5010760Y-73031793D01*
X4804554Y-72912739D01*
X4804549Y-72912737D01*
X4532742Y-72800152D01*
X4532741Y-72800151D01*
X4532737Y-72800150D01*
X4248550Y-72724002D01*
X4248547Y-72724001D01*
X4248545Y-72724001D01*
X3956857Y-72685600D01*
X3956856Y-72685600D01*
X3662644Y-72685600D01*
X3662642Y-72685600D01*
X3370957Y-72724001D01*
X3370952Y-72724001D01*
X3086770Y-72800148D01*
X3086757Y-72800152D01*
X2814950Y-72912737D01*
X2814945Y-72912739D01*
X2560155Y-73059843D01*
X2326745Y-73238944D01*
X2118694Y-73446995D01*
X1939593Y-73680405D01*
X1792489Y-73935195D01*
X1792487Y-73935200D01*
X1679902Y-74207007D01*
X1679898Y-74207020D01*
X1603751Y-74491202D01*
X1603751Y-74491207D01*
X1565350Y-74782892D01*
X-7415300Y-74782892D01*
X-7415300Y-71666417D01*
X14590500Y-71666417D01*
X14590500Y-71843582D01*
X14618213Y-72018552D01*
X14672957Y-72187040D01*
X14742371Y-72323273D01*
X14753386Y-72344890D01*
X14857517Y-72488214D01*
X14982786Y-72613483D01*
X15126110Y-72717614D01*
X15283958Y-72798042D01*
X15452445Y-72852786D01*
X15522435Y-72863871D01*
X15627418Y-72880500D01*
X15627421Y-72880500D01*
X15804582Y-72880500D01*
X15892067Y-72866643D01*
X15979555Y-72852786D01*
X16148042Y-72798042D01*
X16305890Y-72717614D01*
X16449214Y-72613483D01*
X16574483Y-72488214D01*
X16678614Y-72344890D01*
X16759042Y-72187042D01*
X16813786Y-72018555D01*
X16840708Y-71848581D01*
X16841500Y-71843582D01*
X16841500Y-71666417D01*
X16814578Y-71496446D01*
X16813786Y-71491445D01*
X16759042Y-71322958D01*
X16678614Y-71165110D01*
X16574483Y-71021786D01*
X16449214Y-70896517D01*
X16305890Y-70792386D01*
X16305889Y-70792385D01*
X16305887Y-70792384D01*
X16148040Y-70711957D01*
X15979552Y-70657213D01*
X15804582Y-70629500D01*
X15804579Y-70629500D01*
X15627421Y-70629500D01*
X15627418Y-70629500D01*
X15452447Y-70657213D01*
X15283959Y-70711957D01*
X15126112Y-70792384D01*
X14982787Y-70896516D01*
X14857516Y-71021787D01*
X14753384Y-71165112D01*
X14672957Y-71322959D01*
X14618213Y-71491447D01*
X14590500Y-71666417D01*
X-7415300Y-71666417D01*
X-7415300Y-67301043D01*
X18133800Y-67301043D01*
X18133800Y-67459157D01*
X18174723Y-67611884D01*
X18253780Y-67748816D01*
X18365584Y-67860620D01*
X18502516Y-67939677D01*
X18655243Y-67980600D01*
X18727399Y-67980600D01*
X18785590Y-67999507D01*
X18797403Y-68009596D01*
X23567003Y-72779196D01*
X23594780Y-72833713D01*
X23585209Y-72894145D01*
X23567003Y-72919204D01*
X22719903Y-73766304D01*
X22665386Y-73794081D01*
X22649899Y-73795300D01*
X22577743Y-73795300D01*
X22425016Y-73836223D01*
X22288084Y-73915280D01*
X22176280Y-74027084D01*
X22097223Y-74164016D01*
X22056300Y-74316743D01*
X22056300Y-74474857D01*
X22097223Y-74627584D01*
X22176280Y-74764516D01*
X22288084Y-74876320D01*
X22425016Y-74955377D01*
X22577743Y-74996300D01*
X22577745Y-74996300D01*
X22735855Y-74996300D01*
X22735857Y-74996300D01*
X22888584Y-74955377D01*
X23025516Y-74876320D01*
X23118944Y-74782892D01*
X25377850Y-74782892D01*
X25377850Y-75077107D01*
X25416251Y-75368792D01*
X25416251Y-75368797D01*
X25492398Y-75652979D01*
X25492402Y-75652992D01*
X25604987Y-75924799D01*
X25604989Y-75924804D01*
X25752093Y-76179594D01*
X25752095Y-76179597D01*
X25762778Y-76193519D01*
X25931194Y-76413004D01*
X25931196Y-76413006D01*
X25931200Y-76413011D01*
X26139239Y-76621050D01*
X26139243Y-76621053D01*
X26139245Y-76621055D01*
X26238567Y-76697267D01*
X26372653Y-76800155D01*
X26627447Y-76947261D01*
X26899263Y-77059850D01*
X27183450Y-77135998D01*
X27475144Y-77174400D01*
X27475145Y-77174400D01*
X27769355Y-77174400D01*
X27769356Y-77174400D01*
X28061050Y-77135998D01*
X28345237Y-77059850D01*
X28617053Y-76947261D01*
X28871847Y-76800155D01*
X29105261Y-76621050D01*
X29313300Y-76413011D01*
X29492405Y-76179597D01*
X29639511Y-75924803D01*
X29752100Y-75652987D01*
X29828248Y-75368800D01*
X29866650Y-75077106D01*
X29866650Y-74782894D01*
X29828248Y-74491200D01*
X29752100Y-74207013D01*
X29639511Y-73935197D01*
X29627833Y-73914971D01*
X29532381Y-73749644D01*
X29492405Y-73680403D01*
X29361254Y-73509484D01*
X29313305Y-73446995D01*
X29313303Y-73446993D01*
X29313300Y-73446989D01*
X29105261Y-73238950D01*
X29105256Y-73238946D01*
X29105254Y-73238944D01*
X28931210Y-73105396D01*
X28871847Y-73059845D01*
X28823260Y-73031793D01*
X28617054Y-72912739D01*
X28617049Y-72912737D01*
X28345242Y-72800152D01*
X28345241Y-72800151D01*
X28345237Y-72800150D01*
X28061050Y-72724002D01*
X28061047Y-72724001D01*
X28061045Y-72724001D01*
X27769357Y-72685600D01*
X27769356Y-72685600D01*
X27475144Y-72685600D01*
X27475142Y-72685600D01*
X27183457Y-72724001D01*
X27183452Y-72724001D01*
X26899270Y-72800148D01*
X26899257Y-72800152D01*
X26627450Y-72912737D01*
X26627445Y-72912739D01*
X26372655Y-73059843D01*
X26139245Y-73238944D01*
X25931194Y-73446995D01*
X25752093Y-73680405D01*
X25604989Y-73935195D01*
X25604987Y-73935200D01*
X25492402Y-74207007D01*
X25492398Y-74207020D01*
X25416251Y-74491202D01*
X25416251Y-74491207D01*
X25377850Y-74782892D01*
X23118944Y-74782892D01*
X23137320Y-74764516D01*
X23216377Y-74627584D01*
X23257300Y-74474857D01*
X23257300Y-74402699D01*
X23276207Y-74344508D01*
X23286290Y-74332701D01*
X24449310Y-73169681D01*
X24449313Y-73169680D01*
X25952575Y-71666417D01*
X45547500Y-71666417D01*
X45547500Y-71843582D01*
X45575213Y-72018552D01*
X45629957Y-72187040D01*
X45699371Y-72323273D01*
X45710386Y-72344890D01*
X45814517Y-72488214D01*
X45939786Y-72613483D01*
X46083110Y-72717614D01*
X46240958Y-72798042D01*
X46409445Y-72852786D01*
X46479435Y-72863871D01*
X46584418Y-72880500D01*
X46584421Y-72880500D01*
X46761582Y-72880500D01*
X46849067Y-72866643D01*
X46936555Y-72852786D01*
X47105042Y-72798042D01*
X47262890Y-72717614D01*
X47406214Y-72613483D01*
X47531483Y-72488214D01*
X47635614Y-72344890D01*
X47716042Y-72187042D01*
X47770786Y-72018555D01*
X47797708Y-71848581D01*
X47798500Y-71843582D01*
X47798500Y-71666417D01*
X47771578Y-71496446D01*
X47770786Y-71491445D01*
X47716042Y-71322958D01*
X47635614Y-71165110D01*
X47531483Y-71021786D01*
X47406214Y-70896517D01*
X47262890Y-70792386D01*
X47262889Y-70792385D01*
X47262887Y-70792384D01*
X47105040Y-70711957D01*
X46936552Y-70657213D01*
X46761582Y-70629500D01*
X46761579Y-70629500D01*
X46584421Y-70629500D01*
X46584418Y-70629500D01*
X46409447Y-70657213D01*
X46240959Y-70711957D01*
X46083112Y-70792384D01*
X45939787Y-70896516D01*
X45814516Y-71021787D01*
X45710384Y-71165112D01*
X45629957Y-71322959D01*
X45575213Y-71491447D01*
X45547500Y-71666417D01*
X25952575Y-71666417D01*
X27559596Y-70059395D01*
X27614113Y-70031619D01*
X27629600Y-70030400D01*
X54703399Y-70030400D01*
X54761590Y-70049307D01*
X54797554Y-70098807D01*
X54797554Y-70159993D01*
X54773403Y-70199404D01*
X53208303Y-71764504D01*
X53153786Y-71792281D01*
X53138299Y-71793500D01*
X53066143Y-71793500D01*
X52913416Y-71834423D01*
X52776484Y-71913480D01*
X52664680Y-72025284D01*
X52585623Y-72162216D01*
X52544700Y-72314943D01*
X52544700Y-72473057D01*
X52585623Y-72625784D01*
X52664680Y-72762716D01*
X52776484Y-72874520D01*
X52913416Y-72953577D01*
X53066143Y-72994500D01*
X53066145Y-72994500D01*
X53224255Y-72994500D01*
X53224257Y-72994500D01*
X53376984Y-72953577D01*
X53513916Y-72874520D01*
X53625720Y-72762716D01*
X53704777Y-72625784D01*
X53745700Y-72473057D01*
X53745700Y-72400901D01*
X53764607Y-72342710D01*
X53774696Y-72330897D01*
X55644497Y-70461096D01*
X55699014Y-70433319D01*
X55714501Y-70432100D01*
X57433909Y-70432100D01*
X57492100Y-70451007D01*
X57528064Y-70500507D01*
X57529296Y-70547580D01*
X57531047Y-70547811D01*
X57530200Y-70554242D01*
X57530200Y-70554243D01*
X57530200Y-70712357D01*
X57571123Y-70865084D01*
X57650180Y-71002016D01*
X57761984Y-71113820D01*
X57898916Y-71192877D01*
X58051643Y-71233800D01*
X58051645Y-71233800D01*
X58209755Y-71233800D01*
X58209757Y-71233800D01*
X58362484Y-71192877D01*
X58499416Y-71113820D01*
X58525339Y-71087897D01*
X58550441Y-71062796D01*
X58604958Y-71035019D01*
X58620444Y-71033800D01*
X64197825Y-71033800D01*
X64197827Y-71033800D01*
X64299688Y-71006507D01*
X64299690Y-71006505D01*
X64299692Y-71006505D01*
X64391008Y-70953783D01*
X64391008Y-70953782D01*
X64391013Y-70953780D01*
X64593495Y-70751296D01*
X64648012Y-70723519D01*
X64663499Y-70722300D01*
X64940425Y-70722300D01*
X64998616Y-70741207D01*
X65034580Y-70790707D01*
X65034580Y-70851893D01*
X65000841Y-70898330D01*
X65001404Y-70898989D01*
X64998660Y-70901332D01*
X64998617Y-70901392D01*
X64998448Y-70901514D01*
X64873176Y-71026786D01*
X64769044Y-71170111D01*
X64688617Y-71327958D01*
X64633873Y-71496446D01*
X64606160Y-71671416D01*
X64606160Y-71848581D01*
X64633873Y-72023551D01*
X64688617Y-72192039D01*
X64766498Y-72344890D01*
X64769046Y-72349889D01*
X64873177Y-72493213D01*
X64998446Y-72618482D01*
X65141770Y-72722613D01*
X65299618Y-72803041D01*
X65468105Y-72857785D01*
X65538095Y-72868870D01*
X65643078Y-72885499D01*
X65643081Y-72885499D01*
X65820242Y-72885499D01*
X65907727Y-72871642D01*
X65995215Y-72857785D01*
X66163702Y-72803041D01*
X66321550Y-72722613D01*
X66464874Y-72618482D01*
X66590143Y-72493213D01*
X66694274Y-72349889D01*
X66774702Y-72192041D01*
X66829446Y-72023554D01*
X66857160Y-71848578D01*
X66857160Y-71671420D01*
X66857160Y-71671416D01*
X66829446Y-71496446D01*
X66829446Y-71496444D01*
X66774702Y-71327957D01*
X66694274Y-71170109D01*
X66590143Y-71026785D01*
X66464874Y-70901516D01*
X66464702Y-70901391D01*
X66464659Y-70901332D01*
X66461916Y-70898989D01*
X66462478Y-70898330D01*
X66428740Y-70851892D01*
X66428741Y-70790706D01*
X66464705Y-70741207D01*
X66522895Y-70722300D01*
X67582899Y-70722300D01*
X67641090Y-70741207D01*
X67652903Y-70751296D01*
X70515003Y-73613396D01*
X70542780Y-73667913D01*
X70533209Y-73728345D01*
X70489944Y-73771610D01*
X70444999Y-73782400D01*
X39146227Y-73782400D01*
X39040773Y-73782400D01*
X38992629Y-73795300D01*
X38938907Y-73809694D01*
X38847591Y-73862416D01*
X29129003Y-83581004D01*
X29074486Y-83608781D01*
X29058999Y-83610000D01*
X21017744Y-83610000D01*
X20959553Y-83591093D01*
X20947741Y-83581004D01*
X20896718Y-83529982D01*
X20896716Y-83529980D01*
X20759784Y-83450923D01*
X20607057Y-83410000D01*
X20448943Y-83410000D01*
X20296216Y-83450923D01*
X20159284Y-83529980D01*
X20047480Y-83641784D01*
X19968423Y-83778716D01*
X19927500Y-83931443D01*
X19927500Y-84089557D01*
X19968423Y-84242284D01*
X20047480Y-84379216D01*
X20159284Y-84491020D01*
X20296216Y-84570077D01*
X20448943Y-84611000D01*
X20448945Y-84611000D01*
X20607055Y-84611000D01*
X20607057Y-84611000D01*
X20759784Y-84570077D01*
X20896716Y-84491020D01*
X20922229Y-84465506D01*
X20947741Y-84439996D01*
X21002258Y-84412219D01*
X21017744Y-84411000D01*
X29318625Y-84411000D01*
X29318627Y-84411000D01*
X29420488Y-84383707D01*
X29420490Y-84383705D01*
X29420492Y-84383705D01*
X29511808Y-84330983D01*
X29511808Y-84330982D01*
X29511813Y-84330980D01*
X33286376Y-80556417D01*
X40784500Y-80556417D01*
X40784500Y-80733582D01*
X40812213Y-80908552D01*
X40866957Y-81077040D01*
X40922252Y-81185563D01*
X40947386Y-81234890D01*
X41051517Y-81378214D01*
X41176786Y-81503483D01*
X41320110Y-81607614D01*
X41477958Y-81688042D01*
X41646445Y-81742786D01*
X41716435Y-81753871D01*
X41821418Y-81770500D01*
X41821421Y-81770500D01*
X41998582Y-81770500D01*
X42086067Y-81756643D01*
X42173555Y-81742786D01*
X42342042Y-81688042D01*
X42499890Y-81607614D01*
X42643214Y-81503483D01*
X42768483Y-81378214D01*
X42872614Y-81234890D01*
X42953042Y-81077042D01*
X43007786Y-80908555D01*
X43025304Y-80797952D01*
X43035500Y-80733582D01*
X43035500Y-80556417D01*
X45547500Y-80556417D01*
X45547500Y-80733582D01*
X45575213Y-80908552D01*
X45629957Y-81077040D01*
X45685252Y-81185563D01*
X45710386Y-81234890D01*
X45814517Y-81378214D01*
X45939786Y-81503483D01*
X46083110Y-81607614D01*
X46240958Y-81688042D01*
X46409445Y-81742786D01*
X46479435Y-81753871D01*
X46584418Y-81770500D01*
X46584421Y-81770500D01*
X46761582Y-81770500D01*
X46849067Y-81756643D01*
X46936555Y-81742786D01*
X47105042Y-81688042D01*
X47262890Y-81607614D01*
X47406214Y-81503483D01*
X47531483Y-81378214D01*
X47635614Y-81234890D01*
X47716042Y-81077042D01*
X47770786Y-80908555D01*
X47788304Y-80797952D01*
X47798500Y-80733582D01*
X47798500Y-80556417D01*
X47776748Y-80419090D01*
X47770786Y-80381445D01*
X47716042Y-80212958D01*
X47635614Y-80055110D01*
X47531483Y-79911786D01*
X47406214Y-79786517D01*
X47262890Y-79682386D01*
X47262889Y-79682385D01*
X47262887Y-79682384D01*
X47105040Y-79601957D01*
X46936552Y-79547213D01*
X46761582Y-79519500D01*
X46761579Y-79519500D01*
X46584421Y-79519500D01*
X46584418Y-79519500D01*
X46409447Y-79547213D01*
X46240959Y-79601957D01*
X46083112Y-79682384D01*
X45939787Y-79786516D01*
X45814516Y-79911787D01*
X45710384Y-80055112D01*
X45629957Y-80212959D01*
X45575213Y-80381447D01*
X45547500Y-80556417D01*
X43035500Y-80556417D01*
X43013748Y-80419090D01*
X43007786Y-80381445D01*
X42953042Y-80212958D01*
X42872614Y-80055110D01*
X42768483Y-79911786D01*
X42643214Y-79786517D01*
X42499890Y-79682386D01*
X42499889Y-79682385D01*
X42499887Y-79682384D01*
X42342040Y-79601957D01*
X42173552Y-79547213D01*
X41998582Y-79519500D01*
X41998579Y-79519500D01*
X41821421Y-79519500D01*
X41821418Y-79519500D01*
X41646447Y-79547213D01*
X41477959Y-79601957D01*
X41320112Y-79682384D01*
X41176787Y-79786516D01*
X41051516Y-79911787D01*
X40947384Y-80055112D01*
X40866957Y-80212959D01*
X40812213Y-80381447D01*
X40784500Y-80556417D01*
X33286376Y-80556417D01*
X39230397Y-74612396D01*
X39284914Y-74584619D01*
X39300401Y-74583400D01*
X96476599Y-74583400D01*
X96534790Y-74602307D01*
X96570754Y-74651807D01*
X96570754Y-74712993D01*
X96546603Y-74752404D01*
X95262303Y-76036704D01*
X95207786Y-76064481D01*
X95192299Y-76065700D01*
X58723506Y-76065700D01*
X58723490Y-76065699D01*
X58717427Y-76065699D01*
X58611973Y-76065699D01*
X58611970Y-76065699D01*
X58510113Y-76092992D01*
X58510109Y-76092994D01*
X58418787Y-76145719D01*
X58344219Y-76220286D01*
X58344220Y-76220287D01*
X48671303Y-85893204D01*
X48616786Y-85920981D01*
X48601299Y-85922200D01*
X48529143Y-85922200D01*
X48376416Y-85963123D01*
X48239484Y-86042180D01*
X48127680Y-86153984D01*
X48048623Y-86290916D01*
X48007700Y-86443643D01*
X48007700Y-86601757D01*
X48048623Y-86754484D01*
X48127680Y-86891416D01*
X48239484Y-87003220D01*
X48376416Y-87082277D01*
X48529143Y-87123200D01*
X48529145Y-87123200D01*
X48687255Y-87123200D01*
X48687257Y-87123200D01*
X48839984Y-87082277D01*
X48976916Y-87003220D01*
X49088720Y-86891416D01*
X49167777Y-86754484D01*
X49208700Y-86601757D01*
X49208700Y-86529600D01*
X49227607Y-86471409D01*
X49237696Y-86459596D01*
X54699429Y-80997863D01*
X83780883Y-80997863D01*
X83780883Y-81175028D01*
X83808596Y-81349998D01*
X83863340Y-81518486D01*
X83929850Y-81649020D01*
X83943769Y-81676336D01*
X84047900Y-81819660D01*
X84173169Y-81944929D01*
X84316493Y-82049060D01*
X84474341Y-82129488D01*
X84642828Y-82184232D01*
X84712818Y-82195317D01*
X84817801Y-82211946D01*
X84817804Y-82211946D01*
X84994965Y-82211946D01*
X85082450Y-82198089D01*
X85169938Y-82184232D01*
X85338425Y-82129488D01*
X85496273Y-82049060D01*
X85639597Y-81944929D01*
X85764866Y-81819660D01*
X85868997Y-81676336D01*
X85949425Y-81518488D01*
X86004169Y-81350001D01*
X86025544Y-81215050D01*
X86031883Y-81175028D01*
X86031883Y-80997863D01*
X86012644Y-80876400D01*
X86004169Y-80822891D01*
X85949425Y-80654404D01*
X85868997Y-80496556D01*
X85764866Y-80353232D01*
X85639597Y-80227963D01*
X85496273Y-80123832D01*
X85496272Y-80123831D01*
X85496270Y-80123830D01*
X85338423Y-80043403D01*
X85169935Y-79988659D01*
X84994965Y-79960946D01*
X84994962Y-79960946D01*
X84817804Y-79960946D01*
X84817801Y-79960946D01*
X84642830Y-79988659D01*
X84474342Y-80043403D01*
X84316495Y-80123830D01*
X84173170Y-80227962D01*
X84047899Y-80353233D01*
X83943767Y-80496558D01*
X83863340Y-80654405D01*
X83808596Y-80822893D01*
X83780883Y-80997863D01*
X54699429Y-80997863D01*
X58801596Y-76895696D01*
X58856113Y-76867919D01*
X58871600Y-76866700D01*
X95451925Y-76866700D01*
X95451927Y-76866700D01*
X95553788Y-76839407D01*
X95553790Y-76839405D01*
X95553792Y-76839405D01*
X95645108Y-76786683D01*
X95645108Y-76786682D01*
X95645113Y-76786680D01*
X99338618Y-73093174D01*
X105294408Y-73093174D01*
X105294408Y-73270339D01*
X105322121Y-73445309D01*
X105376865Y-73613797D01*
X105454571Y-73766304D01*
X105457294Y-73771647D01*
X105561425Y-73914971D01*
X105686694Y-74040240D01*
X105830018Y-74144371D01*
X105987866Y-74224799D01*
X106156353Y-74279543D01*
X106226343Y-74290628D01*
X106331326Y-74307257D01*
X106331329Y-74307257D01*
X106508490Y-74307257D01*
X106595975Y-74293400D01*
X106683463Y-74279543D01*
X106851950Y-74224799D01*
X107009798Y-74144371D01*
X107153122Y-74040240D01*
X107278391Y-73914971D01*
X107382522Y-73771647D01*
X107462950Y-73613799D01*
X107517694Y-73445312D01*
X107545408Y-73270336D01*
X107545408Y-73093178D01*
X107545408Y-73093174D01*
X107518154Y-72921106D01*
X107517694Y-72918202D01*
X107462950Y-72749715D01*
X107382522Y-72591867D01*
X107278391Y-72448543D01*
X107153122Y-72323274D01*
X107009798Y-72219143D01*
X107009797Y-72219142D01*
X107009795Y-72219141D01*
X106851948Y-72138714D01*
X106683460Y-72083970D01*
X106508490Y-72056257D01*
X106508487Y-72056257D01*
X106331329Y-72056257D01*
X106331326Y-72056257D01*
X106156355Y-72083970D01*
X105987867Y-72138714D01*
X105830020Y-72219141D01*
X105686695Y-72323273D01*
X105561424Y-72448544D01*
X105457292Y-72591869D01*
X105376865Y-72749716D01*
X105322121Y-72918204D01*
X105294408Y-73093174D01*
X99338618Y-73093174D01*
X100671596Y-71760195D01*
X100726113Y-71732419D01*
X100741600Y-71731200D01*
X121399099Y-71731200D01*
X121457290Y-71750107D01*
X121469103Y-71760196D01*
X121600304Y-71891397D01*
X121628081Y-71945914D01*
X121629300Y-71961401D01*
X121629300Y-72033557D01*
X121670223Y-72186284D01*
X121749280Y-72323216D01*
X121861084Y-72435020D01*
X121998016Y-72514077D01*
X122150743Y-72555000D01*
X122150745Y-72555000D01*
X122308855Y-72555000D01*
X122308857Y-72555000D01*
X122461584Y-72514077D01*
X122598516Y-72435020D01*
X122710320Y-72323216D01*
X122789377Y-72186284D01*
X122830300Y-72033557D01*
X122830300Y-71875443D01*
X122789377Y-71722716D01*
X122710320Y-71585784D01*
X122598516Y-71473980D01*
X122461584Y-71394923D01*
X122308857Y-71354000D01*
X122308855Y-71354000D01*
X122236701Y-71354000D01*
X122178510Y-71335093D01*
X122166698Y-71325004D01*
X121851913Y-71010220D01*
X121851908Y-71010216D01*
X121760591Y-70957494D01*
X121760593Y-70957494D01*
X121721070Y-70946904D01*
X121658727Y-70930200D01*
X121658725Y-70930200D01*
X116849100Y-70930200D01*
X116790909Y-70911293D01*
X116754945Y-70861793D01*
X116754945Y-70800607D01*
X116779094Y-70761198D01*
X119481597Y-68058696D01*
X119536114Y-68030919D01*
X119551601Y-68029700D01*
X120470056Y-68029700D01*
X120528247Y-68048607D01*
X120540059Y-68058696D01*
X120582364Y-68101000D01*
X120591084Y-68109720D01*
X120728016Y-68188777D01*
X120880743Y-68229700D01*
X120880745Y-68229700D01*
X121038855Y-68229700D01*
X121038857Y-68229700D01*
X121191584Y-68188777D01*
X121328516Y-68109720D01*
X121440320Y-67997916D01*
X121519377Y-67860984D01*
X121560300Y-67708257D01*
X121560300Y-67550143D01*
X121554453Y-67528321D01*
X121557656Y-67467221D01*
X121596161Y-67419671D01*
X121650080Y-67403700D01*
X124634956Y-67403700D01*
X124693147Y-67422607D01*
X124704959Y-67432696D01*
X124731419Y-67459155D01*
X124755984Y-67483720D01*
X124892916Y-67562777D01*
X125045643Y-67603700D01*
X125045645Y-67603700D01*
X125203755Y-67603700D01*
X125203757Y-67603700D01*
X125356484Y-67562777D01*
X125493416Y-67483720D01*
X125605220Y-67371916D01*
X125635964Y-67318664D01*
X125681432Y-67277724D01*
X125742283Y-67271328D01*
X125795271Y-67301920D01*
X125820158Y-67357816D01*
X125820700Y-67368165D01*
X125820700Y-67441299D01*
X125801793Y-67499490D01*
X125791704Y-67511303D01*
X124689003Y-68614004D01*
X124634486Y-68641781D01*
X124618999Y-68643000D01*
X120686344Y-68643000D01*
X120628153Y-68624093D01*
X120616341Y-68614004D01*
X120565318Y-68562982D01*
X120565316Y-68562980D01*
X120428384Y-68483923D01*
X120275657Y-68443000D01*
X120117543Y-68443000D01*
X119964816Y-68483923D01*
X119827884Y-68562980D01*
X119716080Y-68674784D01*
X119637023Y-68811716D01*
X119596100Y-68964443D01*
X119596100Y-69122557D01*
X119637023Y-69275284D01*
X119716080Y-69412216D01*
X119827884Y-69524020D01*
X119964816Y-69603077D01*
X120117543Y-69644000D01*
X120117545Y-69644000D01*
X120275655Y-69644000D01*
X120275657Y-69644000D01*
X120428384Y-69603077D01*
X120565316Y-69524020D01*
X120590829Y-69498506D01*
X120616341Y-69472996D01*
X120670858Y-69445219D01*
X120686344Y-69444000D01*
X124878625Y-69444000D01*
X124878627Y-69444000D01*
X124980488Y-69416707D01*
X124980490Y-69416705D01*
X124980492Y-69416705D01*
X125071808Y-69363983D01*
X125071808Y-69363982D01*
X125071813Y-69363980D01*
X126358097Y-68077696D01*
X126412614Y-68049919D01*
X126428101Y-68048700D01*
X126500255Y-68048700D01*
X126500257Y-68048700D01*
X126652984Y-68007777D01*
X126789916Y-67928720D01*
X126901720Y-67816916D01*
X126980777Y-67679984D01*
X127021700Y-67527257D01*
X127021700Y-67369143D01*
X126980777Y-67216416D01*
X126901720Y-67079484D01*
X126789916Y-66967680D01*
X126652984Y-66888623D01*
X126500257Y-66847700D01*
X126342143Y-66847700D01*
X126189416Y-66888623D01*
X126052484Y-66967680D01*
X125940680Y-67079484D01*
X125909935Y-67132735D01*
X125864467Y-67173675D01*
X125803617Y-67180071D01*
X125750629Y-67149478D01*
X125725742Y-67093582D01*
X125725200Y-67083234D01*
X125725200Y-66924144D01*
X125723598Y-66918164D01*
X125684277Y-66771416D01*
X125605220Y-66634484D01*
X125493416Y-66522680D01*
X125356484Y-66443623D01*
X125203757Y-66402700D01*
X125045643Y-66402700D01*
X124892916Y-66443623D01*
X124764276Y-66517893D01*
X124755981Y-66522682D01*
X124704959Y-66573704D01*
X124650442Y-66601481D01*
X124634956Y-66602700D01*
X120179544Y-66602700D01*
X120121353Y-66583793D01*
X120109541Y-66573704D01*
X120058518Y-66522682D01*
X120058516Y-66522680D01*
X119921584Y-66443623D01*
X119768857Y-66402700D01*
X119610743Y-66402700D01*
X119458016Y-66443623D01*
X119321084Y-66522680D01*
X119209280Y-66634484D01*
X119130223Y-66771416D01*
X119089300Y-66924143D01*
X119089300Y-67082257D01*
X119107312Y-67149478D01*
X119124368Y-67213134D01*
X119121165Y-67274236D01*
X119098745Y-67308761D01*
X118078004Y-68329503D01*
X118023487Y-68357280D01*
X117963055Y-68347709D01*
X117919790Y-68304444D01*
X117909000Y-68259499D01*
X117909000Y-67412869D01*
X117912373Y-67387246D01*
X117916481Y-67371914D01*
X117946400Y-67260257D01*
X117946400Y-67102143D01*
X117905477Y-66949416D01*
X117826420Y-66812484D01*
X117714616Y-66700680D01*
X117577684Y-66621623D01*
X117424957Y-66580700D01*
X117266843Y-66580700D01*
X117114116Y-66621623D01*
X116977184Y-66700680D01*
X116865380Y-66812484D01*
X116786323Y-66949416D01*
X116745400Y-67102143D01*
X116745400Y-67260257D01*
X116786323Y-67412984D01*
X116865380Y-67549916D01*
X116977184Y-67661720D01*
X117057790Y-67708257D01*
X117058499Y-67708666D01*
X117099440Y-67754135D01*
X117108000Y-67794403D01*
X117108000Y-67865241D01*
X117089093Y-67923432D01*
X117039593Y-67959396D01*
X116983379Y-67960867D01*
X116929757Y-67946500D01*
X116771643Y-67946500D01*
X116618916Y-67987423D01*
X116481984Y-68066480D01*
X116370180Y-68178284D01*
X116291123Y-68315216D01*
X116286056Y-68334123D01*
X116252735Y-68385437D01*
X116195614Y-68407364D01*
X116190431Y-68407500D01*
X108479544Y-68407500D01*
X108421353Y-68388593D01*
X108409541Y-68378504D01*
X108358518Y-68327482D01*
X108358516Y-68327480D01*
X108221584Y-68248423D01*
X108068857Y-68207500D01*
X107910743Y-68207500D01*
X107758016Y-68248423D01*
X107621084Y-68327480D01*
X107509280Y-68439284D01*
X107430223Y-68576216D01*
X107389300Y-68728943D01*
X107389300Y-68887057D01*
X107430223Y-69039784D01*
X107509280Y-69176716D01*
X107621084Y-69288520D01*
X107758016Y-69367577D01*
X107910743Y-69408500D01*
X107910745Y-69408500D01*
X108068855Y-69408500D01*
X108068857Y-69408500D01*
X108221584Y-69367577D01*
X108358516Y-69288520D01*
X108390344Y-69256692D01*
X108409541Y-69237496D01*
X108464058Y-69209719D01*
X108479544Y-69208500D01*
X116234999Y-69208500D01*
X116293190Y-69227407D01*
X116329154Y-69276907D01*
X116329154Y-69338093D01*
X116305003Y-69377504D01*
X115904103Y-69778404D01*
X115849586Y-69806181D01*
X115834099Y-69807400D01*
X100328727Y-69807400D01*
X100223273Y-69807400D01*
X100160929Y-69824104D01*
X100121407Y-69834694D01*
X100030091Y-69887416D01*
X97671103Y-72246404D01*
X97616586Y-72274181D01*
X97601099Y-72275400D01*
X88295473Y-72275400D01*
X88193613Y-72302693D01*
X88193612Y-72302693D01*
X88193610Y-72302694D01*
X88120528Y-72344889D01*
X88120524Y-72344891D01*
X88102290Y-72355417D01*
X87386503Y-73071204D01*
X87331986Y-73098981D01*
X87316499Y-73100200D01*
X86138534Y-73100200D01*
X86080343Y-73081293D01*
X86044379Y-73031793D01*
X86044379Y-72970607D01*
X86080341Y-72921108D01*
X86087299Y-72916054D01*
X86212568Y-72790785D01*
X86316699Y-72647461D01*
X86397127Y-72489613D01*
X86451871Y-72321126D01*
X86469028Y-72212803D01*
X86479585Y-72146153D01*
X86479585Y-71968988D01*
X86451871Y-71794018D01*
X86451871Y-71794016D01*
X86397127Y-71625529D01*
X86316699Y-71467681D01*
X86212568Y-71324357D01*
X86087299Y-71199088D01*
X86087295Y-71199085D01*
X86084548Y-71196338D01*
X86085895Y-71194990D01*
X86057658Y-71148893D01*
X86062470Y-71087897D01*
X86102215Y-71041379D01*
X86153927Y-71026800D01*
X95424756Y-71026800D01*
X95482947Y-71045707D01*
X95494759Y-71055796D01*
X95526861Y-71087897D01*
X95545784Y-71106820D01*
X95682716Y-71185877D01*
X95835443Y-71226800D01*
X95835445Y-71226800D01*
X95993555Y-71226800D01*
X95993557Y-71226800D01*
X96146284Y-71185877D01*
X96283216Y-71106820D01*
X96395020Y-70995016D01*
X96474077Y-70858084D01*
X96515000Y-70705357D01*
X96515000Y-70547243D01*
X96474077Y-70394516D01*
X96395020Y-70257584D01*
X96283216Y-70145780D01*
X96146284Y-70066723D01*
X95993557Y-70025800D01*
X95835443Y-70025800D01*
X95682716Y-70066723D01*
X95557689Y-70138907D01*
X95545781Y-70145782D01*
X95494759Y-70196804D01*
X95440242Y-70224581D01*
X95424756Y-70225800D01*
X93946227Y-70225800D01*
X93888036Y-70206893D01*
X93852072Y-70157393D01*
X93850600Y-70101179D01*
X93874400Y-70012357D01*
X93874400Y-69854243D01*
X93858103Y-69793421D01*
X93861306Y-69732321D01*
X93899811Y-69684771D01*
X93953730Y-69668800D01*
X97814899Y-69668800D01*
X97873090Y-69687707D01*
X97884903Y-69697796D01*
X98088104Y-69900997D01*
X98115881Y-69955514D01*
X98117100Y-69971001D01*
X98117100Y-70043157D01*
X98158023Y-70195884D01*
X98237080Y-70332816D01*
X98348884Y-70444620D01*
X98485816Y-70523677D01*
X98638543Y-70564600D01*
X98638545Y-70564600D01*
X98796655Y-70564600D01*
X98796657Y-70564600D01*
X98949384Y-70523677D01*
X99086316Y-70444620D01*
X99198120Y-70332816D01*
X99277177Y-70195884D01*
X99318100Y-70043157D01*
X99318100Y-69885043D01*
X99277177Y-69732316D01*
X99198120Y-69595384D01*
X99086316Y-69483580D01*
X98949384Y-69404523D01*
X98796657Y-69363600D01*
X98796655Y-69363600D01*
X98724501Y-69363600D01*
X98666310Y-69344693D01*
X98654497Y-69334604D01*
X98580897Y-69261004D01*
X98553120Y-69206487D01*
X98562691Y-69146055D01*
X98605956Y-69102790D01*
X98650901Y-69092000D01*
X106333925Y-69092000D01*
X106333927Y-69092000D01*
X106435788Y-69064707D01*
X106435790Y-69064705D01*
X106435792Y-69064705D01*
X106527108Y-69011983D01*
X106527108Y-69011982D01*
X106527113Y-69011980D01*
X108122797Y-67416296D01*
X108177314Y-67388519D01*
X108192801Y-67387300D01*
X115483825Y-67387300D01*
X115483827Y-67387300D01*
X115585688Y-67360007D01*
X115585690Y-67360005D01*
X115585692Y-67360005D01*
X115677008Y-67307283D01*
X115677008Y-67307282D01*
X115677013Y-67307280D01*
X117967531Y-65016762D01*
X125318159Y-65016762D01*
X125318159Y-65193927D01*
X125345872Y-65368897D01*
X125400616Y-65537385D01*
X125480064Y-65693311D01*
X125481045Y-65695235D01*
X125585176Y-65838559D01*
X125710445Y-65963828D01*
X125853769Y-66067959D01*
X126011617Y-66148387D01*
X126180104Y-66203131D01*
X126250094Y-66214216D01*
X126355077Y-66230845D01*
X126355080Y-66230845D01*
X126532241Y-66230845D01*
X126634146Y-66214704D01*
X126707214Y-66203131D01*
X126875701Y-66148387D01*
X127033549Y-66067959D01*
X127176873Y-65963828D01*
X127302142Y-65838559D01*
X127406273Y-65695235D01*
X127486701Y-65537387D01*
X127541445Y-65368900D01*
X127557019Y-65270574D01*
X127569159Y-65193927D01*
X127569159Y-65016762D01*
X127541445Y-64841792D01*
X127541445Y-64841790D01*
X127486701Y-64673303D01*
X127406273Y-64515455D01*
X127302142Y-64372131D01*
X127176873Y-64246862D01*
X127033549Y-64142731D01*
X127033548Y-64142730D01*
X127033546Y-64142729D01*
X126875699Y-64062302D01*
X126707211Y-64007558D01*
X126532241Y-63979845D01*
X126532238Y-63979845D01*
X126355080Y-63979845D01*
X126355077Y-63979845D01*
X126180106Y-64007558D01*
X126011618Y-64062302D01*
X125853771Y-64142729D01*
X125710446Y-64246861D01*
X125585175Y-64372132D01*
X125481043Y-64515457D01*
X125400616Y-64673304D01*
X125345872Y-64841792D01*
X125318159Y-65016762D01*
X117967531Y-65016762D01*
X120170850Y-62813443D01*
X123291200Y-62813443D01*
X123291200Y-62971557D01*
X123332123Y-63124284D01*
X123411180Y-63261216D01*
X123522984Y-63373020D01*
X123659916Y-63452077D01*
X123812643Y-63493000D01*
X123812645Y-63493000D01*
X123970755Y-63493000D01*
X123970757Y-63493000D01*
X124123484Y-63452077D01*
X124260416Y-63373020D01*
X124285929Y-63347506D01*
X124311441Y-63321996D01*
X124365958Y-63294219D01*
X124381444Y-63293000D01*
X143154225Y-63293000D01*
X143154227Y-63293000D01*
X143256088Y-63265707D01*
X143256090Y-63265705D01*
X143256092Y-63265705D01*
X143347408Y-63212983D01*
X143347408Y-63212982D01*
X143347413Y-63212980D01*
X143560178Y-63000215D01*
X143644398Y-62915996D01*
X143698914Y-62888219D01*
X143714401Y-62887000D01*
X143786555Y-62887000D01*
X143786557Y-62887000D01*
X143939284Y-62846077D01*
X144076216Y-62767020D01*
X144188020Y-62655216D01*
X144267077Y-62518284D01*
X144308000Y-62365557D01*
X144308000Y-62207443D01*
X144267077Y-62054716D01*
X144188020Y-61917784D01*
X144076216Y-61805980D01*
X143939284Y-61726923D01*
X143786557Y-61686000D01*
X143628443Y-61686000D01*
X143475716Y-61726923D01*
X143338784Y-61805980D01*
X143226980Y-61917784D01*
X143147923Y-62054716D01*
X143110131Y-62195760D01*
X143107000Y-62207444D01*
X143107000Y-62279599D01*
X143088093Y-62337790D01*
X143078004Y-62349603D01*
X142964603Y-62463004D01*
X142910086Y-62490781D01*
X142894599Y-62492000D01*
X124381444Y-62492000D01*
X124323253Y-62473093D01*
X124311441Y-62463004D01*
X124260418Y-62411982D01*
X124260416Y-62411980D01*
X124123484Y-62332923D01*
X123970757Y-62292000D01*
X123812643Y-62292000D01*
X123659916Y-62332923D01*
X123522984Y-62411980D01*
X123411180Y-62523784D01*
X123332123Y-62660716D01*
X123291200Y-62813443D01*
X120170850Y-62813443D01*
X122371997Y-60612296D01*
X122426514Y-60584519D01*
X122442001Y-60583300D01*
X143510256Y-60583300D01*
X143568447Y-60602207D01*
X143580259Y-60612296D01*
X143631281Y-60663317D01*
X143631284Y-60663320D01*
X143768216Y-60742377D01*
X143920943Y-60783300D01*
X143920945Y-60783300D01*
X144079055Y-60783300D01*
X144079057Y-60783300D01*
X144231784Y-60742377D01*
X144368716Y-60663320D01*
X144480520Y-60551516D01*
X144559577Y-60414584D01*
X144600500Y-60261857D01*
X144600500Y-60227395D01*
X144619407Y-60169204D01*
X144668907Y-60133240D01*
X144727537Y-60132449D01*
X146616810Y-60690375D01*
X146667262Y-60724988D01*
X146674506Y-60735820D01*
X146719478Y-60813713D01*
X146719480Y-60813716D01*
X146831284Y-60925520D01*
X146968216Y-61004577D01*
X147120943Y-61045500D01*
X147120945Y-61045500D01*
X147279055Y-61045500D01*
X147279057Y-61045500D01*
X147431784Y-61004577D01*
X147568716Y-60925520D01*
X147680520Y-60813716D01*
X147759577Y-60676784D01*
X147800500Y-60524057D01*
X147800500Y-60365943D01*
X147759577Y-60213216D01*
X147680520Y-60076284D01*
X147568716Y-59964480D01*
X147449645Y-59895735D01*
X147408706Y-59850267D01*
X147402310Y-59789417D01*
X147432903Y-59736429D01*
X147449641Y-59724267D01*
X147568716Y-59655520D01*
X147680520Y-59543716D01*
X147759577Y-59406784D01*
X147800500Y-59254057D01*
X147800500Y-59095943D01*
X147759577Y-58943216D01*
X147680520Y-58806284D01*
X147568716Y-58694480D01*
X147449645Y-58625735D01*
X147408706Y-58580267D01*
X147402310Y-58519417D01*
X147432903Y-58466429D01*
X147449641Y-58454267D01*
X147568716Y-58385520D01*
X147680520Y-58273716D01*
X147759577Y-58136784D01*
X147800500Y-57984057D01*
X147800500Y-57825943D01*
X147759577Y-57673216D01*
X147680520Y-57536284D01*
X147568716Y-57424480D01*
X147431784Y-57345423D01*
X147279057Y-57304500D01*
X147120943Y-57304500D01*
X146968216Y-57345423D01*
X146831281Y-57424482D01*
X146810577Y-57445186D01*
X146756060Y-57472962D01*
X146734273Y-57473980D01*
X144075027Y-57304371D01*
X144055711Y-57301199D01*
X144052727Y-57300400D01*
X144015910Y-57300400D01*
X144009609Y-57300199D01*
X143972875Y-57297856D01*
X143972873Y-57297856D01*
X143969842Y-57298464D01*
X143950361Y-57300400D01*
X120628144Y-57300400D01*
X120569953Y-57281493D01*
X120558141Y-57271404D01*
X120508718Y-57221982D01*
X120508716Y-57221980D01*
X120371784Y-57142923D01*
X120219057Y-57102000D01*
X120060943Y-57102000D01*
X119908216Y-57142923D01*
X119771284Y-57221980D01*
X119659480Y-57333784D01*
X119580423Y-57470716D01*
X119539500Y-57623444D01*
X119539500Y-57695599D01*
X119520593Y-57753790D01*
X119510504Y-57765603D01*
X111693303Y-65582804D01*
X111638786Y-65610581D01*
X111623299Y-65611800D01*
X101018201Y-65611800D01*
X100960010Y-65592893D01*
X100924046Y-65543393D01*
X100924046Y-65482207D01*
X100948197Y-65442796D01*
X102212877Y-64178116D01*
X103425332Y-62965660D01*
X104482592Y-62965660D01*
X104482592Y-63142825D01*
X104510305Y-63317795D01*
X104565049Y-63486283D01*
X104616020Y-63586320D01*
X104645478Y-63644133D01*
X104749609Y-63787457D01*
X104874878Y-63912726D01*
X105018202Y-64016857D01*
X105176050Y-64097285D01*
X105344537Y-64152029D01*
X105414527Y-64163114D01*
X105519510Y-64179743D01*
X105519513Y-64179743D01*
X105696674Y-64179743D01*
X105784159Y-64165886D01*
X105871647Y-64152029D01*
X106040134Y-64097285D01*
X106197982Y-64016857D01*
X106341306Y-63912726D01*
X106466575Y-63787457D01*
X106570706Y-63644133D01*
X106651134Y-63486285D01*
X106705878Y-63317798D01*
X106733592Y-63142822D01*
X106733592Y-62965664D01*
X106733592Y-62965660D01*
X106705878Y-62790690D01*
X106705878Y-62790688D01*
X106651134Y-62622201D01*
X106570706Y-62464353D01*
X106466575Y-62321029D01*
X106341306Y-62195760D01*
X106197982Y-62091629D01*
X106197981Y-62091628D01*
X106197979Y-62091627D01*
X106040132Y-62011200D01*
X105871644Y-61956456D01*
X105696674Y-61928743D01*
X105696671Y-61928743D01*
X105519513Y-61928743D01*
X105519510Y-61928743D01*
X105344539Y-61956456D01*
X105176051Y-62011200D01*
X105018204Y-62091627D01*
X104874879Y-62195759D01*
X104749608Y-62321030D01*
X104645476Y-62464355D01*
X104565049Y-62622202D01*
X104510305Y-62790690D01*
X104482592Y-62965660D01*
X103425332Y-62965660D01*
X105309396Y-61081595D01*
X105363913Y-61053819D01*
X105379400Y-61052600D01*
X112063456Y-61052600D01*
X112121647Y-61071507D01*
X112133459Y-61081596D01*
X112160971Y-61109107D01*
X112184484Y-61132620D01*
X112321416Y-61211677D01*
X112474143Y-61252600D01*
X112474145Y-61252600D01*
X112632255Y-61252600D01*
X112632257Y-61252600D01*
X112784984Y-61211677D01*
X112921916Y-61132620D01*
X113033720Y-61020816D01*
X113112777Y-60883884D01*
X113153700Y-60731157D01*
X113153700Y-60573043D01*
X113112777Y-60420316D01*
X113033720Y-60283384D01*
X112921916Y-60171580D01*
X112784984Y-60092523D01*
X112632257Y-60051600D01*
X112474143Y-60051600D01*
X112321416Y-60092523D01*
X112188600Y-60169204D01*
X112184481Y-60171582D01*
X112133459Y-60222604D01*
X112078942Y-60250381D01*
X112063456Y-60251600D01*
X105348400Y-60251600D01*
X105290209Y-60232693D01*
X105254245Y-60183193D01*
X105254245Y-60122007D01*
X105278396Y-60082596D01*
X108089589Y-57271404D01*
X111032297Y-54328696D01*
X111086814Y-54300919D01*
X111102301Y-54299700D01*
X122095889Y-54299700D01*
X122154080Y-54318607D01*
X122190044Y-54368107D01*
X122190044Y-54429293D01*
X122154080Y-54478793D01*
X122112842Y-54495873D01*
X122112858Y-54495937D01*
X122112459Y-54496032D01*
X122111377Y-54496481D01*
X122109076Y-54496845D01*
X121940589Y-54551589D01*
X121782742Y-54632016D01*
X121639417Y-54736148D01*
X121514146Y-54861419D01*
X121410014Y-55004744D01*
X121329587Y-55162591D01*
X121274843Y-55331079D01*
X121247130Y-55506049D01*
X121247130Y-55683214D01*
X121274843Y-55858184D01*
X121329587Y-56026672D01*
X121389300Y-56143866D01*
X121410016Y-56184522D01*
X121514147Y-56327846D01*
X121639416Y-56453115D01*
X121782740Y-56557246D01*
X121940588Y-56637674D01*
X122109075Y-56692418D01*
X122179065Y-56703503D01*
X122284048Y-56720132D01*
X122284051Y-56720132D01*
X122461212Y-56720132D01*
X122548697Y-56706275D01*
X122636185Y-56692418D01*
X122804672Y-56637674D01*
X122962520Y-56557246D01*
X123105844Y-56453115D01*
X123231113Y-56327846D01*
X123335244Y-56184522D01*
X123415672Y-56026674D01*
X123470416Y-55858187D01*
X123498130Y-55683211D01*
X123498130Y-55506053D01*
X123498130Y-55506049D01*
X123478258Y-55380586D01*
X123470416Y-55331077D01*
X123415672Y-55162590D01*
X123335244Y-55004742D01*
X123231113Y-54861418D01*
X123105844Y-54736149D01*
X122962520Y-54632018D01*
X122962519Y-54632017D01*
X122962517Y-54632016D01*
X122804670Y-54551589D01*
X122636183Y-54496845D01*
X122633883Y-54496481D01*
X122633183Y-54496124D01*
X122632402Y-54495937D01*
X122632447Y-54495749D01*
X122579367Y-54468703D01*
X122551590Y-54414186D01*
X122561162Y-54353754D01*
X122604427Y-54310490D01*
X122649371Y-54299700D01*
X143949948Y-54299700D01*
X143969588Y-54301668D01*
X143970000Y-54301751D01*
X143972217Y-54302200D01*
X144007430Y-54300011D01*
X144009366Y-54299891D01*
X144015508Y-54299700D01*
X144052725Y-54299700D01*
X144052727Y-54299700D01*
X144055305Y-54299008D01*
X144074792Y-54295824D01*
X144077468Y-54295658D01*
X144112767Y-54283808D01*
X144118609Y-54282046D01*
X144154587Y-54272407D01*
X144156908Y-54271066D01*
X144174898Y-54262951D01*
X146860928Y-53361283D01*
X146922107Y-53360690D01*
X146941928Y-53369399D01*
X146968216Y-53384577D01*
X147120943Y-53425500D01*
X147120945Y-53425500D01*
X147279055Y-53425500D01*
X147279057Y-53425500D01*
X147431784Y-53384577D01*
X147568716Y-53305520D01*
X147680520Y-53193716D01*
X147759577Y-53056784D01*
X147800500Y-52904057D01*
X147800500Y-52745943D01*
X147759577Y-52593216D01*
X147680520Y-52456284D01*
X147568716Y-52344480D01*
X147431784Y-52265423D01*
X147279057Y-52224500D01*
X147120943Y-52224500D01*
X147019476Y-52251688D01*
X146968216Y-52265423D01*
X146831284Y-52344480D01*
X146719478Y-52456286D01*
X146661178Y-52557264D01*
X146615708Y-52598204D01*
X146606947Y-52601616D01*
X144320625Y-53369107D01*
X144005324Y-53474950D01*
X143949906Y-53493553D01*
X143918401Y-53498700D01*
X110965301Y-53498700D01*
X110907110Y-53479793D01*
X110871146Y-53430293D01*
X110871146Y-53369107D01*
X110895297Y-53329696D01*
X111896297Y-52328696D01*
X111950814Y-52300919D01*
X111966301Y-52299700D01*
X143985893Y-52299700D01*
X143991472Y-52299857D01*
X143993965Y-52299997D01*
X144030064Y-52302036D01*
X144030340Y-52301978D01*
X144031286Y-52301782D01*
X144051481Y-52299700D01*
X144052728Y-52299700D01*
X144052728Y-52299699D01*
X144090058Y-52289697D01*
X144095467Y-52288409D01*
X144133301Y-52280528D01*
X144134409Y-52279968D01*
X144153385Y-52272728D01*
X144154587Y-52272407D01*
X144188077Y-52253070D01*
X144192935Y-52250445D01*
X146942147Y-50863639D01*
X147002617Y-50854313D01*
X147012353Y-50856403D01*
X147120943Y-50885500D01*
X147120944Y-50885500D01*
X147279055Y-50885500D01*
X147279057Y-50885500D01*
X147431784Y-50844577D01*
X147568716Y-50765520D01*
X147680520Y-50653716D01*
X147759577Y-50516784D01*
X147800500Y-50364057D01*
X147800500Y-50205943D01*
X147759577Y-50053216D01*
X147680520Y-49916284D01*
X147568716Y-49804480D01*
X147431784Y-49725423D01*
X147279057Y-49684500D01*
X147120943Y-49684500D01*
X146968216Y-49725423D01*
X146831284Y-49804480D01*
X146719480Y-49916284D01*
X146640422Y-50053218D01*
X146631603Y-50086129D01*
X146598278Y-50137443D01*
X146580565Y-50148895D01*
X143925736Y-51488091D01*
X143881148Y-51498700D01*
X111706673Y-51498700D01*
X111604813Y-51525993D01*
X111604812Y-51525993D01*
X111604810Y-51525994D01*
X111604809Y-51525994D01*
X111513489Y-51578718D01*
X102319761Y-60772446D01*
X102265244Y-60800223D01*
X102204812Y-60790652D01*
X102161547Y-60747387D01*
X102154131Y-60728069D01*
X102124777Y-60618516D01*
X102045720Y-60481584D01*
X101933916Y-60369780D01*
X101796984Y-60290723D01*
X101644257Y-60249800D01*
X101486143Y-60249800D01*
X101333416Y-60290723D01*
X101196484Y-60369780D01*
X101084680Y-60481584D01*
X101005623Y-60618516D01*
X100974252Y-60735597D01*
X100964700Y-60771244D01*
X100964700Y-60843399D01*
X100945793Y-60901590D01*
X100935704Y-60913403D01*
X100281003Y-61568104D01*
X100226486Y-61595881D01*
X100210999Y-61597100D01*
X99177401Y-61597100D01*
X99119210Y-61578193D01*
X99083246Y-61528693D01*
X99083246Y-61467507D01*
X99107397Y-61428096D01*
X110044397Y-50491096D01*
X110098914Y-50463319D01*
X110114401Y-50462100D01*
X121579756Y-50462100D01*
X121637947Y-50481007D01*
X121649759Y-50491096D01*
X121675447Y-50516783D01*
X121700784Y-50542120D01*
X121837716Y-50621177D01*
X121990443Y-50662100D01*
X121990445Y-50662100D01*
X122148555Y-50662100D01*
X122148557Y-50662100D01*
X122301284Y-50621177D01*
X122438216Y-50542120D01*
X122550020Y-50430316D01*
X122629077Y-50293384D01*
X122670000Y-50140657D01*
X122670000Y-49982543D01*
X122629077Y-49829816D01*
X122550020Y-49692884D01*
X122438216Y-49581080D01*
X122301284Y-49502023D01*
X122148557Y-49461100D01*
X121990443Y-49461100D01*
X121837716Y-49502023D01*
X121700781Y-49581082D01*
X121649759Y-49632104D01*
X121595242Y-49659881D01*
X121579756Y-49661100D01*
X109960227Y-49661100D01*
X109854773Y-49661100D01*
X109792429Y-49677804D01*
X109752907Y-49688394D01*
X109661591Y-49741116D01*
X98449303Y-60953404D01*
X98394786Y-60981181D01*
X98379299Y-60982400D01*
X94139544Y-60982400D01*
X94081353Y-60963493D01*
X94069541Y-60953404D01*
X94018518Y-60902382D01*
X94018516Y-60902380D01*
X93881584Y-60823323D01*
X93728857Y-60782400D01*
X93570743Y-60782400D01*
X93418016Y-60823323D01*
X93281084Y-60902380D01*
X93169280Y-61014184D01*
X93090223Y-61151116D01*
X93054372Y-61284916D01*
X93049300Y-61303844D01*
X93049300Y-61422299D01*
X93030393Y-61480490D01*
X92980893Y-61516454D01*
X92919707Y-61516454D01*
X92880296Y-61492303D01*
X85049832Y-53661839D01*
X99948275Y-53661839D01*
X99948275Y-53839004D01*
X99975988Y-54013974D01*
X100030732Y-54182462D01*
X100100101Y-54318607D01*
X100111161Y-54340312D01*
X100215292Y-54483636D01*
X100340561Y-54608905D01*
X100483885Y-54713036D01*
X100641733Y-54793464D01*
X100810220Y-54848208D01*
X100880210Y-54859293D01*
X100985193Y-54875922D01*
X100985196Y-54875922D01*
X101162357Y-54875922D01*
X101249842Y-54862065D01*
X101337330Y-54848208D01*
X101505817Y-54793464D01*
X101663665Y-54713036D01*
X101806989Y-54608905D01*
X101932258Y-54483636D01*
X102036389Y-54340312D01*
X102116817Y-54182464D01*
X102171561Y-54013977D01*
X102189625Y-53899927D01*
X102199275Y-53839004D01*
X102199275Y-53661839D01*
X102171561Y-53486869D01*
X102171561Y-53486867D01*
X102116817Y-53318380D01*
X102036389Y-53160532D01*
X101932258Y-53017208D01*
X101806989Y-52891939D01*
X101663665Y-52787808D01*
X101663664Y-52787807D01*
X101663662Y-52787806D01*
X101505815Y-52707379D01*
X101337327Y-52652635D01*
X101162357Y-52624922D01*
X101162354Y-52624922D01*
X100985196Y-52624922D01*
X100985193Y-52624922D01*
X100810222Y-52652635D01*
X100641734Y-52707379D01*
X100483887Y-52787806D01*
X100340562Y-52891938D01*
X100215291Y-53017209D01*
X100111159Y-53160534D01*
X100030732Y-53318381D01*
X99975988Y-53486869D01*
X99948275Y-53661839D01*
X85049832Y-53661839D01*
X79975897Y-48587904D01*
X79948120Y-48533387D01*
X79957691Y-48472955D01*
X80000956Y-48429690D01*
X80045901Y-48418900D01*
X82543556Y-48418900D01*
X82601747Y-48437807D01*
X82613559Y-48447896D01*
X82664581Y-48498917D01*
X82664584Y-48498920D01*
X82801516Y-48577977D01*
X82954243Y-48618900D01*
X82954245Y-48618900D01*
X83112355Y-48618900D01*
X83112357Y-48618900D01*
X83265084Y-48577977D01*
X83402016Y-48498920D01*
X83513820Y-48387116D01*
X83592877Y-48250184D01*
X83633800Y-48097457D01*
X83633800Y-47939343D01*
X83633285Y-47937421D01*
X83633359Y-47935999D01*
X83632953Y-47932911D01*
X83633525Y-47932835D01*
X83636487Y-47876322D01*
X83674992Y-47828772D01*
X83728912Y-47812800D01*
X126158925Y-47812800D01*
X126158927Y-47812800D01*
X126260788Y-47785507D01*
X126260790Y-47785505D01*
X126260792Y-47785505D01*
X126352108Y-47732783D01*
X126352108Y-47732782D01*
X126352113Y-47732780D01*
X135825130Y-38259762D01*
X137464572Y-38259762D01*
X137464572Y-38436927D01*
X137492285Y-38611897D01*
X137492286Y-38611900D01*
X137547030Y-38780387D01*
X137627458Y-38938235D01*
X137731589Y-39081559D01*
X137856858Y-39206828D01*
X138000182Y-39310959D01*
X138158030Y-39391387D01*
X138326517Y-39446131D01*
X138396507Y-39457216D01*
X138501490Y-39473845D01*
X138501493Y-39473845D01*
X138678654Y-39473845D01*
X138766139Y-39459988D01*
X138853627Y-39446131D01*
X139022114Y-39391387D01*
X139179962Y-39310959D01*
X139323286Y-39206828D01*
X139448555Y-39081559D01*
X139552686Y-38938235D01*
X139633114Y-38780387D01*
X139687858Y-38611900D01*
X139715572Y-38436924D01*
X139715572Y-38259766D01*
X139715572Y-38259762D01*
X139687858Y-38084792D01*
X139687858Y-38084790D01*
X139633114Y-37916303D01*
X139552686Y-37758455D01*
X139448555Y-37615131D01*
X139323286Y-37489862D01*
X139179962Y-37385731D01*
X139179961Y-37385730D01*
X139179959Y-37385729D01*
X139022112Y-37305302D01*
X138853624Y-37250558D01*
X138678654Y-37222845D01*
X138678651Y-37222845D01*
X138501493Y-37222845D01*
X138501490Y-37222845D01*
X138326519Y-37250558D01*
X138158031Y-37305302D01*
X138000184Y-37385729D01*
X137856859Y-37489861D01*
X137731588Y-37615132D01*
X137627456Y-37758457D01*
X137547029Y-37916304D01*
X137492285Y-38084792D01*
X137464572Y-38259762D01*
X135825130Y-38259762D01*
X139082096Y-35002795D01*
X139136613Y-34975019D01*
X139152100Y-34973800D01*
X139224255Y-34973800D01*
X139224257Y-34973800D01*
X139376984Y-34932877D01*
X139513916Y-34853820D01*
X139625720Y-34742016D01*
X139704777Y-34605084D01*
X139745700Y-34452357D01*
X139745700Y-34294243D01*
X139704777Y-34141516D01*
X139625720Y-34004584D01*
X139513916Y-33892780D01*
X139376984Y-33813723D01*
X139224257Y-33772800D01*
X139066143Y-33772800D01*
X138913416Y-33813723D01*
X138776484Y-33892780D01*
X138664680Y-34004584D01*
X138585623Y-34141516D01*
X138565962Y-34214894D01*
X138544700Y-34294244D01*
X138544700Y-34366399D01*
X138525793Y-34424590D01*
X138515704Y-34436403D01*
X125969303Y-46982804D01*
X125914786Y-47010581D01*
X125899299Y-47011800D01*
X115463601Y-47011800D01*
X115405410Y-46992893D01*
X115369446Y-46943393D01*
X115369446Y-46882207D01*
X115393597Y-46842796D01*
X116829608Y-45406785D01*
X120137870Y-45406785D01*
X120137870Y-45583950D01*
X120165583Y-45758920D01*
X120165584Y-45758923D01*
X120220328Y-45927410D01*
X120300756Y-46085258D01*
X120404887Y-46228582D01*
X120530156Y-46353851D01*
X120673480Y-46457982D01*
X120831328Y-46538410D01*
X120999815Y-46593154D01*
X121069805Y-46604239D01*
X121174788Y-46620868D01*
X121174791Y-46620868D01*
X121351952Y-46620868D01*
X121439437Y-46607011D01*
X121526925Y-46593154D01*
X121695412Y-46538410D01*
X121853260Y-46457982D01*
X121996584Y-46353851D01*
X122121853Y-46228582D01*
X122225984Y-46085258D01*
X122306412Y-45927410D01*
X122361156Y-45758923D01*
X122375013Y-45671435D01*
X122388870Y-45583950D01*
X122388870Y-45406785D01*
X122361156Y-45231815D01*
X122361156Y-45231813D01*
X122306412Y-45063326D01*
X122225984Y-44905478D01*
X122121853Y-44762154D01*
X121996584Y-44636885D01*
X121853260Y-44532754D01*
X121853259Y-44532753D01*
X121853257Y-44532752D01*
X121695410Y-44452325D01*
X121526922Y-44397581D01*
X121351952Y-44369868D01*
X121351949Y-44369868D01*
X121174791Y-44369868D01*
X121174788Y-44369868D01*
X120999817Y-44397581D01*
X120831329Y-44452325D01*
X120673482Y-44532752D01*
X120530157Y-44636884D01*
X120404886Y-44762155D01*
X120300754Y-44905480D01*
X120220327Y-45063327D01*
X120165583Y-45231815D01*
X120137870Y-45406785D01*
X116829608Y-45406785D01*
X122304797Y-39931596D01*
X122359314Y-39903819D01*
X122374801Y-39902600D01*
X122446955Y-39902600D01*
X122446957Y-39902600D01*
X122599684Y-39861677D01*
X122736616Y-39782620D01*
X122848420Y-39670816D01*
X122927477Y-39533884D01*
X122968400Y-39381157D01*
X122968400Y-39223043D01*
X122927477Y-39070316D01*
X122848420Y-38933384D01*
X122736616Y-38821580D01*
X122599684Y-38742523D01*
X122446957Y-38701600D01*
X122288843Y-38701600D01*
X122136116Y-38742523D01*
X121999184Y-38821580D01*
X121887380Y-38933384D01*
X121808323Y-39070316D01*
X121767400Y-39223044D01*
X121767400Y-39295199D01*
X121748493Y-39353390D01*
X121738404Y-39365203D01*
X114722603Y-46381004D01*
X114668086Y-46408781D01*
X114652599Y-46410000D01*
X91546901Y-46410000D01*
X91488710Y-46391093D01*
X91452746Y-46341593D01*
X91452746Y-46280407D01*
X91476897Y-46240996D01*
X94192898Y-43524995D01*
X99262725Y-43524995D01*
X99262725Y-43702160D01*
X99290438Y-43877130D01*
X99345182Y-44045618D01*
X99423987Y-44200282D01*
X99425611Y-44203468D01*
X99529742Y-44346792D01*
X99655011Y-44472061D01*
X99798335Y-44576192D01*
X99956183Y-44656620D01*
X100124670Y-44711364D01*
X100194660Y-44722449D01*
X100299643Y-44739078D01*
X100299646Y-44739078D01*
X100476807Y-44739078D01*
X100564292Y-44725221D01*
X100651780Y-44711364D01*
X100820267Y-44656620D01*
X100978115Y-44576192D01*
X101121439Y-44472061D01*
X101246708Y-44346792D01*
X101350839Y-44203468D01*
X101431267Y-44045620D01*
X101486011Y-43877133D01*
X101505194Y-43756018D01*
X101513725Y-43702160D01*
X101513725Y-43524995D01*
X101493444Y-43396952D01*
X101486011Y-43350023D01*
X101431267Y-43181536D01*
X101350839Y-43023688D01*
X101246708Y-42880364D01*
X101121439Y-42755095D01*
X100978115Y-42650964D01*
X100978114Y-42650963D01*
X100978112Y-42650962D01*
X100820265Y-42570535D01*
X100651777Y-42515791D01*
X100476807Y-42488078D01*
X100476804Y-42488078D01*
X100299646Y-42488078D01*
X100299643Y-42488078D01*
X100124672Y-42515791D01*
X99956184Y-42570535D01*
X99798337Y-42650962D01*
X99655012Y-42755094D01*
X99529741Y-42880365D01*
X99425609Y-43023690D01*
X99345182Y-43181537D01*
X99290438Y-43350025D01*
X99262725Y-43524995D01*
X94192898Y-43524995D01*
X94266788Y-43451105D01*
X102700296Y-35017596D01*
X102754813Y-34989819D01*
X102770300Y-34988600D01*
X117501914Y-34988600D01*
X117560105Y-35007507D01*
X117596069Y-35057007D01*
X117596069Y-35118193D01*
X117560106Y-35167691D01*
X117463127Y-35238150D01*
X117426234Y-35264955D01*
X117300963Y-35390226D01*
X117196831Y-35533551D01*
X117116404Y-35691398D01*
X117061660Y-35859886D01*
X117033947Y-36034856D01*
X117033947Y-36212021D01*
X117061660Y-36386991D01*
X117116404Y-36555479D01*
X117172400Y-36665378D01*
X117196833Y-36713329D01*
X117300964Y-36856653D01*
X117426233Y-36981922D01*
X117569557Y-37086053D01*
X117727405Y-37166481D01*
X117895892Y-37221225D01*
X117965882Y-37232310D01*
X118070865Y-37248939D01*
X118070868Y-37248939D01*
X118248029Y-37248939D01*
X118335514Y-37235082D01*
X118423002Y-37221225D01*
X118591489Y-37166481D01*
X118749337Y-37086053D01*
X118892661Y-36981922D01*
X119017930Y-36856653D01*
X119122061Y-36713329D01*
X119202489Y-36555481D01*
X119257233Y-36386994D01*
X119271090Y-36299506D01*
X119284947Y-36212021D01*
X119284947Y-36034856D01*
X119263767Y-35901135D01*
X119257233Y-35859884D01*
X119202489Y-35691397D01*
X119122061Y-35533549D01*
X119017930Y-35390225D01*
X118892661Y-35264956D01*
X118758787Y-35167691D01*
X118722825Y-35118193D01*
X118722825Y-35057007D01*
X118758789Y-35007507D01*
X118816980Y-34988600D01*
X121017925Y-34988600D01*
X121017927Y-34988600D01*
X121119788Y-34961307D01*
X121119790Y-34961305D01*
X121119792Y-34961305D01*
X121211108Y-34908583D01*
X121211108Y-34908582D01*
X121211113Y-34908580D01*
X127593097Y-28526596D01*
X127647614Y-28498819D01*
X127663101Y-28497600D01*
X127735255Y-28497600D01*
X127735257Y-28497600D01*
X127887984Y-28456677D01*
X128024916Y-28377620D01*
X128136720Y-28265816D01*
X128194884Y-28165072D01*
X136314428Y-28165072D01*
X136314428Y-28342237D01*
X136342141Y-28517207D01*
X136385279Y-28649976D01*
X136396886Y-28685697D01*
X136477314Y-28843545D01*
X136581445Y-28986869D01*
X136706714Y-29112138D01*
X136850038Y-29216269D01*
X137007886Y-29296697D01*
X137176373Y-29351441D01*
X137246363Y-29362526D01*
X137351346Y-29379155D01*
X137351349Y-29379155D01*
X137528510Y-29379155D01*
X137615995Y-29365298D01*
X137703483Y-29351441D01*
X137871970Y-29296697D01*
X138029818Y-29216269D01*
X138173142Y-29112138D01*
X138298411Y-28986869D01*
X138402542Y-28843545D01*
X138482970Y-28685697D01*
X138537714Y-28517210D01*
X138554555Y-28410880D01*
X138565428Y-28342237D01*
X138565428Y-28165072D01*
X138541079Y-28011344D01*
X138537714Y-27990100D01*
X138482970Y-27821613D01*
X138402542Y-27663765D01*
X138298411Y-27520441D01*
X138173142Y-27395172D01*
X138029818Y-27291041D01*
X138029817Y-27291040D01*
X138029815Y-27291039D01*
X137871968Y-27210612D01*
X137703480Y-27155868D01*
X137528510Y-27128155D01*
X137528507Y-27128155D01*
X137351349Y-27128155D01*
X137351346Y-27128155D01*
X137176375Y-27155868D01*
X137007887Y-27210612D01*
X136850040Y-27291039D01*
X136706715Y-27395171D01*
X136581444Y-27520442D01*
X136477312Y-27663767D01*
X136396885Y-27821614D01*
X136342141Y-27990102D01*
X136314428Y-28165072D01*
X128194884Y-28165072D01*
X128215777Y-28128884D01*
X128256700Y-27976157D01*
X128256700Y-27818043D01*
X128215777Y-27665316D01*
X128136720Y-27528384D01*
X128024916Y-27416580D01*
X127887984Y-27337523D01*
X127735257Y-27296600D01*
X127577143Y-27296600D01*
X127424416Y-27337523D01*
X127287484Y-27416580D01*
X127175680Y-27528384D01*
X127096623Y-27665316D01*
X127055700Y-27818044D01*
X127055700Y-27890199D01*
X127036793Y-27948390D01*
X127026704Y-27960203D01*
X120828303Y-34158604D01*
X120773786Y-34186381D01*
X120758299Y-34187600D01*
X102622206Y-34187600D01*
X102622190Y-34187599D01*
X102616127Y-34187599D01*
X102510673Y-34187599D01*
X102510670Y-34187599D01*
X102408813Y-34214892D01*
X102408809Y-34214894D01*
X102317487Y-34267619D01*
X102242919Y-34342186D01*
X102242920Y-34342187D01*
X90805803Y-45779304D01*
X90751286Y-45807081D01*
X90735799Y-45808300D01*
X83587201Y-45808300D01*
X83529010Y-45789393D01*
X83493046Y-45739893D01*
X83493046Y-45678707D01*
X83517197Y-45639296D01*
X94800510Y-34355983D01*
X95704102Y-34355983D01*
X95704102Y-34533148D01*
X95731815Y-34708118D01*
X95786559Y-34876606D01*
X95862502Y-35025653D01*
X95866988Y-35034456D01*
X95971119Y-35177780D01*
X96096388Y-35303049D01*
X96239712Y-35407180D01*
X96397560Y-35487608D01*
X96566047Y-35542352D01*
X96636037Y-35553437D01*
X96741020Y-35570066D01*
X96741023Y-35570066D01*
X96918184Y-35570066D01*
X97005669Y-35556209D01*
X97093157Y-35542352D01*
X97261644Y-35487608D01*
X97419492Y-35407180D01*
X97562816Y-35303049D01*
X97688085Y-35177780D01*
X97792216Y-35034456D01*
X97872644Y-34876608D01*
X97927388Y-34708121D01*
X97955102Y-34533145D01*
X97955102Y-34355987D01*
X97955102Y-34355983D01*
X97929873Y-34196700D01*
X97927388Y-34181011D01*
X97872644Y-34012524D01*
X97792216Y-33854676D01*
X97688085Y-33711352D01*
X97562816Y-33586083D01*
X97419492Y-33481952D01*
X97419491Y-33481951D01*
X97419489Y-33481950D01*
X97261642Y-33401523D01*
X97093154Y-33346779D01*
X96918184Y-33319066D01*
X96918181Y-33319066D01*
X96741023Y-33319066D01*
X96741020Y-33319066D01*
X96566049Y-33346779D01*
X96397561Y-33401523D01*
X96239714Y-33481950D01*
X96096389Y-33586082D01*
X95971118Y-33711353D01*
X95866986Y-33854678D01*
X95786559Y-34012525D01*
X95731815Y-34181013D01*
X95704102Y-34355983D01*
X94800510Y-34355983D01*
X98414497Y-30741996D01*
X98469014Y-30714219D01*
X98484501Y-30713000D01*
X98556655Y-30713000D01*
X98556657Y-30713000D01*
X98709384Y-30672077D01*
X98846316Y-30593020D01*
X98958120Y-30481216D01*
X99037177Y-30344284D01*
X99078100Y-30191557D01*
X99078100Y-30033443D01*
X99037177Y-29880716D01*
X98958120Y-29743784D01*
X98846316Y-29631980D01*
X98709384Y-29552923D01*
X98556657Y-29512000D01*
X98398543Y-29512000D01*
X98245816Y-29552923D01*
X98108884Y-29631980D01*
X97997080Y-29743784D01*
X97918023Y-29880716D01*
X97877623Y-30031493D01*
X97877100Y-30033444D01*
X97877100Y-30105599D01*
X97858193Y-30163790D01*
X97848104Y-30175603D01*
X82646103Y-45377604D01*
X82591586Y-45405381D01*
X82576099Y-45406600D01*
X64085301Y-45406600D01*
X64027110Y-45387693D01*
X63991146Y-45338193D01*
X63991146Y-45277007D01*
X64015297Y-45237596D01*
X66614536Y-42638357D01*
X78971800Y-42638357D01*
X78971800Y-42815522D01*
X78999513Y-42990492D01*
X79054257Y-43158980D01*
X79128403Y-43304500D01*
X79134686Y-43316830D01*
X79238817Y-43460154D01*
X79364086Y-43585423D01*
X79507410Y-43689554D01*
X79665258Y-43769982D01*
X79833745Y-43824726D01*
X79903735Y-43835811D01*
X80008718Y-43852440D01*
X80008721Y-43852440D01*
X80185882Y-43852440D01*
X80273367Y-43838583D01*
X80360855Y-43824726D01*
X80529342Y-43769982D01*
X80687190Y-43689554D01*
X80830514Y-43585423D01*
X80955783Y-43460154D01*
X81059914Y-43316830D01*
X81140342Y-43158982D01*
X81195086Y-42990495D01*
X81222800Y-42815519D01*
X81222800Y-42638361D01*
X81222800Y-42638357D01*
X81195086Y-42463387D01*
X81195086Y-42463385D01*
X81140342Y-42294898D01*
X81059914Y-42137050D01*
X80955783Y-41993726D01*
X80830514Y-41868457D01*
X80687190Y-41764326D01*
X80687189Y-41764325D01*
X80687187Y-41764324D01*
X80529340Y-41683897D01*
X80360852Y-41629153D01*
X80185882Y-41601440D01*
X80185879Y-41601440D01*
X80008721Y-41601440D01*
X80008718Y-41601440D01*
X79833747Y-41629153D01*
X79665259Y-41683897D01*
X79507412Y-41764324D01*
X79364087Y-41868456D01*
X79238816Y-41993727D01*
X79134684Y-42137052D01*
X79054257Y-42294899D01*
X78999513Y-42463387D01*
X78971800Y-42638357D01*
X66614536Y-42638357D01*
X73425197Y-35827696D01*
X73479714Y-35799919D01*
X73495201Y-35798700D01*
X80122025Y-35798700D01*
X80122027Y-35798700D01*
X80223888Y-35771407D01*
X80223890Y-35771405D01*
X80223892Y-35771405D01*
X80315208Y-35718683D01*
X80315208Y-35718682D01*
X80315213Y-35718680D01*
X82260597Y-33773296D01*
X82315114Y-33745519D01*
X82330601Y-33744300D01*
X82402755Y-33744300D01*
X82402757Y-33744300D01*
X82555484Y-33703377D01*
X82692416Y-33624320D01*
X82804220Y-33512516D01*
X82883277Y-33375584D01*
X82924200Y-33222857D01*
X82924200Y-33064743D01*
X82883277Y-32912016D01*
X82804220Y-32775084D01*
X82692416Y-32663280D01*
X82555484Y-32584223D01*
X82402757Y-32543300D01*
X82244643Y-32543300D01*
X82091916Y-32584223D01*
X81954984Y-32663280D01*
X81843180Y-32775084D01*
X81764123Y-32912016D01*
X81732123Y-33031444D01*
X81723200Y-33064744D01*
X81723200Y-33136899D01*
X81704293Y-33195090D01*
X81694204Y-33206903D01*
X79932403Y-34968704D01*
X79877886Y-34996481D01*
X79862399Y-34997700D01*
X76844008Y-34997700D01*
X76785817Y-34978793D01*
X76749853Y-34929293D01*
X76749853Y-34868107D01*
X76785817Y-34818607D01*
X76801669Y-34809729D01*
X76801535Y-34809466D01*
X76805001Y-34807700D01*
X76962849Y-34727272D01*
X77106173Y-34623141D01*
X77231442Y-34497872D01*
X77335573Y-34354548D01*
X77416001Y-34196700D01*
X77470745Y-34028213D01*
X77484602Y-33940725D01*
X77498459Y-33853240D01*
X77498459Y-33676075D01*
X77479983Y-33559428D01*
X77470745Y-33501103D01*
X77416001Y-33332616D01*
X77335573Y-33174768D01*
X77231442Y-33031444D01*
X77106173Y-32906175D01*
X76962849Y-32802044D01*
X76962848Y-32802043D01*
X76962846Y-32802042D01*
X76804999Y-32721615D01*
X76636511Y-32666871D01*
X76461541Y-32639158D01*
X76461538Y-32639158D01*
X76284380Y-32639158D01*
X76284377Y-32639158D01*
X76109406Y-32666871D01*
X75940918Y-32721615D01*
X75783071Y-32802042D01*
X75639746Y-32906174D01*
X75514475Y-33031445D01*
X75410343Y-33174770D01*
X75329916Y-33332617D01*
X75275172Y-33501105D01*
X75247459Y-33676075D01*
X75247459Y-33853240D01*
X75275172Y-34028210D01*
X75329916Y-34196698D01*
X75404047Y-34342189D01*
X75410345Y-34354548D01*
X75514476Y-34497872D01*
X75639745Y-34623141D01*
X75783069Y-34727272D01*
X75783071Y-34727273D01*
X75944383Y-34809466D01*
X75943784Y-34810641D01*
X75986323Y-34846975D01*
X76000605Y-34906470D01*
X75977189Y-34962997D01*
X75925019Y-34994965D01*
X75901910Y-34997700D01*
X73341027Y-34997700D01*
X73235573Y-34997700D01*
X73173229Y-35014404D01*
X73133707Y-35024994D01*
X73042391Y-35077716D01*
X61724203Y-46395904D01*
X61669686Y-46423681D01*
X61654199Y-46424900D01*
X50949701Y-46424900D01*
X50891510Y-46405993D01*
X50855546Y-46356493D01*
X50855546Y-46295307D01*
X50879697Y-46255896D01*
X52826297Y-44309296D01*
X52880814Y-44281519D01*
X52896301Y-44280300D01*
X57143525Y-44280300D01*
X57143527Y-44280300D01*
X57245388Y-44253007D01*
X57245390Y-44253005D01*
X57245392Y-44253005D01*
X57336708Y-44200283D01*
X57336708Y-44200282D01*
X57336713Y-44200280D01*
X59080576Y-42456417D01*
X59834500Y-42456417D01*
X59834500Y-42633582D01*
X59862213Y-42808552D01*
X59862214Y-42808555D01*
X59916958Y-42977042D01*
X59997386Y-43134890D01*
X60101517Y-43278214D01*
X60226786Y-43403483D01*
X60370110Y-43507614D01*
X60527958Y-43588042D01*
X60696445Y-43642786D01*
X60745862Y-43650613D01*
X60871418Y-43670500D01*
X60871421Y-43670500D01*
X61048582Y-43670500D01*
X61136067Y-43656643D01*
X61223555Y-43642786D01*
X61392042Y-43588042D01*
X61549890Y-43507614D01*
X61693214Y-43403483D01*
X61818483Y-43278214D01*
X61922614Y-43134890D01*
X62003042Y-42977042D01*
X62057786Y-42808555D01*
X62071643Y-42721067D01*
X62085500Y-42633582D01*
X62085500Y-42456417D01*
X62057786Y-42281447D01*
X62057786Y-42281445D01*
X62003042Y-42112958D01*
X61922614Y-41955110D01*
X61818483Y-41811786D01*
X61693214Y-41686517D01*
X61549890Y-41582386D01*
X61549889Y-41582385D01*
X61549887Y-41582384D01*
X61392040Y-41501957D01*
X61223552Y-41447213D01*
X61048582Y-41419500D01*
X61048579Y-41419500D01*
X60871421Y-41419500D01*
X60871418Y-41419500D01*
X60696447Y-41447213D01*
X60527959Y-41501957D01*
X60370112Y-41582384D01*
X60226787Y-41686516D01*
X60101516Y-41811787D01*
X59997384Y-41955112D01*
X59916957Y-42112959D01*
X59862213Y-42281447D01*
X59834500Y-42456417D01*
X59080576Y-42456417D01*
X63154097Y-38382896D01*
X63208614Y-38355119D01*
X63224101Y-38353900D01*
X65617425Y-38353900D01*
X65617427Y-38353900D01*
X65719288Y-38326607D01*
X65719290Y-38326605D01*
X65719292Y-38326605D01*
X65810608Y-38273883D01*
X65810608Y-38273882D01*
X65810613Y-38273880D01*
X73433896Y-30650595D01*
X73488413Y-30622819D01*
X73503900Y-30621600D01*
X92911825Y-30621600D01*
X92911827Y-30621600D01*
X93013688Y-30594307D01*
X93013690Y-30594305D01*
X93013692Y-30594305D01*
X93105008Y-30541583D01*
X93105008Y-30541582D01*
X93105013Y-30541580D01*
X97716615Y-25929978D01*
X115977053Y-25929978D01*
X115977053Y-26107143D01*
X116004766Y-26282113D01*
X116004767Y-26282116D01*
X116059511Y-26450603D01*
X116139939Y-26608451D01*
X116244070Y-26751775D01*
X116369339Y-26877044D01*
X116512663Y-26981175D01*
X116670511Y-27061603D01*
X116838998Y-27116347D01*
X116908988Y-27127432D01*
X117013971Y-27144061D01*
X117013974Y-27144061D01*
X117191135Y-27144061D01*
X117278620Y-27130204D01*
X117366108Y-27116347D01*
X117534595Y-27061603D01*
X117692443Y-26981175D01*
X117835767Y-26877044D01*
X117961036Y-26751775D01*
X118065167Y-26608451D01*
X118145595Y-26450603D01*
X118200339Y-26282116D01*
X118228053Y-26107140D01*
X118228053Y-25929982D01*
X118228053Y-25929978D01*
X118200339Y-25755008D01*
X118200339Y-25755006D01*
X118145595Y-25586519D01*
X118065167Y-25428671D01*
X117961036Y-25285347D01*
X117835767Y-25160078D01*
X117692443Y-25055947D01*
X117692442Y-25055946D01*
X117692440Y-25055945D01*
X117534593Y-24975518D01*
X117366105Y-24920774D01*
X117191135Y-24893061D01*
X117191132Y-24893061D01*
X117013974Y-24893061D01*
X117013971Y-24893061D01*
X116839000Y-24920774D01*
X116670512Y-24975518D01*
X116512665Y-25055945D01*
X116369340Y-25160077D01*
X116244069Y-25285348D01*
X116139937Y-25428673D01*
X116059510Y-25586520D01*
X116004766Y-25755008D01*
X115977053Y-25929978D01*
X97716615Y-25929978D01*
X105337831Y-18308762D01*
X129558572Y-18308762D01*
X129558572Y-18485927D01*
X129586285Y-18660897D01*
X129586286Y-18660900D01*
X129641030Y-18829387D01*
X129721458Y-18987235D01*
X129825589Y-19130559D01*
X129950858Y-19255828D01*
X130094182Y-19359959D01*
X130252030Y-19440387D01*
X130420517Y-19495131D01*
X130490507Y-19506216D01*
X130595490Y-19522845D01*
X130595493Y-19522845D01*
X130772654Y-19522845D01*
X130860139Y-19508988D01*
X130947627Y-19495131D01*
X131116114Y-19440387D01*
X131273962Y-19359959D01*
X131417286Y-19255828D01*
X131542555Y-19130559D01*
X131646686Y-18987235D01*
X131727114Y-18829387D01*
X131781858Y-18660900D01*
X131809572Y-18485924D01*
X131809572Y-18308766D01*
X131809572Y-18308762D01*
X131781858Y-18133792D01*
X131781858Y-18133790D01*
X131727114Y-17965303D01*
X131646686Y-17807455D01*
X131542555Y-17664131D01*
X131417286Y-17538862D01*
X131273962Y-17434731D01*
X131273961Y-17434730D01*
X131273959Y-17434729D01*
X131116112Y-17354302D01*
X130947624Y-17299558D01*
X130772654Y-17271845D01*
X130772651Y-17271845D01*
X130595493Y-17271845D01*
X130595490Y-17271845D01*
X130420519Y-17299558D01*
X130252031Y-17354302D01*
X130094184Y-17434729D01*
X129950859Y-17538861D01*
X129825588Y-17664132D01*
X129721456Y-17807457D01*
X129641029Y-17965304D01*
X129586285Y-18133792D01*
X129558572Y-18308762D01*
X105337831Y-18308762D01*
X107441600Y-16204993D01*
X108507311Y-16204993D01*
X108507311Y-16382158D01*
X108535024Y-16557128D01*
X108589768Y-16725616D01*
X108654724Y-16853100D01*
X108670197Y-16883466D01*
X108774328Y-17026790D01*
X108899597Y-17152059D01*
X109042921Y-17256190D01*
X109200769Y-17336618D01*
X109369256Y-17391362D01*
X109408079Y-17397511D01*
X109544229Y-17419076D01*
X109544232Y-17419076D01*
X109721393Y-17419076D01*
X109808878Y-17405219D01*
X109896366Y-17391362D01*
X110064853Y-17336618D01*
X110222701Y-17256190D01*
X110366025Y-17152059D01*
X110491294Y-17026790D01*
X110595425Y-16883466D01*
X110675853Y-16725618D01*
X110730597Y-16557131D01*
X110758311Y-16382155D01*
X110758311Y-16204997D01*
X110758311Y-16204993D01*
X110730597Y-16030023D01*
X110730597Y-16030021D01*
X110675853Y-15861534D01*
X110595425Y-15703686D01*
X110491294Y-15560362D01*
X110366025Y-15435093D01*
X110222701Y-15330962D01*
X110222700Y-15330961D01*
X110222698Y-15330960D01*
X110064851Y-15250533D01*
X109896363Y-15195789D01*
X109721393Y-15168076D01*
X109721390Y-15168076D01*
X109544232Y-15168076D01*
X109544229Y-15168076D01*
X109369258Y-15195789D01*
X109200770Y-15250533D01*
X109042923Y-15330960D01*
X108899598Y-15435092D01*
X108774327Y-15560363D01*
X108670195Y-15703688D01*
X108589768Y-15861535D01*
X108535024Y-16030023D01*
X108507311Y-16204993D01*
X107441600Y-16204993D01*
X111071297Y-12575296D01*
X111125814Y-12547519D01*
X111141301Y-12546300D01*
X111213455Y-12546300D01*
X111213457Y-12546300D01*
X111366184Y-12505377D01*
X111503116Y-12426320D01*
X111614920Y-12314516D01*
X111693977Y-12177584D01*
X111734900Y-12024857D01*
X111734900Y-11866743D01*
X111693977Y-11714016D01*
X111614920Y-11577084D01*
X111503116Y-11465280D01*
X111366184Y-11386223D01*
X111213457Y-11345300D01*
X111055343Y-11345300D01*
X110902616Y-11386223D01*
X110765684Y-11465280D01*
X110653880Y-11577084D01*
X110574823Y-11714016D01*
X110533900Y-11866744D01*
X110533900Y-11938899D01*
X110514993Y-11997090D01*
X110504904Y-12008903D01*
X92722203Y-29791604D01*
X92667686Y-29819381D01*
X92652199Y-29820600D01*
X78910473Y-29820600D01*
X78852282Y-29801693D01*
X78816318Y-29752193D01*
X78814846Y-29695978D01*
X78845800Y-29580457D01*
X78845800Y-29422343D01*
X78804877Y-29269616D01*
X78725820Y-29132684D01*
X78614016Y-29020880D01*
X78477084Y-28941823D01*
X78324357Y-28900900D01*
X78166243Y-28900900D01*
X78013516Y-28941823D01*
X77935494Y-28986869D01*
X77876581Y-29020882D01*
X77825559Y-29071904D01*
X77771042Y-29099681D01*
X77755556Y-29100900D01*
X71394773Y-29100900D01*
X71352832Y-29112138D01*
X71292911Y-29128193D01*
X71270885Y-29140911D01*
X71270884Y-29140910D01*
X71201588Y-29180919D01*
X64484403Y-35898104D01*
X64429886Y-35925881D01*
X64414399Y-35927100D01*
X64342243Y-35927100D01*
X64189516Y-35968023D01*
X64052584Y-36047080D01*
X63940780Y-36158884D01*
X63861723Y-36295816D01*
X63820800Y-36448543D01*
X63820800Y-36606657D01*
X63861723Y-36759384D01*
X63940780Y-36896316D01*
X64052584Y-37008120D01*
X64189516Y-37087177D01*
X64342243Y-37128100D01*
X64342245Y-37128100D01*
X64500355Y-37128100D01*
X64500357Y-37128100D01*
X64653084Y-37087177D01*
X64790016Y-37008120D01*
X64901820Y-36896316D01*
X64980877Y-36759384D01*
X65021800Y-36606657D01*
X65021800Y-36534501D01*
X65040707Y-36476310D01*
X65050796Y-36464497D01*
X71584397Y-29930896D01*
X71638914Y-29903119D01*
X71654401Y-29901900D01*
X72810799Y-29901900D01*
X72868990Y-29920807D01*
X72904954Y-29970307D01*
X72904954Y-30031493D01*
X72880803Y-30070904D01*
X65427803Y-37523904D01*
X65373286Y-37551681D01*
X65357799Y-37552900D01*
X63069927Y-37552900D01*
X62964473Y-37552900D01*
X62902129Y-37569604D01*
X62862607Y-37580194D01*
X62771291Y-37632916D01*
X56953903Y-43450304D01*
X56899386Y-43478081D01*
X56883899Y-43479300D01*
X52636673Y-43479300D01*
X52575470Y-43495699D01*
X52534808Y-43506594D01*
X52482301Y-43536909D01*
X52482302Y-43536910D01*
X52443488Y-43559319D01*
X49611516Y-46391291D01*
X49558794Y-46482608D01*
X49553872Y-46500977D01*
X49528250Y-46545355D01*
X43204364Y-52869241D01*
X43149847Y-52897018D01*
X43089415Y-52887447D01*
X43046150Y-52844182D01*
X43036870Y-52797469D01*
X43035500Y-52797469D01*
X43035500Y-52616417D01*
X43017024Y-52499770D01*
X43007786Y-52441445D01*
X42953042Y-52272958D01*
X42872614Y-52115110D01*
X42768483Y-51971786D01*
X42643214Y-51846517D01*
X42499890Y-51742386D01*
X42499889Y-51742385D01*
X42499887Y-51742384D01*
X42342040Y-51661957D01*
X42173552Y-51607213D01*
X41998582Y-51579500D01*
X41998579Y-51579500D01*
X41821421Y-51579500D01*
X41821418Y-51579500D01*
X41646447Y-51607213D01*
X41477959Y-51661957D01*
X41320112Y-51742384D01*
X41176787Y-51846516D01*
X41051516Y-51971787D01*
X40947384Y-52115112D01*
X40866957Y-52272959D01*
X40812213Y-52441447D01*
X40784500Y-52616417D01*
X40784500Y-52793582D01*
X40812213Y-52968552D01*
X40840880Y-53056783D01*
X40866958Y-53137042D01*
X40947386Y-53294890D01*
X41051517Y-53438214D01*
X41176786Y-53563483D01*
X41320110Y-53667614D01*
X41477958Y-53748042D01*
X41646445Y-53802786D01*
X41716435Y-53813871D01*
X41821418Y-53830500D01*
X42002469Y-53830500D01*
X42002469Y-53832117D01*
X42055924Y-53844924D01*
X42095683Y-53891430D01*
X42100513Y-53952425D01*
X42074241Y-53999364D01*
X39478403Y-56595204D01*
X39423886Y-56622981D01*
X39408399Y-56624200D01*
X37512927Y-56624200D01*
X37407473Y-56624200D01*
X37345129Y-56640904D01*
X37305607Y-56651494D01*
X37214291Y-56704216D01*
X30872616Y-63045891D01*
X30819895Y-63137206D01*
X30819893Y-63137210D01*
X30819893Y-63137212D01*
X30794656Y-63231400D01*
X30792600Y-63239073D01*
X30792600Y-64197173D01*
X30792600Y-64302627D01*
X30813202Y-64379515D01*
X30819894Y-64404492D01*
X30872616Y-64495808D01*
X30872618Y-64495810D01*
X30872620Y-64495813D01*
X32595318Y-66218510D01*
X32595320Y-66218513D01*
X32669887Y-66293080D01*
X32669889Y-66293081D01*
X32738639Y-66332775D01*
X32738648Y-66332778D01*
X32738650Y-66332780D01*
X32761213Y-66345807D01*
X32863070Y-66373100D01*
X32863072Y-66373101D01*
X32863073Y-66373101D01*
X32974590Y-66373101D01*
X32974606Y-66373100D01*
X35159956Y-66373100D01*
X35218147Y-66392007D01*
X35229959Y-66402096D01*
X35259781Y-66431917D01*
X35280984Y-66453120D01*
X35417916Y-66532177D01*
X35570643Y-66573100D01*
X35570645Y-66573100D01*
X35728755Y-66573100D01*
X35728757Y-66573100D01*
X35881484Y-66532177D01*
X36018416Y-66453120D01*
X36130220Y-66341316D01*
X36209277Y-66204384D01*
X36250200Y-66051657D01*
X36250200Y-65893543D01*
X36209277Y-65740816D01*
X36130220Y-65603884D01*
X36018416Y-65492080D01*
X35881484Y-65413023D01*
X35728757Y-65372100D01*
X35570643Y-65372100D01*
X35417916Y-65413023D01*
X35317701Y-65470882D01*
X35280981Y-65492082D01*
X35229959Y-65543104D01*
X35175442Y-65570881D01*
X35159956Y-65572100D01*
X33122700Y-65572100D01*
X33064509Y-65553193D01*
X33052696Y-65543104D01*
X32168093Y-64658501D01*
X32140316Y-64603984D01*
X32149887Y-64543552D01*
X32188596Y-64502762D01*
X32208416Y-64491320D01*
X32320220Y-64379516D01*
X32392631Y-64254095D01*
X32438099Y-64213156D01*
X32498949Y-64206760D01*
X32551937Y-64237353D01*
X32564099Y-64254091D01*
X32629180Y-64366816D01*
X32740984Y-64478620D01*
X32877916Y-64557677D01*
X33030643Y-64598600D01*
X33030645Y-64598600D01*
X33188755Y-64598600D01*
X33188757Y-64598600D01*
X33341484Y-64557677D01*
X33478416Y-64478620D01*
X33503929Y-64453106D01*
X33529441Y-64427596D01*
X33583958Y-64399819D01*
X33599444Y-64398600D01*
X47345999Y-64398600D01*
X47404190Y-64417507D01*
X47440154Y-64467007D01*
X47440154Y-64528193D01*
X47416003Y-64567604D01*
X46461703Y-65521904D01*
X46407186Y-65549681D01*
X46391699Y-65550900D01*
X39949444Y-65550900D01*
X39891253Y-65531993D01*
X39879441Y-65521904D01*
X39828418Y-65470882D01*
X39828416Y-65470880D01*
X39691484Y-65391823D01*
X39538757Y-65350900D01*
X39380643Y-65350900D01*
X39227916Y-65391823D01*
X39090984Y-65470880D01*
X38979178Y-65582686D01*
X38904027Y-65712852D01*
X38858558Y-65753793D01*
X38797708Y-65760189D01*
X38744720Y-65729596D01*
X38732557Y-65712857D01*
X38670220Y-65604884D01*
X38558416Y-65493080D01*
X38421484Y-65414023D01*
X38268757Y-65373100D01*
X38110643Y-65373100D01*
X37957916Y-65414023D01*
X37820984Y-65493080D01*
X37709180Y-65604884D01*
X37630123Y-65741816D01*
X37589200Y-65894543D01*
X37589200Y-66052657D01*
X37630123Y-66205384D01*
X37709180Y-66342316D01*
X37820984Y-66454120D01*
X37957916Y-66533177D01*
X38110643Y-66574100D01*
X38182799Y-66574100D01*
X38240990Y-66593007D01*
X38252803Y-66603096D01*
X39143520Y-67493813D01*
X39143519Y-67493813D01*
X39199622Y-67549915D01*
X39218087Y-67568380D01*
X39309413Y-67621107D01*
X39411273Y-67648400D01*
X39411275Y-67648400D01*
X47864725Y-67648400D01*
X47864727Y-67648400D01*
X47966588Y-67621107D01*
X47966590Y-67621105D01*
X47966592Y-67621105D01*
X48057908Y-67568383D01*
X48057908Y-67568382D01*
X48057913Y-67568380D01*
X48099038Y-67527255D01*
X48118898Y-67507396D01*
X48173415Y-67479619D01*
X48188901Y-67478400D01*
X52970499Y-67478400D01*
X53028690Y-67497307D01*
X53040503Y-67507396D01*
X54545087Y-69011980D01*
X54545092Y-69011983D01*
X54601696Y-69044664D01*
X54642636Y-69090134D01*
X54649031Y-69150984D01*
X54618438Y-69203972D01*
X54562543Y-69228858D01*
X54552195Y-69229400D01*
X27481506Y-69229400D01*
X27481490Y-69229399D01*
X27475427Y-69229399D01*
X27369973Y-69229399D01*
X27369970Y-69229399D01*
X27268113Y-69256692D01*
X27268109Y-69256694D01*
X27176787Y-69309419D01*
X27102219Y-69383986D01*
X27102220Y-69383987D01*
X24273404Y-72212803D01*
X24218887Y-72240580D01*
X24158455Y-72231009D01*
X24133396Y-72212803D01*
X19363796Y-67443203D01*
X19336019Y-67388686D01*
X19334800Y-67373199D01*
X19334800Y-67301044D01*
X19334800Y-67301043D01*
X19293877Y-67148316D01*
X19214820Y-67011384D01*
X19103016Y-66899580D01*
X18966084Y-66820523D01*
X18813357Y-66779600D01*
X18655243Y-66779600D01*
X18502516Y-66820523D01*
X18365584Y-66899580D01*
X18253780Y-67011384D01*
X18174723Y-67148316D01*
X18133800Y-67301043D01*
X-7415300Y-67301043D01*
X-7415300Y-61506417D01*
X14590500Y-61506417D01*
X14590500Y-61683582D01*
X14618213Y-61858552D01*
X14672957Y-62027040D01*
X14743752Y-62165984D01*
X14753386Y-62184890D01*
X14857517Y-62328214D01*
X14982786Y-62453483D01*
X15126110Y-62557614D01*
X15283958Y-62638042D01*
X15452445Y-62692786D01*
X15522435Y-62703871D01*
X15627418Y-62720500D01*
X15627421Y-62720500D01*
X15804582Y-62720500D01*
X15900546Y-62705300D01*
X15979555Y-62692786D01*
X16148042Y-62638042D01*
X16305890Y-62557614D01*
X16449214Y-62453483D01*
X16574483Y-62328214D01*
X16678614Y-62184890D01*
X16759042Y-62027042D01*
X16813786Y-61858555D01*
X16834635Y-61726923D01*
X16841500Y-61683582D01*
X16841500Y-61506417D01*
X16823024Y-61389770D01*
X16813786Y-61331445D01*
X16759042Y-61162958D01*
X16678614Y-61005110D01*
X16574483Y-60861786D01*
X16449214Y-60736517D01*
X16305890Y-60632386D01*
X16305889Y-60632385D01*
X16305887Y-60632384D01*
X16148040Y-60551957D01*
X15979552Y-60497213D01*
X15804582Y-60469500D01*
X15804579Y-60469500D01*
X15627421Y-60469500D01*
X15627418Y-60469500D01*
X15452447Y-60497213D01*
X15283959Y-60551957D01*
X15126112Y-60632384D01*
X14982787Y-60736516D01*
X14857516Y-60861787D01*
X14753384Y-61005112D01*
X14672957Y-61162959D01*
X14618213Y-61331447D01*
X14590500Y-61506417D01*
X-7415300Y-61506417D01*
X-7415300Y-59573692D01*
X2035250Y-59573692D01*
X2035250Y-59806307D01*
X2060248Y-59996184D01*
X2065613Y-60036930D01*
X2125816Y-60261610D01*
X2125820Y-60261623D01*
X2214833Y-60476521D01*
X2214835Y-60476526D01*
X2322681Y-60663319D01*
X2331142Y-60677974D01*
X2367217Y-60724988D01*
X2472742Y-60862512D01*
X2472744Y-60862514D01*
X2472748Y-60862519D01*
X2637231Y-61027002D01*
X2637235Y-61027005D01*
X2637237Y-61027007D01*
X2689883Y-61067403D01*
X2821776Y-61168608D01*
X2910431Y-61219793D01*
X2943178Y-61238700D01*
X3023225Y-61284915D01*
X3238132Y-61373932D01*
X3462820Y-61434137D01*
X3693443Y-61464500D01*
X3693444Y-61464500D01*
X3926056Y-61464500D01*
X3926057Y-61464500D01*
X4156680Y-61434137D01*
X4381368Y-61373932D01*
X4596275Y-61284915D01*
X4797724Y-61168608D01*
X4982269Y-61027002D01*
X5146752Y-60862519D01*
X5288358Y-60677974D01*
X5404665Y-60476525D01*
X5493682Y-60261618D01*
X5553887Y-60036930D01*
X5584250Y-59806307D01*
X5584250Y-59573693D01*
X5584250Y-59573692D01*
X25847750Y-59573692D01*
X25847750Y-59806307D01*
X25872748Y-59996184D01*
X25878113Y-60036930D01*
X25938316Y-60261610D01*
X25938320Y-60261623D01*
X26027333Y-60476521D01*
X26027335Y-60476526D01*
X26135181Y-60663319D01*
X26143642Y-60677974D01*
X26179717Y-60724988D01*
X26285242Y-60862512D01*
X26285244Y-60862514D01*
X26285248Y-60862519D01*
X26449731Y-61027002D01*
X26449735Y-61027005D01*
X26449737Y-61027007D01*
X26502383Y-61067403D01*
X26634276Y-61168608D01*
X26722931Y-61219793D01*
X26755678Y-61238700D01*
X26835725Y-61284915D01*
X27050632Y-61373932D01*
X27275320Y-61434137D01*
X27505943Y-61464500D01*
X27505944Y-61464500D01*
X27738556Y-61464500D01*
X27738557Y-61464500D01*
X27969180Y-61434137D01*
X28193868Y-61373932D01*
X28408775Y-61284915D01*
X28610224Y-61168608D01*
X28794769Y-61027002D01*
X28959252Y-60862519D01*
X29100858Y-60677974D01*
X29217165Y-60476525D01*
X29306182Y-60261618D01*
X29366387Y-60036930D01*
X29396750Y-59806307D01*
X29396750Y-59573693D01*
X29366387Y-59343070D01*
X29306182Y-59118382D01*
X29217165Y-58903475D01*
X29100858Y-58702026D01*
X28959252Y-58517481D01*
X28794769Y-58352998D01*
X28794764Y-58352994D01*
X28794762Y-58352992D01*
X28610221Y-58211390D01*
X28408776Y-58095085D01*
X28408771Y-58095083D01*
X28193873Y-58006070D01*
X28193872Y-58006069D01*
X28193868Y-58006068D01*
X27969180Y-57945863D01*
X27969175Y-57945862D01*
X27969174Y-57945862D01*
X27738557Y-57915500D01*
X27505943Y-57915500D01*
X27505942Y-57915500D01*
X27275325Y-57945862D01*
X27275322Y-57945862D01*
X27275320Y-57945863D01*
X27132786Y-57984055D01*
X27050639Y-58006066D01*
X27050626Y-58006070D01*
X26835728Y-58095083D01*
X26835723Y-58095085D01*
X26634278Y-58211390D01*
X26449737Y-58352992D01*
X26285242Y-58517487D01*
X26143640Y-58702028D01*
X26027335Y-58903473D01*
X26027333Y-58903478D01*
X25947612Y-59095943D01*
X25938318Y-59118382D01*
X25881187Y-59331600D01*
X25878112Y-59343075D01*
X25847750Y-59573692D01*
X5584250Y-59573692D01*
X5553887Y-59343070D01*
X5493682Y-59118382D01*
X5404665Y-58903475D01*
X5288358Y-58702026D01*
X5146752Y-58517481D01*
X4982269Y-58352998D01*
X4982264Y-58352994D01*
X4982262Y-58352992D01*
X4797721Y-58211390D01*
X4596276Y-58095085D01*
X4596271Y-58095083D01*
X4381373Y-58006070D01*
X4381372Y-58006069D01*
X4381368Y-58006068D01*
X4156680Y-57945863D01*
X4156675Y-57945862D01*
X4156674Y-57945862D01*
X3926057Y-57915500D01*
X3693443Y-57915500D01*
X3693442Y-57915500D01*
X3462825Y-57945862D01*
X3462822Y-57945862D01*
X3462820Y-57945863D01*
X3320286Y-57984055D01*
X3238139Y-58006066D01*
X3238126Y-58006070D01*
X3023228Y-58095083D01*
X3023223Y-58095085D01*
X2821778Y-58211390D01*
X2637237Y-58352992D01*
X2472742Y-58517487D01*
X2331140Y-58702028D01*
X2214835Y-58903473D01*
X2214833Y-58903478D01*
X2135112Y-59095943D01*
X2125818Y-59118382D01*
X2068687Y-59331600D01*
X2065612Y-59343075D01*
X2035250Y-59573692D01*
X-7415300Y-59573692D01*
X-7415300Y-55902319D01*
X-7409504Y-55868943D01*
X-7409099Y-55867812D01*
X-7405372Y-55858822D01*
X-7378071Y-55801163D01*
X-7373539Y-55792683D01*
X-7340773Y-55737943D01*
X-7335323Y-55729785D01*
X-7297358Y-55678644D01*
X-7291219Y-55671169D01*
X-7248320Y-55623844D01*
X-7241461Y-55616985D01*
X-7194131Y-55574081D01*
X-7186652Y-55567940D01*
X-7135514Y-55529977D01*
X-7127351Y-55524523D01*
X-7082226Y-55497511D01*
X-7072621Y-55491762D01*
X-7064149Y-55487234D01*
X-7006464Y-55459920D01*
X-6997375Y-55456158D01*
X-6996234Y-55455751D01*
X-6962983Y-55450000D01*
X-2952701Y-55450000D01*
X-2952700Y-55450000D01*
X-2923300Y-55448600D01*
X-2923294Y-55448599D01*
X-2923292Y-55448599D01*
X-2906391Y-55446043D01*
X-2894200Y-55444200D01*
X-2865600Y-55437100D01*
X-2837900Y-55427200D01*
X-2811300Y-55414600D01*
X-2811298Y-55414599D01*
X-2811294Y-55414597D01*
X-2798606Y-55406973D01*
X-2786000Y-55399400D01*
X-2762400Y-55381900D01*
X-2740600Y-55362100D01*
X-2740586Y-55362085D01*
X-2720804Y-55340305D01*
X-2720794Y-55340292D01*
X-2718640Y-55337388D01*
X-2703300Y-55316700D01*
X-2700757Y-55312468D01*
X-2688102Y-55291405D01*
X-2675498Y-55264795D01*
X-2665598Y-55237095D01*
X-2665598Y-55237093D01*
X-2658499Y-55208498D01*
X-2654100Y-55179407D01*
X-2652700Y-55149998D01*
X-2652700Y-52616417D01*
X9828000Y-52616417D01*
X9828000Y-52793582D01*
X9855713Y-52968552D01*
X9884380Y-53056783D01*
X9910458Y-53137042D01*
X9990886Y-53294890D01*
X10095017Y-53438214D01*
X10220286Y-53563483D01*
X10363610Y-53667614D01*
X10521458Y-53748042D01*
X10689945Y-53802786D01*
X10759935Y-53813871D01*
X10864918Y-53830500D01*
X10864921Y-53830500D01*
X11042082Y-53830500D01*
X11129567Y-53816643D01*
X11217055Y-53802786D01*
X11385542Y-53748042D01*
X11543390Y-53667614D01*
X11686714Y-53563483D01*
X11811983Y-53438214D01*
X11916114Y-53294890D01*
X11996542Y-53137042D01*
X12051286Y-52968555D01*
X12078384Y-52797469D01*
X12079000Y-52793582D01*
X12079000Y-52616417D01*
X14590500Y-52616417D01*
X14590500Y-52793582D01*
X14618213Y-52968552D01*
X14646880Y-53056783D01*
X14672958Y-53137042D01*
X14753386Y-53294890D01*
X14857517Y-53438214D01*
X14982786Y-53563483D01*
X15126110Y-53667614D01*
X15283958Y-53748042D01*
X15452445Y-53802786D01*
X15522435Y-53813871D01*
X15627418Y-53830500D01*
X15627421Y-53830500D01*
X15804582Y-53830500D01*
X15892067Y-53816643D01*
X15979555Y-53802786D01*
X16148042Y-53748042D01*
X16305890Y-53667614D01*
X16449214Y-53563483D01*
X16574483Y-53438214D01*
X16678614Y-53294890D01*
X16759042Y-53137042D01*
X16813786Y-52968555D01*
X16840884Y-52797469D01*
X16841500Y-52793582D01*
X16841500Y-52616417D01*
X16823024Y-52499770D01*
X16813786Y-52441445D01*
X16759042Y-52272958D01*
X16678614Y-52115110D01*
X16574483Y-51971786D01*
X16449214Y-51846517D01*
X16305890Y-51742386D01*
X16305889Y-51742385D01*
X16305887Y-51742384D01*
X16148040Y-51661957D01*
X15979552Y-51607213D01*
X15804582Y-51579500D01*
X15804579Y-51579500D01*
X15627421Y-51579500D01*
X15627418Y-51579500D01*
X15452447Y-51607213D01*
X15283959Y-51661957D01*
X15126112Y-51742384D01*
X14982787Y-51846516D01*
X14857516Y-51971787D01*
X14753384Y-52115112D01*
X14672957Y-52272959D01*
X14618213Y-52441447D01*
X14590500Y-52616417D01*
X12079000Y-52616417D01*
X12060524Y-52499770D01*
X12051286Y-52441445D01*
X11996542Y-52272958D01*
X11916114Y-52115110D01*
X11811983Y-51971786D01*
X11686714Y-51846517D01*
X11543390Y-51742386D01*
X11543389Y-51742385D01*
X11543387Y-51742384D01*
X11385540Y-51661957D01*
X11217052Y-51607213D01*
X11042082Y-51579500D01*
X11042079Y-51579500D01*
X10864921Y-51579500D01*
X10864918Y-51579500D01*
X10689947Y-51607213D01*
X10521459Y-51661957D01*
X10363612Y-51742384D01*
X10220287Y-51846516D01*
X10095016Y-51971787D01*
X9990884Y-52115112D01*
X9910457Y-52272959D01*
X9855713Y-52441447D01*
X9828000Y-52616417D01*
X-2652700Y-52616417D01*
X-2652700Y-42456417D01*
X9828000Y-42456417D01*
X9828000Y-42633582D01*
X9855713Y-42808552D01*
X9855714Y-42808555D01*
X9910458Y-42977042D01*
X9990886Y-43134890D01*
X10095017Y-43278214D01*
X10220286Y-43403483D01*
X10363610Y-43507614D01*
X10521458Y-43588042D01*
X10689945Y-43642786D01*
X10739362Y-43650613D01*
X10864918Y-43670500D01*
X10864921Y-43670500D01*
X11042082Y-43670500D01*
X11129567Y-43656643D01*
X11217055Y-43642786D01*
X11385542Y-43588042D01*
X11543390Y-43507614D01*
X11686714Y-43403483D01*
X11811983Y-43278214D01*
X11916114Y-43134890D01*
X11996542Y-42977042D01*
X12051286Y-42808555D01*
X12065143Y-42721067D01*
X12079000Y-42633582D01*
X12079000Y-42456417D01*
X14590500Y-42456417D01*
X14590500Y-42633582D01*
X14618213Y-42808552D01*
X14618214Y-42808555D01*
X14672958Y-42977042D01*
X14753386Y-43134890D01*
X14857517Y-43278214D01*
X14982786Y-43403483D01*
X15126110Y-43507614D01*
X15283958Y-43588042D01*
X15452445Y-43642786D01*
X15501862Y-43650613D01*
X15627418Y-43670500D01*
X15627421Y-43670500D01*
X15804582Y-43670500D01*
X15892067Y-43656643D01*
X15979555Y-43642786D01*
X16148042Y-43588042D01*
X16305890Y-43507614D01*
X16449214Y-43403483D01*
X16574483Y-43278214D01*
X16678614Y-43134890D01*
X16759042Y-42977042D01*
X16813786Y-42808555D01*
X16827643Y-42721067D01*
X16841500Y-42633582D01*
X16841500Y-42456417D01*
X40784500Y-42456417D01*
X40784500Y-42633582D01*
X40812213Y-42808552D01*
X40812214Y-42808555D01*
X40866958Y-42977042D01*
X40947386Y-43134890D01*
X41051517Y-43278214D01*
X41176786Y-43403483D01*
X41320110Y-43507614D01*
X41477958Y-43588042D01*
X41646445Y-43642786D01*
X41695862Y-43650613D01*
X41821418Y-43670500D01*
X41821421Y-43670500D01*
X41998582Y-43670500D01*
X42086067Y-43656643D01*
X42173555Y-43642786D01*
X42342042Y-43588042D01*
X42499890Y-43507614D01*
X42643214Y-43403483D01*
X42768483Y-43278214D01*
X42872614Y-43134890D01*
X42953042Y-42977042D01*
X43007786Y-42808555D01*
X43021643Y-42721067D01*
X43035500Y-42633582D01*
X43035500Y-42456417D01*
X43007786Y-42281447D01*
X43007786Y-42281445D01*
X42953042Y-42112958D01*
X42872614Y-41955110D01*
X42768483Y-41811786D01*
X42643214Y-41686517D01*
X42499890Y-41582386D01*
X42499889Y-41582385D01*
X42499887Y-41582384D01*
X42342040Y-41501957D01*
X42173552Y-41447213D01*
X41998582Y-41419500D01*
X41998579Y-41419500D01*
X41821421Y-41419500D01*
X41821418Y-41419500D01*
X41646447Y-41447213D01*
X41477959Y-41501957D01*
X41320112Y-41582384D01*
X41176787Y-41686516D01*
X41051516Y-41811787D01*
X40947384Y-41955112D01*
X40866957Y-42112959D01*
X40812213Y-42281447D01*
X40784500Y-42456417D01*
X16841500Y-42456417D01*
X16813786Y-42281447D01*
X16813786Y-42281445D01*
X16759042Y-42112958D01*
X16678614Y-41955110D01*
X16574483Y-41811786D01*
X16449214Y-41686517D01*
X16305890Y-41582386D01*
X16305889Y-41582385D01*
X16305887Y-41582384D01*
X16148040Y-41501957D01*
X15979552Y-41447213D01*
X15804582Y-41419500D01*
X15804579Y-41419500D01*
X15627421Y-41419500D01*
X15627418Y-41419500D01*
X15452447Y-41447213D01*
X15283959Y-41501957D01*
X15126112Y-41582384D01*
X14982787Y-41686516D01*
X14857516Y-41811787D01*
X14753384Y-41955112D01*
X14672957Y-42112959D01*
X14618213Y-42281447D01*
X14590500Y-42456417D01*
X12079000Y-42456417D01*
X12051286Y-42281447D01*
X12051286Y-42281445D01*
X11996542Y-42112958D01*
X11916114Y-41955110D01*
X11811983Y-41811786D01*
X11686714Y-41686517D01*
X11543390Y-41582386D01*
X11543389Y-41582385D01*
X11543387Y-41582384D01*
X11385540Y-41501957D01*
X11217052Y-41447213D01*
X11042082Y-41419500D01*
X11042079Y-41419500D01*
X10864921Y-41419500D01*
X10864918Y-41419500D01*
X10689947Y-41447213D01*
X10521459Y-41501957D01*
X10363612Y-41582384D01*
X10220287Y-41686516D01*
X10095016Y-41811787D01*
X9990884Y-41955112D01*
X9910457Y-42112959D01*
X9855713Y-42281447D01*
X9828000Y-42456417D01*
X-2652700Y-42456417D01*
X-2652700Y-36851221D01*
X-2646532Y-36816826D01*
X-2642758Y-36806640D01*
X-2638806Y-36797433D01*
X-2609775Y-36738269D01*
X-2604872Y-36729445D01*
X-2570002Y-36673601D01*
X-2564269Y-36665378D01*
X-2523829Y-36613216D01*
X-2517326Y-36605649D01*
X-2471854Y-36557835D01*
X-2464554Y-36550902D01*
X-2414620Y-36508101D01*
X-2406645Y-36501943D01*
X-2352500Y-36464374D01*
X-2344019Y-36459103D01*
X-2286294Y-36427148D01*
X-2277304Y-36422752D01*
X-2242744Y-36407973D01*
X-2203819Y-36400000D01*
X-1999501Y-36400000D01*
X-1999500Y-36400000D01*
X-1970100Y-36398600D01*
X-1970094Y-36398599D01*
X-1970092Y-36398599D01*
X-1953191Y-36396043D01*
X-1941000Y-36394200D01*
X-1912400Y-36387100D01*
X-1884700Y-36377200D01*
X-1858100Y-36364600D01*
X-1858098Y-36364599D01*
X-1858094Y-36364597D01*
X-1845406Y-36356973D01*
X-1832800Y-36349400D01*
X-1809200Y-36331900D01*
X-1787400Y-36312100D01*
X-1787386Y-36312085D01*
X-1767604Y-36290305D01*
X-1767594Y-36290292D01*
X-1750099Y-36266698D01*
X-1734902Y-36241405D01*
X-1722298Y-36214795D01*
X-1712398Y-36187095D01*
X-1712398Y-36187093D01*
X-1705299Y-36158498D01*
X-1700900Y-36129407D01*
X-1699500Y-36099998D01*
X-1699500Y-33566417D01*
X13162500Y-33566417D01*
X13162500Y-33743582D01*
X13190213Y-33918552D01*
X13244957Y-34087040D01*
X13310101Y-34214893D01*
X13325386Y-34244890D01*
X13429517Y-34388214D01*
X13554786Y-34513483D01*
X13698110Y-34617614D01*
X13855958Y-34698042D01*
X14024445Y-34752786D01*
X14094435Y-34763871D01*
X14199418Y-34780500D01*
X14199421Y-34780500D01*
X14376582Y-34780500D01*
X14464067Y-34766643D01*
X14551555Y-34752786D01*
X14720042Y-34698042D01*
X14877890Y-34617614D01*
X15021214Y-34513483D01*
X15146483Y-34388214D01*
X15250614Y-34244890D01*
X15331042Y-34087042D01*
X15385786Y-33918555D01*
X15402390Y-33813723D01*
X15413500Y-33743582D01*
X15413500Y-33566417D01*
X36974500Y-33566417D01*
X36974500Y-33743582D01*
X37002213Y-33918552D01*
X37056957Y-34087040D01*
X37122101Y-34214893D01*
X37137386Y-34244890D01*
X37241517Y-34388214D01*
X37366786Y-34513483D01*
X37510110Y-34617614D01*
X37667958Y-34698042D01*
X37836445Y-34752786D01*
X37906435Y-34763871D01*
X38011418Y-34780500D01*
X38011421Y-34780500D01*
X38188582Y-34780500D01*
X38276067Y-34766643D01*
X38363555Y-34752786D01*
X38532042Y-34698042D01*
X38689890Y-34617614D01*
X38833214Y-34513483D01*
X38958483Y-34388214D01*
X39062614Y-34244890D01*
X39143042Y-34087042D01*
X39197786Y-33918555D01*
X39214390Y-33813723D01*
X39225500Y-33743582D01*
X39225500Y-33566417D01*
X56024500Y-33566417D01*
X56024500Y-33743582D01*
X56052213Y-33918552D01*
X56106957Y-34087040D01*
X56172101Y-34214893D01*
X56187386Y-34244890D01*
X56291517Y-34388214D01*
X56416786Y-34513483D01*
X56560110Y-34617614D01*
X56717958Y-34698042D01*
X56886445Y-34752786D01*
X56956435Y-34763871D01*
X57061418Y-34780500D01*
X57061421Y-34780500D01*
X57238582Y-34780500D01*
X57326067Y-34766643D01*
X57413555Y-34752786D01*
X57582042Y-34698042D01*
X57739890Y-34617614D01*
X57883214Y-34513483D01*
X58008483Y-34388214D01*
X58112614Y-34244890D01*
X58193042Y-34087042D01*
X58247786Y-33918555D01*
X58264390Y-33813723D01*
X58275500Y-33743582D01*
X58275500Y-33566417D01*
X58247786Y-33391447D01*
X58247786Y-33391445D01*
X58193042Y-33222958D01*
X58112614Y-33065110D01*
X58008483Y-32921786D01*
X57883214Y-32796517D01*
X57739890Y-32692386D01*
X57739889Y-32692385D01*
X57739887Y-32692384D01*
X57582040Y-32611957D01*
X57413552Y-32557213D01*
X57238582Y-32529500D01*
X57238579Y-32529500D01*
X57061421Y-32529500D01*
X57061418Y-32529500D01*
X56886447Y-32557213D01*
X56717959Y-32611957D01*
X56560112Y-32692384D01*
X56416787Y-32796516D01*
X56291516Y-32921787D01*
X56187384Y-33065112D01*
X56106957Y-33222959D01*
X56052213Y-33391447D01*
X56024500Y-33566417D01*
X39225500Y-33566417D01*
X39197786Y-33391447D01*
X39197786Y-33391445D01*
X39143042Y-33222958D01*
X39062614Y-33065110D01*
X38958483Y-32921786D01*
X38833214Y-32796517D01*
X38689890Y-32692386D01*
X38689889Y-32692385D01*
X38689887Y-32692384D01*
X38532040Y-32611957D01*
X38363552Y-32557213D01*
X38188582Y-32529500D01*
X38188579Y-32529500D01*
X38011421Y-32529500D01*
X38011418Y-32529500D01*
X37836447Y-32557213D01*
X37667959Y-32611957D01*
X37510112Y-32692384D01*
X37366787Y-32796516D01*
X37241516Y-32921787D01*
X37137384Y-33065112D01*
X37056957Y-33222959D01*
X37002213Y-33391447D01*
X36974500Y-33566417D01*
X15413500Y-33566417D01*
X15385786Y-33391447D01*
X15385786Y-33391445D01*
X15331042Y-33222958D01*
X15250614Y-33065110D01*
X15146483Y-32921786D01*
X15021214Y-32796517D01*
X14877890Y-32692386D01*
X14877889Y-32692385D01*
X14877887Y-32692384D01*
X14720040Y-32611957D01*
X14551552Y-32557213D01*
X14376582Y-32529500D01*
X14376579Y-32529500D01*
X14199421Y-32529500D01*
X14199418Y-32529500D01*
X14024447Y-32557213D01*
X13855959Y-32611957D01*
X13698112Y-32692384D01*
X13554787Y-32796516D01*
X13429516Y-32921787D01*
X13325384Y-33065112D01*
X13244957Y-33222959D01*
X13190213Y-33391447D01*
X13162500Y-33566417D01*
X-1699500Y-33566417D01*
X-1699500Y-28011343D01*
X71090900Y-28011343D01*
X71090900Y-28169457D01*
X71131823Y-28322184D01*
X71210880Y-28459116D01*
X71322684Y-28570920D01*
X71459616Y-28649977D01*
X71612343Y-28690900D01*
X71612345Y-28690900D01*
X71770455Y-28690900D01*
X71770457Y-28690900D01*
X71923184Y-28649977D01*
X72060116Y-28570920D01*
X72085629Y-28545406D01*
X72111141Y-28519896D01*
X72165658Y-28492119D01*
X72181144Y-28490900D01*
X86725325Y-28490900D01*
X86725327Y-28490900D01*
X86827188Y-28463607D01*
X86827190Y-28463605D01*
X86827192Y-28463605D01*
X86918508Y-28410883D01*
X86918508Y-28410882D01*
X86918513Y-28410880D01*
X89803097Y-25526296D01*
X89857614Y-25498519D01*
X89873101Y-25497300D01*
X89945255Y-25497300D01*
X89945257Y-25497300D01*
X90097984Y-25456377D01*
X90234916Y-25377320D01*
X90346720Y-25265516D01*
X90425777Y-25128584D01*
X90466700Y-24975857D01*
X90466700Y-24817743D01*
X90425777Y-24665016D01*
X90346720Y-24528084D01*
X90234916Y-24416280D01*
X90097984Y-24337223D01*
X89945257Y-24296300D01*
X89787143Y-24296300D01*
X89634416Y-24337223D01*
X89497484Y-24416280D01*
X89385680Y-24528084D01*
X89306623Y-24665016D01*
X89265700Y-24817744D01*
X89265700Y-24889899D01*
X89246793Y-24948090D01*
X89236704Y-24959903D01*
X86535703Y-27660904D01*
X86481186Y-27688681D01*
X86465699Y-27689900D01*
X72181144Y-27689900D01*
X72122953Y-27670993D01*
X72111141Y-27660904D01*
X72060118Y-27609882D01*
X72060116Y-27609880D01*
X71923184Y-27530823D01*
X71770457Y-27489900D01*
X71612343Y-27489900D01*
X71459616Y-27530823D01*
X71322684Y-27609880D01*
X71210880Y-27721684D01*
X71131823Y-27858616D01*
X71090900Y-28011343D01*
X-1699500Y-28011343D01*
X-1699500Y-23406417D01*
X13162500Y-23406417D01*
X13162500Y-23583582D01*
X13190213Y-23758552D01*
X13244957Y-23927040D01*
X13301433Y-24037881D01*
X13325386Y-24084890D01*
X13429517Y-24228214D01*
X13554786Y-24353483D01*
X13698110Y-24457614D01*
X13855958Y-24538042D01*
X14024445Y-24592786D01*
X14094435Y-24603871D01*
X14199418Y-24620500D01*
X14199421Y-24620500D01*
X14376582Y-24620500D01*
X14464067Y-24606643D01*
X14551555Y-24592786D01*
X14720042Y-24538042D01*
X14877890Y-24457614D01*
X15021214Y-24353483D01*
X15146483Y-24228214D01*
X15250614Y-24084890D01*
X15331042Y-23927042D01*
X15385786Y-23758555D01*
X15413500Y-23583579D01*
X15413500Y-23406421D01*
X15413500Y-23406417D01*
X36974500Y-23406417D01*
X36974500Y-23583582D01*
X37002213Y-23758552D01*
X37056957Y-23927040D01*
X37113433Y-24037881D01*
X37137386Y-24084890D01*
X37241517Y-24228214D01*
X37366786Y-24353483D01*
X37510110Y-24457614D01*
X37667958Y-24538042D01*
X37836445Y-24592786D01*
X37906435Y-24603871D01*
X38011418Y-24620500D01*
X38011421Y-24620500D01*
X38188582Y-24620500D01*
X38276067Y-24606643D01*
X38363555Y-24592786D01*
X38532042Y-24538042D01*
X38689890Y-24457614D01*
X38833214Y-24353483D01*
X38958483Y-24228214D01*
X39062614Y-24084890D01*
X39143042Y-23927042D01*
X39197786Y-23758555D01*
X39225500Y-23583579D01*
X39225500Y-23406421D01*
X39225500Y-23406417D01*
X56024500Y-23406417D01*
X56024500Y-23583582D01*
X56052213Y-23758552D01*
X56106957Y-23927040D01*
X56163433Y-24037881D01*
X56187386Y-24084890D01*
X56291517Y-24228214D01*
X56416786Y-24353483D01*
X56560110Y-24457614D01*
X56717958Y-24538042D01*
X56886445Y-24592786D01*
X56956435Y-24603871D01*
X57061418Y-24620500D01*
X57061421Y-24620500D01*
X57238582Y-24620500D01*
X57326067Y-24606643D01*
X57413555Y-24592786D01*
X57582042Y-24538042D01*
X57739890Y-24457614D01*
X57883214Y-24353483D01*
X58008483Y-24228214D01*
X58112614Y-24084890D01*
X58193042Y-23927042D01*
X58247786Y-23758555D01*
X58275500Y-23583579D01*
X58275500Y-23516759D01*
X75129541Y-23516759D01*
X75129541Y-23693924D01*
X75157254Y-23868894D01*
X75176146Y-23927040D01*
X75211999Y-24037384D01*
X75292427Y-24195232D01*
X75396558Y-24338556D01*
X75521827Y-24463825D01*
X75665151Y-24567956D01*
X75822999Y-24648384D01*
X75991486Y-24703128D01*
X76061476Y-24714213D01*
X76166459Y-24730842D01*
X76166462Y-24730842D01*
X76343623Y-24730842D01*
X76431108Y-24716985D01*
X76518596Y-24703128D01*
X76687083Y-24648384D01*
X76844931Y-24567956D01*
X76988255Y-24463825D01*
X77113524Y-24338556D01*
X77204854Y-24212851D01*
X95118898Y-24212851D01*
X95118898Y-24390016D01*
X95146611Y-24564986D01*
X95201355Y-24733474D01*
X95281057Y-24889899D01*
X95281784Y-24891324D01*
X95385915Y-25034648D01*
X95511184Y-25159917D01*
X95654508Y-25264048D01*
X95812356Y-25344476D01*
X95980843Y-25399220D01*
X96050833Y-25410305D01*
X96155816Y-25426934D01*
X96155819Y-25426934D01*
X96332980Y-25426934D01*
X96420465Y-25413077D01*
X96507953Y-25399220D01*
X96676440Y-25344476D01*
X96834288Y-25264048D01*
X96977612Y-25159917D01*
X97102881Y-25034648D01*
X97207012Y-24891324D01*
X97287440Y-24733476D01*
X97342184Y-24564989D01*
X97369898Y-24390013D01*
X97369898Y-24212855D01*
X97369898Y-24212851D01*
X97342184Y-24037881D01*
X97342184Y-24037879D01*
X97287440Y-23869392D01*
X97207012Y-23711544D01*
X97102881Y-23568220D01*
X96977612Y-23442951D01*
X96834288Y-23338820D01*
X96834287Y-23338819D01*
X96834285Y-23338818D01*
X96676438Y-23258391D01*
X96507950Y-23203647D01*
X96332980Y-23175934D01*
X96332977Y-23175934D01*
X96155819Y-23175934D01*
X96155816Y-23175934D01*
X95980845Y-23203647D01*
X95812357Y-23258391D01*
X95654510Y-23338818D01*
X95511185Y-23442950D01*
X95385914Y-23568221D01*
X95281782Y-23711546D01*
X95201355Y-23869393D01*
X95146611Y-24037881D01*
X95118898Y-24212851D01*
X77204854Y-24212851D01*
X77217655Y-24195232D01*
X77298083Y-24037384D01*
X77352827Y-23868897D01*
X77376685Y-23718266D01*
X77380541Y-23693924D01*
X77380541Y-23516759D01*
X77352827Y-23341789D01*
X77352827Y-23341787D01*
X77298083Y-23173300D01*
X77217655Y-23015452D01*
X77113524Y-22872128D01*
X76988255Y-22746859D01*
X76844931Y-22642728D01*
X76844930Y-22642727D01*
X76844928Y-22642726D01*
X76687081Y-22562299D01*
X76518593Y-22507555D01*
X76343623Y-22479842D01*
X76343620Y-22479842D01*
X76166462Y-22479842D01*
X76166459Y-22479842D01*
X75991488Y-22507555D01*
X75823000Y-22562299D01*
X75665153Y-22642726D01*
X75521828Y-22746858D01*
X75396557Y-22872129D01*
X75292425Y-23015454D01*
X75211998Y-23173301D01*
X75157254Y-23341789D01*
X75129541Y-23516759D01*
X58275500Y-23516759D01*
X58275500Y-23406421D01*
X58275500Y-23406417D01*
X58247786Y-23231447D01*
X58247786Y-23231445D01*
X58193042Y-23062958D01*
X58112614Y-22905110D01*
X58008483Y-22761786D01*
X57883214Y-22636517D01*
X57739890Y-22532386D01*
X57739889Y-22532385D01*
X57739887Y-22532384D01*
X57582040Y-22451957D01*
X57413552Y-22397213D01*
X57238582Y-22369500D01*
X57238579Y-22369500D01*
X57061421Y-22369500D01*
X57061418Y-22369500D01*
X56886447Y-22397213D01*
X56717959Y-22451957D01*
X56560112Y-22532384D01*
X56416787Y-22636516D01*
X56291516Y-22761787D01*
X56187384Y-22905112D01*
X56106957Y-23062959D01*
X56052213Y-23231447D01*
X56024500Y-23406417D01*
X39225500Y-23406417D01*
X39197786Y-23231447D01*
X39197786Y-23231445D01*
X39143042Y-23062958D01*
X39062614Y-22905110D01*
X38958483Y-22761786D01*
X38833214Y-22636517D01*
X38689890Y-22532386D01*
X38689889Y-22532385D01*
X38689887Y-22532384D01*
X38532040Y-22451957D01*
X38363552Y-22397213D01*
X38188582Y-22369500D01*
X38188579Y-22369500D01*
X38011421Y-22369500D01*
X38011418Y-22369500D01*
X37836447Y-22397213D01*
X37667959Y-22451957D01*
X37510112Y-22532384D01*
X37366787Y-22636516D01*
X37241516Y-22761787D01*
X37137384Y-22905112D01*
X37056957Y-23062959D01*
X37002213Y-23231447D01*
X36974500Y-23406417D01*
X15413500Y-23406417D01*
X15385786Y-23231447D01*
X15385786Y-23231445D01*
X15331042Y-23062958D01*
X15250614Y-22905110D01*
X15146483Y-22761786D01*
X15021214Y-22636517D01*
X14877890Y-22532386D01*
X14877889Y-22532385D01*
X14877887Y-22532384D01*
X14720040Y-22451957D01*
X14551552Y-22397213D01*
X14376582Y-22369500D01*
X14376579Y-22369500D01*
X14199421Y-22369500D01*
X14199418Y-22369500D01*
X14024447Y-22397213D01*
X13855959Y-22451957D01*
X13698112Y-22532384D01*
X13554787Y-22636516D01*
X13429516Y-22761787D01*
X13325384Y-22905112D01*
X13244957Y-23062959D01*
X13190213Y-23231447D01*
X13162500Y-23406417D01*
X-1699500Y-23406417D01*
X-1699500Y-17802319D01*
X-1693704Y-17768943D01*
X-1693299Y-17767812D01*
X-1689572Y-17758822D01*
X-1662271Y-17701163D01*
X-1657739Y-17692683D01*
X-1624973Y-17637943D01*
X-1619523Y-17629785D01*
X-1581558Y-17578644D01*
X-1575419Y-17571169D01*
X-1532520Y-17523844D01*
X-1525661Y-17516985D01*
X-1478331Y-17474081D01*
X-1470852Y-17467940D01*
X-1419714Y-17429977D01*
X-1411551Y-17424523D01*
X-1366426Y-17397511D01*
X-1356821Y-17391762D01*
X-1348349Y-17387234D01*
X-1290664Y-17359920D01*
X-1281575Y-17356158D01*
X-1280434Y-17355751D01*
X-1247183Y-17350000D01*
X-95001Y-17350000D01*
X-95000Y-17350000D01*
X-65600Y-17348600D01*
X-65594Y-17348599D01*
X-65592Y-17348599D01*
X-48691Y-17346043D01*
X-36500Y-17344200D01*
X-7900Y-17337100D01*
X19800Y-17327200D01*
X46400Y-17314600D01*
X71700Y-17299400D01*
X95300Y-17281900D01*
X117100Y-17262100D01*
X136900Y-17240300D01*
X154400Y-17216700D01*
X169600Y-17191400D01*
X182200Y-17164800D01*
X192100Y-17137100D01*
X199200Y-17108500D01*
X203600Y-17079400D01*
X205000Y-17050000D01*
X205000Y-16776043D01*
X27819000Y-16776043D01*
X27819000Y-16934157D01*
X27859923Y-17086884D01*
X27938980Y-17223816D01*
X28050784Y-17335620D01*
X28187716Y-17414677D01*
X28340443Y-17455600D01*
X28340445Y-17455600D01*
X28498555Y-17455600D01*
X28498557Y-17455600D01*
X28651284Y-17414677D01*
X28788216Y-17335620D01*
X28826483Y-17297353D01*
X28839241Y-17284596D01*
X28893758Y-17256819D01*
X28909244Y-17255600D01*
X44980725Y-17255600D01*
X44980727Y-17255600D01*
X45082588Y-17228307D01*
X45082590Y-17228305D01*
X45082592Y-17228305D01*
X45173908Y-17175583D01*
X45173908Y-17175582D01*
X45173913Y-17175580D01*
X48367455Y-13982037D01*
X48421969Y-13954262D01*
X48482401Y-13963833D01*
X48525666Y-14007098D01*
X48535237Y-14067530D01*
X48525666Y-14096987D01*
X48486958Y-14172955D01*
X48486958Y-14172956D01*
X48432213Y-14341447D01*
X48404500Y-14516417D01*
X48404500Y-14693582D01*
X48432213Y-14868552D01*
X48486957Y-15037040D01*
X48567381Y-15194881D01*
X48567383Y-15194886D01*
X48567386Y-15194890D01*
X48671517Y-15338214D01*
X48796786Y-15463483D01*
X48940110Y-15567614D01*
X49097958Y-15648042D01*
X49266445Y-15702786D01*
X49336435Y-15713871D01*
X49441418Y-15730500D01*
X49441421Y-15730500D01*
X49618582Y-15730500D01*
X49706067Y-15716643D01*
X49793555Y-15702786D01*
X49962042Y-15648042D01*
X50119890Y-15567614D01*
X50263214Y-15463483D01*
X50388483Y-15338214D01*
X50492614Y-15194890D01*
X50506277Y-15168076D01*
X50542039Y-15097888D01*
X50573042Y-15037042D01*
X50627786Y-14868555D01*
X50652334Y-14713570D01*
X50655500Y-14693582D01*
X50655500Y-14536405D01*
X67487317Y-14536405D01*
X67487317Y-14713570D01*
X67515030Y-14888540D01*
X67569774Y-15057028D01*
X67640476Y-15195789D01*
X67650203Y-15214878D01*
X67754334Y-15358202D01*
X67879603Y-15483471D01*
X68022927Y-15587602D01*
X68180775Y-15668030D01*
X68349262Y-15722774D01*
X68419252Y-15733859D01*
X68524235Y-15750488D01*
X68524238Y-15750488D01*
X68701399Y-15750488D01*
X68788884Y-15736631D01*
X68876372Y-15722774D01*
X69044859Y-15668030D01*
X69202707Y-15587602D01*
X69346031Y-15483471D01*
X69471300Y-15358202D01*
X69575431Y-15214878D01*
X69655859Y-15057030D01*
X69700147Y-14920723D01*
X87330181Y-14920723D01*
X87330181Y-15097888D01*
X87357894Y-15272858D01*
X87412638Y-15441346D01*
X87487159Y-15587602D01*
X87493067Y-15599196D01*
X87597198Y-15742520D01*
X87722467Y-15867789D01*
X87865791Y-15971920D01*
X88023639Y-16052348D01*
X88192126Y-16107092D01*
X88262116Y-16118177D01*
X88367099Y-16134806D01*
X88367102Y-16134806D01*
X88544263Y-16134806D01*
X88631748Y-16120949D01*
X88719236Y-16107092D01*
X88887723Y-16052348D01*
X89045571Y-15971920D01*
X89188895Y-15867789D01*
X89314164Y-15742520D01*
X89418295Y-15599196D01*
X89498723Y-15441348D01*
X89553467Y-15272861D01*
X89581181Y-15097885D01*
X89581181Y-14920727D01*
X89581181Y-14920723D01*
X89553467Y-14745753D01*
X89553467Y-14745751D01*
X89498723Y-14577264D01*
X89418295Y-14419416D01*
X89314164Y-14276092D01*
X89188895Y-14150823D01*
X89045571Y-14046692D01*
X89045570Y-14046691D01*
X89045568Y-14046690D01*
X88887721Y-13966263D01*
X88719233Y-13911519D01*
X88544263Y-13883806D01*
X88544260Y-13883806D01*
X88367102Y-13883806D01*
X88367099Y-13883806D01*
X88192128Y-13911519D01*
X88023640Y-13966263D01*
X87865793Y-14046690D01*
X87722468Y-14150822D01*
X87597197Y-14276093D01*
X87493065Y-14419418D01*
X87412638Y-14577265D01*
X87357894Y-14745753D01*
X87330181Y-14920723D01*
X69700147Y-14920723D01*
X69710603Y-14888543D01*
X69733219Y-14745753D01*
X69738317Y-14713570D01*
X69738317Y-14536405D01*
X69710603Y-14361435D01*
X69710603Y-14361433D01*
X69655859Y-14192946D01*
X69575431Y-14035098D01*
X69471300Y-13891774D01*
X69346031Y-13766505D01*
X69202707Y-13662374D01*
X69202706Y-13662373D01*
X69202704Y-13662372D01*
X69044857Y-13581945D01*
X68876369Y-13527201D01*
X68701399Y-13499488D01*
X68701396Y-13499488D01*
X68524238Y-13499488D01*
X68524235Y-13499488D01*
X68349264Y-13527201D01*
X68180776Y-13581945D01*
X68022929Y-13662372D01*
X67879604Y-13766504D01*
X67754333Y-13891775D01*
X67650201Y-14035100D01*
X67569774Y-14192947D01*
X67515030Y-14361435D01*
X67487317Y-14536405D01*
X50655500Y-14536405D01*
X50655500Y-14516417D01*
X50627786Y-14341447D01*
X50627786Y-14341445D01*
X50573042Y-14172958D01*
X50492614Y-14015110D01*
X50388483Y-13871786D01*
X50263214Y-13746517D01*
X50119890Y-13642386D01*
X50119889Y-13642385D01*
X50119887Y-13642384D01*
X49962040Y-13561957D01*
X49793552Y-13507213D01*
X49618582Y-13479500D01*
X49618579Y-13479500D01*
X49441421Y-13479500D01*
X49441418Y-13479500D01*
X49266447Y-13507213D01*
X49097956Y-13561958D01*
X49097955Y-13561958D01*
X49021987Y-13600666D01*
X48961555Y-13610237D01*
X48907039Y-13582459D01*
X48879262Y-13527942D01*
X48888834Y-13467510D01*
X48907035Y-13442457D01*
X51399696Y-10949795D01*
X51454213Y-10922019D01*
X51469700Y-10920800D01*
X51541855Y-10920800D01*
X51541857Y-10920800D01*
X51694584Y-10879877D01*
X51831516Y-10800820D01*
X51943320Y-10689016D01*
X52022377Y-10552084D01*
X52063300Y-10399357D01*
X52063300Y-10241243D01*
X52022377Y-10088516D01*
X51943320Y-9951584D01*
X51831516Y-9839780D01*
X51694584Y-9760723D01*
X51541857Y-9719800D01*
X51383743Y-9719800D01*
X51231016Y-9760723D01*
X51094084Y-9839780D01*
X50982280Y-9951584D01*
X50903223Y-10088516D01*
X50862300Y-10241244D01*
X50862300Y-10313399D01*
X50843393Y-10371590D01*
X50833304Y-10383403D01*
X44791103Y-16425604D01*
X44736586Y-16453381D01*
X44721099Y-16454600D01*
X28909244Y-16454600D01*
X28851053Y-16435693D01*
X28839241Y-16425604D01*
X28788218Y-16374582D01*
X28788216Y-16374580D01*
X28651284Y-16295523D01*
X28498557Y-16254600D01*
X28340443Y-16254600D01*
X28187716Y-16295523D01*
X28050784Y-16374580D01*
X27938980Y-16486384D01*
X27859923Y-16623316D01*
X27819000Y-16776043D01*
X205000Y-16776043D01*
X205000Y-14516417D01*
X10304500Y-14516417D01*
X10304500Y-14693582D01*
X10332213Y-14868552D01*
X10386957Y-15037040D01*
X10467381Y-15194881D01*
X10467383Y-15194886D01*
X10467386Y-15194890D01*
X10571517Y-15338214D01*
X10696786Y-15463483D01*
X10840110Y-15567614D01*
X10997958Y-15648042D01*
X11166445Y-15702786D01*
X11236435Y-15713871D01*
X11341418Y-15730500D01*
X11341421Y-15730500D01*
X11518582Y-15730500D01*
X11606067Y-15716643D01*
X11693555Y-15702786D01*
X11862042Y-15648042D01*
X12019890Y-15567614D01*
X12163214Y-15463483D01*
X12288483Y-15338214D01*
X12392614Y-15194890D01*
X12406277Y-15168076D01*
X12442039Y-15097888D01*
X12473042Y-15037042D01*
X12527786Y-14868555D01*
X12552334Y-14713570D01*
X12555500Y-14693582D01*
X12555500Y-14516417D01*
X29354500Y-14516417D01*
X29354500Y-14693582D01*
X29382213Y-14868552D01*
X29436957Y-15037040D01*
X29517381Y-15194881D01*
X29517383Y-15194886D01*
X29517386Y-15194890D01*
X29621517Y-15338214D01*
X29746786Y-15463483D01*
X29890110Y-15567614D01*
X30047958Y-15648042D01*
X30216445Y-15702786D01*
X30286435Y-15713871D01*
X30391418Y-15730500D01*
X30391421Y-15730500D01*
X30568582Y-15730500D01*
X30656067Y-15716643D01*
X30743555Y-15702786D01*
X30912042Y-15648042D01*
X31069890Y-15567614D01*
X31213214Y-15463483D01*
X31338483Y-15338214D01*
X31442614Y-15194890D01*
X31456277Y-15168076D01*
X31492039Y-15097888D01*
X31523042Y-15037042D01*
X31577786Y-14868555D01*
X31602334Y-14713570D01*
X31605500Y-14693582D01*
X31605500Y-14516417D01*
X31577786Y-14341447D01*
X31577786Y-14341445D01*
X31523042Y-14172958D01*
X31442614Y-14015110D01*
X31338483Y-13871786D01*
X31213214Y-13746517D01*
X31069890Y-13642386D01*
X31069889Y-13642385D01*
X31069887Y-13642384D01*
X30912040Y-13561957D01*
X30743552Y-13507213D01*
X30568582Y-13479500D01*
X30568579Y-13479500D01*
X30391421Y-13479500D01*
X30391418Y-13479500D01*
X30216447Y-13507213D01*
X30047959Y-13561957D01*
X29890112Y-13642384D01*
X29746787Y-13746516D01*
X29621516Y-13871787D01*
X29517384Y-14015112D01*
X29436957Y-14172959D01*
X29382213Y-14341447D01*
X29354500Y-14516417D01*
X12555500Y-14516417D01*
X12527786Y-14341447D01*
X12527786Y-14341445D01*
X12473042Y-14172958D01*
X12392614Y-14015110D01*
X12288483Y-13871786D01*
X12163214Y-13746517D01*
X12019890Y-13642386D01*
X12019889Y-13642385D01*
X12019887Y-13642384D01*
X11862040Y-13561957D01*
X11693552Y-13507213D01*
X11518582Y-13479500D01*
X11518579Y-13479500D01*
X11341421Y-13479500D01*
X11341418Y-13479500D01*
X11166447Y-13507213D01*
X10997959Y-13561957D01*
X10840112Y-13642384D01*
X10696787Y-13746516D01*
X10571516Y-13871787D01*
X10467384Y-14015112D01*
X10386957Y-14172959D01*
X10332213Y-14341447D01*
X10304500Y-14516417D01*
X205000Y-14516417D01*
X205000Y-8214072D01*
X128408428Y-8214072D01*
X128408428Y-8391237D01*
X128436141Y-8566207D01*
X128436142Y-8566210D01*
X128490886Y-8734697D01*
X128571314Y-8892545D01*
X128675445Y-9035869D01*
X128800714Y-9161138D01*
X128944038Y-9265269D01*
X129101886Y-9345697D01*
X129270373Y-9400441D01*
X129340363Y-9411526D01*
X129445346Y-9428155D01*
X129445349Y-9428155D01*
X129622510Y-9428155D01*
X129709995Y-9414298D01*
X129797483Y-9400441D01*
X129965970Y-9345697D01*
X130123818Y-9265269D01*
X130267142Y-9161138D01*
X130392411Y-9035869D01*
X130496542Y-8892545D01*
X130576970Y-8734697D01*
X130631714Y-8566210D01*
X130659428Y-8391234D01*
X130659428Y-8214076D01*
X130659428Y-8214072D01*
X130631714Y-8039102D01*
X130631714Y-8039100D01*
X130576970Y-7870613D01*
X130496542Y-7712765D01*
X130392411Y-7569441D01*
X130267142Y-7444172D01*
X130123818Y-7340041D01*
X130123817Y-7340040D01*
X130123815Y-7340039D01*
X129965968Y-7259612D01*
X129797480Y-7204868D01*
X129622510Y-7177155D01*
X129622507Y-7177155D01*
X129445349Y-7177155D01*
X129445346Y-7177155D01*
X129270375Y-7204868D01*
X129101887Y-7259612D01*
X128944040Y-7340039D01*
X128800715Y-7444171D01*
X128675444Y-7569442D01*
X128571312Y-7712767D01*
X128490885Y-7870614D01*
X128436141Y-8039102D01*
X128408428Y-8214072D01*
X205000Y-8214072D01*
X205000Y-3373843D01*
X3749500Y-3373843D01*
X3749500Y-3531957D01*
X3790423Y-3684684D01*
X3869480Y-3821616D01*
X3981284Y-3933420D01*
X4118216Y-4012477D01*
X4270943Y-4053400D01*
X4270945Y-4053400D01*
X4429055Y-4053400D01*
X4429057Y-4053400D01*
X4581784Y-4012477D01*
X4718716Y-3933420D01*
X4830520Y-3821616D01*
X4909577Y-3684684D01*
X4950500Y-3531957D01*
X4950500Y-3490200D01*
X4969407Y-3432009D01*
X5018907Y-3396045D01*
X5049500Y-3391200D01*
X10660926Y-3391200D01*
X10719117Y-3410107D01*
X10755081Y-3459607D01*
X10755081Y-3520793D01*
X10719117Y-3570292D01*
X10696791Y-3586512D01*
X10571516Y-3711787D01*
X10467384Y-3855112D01*
X10386957Y-4012959D01*
X10332213Y-4181447D01*
X10304500Y-4356417D01*
X10304500Y-4533582D01*
X10332213Y-4708552D01*
X10386957Y-4877040D01*
X10456242Y-5013020D01*
X10467386Y-5034890D01*
X10571517Y-5178214D01*
X10696786Y-5303483D01*
X10840110Y-5407614D01*
X10997958Y-5488042D01*
X11166445Y-5542786D01*
X11236435Y-5553871D01*
X11341418Y-5570500D01*
X11341421Y-5570500D01*
X11518582Y-5570500D01*
X11606067Y-5556643D01*
X11693555Y-5542786D01*
X11862042Y-5488042D01*
X12019890Y-5407614D01*
X12163214Y-5303483D01*
X12288483Y-5178214D01*
X12392614Y-5034890D01*
X12473042Y-4877042D01*
X12527786Y-4708555D01*
X12543150Y-4611555D01*
X12555500Y-4533582D01*
X12555500Y-4356417D01*
X12530956Y-4201459D01*
X12527786Y-4181445D01*
X12473042Y-4012958D01*
X12392614Y-3855110D01*
X12288483Y-3711786D01*
X12163214Y-3586517D01*
X12163210Y-3586514D01*
X12163208Y-3586512D01*
X12140883Y-3570292D01*
X12104919Y-3520792D01*
X12104920Y-3459607D01*
X12140884Y-3410107D01*
X12199074Y-3391200D01*
X22900500Y-3391200D01*
X22958691Y-3410107D01*
X22994655Y-3459607D01*
X22999500Y-3490200D01*
X22999500Y-4042756D01*
X22980593Y-4100947D01*
X22970504Y-4112759D01*
X22919482Y-4163781D01*
X22919480Y-4163783D01*
X22919480Y-4163784D01*
X22840423Y-4300716D01*
X22799500Y-4453443D01*
X22799500Y-4611557D01*
X22840423Y-4764284D01*
X22919480Y-4901216D01*
X23031284Y-5013020D01*
X23168216Y-5092077D01*
X23320943Y-5133000D01*
X23320945Y-5133000D01*
X23479055Y-5133000D01*
X23479057Y-5133000D01*
X23631784Y-5092077D01*
X23768716Y-5013020D01*
X23880520Y-4901216D01*
X23959577Y-4764284D01*
X24000500Y-4611557D01*
X24000500Y-4453443D01*
X23959577Y-4300716D01*
X23880520Y-4163784D01*
X23857506Y-4140770D01*
X23829496Y-4112759D01*
X23801719Y-4058242D01*
X23800500Y-4042756D01*
X23800500Y-3490200D01*
X23819407Y-3432009D01*
X23868907Y-3396045D01*
X23899500Y-3391200D01*
X29710926Y-3391200D01*
X29769117Y-3410107D01*
X29805081Y-3459607D01*
X29805081Y-3520793D01*
X29769117Y-3570292D01*
X29746791Y-3586512D01*
X29621516Y-3711787D01*
X29517384Y-3855112D01*
X29436957Y-4012959D01*
X29382213Y-4181447D01*
X29354500Y-4356417D01*
X29354500Y-4533582D01*
X29382213Y-4708552D01*
X29436957Y-4877040D01*
X29506242Y-5013020D01*
X29517386Y-5034890D01*
X29621517Y-5178214D01*
X29746786Y-5303483D01*
X29890110Y-5407614D01*
X30047958Y-5488042D01*
X30216445Y-5542786D01*
X30286435Y-5553871D01*
X30391418Y-5570500D01*
X30391421Y-5570500D01*
X30568582Y-5570500D01*
X30656067Y-5556643D01*
X30743555Y-5542786D01*
X30912042Y-5488042D01*
X31069890Y-5407614D01*
X31213214Y-5303483D01*
X31338483Y-5178214D01*
X31442614Y-5034890D01*
X31523042Y-4877042D01*
X31577786Y-4708555D01*
X31593150Y-4611555D01*
X31605500Y-4533582D01*
X31605500Y-4356417D01*
X31580956Y-4201459D01*
X31577786Y-4181445D01*
X31523042Y-4012958D01*
X31442614Y-3855110D01*
X31338483Y-3711786D01*
X31213214Y-3586517D01*
X31213210Y-3586514D01*
X31213208Y-3586512D01*
X31190883Y-3570292D01*
X31154919Y-3520792D01*
X31154920Y-3459607D01*
X31190884Y-3410107D01*
X31249074Y-3391200D01*
X40701299Y-3391200D01*
X40759490Y-3410107D01*
X40771303Y-3420196D01*
X41820504Y-4469397D01*
X41848281Y-4523914D01*
X41849500Y-4539401D01*
X41849500Y-4611557D01*
X41890423Y-4764284D01*
X41969480Y-4901216D01*
X42081284Y-5013020D01*
X42218216Y-5092077D01*
X42370943Y-5133000D01*
X42370945Y-5133000D01*
X42529055Y-5133000D01*
X42529057Y-5133000D01*
X42681784Y-5092077D01*
X42818716Y-5013020D01*
X42930520Y-4901216D01*
X43009577Y-4764284D01*
X43050500Y-4611557D01*
X43050500Y-4539401D01*
X43069407Y-4481210D01*
X43079496Y-4469397D01*
X44130097Y-3418796D01*
X44184614Y-3391019D01*
X44200101Y-3389800D01*
X48762853Y-3389800D01*
X48821044Y-3408707D01*
X48857008Y-3458207D01*
X48857008Y-3519393D01*
X48821044Y-3568892D01*
X48819118Y-3570292D01*
X48796787Y-3586516D01*
X48671516Y-3711787D01*
X48567384Y-3855112D01*
X48486957Y-4012959D01*
X48432213Y-4181447D01*
X48404500Y-4356417D01*
X48404500Y-4533582D01*
X48432213Y-4708552D01*
X48486957Y-4877040D01*
X48556242Y-5013020D01*
X48567386Y-5034890D01*
X48671517Y-5178214D01*
X48796786Y-5303483D01*
X48940110Y-5407614D01*
X49097958Y-5488042D01*
X49266445Y-5542786D01*
X49336435Y-5553871D01*
X49441418Y-5570500D01*
X49441421Y-5570500D01*
X49618582Y-5570500D01*
X49706067Y-5556643D01*
X49793555Y-5542786D01*
X49962042Y-5488042D01*
X50119890Y-5407614D01*
X50263214Y-5303483D01*
X50388483Y-5178214D01*
X50492614Y-5034890D01*
X50573042Y-4877042D01*
X50627786Y-4708555D01*
X50643150Y-4611555D01*
X50655500Y-4533582D01*
X50655500Y-4356417D01*
X50630956Y-4201459D01*
X50627786Y-4181445D01*
X50573042Y-4012958D01*
X50492614Y-3855110D01*
X50388483Y-3711786D01*
X50263214Y-3586517D01*
X50238955Y-3568892D01*
X50202992Y-3519392D01*
X50202992Y-3458207D01*
X50238956Y-3408707D01*
X50297147Y-3389800D01*
X59751499Y-3389800D01*
X59809690Y-3408707D01*
X59821503Y-3418796D01*
X60907204Y-4504497D01*
X60934981Y-4559014D01*
X60936200Y-4574501D01*
X60936200Y-4646657D01*
X60977123Y-4799384D01*
X61056180Y-4936316D01*
X61167984Y-5048120D01*
X61304916Y-5127177D01*
X61457643Y-5168100D01*
X61529799Y-5168100D01*
X61587990Y-5187007D01*
X61599803Y-5197096D01*
X62554918Y-6152210D01*
X62554920Y-6152213D01*
X62629487Y-6226780D01*
X62659125Y-6243891D01*
X62688762Y-6261003D01*
X62688763Y-6261003D01*
X62720813Y-6279507D01*
X62822670Y-6306800D01*
X62822672Y-6306801D01*
X62822673Y-6306801D01*
X62934190Y-6306801D01*
X62934206Y-6306800D01*
X82503725Y-6306800D01*
X82503727Y-6306800D01*
X82605588Y-6279507D01*
X82605590Y-6279505D01*
X82605592Y-6279505D01*
X82696908Y-6226783D01*
X82696908Y-6226782D01*
X82696913Y-6226780D01*
X82911597Y-6012095D01*
X82966112Y-5984319D01*
X83026544Y-5993890D01*
X83051603Y-6012096D01*
X83586118Y-6546610D01*
X83586120Y-6546613D01*
X83660687Y-6621180D01*
X83660692Y-6621183D01*
X83752009Y-6673905D01*
X83752013Y-6673907D01*
X83853870Y-6701200D01*
X83853872Y-6701201D01*
X83853873Y-6701201D01*
X83965390Y-6701201D01*
X83965406Y-6701200D01*
X101173425Y-6701200D01*
X101173427Y-6701200D01*
X101275288Y-6673907D01*
X101275290Y-6673905D01*
X101275292Y-6673905D01*
X101366608Y-6621183D01*
X101366608Y-6621182D01*
X101366613Y-6621180D01*
X101903952Y-6083841D01*
X107619689Y-6083841D01*
X107619689Y-6261003D01*
X107647402Y-6435976D01*
X107702146Y-6604464D01*
X107751435Y-6701200D01*
X107782575Y-6762314D01*
X107886706Y-6905638D01*
X108011975Y-7030907D01*
X108155299Y-7135038D01*
X108313147Y-7215466D01*
X108481634Y-7270210D01*
X108551624Y-7281295D01*
X108656607Y-7297924D01*
X108656610Y-7297924D01*
X108833771Y-7297924D01*
X108921256Y-7284067D01*
X109008744Y-7270210D01*
X109177231Y-7215466D01*
X109335079Y-7135038D01*
X109478403Y-7030907D01*
X109603672Y-6905638D01*
X109707803Y-6762314D01*
X109788231Y-6604466D01*
X109842975Y-6435979D01*
X109870689Y-6261003D01*
X109870689Y-6083845D01*
X109870689Y-6083841D01*
X109842975Y-5908871D01*
X109842975Y-5908869D01*
X109788231Y-5740382D01*
X109707803Y-5582534D01*
X109603672Y-5439210D01*
X109478403Y-5313941D01*
X109335079Y-5209810D01*
X109335078Y-5209809D01*
X109335076Y-5209808D01*
X109177229Y-5129381D01*
X109008741Y-5074637D01*
X108833771Y-5046924D01*
X108833768Y-5046924D01*
X108656610Y-5046924D01*
X108656607Y-5046924D01*
X108481636Y-5074637D01*
X108313148Y-5129381D01*
X108155301Y-5209808D01*
X108011976Y-5313940D01*
X107886705Y-5439211D01*
X107782573Y-5582536D01*
X107702146Y-5740383D01*
X107647402Y-5908871D01*
X107619689Y-6083841D01*
X101903952Y-6083841D01*
X102675697Y-5312096D01*
X102730214Y-5284319D01*
X102745701Y-5283100D01*
X102817855Y-5283100D01*
X102817857Y-5283100D01*
X102970584Y-5242177D01*
X103107516Y-5163120D01*
X103219320Y-5051316D01*
X103298377Y-4914384D01*
X103339300Y-4761657D01*
X103339300Y-4603543D01*
X103298377Y-4450816D01*
X103219320Y-4313884D01*
X103107516Y-4202080D01*
X102970584Y-4123023D01*
X102817857Y-4082100D01*
X102659743Y-4082100D01*
X102507016Y-4123023D01*
X102370084Y-4202080D01*
X102258280Y-4313884D01*
X102179223Y-4450816D01*
X102150232Y-4559014D01*
X102138300Y-4603544D01*
X102138300Y-4675699D01*
X102119393Y-4733890D01*
X102109304Y-4745703D01*
X100983803Y-5871204D01*
X100929286Y-5898981D01*
X100913799Y-5900200D01*
X88851561Y-5900200D01*
X88793370Y-5881293D01*
X88757406Y-5831793D01*
X88757406Y-5770607D01*
X88793368Y-5721108D01*
X88801533Y-5715177D01*
X88926802Y-5589908D01*
X89030933Y-5446584D01*
X89111361Y-5288736D01*
X89166105Y-5120249D01*
X89193819Y-4945273D01*
X89193819Y-4768115D01*
X89193819Y-4768111D01*
X89166105Y-4593141D01*
X89166105Y-4593139D01*
X89111361Y-4424652D01*
X89030933Y-4266804D01*
X88926802Y-4123480D01*
X88801533Y-3998211D01*
X88658209Y-3894080D01*
X88658208Y-3894079D01*
X88658206Y-3894078D01*
X88500359Y-3813651D01*
X88331871Y-3758907D01*
X88156901Y-3731194D01*
X88156898Y-3731194D01*
X87979740Y-3731194D01*
X87979737Y-3731194D01*
X87804766Y-3758907D01*
X87636278Y-3813651D01*
X87478431Y-3894078D01*
X87335106Y-3998210D01*
X87209835Y-4123481D01*
X87105703Y-4266806D01*
X87025276Y-4424653D01*
X86970532Y-4593141D01*
X86942819Y-4768111D01*
X86942819Y-4945276D01*
X86970532Y-5120246D01*
X87025276Y-5288734D01*
X87101947Y-5439210D01*
X87105705Y-5446584D01*
X87209836Y-5589908D01*
X87335105Y-5715177D01*
X87335108Y-5715179D01*
X87335109Y-5715180D01*
X87343267Y-5721107D01*
X87379231Y-5770606D01*
X87379232Y-5831792D01*
X87343269Y-5881292D01*
X87285078Y-5900200D01*
X84113499Y-5900200D01*
X84055308Y-5881293D01*
X84043495Y-5871203D01*
X83611096Y-5438803D01*
X83583319Y-5384287D01*
X83582100Y-5368800D01*
X83582100Y-5296644D01*
X83579981Y-5288736D01*
X83541177Y-5143916D01*
X83462120Y-5006984D01*
X83350316Y-4895180D01*
X83213384Y-4816123D01*
X83060657Y-4775200D01*
X82902543Y-4775200D01*
X82749816Y-4816123D01*
X82612884Y-4895180D01*
X82501080Y-5006984D01*
X82422023Y-5143916D01*
X82395695Y-5242176D01*
X82381100Y-5296644D01*
X82381100Y-5368799D01*
X82362193Y-5426990D01*
X82352104Y-5438803D01*
X82314103Y-5476804D01*
X82259586Y-5504581D01*
X82244099Y-5505800D01*
X69378166Y-5505800D01*
X69319975Y-5486893D01*
X69284011Y-5437393D01*
X69284011Y-5376207D01*
X69319973Y-5326708D01*
X69324397Y-5323495D01*
X69449666Y-5198226D01*
X69553797Y-5054902D01*
X69634225Y-4897054D01*
X69688969Y-4728567D01*
X69710419Y-4593139D01*
X69716683Y-4553594D01*
X69716683Y-4376429D01*
X69691846Y-4219623D01*
X69688969Y-4201457D01*
X69634225Y-4032970D01*
X69553797Y-3875122D01*
X69449666Y-3731798D01*
X69324397Y-3606529D01*
X69181073Y-3502398D01*
X69181072Y-3502397D01*
X69181070Y-3502396D01*
X69023223Y-3421969D01*
X68854735Y-3367225D01*
X68679765Y-3339512D01*
X68679762Y-3339512D01*
X68502604Y-3339512D01*
X68502601Y-3339512D01*
X68327630Y-3367225D01*
X68159142Y-3421969D01*
X68001295Y-3502396D01*
X67857970Y-3606528D01*
X67732699Y-3731799D01*
X67628567Y-3875124D01*
X67548140Y-4032971D01*
X67493396Y-4201459D01*
X67465683Y-4376429D01*
X67465683Y-4553594D01*
X67493396Y-4728564D01*
X67548140Y-4897052D01*
X67626741Y-5051316D01*
X67628569Y-5054902D01*
X67732700Y-5198226D01*
X67857969Y-5323495D01*
X67862389Y-5326706D01*
X67898354Y-5376206D01*
X67898355Y-5437391D01*
X67862392Y-5486892D01*
X67804202Y-5505800D01*
X63082300Y-5505800D01*
X63024109Y-5486893D01*
X63012296Y-5476804D01*
X62166196Y-4630703D01*
X62138419Y-4576186D01*
X62137200Y-4560699D01*
X62137200Y-4488544D01*
X62135235Y-4481210D01*
X62096277Y-4335816D01*
X62017220Y-4198884D01*
X61905416Y-4087080D01*
X61768484Y-4008023D01*
X61615757Y-3967100D01*
X61615755Y-3967100D01*
X61543601Y-3967100D01*
X61485410Y-3948193D01*
X61473597Y-3938104D01*
X60841067Y-3305574D01*
X60204313Y-2668820D01*
X60204310Y-2668818D01*
X60204309Y-2668817D01*
X60204308Y-2668816D01*
X60112992Y-2616094D01*
X60100959Y-2612870D01*
X60011127Y-2588800D01*
X43940473Y-2588800D01*
X43838613Y-2616093D01*
X43838612Y-2616093D01*
X43838610Y-2616094D01*
X43747289Y-2668818D01*
X42520003Y-3896103D01*
X42465486Y-3923880D01*
X42405054Y-3914309D01*
X42379998Y-3896105D01*
X41154113Y-2670220D01*
X41154110Y-2670218D01*
X41154108Y-2670216D01*
X41062791Y-2617494D01*
X41062793Y-2617494D01*
X41023270Y-2606904D01*
X40960927Y-2590200D01*
X40960925Y-2590200D01*
X4871006Y-2590200D01*
X4870990Y-2590199D01*
X4864927Y-2590199D01*
X4759474Y-2590199D01*
X4743879Y-2594377D01*
X4662844Y-2616090D01*
X4662845Y-2616091D01*
X4657611Y-2617493D01*
X4657610Y-2617494D01*
X4566287Y-2670219D01*
X4491722Y-2744783D01*
X4491718Y-2744789D01*
X4413105Y-2823403D01*
X4358589Y-2851181D01*
X4343101Y-2852400D01*
X4270943Y-2852400D01*
X4118216Y-2893323D01*
X3981284Y-2972380D01*
X3869480Y-3084184D01*
X3790423Y-3221116D01*
X3749500Y-3373843D01*
X205000Y-3373843D01*
X205000Y1247682D01*
X210738Y1280895D01*
X211139Y1282021D01*
X214916Y1291155D01*
X242234Y1348850D01*
X246759Y1357315D01*
X279525Y1412055D01*
X284972Y1420209D01*
X322942Y1471356D01*
X329079Y1478829D01*
X371978Y1526154D01*
X378837Y1533013D01*
X426167Y1575917D01*
X433646Y1582058D01*
X484784Y1620021D01*
X492947Y1625475D01*
X547671Y1658233D01*
X556153Y1662766D01*
X613832Y1690076D01*
X622853Y1693815D01*
X623977Y1694216D01*
X657319Y1700000D01*
X57101600Y1700000D01*
X57130993Y1701399D01*
X57131002Y1701400D01*
X57143459Y1703278D01*
X57158424Y1704384D01*
X57220769Y1704251D01*
X59220900Y1700000D01*
X61001671Y1700000D01*
X61016446Y1698891D01*
X61025006Y1697599D01*
X61054390Y1696100D01*
X61054374Y1696100D01*
X76029842Y1664250D01*
X77181800Y1661800D01*
X77181802Y1661800D01*
X77181814Y1661800D01*
X77210503Y1663100D01*
X77210504Y1663100D01*
X77238887Y1667197D01*
X77238904Y1667200D01*
X77266884Y1673895D01*
X77266899Y1673899D01*
X77294003Y1683301D01*
X77320197Y1695298D01*
X77320199Y1695299D01*
X77331616Y1701902D01*
X77384954Y1715130D01*
X78874301Y1658299D01*
G37*
%TD.AperFunction*%
%TD*%
M02*
