M48
; DRILL file KiCad 10.0.5 date 2026-09-13T20:07:19
; FORMAT={-:-/ absolute / metric / decimal}
; #@! TF.CreationDate,2026-09-13T20:07:19-04:00
; #@! TF.GenerationSoftware,Kicad,Pcbnew,10.0.5
; #@! TF.FileFunction,NonPlated,1,2,NPTH
FMAT,2
METRIC
; #@! TA.AperFunction,NonPlated,NPTH,ComponentDrill
T1C1.750
; #@! TA.AperFunction,NonPlated,NPTH,ComponentDrill
T2C3.048
; #@! TA.AperFunction,NonPlated,NPTH,ComponentDrill
T3C3.988
%
G90
G05
T1
X8.572Y-80.645
X8.572Y-90.805
X10.954Y-42.545
X10.954Y-52.705
X11.43Y-4.445
X11.43Y-14.605
X13.335Y-80.645
X13.335Y-90.805
X14.288Y-23.495
X14.288Y-33.655
X15.716Y-42.545
X15.716Y-52.705
X15.716Y-61.595
X15.716Y-71.755
X27.622Y-80.645
X27.622Y-90.805
X30.48Y-4.445
X30.48Y-14.605
X38.1Y-23.495
X38.1Y-33.655
X41.91Y-42.545
X41.91Y-52.705
X41.91Y-80.645
X41.91Y-90.805
X46.673Y-61.595
X46.673Y-71.755
X46.673Y-80.645
X46.673Y-90.805
X49.53Y-4.445
X49.53Y-14.605
X57.15Y-23.495
X57.15Y-33.655
X60.96Y-42.545
X60.96Y-52.705
X65.726Y-61.6
X65.732Y-71.76
X68.591Y-4.465
X68.613Y-14.625
X76.255Y-23.605
X76.373Y-33.765
X80.097Y-42.727
X80.293Y-52.885
X84.906Y-81.086
X85.04Y-61.902
X85.222Y-91.242
X85.354Y-72.058
X88.068Y-4.857
X88.456Y-15.009
X96.244Y-24.301
X96.83Y-34.445
X100.388Y-43.614
X101.074Y-53.75
X105.608Y-63.054
X106.42Y-73.182
X108.745Y-6.172
X109.633Y-16.294
X117.103Y-26.019
X118.159Y-36.123
X121.263Y-45.495
X122.373Y-55.595
X122.516Y-83.903
X123.57Y-94.009
X126.444Y-65.105
X127.588Y-75.201
X129.534Y-8.303
X130.684Y-18.397
X137.44Y-28.254
X138.59Y-38.348
T2
X3.81Y-59.69
X27.622Y-59.69
X110.476Y-83.244
X134.16Y-80.773
T3
X3.81Y-74.93
X27.622Y-74.93
X112.057Y-98.402
X135.741Y-95.931
M30
