M48
; DRILL file KiCad 10.0.5 date 2026-09-13T13:36:12
; FORMAT={-:-/ absolute / metric / decimal}
; #@! TF.CreationDate,2026-09-13T13:36:12-04:00
; #@! TF.GenerationSoftware,Kicad,Pcbnew,10.0.5
; #@! TF.FileFunction,Plated,1,2,PTH
FMAT,2
METRIC
; #@! TA.AperFunction,Plated,PTH,ViaDrill
T1C0.300
; #@! TA.AperFunction,Plated,PTH,ComponentDrill
T2C2.200
%
G90
G05
T1
X4.35Y-3.453
X5.164Y-81.537
X18.734Y-67.38
X20.528Y-84.01
X22.657Y-74.396
X23.4Y-4.532
X23.589Y-81.013
X27.695Y-6.927
X28.419Y-16.855
X31.84Y-64.011
X33.11Y-63.998
X34.38Y-61.004
X34.702Y-91.8
X35.65Y-65.973
X35.841Y-60.799
X38.19Y-65.974
X39.46Y-65.951
X41.538Y-66.644
X42.45Y-4.532
X45.805Y-36.1
X47.965Y-63.106
X48.608Y-86.523
X48.85Y-62.781
X49.612Y-92.003
X51.463Y-10.32
X52.323Y-59.07
X52.709Y-61.523
X53.145Y-72.394
X53.369Y-66.455
X53.88Y-61.418
X55.124Y-65.995
X55.8Y-53.241
X56.491Y-42.973
X58.131Y-70.633
X59.726Y-64.41
X60.23Y-66.421
X61.537Y-4.568
X63.299Y-48.581
X64.421Y-36.528
X65.4Y-65.203
X66.137Y-7.271
X71.691Y-28.09
X73.965Y-70.626
X77.46Y-46.81
X78.245Y-29.501
X82.324Y-33.144
X82.982Y-5.376
X83.033Y-48.018
X85.763Y-7.474
X86.201Y-87.299
X89.609Y-66.76
X89.866Y-24.897
X90.47Y-65.831
X90.967Y-92.089
X91.101Y-73.278
X92.38Y-64.997
X92.666Y-73.278
X93.274Y-69.933
X93.65Y-61.383
X94.92Y-61.997
X95.914Y-70.626
X96.665Y-66.672
X97.46Y-61.998
X98.478Y-30.112
X98.672Y-64.986
X98.718Y-69.964
X101.565Y-60.85
X102.739Y-4.683
X107.99Y-68.808
X108.703Y-9.564
X111.134Y-11.946
X112.553Y-60.652
X113.492Y-75.592
X116.851Y-68.547
X117.346Y-67.181
X119.69Y-67.003
X120.132Y-58.898
X120.133Y-59.764
X120.14Y-57.703
X120.197Y-69.043
X120.96Y-67.629
X122.069Y-50.062
X122.23Y-71.954
X122.368Y-39.302
X123.892Y-62.892
X125.125Y-67.003
X126.421Y-67.448
X127.294Y-8.177
X127.656Y-27.897
X130.85Y-98.542
X139.145Y-34.373
X143.707Y-62.286
X144.0Y-60.183
X147.2Y-50.285
X147.2Y-52.825
X147.2Y-57.905
X147.2Y-59.175
X147.2Y-60.445
T2
X3.285Y-92.477
X4.785Y-9.977
X106.209Y-30.0
X140.785Y-95.977
M30
