M48
; DRILL file KiCad 10.0.5 date 2026-09-12T13:41:22
; FORMAT={-:-/ absolute / metric / decimal}
; #@! TF.CreationDate,2026-09-12T13:41:22-04:00
; #@! TF.GenerationSoftware,Kicad,Pcbnew,10.0.5
; #@! TF.FileFunction,Plated,1,2,PTH
FMAT,2
METRIC
; #@! TA.AperFunction,Plated,PTH,ViaDrill
T1C0.300
%
G90
G05
T1
X1.5Y-8.0
X3.015Y-2.6
X4.5Y-10.3
X5.5Y-11.8
X5.555Y-2.6
X6.5Y-10.3
X7.5Y-10.3
X8.095Y-2.6
X8.5Y-10.3
X9.365Y-2.6
X9.5Y-11.8
X10.5Y-10.3
X10.635Y-2.6
X11.5Y-11.8
X12.5Y-10.3
X13.175Y-2.6
X13.5Y-11.8
X14.5Y-10.3
X15.5Y-10.3
X15.715Y-2.6
X16.985Y-2.6
M30
