%TF.GenerationSoftware,KiCad,Pcbnew,10.0.5*%
%TF.CreationDate,2026-09-12T13:41:22-04:00*%
%TF.ProjectId,Symm60HE-Neo-Right-SpringModule,53796d6d-3630-4484-952d-4e656f2d5269,rev?*%
%TF.SameCoordinates,Original*%
%TF.FileFunction,Copper,L2,Bot*%
%TF.FilePolarity,Positive*%
%FSLAX46Y46*%
G04 Gerber Fmt 4.6, Leading zero omitted, Abs format (unit mm)*
G04 Created by KiCad (PCBNEW 10.0.5) date 2026-09-12 13:41:22*
%MOMM*%
%LPD*%
G01*
G04 APERTURE LIST*
%TA.AperFunction,ViaPad*%
%ADD10C,0.600000*%
%TD*%
%TA.AperFunction,Conductor*%
%ADD11C,0.200000*%
%TD*%
G04 APERTURE END LIST*
D10*
%TO.N,+3V3A*%
X4500000Y-10300000D03*
X3015000Y-2600000D03*
%TO.N,GND*%
X11500000Y-11800000D03*
X9500000Y-11800000D03*
X13500000Y-11800000D03*
X5500000Y-11800000D03*
X1500000Y-8000000D03*
%TO.N,MUX_A0*%
X6500000Y-10300000D03*
X5555000Y-2600000D03*
%TO.N,MUX_A1*%
X8095000Y-2600000D03*
X7500000Y-10300000D03*
%TO.N,MUX_A2*%
X9365000Y-2600000D03*
X8500000Y-10300000D03*
%TO.N,ADC_R1*%
X10635000Y-2600000D03*
X10500000Y-10300000D03*
%TO.N,ADC_R2*%
X13175000Y-2600000D03*
X12500000Y-10300000D03*
%TO.N,ADC_R3*%
X15715000Y-2600000D03*
X14500000Y-10300000D03*
%TO.N,ADC_R4*%
X15500000Y-10300000D03*
X16985000Y-2600000D03*
%TD*%
%TO.N,+3V3A*%
D11*
X3015000Y-2600000D02*
X4500000Y-10300000D01*
%TO.N,GND*%
X9500000Y-11800000D02*
X11500000Y-11800000D01*
X1500000Y-8000000D02*
X1500000Y-11800000D01*
X5500000Y-11800000D02*
X9500000Y-11800000D01*
X1500000Y-11800000D02*
X5500000Y-11800000D01*
X11500000Y-11800000D02*
X13500000Y-11800000D01*
%TO.N,MUX_A0*%
X5555000Y-2600000D02*
X6500000Y-10300000D01*
%TO.N,MUX_A1*%
X8095000Y-2600000D02*
X7500000Y-10300000D01*
%TO.N,MUX_A2*%
X9365000Y-2600000D02*
X8500000Y-10300000D01*
%TO.N,ADC_R1*%
X10635000Y-2600000D02*
X10500000Y-10300000D01*
%TO.N,ADC_R2*%
X13175000Y-2600000D02*
X12500000Y-10300000D01*
%TO.N,ADC_R3*%
X15715000Y-2600000D02*
X14500000Y-10300000D01*
%TO.N,ADC_R4*%
X16985000Y-2600000D02*
X15500000Y-10300000D01*
%TD*%
M02*
