%TF.GenerationSoftware,KiCad,Pcbnew,10.0.5*%
%TF.CreationDate,2026-09-12T13:41:22-04:00*%
%TF.ProjectId,Symm60HE-Neo-Right-SpringModule,53796d6d-3630-4484-952d-4e656f2d5269,rev?*%
%TF.SameCoordinates,Original*%
%TF.FileFunction,Legend,Top*%
%TF.FilePolarity,Positive*%
%FSLAX46Y46*%
G04 Gerber Fmt 4.6, Leading zero omitted, Abs format (unit mm)*
G04 Created by KiCad (PCBNEW 10.0.5) date 2026-09-12 13:41:22*
%MOMM*%
%LPD*%
G01*
G04 APERTURE LIST*
G04 Aperture macros list*
%AMRoundRect*
0 Rectangle with rounded corners*
0 $1 Rounding radius*
0 $2 $3 $4 $5 $6 $7 $8 $9 X,Y pos of 4 corners*
0 Add a 4 corners polygon primitive as box body*
4,1,4,$2,$3,$4,$5,$6,$7,$8,$9,$2,$3,0*
0 Add four circle primitives for the rounded corners*
1,1,$1+$1,$2,$3*
1,1,$1+$1,$4,$5*
1,1,$1+$1,$6,$7*
1,1,$1+$1,$8,$9*
0 Add four rect primitives between the rounded corners*
20,1,$1+$1,$2,$3,$4,$5,0*
20,1,$1+$1,$4,$5,$6,$7,0*
20,1,$1+$1,$6,$7,$8,$9,0*
20,1,$1+$1,$8,$9,$2,$3,0*%
G04 Aperture macros list end*
%ADD10C,0.120000*%
%ADD11C,0.150000*%
%ADD12C,0.200000*%
%ADD13C,0.960000*%
%ADD14RoundRect,0.150000X-0.150000X-0.950000X0.150000X-0.950000X0.150000X0.950000X-0.150000X0.950000X0*%
%ADD15RoundRect,0.360000X-0.540000X-0.940000X0.540000X-0.940000X0.540000X0.940000X-0.540000X0.940000X0*%
G04 APERTURE END LIST*
D10*
X1438096Y-1363855D02*
X1171429Y-982902D01*
X980953Y-1363855D02*
X980953Y-563855D01*
X980953Y-563855D02*
X1285715Y-563855D01*
X1285715Y-563855D02*
X1361905Y-601950D01*
X1361905Y-601950D02*
X1400000Y-640045D01*
X1400000Y-640045D02*
X1438096Y-716236D01*
X1438096Y-716236D02*
X1438096Y-830521D01*
X1438096Y-830521D02*
X1400000Y-906712D01*
X1400000Y-906712D02*
X1361905Y-944807D01*
X1361905Y-944807D02*
X1285715Y-982902D01*
X1285715Y-982902D02*
X980953Y-982902D01*
X1780953Y-1363855D02*
X1780953Y-563855D01*
X2580952Y-601950D02*
X2504762Y-563855D01*
X2504762Y-563855D02*
X2390476Y-563855D01*
X2390476Y-563855D02*
X2276190Y-601950D01*
X2276190Y-601950D02*
X2200000Y-678140D01*
X2200000Y-678140D02*
X2161905Y-754331D01*
X2161905Y-754331D02*
X2123809Y-906712D01*
X2123809Y-906712D02*
X2123809Y-1020998D01*
X2123809Y-1020998D02*
X2161905Y-1173379D01*
X2161905Y-1173379D02*
X2200000Y-1249569D01*
X2200000Y-1249569D02*
X2276190Y-1325760D01*
X2276190Y-1325760D02*
X2390476Y-1363855D01*
X2390476Y-1363855D02*
X2466667Y-1363855D01*
X2466667Y-1363855D02*
X2580952Y-1325760D01*
X2580952Y-1325760D02*
X2619048Y-1287664D01*
X2619048Y-1287664D02*
X2619048Y-1020998D01*
X2619048Y-1020998D02*
X2466667Y-1020998D01*
X2961905Y-1363855D02*
X2961905Y-563855D01*
X2961905Y-944807D02*
X3419048Y-944807D01*
X3419048Y-1363855D02*
X3419048Y-563855D01*
X3685714Y-563855D02*
X4142857Y-563855D01*
X3914285Y-1363855D02*
X3914285Y-563855D01*
X4980952Y-1325760D02*
X5095238Y-1363855D01*
X5095238Y-1363855D02*
X5285714Y-1363855D01*
X5285714Y-1363855D02*
X5361905Y-1325760D01*
X5361905Y-1325760D02*
X5400000Y-1287664D01*
X5400000Y-1287664D02*
X5438095Y-1211474D01*
X5438095Y-1211474D02*
X5438095Y-1135283D01*
X5438095Y-1135283D02*
X5400000Y-1059093D01*
X5400000Y-1059093D02*
X5361905Y-1020998D01*
X5361905Y-1020998D02*
X5285714Y-982902D01*
X5285714Y-982902D02*
X5133333Y-944807D01*
X5133333Y-944807D02*
X5057143Y-906712D01*
X5057143Y-906712D02*
X5019048Y-868617D01*
X5019048Y-868617D02*
X4980952Y-792426D01*
X4980952Y-792426D02*
X4980952Y-716236D01*
X4980952Y-716236D02*
X5019048Y-640045D01*
X5019048Y-640045D02*
X5057143Y-601950D01*
X5057143Y-601950D02*
X5133333Y-563855D01*
X5133333Y-563855D02*
X5323810Y-563855D01*
X5323810Y-563855D02*
X5438095Y-601950D01*
X5780953Y-1363855D02*
X5780953Y-563855D01*
X5780953Y-563855D02*
X6085715Y-563855D01*
X6085715Y-563855D02*
X6161905Y-601950D01*
X6161905Y-601950D02*
X6200000Y-640045D01*
X6200000Y-640045D02*
X6238096Y-716236D01*
X6238096Y-716236D02*
X6238096Y-830521D01*
X6238096Y-830521D02*
X6200000Y-906712D01*
X6200000Y-906712D02*
X6161905Y-944807D01*
X6161905Y-944807D02*
X6085715Y-982902D01*
X6085715Y-982902D02*
X5780953Y-982902D01*
X7038096Y-1363855D02*
X6771429Y-982902D01*
X6580953Y-1363855D02*
X6580953Y-563855D01*
X6580953Y-563855D02*
X6885715Y-563855D01*
X6885715Y-563855D02*
X6961905Y-601950D01*
X6961905Y-601950D02*
X7000000Y-640045D01*
X7000000Y-640045D02*
X7038096Y-716236D01*
X7038096Y-716236D02*
X7038096Y-830521D01*
X7038096Y-830521D02*
X7000000Y-906712D01*
X7000000Y-906712D02*
X6961905Y-944807D01*
X6961905Y-944807D02*
X6885715Y-982902D01*
X6885715Y-982902D02*
X6580953Y-982902D01*
X7380953Y-1363855D02*
X7380953Y-563855D01*
X7761905Y-1363855D02*
X7761905Y-563855D01*
X7761905Y-563855D02*
X8219048Y-1363855D01*
X8219048Y-1363855D02*
X8219048Y-563855D01*
X9019047Y-601950D02*
X8942857Y-563855D01*
X8942857Y-563855D02*
X8828571Y-563855D01*
X8828571Y-563855D02*
X8714285Y-601950D01*
X8714285Y-601950D02*
X8638095Y-678140D01*
X8638095Y-678140D02*
X8600000Y-754331D01*
X8600000Y-754331D02*
X8561904Y-906712D01*
X8561904Y-906712D02*
X8561904Y-1020998D01*
X8561904Y-1020998D02*
X8600000Y-1173379D01*
X8600000Y-1173379D02*
X8638095Y-1249569D01*
X8638095Y-1249569D02*
X8714285Y-1325760D01*
X8714285Y-1325760D02*
X8828571Y-1363855D01*
X8828571Y-1363855D02*
X8904762Y-1363855D01*
X8904762Y-1363855D02*
X9019047Y-1325760D01*
X9019047Y-1325760D02*
X9057143Y-1287664D01*
X9057143Y-1287664D02*
X9057143Y-1020998D01*
X9057143Y-1020998D02*
X8904762Y-1020998D01*
X9028571Y-3163855D02*
X9028571Y-2363855D01*
X9028571Y-2363855D02*
X9333333Y-2363855D01*
X9333333Y-2363855D02*
X9409523Y-2401950D01*
X9409523Y-2401950D02*
X9447618Y-2440045D01*
X9447618Y-2440045D02*
X9485714Y-2516236D01*
X9485714Y-2516236D02*
X9485714Y-2630521D01*
X9485714Y-2630521D02*
X9447618Y-2706712D01*
X9447618Y-2706712D02*
X9409523Y-2744807D01*
X9409523Y-2744807D02*
X9333333Y-2782902D01*
X9333333Y-2782902D02*
X9028571Y-2782902D01*
X9790475Y-3125760D02*
X9904761Y-3163855D01*
X9904761Y-3163855D02*
X10095237Y-3163855D01*
X10095237Y-3163855D02*
X10171428Y-3125760D01*
X10171428Y-3125760D02*
X10209523Y-3087664D01*
X10209523Y-3087664D02*
X10247618Y-3011474D01*
X10247618Y-3011474D02*
X10247618Y-2935283D01*
X10247618Y-2935283D02*
X10209523Y-2859093D01*
X10209523Y-2859093D02*
X10171428Y-2820998D01*
X10171428Y-2820998D02*
X10095237Y-2782902D01*
X10095237Y-2782902D02*
X9942856Y-2744807D01*
X9942856Y-2744807D02*
X9866666Y-2706712D01*
X9866666Y-2706712D02*
X9828571Y-2668617D01*
X9828571Y-2668617D02*
X9790475Y-2592426D01*
X9790475Y-2592426D02*
X9790475Y-2516236D01*
X9790475Y-2516236D02*
X9828571Y-2440045D01*
X9828571Y-2440045D02*
X9866666Y-2401950D01*
X9866666Y-2401950D02*
X9942856Y-2363855D01*
X9942856Y-2363855D02*
X10133333Y-2363855D01*
X10133333Y-2363855D02*
X10247618Y-2401950D01*
X11009523Y-3163855D02*
X10552380Y-3163855D01*
X10780952Y-3163855D02*
X10780952Y-2363855D01*
X10780952Y-2363855D02*
X10704761Y-2478140D01*
X10704761Y-2478140D02*
X10628571Y-2554331D01*
X10628571Y-2554331D02*
X10552380Y-2592426D01*
%TO.C,PS1*%
D11*
X2825000Y-4050000D02*
X17175000Y-4050000D01*
X3310000Y-3550000D02*
G75*
G02*
X2720000Y-3550000I-295000J0D01*
G01*
X2720000Y-3550000D02*
G75*
G02*
X3310000Y-3550000I295000J0D01*
G01*
%TO.C,JF1*%
D12*
X3300000Y-17150000D02*
X16700000Y-17150000D01*
X10000000Y-18000000D02*
X9300000Y-17350000D01*
X10000000Y-18000000D02*
X10700000Y-17350000D01*
%TD*%
%LPC*%
D13*
%TO.C,PS1*%
X3015000Y-5000000D03*
X4285000Y-5000000D03*
X5555000Y-5000000D03*
X6825000Y-5000000D03*
X8095000Y-5000000D03*
X9365000Y-5000000D03*
X10635000Y-5000000D03*
X11905000Y-5000000D03*
X13175000Y-5000000D03*
X14445000Y-5000000D03*
X15715000Y-5000000D03*
X16985000Y-5000000D03*
%TD*%
D14*
%TO.C,JF1*%
X4500000Y-13900000D03*
X5500000Y-13900000D03*
X6500000Y-13900000D03*
X7500000Y-13900000D03*
X8500000Y-13900000D03*
X9500000Y-13900000D03*
X10500000Y-13900000D03*
X11500000Y-13900000D03*
X12500000Y-13900000D03*
X13500000Y-13900000D03*
X14500000Y-13900000D03*
X15500000Y-13900000D03*
D15*
X2200000Y-16100000D03*
X17800000Y-16100000D03*
%TD*%
%LPD*%
M02*
