%TF.GenerationSoftware,KiCad,Pcbnew,10.0.5*%
%TF.CreationDate,2026-09-13T13:35:59-04:00*%
%TF.ProjectId,Symm60HE-Neo-Right-SpringModule,53796d6d-3630-4484-952d-4e656f2d5269,rev?*%
%TF.SameCoordinates,Original*%
%TF.FileFunction,Legend,Top*%
%TF.FilePolarity,Positive*%
%FSLAX46Y46*%
G04 Gerber Fmt 4.6, Leading zero omitted, Abs format (unit mm)*
G04 Created by KiCad (PCBNEW 10.0.5) date 2026-09-13 13:35:59*
%MOMM*%
%LPD*%
G01*
G04 APERTURE LIST*
%ADD10C,0.120000*%
%ADD11C,0.150000*%
%ADD12C,0.960000*%
G04 APERTURE END LIST*
D10*
X9028571Y-1163855D02*
X9028571Y-363855D01*
X9028571Y-363855D02*
X9333333Y-363855D01*
X9333333Y-363855D02*
X9409523Y-401950D01*
X9409523Y-401950D02*
X9447618Y-440045D01*
X9447618Y-440045D02*
X9485714Y-516236D01*
X9485714Y-516236D02*
X9485714Y-630521D01*
X9485714Y-630521D02*
X9447618Y-706712D01*
X9447618Y-706712D02*
X9409523Y-744807D01*
X9409523Y-744807D02*
X9333333Y-782902D01*
X9333333Y-782902D02*
X9028571Y-782902D01*
X9790475Y-1125760D02*
X9904761Y-1163855D01*
X9904761Y-1163855D02*
X10095237Y-1163855D01*
X10095237Y-1163855D02*
X10171428Y-1125760D01*
X10171428Y-1125760D02*
X10209523Y-1087664D01*
X10209523Y-1087664D02*
X10247618Y-1011474D01*
X10247618Y-1011474D02*
X10247618Y-935283D01*
X10247618Y-935283D02*
X10209523Y-859093D01*
X10209523Y-859093D02*
X10171428Y-820998D01*
X10171428Y-820998D02*
X10095237Y-782902D01*
X10095237Y-782902D02*
X9942856Y-744807D01*
X9942856Y-744807D02*
X9866666Y-706712D01*
X9866666Y-706712D02*
X9828571Y-668617D01*
X9828571Y-668617D02*
X9790475Y-592426D01*
X9790475Y-592426D02*
X9790475Y-516236D01*
X9790475Y-516236D02*
X9828571Y-440045D01*
X9828571Y-440045D02*
X9866666Y-401950D01*
X9866666Y-401950D02*
X9942856Y-363855D01*
X9942856Y-363855D02*
X10133333Y-363855D01*
X10133333Y-363855D02*
X10247618Y-401950D01*
X11009523Y-1163855D02*
X10552380Y-1163855D01*
X10780952Y-1163855D02*
X10780952Y-363855D01*
X10780952Y-363855D02*
X10704761Y-478140D01*
X10704761Y-478140D02*
X10628571Y-554331D01*
X10628571Y-554331D02*
X10552380Y-592426D01*
%TO.C,PS1*%
D11*
X2825000Y-2050000D02*
X17175000Y-2050000D01*
X3310000Y-1550000D02*
G75*
G02*
X2720000Y-1550000I-295000J0D01*
G01*
X2720000Y-1550000D02*
G75*
G02*
X3310000Y-1550000I295000J0D01*
G01*
%TD*%
%LPC*%
D12*
%TO.C,PS1*%
X3015000Y-3000000D03*
X4285000Y-3000000D03*
X5555000Y-3000000D03*
X6825000Y-3000000D03*
X8095000Y-3000000D03*
X9365000Y-3000000D03*
X10635000Y-3000000D03*
X11905000Y-3000000D03*
X13175000Y-3000000D03*
X14445000Y-3000000D03*
X15715000Y-3000000D03*
X16985000Y-3000000D03*
%TD*%
%LPD*%
M02*
