%TF.GenerationSoftware,KiCad,Pcbnew,10.0.5*%
%TF.CreationDate,2026-09-22T21:49:14-04:00*%
%TF.ProjectId,Symm60HE-wklbs2-Left,53796d6d-3630-4484-952d-776b6c627332,rev?*%
%TF.SameCoordinates,Original*%
%TF.FileFunction,Profile,NP*%
%FSLAX46Y46*%
G04 Gerber Fmt 4.6, Leading zero omitted, Abs format (unit mm)*
G04 Created by KiCad (PCBNEW 10.0.5) date 2026-09-22 21:49:14*
%MOMM*%
%LPD*%
G01*
G04 APERTURE LIST*
%TA.AperFunction,Profile*%
%ADD10C,0.100000*%
%TD*%
%TA.AperFunction,Profile*%
%ADD11C,0.120000*%
%TD*%
G04 APERTURE END LIST*
D10*
X-453000Y-93000000D02*
X-419400Y-93341400D01*
X-452800Y-39441300D02*
X-453000Y-93000000D01*
X-421900Y-39114000D02*
X-452800Y-39441300D01*
X-419400Y-93341400D02*
X-319800Y-93669700D01*
X-330300Y-38798200D02*
X-421900Y-39114000D01*
X-319800Y-93669700D02*
X-158100Y-93972200D01*
X-181200Y-38505100D02*
X-330300Y-38798200D01*
X-158100Y-93972200D02*
X59600Y-94237400D01*
X-86800Y-38370300D02*
X-181200Y-38505100D01*
X59600Y-94237400D02*
X324800Y-94455100D01*
X158100Y-38080600D02*
X-86800Y-38370300D01*
X324800Y-94455100D02*
X627300Y-94616800D01*
X327300Y-37799000D02*
X158100Y-38080600D01*
X440800Y-37490700D02*
X327300Y-37799000D01*
X494700Y-37166600D02*
X440800Y-37490700D01*
X508900Y-20741900D02*
X494700Y-37166600D01*
X575900Y-20405400D02*
X508900Y-20741900D01*
X627300Y-94616800D02*
X955600Y-94716400D01*
X633700Y-20243700D02*
X575900Y-20405400D01*
X707100Y-20088500D02*
X633700Y-20243700D01*
X897700Y-19803200D02*
X707100Y-20088500D01*
X955600Y-94716400D02*
X1297000Y-94750000D01*
X1140300Y-19560600D02*
X897700Y-19803200D01*
X1278300Y-19458300D02*
X1140300Y-19560600D01*
X1297000Y-94750000D02*
X72951700Y-94759400D01*
X1590400Y-19277200D02*
X1278300Y-19458300D01*
X1797000Y-19123900D02*
X1590400Y-19277200D01*
X1978900Y-18942000D02*
X1797000Y-19123900D01*
X2084500Y-18806800D02*
X1978900Y-18942000D01*
X2216700Y-18586100D02*
X2084500Y-18806800D01*
X2315200Y-18348400D02*
X2216700Y-18586100D01*
X2377700Y-18098900D02*
X2315200Y-18348400D01*
X2398700Y-17928600D02*
X2377700Y-18098900D01*
X2405000Y-2250000D02*
X2398700Y-17928600D01*
X2438600Y-1908600D02*
X2405000Y-2250000D01*
X2480400Y-1742000D02*
X2438600Y-1908600D01*
X2611600Y-1425100D02*
X2480400Y-1742000D01*
X2802200Y-1139800D02*
X2611600Y-1425100D01*
X2917600Y-1012600D02*
X2802200Y-1139800D01*
X3182800Y-794900D02*
X2917600Y-1012600D01*
X3485300Y-633200D02*
X3182800Y-794900D01*
X3647000Y-575400D02*
X3485300Y-633200D01*
X3983500Y-508400D02*
X3647000Y-575400D01*
X4155000Y-500000D02*
X3983500Y-508400D01*
X61592400Y-500000D02*
X4155000Y-500000D01*
X61910700Y-473000D02*
X61592400Y-500000D01*
X62516400Y-320200D02*
X61910700Y-473000D01*
X62859900Y-304300D02*
X62516400Y-320200D01*
X72951700Y-94759400D02*
X137739000Y-105020700D01*
X80427700Y-1225000D02*
X62859900Y-304300D01*
X101607500Y-3583600D02*
X80427700Y-1225000D01*
X131595200Y-80527400D02*
X131600400Y-72121400D01*
X131600400Y-72121400D02*
X131638100Y-71866900D01*
X131622900Y-80812700D02*
X131595200Y-80527400D01*
X131638100Y-71866900D02*
X131745600Y-71541500D01*
X131689000Y-81068900D02*
X131622900Y-80812700D01*
X131745600Y-71541500D02*
X131866900Y-71314600D01*
X131793000Y-81312200D02*
X131689000Y-81068900D01*
X131866900Y-71314600D02*
X132020100Y-71108000D01*
X131986400Y-81606900D02*
X131793000Y-81312200D01*
X132020100Y-71108000D02*
X132268400Y-70871600D01*
X132168100Y-81799100D02*
X131986400Y-81606900D01*
X132268400Y-70871600D02*
X132482200Y-70728700D01*
X132451500Y-82008700D02*
X132168100Y-81799100D01*
X132482200Y-70728700D02*
X132714800Y-70618700D01*
X132688600Y-82126200D02*
X132451500Y-82008700D01*
X132714800Y-70618700D02*
X132961000Y-70544100D01*
X132961000Y-70544100D02*
X133130000Y-70514700D01*
X133043500Y-82229600D02*
X132688600Y-82126200D01*
X133130000Y-70514700D02*
X133365500Y-70500000D01*
X133365500Y-70500000D02*
X142430500Y-70500000D01*
X135535200Y-26550500D02*
X135557500Y-26315600D01*
X135545300Y-26807600D02*
X135535200Y-26550500D01*
X135557500Y-26315600D02*
X137963100Y-11127700D01*
X135593000Y-27060400D02*
X135545300Y-26807600D01*
X135645300Y-27223800D02*
X135593000Y-27060400D01*
X135753000Y-27457400D02*
X135645300Y-27223800D01*
X135843300Y-27603300D02*
X135753000Y-27457400D01*
X136004600Y-27803700D02*
X135843300Y-27603300D01*
X136127700Y-27923300D02*
X136004600Y-27803700D01*
X136332800Y-28078500D02*
X136127700Y-27923300D01*
X136481200Y-28164600D02*
X136332800Y-28078500D01*
X136509000Y-9125600D02*
X101607500Y-3583600D01*
X136799800Y-28291000D02*
X136481200Y-28164600D01*
X136840900Y-9212300D02*
X136509000Y-9125600D01*
X136998800Y-9279600D02*
X136840900Y-9212300D01*
X137030100Y-28342400D02*
X136799800Y-28291000D01*
X137291200Y-9458900D02*
X136998800Y-9279600D01*
X137543000Y-9691800D02*
X137291200Y-9458900D01*
X137739000Y-105020700D02*
X137952100Y-105014200D01*
X137744500Y-9969300D02*
X137543000Y-9691800D01*
X137888100Y-10280800D02*
X137744500Y-9969300D01*
X137952100Y-105014200D02*
X138301900Y-104962600D01*
X137963100Y-11127700D02*
X137981600Y-10957000D01*
X137968100Y-10614300D02*
X137888100Y-10280800D01*
X137981600Y-10957000D02*
X137968100Y-10614300D01*
X138301900Y-104962600D02*
X138471000Y-104910600D01*
X138471000Y-104910600D02*
X138789400Y-104756900D01*
X138789400Y-104756900D02*
X139070300Y-104542300D01*
X139070300Y-104542300D02*
X139302300Y-104275600D01*
X139302300Y-104275600D02*
X139397000Y-104126000D01*
X139397000Y-104126000D02*
X139538800Y-103802200D01*
X139538800Y-103802200D02*
X139612500Y-103456400D01*
X139612500Y-103456400D02*
X141602900Y-85271900D01*
X140137000Y-83353100D02*
X133043500Y-82229600D01*
X140459100Y-83436100D02*
X140137000Y-83353100D01*
X140759700Y-83578500D02*
X140459100Y-83436100D01*
X141027800Y-83775300D02*
X140759700Y-83578500D01*
X141146700Y-83891800D02*
X141027800Y-83775300D01*
X141348600Y-84156100D02*
X141146700Y-83891800D01*
X141429800Y-84301500D02*
X141348600Y-84156100D01*
X141496900Y-84453900D02*
X141429800Y-84301500D01*
X141586100Y-84774300D02*
X141496900Y-84453900D01*
X141602900Y-85271900D02*
X141607500Y-84939400D01*
X141607500Y-84939400D02*
X141586100Y-84774300D01*
X142430500Y-70500000D02*
X142600400Y-70466400D01*
X142600400Y-70466400D02*
X142928700Y-70366800D01*
X142928700Y-70366800D02*
X143231200Y-70205100D01*
X143231200Y-70205100D02*
X143369200Y-70102800D01*
X143369200Y-70102800D02*
X143496400Y-69987400D01*
X143496400Y-69987400D02*
X143714100Y-69722200D01*
X143714100Y-69722200D02*
X143802400Y-69574900D01*
X143802400Y-69574900D02*
X143933600Y-69258000D01*
X143933600Y-69258000D02*
X144000600Y-68921500D01*
X143962200Y-29440400D02*
X137030100Y-28342400D01*
X144000600Y-68921500D02*
X144009000Y-68750000D01*
X144009000Y-68750000D02*
X144010100Y-45565700D01*
X144010100Y-45565700D02*
X145438400Y-31167300D01*
X144303100Y-29530300D02*
X143962200Y-29440400D01*
X144465000Y-29600600D02*
X144303100Y-29530300D01*
X144763700Y-29788100D02*
X144465000Y-29600600D01*
X145018600Y-30031700D02*
X144763700Y-29788100D01*
X145126400Y-30171500D02*
X145018600Y-30031700D01*
X145297100Y-30480000D02*
X145126400Y-30171500D01*
X145358400Y-30645600D02*
X145297100Y-30480000D01*
X145402600Y-30816500D02*
X145358400Y-30645600D01*
X145438400Y-31167300D02*
X145402600Y-30816500D01*
%TO.C,DL25*%
D11*
X103188830Y-76145961D02*
X103079270Y-76837692D01*
X103188830Y-76145961D02*
X103298389Y-75454231D01*
X104633248Y-77893433D02*
X103743980Y-77752586D01*
X104633248Y-77893433D02*
X105522516Y-78034279D01*
X105102552Y-74930367D02*
X104213284Y-74789521D01*
X105102552Y-74930367D02*
X105991820Y-75071214D01*
X106546970Y-76677839D02*
X106437411Y-77369569D01*
X106546970Y-76677839D02*
X106656530Y-75986108D01*
X103079270Y-76837692D02*
G75*
G02*
X103011426Y-76985197I-296321J46937D01*
G01*
X103279447Y-75292980D02*
G75*
G02*
X103298389Y-75454231I-277356J-114319D01*
G01*
X103279447Y-75292980D02*
G75*
G02*
X104065778Y-74721678I462273J190533D01*
G01*
X103582730Y-77771528D02*
G75*
G02*
X103011426Y-76985197I-190535J462272D01*
G01*
X103582730Y-77771528D02*
G75*
G02*
X103743980Y-77752586I114318J-277356D01*
G01*
X104213284Y-74789521D02*
G75*
G02*
X104065779Y-74721677I46939J296328D01*
G01*
X105522516Y-78034279D02*
G75*
G02*
X105670022Y-78102122I-46936J-296326D01*
G01*
X106153070Y-75052272D02*
G75*
G02*
X105991824Y-75071190I-114273J277357D01*
G01*
X106153070Y-75052272D02*
G75*
G02*
X106724373Y-75838603I190536J-462271D01*
G01*
X106456353Y-77530820D02*
G75*
G02*
X105670021Y-78102123I-462272J-190535D01*
G01*
X106456353Y-77530820D02*
G75*
G02*
X106437435Y-77369573I277357J114274D01*
G01*
X106656530Y-75986108D02*
G75*
G02*
X106724375Y-75838604I296004J-46794D01*
G01*
%TO.C,DL21*%
X16397000Y-72025000D02*
X16397000Y-71324647D01*
X16397000Y-72025000D02*
X16397000Y-72725353D01*
X18097000Y-70525000D02*
X17196647Y-70525000D01*
X18097000Y-70525000D02*
X18997353Y-70525000D01*
X18097000Y-73525000D02*
X17196647Y-73525000D01*
X18097000Y-73525000D02*
X18997353Y-73525000D01*
X19797000Y-72025000D02*
X19797000Y-71324647D01*
X19797000Y-72025000D02*
X19797000Y-72725353D01*
X16353066Y-71168345D02*
G75*
G02*
X16397000Y-71324647I-256082J-156306D01*
G01*
X16353066Y-71168345D02*
G75*
G02*
X17040345Y-70481066I426775J260504D01*
G01*
X16397000Y-72725353D02*
G75*
G02*
X16353066Y-72881655I-299992J-3D01*
G01*
X17040345Y-73568934D02*
G75*
G02*
X16353066Y-72881655I-260503J426776D01*
G01*
X17040345Y-73568934D02*
G75*
G02*
X17196647Y-73525000I156308J-256089D01*
G01*
X17196647Y-70525000D02*
G75*
G02*
X17040345Y-70481066I-8J299974D01*
G01*
X18997353Y-73525000D02*
G75*
G02*
X19153656Y-73568932I7J-299990D01*
G01*
X19153655Y-70481066D02*
G75*
G02*
X18997353Y-70524999I-156305J256086D01*
G01*
X19153655Y-70481066D02*
G75*
G02*
X19840934Y-71168345I260505J-426774D01*
G01*
X19797000Y-71324647D02*
G75*
G02*
X19840932Y-71168344I299670J97D01*
G01*
X19840934Y-72881655D02*
G75*
G02*
X19153655Y-73568934I-426774J-260505D01*
G01*
X19840934Y-72881655D02*
G75*
G02*
X19797024Y-72725353I256066J156255D01*
G01*
%TO.C,DL20*%
X16397000Y-52975000D02*
X16397000Y-52274647D01*
X16397000Y-52975000D02*
X16397000Y-53675353D01*
X18097000Y-51474999D02*
X17196647Y-51475000D01*
X18097000Y-51474999D02*
X18997353Y-51475000D01*
X18097000Y-54475001D02*
X17196647Y-54475000D01*
X18097000Y-54475001D02*
X18997353Y-54475000D01*
X19797000Y-52975000D02*
X19797000Y-52274647D01*
X19797000Y-52975000D02*
X19797000Y-53675353D01*
X16353066Y-52118345D02*
G75*
G02*
X16397000Y-52274647I-256058J-156299D01*
G01*
X16353066Y-52118345D02*
G75*
G02*
X17040345Y-51431066I426776J260503D01*
G01*
X16397000Y-53675353D02*
G75*
G02*
X16353066Y-53831655I-300016J4D01*
G01*
X17040345Y-54518934D02*
G75*
G02*
X16353066Y-53831655I-260504J426775D01*
G01*
X17040345Y-54518934D02*
G75*
G02*
X17196647Y-54475000I156299J-256058D01*
G01*
X17196647Y-51475000D02*
G75*
G02*
X17040345Y-51431066I6J300023D01*
G01*
X18997353Y-54475000D02*
G75*
G02*
X19153656Y-54518933I-3J-300020D01*
G01*
X19153655Y-51431066D02*
G75*
G02*
X18997353Y-51474976I-156255J256066D01*
G01*
X19153655Y-51431066D02*
G75*
G02*
X19840934Y-52118345I260505J-426774D01*
G01*
X19797000Y-52274647D02*
G75*
G02*
X19840935Y-52118346I299680J87D01*
G01*
X19840934Y-53831655D02*
G75*
G02*
X19153655Y-54518934I-426774J-260505D01*
G01*
X19840934Y-53831655D02*
G75*
G02*
X19797024Y-53675353I256066J156255D01*
G01*
%TO.C,DL5*%
X88139713Y-16621002D02*
X88066506Y-17317518D01*
X88139713Y-16621002D02*
X88212920Y-15924485D01*
X89673607Y-18290483D02*
X88778187Y-18196370D01*
X89673607Y-18290483D02*
X90569028Y-18384595D01*
X89987193Y-15306917D02*
X89091772Y-15212805D01*
X89987193Y-15306917D02*
X90882613Y-15401030D01*
X91521087Y-16976398D02*
X91447880Y-17672915D01*
X91521087Y-16976398D02*
X91594294Y-16279882D01*
X88066506Y-17317518D02*
G75*
G02*
X88006475Y-17468371I-298349J31355D01*
G01*
X88185564Y-15764447D02*
G75*
G02*
X88212919Y-15924485I-271017J-128682D01*
G01*
X88185564Y-15764447D02*
G75*
G02*
X88940919Y-15152773I451667J214467D01*
G01*
X88618148Y-18223726D02*
G75*
G02*
X88006476Y-17468371I-214465J451668D01*
G01*
X88618148Y-18223726D02*
G75*
G02*
X88778187Y-18196370I128684J-271024D01*
G01*
X89091772Y-15212805D02*
G75*
G02*
X88940918Y-15152774I31348J298332D01*
G01*
X90569028Y-18384595D02*
G75*
G02*
X90719883Y-18444624I-31350J-298348D01*
G01*
X91042652Y-15373674D02*
G75*
G02*
X90882613Y-15401028I-128681J271021D01*
G01*
X91042652Y-15373674D02*
G75*
G02*
X91654325Y-16129029I214467J-451667D01*
G01*
X91475236Y-17832953D02*
G75*
G02*
X90719881Y-18444627I-451667J-214468D01*
G01*
X91475236Y-17832953D02*
G75*
G02*
X91447905Y-17672918I270996J128633D01*
G01*
X91594294Y-16279882D02*
G75*
G02*
X91654323Y-16129028I298039J-31228D01*
G01*
%TO.C,DL29*%
X42591000Y-91075000D02*
X42591000Y-90374647D01*
X42591000Y-91075000D02*
X42591000Y-91775353D01*
X44291000Y-89575000D02*
X43390647Y-89575000D01*
X44291000Y-89575000D02*
X45191353Y-89575000D01*
X44291000Y-92575000D02*
X43390647Y-92575000D01*
X44291000Y-92575000D02*
X45191353Y-92575000D01*
X45991000Y-91075000D02*
X45991000Y-90374647D01*
X45991000Y-91075000D02*
X45991000Y-91775353D01*
X42547066Y-90218345D02*
G75*
G02*
X42591000Y-90374647I-256058J-156299D01*
G01*
X42547066Y-90218345D02*
G75*
G02*
X43234345Y-89531066I426776J260503D01*
G01*
X42591000Y-91775353D02*
G75*
G02*
X42547066Y-91931655I-299992J-3D01*
G01*
X43234345Y-92618934D02*
G75*
G02*
X42547066Y-91931655I-260503J426776D01*
G01*
X43234345Y-92618934D02*
G75*
G02*
X43390647Y-92575000I156299J-256058D01*
G01*
X43390647Y-89575000D02*
G75*
G02*
X43234345Y-89531066I-3J299992D01*
G01*
X45191353Y-92575000D02*
G75*
G02*
X45347656Y-92618933I-3J-300020D01*
G01*
X45347655Y-89531066D02*
G75*
G02*
X45191353Y-89574976I-156255J256066D01*
G01*
X45347655Y-89531066D02*
G75*
G02*
X46034934Y-90218345I260505J-426774D01*
G01*
X45991000Y-90374647D02*
G75*
G02*
X46034935Y-90218346I299680J87D01*
G01*
X46034934Y-91931655D02*
G75*
G02*
X45347655Y-92618934I-426774J-260505D01*
G01*
X46034934Y-91931655D02*
G75*
G02*
X45991024Y-91775353I256066J156255D01*
G01*
%TO.C,DL3*%
X50210000Y-14875000D02*
X50210000Y-14174647D01*
X50210000Y-14875000D02*
X50210000Y-15575353D01*
X51910000Y-13375000D02*
X51009647Y-13375000D01*
X51910000Y-13375000D02*
X52810353Y-13375000D01*
X51910000Y-16375000D02*
X51009647Y-16375000D01*
X51910000Y-16375000D02*
X52810353Y-16375000D01*
X53610000Y-14875000D02*
X53610000Y-14174647D01*
X53610000Y-14875000D02*
X53610000Y-15575353D01*
X50166066Y-14018345D02*
G75*
G02*
X50210000Y-14174647I-256058J-156299D01*
G01*
X50166066Y-14018345D02*
G75*
G02*
X50853345Y-13331066I426776J260503D01*
G01*
X50210000Y-15575353D02*
G75*
G02*
X50166066Y-15731655I-299992J-3D01*
G01*
X50853345Y-16418934D02*
G75*
G02*
X50166066Y-15731655I-260503J426776D01*
G01*
X50853345Y-16418934D02*
G75*
G02*
X51009647Y-16375000I156299J-256058D01*
G01*
X51009647Y-13375000D02*
G75*
G02*
X50853345Y-13331066I-3J299992D01*
G01*
X52810353Y-16375000D02*
G75*
G02*
X52966656Y-16418933I-3J-300020D01*
G01*
X52966655Y-13331066D02*
G75*
G02*
X52810353Y-13374976I-156255J256066D01*
G01*
X52966655Y-13331066D02*
G75*
G02*
X53653934Y-14018345I260505J-426774D01*
G01*
X53610000Y-14174647D02*
G75*
G02*
X53653935Y-14018346I299680J87D01*
G01*
X53653934Y-15731655D02*
G75*
G02*
X52966655Y-16418934I-426774J-260505D01*
G01*
X53653934Y-15731655D02*
G75*
G02*
X53610024Y-15575353I256066J156255D01*
G01*
%TO.C,DL30*%
X82957113Y-92626002D02*
X82883906Y-93322518D01*
X82957113Y-92626002D02*
X83030320Y-91929485D01*
X84491007Y-94295483D02*
X83595587Y-94201370D01*
X84491007Y-94295483D02*
X85386428Y-94389595D01*
X84804593Y-91311917D02*
X83909172Y-91217805D01*
X84804593Y-91311917D02*
X85700013Y-91406030D01*
X86338487Y-92981398D02*
X86265280Y-93677915D01*
X86338487Y-92981398D02*
X86411694Y-92284882D01*
X82883906Y-93322518D02*
G75*
G02*
X82823875Y-93473371I-298379J31367D01*
G01*
X83002964Y-91769447D02*
G75*
G02*
X83030319Y-91929485I-270993J-128678D01*
G01*
X83002964Y-91769447D02*
G75*
G02*
X83758319Y-91157773I451667J214467D01*
G01*
X83435548Y-94228726D02*
G75*
G02*
X82823875Y-93473371I-214466J451668D01*
G01*
X83435548Y-94228726D02*
G75*
G02*
X83595587Y-94201371I128678J-270993D01*
G01*
X83909172Y-91217805D02*
G75*
G02*
X83758318Y-91157774I31357J298356D01*
G01*
X85386428Y-94389595D02*
G75*
G02*
X85537281Y-94449627I-31361J-298357D01*
G01*
X85860052Y-91378674D02*
G75*
G02*
X85700016Y-91406005I-128633J270996D01*
G01*
X85860052Y-91378674D02*
G75*
G02*
X86471725Y-92134029I214467J-451667D01*
G01*
X86292636Y-93837953D02*
G75*
G02*
X85537281Y-94449627I-451667J-214468D01*
G01*
X86292636Y-93837953D02*
G75*
G02*
X86265305Y-93677918I270996J128633D01*
G01*
X86411694Y-92284882D02*
G75*
G02*
X86471725Y-92134029I298057J-31240D01*
G01*
%TO.C,DL22*%
X47353000Y-72025000D02*
X47353000Y-71324647D01*
X47353000Y-72025000D02*
X47353000Y-72725353D01*
X49053000Y-70525000D02*
X48152647Y-70525000D01*
X49053000Y-70525000D02*
X49953353Y-70525000D01*
X49053000Y-73525000D02*
X48152647Y-73525000D01*
X49053000Y-73525000D02*
X49953353Y-73525000D01*
X50753000Y-72025000D02*
X50753000Y-71324647D01*
X50753000Y-72025000D02*
X50753000Y-72725353D01*
X47309066Y-71168345D02*
G75*
G02*
X47353000Y-71324647I-256065J-156301D01*
G01*
X47309066Y-71168345D02*
G75*
G02*
X47996345Y-70481066I426775J260504D01*
G01*
X47353000Y-72725353D02*
G75*
G02*
X47309066Y-72881655I-300016J4D01*
G01*
X47996345Y-73568934D02*
G75*
G02*
X47309066Y-72881655I-260503J426776D01*
G01*
X47996345Y-73568934D02*
G75*
G02*
X48152647Y-73525000I156301J-256065D01*
G01*
X48152647Y-70525000D02*
G75*
G02*
X47996345Y-70481066I4J300016D01*
G01*
X49953353Y-73525000D02*
G75*
G02*
X50109656Y-73568933I-3J-300020D01*
G01*
X50109655Y-70481066D02*
G75*
G02*
X49953353Y-70524990I-156255J255966D01*
G01*
X50109655Y-70481066D02*
G75*
G02*
X50796934Y-71168345I260505J-426774D01*
G01*
X50753000Y-71324647D02*
G75*
G02*
X50796934Y-71168345I299690J87D01*
G01*
X50796934Y-72881655D02*
G75*
G02*
X50109655Y-73568934I-426774J-260505D01*
G01*
X50796934Y-72881655D02*
G75*
G02*
X50753024Y-72725353I256066J156255D01*
G01*
%TO.C,DL14*%
X132753630Y-42219961D02*
X132644070Y-42911692D01*
X132753630Y-42219961D02*
X132863189Y-41528231D01*
X134198048Y-43967433D02*
X133308780Y-43826586D01*
X134198048Y-43967433D02*
X135087316Y-44108279D01*
X134667352Y-41004367D02*
X133778084Y-40863521D01*
X134667352Y-41004367D02*
X135556620Y-41145214D01*
X136111770Y-42751839D02*
X136002211Y-43443569D01*
X136111770Y-42751839D02*
X136221330Y-42060108D01*
X132644070Y-42911692D02*
G75*
G02*
X132576226Y-43059197I-296321J46937D01*
G01*
X132844247Y-41366980D02*
G75*
G02*
X132863189Y-41528231I-277356J-114319D01*
G01*
X132844247Y-41366980D02*
G75*
G02*
X133630578Y-40795678I462273J190533D01*
G01*
X133147530Y-43845528D02*
G75*
G02*
X132576226Y-43059197I-190535J462272D01*
G01*
X133147530Y-43845528D02*
G75*
G02*
X133308780Y-43826586I114318J-277356D01*
G01*
X133778084Y-40863521D02*
G75*
G02*
X133630579Y-40795677I46939J296328D01*
G01*
X135087316Y-44108279D02*
G75*
G02*
X135234822Y-44176122I-46936J-296326D01*
G01*
X135717870Y-41126272D02*
G75*
G02*
X135556624Y-41145190I-114273J277357D01*
G01*
X135717870Y-41126272D02*
G75*
G02*
X136289173Y-41912603I190536J-462271D01*
G01*
X136021153Y-43604820D02*
G75*
G02*
X135234821Y-44176123I-462272J-190535D01*
G01*
X136021153Y-43604820D02*
G75*
G02*
X136002235Y-43443573I277357J114274D01*
G01*
X136221330Y-42060108D02*
G75*
G02*
X136289175Y-41912604I296004J-46794D01*
G01*
%TO.C,DL4*%
X69017130Y-15021529D02*
X68980476Y-15720922D01*
X69017130Y-15021529D02*
X69053783Y-14322136D01*
X70636296Y-16608444D02*
X69737177Y-16561323D01*
X70636296Y-16608444D02*
X71535415Y-16655565D01*
X70793304Y-13612556D02*
X69894185Y-13565435D01*
X70793304Y-13612556D02*
X71692423Y-13659677D01*
X72412470Y-15199471D02*
X72375817Y-15898864D01*
X72412470Y-15199471D02*
X72449124Y-14500078D01*
X68980476Y-15720922D02*
G75*
G02*
X68928422Y-15874711I-299604J15706D01*
G01*
X69018090Y-14163749D02*
G75*
G02*
X69053783Y-14322136I-263894J-142685D01*
G01*
X69018090Y-14163749D02*
G75*
G02*
X69740397Y-13513380I439824J237812D01*
G01*
X69578790Y-16597017D02*
G75*
G02*
X68928422Y-15874711I-237810J439825D01*
G01*
X69578790Y-16597017D02*
G75*
G02*
X69737177Y-16561324I142685J-263894D01*
G01*
X69894185Y-13565435D02*
G75*
G02*
X69740396Y-13513381I15705J299605D01*
G01*
X71535415Y-16655565D02*
G75*
G02*
X71689204Y-16707618I-15705J-299609D01*
G01*
X71850810Y-13623983D02*
G75*
G02*
X71692424Y-13659667I-142644J263793D01*
G01*
X71850810Y-13623983D02*
G75*
G02*
X72501179Y-14346290I237813J-439823D01*
G01*
X72411510Y-16057251D02*
G75*
G02*
X71689203Y-16707620I-439823J-237813D01*
G01*
X72411510Y-16057251D02*
G75*
G02*
X72375841Y-15898865I263893J142639D01*
G01*
X72449124Y-14500078D02*
G75*
G02*
X72501179Y-14346289I299284J-15598D01*
G01*
%TO.C,DL8*%
X95490313Y-36458002D02*
X95417106Y-37154518D01*
X95490313Y-36458002D02*
X95563520Y-35761485D01*
X97024207Y-38127483D02*
X96128787Y-38033370D01*
X97024207Y-38127483D02*
X97919628Y-38221595D01*
X97337793Y-35143917D02*
X96442372Y-35049805D01*
X97337793Y-35143917D02*
X98233213Y-35238030D01*
X98871687Y-36813398D02*
X98798480Y-37509915D01*
X98871687Y-36813398D02*
X98944894Y-36116882D01*
X95417106Y-37154518D02*
G75*
G02*
X95357075Y-37305371I-298349J31355D01*
G01*
X95536164Y-35601447D02*
G75*
G02*
X95563519Y-35761485I-271017J-128682D01*
G01*
X95536164Y-35601447D02*
G75*
G02*
X96291519Y-34989773I451667J214467D01*
G01*
X95968748Y-38060726D02*
G75*
G02*
X95357076Y-37305371I-214465J451668D01*
G01*
X95968748Y-38060726D02*
G75*
G02*
X96128787Y-38033370I128684J-271024D01*
G01*
X96442372Y-35049805D02*
G75*
G02*
X96291518Y-34989774I31348J298332D01*
G01*
X97919628Y-38221595D02*
G75*
G02*
X98070483Y-38281624I-31350J-298348D01*
G01*
X98393252Y-35210674D02*
G75*
G02*
X98233213Y-35238028I-128681J271021D01*
G01*
X98393252Y-35210674D02*
G75*
G02*
X99004925Y-35966029I214467J-451667D01*
G01*
X98825836Y-37669953D02*
G75*
G02*
X98070481Y-38281627I-451667J-214468D01*
G01*
X98825836Y-37669953D02*
G75*
G02*
X98798505Y-37509918I270996J128633D01*
G01*
X98944894Y-36116882D02*
G75*
G02*
X99004923Y-35966028I298039J-31228D01*
G01*
%TO.C,DL1*%
X12110000Y-14875000D02*
X12110000Y-14174647D01*
X12110000Y-14875000D02*
X12110000Y-15575353D01*
X13810000Y-13375000D02*
X12909647Y-13375000D01*
X13810000Y-13375000D02*
X14710353Y-13375000D01*
X13810000Y-16375000D02*
X12909647Y-16375000D01*
X13810000Y-16375000D02*
X14710353Y-16375000D01*
X15510000Y-14875000D02*
X15510000Y-14174647D01*
X15510000Y-14875000D02*
X15510000Y-15575353D01*
X12066066Y-14018345D02*
G75*
G02*
X12110000Y-14174647I-256058J-156299D01*
G01*
X12066066Y-14018345D02*
G75*
G02*
X12753345Y-13331066I426776J260503D01*
G01*
X12110000Y-15575353D02*
G75*
G02*
X12066066Y-15731655I-299992J-3D01*
G01*
X12753345Y-16418934D02*
G75*
G02*
X12066066Y-15731655I-260503J426776D01*
G01*
X12753345Y-16418934D02*
G75*
G02*
X12909647Y-16375000I156299J-256058D01*
G01*
X12909647Y-13375000D02*
G75*
G02*
X12753345Y-13331066I-3J299992D01*
G01*
X14710353Y-16375000D02*
G75*
G02*
X14866656Y-16418933I-3J-300020D01*
G01*
X14866655Y-13331066D02*
G75*
G02*
X14710353Y-13374976I-156255J256066D01*
G01*
X14866655Y-13331066D02*
G75*
G02*
X15553934Y-14018345I260505J-426774D01*
G01*
X15510000Y-14174647D02*
G75*
G02*
X15553935Y-14018346I299680J87D01*
G01*
X15553934Y-15731655D02*
G75*
G02*
X14866655Y-16418934I-426774J-260505D01*
G01*
X15553934Y-15731655D02*
G75*
G02*
X15510024Y-15575353I256066J156255D01*
G01*
%TO.C,DL23*%
X65971330Y-72402129D02*
X65934676Y-73101522D01*
X65971330Y-72402129D02*
X66007983Y-71702736D01*
X67590496Y-73989044D02*
X66691377Y-73941923D01*
X67590496Y-73989044D02*
X68489615Y-74036165D01*
X67747504Y-70993156D02*
X66848385Y-70946035D01*
X67747504Y-70993156D02*
X68646623Y-71040277D01*
X69366670Y-72580071D02*
X69330017Y-73279464D01*
X69366670Y-72580071D02*
X69403324Y-71880678D01*
X65934676Y-73101522D02*
G75*
G02*
X65882622Y-73255311I-299581J15697D01*
G01*
X65972290Y-71544349D02*
G75*
G02*
X66007983Y-71702736I-263887J-142683D01*
G01*
X65972290Y-71544349D02*
G75*
G02*
X66694597Y-70893980I439825J237811D01*
G01*
X66532990Y-73977617D02*
G75*
G02*
X65882622Y-73255311I-237810J439825D01*
G01*
X66532990Y-73977617D02*
G75*
G02*
X66691377Y-73941924I142679J-263866D01*
G01*
X66848385Y-70946035D02*
G75*
G02*
X66694596Y-70893981I15697J299581D01*
G01*
X68489615Y-74036165D02*
G75*
G02*
X68643404Y-74088218I-15705J-299609D01*
G01*
X68805010Y-71004583D02*
G75*
G02*
X68646624Y-71040267I-142644J263793D01*
G01*
X68805010Y-71004583D02*
G75*
G02*
X69455379Y-71726890I237813J-439823D01*
G01*
X69365710Y-73437851D02*
G75*
G02*
X68643403Y-74088220I-439823J-237813D01*
G01*
X69365710Y-73437851D02*
G75*
G02*
X69330041Y-73279465I263893J142639D01*
G01*
X69403324Y-71880678D02*
G75*
G02*
X69455380Y-71726890I299274J-15597D01*
G01*
%TO.C,DL7*%
X125395230Y-21919961D02*
X125285670Y-22611692D01*
X125395230Y-21919961D02*
X125504789Y-21228231D01*
X126839648Y-23667433D02*
X125950380Y-23526586D01*
X126839648Y-23667433D02*
X127728916Y-23808279D01*
X127308952Y-20704367D02*
X126419684Y-20563521D01*
X127308952Y-20704367D02*
X128198220Y-20845214D01*
X128753370Y-22451839D02*
X128643811Y-23143569D01*
X128753370Y-22451839D02*
X128862930Y-21760108D01*
X125285670Y-22611692D02*
G75*
G02*
X125217826Y-22759197I-296321J46937D01*
G01*
X125485847Y-21066980D02*
G75*
G02*
X125504789Y-21228231I-277356J-114319D01*
G01*
X125485847Y-21066980D02*
G75*
G02*
X126272178Y-20495678I462273J190533D01*
G01*
X125789130Y-23545528D02*
G75*
G02*
X125217826Y-22759197I-190535J462272D01*
G01*
X125789130Y-23545528D02*
G75*
G02*
X125950380Y-23526586I114318J-277356D01*
G01*
X126419684Y-20563521D02*
G75*
G02*
X126272179Y-20495677I46939J296328D01*
G01*
X127728916Y-23808279D02*
G75*
G02*
X127876422Y-23876122I-46936J-296326D01*
G01*
X128359470Y-20826272D02*
G75*
G02*
X128198224Y-20845190I-114273J277357D01*
G01*
X128359470Y-20826272D02*
G75*
G02*
X128930773Y-21612603I190536J-462271D01*
G01*
X128662753Y-23304820D02*
G75*
G02*
X127876421Y-23876123I-462272J-190535D01*
G01*
X128662753Y-23304820D02*
G75*
G02*
X128643835Y-23143573I277357J114274D01*
G01*
X128862930Y-21760108D02*
G75*
G02*
X128930775Y-21612604I296004J-46794D01*
G01*
%TO.C,DL19*%
X42591000Y-52975000D02*
X42591000Y-52274647D01*
X42591000Y-52975000D02*
X42591000Y-53675353D01*
X44291000Y-51474999D02*
X43390647Y-51475000D01*
X44291000Y-51474999D02*
X45191353Y-51475000D01*
X44291000Y-54475001D02*
X43390647Y-54475000D01*
X44291000Y-54475001D02*
X45191353Y-54475000D01*
X45991000Y-52975000D02*
X45991000Y-52274647D01*
X45991000Y-52975000D02*
X45991000Y-53675353D01*
X42547066Y-52118345D02*
G75*
G02*
X42591000Y-52274647I-256058J-156299D01*
G01*
X42547066Y-52118345D02*
G75*
G02*
X43234345Y-51431066I426776J260503D01*
G01*
X42591000Y-53675353D02*
G75*
G02*
X42547066Y-53831655I-300016J4D01*
G01*
X43234345Y-54518934D02*
G75*
G02*
X42547066Y-53831655I-260504J426775D01*
G01*
X43234345Y-54518934D02*
G75*
G02*
X43390647Y-54475000I156299J-256058D01*
G01*
X43390647Y-51475000D02*
G75*
G02*
X43234345Y-51431066I6J300023D01*
G01*
X45191353Y-54475000D02*
G75*
G02*
X45347656Y-54518933I-3J-300020D01*
G01*
X45347655Y-51431066D02*
G75*
G02*
X45191353Y-51474976I-156255J256066D01*
G01*
X45347655Y-51431066D02*
G75*
G02*
X46034934Y-52118345I260505J-426774D01*
G01*
X45991000Y-52274647D02*
G75*
G02*
X46034935Y-52118346I299680J87D01*
G01*
X46034934Y-53831655D02*
G75*
G02*
X45347655Y-54518934I-426774J-260505D01*
G01*
X46034934Y-53831655D02*
G75*
G02*
X45991024Y-53675353I256066J156255D01*
G01*
%TO.C,DL12*%
X14968000Y-33925000D02*
X14968000Y-33224647D01*
X14968000Y-33925000D02*
X14968000Y-34625353D01*
X16668000Y-32425000D02*
X15767647Y-32425000D01*
X16668000Y-32425000D02*
X17568353Y-32425000D01*
X16668000Y-35425000D02*
X15767647Y-35425000D01*
X16668000Y-35425000D02*
X17568353Y-35425000D01*
X18368000Y-33925000D02*
X18368000Y-33224647D01*
X18368000Y-33925000D02*
X18368000Y-34625353D01*
X14924066Y-33068345D02*
G75*
G02*
X14968000Y-33224647I-256058J-156299D01*
G01*
X14924066Y-33068345D02*
G75*
G02*
X15611345Y-32381066I426776J260503D01*
G01*
X14968000Y-34625353D02*
G75*
G02*
X14924066Y-34781655I-299992J-3D01*
G01*
X15611345Y-35468934D02*
G75*
G02*
X14924066Y-34781655I-260503J426776D01*
G01*
X15611345Y-35468934D02*
G75*
G02*
X15767647Y-35425000I156299J-256058D01*
G01*
X15767647Y-32425000D02*
G75*
G02*
X15611345Y-32381066I-3J299992D01*
G01*
X17568353Y-35425000D02*
G75*
G02*
X17724656Y-35468933I-3J-300020D01*
G01*
X17724655Y-32381066D02*
G75*
G02*
X17568353Y-32424976I-156255J256066D01*
G01*
X17724655Y-32381066D02*
G75*
G02*
X18411934Y-33068345I260505J-426774D01*
G01*
X18368000Y-33224647D02*
G75*
G02*
X18411935Y-33068346I299680J87D01*
G01*
X18411934Y-34781655D02*
G75*
G02*
X17724655Y-35468934I-426774J-260505D01*
G01*
X18411934Y-34781655D02*
G75*
G02*
X18368024Y-34625353I256066J156255D01*
G01*
%TO.C,DL10*%
X57830800Y-33925800D02*
X57830800Y-33225447D01*
X57830800Y-33925800D02*
X57830800Y-34626153D01*
X59530800Y-32425800D02*
X58630447Y-32425800D01*
X59530800Y-32425800D02*
X60431153Y-32425800D01*
X59530800Y-35425800D02*
X58630447Y-35425800D01*
X59530800Y-35425800D02*
X60431153Y-35425800D01*
X61230800Y-33925800D02*
X61230800Y-33225447D01*
X61230800Y-33925800D02*
X61230800Y-34626153D01*
X57786866Y-33069145D02*
G75*
G02*
X57830800Y-33225447I-256065J-156301D01*
G01*
X57786866Y-33069145D02*
G75*
G02*
X58474145Y-32381866I426775J260504D01*
G01*
X57830800Y-34626153D02*
G75*
G02*
X57786866Y-34782455I-300016J4D01*
G01*
X58474145Y-35469734D02*
G75*
G02*
X57786866Y-34782455I-260503J426776D01*
G01*
X58474145Y-35469734D02*
G75*
G02*
X58630447Y-35425800I156301J-256065D01*
G01*
X58630447Y-32425800D02*
G75*
G02*
X58474145Y-32381866I4J300016D01*
G01*
X60431153Y-35425800D02*
G75*
G02*
X60587456Y-35469733I-3J-300020D01*
G01*
X60587455Y-32381866D02*
G75*
G02*
X60431153Y-32425790I-156255J255966D01*
G01*
X60587455Y-32381866D02*
G75*
G02*
X61274734Y-33069145I260505J-426774D01*
G01*
X61230800Y-33225447D02*
G75*
G02*
X61274734Y-33069145I299690J87D01*
G01*
X61274734Y-34782455D02*
G75*
G02*
X60587455Y-35469734I-426774J-260505D01*
G01*
X61274734Y-34782455D02*
G75*
G02*
X61230824Y-34626153I256066J156255D01*
G01*
%TO.C,DL9*%
X76548113Y-34474802D02*
X76474906Y-35171318D01*
X76548113Y-34474802D02*
X76621320Y-33778285D01*
X78082007Y-36144283D02*
X77186587Y-36050170D01*
X78082007Y-36144283D02*
X78977428Y-36238395D01*
X78395593Y-33160717D02*
X77500172Y-33066605D01*
X78395593Y-33160717D02*
X79291013Y-33254830D01*
X79929487Y-34830198D02*
X79856280Y-35526715D01*
X79929487Y-34830198D02*
X80002694Y-34133682D01*
X76474906Y-35171318D02*
G75*
G02*
X76414875Y-35322171I-298349J31355D01*
G01*
X76593964Y-33618247D02*
G75*
G02*
X76621319Y-33778285I-271017J-128682D01*
G01*
X76593964Y-33618247D02*
G75*
G02*
X77349319Y-33006573I451667J214467D01*
G01*
X77026548Y-36077526D02*
G75*
G02*
X76414876Y-35322171I-214465J451668D01*
G01*
X77026548Y-36077526D02*
G75*
G02*
X77186587Y-36050170I128684J-271024D01*
G01*
X77500172Y-33066605D02*
G75*
G02*
X77349318Y-33006574I31348J298332D01*
G01*
X78977428Y-36238395D02*
G75*
G02*
X79128283Y-36298424I-31350J-298348D01*
G01*
X79451052Y-33227474D02*
G75*
G02*
X79291013Y-33254828I-128681J271021D01*
G01*
X79451052Y-33227474D02*
G75*
G02*
X80062725Y-33982829I214467J-451667D01*
G01*
X79883636Y-35686753D02*
G75*
G02*
X79128281Y-36298427I-451667J-214468D01*
G01*
X79883636Y-35686753D02*
G75*
G02*
X79856305Y-35526718I270996J128633D01*
G01*
X80002694Y-34133682D02*
G75*
G02*
X80062723Y-33982828I298039J-31228D01*
G01*
%TO.C,DL24*%
X84948713Y-73680002D02*
X84875506Y-74376518D01*
X84948713Y-73680002D02*
X85021920Y-72983485D01*
X86482607Y-75349483D02*
X85587187Y-75255370D01*
X86482607Y-75349483D02*
X87378028Y-75443595D01*
X86796193Y-72365917D02*
X85900772Y-72271805D01*
X86796193Y-72365917D02*
X87691613Y-72460030D01*
X88330087Y-74035398D02*
X88256880Y-74731915D01*
X88330087Y-74035398D02*
X88403294Y-73338882D01*
X84875506Y-74376518D02*
G75*
G02*
X84815475Y-74527371I-298349J31355D01*
G01*
X84994564Y-72823447D02*
G75*
G02*
X85021919Y-72983485I-270993J-128678D01*
G01*
X84994564Y-72823447D02*
G75*
G02*
X85749919Y-72211773I451668J214466D01*
G01*
X85427148Y-75282726D02*
G75*
G02*
X84815476Y-74527371I-214465J451668D01*
G01*
X85427148Y-75282726D02*
G75*
G02*
X85587187Y-75255371I128678J-270993D01*
G01*
X85900772Y-72271805D02*
G75*
G02*
X85749918Y-72211774I31355J298349D01*
G01*
X87378028Y-75443595D02*
G75*
G02*
X87528882Y-75503625I-31364J-298377D01*
G01*
X87851652Y-72432674D02*
G75*
G02*
X87691616Y-72460005I-128633J270996D01*
G01*
X87851652Y-72432674D02*
G75*
G02*
X88463325Y-73188029I214467J-451667D01*
G01*
X88284236Y-74891953D02*
G75*
G02*
X87528881Y-75503627I-451667J-214468D01*
G01*
X88284236Y-74891953D02*
G75*
G02*
X88256905Y-74731918I270996J128633D01*
G01*
X88403294Y-73338882D02*
G75*
G02*
X88463327Y-73188030I298047J-31239D01*
G01*
%TO.C,DL27*%
X14015000Y-91075000D02*
X14015000Y-90374647D01*
X14015000Y-91075000D02*
X14015000Y-91775353D01*
X15715000Y-89575000D02*
X14814647Y-89575000D01*
X15715000Y-89575000D02*
X16615353Y-89575000D01*
X15715000Y-92575000D02*
X14814647Y-92575000D01*
X15715000Y-92575000D02*
X16615353Y-92575000D01*
X17415000Y-91075000D02*
X17415000Y-90374647D01*
X17415000Y-91075000D02*
X17415000Y-91775353D01*
X13971066Y-90218345D02*
G75*
G02*
X14015000Y-90374647I-256058J-156299D01*
G01*
X13971066Y-90218345D02*
G75*
G02*
X14658345Y-89531066I426776J260503D01*
G01*
X14015000Y-91775353D02*
G75*
G02*
X13971066Y-91931655I-299992J-3D01*
G01*
X14658345Y-92618934D02*
G75*
G02*
X13971066Y-91931655I-260503J426776D01*
G01*
X14658345Y-92618934D02*
G75*
G02*
X14814647Y-92575000I156299J-256058D01*
G01*
X14814647Y-89575000D02*
G75*
G02*
X14658345Y-89531066I-3J299992D01*
G01*
X16615353Y-92575000D02*
G75*
G02*
X16771656Y-92618933I-3J-300020D01*
G01*
X16771655Y-89531066D02*
G75*
G02*
X16615353Y-89574976I-156255J256066D01*
G01*
X16771655Y-89531066D02*
G75*
G02*
X17458934Y-90218345I260505J-426774D01*
G01*
X17415000Y-90374647D02*
G75*
G02*
X17458935Y-90218346I299680J87D01*
G01*
X17458934Y-91931655D02*
G75*
G02*
X16771655Y-92618934I-426774J-260505D01*
G01*
X17458934Y-91931655D02*
G75*
G02*
X17415024Y-91775353I256066J156255D01*
G01*
%TO.C,DL15*%
X118554230Y-59093961D02*
X118444670Y-59785692D01*
X118554230Y-59093961D02*
X118663789Y-58402231D01*
X119998648Y-60841433D02*
X119109380Y-60700586D01*
X119998648Y-60841433D02*
X120887916Y-60982279D01*
X120467952Y-57878367D02*
X119578684Y-57737521D01*
X120467952Y-57878367D02*
X121357220Y-58019214D01*
X121912370Y-59625839D02*
X121802811Y-60317569D01*
X121912370Y-59625839D02*
X122021930Y-58934108D01*
X118444670Y-59785692D02*
G75*
G02*
X118376826Y-59933197I-296299J46926D01*
G01*
X118644847Y-58240980D02*
G75*
G02*
X118663789Y-58402231I-277356J-114319D01*
G01*
X118644847Y-58240980D02*
G75*
G02*
X119431178Y-57669678I462273J190533D01*
G01*
X118948130Y-60719528D02*
G75*
G02*
X118376826Y-59933197I-190534J462273D01*
G01*
X118948130Y-60719528D02*
G75*
G02*
X119109380Y-60700586I114318J-277356D01*
G01*
X119578684Y-57737521D02*
G75*
G02*
X119431179Y-57669677I46926J296299D01*
G01*
X120887916Y-60982279D02*
G75*
G02*
X121035422Y-61050122I-46936J-296326D01*
G01*
X121518470Y-58000272D02*
G75*
G02*
X121357224Y-58019190I-114273J277357D01*
G01*
X121518470Y-58000272D02*
G75*
G02*
X122089773Y-58786603I190536J-462271D01*
G01*
X121821753Y-60478820D02*
G75*
G02*
X121035421Y-61050123I-462272J-190535D01*
G01*
X121821753Y-60478820D02*
G75*
G02*
X121802835Y-60317573I277357J114274D01*
G01*
X122021930Y-58934108D02*
G75*
G02*
X122089775Y-58786604I296004J-46794D01*
G01*
%TO.C,DL18*%
X62576730Y-53089929D02*
X62540076Y-53789322D01*
X62576730Y-53089929D02*
X62613383Y-52390536D01*
X64195896Y-54676844D02*
X63296777Y-54629723D01*
X64195896Y-54676844D02*
X65095015Y-54723965D01*
X64352904Y-51680956D02*
X63453785Y-51633835D01*
X64352904Y-51680956D02*
X65252023Y-51728077D01*
X65972070Y-53267871D02*
X65935417Y-53967264D01*
X65972070Y-53267871D02*
X66008724Y-52568478D01*
X62540076Y-53789322D02*
G75*
G02*
X62488022Y-53943111I-299581J15697D01*
G01*
X62577690Y-52232149D02*
G75*
G02*
X62613383Y-52390536I-263912J-142689D01*
G01*
X62577690Y-52232149D02*
G75*
G02*
X63299997Y-51581780I439824J237812D01*
G01*
X63138390Y-54665417D02*
G75*
G02*
X62488022Y-53943111I-237810J439825D01*
G01*
X63138390Y-54665417D02*
G75*
G02*
X63296777Y-54629724I142691J-263919D01*
G01*
X63453785Y-51633835D02*
G75*
G02*
X63299996Y-51581781I15691J299563D01*
G01*
X65095015Y-54723965D02*
G75*
G02*
X65248805Y-54776018I-15693J-299579D01*
G01*
X65410410Y-51692383D02*
G75*
G02*
X65252023Y-51728075I-142688J263915D01*
G01*
X65410410Y-51692383D02*
G75*
G02*
X66060779Y-52414690I237813J-439823D01*
G01*
X65971110Y-54125651D02*
G75*
G02*
X65248803Y-54776020I-439823J-237813D01*
G01*
X65971110Y-54125651D02*
G75*
G02*
X65935441Y-53967265I263893J142639D01*
G01*
X66008724Y-52568478D02*
G75*
G02*
X66060777Y-52414688I299264J-15587D01*
G01*
%TO.C,DL2*%
X31160000Y-14875000D02*
X31160000Y-14174647D01*
X31160000Y-14875000D02*
X31160000Y-15575353D01*
X32860000Y-13375000D02*
X31959647Y-13375000D01*
X32860000Y-13375000D02*
X33760353Y-13375000D01*
X32860000Y-16375000D02*
X31959647Y-16375000D01*
X32860000Y-16375000D02*
X33760353Y-16375000D01*
X34560000Y-14875000D02*
X34560000Y-14174647D01*
X34560000Y-14875000D02*
X34560000Y-15575353D01*
X31116066Y-14018345D02*
G75*
G02*
X31160000Y-14174647I-256058J-156299D01*
G01*
X31116066Y-14018345D02*
G75*
G02*
X31803345Y-13331066I426776J260503D01*
G01*
X31160000Y-15575353D02*
G75*
G02*
X31116066Y-15731655I-299992J-3D01*
G01*
X31803345Y-16418934D02*
G75*
G02*
X31116066Y-15731655I-260503J426776D01*
G01*
X31803345Y-16418934D02*
G75*
G02*
X31959647Y-16375000I156299J-256058D01*
G01*
X31959647Y-13375000D02*
G75*
G02*
X31803345Y-13331066I-3J299992D01*
G01*
X33760353Y-16375000D02*
G75*
G02*
X33916656Y-16418933I-3J-300020D01*
G01*
X33916655Y-13331066D02*
G75*
G02*
X33760353Y-13374976I-156255J256066D01*
G01*
X33916655Y-13331066D02*
G75*
G02*
X34603934Y-14018345I260505J-426774D01*
G01*
X34560000Y-14174647D02*
G75*
G02*
X34603935Y-14018346I299680J87D01*
G01*
X34603934Y-15731655D02*
G75*
G02*
X33916655Y-16418934I-426774J-260505D01*
G01*
X34603934Y-15731655D02*
G75*
G02*
X34560024Y-15575353I256066J156255D01*
G01*
%TO.C,DL11*%
X38780000Y-33925000D02*
X38780000Y-33224647D01*
X38780000Y-33925000D02*
X38780000Y-34625353D01*
X40480000Y-32425000D02*
X39579647Y-32425000D01*
X40480000Y-32425000D02*
X41380353Y-32425000D01*
X40480000Y-35425000D02*
X39579647Y-35425000D01*
X40480000Y-35425000D02*
X41380353Y-35425000D01*
X42180000Y-33925000D02*
X42180000Y-33224647D01*
X42180000Y-33925000D02*
X42180000Y-34625353D01*
X38736066Y-33068345D02*
G75*
G02*
X38780000Y-33224647I-256058J-156299D01*
G01*
X38736066Y-33068345D02*
G75*
G02*
X39423345Y-32381066I426776J260503D01*
G01*
X38780000Y-34625353D02*
G75*
G02*
X38736066Y-34781655I-299992J-3D01*
G01*
X39423345Y-35468934D02*
G75*
G02*
X38736066Y-34781655I-260503J426776D01*
G01*
X39423345Y-35468934D02*
G75*
G02*
X39579647Y-35425000I156299J-256058D01*
G01*
X39579647Y-32425000D02*
G75*
G02*
X39423345Y-32381066I-3J299992D01*
G01*
X41380353Y-35425000D02*
G75*
G02*
X41536656Y-35468933I-3J-300020D01*
G01*
X41536655Y-32381066D02*
G75*
G02*
X41380353Y-32424976I-156255J256066D01*
G01*
X41536655Y-32381066D02*
G75*
G02*
X42223934Y-33068345I260505J-426774D01*
G01*
X42180000Y-33224647D02*
G75*
G02*
X42223935Y-33068346I299680J87D01*
G01*
X42223934Y-34781655D02*
G75*
G02*
X41536655Y-35468934I-426774J-260505D01*
G01*
X42223934Y-34781655D02*
G75*
G02*
X42180024Y-34625353I256066J156255D01*
G01*
%TO.C,DL17*%
X81508913Y-54037802D02*
X81435706Y-54734318D01*
X81508913Y-54037802D02*
X81582120Y-53341285D01*
X83042807Y-55707283D02*
X82147387Y-55613170D01*
X83042807Y-55707283D02*
X83938228Y-55801395D01*
X83356393Y-52723717D02*
X82460972Y-52629605D01*
X83356393Y-52723717D02*
X84251813Y-52817830D01*
X84890287Y-54393198D02*
X84817080Y-55089715D01*
X84890287Y-54393198D02*
X84963494Y-53696682D01*
X81435706Y-54734318D02*
G75*
G02*
X81375675Y-54885171I-298372J31364D01*
G01*
X81554764Y-53181247D02*
G75*
G02*
X81582119Y-53341285I-271000J-128679D01*
G01*
X81554764Y-53181247D02*
G75*
G02*
X82310119Y-52569573I451667J214467D01*
G01*
X81987348Y-55640526D02*
G75*
G02*
X81375676Y-54885171I-214465J451668D01*
G01*
X81987348Y-55640526D02*
G75*
G02*
X82147387Y-55613170I128684J-271024D01*
G01*
X82460972Y-52629605D02*
G75*
G02*
X82310118Y-52569574I31364J298372D01*
G01*
X83938228Y-55801395D02*
G75*
G02*
X84089082Y-55861425I-31364J-298377D01*
G01*
X84411852Y-52790474D02*
G75*
G02*
X84251814Y-52817820I-128644J270897D01*
G01*
X84411852Y-52790474D02*
G75*
G02*
X85023525Y-53545829I214467J-451667D01*
G01*
X84844436Y-55249753D02*
G75*
G02*
X84089081Y-55861427I-451667J-214468D01*
G01*
X84844436Y-55249753D02*
G75*
G02*
X84817105Y-55089718I270996J128633D01*
G01*
X84963494Y-53696682D02*
G75*
G02*
X85023525Y-53545829I298057J-31240D01*
G01*
%TO.C,DL31*%
X119046030Y-97943161D02*
X118936470Y-98634892D01*
X119046030Y-97943161D02*
X119155589Y-97251431D01*
X120490448Y-99690633D02*
X119601180Y-99549786D01*
X120490448Y-99690633D02*
X121379716Y-99831479D01*
X120959752Y-96727567D02*
X120070484Y-96586721D01*
X120959752Y-96727567D02*
X121849020Y-96868414D01*
X122404170Y-98475039D02*
X122294611Y-99166769D01*
X122404170Y-98475039D02*
X122513730Y-97783308D01*
X118936470Y-98634892D02*
G75*
G02*
X118868626Y-98782397I-296321J46937D01*
G01*
X119136647Y-97090180D02*
G75*
G02*
X119155589Y-97251431I-277356J-114319D01*
G01*
X119136647Y-97090180D02*
G75*
G02*
X119922978Y-96518878I462273J190533D01*
G01*
X119439930Y-99568728D02*
G75*
G02*
X118868626Y-98782397I-190535J462272D01*
G01*
X119439930Y-99568728D02*
G75*
G02*
X119601180Y-99549786I114318J-277356D01*
G01*
X120070484Y-96586721D02*
G75*
G02*
X119922979Y-96518877I46939J296328D01*
G01*
X121379716Y-99831479D02*
G75*
G02*
X121527222Y-99899322I-46936J-296326D01*
G01*
X122010270Y-96849472D02*
G75*
G02*
X121849024Y-96868390I-114273J277357D01*
G01*
X122010270Y-96849472D02*
G75*
G02*
X122581573Y-97635803I190536J-462271D01*
G01*
X122313553Y-99328020D02*
G75*
G02*
X121527221Y-99899323I-462272J-190535D01*
G01*
X122313553Y-99328020D02*
G75*
G02*
X122294635Y-99166773I277357J114274D01*
G01*
X122513730Y-97783308D02*
G75*
G02*
X122581575Y-97635804I296004J-46794D01*
G01*
%TO.C,DL26*%
X122028030Y-79129161D02*
X121918470Y-79820892D01*
X122028030Y-79129161D02*
X122137589Y-78437431D01*
X123472448Y-80876633D02*
X122583180Y-80735786D01*
X123472448Y-80876633D02*
X124361716Y-81017479D01*
X123941752Y-77913567D02*
X123052484Y-77772721D01*
X123941752Y-77913567D02*
X124831020Y-78054414D01*
X125386170Y-79661039D02*
X125276611Y-80352769D01*
X125386170Y-79661039D02*
X125495730Y-78969308D01*
X121918470Y-79820892D02*
G75*
G02*
X121850626Y-79968397I-296321J46937D01*
G01*
X122118647Y-78276180D02*
G75*
G02*
X122137589Y-78437431I-277356J-114319D01*
G01*
X122118647Y-78276180D02*
G75*
G02*
X122904978Y-77704878I462273J190533D01*
G01*
X122421930Y-80754728D02*
G75*
G02*
X121850626Y-79968397I-190535J462272D01*
G01*
X122421930Y-80754728D02*
G75*
G02*
X122583180Y-80735786I114318J-277356D01*
G01*
X123052484Y-77772721D02*
G75*
G02*
X122904979Y-77704877I46939J296328D01*
G01*
X124361716Y-81017479D02*
G75*
G02*
X124509222Y-81085322I-46936J-296326D01*
G01*
X124992270Y-78035472D02*
G75*
G02*
X124831024Y-78054390I-114273J277357D01*
G01*
X124992270Y-78035472D02*
G75*
G02*
X125563573Y-78821803I190536J-462271D01*
G01*
X125295553Y-80514020D02*
G75*
G02*
X124509221Y-81085323I-462272J-190535D01*
G01*
X125295553Y-80514020D02*
G75*
G02*
X125276635Y-80352773I277357J114274D01*
G01*
X125495730Y-78969308D02*
G75*
G02*
X125563575Y-78821804I296004J-46794D01*
G01*
%TO.C,DL13*%
X113941030Y-39230161D02*
X113831470Y-39921892D01*
X113941030Y-39230161D02*
X114050589Y-38538431D01*
X115385448Y-40977633D02*
X114496180Y-40836786D01*
X115385448Y-40977633D02*
X116274716Y-41118479D01*
X115854752Y-38014567D02*
X114965484Y-37873721D01*
X115854752Y-38014567D02*
X116744020Y-38155414D01*
X117299170Y-39762039D02*
X117189611Y-40453769D01*
X117299170Y-39762039D02*
X117408730Y-39070308D01*
X113831470Y-39921892D02*
G75*
G02*
X113763626Y-40069397I-296321J46937D01*
G01*
X114031647Y-38377180D02*
G75*
G02*
X114050589Y-38538431I-277356J-114319D01*
G01*
X114031647Y-38377180D02*
G75*
G02*
X114817978Y-37805878I462273J190533D01*
G01*
X114334930Y-40855728D02*
G75*
G02*
X113763626Y-40069397I-190535J462272D01*
G01*
X114334930Y-40855728D02*
G75*
G02*
X114496180Y-40836786I114318J-277356D01*
G01*
X114965484Y-37873721D02*
G75*
G02*
X114817979Y-37805877I46939J296328D01*
G01*
X116274716Y-41118479D02*
G75*
G02*
X116422222Y-41186322I-46936J-296326D01*
G01*
X116905270Y-38136472D02*
G75*
G02*
X116744024Y-38155390I-114273J277357D01*
G01*
X116905270Y-38136472D02*
G75*
G02*
X117476573Y-38922803I190536J-462271D01*
G01*
X117208553Y-40615020D02*
G75*
G02*
X116422221Y-41186323I-462272J-190535D01*
G01*
X117208553Y-40615020D02*
G75*
G02*
X117189635Y-40453773I277357J114274D01*
G01*
X117408730Y-39070308D02*
G75*
G02*
X117476575Y-38922804I296004J-46794D01*
G01*
%TO.C,DL6*%
X106592830Y-18926361D02*
X106483270Y-19618092D01*
X106592830Y-18926361D02*
X106702389Y-18234631D01*
X108037248Y-20673833D02*
X107147980Y-20532986D01*
X108037248Y-20673833D02*
X108926516Y-20814679D01*
X108506552Y-17710767D02*
X107617284Y-17569921D01*
X108506552Y-17710767D02*
X109395820Y-17851614D01*
X109950970Y-19458239D02*
X109841411Y-20149969D01*
X109950970Y-19458239D02*
X110060530Y-18766508D01*
X106483270Y-19618092D02*
G75*
G02*
X106415426Y-19765597I-296321J46937D01*
G01*
X106683447Y-18073380D02*
G75*
G02*
X106702389Y-18234631I-277356J-114319D01*
G01*
X106683447Y-18073380D02*
G75*
G02*
X107469778Y-17502078I462273J190533D01*
G01*
X106986730Y-20551928D02*
G75*
G02*
X106415426Y-19765597I-190535J462272D01*
G01*
X106986730Y-20551928D02*
G75*
G02*
X107147980Y-20532986I114318J-277356D01*
G01*
X107617284Y-17569921D02*
G75*
G02*
X107469779Y-17502077I46939J296328D01*
G01*
X108926516Y-20814679D02*
G75*
G02*
X109074022Y-20882522I-46936J-296326D01*
G01*
X109557070Y-17832672D02*
G75*
G02*
X109395824Y-17851590I-114273J277357D01*
G01*
X109557070Y-17832672D02*
G75*
G02*
X110128373Y-18619003I190536J-462271D01*
G01*
X109860353Y-20311220D02*
G75*
G02*
X109074021Y-20882523I-462272J-190535D01*
G01*
X109860353Y-20311220D02*
G75*
G02*
X109841435Y-20149973I277357J114274D01*
G01*
X110060530Y-18766508D02*
G75*
G02*
X110128375Y-18619004I296004J-46794D01*
G01*
%TO.C,DL16*%
X99750630Y-56114561D02*
X99641070Y-56806292D01*
X99750630Y-56114561D02*
X99860189Y-55422831D01*
X101195048Y-57862033D02*
X100305780Y-57721186D01*
X101195048Y-57862033D02*
X102084316Y-58002879D01*
X101664352Y-54898967D02*
X100775084Y-54758121D01*
X101664352Y-54898967D02*
X102553620Y-55039814D01*
X103108770Y-56646439D02*
X102999211Y-57338169D01*
X103108770Y-56646439D02*
X103218330Y-55954708D01*
X99641070Y-56806292D02*
G75*
G02*
X99573226Y-56953797I-296299J46926D01*
G01*
X99841247Y-55261580D02*
G75*
G02*
X99860189Y-55422831I-277356J-114319D01*
G01*
X99841247Y-55261580D02*
G75*
G02*
X100627578Y-54690278I462273J190533D01*
G01*
X100144530Y-57740128D02*
G75*
G02*
X99573226Y-56953797I-190534J462273D01*
G01*
X100144530Y-57740128D02*
G75*
G02*
X100305780Y-57721186I114318J-277356D01*
G01*
X100775084Y-54758121D02*
G75*
G02*
X100627579Y-54690277I46926J296299D01*
G01*
X102084316Y-58002879D02*
G75*
G02*
X102231822Y-58070722I-46936J-296326D01*
G01*
X102714870Y-55020872D02*
G75*
G02*
X102553624Y-55039790I-114273J277357D01*
G01*
X102714870Y-55020872D02*
G75*
G02*
X103286173Y-55807203I190536J-462271D01*
G01*
X103018153Y-57499420D02*
G75*
G02*
X102231821Y-58070723I-462272J-190535D01*
G01*
X103018153Y-57499420D02*
G75*
G02*
X102999235Y-57338173I277357J114274D01*
G01*
X103218330Y-55954708D02*
G75*
G02*
X103286175Y-55807204I296004J-46794D01*
G01*
%TD*%
M02*
