%TF.GenerationSoftware,KiCad,Pcbnew,10.0.5*%
%TF.CreationDate,2026-09-12T17:12:22-04:00*%
%TF.ProjectId,Symm60HE-Neo-Left-SpringModule,53796d6d-3630-4484-952d-4e656f2d4c65,rev?*%
%TF.SameCoordinates,Original*%
%TF.FileFunction,Legend,Top*%
%TF.FilePolarity,Positive*%
%FSLAX46Y46*%
G04 Gerber Fmt 4.6, Leading zero omitted, Abs format (unit mm)*
G04 Created by KiCad (PCBNEW 10.0.5) date 2026-09-12 17:12:22*
%MOMM*%
%LPD*%
G01*
G04 APERTURE LIST*
%ADD10C,0.120000*%
%ADD11C,0.150000*%
%ADD12C,0.960000*%
G04 APERTURE END LIST*
D10*
X9028571Y-5563855D02*
X9028571Y-4763855D01*
X9028571Y-4763855D02*
X9333333Y-4763855D01*
X9333333Y-4763855D02*
X9409523Y-4801950D01*
X9409523Y-4801950D02*
X9447618Y-4840045D01*
X9447618Y-4840045D02*
X9485714Y-4916236D01*
X9485714Y-4916236D02*
X9485714Y-5030521D01*
X9485714Y-5030521D02*
X9447618Y-5106712D01*
X9447618Y-5106712D02*
X9409523Y-5144807D01*
X9409523Y-5144807D02*
X9333333Y-5182902D01*
X9333333Y-5182902D02*
X9028571Y-5182902D01*
X9790475Y-5525760D02*
X9904761Y-5563855D01*
X9904761Y-5563855D02*
X10095237Y-5563855D01*
X10095237Y-5563855D02*
X10171428Y-5525760D01*
X10171428Y-5525760D02*
X10209523Y-5487664D01*
X10209523Y-5487664D02*
X10247618Y-5411474D01*
X10247618Y-5411474D02*
X10247618Y-5335283D01*
X10247618Y-5335283D02*
X10209523Y-5259093D01*
X10209523Y-5259093D02*
X10171428Y-5220998D01*
X10171428Y-5220998D02*
X10095237Y-5182902D01*
X10095237Y-5182902D02*
X9942856Y-5144807D01*
X9942856Y-5144807D02*
X9866666Y-5106712D01*
X9866666Y-5106712D02*
X9828571Y-5068617D01*
X9828571Y-5068617D02*
X9790475Y-4992426D01*
X9790475Y-4992426D02*
X9790475Y-4916236D01*
X9790475Y-4916236D02*
X9828571Y-4840045D01*
X9828571Y-4840045D02*
X9866666Y-4801950D01*
X9866666Y-4801950D02*
X9942856Y-4763855D01*
X9942856Y-4763855D02*
X10133333Y-4763855D01*
X10133333Y-4763855D02*
X10247618Y-4801950D01*
X11009523Y-5563855D02*
X10552380Y-5563855D01*
X10780952Y-5563855D02*
X10780952Y-4763855D01*
X10780952Y-4763855D02*
X10704761Y-4878140D01*
X10704761Y-4878140D02*
X10628571Y-4954331D01*
X10628571Y-4954331D02*
X10552380Y-4992426D01*
%TO.C,PS1*%
D11*
X17175000Y-3950000D02*
X2825000Y-3950000D01*
X17280000Y-4450000D02*
G75*
G02*
X16690000Y-4450000I-295000J0D01*
G01*
X16690000Y-4450000D02*
G75*
G02*
X17280000Y-4450000I295000J0D01*
G01*
%TD*%
%LPC*%
D12*
%TO.C,PS1*%
X16985000Y-3000000D03*
X15715000Y-3000000D03*
X14445000Y-3000000D03*
X13175000Y-3000000D03*
X11905000Y-3000000D03*
X10635000Y-3000000D03*
X9365000Y-3000000D03*
X8095000Y-3000000D03*
X6825000Y-3000000D03*
X5555000Y-3000000D03*
X4285000Y-3000000D03*
X3015000Y-3000000D03*
%TD*%
%LPD*%
M02*
