%TF.GenerationSoftware,KiCad,Pcbnew,10.0.5*%
%TF.CreationDate,2026-09-13T20:07:13-04:00*%
%TF.ProjectId,Symm60HE-Neo-Left-SpringModule,53796d6d-3630-4484-952d-4e656f2d4c65,rev?*%
%TF.SameCoordinates,Original*%
%TF.FileFunction,Copper,L1,Top*%
%TF.FilePolarity,Positive*%
%FSLAX46Y46*%
G04 Gerber Fmt 4.6, Leading zero omitted, Abs format (unit mm)*
G04 Created by KiCad (PCBNEW 10.0.5) date 2026-09-13 20:07:13*
%MOMM*%
%LPD*%
G01*
G04 APERTURE LIST*
%TA.AperFunction,SMDPad,CuDef*%
%ADD10C,0.960000*%
%TD*%
%TA.AperFunction,ViaPad*%
%ADD11C,0.600000*%
%TD*%
%TA.AperFunction,Conductor*%
%ADD12C,0.200000*%
%TD*%
G04 APERTURE END LIST*
D10*
%TO.P,PS1,1*%
%TO.N,ADC_L4*%
X16985000Y-3000000D03*
%TO.P,PS1,2*%
%TO.N,ADC_L3*%
X15715000Y-3000000D03*
%TO.P,PS1,3*%
%TO.N,GND*%
X14445000Y-3000000D03*
%TO.P,PS1,4*%
%TO.N,ADC_L2*%
X13175000Y-3000000D03*
%TO.P,PS1,5*%
%TO.N,GND*%
X11905000Y-3000000D03*
%TO.P,PS1,6*%
%TO.N,ADC_L1*%
X10635000Y-3000000D03*
%TO.P,PS1,7*%
%TO.N,GND*%
X9365000Y-3000000D03*
%TO.P,PS1,8*%
%TO.N,MUX_A2*%
X8095000Y-3000000D03*
%TO.P,PS1,9*%
%TO.N,MUX_A1*%
X6825000Y-3000000D03*
%TO.P,PS1,10*%
%TO.N,MUX_A0*%
X5555000Y-3000000D03*
%TO.P,PS1,11*%
%TO.N,GND*%
X4285000Y-3000000D03*
%TO.P,PS1,12*%
%TO.N,+3V3A*%
X3015000Y-3000000D03*
%TD*%
D11*
%TO.N,ADC_L4*%
X15500000Y-800000D03*
%TO.N,ADC_L3*%
X14500000Y-800000D03*
%TO.N,GND*%
X5500000Y-4400000D03*
X11500000Y-4400000D03*
X9500000Y-4400000D03*
X13500000Y-4400000D03*
%TO.N,ADC_L2*%
X12500000Y-800000D03*
%TO.N,ADC_L1*%
X10500000Y-800000D03*
%TO.N,MUX_A2*%
X8500000Y-800000D03*
%TO.N,MUX_A1*%
X7500000Y-800000D03*
%TO.N,MUX_A0*%
X6500000Y-800000D03*
%TO.N,+3V3A*%
X4500000Y-800000D03*
%TD*%
%TO.N,ADC_L4*%
D12*
X16985000Y-3000000D02*
X15500000Y-800000D01*
%TO.N,ADC_L3*%
X15715000Y-3000000D02*
X14500000Y-800000D01*
%TO.N,GND*%
X9365000Y-5400000D02*
X9500000Y-5400000D01*
X5500000Y-4400000D02*
X5500000Y-5400000D01*
X14445000Y-3000000D02*
X14445000Y-5400000D01*
X5500000Y-5400000D02*
X9365000Y-5400000D01*
X13500000Y-4400000D02*
X13500000Y-5400000D01*
X13500000Y-5400000D02*
X14445000Y-5400000D01*
X11500000Y-4400000D02*
X11500000Y-5400000D01*
X9500000Y-5400000D02*
X11500000Y-5400000D01*
X9365000Y-3000000D02*
X9365000Y-5400000D01*
X11905000Y-3000000D02*
X11905000Y-5400000D01*
X11905000Y-5400000D02*
X13500000Y-5400000D01*
X11500000Y-5400000D02*
X11905000Y-5400000D01*
X4285000Y-3000000D02*
X4285000Y-5400000D01*
X4285000Y-5400000D02*
X5500000Y-5400000D01*
X9500000Y-4400000D02*
X9500000Y-5400000D01*
%TO.N,ADC_L2*%
X13175000Y-3000000D02*
X12500000Y-800000D01*
%TO.N,ADC_L1*%
X10635000Y-3000000D02*
X10500000Y-800000D01*
%TO.N,MUX_A2*%
X8095000Y-3000000D02*
X8500000Y-800000D01*
%TO.N,MUX_A1*%
X6825000Y-3000000D02*
X7500000Y-800000D01*
%TO.N,MUX_A0*%
X5555000Y-3000000D02*
X6500000Y-800000D01*
%TO.N,+3V3A*%
X3015000Y-3000000D02*
X4500000Y-800000D01*
%TD*%
M02*
