M48
; DRILL file KiCad 10.0.5 date 2026-09-13T13:36:31
; FORMAT={-:-/ absolute / metric / decimal}
; #@! TF.CreationDate,2026-09-13T13:36:31-04:00
; #@! TF.GenerationSoftware,Kicad,Pcbnew,10.0.5
; #@! TF.FileFunction,NonPlated,1,2,NPTH
FMAT,2
METRIC
; #@! TA.AperFunction,NonPlated,NPTH,ComponentDrill
T1C1.750
; #@! TA.AperFunction,NonPlated,NPTH,ComponentDrill
T2C3.048
; #@! TA.AperFunction,NonPlated,NPTH,ComponentDrill
T3C3.988
%
G90
G05
T1
X161.449Y-38.348
X162.599Y-28.254
X169.353Y-18.397
X170.503Y-8.303
X172.451Y-75.201
X173.595Y-65.105
X176.467Y-94.011
X177.521Y-83.905
X177.665Y-55.596
X178.775Y-45.496
X181.878Y-36.124
X182.934Y-26.02
X190.404Y-16.293
X191.292Y-6.171
X193.617Y-73.182
X194.429Y-63.054
X198.964Y-53.751
X199.65Y-43.615
X203.208Y-34.445
X203.794Y-24.301
X211.583Y-15.01
X211.971Y-4.858
X214.684Y-72.058
X214.815Y-91.241
X214.998Y-61.902
X215.131Y-81.085
X219.745Y-52.885
X219.941Y-42.727
X223.666Y-33.765
X223.784Y-23.605
X231.425Y-14.625
X231.447Y-4.465
X234.306Y-71.76
X234.312Y-61.6
X239.078Y-42.545
X239.078Y-52.705
X242.888Y-23.495
X242.888Y-33.655
X250.508Y-4.445
X250.508Y-14.605
X253.365Y-61.595
X253.365Y-71.755
X253.365Y-80.645
X253.365Y-90.805
X258.127Y-42.545
X258.127Y-52.705
X258.127Y-80.645
X258.127Y-90.805
X261.938Y-23.495
X261.938Y-33.655
X269.558Y-4.445
X269.558Y-14.605
X272.415Y-61.595
X272.415Y-71.755
X272.415Y-80.645
X272.415Y-90.805
X279.083Y-4.445
X279.083Y-14.605
X284.321Y-42.545
X284.321Y-52.705
X284.321Y-61.595
X284.321Y-71.755
X285.75Y-23.495
X285.75Y-33.655
X286.703Y-80.645
X286.703Y-90.805
X288.608Y-4.445
X288.608Y-14.605
X291.465Y-80.645
X291.465Y-90.805
X293.846Y-61.595
X293.846Y-71.755
T2
X165.877Y-80.775
X189.561Y-83.246
X267.177Y-2.54
X272.415Y-59.69
X290.989Y-2.54
X296.227Y-59.69
T3
X164.296Y-95.933
X187.98Y-98.404
X267.177Y-17.78
X272.415Y-74.93
X290.989Y-17.78
X296.227Y-74.93
M30
