%TF.GenerationSoftware,KiCad,Pcbnew,10.0.5*%
%TF.CreationDate,2026-09-13T20:07:26-04:00*%
%TF.ProjectId,Symm60HE-Neo-Right-Half,53796d6d-3630-4484-952d-4e656f2d5269,rev?*%
%TF.SameCoordinates,Original*%
%TF.FileFunction,Soldermask,Bot*%
%TF.FilePolarity,Negative*%
%FSLAX46Y46*%
G04 Gerber Fmt 4.6, Leading zero omitted, Abs format (unit mm)*
G04 Created by KiCad (PCBNEW 10.0.5) date 2026-09-13 20:07:26*
%MOMM*%
%LPD*%
G01*
G04 APERTURE LIST*
G04 Aperture macros list*
%AMRoundRect*
0 Rectangle with rounded corners*
0 $1 Rounding radius*
0 $2 $3 $4 $5 $6 $7 $8 $9 X,Y pos of 4 corners*
0 Add a 4 corners polygon primitive as box body*
4,1,4,$2,$3,$4,$5,$6,$7,$8,$9,$2,$3,0*
0 Add four circle primitives for the rounded corners*
1,1,$1+$1,$2,$3*
1,1,$1+$1,$4,$5*
1,1,$1+$1,$6,$7*
1,1,$1+$1,$8,$9*
0 Add four rect primitives between the rounded corners*
20,1,$1+$1,$2,$3,$4,$5,0*
20,1,$1+$1,$4,$5,$6,$7,0*
20,1,$1+$1,$6,$7,$8,$9,0*
20,1,$1+$1,$8,$9,$2,$3,0*%
G04 Aperture macros list end*
%ADD10C,3.048000*%
%ADD11C,3.987800*%
%ADD12C,4.400000*%
%ADD13RoundRect,0.140000X-0.157724X-0.153699X0.120603X-0.184269X0.157724X0.153699X-0.120603X0.184269X0*%
%ADD14RoundRect,0.150000X-0.091019X0.526186X-0.207052X-0.492225X0.091019X-0.526186X0.207052X0.492225X0*%
%ADD15RoundRect,0.150000X-0.096020X0.525296X-0.202361X-0.494172X0.096020X-0.525296X0.202361X0.494172X0*%
%ADD16RoundRect,0.140000X-0.140000X-0.170000X0.140000X-0.170000X0.140000X0.170000X-0.140000X0.170000X0*%
%ADD17RoundRect,0.150000X-0.150000X0.512500X-0.150000X-0.512500X0.150000X-0.512500X0.150000X0.512500X0*%
%ADD18RoundRect,0.140000X-0.158345X-0.153059X0.119856X-0.184756X0.158345X0.153059X-0.119856X0.184756X0*%
%ADD19RoundRect,0.140000X-0.145190X-0.165590X0.134676X-0.174248X0.145190X0.165590X-0.134676X0.174248X0*%
%ADD20RoundRect,0.140000X-0.156882X-0.154558X0.121607X-0.183607X0.156882X0.154558X-0.121607X0.183607X0*%
%ADD21RoundRect,0.140000X-0.158262X-0.153144X0.119955X-0.184691X0.158262X0.153144X-0.119955X0.184691X0*%
%ADD22RoundRect,0.140000X-0.140362X-0.169702X0.139638X-0.170298X0.140362X0.169702X-0.139638X0.170298X0*%
%ADD23RoundRect,0.140000X-0.153136X-0.158270X0.125969X-0.180643X0.153136X0.158270X-0.125969X0.180643X0*%
%ADD24RoundRect,0.140000X-0.151152X-0.160166X0.128210X-0.179059X0.151152X0.160166X-0.128210X0.179059X0*%
%ADD25RoundRect,0.150000X-0.134081X0.516893X-0.165776X-0.507617X0.134081X-0.516893X0.165776X0.507617X0*%
%ADD26RoundRect,0.140000X-0.154317X-0.157119X0.124613X-0.181581X0.154317X0.157119X-0.124613X0.181581X0*%
%ADD27RoundRect,0.150000X-0.144042X0.514206X-0.155938X-0.510725X0.144042X-0.514206X0.155938X0.510725X0*%
%ADD28RoundRect,0.150000X-0.130351X0.517846X-0.169431X-0.506408X0.130351X-0.517846X0.169431X0.506408X0*%
%ADD29RoundRect,0.150000X0.150000X-0.825000X0.150000X0.825000X-0.150000X0.825000X-0.150000X-0.825000X0*%
%ADD30RoundRect,0.140000X-0.156925X-0.154514X0.121556X-0.183641X0.156925X0.154514X-0.121556X0.183641X0*%
%ADD31RoundRect,0.150000X-0.091304X0.526137X-0.206786X-0.492337X0.091304X-0.526137X0.206786X0.492337X0*%
%ADD32RoundRect,0.140000X-0.146380X-0.164539X0.133417X-0.175214X0.146380X0.164539X-0.133417X0.175214X0*%
%ADD33RoundRect,0.150000X-0.140116X0.515290X-0.159829X-0.509520X0.140116X-0.515290X0.159829X0.509520X0*%
%ADD34RoundRect,0.150000X-0.134026X0.516907X-0.165829X-0.507599X0.134026X-0.516907X0.165829X0.507599X0*%
%ADD35RoundRect,0.150000X-0.104652X0.523645X-0.194201X-0.497436X0.104652X-0.523645X0.194201X0.497436X0*%
%ADD36RoundRect,0.140000X-0.140089X-0.169927X0.139911X-0.170073X0.140089X0.169927X-0.139911X0.170073X0*%
%ADD37RoundRect,0.140000X-0.141964X-0.168364X0.138018X-0.171613X0.141964X0.168364X-0.138018X0.171613X0*%
%ADD38RoundRect,0.150000X-0.108570X0.522847X-0.190471X-0.498876X0.108570X-0.522847X0.190471X0.498876X0*%
%ADD39RoundRect,0.140000X-0.143244X-0.167276X0.136705X-0.172661X0.143244X0.167276X-0.136705X0.172661X0*%
%ADD40RoundRect,0.140000X-0.149559X-0.161654X0.129976X-0.177782X0.149559X0.161654X-0.129976X0.177782X0*%
%ADD41RoundRect,0.140000X-0.145207X-0.165574X0.134658X-0.174262X0.145207X0.165574X-0.134658X0.174262X0*%
%ADD42RoundRect,0.150000X-0.095873X0.525323X-0.202499X-0.494116X0.095873X-0.525323X0.202499X0.494116X0*%
%ADD43C,0.960000*%
%ADD44RoundRect,0.150000X-0.148908X0.512818X-0.151091X-0.512179X0.148908X-0.512818X0.151091X0.512179X0*%
%ADD45RoundRect,0.150000X-0.115077X0.521453X-0.184239X-0.501211X0.115077X-0.521453X0.184239X0.501211X0*%
%ADD46RoundRect,0.150000X-0.093149X0.525813X-0.205058X-0.493059X0.093149X-0.525813X0.205058X0.493059X0*%
%ADD47RoundRect,0.150000X-0.120232X0.520289X-0.179270X-0.503009X0.120232X-0.520289X0.179270X0.503009X0*%
%ADD48RoundRect,0.150000X-0.149732X0.512578X-0.150268X-0.512421X0.149732X-0.512578X0.150268X0.512421X0*%
G04 APERTURE END LIST*
D10*
%TO.C,SR2*%
X272414750Y-59690000D03*
D11*
X272414750Y-74930000D03*
D10*
X296227250Y-59690000D03*
D11*
X296227250Y-74930000D03*
%TD*%
D12*
%TO.C,MHR4*%
X298209000Y-87978000D03*
%TD*%
%TO.C,MHR1*%
X196209000Y-30000000D03*
%TD*%
%TO.C,MHR2*%
X159209000Y-95478000D03*
%TD*%
D10*
%TO.C,SR3*%
X165876675Y-80775452D03*
D11*
X164295566Y-95933212D03*
D10*
X189560675Y-83245935D03*
D11*
X187979566Y-98403695D03*
%TD*%
D12*
%TO.C,MHR3*%
X297209000Y-21978000D03*
%TD*%
D10*
%TO.C,SR1*%
X267176750Y-2540000D03*
D11*
X267176750Y-17780000D03*
D10*
X290989250Y-2540000D03*
D11*
X290989250Y-17780000D03*
%TD*%
D13*
%TO.C,CR21A*%
X170428969Y-44355394D03*
X171383231Y-44460206D03*
%TD*%
D14*
%TO.C,HER8*%
X168690269Y-14165125D03*
X168905355Y-12277338D03*
X171058188Y-13478769D03*
%TD*%
D15*
%TO.C,HER36*%
X175764078Y-89784861D03*
X175961198Y-87895114D03*
X178125362Y-89076013D03*
%TD*%
D16*
%TO.C,CR30A*%
X259320000Y-87000000D03*
X260280000Y-87000000D03*
%TD*%
%TO.C,CR3B*%
X275678000Y-16425000D03*
X276638000Y-16425000D03*
%TD*%
D17*
%TO.C,HER18*%
X283183500Y-48575000D03*
X283183500Y-46675000D03*
X285458500Y-47625000D03*
%TD*%
D18*
%TO.C,CR8A*%
X162112386Y-7187160D03*
X163066214Y-7295840D03*
%TD*%
D17*
%TO.C,HER26*%
X292708500Y-67625000D03*
X292708500Y-65725000D03*
X294983500Y-66675000D03*
%TD*%
D19*
%TO.C,CR27A*%
X207551030Y-60272557D03*
X208510570Y-60302243D03*
%TD*%
D20*
%TO.C,CR36B*%
X183796790Y-95086201D03*
X184751610Y-95185799D03*
%TD*%
D16*
%TO.C,CMR3*%
X255729000Y-62978000D03*
X256689000Y-62978000D03*
%TD*%
D17*
%TO.C,HER2*%
X249370500Y-10475000D03*
X249370500Y-8575000D03*
X251645500Y-9525000D03*
%TD*%
D16*
%TO.C,CR11B*%
X291870000Y-35475000D03*
X292830000Y-35475000D03*
%TD*%
D21*
%TO.C,CR29A*%
X165210656Y-63986421D03*
X166164544Y-64094579D03*
%TD*%
D17*
%TO.C,HER30*%
X256696000Y-86862500D03*
X254796000Y-86862500D03*
X255746000Y-84587500D03*
%TD*%
D16*
%TO.C,CR34A*%
X284385000Y-78825000D03*
X285345000Y-78825000D03*
%TD*%
%TO.C,CR4A*%
X272003000Y-2625000D03*
X272963000Y-2625000D03*
%TD*%
D22*
%TO.C,CR1A*%
X224341301Y-2658078D03*
X225301299Y-2660122D03*
%TD*%
D13*
%TO.C,CR21B*%
X185056769Y-56631794D03*
X186011031Y-56736606D03*
%TD*%
D16*
%TO.C,CR18B*%
X290441000Y-54525000D03*
X291401000Y-54525000D03*
%TD*%
D23*
%TO.C,CR28A*%
X186414335Y-61729046D03*
X187371265Y-61805754D03*
%TD*%
D16*
%TO.C,CR33B*%
X292823000Y-92625000D03*
X293783000Y-92625000D03*
%TD*%
D24*
%TO.C,CR20A*%
X191777594Y-42211712D03*
X192735406Y-42276488D03*
%TD*%
D25*
%TO.C,HER27*%
X213674668Y-67894372D03*
X213733420Y-65995280D03*
X215977956Y-67015174D03*
%TD*%
D26*
%TO.C,CR7A*%
X183192235Y-4893065D03*
X184148565Y-4976935D03*
%TD*%
D16*
%TO.C,CR33A*%
X279623000Y-78825000D03*
X280583000Y-78825000D03*
%TD*%
%TO.C,CR3A*%
X262478000Y-2625000D03*
X263438000Y-2625000D03*
%TD*%
D17*
%TO.C,HER25*%
X283183500Y-67625000D03*
X283183500Y-65725000D03*
X285458500Y-66675000D03*
%TD*%
D27*
%TO.C,HER12*%
X222576551Y-29621734D03*
X222598602Y-27721862D03*
X224862423Y-28698202D03*
%TD*%
D17*
%TO.C,HER17*%
X256989500Y-48575000D03*
X256989500Y-46675000D03*
X259264500Y-47625000D03*
%TD*%
D18*
%TO.C,CR15A*%
X154208386Y-27138160D03*
X155162214Y-27246840D03*
%TD*%
D16*
%TO.C,CR23B*%
X259485000Y-73575000D03*
X260445000Y-73575000D03*
%TD*%
%TO.C,CR10B*%
X268058000Y-35475000D03*
X269018000Y-35475000D03*
%TD*%
%TO.C,CMR4*%
X282729000Y-55978000D03*
X283689000Y-55978000D03*
%TD*%
D28*
%TO.C,HER6*%
X210604107Y-10839941D03*
X210676547Y-8941322D03*
X212913673Y-9977369D03*
%TD*%
D22*
%TO.C,CR1B*%
X237570701Y-16429878D03*
X238530699Y-16431922D03*
%TD*%
D29*
%TO.C,AMR1*%
X187654000Y-69953000D03*
X186384000Y-69953000D03*
X185114000Y-69953000D03*
X183844000Y-69953000D03*
X182574000Y-69953000D03*
X181304000Y-69953000D03*
X180034000Y-69953000D03*
X178764000Y-69953000D03*
X178764000Y-65003000D03*
X180034000Y-65003000D03*
X181304000Y-65003000D03*
X182574000Y-65003000D03*
X183844000Y-65003000D03*
X185114000Y-65003000D03*
X186384000Y-65003000D03*
X187654000Y-65003000D03*
%TD*%
D20*
%TO.C,CR36A*%
X169236390Y-82730201D03*
X170191210Y-82829799D03*
%TD*%
D16*
%TO.C,CR16A*%
X231998000Y-40725000D03*
X232958000Y-40725000D03*
%TD*%
D26*
%TO.C,CR7B*%
X197547435Y-17487065D03*
X198503765Y-17570935D03*
%TD*%
D30*
%TO.C,CR14A*%
X174646604Y-24846068D03*
X175601396Y-24945932D03*
%TD*%
D16*
%TO.C,CR26A*%
X286766000Y-59775000D03*
X287726000Y-59775000D03*
%TD*%
%TO.C,CR16B*%
X245198000Y-54525000D03*
X246158000Y-54525000D03*
%TD*%
D31*
%TO.C,HER29*%
X171785710Y-70968794D03*
X171999775Y-69080892D03*
X174153256Y-70281157D03*
%TD*%
D17*
%TO.C,HER11*%
X284612500Y-29525000D03*
X284612500Y-27625000D03*
X286887500Y-28575000D03*
%TD*%
D32*
%TO.C,CR6A*%
X204439049Y-3272299D03*
X205398351Y-3308901D03*
%TD*%
D33*
%TO.C,HER19*%
X218687440Y-48733946D03*
X218723981Y-46834299D03*
X220980290Y-47827877D03*
%TD*%
D17*
%TO.C,HER3*%
X268420500Y-10475000D03*
X268420500Y-8575000D03*
X270695500Y-9525000D03*
%TD*%
D16*
%TO.C,CR2B*%
X256628000Y-16425000D03*
X257588000Y-16425000D03*
%TD*%
D34*
%TO.C,HER35*%
X213806572Y-87077249D03*
X213865523Y-85178164D03*
X216109952Y-86198293D03*
%TD*%
D16*
%TO.C,CR4B*%
X285203000Y-16425000D03*
X286163000Y-16425000D03*
%TD*%
D17*
%TO.C,HER10*%
X260800500Y-29525000D03*
X260800500Y-27625000D03*
X263075500Y-28575000D03*
%TD*%
D16*
%TO.C,CR5B*%
X294728000Y-16425000D03*
X295688000Y-16425000D03*
%TD*%
D17*
%TO.C,HER34*%
X290327500Y-86675000D03*
X290327500Y-84775000D03*
X292602500Y-85725000D03*
%TD*%
D35*
%TO.C,HER7*%
X189631853Y-12078991D03*
X189797841Y-10186255D03*
X191981151Y-11331377D03*
%TD*%
D16*
%TO.C,CMR2*%
X211729000Y-71978000D03*
X212689000Y-71978000D03*
%TD*%
%TO.C,CR23A*%
X246285000Y-59775000D03*
X247245000Y-59775000D03*
%TD*%
%TO.C,CR5A*%
X281528000Y-2625000D03*
X282488000Y-2625000D03*
%TD*%
%TO.C,CR9A*%
X235808000Y-21675000D03*
X236768000Y-21675000D03*
%TD*%
D36*
%TO.C,CR22B*%
X240432600Y-73576249D03*
X241392600Y-73576751D03*
%TD*%
D21*
%TO.C,CR29B*%
X179881456Y-76211421D03*
X180835344Y-76319579D03*
%TD*%
D16*
%TO.C,CR24A*%
X265335000Y-59775000D03*
X266295000Y-59775000D03*
%TD*%
%TO.C,CR26B*%
X299966000Y-73575000D03*
X300926000Y-73575000D03*
%TD*%
D30*
%TO.C,CR14B*%
X189210604Y-37198068D03*
X190165396Y-37297932D03*
%TD*%
D16*
%TO.C,CR17A*%
X251047000Y-40725000D03*
X252007000Y-40725000D03*
%TD*%
D29*
%TO.C,AMR3*%
X248654000Y-67453000D03*
X247384000Y-67453000D03*
X246114000Y-67453000D03*
X244844000Y-67453000D03*
X243574000Y-67453000D03*
X242304000Y-67453000D03*
X241034000Y-67453000D03*
X239764000Y-67453000D03*
X239764000Y-62503000D03*
X241034000Y-62503000D03*
X242304000Y-62503000D03*
X243574000Y-62503000D03*
X244844000Y-62503000D03*
X246114000Y-62503000D03*
X247384000Y-62503000D03*
X248654000Y-62503000D03*
%TD*%
D37*
%TO.C,CR12B*%
X229924632Y-35502329D03*
X230884568Y-35513471D03*
%TD*%
D36*
%TO.C,CR22A*%
X227225400Y-59783249D03*
X228185400Y-59783751D03*
%TD*%
D16*
%TO.C,CR11A*%
X278670000Y-21675000D03*
X279630000Y-21675000D03*
%TD*%
D17*
%TO.C,HER4*%
X277945500Y-10475000D03*
X277945500Y-8575000D03*
X280220500Y-9525000D03*
%TD*%
D38*
%TO.C,HER28*%
X192813229Y-68974073D03*
X192965045Y-67080148D03*
X195156863Y-68208890D03*
%TD*%
D29*
%TO.C,AMR2*%
X210154000Y-68453000D03*
X208884000Y-68453000D03*
X207614000Y-68453000D03*
X206344000Y-68453000D03*
X205074000Y-68453000D03*
X203804000Y-68453000D03*
X202534000Y-68453000D03*
X201264000Y-68453000D03*
X201264000Y-63503000D03*
X202534000Y-63503000D03*
X203804000Y-63503000D03*
X205074000Y-63503000D03*
X206344000Y-63503000D03*
X207614000Y-63503000D03*
X208884000Y-63503000D03*
X210154000Y-63503000D03*
%TD*%
D16*
%TO.C,CR34B*%
X297585000Y-92625000D03*
X298545000Y-92625000D03*
%TD*%
D39*
%TO.C,CR19B*%
X226094589Y-54568568D03*
X227054411Y-54587032D03*
%TD*%
D24*
%TO.C,CR20B*%
X205878594Y-55089512D03*
X206836406Y-55154288D03*
%TD*%
D16*
%TO.C,CR32B*%
X278535000Y-92625000D03*
X279495000Y-92625000D03*
%TD*%
D40*
%TO.C,CR13B*%
X210008297Y-35853753D03*
X210966703Y-35909047D03*
%TD*%
D16*
%TO.C,CR17B*%
X264247000Y-54525000D03*
X265207000Y-54525000D03*
%TD*%
D41*
%TO.C,CR35A*%
X207682331Y-79456207D03*
X208641869Y-79485993D03*
%TD*%
D42*
%TO.C,HER14*%
X181175845Y-31898517D03*
X181373495Y-30008826D03*
X183537329Y-31190329D03*
%TD*%
D16*
%TO.C,CR25B*%
X290441000Y-73575000D03*
X291401000Y-73575000D03*
%TD*%
%TO.C,CR32A*%
X265335000Y-78825000D03*
X266295000Y-78825000D03*
%TD*%
D17*
%TO.C,HER16*%
X237940500Y-48575000D03*
X237940500Y-46675000D03*
X240215500Y-47625000D03*
%TD*%
D14*
%TO.C,HER15*%
X160786269Y-34116125D03*
X161001355Y-32228338D03*
X163154188Y-33429769D03*
%TD*%
D16*
%TO.C,CMR1*%
X190729000Y-71978000D03*
X191689000Y-71978000D03*
%TD*%
D43*
%TO.C,PTR1*%
X154418000Y-62985000D03*
X154418000Y-61715000D03*
X154418000Y-60445000D03*
X154418000Y-59175000D03*
X154418000Y-57905000D03*
X154418000Y-56635000D03*
X154418000Y-55365000D03*
X154418000Y-54095000D03*
X154418000Y-52825000D03*
X154418000Y-51555000D03*
X154418000Y-50285000D03*
X154418000Y-49015000D03*
%TD*%
D16*
%TO.C,CR18A*%
X277241000Y-40725000D03*
X278201000Y-40725000D03*
%TD*%
D17*
%TO.C,HER9*%
X241750500Y-29525000D03*
X241750500Y-27625000D03*
X244025500Y-28575000D03*
%TD*%
D37*
%TO.C,CR12A*%
X216565432Y-21856529D03*
X217525368Y-21867671D03*
%TD*%
D17*
%TO.C,HER24*%
X271277500Y-67625000D03*
X271277500Y-65725000D03*
X273552500Y-66675000D03*
%TD*%
D32*
%TO.C,CR6B*%
X218155649Y-16559099D03*
X219114951Y-16595701D03*
%TD*%
D16*
%TO.C,CR30B*%
X259320000Y-83000000D03*
X260280000Y-83000000D03*
%TD*%
D18*
%TO.C,CR8B*%
X176789786Y-19404160D03*
X177743614Y-19512840D03*
%TD*%
D44*
%TO.C,HER1*%
X230296480Y-10492576D03*
X230300525Y-8592580D03*
X232573497Y-9547422D03*
%TD*%
D23*
%TO.C,CR28B*%
X200674735Y-74430246D03*
X201631665Y-74506954D03*
%TD*%
D29*
%TO.C,AMR4*%
X279654000Y-55453000D03*
X278384000Y-55453000D03*
X277114000Y-55453000D03*
X275844000Y-55453000D03*
X274574000Y-55453000D03*
X273304000Y-55453000D03*
X272034000Y-55453000D03*
X270764000Y-55453000D03*
X270764000Y-50503000D03*
X272034000Y-50503000D03*
X273304000Y-50503000D03*
X274574000Y-50503000D03*
X275844000Y-50503000D03*
X277114000Y-50503000D03*
X278384000Y-50503000D03*
X279654000Y-50503000D03*
%TD*%
D41*
%TO.C,CR35B*%
X221304131Y-92840007D03*
X222263669Y-92869793D03*
%TD*%
D16*
%TO.C,CR24B*%
X278535000Y-73575000D03*
X279495000Y-73575000D03*
%TD*%
D17*
%TO.C,HER23*%
X252227500Y-67625000D03*
X252227500Y-65725000D03*
X254502500Y-66675000D03*
%TD*%
%TO.C,HER5*%
X287470500Y-10475000D03*
X287470500Y-8575000D03*
X289745500Y-9525000D03*
%TD*%
D45*
%TO.C,HER20*%
X198107991Y-49554082D03*
X198236194Y-47658412D03*
X200441908Y-48759753D03*
%TD*%
D16*
%TO.C,CR10A*%
X254858000Y-21675000D03*
X255818000Y-21675000D03*
%TD*%
D46*
%TO.C,HER21*%
X176985580Y-51366130D03*
X177193020Y-49477488D03*
X179350700Y-50670191D03*
%TD*%
D17*
%TO.C,HER32*%
X271277500Y-86675000D03*
X271277500Y-84775000D03*
X273552500Y-85725000D03*
%TD*%
D47*
%TO.C,HER13*%
X202310670Y-30255904D03*
X202420107Y-28359058D03*
X204636612Y-29438519D03*
%TD*%
D16*
%TO.C,CR2A*%
X243428000Y-2625000D03*
X244388000Y-2625000D03*
%TD*%
D48*
%TO.C,HER22*%
X233171003Y-67629404D03*
X233171998Y-65729405D03*
X235446500Y-66680596D03*
%TD*%
D16*
%TO.C,CR9B*%
X249008000Y-35475000D03*
X249968000Y-35475000D03*
%TD*%
D17*
%TO.C,HER33*%
X285565500Y-86675000D03*
X285565500Y-84775000D03*
X287840500Y-85725000D03*
%TD*%
D40*
%TO.C,CR13A*%
X196035297Y-22836953D03*
X196993703Y-22892247D03*
%TD*%
D16*
%TO.C,CR25A*%
X277241000Y-59775000D03*
X278201000Y-59775000D03*
%TD*%
D19*
%TO.C,CR27B*%
X221171430Y-73657757D03*
X222130970Y-73687443D03*
%TD*%
D39*
%TO.C,CR19A*%
X212631589Y-41024968D03*
X213591411Y-41043432D03*
%TD*%
D18*
%TO.C,CR15B*%
X168885786Y-39355160D03*
X169839614Y-39463840D03*
%TD*%
M02*
