%TF.GenerationSoftware,KiCad,Pcbnew,10.0.5*%
%TF.CreationDate,2026-09-12T17:12:35-04:00*%
%TF.ProjectId,Symm60HE-Neo-Right-Half,53796d6d-3630-4484-952d-4e656f2d5269,rev?*%
%TF.SameCoordinates,Original*%
%TF.FileFunction,Profile,NP*%
%FSLAX46Y46*%
G04 Gerber Fmt 4.6, Leading zero omitted, Abs format (unit mm)*
G04 Created by KiCad (PCBNEW 10.0.5) date 2026-09-12 17:12:35*
%MOMM*%
%LPD*%
G01*
G04 APERTURE LIST*
%TA.AperFunction,Profile*%
%ADD10C,0.100000*%
%TD*%
G04 APERTURE END LIST*
D10*
X151209000Y-44500000D02*
X151213500Y-44405000D01*
X151209000Y-67500000D02*
X151209000Y-44500000D01*
X151213500Y-44405000D02*
X151227000Y-44310900D01*
X151213800Y-67598000D02*
X151209000Y-67500000D01*
X151227000Y-44310900D02*
X151249400Y-44218500D01*
X151228200Y-67695100D02*
X151213800Y-67598000D01*
X151249400Y-44218500D02*
X151280500Y-44128700D01*
X151252100Y-67790300D02*
X151228200Y-67695100D01*
X151280500Y-44128700D02*
X151320000Y-44042200D01*
X151285100Y-67882700D02*
X151252100Y-67790300D01*
X151320000Y-44042200D02*
X151367400Y-43959800D01*
X151327100Y-67971400D02*
X151285100Y-67882700D01*
X151367400Y-43959800D02*
X151422500Y-43882400D01*
X151377500Y-68055600D02*
X151327100Y-67971400D01*
X151422500Y-43882400D02*
X151484800Y-43810500D01*
X151436000Y-68134400D02*
X151377500Y-68055600D01*
X151484800Y-43810500D02*
X151553500Y-43744800D01*
X151501900Y-68207100D02*
X151436000Y-68134400D01*
X151553500Y-43744800D02*
X151628200Y-43686000D01*
X151574600Y-68273000D02*
X151501900Y-68207100D01*
X151628200Y-43686000D02*
X151708100Y-43634500D01*
X151653400Y-68331500D02*
X151574600Y-68273000D01*
X151708100Y-43634500D02*
X151792600Y-43590800D01*
X151737600Y-68381900D02*
X151653400Y-68331500D01*
X151792600Y-43590800D02*
X151880800Y-43555400D01*
X151826300Y-68423900D02*
X151737600Y-68381900D01*
X151880800Y-43555400D02*
X151972000Y-43528500D01*
X151918700Y-68456900D02*
X151826300Y-68423900D01*
X151972000Y-43528500D02*
X152065300Y-43510400D01*
X152013900Y-68480800D02*
X151918700Y-68456900D01*
X152065300Y-43510400D02*
X152159900Y-43501200D01*
X152111000Y-68495200D02*
X152013900Y-68480800D01*
X152159900Y-43501200D02*
X152207900Y-43498900D01*
X152207900Y-43498900D02*
X152209000Y-43475500D01*
X152209000Y-23712200D02*
X152213700Y-23615200D01*
X152209000Y-43475500D02*
X152209000Y-23712200D01*
X152209000Y-68500000D02*
X152111000Y-68495200D01*
X152213700Y-23615200D02*
X152227800Y-23519100D01*
X152227800Y-23519100D02*
X152251200Y-23424900D01*
X152251200Y-23424900D02*
X152283600Y-23333300D01*
X152283600Y-23333300D02*
X152324700Y-23245300D01*
X152324700Y-23245300D02*
X152374200Y-23161800D01*
X152374200Y-23161800D02*
X152431500Y-23083400D01*
X152431500Y-23083400D02*
X152496200Y-23010900D01*
X152496200Y-23010900D02*
X152567600Y-22945100D01*
X152567600Y-22945100D02*
X152645000Y-22886500D01*
X152591900Y-80822700D02*
X152596100Y-80724700D01*
X152596100Y-80724700D02*
X152610000Y-80627500D01*
X152597200Y-80920700D02*
X152591900Y-80822700D01*
X152610000Y-80627500D02*
X152633300Y-80532200D01*
X152633300Y-80532200D02*
X152665800Y-80439600D01*
X152645000Y-22886500D02*
X152727800Y-22835700D01*
X152665800Y-80439600D02*
X152707200Y-80350600D01*
X152707200Y-80350600D02*
X152757200Y-80266200D01*
X152727800Y-22835700D02*
X152815100Y-22793100D01*
X152757200Y-80266200D02*
X152815200Y-80187000D01*
X152815100Y-22793100D02*
X152906100Y-22759200D01*
X152815200Y-80187000D02*
X152880700Y-80113900D01*
X152880700Y-80113900D02*
X152953000Y-80047600D01*
X152906100Y-22759200D02*
X153000000Y-22734300D01*
X152953000Y-80047600D02*
X153031500Y-79988700D01*
X153000000Y-22734300D02*
X153095800Y-22718700D01*
X153031500Y-79988700D02*
X153115400Y-79937800D01*
X153095800Y-22718700D02*
X159290700Y-22012900D01*
X153115400Y-79937800D02*
X153203900Y-79895300D01*
X153203900Y-79895300D02*
X153296100Y-79861700D01*
X153296100Y-79861700D02*
X153391100Y-79837300D01*
X153391100Y-79837300D02*
X153488100Y-79822400D01*
X153488100Y-79822400D02*
X162390400Y-78893800D01*
X155089800Y-104816100D02*
X152597200Y-80920700D01*
X155104700Y-104913100D02*
X155089800Y-104816100D01*
X155129100Y-105008100D02*
X155104700Y-104913100D01*
X155162700Y-105100300D02*
X155129100Y-105008100D01*
X155205200Y-105188800D02*
X155162700Y-105100300D01*
X155256100Y-105272700D02*
X155205200Y-105188800D01*
X155315000Y-105351200D02*
X155256100Y-105272700D01*
X155381300Y-105423500D02*
X155315000Y-105351200D01*
X155454400Y-105489000D02*
X155381300Y-105423500D01*
X155533600Y-105547000D02*
X155454400Y-105489000D01*
X155618000Y-105597000D02*
X155533600Y-105547000D01*
X155707000Y-105638400D02*
X155618000Y-105597000D01*
X155799600Y-105670900D02*
X155707000Y-105638400D01*
X155894900Y-105694200D02*
X155799600Y-105670900D01*
X155992100Y-105708100D02*
X155894900Y-105694200D01*
X156090100Y-105712300D02*
X155992100Y-105708100D01*
X156188100Y-105707000D02*
X156090100Y-105712300D01*
X157279300Y-4099400D02*
X157282600Y-4001400D01*
X157282600Y-4001400D02*
X157295500Y-3904100D01*
X157285600Y-4197400D02*
X157279300Y-4099400D01*
X157295500Y-3904100D02*
X157317900Y-3808500D01*
X157317900Y-3808500D02*
X157349600Y-3715600D01*
X157349600Y-3715600D02*
X157390200Y-3626300D01*
X157390200Y-3626300D02*
X157439300Y-3541400D01*
X157439300Y-3541400D02*
X157496600Y-3461700D01*
X157496600Y-3461700D02*
X157561400Y-3387900D01*
X157524700Y-105567500D02*
X156188100Y-105707000D01*
X157548800Y-105566200D02*
X157524700Y-105567500D01*
X157561400Y-3387900D02*
X157633000Y-3320900D01*
X157565300Y-105576000D02*
X157548800Y-105566200D01*
X157607100Y-105603700D02*
X157565300Y-105576000D01*
X157633000Y-3320900D02*
X157711000Y-3261300D01*
X157688100Y-105647400D02*
X157607100Y-105603700D01*
X157711000Y-3261300D02*
X157794400Y-3209500D01*
X157772800Y-105683400D02*
X157688100Y-105647400D01*
X157794400Y-3209500D02*
X157882400Y-3166200D01*
X157860400Y-105711500D02*
X157772800Y-105683400D01*
X157882400Y-3166200D02*
X157974300Y-3131800D01*
X157950200Y-105731400D02*
X157860400Y-105711500D01*
X157974300Y-3131800D02*
X158069100Y-3106500D01*
X158041500Y-105743000D02*
X157950200Y-105731400D01*
X158069100Y-3106500D02*
X158166000Y-3090600D01*
X158133400Y-105746100D02*
X158041500Y-105743000D01*
X158166000Y-3090600D02*
X178339000Y-792100D01*
X158225300Y-105740800D02*
X158133400Y-105746100D01*
X159290700Y-22012900D02*
X159313800Y-22009100D01*
X159312300Y-21985700D02*
X157285600Y-4197400D01*
X159313800Y-22009100D02*
X159312300Y-21985700D01*
X161212400Y-68500000D02*
X152209000Y-68500000D01*
X161235700Y-68501100D02*
X161212400Y-68500000D01*
X161239400Y-68524100D02*
X161235700Y-68501100D01*
X162390400Y-78893800D02*
X162413700Y-78890200D01*
X162412200Y-78866700D02*
X161239400Y-68524100D01*
X162413700Y-78890200D02*
X162412200Y-78866700D01*
X178339000Y-792100D02*
X178362800Y-788300D01*
X178362800Y-788300D02*
X178378600Y-784100D01*
X178378600Y-784100D02*
X178429500Y-767700D01*
X178429500Y-767700D02*
X178516500Y-748200D01*
X178516500Y-748200D02*
X178604800Y-736400D01*
X178604800Y-736400D02*
X179564600Y-652300D01*
X179564600Y-652300D02*
X179577500Y-651000D01*
X179577500Y-651000D02*
X179920000Y-612000D01*
X179920000Y-612000D02*
X180005100Y-605900D01*
X180005100Y-605900D02*
X180064000Y-606800D01*
X180064000Y-606800D02*
X180099700Y-605400D01*
X180099700Y-605400D02*
X199796500Y1122000D01*
X199796500Y1122000D02*
X199833400Y1127100D01*
X199833400Y1127100D02*
X199908400Y1141500D01*
X199908400Y1141500D02*
X200008600Y1150400D01*
X200008600Y1150400D02*
X200193200Y1157400D01*
X200193200Y1157400D02*
X200217800Y1159000D01*
X200217800Y1159000D02*
X200995500Y1227200D01*
X200995500Y1227200D02*
X201091100Y1230900D01*
X201091100Y1230900D02*
X201186600Y1225600D01*
X201186600Y1225600D02*
X201281200Y1211100D01*
X201281200Y1211100D02*
X201327000Y1201800D01*
X201327000Y1201800D02*
X201350700Y1201600D01*
X201350700Y1201600D02*
X219862600Y1907900D01*
X203189500Y-101050500D02*
X158225300Y-105740800D01*
X203286500Y-101035600D02*
X203189500Y-101050500D01*
X203381600Y-101011200D02*
X203286500Y-101035600D01*
X203473800Y-100977600D02*
X203381600Y-101011200D01*
X203562200Y-100935100D02*
X203473800Y-100977600D01*
X203646100Y-100884200D02*
X203562200Y-100935100D01*
X203724600Y-100825300D02*
X203646100Y-100884200D01*
X203796900Y-100759000D02*
X203724600Y-100825300D01*
X203862400Y-100685900D02*
X203796900Y-100759000D01*
X203889700Y-98113600D02*
X203891000Y-98136500D01*
X203891000Y-98136500D02*
X204080400Y-99952200D01*
X203912700Y-98111700D02*
X203889700Y-98113600D01*
X203920400Y-100606700D02*
X203862400Y-100685900D01*
X203970400Y-100522300D02*
X203920400Y-100606700D01*
X204011800Y-100433300D02*
X203970400Y-100522300D01*
X204044400Y-100340700D02*
X204011800Y-100433300D01*
X204067700Y-100245400D02*
X204044400Y-100340700D01*
X204080400Y-99952200D02*
X204085700Y-100050200D01*
X204081500Y-100148200D02*
X204067700Y-100245400D01*
X204085700Y-100050200D02*
X204081500Y-100148200D01*
X219862600Y1907900D02*
X219886400Y1909900D01*
X219886400Y1909900D02*
X219913500Y1917700D01*
X219913500Y1917700D02*
X220002900Y1938800D01*
X220002900Y1938800D02*
X220093900Y1951600D01*
X220093900Y1951600D02*
X220185700Y1956000D01*
X220185700Y1956000D02*
X221172100Y1958200D01*
X221172100Y1958200D02*
X221190100Y1958500D01*
X221190100Y1958500D02*
X222515100Y2009100D01*
X222515100Y2009100D02*
X222607900Y2008300D01*
X222607900Y2008300D02*
X222700400Y1998900D01*
X222700400Y1998900D02*
X222791500Y1981000D01*
X222791500Y1981000D02*
X222833800Y1968500D01*
X222833800Y1968500D02*
X222856700Y1962900D01*
X222856700Y1962900D02*
X222880500Y1961900D01*
X222880500Y1961900D02*
X223665900Y1963500D01*
X223665900Y1963500D02*
X223683900Y1963900D01*
X223683900Y1963900D02*
X224904500Y2010500D01*
X224904500Y2010500D02*
X224997400Y2009700D01*
X224997400Y2009700D02*
X225089700Y2000300D01*
X225089700Y2000300D02*
X225180800Y1982400D01*
X225180800Y1982400D02*
X225202700Y1976000D01*
X225202700Y1976000D02*
X225235600Y1968000D01*
X225235600Y1968000D02*
X225259400Y1966900D01*
X225259400Y1966900D02*
X242846500Y2004300D01*
X233563300Y-97191400D02*
X203912700Y-98111700D01*
X233582400Y-97191200D02*
X233563300Y-97191400D01*
X241843100Y-97250000D02*
X233582400Y-97191200D01*
X242846500Y2004300D02*
X242897700Y2003100D01*
X242897700Y2003100D02*
X242960900Y2000000D01*
X242960900Y2000000D02*
X243195400Y2000000D01*
X243195400Y2000000D02*
X245226500Y2004300D01*
X245226500Y2004300D02*
X245277700Y2003100D01*
X245277700Y2003100D02*
X245340900Y2000000D01*
X245340900Y2000000D02*
X301513000Y2000000D01*
X301513000Y2000000D02*
X301611000Y1995200D01*
X301611000Y1995200D02*
X301708100Y1980800D01*
X301708100Y1980800D02*
X301803300Y1956900D01*
X301803300Y1956900D02*
X301895700Y1923900D01*
X301895700Y1923900D02*
X301984400Y1881900D01*
X301984400Y1881900D02*
X302068600Y1831500D01*
X302068600Y1831500D02*
X302147400Y1773000D01*
X302147400Y1773000D02*
X302220100Y1707100D01*
X302220100Y1707100D02*
X302286000Y1634400D01*
X302286000Y1634400D02*
X302344500Y1555600D01*
X302344500Y1555600D02*
X302394900Y1471400D01*
X302394900Y1471400D02*
X302436900Y1382700D01*
X302436900Y1382700D02*
X302469900Y1290300D01*
X302469900Y1290300D02*
X302493800Y1195100D01*
X302493800Y1195100D02*
X302508200Y1098000D01*
X302508200Y1098000D02*
X302513000Y1000000D01*
X302513000Y1000000D02*
X302513000Y-17025500D01*
X302513000Y-17025500D02*
X302514100Y-17048900D01*
X302514100Y-17048900D02*
X302537500Y-17050000D01*
X302537500Y-17050000D02*
X303417500Y-17050000D01*
X303417500Y-17050000D02*
X303515500Y-17054800D01*
X303515500Y-17054800D02*
X303612600Y-17069200D01*
X303612600Y-17069200D02*
X303707800Y-17093100D01*
X303707800Y-17093100D02*
X303800200Y-17126100D01*
X303800200Y-17126100D02*
X303888900Y-17168100D01*
X303888900Y-17168100D02*
X303973100Y-17218500D01*
X303973100Y-17218500D02*
X304051900Y-17277000D01*
X304051900Y-17277000D02*
X304124600Y-17342900D01*
X304124600Y-17342900D02*
X304190500Y-17415600D01*
X304190500Y-17415600D02*
X304249000Y-17494400D01*
X304249000Y-17494400D02*
X304299400Y-17578600D01*
X304299400Y-17578600D02*
X304341400Y-17667300D01*
X304341400Y-17667300D02*
X304374400Y-17759700D01*
X304371000Y-97250000D02*
X241843100Y-97250000D01*
X304374400Y-17759700D02*
X304398300Y-17854900D01*
X304398300Y-17854900D02*
X304412700Y-17952000D01*
X304412700Y-17952000D02*
X304417500Y-18050000D01*
X304417500Y-18050000D02*
X304417500Y-36075500D01*
X304417500Y-36075500D02*
X304418600Y-36098900D01*
X304418600Y-36098900D02*
X304520700Y-36109000D01*
X304469000Y-97245200D02*
X304371000Y-97250000D01*
X304520700Y-36109000D02*
X304620000Y-36129300D01*
X304566100Y-97230800D02*
X304469000Y-97245200D01*
X304620000Y-36129300D02*
X304716800Y-36159500D01*
X304661300Y-97206900D02*
X304566100Y-97230800D01*
X304716800Y-36159500D02*
X304810100Y-36199400D01*
X304753700Y-97173900D02*
X304661300Y-97206900D01*
X304810100Y-36199400D02*
X304898800Y-36248500D01*
X304842400Y-97131900D02*
X304753700Y-97173900D01*
X304898800Y-36248500D02*
X304982100Y-36306300D01*
X304926600Y-97081500D02*
X304842400Y-97131900D01*
X304982100Y-36306300D02*
X305059100Y-36372300D01*
X305005400Y-97023000D02*
X304926600Y-97081500D01*
X305059100Y-36372300D02*
X305129000Y-36445800D01*
X305078100Y-96957100D02*
X305005400Y-97023000D01*
X305129000Y-36445800D02*
X305191100Y-36525900D01*
X305144000Y-96884400D02*
X305078100Y-96957100D01*
X305191100Y-36525900D02*
X305244800Y-36611900D01*
X305202500Y-96805600D02*
X305144000Y-96884400D01*
X305244800Y-36611900D02*
X305289500Y-36703000D01*
X305252900Y-96721400D02*
X305202500Y-96805600D01*
X305289500Y-36703000D02*
X305324700Y-36798000D01*
X305294900Y-96632700D02*
X305252900Y-96721400D01*
X305324700Y-36798000D02*
X305350200Y-36896200D01*
X305327900Y-96540300D02*
X305294900Y-96632700D01*
X305350200Y-36896200D02*
X305365600Y-36996400D01*
X305351800Y-96445100D02*
X305327900Y-96540300D01*
X305365600Y-36996400D02*
X305370700Y-37097700D01*
X305366200Y-96348000D02*
X305351800Y-96445100D01*
X305370700Y-37097700D02*
X305370700Y-55125500D01*
X305370700Y-55125500D02*
X305371800Y-55148900D01*
X305371000Y-81199500D02*
X305371000Y-96250000D01*
X305371000Y-96250000D02*
X305366200Y-96348000D01*
X305371800Y-55148900D02*
X305395200Y-55150000D01*
X305372100Y-81176100D02*
X305371000Y-81199500D01*
X305395200Y-55150000D02*
X309133300Y-55150000D01*
X305395500Y-81175000D02*
X305372100Y-81176100D01*
X309133300Y-55150000D02*
X309231300Y-55154800D01*
X309133300Y-81175000D02*
X305395500Y-81175000D01*
X309231300Y-55154800D02*
X309328400Y-55169200D01*
X309231300Y-81170200D02*
X309133300Y-81175000D01*
X309328400Y-55169200D02*
X309423600Y-55193100D01*
X309328400Y-81155800D02*
X309231300Y-81170200D01*
X309423600Y-55193100D02*
X309516000Y-55226100D01*
X309423600Y-81131900D02*
X309328400Y-81155800D01*
X309516000Y-55226100D02*
X309604700Y-55268100D01*
X309516000Y-81098900D02*
X309423600Y-81131900D01*
X309604700Y-55268100D02*
X309688900Y-55318500D01*
X309604700Y-81056900D02*
X309516000Y-81098900D01*
X309688900Y-55318500D02*
X309767700Y-55377000D01*
X309688900Y-81006500D02*
X309604700Y-81056900D01*
X309767700Y-55377000D02*
X309840400Y-55442900D01*
X309767700Y-80948000D02*
X309688900Y-81006500D01*
X309840400Y-55442900D02*
X309906300Y-55515600D01*
X309840400Y-80882100D02*
X309767700Y-80948000D01*
X309906300Y-55515600D02*
X309964800Y-55594400D01*
X309906300Y-80809400D02*
X309840400Y-80882100D01*
X309964800Y-55594400D02*
X310015200Y-55678600D01*
X309964800Y-80730600D02*
X309906300Y-80809400D01*
X310015200Y-55678600D02*
X310057200Y-55767300D01*
X310015200Y-80646400D02*
X309964800Y-80730600D01*
X310057200Y-55767300D02*
X310090200Y-55859700D01*
X310057200Y-80557700D02*
X310015200Y-80646400D01*
X310090200Y-55859700D02*
X310114100Y-55954900D01*
X310090200Y-80465300D02*
X310057200Y-80557700D01*
X310114100Y-55954900D02*
X310128500Y-56052000D01*
X310114100Y-80370100D02*
X310090200Y-80465300D01*
X310128500Y-56052000D02*
X310133300Y-56150000D01*
X310128500Y-80273000D02*
X310114100Y-80370100D01*
X310133300Y-56150000D02*
X310133300Y-80175000D01*
X310133300Y-80175000D02*
X310128500Y-80273000D01*
M02*
