M48
; DRILL file KiCad 10.0.5 date 2026-09-12T17:12:35
; FORMAT={-:-/ absolute / metric / decimal}
; #@! TF.CreationDate,2026-09-12T17:12:35-04:00
; #@! TF.GenerationSoftware,Kicad,Pcbnew,10.0.5
; #@! TF.FileFunction,Plated,1,2,PTH
FMAT,2
METRIC
; #@! TA.AperFunction,Plated,PTH,ViaDrill
T1C0.300
; #@! TA.AperFunction,Plated,PTH,ComponentDrill
T2C2.200
%
G90
G05
T1
X155.218Y-49.015
X155.218Y-50.285
X155.218Y-52.825
X155.218Y-55.365
X155.218Y-56.635
X155.218Y-57.905
X155.218Y-60.445
X155.218Y-62.985
X158.956Y-54.026
X160.209Y-50.5
X160.209Y-51.5
X160.209Y-53.5
X160.209Y-55.5
X160.209Y-57.5
X160.209Y-58.5
X160.209Y-59.5
X160.209Y-61.5
X161.473Y-56.021
X162.113Y-57.887
X162.729Y-52.714
X163.952Y-34.228
X166.205Y-10.434
X166.316Y-52.108
X172.954Y-85.593
X175.935Y-51.203
X176.741Y-62.896
X178.925Y-89.876
X179.847Y-72.648
X180.034Y-63.52
X180.121Y-51.441
X182.617Y-38.051
X183.537Y-32.377
X184.789Y-68.418
X184.879Y-61.22
X185.114Y-63.525
X185.579Y-61.788
X186.909Y-7.738
X187.05Y-63.689
X187.557Y-21.69
X188.917Y-63.223
X189.191Y-32.377
X190.228Y-40.213
X190.524Y-61.208
X191.837Y-22.318
X191.921Y-50.938
X193.198Y-64.264
X195.939Y-68.991
X196.385Y-19.652
X197.243Y-25.188
X200.167Y-60.599
X200.447Y-62.556
X201.891Y-66.417
X202.534Y-64.987
X202.574Y-59.683
X203.096Y-31.041
X205.062Y-55.397
X205.424Y-30.226
X206.112Y-64.991
X206.756Y-60.342
X207.281Y-5.412
X207.368Y-61.12
X207.614Y-66.964
X207.896Y-61.738
X209.473Y-59.534
X209.48Y-66.364
X209.588Y-65.094
X211.459Y-57.167
X213.699Y-10.763
X217.87Y-49.211
X219.566Y-66.364
X219.579Y-70.195
X225.764Y-8.094
X228.163Y-66.499
X228.842Y-60.495
X229.988Y-58.462
X230.476Y-57.249
X234.946Y-45.581
X236.529Y-54.078
X236.593Y-53.276
X239.764Y-64.013
X240.785Y-68.946
X240.868Y-64.016
X242.078Y-64.455
X243.428Y-5.174
X243.574Y-68.946
X244.844Y-61.022
X245.479Y-60.388
X245.495Y-65.693
X246.765Y-61.197
X247.42Y-70.195
X248.1Y-45.581
X249.246Y-66.132
X249.357Y-78.169
X249.932Y-63.104
X250.937Y-57.639
X252.02Y-54.426
X252.446Y-10.325
X258.862Y-72.952
X262.478Y-4.532
X264.109Y-30.801
X264.679Y-78.169
X265.103Y-64.167
X267.044Y-54.223
X267.438Y-34.855
X268.421Y-7.392
X269.19Y-54.835
X273.304Y-52.005
X273.876Y-64.171
X273.987Y-2.982
X274.365Y-67.488
X274.829Y-65.2
X275.197Y-52.606
X275.844Y-52.002
X276.123Y-53.609
X276.925Y-53.888
X277.14Y-9.381
X277.243Y-41.56
X277.944Y-58.66
X278.384Y-56.934
X278.754Y-58.773
X281.742Y-19.886
X281.997Y-60.409
X282.321Y-5.249
X282.352Y-67.454
X282.623Y-57.003
X285.459Y-48.791
X286.277Y-7.381
X290.563Y-10.343
X291.059Y-35.161
X292.16Y-71.006
X293.406Y-87.0
X295.808Y-90.848
T2
X159.209Y-95.478
X196.209Y-30.0
X297.209Y-21.978
X298.209Y-87.978
M30
