M48
; DRILL file KiCad 10.0.5 date 2026-09-21T10:22:58
; FORMAT={-:-/ absolute / metric / decimal}
; #@! TF.CreationDate,2026-09-21T10:22:58-04:00
; #@! TF.GenerationSoftware,Kicad,Pcbnew,10.0.5
; #@! TF.FileFunction,NonPlated,1,2,NPTH
FMAT,2
METRIC
; #@! TA.AperFunction,NonPlated,NPTH,ComponentDrill
T1C1.750
; #@! TA.AperFunction,NonPlated,NPTH,ComponentDrill
T2C2.200
; #@! TA.AperFunction,NonPlated,NPTH,ComponentDrill
T3C3.048
; #@! TA.AperFunction,NonPlated,NPTH,ComponentDrill
T4C3.988
%
G90
G05
T1
X162.132Y-37.995
X169.489Y-17.696
X172.167Y-36.406
X172.858Y-74.906
X175.838Y-93.72
X176.331Y-54.87
X179.524Y-16.107
X180.942Y-35.007
X182.893Y-73.316
X185.873Y-92.13
X186.366Y-53.28
X188.293Y-14.704
X190.976Y-33.418
X191.696Y-71.921
X195.135Y-51.892
X198.327Y-13.115
X199.625Y-31.847
X201.731Y-70.332
X205.169Y-50.303
X206.976Y-12.009
X209.73Y-30.785
X210.167Y-69.069
X212.159Y-88.014
X213.607Y-49.426
X217.081Y-10.947
X218.568Y-29.863
X220.272Y-68.007
X222.263Y-86.952
X223.711Y-48.364
X226.351Y-10.034
X228.673Y-28.801
X229.397Y-67.416
X232.789Y-48.104
X236.497Y-9.502
X237.808Y-28.575
X239.543Y-66.884
X242.935Y-47.572
X245.428Y-9.525
X247.968Y-28.575
X248.285Y-66.675
X248.285Y-85.725
X253.047Y-47.625
X255.588Y-9.525
X256.858Y-28.575
X258.445Y-66.675
X258.445Y-85.725
X263.207Y-47.625
X267.018Y-28.575
X267.335Y-66.675
X267.335Y-85.725
X274.003Y-9.525
X277.495Y-66.675
X277.495Y-85.725
X279.241Y-47.625
X280.67Y-28.575
X284.163Y-9.525
X286.385Y-85.725
X288.766Y-66.675
X289.401Y-47.625
X290.83Y-28.575
X296.545Y-85.725
X298.926Y-66.675
T2
X167.0Y-49.0
X204.0Y-92.0
X273.0Y-21.0
X299.0Y-44.0
T3
X170.189Y-101.687
X193.708Y-97.962
X267.177Y-2.54
X290.989Y-2.54
T4
X167.805Y-86.634
X191.324Y-82.909
X267.177Y-17.78
X290.989Y-17.78
M30
